<?xml version="1.0" encoding="UTF-8" standalone="no"?>
<!DOCTYPE svg PUBLIC "-//W3C//DTD SVG 1.1//EN"
 "http://www.w3.org/Graphics/SVG/1.1/DTD/svg11.dtd">
<!-- Generated by graphviz version 2.49.0 (20210830.1337)
 -->
<!-- Title: typeClassDefs/BallPosition.h Pages: 1 -->
<svg width="342pt" height="196pt"
 viewBox="0.00 0.00 341.50 196.00" xmlns="http://www.w3.org/2000/svg" xmlns:xlink="http://www.w3.org/1999/xlink">
<g id="graph0" class="graph" transform="scale(1 1) rotate(0) translate(4 192)">
<title>typeClassDefs/BallPosition.h</title>
<!-- Node1 -->
<g id="node1" class="node">
<title>Node1</title>
<g id="a_node1"><a xlink:title=" ">
<polygon fill="#bfbfbf" stroke="black" points="84.5,-168.5 84.5,-187.5 226.5,-187.5 226.5,-168.5 84.5,-168.5"/>
<text text-anchor="middle" x="155.5" y="-175.5" font-family="Helvetica,sans-Serif" font-size="10.00">typeClassDefs/BallPosition.h</text>
</a>
</g>
</g>
<!-- Node2 -->
<g id="node2" class="node">
<title>Node2</title>
<g id="a_node2"><a xlink:href="_ball_position_8hpp.html" target="_top" xlink:title=" ">
<polygon fill="none" stroke="black" points="112.5,-112.5 112.5,-131.5 198.5,-131.5 198.5,-112.5 112.5,-112.5"/>
<text text-anchor="middle" x="155.5" y="-119.5" font-family="Helvetica,sans-Serif" font-size="10.00">BallPosition.hpp</text>
</a>
</g>
</g>
<!-- Node1&#45;&gt;Node2 -->
<g id="edge1" class="edge">
<title>Node1&#45;&gt;Node2</title>
<path fill="none" stroke="midnightblue" d="M155.5,-168.08C155.5,-161.01 155.5,-150.86 155.5,-141.99"/>
<polygon fill="midnightblue" stroke="midnightblue" points="159,-141.75 155.5,-131.75 152,-141.75 159,-141.75"/>
</g>
<!-- Node3 -->
<g id="node3" class="node">
<title>Node3</title>
<g id="a_node3"><a xlink:title=" ">
<polygon fill="none" stroke="#bfbfbf" points="0,-56.5 0,-75.5 45,-75.5 45,-56.5 0,-56.5"/>
<text text-anchor="middle" x="22.5" y="-63.5" font-family="Helvetica,sans-Serif" font-size="10.00">cstdlib</text>
</a>
</g>
</g>
<!-- Node2&#45;&gt;Node3 -->
<g id="edge2" class="edge">
<title>Node2&#45;&gt;Node3</title>
<path fill="none" stroke="midnightblue" d="M134.43,-112.44C112.44,-103.52 77.77,-89.44 52.84,-79.32"/>
<polygon fill="midnightblue" stroke="midnightblue" points="54.06,-76.04 43.48,-75.52 51.42,-82.52 54.06,-76.04"/>
</g>
<!-- Node4 -->
<g id="node4" class="node">
<title>Node4</title>
<g id="a_node4"><a xlink:title=" ">
<polygon fill="none" stroke="#bfbfbf" points="63.5,-56.5 63.5,-75.5 111.5,-75.5 111.5,-56.5 63.5,-56.5"/>
<text text-anchor="middle" x="87.5" y="-63.5" font-family="Helvetica,sans-Serif" font-size="10.00">string.h</text>
</a>
</g>
</g>
<!-- Node2&#45;&gt;Node4 -->
<g id="edge3" class="edge">
<title>Node2&#45;&gt;Node4</title>
<path fill="none" stroke="midnightblue" d="M144.57,-112.32C134.33,-104.18 118.78,-91.84 106.5,-82.09"/>
<polygon fill="midnightblue" stroke="midnightblue" points="108.63,-79.31 98.62,-75.83 104.28,-84.79 108.63,-79.31"/>
</g>
<!-- Node5 -->
<g id="node5" class="node">
<title>Node5</title>
<g id="a_node5"><a xlink:title=" ">
<polygon fill="none" stroke="#bfbfbf" points="129.5,-56.5 129.5,-75.5 181.5,-75.5 181.5,-56.5 129.5,-56.5"/>
<text text-anchor="middle" x="155.5" y="-63.5" font-family="Helvetica,sans-Serif" font-size="10.00">sstream</text>
</a>
</g>
</g>
<!-- Node2&#45;&gt;Node5 -->
<g id="edge4" class="edge">
<title>Node2&#45;&gt;Node5</title>
<path fill="none" stroke="midnightblue" d="M155.5,-112.08C155.5,-105.01 155.5,-94.86 155.5,-85.99"/>
<polygon fill="midnightblue" stroke="midnightblue" points="159,-85.75 155.5,-75.75 152,-85.75 159,-85.75"/>
</g>
<!-- Node6 -->
<g id="node6" class="node">
<title>Node6</title>
<g id="a_node6"><a xlink:title=" ">
<polygon fill="none" stroke="#bfbfbf" points="187,-0.5 187,-19.5 240,-19.5 240,-0.5 187,-0.5"/>
<text text-anchor="middle" x="213.5" y="-7.5" font-family="Helvetica,sans-Serif" font-size="10.00">gu_util.h</text>
</a>
</g>
</g>
<!-- Node2&#45;&gt;Node6 -->
<g id="edge5" class="edge">
<title>Node2&#45;&gt;Node6</title>
<path fill="none" stroke="midnightblue" d="M163.66,-112.3C171.42,-103.65 183,-89.72 190.5,-76 198.58,-61.23 204.72,-43.07 208.62,-29.71"/>
<polygon fill="midnightblue" stroke="midnightblue" points="212.07,-30.36 211.36,-19.79 205.32,-28.5 212.07,-30.36"/>
</g>
<!-- Node7 -->
<g id="node7" class="node">
<title>Node7</title>
<g id="a_node7"><a xlink:href="wb__ball__position_8h.html" target="_top" xlink:title=" ">
<polygon fill="none" stroke="black" points="237.5,-56.5 237.5,-75.5 333.5,-75.5 333.5,-56.5 237.5,-56.5"/>
<text text-anchor="middle" x="285.5" y="-63.5" font-family="Helvetica,sans-Serif" font-size="10.00">wb_ball_position.h</text>
</a>
</g>
</g>
<!-- Node2&#45;&gt;Node7 -->
<g id="edge6" class="edge">
<title>Node2&#45;&gt;Node7</title>
<path fill="none" stroke="midnightblue" d="M176.1,-112.44C197.49,-103.56 231.18,-89.56 255.52,-79.45"/>
<polygon fill="midnightblue" stroke="midnightblue" points="257.11,-82.58 265,-75.52 254.42,-76.12 257.11,-82.58"/>
</g>
<!-- Node7&#45;&gt;Node6 -->
<g id="edge7" class="edge">
<title>Node7&#45;&gt;Node6</title>
<path fill="none" stroke="midnightblue" d="M273.93,-56.32C263.08,-48.18 246.62,-35.84 233.62,-26.09"/>
<polygon fill="midnightblue" stroke="midnightblue" points="235.38,-23.03 225.28,-19.83 231.18,-28.63 235.38,-23.03"/>
</g>
<!-- Node8 -->
<g id="node8" class="node">
<title>Node8</title>
<g id="a_node8"><a xlink:title=" ">
<polygon fill="none" stroke="#bfbfbf" points="261.5,-0.5 261.5,-19.5 309.5,-19.5 309.5,-0.5 261.5,-0.5"/>
<text text-anchor="middle" x="285.5" y="-7.5" font-family="Helvetica,sans-Serif" font-size="10.00">stdint.h</text>
</a>
</g>
</g>
<!-- Node7&#45;&gt;Node8 -->
<g id="edge8" class="edge">
<title>Node7&#45;&gt;Node8</title>
<path fill="none" stroke="midnightblue" d="M285.5,-56.08C285.5,-49.01 285.5,-38.86 285.5,-29.99"/>
<polygon fill="midnightblue" stroke="midnightblue" points="289,-29.75 285.5,-19.75 282,-29.75 289,-29.75"/>
</g>
</g>
</svg>
