<?xml version="1.0" encoding="UTF-8" standalone="no"?>
<!DOCTYPE svg PUBLIC "-//W3C//DTD SVG 1.1//EN"
 "http://www.w3.org/Graphics/SVG/1.1/DTD/svg11.dtd">
<!-- Generated by graphviz version 2.49.0 (20210830.1337)
 -->
<!-- Title: typeClassDefs/Channels.h Pages: 1 -->
<svg width="364pt" height="263pt"
 viewBox="0.00 0.00 364.00 263.00" xmlns="http://www.w3.org/2000/svg" xmlns:xlink="http://www.w3.org/1999/xlink">
<g id="graph0" class="graph" transform="scale(1 1) rotate(0) translate(4 259)">
<title>typeClassDefs/Channels.h</title>
<!-- Node1 -->
<g id="node1" class="node">
<title>Node1</title>
<g id="a_node1"><a xlink:title=" ">
<polygon fill="#bfbfbf" stroke="black" points="158,-235.5 158,-254.5 289,-254.5 289,-235.5 158,-235.5"/>
<text text-anchor="middle" x="223.5" y="-242.5" font-family="Helvetica,sans-Serif" font-size="10.00">typeClassDefs/Channels.h</text>
</a>
</g>
</g>
<!-- Node2 -->
<g id="node2" class="node">
<title>Node2</title>
<g id="a_node2"><a xlink:href="_channels_8hpp.html" target="_top" xlink:title=" ">
<polygon fill="none" stroke="black" points="186,-179.5 186,-198.5 261,-198.5 261,-179.5 186,-179.5"/>
<text text-anchor="middle" x="223.5" y="-186.5" font-family="Helvetica,sans-Serif" font-size="10.00">Channels.hpp</text>
</a>
</g>
</g>
<!-- Node1&#45;&gt;Node2 -->
<g id="edge1" class="edge">
<title>Node1&#45;&gt;Node2</title>
<path fill="none" stroke="midnightblue" d="M223.5,-235.08C223.5,-228.01 223.5,-217.86 223.5,-208.99"/>
<polygon fill="midnightblue" stroke="midnightblue" points="227,-208.75 223.5,-198.75 220,-208.75 227,-208.75"/>
</g>
<!-- Node3 -->
<g id="node3" class="node">
<title>Node3</title>
<g id="a_node3"><a xlink:href="wb__channels_8h.html" target="_top" xlink:title=" ">
<polygon fill="none" stroke="black" points="48,-123.5 48,-142.5 129,-142.5 129,-123.5 48,-123.5"/>
<text text-anchor="middle" x="88.5" y="-130.5" font-family="Helvetica,sans-Serif" font-size="10.00">wb_channels.h</text>
</a>
</g>
</g>
<!-- Node2&#45;&gt;Node3 -->
<g id="edge2" class="edge">
<title>Node2&#45;&gt;Node3</title>
<path fill="none" stroke="midnightblue" d="M202.11,-179.44C179.79,-170.52 144.6,-156.44 119.29,-146.32"/>
<polygon fill="midnightblue" stroke="midnightblue" points="120.38,-142.98 109.79,-142.52 117.78,-149.48 120.38,-142.98"/>
</g>
<!-- Node5 -->
<g id="node5" class="node">
<title>Node5</title>
<g id="a_node5"><a xlink:href="wb__io__pins_8h.html" target="_top" xlink:title=" ">
<polygon fill="none" stroke="black" points="147,-123.5 147,-142.5 220,-142.5 220,-123.5 147,-123.5"/>
<text text-anchor="middle" x="183.5" y="-130.5" font-family="Helvetica,sans-Serif" font-size="10.00">wb_io_pins.h</text>
</a>
</g>
</g>
<!-- Node2&#45;&gt;Node5 -->
<g id="edge4" class="edge">
<title>Node2&#45;&gt;Node5</title>
<path fill="none" stroke="midnightblue" d="M216.89,-179.08C211.24,-171.46 202.96,-160.26 196.05,-150.94"/>
<polygon fill="midnightblue" stroke="midnightblue" points="198.75,-148.7 189.98,-142.75 193.12,-152.87 198.75,-148.7"/>
</g>
<!-- Node11 -->
<g id="node11" class="node">
<title>Node11</title>
<g id="a_node11"><a xlink:title=" ">
<polygon fill="none" stroke="#bfbfbf" points="238.5,-123.5 238.5,-142.5 290.5,-142.5 290.5,-123.5 238.5,-123.5"/>
<text text-anchor="middle" x="264.5" y="-130.5" font-family="Helvetica,sans-Serif" font-size="10.00">sstream</text>
</a>
</g>
</g>
<!-- Node2&#45;&gt;Node11 -->
<g id="edge11" class="edge">
<title>Node2&#45;&gt;Node11</title>
<path fill="none" stroke="midnightblue" d="M230.27,-179.08C236.06,-171.46 244.56,-160.26 251.64,-150.94"/>
<polygon fill="midnightblue" stroke="midnightblue" points="254.6,-152.83 257.86,-142.75 249.02,-148.6 254.6,-152.83"/>
</g>
<!-- Node12 -->
<g id="node12" class="node">
<title>Node12</title>
<g id="a_node12"><a xlink:title=" ">
<polygon fill="none" stroke="#bfbfbf" points="309,-123.5 309,-142.5 356,-142.5 356,-123.5 309,-123.5"/>
<text text-anchor="middle" x="332.5" y="-130.5" font-family="Helvetica,sans-Serif" font-size="10.00">ctype.h</text>
</a>
</g>
</g>
<!-- Node2&#45;&gt;Node12 -->
<g id="edge12" class="edge">
<title>Node2&#45;&gt;Node12</title>
<path fill="none" stroke="midnightblue" d="M241.01,-179.32C258.57,-170.62 285.83,-157.12 306.03,-147.11"/>
<polygon fill="midnightblue" stroke="midnightblue" points="307.62,-150.23 315.03,-142.65 304.52,-143.96 307.62,-150.23"/>
</g>
<!-- Node4 -->
<g id="node4" class="node">
<title>Node4</title>
<g id="a_node4"><a xlink:title=" ">
<polygon fill="none" stroke="#bfbfbf" points="62,-62 62,-81 115,-81 115,-62 62,-62"/>
<text text-anchor="middle" x="88.5" y="-69" font-family="Helvetica,sans-Serif" font-size="10.00">gu_util.h</text>
</a>
</g>
</g>
<!-- Node3&#45;&gt;Node4 -->
<g id="edge3" class="edge">
<title>Node3&#45;&gt;Node4</title>
<path fill="none" stroke="midnightblue" d="M88.5,-123.48C88.5,-115.08 88.5,-101.98 88.5,-91.16"/>
<polygon fill="midnightblue" stroke="midnightblue" points="92,-91.01 88.5,-81.01 85,-91.01 92,-91.01"/>
</g>
<!-- Node5&#45;&gt;Node4 -->
<g id="edge5" class="edge">
<title>Node5&#45;&gt;Node4</title>
<path fill="none" stroke="midnightblue" d="M169.89,-123.48C154.44,-113.8 129.01,-97.87 110.68,-86.39"/>
<polygon fill="midnightblue" stroke="midnightblue" points="112.42,-83.35 102.09,-81.01 108.7,-89.28 112.42,-83.35"/>
</g>
<!-- Node6 -->
<g id="node6" class="node">
<title>Node6</title>
<g id="a_node6"><a xlink:href="gusimplewhiteboard_8h.html" target="_top" xlink:title=" ">
<polygon fill="none" stroke="black" points="133,-56.5 133,-86.5 246,-86.5 246,-56.5 133,-56.5"/>
<text text-anchor="start" x="141" y="-74.5" font-family="Helvetica,sans-Serif" font-size="10.00">gusimplewhiteboard</text>
<text text-anchor="middle" x="189.5" y="-63.5" font-family="Helvetica,sans-Serif" font-size="10.00">/gusimplewhiteboard.h</text>
</a>
</g>
</g>
<!-- Node5&#45;&gt;Node6 -->
<g id="edge6" class="edge">
<title>Node5&#45;&gt;Node6</title>
<path fill="none" stroke="midnightblue" d="M184.36,-123.48C185.07,-116.47 186.1,-106.19 187.06,-96.7"/>
<polygon fill="midnightblue" stroke="midnightblue" points="190.56,-96.82 188.09,-86.52 183.6,-96.12 190.56,-96.82"/>
</g>
<!-- Node7 -->
<g id="node7" class="node">
<title>Node7</title>
<g id="a_node7"><a xlink:title=" ">
<polygon fill="none" stroke="#bfbfbf" points="0,-0.5 0,-19.5 101,-19.5 101,-0.5 0,-0.5"/>
<text text-anchor="middle" x="50.5" y="-7.5" font-family="Helvetica,sans-Serif" font-size="10.00">dispatch/dispatch.h</text>
</a>
</g>
</g>
<!-- Node6&#45;&gt;Node7 -->
<g id="edge7" class="edge">
<title>Node6&#45;&gt;Node7</title>
<path fill="none" stroke="midnightblue" d="M156.56,-56.4C133.34,-46.46 102.51,-33.26 80.08,-23.66"/>
<polygon fill="midnightblue" stroke="midnightblue" points="81.3,-20.38 70.73,-19.66 78.54,-26.81 81.3,-20.38"/>
</g>
<!-- Node8 -->
<g id="node8" class="node">
<title>Node8</title>
<g id="a_node8"><a xlink:title=" ">
<polygon fill="none" stroke="#bfbfbf" points="119,-0.5 119,-19.5 184,-19.5 184,-0.5 119,-0.5"/>
<text text-anchor="middle" x="151.5" y="-7.5" font-family="Helvetica,sans-Serif" font-size="10.00">sys/types.h</text>
</a>
</g>
</g>
<!-- Node6&#45;&gt;Node8 -->
<g id="edge8" class="edge">
<title>Node6&#45;&gt;Node8</title>
<path fill="none" stroke="midnightblue" d="M180.49,-56.4C175.09,-47.93 168.17,-37.1 162.45,-28.14"/>
<polygon fill="midnightblue" stroke="midnightblue" points="165.36,-26.2 157.03,-19.66 159.46,-29.97 165.36,-26.2"/>
</g>
<!-- Node9 -->
<g id="node9" class="node">
<title>Node9</title>
<g id="a_node9"><a xlink:title=" ">
<polygon fill="none" stroke="#bfbfbf" points="202,-0.5 202,-19.5 255,-19.5 255,-0.5 202,-0.5"/>
<text text-anchor="middle" x="228.5" y="-7.5" font-family="Helvetica,sans-Serif" font-size="10.00">cstdbool</text>
</a>
</g>
</g>
<!-- Node6&#45;&gt;Node9 -->
<g id="edge9" class="edge">
<title>Node6&#45;&gt;Node9</title>
<path fill="none" stroke="midnightblue" d="M198.74,-56.4C204.29,-47.93 211.39,-37.1 217.27,-28.14"/>
<polygon fill="midnightblue" stroke="midnightblue" points="220.27,-29.94 222.83,-19.66 214.42,-26.1 220.27,-29.94"/>
</g>
<!-- Node10 -->
<g id="node10" class="node">
<title>Node10</title>
<g id="a_node10"><a xlink:title=" ">
<polygon fill="none" stroke="#bfbfbf" points="273.5,-0.5 273.5,-19.5 323.5,-19.5 323.5,-0.5 273.5,-0.5"/>
<text text-anchor="middle" x="298.5" y="-7.5" font-family="Helvetica,sans-Serif" font-size="10.00">unistd.h</text>
</a>
</g>
</g>
<!-- Node6&#45;&gt;Node10 -->
<g id="edge10" class="edge">
<title>Node6&#45;&gt;Node10</title>
<path fill="none" stroke="midnightblue" d="M215.33,-56.4C232.97,-46.77 256.2,-34.09 273.63,-24.58"/>
<polygon fill="midnightblue" stroke="midnightblue" points="275.54,-27.52 282.64,-19.66 272.19,-21.38 275.54,-27.52"/>
</g>
</g>
</svg>
