<?xml version="1.0" encoding="UTF-8" standalone="no"?>
<!DOCTYPE svg PUBLIC "-//W3C//DTD SVG 1.1//EN"
 "http://www.w3.org/Graphics/SVG/1.1/DTD/svg11.dtd">
<!-- Generated by graphviz version 2.49.0 (20210830.1337)
 -->
<!-- Title: typeClassDefs/DifferentialRobotControlStatus.hpp Pages: 1 -->
<svg width="626pt" height="207pt"
 viewBox="0.00 0.00 626.00 207.00" xmlns="http://www.w3.org/2000/svg" xmlns:xlink="http://www.w3.org/1999/xlink">
<g id="graph0" class="graph" transform="scale(1 1) rotate(0) translate(4 203)">
<title>typeClassDefs/DifferentialRobotControlStatus.hpp</title>
<!-- Node1 -->
<g id="node1" class="node">
<title>Node1</title>
<g id="a_node1"><a xlink:title=" ">
<polygon fill="#bfbfbf" stroke="black" points="154.5,-168.5 154.5,-198.5 282.5,-198.5 282.5,-168.5 154.5,-168.5"/>
<text text-anchor="start" x="162.5" y="-186.5" font-family="Helvetica,sans-Serif" font-size="10.00">typeClassDefs/Differential</text>
<text text-anchor="middle" x="218.5" y="-175.5" font-family="Helvetica,sans-Serif" font-size="10.00">RobotControlStatus.hpp</text>
</a>
</g>
</g>
<!-- Node2 -->
<g id="node2" class="node">
<title>Node2</title>
<g id="a_node2"><a xlink:title=" ">
<polygon fill="none" stroke="#bfbfbf" points="0,-112.5 0,-131.5 45,-131.5 45,-112.5 0,-112.5"/>
<text text-anchor="middle" x="22.5" y="-119.5" font-family="Helvetica,sans-Serif" font-size="10.00">cstdlib</text>
</a>
</g>
</g>
<!-- Node1&#45;&gt;Node2 -->
<g id="edge1" class="edge">
<title>Node1&#45;&gt;Node2</title>
<path fill="none" stroke="midnightblue" d="M172.05,-168.4C135.99,-157.45 86.92,-142.56 54.98,-132.86"/>
<polygon fill="midnightblue" stroke="midnightblue" points="55.83,-129.46 45.25,-129.91 53.8,-136.16 55.83,-129.46"/>
</g>
<!-- Node3 -->
<g id="node3" class="node">
<title>Node3</title>
<g id="a_node3"><a xlink:title=" ">
<polygon fill="none" stroke="#bfbfbf" points="63,-112.5 63,-131.5 110,-131.5 110,-112.5 63,-112.5"/>
<text text-anchor="middle" x="86.5" y="-119.5" font-family="Helvetica,sans-Serif" font-size="10.00">stdlib.h</text>
</a>
</g>
</g>
<!-- Node1&#45;&gt;Node3 -->
<g id="edge2" class="edge">
<title>Node1&#45;&gt;Node3</title>
<path fill="none" stroke="midnightblue" d="M187.22,-168.4C165.27,-158.51 136.16,-145.38 114.88,-135.79"/>
<polygon fill="midnightblue" stroke="midnightblue" points="116.26,-132.58 105.71,-131.66 113.39,-138.96 116.26,-132.58"/>
</g>
<!-- Node4 -->
<g id="node4" class="node">
<title>Node4</title>
<g id="a_node4"><a xlink:title=" ">
<polygon fill="none" stroke="#bfbfbf" points="128.5,-112.5 128.5,-131.5 174.5,-131.5 174.5,-112.5 128.5,-112.5"/>
<text text-anchor="middle" x="151.5" y="-119.5" font-family="Helvetica,sans-Serif" font-size="10.00">cstring</text>
</a>
</g>
</g>
<!-- Node1&#45;&gt;Node4 -->
<g id="edge3" class="edge">
<title>Node1&#45;&gt;Node4</title>
<path fill="none" stroke="midnightblue" d="M202.62,-168.4C192.48,-159.4 179.34,-147.72 168.91,-138.47"/>
<polygon fill="midnightblue" stroke="midnightblue" points="171.05,-135.68 161.25,-131.66 166.4,-140.92 171.05,-135.68"/>
</g>
<!-- Node5 -->
<g id="node5" class="node">
<title>Node5</title>
<g id="a_node5"><a xlink:title=" ">
<polygon fill="none" stroke="#bfbfbf" points="192.5,-112.5 192.5,-131.5 244.5,-131.5 244.5,-112.5 192.5,-112.5"/>
<text text-anchor="middle" x="218.5" y="-119.5" font-family="Helvetica,sans-Serif" font-size="10.00">sstream</text>
</a>
</g>
</g>
<!-- Node1&#45;&gt;Node5 -->
<g id="edge4" class="edge">
<title>Node1&#45;&gt;Node5</title>
<path fill="none" stroke="midnightblue" d="M218.5,-168.4C218.5,-160.47 218.5,-150.46 218.5,-141.86"/>
<polygon fill="midnightblue" stroke="midnightblue" points="222,-141.66 218.5,-131.66 215,-141.66 222,-141.66"/>
</g>
<!-- Node6 -->
<g id="node6" class="node">
<title>Node6</title>
<g id="a_node6"><a xlink:title=" ">
<polygon fill="none" stroke="#bfbfbf" points="565,-0.5 565,-19.5 618,-19.5 618,-0.5 565,-0.5"/>
<text text-anchor="middle" x="591.5" y="-7.5" font-family="Helvetica,sans-Serif" font-size="10.00">gu_util.h</text>
</a>
</g>
</g>
<!-- Node1&#45;&gt;Node6 -->
<g id="edge5" class="edge">
<title>Node1&#45;&gt;Node6</title>
<path fill="none" stroke="midnightblue" d="M282.51,-176.8C361.48,-168.99 490.58,-153.45 533.5,-132 565.55,-115.98 577.5,-108.98 591.5,-76 597.7,-61.39 597.09,-43.22 595.28,-29.81"/>
<polygon fill="midnightblue" stroke="midnightblue" points="598.71,-29.12 593.6,-19.84 591.81,-30.28 598.71,-29.12"/>
</g>
<!-- Node7 -->
<g id="node7" class="node">
<title>Node7</title>
<g id="a_node7"><a xlink:href="gusimplewhiteboard_8h.html" target="_top" xlink:title=" ">
<polygon fill="none" stroke="black" points="262.5,-112.5 262.5,-131.5 372.5,-131.5 372.5,-112.5 262.5,-112.5"/>
<text text-anchor="middle" x="317.5" y="-119.5" font-family="Helvetica,sans-Serif" font-size="10.00">gusimplewhiteboard.h</text>
</a>
</g>
</g>
<!-- Node1&#45;&gt;Node7 -->
<g id="edge6" class="edge">
<title>Node1&#45;&gt;Node7</title>
<path fill="none" stroke="midnightblue" d="M241.96,-168.4C257.83,-158.86 278.69,-146.32 294.47,-136.84"/>
<polygon fill="midnightblue" stroke="midnightblue" points="296.33,-139.81 303.09,-131.66 292.72,-133.81 296.33,-139.81"/>
</g>
<!-- Node12 -->
<g id="node12" class="node">
<title>Node12</title>
<g id="a_node12"><a xlink:href="wb__differential__robot_8h.html" target="_top" xlink:title=" ">
<polygon fill="none" stroke="black" points="411,-112.5 411,-131.5 524,-131.5 524,-112.5 411,-112.5"/>
<text text-anchor="middle" x="467.5" y="-119.5" font-family="Helvetica,sans-Serif" font-size="10.00">wb_differential_robot.h</text>
</a>
</g>
</g>
<!-- Node1&#45;&gt;Node12 -->
<g id="edge11" class="edge">
<title>Node1&#45;&gt;Node12</title>
<path fill="none" stroke="midnightblue" d="M277.19,-168.47C321.46,-157.9 381.31,-143.59 421.99,-133.87"/>
<polygon fill="midnightblue" stroke="midnightblue" points="422.99,-137.23 431.9,-131.51 421.36,-130.43 422.99,-137.23"/>
</g>
<!-- Node8 -->
<g id="node8" class="node">
<title>Node8</title>
<g id="a_node8"><a xlink:title=" ">
<polygon fill="none" stroke="#bfbfbf" points="114,-56.5 114,-75.5 215,-75.5 215,-56.5 114,-56.5"/>
<text text-anchor="middle" x="164.5" y="-63.5" font-family="Helvetica,sans-Serif" font-size="10.00">dispatch/dispatch.h</text>
</a>
</g>
</g>
<!-- Node7&#45;&gt;Node8 -->
<g id="edge7" class="edge">
<title>Node7&#45;&gt;Node8</title>
<path fill="none" stroke="midnightblue" d="M293.26,-112.44C267.63,-103.4 227.01,-89.06 198.26,-78.92"/>
<polygon fill="midnightblue" stroke="midnightblue" points="199.22,-75.54 188.63,-75.52 196.89,-82.15 199.22,-75.54"/>
</g>
<!-- Node9 -->
<g id="node9" class="node">
<title>Node9</title>
<g id="a_node9"><a xlink:title=" ">
<polygon fill="none" stroke="#bfbfbf" points="389,-0.5 389,-19.5 454,-19.5 454,-0.5 389,-0.5"/>
<text text-anchor="middle" x="421.5" y="-7.5" font-family="Helvetica,sans-Serif" font-size="10.00">sys/types.h</text>
</a>
</g>
</g>
<!-- Node7&#45;&gt;Node9 -->
<g id="edge8" class="edge">
<title>Node7&#45;&gt;Node9</title>
<path fill="none" stroke="midnightblue" d="M300.87,-112.42C279.42,-100.21 246.63,-76.99 262.5,-56 276.53,-37.45 336.56,-24.35 378.7,-17.23"/>
<polygon fill="midnightblue" stroke="midnightblue" points="379.42,-20.66 388.73,-15.59 378.29,-13.75 379.42,-20.66"/>
</g>
<!-- Node10 -->
<g id="node10" class="node">
<title>Node10</title>
<g id="a_node10"><a xlink:title=" ">
<polygon fill="none" stroke="#bfbfbf" points="272,-56.5 272,-75.5 325,-75.5 325,-56.5 272,-56.5"/>
<text text-anchor="middle" x="298.5" y="-63.5" font-family="Helvetica,sans-Serif" font-size="10.00">cstdbool</text>
</a>
</g>
</g>
<!-- Node7&#45;&gt;Node10 -->
<g id="edge9" class="edge">
<title>Node7&#45;&gt;Node10</title>
<path fill="none" stroke="midnightblue" d="M314.36,-112.08C311.82,-104.85 308.14,-94.41 304.97,-85.4"/>
<polygon fill="midnightblue" stroke="midnightblue" points="308.2,-84.02 301.58,-75.75 301.6,-86.35 308.2,-84.02"/>
</g>
<!-- Node11 -->
<g id="node11" class="node">
<title>Node11</title>
<g id="a_node11"><a xlink:title=" ">
<polygon fill="none" stroke="#bfbfbf" points="343.5,-56.5 343.5,-75.5 393.5,-75.5 393.5,-56.5 343.5,-56.5"/>
<text text-anchor="middle" x="368.5" y="-63.5" font-family="Helvetica,sans-Serif" font-size="10.00">unistd.h</text>
</a>
</g>
</g>
<!-- Node7&#45;&gt;Node11 -->
<g id="edge10" class="edge">
<title>Node7&#45;&gt;Node11</title>
<path fill="none" stroke="midnightblue" d="M325.92,-112.08C333.35,-104.22 344.35,-92.57 353.31,-83.08"/>
<polygon fill="midnightblue" stroke="midnightblue" points="355.91,-85.42 360.24,-75.75 350.82,-80.62 355.91,-85.42"/>
</g>
<!-- Node12&#45;&gt;Node6 -->
<g id="edge13" class="edge">
<title>Node12&#45;&gt;Node6</title>
<path fill="none" stroke="midnightblue" d="M508.41,-112.44C530.23,-105.9 555.93,-94.7 572.5,-76 583.82,-63.23 588.41,-44.03 590.27,-29.81"/>
<polygon fill="midnightblue" stroke="midnightblue" points="593.77,-29.98 591.24,-19.69 586.8,-29.31 593.77,-29.98"/>
</g>
<!-- Node12&#45;&gt;Node9 -->
<g id="edge12" class="edge">
<title>Node12&#45;&gt;Node9</title>
<path fill="none" stroke="midnightblue" d="M461.42,-112.4C455.43,-103.59 446.34,-89.36 440.5,-76 433.87,-60.85 428.79,-42.73 425.56,-29.48"/>
<polygon fill="midnightblue" stroke="midnightblue" points="428.95,-28.61 423.29,-19.66 422.13,-30.19 428.95,-28.61"/>
</g>
<!-- Node13 -->
<g id="node13" class="node">
<title>Node13</title>
<g id="a_node13"><a xlink:href="wb__kinematic__motor_8h.html" target="_top" xlink:title="Whiteboard Kinematic Motor Class Created by.">
<polygon fill="none" stroke="black" points="449.5,-56.5 449.5,-75.5 563.5,-75.5 563.5,-56.5 449.5,-56.5"/>
<text text-anchor="middle" x="506.5" y="-63.5" font-family="Helvetica,sans-Serif" font-size="10.00">wb_kinematic_motor.h</text>
</a>
</g>
</g>
<!-- Node12&#45;&gt;Node13 -->
<g id="edge14" class="edge">
<title>Node12&#45;&gt;Node13</title>
<path fill="none" stroke="midnightblue" d="M473.94,-112.08C479.45,-104.46 487.53,-93.26 494.26,-83.94"/>
<polygon fill="midnightblue" stroke="midnightblue" points="497.16,-85.91 500.18,-75.75 491.49,-81.81 497.16,-85.91"/>
</g>
<!-- Node13&#45;&gt;Node6 -->
<g id="edge16" class="edge">
<title>Node13&#45;&gt;Node6</title>
<path fill="none" stroke="midnightblue" d="M520.16,-56.32C533.42,-47.9 553.77,-34.97 569.35,-25.07"/>
<polygon fill="midnightblue" stroke="midnightblue" points="571.31,-27.97 577.88,-19.65 567.56,-22.06 571.31,-27.97"/>
</g>
<!-- Node13&#45;&gt;Node9 -->
<g id="edge15" class="edge">
<title>Node13&#45;&gt;Node9</title>
<path fill="none" stroke="midnightblue" d="M492.84,-56.32C479.58,-47.9 459.23,-34.97 443.65,-25.07"/>
<polygon fill="midnightblue" stroke="midnightblue" points="445.44,-22.06 435.12,-19.65 441.69,-27.97 445.44,-22.06"/>
</g>
</g>
</svg>
