<?xml version="1.0" encoding="UTF-8" standalone="no"?>
<!DOCTYPE svg PUBLIC "-//W3C//DTD SVG 1.1//EN"
 "http://www.w3.org/Graphics/SVG/1.1/DTD/svg11.dtd">
<!-- Generated by graphviz version 2.49.0 (20210830.1337)
 -->
<!-- Title: typeClassDefs/DominantFrequencies.hpp Pages: 1 -->
<svg width="603pt" height="252pt"
 viewBox="0.00 0.00 603.25 252.00" xmlns="http://www.w3.org/2000/svg" xmlns:xlink="http://www.w3.org/1999/xlink">
<g id="graph0" class="graph" transform="scale(1 1) rotate(0) translate(4 248)">
<title>typeClassDefs/DominantFrequencies.hpp</title>
<!-- Node1 -->
<g id="node1" class="node">
<title>Node1</title>
<g id="a_node1"><a xlink:title=" ">
<polygon fill="#bfbfbf" stroke="black" points="60.6,-224.5 60.6,-243.5 255.6,-243.5 255.6,-224.5 60.6,-224.5"/>
<text text-anchor="middle" x="158.1" y="-231.5" font-family="Helvetica,sans-Serif" font-size="10.00">typeClassDefs/DominantFrequencies.hpp</text>
</a>
</g>
</g>
<!-- Node2 -->
<g id="node2" class="node">
<title>Node2</title>
<g id="a_node2"><a xlink:title=" ">
<polygon fill="none" stroke="#bfbfbf" points="110.6,-56.5 110.6,-75.5 155.6,-75.5 155.6,-56.5 110.6,-56.5"/>
<text text-anchor="middle" x="133.1" y="-63.5" font-family="Helvetica,sans-Serif" font-size="10.00">cstdlib</text>
</a>
</g>
</g>
<!-- Node1&#45;&gt;Node2 -->
<g id="edge1" class="edge">
<title>Node1&#45;&gt;Node2</title>
<path fill="none" stroke="midnightblue" d="M156.75,-224.08C152.82,-197.95 141.26,-121.21 135.89,-85.58"/>
<polygon fill="midnightblue" stroke="midnightblue" points="139.34,-84.94 134.39,-75.57 132.42,-85.98 139.34,-84.94"/>
</g>
<!-- Node3 -->
<g id="node3" class="node">
<title>Node3</title>
<g id="a_node3"><a xlink:title=" ">
<polygon fill="none" stroke="#bfbfbf" points="44.1,-56.5 44.1,-75.5 92.1,-75.5 92.1,-56.5 44.1,-56.5"/>
<text text-anchor="middle" x="68.1" y="-63.5" font-family="Helvetica,sans-Serif" font-size="10.00">string.h</text>
</a>
</g>
</g>
<!-- Node1&#45;&gt;Node3 -->
<g id="edge2" class="edge">
<title>Node1&#45;&gt;Node3</title>
<path fill="none" stroke="midnightblue" d="M104.91,-224.42C82.52,-218.08 58.21,-207.08 43.1,-188 22.01,-161.37 24.53,-144.28 35.1,-112 38.59,-101.34 45.67,-91.12 52.38,-83.12"/>
<polygon fill="midnightblue" stroke="midnightblue" points="55,-85.44 59.08,-75.66 49.79,-80.76 55,-85.44"/>
</g>
<!-- Node4 -->
<g id="node4" class="node">
<title>Node4</title>
<g id="a_node4"><a xlink:title=" ">
<polygon fill="none" stroke="#bfbfbf" points="174.1,-56.5 174.1,-75.5 226.1,-75.5 226.1,-56.5 174.1,-56.5"/>
<text text-anchor="middle" x="200.1" y="-63.5" font-family="Helvetica,sans-Serif" font-size="10.00">sstream</text>
</a>
</g>
</g>
<!-- Node1&#45;&gt;Node4 -->
<g id="edge3" class="edge">
<title>Node1&#45;&gt;Node4</title>
<path fill="none" stroke="midnightblue" d="M160.36,-224.08C166.97,-197.95 186.38,-121.21 195.4,-85.58"/>
<polygon fill="midnightblue" stroke="midnightblue" points="198.87,-86.12 197.93,-75.57 192.08,-84.4 198.87,-86.12"/>
</g>
<!-- Node5 -->
<g id="node5" class="node">
<title>Node5</title>
<g id="a_node5"><a xlink:title=" ">
<polygon fill="none" stroke="#bfbfbf" points="266.6,-0.5 266.6,-19.5 319.6,-19.5 319.6,-0.5 266.6,-0.5"/>
<text text-anchor="middle" x="293.1" y="-7.5" font-family="Helvetica,sans-Serif" font-size="10.00">gu_util.h</text>
</a>
</g>
</g>
<!-- Node1&#45;&gt;Node5 -->
<g id="edge4" class="edge">
<title>Node1&#45;&gt;Node5</title>
<path fill="none" stroke="midnightblue" d="M87.25,-224.44C64.78,-218.05 42.15,-207.01 28.1,-188 -6.78,-140.82 -11.17,-100.47 27.1,-56 56.25,-22.12 189.81,-13.74 255.87,-11.68"/>
<polygon fill="midnightblue" stroke="midnightblue" points="256.35,-15.16 266.25,-11.39 256.15,-8.17 256.35,-15.16"/>
</g>
<!-- Node6 -->
<g id="node6" class="node">
<title>Node6</title>
<g id="a_node6"><a xlink:href="wb__dominant__frequencies_8h.html" target="_top" xlink:title=" ">
<polygon fill="none" stroke="black" points="405.6,-112.5 405.6,-131.5 542.6,-131.5 542.6,-112.5 405.6,-112.5"/>
<text text-anchor="middle" x="474.1" y="-119.5" font-family="Helvetica,sans-Serif" font-size="10.00">wb_dominant_frequencies.h</text>
</a>
</g>
</g>
<!-- Node1&#45;&gt;Node6 -->
<g id="edge5" class="edge">
<title>Node1&#45;&gt;Node6</title>
<path fill="none" stroke="midnightblue" d="M221.04,-224.43C262.38,-217.54 317.12,-205.99 363.1,-188 396.94,-174.76 432.62,-152.08 454.12,-137.32"/>
<polygon fill="midnightblue" stroke="midnightblue" points="456.22,-140.12 462.41,-131.53 452.21,-134.38 456.22,-140.12"/>
</g>
<!-- Node10 -->
<g id="node10" class="node">
<title>Node10</title>
<g id="a_node10"><a xlink:href="_microphone_frequencies_8h.html" target="_top" xlink:title=" ">
<polygon fill="none" stroke="black" points="226.1,-168.5 226.1,-187.5 354.1,-187.5 354.1,-168.5 226.1,-168.5"/>
<text text-anchor="middle" x="290.1" y="-175.5" font-family="Helvetica,sans-Serif" font-size="10.00">MicrophoneFrequencies.h</text>
</a>
</g>
</g>
<!-- Node1&#45;&gt;Node10 -->
<g id="edge14" class="edge">
<title>Node1&#45;&gt;Node10</title>
<path fill="none" stroke="midnightblue" d="M179.01,-224.44C200.83,-215.52 235.25,-201.44 259.99,-191.32"/>
<polygon fill="midnightblue" stroke="midnightblue" points="261.35,-194.54 269.28,-187.52 258.7,-188.06 261.35,-194.54"/>
</g>
<!-- Node12 -->
<g id="node12" class="node">
<title>Node12</title>
<g id="a_node12"><a xlink:href="_r_m_s_levels_8h.html" target="_top" xlink:title=" ">
<polygon fill="none" stroke="black" points="51.6,-168.5 51.6,-187.5 126.6,-187.5 126.6,-168.5 51.6,-168.5"/>
<text text-anchor="middle" x="89.1" y="-175.5" font-family="Helvetica,sans-Serif" font-size="10.00">RMSLevels.h</text>
</a>
</g>
</g>
<!-- Node1&#45;&gt;Node12 -->
<g id="edge21" class="edge">
<title>Node1&#45;&gt;Node12</title>
<path fill="none" stroke="midnightblue" d="M147.01,-224.32C136.61,-216.18 120.84,-203.84 108.38,-194.09"/>
<polygon fill="midnightblue" stroke="midnightblue" points="110.42,-191.24 100.38,-187.83 106.1,-196.75 110.42,-191.24"/>
</g>
<!-- Node6&#45;&gt;Node5 -->
<g id="edge6" class="edge">
<title>Node6&#45;&gt;Node5</title>
<path fill="none" stroke="midnightblue" d="M501.33,-112.47C532.7,-101.25 577.46,-80.13 557.1,-56 542.59,-38.81 399.09,-21.89 329.96,-14.66"/>
<polygon fill="midnightblue" stroke="midnightblue" points="330.23,-11.17 319.93,-13.62 329.52,-18.13 330.23,-11.17"/>
</g>
<!-- Node7 -->
<g id="node7" class="node">
<title>Node7</title>
<g id="a_node7"><a xlink:title=" ">
<polygon fill="none" stroke="#bfbfbf" points="450.1,-0.5 450.1,-19.5 498.1,-19.5 498.1,-0.5 450.1,-0.5"/>
<text text-anchor="middle" x="474.1" y="-7.5" font-family="Helvetica,sans-Serif" font-size="10.00">stdint.h</text>
</a>
</g>
</g>
<!-- Node6&#45;&gt;Node7 -->
<g id="edge7" class="edge">
<title>Node6&#45;&gt;Node7</title>
<path fill="none" stroke="midnightblue" d="M532.67,-112.48C554.42,-106.16 576.98,-95.16 590.1,-76 612.99,-42.57 549.96,-24.42 508.06,-16.32"/>
<polygon fill="midnightblue" stroke="midnightblue" points="508.66,-12.87 498.19,-14.52 507.4,-19.76 508.66,-12.87"/>
</g>
<!-- Node8 -->
<g id="node8" class="node">
<title>Node8</title>
<g id="a_node8"><a xlink:href="wb__microphone__frequencies_8h.html" target="_top" xlink:title=" ">
<polygon fill="none" stroke="black" points="400.1,-56.5 400.1,-75.5 548.1,-75.5 548.1,-56.5 400.1,-56.5"/>
<text text-anchor="middle" x="474.1" y="-63.5" font-family="Helvetica,sans-Serif" font-size="10.00">wb_microphone_frequencies.h</text>
</a>
</g>
</g>
<!-- Node6&#45;&gt;Node8 -->
<g id="edge8" class="edge">
<title>Node6&#45;&gt;Node8</title>
<path fill="none" stroke="midnightblue" d="M474.1,-112.08C474.1,-105.01 474.1,-94.86 474.1,-85.99"/>
<polygon fill="midnightblue" stroke="midnightblue" points="477.6,-85.75 474.1,-75.75 470.6,-85.75 477.6,-85.75"/>
</g>
<!-- Node9 -->
<g id="node9" class="node">
<title>Node9</title>
<g id="a_node9"><a xlink:href="wb__r__m__s__levels_8h.html" target="_top" xlink:title=" ">
<polygon fill="none" stroke="black" points="282.1,-56.5 282.1,-75.5 382.1,-75.5 382.1,-56.5 282.1,-56.5"/>
<text text-anchor="middle" x="332.1" y="-63.5" font-family="Helvetica,sans-Serif" font-size="10.00">wb_r_m_s_levels.h</text>
</a>
</g>
</g>
<!-- Node6&#45;&gt;Node9 -->
<g id="edge11" class="edge">
<title>Node6&#45;&gt;Node9</title>
<path fill="none" stroke="midnightblue" d="M451.6,-112.44C428.02,-103.48 390.77,-89.31 364.13,-79.18"/>
<polygon fill="midnightblue" stroke="midnightblue" points="365.08,-75.8 354.49,-75.52 362.6,-82.34 365.08,-75.8"/>
</g>
<!-- Node8&#45;&gt;Node5 -->
<g id="edge9" class="edge">
<title>Node8&#45;&gt;Node5</title>
<path fill="none" stroke="midnightblue" d="M445.42,-56.44C414.03,-47.08 363.63,-32.04 329.48,-21.85"/>
<polygon fill="midnightblue" stroke="midnightblue" points="330.46,-18.49 319.87,-18.99 328.45,-25.2 330.46,-18.49"/>
</g>
<!-- Node8&#45;&gt;Node7 -->
<g id="edge10" class="edge">
<title>Node8&#45;&gt;Node7</title>
<path fill="none" stroke="midnightblue" d="M474.1,-56.08C474.1,-49.01 474.1,-38.86 474.1,-29.99"/>
<polygon fill="midnightblue" stroke="midnightblue" points="477.6,-29.75 474.1,-19.75 470.6,-29.75 477.6,-29.75"/>
</g>
<!-- Node9&#45;&gt;Node5 -->
<g id="edge12" class="edge">
<title>Node9&#45;&gt;Node5</title>
<path fill="none" stroke="midnightblue" d="M325.66,-56.08C320.15,-48.46 312.07,-37.26 305.33,-27.94"/>
<polygon fill="midnightblue" stroke="midnightblue" points="308.11,-25.81 299.42,-19.75 302.43,-29.91 308.11,-25.81"/>
</g>
<!-- Node9&#45;&gt;Node7 -->
<g id="edge13" class="edge">
<title>Node9&#45;&gt;Node7</title>
<path fill="none" stroke="midnightblue" d="M354.6,-56.44C378.17,-47.48 415.42,-33.31 442.06,-23.18"/>
<polygon fill="midnightblue" stroke="midnightblue" points="443.6,-26.34 451.7,-19.52 441.11,-19.8 443.6,-26.34"/>
</g>
<!-- Node11 -->
<g id="node11" class="node">
<title>Node11</title>
<g id="a_node11"><a xlink:href="_microphone_frequencies_8hpp.html" target="_top" xlink:title=" ">
<polygon fill="none" stroke="black" points="224.1,-112.5 224.1,-131.5 362.1,-131.5 362.1,-112.5 224.1,-112.5"/>
<text text-anchor="middle" x="293.1" y="-119.5" font-family="Helvetica,sans-Serif" font-size="10.00">MicrophoneFrequencies.hpp</text>
</a>
</g>
</g>
<!-- Node10&#45;&gt;Node11 -->
<g id="edge15" class="edge">
<title>Node10&#45;&gt;Node11</title>
<path fill="none" stroke="midnightblue" d="M290.59,-168.08C290.99,-161.01 291.55,-150.86 292.04,-141.99"/>
<polygon fill="midnightblue" stroke="midnightblue" points="295.55,-141.93 292.61,-131.75 288.56,-141.54 295.55,-141.93"/>
</g>
<!-- Node11&#45;&gt;Node2 -->
<g id="edge16" class="edge">
<title>Node11&#45;&gt;Node2</title>
<path fill="none" stroke="midnightblue" d="M267.74,-112.44C240.04,-103.09 195.57,-88.09 165.39,-77.9"/>
<polygon fill="midnightblue" stroke="midnightblue" points="166.34,-74.52 155.74,-74.64 164.1,-81.16 166.34,-74.52"/>
</g>
<!-- Node11&#45;&gt;Node3 -->
<g id="edge17" class="edge">
<title>Node11&#45;&gt;Node3</title>
<path fill="none" stroke="midnightblue" d="M255.33,-112.42C216.75,-103.59 155.14,-89.27 102.1,-76 102,-75.97 101.9,-75.95 101.8,-75.92"/>
<polygon fill="midnightblue" stroke="midnightblue" points="102.78,-72.56 92.22,-73.47 101.04,-79.34 102.78,-72.56"/>
</g>
<!-- Node11&#45;&gt;Node4 -->
<g id="edge18" class="edge">
<title>Node11&#45;&gt;Node4</title>
<path fill="none" stroke="midnightblue" d="M278.16,-112.32C263.51,-103.82 240.96,-90.73 223.86,-80.8"/>
<polygon fill="midnightblue" stroke="midnightblue" points="225.41,-77.65 215,-75.65 221.89,-83.7 225.41,-77.65"/>
</g>
<!-- Node11&#45;&gt;Node5 -->
<g id="edge19" class="edge">
<title>Node11&#45;&gt;Node5</title>
<path fill="none" stroke="midnightblue" d="M287.44,-112.3C280.11,-99.95 268.73,-76.56 273.1,-56 275.09,-46.59 279.2,-36.76 283.17,-28.7"/>
<polygon fill="midnightblue" stroke="midnightblue" points="286.4,-30.07 287.97,-19.59 280.21,-26.81 286.4,-30.07"/>
</g>
<!-- Node11&#45;&gt;Node8 -->
<g id="edge20" class="edge">
<title>Node11&#45;&gt;Node8</title>
<path fill="none" stroke="midnightblue" d="M321.78,-112.44C352.62,-103.24 401.83,-88.56 435.93,-78.39"/>
<polygon fill="midnightblue" stroke="midnightblue" points="436.97,-81.73 445.55,-75.52 434.97,-75.02 436.97,-81.73"/>
</g>
<!-- Node13 -->
<g id="node13" class="node">
<title>Node13</title>
<g id="a_node13"><a xlink:href="_r_m_s_levels_8hpp.html" target="_top" xlink:title=" ">
<polygon fill="none" stroke="black" points="44.1,-112.5 44.1,-131.5 130.1,-131.5 130.1,-112.5 44.1,-112.5"/>
<text text-anchor="middle" x="87.1" y="-119.5" font-family="Helvetica,sans-Serif" font-size="10.00">RMSLevels.hpp</text>
</a>
</g>
</g>
<!-- Node12&#45;&gt;Node13 -->
<g id="edge22" class="edge">
<title>Node12&#45;&gt;Node13</title>
<path fill="none" stroke="midnightblue" d="M88.77,-168.08C88.5,-161.01 88.13,-150.86 87.8,-141.99"/>
<polygon fill="midnightblue" stroke="midnightblue" points="91.29,-141.61 87.42,-131.75 84.29,-141.87 91.29,-141.61"/>
</g>
<!-- Node13&#45;&gt;Node2 -->
<g id="edge23" class="edge">
<title>Node13&#45;&gt;Node2</title>
<path fill="none" stroke="midnightblue" d="M94.69,-112.08C101.32,-104.3 111.12,-92.8 119.16,-83.37"/>
<polygon fill="midnightblue" stroke="midnightblue" points="121.82,-85.63 125.64,-75.75 116.49,-81.09 121.82,-85.63"/>
</g>
<!-- Node13&#45;&gt;Node3 -->
<g id="edge24" class="edge">
<title>Node13&#45;&gt;Node3</title>
<path fill="none" stroke="midnightblue" d="M83.96,-112.08C81.41,-104.85 77.74,-94.41 74.57,-85.4"/>
<polygon fill="midnightblue" stroke="midnightblue" points="77.8,-84.02 71.18,-75.75 71.19,-86.35 77.8,-84.02"/>
</g>
<!-- Node13&#45;&gt;Node4 -->
<g id="edge25" class="edge">
<title>Node13&#45;&gt;Node4</title>
<path fill="none" stroke="midnightblue" d="M105,-112.44C123.35,-103.68 152.1,-89.94 173.19,-79.86"/>
<polygon fill="midnightblue" stroke="midnightblue" points="174.76,-82.99 182.28,-75.52 171.74,-76.67 174.76,-82.99"/>
</g>
<!-- Node13&#45;&gt;Node5 -->
<g id="edge26" class="edge">
<title>Node13&#45;&gt;Node5</title>
<path fill="none" stroke="midnightblue" d="M71.64,-112.48C50.87,-99.96 18.36,-75.91 35.1,-56 62.95,-22.87 192.09,-14.13 256.44,-11.82"/>
<polygon fill="midnightblue" stroke="midnightblue" points="256.68,-15.32 266.56,-11.5 256.45,-8.32 256.68,-15.32"/>
</g>
<!-- Node13&#45;&gt;Node9 -->
<g id="edge27" class="edge">
<title>Node13&#45;&gt;Node9</title>
<path fill="none" stroke="midnightblue" d="M125.92,-112.44C168.66,-103.02 237.43,-87.87 283.66,-77.68"/>
<polygon fill="midnightblue" stroke="midnightblue" points="284.45,-81.09 293.46,-75.52 282.94,-74.25 284.45,-81.09"/>
</g>
</g>
</svg>
