<?xml version="1.0" encoding="UTF-8" standalone="no"?>
<!DOCTYPE svg PUBLIC "-//W3C//DTD SVG 1.1//EN"
 "http://www.w3.org/Graphics/SVG/1.1/DTD/svg11.dtd">
<!-- Generated by graphviz version 2.49.0 (20210830.1337)
 -->
<!-- Title: typeClassDefs/FFTStatus.hpp Pages: 1 -->
<svg width="800pt" height="140pt"
 viewBox="0.00 0.00 799.50 140.00" xmlns="http://www.w3.org/2000/svg" xmlns:xlink="http://www.w3.org/1999/xlink">
<g id="graph0" class="graph" transform="scale(1 1) rotate(0) translate(4 136)">
<title>typeClassDefs/FFTStatus.hpp</title>
<!-- Node1 -->
<g id="node1" class="node">
<title>Node1</title>
<g id="a_node1"><a xlink:title=" ">
<polygon fill="#bfbfbf" stroke="black" points="186,-112.5 186,-131.5 333,-131.5 333,-112.5 186,-112.5"/>
<text text-anchor="middle" x="259.5" y="-119.5" font-family="Helvetica,sans-Serif" font-size="10.00">typeClassDefs/FFTStatus.hpp</text>
</a>
</g>
</g>
<!-- Node2 -->
<g id="node2" class="node">
<title>Node2</title>
<g id="a_node2"><a xlink:title=" ">
<polygon fill="none" stroke="#bfbfbf" points="0,-56.5 0,-75.5 49,-75.5 49,-56.5 0,-56.5"/>
<text text-anchor="middle" x="24.5" y="-63.5" font-family="Helvetica,sans-Serif" font-size="10.00">cstddef</text>
</a>
</g>
</g>
<!-- Node1&#45;&gt;Node2 -->
<g id="edge1" class="edge">
<title>Node1&#45;&gt;Node2</title>
<path fill="none" stroke="midnightblue" d="M218.36,-112.43C179.6,-104.22 119.69,-91.2 59.4,-76.4"/>
<polygon fill="midnightblue" stroke="midnightblue" points="59.88,-72.91 49.33,-73.91 58.2,-79.7 59.88,-72.91"/>
</g>
<!-- Node3 -->
<g id="node3" class="node">
<title>Node3</title>
<g id="a_node3"><a xlink:title=" ">
<polygon fill="none" stroke="#bfbfbf" points="67,-56.5 67,-75.5 116,-75.5 116,-56.5 67,-56.5"/>
<text text-anchor="middle" x="91.5" y="-63.5" font-family="Helvetica,sans-Serif" font-size="10.00">cassert</text>
</a>
</g>
</g>
<!-- Node1&#45;&gt;Node3 -->
<g id="edge2" class="edge">
<title>Node1&#45;&gt;Node3</title>
<path fill="none" stroke="midnightblue" d="M232.88,-112.44C203.91,-103.13 157.5,-88.21 125.81,-78.03"/>
<polygon fill="midnightblue" stroke="midnightblue" points="126.67,-74.63 116.08,-74.9 124.53,-81.29 126.67,-74.63"/>
</g>
<!-- Node4 -->
<g id="node4" class="node">
<title>Node4</title>
<g id="a_node4"><a xlink:title=" ">
<polygon fill="none" stroke="#bfbfbf" points="225,-0.5 225,-19.5 274,-19.5 274,-0.5 225,-0.5"/>
<text text-anchor="middle" x="249.5" y="-7.5" font-family="Helvetica,sans-Serif" font-size="10.00">cstdarg</text>
</a>
</g>
</g>
<!-- Node1&#45;&gt;Node4 -->
<g id="edge3" class="edge">
<title>Node1&#45;&gt;Node4</title>
<path fill="none" stroke="midnightblue" d="M218.03,-112.5C197.91,-106.06 175.55,-94.95 163.5,-76 147.46,-50.77 184.91,-31.72 215.35,-20.96"/>
<polygon fill="midnightblue" stroke="midnightblue" points="216.54,-24.26 224.91,-17.76 214.31,-17.62 216.54,-24.26"/>
</g>
<!-- Node5 -->
<g id="node5" class="node">
<title>Node5</title>
<g id="a_node5"><a xlink:title=" ">
<polygon fill="none" stroke="#bfbfbf" points="173,-56.5 173,-75.5 218,-75.5 218,-56.5 173,-56.5"/>
<text text-anchor="middle" x="195.5" y="-63.5" font-family="Helvetica,sans-Serif" font-size="10.00">cstdlib</text>
</a>
</g>
</g>
<!-- Node1&#45;&gt;Node5 -->
<g id="edge4" class="edge">
<title>Node1&#45;&gt;Node5</title>
<path fill="none" stroke="midnightblue" d="M249.22,-112.32C239.66,-104.26 225.22,-92.08 213.72,-82.37"/>
<polygon fill="midnightblue" stroke="midnightblue" points="215.87,-79.61 205.97,-75.83 211.36,-84.96 215.87,-79.61"/>
</g>
<!-- Node6 -->
<g id="node6" class="node">
<title>Node6</title>
<g id="a_node6"><a xlink:title=" ">
<polygon fill="none" stroke="#bfbfbf" points="236.5,-56.5 236.5,-75.5 282.5,-75.5 282.5,-56.5 236.5,-56.5"/>
<text text-anchor="middle" x="259.5" y="-63.5" font-family="Helvetica,sans-Serif" font-size="10.00">cstring</text>
</a>
</g>
</g>
<!-- Node1&#45;&gt;Node6 -->
<g id="edge5" class="edge">
<title>Node1&#45;&gt;Node6</title>
<path fill="none" stroke="midnightblue" d="M259.5,-112.08C259.5,-105.01 259.5,-94.86 259.5,-85.99"/>
<polygon fill="midnightblue" stroke="midnightblue" points="263,-85.75 259.5,-75.75 256,-85.75 263,-85.75"/>
</g>
<!-- Node7 -->
<g id="node7" class="node">
<title>Node7</title>
<g id="a_node7"><a xlink:title=" ">
<polygon fill="none" stroke="#bfbfbf" points="300.5,-56.5 300.5,-75.5 352.5,-75.5 352.5,-56.5 300.5,-56.5"/>
<text text-anchor="middle" x="326.5" y="-63.5" font-family="Helvetica,sans-Serif" font-size="10.00">sstream</text>
</a>
</g>
</g>
<!-- Node1&#45;&gt;Node7 -->
<g id="edge6" class="edge">
<title>Node1&#45;&gt;Node7</title>
<path fill="none" stroke="midnightblue" d="M270.26,-112.32C280.27,-104.26 295.39,-92.08 307.43,-82.37"/>
<polygon fill="midnightblue" stroke="midnightblue" points="309.95,-84.83 315.54,-75.83 305.56,-79.38 309.95,-84.83"/>
</g>
<!-- Node8 -->
<g id="node8" class="node">
<title>Node8</title>
<g id="a_node8"><a xlink:title=" ">
<polygon fill="none" stroke="#bfbfbf" points="397,-0.5 397,-19.5 450,-19.5 450,-0.5 397,-0.5"/>
<text text-anchor="middle" x="423.5" y="-7.5" font-family="Helvetica,sans-Serif" font-size="10.00">gu_util.h</text>
</a>
</g>
</g>
<!-- Node1&#45;&gt;Node8 -->
<g id="edge7" class="edge">
<title>Node1&#45;&gt;Node8</title>
<path fill="none" stroke="midnightblue" d="M333.28,-116.23C391.65,-110.73 466.4,-99.27 485.5,-76 500.96,-57.16 474.45,-37.1 451.44,-24.33"/>
<polygon fill="midnightblue" stroke="midnightblue" points="453.05,-21.22 442.57,-19.65 449.78,-27.42 453.05,-21.22"/>
</g>
<!-- Node9 -->
<g id="node9" class="node">
<title>Node9</title>
<g id="a_node9"><a xlink:href="gusimplewhiteboard_8h.html" target="_top" xlink:title=" ">
<polygon fill="none" stroke="black" points="564.5,-56.5 564.5,-75.5 674.5,-75.5 674.5,-56.5 564.5,-56.5"/>
<text text-anchor="middle" x="619.5" y="-63.5" font-family="Helvetica,sans-Serif" font-size="10.00">gusimplewhiteboard.h</text>
</a>
</g>
</g>
<!-- Node1&#45;&gt;Node9 -->
<g id="edge8" class="edge">
<title>Node1&#45;&gt;Node9</title>
<path fill="none" stroke="midnightblue" d="M316.54,-112.44C381.23,-102.74 486.49,-86.95 554.35,-76.77"/>
<polygon fill="midnightblue" stroke="midnightblue" points="555.12,-80.2 564.49,-75.25 554.09,-73.27 555.12,-80.2"/>
</g>
<!-- Node14 -->
<g id="node14" class="node">
<title>Node14</title>
<g id="a_node14"><a xlink:href="wb__fft__frequencies_8h.html" target="_top" xlink:title="gusimplewhiteboard">
<polygon fill="none" stroke="black" points="370.5,-56.5 370.5,-75.5 476.5,-75.5 476.5,-56.5 370.5,-56.5"/>
<text text-anchor="middle" x="423.5" y="-63.5" font-family="Helvetica,sans-Serif" font-size="10.00">wb_fft_frequencies.h</text>
</a>
</g>
</g>
<!-- Node1&#45;&gt;Node14 -->
<g id="edge13" class="edge">
<title>Node1&#45;&gt;Node14</title>
<path fill="none" stroke="midnightblue" d="M285.49,-112.44C313.2,-103.32 357.25,-88.81 388.12,-78.65"/>
<polygon fill="midnightblue" stroke="midnightblue" points="389.23,-81.97 397.64,-75.52 387.04,-75.32 389.23,-81.97"/>
</g>
<!-- Node10 -->
<g id="node10" class="node">
<title>Node10</title>
<g id="a_node10"><a xlink:title=" ">
<polygon fill="none" stroke="#bfbfbf" points="468,-0.5 468,-19.5 569,-19.5 569,-0.5 468,-0.5"/>
<text text-anchor="middle" x="518.5" y="-7.5" font-family="Helvetica,sans-Serif" font-size="10.00">dispatch/dispatch.h</text>
</a>
</g>
</g>
<!-- Node9&#45;&gt;Node10 -->
<g id="edge9" class="edge">
<title>Node9&#45;&gt;Node10</title>
<path fill="none" stroke="midnightblue" d="M603.27,-56.32C587.15,-47.7 562.2,-34.36 543.54,-24.39"/>
<polygon fill="midnightblue" stroke="midnightblue" points="545.16,-21.28 534.69,-19.65 541.86,-27.46 545.16,-21.28"/>
</g>
<!-- Node11 -->
<g id="node11" class="node">
<title>Node11</title>
<g id="a_node11"><a xlink:title=" ">
<polygon fill="none" stroke="#bfbfbf" points="587,-0.5 587,-19.5 652,-19.5 652,-0.5 587,-0.5"/>
<text text-anchor="middle" x="619.5" y="-7.5" font-family="Helvetica,sans-Serif" font-size="10.00">sys/types.h</text>
</a>
</g>
</g>
<!-- Node9&#45;&gt;Node11 -->
<g id="edge10" class="edge">
<title>Node9&#45;&gt;Node11</title>
<path fill="none" stroke="midnightblue" d="M619.5,-56.08C619.5,-49.01 619.5,-38.86 619.5,-29.99"/>
<polygon fill="midnightblue" stroke="midnightblue" points="623,-29.75 619.5,-19.75 616,-29.75 623,-29.75"/>
</g>
<!-- Node12 -->
<g id="node12" class="node">
<title>Node12</title>
<g id="a_node12"><a xlink:title=" ">
<polygon fill="none" stroke="#bfbfbf" points="670,-0.5 670,-19.5 723,-19.5 723,-0.5 670,-0.5"/>
<text text-anchor="middle" x="696.5" y="-7.5" font-family="Helvetica,sans-Serif" font-size="10.00">cstdbool</text>
</a>
</g>
</g>
<!-- Node9&#45;&gt;Node12 -->
<g id="edge11" class="edge">
<title>Node9&#45;&gt;Node12</title>
<path fill="none" stroke="midnightblue" d="M631.87,-56.32C643.66,-48.06 661.63,-35.45 675.64,-25.63"/>
<polygon fill="midnightblue" stroke="midnightblue" points="677.98,-28.26 684.16,-19.65 673.96,-22.53 677.98,-28.26"/>
</g>
<!-- Node13 -->
<g id="node13" class="node">
<title>Node13</title>
<g id="a_node13"><a xlink:title=" ">
<polygon fill="none" stroke="#bfbfbf" points="741.5,-0.5 741.5,-19.5 791.5,-19.5 791.5,-0.5 741.5,-0.5"/>
<text text-anchor="middle" x="766.5" y="-7.5" font-family="Helvetica,sans-Serif" font-size="10.00">unistd.h</text>
</a>
</g>
</g>
<!-- Node9&#45;&gt;Node13 -->
<g id="edge12" class="edge">
<title>Node9&#45;&gt;Node13</title>
<path fill="none" stroke="midnightblue" d="M642.79,-56.44C667.31,-47.44 706.1,-33.19 733.7,-23.05"/>
<polygon fill="midnightblue" stroke="midnightblue" points="735.14,-26.25 743.32,-19.52 732.72,-19.68 735.14,-26.25"/>
</g>
<!-- Node14&#45;&gt;Node4 -->
<g id="edge14" class="edge">
<title>Node14&#45;&gt;Node4</title>
<path fill="none" stroke="midnightblue" d="M395.93,-56.44C365.53,-47.01 316.6,-31.82 283.76,-21.63"/>
<polygon fill="midnightblue" stroke="midnightblue" points="284.72,-18.26 274.13,-18.64 282.64,-24.95 284.72,-18.26"/>
</g>
<!-- Node14&#45;&gt;Node8 -->
<g id="edge15" class="edge">
<title>Node14&#45;&gt;Node8</title>
<path fill="none" stroke="midnightblue" d="M423.5,-56.08C423.5,-49.01 423.5,-38.86 423.5,-29.99"/>
<polygon fill="midnightblue" stroke="midnightblue" points="427,-29.75 423.5,-19.75 420,-29.75 427,-29.75"/>
</g>
</g>
</svg>
