<?xml version="1.0" encoding="UTF-8" standalone="no"?>
<!DOCTYPE svg PUBLIC "-//W3C//DTD SVG 1.1//EN"
 "http://www.w3.org/Graphics/SVG/1.1/DTD/svg11.dtd">
<!-- Generated by graphviz version 2.49.0 (20210830.1337)
 -->
<!-- Title: typeClassDefs/FSMControlStatus.h Pages: 1 -->
<svg width="631pt" height="274pt"
 viewBox="0.00 0.00 631.00 274.00" xmlns="http://www.w3.org/2000/svg" xmlns:xlink="http://www.w3.org/1999/xlink">
<g id="graph0" class="graph" transform="scale(1 1) rotate(0) translate(4 270)">
<title>typeClassDefs/FSMControlStatus.h</title>
<!-- Node1 -->
<g id="node1" class="node">
<title>Node1</title>
<g id="a_node1"><a xlink:title=" ">
<polygon fill="#bfbfbf" stroke="black" points="175.5,-235.5 175.5,-265.5 309.5,-265.5 309.5,-235.5 175.5,-235.5"/>
<text text-anchor="start" x="183.5" y="-253.5" font-family="Helvetica,sans-Serif" font-size="10.00">typeClassDefs/FSMControl</text>
<text text-anchor="middle" x="242.5" y="-242.5" font-family="Helvetica,sans-Serif" font-size="10.00">Status.h</text>
</a>
</g>
</g>
<!-- Node2 -->
<g id="node2" class="node">
<title>Node2</title>
<g id="a_node2"><a xlink:href="_f_s_m_control_status_8hpp.html" target="_top" xlink:title=" ">
<polygon fill="none" stroke="black" points="185,-179.5 185,-198.5 300,-198.5 300,-179.5 185,-179.5"/>
<text text-anchor="middle" x="242.5" y="-186.5" font-family="Helvetica,sans-Serif" font-size="10.00">FSMControlStatus.hpp</text>
</a>
</g>
</g>
<!-- Node1&#45;&gt;Node2 -->
<g id="edge1" class="edge">
<title>Node1&#45;&gt;Node2</title>
<path fill="none" stroke="midnightblue" d="M242.5,-235.4C242.5,-227.47 242.5,-217.46 242.5,-208.86"/>
<polygon fill="midnightblue" stroke="midnightblue" points="246,-208.66 242.5,-198.66 239,-208.66 246,-208.66"/>
</g>
<!-- Node3 -->
<g id="node3" class="node">
<title>Node3</title>
<g id="a_node3"><a xlink:title=" ">
<polygon fill="none" stroke="#bfbfbf" points="0,-123.5 0,-142.5 45,-142.5 45,-123.5 0,-123.5"/>
<text text-anchor="middle" x="22.5" y="-130.5" font-family="Helvetica,sans-Serif" font-size="10.00">cstdlib</text>
</a>
</g>
</g>
<!-- Node2&#45;&gt;Node3 -->
<g id="edge2" class="edge">
<title>Node2&#45;&gt;Node3</title>
<path fill="none" stroke="midnightblue" d="M204.94,-179.47C168.92,-171.18 112.78,-158 54.88,-143.02"/>
<polygon fill="midnightblue" stroke="midnightblue" points="55.75,-139.63 45.2,-140.5 53.99,-146.41 55.75,-139.63"/>
</g>
<!-- Node4 -->
<g id="node4" class="node">
<title>Node4</title>
<g id="a_node4"><a xlink:title=" ">
<polygon fill="none" stroke="#bfbfbf" points="63.5,-123.5 63.5,-142.5 109.5,-142.5 109.5,-123.5 63.5,-123.5"/>
<text text-anchor="middle" x="86.5" y="-130.5" font-family="Helvetica,sans-Serif" font-size="10.00">cstring</text>
</a>
</g>
</g>
<!-- Node2&#45;&gt;Node4 -->
<g id="edge3" class="edge">
<title>Node2&#45;&gt;Node4</title>
<path fill="none" stroke="midnightblue" d="M217.78,-179.44C191.19,-170.24 148.77,-155.56 119.38,-145.38"/>
<polygon fill="midnightblue" stroke="midnightblue" points="120.17,-141.95 109.58,-141.99 117.88,-148.57 120.17,-141.95"/>
</g>
<!-- Node5 -->
<g id="node5" class="node">
<title>Node5</title>
<g id="a_node5"><a xlink:title=" ">
<polygon fill="none" stroke="#bfbfbf" points="128,-123.5 128,-142.5 169,-142.5 169,-123.5 128,-123.5"/>
<text text-anchor="middle" x="148.5" y="-130.5" font-family="Helvetica,sans-Serif" font-size="10.00">bitset</text>
</a>
</g>
</g>
<!-- Node2&#45;&gt;Node5 -->
<g id="edge4" class="edge">
<title>Node2&#45;&gt;Node5</title>
<path fill="none" stroke="midnightblue" d="M227.4,-179.32C212.6,-170.82 189.81,-157.73 172.52,-147.8"/>
<polygon fill="midnightblue" stroke="midnightblue" points="173.98,-144.6 163.57,-142.65 170.49,-150.67 173.98,-144.6"/>
</g>
<!-- Node6 -->
<g id="node6" class="node">
<title>Node6</title>
<g id="a_node6"><a xlink:title=" ">
<polygon fill="none" stroke="#bfbfbf" points="262,-62 262,-81 315,-81 315,-62 262,-62"/>
<text text-anchor="middle" x="288.5" y="-69" font-family="Helvetica,sans-Serif" font-size="10.00">gu_util.h</text>
</a>
</g>
</g>
<!-- Node2&#45;&gt;Node6 -->
<g id="edge5" class="edge">
<title>Node2&#45;&gt;Node6</title>
<path fill="none" stroke="midnightblue" d="M234.32,-179.35C223.36,-166.66 206.41,-142.41 216.5,-123 225.19,-106.29 242.23,-93.95 257.55,-85.66"/>
<polygon fill="midnightblue" stroke="midnightblue" points="259.42,-88.64 266.78,-81.01 256.28,-82.38 259.42,-88.64"/>
</g>
<!-- Node7 -->
<g id="node7" class="node">
<title>Node7</title>
<g id="a_node7"><a xlink:href="wb__fsm__control__status_8h.html" target="_top" xlink:title=" ">
<polygon fill="none" stroke="black" points="226,-123.5 226,-142.5 351,-142.5 351,-123.5 226,-123.5"/>
<text text-anchor="middle" x="288.5" y="-130.5" font-family="Helvetica,sans-Serif" font-size="10.00">wb_fsm_control_status.h</text>
</a>
</g>
</g>
<!-- Node2&#45;&gt;Node7 -->
<g id="edge6" class="edge">
<title>Node2&#45;&gt;Node7</title>
<path fill="none" stroke="midnightblue" d="M250.1,-179.08C256.73,-171.3 266.52,-159.8 274.56,-150.37"/>
<polygon fill="midnightblue" stroke="midnightblue" points="277.23,-152.63 281.05,-142.75 271.9,-148.09 277.23,-152.63"/>
</g>
<!-- Node13 -->
<g id="node13" class="node">
<title>Node13</title>
<g id="a_node13"><a xlink:href="wb__fsm__state__status_8h.html" target="_top" xlink:title=" ">
<polygon fill="none" stroke="black" points="369.5,-123.5 369.5,-142.5 487.5,-142.5 487.5,-123.5 369.5,-123.5"/>
<text text-anchor="middle" x="428.5" y="-130.5" font-family="Helvetica,sans-Serif" font-size="10.00">wb_fsm_state_status.h</text>
</a>
</g>
</g>
<!-- Node2&#45;&gt;Node13 -->
<g id="edge13" class="edge">
<title>Node2&#45;&gt;Node13</title>
<path fill="none" stroke="midnightblue" d="M271.97,-179.44C303.67,-170.24 354.23,-155.56 389.27,-145.39"/>
<polygon fill="midnightblue" stroke="midnightblue" points="390.54,-148.67 399.17,-142.52 388.59,-141.94 390.54,-148.67"/>
</g>
<!-- Node14 -->
<g id="node14" class="node">
<title>Node14</title>
<g id="a_node14"><a xlink:title=" ">
<polygon fill="none" stroke="#bfbfbf" points="505.5,-123.5 505.5,-142.5 557.5,-142.5 557.5,-123.5 505.5,-123.5"/>
<text text-anchor="middle" x="531.5" y="-130.5" font-family="Helvetica,sans-Serif" font-size="10.00">sstream</text>
</a>
</g>
</g>
<!-- Node2&#45;&gt;Node14 -->
<g id="edge16" class="edge">
<title>Node2&#45;&gt;Node14</title>
<path fill="none" stroke="midnightblue" d="M297.74,-179.46C347.13,-171.54 421.7,-158.9 495.28,-143.14"/>
<polygon fill="midnightblue" stroke="midnightblue" points="496.14,-146.53 505.18,-141 494.66,-139.69 496.14,-146.53"/>
</g>
<!-- Node15 -->
<g id="node15" class="node">
<title>Node15</title>
<g id="a_node15"><a xlink:title=" ">
<polygon fill="none" stroke="#bfbfbf" points="576,-123.5 576,-142.5 623,-142.5 623,-123.5 576,-123.5"/>
<text text-anchor="middle" x="599.5" y="-130.5" font-family="Helvetica,sans-Serif" font-size="10.00">ctype.h</text>
</a>
</g>
</g>
<!-- Node2&#45;&gt;Node15 -->
<g id="edge17" class="edge">
<title>Node2&#45;&gt;Node15</title>
<path fill="none" stroke="midnightblue" d="M300.24,-182.24C363.23,-175.45 467.18,-162.78 565.95,-142.87"/>
<polygon fill="midnightblue" stroke="midnightblue" points="566.7,-146.29 575.79,-140.86 565.3,-139.43 566.7,-146.29"/>
</g>
<!-- Node7&#45;&gt;Node6 -->
<g id="edge7" class="edge">
<title>Node7&#45;&gt;Node6</title>
<path fill="none" stroke="midnightblue" d="M288.5,-123.48C288.5,-115.08 288.5,-101.98 288.5,-91.16"/>
<polygon fill="midnightblue" stroke="midnightblue" points="292,-91.01 288.5,-81.01 285,-91.01 292,-91.01"/>
</g>
<!-- Node8 -->
<g id="node8" class="node">
<title>Node8</title>
<g id="a_node8"><a xlink:href="gusimplewhiteboard_8h.html" target="_top" xlink:title=" ">
<polygon fill="none" stroke="black" points="352,-56.5 352,-86.5 465,-86.5 465,-56.5 352,-56.5"/>
<text text-anchor="start" x="360" y="-74.5" font-family="Helvetica,sans-Serif" font-size="10.00">gusimplewhiteboard</text>
<text text-anchor="middle" x="408.5" y="-63.5" font-family="Helvetica,sans-Serif" font-size="10.00">/gusimplewhiteboard.h</text>
</a>
</g>
</g>
<!-- Node7&#45;&gt;Node8 -->
<g id="edge8" class="edge">
<title>Node7&#45;&gt;Node8</title>
<path fill="none" stroke="midnightblue" d="M305.69,-123.48C322.7,-115.04 349.3,-101.86 371.17,-91.01"/>
<polygon fill="midnightblue" stroke="midnightblue" points="372.81,-94.1 380.22,-86.52 369.7,-87.83 372.81,-94.1"/>
</g>
<!-- Node9 -->
<g id="node9" class="node">
<title>Node9</title>
<g id="a_node9"><a xlink:title=" ">
<polygon fill="none" stroke="#bfbfbf" points="219,-0.5 219,-19.5 320,-19.5 320,-0.5 219,-0.5"/>
<text text-anchor="middle" x="269.5" y="-7.5" font-family="Helvetica,sans-Serif" font-size="10.00">dispatch/dispatch.h</text>
</a>
</g>
</g>
<!-- Node8&#45;&gt;Node9 -->
<g id="edge9" class="edge">
<title>Node8&#45;&gt;Node9</title>
<path fill="none" stroke="midnightblue" d="M375.56,-56.4C352.34,-46.46 321.51,-33.26 299.08,-23.66"/>
<polygon fill="midnightblue" stroke="midnightblue" points="300.3,-20.38 289.73,-19.66 297.54,-26.81 300.3,-20.38"/>
</g>
<!-- Node10 -->
<g id="node10" class="node">
<title>Node10</title>
<g id="a_node10"><a xlink:title=" ">
<polygon fill="none" stroke="#bfbfbf" points="338,-0.5 338,-19.5 403,-19.5 403,-0.5 338,-0.5"/>
<text text-anchor="middle" x="370.5" y="-7.5" font-family="Helvetica,sans-Serif" font-size="10.00">sys/types.h</text>
</a>
</g>
</g>
<!-- Node8&#45;&gt;Node10 -->
<g id="edge10" class="edge">
<title>Node8&#45;&gt;Node10</title>
<path fill="none" stroke="midnightblue" d="M399.49,-56.4C394.09,-47.93 387.17,-37.1 381.45,-28.14"/>
<polygon fill="midnightblue" stroke="midnightblue" points="384.36,-26.2 376.03,-19.66 378.46,-29.97 384.36,-26.2"/>
</g>
<!-- Node11 -->
<g id="node11" class="node">
<title>Node11</title>
<g id="a_node11"><a xlink:title=" ">
<polygon fill="none" stroke="#bfbfbf" points="421,-0.5 421,-19.5 474,-19.5 474,-0.5 421,-0.5"/>
<text text-anchor="middle" x="447.5" y="-7.5" font-family="Helvetica,sans-Serif" font-size="10.00">cstdbool</text>
</a>
</g>
</g>
<!-- Node8&#45;&gt;Node11 -->
<g id="edge11" class="edge">
<title>Node8&#45;&gt;Node11</title>
<path fill="none" stroke="midnightblue" d="M417.74,-56.4C423.29,-47.93 430.39,-37.1 436.27,-28.14"/>
<polygon fill="midnightblue" stroke="midnightblue" points="439.27,-29.94 441.83,-19.66 433.42,-26.1 439.27,-29.94"/>
</g>
<!-- Node12 -->
<g id="node12" class="node">
<title>Node12</title>
<g id="a_node12"><a xlink:title=" ">
<polygon fill="none" stroke="#bfbfbf" points="492.5,-0.5 492.5,-19.5 542.5,-19.5 542.5,-0.5 492.5,-0.5"/>
<text text-anchor="middle" x="517.5" y="-7.5" font-family="Helvetica,sans-Serif" font-size="10.00">unistd.h</text>
</a>
</g>
</g>
<!-- Node8&#45;&gt;Node12 -->
<g id="edge12" class="edge">
<title>Node8&#45;&gt;Node12</title>
<path fill="none" stroke="midnightblue" d="M434.33,-56.4C451.97,-46.77 475.2,-34.09 492.63,-24.58"/>
<polygon fill="midnightblue" stroke="midnightblue" points="494.54,-27.52 501.64,-19.66 491.19,-21.38 494.54,-27.52"/>
</g>
<!-- Node13&#45;&gt;Node6 -->
<g id="edge14" class="edge">
<title>Node13&#45;&gt;Node6</title>
<path fill="none" stroke="midnightblue" d="M408.44,-123.48C384.74,-113.4 345.09,-96.55 317.92,-85"/>
<polygon fill="midnightblue" stroke="midnightblue" points="319.09,-81.7 308.52,-81.01 316.36,-88.14 319.09,-81.7"/>
</g>
<!-- Node13&#45;&gt;Node8 -->
<g id="edge15" class="edge">
<title>Node13&#45;&gt;Node8</title>
<path fill="none" stroke="midnightblue" d="M425.63,-123.48C423.23,-116.32 419.68,-105.75 416.43,-96.08"/>
<polygon fill="midnightblue" stroke="midnightblue" points="419.72,-94.89 413.21,-86.52 413.08,-97.12 419.72,-94.89"/>
</g>
</g>
</svg>
