<?xml version="1.0" encoding="UTF-8" standalone="no"?>
<!DOCTYPE svg PUBLIC "-//W3C//DTD SVG 1.1//EN"
 "http://www.w3.org/Graphics/SVG/1.1/DTD/svg11.dtd">
<!-- Generated by graphviz version 2.49.0 (20210830.1337)
 -->
<!-- Title: typeClassDefs/FSMControlStatus.h Pages: 1 -->
<svg width="641pt" height="285pt"
 viewBox="0.00 0.00 640.71 285.00" xmlns="http://www.w3.org/2000/svg" xmlns:xlink="http://www.w3.org/1999/xlink">
<g id="graph0" class="graph" transform="scale(1 1) rotate(0) translate(4 281)">
<title>typeClassDefs/FSMControlStatus.h</title>
<!-- Node1 -->
<g id="node1" class="node">
<title>Node1</title>
<g id="a_node1"><a xlink:title=" ">
<polygon fill="#bfbfbf" stroke="black" points="157.71,-246.5 157.71,-276.5 291.71,-276.5 291.71,-246.5 157.71,-246.5"/>
<text text-anchor="start" x="165.71" y="-264.5" font-family="Helvetica,sans-Serif" font-size="10.00">typeClassDefs/FSMControl</text>
<text text-anchor="middle" x="224.71" y="-253.5" font-family="Helvetica,sans-Serif" font-size="10.00">Status.h</text>
</a>
</g>
</g>
<!-- Node2 -->
<g id="node2" class="node">
<title>Node2</title>
<g id="a_node2"><a xlink:href="_simple_whiteboard_test_8mm.html" target="_top" xlink:title=" ">
<polygon fill="none" stroke="black" points="66.21,-0.5 66.21,-30.5 203.21,-30.5 203.21,-0.5 66.21,-0.5"/>
<text text-anchor="start" x="74.21" y="-18.5" font-family="Helvetica,sans-Serif" font-size="10.00">SimpleWhiteboardTest</text>
<text text-anchor="middle" x="134.71" y="-7.5" font-family="Helvetica,sans-Serif" font-size="10.00">/SimpleWhiteboardTest.mm</text>
</a>
</g>
</g>
<!-- Node1&#45;&gt;Node2 -->
<g id="edge1" class="edge">
<title>Node1&#45;&gt;Node2</title>
<path fill="none" stroke="midnightblue" d="M147.87,-247.7C106.74,-239.11 62.03,-226.38 49.71,-210 32.14,-186.64 -53.55,-250.75 51.71,-67 61.19,-50.46 78.47,-38.68 94.82,-30.69"/>
<polygon fill="midnightblue" stroke="midnightblue" points="147.18,-251.13 157.68,-249.69 148.57,-244.27 147.18,-251.13"/>
</g>
<!-- Node3 -->
<g id="node3" class="node">
<title>Node3</title>
<g id="a_node3"><a xlink:href="_f_s_m_names_8hpp.html" target="_top" xlink:title=" ">
<polygon fill="none" stroke="black" points="235.21,-190.5 235.21,-209.5 388.21,-209.5 388.21,-190.5 235.21,-190.5"/>
<text text-anchor="middle" x="311.71" y="-197.5" font-family="Helvetica,sans-Serif" font-size="10.00">typeClassDefs/FSMNames.hpp</text>
</a>
</g>
</g>
<!-- Node1&#45;&gt;Node3 -->
<g id="edge2" class="edge">
<title>Node1&#45;&gt;Node3</title>
<path fill="none" stroke="midnightblue" d="M253.98,-240.48C269.31,-230 287.28,-217.71 299.06,-209.66"/>
<polygon fill="midnightblue" stroke="midnightblue" points="251.61,-237.87 245.33,-246.4 255.56,-243.64 251.61,-237.87"/>
</g>
<!-- Node10 -->
<g id="node10" class="node">
<title>Node10</title>
<g id="a_node10"><a xlink:href="_f_s_m_state_8hpp.html" target="_top" xlink:title=" ">
<polygon fill="none" stroke="black" points="406.21,-190.5 406.21,-209.5 551.21,-209.5 551.21,-190.5 406.21,-190.5"/>
<text text-anchor="middle" x="478.71" y="-197.5" font-family="Helvetica,sans-Serif" font-size="10.00">typeClassDefs/FSMState.hpp</text>
</a>
</g>
</g>
<!-- Node1&#45;&gt;Node10 -->
<g id="edge10" class="edge">
<title>Node1&#45;&gt;Node10</title>
<path fill="none" stroke="midnightblue" d="M294.58,-244.13C342.45,-232.92 403.99,-218.5 442.4,-209.51"/>
<polygon fill="midnightblue" stroke="midnightblue" points="293.53,-240.79 284.59,-246.47 295.12,-247.6 293.53,-240.79"/>
</g>
<!-- Node12 -->
<g id="node12" class="node">
<title>Node12</title>
<g id="a_node12"><a xlink:href="_f_s_m___control_8hpp.html" target="_top" xlink:title=" ">
<polygon fill="none" stroke="black" points="58.71,-190.5 58.71,-209.5 216.71,-209.5 216.71,-190.5 58.71,-190.5"/>
<text text-anchor="middle" x="137.71" y="-197.5" font-family="Helvetica,sans-Serif" font-size="10.00">typeClassDefs/FSM_Control.hpp</text>
</a>
</g>
</g>
<!-- Node1&#45;&gt;Node12 -->
<g id="edge13" class="edge">
<title>Node1&#45;&gt;Node12</title>
<path fill="none" stroke="midnightblue" d="M195.45,-240.48C180.12,-230 162.14,-217.71 150.37,-209.66"/>
<polygon fill="midnightblue" stroke="midnightblue" points="193.87,-243.64 204.1,-246.4 197.82,-237.87 193.87,-243.64"/>
</g>
<!-- Node4 -->
<g id="node4" class="node">
<title>Node4</title>
<g id="a_node4"><a xlink:href="guwhiteboardposter_8h.html" target="_top" xlink:title=" ">
<polygon fill="none" stroke="black" points="371.21,-134.5 371.21,-153.5 480.21,-153.5 480.21,-134.5 371.21,-134.5"/>
<text text-anchor="middle" x="425.71" y="-141.5" font-family="Helvetica,sans-Serif" font-size="10.00">guwhiteboardposter.h</text>
</a>
</g>
</g>
<!-- Node3&#45;&gt;Node4 -->
<g id="edge3" class="edge">
<title>Node3&#45;&gt;Node4</title>
<path fill="none" stroke="midnightblue" d="M338.96,-186.1C360.25,-176.01 389.26,-162.27 407.74,-153.52"/>
<polygon fill="midnightblue" stroke="midnightblue" points="337.32,-183 329.78,-190.44 340.31,-189.33 337.32,-183"/>
</g>
<!-- Node9 -->
<g id="node9" class="node">
<title>Node9</title>
<g id="a_node9"><a xlink:href="_f_s_m_names_8h.html" target="_top" xlink:title=" ">
<polygon fill="none" stroke="black" points="210.21,-134.5 210.21,-153.5 353.21,-153.5 353.21,-134.5 210.21,-134.5"/>
<text text-anchor="middle" x="281.71" y="-141.5" font-family="Helvetica,sans-Serif" font-size="10.00">typeClassDefs/FSMNames.h</text>
</a>
</g>
</g>
<!-- Node3&#45;&gt;Node9 -->
<g id="edge9" class="edge">
<title>Node3&#45;&gt;Node9</title>
<path fill="none" stroke="midnightblue" d="M301.87,-181.27C296.74,-172.05 290.7,-161.17 286.58,-153.75"/>
<polygon fill="midnightblue" stroke="midnightblue" points="298.84,-183.04 306.76,-190.08 304.96,-179.64 298.84,-183.04"/>
</g>
<!-- Node5 -->
<g id="node5" class="node">
<title>Node5</title>
<g id="a_node5"><a xlink:href="_simple_whiteboard_test_8h.html" target="_top" xlink:title=" ">
<polygon fill="none" stroke="black" points="363.21,-67.5 363.21,-97.5 488.21,-97.5 488.21,-67.5 363.21,-67.5"/>
<text text-anchor="start" x="371.21" y="-85.5" font-family="Helvetica,sans-Serif" font-size="10.00">SimpleWhiteboardTest</text>
<text text-anchor="middle" x="425.71" y="-74.5" font-family="Helvetica,sans-Serif" font-size="10.00">/SimpleWhiteboardTest.h</text>
</a>
</g>
</g>
<!-- Node4&#45;&gt;Node5 -->
<g id="edge4" class="edge">
<title>Node4&#45;&gt;Node5</title>
<path fill="none" stroke="midnightblue" d="M425.71,-124.23C425.71,-115.59 425.71,-105.5 425.71,-97.52"/>
<polygon fill="midnightblue" stroke="midnightblue" points="422.21,-124.48 425.71,-134.48 429.21,-124.48 422.21,-124.48"/>
</g>
<!-- Node6 -->
<g id="node6" class="node">
<title>Node6</title>
<g id="a_node6"><a xlink:href="guwhiteboardgetter_8h.html" target="_top" xlink:title=" ">
<polygon fill="none" stroke="black" points="506.21,-73 506.21,-92 613.21,-92 613.21,-73 506.21,-73"/>
<text text-anchor="middle" x="559.71" y="-80" font-family="Helvetica,sans-Serif" font-size="10.00">guwhiteboardgetter.h</text>
</a>
</g>
</g>
<!-- Node4&#45;&gt;Node6 -->
<g id="edge6" class="edge">
<title>Node4&#45;&gt;Node6</title>
<path fill="none" stroke="midnightblue" d="M454.25,-130.33C480.27,-118.78 517.98,-102.03 540.55,-92.01"/>
<polygon fill="midnightblue" stroke="midnightblue" points="452.63,-127.22 444.91,-134.48 455.47,-133.62 452.63,-127.22"/>
</g>
<!-- Node8 -->
<g id="node8" class="node">
<title>Node8</title>
<g id="a_node8"><a xlink:href="guwhiteboardposter_8cpp.html" target="_top" xlink:title=" ">
<polygon fill="none" stroke="black" points="226.21,-73 226.21,-92 345.21,-92 345.21,-73 226.21,-73"/>
<text text-anchor="middle" x="285.71" y="-80" font-family="Helvetica,sans-Serif" font-size="10.00">guwhiteboardposter.cpp</text>
</a>
</g>
</g>
<!-- Node4&#45;&gt;Node8 -->
<g id="edge8" class="edge">
<title>Node4&#45;&gt;Node8</title>
<path fill="none" stroke="midnightblue" d="M396.25,-130.48C369.06,-118.92 329.42,-102.08 305.74,-92.01"/>
<polygon fill="midnightblue" stroke="midnightblue" points="395.08,-133.78 405.66,-134.48 397.82,-127.34 395.08,-133.78"/>
</g>
<!-- Node5&#45;&gt;Node2 -->
<g id="edge5" class="edge">
<title>Node5&#45;&gt;Node2</title>
<path fill="none" stroke="midnightblue" d="M352.96,-65.25C305.17,-54.58 243.3,-40.75 197.64,-30.55"/>
<polygon fill="midnightblue" stroke="midnightblue" points="352.41,-68.71 362.93,-67.48 353.93,-61.88 352.41,-68.71"/>
</g>
<!-- Node7 -->
<g id="node7" class="node">
<title>Node7</title>
<g id="a_node7"><a xlink:href="guwhiteboardgetter_8cpp.html" target="_top" xlink:title=" ">
<polygon fill="none" stroke="black" points="501.21,-6 501.21,-25 618.21,-25 618.21,-6 501.21,-6"/>
<text text-anchor="middle" x="559.71" y="-13" font-family="Helvetica,sans-Serif" font-size="10.00">guwhiteboardgetter.cpp</text>
</a>
</g>
</g>
<!-- Node6&#45;&gt;Node7 -->
<g id="edge7" class="edge">
<title>Node6&#45;&gt;Node7</title>
<path fill="none" stroke="midnightblue" d="M559.71,-62.54C559.71,-50.17 559.71,-34.62 559.71,-25.13"/>
<polygon fill="midnightblue" stroke="midnightblue" points="556.21,-62.73 559.71,-72.73 563.21,-62.73 556.21,-62.73"/>
</g>
<!-- Node10&#45;&gt;Node4 -->
<g id="edge11" class="edge">
<title>Node10&#45;&gt;Node4</title>
<path fill="none" stroke="midnightblue" d="M462.73,-182.72C453.39,-173.2 441.97,-161.56 434.3,-153.75"/>
<polygon fill="midnightblue" stroke="midnightblue" points="460.46,-185.4 469.96,-190.08 465.46,-180.49 460.46,-185.4"/>
</g>
<!-- Node11 -->
<g id="node11" class="node">
<title>Node11</title>
<g id="a_node11"><a xlink:href="_f_s_m_state_8h.html" target="_top" xlink:title=" ">
<polygon fill="none" stroke="black" points="498.71,-134.5 498.71,-153.5 632.71,-153.5 632.71,-134.5 498.71,-134.5"/>
<text text-anchor="middle" x="565.71" y="-141.5" font-family="Helvetica,sans-Serif" font-size="10.00">typeClassDefs/FSMState.h</text>
</a>
</g>
</g>
<!-- Node10&#45;&gt;Node11 -->
<g id="edge12" class="edge">
<title>Node10&#45;&gt;Node11</title>
<path fill="none" stroke="midnightblue" d="M501.43,-184.9C517.38,-175 538.21,-162.07 551.77,-153.65"/>
<polygon fill="midnightblue" stroke="midnightblue" points="499.34,-182.08 492.69,-190.32 503.03,-188.02 499.34,-182.08"/>
</g>
<!-- Node13 -->
<g id="node13" class="node">
<title>Node13</title>
<g id="a_node13"><a xlink:href="_f_s_m___control_8h.html" target="_top" xlink:title=" ">
<polygon fill="none" stroke="black" points="61.21,-73 61.21,-92 208.21,-92 208.21,-73 61.21,-73"/>
<text text-anchor="middle" x="134.71" y="-80" font-family="Helvetica,sans-Serif" font-size="10.00">typeClassDefs/FSM_Control.h</text>
</a>
</g>
</g>
<!-- Node12&#45;&gt;Node13 -->
<g id="edge14" class="edge">
<title>Node12&#45;&gt;Node13</title>
<path fill="none" stroke="midnightblue" d="M137.23,-180.16C136.57,-154.87 135.43,-110.94 134.94,-92.28"/>
<polygon fill="midnightblue" stroke="midnightblue" points="133.73,-180.41 137.49,-190.32 140.73,-180.23 133.73,-180.41"/>
</g>
<!-- Node13&#45;&gt;Node2 -->
<g id="edge15" class="edge">
<title>Node13&#45;&gt;Node2</title>
<path fill="none" stroke="midnightblue" d="M134.71,-62.41C134.71,-52.22 134.71,-39.9 134.71,-30.59"/>
<polygon fill="midnightblue" stroke="midnightblue" points="131.21,-62.73 134.71,-72.73 138.21,-62.73 131.21,-62.73"/>
</g>
</g>
</svg>
