<?xml version="1.0" encoding="UTF-8" standalone="no"?>
<!DOCTYPE svg PUBLIC "-//W3C//DTD SVG 1.1//EN"
 "http://www.w3.org/Graphics/SVG/1.1/DTD/svg11.dtd">
<!-- Generated by graphviz version 2.49.0 (20210830.1337)
 -->
<!-- Title: typeClassDefs/FilteredOneDimObject.hpp Pages: 1 -->
<svg width="300pt" height="240pt"
 viewBox="0.00 0.00 300.00 240.00" xmlns="http://www.w3.org/2000/svg" xmlns:xlink="http://www.w3.org/1999/xlink">
<g id="graph0" class="graph" transform="scale(1 1) rotate(0) translate(4 236)">
<title>typeClassDefs/FilteredOneDimObject.hpp</title>
<!-- Node1 -->
<g id="node1" class="node">
<title>Node1</title>
<g id="a_node1"><a xlink:title=" ">
<polygon fill="#bfbfbf" stroke="black" points="79,-201.5 79,-231.5 212,-231.5 212,-201.5 79,-201.5"/>
<text text-anchor="start" x="87" y="-219.5" font-family="Helvetica,sans-Serif" font-size="10.00">typeClassDefs/FilteredOne</text>
<text text-anchor="middle" x="145.5" y="-208.5" font-family="Helvetica,sans-Serif" font-size="10.00">DimObject.hpp</text>
</a>
</g>
</g>
<!-- Node2 -->
<g id="node2" class="node">
<title>Node2</title>
<g id="a_node2"><a xlink:href="_filtered_one_dim_object_8h.html" target="_top" xlink:title=" ">
<polygon fill="none" stroke="black" points="79,-134.5 79,-164.5 212,-164.5 212,-134.5 79,-134.5"/>
<text text-anchor="start" x="87" y="-152.5" font-family="Helvetica,sans-Serif" font-size="10.00">typeClassDefs/FilteredOne</text>
<text text-anchor="middle" x="145.5" y="-141.5" font-family="Helvetica,sans-Serif" font-size="10.00">DimObject.h</text>
</a>
</g>
</g>
<!-- Node1&#45;&gt;Node2 -->
<g id="edge1" class="edge">
<title>Node1&#45;&gt;Node2</title>
<path fill="none" stroke="midnightblue" d="M145.5,-191.11C145.5,-182.15 145.5,-172.32 145.5,-164.58"/>
<polygon fill="midnightblue" stroke="midnightblue" points="142,-191.4 145.5,-201.4 149,-191.4 142,-191.4"/>
</g>
<!-- Node3 -->
<g id="node3" class="node">
<title>Node3</title>
<g id="a_node3"><a xlink:href="_simple_whiteboard_test_8mm.html" target="_top" xlink:title=" ">
<polygon fill="none" stroke="black" points="0,-67.5 0,-97.5 137,-97.5 137,-67.5 0,-67.5"/>
<text text-anchor="start" x="8" y="-85.5" font-family="Helvetica,sans-Serif" font-size="10.00">SimpleWhiteboardTest</text>
<text text-anchor="middle" x="68.5" y="-74.5" font-family="Helvetica,sans-Serif" font-size="10.00">/SimpleWhiteboardTest.mm</text>
</a>
</g>
</g>
<!-- Node2&#45;&gt;Node3 -->
<g id="edge2" class="edge">
<title>Node2&#45;&gt;Node3</title>
<path fill="none" stroke="midnightblue" d="M121.08,-127.88C109.38,-118.01 95.66,-106.43 85.18,-97.58"/>
<polygon fill="midnightblue" stroke="midnightblue" points="118.89,-130.62 128.79,-134.4 123.41,-125.27 118.89,-130.62"/>
</g>
<!-- Node4 -->
<g id="node4" class="node">
<title>Node4</title>
<g id="a_node4"><a xlink:href="_filtered_array_one_dim_ball_8hpp.html" target="_top" xlink:title=" ">
<polygon fill="none" stroke="black" points="155,-67.5 155,-97.5 292,-97.5 292,-67.5 155,-67.5"/>
<text text-anchor="start" x="163" y="-85.5" font-family="Helvetica,sans-Serif" font-size="10.00">typeClassDefs/FilteredArray</text>
<text text-anchor="middle" x="223.5" y="-74.5" font-family="Helvetica,sans-Serif" font-size="10.00">OneDimBall.hpp</text>
</a>
</g>
</g>
<!-- Node2&#45;&gt;Node4 -->
<g id="edge3" class="edge">
<title>Node2&#45;&gt;Node4</title>
<path fill="none" stroke="midnightblue" d="M170.24,-127.88C182.09,-118.01 195.98,-106.43 206.61,-97.58"/>
<polygon fill="midnightblue" stroke="midnightblue" points="167.87,-125.31 162.42,-134.4 172.35,-130.68 167.87,-125.31"/>
</g>
<!-- Node5 -->
<g id="node5" class="node">
<title>Node5</title>
<g id="a_node5"><a xlink:href="_filtered_array_one_dim_ball_8h.html" target="_top" xlink:title=" ">
<polygon fill="none" stroke="black" points="155,-0.5 155,-30.5 292,-30.5 292,-0.5 155,-0.5"/>
<text text-anchor="start" x="163" y="-18.5" font-family="Helvetica,sans-Serif" font-size="10.00">typeClassDefs/FilteredArray</text>
<text text-anchor="middle" x="223.5" y="-7.5" font-family="Helvetica,sans-Serif" font-size="10.00">OneDimBall.h</text>
</a>
</g>
</g>
<!-- Node4&#45;&gt;Node5 -->
<g id="edge4" class="edge">
<title>Node4&#45;&gt;Node5</title>
<path fill="none" stroke="midnightblue" d="M223.5,-57.11C223.5,-48.15 223.5,-38.32 223.5,-30.58"/>
<polygon fill="midnightblue" stroke="midnightblue" points="220,-57.4 223.5,-67.4 227,-57.4 220,-57.4"/>
</g>
</g>
</svg>
