<?xml version="1.0" encoding="UTF-8" standalone="no"?>
<!DOCTYPE svg PUBLIC "-//W3C//DTD SVG 1.1//EN"
 "http://www.w3.org/Graphics/SVG/1.1/DTD/svg11.dtd">
<!-- Generated by graphviz version 2.49.0 (20210830.1337)
 -->
<!-- Title: typeClassDefs/FilteredArrayOneDimSonar.h Pages: 1 -->
<svg width="414pt" height="330pt"
 viewBox="0.00 0.00 413.52 330.00" xmlns="http://www.w3.org/2000/svg" xmlns:xlink="http://www.w3.org/1999/xlink">
<g id="graph0" class="graph" transform="scale(1 1) rotate(0) translate(4 326)">
<title>typeClassDefs/FilteredArrayOneDimSonar.h</title>
<!-- Node1 -->
<g id="node1" class="node">
<title>Node1</title>
<g id="a_node1"><a xlink:title=" ">
<polygon fill="#bfbfbf" stroke="black" points="7.52,-291.5 7.52,-321.5 144.52,-321.5 144.52,-291.5 7.52,-291.5"/>
<text text-anchor="start" x="15.52" y="-309.5" font-family="Helvetica,sans-Serif" font-size="10.00">typeClassDefs/FilteredArray</text>
<text text-anchor="middle" x="76.02" y="-298.5" font-family="Helvetica,sans-Serif" font-size="10.00">OneDimSonar.h</text>
</a>
</g>
</g>
<!-- Node2 -->
<g id="node2" class="node">
<title>Node2</title>
<g id="a_node2"><a xlink:href="_filtered_array_one_dim_sonar_8hpp.html" target="_top" xlink:title=" ">
<polygon fill="none" stroke="black" points="1.02,-235.5 1.02,-254.5 151.02,-254.5 151.02,-235.5 1.02,-235.5"/>
<text text-anchor="middle" x="76.02" y="-242.5" font-family="Helvetica,sans-Serif" font-size="10.00">FilteredArrayOneDimSonar.hpp</text>
</a>
</g>
</g>
<!-- Node1&#45;&gt;Node2 -->
<g id="edge1" class="edge">
<title>Node1&#45;&gt;Node2</title>
<path fill="none" stroke="midnightblue" d="M76.02,-291.4C76.02,-283.47 76.02,-273.46 76.02,-264.86"/>
<polygon fill="midnightblue" stroke="midnightblue" points="79.52,-264.66 76.02,-254.66 72.52,-264.66 79.52,-264.66"/>
</g>
<!-- Node3 -->
<g id="node3" class="node">
<title>Node3</title>
<g id="a_node3"><a xlink:title=" ">
<polygon fill="none" stroke="#bfbfbf" points="24.52,-56.5 24.52,-75.5 69.52,-75.5 69.52,-56.5 24.52,-56.5"/>
<text text-anchor="middle" x="47.02" y="-63.5" font-family="Helvetica,sans-Serif" font-size="10.00">cstdlib</text>
</a>
</g>
</g>
<!-- Node2&#45;&gt;Node3 -->
<g id="edge2" class="edge">
<title>Node2&#45;&gt;Node3</title>
<path fill="none" stroke="midnightblue" d="M72.73,-235.17C69.51,-226.19 64.72,-211.81 62.02,-199 53.66,-159.27 49.71,-111.76 48.05,-85.96"/>
<polygon fill="midnightblue" stroke="midnightblue" points="51.53,-85.51 47.45,-75.74 44.54,-85.93 51.53,-85.51"/>
</g>
<!-- Node4 -->
<g id="node4" class="node">
<title>Node4</title>
<g id="a_node4"><a xlink:title=" ">
<polygon fill="none" stroke="#bfbfbf" points="88.02,-56.5 88.02,-75.5 140.02,-75.5 140.02,-56.5 88.02,-56.5"/>
<text text-anchor="middle" x="114.02" y="-63.5" font-family="Helvetica,sans-Serif" font-size="10.00">sstream</text>
</a>
</g>
</g>
<!-- Node2&#45;&gt;Node4 -->
<g id="edge3" class="edge">
<title>Node2&#45;&gt;Node4</title>
<path fill="none" stroke="midnightblue" d="M76.51,-235.19C77.86,-213.75 82.43,-157.28 95.02,-112 97.58,-102.81 101.56,-93.01 105.22,-84.9"/>
<polygon fill="midnightblue" stroke="midnightblue" points="108.44,-86.26 109.54,-75.72 102.11,-83.27 108.44,-86.26"/>
</g>
<!-- Node5 -->
<g id="node5" class="node">
<title>Node5</title>
<g id="a_node5"><a xlink:title=" ">
<polygon fill="none" stroke="#bfbfbf" points="185.52,-0.5 185.52,-19.5 238.52,-19.5 238.52,-0.5 185.52,-0.5"/>
<text text-anchor="middle" x="212.02" y="-7.5" font-family="Helvetica,sans-Serif" font-size="10.00">gu_util.h</text>
</a>
</g>
</g>
<!-- Node2&#45;&gt;Node5 -->
<g id="edge4" class="edge">
<title>Node2&#45;&gt;Node5</title>
<path fill="none" stroke="midnightblue" d="M67.94,-235.12C42.63,-206.21 -30.76,-113.42 15.02,-56 34.67,-31.36 123.73,-19.15 175.13,-14.05"/>
<polygon fill="midnightblue" stroke="midnightblue" points="175.55,-17.52 185.18,-13.09 174.89,-10.55 175.55,-17.52"/>
</g>
<!-- Node6 -->
<g id="node6" class="node">
<title>Node6</title>
<g id="a_node6"><a xlink:href="_filtered_one_dim_sonar_8h.html" target="_top" xlink:title=" ">
<polygon fill="none" stroke="black" points="104.52,-168.5 104.52,-198.5 237.52,-198.5 237.52,-168.5 104.52,-168.5"/>
<text text-anchor="start" x="112.52" y="-186.5" font-family="Helvetica,sans-Serif" font-size="10.00">typeClassDefs/FilteredOne</text>
<text text-anchor="middle" x="171.02" y="-175.5" font-family="Helvetica,sans-Serif" font-size="10.00">DimSonar.h</text>
</a>
</g>
</g>
<!-- Node2&#45;&gt;Node6 -->
<g id="edge5" class="edge">
<title>Node2&#45;&gt;Node6</title>
<path fill="none" stroke="midnightblue" d="M89.63,-235.48C102.74,-227.27 123.03,-214.56 140.07,-203.88"/>
<polygon fill="midnightblue" stroke="midnightblue" points="142.02,-206.8 148.63,-198.52 138.3,-200.86 142.02,-206.8"/>
</g>
<!-- Node9 -->
<g id="node9" class="node">
<title>Node9</title>
<g id="a_node9"><a xlink:href="wb__arrayoffilteredsonarobjects_8h.html" target="_top" xlink:title="gusimplewhiteboard">
<polygon fill="none" stroke="black" points="250.52,-112.5 250.52,-131.5 405.52,-131.5 405.52,-112.5 250.52,-112.5"/>
<text text-anchor="middle" x="328.02" y="-119.5" font-family="Helvetica,sans-Serif" font-size="10.00">wb_arrayoffilteredsonarobjects.h</text>
</a>
</g>
</g>
<!-- Node2&#45;&gt;Node9 -->
<g id="edge12" class="edge">
<title>Node2&#45;&gt;Node9</title>
<path fill="none" stroke="midnightblue" d="M136.14,-235.48C169.95,-228.92 212.05,-217.69 246.02,-199 273.83,-183.7 299.56,-156.94 314.53,-139.6"/>
<polygon fill="midnightblue" stroke="midnightblue" points="317.58,-141.41 321.33,-131.51 312.22,-136.91 317.58,-141.41"/>
</g>
<!-- Node7 -->
<g id="node7" class="node">
<title>Node7</title>
<g id="a_node7"><a xlink:href="_filtered_one_dim_sonar_8hpp.html" target="_top" xlink:title=" ">
<polygon fill="none" stroke="black" points="104.02,-112.5 104.02,-131.5 232.02,-131.5 232.02,-112.5 104.02,-112.5"/>
<text text-anchor="middle" x="168.02" y="-119.5" font-family="Helvetica,sans-Serif" font-size="10.00">FilteredOneDimSonar.hpp</text>
</a>
</g>
</g>
<!-- Node6&#45;&gt;Node7 -->
<g id="edge6" class="edge">
<title>Node6&#45;&gt;Node7</title>
<path fill="none" stroke="midnightblue" d="M170.31,-168.4C169.91,-160.47 169.41,-150.46 168.97,-141.86"/>
<polygon fill="midnightblue" stroke="midnightblue" points="172.46,-141.47 168.46,-131.66 165.47,-141.82 172.46,-141.47"/>
</g>
<!-- Node7&#45;&gt;Node3 -->
<g id="edge7" class="edge">
<title>Node7&#45;&gt;Node3</title>
<path fill="none" stroke="midnightblue" d="M148.85,-112.44C129.11,-103.64 98.14,-89.81 75.53,-79.72"/>
<polygon fill="midnightblue" stroke="midnightblue" points="76.66,-76.4 66.11,-75.52 73.81,-82.79 76.66,-76.4"/>
</g>
<!-- Node7&#45;&gt;Node4 -->
<g id="edge8" class="edge">
<title>Node7&#45;&gt;Node4</title>
<path fill="none" stroke="midnightblue" d="M159.11,-112.08C151.24,-104.22 139.59,-92.57 130.1,-83.08"/>
<polygon fill="midnightblue" stroke="midnightblue" points="132.32,-80.35 122.77,-75.75 127.37,-85.3 132.32,-80.35"/>
</g>
<!-- Node7&#45;&gt;Node5 -->
<g id="edge9" class="edge">
<title>Node7&#45;&gt;Node5</title>
<path fill="none" stroke="midnightblue" d="M169.9,-112.38C172.79,-99.73 178.87,-75.53 187.02,-56 190.99,-46.52 196.43,-36.47 201.23,-28.29"/>
<polygon fill="midnightblue" stroke="midnightblue" points="204.26,-30.04 206.44,-19.67 198.27,-26.42 204.26,-30.04"/>
</g>
<!-- Node8 -->
<g id="node8" class="node">
<title>Node8</title>
<g id="a_node8"><a xlink:href="wb__filteredsonarobject_8h.html" target="_top" xlink:title="gusimplewhiteboard">
<polygon fill="none" stroke="black" points="196.52,-56.5 196.52,-75.5 317.52,-75.5 317.52,-56.5 196.52,-56.5"/>
<text text-anchor="middle" x="257.02" y="-63.5" font-family="Helvetica,sans-Serif" font-size="10.00">wb_filteredsonarobject.h</text>
</a>
</g>
</g>
<!-- Node7&#45;&gt;Node8 -->
<g id="edge10" class="edge">
<title>Node7&#45;&gt;Node8</title>
<path fill="none" stroke="midnightblue" d="M182.32,-112.32C196.21,-103.9 217.52,-90.97 233.83,-81.07"/>
<polygon fill="midnightblue" stroke="midnightblue" points="236.03,-83.83 242.76,-75.65 232.39,-77.85 236.03,-83.83"/>
</g>
<!-- Node8&#45;&gt;Node5 -->
<g id="edge11" class="edge">
<title>Node8&#45;&gt;Node5</title>
<path fill="none" stroke="midnightblue" d="M249.59,-56.08C243.17,-48.38 233.72,-37.03 225.9,-27.65"/>
<polygon fill="midnightblue" stroke="midnightblue" points="228.41,-25.19 219.32,-19.75 223.03,-29.67 228.41,-25.19"/>
</g>
<!-- Node9&#45;&gt;Node5 -->
<g id="edge13" class="edge">
<title>Node9&#45;&gt;Node5</title>
<path fill="none" stroke="midnightblue" d="M330.58,-112.06C333.87,-98.57 337.84,-72.81 326.02,-56 308.52,-31.11 275,-19.98 248.81,-15.01"/>
<polygon fill="midnightblue" stroke="midnightblue" points="249.27,-11.54 238.83,-13.34 248.11,-18.44 249.27,-11.54"/>
</g>
<!-- Node9&#45;&gt;Node8 -->
<g id="edge14" class="edge">
<title>Node9&#45;&gt;Node8</title>
<path fill="none" stroke="midnightblue" d="M316.62,-112.32C305.91,-104.18 289.68,-91.84 276.86,-82.09"/>
<polygon fill="midnightblue" stroke="midnightblue" points="278.72,-79.1 268.64,-75.83 274.48,-84.67 278.72,-79.1"/>
</g>
</g>
</svg>
