<?xml version="1.0" encoding="UTF-8" standalone="no"?>
<!DOCTYPE svg PUBLIC "-//W3C//DTD SVG 1.1//EN"
 "http://www.w3.org/Graphics/SVG/1.1/DTD/svg11.dtd">
<!-- Generated by graphviz version 2.49.0 (20210830.1337)
 -->
<!-- Title: typeClassDefs/FilteredOneDimSonar.h Pages: 1 -->
<svg width="301pt" height="207pt"
 viewBox="0.00 0.00 301.00 207.00" xmlns="http://www.w3.org/2000/svg" xmlns:xlink="http://www.w3.org/1999/xlink">
<g id="graph0" class="graph" transform="scale(1 1) rotate(0) translate(4 203)">
<title>typeClassDefs/FilteredOneDimSonar.h</title>
<!-- Node1 -->
<g id="node1" class="node">
<title>Node1</title>
<g id="a_node1"><a xlink:title=" ">
<polygon fill="#bfbfbf" stroke="black" points="50,-168.5 50,-198.5 183,-198.5 183,-168.5 50,-168.5"/>
<text text-anchor="start" x="58" y="-186.5" font-family="Helvetica,sans-Serif" font-size="10.00">typeClassDefs/FilteredOne</text>
<text text-anchor="middle" x="116.5" y="-175.5" font-family="Helvetica,sans-Serif" font-size="10.00">DimSonar.h</text>
</a>
</g>
</g>
<!-- Node2 -->
<g id="node2" class="node">
<title>Node2</title>
<g id="a_node2"><a xlink:href="_filtered_one_dim_sonar_8hpp.html" target="_top" xlink:title=" ">
<polygon fill="none" stroke="black" points="52.5,-112.5 52.5,-131.5 180.5,-131.5 180.5,-112.5 52.5,-112.5"/>
<text text-anchor="middle" x="116.5" y="-119.5" font-family="Helvetica,sans-Serif" font-size="10.00">FilteredOneDimSonar.hpp</text>
</a>
</g>
</g>
<!-- Node1&#45;&gt;Node2 -->
<g id="edge1" class="edge">
<title>Node1&#45;&gt;Node2</title>
<path fill="none" stroke="midnightblue" d="M116.5,-168.4C116.5,-160.47 116.5,-150.46 116.5,-141.86"/>
<polygon fill="midnightblue" stroke="midnightblue" points="120,-141.66 116.5,-131.66 113,-141.66 120,-141.66"/>
</g>
<!-- Node3 -->
<g id="node3" class="node">
<title>Node3</title>
<g id="a_node3"><a xlink:title=" ">
<polygon fill="none" stroke="#bfbfbf" points="0,-56.5 0,-75.5 45,-75.5 45,-56.5 0,-56.5"/>
<text text-anchor="middle" x="22.5" y="-63.5" font-family="Helvetica,sans-Serif" font-size="10.00">cstdlib</text>
</a>
</g>
</g>
<!-- Node2&#45;&gt;Node3 -->
<g id="edge2" class="edge">
<title>Node2&#45;&gt;Node3</title>
<path fill="none" stroke="midnightblue" d="M101.4,-112.32C86.6,-103.82 63.81,-90.73 46.52,-80.8"/>
<polygon fill="midnightblue" stroke="midnightblue" points="47.98,-77.6 37.57,-75.65 44.49,-83.67 47.98,-77.6"/>
</g>
<!-- Node4 -->
<g id="node4" class="node">
<title>Node4</title>
<g id="a_node4"><a xlink:title=" ">
<polygon fill="none" stroke="#bfbfbf" points="63.5,-56.5 63.5,-75.5 115.5,-75.5 115.5,-56.5 63.5,-56.5"/>
<text text-anchor="middle" x="89.5" y="-63.5" font-family="Helvetica,sans-Serif" font-size="10.00">sstream</text>
</a>
</g>
</g>
<!-- Node2&#45;&gt;Node4 -->
<g id="edge3" class="edge">
<title>Node2&#45;&gt;Node4</title>
<path fill="none" stroke="midnightblue" d="M112.04,-112.08C108.35,-104.69 102.98,-93.95 98.41,-84.81"/>
<polygon fill="midnightblue" stroke="midnightblue" points="101.48,-83.13 93.88,-75.75 95.22,-86.26 101.48,-83.13"/>
</g>
<!-- Node5 -->
<g id="node5" class="node">
<title>Node5</title>
<g id="a_node5"><a xlink:title=" ">
<polygon fill="none" stroke="#bfbfbf" points="161,-0.5 161,-19.5 214,-19.5 214,-0.5 161,-0.5"/>
<text text-anchor="middle" x="187.5" y="-7.5" font-family="Helvetica,sans-Serif" font-size="10.00">gu_util.h</text>
</a>
</g>
</g>
<!-- Node2&#45;&gt;Node5 -->
<g id="edge4" class="edge">
<title>Node2&#45;&gt;Node5</title>
<path fill="none" stroke="midnightblue" d="M122.07,-112.37C133.74,-94.3 160.92,-52.18 176.33,-28.31"/>
<polygon fill="midnightblue" stroke="midnightblue" points="179.47,-29.89 181.95,-19.59 173.59,-26.1 179.47,-29.89"/>
</g>
<!-- Node6 -->
<g id="node6" class="node">
<title>Node6</title>
<g id="a_node6"><a xlink:href="wb__filteredsonarobject_8h.html" target="_top" xlink:title="gusimplewhiteboard">
<polygon fill="none" stroke="black" points="172,-56.5 172,-75.5 293,-75.5 293,-56.5 172,-56.5"/>
<text text-anchor="middle" x="232.5" y="-63.5" font-family="Helvetica,sans-Serif" font-size="10.00">wb_filteredsonarobject.h</text>
</a>
</g>
</g>
<!-- Node2&#45;&gt;Node6 -->
<g id="edge5" class="edge">
<title>Node2&#45;&gt;Node6</title>
<path fill="none" stroke="midnightblue" d="M134.88,-112.44C153.72,-103.68 183.23,-89.94 204.88,-79.86"/>
<polygon fill="midnightblue" stroke="midnightblue" points="206.62,-82.91 214.21,-75.52 203.66,-76.56 206.62,-82.91"/>
</g>
<!-- Node6&#45;&gt;Node5 -->
<g id="edge6" class="edge">
<title>Node6&#45;&gt;Node5</title>
<path fill="none" stroke="midnightblue" d="M225.07,-56.08C218.65,-48.38 209.19,-37.03 201.38,-27.65"/>
<polygon fill="midnightblue" stroke="midnightblue" points="203.88,-25.19 194.79,-19.75 198.51,-29.67 203.88,-25.19"/>
</g>
</g>
</svg>
