<?xml version="1.0" encoding="UTF-8" standalone="no"?>
<!DOCTYPE svg PUBLIC "-//W3C//DTD SVG 1.1//EN"
 "http://www.w3.org/Graphics/SVG/1.1/DTD/svg11.dtd">
<!-- Generated by graphviz version 2.49.0 (20210830.1337)
 -->
<!-- Title: typeClassDefs/FilteredOneDimSonar.hpp Pages: 1 -->
<svg width="301pt" height="151pt"
 viewBox="0.00 0.00 301.00 151.00" xmlns="http://www.w3.org/2000/svg" xmlns:xlink="http://www.w3.org/1999/xlink">
<g id="graph0" class="graph" transform="scale(1 1) rotate(0) translate(4 147)">
<title>typeClassDefs/FilteredOneDimSonar.hpp</title>
<!-- Node1 -->
<g id="node1" class="node">
<title>Node1</title>
<g id="a_node1"><a xlink:title=" ">
<polygon fill="#bfbfbf" stroke="black" points="50,-112.5 50,-142.5 183,-142.5 183,-112.5 50,-112.5"/>
<text text-anchor="start" x="58" y="-130.5" font-family="Helvetica,sans-Serif" font-size="10.00">typeClassDefs/FilteredOne</text>
<text text-anchor="middle" x="116.5" y="-119.5" font-family="Helvetica,sans-Serif" font-size="10.00">DimSonar.hpp</text>
</a>
</g>
</g>
<!-- Node2 -->
<g id="node2" class="node">
<title>Node2</title>
<g id="a_node2"><a xlink:title=" ">
<polygon fill="none" stroke="#bfbfbf" points="0,-56.5 0,-75.5 45,-75.5 45,-56.5 0,-56.5"/>
<text text-anchor="middle" x="22.5" y="-63.5" font-family="Helvetica,sans-Serif" font-size="10.00">cstdlib</text>
</a>
</g>
</g>
<!-- Node1&#45;&gt;Node2 -->
<g id="edge1" class="edge">
<title>Node1&#45;&gt;Node2</title>
<path fill="none" stroke="midnightblue" d="M94.22,-112.4C79.3,-102.95 59.72,-90.56 44.79,-81.11"/>
<polygon fill="midnightblue" stroke="midnightblue" points="46.5,-78.05 36.18,-75.66 42.76,-83.96 46.5,-78.05"/>
</g>
<!-- Node3 -->
<g id="node3" class="node">
<title>Node3</title>
<g id="a_node3"><a xlink:title=" ">
<polygon fill="none" stroke="#bfbfbf" points="63.5,-56.5 63.5,-75.5 115.5,-75.5 115.5,-56.5 63.5,-56.5"/>
<text text-anchor="middle" x="89.5" y="-63.5" font-family="Helvetica,sans-Serif" font-size="10.00">sstream</text>
</a>
</g>
</g>
<!-- Node1&#45;&gt;Node3 -->
<g id="edge2" class="edge">
<title>Node1&#45;&gt;Node3</title>
<path fill="none" stroke="midnightblue" d="M110.1,-112.4C106.38,-104.2 101.65,-93.78 97.67,-84.99"/>
<polygon fill="midnightblue" stroke="midnightblue" points="100.75,-83.32 93.43,-75.66 94.37,-86.21 100.75,-83.32"/>
</g>
<!-- Node4 -->
<g id="node4" class="node">
<title>Node4</title>
<g id="a_node4"><a xlink:title=" ">
<polygon fill="none" stroke="#bfbfbf" points="161,-0.5 161,-19.5 214,-19.5 214,-0.5 161,-0.5"/>
<text text-anchor="middle" x="187.5" y="-7.5" font-family="Helvetica,sans-Serif" font-size="10.00">gu_util.h</text>
</a>
</g>
</g>
<!-- Node1&#45;&gt;Node4 -->
<g id="edge3" class="edge">
<title>Node1&#45;&gt;Node4</title>
<path fill="none" stroke="midnightblue" d="M125.21,-112.34C138.23,-91.15 162.76,-51.24 176.84,-28.34"/>
<polygon fill="midnightblue" stroke="midnightblue" points="179.92,-30.02 182.17,-19.67 173.95,-26.36 179.92,-30.02"/>
</g>
<!-- Node5 -->
<g id="node5" class="node">
<title>Node5</title>
<g id="a_node5"><a xlink:href="wb__filteredsonarobject_8h.html" target="_top" xlink:title="gusimplewhiteboard">
<polygon fill="none" stroke="black" points="172,-56.5 172,-75.5 293,-75.5 293,-56.5 172,-56.5"/>
<text text-anchor="middle" x="232.5" y="-63.5" font-family="Helvetica,sans-Serif" font-size="10.00">wb_filteredsonarobject.h</text>
</a>
</g>
</g>
<!-- Node1&#45;&gt;Node5 -->
<g id="edge4" class="edge">
<title>Node1&#45;&gt;Node5</title>
<path fill="none" stroke="midnightblue" d="M143.99,-112.4C162.93,-102.68 187.94,-89.86 206.54,-80.31"/>
<polygon fill="midnightblue" stroke="midnightblue" points="208.32,-83.34 215.62,-75.66 205.13,-77.11 208.32,-83.34"/>
</g>
<!-- Node5&#45;&gt;Node4 -->
<g id="edge5" class="edge">
<title>Node5&#45;&gt;Node4</title>
<path fill="none" stroke="midnightblue" d="M225.07,-56.08C218.65,-48.38 209.19,-37.03 201.38,-27.65"/>
<polygon fill="midnightblue" stroke="midnightblue" points="203.88,-25.19 194.79,-19.75 198.51,-29.67 203.88,-25.19"/>
</g>
</g>
</svg>
