<?xml version="1.0" encoding="UTF-8" standalone="no"?>
<!DOCTYPE svg PUBLIC "-//W3C//DTD SVG 1.1//EN"
 "http://www.w3.org/Graphics/SVG/1.1/DTD/svg11.dtd">
<!-- Generated by graphviz version 2.49.0 (20210830.1337)
 -->
<!-- Title: typeClassDefs/FilteredOneDimSonar.h Pages: 1 -->
<svg width="497pt" height="307pt"
 viewBox="0.00 0.00 497.00 307.00" xmlns="http://www.w3.org/2000/svg" xmlns:xlink="http://www.w3.org/1999/xlink">
<g id="graph0" class="graph" transform="scale(1 1) rotate(0) translate(4 303)">
<title>typeClassDefs/FilteredOneDimSonar.h</title>
<!-- Node1 -->
<g id="node1" class="node">
<title>Node1</title>
<g id="a_node1"><a xlink:title=" ">
<polygon fill="#bfbfbf" stroke="black" points="12,-268.5 12,-298.5 145,-298.5 145,-268.5 12,-268.5"/>
<text text-anchor="start" x="20" y="-286.5" font-family="Helvetica,sans-Serif" font-size="10.00">typeClassDefs/FilteredOne</text>
<text text-anchor="middle" x="78.5" y="-275.5" font-family="Helvetica,sans-Serif" font-size="10.00">DimSonar.h</text>
</a>
</g>
</g>
<!-- Node2 -->
<g id="node2" class="node">
<title>Node2</title>
<g id="a_node2"><a xlink:href="_simple_whiteboard_test_8mm.html" target="_top" xlink:title=" ">
<polygon fill="none" stroke="black" points="0,-0.5 0,-30.5 137,-30.5 137,-0.5 0,-0.5"/>
<text text-anchor="start" x="8" y="-18.5" font-family="Helvetica,sans-Serif" font-size="10.00">SimpleWhiteboardTest</text>
<text text-anchor="middle" x="68.5" y="-7.5" font-family="Helvetica,sans-Serif" font-size="10.00">/SimpleWhiteboardTest.mm</text>
</a>
</g>
</g>
<!-- Node1&#45;&gt;Node2 -->
<g id="edge1" class="edge">
<title>Node1&#45;&gt;Node2</title>
<path fill="none" stroke="midnightblue" d="M62.2,-259.95C57.09,-251.59 52.1,-241.76 49.5,-232 29.8,-158.15 53.43,-65.54 63.95,-30.65"/>
<polygon fill="midnightblue" stroke="midnightblue" points="59.3,-261.91 67.69,-268.37 65.16,-258.08 59.3,-261.91"/>
</g>
<!-- Node3 -->
<g id="node3" class="node">
<title>Node3</title>
<g id="a_node3"><a xlink:href="_filtered_array_one_dim_sonar_8hpp.html" target="_top" xlink:title=" ">
<polygon fill="none" stroke="black" points="59,-201.5 59,-231.5 196,-231.5 196,-201.5 59,-201.5"/>
<text text-anchor="start" x="67" y="-219.5" font-family="Helvetica,sans-Serif" font-size="10.00">typeClassDefs/FilteredArray</text>
<text text-anchor="middle" x="127.5" y="-208.5" font-family="Helvetica,sans-Serif" font-size="10.00">OneDimSonar.hpp</text>
</a>
</g>
</g>
<!-- Node1&#45;&gt;Node3 -->
<g id="edge2" class="edge">
<title>Node1&#45;&gt;Node3</title>
<path fill="none" stroke="midnightblue" d="M95.34,-260.16C102.49,-250.68 110.6,-239.92 116.89,-231.58"/>
<polygon fill="midnightblue" stroke="midnightblue" points="92.36,-258.3 89.13,-268.4 97.95,-262.52 92.36,-258.3"/>
</g>
<!-- Node4 -->
<g id="node4" class="node">
<title>Node4</title>
<g id="a_node4"><a xlink:href="guwhiteboardposter_8h.html" target="_top" xlink:title=" ">
<polygon fill="none" stroke="black" points="228,-140 228,-159 337,-159 337,-140 228,-140"/>
<text text-anchor="middle" x="282.5" y="-147" font-family="Helvetica,sans-Serif" font-size="10.00">guwhiteboardposter.h</text>
</a>
</g>
</g>
<!-- Node3&#45;&gt;Node4 -->
<g id="edge3" class="edge">
<title>Node3&#45;&gt;Node4</title>
<path fill="none" stroke="midnightblue" d="M170.52,-197.46C200.47,-184.9 239.04,-168.72 262.21,-159.01"/>
<polygon fill="midnightblue" stroke="midnightblue" points="169,-194.3 161.13,-201.4 171.71,-200.76 169,-194.3"/>
</g>
<!-- Node9 -->
<g id="node9" class="node">
<title>Node9</title>
<g id="a_node9"><a xlink:href="_filtered_array_one_dim_sonar_8h.html" target="_top" xlink:title=" ">
<polygon fill="none" stroke="black" points="59,-134.5 59,-164.5 196,-164.5 196,-134.5 59,-134.5"/>
<text text-anchor="start" x="67" y="-152.5" font-family="Helvetica,sans-Serif" font-size="10.00">typeClassDefs/FilteredArray</text>
<text text-anchor="middle" x="127.5" y="-141.5" font-family="Helvetica,sans-Serif" font-size="10.00">OneDimSonar.h</text>
</a>
</g>
</g>
<!-- Node3&#45;&gt;Node9 -->
<g id="edge9" class="edge">
<title>Node3&#45;&gt;Node9</title>
<path fill="none" stroke="midnightblue" d="M127.5,-191.11C127.5,-182.15 127.5,-172.32 127.5,-164.58"/>
<polygon fill="midnightblue" stroke="midnightblue" points="124,-191.4 127.5,-201.4 131,-191.4 124,-191.4"/>
</g>
<!-- Node5 -->
<g id="node5" class="node">
<title>Node5</title>
<g id="a_node5"><a xlink:href="_simple_whiteboard_test_8h.html" target="_top" xlink:title=" ">
<polygon fill="none" stroke="black" points="234,-67.5 234,-97.5 359,-97.5 359,-67.5 234,-67.5"/>
<text text-anchor="start" x="242" y="-85.5" font-family="Helvetica,sans-Serif" font-size="10.00">SimpleWhiteboardTest</text>
<text text-anchor="middle" x="296.5" y="-74.5" font-family="Helvetica,sans-Serif" font-size="10.00">/SimpleWhiteboardTest.h</text>
</a>
</g>
</g>
<!-- Node4&#45;&gt;Node5 -->
<g id="edge4" class="edge">
<title>Node4&#45;&gt;Node5</title>
<path fill="none" stroke="midnightblue" d="M286.54,-129.74C288.75,-119.49 291.44,-107 293.47,-97.59"/>
<polygon fill="midnightblue" stroke="midnightblue" points="283.07,-129.22 284.39,-139.73 289.92,-130.69 283.07,-129.22"/>
</g>
<!-- Node6 -->
<g id="node6" class="node">
<title>Node6</title>
<g id="a_node6"><a xlink:href="guwhiteboardgetter_8h.html" target="_top" xlink:title=" ">
<polygon fill="none" stroke="black" points="377,-73 377,-92 484,-92 484,-73 377,-73"/>
<text text-anchor="middle" x="430.5" y="-80" font-family="Helvetica,sans-Serif" font-size="10.00">guwhiteboardgetter.h</text>
</a>
</g>
</g>
<!-- Node4&#45;&gt;Node6 -->
<g id="edge6" class="edge">
<title>Node4&#45;&gt;Node6</title>
<path fill="none" stroke="midnightblue" d="M311.46,-135.78C340.77,-122.91 385.29,-103.35 410.77,-92.17"/>
<polygon fill="midnightblue" stroke="midnightblue" points="309.9,-132.64 302.15,-139.87 312.72,-139.05 309.9,-132.64"/>
</g>
<!-- Node8 -->
<g id="node8" class="node">
<title>Node8</title>
<g id="a_node8"><a xlink:href="guwhiteboardposter_8cpp.html" target="_top" xlink:title=" ">
<polygon fill="none" stroke="black" points="97,-73 97,-92 216,-92 216,-73 97,-73"/>
<text text-anchor="middle" x="156.5" y="-80" font-family="Helvetica,sans-Serif" font-size="10.00">guwhiteboardposter.cpp</text>
</a>
</g>
</g>
<!-- Node4&#45;&gt;Node8 -->
<g id="edge8" class="edge">
<title>Node4&#45;&gt;Node8</title>
<path fill="none" stroke="midnightblue" d="M256.86,-135.27C231.91,-122.4 194.7,-103.21 173.3,-92.17"/>
<polygon fill="midnightblue" stroke="midnightblue" points="255.28,-138.39 265.77,-139.87 258.49,-132.17 255.28,-138.39"/>
</g>
<!-- Node5&#45;&gt;Node2 -->
<g id="edge5" class="edge">
<title>Node5&#45;&gt;Node2</title>
<path fill="none" stroke="midnightblue" d="M237.62,-64.71C200.52,-54.14 153.16,-40.63 118,-30.61"/>
<polygon fill="midnightblue" stroke="midnightblue" points="236.73,-68.1 247.31,-67.48 238.65,-61.37 236.73,-68.1"/>
</g>
<!-- Node7 -->
<g id="node7" class="node">
<title>Node7</title>
<g id="a_node7"><a xlink:href="guwhiteboardgetter_8cpp.html" target="_top" xlink:title=" ">
<polygon fill="none" stroke="black" points="372,-6 372,-25 489,-25 489,-6 372,-6"/>
<text text-anchor="middle" x="430.5" y="-13" font-family="Helvetica,sans-Serif" font-size="10.00">guwhiteboardgetter.cpp</text>
</a>
</g>
</g>
<!-- Node6&#45;&gt;Node7 -->
<g id="edge7" class="edge">
<title>Node6&#45;&gt;Node7</title>
<path fill="none" stroke="midnightblue" d="M430.5,-62.54C430.5,-50.17 430.5,-34.62 430.5,-25.13"/>
<polygon fill="midnightblue" stroke="midnightblue" points="427,-62.73 430.5,-72.73 434,-62.73 427,-62.73"/>
</g>
<!-- Node9&#45;&gt;Node2 -->
<g id="edge10" class="edge">
<title>Node9&#45;&gt;Node2</title>
<path fill="none" stroke="midnightblue" d="M106.56,-126.44C99.6,-118.08 92.38,-108.12 87.5,-98 76.83,-75.89 71.97,-47.45 69.9,-30.68"/>
<polygon fill="midnightblue" stroke="midnightblue" points="104.13,-128.98 113.34,-134.22 109.41,-124.38 104.13,-128.98"/>
</g>
</g>
</svg>
