<?xml version="1.0" encoding="UTF-8" standalone="no"?>
<!DOCTYPE svg PUBLIC "-//W3C//DTD SVG 1.1//EN"
 "http://www.w3.org/Graphics/SVG/1.1/DTD/svg11.dtd">
<!-- Generated by graphviz version 2.49.0 (20210830.1337)
 -->
<!-- Title: typeClassDefs/FilteredArrayOneDimObjects.hpp Pages: 1 -->
<svg width="587pt" height="274pt"
 viewBox="0.00 0.00 586.50 274.00" xmlns="http://www.w3.org/2000/svg" xmlns:xlink="http://www.w3.org/1999/xlink">
<g id="graph0" class="graph" transform="scale(1 1) rotate(0) translate(4 270)">
<title>typeClassDefs/FilteredArrayOneDimObjects.hpp</title>
<!-- Node1 -->
<g id="node1" class="node">
<title>Node1</title>
<g id="a_node1"><a xlink:title=" ">
<polygon fill="#bfbfbf" stroke="black" points="119,-235.5 119,-265.5 256,-265.5 256,-235.5 119,-235.5"/>
<text text-anchor="start" x="127" y="-253.5" font-family="Helvetica,sans-Serif" font-size="10.00">typeClassDefs/FilteredArray</text>
<text text-anchor="middle" x="187.5" y="-242.5" font-family="Helvetica,sans-Serif" font-size="10.00">OneDimObjects.hpp</text>
</a>
</g>
</g>
<!-- Node2 -->
<g id="node2" class="node">
<title>Node2</title>
<g id="a_node2"><a xlink:title=" ">
<polygon fill="none" stroke="#bfbfbf" points="0,-62 0,-81 45,-81 45,-62 0,-62"/>
<text text-anchor="middle" x="22.5" y="-69" font-family="Helvetica,sans-Serif" font-size="10.00">cstdlib</text>
</a>
</g>
</g>
<!-- Node1&#45;&gt;Node2 -->
<g id="edge1" class="edge">
<title>Node1&#45;&gt;Node2</title>
<path fill="none" stroke="midnightblue" d="M125.28,-235.46C103.58,-227.84 80.64,-216.3 64.5,-199 36.04,-168.51 26.84,-118.24 23.88,-91.16"/>
<polygon fill="midnightblue" stroke="midnightblue" points="27.36,-90.74 22.96,-81.1 20.39,-91.38 27.36,-90.74"/>
</g>
<!-- Node3 -->
<g id="node3" class="node">
<title>Node3</title>
<g id="a_node3"><a xlink:title=" ">
<polygon fill="none" stroke="#bfbfbf" points="68.5,-62 68.5,-81 116.5,-81 116.5,-62 68.5,-62"/>
<text text-anchor="middle" x="92.5" y="-69" font-family="Helvetica,sans-Serif" font-size="10.00">string.h</text>
</a>
</g>
</g>
<!-- Node1&#45;&gt;Node3 -->
<g id="edge2" class="edge">
<title>Node1&#45;&gt;Node3</title>
<path fill="none" stroke="midnightblue" d="M130.53,-235.43C111.09,-227.8 91.11,-216.27 78.5,-199 58.5,-171.6 64.86,-156.26 71.5,-123 73.77,-111.65 78.64,-99.66 83.12,-90.21"/>
<polygon fill="midnightblue" stroke="midnightblue" points="86.33,-91.61 87.68,-81.1 80.07,-88.47 86.33,-91.61"/>
</g>
<!-- Node4 -->
<g id="node4" class="node">
<title>Node4</title>
<g id="a_node4"><a xlink:title=" ">
<polygon fill="none" stroke="#bfbfbf" points="179.5,-62 179.5,-81 231.5,-81 231.5,-62 179.5,-62"/>
<text text-anchor="middle" x="205.5" y="-69" font-family="Helvetica,sans-Serif" font-size="10.00">sstream</text>
</a>
</g>
</g>
<!-- Node1&#45;&gt;Node4 -->
<g id="edge3" class="edge">
<title>Node1&#45;&gt;Node4</title>
<path fill="none" stroke="midnightblue" d="M194.92,-235.35C199.72,-225.45 205.59,-211.78 208.5,-199 217.04,-161.48 212.49,-116.08 208.76,-91.15"/>
<polygon fill="midnightblue" stroke="midnightblue" points="212.21,-90.55 207.16,-81.24 205.3,-91.67 212.21,-90.55"/>
</g>
<!-- Node5 -->
<g id="node5" class="node">
<title>Node5</title>
<g id="a_node5"><a xlink:title=" ">
<polygon fill="none" stroke="#bfbfbf" points="281,-0.5 281,-19.5 334,-19.5 334,-0.5 281,-0.5"/>
<text text-anchor="middle" x="307.5" y="-7.5" font-family="Helvetica,sans-Serif" font-size="10.00">gu_util.h</text>
</a>
</g>
</g>
<!-- Node1&#45;&gt;Node5 -->
<g id="edge4" class="edge">
<title>Node1&#45;&gt;Node5</title>
<path fill="none" stroke="midnightblue" d="M199.06,-235.48C206.83,-225.65 217,-211.99 224.5,-199 259.23,-138.86 259.4,-119.51 287.5,-56 291.44,-47.09 295.83,-37.21 299.5,-28.97"/>
<polygon fill="midnightblue" stroke="midnightblue" points="302.79,-30.18 303.66,-19.62 296.39,-27.34 302.79,-30.18"/>
</g>
<!-- Node6 -->
<g id="node6" class="node">
<title>Node6</title>
<g id="a_node6"><a xlink:href="wb__filtered__arrayonedimobjects_8h.html" target="_top" xlink:title=" ">
<polygon fill="none" stroke="black" points="338.5,-123.5 338.5,-142.5 498.5,-142.5 498.5,-123.5 338.5,-123.5"/>
<text text-anchor="middle" x="418.5" y="-130.5" font-family="Helvetica,sans-Serif" font-size="10.00">wb_filtered_arrayonedimobjects.h</text>
</a>
</g>
</g>
<!-- Node1&#45;&gt;Node6 -->
<g id="edge5" class="edge">
<title>Node1&#45;&gt;Node6</title>
<path fill="none" stroke="midnightblue" d="M215.83,-235.34C260.96,-212.77 348.57,-168.97 392.32,-147.09"/>
<polygon fill="midnightblue" stroke="midnightblue" points="394.08,-150.12 401.46,-142.52 390.95,-143.86 394.08,-150.12"/>
</g>
<!-- Node11 -->
<g id="node11" class="node">
<title>Node11</title>
<g id="a_node11"><a xlink:href="_filtered_vision_object_8h.html" target="_top" xlink:title=" ">
<polygon fill="none" stroke="black" points="87.5,-179.5 87.5,-198.5 199.5,-198.5 199.5,-179.5 87.5,-179.5"/>
<text text-anchor="middle" x="143.5" y="-186.5" font-family="Helvetica,sans-Serif" font-size="10.00">FilteredVisionObject.h</text>
</a>
</g>
</g>
<!-- Node1&#45;&gt;Node11 -->
<g id="edge13" class="edge">
<title>Node1&#45;&gt;Node11</title>
<path fill="none" stroke="midnightblue" d="M177.07,-235.4C170.74,-226.84 162.63,-215.87 155.97,-206.86"/>
<polygon fill="midnightblue" stroke="midnightblue" points="158.66,-204.62 149.9,-198.66 153.03,-208.78 158.66,-204.62"/>
</g>
<!-- Node6&#45;&gt;Node5 -->
<g id="edge6" class="edge">
<title>Node6&#45;&gt;Node5</title>
<path fill="none" stroke="midnightblue" d="M418.6,-123.46C418.35,-108.22 415.76,-76.09 399.5,-56 385.5,-38.7 363.19,-27.56 344.05,-20.69"/>
<polygon fill="midnightblue" stroke="midnightblue" points="344.98,-17.31 334.39,-17.48 342.77,-23.95 344.98,-17.31"/>
</g>
<!-- Node7 -->
<g id="node7" class="node">
<title>Node7</title>
<g id="a_node7"><a xlink:title=" ">
<polygon fill="none" stroke="#bfbfbf" points="355.5,-0.5 355.5,-19.5 403.5,-19.5 403.5,-0.5 355.5,-0.5"/>
<text text-anchor="middle" x="379.5" y="-7.5" font-family="Helvetica,sans-Serif" font-size="10.00">stdint.h</text>
</a>
</g>
</g>
<!-- Node6&#45;&gt;Node7 -->
<g id="edge7" class="edge">
<title>Node6&#45;&gt;Node7</title>
<path fill="none" stroke="midnightblue" d="M423.42,-123.14C430.84,-108.51 442.98,-78.65 432.5,-56 426.58,-43.21 415.03,-32.72 404.22,-25.1"/>
<polygon fill="midnightblue" stroke="midnightblue" points="406.12,-22.16 395.83,-19.61 402.29,-28.02 406.12,-22.16"/>
</g>
<!-- Node8 -->
<g id="node8" class="node">
<title>Node8</title>
<g id="a_node8"><a xlink:href="wb__filtered__vision__object_8h.html" target="_top" xlink:title=" ">
<polygon fill="none" stroke="black" points="296.5,-56.5 296.5,-86.5 390.5,-86.5 390.5,-56.5 296.5,-56.5"/>
<text text-anchor="start" x="304.5" y="-74.5" font-family="Helvetica,sans-Serif" font-size="10.00">wb_filtered_vision</text>
<text text-anchor="middle" x="343.5" y="-63.5" font-family="Helvetica,sans-Serif" font-size="10.00">_object.h</text>
</a>
</g>
</g>
<!-- Node6&#45;&gt;Node8 -->
<g id="edge8" class="edge">
<title>Node6&#45;&gt;Node8</title>
<path fill="none" stroke="midnightblue" d="M407.75,-123.48C397.69,-115.49 382.27,-103.25 369.05,-92.77"/>
<polygon fill="midnightblue" stroke="midnightblue" points="371.19,-90 361.18,-86.52 366.83,-95.48 371.19,-90"/>
</g>
<!-- Node9 -->
<g id="node9" class="node">
<title>Node9</title>
<g id="a_node9"><a xlink:href="wb__filtered__vision__object__type_8h.html" target="_top" xlink:title=" ">
<polygon fill="none" stroke="black" points="484.5,-56.5 484.5,-86.5 578.5,-86.5 578.5,-56.5 484.5,-56.5"/>
<text text-anchor="start" x="492.5" y="-74.5" font-family="Helvetica,sans-Serif" font-size="10.00">wb_filtered_vision</text>
<text text-anchor="middle" x="531.5" y="-63.5" font-family="Helvetica,sans-Serif" font-size="10.00">_object_type.h</text>
</a>
</g>
</g>
<!-- Node6&#45;&gt;Node9 -->
<g id="edge11" class="edge">
<title>Node6&#45;&gt;Node9</title>
<path fill="none" stroke="midnightblue" d="M434.69,-123.48C450.57,-115.12 475.3,-102.09 495.8,-91.3"/>
<polygon fill="midnightblue" stroke="midnightblue" points="497.65,-94.28 504.87,-86.52 494.39,-88.09 497.65,-94.28"/>
</g>
<!-- Node8&#45;&gt;Node5 -->
<g id="edge9" class="edge">
<title>Node8&#45;&gt;Node5</title>
<path fill="none" stroke="midnightblue" d="M334.97,-56.4C329.9,-48.02 323.43,-37.33 318.04,-28.42"/>
<polygon fill="midnightblue" stroke="midnightblue" points="320.91,-26.4 312.74,-19.66 314.92,-30.03 320.91,-26.4"/>
</g>
<!-- Node8&#45;&gt;Node7 -->
<g id="edge10" class="edge">
<title>Node8&#45;&gt;Node7</title>
<path fill="none" stroke="midnightblue" d="M352.03,-56.4C357.1,-48.02 363.57,-37.33 368.96,-28.42"/>
<polygon fill="midnightblue" stroke="midnightblue" points="372.08,-30.03 374.26,-19.66 366.09,-26.4 372.08,-30.03"/>
</g>
<!-- Node10 -->
<g id="node10" class="node">
<title>Node10</title>
<g id="a_node10"><a xlink:title=" ">
<polygon fill="none" stroke="#bfbfbf" points="499,-0.5 499,-19.5 564,-19.5 564,-0.5 499,-0.5"/>
<text text-anchor="middle" x="531.5" y="-7.5" font-family="Helvetica,sans-Serif" font-size="10.00">sys/types.h</text>
</a>
</g>
</g>
<!-- Node9&#45;&gt;Node10 -->
<g id="edge12" class="edge">
<title>Node9&#45;&gt;Node10</title>
<path fill="none" stroke="midnightblue" d="M531.5,-56.4C531.5,-48.47 531.5,-38.46 531.5,-29.86"/>
<polygon fill="midnightblue" stroke="midnightblue" points="535,-29.66 531.5,-19.66 528,-29.66 535,-29.66"/>
</g>
<!-- Node12 -->
<g id="node12" class="node">
<title>Node12</title>
<g id="a_node12"><a xlink:href="_filtered_vision_object_8hpp.html" target="_top" xlink:title=" ">
<polygon fill="none" stroke="black" points="80.5,-123.5 80.5,-142.5 202.5,-142.5 202.5,-123.5 80.5,-123.5"/>
<text text-anchor="middle" x="141.5" y="-130.5" font-family="Helvetica,sans-Serif" font-size="10.00">FilteredVisionObject.hpp</text>
</a>
</g>
</g>
<!-- Node11&#45;&gt;Node12 -->
<g id="edge14" class="edge">
<title>Node11&#45;&gt;Node12</title>
<path fill="none" stroke="midnightblue" d="M143.17,-179.08C142.91,-172.01 142.53,-161.86 142.2,-152.99"/>
<polygon fill="midnightblue" stroke="midnightblue" points="145.69,-152.61 141.82,-142.75 138.7,-152.87 145.69,-152.61"/>
</g>
<!-- Node12&#45;&gt;Node2 -->
<g id="edge15" class="edge">
<title>Node12&#45;&gt;Node2</title>
<path fill="none" stroke="midnightblue" d="M124.45,-123.48C104.66,-113.58 71.78,-97.14 48.73,-85.62"/>
<polygon fill="midnightblue" stroke="midnightblue" points="50.03,-82.35 39.52,-81.01 46.9,-88.61 50.03,-82.35"/>
</g>
<!-- Node12&#45;&gt;Node3 -->
<g id="edge16" class="edge">
<title>Node12&#45;&gt;Node3</title>
<path fill="none" stroke="midnightblue" d="M134.48,-123.48C127.06,-114.46 115.17,-100.02 105.93,-88.81"/>
<polygon fill="midnightblue" stroke="midnightblue" points="108.57,-86.5 99.51,-81.01 103.16,-90.95 108.57,-86.5"/>
</g>
<!-- Node12&#45;&gt;Node4 -->
<g id="edge17" class="edge">
<title>Node12&#45;&gt;Node4</title>
<path fill="none" stroke="midnightblue" d="M150.67,-123.48C160.65,-114.2 176.81,-99.17 189.01,-87.83"/>
<polygon fill="midnightblue" stroke="midnightblue" points="191.41,-90.38 196.35,-81.01 186.64,-85.25 191.41,-90.38"/>
</g>
<!-- Node12&#45;&gt;Node5 -->
<g id="edge18" class="edge">
<title>Node12&#45;&gt;Node5</title>
<path fill="none" stroke="midnightblue" d="M142.38,-123.39C144.45,-107.76 150.98,-74.62 170.5,-56 197.72,-30.03 240.2,-19.04 270.63,-14.4"/>
<polygon fill="midnightblue" stroke="midnightblue" points="271.42,-17.82 280.85,-13.01 270.47,-10.89 271.42,-17.82"/>
</g>
<!-- Node12&#45;&gt;Node8 -->
<g id="edge19" class="edge">
<title>Node12&#45;&gt;Node8</title>
<path fill="none" stroke="midnightblue" d="M170.44,-123.48C200.58,-114.6 248.59,-100.45 286.41,-89.32"/>
<polygon fill="midnightblue" stroke="midnightblue" points="287.68,-92.59 296.28,-86.41 285.7,-85.88 287.68,-92.59"/>
</g>
</g>
</svg>
