<?xml version="1.0" encoding="UTF-8" standalone="no"?>
<!DOCTYPE svg PUBLIC "-//W3C//DTD SVG 1.1//EN"
 "http://www.w3.org/Graphics/SVG/1.1/DTD/svg11.dtd">
<!-- Generated by graphviz version 2.49.0 (20210830.1337)
 -->
<!-- Title: typeClassDefs/FilteredVisionObject.h Pages: 1 -->
<svg width="640pt" height="307pt"
 viewBox="0.00 0.00 640.00 307.00" xmlns="http://www.w3.org/2000/svg" xmlns:xlink="http://www.w3.org/1999/xlink">
<g id="graph0" class="graph" transform="scale(1 1) rotate(0) translate(4 303)">
<title>typeClassDefs/FilteredVisionObject.h</title>
<!-- Node1 -->
<g id="node1" class="node">
<title>Node1</title>
<g id="a_node1"><a xlink:title=" ">
<polygon fill="#bfbfbf" stroke="black" points="338.5,-268.5 338.5,-298.5 480.5,-298.5 480.5,-268.5 338.5,-268.5"/>
<text text-anchor="start" x="346.5" y="-286.5" font-family="Helvetica,sans-Serif" font-size="10.00">typeClassDefs/FilteredVision</text>
<text text-anchor="middle" x="409.5" y="-275.5" font-family="Helvetica,sans-Serif" font-size="10.00">Object.h</text>
</a>
</g>
</g>
<!-- Node2 -->
<g id="node2" class="node">
<title>Node2</title>
<g id="a_node2"><a xlink:href="_filtered_array_ball_sightings_8hpp.html" target="_top" xlink:title=" ">
<polygon fill="none" stroke="black" points="494,-201.5 494,-231.5 631,-231.5 631,-201.5 494,-201.5"/>
<text text-anchor="start" x="502" y="-219.5" font-family="Helvetica,sans-Serif" font-size="10.00">typeClassDefs/FilteredArray</text>
<text text-anchor="middle" x="562.5" y="-208.5" font-family="Helvetica,sans-Serif" font-size="10.00">BallSightings.hpp</text>
</a>
</g>
</g>
<!-- Node1&#45;&gt;Node2 -->
<g id="edge1" class="edge">
<title>Node1&#45;&gt;Node2</title>
<path fill="none" stroke="midnightblue" d="M452.09,-264.41C476.52,-254.03 506.72,-241.2 529.37,-231.58"/>
<polygon fill="midnightblue" stroke="midnightblue" points="450.53,-261.26 442.7,-268.4 453.27,-267.71 450.53,-261.26"/>
</g>
<!-- Node12 -->
<g id="node12" class="node">
<title>Node12</title>
<g id="a_node12"><a xlink:href="_filtered_array_one_dim_objects_8hpp.html" target="_top" xlink:title=" ">
<polygon fill="none" stroke="black" points="186,-201.5 186,-231.5 323,-231.5 323,-201.5 186,-201.5"/>
<text text-anchor="start" x="194" y="-219.5" font-family="Helvetica,sans-Serif" font-size="10.00">typeClassDefs/FilteredArray</text>
<text text-anchor="middle" x="254.5" y="-208.5" font-family="Helvetica,sans-Serif" font-size="10.00">OneDimObjects.hpp</text>
</a>
</g>
</g>
<!-- Node1&#45;&gt;Node12 -->
<g id="edge11" class="edge">
<title>Node1&#45;&gt;Node12</title>
<path fill="none" stroke="midnightblue" d="M366.35,-264.41C341.61,-254.03 311,-241.2 288.07,-231.58"/>
<polygon fill="midnightblue" stroke="midnightblue" points="365.29,-267.76 375.87,-268.4 368,-261.3 365.29,-267.76"/>
</g>
<!-- Node14 -->
<g id="node14" class="node">
<title>Node14</title>
<g id="a_node14"><a xlink:href="_filtered_one_dim_object_8hpp.html" target="_top" xlink:title=" ">
<polygon fill="none" stroke="black" points="343,-201.5 343,-231.5 476,-231.5 476,-201.5 343,-201.5"/>
<text text-anchor="start" x="351" y="-219.5" font-family="Helvetica,sans-Serif" font-size="10.00">typeClassDefs/FilteredOne</text>
<text text-anchor="middle" x="409.5" y="-208.5" font-family="Helvetica,sans-Serif" font-size="10.00">DimObject.hpp</text>
</a>
</g>
</g>
<!-- Node1&#45;&gt;Node14 -->
<g id="edge15" class="edge">
<title>Node1&#45;&gt;Node14</title>
<path fill="none" stroke="midnightblue" d="M409.5,-258.11C409.5,-249.15 409.5,-239.32 409.5,-231.58"/>
<polygon fill="midnightblue" stroke="midnightblue" points="406,-258.4 409.5,-268.4 413,-258.4 406,-258.4"/>
</g>
<!-- Node3 -->
<g id="node3" class="node">
<title>Node3</title>
<g id="a_node3"><a xlink:href="guwhiteboardposter_8h.html" target="_top" xlink:title=" ">
<polygon fill="none" stroke="black" points="200,-140 200,-159 309,-159 309,-140 200,-140"/>
<text text-anchor="middle" x="254.5" y="-147" font-family="Helvetica,sans-Serif" font-size="10.00">guwhiteboardposter.h</text>
</a>
</g>
</g>
<!-- Node2&#45;&gt;Node3 -->
<g id="edge2" class="edge">
<title>Node2&#45;&gt;Node3</title>
<path fill="none" stroke="midnightblue" d="M486.15,-199.39C425.6,-186.61 343.36,-169.25 294.91,-159.03"/>
<polygon fill="midnightblue" stroke="midnightblue" points="485.54,-202.84 496.05,-201.48 486.99,-195.99 485.54,-202.84"/>
</g>
<!-- Node9 -->
<g id="node9" class="node">
<title>Node9</title>
<g id="a_node9"><a xlink:href="_filtered_array_ball_sightings_8h.html" target="_top" xlink:title=" ">
<polygon fill="none" stroke="black" points="495,-134.5 495,-164.5 632,-164.5 632,-134.5 495,-134.5"/>
<text text-anchor="start" x="503" y="-152.5" font-family="Helvetica,sans-Serif" font-size="10.00">typeClassDefs/FilteredArray</text>
<text text-anchor="middle" x="563.5" y="-141.5" font-family="Helvetica,sans-Serif" font-size="10.00">BallSightings.h</text>
</a>
</g>
</g>
<!-- Node2&#45;&gt;Node9 -->
<g id="edge8" class="edge">
<title>Node2&#45;&gt;Node9</title>
<path fill="none" stroke="midnightblue" d="M562.88,-191.11C563.01,-182.15 563.16,-172.32 563.28,-164.58"/>
<polygon fill="midnightblue" stroke="midnightblue" points="559.37,-191.34 562.72,-201.4 566.37,-191.45 559.37,-191.34"/>
</g>
<!-- Node4 -->
<g id="node4" class="node">
<title>Node4</title>
<g id="a_node4"><a xlink:href="_simple_whiteboard_test_8h.html" target="_top" xlink:title=" ">
<polygon fill="none" stroke="black" points="51,-67.5 51,-97.5 176,-97.5 176,-67.5 51,-67.5"/>
<text text-anchor="start" x="59" y="-85.5" font-family="Helvetica,sans-Serif" font-size="10.00">SimpleWhiteboardTest</text>
<text text-anchor="middle" x="113.5" y="-74.5" font-family="Helvetica,sans-Serif" font-size="10.00">/SimpleWhiteboardTest.h</text>
</a>
</g>
</g>
<!-- Node3&#45;&gt;Node4 -->
<g id="edge3" class="edge">
<title>Node3&#45;&gt;Node4</title>
<path fill="none" stroke="midnightblue" d="M226.56,-135.62C202.71,-124.63 168.47,-108.84 143.93,-97.53"/>
<polygon fill="midnightblue" stroke="midnightblue" points="225.23,-138.86 235.78,-139.87 228.16,-132.5 225.23,-138.86"/>
</g>
<!-- Node6 -->
<g id="node6" class="node">
<title>Node6</title>
<g id="a_node6"><a xlink:href="guwhiteboardgetter_8h.html" target="_top" xlink:title=" ">
<polygon fill="none" stroke="black" points="331,-73 331,-92 438,-92 438,-73 331,-73"/>
<text text-anchor="middle" x="384.5" y="-80" font-family="Helvetica,sans-Serif" font-size="10.00">guwhiteboardgetter.h</text>
</a>
</g>
</g>
<!-- Node3&#45;&gt;Node6 -->
<g id="edge5" class="edge">
<title>Node3&#45;&gt;Node6</title>
<path fill="none" stroke="midnightblue" d="M280.95,-135.27C306.7,-122.4 345.08,-103.21 367.17,-92.17"/>
<polygon fill="midnightblue" stroke="midnightblue" points="279.14,-132.27 271.76,-139.87 282.27,-138.53 279.14,-132.27"/>
</g>
<!-- Node8 -->
<g id="node8" class="node">
<title>Node8</title>
<g id="a_node8"><a xlink:href="guwhiteboardposter_8cpp.html" target="_top" xlink:title=" ">
<polygon fill="none" stroke="black" points="194,-73 194,-92 313,-92 313,-73 194,-73"/>
<text text-anchor="middle" x="253.5" y="-80" font-family="Helvetica,sans-Serif" font-size="10.00">guwhiteboardposter.cpp</text>
</a>
</g>
</g>
<!-- Node3&#45;&gt;Node8 -->
<g id="edge7" class="edge">
<title>Node3&#45;&gt;Node8</title>
<path fill="none" stroke="midnightblue" d="M254.21,-129.54C254.02,-117.17 253.78,-101.62 253.63,-92.13"/>
<polygon fill="midnightblue" stroke="midnightblue" points="250.71,-129.79 254.37,-139.73 257.71,-129.68 250.71,-129.79"/>
</g>
<!-- Node5 -->
<g id="node5" class="node">
<title>Node5</title>
<g id="a_node5"><a xlink:href="_simple_whiteboard_test_8mm.html" target="_top" xlink:title=" ">
<polygon fill="none" stroke="black" points="45,-0.5 45,-30.5 182,-30.5 182,-0.5 45,-0.5"/>
<text text-anchor="start" x="53" y="-18.5" font-family="Helvetica,sans-Serif" font-size="10.00">SimpleWhiteboardTest</text>
<text text-anchor="middle" x="113.5" y="-7.5" font-family="Helvetica,sans-Serif" font-size="10.00">/SimpleWhiteboardTest.mm</text>
</a>
</g>
</g>
<!-- Node4&#45;&gt;Node5 -->
<g id="edge4" class="edge">
<title>Node4&#45;&gt;Node5</title>
<path fill="none" stroke="midnightblue" d="M113.5,-57.11C113.5,-48.15 113.5,-38.32 113.5,-30.58"/>
<polygon fill="midnightblue" stroke="midnightblue" points="110,-57.4 113.5,-67.4 117,-57.4 110,-57.4"/>
</g>
<!-- Node7 -->
<g id="node7" class="node">
<title>Node7</title>
<g id="a_node7"><a xlink:href="guwhiteboardgetter_8cpp.html" target="_top" xlink:title=" ">
<polygon fill="none" stroke="black" points="326,-6 326,-25 443,-25 443,-6 326,-6"/>
<text text-anchor="middle" x="384.5" y="-13" font-family="Helvetica,sans-Serif" font-size="10.00">guwhiteboardgetter.cpp</text>
</a>
</g>
</g>
<!-- Node6&#45;&gt;Node7 -->
<g id="edge6" class="edge">
<title>Node6&#45;&gt;Node7</title>
<path fill="none" stroke="midnightblue" d="M384.5,-62.54C384.5,-50.17 384.5,-34.62 384.5,-25.13"/>
<polygon fill="midnightblue" stroke="midnightblue" points="381,-62.73 384.5,-72.73 388,-62.73 381,-62.73"/>
</g>
<!-- Node10 -->
<g id="node10" class="node">
<title>Node10</title>
<g id="a_node10"><a xlink:href="_filtered_array_one_dim_ball_8hpp.html" target="_top" xlink:title=" ">
<polygon fill="none" stroke="black" points="495,-67.5 495,-97.5 632,-97.5 632,-67.5 495,-67.5"/>
<text text-anchor="start" x="503" y="-85.5" font-family="Helvetica,sans-Serif" font-size="10.00">typeClassDefs/FilteredArray</text>
<text text-anchor="middle" x="563.5" y="-74.5" font-family="Helvetica,sans-Serif" font-size="10.00">OneDimBall.hpp</text>
</a>
</g>
</g>
<!-- Node9&#45;&gt;Node10 -->
<g id="edge9" class="edge">
<title>Node9&#45;&gt;Node10</title>
<path fill="none" stroke="midnightblue" d="M563.5,-124.11C563.5,-115.15 563.5,-105.32 563.5,-97.58"/>
<polygon fill="midnightblue" stroke="midnightblue" points="560,-124.4 563.5,-134.4 567,-124.4 560,-124.4"/>
</g>
<!-- Node11 -->
<g id="node11" class="node">
<title>Node11</title>
<g id="a_node11"><a xlink:href="_filtered_array_one_dim_ball_8h.html" target="_top" xlink:title=" ">
<polygon fill="none" stroke="black" points="495,-0.5 495,-30.5 632,-30.5 632,-0.5 495,-0.5"/>
<text text-anchor="start" x="503" y="-18.5" font-family="Helvetica,sans-Serif" font-size="10.00">typeClassDefs/FilteredArray</text>
<text text-anchor="middle" x="563.5" y="-7.5" font-family="Helvetica,sans-Serif" font-size="10.00">OneDimBall.h</text>
</a>
</g>
</g>
<!-- Node10&#45;&gt;Node11 -->
<g id="edge10" class="edge">
<title>Node10&#45;&gt;Node11</title>
<path fill="none" stroke="midnightblue" d="M563.5,-57.11C563.5,-48.15 563.5,-38.32 563.5,-30.58"/>
<polygon fill="midnightblue" stroke="midnightblue" points="560,-57.4 563.5,-67.4 567,-57.4 560,-57.4"/>
</g>
<!-- Node12&#45;&gt;Node3 -->
<g id="edge12" class="edge">
<title>Node12&#45;&gt;Node3</title>
<path fill="none" stroke="midnightblue" d="M254.5,-191.25C254.5,-180.02 254.5,-167.38 254.5,-159.19"/>
<polygon fill="midnightblue" stroke="midnightblue" points="251,-191.4 254.5,-201.4 258,-191.4 251,-191.4"/>
</g>
<!-- Node13 -->
<g id="node13" class="node">
<title>Node13</title>
<g id="a_node13"><a xlink:href="_filtered_array_one_dim_objects_8h.html" target="_top" xlink:title=" ">
<polygon fill="none" stroke="black" points="0,-134.5 0,-164.5 137,-164.5 137,-134.5 0,-134.5"/>
<text text-anchor="start" x="8" y="-152.5" font-family="Helvetica,sans-Serif" font-size="10.00">typeClassDefs/FilteredArray</text>
<text text-anchor="middle" x="68.5" y="-141.5" font-family="Helvetica,sans-Serif" font-size="10.00">OneDimObjects.h</text>
</a>
</g>
</g>
<!-- Node12&#45;&gt;Node13 -->
<g id="edge13" class="edge">
<title>Node12&#45;&gt;Node13</title>
<path fill="none" stroke="midnightblue" d="M204.69,-198.09C174.66,-187.6 136.91,-174.41 108.78,-164.58"/>
<polygon fill="midnightblue" stroke="midnightblue" points="203.55,-201.4 214.14,-201.4 205.86,-194.79 203.55,-201.4"/>
</g>
<!-- Node13&#45;&gt;Node5 -->
<g id="edge14" class="edge">
<title>Node13&#45;&gt;Node5</title>
<path fill="none" stroke="midnightblue" d="M51.53,-125.79C41.19,-108.99 31.69,-85.86 41.5,-67 49.88,-50.88 66.03,-38.84 80.91,-30.56"/>
<polygon fill="midnightblue" stroke="midnightblue" points="48.79,-128 57.24,-134.4 54.63,-124.13 48.79,-128"/>
</g>
<!-- Node15 -->
<g id="node15" class="node">
<title>Node15</title>
<g id="a_node15"><a xlink:href="_filtered_one_dim_object_8h.html" target="_top" xlink:title=" ">
<polygon fill="none" stroke="black" points="344,-134.5 344,-164.5 477,-164.5 477,-134.5 344,-134.5"/>
<text text-anchor="start" x="352" y="-152.5" font-family="Helvetica,sans-Serif" font-size="10.00">typeClassDefs/FilteredOne</text>
<text text-anchor="middle" x="410.5" y="-141.5" font-family="Helvetica,sans-Serif" font-size="10.00">DimObject.h</text>
</a>
</g>
</g>
<!-- Node14&#45;&gt;Node15 -->
<g id="edge16" class="edge">
<title>Node14&#45;&gt;Node15</title>
<path fill="none" stroke="midnightblue" d="M409.88,-191.11C410.01,-182.15 410.16,-172.32 410.28,-164.58"/>
<polygon fill="midnightblue" stroke="midnightblue" points="406.37,-191.34 409.72,-201.4 413.37,-191.45 406.37,-191.34"/>
</g>
<!-- Node15&#45;&gt;Node5 -->
<g id="edge17" class="edge">
<title>Node15&#45;&gt;Node5</title>
<path fill="none" stroke="midnightblue" d="M431.94,-126.9C446.83,-109.27 461.54,-84.49 446.5,-67 429.51,-47.24 274.74,-30.52 182.29,-22.18"/>
<polygon fill="midnightblue" stroke="midnightblue" points="429.25,-124.66 425.19,-134.45 434.46,-129.33 429.25,-124.66"/>
</g>
<!-- Node15&#45;&gt;Node10 -->
<g id="edge18" class="edge">
<title>Node15&#45;&gt;Node10</title>
<path fill="none" stroke="midnightblue" d="M453.09,-130.41C477.52,-120.03 507.72,-107.2 530.37,-97.58"/>
<polygon fill="midnightblue" stroke="midnightblue" points="451.53,-127.26 443.7,-134.4 454.27,-133.71 451.53,-127.26"/>
</g>
</g>
</svg>
