<?xml version="1.0" encoding="UTF-8" standalone="no"?>
<!DOCTYPE svg PUBLIC "-//W3C//DTD SVG 1.1//EN"
 "http://www.w3.org/Graphics/SVG/1.1/DTD/svg11.dtd">
<!-- Generated by graphviz version 2.49.0 (20210830.1337)
 -->
<!-- Title: typeClassDefs/FilteredArrayOneDimSonar.hpp Pages: 1 -->
<svg width="414pt" height="274pt"
 viewBox="0.00 0.00 413.87 274.00" xmlns="http://www.w3.org/2000/svg" xmlns:xlink="http://www.w3.org/1999/xlink">
<g id="graph0" class="graph" transform="scale(1 1) rotate(0) translate(4 270)">
<title>typeClassDefs/FilteredArrayOneDimSonar.hpp</title>
<!-- Node1 -->
<g id="node1" class="node">
<title>Node1</title>
<g id="a_node1"><a xlink:title=" ">
<polygon fill="#bfbfbf" stroke="black" points="7.87,-235.5 7.87,-265.5 144.87,-265.5 144.87,-235.5 7.87,-235.5"/>
<text text-anchor="start" x="15.87" y="-253.5" font-family="Helvetica,sans-Serif" font-size="10.00">typeClassDefs/FilteredArray</text>
<text text-anchor="middle" x="76.37" y="-242.5" font-family="Helvetica,sans-Serif" font-size="10.00">OneDimSonar.hpp</text>
</a>
</g>
</g>
<!-- Node2 -->
<g id="node2" class="node">
<title>Node2</title>
<g id="a_node2"><a xlink:title=" ">
<polygon fill="none" stroke="#bfbfbf" points="24.87,-56.5 24.87,-75.5 69.87,-75.5 69.87,-56.5 24.87,-56.5"/>
<text text-anchor="middle" x="47.37" y="-63.5" font-family="Helvetica,sans-Serif" font-size="10.00">cstdlib</text>
</a>
</g>
</g>
<!-- Node1&#45;&gt;Node2 -->
<g id="edge1" class="edge">
<title>Node1&#45;&gt;Node2</title>
<path fill="none" stroke="midnightblue" d="M71.85,-235.49C68.76,-225.43 64.8,-211.5 62.37,-199 54.63,-159.14 50.44,-111.68 48.58,-85.92"/>
<polygon fill="midnightblue" stroke="midnightblue" points="52.06,-85.46 47.89,-75.72 45.07,-85.94 52.06,-85.46"/>
</g>
<!-- Node3 -->
<g id="node3" class="node">
<title>Node3</title>
<g id="a_node3"><a xlink:title=" ">
<polygon fill="none" stroke="#bfbfbf" points="88.37,-56.5 88.37,-75.5 140.37,-75.5 140.37,-56.5 88.37,-56.5"/>
<text text-anchor="middle" x="114.37" y="-63.5" font-family="Helvetica,sans-Serif" font-size="10.00">sstream</text>
</a>
</g>
</g>
<!-- Node1&#45;&gt;Node3 -->
<g id="edge2" class="edge">
<title>Node1&#45;&gt;Node3</title>
<path fill="none" stroke="midnightblue" d="M77.11,-235.2C78.69,-209.93 83.29,-155.92 95.37,-112 97.9,-102.8 101.88,-93 105.54,-84.9"/>
<polygon fill="midnightblue" stroke="midnightblue" points="108.77,-86.26 109.88,-75.72 102.44,-83.26 108.77,-86.26"/>
</g>
<!-- Node4 -->
<g id="node4" class="node">
<title>Node4</title>
<g id="a_node4"><a xlink:title=" ">
<polygon fill="none" stroke="#bfbfbf" points="185.87,-0.5 185.87,-19.5 238.87,-19.5 238.87,-0.5 185.87,-0.5"/>
<text text-anchor="middle" x="212.37" y="-7.5" font-family="Helvetica,sans-Serif" font-size="10.00">gu_util.h</text>
</a>
</g>
</g>
<!-- Node1&#45;&gt;Node4 -->
<g id="edge3" class="edge">
<title>Node1&#45;&gt;Node4</title>
<path fill="none" stroke="midnightblue" d="M64.09,-235.5C35.59,-201.26 -29.32,-112.05 15.37,-56 35.01,-31.36 124.08,-19.15 175.48,-14.05"/>
<polygon fill="midnightblue" stroke="midnightblue" points="175.9,-17.52 185.53,-13.09 175.24,-10.55 175.9,-17.52"/>
</g>
<!-- Node5 -->
<g id="node5" class="node">
<title>Node5</title>
<g id="a_node5"><a xlink:href="_filtered_one_dim_sonar_8h.html" target="_top" xlink:title=" ">
<polygon fill="none" stroke="black" points="104.87,-168.5 104.87,-198.5 237.87,-198.5 237.87,-168.5 104.87,-168.5"/>
<text text-anchor="start" x="112.87" y="-186.5" font-family="Helvetica,sans-Serif" font-size="10.00">typeClassDefs/FilteredOne</text>
<text text-anchor="middle" x="171.37" y="-175.5" font-family="Helvetica,sans-Serif" font-size="10.00">DimSonar.h</text>
</a>
</g>
</g>
<!-- Node1&#45;&gt;Node5 -->
<g id="edge4" class="edge">
<title>Node1&#45;&gt;Node5</title>
<path fill="none" stroke="midnightblue" d="M96.98,-235.4C110.3,-226.28 127.83,-214.29 142.53,-204.24"/>
<polygon fill="midnightblue" stroke="midnightblue" points="144.52,-207.11 150.8,-198.58 140.57,-201.33 144.52,-207.11"/>
</g>
<!-- Node8 -->
<g id="node8" class="node">
<title>Node8</title>
<g id="a_node8"><a xlink:href="wb__arrayoffilteredsonarobjects_8h.html" target="_top" xlink:title="gusimplewhiteboard">
<polygon fill="none" stroke="black" points="250.87,-112.5 250.87,-131.5 405.87,-131.5 405.87,-112.5 250.87,-112.5"/>
<text text-anchor="middle" x="328.37" y="-119.5" font-family="Helvetica,sans-Serif" font-size="10.00">wb_arrayoffilteredsonarobjects.h</text>
</a>
</g>
</g>
<!-- Node1&#45;&gt;Node8 -->
<g id="edge11" class="edge">
<title>Node1&#45;&gt;Node8</title>
<path fill="none" stroke="midnightblue" d="M145.04,-236.68C177.2,-228.82 215.21,-216.76 246.37,-199 273.8,-183.37 299.47,-156.92 314.55,-139.71"/>
<polygon fill="midnightblue" stroke="midnightblue" points="317.59,-141.54 321.43,-131.66 312.27,-136.99 317.59,-141.54"/>
</g>
<!-- Node6 -->
<g id="node6" class="node">
<title>Node6</title>
<g id="a_node6"><a xlink:href="_filtered_one_dim_sonar_8hpp.html" target="_top" xlink:title=" ">
<polygon fill="none" stroke="black" points="104.37,-112.5 104.37,-131.5 232.37,-131.5 232.37,-112.5 104.37,-112.5"/>
<text text-anchor="middle" x="168.37" y="-119.5" font-family="Helvetica,sans-Serif" font-size="10.00">FilteredOneDimSonar.hpp</text>
</a>
</g>
</g>
<!-- Node5&#45;&gt;Node6 -->
<g id="edge5" class="edge">
<title>Node5&#45;&gt;Node6</title>
<path fill="none" stroke="midnightblue" d="M170.66,-168.4C170.26,-160.47 169.76,-150.46 169.32,-141.86"/>
<polygon fill="midnightblue" stroke="midnightblue" points="172.81,-141.47 168.81,-131.66 165.82,-141.82 172.81,-141.47"/>
</g>
<!-- Node6&#45;&gt;Node2 -->
<g id="edge6" class="edge">
<title>Node6&#45;&gt;Node2</title>
<path fill="none" stroke="midnightblue" d="M149.2,-112.44C129.46,-103.64 98.49,-89.81 75.88,-79.72"/>
<polygon fill="midnightblue" stroke="midnightblue" points="77.01,-76.4 66.45,-75.52 74.16,-82.79 77.01,-76.4"/>
</g>
<!-- Node6&#45;&gt;Node3 -->
<g id="edge7" class="edge">
<title>Node6&#45;&gt;Node3</title>
<path fill="none" stroke="midnightblue" d="M159.45,-112.08C151.59,-104.22 139.94,-92.57 130.45,-83.08"/>
<polygon fill="midnightblue" stroke="midnightblue" points="132.67,-80.35 123.12,-75.75 127.72,-85.3 132.67,-80.35"/>
</g>
<!-- Node6&#45;&gt;Node4 -->
<g id="edge8" class="edge">
<title>Node6&#45;&gt;Node4</title>
<path fill="none" stroke="midnightblue" d="M170.24,-112.38C173.13,-99.73 179.21,-75.53 187.37,-56 191.33,-46.52 196.78,-36.47 201.58,-28.29"/>
<polygon fill="midnightblue" stroke="midnightblue" points="204.61,-30.04 206.79,-19.67 198.62,-26.42 204.61,-30.04"/>
</g>
<!-- Node7 -->
<g id="node7" class="node">
<title>Node7</title>
<g id="a_node7"><a xlink:href="wb__filteredsonarobject_8h.html" target="_top" xlink:title="gusimplewhiteboard">
<polygon fill="none" stroke="black" points="196.87,-56.5 196.87,-75.5 317.87,-75.5 317.87,-56.5 196.87,-56.5"/>
<text text-anchor="middle" x="257.37" y="-63.5" font-family="Helvetica,sans-Serif" font-size="10.00">wb_filteredsonarobject.h</text>
</a>
</g>
</g>
<!-- Node6&#45;&gt;Node7 -->
<g id="edge9" class="edge">
<title>Node6&#45;&gt;Node7</title>
<path fill="none" stroke="midnightblue" d="M182.67,-112.32C196.55,-103.9 217.86,-90.97 234.17,-81.07"/>
<polygon fill="midnightblue" stroke="midnightblue" points="236.37,-83.83 243.11,-75.65 232.74,-77.85 236.37,-83.83"/>
</g>
<!-- Node7&#45;&gt;Node4 -->
<g id="edge10" class="edge">
<title>Node7&#45;&gt;Node4</title>
<path fill="none" stroke="midnightblue" d="M249.94,-56.08C243.52,-48.38 234.07,-37.03 226.25,-27.65"/>
<polygon fill="midnightblue" stroke="midnightblue" points="228.75,-25.19 219.66,-19.75 223.38,-29.67 228.75,-25.19"/>
</g>
<!-- Node8&#45;&gt;Node4 -->
<g id="edge12" class="edge">
<title>Node8&#45;&gt;Node4</title>
<path fill="none" stroke="midnightblue" d="M330.93,-112.06C334.21,-98.57 338.19,-72.81 326.37,-56 308.87,-31.11 275.34,-19.98 249.16,-15.01"/>
<polygon fill="midnightblue" stroke="midnightblue" points="249.62,-11.54 239.18,-13.34 248.46,-18.44 249.62,-11.54"/>
</g>
<!-- Node8&#45;&gt;Node7 -->
<g id="edge13" class="edge">
<title>Node8&#45;&gt;Node7</title>
<path fill="none" stroke="midnightblue" d="M316.96,-112.32C306.26,-104.18 290.03,-91.84 277.21,-82.09"/>
<polygon fill="midnightblue" stroke="midnightblue" points="279.06,-79.1 268.99,-75.83 274.83,-84.67 279.06,-79.1"/>
</g>
</g>
</svg>
