<?xml version="1.0" encoding="UTF-8" standalone="no"?>
<!DOCTYPE svg PUBLIC "-//W3C//DTD SVG 1.1//EN"
 "http://www.w3.org/Graphics/SVG/1.1/DTD/svg11.dtd">
<!-- Generated by graphviz version 2.49.0 (20210830.1337)
 -->
<!-- Title: typeClassDefs/FilteredOneDimObject.h Pages: 1 -->
<svg width="356pt" height="330pt"
 viewBox="0.00 0.00 356.00 330.00" xmlns="http://www.w3.org/2000/svg" xmlns:xlink="http://www.w3.org/1999/xlink">
<g id="graph0" class="graph" transform="scale(1 1) rotate(0) translate(4 326)">
<title>typeClassDefs/FilteredOneDimObject.h</title>
<!-- Node1 -->
<g id="node1" class="node">
<title>Node1</title>
<g id="a_node1"><a xlink:title=" ">
<polygon fill="#bfbfbf" stroke="black" points="56,-291.5 56,-321.5 189,-321.5 189,-291.5 56,-291.5"/>
<text text-anchor="start" x="64" y="-309.5" font-family="Helvetica,sans-Serif" font-size="10.00">typeClassDefs/FilteredOne</text>
<text text-anchor="middle" x="122.5" y="-298.5" font-family="Helvetica,sans-Serif" font-size="10.00">DimObject.h</text>
</a>
</g>
</g>
<!-- Node2 -->
<g id="node2" class="node">
<title>Node2</title>
<g id="a_node2"><a xlink:href="_filtered_one_dim_object_8hpp.html" target="_top" xlink:title=" ">
<polygon fill="none" stroke="black" points="57,-235.5 57,-254.5 188,-254.5 188,-235.5 57,-235.5"/>
<text text-anchor="middle" x="122.5" y="-242.5" font-family="Helvetica,sans-Serif" font-size="10.00">FilteredOneDimObject.hpp</text>
</a>
</g>
</g>
<!-- Node1&#45;&gt;Node2 -->
<g id="edge1" class="edge">
<title>Node1&#45;&gt;Node2</title>
<path fill="none" stroke="midnightblue" d="M122.5,-291.4C122.5,-283.47 122.5,-273.46 122.5,-264.86"/>
<polygon fill="midnightblue" stroke="midnightblue" points="126,-264.66 122.5,-254.66 119,-264.66 126,-264.66"/>
</g>
<!-- Node3 -->
<g id="node3" class="node">
<title>Node3</title>
<g id="a_node3"><a xlink:title=" ">
<polygon fill="none" stroke="#bfbfbf" points="0,-62 0,-81 45,-81 45,-62 0,-62"/>
<text text-anchor="middle" x="22.5" y="-69" font-family="Helvetica,sans-Serif" font-size="10.00">cstdlib</text>
</a>
</g>
</g>
<!-- Node2&#45;&gt;Node3 -->
<g id="edge2" class="edge">
<title>Node2&#45;&gt;Node3</title>
<path fill="none" stroke="midnightblue" d="M116.3,-235.18C110.08,-226.2 100.31,-211.83 92.5,-199 69.33,-160.93 44.63,-114.82 31.67,-90.14"/>
<polygon fill="midnightblue" stroke="midnightblue" points="34.75,-88.47 27.01,-81.23 28.54,-91.71 34.75,-88.47"/>
</g>
<!-- Node4 -->
<g id="node4" class="node">
<title>Node4</title>
<g id="a_node4"><a xlink:title=" ">
<polygon fill="none" stroke="#bfbfbf" points="63.5,-62 63.5,-81 115.5,-81 115.5,-62 63.5,-62"/>
<text text-anchor="middle" x="89.5" y="-69" font-family="Helvetica,sans-Serif" font-size="10.00">sstream</text>
</a>
</g>
</g>
<!-- Node2&#45;&gt;Node4 -->
<g id="edge3" class="edge">
<title>Node2&#45;&gt;Node4</title>
<path fill="none" stroke="midnightblue" d="M117.11,-235.42C111.88,-226.63 104.22,-212.41 100.5,-199 90.22,-161.96 88.84,-116.68 89.01,-91.58"/>
<polygon fill="midnightblue" stroke="midnightblue" points="92.51,-91.34 89.17,-81.28 85.51,-91.23 92.51,-91.34"/>
</g>
<!-- Node5 -->
<g id="node5" class="node">
<title>Node5</title>
<g id="a_node5"><a xlink:title=" ">
<polygon fill="none" stroke="#bfbfbf" points="295,-0.5 295,-19.5 348,-19.5 348,-0.5 295,-0.5"/>
<text text-anchor="middle" x="321.5" y="-7.5" font-family="Helvetica,sans-Serif" font-size="10.00">gu_util.h</text>
</a>
</g>
</g>
<!-- Node2&#45;&gt;Node5 -->
<g id="edge4" class="edge">
<title>Node2&#45;&gt;Node5</title>
<path fill="none" stroke="midnightblue" d="M153.87,-235.37C176.61,-228.11 207.3,-216.14 230.5,-199 282.54,-160.55 301.53,-147.86 323.5,-87 330.21,-68.42 328.39,-45.59 325.72,-29.83"/>
<polygon fill="midnightblue" stroke="midnightblue" points="329.1,-28.89 323.74,-19.76 322.24,-30.25 329.1,-28.89"/>
</g>
<!-- Node6 -->
<g id="node6" class="node">
<title>Node6</title>
<g id="a_node6"><a xlink:href="_filtered_vision_object_8h.html" target="_top" xlink:title=" ">
<polygon fill="none" stroke="black" points="109.5,-179.5 109.5,-198.5 221.5,-198.5 221.5,-179.5 109.5,-179.5"/>
<text text-anchor="middle" x="165.5" y="-186.5" font-family="Helvetica,sans-Serif" font-size="10.00">FilteredVisionObject.h</text>
</a>
</g>
</g>
<!-- Node2&#45;&gt;Node6 -->
<g id="edge5" class="edge">
<title>Node2&#45;&gt;Node6</title>
<path fill="none" stroke="midnightblue" d="M129.6,-235.08C135.74,-227.38 144.77,-216.03 152.24,-206.65"/>
<polygon fill="midnightblue" stroke="midnightblue" points="155.04,-208.75 158.53,-198.75 149.56,-204.39 155.04,-208.75"/>
</g>
<!-- Node7 -->
<g id="node7" class="node">
<title>Node7</title>
<g id="a_node7"><a xlink:href="_filtered_vision_object_8hpp.html" target="_top" xlink:title=" ">
<polygon fill="none" stroke="black" points="106.5,-123.5 106.5,-142.5 228.5,-142.5 228.5,-123.5 106.5,-123.5"/>
<text text-anchor="middle" x="167.5" y="-130.5" font-family="Helvetica,sans-Serif" font-size="10.00">FilteredVisionObject.hpp</text>
</a>
</g>
</g>
<!-- Node6&#45;&gt;Node7 -->
<g id="edge6" class="edge">
<title>Node6&#45;&gt;Node7</title>
<path fill="none" stroke="midnightblue" d="M165.83,-179.08C166.09,-172.01 166.47,-161.86 166.8,-152.99"/>
<polygon fill="midnightblue" stroke="midnightblue" points="170.3,-152.87 167.18,-142.75 163.31,-152.61 170.3,-152.87"/>
</g>
<!-- Node7&#45;&gt;Node3 -->
<g id="edge7" class="edge">
<title>Node7&#45;&gt;Node3</title>
<path fill="none" stroke="midnightblue" d="M144.86,-123.34C121.96,-114.5 85.59,-100.23 54.5,-87 53.13,-86.42 51.73,-85.82 50.33,-85.2"/>
<polygon fill="midnightblue" stroke="midnightblue" points="51.61,-81.94 41.05,-81.08 48.77,-88.34 51.61,-81.94"/>
</g>
<!-- Node7&#45;&gt;Node4 -->
<g id="edge9" class="edge">
<title>Node7&#45;&gt;Node4</title>
<path fill="none" stroke="midnightblue" d="M156.32,-123.48C143.93,-114.02 123.71,-98.6 108.75,-87.19"/>
<polygon fill="midnightblue" stroke="midnightblue" points="110.73,-84.29 100.65,-81.01 106.48,-89.86 110.73,-84.29"/>
</g>
<!-- Node7&#45;&gt;Node5 -->
<g id="edge10" class="edge">
<title>Node7&#45;&gt;Node5</title>
<path fill="none" stroke="midnightblue" d="M228.71,-124.82C254.75,-118.75 283.45,-107.57 302.5,-87 316.77,-71.59 320.74,-47.13 321.64,-30.14"/>
<polygon fill="midnightblue" stroke="midnightblue" points="325.15,-29.84 321.86,-19.77 318.15,-29.69 325.15,-29.84"/>
</g>
<!-- Node8 -->
<g id="node8" class="node">
<title>Node8</title>
<g id="a_node8"><a xlink:title=" ">
<polygon fill="none" stroke="#bfbfbf" points="133.5,-62 133.5,-81 181.5,-81 181.5,-62 133.5,-62"/>
<text text-anchor="middle" x="157.5" y="-69" font-family="Helvetica,sans-Serif" font-size="10.00">string.h</text>
</a>
</g>
</g>
<!-- Node7&#45;&gt;Node8 -->
<g id="edge8" class="edge">
<title>Node7&#45;&gt;Node8</title>
<path fill="none" stroke="midnightblue" d="M166.07,-123.48C164.66,-115.08 162.45,-101.98 160.64,-91.16"/>
<polygon fill="midnightblue" stroke="midnightblue" points="164.04,-90.29 158.93,-81.01 157.14,-91.45 164.04,-90.29"/>
</g>
<!-- Node9 -->
<g id="node9" class="node">
<title>Node9</title>
<g id="a_node9"><a xlink:href="wb__filtered__vision__object_8h.html" target="_top" xlink:title=" ">
<polygon fill="none" stroke="black" points="199.5,-56.5 199.5,-86.5 293.5,-86.5 293.5,-56.5 199.5,-56.5"/>
<text text-anchor="start" x="207.5" y="-74.5" font-family="Helvetica,sans-Serif" font-size="10.00">wb_filtered_vision</text>
<text text-anchor="middle" x="246.5" y="-63.5" font-family="Helvetica,sans-Serif" font-size="10.00">_object.h</text>
</a>
</g>
</g>
<!-- Node7&#45;&gt;Node9 -->
<g id="edge11" class="edge">
<title>Node7&#45;&gt;Node9</title>
<path fill="none" stroke="midnightblue" d="M178.82,-123.48C189.42,-115.49 205.67,-103.25 219.59,-92.77"/>
<polygon fill="midnightblue" stroke="midnightblue" points="222,-95.33 227.88,-86.52 217.79,-89.74 222,-95.33"/>
</g>
<!-- Node9&#45;&gt;Node5 -->
<g id="edge12" class="edge">
<title>Node9&#45;&gt;Node5</title>
<path fill="none" stroke="midnightblue" d="M264.27,-56.4C275.85,-47.22 290.92,-35.26 302.7,-25.92"/>
<polygon fill="midnightblue" stroke="midnightblue" points="304.93,-28.61 310.59,-19.66 300.58,-23.13 304.93,-28.61"/>
</g>
<!-- Node10 -->
<g id="node10" class="node">
<title>Node10</title>
<g id="a_node10"><a xlink:title=" ">
<polygon fill="none" stroke="#bfbfbf" points="222.5,-0.5 222.5,-19.5 270.5,-19.5 270.5,-0.5 222.5,-0.5"/>
<text text-anchor="middle" x="246.5" y="-7.5" font-family="Helvetica,sans-Serif" font-size="10.00">stdint.h</text>
</a>
</g>
</g>
<!-- Node9&#45;&gt;Node10 -->
<g id="edge13" class="edge">
<title>Node9&#45;&gt;Node10</title>
<path fill="none" stroke="midnightblue" d="M246.5,-56.4C246.5,-48.47 246.5,-38.46 246.5,-29.86"/>
<polygon fill="midnightblue" stroke="midnightblue" points="250,-29.66 246.5,-19.66 243,-29.66 250,-29.66"/>
</g>
</g>
</svg>
