<?xml version="1.0" encoding="UTF-8" standalone="no"?>
<!DOCTYPE svg PUBLIC "-//W3C//DTD SVG 1.1//EN"
 "http://www.w3.org/Graphics/SVG/1.1/DTD/svg11.dtd">
<!-- Generated by graphviz version 2.49.0 (20210830.1337)
 -->
<!-- Title: typeClassDefs/FilteredVisionObject.h Pages: 1 -->
<svg width="340pt" height="218pt"
 viewBox="0.00 0.00 339.50 218.00" xmlns="http://www.w3.org/2000/svg" xmlns:xlink="http://www.w3.org/1999/xlink">
<g id="graph0" class="graph" transform="scale(1 1) rotate(0) translate(4 214)">
<title>typeClassDefs/FilteredVisionObject.h</title>
<!-- Node1 -->
<g id="node1" class="node">
<title>Node1</title>
<g id="a_node1"><a xlink:title=" ">
<polygon fill="#bfbfbf" stroke="black" points="84.5,-179.5 84.5,-209.5 226.5,-209.5 226.5,-179.5 84.5,-179.5"/>
<text text-anchor="start" x="92.5" y="-197.5" font-family="Helvetica,sans-Serif" font-size="10.00">typeClassDefs/FilteredVision</text>
<text text-anchor="middle" x="155.5" y="-186.5" font-family="Helvetica,sans-Serif" font-size="10.00">Object.h</text>
</a>
</g>
</g>
<!-- Node2 -->
<g id="node2" class="node">
<title>Node2</title>
<g id="a_node2"><a xlink:href="_filtered_vision_object_8hpp.html" target="_top" xlink:title=" ">
<polygon fill="none" stroke="black" points="94.5,-123.5 94.5,-142.5 216.5,-142.5 216.5,-123.5 94.5,-123.5"/>
<text text-anchor="middle" x="155.5" y="-130.5" font-family="Helvetica,sans-Serif" font-size="10.00">FilteredVisionObject.hpp</text>
</a>
</g>
</g>
<!-- Node1&#45;&gt;Node2 -->
<g id="edge1" class="edge">
<title>Node1&#45;&gt;Node2</title>
<path fill="none" stroke="midnightblue" d="M155.5,-179.4C155.5,-171.47 155.5,-161.46 155.5,-152.86"/>
<polygon fill="midnightblue" stroke="midnightblue" points="159,-152.66 155.5,-142.66 152,-152.66 159,-152.66"/>
</g>
<!-- Node3 -->
<g id="node3" class="node">
<title>Node3</title>
<g id="a_node3"><a xlink:title=" ">
<polygon fill="none" stroke="#bfbfbf" points="0,-62 0,-81 45,-81 45,-62 0,-62"/>
<text text-anchor="middle" x="22.5" y="-69" font-family="Helvetica,sans-Serif" font-size="10.00">cstdlib</text>
</a>
</g>
</g>
<!-- Node2&#45;&gt;Node3 -->
<g id="edge2" class="edge">
<title>Node2&#45;&gt;Node3</title>
<path fill="none" stroke="midnightblue" d="M136.12,-123.41C115.78,-114.38 82.87,-99.75 54.5,-87 53.31,-86.47 52.1,-85.92 50.87,-85.37"/>
<polygon fill="midnightblue" stroke="midnightblue" points="52,-82.03 41.44,-81.11 49.11,-88.41 52,-82.03"/>
</g>
<!-- Node4 -->
<g id="node4" class="node">
<title>Node4</title>
<g id="a_node4"><a xlink:title=" ">
<polygon fill="none" stroke="#bfbfbf" points="63.5,-62 63.5,-81 111.5,-81 111.5,-62 63.5,-62"/>
<text text-anchor="middle" x="87.5" y="-69" font-family="Helvetica,sans-Serif" font-size="10.00">string.h</text>
</a>
</g>
</g>
<!-- Node2&#45;&gt;Node4 -->
<g id="edge3" class="edge">
<title>Node2&#45;&gt;Node4</title>
<path fill="none" stroke="midnightblue" d="M145.76,-123.48C135.15,-114.2 117.98,-99.17 105.02,-87.83"/>
<polygon fill="midnightblue" stroke="midnightblue" points="107.06,-84.96 97.22,-81.01 102.45,-90.23 107.06,-84.96"/>
</g>
<!-- Node5 -->
<g id="node5" class="node">
<title>Node5</title>
<g id="a_node5"><a xlink:title=" ">
<polygon fill="none" stroke="#bfbfbf" points="129.5,-62 129.5,-81 181.5,-81 181.5,-62 129.5,-62"/>
<text text-anchor="middle" x="155.5" y="-69" font-family="Helvetica,sans-Serif" font-size="10.00">sstream</text>
</a>
</g>
</g>
<!-- Node2&#45;&gt;Node5 -->
<g id="edge4" class="edge">
<title>Node2&#45;&gt;Node5</title>
<path fill="none" stroke="midnightblue" d="M155.5,-123.48C155.5,-115.08 155.5,-101.98 155.5,-91.16"/>
<polygon fill="midnightblue" stroke="midnightblue" points="159,-91.01 155.5,-81.01 152,-91.01 159,-91.01"/>
</g>
<!-- Node6 -->
<g id="node6" class="node">
<title>Node6</title>
<g id="a_node6"><a xlink:title=" ">
<polygon fill="none" stroke="#bfbfbf" points="186,-0.5 186,-19.5 239,-19.5 239,-0.5 186,-0.5"/>
<text text-anchor="middle" x="212.5" y="-7.5" font-family="Helvetica,sans-Serif" font-size="10.00">gu_util.h</text>
</a>
</g>
</g>
<!-- Node2&#45;&gt;Node6 -->
<g id="edge5" class="edge">
<title>Node2&#45;&gt;Node6</title>
<path fill="none" stroke="midnightblue" d="M163.84,-123.39C171.73,-114.81 183.4,-100.93 190.5,-87 199.84,-68.68 205.78,-45.81 209.1,-29.96"/>
<polygon fill="midnightblue" stroke="midnightblue" points="212.6,-30.32 211.07,-19.83 205.72,-28.98 212.6,-30.32"/>
</g>
<!-- Node7 -->
<g id="node7" class="node">
<title>Node7</title>
<g id="a_node7"><a xlink:href="wb__filtered__vision__object_8h.html" target="_top" xlink:title=" ">
<polygon fill="none" stroke="black" points="237.5,-56.5 237.5,-86.5 331.5,-86.5 331.5,-56.5 237.5,-56.5"/>
<text text-anchor="start" x="245.5" y="-74.5" font-family="Helvetica,sans-Serif" font-size="10.00">wb_filtered_vision</text>
<text text-anchor="middle" x="284.5" y="-63.5" font-family="Helvetica,sans-Serif" font-size="10.00">_object.h</text>
</a>
</g>
</g>
<!-- Node2&#45;&gt;Node7 -->
<g id="edge6" class="edge">
<title>Node2&#45;&gt;Node7</title>
<path fill="none" stroke="midnightblue" d="M173.98,-123.48C192.43,-114.96 221.37,-101.62 245,-90.72"/>
<polygon fill="midnightblue" stroke="midnightblue" points="246.48,-93.89 254.1,-86.52 243.55,-87.53 246.48,-93.89"/>
</g>
<!-- Node7&#45;&gt;Node6 -->
<g id="edge7" class="edge">
<title>Node7&#45;&gt;Node6</title>
<path fill="none" stroke="midnightblue" d="M267.44,-56.4C256.44,-47.31 242.13,-35.49 230.88,-26.19"/>
<polygon fill="midnightblue" stroke="midnightblue" points="232.91,-23.33 222.98,-19.66 228.46,-28.73 232.91,-23.33"/>
</g>
<!-- Node8 -->
<g id="node8" class="node">
<title>Node8</title>
<g id="a_node8"><a xlink:title=" ">
<polygon fill="none" stroke="#bfbfbf" points="260.5,-0.5 260.5,-19.5 308.5,-19.5 308.5,-0.5 260.5,-0.5"/>
<text text-anchor="middle" x="284.5" y="-7.5" font-family="Helvetica,sans-Serif" font-size="10.00">stdint.h</text>
</a>
</g>
</g>
<!-- Node7&#45;&gt;Node8 -->
<g id="edge8" class="edge">
<title>Node7&#45;&gt;Node8</title>
<path fill="none" stroke="midnightblue" d="M284.5,-56.4C284.5,-48.47 284.5,-38.46 284.5,-29.86"/>
<polygon fill="midnightblue" stroke="midnightblue" points="288,-29.66 284.5,-19.66 281,-29.66 288,-29.66"/>
</g>
</g>
</svg>
