<?xml version="1.0" encoding="UTF-8" standalone="no"?>
<!DOCTYPE svg PUBLIC "-//W3C//DTD SVG 1.1//EN"
 "http://www.w3.org/Graphics/SVG/1.1/DTD/svg11.dtd">
<!-- Generated by graphviz version 2.49.0 (20210830.1337)
 -->
<!-- Title: typeClassDefs/FilteredArrayOneDimBall.h Pages: 1 -->
<svg width="807pt" height="442pt"
 viewBox="0.00 0.00 807.00 442.00" xmlns="http://www.w3.org/2000/svg" xmlns:xlink="http://www.w3.org/1999/xlink">
<g id="graph0" class="graph" transform="scale(1 1) rotate(0) translate(4 438)">
<title>typeClassDefs/FilteredArrayOneDimBall.h</title>
<!-- Node1 -->
<g id="node1" class="node">
<title>Node1</title>
<g id="a_node1"><a xlink:title=" ">
<polygon fill="#bfbfbf" stroke="black" points="598.5,-403.5 598.5,-433.5 735.5,-433.5 735.5,-403.5 598.5,-403.5"/>
<text text-anchor="start" x="606.5" y="-421.5" font-family="Helvetica,sans-Serif" font-size="10.00">typeClassDefs/FilteredArray</text>
<text text-anchor="middle" x="667" y="-410.5" font-family="Helvetica,sans-Serif" font-size="10.00">OneDimBall.h</text>
</a>
</g>
</g>
<!-- Node2 -->
<g id="node2" class="node">
<title>Node2</title>
<g id="a_node2"><a xlink:href="_filtered_array_one_dim_ball_8hpp.html" target="_top" xlink:title=" ">
<polygon fill="none" stroke="black" points="596.5,-347.5 596.5,-366.5 737.5,-366.5 737.5,-347.5 596.5,-347.5"/>
<text text-anchor="middle" x="667" y="-354.5" font-family="Helvetica,sans-Serif" font-size="10.00">FilteredArrayOneDimBall.hpp</text>
</a>
</g>
</g>
<!-- Node1&#45;&gt;Node2 -->
<g id="edge1" class="edge">
<title>Node1&#45;&gt;Node2</title>
<path fill="none" stroke="midnightblue" d="M667,-403.4C667,-395.47 667,-385.46 667,-376.86"/>
<polygon fill="midnightblue" stroke="midnightblue" points="670.5,-376.66 667,-366.66 663.5,-376.66 670.5,-376.66"/>
</g>
<!-- Node3 -->
<g id="node3" class="node">
<title>Node3</title>
<g id="a_node3"><a xlink:title=" ">
<polygon fill="none" stroke="#bfbfbf" points="640.5,-62 640.5,-81 685.5,-81 685.5,-62 640.5,-62"/>
<text text-anchor="middle" x="663" y="-69" font-family="Helvetica,sans-Serif" font-size="10.00">cstdlib</text>
</a>
</g>
</g>
<!-- Node2&#45;&gt;Node3 -->
<g id="edge2" class="edge">
<title>Node2&#45;&gt;Node3</title>
<path fill="none" stroke="midnightblue" d="M689.55,-347.48C705.32,-340.27 725.39,-328.32 736,-311 753.7,-282.11 749.6,-268.02 742,-235 728.91,-178.15 693.15,-118.14 674.56,-89.56"/>
<polygon fill="midnightblue" stroke="midnightblue" points="677.41,-87.53 668.97,-81.13 671.58,-91.4 677.41,-87.53"/>
</g>
<!-- Node4 -->
<g id="node4" class="node">
<title>Node4</title>
<g id="a_node4"><a xlink:title=" ">
<polygon fill="none" stroke="#bfbfbf" points="527,-62 527,-81 579,-81 579,-62 527,-62"/>
<text text-anchor="middle" x="553" y="-69" font-family="Helvetica,sans-Serif" font-size="10.00">sstream</text>
</a>
</g>
</g>
<!-- Node2&#45;&gt;Node4 -->
<g id="edge3" class="edge">
<title>Node2&#45;&gt;Node4</title>
<path fill="none" stroke="midnightblue" d="M645.18,-347.37C629.57,-340.05 609.37,-328 598,-311 550.99,-240.75 550.02,-134.14 551.81,-91.3"/>
<polygon fill="midnightblue" stroke="midnightblue" points="555.31,-91.37 552.33,-81.2 548.32,-91 555.31,-91.37"/>
</g>
<!-- Node5 -->
<g id="node5" class="node">
<title>Node5</title>
<g id="a_node5"><a xlink:title=" ">
<polygon fill="none" stroke="#bfbfbf" points="340.5,-0.5 340.5,-19.5 393.5,-19.5 393.5,-0.5 340.5,-0.5"/>
<text text-anchor="middle" x="367" y="-7.5" font-family="Helvetica,sans-Serif" font-size="10.00">gu_util.h</text>
</a>
</g>
</g>
<!-- Node2&#45;&gt;Node5 -->
<g id="edge4" class="edge">
<title>Node2&#45;&gt;Node5</title>
<path fill="none" stroke="midnightblue" d="M693.39,-347.47C731.92,-333.16 799,-300.44 799,-246 799,-246 799,-246 799,-132 799,-82.31 762.01,-77.06 717,-56 662.02,-30.27 482.41,-17.41 404.08,-12.91"/>
<polygon fill="midnightblue" stroke="midnightblue" points="403.91,-9.4 393.73,-12.33 403.52,-16.39 403.91,-9.4"/>
</g>
<!-- Node6 -->
<g id="node6" class="node">
<title>Node6</title>
<g id="a_node6"><a xlink:href="_filtered_one_dim_object_8h.html" target="_top" xlink:title=" ">
<polygon fill="none" stroke="black" points="607,-291.5 607,-310.5 727,-310.5 727,-291.5 607,-291.5"/>
<text text-anchor="middle" x="667" y="-298.5" font-family="Helvetica,sans-Serif" font-size="10.00">FilteredOneDimObject.h</text>
</a>
</g>
</g>
<!-- Node2&#45;&gt;Node6 -->
<g id="edge5" class="edge">
<title>Node2&#45;&gt;Node6</title>
<path fill="none" stroke="midnightblue" d="M667,-347.08C667,-340.01 667,-329.86 667,-320.99"/>
<polygon fill="midnightblue" stroke="midnightblue" points="670.5,-320.75 667,-310.75 663.5,-320.75 670.5,-320.75"/>
</g>
<!-- Node13 -->
<g id="node13" class="node">
<title>Node13</title>
<g id="a_node13"><a xlink:href="_filtered_array_ball_sightings_8h.html" target="_top" xlink:title=" ">
<polygon fill="none" stroke="black" points="386,-291.5 386,-310.5 522,-310.5 522,-291.5 386,-291.5"/>
<text text-anchor="middle" x="454" y="-298.5" font-family="Helvetica,sans-Serif" font-size="10.00">FilteredArrayBallSightings.h</text>
</a>
</g>
</g>
<!-- Node2&#45;&gt;Node13 -->
<g id="edge19" class="edge">
<title>Node2&#45;&gt;Node13</title>
<path fill="none" stroke="midnightblue" d="M633.25,-347.44C596.48,-338.12 537.55,-323.18 497.38,-313"/>
<polygon fill="midnightblue" stroke="midnightblue" points="498.15,-309.58 487.59,-310.52 496.43,-316.37 498.15,-309.58"/>
</g>
<!-- Node7 -->
<g id="node7" class="node">
<title>Node7</title>
<g id="a_node7"><a xlink:href="_filtered_one_dim_object_8hpp.html" target="_top" xlink:title=" ">
<polygon fill="none" stroke="black" points="601.5,-235.5 601.5,-254.5 732.5,-254.5 732.5,-235.5 601.5,-235.5"/>
<text text-anchor="middle" x="667" y="-242.5" font-family="Helvetica,sans-Serif" font-size="10.00">FilteredOneDimObject.hpp</text>
</a>
</g>
</g>
<!-- Node6&#45;&gt;Node7 -->
<g id="edge6" class="edge">
<title>Node6&#45;&gt;Node7</title>
<path fill="none" stroke="midnightblue" d="M667,-291.08C667,-284.01 667,-273.86 667,-264.99"/>
<polygon fill="midnightblue" stroke="midnightblue" points="670.5,-264.75 667,-254.75 663.5,-264.75 670.5,-264.75"/>
</g>
<!-- Node7&#45;&gt;Node3 -->
<g id="edge7" class="edge">
<title>Node7&#45;&gt;Node3</title>
<path fill="none" stroke="midnightblue" d="M666.8,-235.26C666.18,-208.65 664.3,-128.21 663.44,-91.34"/>
<polygon fill="midnightblue" stroke="midnightblue" points="666.93,-90.94 663.2,-81.02 659.93,-91.1 666.93,-90.94"/>
</g>
<!-- Node7&#45;&gt;Node4 -->
<g id="edge8" class="edge">
<title>Node7&#45;&gt;Node4</title>
<path fill="none" stroke="midnightblue" d="M663.67,-235.24C655.56,-214.51 633.35,-161.34 605,-123 595.43,-110.07 582.46,-97.46 571.86,-88.07"/>
<polygon fill="midnightblue" stroke="midnightblue" points="573.84,-85.17 563.98,-81.3 569.28,-90.47 573.84,-85.17"/>
</g>
<!-- Node7&#45;&gt;Node5 -->
<g id="edge9" class="edge">
<title>Node7&#45;&gt;Node5</title>
<path fill="none" stroke="midnightblue" d="M672.51,-235.19C690.19,-205.73 741.63,-109.47 695,-56 657.56,-13.08 481.52,-9.64 403.91,-10.28"/>
<polygon fill="midnightblue" stroke="midnightblue" points="403.6,-6.78 393.64,-10.39 403.67,-13.78 403.6,-6.78"/>
</g>
<!-- Node8 -->
<g id="node8" class="node">
<title>Node8</title>
<g id="a_node8"><a xlink:href="_filtered_vision_object_8h.html" target="_top" xlink:title=" ">
<polygon fill="none" stroke="black" points="373,-179.5 373,-198.5 485,-198.5 485,-179.5 373,-179.5"/>
<text text-anchor="middle" x="429" y="-186.5" font-family="Helvetica,sans-Serif" font-size="10.00">FilteredVisionObject.h</text>
</a>
</g>
</g>
<!-- Node7&#45;&gt;Node8 -->
<g id="edge10" class="edge">
<title>Node7&#45;&gt;Node8</title>
<path fill="none" stroke="midnightblue" d="M629.29,-235.44C587.86,-226.04 521.24,-210.93 476.33,-200.74"/>
<polygon fill="midnightblue" stroke="midnightblue" points="477.06,-197.32 466.54,-198.52 475.51,-204.14 477.06,-197.32"/>
</g>
<!-- Node9 -->
<g id="node9" class="node">
<title>Node9</title>
<g id="a_node9"><a xlink:href="_filtered_vision_object_8hpp.html" target="_top" xlink:title=" ">
<polygon fill="none" stroke="black" points="365,-123.5 365,-142.5 487,-142.5 487,-123.5 365,-123.5"/>
<text text-anchor="middle" x="426" y="-130.5" font-family="Helvetica,sans-Serif" font-size="10.00">FilteredVisionObject.hpp</text>
</a>
</g>
</g>
<!-- Node8&#45;&gt;Node9 -->
<g id="edge11" class="edge">
<title>Node8&#45;&gt;Node9</title>
<path fill="none" stroke="midnightblue" d="M428.5,-179.08C428.11,-172.01 427.55,-161.86 427.05,-152.99"/>
<polygon fill="midnightblue" stroke="midnightblue" points="430.54,-152.54 426.49,-142.75 423.55,-152.93 430.54,-152.54"/>
</g>
<!-- Node9&#45;&gt;Node3 -->
<g id="edge12" class="edge">
<title>Node9&#45;&gt;Node3</title>
<path fill="none" stroke="midnightblue" d="M459.96,-123.48C505.55,-112.03 586,-91.83 630.72,-80.6"/>
<polygon fill="midnightblue" stroke="midnightblue" points="631.64,-83.98 640.49,-78.15 629.94,-77.19 631.64,-83.98"/>
</g>
<!-- Node9&#45;&gt;Node4 -->
<g id="edge14" class="edge">
<title>Node9&#45;&gt;Node4</title>
<path fill="none" stroke="midnightblue" d="M444.2,-123.48C465.51,-113.49 501.03,-96.85 525.66,-85.31"/>
<polygon fill="midnightblue" stroke="midnightblue" points="527.27,-88.42 534.84,-81.01 524.3,-82.08 527.27,-88.42"/>
</g>
<!-- Node9&#45;&gt;Node5 -->
<g id="edge15" class="edge">
<title>Node9&#45;&gt;Node5</title>
<path fill="none" stroke="midnightblue" d="M424.28,-123.17C421.21,-108.58 413.96,-78.79 402,-56 396.6,-45.72 388.81,-35.42 381.94,-27.27"/>
<polygon fill="midnightblue" stroke="midnightblue" points="384.49,-24.86 375.26,-19.65 379.22,-29.48 384.49,-24.86"/>
</g>
<!-- Node10 -->
<g id="node10" class="node">
<title>Node10</title>
<g id="a_node10"><a xlink:title=" ">
<polygon fill="none" stroke="#bfbfbf" points="345,-62 345,-81 393,-81 393,-62 345,-62"/>
<text text-anchor="middle" x="369" y="-69" font-family="Helvetica,sans-Serif" font-size="10.00">string.h</text>
</a>
</g>
</g>
<!-- Node9&#45;&gt;Node10 -->
<g id="edge13" class="edge">
<title>Node9&#45;&gt;Node10</title>
<path fill="none" stroke="midnightblue" d="M417.83,-123.48C409.11,-114.37 395.1,-99.74 384.31,-88.48"/>
<polygon fill="midnightblue" stroke="midnightblue" points="386.6,-85.81 377.15,-81.01 381.54,-90.65 386.6,-85.81"/>
</g>
<!-- Node11 -->
<g id="node11" class="node">
<title>Node11</title>
<g id="a_node11"><a xlink:href="wb__filtered__vision__object_8h.html" target="_top" xlink:title=" ">
<polygon fill="none" stroke="black" points="150,-56.5 150,-86.5 244,-86.5 244,-56.5 150,-56.5"/>
<text text-anchor="start" x="158" y="-74.5" font-family="Helvetica,sans-Serif" font-size="10.00">wb_filtered_vision</text>
<text text-anchor="middle" x="197" y="-63.5" font-family="Helvetica,sans-Serif" font-size="10.00">_object.h</text>
</a>
</g>
</g>
<!-- Node9&#45;&gt;Node11 -->
<g id="edge16" class="edge">
<title>Node9&#45;&gt;Node11</title>
<path fill="none" stroke="midnightblue" d="M393.19,-123.48C356.93,-114.05 297.88,-98.71 254.01,-87.31"/>
<polygon fill="midnightblue" stroke="midnightblue" points="254.62,-83.85 244.06,-84.73 252.86,-90.63 254.62,-83.85"/>
</g>
<!-- Node11&#45;&gt;Node5 -->
<g id="edge17" class="edge">
<title>Node11&#45;&gt;Node5</title>
<path fill="none" stroke="midnightblue" d="M237.29,-56.4C266.32,-46.24 305.08,-32.67 332.65,-23.02"/>
<polygon fill="midnightblue" stroke="midnightblue" points="333.98,-26.26 342.26,-19.66 331.67,-19.66 333.98,-26.26"/>
</g>
<!-- Node12 -->
<g id="node12" class="node">
<title>Node12</title>
<g id="a_node12"><a xlink:title=" ">
<polygon fill="none" stroke="#bfbfbf" points="136,-0.5 136,-19.5 184,-19.5 184,-0.5 136,-0.5"/>
<text text-anchor="middle" x="160" y="-7.5" font-family="Helvetica,sans-Serif" font-size="10.00">stdint.h</text>
</a>
</g>
</g>
<!-- Node11&#45;&gt;Node12 -->
<g id="edge18" class="edge">
<title>Node11&#45;&gt;Node12</title>
<path fill="none" stroke="midnightblue" d="M188.23,-56.4C183.02,-48.02 176.37,-37.33 170.83,-28.42"/>
<polygon fill="midnightblue" stroke="midnightblue" points="173.64,-26.3 165.38,-19.66 167.69,-30 173.64,-26.3"/>
</g>
<!-- Node14 -->
<g id="node14" class="node">
<title>Node14</title>
<g id="a_node14"><a xlink:href="_filtered_array_ball_sightings_8hpp.html" target="_top" xlink:title=" ">
<polygon fill="none" stroke="black" points="356,-235.5 356,-254.5 502,-254.5 502,-235.5 356,-235.5"/>
<text text-anchor="middle" x="429" y="-242.5" font-family="Helvetica,sans-Serif" font-size="10.00">FilteredArrayBallSightings.hpp</text>
</a>
</g>
</g>
<!-- Node13&#45;&gt;Node14 -->
<g id="edge20" class="edge">
<title>Node13&#45;&gt;Node14</title>
<path fill="none" stroke="midnightblue" d="M449.87,-291.08C446.49,-283.77 441.58,-273.18 437.38,-264.1"/>
<polygon fill="midnightblue" stroke="midnightblue" points="440.43,-262.36 433.05,-254.75 434.08,-265.3 440.43,-262.36"/>
</g>
<!-- Node14&#45;&gt;Node3 -->
<g id="edge21" class="edge">
<title>Node14&#45;&gt;Node3</title>
<path fill="none" stroke="midnightblue" d="M448.49,-235.35C466.4,-227.04 493.36,-213.63 515,-199 566.76,-163.99 620.95,-113.57 647.06,-88.26"/>
<polygon fill="midnightblue" stroke="midnightblue" points="649.52,-90.75 654.23,-81.26 644.63,-85.74 649.52,-90.75"/>
</g>
<!-- Node14&#45;&gt;Node4 -->
<g id="edge23" class="edge">
<title>Node14&#45;&gt;Node4</title>
<path fill="none" stroke="midnightblue" d="M446.09,-235.49C460.42,-227.65 480.64,-214.84 494,-199 522.03,-165.78 539.75,-117.01 547.84,-90.79"/>
<polygon fill="midnightblue" stroke="midnightblue" points="551.24,-91.62 550.72,-81.04 544.53,-89.64 551.24,-91.62"/>
</g>
<!-- Node14&#45;&gt;Node5 -->
<g id="edge24" class="edge">
<title>Node14&#45;&gt;Node5</title>
<path fill="none" stroke="midnightblue" d="M402.6,-235.43C385.37,-228.42 363.92,-216.73 352,-199 316.32,-145.93 317,-117.07 336,-56 339.23,-45.62 345.78,-35.52 352.02,-27.53"/>
<polygon fill="midnightblue" stroke="midnightblue" points="354.79,-29.68 358.52,-19.77 349.42,-25.19 354.79,-29.68"/>
</g>
<!-- Node14&#45;&gt;Node8 -->
<g id="edge31" class="edge">
<title>Node14&#45;&gt;Node8</title>
<path fill="none" stroke="midnightblue" d="M429,-235.08C429,-228.01 429,-217.86 429,-208.99"/>
<polygon fill="midnightblue" stroke="midnightblue" points="432.5,-208.75 429,-198.75 425.5,-208.75 432.5,-208.75"/>
</g>
<!-- Node14&#45;&gt;Node10 -->
<g id="edge22" class="edge">
<title>Node14&#45;&gt;Node10</title>
<path fill="none" stroke="midnightblue" d="M408.53,-235.35C393.66,-227.95 374.39,-215.81 364,-199 343.37,-165.63 353.94,-117.29 362.23,-91.09"/>
<polygon fill="midnightblue" stroke="midnightblue" points="365.65,-91.91 365.55,-81.32 359.02,-89.66 365.65,-91.91"/>
</g>
<!-- Node15 -->
<g id="node15" class="node">
<title>Node15</title>
<g id="a_node15"><a xlink:href="wb__filtered__arrayballsightings_8h.html" target="_top" xlink:title=" ">
<polygon fill="none" stroke="black" points="119.5,-123.5 119.5,-142.5 270.5,-142.5 270.5,-123.5 119.5,-123.5"/>
<text text-anchor="middle" x="195" y="-130.5" font-family="Helvetica,sans-Serif" font-size="10.00">wb_filtered_arrayballsightings.h</text>
</a>
</g>
</g>
<!-- Node14&#45;&gt;Node15 -->
<g id="edge25" class="edge">
<title>Node14&#45;&gt;Node15</title>
<path fill="none" stroke="midnightblue" d="M390.1,-235.47C360.36,-228.1 318.84,-215.94 285,-199 257.75,-185.36 229.82,-163.77 212.46,-149.26"/>
<polygon fill="midnightblue" stroke="midnightblue" points="214.71,-146.58 204.83,-142.76 210.18,-151.91 214.71,-146.58"/>
</g>
<!-- Node15&#45;&gt;Node5 -->
<g id="edge26" class="edge">
<title>Node15&#45;&gt;Node5</title>
<path fill="none" stroke="midnightblue" d="M205.7,-123.5C223.91,-109.13 262.25,-79.34 296,-56 311.75,-45.11 330.02,-33.55 344.08,-24.88"/>
<polygon fill="midnightblue" stroke="midnightblue" points="345.94,-27.84 352.64,-19.64 342.28,-21.88 345.94,-27.84"/>
</g>
<!-- Node15&#45;&gt;Node11 -->
<g id="edge28" class="edge">
<title>Node15&#45;&gt;Node11</title>
<path fill="none" stroke="midnightblue" d="M195.29,-123.48C195.52,-116.47 195.87,-106.19 196.19,-96.7"/>
<polygon fill="midnightblue" stroke="midnightblue" points="199.69,-96.63 196.53,-86.52 192.69,-96.4 199.69,-96.63"/>
</g>
<!-- Node15&#45;&gt;Node12 -->
<g id="edge27" class="edge">
<title>Node15&#45;&gt;Node12</title>
<path fill="none" stroke="midnightblue" d="M178.37,-123.46C165.51,-115.84 148.66,-103.36 141,-87 132.11,-68.03 140.8,-44.37 149.13,-28.54"/>
<polygon fill="midnightblue" stroke="midnightblue" points="152.2,-30.22 154.11,-19.8 146.12,-26.76 152.2,-30.22"/>
</g>
<!-- Node16 -->
<g id="node16" class="node">
<title>Node16</title>
<g id="a_node16"><a xlink:href="wb__filtered__vision__ball__type_8h.html" target="_top" xlink:title=" ">
<polygon fill="none" stroke="black" points="0,-56.5 0,-86.5 94,-86.5 94,-56.5 0,-56.5"/>
<text text-anchor="start" x="8" y="-74.5" font-family="Helvetica,sans-Serif" font-size="10.00">wb_filtered_vision</text>
<text text-anchor="middle" x="47" y="-63.5" font-family="Helvetica,sans-Serif" font-size="10.00">_ball_type.h</text>
</a>
</g>
</g>
<!-- Node15&#45;&gt;Node16 -->
<g id="edge29" class="edge">
<title>Node15&#45;&gt;Node16</title>
<path fill="none" stroke="midnightblue" d="M173.8,-123.48C152.35,-114.85 118.55,-101.26 91.24,-90.29"/>
<polygon fill="midnightblue" stroke="midnightblue" points="92.46,-87.01 81.88,-86.52 89.85,-93.5 92.46,-87.01"/>
</g>
<!-- Node17 -->
<g id="node17" class="node">
<title>Node17</title>
<g id="a_node17"><a xlink:title=" ">
<polygon fill="none" stroke="#bfbfbf" points="14.5,-0.5 14.5,-19.5 79.5,-19.5 79.5,-0.5 14.5,-0.5"/>
<text text-anchor="middle" x="47" y="-7.5" font-family="Helvetica,sans-Serif" font-size="10.00">sys/types.h</text>
</a>
</g>
</g>
<!-- Node16&#45;&gt;Node17 -->
<g id="edge30" class="edge">
<title>Node16&#45;&gt;Node17</title>
<path fill="none" stroke="midnightblue" d="M47,-56.4C47,-48.47 47,-38.46 47,-29.86"/>
<polygon fill="midnightblue" stroke="midnightblue" points="50.5,-29.66 47,-19.66 43.5,-29.66 50.5,-29.66"/>
</g>
</g>
</svg>
