<?xml version="1.0" encoding="UTF-8" standalone="no"?>
<!DOCTYPE svg PUBLIC "-//W3C//DTD SVG 1.1//EN"
 "http://www.w3.org/Graphics/SVG/1.1/DTD/svg11.dtd">
<!-- Generated by graphviz version 2.49.0 (20210830.1337)
 -->
<!-- Title: typeClassDefs/FilteredArrayOneDimObjects.hpp Pages: 1 -->
<svg width="474pt" height="240pt"
 viewBox="0.00 0.00 474.00 240.00" xmlns="http://www.w3.org/2000/svg" xmlns:xlink="http://www.w3.org/1999/xlink">
<g id="graph0" class="graph" transform="scale(1 1) rotate(0) translate(4 236)">
<title>typeClassDefs/FilteredArrayOneDimObjects.hpp</title>
<!-- Node1 -->
<g id="node1" class="node">
<title>Node1</title>
<g id="a_node1"><a xlink:title=" ">
<polygon fill="#bfbfbf" stroke="black" points="236,-201.5 236,-231.5 373,-231.5 373,-201.5 236,-201.5"/>
<text text-anchor="start" x="244" y="-219.5" font-family="Helvetica,sans-Serif" font-size="10.00">typeClassDefs/FilteredArray</text>
<text text-anchor="middle" x="304.5" y="-208.5" font-family="Helvetica,sans-Serif" font-size="10.00">OneDimObjects.hpp</text>
</a>
</g>
</g>
<!-- Node2 -->
<g id="node2" class="node">
<title>Node2</title>
<g id="a_node2"><a xlink:href="guwhiteboardposter_8h.html" target="_top" xlink:title=" ">
<polygon fill="none" stroke="black" points="180,-140 180,-159 289,-159 289,-140 180,-140"/>
<text text-anchor="middle" x="234.5" y="-147" font-family="Helvetica,sans-Serif" font-size="10.00">guwhiteboardposter.h</text>
</a>
</g>
</g>
<!-- Node1&#45;&gt;Node2 -->
<g id="edge1" class="edge">
<title>Node1&#45;&gt;Node2</title>
<path fill="none" stroke="midnightblue" d="M281.71,-194.34C268.85,-182.4 253.49,-168.14 243.86,-159.19"/>
<polygon fill="midnightblue" stroke="midnightblue" points="279.6,-197.16 289.31,-201.4 284.36,-192.03 279.6,-197.16"/>
</g>
<!-- Node8 -->
<g id="node8" class="node">
<title>Node8</title>
<g id="a_node8"><a xlink:href="_filtered_array_one_dim_objects_8h.html" target="_top" xlink:title=" ">
<polygon fill="none" stroke="black" points="329,-134.5 329,-164.5 466,-164.5 466,-134.5 329,-134.5"/>
<text text-anchor="start" x="337" y="-152.5" font-family="Helvetica,sans-Serif" font-size="10.00">typeClassDefs/FilteredArray</text>
<text text-anchor="middle" x="397.5" y="-141.5" font-family="Helvetica,sans-Serif" font-size="10.00">OneDimObjects.h</text>
</a>
</g>
</g>
<!-- Node1&#45;&gt;Node8 -->
<g id="edge7" class="edge">
<title>Node1&#45;&gt;Node8</title>
<path fill="none" stroke="midnightblue" d="M333.19,-195.45C347.49,-185.45 364.45,-173.6 377.36,-164.58"/>
<polygon fill="midnightblue" stroke="midnightblue" points="330.87,-192.8 324.68,-201.4 334.88,-198.54 330.87,-192.8"/>
</g>
<!-- Node3 -->
<g id="node3" class="node">
<title>Node3</title>
<g id="a_node3"><a xlink:href="_simple_whiteboard_test_8h.html" target="_top" xlink:title=" ">
<polygon fill="none" stroke="black" points="267,-67.5 267,-97.5 392,-97.5 392,-67.5 267,-67.5"/>
<text text-anchor="start" x="275" y="-85.5" font-family="Helvetica,sans-Serif" font-size="10.00">SimpleWhiteboardTest</text>
<text text-anchor="middle" x="329.5" y="-74.5" font-family="Helvetica,sans-Serif" font-size="10.00">/SimpleWhiteboardTest.h</text>
</a>
</g>
</g>
<!-- Node2&#45;&gt;Node3 -->
<g id="edge2" class="edge">
<title>Node2&#45;&gt;Node3</title>
<path fill="none" stroke="midnightblue" d="M255.91,-133.85C271.77,-123 293.25,-108.3 308.91,-97.59"/>
<polygon fill="midnightblue" stroke="midnightblue" points="253.59,-131.2 247.31,-139.73 257.54,-136.98 253.59,-131.2"/>
</g>
<!-- Node5 -->
<g id="node5" class="node">
<title>Node5</title>
<g id="a_node5"><a xlink:href="guwhiteboardgetter_8h.html" target="_top" xlink:title=" ">
<polygon fill="none" stroke="black" points="5,-73 5,-92 112,-92 112,-73 5,-73"/>
<text text-anchor="middle" x="58.5" y="-80" font-family="Helvetica,sans-Serif" font-size="10.00">guwhiteboardgetter.h</text>
</a>
</g>
</g>
<!-- Node2&#45;&gt;Node5 -->
<g id="edge4" class="edge">
<title>Node2&#45;&gt;Node5</title>
<path fill="none" stroke="midnightblue" d="M201.39,-136.27C166.46,-123.37 112.32,-103.38 81.69,-92.06"/>
<polygon fill="midnightblue" stroke="midnightblue" points="200.54,-139.69 211.13,-139.87 202.96,-133.12 200.54,-139.69"/>
</g>
<!-- Node7 -->
<g id="node7" class="node">
<title>Node7</title>
<g id="a_node7"><a xlink:href="guwhiteboardposter_8cpp.html" target="_top" xlink:title=" ">
<polygon fill="none" stroke="black" points="130,-73 130,-92 249,-92 249,-73 130,-73"/>
<text text-anchor="middle" x="189.5" y="-80" font-family="Helvetica,sans-Serif" font-size="10.00">guwhiteboardposter.cpp</text>
</a>
</g>
</g>
<!-- Node2&#45;&gt;Node7 -->
<g id="edge6" class="edge">
<title>Node2&#45;&gt;Node7</title>
<path fill="none" stroke="midnightblue" d="M222.66,-131.4C213.92,-118.77 202.38,-102.1 195.47,-92.13"/>
<polygon fill="midnightblue" stroke="midnightblue" points="219.86,-133.5 228.43,-139.73 225.62,-129.52 219.86,-133.5"/>
</g>
<!-- Node4 -->
<g id="node4" class="node">
<title>Node4</title>
<g id="a_node4"><a xlink:href="_simple_whiteboard_test_8mm.html" target="_top" xlink:title=" ">
<polygon fill="none" stroke="black" points="306,-0.5 306,-30.5 443,-30.5 443,-0.5 306,-0.5"/>
<text text-anchor="start" x="314" y="-18.5" font-family="Helvetica,sans-Serif" font-size="10.00">SimpleWhiteboardTest</text>
<text text-anchor="middle" x="374.5" y="-7.5" font-family="Helvetica,sans-Serif" font-size="10.00">/SimpleWhiteboardTest.mm</text>
</a>
</g>
</g>
<!-- Node3&#45;&gt;Node4 -->
<g id="edge3" class="edge">
<title>Node3&#45;&gt;Node4</title>
<path fill="none" stroke="midnightblue" d="M344.97,-59.16C351.53,-49.68 358.98,-38.92 364.75,-30.58"/>
<polygon fill="midnightblue" stroke="midnightblue" points="342.08,-57.18 339.26,-67.4 347.83,-61.17 342.08,-57.18"/>
</g>
<!-- Node6 -->
<g id="node6" class="node">
<title>Node6</title>
<g id="a_node6"><a xlink:href="guwhiteboardgetter_8cpp.html" target="_top" xlink:title=" ">
<polygon fill="none" stroke="black" points="0,-6 0,-25 117,-25 117,-6 0,-6"/>
<text text-anchor="middle" x="58.5" y="-13" font-family="Helvetica,sans-Serif" font-size="10.00">guwhiteboardgetter.cpp</text>
</a>
</g>
</g>
<!-- Node5&#45;&gt;Node6 -->
<g id="edge5" class="edge">
<title>Node5&#45;&gt;Node6</title>
<path fill="none" stroke="midnightblue" d="M58.5,-62.54C58.5,-50.17 58.5,-34.62 58.5,-25.13"/>
<polygon fill="midnightblue" stroke="midnightblue" points="55,-62.73 58.5,-72.73 62,-62.73 55,-62.73"/>
</g>
<!-- Node8&#45;&gt;Node4 -->
<g id="edge8" class="edge">
<title>Node8&#45;&gt;Node4</title>
<path fill="none" stroke="midnightblue" d="M402.3,-124.54C404.72,-108.1 406.24,-85.94 401.5,-67 398.21,-53.88 390.8,-40.45 384.57,-30.74"/>
<polygon fill="midnightblue" stroke="midnightblue" points="398.85,-123.97 400.64,-134.41 405.75,-125.13 398.85,-123.97"/>
</g>
</g>
</svg>
