<?xml version="1.0" encoding="UTF-8" standalone="no"?>
<!DOCTYPE svg PUBLIC "-//W3C//DTD SVG 1.1//EN"
 "http://www.w3.org/Graphics/SVG/1.1/DTD/svg11.dtd">
<!-- Generated by graphviz version 2.49.0 (20210830.1337)
 -->
<!-- Title: typeClassDefs/HAL_HeadTarget.h Pages: 1 -->
<svg width="194pt" height="196pt"
 viewBox="0.00 0.00 193.50 196.00" xmlns="http://www.w3.org/2000/svg" xmlns:xlink="http://www.w3.org/1999/xlink">
<g id="graph0" class="graph" transform="scale(1 1) rotate(0) translate(4 192)">
<title>typeClassDefs/HAL_HeadTarget.h</title>
<!-- Node1 -->
<g id="node1" class="node">
<title>Node1</title>
<g id="a_node1"><a xlink:title=" ">
<polygon fill="#bfbfbf" stroke="black" points="0,-168.5 0,-187.5 167,-187.5 167,-168.5 0,-168.5"/>
<text text-anchor="middle" x="83.5" y="-175.5" font-family="Helvetica,sans-Serif" font-size="10.00">typeClassDefs/HAL_HeadTarget.h</text>
</a>
</g>
</g>
<!-- Node2 -->
<g id="node2" class="node">
<title>Node2</title>
<g id="a_node2"><a xlink:href="_h_a_l___head_target_8hpp.html" target="_top" xlink:title=" ">
<polygon fill="none" stroke="black" points="28,-112.5 28,-131.5 139,-131.5 139,-112.5 28,-112.5"/>
<text text-anchor="middle" x="83.5" y="-119.5" font-family="Helvetica,sans-Serif" font-size="10.00">HAL_HeadTarget.hpp</text>
</a>
</g>
</g>
<!-- Node1&#45;&gt;Node2 -->
<g id="edge1" class="edge">
<title>Node1&#45;&gt;Node2</title>
<path fill="none" stroke="midnightblue" d="M83.5,-168.08C83.5,-161.01 83.5,-150.86 83.5,-141.99"/>
<polygon fill="midnightblue" stroke="midnightblue" points="87,-141.75 83.5,-131.75 80,-141.75 87,-141.75"/>
</g>
<!-- Node3 -->
<g id="node3" class="node">
<title>Node3</title>
<g id="a_node3"><a xlink:title=" ">
<polygon fill="none" stroke="#bfbfbf" points="9.5,-56.5 9.5,-75.5 61.5,-75.5 61.5,-56.5 9.5,-56.5"/>
<text text-anchor="middle" x="35.5" y="-63.5" font-family="Helvetica,sans-Serif" font-size="10.00">sstream</text>
</a>
</g>
</g>
<!-- Node2&#45;&gt;Node3 -->
<g id="edge2" class="edge">
<title>Node2&#45;&gt;Node3</title>
<path fill="none" stroke="midnightblue" d="M75.57,-112.08C68.65,-104.3 58.43,-92.8 50.05,-83.37"/>
<polygon fill="midnightblue" stroke="midnightblue" points="52.54,-80.9 43.28,-75.75 47.31,-85.55 52.54,-80.9"/>
</g>
<!-- Node4 -->
<g id="node4" class="node">
<title>Node4</title>
<g id="a_node4"><a xlink:href="wb__hal__headtarget_8h.html" target="_top" xlink:title=" ">
<polygon fill="none" stroke="black" points="79.5,-56.5 79.5,-75.5 185.5,-75.5 185.5,-56.5 79.5,-56.5"/>
<text text-anchor="middle" x="132.5" y="-63.5" font-family="Helvetica,sans-Serif" font-size="10.00">wb_hal_headtarget.h</text>
</a>
</g>
</g>
<!-- Node2&#45;&gt;Node4 -->
<g id="edge3" class="edge">
<title>Node2&#45;&gt;Node4</title>
<path fill="none" stroke="midnightblue" d="M91.59,-112.08C98.66,-104.3 109.09,-92.8 117.65,-83.37"/>
<polygon fill="midnightblue" stroke="midnightblue" points="120.43,-85.51 124.56,-75.75 115.25,-80.8 120.43,-85.51"/>
</g>
<!-- Node5 -->
<g id="node5" class="node">
<title>Node5</title>
<g id="a_node5"><a xlink:title=" ">
<polygon fill="none" stroke="#bfbfbf" points="106,-0.5 106,-19.5 159,-19.5 159,-0.5 106,-0.5"/>
<text text-anchor="middle" x="132.5" y="-7.5" font-family="Helvetica,sans-Serif" font-size="10.00">gu_util.h</text>
</a>
</g>
</g>
<!-- Node4&#45;&gt;Node5 -->
<g id="edge4" class="edge">
<title>Node4&#45;&gt;Node5</title>
<path fill="none" stroke="midnightblue" d="M132.5,-56.08C132.5,-49.01 132.5,-38.86 132.5,-29.99"/>
<polygon fill="midnightblue" stroke="midnightblue" points="136,-29.75 132.5,-19.75 129,-29.75 136,-29.75"/>
</g>
</g>
</svg>
