<?xml version="1.0" encoding="UTF-8" standalone="no"?>
<!DOCTYPE svg PUBLIC "-//W3C//DTD SVG 1.1//EN"
 "http://www.w3.org/Graphics/SVG/1.1/DTD/svg11.dtd">
<!-- Generated by graphviz version 2.49.0 (20210830.1337)
 -->
<!-- Title: typeClassDefs/LineSighting.hpp Pages: 1 -->
<svg width="450pt" height="252pt"
 viewBox="0.00 0.00 450.28 252.00" xmlns="http://www.w3.org/2000/svg" xmlns:xlink="http://www.w3.org/1999/xlink">
<g id="graph0" class="graph" transform="scale(1 1) rotate(0) translate(4 248)">
<title>typeClassDefs/LineSighting.hpp</title>
<!-- Node1 -->
<g id="node1" class="node">
<title>Node1</title>
<g id="a_node1"><a xlink:title=" ">
<polygon fill="#bfbfbf" stroke="black" points="140,-224.5 140,-243.5 295,-243.5 295,-224.5 140,-224.5"/>
<text text-anchor="middle" x="217.5" y="-231.5" font-family="Helvetica,sans-Serif" font-size="10.00">typeClassDefs/LineSighting.hpp</text>
</a>
</g>
</g>
<!-- Node2 -->
<g id="node2" class="node">
<title>Node2</title>
<g id="a_node2"><a xlink:title=" ">
<polygon fill="none" stroke="#bfbfbf" points="0,-56.5 0,-75.5 45,-75.5 45,-56.5 0,-56.5"/>
<text text-anchor="middle" x="22.5" y="-63.5" font-family="Helvetica,sans-Serif" font-size="10.00">cstdlib</text>
</a>
</g>
</g>
<!-- Node1&#45;&gt;Node2 -->
<g id="edge1" class="edge">
<title>Node1&#45;&gt;Node2</title>
<path fill="none" stroke="midnightblue" d="M144.97,-224.42C118.52,-218.09 90.08,-207.08 69.5,-188 39.99,-160.64 28.78,-112.57 24.7,-86"/>
<polygon fill="midnightblue" stroke="midnightblue" points="28.12,-85.2 23.32,-75.75 21.19,-86.13 28.12,-85.2"/>
</g>
<!-- Node3 -->
<g id="node3" class="node">
<title>Node3</title>
<g id="a_node3"><a xlink:title=" ">
<polygon fill="none" stroke="#bfbfbf" points="63.5,-56.5 63.5,-75.5 111.5,-75.5 111.5,-56.5 63.5,-56.5"/>
<text text-anchor="middle" x="87.5" y="-63.5" font-family="Helvetica,sans-Serif" font-size="10.00">string.h</text>
</a>
</g>
</g>
<!-- Node1&#45;&gt;Node3 -->
<g id="edge2" class="edge">
<title>Node1&#45;&gt;Node3</title>
<path fill="none" stroke="midnightblue" d="M146.52,-224.49C123.12,-218.13 99.11,-207.09 83.5,-188 59.63,-158.82 71.17,-111.12 80.22,-85.19"/>
<polygon fill="midnightblue" stroke="midnightblue" points="83.61,-86.11 83.84,-75.52 77.06,-83.66 83.61,-86.11"/>
</g>
<!-- Node4 -->
<g id="node4" class="node">
<title>Node4</title>
<g id="a_node4"><a xlink:title=" ">
<polygon fill="none" stroke="#bfbfbf" points="170.5,-56.5 170.5,-75.5 222.5,-75.5 222.5,-56.5 170.5,-56.5"/>
<text text-anchor="middle" x="196.5" y="-63.5" font-family="Helvetica,sans-Serif" font-size="10.00">sstream</text>
</a>
</g>
</g>
<!-- Node1&#45;&gt;Node4 -->
<g id="edge3" class="edge">
<title>Node1&#45;&gt;Node4</title>
<path fill="none" stroke="midnightblue" d="M216.37,-224.08C213.07,-197.95 203.36,-121.21 198.85,-85.58"/>
<polygon fill="midnightblue" stroke="midnightblue" points="202.31,-85.05 197.58,-75.57 195.37,-85.93 202.31,-85.05"/>
</g>
<!-- Node5 -->
<g id="node5" class="node">
<title>Node5</title>
<g id="a_node5"><a xlink:title=" ">
<polygon fill="none" stroke="#bfbfbf" points="275,-0.5 275,-19.5 328,-19.5 328,-0.5 275,-0.5"/>
<text text-anchor="middle" x="301.5" y="-7.5" font-family="Helvetica,sans-Serif" font-size="10.00">gu_util.h</text>
</a>
</g>
</g>
<!-- Node1&#45;&gt;Node5 -->
<g id="edge4" class="edge">
<title>Node1&#45;&gt;Node5</title>
<path fill="none" stroke="midnightblue" d="M219.56,-224.27C225.88,-198.05 246.35,-118.03 274.5,-56 278.83,-46.46 284.72,-36.41 289.89,-28.23"/>
<polygon fill="midnightblue" stroke="midnightblue" points="292.97,-29.93 295.5,-19.64 287.1,-26.1 292.97,-29.93"/>
</g>
<!-- Node6 -->
<g id="node6" class="node">
<title>Node6</title>
<g id="a_node6"><a xlink:href="wb__line__sighting_8h.html" target="_top" xlink:title=" ">
<polygon fill="none" stroke="black" points="334.5,-112.5 334.5,-131.5 430.5,-131.5 430.5,-112.5 334.5,-112.5"/>
<text text-anchor="middle" x="382.5" y="-119.5" font-family="Helvetica,sans-Serif" font-size="10.00">wb_line_sighting.h</text>
</a>
</g>
</g>
<!-- Node1&#45;&gt;Node6 -->
<g id="edge5" class="edge">
<title>Node1&#45;&gt;Node6</title>
<path fill="none" stroke="midnightblue" d="M230.19,-224.31C248.51,-211.77 283.49,-187.94 313.5,-168 329.18,-157.58 346.98,-145.98 360.57,-137.17"/>
<polygon fill="midnightblue" stroke="midnightblue" points="362.74,-139.93 369.23,-131.56 358.93,-134.06 362.74,-139.93"/>
</g>
<!-- Node9 -->
<g id="node9" class="node">
<title>Node9</title>
<g id="a_node9"><a xlink:href="_polar_coordinate_8h.html" target="_top" xlink:title=" ">
<polygon fill="none" stroke="black" points="93,-168.5 93,-187.5 186,-187.5 186,-168.5 93,-168.5"/>
<text text-anchor="middle" x="139.5" y="-175.5" font-family="Helvetica,sans-Serif" font-size="10.00">PolarCoordinate.h</text>
</a>
</g>
</g>
<!-- Node1&#45;&gt;Node9 -->
<g id="edge11" class="edge">
<title>Node1&#45;&gt;Node9</title>
<path fill="none" stroke="midnightblue" d="M204.97,-224.32C192.91,-215.98 174.47,-203.21 160.23,-193.35"/>
<polygon fill="midnightblue" stroke="midnightblue" points="162.22,-190.47 152,-187.65 158.23,-196.22 162.22,-190.47"/>
</g>
<!-- Node11 -->
<g id="node11" class="node">
<title>Node11</title>
<g id="a_node11"><a xlink:title=" ">
<polygon fill="none" stroke="#bfbfbf" points="322,-168.5 322,-187.5 409,-187.5 409,-168.5 322,-168.5"/>
<text text-anchor="middle" x="365.5" y="-175.5" font-family="Helvetica,sans-Serif" font-size="10.00">SimpleShapes.h</text>
</a>
</g>
</g>
<!-- Node1&#45;&gt;Node11 -->
<g id="edge18" class="edge">
<title>Node1&#45;&gt;Node11</title>
<path fill="none" stroke="midnightblue" d="M240.95,-224.44C265.63,-215.44 304.69,-201.19 332.48,-191.05"/>
<polygon fill="midnightblue" stroke="midnightblue" points="333.96,-194.23 342.16,-187.52 331.56,-187.66 333.96,-194.23"/>
</g>
<!-- Node6&#45;&gt;Node5 -->
<g id="edge6" class="edge">
<title>Node6&#45;&gt;Node5</title>
<path fill="none" stroke="midnightblue" d="M390.38,-112.43C401.34,-99.42 418.55,-74.28 406.5,-56 398.45,-43.8 364.86,-30.73 337.81,-21.84"/>
<polygon fill="midnightblue" stroke="midnightblue" points="338.79,-18.48 328.2,-18.76 336.66,-25.14 338.79,-18.48"/>
</g>
<!-- Node7 -->
<g id="node7" class="node">
<title>Node7</title>
<g id="a_node7"><a xlink:title=" ">
<polygon fill="none" stroke="#bfbfbf" points="354.5,-0.5 354.5,-19.5 402.5,-19.5 402.5,-0.5 354.5,-0.5"/>
<text text-anchor="middle" x="378.5" y="-7.5" font-family="Helvetica,sans-Serif" font-size="10.00">stdint.h</text>
</a>
</g>
</g>
<!-- Node6&#45;&gt;Node7 -->
<g id="edge7" class="edge">
<title>Node6&#45;&gt;Node7</title>
<path fill="none" stroke="midnightblue" d="M399.92,-112.44C420.71,-100.96 451.27,-79.31 439.5,-56 432.69,-42.52 419.73,-32.08 407.5,-24.67"/>
<polygon fill="midnightblue" stroke="midnightblue" points="408.84,-21.41 398.41,-19.59 405.43,-27.52 408.84,-21.41"/>
</g>
<!-- Node8 -->
<g id="node8" class="node">
<title>Node8</title>
<g id="a_node8"><a xlink:href="wb__polar__coordinate_8h.html" target="_top" xlink:title=" ">
<polygon fill="none" stroke="black" points="284,-56.5 284,-75.5 397,-75.5 397,-56.5 284,-56.5"/>
<text text-anchor="middle" x="340.5" y="-63.5" font-family="Helvetica,sans-Serif" font-size="10.00">wb_polar_coordinate.h</text>
</a>
</g>
</g>
<!-- Node6&#45;&gt;Node8 -->
<g id="edge8" class="edge">
<title>Node6&#45;&gt;Node8</title>
<path fill="none" stroke="midnightblue" d="M375.56,-112.08C369.57,-104.38 360.75,-93.03 353.45,-83.65"/>
<polygon fill="midnightblue" stroke="midnightblue" points="356.21,-81.5 347.31,-75.75 350.68,-85.79 356.21,-81.5"/>
</g>
<!-- Node8&#45;&gt;Node5 -->
<g id="edge9" class="edge">
<title>Node8&#45;&gt;Node5</title>
<path fill="none" stroke="midnightblue" d="M334.06,-56.08C328.55,-48.46 320.47,-37.26 313.74,-27.94"/>
<polygon fill="midnightblue" stroke="midnightblue" points="316.51,-25.81 307.82,-19.75 310.84,-29.91 316.51,-25.81"/>
</g>
<!-- Node8&#45;&gt;Node7 -->
<g id="edge10" class="edge">
<title>Node8&#45;&gt;Node7</title>
<path fill="none" stroke="midnightblue" d="M346.77,-56.08C352.14,-48.46 360.02,-37.26 366.58,-27.94"/>
<polygon fill="midnightblue" stroke="midnightblue" points="369.45,-29.94 372.34,-19.75 363.72,-25.91 369.45,-29.94"/>
</g>
<!-- Node10 -->
<g id="node10" class="node">
<title>Node10</title>
<g id="a_node10"><a xlink:href="_polar_coordinate_8hpp.html" target="_top" xlink:title=" ">
<polygon fill="none" stroke="black" points="85.5,-112.5 85.5,-131.5 189.5,-131.5 189.5,-112.5 85.5,-112.5"/>
<text text-anchor="middle" x="137.5" y="-119.5" font-family="Helvetica,sans-Serif" font-size="10.00">PolarCoordinate.hpp</text>
</a>
</g>
</g>
<!-- Node9&#45;&gt;Node10 -->
<g id="edge12" class="edge">
<title>Node9&#45;&gt;Node10</title>
<path fill="none" stroke="midnightblue" d="M139.17,-168.08C138.91,-161.01 138.53,-150.86 138.2,-141.99"/>
<polygon fill="midnightblue" stroke="midnightblue" points="141.69,-141.61 137.82,-131.75 134.7,-141.87 141.69,-141.61"/>
</g>
<!-- Node10&#45;&gt;Node2 -->
<g id="edge13" class="edge">
<title>Node10&#45;&gt;Node2</title>
<path fill="none" stroke="midnightblue" d="M119.28,-112.44C100.6,-103.68 71.34,-89.94 49.88,-79.86"/>
<polygon fill="midnightblue" stroke="midnightblue" points="51.18,-76.6 40.64,-75.52 48.2,-82.93 51.18,-76.6"/>
</g>
<!-- Node10&#45;&gt;Node3 -->
<g id="edge14" class="edge">
<title>Node10&#45;&gt;Node3</title>
<path fill="none" stroke="midnightblue" d="M129.24,-112.08C122.04,-104.3 111.39,-92.8 102.65,-83.37"/>
<polygon fill="midnightblue" stroke="midnightblue" points="104.97,-80.71 95.6,-75.75 99.83,-85.47 104.97,-80.71"/>
</g>
<!-- Node10&#45;&gt;Node4 -->
<g id="edge15" class="edge">
<title>Node10&#45;&gt;Node4</title>
<path fill="none" stroke="midnightblue" d="M146.98,-112.32C155.7,-104.34 168.84,-92.31 179.4,-82.65"/>
<polygon fill="midnightblue" stroke="midnightblue" points="181.83,-85.17 186.85,-75.83 177.11,-80 181.83,-85.17"/>
</g>
<!-- Node10&#45;&gt;Node5 -->
<g id="edge16" class="edge">
<title>Node10&#45;&gt;Node5</title>
<path fill="none" stroke="midnightblue" d="M138.33,-112.1C140.11,-98.19 145.52,-71.31 161.5,-56 189.49,-29.18 233.53,-18.35 264.73,-13.97"/>
<polygon fill="midnightblue" stroke="midnightblue" points="265.29,-17.43 274.78,-12.72 264.42,-10.48 265.29,-17.43"/>
</g>
<!-- Node10&#45;&gt;Node8 -->
<g id="edge17" class="edge">
<title>Node10&#45;&gt;Node8</title>
<path fill="none" stroke="midnightblue" d="M169.67,-112.44C204.56,-103.16 260.39,-88.31 298.67,-78.13"/>
<polygon fill="midnightblue" stroke="midnightblue" points="299.72,-81.47 308.48,-75.52 297.92,-74.7 299.72,-81.47"/>
</g>
</g>
</svg>
