<?xml version="1.0" encoding="UTF-8" standalone="no"?>
<!DOCTYPE svg PUBLIC "-//W3C//DTD SVG 1.1//EN"
 "http://www.w3.org/Graphics/SVG/1.1/DTD/svg11.dtd">
<!-- Generated by graphviz version 2.49.0 (20210830.1337)
 -->
<!-- Title: typeClassDefs/Location.h Pages: 1 -->
<svg width="562pt" height="196pt"
 viewBox="0.00 0.00 562.00 196.00" xmlns="http://www.w3.org/2000/svg" xmlns:xlink="http://www.w3.org/1999/xlink">
<g id="graph0" class="graph" transform="scale(1 1) rotate(0) translate(4 192)">
<title>typeClassDefs/Location.h</title>
<!-- Node1 -->
<g id="node1" class="node">
<title>Node1</title>
<g id="a_node1"><a xlink:title=" ">
<polygon fill="#bfbfbf" stroke="black" points="178.5,-168.5 178.5,-187.5 306.5,-187.5 306.5,-168.5 178.5,-168.5"/>
<text text-anchor="middle" x="242.5" y="-175.5" font-family="Helvetica,sans-Serif" font-size="10.00">typeClassDefs/Location.h</text>
</a>
</g>
</g>
<!-- Node2 -->
<g id="node2" class="node">
<title>Node2</title>
<g id="a_node2"><a xlink:href="_location_8hpp.html" target="_top" xlink:title=" ">
<polygon fill="none" stroke="black" points="206.5,-112.5 206.5,-131.5 278.5,-131.5 278.5,-112.5 206.5,-112.5"/>
<text text-anchor="middle" x="242.5" y="-119.5" font-family="Helvetica,sans-Serif" font-size="10.00">Location.hpp</text>
</a>
</g>
</g>
<!-- Node1&#45;&gt;Node2 -->
<g id="edge1" class="edge">
<title>Node1&#45;&gt;Node2</title>
<path fill="none" stroke="midnightblue" d="M242.5,-168.08C242.5,-161.01 242.5,-150.86 242.5,-141.99"/>
<polygon fill="midnightblue" stroke="midnightblue" points="246,-141.75 242.5,-131.75 239,-141.75 246,-141.75"/>
</g>
<!-- Node3 -->
<g id="node3" class="node">
<title>Node3</title>
<g id="a_node3"><a xlink:title=" ">
<polygon fill="none" stroke="#bfbfbf" points="0,-56.5 0,-75.5 45,-75.5 45,-56.5 0,-56.5"/>
<text text-anchor="middle" x="22.5" y="-63.5" font-family="Helvetica,sans-Serif" font-size="10.00">cstdlib</text>
</a>
</g>
</g>
<!-- Node2&#45;&gt;Node3 -->
<g id="edge2" class="edge">
<title>Node2&#45;&gt;Node3</title>
<path fill="none" stroke="midnightblue" d="M206.35,-112.79C170.43,-104.53 113.52,-91.19 54.98,-76.05"/>
<polygon fill="midnightblue" stroke="midnightblue" points="55.75,-72.63 45.2,-73.5 53.99,-79.41 55.75,-72.63"/>
</g>
<!-- Node4 -->
<g id="node4" class="node">
<title>Node4</title>
<g id="a_node4"><a xlink:title=" ">
<polygon fill="none" stroke="#bfbfbf" points="63.5,-56.5 63.5,-75.5 111.5,-75.5 111.5,-56.5 63.5,-56.5"/>
<text text-anchor="middle" x="87.5" y="-63.5" font-family="Helvetica,sans-Serif" font-size="10.00">string.h</text>
</a>
</g>
</g>
<!-- Node2&#45;&gt;Node4 -->
<g id="edge3" class="edge">
<title>Node2&#45;&gt;Node4</title>
<path fill="none" stroke="midnightblue" d="M217.94,-112.44C191.9,-103.37 150.59,-88.98 121.45,-78.83"/>
<polygon fill="midnightblue" stroke="midnightblue" points="122.28,-75.41 111.69,-75.43 119.98,-82.02 122.28,-75.41"/>
</g>
<!-- Node5 -->
<g id="node5" class="node">
<title>Node5</title>
<g id="a_node5"><a xlink:title=" ">
<polygon fill="none" stroke="#bfbfbf" points="129.5,-56.5 129.5,-75.5 181.5,-75.5 181.5,-56.5 129.5,-56.5"/>
<text text-anchor="middle" x="155.5" y="-63.5" font-family="Helvetica,sans-Serif" font-size="10.00">sstream</text>
</a>
</g>
</g>
<!-- Node2&#45;&gt;Node5 -->
<g id="edge4" class="edge">
<title>Node2&#45;&gt;Node5</title>
<path fill="none" stroke="midnightblue" d="M228.52,-112.32C214.95,-103.9 194.12,-90.97 178.18,-81.07"/>
<polygon fill="midnightblue" stroke="midnightblue" points="179.79,-77.95 169.44,-75.65 176.09,-83.9 179.79,-77.95"/>
</g>
<!-- Node6 -->
<g id="node6" class="node">
<title>Node6</title>
<g id="a_node6"><a xlink:title=" ">
<polygon fill="none" stroke="#bfbfbf" points="159,-0.5 159,-19.5 212,-19.5 212,-0.5 159,-0.5"/>
<text text-anchor="middle" x="185.5" y="-7.5" font-family="Helvetica,sans-Serif" font-size="10.00">gu_util.h</text>
</a>
</g>
</g>
<!-- Node2&#45;&gt;Node6 -->
<g id="edge5" class="edge">
<title>Node2&#45;&gt;Node6</title>
<path fill="none" stroke="midnightblue" d="M238.03,-112.37C228.7,-94.38 207.03,-52.55 194.63,-28.63"/>
<polygon fill="midnightblue" stroke="midnightblue" points="197.66,-26.86 189.95,-19.59 191.45,-30.08 197.66,-26.86"/>
</g>
<!-- Node7 -->
<g id="node7" class="node">
<title>Node7</title>
<g id="a_node7"><a xlink:href="wb__location_8h.html" target="_top" xlink:title=" ">
<polygon fill="none" stroke="black" points="237.5,-56.5 237.5,-75.5 313.5,-75.5 313.5,-56.5 237.5,-56.5"/>
<text text-anchor="middle" x="275.5" y="-63.5" font-family="Helvetica,sans-Serif" font-size="10.00">wb_location.h</text>
</a>
</g>
</g>
<!-- Node2&#45;&gt;Node7 -->
<g id="edge6" class="edge">
<title>Node2&#45;&gt;Node7</title>
<path fill="none" stroke="midnightblue" d="M247.95,-112.08C252.51,-104.61 259.17,-93.72 264.79,-84.52"/>
<polygon fill="midnightblue" stroke="midnightblue" points="267.92,-86.11 270.15,-75.75 261.95,-82.46 267.92,-86.11"/>
</g>
<!-- Node9 -->
<g id="node9" class="node">
<title>Node9</title>
<g id="a_node9"><a xlink:title=" ">
<polygon fill="none" stroke="#bfbfbf" points="296.5,-0.5 296.5,-19.5 386.5,-19.5 386.5,-0.5 296.5,-0.5"/>
<text text-anchor="middle" x="341.5" y="-7.5" font-family="Helvetica,sans-Serif" font-size="10.00">guunits/guunits.h</text>
</a>
</g>
</g>
<!-- Node2&#45;&gt;Node9 -->
<g id="edge11" class="edge">
<title>Node2&#45;&gt;Node9</title>
<path fill="none" stroke="midnightblue" d="M268.34,-112.41C286,-105.29 308.62,-93.47 322.5,-76 333.12,-62.64 337.8,-43.52 339.87,-29.48"/>
<polygon fill="midnightblue" stroke="midnightblue" points="343.35,-29.85 341.03,-19.51 336.4,-29.04 343.35,-29.85"/>
</g>
<!-- Node10 -->
<g id="node10" class="node">
<title>Node10</title>
<g id="a_node10"><a xlink:title=" ">
<polygon fill="none" stroke="#bfbfbf" points="405,-0.5 405,-19.5 554,-19.5 554,-0.5 405,-0.5"/>
<text text-anchor="middle" x="479.5" y="-7.5" font-family="Helvetica,sans-Serif" font-size="10.00">gucoordinates/gucoordinates.h</text>
</a>
</g>
</g>
<!-- Node2&#45;&gt;Node10 -->
<g id="edge12" class="edge">
<title>Node2&#45;&gt;Node10</title>
<path fill="none" stroke="midnightblue" d="M261.51,-112.45C281.47,-103.45 313.74,-88.84 341.5,-76 379.98,-58.19 424.31,-37.23 452.12,-24.03"/>
<polygon fill="midnightblue" stroke="midnightblue" points="453.7,-27.15 461.23,-19.7 450.7,-20.83 453.7,-27.15"/>
</g>
<!-- Node11 -->
<g id="node11" class="node">
<title>Node11</title>
<g id="a_node11"><a xlink:title=" ">
<polygon fill="none" stroke="#bfbfbf" points="407.5,-56.5 407.5,-75.5 457.5,-75.5 457.5,-56.5 407.5,-56.5"/>
<text text-anchor="middle" x="432.5" y="-63.5" font-family="Helvetica,sans-Serif" font-size="10.00">optional</text>
</a>
</g>
</g>
<!-- Node2&#45;&gt;Node11 -->
<g id="edge13" class="edge">
<title>Node2&#45;&gt;Node11</title>
<path fill="none" stroke="midnightblue" d="M272.61,-112.44C306.51,-102.81 361.54,-87.17 397.38,-76.98"/>
<polygon fill="midnightblue" stroke="midnightblue" points="398.73,-80.24 407.39,-74.14 396.81,-73.5 398.73,-80.24"/>
</g>
<!-- Node7&#45;&gt;Node6 -->
<g id="edge7" class="edge">
<title>Node7&#45;&gt;Node6</title>
<path fill="none" stroke="midnightblue" d="M261.04,-56.32C247,-47.9 225.45,-34.97 208.96,-25.07"/>
<polygon fill="midnightblue" stroke="midnightblue" points="210.3,-21.8 199.92,-19.65 206.7,-27.8 210.3,-21.8"/>
</g>
<!-- Node8 -->
<g id="node8" class="node">
<title>Node8</title>
<g id="a_node8"><a xlink:title=" ">
<polygon fill="none" stroke="#bfbfbf" points="230.5,-0.5 230.5,-19.5 278.5,-19.5 278.5,-0.5 230.5,-0.5"/>
<text text-anchor="middle" x="254.5" y="-7.5" font-family="Helvetica,sans-Serif" font-size="10.00">stdint.h</text>
</a>
</g>
</g>
<!-- Node7&#45;&gt;Node8 -->
<g id="edge8" class="edge">
<title>Node7&#45;&gt;Node8</title>
<path fill="none" stroke="midnightblue" d="M272.03,-56.08C269.19,-48.77 265.07,-38.18 261.54,-29.1"/>
<polygon fill="midnightblue" stroke="midnightblue" points="264.79,-27.8 257.9,-19.75 258.27,-30.34 264.79,-27.8"/>
</g>
<!-- Node7&#45;&gt;Node9 -->
<g id="edge9" class="edge">
<title>Node7&#45;&gt;Node9</title>
<path fill="none" stroke="midnightblue" d="M286.1,-56.32C295.96,-48.26 310.85,-36.08 322.72,-26.37"/>
<polygon fill="midnightblue" stroke="midnightblue" points="325.18,-28.88 330.7,-19.83 320.75,-23.46 325.18,-28.88"/>
</g>
<!-- Node7&#45;&gt;Node10 -->
<g id="edge10" class="edge">
<title>Node7&#45;&gt;Node10</title>
<path fill="none" stroke="midnightblue" d="M307.82,-56.44C342.89,-47.16 399,-32.31 437.46,-22.13"/>
<polygon fill="midnightblue" stroke="midnightblue" points="438.56,-25.46 447.33,-19.52 436.76,-18.69 438.56,-25.46"/>
</g>
</g>
</svg>
