<?xml version="1.0" encoding="UTF-8" standalone="no"?>
<!DOCTYPE svg PUBLIC "-//W3C//DTD SVG 1.1//EN"
 "http://www.w3.org/Graphics/SVG/1.1/DTD/svg11.dtd">
<!-- Generated by graphviz version 2.49.0 (20210830.1337)
 -->
<!-- Title: typeClassDefs/MOTION_Interface.hpp Pages: 1 -->
<svg width="573pt" height="374pt"
 viewBox="0.00 0.00 572.50 374.00" xmlns="http://www.w3.org/2000/svg" xmlns:xlink="http://www.w3.org/1999/xlink">
<g id="graph0" class="graph" transform="scale(1 1) rotate(0) translate(4 370)">
<title>typeClassDefs/MOTION_Interface.hpp</title>
<!-- Node1 -->
<g id="node1" class="node">
<title>Node1</title>
<g id="a_node1"><a xlink:title=" ">
<polygon fill="#bfbfbf" stroke="black" points="228.5,-335.5 228.5,-365.5 350.5,-365.5 350.5,-335.5 228.5,-335.5"/>
<text text-anchor="start" x="236.5" y="-353.5" font-family="Helvetica,sans-Serif" font-size="10.00">typeClassDefs/MOTION</text>
<text text-anchor="middle" x="289.5" y="-342.5" font-family="Helvetica,sans-Serif" font-size="10.00">_Interface.hpp</text>
</a>
</g>
</g>
<!-- Node2 -->
<g id="node2" class="node">
<title>Node2</title>
<g id="a_node2"><a xlink:href="_m_o_t_i_o_n___interface_8h.html" target="_top" xlink:title=" ">
<polygon fill="none" stroke="black" points="228.5,-268.5 228.5,-298.5 350.5,-298.5 350.5,-268.5 228.5,-268.5"/>
<text text-anchor="start" x="236.5" y="-286.5" font-family="Helvetica,sans-Serif" font-size="10.00">typeClassDefs/MOTION</text>
<text text-anchor="middle" x="289.5" y="-275.5" font-family="Helvetica,sans-Serif" font-size="10.00">_Interface.h</text>
</a>
</g>
</g>
<!-- Node1&#45;&gt;Node2 -->
<g id="edge1" class="edge">
<title>Node1&#45;&gt;Node2</title>
<path fill="none" stroke="midnightblue" d="M289.5,-325.11C289.5,-316.15 289.5,-306.32 289.5,-298.58"/>
<polygon fill="midnightblue" stroke="midnightblue" points="286,-325.4 289.5,-335.4 293,-325.4 286,-325.4"/>
</g>
<!-- Node3 -->
<g id="node3" class="node">
<title>Node3</title>
<g id="a_node3"><a xlink:href="_m_o_t_i_o_n___commands_8hpp.html" target="_top" xlink:title=" ">
<polygon fill="none" stroke="black" points="378.5,-201.5 378.5,-231.5 500.5,-231.5 500.5,-201.5 378.5,-201.5"/>
<text text-anchor="start" x="386.5" y="-219.5" font-family="Helvetica,sans-Serif" font-size="10.00">typeClassDefs/MOTION</text>
<text text-anchor="middle" x="439.5" y="-208.5" font-family="Helvetica,sans-Serif" font-size="10.00">_Commands.hpp</text>
</a>
</g>
</g>
<!-- Node2&#45;&gt;Node3 -->
<g id="edge2" class="edge">
<title>Node2&#45;&gt;Node3</title>
<path fill="none" stroke="midnightblue" d="M331.25,-264.41C355.2,-254.03 384.82,-241.2 407.02,-231.58"/>
<polygon fill="midnightblue" stroke="midnightblue" points="329.83,-261.21 322.05,-268.4 332.61,-267.63 329.83,-261.21"/>
</g>
<!-- Node11 -->
<g id="node11" class="node">
<title>Node11</title>
<g id="a_node11"><a xlink:href="_m_o_t_i_o_n___status_8hpp.html" target="_top" xlink:title=" ">
<polygon fill="none" stroke="black" points="78.5,-201.5 78.5,-231.5 200.5,-231.5 200.5,-201.5 78.5,-201.5"/>
<text text-anchor="start" x="86.5" y="-219.5" font-family="Helvetica,sans-Serif" font-size="10.00">typeClassDefs/MOTION</text>
<text text-anchor="middle" x="139.5" y="-208.5" font-family="Helvetica,sans-Serif" font-size="10.00">_Status.hpp</text>
</a>
</g>
</g>
<!-- Node2&#45;&gt;Node11 -->
<g id="edge10" class="edge">
<title>Node2&#45;&gt;Node11</title>
<path fill="none" stroke="midnightblue" d="M247.75,-264.41C223.8,-254.03 194.18,-241.2 171.98,-231.58"/>
<polygon fill="midnightblue" stroke="midnightblue" points="246.39,-267.63 256.95,-268.4 249.17,-261.21 246.39,-267.63"/>
</g>
<!-- Node13 -->
<g id="node13" class="node">
<title>Node13</title>
<g id="a_node13"><a xlink:href="_teleoperation_control_status_8hpp.html" target="_top" xlink:title=" ">
<polygon fill="none" stroke="black" points="219,-201.5 219,-231.5 360,-231.5 360,-201.5 219,-201.5"/>
<text text-anchor="start" x="227" y="-219.5" font-family="Helvetica,sans-Serif" font-size="10.00">typeClassDefs/Teleoperation</text>
<text text-anchor="middle" x="289.5" y="-208.5" font-family="Helvetica,sans-Serif" font-size="10.00">ControlStatus.hpp</text>
</a>
</g>
</g>
<!-- Node2&#45;&gt;Node13 -->
<g id="edge13" class="edge">
<title>Node2&#45;&gt;Node13</title>
<path fill="none" stroke="midnightblue" d="M289.5,-258.11C289.5,-249.15 289.5,-239.32 289.5,-231.58"/>
<polygon fill="midnightblue" stroke="midnightblue" points="286,-258.4 289.5,-268.4 293,-258.4 286,-258.4"/>
</g>
<!-- Node4 -->
<g id="node4" class="node">
<title>Node4</title>
<g id="a_node4"><a xlink:href="guwhiteboardposter_8h.html" target="_top" xlink:title=" ">
<polygon fill="none" stroke="black" points="156,-140 156,-159 265,-159 265,-140 156,-140"/>
<text text-anchor="middle" x="210.5" y="-147" font-family="Helvetica,sans-Serif" font-size="10.00">guwhiteboardposter.h</text>
</a>
</g>
</g>
<!-- Node3&#45;&gt;Node4 -->
<g id="edge3" class="edge">
<title>Node3&#45;&gt;Node4</title>
<path fill="none" stroke="midnightblue" d="M380.21,-198.67C335.45,-185.97 275.9,-169.06 240.55,-159.03"/>
<polygon fill="midnightblue" stroke="midnightblue" points="379.52,-202.11 390.09,-201.48 381.43,-195.38 379.52,-202.11"/>
</g>
<!-- Node10 -->
<g id="node10" class="node">
<title>Node10</title>
<g id="a_node10"><a xlink:href="_m_o_t_i_o_n___commands_8h.html" target="_top" xlink:title=" ">
<polygon fill="none" stroke="black" points="442.5,-134.5 442.5,-164.5 564.5,-164.5 564.5,-134.5 442.5,-134.5"/>
<text text-anchor="start" x="450.5" y="-152.5" font-family="Helvetica,sans-Serif" font-size="10.00">typeClassDefs/MOTION</text>
<text text-anchor="middle" x="503.5" y="-141.5" font-family="Helvetica,sans-Serif" font-size="10.00">_Commands.h</text>
</a>
</g>
</g>
<!-- Node3&#45;&gt;Node10 -->
<g id="edge9" class="edge">
<title>Node3&#45;&gt;Node10</title>
<path fill="none" stroke="midnightblue" d="M460.65,-194.02C470.18,-184.34 481.17,-173.17 489.64,-164.58"/>
<polygon fill="midnightblue" stroke="midnightblue" points="457.91,-191.81 453.39,-201.4 462.9,-196.73 457.91,-191.81"/>
</g>
<!-- Node5 -->
<g id="node5" class="node">
<title>Node5</title>
<g id="a_node5"><a xlink:href="_simple_whiteboard_test_8h.html" target="_top" xlink:title=" ">
<polygon fill="none" stroke="black" points="11,-67.5 11,-97.5 136,-97.5 136,-67.5 11,-67.5"/>
<text text-anchor="start" x="19" y="-85.5" font-family="Helvetica,sans-Serif" font-size="10.00">SimpleWhiteboardTest</text>
<text text-anchor="middle" x="73.5" y="-74.5" font-family="Helvetica,sans-Serif" font-size="10.00">/SimpleWhiteboardTest.h</text>
</a>
</g>
</g>
<!-- Node4&#45;&gt;Node5 -->
<g id="edge4" class="edge">
<title>Node4&#45;&gt;Node5</title>
<path fill="none" stroke="midnightblue" d="M183.04,-135.47C159.88,-124.49 126.81,-108.79 103.07,-97.53"/>
<polygon fill="midnightblue" stroke="midnightblue" points="181.77,-138.74 192.31,-139.87 184.77,-132.42 181.77,-138.74"/>
</g>
<!-- Node7 -->
<g id="node7" class="node">
<title>Node7</title>
<g id="a_node7"><a xlink:href="guwhiteboardgetter_8h.html" target="_top" xlink:title=" ">
<polygon fill="none" stroke="black" points="157,-73 157,-92 264,-92 264,-73 157,-73"/>
<text text-anchor="middle" x="210.5" y="-80" font-family="Helvetica,sans-Serif" font-size="10.00">guwhiteboardgetter.h</text>
</a>
</g>
</g>
<!-- Node4&#45;&gt;Node7 -->
<g id="edge6" class="edge">
<title>Node4&#45;&gt;Node7</title>
<path fill="none" stroke="midnightblue" d="M210.5,-129.54C210.5,-117.17 210.5,-101.62 210.5,-92.13"/>
<polygon fill="midnightblue" stroke="midnightblue" points="207,-129.73 210.5,-139.73 214,-129.73 207,-129.73"/>
</g>
<!-- Node9 -->
<g id="node9" class="node">
<title>Node9</title>
<g id="a_node9"><a xlink:href="guwhiteboardposter_8cpp.html" target="_top" xlink:title=" ">
<polygon fill="none" stroke="black" points="282,-73 282,-92 401,-92 401,-73 282,-73"/>
<text text-anchor="middle" x="341.5" y="-80" font-family="Helvetica,sans-Serif" font-size="10.00">guwhiteboardposter.cpp</text>
</a>
</g>
</g>
<!-- Node4&#45;&gt;Node9 -->
<g id="edge8" class="edge">
<title>Node4&#45;&gt;Node9</title>
<path fill="none" stroke="midnightblue" d="M237.16,-135.27C263.1,-122.4 301.78,-103.21 324.03,-92.17"/>
<polygon fill="midnightblue" stroke="midnightblue" points="235.3,-132.29 227.9,-139.87 238.41,-138.56 235.3,-132.29"/>
</g>
<!-- Node6 -->
<g id="node6" class="node">
<title>Node6</title>
<g id="a_node6"><a xlink:href="_simple_whiteboard_test_8mm.html" target="_top" xlink:title=" ">
<polygon fill="none" stroke="black" points="0,-0.5 0,-30.5 137,-30.5 137,-0.5 0,-0.5"/>
<text text-anchor="start" x="8" y="-18.5" font-family="Helvetica,sans-Serif" font-size="10.00">SimpleWhiteboardTest</text>
<text text-anchor="middle" x="68.5" y="-7.5" font-family="Helvetica,sans-Serif" font-size="10.00">/SimpleWhiteboardTest.mm</text>
</a>
</g>
</g>
<!-- Node5&#45;&gt;Node6 -->
<g id="edge5" class="edge">
<title>Node5&#45;&gt;Node6</title>
<path fill="none" stroke="midnightblue" d="M71.65,-57.4C70.95,-48.37 70.19,-38.41 69.58,-30.58"/>
<polygon fill="midnightblue" stroke="midnightblue" points="68.16,-57.69 72.42,-67.4 75.14,-57.16 68.16,-57.69"/>
</g>
<!-- Node8 -->
<g id="node8" class="node">
<title>Node8</title>
<g id="a_node8"><a xlink:href="guwhiteboardgetter_8cpp.html" target="_top" xlink:title=" ">
<polygon fill="none" stroke="black" points="155,-6 155,-25 272,-25 272,-6 155,-6"/>
<text text-anchor="middle" x="213.5" y="-13" font-family="Helvetica,sans-Serif" font-size="10.00">guwhiteboardgetter.cpp</text>
</a>
</g>
</g>
<!-- Node7&#45;&gt;Node8 -->
<g id="edge7" class="edge">
<title>Node7&#45;&gt;Node8</title>
<path fill="none" stroke="midnightblue" d="M211.38,-62.54C211.95,-50.17 212.66,-34.62 213.1,-25.13"/>
<polygon fill="midnightblue" stroke="midnightblue" points="207.87,-62.58 210.9,-72.73 214.86,-62.91 207.87,-62.58"/>
</g>
<!-- Node11&#45;&gt;Node4 -->
<g id="edge11" class="edge">
<title>Node11&#45;&gt;Node4</title>
<path fill="none" stroke="midnightblue" d="M162.62,-194.34C175.65,-182.4 191.24,-168.14 201,-159.19"/>
<polygon fill="midnightblue" stroke="midnightblue" points="159.92,-192.06 154.91,-201.4 164.65,-197.22 159.92,-192.06"/>
</g>
<!-- Node12 -->
<g id="node12" class="node">
<title>Node12</title>
<g id="a_node12"><a xlink:href="_m_o_t_i_o_n___status_8h.html" target="_top" xlink:title=" ">
<polygon fill="none" stroke="black" points="15.5,-134.5 15.5,-164.5 137.5,-164.5 137.5,-134.5 15.5,-134.5"/>
<text text-anchor="start" x="23.5" y="-152.5" font-family="Helvetica,sans-Serif" font-size="10.00">typeClassDefs/MOTION</text>
<text text-anchor="middle" x="76.5" y="-141.5" font-family="Helvetica,sans-Serif" font-size="10.00">_Status.h</text>
</a>
</g>
</g>
<!-- Node11&#45;&gt;Node12 -->
<g id="edge12" class="edge">
<title>Node11&#45;&gt;Node12</title>
<path fill="none" stroke="midnightblue" d="M118.69,-194.02C109.3,-184.34 98.48,-173.17 90.14,-164.58"/>
<polygon fill="midnightblue" stroke="midnightblue" points="116.36,-196.65 125.83,-201.4 121.38,-191.78 116.36,-196.65"/>
</g>
<!-- Node13&#45;&gt;Node4 -->
<g id="edge14" class="edge">
<title>Node13&#45;&gt;Node4</title>
<path fill="none" stroke="midnightblue" d="M264.59,-195.01C249.93,-182.94 232.14,-168.3 221.07,-159.19"/>
<polygon fill="midnightblue" stroke="midnightblue" points="262.41,-197.75 272.36,-201.4 266.86,-192.34 262.41,-197.75"/>
</g>
<!-- Node14 -->
<g id="node14" class="node">
<title>Node14</title>
<g id="a_node14"><a xlink:href="_teleoperation_control_status_8h.html" target="_top" xlink:title=" ">
<polygon fill="none" stroke="black" points="283,-134.5 283,-164.5 424,-164.5 424,-134.5 283,-134.5"/>
<text text-anchor="start" x="291" y="-152.5" font-family="Helvetica,sans-Serif" font-size="10.00">typeClassDefs/Teleoperation</text>
<text text-anchor="middle" x="353.5" y="-141.5" font-family="Helvetica,sans-Serif" font-size="10.00">ControlStatus.h</text>
</a>
</g>
</g>
<!-- Node13&#45;&gt;Node14 -->
<g id="edge15" class="edge">
<title>Node13&#45;&gt;Node14</title>
<path fill="none" stroke="midnightblue" d="M310.65,-194.02C320.18,-184.34 331.17,-173.17 339.64,-164.58"/>
<polygon fill="midnightblue" stroke="midnightblue" points="307.91,-191.81 303.39,-201.4 312.9,-196.73 307.91,-191.81"/>
</g>
</g>
</svg>
