<?xml version="1.0" encoding="UTF-8" standalone="no"?>
<!DOCTYPE svg PUBLIC "-//W3C//DTD SVG 1.1//EN"
 "http://www.w3.org/Graphics/SVG/1.1/DTD/svg11.dtd">
<!-- Generated by graphviz version 2.49.0 (20210830.1337)
 -->
<!-- Title: typeClassDefs/MachineFilteredLines.hpp Pages: 1 -->
<svg width="698pt" height="386pt"
 viewBox="0.00 0.00 697.50 386.00" xmlns="http://www.w3.org/2000/svg" xmlns:xlink="http://www.w3.org/1999/xlink">
<g id="graph0" class="graph" transform="scale(1 1) rotate(0) translate(4 382)">
<title>typeClassDefs/MachineFilteredLines.hpp</title>
<!-- Node1 -->
<g id="node1" class="node">
<title>Node1</title>
<g id="a_node1"><a xlink:title=" ">
<polygon fill="#bfbfbf" stroke="black" points="465.5,-347.5 465.5,-377.5 617.5,-377.5 617.5,-347.5 465.5,-347.5"/>
<text text-anchor="start" x="473.5" y="-365.5" font-family="Helvetica,sans-Serif" font-size="10.00">typeClassDefs/MachineFiltered</text>
<text text-anchor="middle" x="541.5" y="-354.5" font-family="Helvetica,sans-Serif" font-size="10.00">Lines.hpp</text>
</a>
</g>
</g>
<!-- Node2 -->
<g id="node2" class="node">
<title>Node2</title>
<g id="a_node2"><a xlink:title=" ">
<polygon fill="none" stroke="#bfbfbf" points="280,-56.5 280,-75.5 325,-75.5 325,-56.5 280,-56.5"/>
<text text-anchor="middle" x="302.5" y="-63.5" font-family="Helvetica,sans-Serif" font-size="10.00">cstdlib</text>
</a>
</g>
</g>
<!-- Node1&#45;&gt;Node2 -->
<g id="edge1" class="edge">
<title>Node1&#45;&gt;Node2</title>
<path fill="none" stroke="midnightblue" d="M465.14,-351.63C363.25,-336.28 195.5,-302.44 195.5,-246 195.5,-246 195.5,-246 195.5,-182.5 195.5,-135.23 244.33,-99.12 276.01,-80.66"/>
<polygon fill="midnightblue" stroke="midnightblue" points="277.82,-83.66 284.83,-75.72 274.4,-77.55 277.82,-83.66"/>
</g>
<!-- Node3 -->
<g id="node3" class="node">
<title>Node3</title>
<g id="a_node3"><a xlink:title=" ">
<polygon fill="none" stroke="#bfbfbf" points="421.5,-56.5 421.5,-75.5 469.5,-75.5 469.5,-56.5 421.5,-56.5"/>
<text text-anchor="middle" x="445.5" y="-63.5" font-family="Helvetica,sans-Serif" font-size="10.00">string.h</text>
</a>
</g>
</g>
<!-- Node1&#45;&gt;Node3 -->
<g id="edge2" class="edge">
<title>Node1&#45;&gt;Node3</title>
<path fill="none" stroke="midnightblue" d="M552.33,-347.11C575.92,-313.86 627.3,-229.85 594.5,-168 570.28,-122.32 515.13,-93.5 479.15,-78.83"/>
<polygon fill="midnightblue" stroke="midnightblue" points="480.14,-75.45 469.55,-75.06 477.58,-81.97 480.14,-75.45"/>
</g>
<!-- Node4 -->
<g id="node4" class="node">
<title>Node4</title>
<g id="a_node4"><a xlink:title=" ">
<polygon fill="none" stroke="#bfbfbf" points="487.5,-56.5 487.5,-75.5 539.5,-75.5 539.5,-56.5 487.5,-56.5"/>
<text text-anchor="middle" x="513.5" y="-63.5" font-family="Helvetica,sans-Serif" font-size="10.00">sstream</text>
</a>
</g>
</g>
<!-- Node1&#45;&gt;Node4 -->
<g id="edge3" class="edge">
<title>Node1&#45;&gt;Node4</title>
<path fill="none" stroke="midnightblue" d="M577.24,-347.38C594.44,-339.03 614.17,-326.93 627.5,-311 647.26,-287.38 651.5,-276.8 651.5,-246 651.5,-246 651.5,-246 651.5,-182.5 651.5,-129.14 590.07,-95.56 549.18,-79.13"/>
<polygon fill="midnightblue" stroke="midnightblue" points="550.37,-75.84 539.78,-75.51 547.85,-82.37 550.37,-75.84"/>
</g>
<!-- Node5 -->
<g id="node5" class="node">
<title>Node5</title>
<g id="a_node5"><a xlink:title=" ">
<polygon fill="none" stroke="#bfbfbf" points="276,-0.5 276,-19.5 329,-19.5 329,-0.5 276,-0.5"/>
<text text-anchor="middle" x="302.5" y="-7.5" font-family="Helvetica,sans-Serif" font-size="10.00">gu_util.h</text>
</a>
</g>
</g>
<!-- Node1&#45;&gt;Node5 -->
<g id="edge4" class="edge">
<title>Node1&#45;&gt;Node5</title>
<path fill="none" stroke="midnightblue" d="M587.11,-347.42C630.6,-330.83 689.5,-298.64 689.5,-246 689.5,-246 689.5,-246 689.5,-121 689.5,-48.63 435.9,-21.34 339.28,-13.58"/>
<polygon fill="midnightblue" stroke="midnightblue" points="339.34,-10.07 329.1,-12.78 338.8,-17.05 339.34,-10.07"/>
</g>
<!-- Node6 -->
<g id="node6" class="node">
<title>Node6</title>
<g id="a_node6"><a xlink:href="wb__machine__filtered__lines_8h.html" target="_top" xlink:title=" ">
<polygon fill="none" stroke="black" points="0,-168.5 0,-198.5 105,-198.5 105,-168.5 0,-168.5"/>
<text text-anchor="start" x="8" y="-186.5" font-family="Helvetica,sans-Serif" font-size="10.00">wb_machine_filtered</text>
<text text-anchor="middle" x="52.5" y="-175.5" font-family="Helvetica,sans-Serif" font-size="10.00">_lines.h</text>
</a>
</g>
</g>
<!-- Node1&#45;&gt;Node6 -->
<g id="edge5" class="edge">
<title>Node1&#45;&gt;Node6</title>
<path fill="none" stroke="midnightblue" d="M465.2,-356.41C374.7,-349.4 229.98,-334.87 181.5,-311 132.28,-286.77 90.1,-236.6 68.32,-207.24"/>
<polygon fill="midnightblue" stroke="midnightblue" points="70.93,-204.89 62.22,-198.85 65.27,-209 70.93,-204.89"/>
</g>
<!-- Node10 -->
<g id="node10" class="node">
<title>Node10</title>
<g id="a_node10"><a xlink:href="_line_sighting_8h.html" target="_top" xlink:title=" ">
<polygon fill="none" stroke="black" points="413.5,-291.5 413.5,-310.5 491.5,-310.5 491.5,-291.5 413.5,-291.5"/>
<text text-anchor="middle" x="452.5" y="-298.5" font-family="Helvetica,sans-Serif" font-size="10.00">LineSighting.h</text>
</a>
</g>
</g>
<!-- Node1&#45;&gt;Node10 -->
<g id="edge14" class="edge">
<title>Node1&#45;&gt;Node10</title>
<path fill="none" stroke="midnightblue" d="M520.41,-347.4C506.41,-338.04 488.09,-325.79 474.01,-316.38"/>
<polygon fill="midnightblue" stroke="midnightblue" points="475.71,-313.31 465.45,-310.66 471.82,-319.13 475.71,-313.31"/>
</g>
<!-- Node14 -->
<g id="node14" class="node">
<title>Node14</title>
<g id="a_node14"><a xlink:title=" ">
<polygon fill="none" stroke="#bfbfbf" points="498,-174 498,-193 585,-193 585,-174 498,-174"/>
<text text-anchor="middle" x="541.5" y="-181" font-family="Helvetica,sans-Serif" font-size="10.00">SimpleShapes.h</text>
</a>
</g>
</g>
<!-- Node1&#45;&gt;Node14 -->
<g id="edge29" class="edge">
<title>Node1&#45;&gt;Node14</title>
<path fill="none" stroke="midnightblue" d="M541.5,-347.31C541.5,-315.63 541.5,-239.11 541.5,-203.42"/>
<polygon fill="midnightblue" stroke="midnightblue" points="545,-203.37 541.5,-193.37 538,-203.37 545,-203.37"/>
</g>
<!-- Node6&#45;&gt;Node5 -->
<g id="edge6" class="edge">
<title>Node6&#45;&gt;Node5</title>
<path fill="none" stroke="midnightblue" d="M52.65,-168.25C53.22,-153.66 55.33,-130.57 62.5,-112 73.34,-83.94 75.62,-72.91 100.5,-56 150.74,-21.86 222.72,-13.19 265.81,-11.23"/>
<polygon fill="midnightblue" stroke="midnightblue" points="265.99,-14.73 275.86,-10.88 265.74,-7.73 265.99,-14.73"/>
</g>
<!-- Node7 -->
<g id="node7" class="node">
<title>Node7</title>
<g id="a_node7"><a xlink:title=" ">
<polygon fill="none" stroke="#bfbfbf" points="57.5,-0.5 57.5,-19.5 105.5,-19.5 105.5,-0.5 57.5,-0.5"/>
<text text-anchor="middle" x="81.5" y="-7.5" font-family="Helvetica,sans-Serif" font-size="10.00">stdint.h</text>
</a>
</g>
</g>
<!-- Node6&#45;&gt;Node7 -->
<g id="edge7" class="edge">
<title>Node6&#45;&gt;Node7</title>
<path fill="none" stroke="midnightblue" d="M44.14,-168.48C38.78,-158.65 32.32,-144.99 29.5,-132 22.34,-98.99 15.46,-86.72 29.5,-56 35.28,-43.36 46.55,-32.91 57.13,-25.27"/>
<polygon fill="midnightblue" stroke="midnightblue" points="59.35,-28 65.72,-19.53 55.46,-22.18 59.35,-28"/>
</g>
<!-- Node8 -->
<g id="node8" class="node">
<title>Node8</title>
<g id="a_node8"><a xlink:href="wb__line__sighting_8h.html" target="_top" xlink:title=" ">
<polygon fill="none" stroke="black" points="71.5,-112.5 71.5,-131.5 167.5,-131.5 167.5,-112.5 71.5,-112.5"/>
<text text-anchor="middle" x="119.5" y="-119.5" font-family="Helvetica,sans-Serif" font-size="10.00">wb_line_sighting.h</text>
</a>
</g>
</g>
<!-- Node6&#45;&gt;Node8 -->
<g id="edge8" class="edge">
<title>Node6&#45;&gt;Node8</title>
<path fill="none" stroke="midnightblue" d="M68.38,-168.4C78.52,-159.4 91.66,-147.72 102.09,-138.47"/>
<polygon fill="midnightblue" stroke="midnightblue" points="104.6,-140.92 109.75,-131.66 99.95,-135.68 104.6,-140.92"/>
</g>
<!-- Node8&#45;&gt;Node5 -->
<g id="edge9" class="edge">
<title>Node8&#45;&gt;Node5</title>
<path fill="none" stroke="midnightblue" d="M148.94,-112.4C172.37,-104.81 205.43,-92.41 231.5,-76 253.26,-62.31 274.5,-41.61 287.99,-27.26"/>
<polygon fill="midnightblue" stroke="midnightblue" points="290.8,-29.38 294.99,-19.65 285.64,-24.64 290.8,-29.38"/>
</g>
<!-- Node8&#45;&gt;Node7 -->
<g id="edge10" class="edge">
<title>Node8&#45;&gt;Node7</title>
<path fill="none" stroke="midnightblue" d="M115.56,-112.49C111.49,-103.53 105.11,-88.94 100.5,-76 94.96,-60.42 89.77,-42.35 86.22,-29.22"/>
<polygon fill="midnightblue" stroke="midnightblue" points="89.6,-28.29 83.65,-19.51 82.83,-30.08 89.6,-28.29"/>
</g>
<!-- Node9 -->
<g id="node9" class="node">
<title>Node9</title>
<g id="a_node9"><a xlink:href="wb__polar__coordinate_8h.html" target="_top" xlink:title=" ">
<polygon fill="none" stroke="black" points="110,-56.5 110,-75.5 223,-75.5 223,-56.5 110,-56.5"/>
<text text-anchor="middle" x="166.5" y="-63.5" font-family="Helvetica,sans-Serif" font-size="10.00">wb_polar_coordinate.h</text>
</a>
</g>
</g>
<!-- Node8&#45;&gt;Node9 -->
<g id="edge11" class="edge">
<title>Node8&#45;&gt;Node9</title>
<path fill="none" stroke="midnightblue" d="M127.26,-112.08C134.04,-104.3 144.04,-92.8 152.26,-83.37"/>
<polygon fill="midnightblue" stroke="midnightblue" points="154.96,-85.59 158.88,-75.75 149.68,-81 154.96,-85.59"/>
</g>
<!-- Node9&#45;&gt;Node5 -->
<g id="edge12" class="edge">
<title>Node9&#45;&gt;Node5</title>
<path fill="none" stroke="midnightblue" d="M188.05,-56.44C210.53,-47.52 245.99,-33.44 271.48,-23.32"/>
<polygon fill="midnightblue" stroke="midnightblue" points="273.05,-26.46 281.05,-19.52 270.47,-19.95 273.05,-26.46"/>
</g>
<!-- Node9&#45;&gt;Node7 -->
<g id="edge13" class="edge">
<title>Node9&#45;&gt;Node7</title>
<path fill="none" stroke="midnightblue" d="M152.84,-56.32C139.58,-47.9 119.23,-34.97 103.65,-25.07"/>
<polygon fill="midnightblue" stroke="midnightblue" points="105.44,-22.06 95.12,-19.65 101.69,-27.97 105.44,-22.06"/>
</g>
<!-- Node11 -->
<g id="node11" class="node">
<title>Node11</title>
<g id="a_node11"><a xlink:href="_line_sighting_8hpp.html" target="_top" xlink:title=" ">
<polygon fill="none" stroke="black" points="368,-235.5 368,-254.5 457,-254.5 457,-235.5 368,-235.5"/>
<text text-anchor="middle" x="412.5" y="-242.5" font-family="Helvetica,sans-Serif" font-size="10.00">LineSighting.hpp</text>
</a>
</g>
</g>
<!-- Node10&#45;&gt;Node11 -->
<g id="edge15" class="edge">
<title>Node10&#45;&gt;Node11</title>
<path fill="none" stroke="midnightblue" d="M445.89,-291.08C440.24,-283.46 431.96,-272.26 425.05,-262.94"/>
<polygon fill="midnightblue" stroke="midnightblue" points="427.75,-260.7 418.98,-254.75 422.12,-264.87 427.75,-260.7"/>
</g>
<!-- Node11&#45;&gt;Node2 -->
<g id="edge16" class="edge">
<title>Node11&#45;&gt;Node2</title>
<path fill="none" stroke="midnightblue" d="M367.79,-243.54C332.76,-240.61 285.72,-230.49 259.5,-199 234.68,-169.19 236.72,-147.44 252.5,-112 258.07,-99.5 269.02,-89.01 279.25,-81.32"/>
<polygon fill="midnightblue" stroke="midnightblue" points="281.35,-84.12 287.55,-75.53 277.34,-78.38 281.35,-84.12"/>
</g>
<!-- Node11&#45;&gt;Node3 -->
<g id="edge17" class="edge">
<title>Node11&#45;&gt;Node3</title>
<path fill="none" stroke="midnightblue" d="M414.09,-235.46C419.13,-208.43 434.83,-124.24 441.94,-86.11"/>
<polygon fill="midnightblue" stroke="midnightblue" points="445.45,-86.34 443.85,-75.87 438.57,-85.06 445.45,-86.34"/>
</g>
<!-- Node11&#45;&gt;Node4 -->
<g id="edge18" class="edge">
<title>Node11&#45;&gt;Node4</title>
<path fill="none" stroke="midnightblue" d="M417.5,-235.38C422.75,-226.33 431.23,-211.68 438.5,-199 461.98,-158.02 489.34,-109.72 503.64,-84.44"/>
<polygon fill="midnightblue" stroke="midnightblue" points="506.73,-86.09 508.61,-75.66 500.64,-82.64 506.73,-86.09"/>
</g>
<!-- Node11&#45;&gt;Node5 -->
<g id="edge19" class="edge">
<title>Node11&#45;&gt;Node5</title>
<path fill="none" stroke="midnightblue" d="M411.34,-235.34C407.2,-207.14 391.1,-116.24 348.5,-56 340.8,-45.11 330.27,-34.58 321.23,-26.45"/>
<polygon fill="midnightblue" stroke="midnightblue" points="323.31,-23.63 313.47,-19.72 318.73,-28.92 323.31,-23.63"/>
</g>
<!-- Node11&#45;&gt;Node8 -->
<g id="edge20" class="edge">
<title>Node11&#45;&gt;Node8</title>
<path fill="none" stroke="midnightblue" d="M367.83,-239C327.55,-233.25 267.45,-221.54 219.5,-199 186.49,-183.48 153.93,-155.8 135.32,-138.47"/>
<polygon fill="midnightblue" stroke="midnightblue" points="137.68,-135.89 128.02,-131.54 132.86,-140.96 137.68,-135.89"/>
</g>
<!-- Node12 -->
<g id="node12" class="node">
<title>Node12</title>
<g id="a_node12"><a xlink:href="_polar_coordinate_8h.html" target="_top" xlink:title=" ">
<polygon fill="none" stroke="black" points="269,-174 269,-193 362,-193 362,-174 269,-174"/>
<text text-anchor="middle" x="315.5" y="-181" font-family="Helvetica,sans-Serif" font-size="10.00">PolarCoordinate.h</text>
</a>
</g>
</g>
<!-- Node11&#45;&gt;Node12 -->
<g id="edge21" class="edge">
<title>Node11&#45;&gt;Node12</title>
<path fill="none" stroke="midnightblue" d="M398.6,-235.48C382.83,-225.8 356.86,-209.87 338.15,-198.39"/>
<polygon fill="midnightblue" stroke="midnightblue" points="339.73,-195.25 329.37,-193.01 336.07,-201.22 339.73,-195.25"/>
</g>
<!-- Node11&#45;&gt;Node14 -->
<g id="edge28" class="edge">
<title>Node11&#45;&gt;Node14</title>
<path fill="none" stroke="midnightblue" d="M430.98,-235.48C452.63,-225.49 488.71,-208.85 513.73,-197.31"/>
<polygon fill="midnightblue" stroke="midnightblue" points="515.44,-200.38 523.05,-193.01 512.51,-194.02 515.44,-200.38"/>
</g>
<!-- Node13 -->
<g id="node13" class="node">
<title>Node13</title>
<g id="a_node13"><a xlink:href="_polar_coordinate_8hpp.html" target="_top" xlink:title=" ">
<polygon fill="none" stroke="black" points="261.5,-112.5 261.5,-131.5 365.5,-131.5 365.5,-112.5 261.5,-112.5"/>
<text text-anchor="middle" x="313.5" y="-119.5" font-family="Helvetica,sans-Serif" font-size="10.00">PolarCoordinate.hpp</text>
</a>
</g>
</g>
<!-- Node12&#45;&gt;Node13 -->
<g id="edge22" class="edge">
<title>Node12&#45;&gt;Node13</title>
<path fill="none" stroke="midnightblue" d="M315.21,-173.98C314.93,-165.58 314.49,-152.48 314.13,-141.66"/>
<polygon fill="midnightblue" stroke="midnightblue" points="317.62,-141.39 313.79,-131.51 310.62,-141.62 317.62,-141.39"/>
</g>
<!-- Node13&#45;&gt;Node2 -->
<g id="edge23" class="edge">
<title>Node13&#45;&gt;Node2</title>
<path fill="none" stroke="midnightblue" d="M311.68,-112.08C310.23,-104.93 308.13,-94.64 306.31,-85.69"/>
<polygon fill="midnightblue" stroke="midnightblue" points="309.71,-84.85 304.28,-75.75 302.85,-86.25 309.71,-84.85"/>
</g>
<!-- Node13&#45;&gt;Node3 -->
<g id="edge24" class="edge">
<title>Node13&#45;&gt;Node3</title>
<path fill="none" stroke="midnightblue" d="M334.42,-112.44C356.24,-103.52 390.65,-89.44 415.39,-79.32"/>
<polygon fill="midnightblue" stroke="midnightblue" points="416.75,-82.54 424.68,-75.52 414.1,-76.06 416.75,-82.54"/>
</g>
<!-- Node13&#45;&gt;Node4 -->
<g id="edge25" class="edge">
<title>Node13&#45;&gt;Node4</title>
<path fill="none" stroke="midnightblue" d="M345.19,-112.44C381.13,-102.74 439.63,-86.95 477.33,-76.77"/>
<polygon fill="midnightblue" stroke="midnightblue" points="478.63,-80.04 487.38,-74.05 476.81,-73.28 478.63,-80.04"/>
</g>
<!-- Node13&#45;&gt;Node5 -->
<g id="edge26" class="edge">
<title>Node13&#45;&gt;Node5</title>
<path fill="none" stroke="midnightblue" d="M319.68,-112.16C327.64,-99.65 339.74,-76.07 333.5,-56 330.27,-45.62 323.72,-35.52 317.48,-27.53"/>
<polygon fill="midnightblue" stroke="midnightblue" points="320.08,-25.19 310.98,-19.77 314.71,-29.68 320.08,-25.19"/>
</g>
<!-- Node13&#45;&gt;Node9 -->
<g id="edge27" class="edge">
<title>Node13&#45;&gt;Node9</title>
<path fill="none" stroke="midnightblue" d="M290.21,-112.44C265.69,-103.44 226.9,-89.19 199.3,-79.05"/>
<polygon fill="midnightblue" stroke="midnightblue" points="200.28,-75.68 189.68,-75.52 197.86,-82.25 200.28,-75.68"/>
</g>
</g>
</svg>
