<?xml version="1.0" encoding="UTF-8" standalone="no"?>
<!DOCTYPE svg PUBLIC "-//W3C//DTD SVG 1.1//EN"
 "http://www.w3.org/Graphics/SVG/1.1/DTD/svg11.dtd">
<!-- Generated by graphviz version 2.49.0 (20210830.1337)
 -->
<!-- Title: typeClassDefs/MachineFilteredLocalisationVision.h Pages: 1 -->
<svg width="466pt" height="341pt"
 viewBox="0.00 0.00 465.99 341.00" xmlns="http://www.w3.org/2000/svg" xmlns:xlink="http://www.w3.org/1999/xlink">
<g id="graph0" class="graph" transform="scale(1 1) rotate(0) translate(4 337)">
<title>typeClassDefs/MachineFilteredLocalisationVision.h</title>
<!-- Node1 -->
<g id="node1" class="node">
<title>Node1</title>
<g id="a_node1"><a xlink:title=" ">
<polygon fill="#bfbfbf" stroke="black" points="107.5,-302.5 107.5,-332.5 259.5,-332.5 259.5,-302.5 107.5,-302.5"/>
<text text-anchor="start" x="115.5" y="-320.5" font-family="Helvetica,sans-Serif" font-size="10.00">typeClassDefs/MachineFiltered</text>
<text text-anchor="middle" x="183.5" y="-309.5" font-family="Helvetica,sans-Serif" font-size="10.00">LocalisationVision.h</text>
</a>
</g>
</g>
<!-- Node2 -->
<g id="node2" class="node">
<title>Node2</title>
<g id="a_node2"><a xlink:href="_machine_filtered_localisation_vision_8hpp.html" target="_top" xlink:title=" ">
<polygon fill="none" stroke="black" points="114.5,-235.5 114.5,-265.5 252.5,-265.5 252.5,-235.5 114.5,-235.5"/>
<text text-anchor="start" x="122.5" y="-253.5" font-family="Helvetica,sans-Serif" font-size="10.00">MachineFilteredLocalisation</text>
<text text-anchor="middle" x="183.5" y="-242.5" font-family="Helvetica,sans-Serif" font-size="10.00">Vision.hpp</text>
</a>
</g>
</g>
<!-- Node1&#45;&gt;Node2 -->
<g id="edge1" class="edge">
<title>Node1&#45;&gt;Node2</title>
<path fill="none" stroke="midnightblue" d="M183.5,-302.4C183.5,-294.64 183.5,-284.81 183.5,-275.86"/>
<polygon fill="midnightblue" stroke="midnightblue" points="187,-275.58 183.5,-265.58 180,-275.58 187,-275.58"/>
</g>
<!-- Node3 -->
<g id="node3" class="node">
<title>Node3</title>
<g id="a_node3"><a xlink:title=" ">
<polygon fill="none" stroke="#bfbfbf" points="0,-56.5 0,-75.5 45,-75.5 45,-56.5 0,-56.5"/>
<text text-anchor="middle" x="22.5" y="-63.5" font-family="Helvetica,sans-Serif" font-size="10.00">cstdlib</text>
</a>
</g>
</g>
<!-- Node2&#45;&gt;Node3 -->
<g id="edge2" class="edge">
<title>Node2&#45;&gt;Node3</title>
<path fill="none" stroke="midnightblue" d="M127.78,-235.39C106.82,-227.66 84.26,-216.05 68.5,-199 38.53,-166.58 27.92,-113.57 24.3,-85.61"/>
<polygon fill="midnightblue" stroke="midnightblue" points="27.77,-85.14 23.16,-75.6 20.81,-85.93 27.77,-85.14"/>
</g>
<!-- Node4 -->
<g id="node4" class="node">
<title>Node4</title>
<g id="a_node4"><a xlink:title=" ">
<polygon fill="none" stroke="#bfbfbf" points="66.5,-56.5 66.5,-75.5 114.5,-75.5 114.5,-56.5 66.5,-56.5"/>
<text text-anchor="middle" x="90.5" y="-63.5" font-family="Helvetica,sans-Serif" font-size="10.00">string.h</text>
</a>
</g>
</g>
<!-- Node2&#45;&gt;Node4 -->
<g id="edge3" class="edge">
<title>Node2&#45;&gt;Node4</title>
<path fill="none" stroke="midnightblue" d="M131.21,-235.4C112.34,-227.69 92.7,-216.1 80.5,-199 56.23,-164.98 71.49,-112.68 82.36,-85.24"/>
<polygon fill="midnightblue" stroke="midnightblue" points="85.71,-86.3 86.36,-75.73 79.26,-83.59 85.71,-86.3"/>
</g>
<!-- Node5 -->
<g id="node5" class="node">
<title>Node5</title>
<g id="a_node5"><a xlink:title=" ">
<polygon fill="none" stroke="#bfbfbf" points="175.5,-56.5 175.5,-75.5 227.5,-75.5 227.5,-56.5 175.5,-56.5"/>
<text text-anchor="middle" x="201.5" y="-63.5" font-family="Helvetica,sans-Serif" font-size="10.00">sstream</text>
</a>
</g>
</g>
<!-- Node2&#45;&gt;Node5 -->
<g id="edge4" class="edge">
<title>Node2&#45;&gt;Node5</title>
<path fill="none" stroke="midnightblue" d="M189.84,-235.23C193.94,-225.28 198.97,-211.59 201.5,-199 209.43,-159.45 206.46,-111.87 203.82,-86.01"/>
<polygon fill="midnightblue" stroke="midnightblue" points="207.27,-85.31 202.68,-75.77 200.31,-86.09 207.27,-85.31"/>
</g>
<!-- Node6 -->
<g id="node6" class="node">
<title>Node6</title>
<g id="a_node6"><a xlink:title=" ">
<polygon fill="none" stroke="#bfbfbf" points="285,-0.5 285,-19.5 338,-19.5 338,-0.5 285,-0.5"/>
<text text-anchor="middle" x="311.5" y="-7.5" font-family="Helvetica,sans-Serif" font-size="10.00">gu_util.h</text>
</a>
</g>
</g>
<!-- Node2&#45;&gt;Node6 -->
<g id="edge5" class="edge">
<title>Node2&#45;&gt;Node6</title>
<path fill="none" stroke="midnightblue" d="M193.98,-235.32C201.06,-225.41 210.38,-211.73 217.5,-199 251.56,-138.06 249.06,-117.28 282.5,-56 287.68,-46.52 294.13,-36.37 299.64,-28.11"/>
<polygon fill="midnightblue" stroke="midnightblue" points="302.6,-29.97 305.33,-19.73 296.81,-26.04 302.6,-29.97"/>
</g>
<!-- Node7 -->
<g id="node7" class="node">
<title>Node7</title>
<g id="a_node7"><a xlink:href="wb__machine__filtered__localisation__vision_8h.html" target="_top" xlink:title=" ">
<polygon fill="none" stroke="black" points="341,-112.5 341,-142.5 450,-142.5 450,-112.5 341,-112.5"/>
<text text-anchor="start" x="349" y="-130.5" font-family="Helvetica,sans-Serif" font-size="10.00">wb_machine_filtered</text>
<text text-anchor="middle" x="395.5" y="-119.5" font-family="Helvetica,sans-Serif" font-size="10.00">_localisation_vision.h</text>
</a>
</g>
</g>
<!-- Node2&#45;&gt;Node7 -->
<g id="edge6" class="edge">
<title>Node2&#45;&gt;Node7</title>
<path fill="none" stroke="midnightblue" d="M210.1,-235.39C228.78,-225.41 254.29,-211.6 276.5,-199 306.32,-182.08 339.88,-162.11 363.75,-147.75"/>
<polygon fill="midnightblue" stroke="midnightblue" points="365.63,-150.7 372.39,-142.54 362.02,-144.7 365.63,-150.7"/>
</g>
<!-- Node10 -->
<g id="node10" class="node">
<title>Node10</title>
<g id="a_node10"><a xlink:href="_landmark_sighting_8h.html" target="_top" xlink:title=" ">
<polygon fill="none" stroke="black" points="90,-179.5 90,-198.5 193,-198.5 193,-179.5 90,-179.5"/>
<text text-anchor="middle" x="141.5" y="-186.5" font-family="Helvetica,sans-Serif" font-size="10.00">LandmarkSighting.h</text>
</a>
</g>
</g>
<!-- Node2&#45;&gt;Node10 -->
<g id="edge12" class="edge">
<title>Node2&#45;&gt;Node10</title>
<path fill="none" stroke="midnightblue" d="M173.55,-235.4C167.51,-226.84 159.76,-215.87 153.4,-206.86"/>
<polygon fill="midnightblue" stroke="midnightblue" points="156.24,-204.81 147.61,-198.66 150.52,-208.85 156.24,-204.81"/>
</g>
<!-- Node7&#45;&gt;Node6 -->
<g id="edge7" class="edge">
<title>Node7&#45;&gt;Node6</title>
<path fill="none" stroke="midnightblue" d="M407.99,-112.34C419.57,-97.41 433.35,-73.65 421.5,-56 412.86,-43.13 376.46,-29.86 347.86,-21.1"/>
<polygon fill="midnightblue" stroke="midnightblue" points="348.72,-17.7 338.13,-18.2 346.71,-24.41 348.72,-17.7"/>
</g>
<!-- Node8 -->
<g id="node8" class="node">
<title>Node8</title>
<g id="a_node8"><a xlink:title=" ">
<polygon fill="none" stroke="#bfbfbf" points="366.5,-0.5 366.5,-19.5 414.5,-19.5 414.5,-0.5 366.5,-0.5"/>
<text text-anchor="middle" x="390.5" y="-7.5" font-family="Helvetica,sans-Serif" font-size="10.00">stdint.h</text>
</a>
</g>
</g>
<!-- Node7&#45;&gt;Node8 -->
<g id="edge8" class="edge">
<title>Node7&#45;&gt;Node8</title>
<path fill="none" stroke="midnightblue" d="M421.13,-112.49C441.87,-99.17 465.9,-77.95 454.5,-56 447.35,-42.23 433.83,-31.78 421.05,-24.44"/>
<polygon fill="midnightblue" stroke="midnightblue" points="422.46,-21.23 411.98,-19.64 419.18,-27.41 422.46,-21.23"/>
</g>
<!-- Node9 -->
<g id="node9" class="node">
<title>Node9</title>
<g id="a_node9"><a xlink:href="wb__landmark__sighting_8h.html" target="_top" xlink:title=" ">
<polygon fill="none" stroke="black" points="291,-56.5 291,-75.5 412,-75.5 412,-56.5 291,-56.5"/>
<text text-anchor="middle" x="351.5" y="-63.5" font-family="Helvetica,sans-Serif" font-size="10.00">wb_landmark_sighting.h</text>
</a>
</g>
</g>
<!-- Node7&#45;&gt;Node9 -->
<g id="edge9" class="edge">
<title>Node7&#45;&gt;Node9</title>
<path fill="none" stroke="midnightblue" d="M385.07,-112.4C378.74,-103.84 370.63,-92.87 363.97,-83.86"/>
<polygon fill="midnightblue" stroke="midnightblue" points="366.66,-81.62 357.9,-75.66 361.03,-85.78 366.66,-81.62"/>
</g>
<!-- Node9&#45;&gt;Node6 -->
<g id="edge10" class="edge">
<title>Node9&#45;&gt;Node6</title>
<path fill="none" stroke="midnightblue" d="M344.89,-56.08C339.24,-48.46 330.96,-37.26 324.05,-27.94"/>
<polygon fill="midnightblue" stroke="midnightblue" points="326.75,-25.7 317.98,-19.75 321.12,-29.87 326.75,-25.7"/>
</g>
<!-- Node9&#45;&gt;Node8 -->
<g id="edge11" class="edge">
<title>Node9&#45;&gt;Node8</title>
<path fill="none" stroke="midnightblue" d="M357.94,-56.08C363.45,-48.46 371.53,-37.26 378.26,-27.94"/>
<polygon fill="midnightblue" stroke="midnightblue" points="381.16,-29.91 384.18,-19.75 375.49,-25.81 381.16,-29.91"/>
</g>
<!-- Node11 -->
<g id="node11" class="node">
<title>Node11</title>
<g id="a_node11"><a xlink:href="_landmark_sighting_8hpp.html" target="_top" xlink:title=" ">
<polygon fill="none" stroke="black" points="83,-118 83,-137 196,-137 196,-118 83,-118"/>
<text text-anchor="middle" x="139.5" y="-125" font-family="Helvetica,sans-Serif" font-size="10.00">LandmarkSighting.hpp</text>
</a>
</g>
</g>
<!-- Node10&#45;&gt;Node11 -->
<g id="edge13" class="edge">
<title>Node10&#45;&gt;Node11</title>
<path fill="none" stroke="midnightblue" d="M141.21,-179.48C140.93,-171.08 140.49,-157.98 140.13,-147.16"/>
<polygon fill="midnightblue" stroke="midnightblue" points="143.62,-146.89 139.79,-137.01 136.62,-147.12 143.62,-146.89"/>
</g>
<!-- Node11&#45;&gt;Node3 -->
<g id="edge14" class="edge">
<title>Node11&#45;&gt;Node3</title>
<path fill="none" stroke="midnightblue" d="M122.74,-117.98C103.28,-108.08 70.95,-91.64 48.29,-80.12"/>
<polygon fill="midnightblue" stroke="midnightblue" points="49.73,-76.92 39.23,-75.51 46.56,-83.16 49.73,-76.92"/>
</g>
<!-- Node11&#45;&gt;Node4 -->
<g id="edge15" class="edge">
<title>Node11&#45;&gt;Node4</title>
<path fill="none" stroke="midnightblue" d="M132.48,-117.98C125.06,-108.96 113.17,-94.52 103.93,-83.31"/>
<polygon fill="midnightblue" stroke="midnightblue" points="106.57,-81 97.51,-75.51 101.16,-85.45 106.57,-81"/>
</g>
<!-- Node11&#45;&gt;Node5 -->
<g id="edge16" class="edge">
<title>Node11&#45;&gt;Node5</title>
<path fill="none" stroke="midnightblue" d="M148.38,-117.98C157.96,-108.78 173.41,-93.96 185.19,-82.66"/>
<polygon fill="midnightblue" stroke="midnightblue" points="187.84,-84.96 192.63,-75.51 182.99,-79.91 187.84,-84.96"/>
</g>
<!-- Node11&#45;&gt;Node6 -->
<g id="edge17" class="edge">
<title>Node11&#45;&gt;Node6</title>
<path fill="none" stroke="midnightblue" d="M140.4,-117.79C142.39,-102.97 148.52,-72.85 166.5,-56 196.09,-28.27 242.48,-17.62 274.8,-13.53"/>
<polygon fill="midnightblue" stroke="midnightblue" points="275.2,-17.01 284.75,-12.42 274.43,-10.05 275.2,-17.01"/>
</g>
<!-- Node11&#45;&gt;Node9 -->
<g id="edge18" class="edge">
<title>Node11&#45;&gt;Node9</title>
<path fill="none" stroke="midnightblue" d="M169.87,-117.98C207.11,-107.53 270.31,-89.79 311.48,-78.23"/>
<polygon fill="midnightblue" stroke="midnightblue" points="312.5,-81.58 321.18,-75.51 310.61,-74.84 312.5,-81.58"/>
</g>
</g>
</svg>
