<?xml version="1.0" encoding="UTF-8" standalone="no"?>
<!DOCTYPE svg PUBLIC "-//W3C//DTD SVG 1.1//EN"
 "http://www.w3.org/Graphics/SVG/1.1/DTD/svg11.dtd">
<!-- Generated by graphviz version 2.49.0 (20210830.1337)
 -->
<!-- Title: typeClassDefs/MemoryImageControlStatus.h Pages: 1 -->
<svg width="381pt" height="218pt"
 viewBox="0.00 0.00 381.00 218.00" xmlns="http://www.w3.org/2000/svg" xmlns:xlink="http://www.w3.org/1999/xlink">
<g id="graph0" class="graph" transform="scale(1 1) rotate(0) translate(4 214)">
<title>typeClassDefs/MemoryImageControlStatus.h</title>
<!-- Node1 -->
<g id="node1" class="node">
<title>Node1</title>
<g id="a_node1"><a xlink:title=" ">
<polygon fill="#bfbfbf" stroke="black" points="83.5,-179.5 83.5,-209.5 227.5,-209.5 227.5,-179.5 83.5,-179.5"/>
<text text-anchor="start" x="91.5" y="-197.5" font-family="Helvetica,sans-Serif" font-size="10.00">typeClassDefs/MemoryImage</text>
<text text-anchor="middle" x="155.5" y="-186.5" font-family="Helvetica,sans-Serif" font-size="10.00">ControlStatus.h</text>
</a>
</g>
</g>
<!-- Node2 -->
<g id="node2" class="node">
<title>Node2</title>
<g id="a_node2"><a xlink:href="_memory_image_control_status_8hpp.html" target="_top" xlink:title=" ">
<polygon fill="none" stroke="black" points="78,-123.5 78,-142.5 233,-142.5 233,-123.5 78,-123.5"/>
<text text-anchor="middle" x="155.5" y="-130.5" font-family="Helvetica,sans-Serif" font-size="10.00">MemoryImageControlStatus.hpp</text>
</a>
</g>
</g>
<!-- Node1&#45;&gt;Node2 -->
<g id="edge1" class="edge">
<title>Node1&#45;&gt;Node2</title>
<path fill="none" stroke="midnightblue" d="M155.5,-179.4C155.5,-171.47 155.5,-161.46 155.5,-152.86"/>
<polygon fill="midnightblue" stroke="midnightblue" points="159,-152.66 155.5,-142.66 152,-152.66 159,-152.66"/>
</g>
<!-- Node3 -->
<g id="node3" class="node">
<title>Node3</title>
<g id="a_node3"><a xlink:title=" ">
<polygon fill="none" stroke="#bfbfbf" points="0,-62 0,-81 45,-81 45,-62 0,-62"/>
<text text-anchor="middle" x="22.5" y="-69" font-family="Helvetica,sans-Serif" font-size="10.00">cstdlib</text>
</a>
</g>
</g>
<!-- Node2&#45;&gt;Node3 -->
<g id="edge2" class="edge">
<title>Node2&#45;&gt;Node3</title>
<path fill="none" stroke="midnightblue" d="M136.12,-123.41C115.78,-114.38 82.87,-99.75 54.5,-87 53.31,-86.47 52.1,-85.92 50.87,-85.37"/>
<polygon fill="midnightblue" stroke="midnightblue" points="52,-82.03 41.44,-81.11 49.11,-88.41 52,-82.03"/>
</g>
<!-- Node4 -->
<g id="node4" class="node">
<title>Node4</title>
<g id="a_node4"><a xlink:title=" ">
<polygon fill="none" stroke="#bfbfbf" points="63.5,-62 63.5,-81 111.5,-81 111.5,-62 63.5,-62"/>
<text text-anchor="middle" x="87.5" y="-69" font-family="Helvetica,sans-Serif" font-size="10.00">string.h</text>
</a>
</g>
</g>
<!-- Node2&#45;&gt;Node4 -->
<g id="edge3" class="edge">
<title>Node2&#45;&gt;Node4</title>
<path fill="none" stroke="midnightblue" d="M145.76,-123.48C135.15,-114.2 117.98,-99.17 105.02,-87.83"/>
<polygon fill="midnightblue" stroke="midnightblue" points="107.06,-84.96 97.22,-81.01 102.45,-90.23 107.06,-84.96"/>
</g>
<!-- Node5 -->
<g id="node5" class="node">
<title>Node5</title>
<g id="a_node5"><a xlink:title=" ">
<polygon fill="none" stroke="#bfbfbf" points="129.5,-62 129.5,-81 181.5,-81 181.5,-62 129.5,-62"/>
<text text-anchor="middle" x="155.5" y="-69" font-family="Helvetica,sans-Serif" font-size="10.00">sstream</text>
</a>
</g>
</g>
<!-- Node2&#45;&gt;Node5 -->
<g id="edge4" class="edge">
<title>Node2&#45;&gt;Node5</title>
<path fill="none" stroke="midnightblue" d="M155.5,-123.48C155.5,-115.08 155.5,-101.98 155.5,-91.16"/>
<polygon fill="midnightblue" stroke="midnightblue" points="159,-91.01 155.5,-81.01 152,-91.01 159,-91.01"/>
</g>
<!-- Node6 -->
<g id="node6" class="node">
<title>Node6</title>
<g id="a_node6"><a xlink:title=" ">
<polygon fill="none" stroke="#bfbfbf" points="197,-0.5 197,-19.5 250,-19.5 250,-0.5 197,-0.5"/>
<text text-anchor="middle" x="223.5" y="-7.5" font-family="Helvetica,sans-Serif" font-size="10.00">gu_util.h</text>
</a>
</g>
</g>
<!-- Node2&#45;&gt;Node6 -->
<g id="edge5" class="edge">
<title>Node2&#45;&gt;Node6</title>
<path fill="none" stroke="midnightblue" d="M163.45,-123.18C171.06,-114.44 182.52,-100.45 190.5,-87 201.59,-68.3 211.09,-45.2 217.01,-29.4"/>
<polygon fill="midnightblue" stroke="midnightblue" points="220.38,-30.37 220.51,-19.78 213.8,-27.98 220.38,-30.37"/>
</g>
<!-- Node7 -->
<g id="node7" class="node">
<title>Node7</title>
<g id="a_node7"><a xlink:href="wb__memory__image__control__status_8h.html" target="_top" xlink:title=" ">
<polygon fill="none" stroke="black" points="238,-56.5 238,-86.5 373,-86.5 373,-56.5 238,-56.5"/>
<text text-anchor="start" x="246" y="-74.5" font-family="Helvetica,sans-Serif" font-size="10.00">wb_memory_image_control</text>
<text text-anchor="middle" x="305.5" y="-63.5" font-family="Helvetica,sans-Serif" font-size="10.00">_status.h</text>
</a>
</g>
</g>
<!-- Node2&#45;&gt;Node7 -->
<g id="edge6" class="edge">
<title>Node2&#45;&gt;Node7</title>
<path fill="none" stroke="midnightblue" d="M176.99,-123.48C198.73,-114.85 232.99,-101.26 260.66,-90.29"/>
<polygon fill="midnightblue" stroke="midnightblue" points="262.14,-93.46 270.15,-86.52 259.56,-86.96 262.14,-93.46"/>
</g>
<!-- Node7&#45;&gt;Node6 -->
<g id="edge7" class="edge">
<title>Node7&#45;&gt;Node6</title>
<path fill="none" stroke="midnightblue" d="M286.07,-56.4C273.29,-47.13 256.61,-35.03 243.69,-25.65"/>
<polygon fill="midnightblue" stroke="midnightblue" points="245.58,-22.7 235.43,-19.66 241.47,-28.36 245.58,-22.7"/>
</g>
<!-- Node8 -->
<g id="node8" class="node">
<title>Node8</title>
<g id="a_node8"><a xlink:title=" ">
<polygon fill="none" stroke="#bfbfbf" points="281.5,-0.5 281.5,-19.5 329.5,-19.5 329.5,-0.5 281.5,-0.5"/>
<text text-anchor="middle" x="305.5" y="-7.5" font-family="Helvetica,sans-Serif" font-size="10.00">stdint.h</text>
</a>
</g>
</g>
<!-- Node7&#45;&gt;Node8 -->
<g id="edge8" class="edge">
<title>Node7&#45;&gt;Node8</title>
<path fill="none" stroke="midnightblue" d="M305.5,-56.4C305.5,-48.47 305.5,-38.46 305.5,-29.86"/>
<polygon fill="midnightblue" stroke="midnightblue" points="309,-29.66 305.5,-19.66 302,-29.66 309,-29.66"/>
</g>
</g>
</svg>
