<?xml version="1.0" encoding="UTF-8" standalone="no"?>
<!DOCTYPE svg PUBLIC "-//W3C//DTD SVG 1.1//EN"
 "http://www.w3.org/Graphics/SVG/1.1/DTD/svg11.dtd">
<!-- Generated by graphviz version 2.49.0 (20210830.1337)
 -->
<!-- Title: typeClassDefs/MemoryImageControlStatus.hpp Pages: 1 -->
<svg width="381pt" height="162pt"
 viewBox="0.00 0.00 381.00 162.00" xmlns="http://www.w3.org/2000/svg" xmlns:xlink="http://www.w3.org/1999/xlink">
<g id="graph0" class="graph" transform="scale(1 1) rotate(0) translate(4 158)">
<title>typeClassDefs/MemoryImageControlStatus.hpp</title>
<!-- Node1 -->
<g id="node1" class="node">
<title>Node1</title>
<g id="a_node1"><a xlink:title=" ">
<polygon fill="#bfbfbf" stroke="black" points="83.5,-123.5 83.5,-153.5 227.5,-153.5 227.5,-123.5 83.5,-123.5"/>
<text text-anchor="start" x="91.5" y="-141.5" font-family="Helvetica,sans-Serif" font-size="10.00">typeClassDefs/MemoryImage</text>
<text text-anchor="middle" x="155.5" y="-130.5" font-family="Helvetica,sans-Serif" font-size="10.00">ControlStatus.hpp</text>
</a>
</g>
</g>
<!-- Node2 -->
<g id="node2" class="node">
<title>Node2</title>
<g id="a_node2"><a xlink:title=" ">
<polygon fill="none" stroke="#bfbfbf" points="0,-62 0,-81 45,-81 45,-62 0,-62"/>
<text text-anchor="middle" x="22.5" y="-69" font-family="Helvetica,sans-Serif" font-size="10.00">cstdlib</text>
</a>
</g>
</g>
<!-- Node1&#45;&gt;Node2 -->
<g id="edge1" class="edge">
<title>Node1&#45;&gt;Node2</title>
<path fill="none" stroke="midnightblue" d="M126.64,-123.4C103.61,-112.14 71.61,-96.5 49.18,-85.54"/>
<polygon fill="midnightblue" stroke="midnightblue" points="50.43,-82.25 39.91,-81.01 47.35,-88.54 50.43,-82.25"/>
</g>
<!-- Node3 -->
<g id="node3" class="node">
<title>Node3</title>
<g id="a_node3"><a xlink:title=" ">
<polygon fill="none" stroke="#bfbfbf" points="63.5,-62 63.5,-81 111.5,-81 111.5,-62 63.5,-62"/>
<text text-anchor="middle" x="87.5" y="-69" font-family="Helvetica,sans-Serif" font-size="10.00">string.h</text>
</a>
</g>
</g>
<!-- Node1&#45;&gt;Node3 -->
<g id="edge2" class="edge">
<title>Node1&#45;&gt;Node3</title>
<path fill="none" stroke="midnightblue" d="M140.75,-123.4C129.93,-113.06 115.25,-99.02 104.04,-88.31"/>
<polygon fill="midnightblue" stroke="midnightblue" points="106.24,-85.57 96.6,-81.19 101.41,-90.63 106.24,-85.57"/>
</g>
<!-- Node4 -->
<g id="node4" class="node">
<title>Node4</title>
<g id="a_node4"><a xlink:title=" ">
<polygon fill="none" stroke="#bfbfbf" points="129.5,-62 129.5,-81 181.5,-81 181.5,-62 129.5,-62"/>
<text text-anchor="middle" x="155.5" y="-69" font-family="Helvetica,sans-Serif" font-size="10.00">sstream</text>
</a>
</g>
</g>
<!-- Node1&#45;&gt;Node4 -->
<g id="edge3" class="edge">
<title>Node1&#45;&gt;Node4</title>
<path fill="none" stroke="midnightblue" d="M155.5,-123.4C155.5,-114.06 155.5,-101.71 155.5,-91.52"/>
<polygon fill="midnightblue" stroke="midnightblue" points="159,-91.19 155.5,-81.19 152,-91.19 159,-91.19"/>
</g>
<!-- Node5 -->
<g id="node5" class="node">
<title>Node5</title>
<g id="a_node5"><a xlink:title=" ">
<polygon fill="none" stroke="#bfbfbf" points="197,-0.5 197,-19.5 250,-19.5 250,-0.5 197,-0.5"/>
<text text-anchor="middle" x="223.5" y="-7.5" font-family="Helvetica,sans-Serif" font-size="10.00">gu_util.h</text>
</a>
</g>
</g>
<!-- Node1&#45;&gt;Node5 -->
<g id="edge4" class="edge">
<title>Node1&#45;&gt;Node5</title>
<path fill="none" stroke="midnightblue" d="M166.39,-123.4C173.73,-113.53 183.34,-99.86 190.5,-87 201.07,-68 210.66,-44.95 216.75,-29.25"/>
<polygon fill="midnightblue" stroke="midnightblue" points="220.1,-30.29 220.37,-19.7 213.55,-27.81 220.1,-30.29"/>
</g>
<!-- Node6 -->
<g id="node6" class="node">
<title>Node6</title>
<g id="a_node6"><a xlink:href="wb__memory__image__control__status_8h.html" target="_top" xlink:title=" ">
<polygon fill="none" stroke="black" points="238,-56.5 238,-86.5 373,-86.5 373,-56.5 238,-56.5"/>
<text text-anchor="start" x="246" y="-74.5" font-family="Helvetica,sans-Serif" font-size="10.00">wb_memory_image_control</text>
<text text-anchor="middle" x="305.5" y="-63.5" font-family="Helvetica,sans-Serif" font-size="10.00">_status.h</text>
</a>
</g>
</g>
<!-- Node1&#45;&gt;Node6 -->
<g id="edge5" class="edge">
<title>Node1&#45;&gt;Node6</title>
<path fill="none" stroke="midnightblue" d="M188.05,-123.4C210.26,-113.77 239.88,-100.94 263.81,-90.56"/>
<polygon fill="midnightblue" stroke="midnightblue" points="265.23,-93.76 273.02,-86.58 262.45,-87.34 265.23,-93.76"/>
</g>
<!-- Node6&#45;&gt;Node5 -->
<g id="edge6" class="edge">
<title>Node6&#45;&gt;Node5</title>
<path fill="none" stroke="midnightblue" d="M286.07,-56.4C273.29,-47.13 256.61,-35.03 243.69,-25.65"/>
<polygon fill="midnightblue" stroke="midnightblue" points="245.58,-22.7 235.43,-19.66 241.47,-28.36 245.58,-22.7"/>
</g>
<!-- Node7 -->
<g id="node7" class="node">
<title>Node7</title>
<g id="a_node7"><a xlink:title=" ">
<polygon fill="none" stroke="#bfbfbf" points="281.5,-0.5 281.5,-19.5 329.5,-19.5 329.5,-0.5 281.5,-0.5"/>
<text text-anchor="middle" x="305.5" y="-7.5" font-family="Helvetica,sans-Serif" font-size="10.00">stdint.h</text>
</a>
</g>
</g>
<!-- Node6&#45;&gt;Node7 -->
<g id="edge7" class="edge">
<title>Node6&#45;&gt;Node7</title>
<path fill="none" stroke="midnightblue" d="M305.5,-56.4C305.5,-48.47 305.5,-38.46 305.5,-29.86"/>
<polygon fill="midnightblue" stroke="midnightblue" points="309,-29.66 305.5,-19.66 302,-29.66 309,-29.66"/>
</g>
</g>
</svg>
