<?xml version="1.0" encoding="UTF-8" standalone="no"?>
<!DOCTYPE svg PUBLIC "-//W3C//DTD SVG 1.1//EN"
 "http://www.w3.org/Graphics/SVG/1.1/DTD/svg11.dtd">
<!-- Generated by graphviz version 2.49.0 (20210830.1337)
 -->
<!-- Title: typeClassDefs/MicrophoneFrequencies.h Pages: 1 -->
<svg width="394pt" height="207pt"
 viewBox="0.00 0.00 393.50 207.00" xmlns="http://www.w3.org/2000/svg" xmlns:xlink="http://www.w3.org/1999/xlink">
<g id="graph0" class="graph" transform="scale(1 1) rotate(0) translate(4 203)">
<title>typeClassDefs/MicrophoneFrequencies.h</title>
<!-- Node1 -->
<g id="node1" class="node">
<title>Node1</title>
<g id="a_node1"><a xlink:title=" ">
<polygon fill="#bfbfbf" stroke="black" points="89,-168.5 89,-198.5 222,-198.5 222,-168.5 89,-168.5"/>
<text text-anchor="start" x="97" y="-186.5" font-family="Helvetica,sans-Serif" font-size="10.00">typeClassDefs/Microphone</text>
<text text-anchor="middle" x="155.5" y="-175.5" font-family="Helvetica,sans-Serif" font-size="10.00">Frequencies.h</text>
</a>
</g>
</g>
<!-- Node2 -->
<g id="node2" class="node">
<title>Node2</title>
<g id="a_node2"><a xlink:href="_microphone_frequencies_8hpp.html" target="_top" xlink:title=" ">
<polygon fill="none" stroke="black" points="86.5,-112.5 86.5,-131.5 224.5,-131.5 224.5,-112.5 86.5,-112.5"/>
<text text-anchor="middle" x="155.5" y="-119.5" font-family="Helvetica,sans-Serif" font-size="10.00">MicrophoneFrequencies.hpp</text>
</a>
</g>
</g>
<!-- Node1&#45;&gt;Node2 -->
<g id="edge1" class="edge">
<title>Node1&#45;&gt;Node2</title>
<path fill="none" stroke="midnightblue" d="M155.5,-168.4C155.5,-160.47 155.5,-150.46 155.5,-141.86"/>
<polygon fill="midnightblue" stroke="midnightblue" points="159,-141.66 155.5,-131.66 152,-141.66 159,-141.66"/>
</g>
<!-- Node3 -->
<g id="node3" class="node">
<title>Node3</title>
<g id="a_node3"><a xlink:title=" ">
<polygon fill="none" stroke="#bfbfbf" points="0,-56.5 0,-75.5 45,-75.5 45,-56.5 0,-56.5"/>
<text text-anchor="middle" x="22.5" y="-63.5" font-family="Helvetica,sans-Serif" font-size="10.00">cstdlib</text>
</a>
</g>
</g>
<!-- Node2&#45;&gt;Node3 -->
<g id="edge2" class="edge">
<title>Node2&#45;&gt;Node3</title>
<path fill="none" stroke="midnightblue" d="M134.43,-112.44C112.44,-103.52 77.77,-89.44 52.84,-79.32"/>
<polygon fill="midnightblue" stroke="midnightblue" points="54.06,-76.04 43.48,-75.52 51.42,-82.52 54.06,-76.04"/>
</g>
<!-- Node4 -->
<g id="node4" class="node">
<title>Node4</title>
<g id="a_node4"><a xlink:title=" ">
<polygon fill="none" stroke="#bfbfbf" points="63.5,-56.5 63.5,-75.5 111.5,-75.5 111.5,-56.5 63.5,-56.5"/>
<text text-anchor="middle" x="87.5" y="-63.5" font-family="Helvetica,sans-Serif" font-size="10.00">string.h</text>
</a>
</g>
</g>
<!-- Node2&#45;&gt;Node4 -->
<g id="edge3" class="edge">
<title>Node2&#45;&gt;Node4</title>
<path fill="none" stroke="midnightblue" d="M144.57,-112.32C134.33,-104.18 118.78,-91.84 106.5,-82.09"/>
<polygon fill="midnightblue" stroke="midnightblue" points="108.63,-79.31 98.62,-75.83 104.28,-84.79 108.63,-79.31"/>
</g>
<!-- Node5 -->
<g id="node5" class="node">
<title>Node5</title>
<g id="a_node5"><a xlink:title=" ">
<polygon fill="none" stroke="#bfbfbf" points="129.5,-56.5 129.5,-75.5 181.5,-75.5 181.5,-56.5 129.5,-56.5"/>
<text text-anchor="middle" x="155.5" y="-63.5" font-family="Helvetica,sans-Serif" font-size="10.00">sstream</text>
</a>
</g>
</g>
<!-- Node2&#45;&gt;Node5 -->
<g id="edge4" class="edge">
<title>Node2&#45;&gt;Node5</title>
<path fill="none" stroke="midnightblue" d="M155.5,-112.08C155.5,-105.01 155.5,-94.86 155.5,-85.99"/>
<polygon fill="midnightblue" stroke="midnightblue" points="159,-85.75 155.5,-75.75 152,-85.75 159,-85.75"/>
</g>
<!-- Node6 -->
<g id="node6" class="node">
<title>Node6</title>
<g id="a_node6"><a xlink:title=" ">
<polygon fill="none" stroke="#bfbfbf" points="200,-0.5 200,-19.5 253,-19.5 253,-0.5 200,-0.5"/>
<text text-anchor="middle" x="226.5" y="-7.5" font-family="Helvetica,sans-Serif" font-size="10.00">gu_util.h</text>
</a>
</g>
</g>
<!-- Node2&#45;&gt;Node6 -->
<g id="edge5" class="edge">
<title>Node2&#45;&gt;Node6</title>
<path fill="none" stroke="midnightblue" d="M162.89,-112.34C170.29,-103.49 181.78,-89.22 190.5,-76 200.69,-60.56 210.77,-42.01 217.65,-28.69"/>
<polygon fill="midnightblue" stroke="midnightblue" points="220.83,-30.16 222.25,-19.66 214.59,-26.99 220.83,-30.16"/>
</g>
<!-- Node7 -->
<g id="node7" class="node">
<title>Node7</title>
<g id="a_node7"><a xlink:href="wb__microphone__frequencies_8h.html" target="_top" xlink:title=" ">
<polygon fill="none" stroke="black" points="237.5,-56.5 237.5,-75.5 385.5,-75.5 385.5,-56.5 237.5,-56.5"/>
<text text-anchor="middle" x="311.5" y="-63.5" font-family="Helvetica,sans-Serif" font-size="10.00">wb_microphone_frequencies.h</text>
</a>
</g>
</g>
<!-- Node2&#45;&gt;Node7 -->
<g id="edge6" class="edge">
<title>Node2&#45;&gt;Node7</title>
<path fill="none" stroke="midnightblue" d="M180.22,-112.44C206.35,-103.4 247.76,-89.06 277.08,-78.92"/>
<polygon fill="midnightblue" stroke="midnightblue" points="278.59,-82.1 286.9,-75.52 276.3,-75.48 278.59,-82.1"/>
</g>
<!-- Node7&#45;&gt;Node6 -->
<g id="edge7" class="edge">
<title>Node7&#45;&gt;Node6</title>
<path fill="none" stroke="midnightblue" d="M297.84,-56.32C284.58,-47.9 264.23,-34.97 248.65,-25.07"/>
<polygon fill="midnightblue" stroke="midnightblue" points="250.44,-22.06 240.12,-19.65 246.69,-27.97 250.44,-22.06"/>
</g>
<!-- Node8 -->
<g id="node8" class="node">
<title>Node8</title>
<g id="a_node8"><a xlink:title=" ">
<polygon fill="none" stroke="#bfbfbf" points="287.5,-0.5 287.5,-19.5 335.5,-19.5 335.5,-0.5 287.5,-0.5"/>
<text text-anchor="middle" x="311.5" y="-7.5" font-family="Helvetica,sans-Serif" font-size="10.00">stdint.h</text>
</a>
</g>
</g>
<!-- Node7&#45;&gt;Node8 -->
<g id="edge8" class="edge">
<title>Node7&#45;&gt;Node8</title>
<path fill="none" stroke="midnightblue" d="M311.5,-56.08C311.5,-49.01 311.5,-38.86 311.5,-29.99"/>
<polygon fill="midnightblue" stroke="midnightblue" points="315,-29.75 311.5,-19.75 308,-29.75 315,-29.75"/>
</g>
</g>
</svg>
