<?xml version="1.0" encoding="UTF-8" standalone="no"?>
<!DOCTYPE svg PUBLIC "-//W3C//DTD SVG 1.1//EN"
 "http://www.w3.org/Graphics/SVG/1.1/DTD/svg11.dtd">
<!-- Generated by graphviz version 2.49.0 (20210830.1337)
 -->
<!-- Title: typeClassDefs/MicrophoneFrequencies.h Pages: 1 -->
<svg width="476pt" height="285pt"
 viewBox="0.00 0.00 476.00 285.00" xmlns="http://www.w3.org/2000/svg" xmlns:xlink="http://www.w3.org/1999/xlink">
<g id="graph0" class="graph" transform="scale(1 1) rotate(0) translate(4 281)">
<title>typeClassDefs/MicrophoneFrequencies.h</title>
<!-- Node1 -->
<g id="node1" class="node">
<title>Node1</title>
<g id="a_node1"><a xlink:title=" ">
<polygon fill="#bfbfbf" stroke="black" points="226,-246.5 226,-276.5 359,-276.5 359,-246.5 226,-246.5"/>
<text text-anchor="start" x="234" y="-264.5" font-family="Helvetica,sans-Serif" font-size="10.00">typeClassDefs/Microphone</text>
<text text-anchor="middle" x="292.5" y="-253.5" font-family="Helvetica,sans-Serif" font-size="10.00">Frequencies.h</text>
</a>
</g>
</g>
<!-- Node2 -->
<g id="node2" class="node">
<title>Node2</title>
<g id="a_node2"><a xlink:href="_dominant_frequencies_8hpp.html" target="_top" xlink:title=" ">
<polygon fill="none" stroke="black" points="195,-190.5 195,-209.5 390,-209.5 390,-190.5 195,-190.5"/>
<text text-anchor="middle" x="292.5" y="-197.5" font-family="Helvetica,sans-Serif" font-size="10.00">typeClassDefs/DominantFrequencies.hpp</text>
</a>
</g>
</g>
<!-- Node1&#45;&gt;Node2 -->
<g id="edge1" class="edge">
<title>Node1&#45;&gt;Node2</title>
<path fill="none" stroke="midnightblue" d="M292.5,-236.29C292.5,-226.86 292.5,-216.65 292.5,-209.66"/>
<polygon fill="midnightblue" stroke="midnightblue" points="289,-236.4 292.5,-246.4 296,-236.4 289,-236.4"/>
</g>
<!-- Node3 -->
<g id="node3" class="node">
<title>Node3</title>
<g id="a_node3"><a xlink:href="guwhiteboardposter_8h.html" target="_top" xlink:title=" ">
<polygon fill="none" stroke="black" points="156,-134.5 156,-153.5 265,-153.5 265,-134.5 156,-134.5"/>
<text text-anchor="middle" x="210.5" y="-141.5" font-family="Helvetica,sans-Serif" font-size="10.00">guwhiteboardposter.h</text>
</a>
</g>
</g>
<!-- Node2&#45;&gt;Node3 -->
<g id="edge2" class="edge">
<title>Node2&#45;&gt;Node3</title>
<path fill="none" stroke="midnightblue" d="M270.67,-184.62C255.69,-174.76 236.3,-161.99 223.64,-153.65"/>
<polygon fill="midnightblue" stroke="midnightblue" points="269.05,-187.75 279.33,-190.32 272.9,-181.9 269.05,-187.75"/>
</g>
<!-- Node9 -->
<g id="node9" class="node">
<title>Node9</title>
<g id="a_node9"><a xlink:href="_dominant_frequencies_8h.html" target="_top" xlink:title=" ">
<polygon fill="none" stroke="black" points="283,-134.5 283,-153.5 468,-153.5 468,-134.5 283,-134.5"/>
<text text-anchor="middle" x="375.5" y="-141.5" font-family="Helvetica,sans-Serif" font-size="10.00">typeClassDefs/DominantFrequencies.h</text>
</a>
</g>
</g>
<!-- Node2&#45;&gt;Node9 -->
<g id="edge8" class="edge">
<title>Node2&#45;&gt;Node9</title>
<path fill="none" stroke="midnightblue" d="M314.6,-184.62C329.76,-174.76 349.38,-161.99 362.2,-153.65"/>
<polygon fill="midnightblue" stroke="midnightblue" points="312.31,-181.94 305.84,-190.32 316.13,-187.8 312.31,-181.94"/>
</g>
<!-- Node4 -->
<g id="node4" class="node">
<title>Node4</title>
<g id="a_node4"><a xlink:href="_simple_whiteboard_test_8h.html" target="_top" xlink:title=" ">
<polygon fill="none" stroke="black" points="9,-67.5 9,-97.5 134,-97.5 134,-67.5 9,-67.5"/>
<text text-anchor="start" x="17" y="-85.5" font-family="Helvetica,sans-Serif" font-size="10.00">SimpleWhiteboardTest</text>
<text text-anchor="middle" x="71.5" y="-74.5" font-family="Helvetica,sans-Serif" font-size="10.00">/SimpleWhiteboardTest.h</text>
</a>
</g>
</g>
<!-- Node3&#45;&gt;Node4 -->
<g id="edge3" class="edge">
<title>Node3&#45;&gt;Node4</title>
<path fill="none" stroke="midnightblue" d="M181.21,-130.46C158.69,-120.82 127.6,-107.51 104.26,-97.52"/>
<polygon fill="midnightblue" stroke="midnightblue" points="180.01,-133.76 190.58,-134.48 182.77,-127.32 180.01,-133.76"/>
</g>
<!-- Node6 -->
<g id="node6" class="node">
<title>Node6</title>
<g id="a_node6"><a xlink:href="guwhiteboardgetter_8h.html" target="_top" xlink:title=" ">
<polygon fill="none" stroke="black" points="157,-73 157,-92 264,-92 264,-73 157,-73"/>
<text text-anchor="middle" x="210.5" y="-80" font-family="Helvetica,sans-Serif" font-size="10.00">guwhiteboardgetter.h</text>
</a>
</g>
</g>
<!-- Node3&#45;&gt;Node6 -->
<g id="edge5" class="edge">
<title>Node3&#45;&gt;Node6</title>
<path fill="none" stroke="midnightblue" d="M210.5,-124.32C210.5,-113.5 210.5,-100.4 210.5,-92.01"/>
<polygon fill="midnightblue" stroke="midnightblue" points="207,-124.48 210.5,-134.48 214,-124.48 207,-124.48"/>
</g>
<!-- Node8 -->
<g id="node8" class="node">
<title>Node8</title>
<g id="a_node8"><a xlink:href="guwhiteboardposter_8cpp.html" target="_top" xlink:title=" ">
<polygon fill="none" stroke="black" points="282,-73 282,-92 401,-92 401,-73 282,-73"/>
<text text-anchor="middle" x="341.5" y="-80" font-family="Helvetica,sans-Serif" font-size="10.00">guwhiteboardposter.cpp</text>
</a>
</g>
</g>
<!-- Node3&#45;&gt;Node8 -->
<g id="edge7" class="edge">
<title>Node3&#45;&gt;Node8</title>
<path fill="none" stroke="midnightblue" d="M238.4,-130.33C263.83,-118.78 300.7,-102.03 322.77,-92.01"/>
<polygon fill="midnightblue" stroke="midnightblue" points="236.93,-127.15 229.27,-134.48 239.82,-133.53 236.93,-127.15"/>
</g>
<!-- Node5 -->
<g id="node5" class="node">
<title>Node5</title>
<g id="a_node5"><a xlink:href="_simple_whiteboard_test_8mm.html" target="_top" xlink:title=" ">
<polygon fill="none" stroke="black" points="0,-0.5 0,-30.5 137,-30.5 137,-0.5 0,-0.5"/>
<text text-anchor="start" x="8" y="-18.5" font-family="Helvetica,sans-Serif" font-size="10.00">SimpleWhiteboardTest</text>
<text text-anchor="middle" x="68.5" y="-7.5" font-family="Helvetica,sans-Serif" font-size="10.00">/SimpleWhiteboardTest.mm</text>
</a>
</g>
</g>
<!-- Node4&#45;&gt;Node5 -->
<g id="edge4" class="edge">
<title>Node4&#45;&gt;Node5</title>
<path fill="none" stroke="midnightblue" d="M70.39,-57.4C69.97,-48.37 69.51,-38.41 69.15,-30.58"/>
<polygon fill="midnightblue" stroke="midnightblue" points="66.89,-57.57 70.85,-67.4 73.88,-57.25 66.89,-57.57"/>
</g>
<!-- Node7 -->
<g id="node7" class="node">
<title>Node7</title>
<g id="a_node7"><a xlink:href="guwhiteboardgetter_8cpp.html" target="_top" xlink:title=" ">
<polygon fill="none" stroke="black" points="155,-6 155,-25 272,-25 272,-6 155,-6"/>
<text text-anchor="middle" x="213.5" y="-13" font-family="Helvetica,sans-Serif" font-size="10.00">guwhiteboardgetter.cpp</text>
</a>
</g>
</g>
<!-- Node6&#45;&gt;Node7 -->
<g id="edge6" class="edge">
<title>Node6&#45;&gt;Node7</title>
<path fill="none" stroke="midnightblue" d="M211.38,-62.54C211.95,-50.17 212.66,-34.62 213.1,-25.13"/>
<polygon fill="midnightblue" stroke="midnightblue" points="207.87,-62.58 210.9,-72.73 214.86,-62.91 207.87,-62.58"/>
</g>
</g>
</svg>
