<?xml version="1.0" encoding="UTF-8" standalone="no"?>
<!DOCTYPE svg PUBLIC "-//W3C//DTD SVG 1.1//EN"
 "http://www.w3.org/Graphics/SVG/1.1/DTD/svg11.dtd">
<!-- Generated by graphviz version 2.49.0 (20210830.1337)
 -->
<!-- Title: typeClassDefs/MissionPriorityForObstacles.hpp Pages: 1 -->
<svg width="348pt" height="162pt"
 viewBox="0.00 0.00 347.50 162.00" xmlns="http://www.w3.org/2000/svg" xmlns:xlink="http://www.w3.org/1999/xlink">
<g id="graph0" class="graph" transform="scale(1 1) rotate(0) translate(4 158)">
<title>typeClassDefs/MissionPriorityForObstacles.hpp</title>
<!-- Node1 -->
<g id="node1" class="node">
<title>Node1</title>
<g id="a_node1"><a xlink:title=" ">
<polygon fill="#bfbfbf" stroke="black" points="82.5,-123.5 82.5,-153.5 228.5,-153.5 228.5,-123.5 82.5,-123.5"/>
<text text-anchor="start" x="90.5" y="-141.5" font-family="Helvetica,sans-Serif" font-size="10.00">typeClassDefs/MissionPriority</text>
<text text-anchor="middle" x="155.5" y="-130.5" font-family="Helvetica,sans-Serif" font-size="10.00">ForObstacles.hpp</text>
</a>
</g>
</g>
<!-- Node2 -->
<g id="node2" class="node">
<title>Node2</title>
<g id="a_node2"><a xlink:title=" ">
<polygon fill="none" stroke="#bfbfbf" points="0,-62 0,-81 45,-81 45,-62 0,-62"/>
<text text-anchor="middle" x="22.5" y="-69" font-family="Helvetica,sans-Serif" font-size="10.00">cstdlib</text>
</a>
</g>
</g>
<!-- Node1&#45;&gt;Node2 -->
<g id="edge1" class="edge">
<title>Node1&#45;&gt;Node2</title>
<path fill="none" stroke="midnightblue" d="M126.64,-123.4C103.61,-112.14 71.61,-96.5 49.18,-85.54"/>
<polygon fill="midnightblue" stroke="midnightblue" points="50.43,-82.25 39.91,-81.01 47.35,-88.54 50.43,-82.25"/>
</g>
<!-- Node3 -->
<g id="node3" class="node">
<title>Node3</title>
<g id="a_node3"><a xlink:title=" ">
<polygon fill="none" stroke="#bfbfbf" points="63.5,-62 63.5,-81 111.5,-81 111.5,-62 63.5,-62"/>
<text text-anchor="middle" x="87.5" y="-69" font-family="Helvetica,sans-Serif" font-size="10.00">string.h</text>
</a>
</g>
</g>
<!-- Node1&#45;&gt;Node3 -->
<g id="edge2" class="edge">
<title>Node1&#45;&gt;Node3</title>
<path fill="none" stroke="midnightblue" d="M140.75,-123.4C129.93,-113.06 115.25,-99.02 104.04,-88.31"/>
<polygon fill="midnightblue" stroke="midnightblue" points="106.24,-85.57 96.6,-81.19 101.41,-90.63 106.24,-85.57"/>
</g>
<!-- Node4 -->
<g id="node4" class="node">
<title>Node4</title>
<g id="a_node4"><a xlink:title=" ">
<polygon fill="none" stroke="#bfbfbf" points="129.5,-62 129.5,-81 181.5,-81 181.5,-62 129.5,-62"/>
<text text-anchor="middle" x="155.5" y="-69" font-family="Helvetica,sans-Serif" font-size="10.00">sstream</text>
</a>
</g>
</g>
<!-- Node1&#45;&gt;Node4 -->
<g id="edge3" class="edge">
<title>Node1&#45;&gt;Node4</title>
<path fill="none" stroke="midnightblue" d="M155.5,-123.4C155.5,-114.06 155.5,-101.71 155.5,-91.52"/>
<polygon fill="midnightblue" stroke="midnightblue" points="159,-91.19 155.5,-81.19 152,-91.19 159,-91.19"/>
</g>
<!-- Node5 -->
<g id="node5" class="node">
<title>Node5</title>
<g id="a_node5"><a xlink:title=" ">
<polygon fill="none" stroke="#bfbfbf" points="188,-0.5 188,-19.5 241,-19.5 241,-0.5 188,-0.5"/>
<text text-anchor="middle" x="214.5" y="-7.5" font-family="Helvetica,sans-Serif" font-size="10.00">gu_util.h</text>
</a>
</g>
</g>
<!-- Node1&#45;&gt;Node5 -->
<g id="edge4" class="edge">
<title>Node1&#45;&gt;Node5</title>
<path fill="none" stroke="midnightblue" d="M167.15,-123.2C174.63,-113.46 184.11,-100.03 190.5,-87 199.62,-68.41 206.28,-45.58 210.24,-29.82"/>
<polygon fill="midnightblue" stroke="midnightblue" points="213.72,-30.3 212.64,-19.76 206.91,-28.67 213.72,-30.3"/>
</g>
<!-- Node6 -->
<g id="node6" class="node">
<title>Node6</title>
<g id="a_node6"><a xlink:href="wb__mission__priority__for__obstacles_8h.html" target="_top" xlink:title=" ">
<polygon fill="none" stroke="black" points="237.5,-56.5 237.5,-86.5 339.5,-86.5 339.5,-56.5 237.5,-56.5"/>
<text text-anchor="start" x="245.5" y="-74.5" font-family="Helvetica,sans-Serif" font-size="10.00">wb_mission_priority</text>
<text text-anchor="middle" x="288.5" y="-63.5" font-family="Helvetica,sans-Serif" font-size="10.00">_for_obstacles.h</text>
</a>
</g>
</g>
<!-- Node1&#45;&gt;Node6 -->
<g id="edge5" class="edge">
<title>Node1&#45;&gt;Node6</title>
<path fill="none" stroke="midnightblue" d="M184.36,-123.4C203.79,-113.9 229.62,-101.28 250.69,-90.98"/>
<polygon fill="midnightblue" stroke="midnightblue" points="252.25,-94.11 259.7,-86.58 249.18,-87.82 252.25,-94.11"/>
</g>
<!-- Node6&#45;&gt;Node5 -->
<g id="edge6" class="edge">
<title>Node6&#45;&gt;Node5</title>
<path fill="none" stroke="midnightblue" d="M270.96,-56.4C259.66,-47.31 244.96,-35.49 233.39,-26.19"/>
<polygon fill="midnightblue" stroke="midnightblue" points="235.25,-23.2 225.27,-19.66 230.87,-28.65 235.25,-23.2"/>
</g>
<!-- Node7 -->
<g id="node7" class="node">
<title>Node7</title>
<g id="a_node7"><a xlink:title=" ">
<polygon fill="none" stroke="#bfbfbf" points="264.5,-0.5 264.5,-19.5 312.5,-19.5 312.5,-0.5 264.5,-0.5"/>
<text text-anchor="middle" x="288.5" y="-7.5" font-family="Helvetica,sans-Serif" font-size="10.00">stdint.h</text>
</a>
</g>
</g>
<!-- Node6&#45;&gt;Node7 -->
<g id="edge7" class="edge">
<title>Node6&#45;&gt;Node7</title>
<path fill="none" stroke="midnightblue" d="M288.5,-56.4C288.5,-48.47 288.5,-38.46 288.5,-29.86"/>
<polygon fill="midnightblue" stroke="midnightblue" points="292,-29.66 288.5,-19.66 285,-29.66 292,-29.66"/>
</g>
</g>
</svg>
