<?xml version="1.0" encoding="UTF-8" standalone="no"?>
<!DOCTYPE svg PUBLIC "-//W3C//DTD SVG 1.1//EN"
 "http://www.w3.org/Graphics/SVG/1.1/DTD/svg11.dtd">
<!-- Generated by graphviz version 2.49.0 (20210830.1337)
 -->
<!-- Title: typeClassDefs/MyPosition.h Pages: 1 -->
<svg width="340pt" height="196pt"
 viewBox="0.00 0.00 339.50 196.00" xmlns="http://www.w3.org/2000/svg" xmlns:xlink="http://www.w3.org/1999/xlink">
<g id="graph0" class="graph" transform="scale(1 1) rotate(0) translate(4 192)">
<title>typeClassDefs/MyPosition.h</title>
<!-- Node1 -->
<g id="node1" class="node">
<title>Node1</title>
<g id="a_node1"><a xlink:title=" ">
<polygon fill="#bfbfbf" stroke="black" points="86.5,-168.5 86.5,-187.5 224.5,-187.5 224.5,-168.5 86.5,-168.5"/>
<text text-anchor="middle" x="155.5" y="-175.5" font-family="Helvetica,sans-Serif" font-size="10.00">typeClassDefs/MyPosition.h</text>
</a>
</g>
</g>
<!-- Node2 -->
<g id="node2" class="node">
<title>Node2</title>
<g id="a_node2"><a xlink:href="_my_position_8hpp.html" target="_top" xlink:title=" ">
<polygon fill="none" stroke="black" points="114,-112.5 114,-131.5 197,-131.5 197,-112.5 114,-112.5"/>
<text text-anchor="middle" x="155.5" y="-119.5" font-family="Helvetica,sans-Serif" font-size="10.00">MyPosition.hpp</text>
</a>
</g>
</g>
<!-- Node1&#45;&gt;Node2 -->
<g id="edge1" class="edge">
<title>Node1&#45;&gt;Node2</title>
<path fill="none" stroke="midnightblue" d="M155.5,-168.08C155.5,-161.01 155.5,-150.86 155.5,-141.99"/>
<polygon fill="midnightblue" stroke="midnightblue" points="159,-141.75 155.5,-131.75 152,-141.75 159,-141.75"/>
</g>
<!-- Node3 -->
<g id="node3" class="node">
<title>Node3</title>
<g id="a_node3"><a xlink:title=" ">
<polygon fill="none" stroke="#bfbfbf" points="0,-56.5 0,-75.5 45,-75.5 45,-56.5 0,-56.5"/>
<text text-anchor="middle" x="22.5" y="-63.5" font-family="Helvetica,sans-Serif" font-size="10.00">cstdlib</text>
</a>
</g>
</g>
<!-- Node2&#45;&gt;Node3 -->
<g id="edge2" class="edge">
<title>Node2&#45;&gt;Node3</title>
<path fill="none" stroke="midnightblue" d="M134.43,-112.44C112.44,-103.52 77.77,-89.44 52.84,-79.32"/>
<polygon fill="midnightblue" stroke="midnightblue" points="54.06,-76.04 43.48,-75.52 51.42,-82.52 54.06,-76.04"/>
</g>
<!-- Node4 -->
<g id="node4" class="node">
<title>Node4</title>
<g id="a_node4"><a xlink:title=" ">
<polygon fill="none" stroke="#bfbfbf" points="63.5,-56.5 63.5,-75.5 111.5,-75.5 111.5,-56.5 63.5,-56.5"/>
<text text-anchor="middle" x="87.5" y="-63.5" font-family="Helvetica,sans-Serif" font-size="10.00">string.h</text>
</a>
</g>
</g>
<!-- Node2&#45;&gt;Node4 -->
<g id="edge3" class="edge">
<title>Node2&#45;&gt;Node4</title>
<path fill="none" stroke="midnightblue" d="M144.57,-112.32C134.33,-104.18 118.78,-91.84 106.5,-82.09"/>
<polygon fill="midnightblue" stroke="midnightblue" points="108.63,-79.31 98.62,-75.83 104.28,-84.79 108.63,-79.31"/>
</g>
<!-- Node5 -->
<g id="node5" class="node">
<title>Node5</title>
<g id="a_node5"><a xlink:title=" ">
<polygon fill="none" stroke="#bfbfbf" points="129.5,-56.5 129.5,-75.5 181.5,-75.5 181.5,-56.5 129.5,-56.5"/>
<text text-anchor="middle" x="155.5" y="-63.5" font-family="Helvetica,sans-Serif" font-size="10.00">sstream</text>
</a>
</g>
</g>
<!-- Node2&#45;&gt;Node5 -->
<g id="edge4" class="edge">
<title>Node2&#45;&gt;Node5</title>
<path fill="none" stroke="midnightblue" d="M155.5,-112.08C155.5,-105.01 155.5,-94.86 155.5,-85.99"/>
<polygon fill="midnightblue" stroke="midnightblue" points="159,-85.75 155.5,-75.75 152,-85.75 159,-85.75"/>
</g>
<!-- Node6 -->
<g id="node6" class="node">
<title>Node6</title>
<g id="a_node6"><a xlink:title=" ">
<polygon fill="none" stroke="#bfbfbf" points="186,-0.5 186,-19.5 239,-19.5 239,-0.5 186,-0.5"/>
<text text-anchor="middle" x="212.5" y="-7.5" font-family="Helvetica,sans-Serif" font-size="10.00">gu_util.h</text>
</a>
</g>
</g>
<!-- Node2&#45;&gt;Node6 -->
<g id="edge5" class="edge">
<title>Node2&#45;&gt;Node6</title>
<path fill="none" stroke="midnightblue" d="M163.7,-112.32C171.49,-103.68 183.09,-89.77 190.5,-76 198.44,-61.25 204.29,-43.09 207.96,-29.72"/>
<polygon fill="midnightblue" stroke="midnightblue" points="211.41,-30.35 210.52,-19.79 204.63,-28.6 211.41,-30.35"/>
</g>
<!-- Node7 -->
<g id="node7" class="node">
<title>Node7</title>
<g id="a_node7"><a xlink:href="wb__my__position_8h.html" target="_top" xlink:title=" ">
<polygon fill="none" stroke="black" points="237.5,-56.5 237.5,-75.5 331.5,-75.5 331.5,-56.5 237.5,-56.5"/>
<text text-anchor="middle" x="284.5" y="-63.5" font-family="Helvetica,sans-Serif" font-size="10.00">wb_my_position.h</text>
</a>
</g>
</g>
<!-- Node2&#45;&gt;Node7 -->
<g id="edge6" class="edge">
<title>Node2&#45;&gt;Node7</title>
<path fill="none" stroke="midnightblue" d="M175.94,-112.44C197.17,-103.56 230.6,-89.56 254.75,-79.45"/>
<polygon fill="midnightblue" stroke="midnightblue" points="256.28,-82.61 264.16,-75.52 253.58,-76.15 256.28,-82.61"/>
</g>
<!-- Node7&#45;&gt;Node6 -->
<g id="edge7" class="edge">
<title>Node7&#45;&gt;Node6</title>
<path fill="none" stroke="midnightblue" d="M272.93,-56.32C262.08,-48.18 245.62,-35.84 232.62,-26.09"/>
<polygon fill="midnightblue" stroke="midnightblue" points="234.38,-23.03 224.28,-19.83 230.18,-28.63 234.38,-23.03"/>
</g>
<!-- Node8 -->
<g id="node8" class="node">
<title>Node8</title>
<g id="a_node8"><a xlink:title=" ">
<polygon fill="none" stroke="#bfbfbf" points="260.5,-0.5 260.5,-19.5 308.5,-19.5 308.5,-0.5 260.5,-0.5"/>
<text text-anchor="middle" x="284.5" y="-7.5" font-family="Helvetica,sans-Serif" font-size="10.00">stdint.h</text>
</a>
</g>
</g>
<!-- Node7&#45;&gt;Node8 -->
<g id="edge8" class="edge">
<title>Node7&#45;&gt;Node8</title>
<path fill="none" stroke="midnightblue" d="M284.5,-56.08C284.5,-49.01 284.5,-38.86 284.5,-29.99"/>
<polygon fill="midnightblue" stroke="midnightblue" points="288,-29.75 284.5,-19.75 281,-29.75 288,-29.75"/>
</g>
</g>
</svg>
