<?xml version="1.0" encoding="UTF-8" standalone="no"?>
<!DOCTYPE svg PUBLIC "-//W3C//DTD SVG 1.1//EN"
 "http://www.w3.org/Graphics/SVG/1.1/DTD/svg11.dtd">
<!-- Generated by graphviz version 2.49.0 (20210830.1337)
 -->
<!-- Title: typeClassDefs/NXT_Two_Touch_Status.hpp Pages: 1 -->
<svg width="758pt" height="207pt"
 viewBox="0.00 0.00 758.00 207.00" xmlns="http://www.w3.org/2000/svg" xmlns:xlink="http://www.w3.org/1999/xlink">
<g id="graph0" class="graph" transform="scale(1 1) rotate(0) translate(4 203)">
<title>typeClassDefs/NXT_Two_Touch_Status.hpp</title>
<!-- Node1 -->
<g id="node1" class="node">
<title>Node1</title>
<g id="a_node1"><a xlink:title=" ">
<polygon fill="#bfbfbf" stroke="black" points="155,-168.5 155,-198.5 282,-198.5 282,-168.5 155,-168.5"/>
<text text-anchor="start" x="163" y="-186.5" font-family="Helvetica,sans-Serif" font-size="10.00">typeClassDefs/NXT_Two</text>
<text text-anchor="middle" x="218.5" y="-175.5" font-family="Helvetica,sans-Serif" font-size="10.00">_Touch_Status.hpp</text>
</a>
</g>
</g>
<!-- Node2 -->
<g id="node2" class="node">
<title>Node2</title>
<g id="a_node2"><a xlink:title=" ">
<polygon fill="none" stroke="#bfbfbf" points="0,-112.5 0,-131.5 45,-131.5 45,-112.5 0,-112.5"/>
<text text-anchor="middle" x="22.5" y="-119.5" font-family="Helvetica,sans-Serif" font-size="10.00">cstdlib</text>
</a>
</g>
</g>
<!-- Node1&#45;&gt;Node2 -->
<g id="edge1" class="edge">
<title>Node1&#45;&gt;Node2</title>
<path fill="none" stroke="midnightblue" d="M172.05,-168.4C135.99,-157.45 86.92,-142.56 54.98,-132.86"/>
<polygon fill="midnightblue" stroke="midnightblue" points="55.83,-129.46 45.25,-129.91 53.8,-136.16 55.83,-129.46"/>
</g>
<!-- Node3 -->
<g id="node3" class="node">
<title>Node3</title>
<g id="a_node3"><a xlink:title=" ">
<polygon fill="none" stroke="#bfbfbf" points="63,-112.5 63,-131.5 110,-131.5 110,-112.5 63,-112.5"/>
<text text-anchor="middle" x="86.5" y="-119.5" font-family="Helvetica,sans-Serif" font-size="10.00">stdlib.h</text>
</a>
</g>
</g>
<!-- Node1&#45;&gt;Node3 -->
<g id="edge2" class="edge">
<title>Node1&#45;&gt;Node3</title>
<path fill="none" stroke="midnightblue" d="M187.22,-168.4C165.27,-158.51 136.16,-145.38 114.88,-135.79"/>
<polygon fill="midnightblue" stroke="midnightblue" points="116.26,-132.58 105.71,-131.66 113.39,-138.96 116.26,-132.58"/>
</g>
<!-- Node4 -->
<g id="node4" class="node">
<title>Node4</title>
<g id="a_node4"><a xlink:title=" ">
<polygon fill="none" stroke="#bfbfbf" points="128.5,-112.5 128.5,-131.5 174.5,-131.5 174.5,-112.5 128.5,-112.5"/>
<text text-anchor="middle" x="151.5" y="-119.5" font-family="Helvetica,sans-Serif" font-size="10.00">cstring</text>
</a>
</g>
</g>
<!-- Node1&#45;&gt;Node4 -->
<g id="edge3" class="edge">
<title>Node1&#45;&gt;Node4</title>
<path fill="none" stroke="midnightblue" d="M202.62,-168.4C192.48,-159.4 179.34,-147.72 168.91,-138.47"/>
<polygon fill="midnightblue" stroke="midnightblue" points="171.05,-135.68 161.25,-131.66 166.4,-140.92 171.05,-135.68"/>
</g>
<!-- Node5 -->
<g id="node5" class="node">
<title>Node5</title>
<g id="a_node5"><a xlink:title=" ">
<polygon fill="none" stroke="#bfbfbf" points="192.5,-112.5 192.5,-131.5 244.5,-131.5 244.5,-112.5 192.5,-112.5"/>
<text text-anchor="middle" x="218.5" y="-119.5" font-family="Helvetica,sans-Serif" font-size="10.00">sstream</text>
</a>
</g>
</g>
<!-- Node1&#45;&gt;Node5 -->
<g id="edge4" class="edge">
<title>Node1&#45;&gt;Node5</title>
<path fill="none" stroke="midnightblue" d="M218.5,-168.4C218.5,-160.47 218.5,-150.46 218.5,-141.86"/>
<polygon fill="midnightblue" stroke="midnightblue" points="222,-141.66 218.5,-131.66 215,-141.66 222,-141.66"/>
</g>
<!-- Node6 -->
<g id="node6" class="node">
<title>Node6</title>
<g id="a_node6"><a xlink:title=" ">
<polygon fill="none" stroke="#bfbfbf" points="626,-0.5 626,-19.5 679,-19.5 679,-0.5 626,-0.5"/>
<text text-anchor="middle" x="652.5" y="-7.5" font-family="Helvetica,sans-Serif" font-size="10.00">gu_util.h</text>
</a>
</g>
</g>
<!-- Node1&#45;&gt;Node6 -->
<g id="edge5" class="edge">
<title>Node1&#45;&gt;Node6</title>
<path fill="none" stroke="midnightblue" d="M229.17,-168.28C236.41,-158.35 246,-144.66 253.5,-132 272.75,-99.51 260.67,-77.81 291.5,-56 343.07,-19.53 534.43,-12.58 615.66,-11.28"/>
<polygon fill="midnightblue" stroke="midnightblue" points="615.96,-14.78 625.91,-11.14 615.86,-7.78 615.96,-14.78"/>
</g>
<!-- Node7 -->
<g id="node7" class="node">
<title>Node7</title>
<g id="a_node7"><a xlink:href="gusimplewhiteboard_8h.html" target="_top" xlink:title=" ">
<polygon fill="none" stroke="black" points="397.5,-112.5 397.5,-131.5 507.5,-131.5 507.5,-112.5 397.5,-112.5"/>
<text text-anchor="middle" x="452.5" y="-119.5" font-family="Helvetica,sans-Serif" font-size="10.00">gusimplewhiteboard.h</text>
</a>
</g>
</g>
<!-- Node1&#45;&gt;Node7 -->
<g id="edge6" class="edge">
<title>Node1&#45;&gt;Node7</title>
<path fill="none" stroke="midnightblue" d="M273.66,-168.47C315.09,-157.94 371.03,-143.72 409.25,-134"/>
<polygon fill="midnightblue" stroke="midnightblue" points="410.22,-137.36 419.05,-131.51 408.49,-130.58 410.22,-137.36"/>
</g>
<!-- Node12 -->
<g id="node12" class="node">
<title>Node12</title>
<g id="a_node12"><a xlink:href="wb__buttons__status_8h.html" target="_top" xlink:title=" ">
<polygon fill="none" stroke="black" points="599,-112.5 599,-131.5 706,-131.5 706,-112.5 599,-112.5"/>
<text text-anchor="middle" x="652.5" y="-119.5" font-family="Helvetica,sans-Serif" font-size="10.00">wb_buttons_status.h</text>
</a>
</g>
</g>
<!-- Node1&#45;&gt;Node12 -->
<g id="edge11" class="edge">
<title>Node1&#45;&gt;Node12</title>
<path fill="none" stroke="midnightblue" d="M282.07,-173.78C364.23,-162.52 506.46,-143.02 588.72,-131.74"/>
<polygon fill="midnightblue" stroke="midnightblue" points="589.26,-135.2 598.69,-130.38 588.31,-128.27 589.26,-135.2"/>
</g>
<!-- Node8 -->
<g id="node8" class="node">
<title>Node8</title>
<g id="a_node8"><a xlink:title=" ">
<polygon fill="none" stroke="#bfbfbf" points="301,-56.5 301,-75.5 402,-75.5 402,-56.5 301,-56.5"/>
<text text-anchor="middle" x="351.5" y="-63.5" font-family="Helvetica,sans-Serif" font-size="10.00">dispatch/dispatch.h</text>
</a>
</g>
</g>
<!-- Node7&#45;&gt;Node8 -->
<g id="edge7" class="edge">
<title>Node7&#45;&gt;Node8</title>
<path fill="none" stroke="midnightblue" d="M436.27,-112.32C420.15,-103.7 395.2,-90.36 376.54,-80.39"/>
<polygon fill="midnightblue" stroke="midnightblue" points="378.16,-77.28 367.69,-75.65 374.86,-83.46 378.16,-77.28"/>
</g>
<!-- Node9 -->
<g id="node9" class="node">
<title>Node9</title>
<g id="a_node9"><a xlink:title=" ">
<polygon fill="none" stroke="#bfbfbf" points="420,-56.5 420,-75.5 485,-75.5 485,-56.5 420,-56.5"/>
<text text-anchor="middle" x="452.5" y="-63.5" font-family="Helvetica,sans-Serif" font-size="10.00">sys/types.h</text>
</a>
</g>
</g>
<!-- Node7&#45;&gt;Node9 -->
<g id="edge8" class="edge">
<title>Node7&#45;&gt;Node9</title>
<path fill="none" stroke="midnightblue" d="M452.5,-112.08C452.5,-105.01 452.5,-94.86 452.5,-85.99"/>
<polygon fill="midnightblue" stroke="midnightblue" points="456,-85.75 452.5,-75.75 449,-85.75 456,-85.75"/>
</g>
<!-- Node10 -->
<g id="node10" class="node">
<title>Node10</title>
<g id="a_node10"><a xlink:title=" ">
<polygon fill="none" stroke="#bfbfbf" points="503,-56.5 503,-75.5 556,-75.5 556,-56.5 503,-56.5"/>
<text text-anchor="middle" x="529.5" y="-63.5" font-family="Helvetica,sans-Serif" font-size="10.00">cstdbool</text>
</a>
</g>
</g>
<!-- Node7&#45;&gt;Node10 -->
<g id="edge9" class="edge">
<title>Node7&#45;&gt;Node10</title>
<path fill="none" stroke="midnightblue" d="M464.87,-112.32C476.66,-104.06 494.63,-91.45 508.64,-81.63"/>
<polygon fill="midnightblue" stroke="midnightblue" points="510.98,-84.26 517.16,-75.65 506.96,-78.53 510.98,-84.26"/>
</g>
<!-- Node11 -->
<g id="node11" class="node">
<title>Node11</title>
<g id="a_node11"><a xlink:title=" ">
<polygon fill="none" stroke="#bfbfbf" points="574.5,-56.5 574.5,-75.5 624.5,-75.5 624.5,-56.5 574.5,-56.5"/>
<text text-anchor="middle" x="599.5" y="-63.5" font-family="Helvetica,sans-Serif" font-size="10.00">unistd.h</text>
</a>
</g>
</g>
<!-- Node7&#45;&gt;Node11 -->
<g id="edge10" class="edge">
<title>Node7&#45;&gt;Node11</title>
<path fill="none" stroke="midnightblue" d="M475.79,-112.44C500.31,-103.44 539.1,-89.19 566.7,-79.05"/>
<polygon fill="midnightblue" stroke="midnightblue" points="568.14,-82.25 576.32,-75.52 565.72,-75.68 568.14,-82.25"/>
</g>
<!-- Node12&#45;&gt;Node6 -->
<g id="edge12" class="edge">
<title>Node12&#45;&gt;Node6</title>
<path fill="none" stroke="midnightblue" d="M652.5,-112.37C652.5,-94.62 652.5,-53.67 652.5,-29.6"/>
<polygon fill="midnightblue" stroke="midnightblue" points="656,-29.59 652.5,-19.59 649,-29.59 656,-29.59"/>
</g>
<!-- Node13 -->
<g id="node13" class="node">
<title>Node13</title>
<g id="a_node13"><a xlink:href="wb__button_8h.html" target="_top" xlink:title=" ">
<polygon fill="none" stroke="black" points="681,-56.5 681,-75.5 750,-75.5 750,-56.5 681,-56.5"/>
<text text-anchor="middle" x="715.5" y="-63.5" font-family="Helvetica,sans-Serif" font-size="10.00">wb_button.h</text>
</a>
</g>
</g>
<!-- Node12&#45;&gt;Node13 -->
<g id="edge13" class="edge">
<title>Node12&#45;&gt;Node13</title>
<path fill="none" stroke="midnightblue" d="M662.62,-112.32C672.03,-104.26 686.24,-92.08 697.57,-82.37"/>
<polygon fill="midnightblue" stroke="midnightblue" points="699.88,-85 705.19,-75.83 695.32,-79.68 699.88,-85"/>
</g>
<!-- Node13&#45;&gt;Node6 -->
<g id="edge14" class="edge">
<title>Node13&#45;&gt;Node6</title>
<path fill="none" stroke="midnightblue" d="M705.38,-56.32C695.97,-48.26 681.76,-36.08 670.43,-26.37"/>
<polygon fill="midnightblue" stroke="midnightblue" points="672.68,-23.68 662.81,-19.83 668.12,-29 672.68,-23.68"/>
</g>
</g>
</svg>
