<?xml version="1.0" encoding="UTF-8" standalone="no"?>
<!DOCTYPE svg PUBLIC "-//W3C//DTD SVG 1.1//EN"
 "http://www.w3.org/Graphics/SVG/1.1/DTD/svg11.dtd">
<!-- Generated by graphviz version 2.49.0 (20210830.1337)
 -->
<!-- Title: typeClassDefs/NXT_Lights_Control.hpp Pages: 1 -->
<svg width="649pt" height="151pt"
 viewBox="0.00 0.00 648.50 151.00" xmlns="http://www.w3.org/2000/svg" xmlns:xlink="http://www.w3.org/1999/xlink">
<g id="graph0" class="graph" transform="scale(1 1) rotate(0) translate(4 147)">
<title>typeClassDefs/NXT_Lights_Control.hpp</title>
<!-- Node1 -->
<g id="node1" class="node">
<title>Node1</title>
<g id="a_node1"><a xlink:title=" ">
<polygon fill="#bfbfbf" stroke="black" points="151,-112.5 151,-142.5 286,-142.5 286,-112.5 151,-112.5"/>
<text text-anchor="start" x="159" y="-130.5" font-family="Helvetica,sans-Serif" font-size="10.00">typeClassDefs/NXT_Lights</text>
<text text-anchor="middle" x="218.5" y="-119.5" font-family="Helvetica,sans-Serif" font-size="10.00">_Control.hpp</text>
</a>
</g>
</g>
<!-- Node2 -->
<g id="node2" class="node">
<title>Node2</title>
<g id="a_node2"><a xlink:title=" ">
<polygon fill="none" stroke="#bfbfbf" points="0,-56.5 0,-75.5 45,-75.5 45,-56.5 0,-56.5"/>
<text text-anchor="middle" x="22.5" y="-63.5" font-family="Helvetica,sans-Serif" font-size="10.00">cstdlib</text>
</a>
</g>
</g>
<!-- Node1&#45;&gt;Node2 -->
<g id="edge1" class="edge">
<title>Node1&#45;&gt;Node2</title>
<path fill="none" stroke="midnightblue" d="M172.05,-112.4C135.99,-101.45 86.92,-86.56 54.98,-76.86"/>
<polygon fill="midnightblue" stroke="midnightblue" points="55.83,-73.46 45.25,-73.91 53.8,-80.16 55.83,-73.46"/>
</g>
<!-- Node3 -->
<g id="node3" class="node">
<title>Node3</title>
<g id="a_node3"><a xlink:title=" ">
<polygon fill="none" stroke="#bfbfbf" points="63,-56.5 63,-75.5 110,-75.5 110,-56.5 63,-56.5"/>
<text text-anchor="middle" x="86.5" y="-63.5" font-family="Helvetica,sans-Serif" font-size="10.00">stdlib.h</text>
</a>
</g>
</g>
<!-- Node1&#45;&gt;Node3 -->
<g id="edge2" class="edge">
<title>Node1&#45;&gt;Node3</title>
<path fill="none" stroke="midnightblue" d="M187.22,-112.4C165.27,-102.51 136.16,-89.38 114.88,-79.79"/>
<polygon fill="midnightblue" stroke="midnightblue" points="116.26,-76.58 105.71,-75.66 113.39,-82.96 116.26,-76.58"/>
</g>
<!-- Node4 -->
<g id="node4" class="node">
<title>Node4</title>
<g id="a_node4"><a xlink:title=" ">
<polygon fill="none" stroke="#bfbfbf" points="128.5,-56.5 128.5,-75.5 174.5,-75.5 174.5,-56.5 128.5,-56.5"/>
<text text-anchor="middle" x="151.5" y="-63.5" font-family="Helvetica,sans-Serif" font-size="10.00">cstring</text>
</a>
</g>
</g>
<!-- Node1&#45;&gt;Node4 -->
<g id="edge3" class="edge">
<title>Node1&#45;&gt;Node4</title>
<path fill="none" stroke="midnightblue" d="M202.62,-112.4C192.48,-103.4 179.34,-91.72 168.91,-82.47"/>
<polygon fill="midnightblue" stroke="midnightblue" points="171.05,-79.68 161.25,-75.66 166.4,-84.92 171.05,-79.68"/>
</g>
<!-- Node5 -->
<g id="node5" class="node">
<title>Node5</title>
<g id="a_node5"><a xlink:title=" ">
<polygon fill="none" stroke="#bfbfbf" points="192.5,-56.5 192.5,-75.5 244.5,-75.5 244.5,-56.5 192.5,-56.5"/>
<text text-anchor="middle" x="218.5" y="-63.5" font-family="Helvetica,sans-Serif" font-size="10.00">sstream</text>
</a>
</g>
</g>
<!-- Node1&#45;&gt;Node5 -->
<g id="edge4" class="edge">
<title>Node1&#45;&gt;Node5</title>
<path fill="none" stroke="midnightblue" d="M218.5,-112.4C218.5,-104.47 218.5,-94.46 218.5,-85.86"/>
<polygon fill="midnightblue" stroke="midnightblue" points="222,-85.66 218.5,-75.66 215,-85.66 222,-85.66"/>
</g>
<!-- Node6 -->
<g id="node6" class="node">
<title>Node6</title>
<g id="a_node6"><a xlink:title=" ">
<polygon fill="none" stroke="#bfbfbf" points="246,-0.5 246,-19.5 299,-19.5 299,-0.5 246,-0.5"/>
<text text-anchor="middle" x="272.5" y="-7.5" font-family="Helvetica,sans-Serif" font-size="10.00">gu_util.h</text>
</a>
</g>
</g>
<!-- Node1&#45;&gt;Node6 -->
<g id="edge5" class="edge">
<title>Node1&#45;&gt;Node6</title>
<path fill="none" stroke="midnightblue" d="M230.24,-112.24C237.76,-102.53 247.25,-89.09 253.5,-76 260.62,-61.08 265.65,-42.94 268.74,-29.61"/>
<polygon fill="midnightblue" stroke="midnightblue" points="272.18,-30.25 270.88,-19.73 265.34,-28.77 272.18,-30.25"/>
</g>
<!-- Node7 -->
<g id="node7" class="node">
<title>Node7</title>
<g id="a_node7"><a xlink:href="gusimplewhiteboard_8h.html" target="_top" xlink:title=" ">
<polygon fill="none" stroke="black" points="413.5,-56.5 413.5,-75.5 523.5,-75.5 523.5,-56.5 413.5,-56.5"/>
<text text-anchor="middle" x="468.5" y="-63.5" font-family="Helvetica,sans-Serif" font-size="10.00">gusimplewhiteboard.h</text>
</a>
</g>
</g>
<!-- Node1&#45;&gt;Node7 -->
<g id="edge6" class="edge">
<title>Node1&#45;&gt;Node7</title>
<path fill="none" stroke="midnightblue" d="M277.43,-112.47C321.88,-101.9 381.97,-87.59 422.81,-77.87"/>
<polygon fill="midnightblue" stroke="midnightblue" points="423.84,-81.23 432.76,-75.51 422.22,-74.42 423.84,-81.23"/>
</g>
<!-- Node12 -->
<g id="node12" class="node">
<title>Node12</title>
<g id="a_node12"><a xlink:href="wb__lights_8h.html" target="_top" xlink:title=" ">
<polygon fill="none" stroke="black" points="301,-56.5 301,-75.5 366,-75.5 366,-56.5 301,-56.5"/>
<text text-anchor="middle" x="333.5" y="-63.5" font-family="Helvetica,sans-Serif" font-size="10.00">wb_lights.h</text>
</a>
</g>
</g>
<!-- Node1&#45;&gt;Node12 -->
<g id="edge11" class="edge">
<title>Node1&#45;&gt;Node12</title>
<path fill="none" stroke="midnightblue" d="M245.75,-112.4C264.53,-102.68 289.33,-89.86 307.77,-80.31"/>
<polygon fill="midnightblue" stroke="midnightblue" points="309.49,-83.36 316.77,-75.66 306.28,-77.14 309.49,-83.36"/>
</g>
<!-- Node8 -->
<g id="node8" class="node">
<title>Node8</title>
<g id="a_node8"><a xlink:title=" ">
<polygon fill="none" stroke="#bfbfbf" points="317,-0.5 317,-19.5 418,-19.5 418,-0.5 317,-0.5"/>
<text text-anchor="middle" x="367.5" y="-7.5" font-family="Helvetica,sans-Serif" font-size="10.00">dispatch/dispatch.h</text>
</a>
</g>
</g>
<!-- Node7&#45;&gt;Node8 -->
<g id="edge7" class="edge">
<title>Node7&#45;&gt;Node8</title>
<path fill="none" stroke="midnightblue" d="M452.27,-56.32C436.15,-47.7 411.2,-34.36 392.54,-24.39"/>
<polygon fill="midnightblue" stroke="midnightblue" points="394.16,-21.28 383.69,-19.65 390.86,-27.46 394.16,-21.28"/>
</g>
<!-- Node9 -->
<g id="node9" class="node">
<title>Node9</title>
<g id="a_node9"><a xlink:title=" ">
<polygon fill="none" stroke="#bfbfbf" points="436,-0.5 436,-19.5 501,-19.5 501,-0.5 436,-0.5"/>
<text text-anchor="middle" x="468.5" y="-7.5" font-family="Helvetica,sans-Serif" font-size="10.00">sys/types.h</text>
</a>
</g>
</g>
<!-- Node7&#45;&gt;Node9 -->
<g id="edge8" class="edge">
<title>Node7&#45;&gt;Node9</title>
<path fill="none" stroke="midnightblue" d="M468.5,-56.08C468.5,-49.01 468.5,-38.86 468.5,-29.99"/>
<polygon fill="midnightblue" stroke="midnightblue" points="472,-29.75 468.5,-19.75 465,-29.75 472,-29.75"/>
</g>
<!-- Node10 -->
<g id="node10" class="node">
<title>Node10</title>
<g id="a_node10"><a xlink:title=" ">
<polygon fill="none" stroke="#bfbfbf" points="519,-0.5 519,-19.5 572,-19.5 572,-0.5 519,-0.5"/>
<text text-anchor="middle" x="545.5" y="-7.5" font-family="Helvetica,sans-Serif" font-size="10.00">cstdbool</text>
</a>
</g>
</g>
<!-- Node7&#45;&gt;Node10 -->
<g id="edge9" class="edge">
<title>Node7&#45;&gt;Node10</title>
<path fill="none" stroke="midnightblue" d="M480.87,-56.32C492.66,-48.06 510.63,-35.45 524.64,-25.63"/>
<polygon fill="midnightblue" stroke="midnightblue" points="526.98,-28.26 533.16,-19.65 522.96,-22.53 526.98,-28.26"/>
</g>
<!-- Node11 -->
<g id="node11" class="node">
<title>Node11</title>
<g id="a_node11"><a xlink:title=" ">
<polygon fill="none" stroke="#bfbfbf" points="590.5,-0.5 590.5,-19.5 640.5,-19.5 640.5,-0.5 590.5,-0.5"/>
<text text-anchor="middle" x="615.5" y="-7.5" font-family="Helvetica,sans-Serif" font-size="10.00">unistd.h</text>
</a>
</g>
</g>
<!-- Node7&#45;&gt;Node11 -->
<g id="edge10" class="edge">
<title>Node7&#45;&gt;Node11</title>
<path fill="none" stroke="midnightblue" d="M491.79,-56.44C516.31,-47.44 555.1,-33.19 582.7,-23.05"/>
<polygon fill="midnightblue" stroke="midnightblue" points="584.14,-26.25 592.32,-19.52 581.72,-19.68 584.14,-26.25"/>
</g>
<!-- Node12&#45;&gt;Node6 -->
<g id="edge12" class="edge">
<title>Node12&#45;&gt;Node6</title>
<path fill="none" stroke="midnightblue" d="M323.7,-56.32C314.68,-48.34 301.09,-36.31 290.18,-26.65"/>
<polygon fill="midnightblue" stroke="midnightblue" points="292.29,-23.84 282.48,-19.83 287.65,-29.08 292.29,-23.84"/>
</g>
</g>
</svg>
