<?xml version="1.0" encoding="UTF-8" standalone="no"?>
<!DOCTYPE svg PUBLIC "-//W3C//DTD SVG 1.1//EN"
 "http://www.w3.org/Graphics/SVG/1.1/DTD/svg11.dtd">
<!-- Generated by graphviz version 2.49.0 (20210830.1337)
 -->
<!-- Title: typeClassDefs/NaoWalkStatus.h Pages: 1 -->
<svg width="528pt" height="308pt"
 viewBox="0.00 0.00 527.50 308.00" xmlns="http://www.w3.org/2000/svg" xmlns:xlink="http://www.w3.org/1999/xlink">
<g id="graph0" class="graph" transform="scale(1 1) rotate(0) translate(4 304)">
<title>typeClassDefs/NaoWalkStatus.h</title>
<!-- Node1 -->
<g id="node1" class="node">
<title>Node1</title>
<g id="a_node1"><a xlink:title=" ">
<polygon fill="#bfbfbf" stroke="black" points="121.5,-280.5 121.5,-299.5 279.5,-299.5 279.5,-280.5 121.5,-280.5"/>
<text text-anchor="middle" x="200.5" y="-287.5" font-family="Helvetica,sans-Serif" font-size="10.00">typeClassDefs/NaoWalkStatus.h</text>
</a>
</g>
</g>
<!-- Node2 -->
<g id="node2" class="node">
<title>Node2</title>
<g id="a_node2"><a xlink:href="_nao_walk_status_8hpp.html" target="_top" xlink:title=" ">
<polygon fill="none" stroke="black" points="149,-224.5 149,-243.5 252,-243.5 252,-224.5 149,-224.5"/>
<text text-anchor="middle" x="200.5" y="-231.5" font-family="Helvetica,sans-Serif" font-size="10.00">NaoWalkStatus.hpp</text>
</a>
</g>
</g>
<!-- Node1&#45;&gt;Node2 -->
<g id="edge1" class="edge">
<title>Node1&#45;&gt;Node2</title>
<path fill="none" stroke="midnightblue" d="M200.5,-280.08C200.5,-273.01 200.5,-262.86 200.5,-253.99"/>
<polygon fill="midnightblue" stroke="midnightblue" points="204,-253.75 200.5,-243.75 197,-253.75 204,-253.75"/>
</g>
<!-- Node3 -->
<g id="node3" class="node">
<title>Node3</title>
<g id="a_node3"><a xlink:title=" ">
<polygon fill="none" stroke="#bfbfbf" points="0,-56.5 0,-75.5 45,-75.5 45,-56.5 0,-56.5"/>
<text text-anchor="middle" x="22.5" y="-63.5" font-family="Helvetica,sans-Serif" font-size="10.00">cstdlib</text>
</a>
</g>
</g>
<!-- Node2&#45;&gt;Node3 -->
<g id="edge2" class="edge">
<title>Node2&#45;&gt;Node3</title>
<path fill="none" stroke="midnightblue" d="M175.71,-224.35C156.5,-216.8 129.96,-204.49 110.5,-188 74.81,-157.76 45.78,-110.19 31.71,-84.63"/>
<polygon fill="midnightblue" stroke="midnightblue" points="34.73,-82.86 26.91,-75.71 28.56,-86.17 34.73,-82.86"/>
</g>
<!-- Node4 -->
<g id="node4" class="node">
<title>Node4</title>
<g id="a_node4"><a xlink:title=" ">
<polygon fill="none" stroke="#bfbfbf" points="63.5,-56.5 63.5,-75.5 111.5,-75.5 111.5,-56.5 63.5,-56.5"/>
<text text-anchor="middle" x="87.5" y="-63.5" font-family="Helvetica,sans-Serif" font-size="10.00">string.h</text>
</a>
</g>
</g>
<!-- Node2&#45;&gt;Node4 -->
<g id="edge3" class="edge">
<title>Node2&#45;&gt;Node4</title>
<path fill="none" stroke="midnightblue" d="M177.42,-224.41C160.77,-217.1 138.94,-205.06 125.5,-188 101.39,-157.4 92.46,-111.31 89.24,-85.75"/>
<polygon fill="midnightblue" stroke="midnightblue" points="92.69,-85.14 88.13,-75.58 85.73,-85.9 92.69,-85.14"/>
</g>
<!-- Node5 -->
<g id="node5" class="node">
<title>Node5</title>
<g id="a_node5"><a xlink:title=" ">
<polygon fill="none" stroke="#bfbfbf" points="205.5,-56.5 205.5,-75.5 257.5,-75.5 257.5,-56.5 205.5,-56.5"/>
<text text-anchor="middle" x="231.5" y="-63.5" font-family="Helvetica,sans-Serif" font-size="10.00">sstream</text>
</a>
</g>
</g>
<!-- Node2&#45;&gt;Node5 -->
<g id="edge4" class="edge">
<title>Node2&#45;&gt;Node5</title>
<path fill="none" stroke="midnightblue" d="M202.27,-224.38C204.12,-215.33 207.08,-200.68 209.5,-188 216.42,-151.77 224.01,-109.35 228.23,-85.58"/>
<polygon fill="midnightblue" stroke="midnightblue" points="231.71,-85.97 230,-75.52 224.82,-84.76 231.71,-85.97"/>
</g>
<!-- Node6 -->
<g id="node6" class="node">
<title>Node6</title>
<g id="a_node6"><a xlink:title=" ">
<polygon fill="none" stroke="#bfbfbf" points="309,-0.5 309,-19.5 362,-19.5 362,-0.5 309,-0.5"/>
<text text-anchor="middle" x="335.5" y="-7.5" font-family="Helvetica,sans-Serif" font-size="10.00">gu_util.h</text>
</a>
</g>
</g>
<!-- Node2&#45;&gt;Node6 -->
<g id="edge5" class="edge">
<title>Node2&#45;&gt;Node6</title>
<path fill="none" stroke="midnightblue" d="M216.09,-224.36C251.04,-203.98 335.04,-149.05 366.5,-76 373.72,-59.23 362.62,-40.45 351.75,-27.4"/>
<polygon fill="midnightblue" stroke="midnightblue" points="354.13,-24.81 344.83,-19.73 348.93,-29.5 354.13,-24.81"/>
</g>
<!-- Node7 -->
<g id="node7" class="node">
<title>Node7</title>
<g id="a_node7"><a xlink:href="wb__nao__walk__status_8h.html" target="_top" xlink:title=" ">
<polygon fill="none" stroke="black" points="403.5,-112.5 403.5,-131.5 519.5,-131.5 519.5,-112.5 403.5,-112.5"/>
<text text-anchor="middle" x="461.5" y="-119.5" font-family="Helvetica,sans-Serif" font-size="10.00">wb_nao_walk_status.h</text>
</a>
</g>
</g>
<!-- Node2&#45;&gt;Node7 -->
<g id="edge6" class="edge">
<title>Node2&#45;&gt;Node7</title>
<path fill="none" stroke="midnightblue" d="M252.28,-227.73C291.7,-222.1 346.36,-210.68 389.5,-188 412.68,-175.81 434.26,-154.45 447.64,-139.56"/>
<polygon fill="midnightblue" stroke="midnightblue" points="450.59,-141.49 454.51,-131.65 445.31,-136.9 450.59,-141.49"/>
</g>
<!-- Node11 -->
<g id="node11" class="node">
<title>Node11</title>
<g id="a_node11"><a xlink:href="_odometry_8h.html" target="_top" xlink:title=" ">
<polygon fill="none" stroke="black" points="134.5,-168.5 134.5,-187.5 200.5,-187.5 200.5,-168.5 134.5,-168.5"/>
<text text-anchor="middle" x="167.5" y="-175.5" font-family="Helvetica,sans-Serif" font-size="10.00">Odometry.h</text>
</a>
</g>
</g>
<!-- Node2&#45;&gt;Node11 -->
<g id="edge13" class="edge">
<title>Node2&#45;&gt;Node11</title>
<path fill="none" stroke="midnightblue" d="M195.05,-224.08C190.49,-216.61 183.83,-205.72 178.21,-196.52"/>
<polygon fill="midnightblue" stroke="midnightblue" points="181.05,-194.46 172.85,-187.75 175.08,-198.11 181.05,-194.46"/>
</g>
<!-- Node7&#45;&gt;Node6 -->
<g id="edge7" class="edge">
<title>Node7&#45;&gt;Node6</title>
<path fill="none" stroke="midnightblue" d="M454.34,-112.49C443.27,-99.56 421.01,-74.52 399.5,-56 386.41,-44.73 370.54,-33.56 357.88,-25.16"/>
<polygon fill="midnightblue" stroke="midnightblue" points="359.6,-22.1 349.31,-19.58 355.77,-27.97 359.6,-22.1"/>
</g>
<!-- Node8 -->
<g id="node8" class="node">
<title>Node8</title>
<g id="a_node8"><a xlink:title=" ">
<polygon fill="none" stroke="#bfbfbf" points="418.5,-0.5 418.5,-19.5 466.5,-19.5 466.5,-0.5 418.5,-0.5"/>
<text text-anchor="middle" x="442.5" y="-7.5" font-family="Helvetica,sans-Serif" font-size="10.00">stdint.h</text>
</a>
</g>
</g>
<!-- Node7&#45;&gt;Node8 -->
<g id="edge8" class="edge">
<title>Node7&#45;&gt;Node8</title>
<path fill="none" stroke="midnightblue" d="M460.01,-112.37C456.94,-94.62 449.87,-53.67 445.71,-29.6"/>
<polygon fill="midnightblue" stroke="midnightblue" points="449.14,-28.85 443.98,-19.59 442.24,-30.04 449.14,-28.85"/>
</g>
<!-- Node9 -->
<g id="node9" class="node">
<title>Node9</title>
<g id="a_node9"><a xlink:href="wb__odometry_8h.html" target="_top" xlink:title=" ">
<polygon fill="none" stroke="black" points="275.5,-56.5 275.5,-75.5 357.5,-75.5 357.5,-56.5 275.5,-56.5"/>
<text text-anchor="middle" x="316.5" y="-63.5" font-family="Helvetica,sans-Serif" font-size="10.00">wb_odometry.h</text>
</a>
</g>
</g>
<!-- Node7&#45;&gt;Node9 -->
<g id="edge9" class="edge">
<title>Node7&#45;&gt;Node9</title>
<path fill="none" stroke="midnightblue" d="M438.52,-112.44C414.34,-103.44 376.08,-89.19 348.85,-79.05"/>
<polygon fill="midnightblue" stroke="midnightblue" points="349.96,-75.73 339.37,-75.52 347.52,-82.29 349.96,-75.73"/>
</g>
<!-- Node9&#45;&gt;Node6 -->
<g id="edge10" class="edge">
<title>Node9&#45;&gt;Node6</title>
<path fill="none" stroke="midnightblue" d="M319.64,-56.08C322.18,-48.85 325.86,-38.41 329.03,-29.4"/>
<polygon fill="midnightblue" stroke="midnightblue" points="332.4,-30.35 332.42,-19.75 325.8,-28.02 332.4,-30.35"/>
</g>
<!-- Node9&#45;&gt;Node8 -->
<g id="edge11" class="edge">
<title>Node9&#45;&gt;Node8</title>
<path fill="none" stroke="midnightblue" d="M336.47,-56.44C357.11,-47.6 389.56,-33.69 413.13,-23.59"/>
<polygon fill="midnightblue" stroke="midnightblue" points="414.82,-26.67 422.63,-19.52 412.06,-20.24 414.82,-26.67"/>
</g>
<!-- Node10 -->
<g id="node10" class="node">
<title>Node10</title>
<g id="a_node10"><a xlink:title=" ">
<polygon fill="none" stroke="#bfbfbf" points="193.5,-0.5 193.5,-19.5 235.5,-19.5 235.5,-0.5 193.5,-0.5"/>
<text text-anchor="middle" x="214.5" y="-7.5" font-family="Helvetica,sans-Serif" font-size="10.00">float.h</text>
</a>
</g>
</g>
<!-- Node9&#45;&gt;Node10 -->
<g id="edge12" class="edge">
<title>Node9&#45;&gt;Node10</title>
<path fill="none" stroke="midnightblue" d="M300.11,-56.32C283.83,-47.7 258.63,-34.36 239.78,-24.39"/>
<polygon fill="midnightblue" stroke="midnightblue" points="241.32,-21.24 230.85,-19.65 238.05,-27.43 241.32,-21.24"/>
</g>
<!-- Node12 -->
<g id="node12" class="node">
<title>Node12</title>
<g id="a_node12"><a xlink:href="_odometry_8hpp.html" target="_top" xlink:title=" ">
<polygon fill="none" stroke="black" points="126,-112.5 126,-131.5 203,-131.5 203,-112.5 126,-112.5"/>
<text text-anchor="middle" x="164.5" y="-119.5" font-family="Helvetica,sans-Serif" font-size="10.00">Odometry.hpp</text>
</a>
</g>
</g>
<!-- Node11&#45;&gt;Node12 -->
<g id="edge14" class="edge">
<title>Node11&#45;&gt;Node12</title>
<path fill="none" stroke="midnightblue" d="M167,-168.08C166.61,-161.01 166.05,-150.86 165.55,-141.99"/>
<polygon fill="midnightblue" stroke="midnightblue" points="169.04,-141.54 164.99,-131.75 162.05,-141.93 169.04,-141.54"/>
</g>
<!-- Node12&#45;&gt;Node3 -->
<g id="edge15" class="edge">
<title>Node12&#45;&gt;Node3</title>
<path fill="none" stroke="midnightblue" d="M142,-112.44C118.42,-103.48 81.18,-89.31 54.54,-79.18"/>
<polygon fill="midnightblue" stroke="midnightblue" points="55.49,-75.8 44.9,-75.52 53,-82.34 55.49,-75.8"/>
</g>
<!-- Node12&#45;&gt;Node4 -->
<g id="edge16" class="edge">
<title>Node12&#45;&gt;Node4</title>
<path fill="none" stroke="midnightblue" d="M152.13,-112.32C140.34,-104.06 122.37,-91.45 108.36,-81.63"/>
<polygon fill="midnightblue" stroke="midnightblue" points="110.04,-78.53 99.84,-75.65 106.02,-84.26 110.04,-78.53"/>
</g>
<!-- Node12&#45;&gt;Node5 -->
<g id="edge17" class="edge">
<title>Node12&#45;&gt;Node5</title>
<path fill="none" stroke="midnightblue" d="M175.26,-112.32C185.27,-104.26 200.39,-92.08 212.43,-82.37"/>
<polygon fill="midnightblue" stroke="midnightblue" points="214.95,-84.83 220.54,-75.83 210.56,-79.38 214.95,-84.83"/>
</g>
<!-- Node12&#45;&gt;Node6 -->
<g id="edge18" class="edge">
<title>Node12&#45;&gt;Node6</title>
<path fill="none" stroke="midnightblue" d="M166.52,-112.06C170.12,-98.1 179,-71.14 196.5,-56 225.33,-31.06 268.21,-19.89 298.71,-14.92"/>
<polygon fill="midnightblue" stroke="midnightblue" points="299.56,-18.34 308.94,-13.41 298.54,-11.41 299.56,-18.34"/>
</g>
<!-- Node12&#45;&gt;Node9 -->
<g id="edge19" class="edge">
<title>Node12&#45;&gt;Node9</title>
<path fill="none" stroke="midnightblue" d="M188.58,-112.44C214.04,-103.4 254.39,-89.06 282.96,-78.92"/>
<polygon fill="midnightblue" stroke="midnightblue" points="284.28,-82.16 292.53,-75.52 281.93,-75.57 284.28,-82.16"/>
</g>
<!-- Node12&#45;&gt;Node10 -->
<g id="edge20" class="edge">
<title>Node12&#45;&gt;Node10</title>
<path fill="none" stroke="midnightblue" d="M162.08,-112.11C159.03,-99.13 155.14,-74.52 163.5,-56 169.12,-43.56 180.06,-33.17 190.38,-25.53"/>
<polygon fill="midnightblue" stroke="midnightblue" points="192.51,-28.31 198.77,-19.76 188.54,-22.54 192.51,-28.31"/>
</g>
</g>
</svg>
