<?xml version="1.0" encoding="UTF-8" standalone="no"?>
<!DOCTYPE svg PUBLIC "-//W3C//DTD SVG 1.1//EN"
 "http://www.w3.org/Graphics/SVG/1.1/DTD/svg11.dtd">
<!-- Generated by graphviz version 2.49.0 (20210830.1337)
 -->
<!-- Title: typeClassDefs/OculusPrimeInterface.h Pages: 1 -->
<svg width="151pt" height="207pt"
 viewBox="0.00 0.00 151.00 207.00" xmlns="http://www.w3.org/2000/svg" xmlns:xlink="http://www.w3.org/1999/xlink">
<g id="graph0" class="graph" transform="scale(1 1) rotate(0) translate(4 203)">
<title>typeClassDefs/OculusPrimeInterface.h</title>
<!-- Node1 -->
<g id="node1" class="node">
<title>Node1</title>
<g id="a_node1"><a xlink:title=" ">
<polygon fill="#bfbfbf" stroke="black" points="2,-168.5 2,-198.5 141,-198.5 141,-168.5 2,-168.5"/>
<text text-anchor="start" x="10" y="-186.5" font-family="Helvetica,sans-Serif" font-size="10.00">typeClassDefs/OculusPrime</text>
<text text-anchor="middle" x="71.5" y="-175.5" font-family="Helvetica,sans-Serif" font-size="10.00">Interface.h</text>
</a>
</g>
</g>
<!-- Node2 -->
<g id="node2" class="node">
<title>Node2</title>
<g id="a_node2"><a xlink:href="_oculus_prime_interface_8hpp.html" target="_top" xlink:title=" ">
<polygon fill="none" stroke="black" points="7,-112.5 7,-131.5 136,-131.5 136,-112.5 7,-112.5"/>
<text text-anchor="middle" x="71.5" y="-119.5" font-family="Helvetica,sans-Serif" font-size="10.00">OculusPrimeInterface.hpp</text>
</a>
</g>
</g>
<!-- Node1&#45;&gt;Node2 -->
<g id="edge1" class="edge">
<title>Node1&#45;&gt;Node2</title>
<path fill="none" stroke="midnightblue" d="M71.5,-168.4C71.5,-160.47 71.5,-150.46 71.5,-141.86"/>
<polygon fill="midnightblue" stroke="midnightblue" points="75,-141.66 71.5,-131.66 68,-141.66 75,-141.66"/>
</g>
<!-- Node3 -->
<g id="node3" class="node">
<title>Node3</title>
<g id="a_node3"><a xlink:href="wb__oculus__prime__interface_8h.html" target="_top" xlink:title=" ">
<polygon fill="none" stroke="black" points="0,-56.5 0,-75.5 143,-75.5 143,-56.5 0,-56.5"/>
<text text-anchor="middle" x="71.5" y="-63.5" font-family="Helvetica,sans-Serif" font-size="10.00">wb_oculus_prime_interface.h</text>
</a>
</g>
</g>
<!-- Node2&#45;&gt;Node3 -->
<g id="edge2" class="edge">
<title>Node2&#45;&gt;Node3</title>
<path fill="none" stroke="midnightblue" d="M71.5,-112.08C71.5,-105.01 71.5,-94.86 71.5,-85.99"/>
<polygon fill="midnightblue" stroke="midnightblue" points="75,-85.75 71.5,-75.75 68,-85.75 75,-85.75"/>
</g>
<!-- Node4 -->
<g id="node4" class="node">
<title>Node4</title>
<g id="a_node4"><a xlink:title=" ">
<polygon fill="none" stroke="#bfbfbf" points="45,-0.5 45,-19.5 98,-19.5 98,-0.5 45,-0.5"/>
<text text-anchor="middle" x="71.5" y="-7.5" font-family="Helvetica,sans-Serif" font-size="10.00">gu_util.h</text>
</a>
</g>
</g>
<!-- Node3&#45;&gt;Node4 -->
<g id="edge3" class="edge">
<title>Node3&#45;&gt;Node4</title>
<path fill="none" stroke="midnightblue" d="M71.5,-56.08C71.5,-49.01 71.5,-38.86 71.5,-29.99"/>
<polygon fill="midnightblue" stroke="midnightblue" points="75,-29.75 71.5,-19.75 68,-29.75 75,-29.75"/>
</g>
</g>
</svg>
