<?xml version="1.0" encoding="UTF-8" standalone="no"?>
<!DOCTYPE svg PUBLIC "-//W3C//DTD SVG 1.1//EN"
 "http://www.w3.org/Graphics/SVG/1.1/DTD/svg11.dtd">
<!-- Generated by graphviz version 2.49.0 (20210830.1337)
 -->
<!-- Title: typeClassDefs/Odometry.h Pages: 1 -->
<svg width="374pt" height="196pt"
 viewBox="0.00 0.00 373.50 196.00" xmlns="http://www.w3.org/2000/svg" xmlns:xlink="http://www.w3.org/1999/xlink">
<g id="graph0" class="graph" transform="scale(1 1) rotate(0) translate(4 192)">
<title>typeClassDefs/Odometry.h</title>
<!-- Node1 -->
<g id="node1" class="node">
<title>Node1</title>
<g id="a_node1"><a xlink:title=" ">
<polygon fill="#bfbfbf" stroke="black" points="116.5,-168.5 116.5,-187.5 248.5,-187.5 248.5,-168.5 116.5,-168.5"/>
<text text-anchor="middle" x="182.5" y="-175.5" font-family="Helvetica,sans-Serif" font-size="10.00">typeClassDefs/Odometry.h</text>
</a>
</g>
</g>
<!-- Node2 -->
<g id="node2" class="node">
<title>Node2</title>
<g id="a_node2"><a xlink:href="_odometry_8hpp.html" target="_top" xlink:title=" ">
<polygon fill="none" stroke="black" points="144,-112.5 144,-131.5 221,-131.5 221,-112.5 144,-112.5"/>
<text text-anchor="middle" x="182.5" y="-119.5" font-family="Helvetica,sans-Serif" font-size="10.00">Odometry.hpp</text>
</a>
</g>
</g>
<!-- Node1&#45;&gt;Node2 -->
<g id="edge1" class="edge">
<title>Node1&#45;&gt;Node2</title>
<path fill="none" stroke="midnightblue" d="M182.5,-168.08C182.5,-161.01 182.5,-150.86 182.5,-141.99"/>
<polygon fill="midnightblue" stroke="midnightblue" points="186,-141.75 182.5,-131.75 179,-141.75 186,-141.75"/>
</g>
<!-- Node3 -->
<g id="node3" class="node">
<title>Node3</title>
<g id="a_node3"><a xlink:title=" ">
<polygon fill="none" stroke="#bfbfbf" points="0,-56.5 0,-75.5 45,-75.5 45,-56.5 0,-56.5"/>
<text text-anchor="middle" x="22.5" y="-63.5" font-family="Helvetica,sans-Serif" font-size="10.00">cstdlib</text>
</a>
</g>
</g>
<!-- Node2&#45;&gt;Node3 -->
<g id="edge2" class="edge">
<title>Node2&#45;&gt;Node3</title>
<path fill="none" stroke="midnightblue" d="M157.15,-112.44C129.44,-103.09 84.98,-88.09 54.79,-77.9"/>
<polygon fill="midnightblue" stroke="midnightblue" points="55.74,-74.52 45.15,-74.64 53.5,-81.16 55.74,-74.52"/>
</g>
<!-- Node4 -->
<g id="node4" class="node">
<title>Node4</title>
<g id="a_node4"><a xlink:title=" ">
<polygon fill="none" stroke="#bfbfbf" points="63.5,-56.5 63.5,-75.5 111.5,-75.5 111.5,-56.5 63.5,-56.5"/>
<text text-anchor="middle" x="87.5" y="-63.5" font-family="Helvetica,sans-Serif" font-size="10.00">string.h</text>
</a>
</g>
</g>
<!-- Node2&#45;&gt;Node4 -->
<g id="edge3" class="edge">
<title>Node2&#45;&gt;Node4</title>
<path fill="none" stroke="midnightblue" d="M167.24,-112.32C152.28,-103.82 129.25,-90.73 111.77,-80.8"/>
<polygon fill="midnightblue" stroke="midnightblue" points="113.15,-77.55 102.73,-75.65 109.69,-83.64 113.15,-77.55"/>
</g>
<!-- Node5 -->
<g id="node5" class="node">
<title>Node5</title>
<g id="a_node5"><a xlink:title=" ">
<polygon fill="none" stroke="#bfbfbf" points="129.5,-56.5 129.5,-75.5 181.5,-75.5 181.5,-56.5 129.5,-56.5"/>
<text text-anchor="middle" x="155.5" y="-63.5" font-family="Helvetica,sans-Serif" font-size="10.00">sstream</text>
</a>
</g>
</g>
<!-- Node2&#45;&gt;Node5 -->
<g id="edge4" class="edge">
<title>Node2&#45;&gt;Node5</title>
<path fill="none" stroke="midnightblue" d="M178.04,-112.08C174.35,-104.69 168.98,-93.95 164.41,-84.81"/>
<polygon fill="midnightblue" stroke="midnightblue" points="167.48,-83.13 159.88,-75.75 161.22,-86.26 167.48,-83.13"/>
</g>
<!-- Node6 -->
<g id="node6" class="node">
<title>Node6</title>
<g id="a_node6"><a xlink:title=" ">
<polygon fill="none" stroke="#bfbfbf" points="183,-0.5 183,-19.5 236,-19.5 236,-0.5 183,-0.5"/>
<text text-anchor="middle" x="209.5" y="-7.5" font-family="Helvetica,sans-Serif" font-size="10.00">gu_util.h</text>
</a>
</g>
</g>
<!-- Node2&#45;&gt;Node6 -->
<g id="edge5" class="edge">
<title>Node2&#45;&gt;Node6</title>
<path fill="none" stroke="midnightblue" d="M184.62,-112.37C188.98,-94.62 199.03,-53.67 204.94,-29.6"/>
<polygon fill="midnightblue" stroke="midnightblue" points="208.41,-30.14 207.39,-19.59 201.61,-28.47 208.41,-30.14"/>
</g>
<!-- Node7 -->
<g id="node7" class="node">
<title>Node7</title>
<g id="a_node7"><a xlink:href="wb__odometry_8h.html" target="_top" xlink:title=" ">
<polygon fill="none" stroke="black" points="237.5,-56.5 237.5,-75.5 319.5,-75.5 319.5,-56.5 237.5,-56.5"/>
<text text-anchor="middle" x="278.5" y="-63.5" font-family="Helvetica,sans-Serif" font-size="10.00">wb_odometry.h</text>
</a>
</g>
</g>
<!-- Node2&#45;&gt;Node7 -->
<g id="edge6" class="edge">
<title>Node2&#45;&gt;Node7</title>
<path fill="none" stroke="midnightblue" d="M197.92,-112.32C213.04,-103.82 236.32,-90.73 253.97,-80.8"/>
<polygon fill="midnightblue" stroke="midnightblue" points="256.11,-83.61 263.11,-75.65 252.68,-77.51 256.11,-83.61"/>
</g>
<!-- Node9 -->
<g id="node9" class="node">
<title>Node9</title>
<g id="a_node9"><a xlink:title=" ">
<polygon fill="none" stroke="#bfbfbf" points="323.5,-0.5 323.5,-19.5 365.5,-19.5 365.5,-0.5 323.5,-0.5"/>
<text text-anchor="middle" x="344.5" y="-7.5" font-family="Helvetica,sans-Serif" font-size="10.00">float.h</text>
</a>
</g>
</g>
<!-- Node2&#45;&gt;Node9 -->
<g id="edge10" class="edge">
<title>Node2&#45;&gt;Node9</title>
<path fill="none" stroke="midnightblue" d="M221.18,-119.3C254.24,-115.75 300.73,-105.41 328.5,-76 340.08,-63.73 343.67,-44.47 344.61,-30.1"/>
<polygon fill="midnightblue" stroke="midnightblue" points="348.12,-29.94 344.9,-19.84 341.12,-29.74 348.12,-29.94"/>
</g>
<!-- Node7&#45;&gt;Node6 -->
<g id="edge7" class="edge">
<title>Node7&#45;&gt;Node6</title>
<path fill="none" stroke="midnightblue" d="M267.41,-56.32C257.01,-48.18 241.24,-35.84 228.78,-26.09"/>
<polygon fill="midnightblue" stroke="midnightblue" points="230.82,-23.24 220.79,-19.83 226.51,-28.75 230.82,-23.24"/>
</g>
<!-- Node8 -->
<g id="node8" class="node">
<title>Node8</title>
<g id="a_node8"><a xlink:title=" ">
<polygon fill="none" stroke="#bfbfbf" points="254.5,-0.5 254.5,-19.5 302.5,-19.5 302.5,-0.5 254.5,-0.5"/>
<text text-anchor="middle" x="278.5" y="-7.5" font-family="Helvetica,sans-Serif" font-size="10.00">stdint.h</text>
</a>
</g>
</g>
<!-- Node7&#45;&gt;Node8 -->
<g id="edge8" class="edge">
<title>Node7&#45;&gt;Node8</title>
<path fill="none" stroke="midnightblue" d="M278.5,-56.08C278.5,-49.01 278.5,-38.86 278.5,-29.99"/>
<polygon fill="midnightblue" stroke="midnightblue" points="282,-29.75 278.5,-19.75 275,-29.75 282,-29.75"/>
</g>
<!-- Node7&#45;&gt;Node9 -->
<g id="edge9" class="edge">
<title>Node7&#45;&gt;Node9</title>
<path fill="none" stroke="midnightblue" d="M289.1,-56.32C298.96,-48.26 313.85,-36.08 325.72,-26.37"/>
<polygon fill="midnightblue" stroke="midnightblue" points="328.18,-28.88 333.7,-19.83 323.75,-23.46 328.18,-28.88"/>
</g>
</g>
</svg>
