<?xml version="1.0" encoding="UTF-8" standalone="no"?>
<!DOCTYPE svg PUBLIC "-//W3C//DTD SVG 1.1//EN"
 "http://www.w3.org/Graphics/SVG/1.1/DTD/svg11.dtd">
<!-- Generated by graphviz version 2.49.0 (20210830.1337)
 -->
<!-- Title: typeClassDefs/ParticlePosition.hpp Pages: 1 -->
<svg width="419pt" height="252pt"
 viewBox="0.00 0.00 419.00 252.00" xmlns="http://www.w3.org/2000/svg" xmlns:xlink="http://www.w3.org/1999/xlink">
<g id="graph0" class="graph" transform="scale(1 1) rotate(0) translate(4 248)">
<title>typeClassDefs/ParticlePosition.hpp</title>
<!-- Node1 -->
<g id="node1" class="node">
<title>Node1</title>
<g id="a_node1"><a xlink:title=" ">
<polygon fill="#bfbfbf" stroke="black" points="125,-224.5 125,-243.5 294,-243.5 294,-224.5 125,-224.5"/>
<text text-anchor="middle" x="209.5" y="-231.5" font-family="Helvetica,sans-Serif" font-size="10.00">typeClassDefs/ParticlePosition.hpp</text>
</a>
</g>
</g>
<!-- Node2 -->
<g id="node2" class="node">
<title>Node2</title>
<g id="a_node2"><a xlink:title=" ">
<polygon fill="none" stroke="#bfbfbf" points="0,-56.5 0,-75.5 45,-75.5 45,-56.5 0,-56.5"/>
<text text-anchor="middle" x="22.5" y="-63.5" font-family="Helvetica,sans-Serif" font-size="10.00">cstdlib</text>
</a>
</g>
</g>
<!-- Node1&#45;&gt;Node2 -->
<g id="edge1" class="edge">
<title>Node1&#45;&gt;Node2</title>
<path fill="none" stroke="midnightblue" d="M170.8,-224.47C147.03,-217.71 117.11,-206.27 95.5,-188 61.75,-159.46 39.34,-111.15 29.04,-85.04"/>
<polygon fill="midnightblue" stroke="midnightblue" points="32.28,-83.74 25.46,-75.63 25.74,-86.22 32.28,-83.74"/>
</g>
<!-- Node3 -->
<g id="node3" class="node">
<title>Node3</title>
<g id="a_node3"><a xlink:title=" ">
<polygon fill="none" stroke="#bfbfbf" points="63.5,-56.5 63.5,-75.5 111.5,-75.5 111.5,-56.5 63.5,-56.5"/>
<text text-anchor="middle" x="87.5" y="-63.5" font-family="Helvetica,sans-Serif" font-size="10.00">string.h</text>
</a>
</g>
</g>
<!-- Node1&#45;&gt;Node3 -->
<g id="edge2" class="edge">
<title>Node1&#45;&gt;Node3</title>
<path fill="none" stroke="midnightblue" d="M169.26,-224.43C148.35,-217.91 124.16,-206.74 109.5,-188 86.23,-158.25 84.61,-111.84 85.84,-85.99"/>
<polygon fill="midnightblue" stroke="midnightblue" points="89.35,-85.92 86.53,-75.7 82.37,-85.44 89.35,-85.92"/>
</g>
<!-- Node4 -->
<g id="node4" class="node">
<title>Node4</title>
<g id="a_node4"><a xlink:title=" ">
<polygon fill="none" stroke="#bfbfbf" points="167.5,-56.5 167.5,-75.5 219.5,-75.5 219.5,-56.5 167.5,-56.5"/>
<text text-anchor="middle" x="193.5" y="-63.5" font-family="Helvetica,sans-Serif" font-size="10.00">sstream</text>
</a>
</g>
</g>
<!-- Node1&#45;&gt;Node4 -->
<g id="edge3" class="edge">
<title>Node1&#45;&gt;Node4</title>
<path fill="none" stroke="midnightblue" d="M208.64,-224.08C206.12,-197.95 198.73,-121.21 195.29,-85.58"/>
<polygon fill="midnightblue" stroke="midnightblue" points="198.77,-85.19 194.33,-75.57 191.8,-85.86 198.77,-85.19"/>
</g>
<!-- Node5 -->
<g id="node5" class="node">
<title>Node5</title>
<g id="a_node5"><a xlink:title=" ">
<polygon fill="none" stroke="#bfbfbf" points="253,-0.5 253,-19.5 306,-19.5 306,-0.5 253,-0.5"/>
<text text-anchor="middle" x="279.5" y="-7.5" font-family="Helvetica,sans-Serif" font-size="10.00">gu_util.h</text>
</a>
</g>
</g>
<!-- Node1&#45;&gt;Node5 -->
<g id="edge4" class="edge">
<title>Node1&#45;&gt;Node5</title>
<path fill="none" stroke="midnightblue" d="M212.24,-224.3C222.57,-191.56 259.2,-75.38 273.61,-29.67"/>
<polygon fill="midnightblue" stroke="midnightblue" points="277.03,-30.47 276.7,-19.88 270.35,-28.37 277.03,-30.47"/>
</g>
<!-- Node6 -->
<g id="node6" class="node">
<title>Node6</title>
<g id="a_node6"><a xlink:href="wb__particle__position_8h.html" target="_top" xlink:title=" ">
<polygon fill="none" stroke="black" points="298,-112.5 298,-131.5 411,-131.5 411,-112.5 298,-112.5"/>
<text text-anchor="middle" x="354.5" y="-119.5" font-family="Helvetica,sans-Serif" font-size="10.00">wb_particle_position.h</text>
</a>
</g>
</g>
<!-- Node1&#45;&gt;Node6 -->
<g id="edge5" class="edge">
<title>Node1&#45;&gt;Node6</title>
<path fill="none" stroke="midnightblue" d="M220.88,-224.37C245.55,-205.65 304.21,-161.15 334.95,-137.83"/>
<polygon fill="midnightblue" stroke="midnightblue" points="337.32,-140.42 343.17,-131.59 333.09,-134.85 337.32,-140.42"/>
</g>
<!-- Node9 -->
<g id="node9" class="node">
<title>Node9</title>
<g id="a_node9"><a xlink:title=" ">
<polygon fill="none" stroke="#bfbfbf" points="313.5,-168.5 313.5,-187.5 355.5,-187.5 355.5,-168.5 313.5,-168.5"/>
<text text-anchor="middle" x="334.5" y="-175.5" font-family="Helvetica,sans-Serif" font-size="10.00">float.h</text>
</a>
</g>
</g>
<!-- Node1&#45;&gt;Node9 -->
<g id="edge11" class="edge">
<title>Node1&#45;&gt;Node9</title>
<path fill="none" stroke="midnightblue" d="M229.31,-224.44C249.79,-215.6 281.98,-201.69 305.36,-191.59"/>
<polygon fill="midnightblue" stroke="midnightblue" points="306.99,-194.7 314.79,-187.52 304.22,-188.27 306.99,-194.7"/>
</g>
<!-- Node10 -->
<g id="node10" class="node">
<title>Node10</title>
<g id="a_node10"><a xlink:href="_point2_d_8h.html" target="_top" xlink:title=" ">
<polygon fill="none" stroke="black" points="119,-168.5 119,-187.5 178,-187.5 178,-168.5 119,-168.5"/>
<text text-anchor="middle" x="148.5" y="-175.5" font-family="Helvetica,sans-Serif" font-size="10.00">Point2D.h</text>
</a>
</g>
</g>
<!-- Node1&#45;&gt;Node10 -->
<g id="edge12" class="edge">
<title>Node1&#45;&gt;Node10</title>
<path fill="none" stroke="midnightblue" d="M199.7,-224.32C190.68,-216.34 177.09,-204.31 166.18,-194.65"/>
<polygon fill="midnightblue" stroke="midnightblue" points="168.29,-191.84 158.48,-187.83 163.65,-197.08 168.29,-191.84"/>
</g>
<!-- Node6&#45;&gt;Node5 -->
<g id="edge6" class="edge">
<title>Node6&#45;&gt;Node5</title>
<path fill="none" stroke="midnightblue" d="M357.9,-112.31C362.46,-99.14 368.84,-73.79 358.5,-56 349.24,-40.07 331.99,-29.31 315.97,-22.31"/>
<polygon fill="midnightblue" stroke="midnightblue" points="316.82,-18.88 306.23,-18.44 314.23,-25.39 316.82,-18.88"/>
</g>
<!-- Node7 -->
<g id="node7" class="node">
<title>Node7</title>
<g id="a_node7"><a xlink:title=" ">
<polygon fill="none" stroke="#bfbfbf" points="357.5,-0.5 357.5,-19.5 405.5,-19.5 405.5,-0.5 357.5,-0.5"/>
<text text-anchor="middle" x="381.5" y="-7.5" font-family="Helvetica,sans-Serif" font-size="10.00">stdint.h</text>
</a>
</g>
</g>
<!-- Node6&#45;&gt;Node7 -->
<g id="edge7" class="edge">
<title>Node6&#45;&gt;Node7</title>
<path fill="none" stroke="midnightblue" d="M364.94,-112.24C373.92,-103.97 386.25,-90.66 391.5,-76 396.97,-60.73 393.29,-42.4 388.93,-29.1"/>
<polygon fill="midnightblue" stroke="midnightblue" points="392.2,-27.84 385.45,-19.67 385.63,-30.26 392.2,-27.84"/>
</g>
<!-- Node8 -->
<g id="node8" class="node">
<title>Node8</title>
<g id="a_node8"><a xlink:href="wb__point2d_8h.html" target="_top" xlink:title=" ">
<polygon fill="none" stroke="black" points="275.5,-56.5 275.5,-75.5 349.5,-75.5 349.5,-56.5 275.5,-56.5"/>
<text text-anchor="middle" x="312.5" y="-63.5" font-family="Helvetica,sans-Serif" font-size="10.00">wb_point2d.h</text>
</a>
</g>
</g>
<!-- Node6&#45;&gt;Node8 -->
<g id="edge8" class="edge">
<title>Node6&#45;&gt;Node8</title>
<path fill="none" stroke="midnightblue" d="M347.56,-112.08C341.57,-104.38 332.75,-93.03 325.45,-83.65"/>
<polygon fill="midnightblue" stroke="midnightblue" points="328.21,-81.5 319.31,-75.75 322.68,-85.79 328.21,-81.5"/>
</g>
<!-- Node8&#45;&gt;Node5 -->
<g id="edge9" class="edge">
<title>Node8&#45;&gt;Node5</title>
<path fill="none" stroke="midnightblue" d="M307.05,-56.08C302.49,-48.61 295.83,-37.72 290.21,-28.52"/>
<polygon fill="midnightblue" stroke="midnightblue" points="293.05,-26.46 284.85,-19.75 287.08,-30.11 293.05,-26.46"/>
</g>
<!-- Node8&#45;&gt;Node7 -->
<g id="edge10" class="edge">
<title>Node8&#45;&gt;Node7</title>
<path fill="none" stroke="midnightblue" d="M323.59,-56.32C333.99,-48.18 349.76,-35.84 362.22,-26.09"/>
<polygon fill="midnightblue" stroke="midnightblue" points="364.49,-28.75 370.21,-19.83 360.18,-23.24 364.49,-28.75"/>
</g>
<!-- Node11 -->
<g id="node11" class="node">
<title>Node11</title>
<g id="a_node11"><a xlink:href="_point2_d_8hpp.html" target="_top" xlink:title=" ">
<polygon fill="none" stroke="black" points="112,-112.5 112,-131.5 181,-131.5 181,-112.5 112,-112.5"/>
<text text-anchor="middle" x="146.5" y="-119.5" font-family="Helvetica,sans-Serif" font-size="10.00">Point2D.hpp</text>
</a>
</g>
</g>
<!-- Node10&#45;&gt;Node11 -->
<g id="edge13" class="edge">
<title>Node10&#45;&gt;Node11</title>
<path fill="none" stroke="midnightblue" d="M148.17,-168.08C147.91,-161.01 147.53,-150.86 147.2,-141.99"/>
<polygon fill="midnightblue" stroke="midnightblue" points="150.69,-141.61 146.82,-131.75 143.7,-141.87 150.69,-141.61"/>
</g>
<!-- Node11&#45;&gt;Node2 -->
<g id="edge14" class="edge">
<title>Node11&#45;&gt;Node2</title>
<path fill="none" stroke="midnightblue" d="M126.85,-112.44C106.54,-103.6 74.6,-89.69 51.4,-79.59"/>
<polygon fill="midnightblue" stroke="midnightblue" points="52.62,-76.3 42.06,-75.52 49.83,-82.72 52.62,-76.3"/>
</g>
<!-- Node11&#45;&gt;Node3 -->
<g id="edge15" class="edge">
<title>Node11&#45;&gt;Node3</title>
<path fill="none" stroke="midnightblue" d="M137.02,-112.32C128.3,-104.34 115.16,-92.31 104.6,-82.65"/>
<polygon fill="midnightblue" stroke="midnightblue" points="106.89,-80 97.15,-75.83 102.17,-85.17 106.89,-80"/>
</g>
<!-- Node11&#45;&gt;Node4 -->
<g id="edge16" class="edge">
<title>Node11&#45;&gt;Node4</title>
<path fill="none" stroke="midnightblue" d="M154.26,-112.08C161.04,-104.3 171.04,-92.8 179.26,-83.37"/>
<polygon fill="midnightblue" stroke="midnightblue" points="181.96,-85.59 185.88,-75.75 176.68,-81 181.96,-85.59"/>
</g>
<!-- Node11&#45;&gt;Node5 -->
<g id="edge17" class="edge">
<title>Node11&#45;&gt;Node5</title>
<path fill="none" stroke="midnightblue" d="M145.59,-112.3C144.66,-98.67 144.92,-72.17 158.5,-56 179.4,-31.12 215.43,-19.99 242.76,-15.01"/>
<polygon fill="midnightblue" stroke="midnightblue" points="243.44,-18.45 252.76,-13.39 242.32,-11.54 243.44,-18.45"/>
</g>
<!-- Node11&#45;&gt;Node8 -->
<g id="edge18" class="edge">
<title>Node11&#45;&gt;Node8</title>
<path fill="none" stroke="midnightblue" d="M172.8,-112.44C200.85,-103.32 245.44,-88.81 276.68,-78.65"/>
<polygon fill="midnightblue" stroke="midnightblue" points="277.89,-81.94 286.32,-75.52 275.73,-75.28 277.89,-81.94"/>
</g>
</g>
</svg>
