<?xml version="1.0" encoding="UTF-8" standalone="no"?>
<!DOCTYPE svg PUBLIC "-//W3C//DTD SVG 1.1//EN"
 "http://www.w3.org/Graphics/SVG/1.1/DTD/svg11.dtd">
<!-- Generated by graphviz version 2.49.0 (20210830.1337)
 -->
<!-- Title: typeClassDefs/ParticlePosition&#45;Bridging&#45;Header.hpp Pages: 1 -->
<svg width="159pt" height="207pt"
 viewBox="0.00 0.00 159.00 207.00" xmlns="http://www.w3.org/2000/svg" xmlns:xlink="http://www.w3.org/1999/xlink">
<g id="graph0" class="graph" transform="scale(1 1) rotate(0) translate(4 203)">
<title>typeClassDefs/ParticlePosition&#45;Bridging&#45;Header.hpp</title>
<!-- Node1 -->
<g id="node1" class="node">
<title>Node1</title>
<g id="a_node1"><a xlink:title=" ">
<polygon fill="#bfbfbf" stroke="black" points="0,-168.5 0,-198.5 151,-198.5 151,-168.5 0,-168.5"/>
<text text-anchor="start" x="8" y="-186.5" font-family="Helvetica,sans-Serif" font-size="10.00">typeClassDefs/ParticlePosition</text>
<text text-anchor="middle" x="75.5" y="-175.5" font-family="Helvetica,sans-Serif" font-size="10.00">&#45;Bridging&#45;Header.hpp</text>
</a>
</g>
</g>
<!-- Node2 -->
<g id="node2" class="node">
<title>Node2</title>
<g id="a_node2"><a xlink:href="wb__particle__position_8h.html" target="_top" xlink:title=" ">
<polygon fill="none" stroke="black" points="19,-112.5 19,-131.5 132,-131.5 132,-112.5 19,-112.5"/>
<text text-anchor="middle" x="75.5" y="-119.5" font-family="Helvetica,sans-Serif" font-size="10.00">wb_particle_position.h</text>
</a>
</g>
</g>
<!-- Node1&#45;&gt;Node2 -->
<g id="edge1" class="edge">
<title>Node1&#45;&gt;Node2</title>
<path fill="none" stroke="midnightblue" d="M75.5,-168.4C75.5,-160.47 75.5,-150.46 75.5,-141.86"/>
<polygon fill="midnightblue" stroke="midnightblue" points="79,-141.66 75.5,-131.66 72,-141.66 79,-141.66"/>
</g>
<!-- Node3 -->
<g id="node3" class="node">
<title>Node3</title>
<g id="a_node3"><a xlink:title=" ">
<polygon fill="none" stroke="#bfbfbf" points="14,-0.5 14,-19.5 67,-19.5 67,-0.5 14,-0.5"/>
<text text-anchor="middle" x="40.5" y="-7.5" font-family="Helvetica,sans-Serif" font-size="10.00">gu_util.h</text>
</a>
</g>
</g>
<!-- Node2&#45;&gt;Node3 -->
<g id="edge2" class="edge">
<title>Node2&#45;&gt;Node3</title>
<path fill="none" stroke="midnightblue" d="M61.71,-112.19C50.67,-104.24 36,-91.45 29.5,-76 23.2,-61.02 27.27,-42.65 32.15,-29.27"/>
<polygon fill="midnightblue" stroke="midnightblue" points="35.49,-30.34 36.06,-19.76 29.02,-27.69 35.49,-30.34"/>
</g>
<!-- Node4 -->
<g id="node4" class="node">
<title>Node4</title>
<g id="a_node4"><a xlink:title=" ">
<polygon fill="none" stroke="#bfbfbf" points="100.5,-0.5 100.5,-19.5 148.5,-19.5 148.5,-0.5 100.5,-0.5"/>
<text text-anchor="middle" x="124.5" y="-7.5" font-family="Helvetica,sans-Serif" font-size="10.00">stdint.h</text>
</a>
</g>
</g>
<!-- Node2&#45;&gt;Node4 -->
<g id="edge3" class="edge">
<title>Node2&#45;&gt;Node4</title>
<path fill="none" stroke="midnightblue" d="M88.67,-112.43C99.64,-104.46 114.56,-91.5 121.5,-76 128,-61.5 128.26,-43.32 127.18,-29.87"/>
<polygon fill="midnightblue" stroke="midnightblue" points="130.65,-29.43 126.06,-19.88 123.69,-30.21 130.65,-29.43"/>
</g>
<!-- Node5 -->
<g id="node5" class="node">
<title>Node5</title>
<g id="a_node5"><a xlink:href="wb__point2d_8h.html" target="_top" xlink:title=" ">
<polygon fill="none" stroke="black" points="38.5,-56.5 38.5,-75.5 112.5,-75.5 112.5,-56.5 38.5,-56.5"/>
<text text-anchor="middle" x="75.5" y="-63.5" font-family="Helvetica,sans-Serif" font-size="10.00">wb_point2d.h</text>
</a>
</g>
</g>
<!-- Node2&#45;&gt;Node5 -->
<g id="edge4" class="edge">
<title>Node2&#45;&gt;Node5</title>
<path fill="none" stroke="midnightblue" d="M75.5,-112.08C75.5,-105.01 75.5,-94.86 75.5,-85.99"/>
<polygon fill="midnightblue" stroke="midnightblue" points="79,-85.75 75.5,-75.75 72,-85.75 79,-85.75"/>
</g>
<!-- Node5&#45;&gt;Node3 -->
<g id="edge5" class="edge">
<title>Node5&#45;&gt;Node3</title>
<path fill="none" stroke="midnightblue" d="M69.72,-56.08C64.83,-48.53 57.67,-37.49 51.67,-28.23"/>
<polygon fill="midnightblue" stroke="midnightblue" points="54.55,-26.24 46.17,-19.75 48.67,-30.05 54.55,-26.24"/>
</g>
<!-- Node5&#45;&gt;Node4 -->
<g id="edge6" class="edge">
<title>Node5&#45;&gt;Node4</title>
<path fill="none" stroke="midnightblue" d="M83.59,-56.08C90.66,-48.3 101.09,-36.8 109.65,-27.37"/>
<polygon fill="midnightblue" stroke="midnightblue" points="112.43,-29.51 116.56,-19.75 107.25,-24.8 112.43,-29.51"/>
</g>
</g>
</svg>
