<?xml version="1.0" encoding="UTF-8" standalone="no"?>
<!DOCTYPE svg PUBLIC "-//W3C//DTD SVG 1.1//EN"
 "http://www.w3.org/Graphics/SVG/1.1/DTD/svg11.dtd">
<!-- Generated by graphviz version 2.49.0 (20210830.1337)
 -->
<!-- Title: typeClassDefs/PixelToRobotRelativeCoord.h Pages: 1 -->
<svg width="861pt" height="274pt"
 viewBox="0.00 0.00 860.50 274.00" xmlns="http://www.w3.org/2000/svg" xmlns:xlink="http://www.w3.org/1999/xlink">
<g id="graph0" class="graph" transform="scale(1 1) rotate(0) translate(4 270)">
<title>typeClassDefs/PixelToRobotRelativeCoord.h</title>
<!-- Node1 -->
<g id="node1" class="node">
<title>Node1</title>
<g id="a_node1"><a xlink:title=" ">
<polygon fill="#bfbfbf" stroke="black" points="85.5,-235.5 85.5,-265.5 225.5,-265.5 225.5,-235.5 85.5,-235.5"/>
<text text-anchor="start" x="93.5" y="-253.5" font-family="Helvetica,sans-Serif" font-size="10.00">typeClassDefs/PixelToRobot</text>
<text text-anchor="middle" x="155.5" y="-242.5" font-family="Helvetica,sans-Serif" font-size="10.00">RelativeCoord.h</text>
</a>
</g>
</g>
<!-- Node2 -->
<g id="node2" class="node">
<title>Node2</title>
<g id="a_node2"><a xlink:href="_pixel_to_robot_relative_coord_8hpp.html" target="_top" xlink:title=" ">
<polygon fill="none" stroke="black" points="79,-179.5 79,-198.5 232,-198.5 232,-179.5 79,-179.5"/>
<text text-anchor="middle" x="155.5" y="-186.5" font-family="Helvetica,sans-Serif" font-size="10.00">PixelToRobotRelativeCoord.hpp</text>
</a>
</g>
</g>
<!-- Node1&#45;&gt;Node2 -->
<g id="edge1" class="edge">
<title>Node1&#45;&gt;Node2</title>
<path fill="none" stroke="midnightblue" d="M155.5,-235.4C155.5,-227.47 155.5,-217.46 155.5,-208.86"/>
<polygon fill="midnightblue" stroke="midnightblue" points="159,-208.66 155.5,-198.66 152,-208.66 159,-208.66"/>
</g>
<!-- Node3 -->
<g id="node3" class="node">
<title>Node3</title>
<g id="a_node3"><a xlink:title=" ">
<polygon fill="none" stroke="#bfbfbf" points="0,-118 0,-137 45,-137 45,-118 0,-118"/>
<text text-anchor="middle" x="22.5" y="-125" font-family="Helvetica,sans-Serif" font-size="10.00">cstdlib</text>
</a>
</g>
</g>
<!-- Node2&#45;&gt;Node3 -->
<g id="edge2" class="edge">
<title>Node2&#45;&gt;Node3</title>
<path fill="none" stroke="midnightblue" d="M136.12,-179.41C115.78,-170.38 82.87,-155.75 54.5,-143 53.31,-142.47 52.1,-141.92 50.87,-141.37"/>
<polygon fill="midnightblue" stroke="midnightblue" points="52,-138.03 41.44,-137.11 49.11,-144.41 52,-138.03"/>
</g>
<!-- Node4 -->
<g id="node4" class="node">
<title>Node4</title>
<g id="a_node4"><a xlink:title=" ">
<polygon fill="none" stroke="#bfbfbf" points="63.5,-118 63.5,-137 111.5,-137 111.5,-118 63.5,-118"/>
<text text-anchor="middle" x="87.5" y="-125" font-family="Helvetica,sans-Serif" font-size="10.00">string.h</text>
</a>
</g>
</g>
<!-- Node2&#45;&gt;Node4 -->
<g id="edge3" class="edge">
<title>Node2&#45;&gt;Node4</title>
<path fill="none" stroke="midnightblue" d="M145.76,-179.48C135.15,-170.2 117.98,-155.17 105.02,-143.83"/>
<polygon fill="midnightblue" stroke="midnightblue" points="107.06,-140.96 97.22,-137.01 102.45,-146.23 107.06,-140.96"/>
</g>
<!-- Node5 -->
<g id="node5" class="node">
<title>Node5</title>
<g id="a_node5"><a xlink:title=" ">
<polygon fill="none" stroke="#bfbfbf" points="129.5,-118 129.5,-137 181.5,-137 181.5,-118 129.5,-118"/>
<text text-anchor="middle" x="155.5" y="-125" font-family="Helvetica,sans-Serif" font-size="10.00">sstream</text>
</a>
</g>
</g>
<!-- Node2&#45;&gt;Node5 -->
<g id="edge4" class="edge">
<title>Node2&#45;&gt;Node5</title>
<path fill="none" stroke="midnightblue" d="M155.5,-179.48C155.5,-171.08 155.5,-157.98 155.5,-147.16"/>
<polygon fill="midnightblue" stroke="midnightblue" points="159,-147.01 155.5,-137.01 152,-147.01 159,-147.01"/>
</g>
<!-- Node6 -->
<g id="node6" class="node">
<title>Node6</title>
<g id="a_node6"><a xlink:title=" ">
<polygon fill="none" stroke="#bfbfbf" points="323,-0.5 323,-19.5 376,-19.5 376,-0.5 323,-0.5"/>
<text text-anchor="middle" x="349.5" y="-7.5" font-family="Helvetica,sans-Serif" font-size="10.00">gu_util.h</text>
</a>
</g>
</g>
<!-- Node2&#45;&gt;Node6 -->
<g id="edge5" class="edge">
<title>Node2&#45;&gt;Node6</title>
<path fill="none" stroke="midnightblue" d="M162.2,-179.38C184.94,-150.17 257.74,-56.62 258.5,-56 275.45,-42.19 297.33,-31.2 315.39,-23.54"/>
<polygon fill="midnightblue" stroke="midnightblue" points="317.04,-26.65 324.98,-19.63 314.4,-20.16 317.04,-26.65"/>
</g>
<!-- Node7 -->
<g id="node7" class="node">
<title>Node7</title>
<g id="a_node7"><a xlink:href="wb__pixel__to__robot__relative__coord_8h.html" target="_top" xlink:title=" ">
<polygon fill="none" stroke="black" points="399,-112.5 399,-142.5 530,-142.5 530,-112.5 399,-112.5"/>
<text text-anchor="start" x="407" y="-130.5" font-family="Helvetica,sans-Serif" font-size="10.00">wb_pixel_to_robot_relative</text>
<text text-anchor="middle" x="464.5" y="-119.5" font-family="Helvetica,sans-Serif" font-size="10.00">_coord.h</text>
</a>
</g>
</g>
<!-- Node2&#45;&gt;Node7 -->
<g id="edge6" class="edge">
<title>Node2&#45;&gt;Node7</title>
<path fill="none" stroke="midnightblue" d="M199.77,-179.48C249.07,-169.98 329.61,-154.47 388.93,-143.05"/>
<polygon fill="midnightblue" stroke="midnightblue" points="389.84,-146.44 399,-141.11 388.52,-139.57 389.84,-146.44"/>
</g>
<!-- Node7&#45;&gt;Node6 -->
<g id="edge7" class="edge">
<title>Node7&#45;&gt;Node6</title>
<path fill="none" stroke="midnightblue" d="M398.91,-118.46C347.78,-110.69 282.8,-96.98 266.5,-76 248.97,-53.44 283.68,-34.22 313.44,-22.66"/>
<polygon fill="midnightblue" stroke="midnightblue" points="314.69,-25.93 322.86,-19.18 312.26,-19.37 314.69,-25.93"/>
</g>
<!-- Node8 -->
<g id="node8" class="node">
<title>Node8</title>
<g id="a_node8"><a xlink:title=" ">
<polygon fill="none" stroke="#bfbfbf" points="613.5,-0.5 613.5,-19.5 661.5,-19.5 661.5,-0.5 613.5,-0.5"/>
<text text-anchor="middle" x="637.5" y="-7.5" font-family="Helvetica,sans-Serif" font-size="10.00">stdint.h</text>
</a>
</g>
</g>
<!-- Node7&#45;&gt;Node8 -->
<g id="edge8" class="edge">
<title>Node7&#45;&gt;Node8</title>
<path fill="none" stroke="midnightblue" d="M530.1,-119.29C583.96,-111.86 654.08,-98.18 671.5,-76 683.58,-60.62 668.93,-40.3 655.28,-26.51"/>
<polygon fill="midnightblue" stroke="midnightblue" points="657.64,-23.92 647.97,-19.58 652.82,-29 657.64,-23.92"/>
</g>
<!-- Node9 -->
<g id="node9" class="node">
<title>Node9</title>
<g id="a_node9"><a xlink:href="wb__sensors__torsojointsensors_8h.html" target="_top" xlink:title=" ">
<polygon fill="none" stroke="black" points="506.5,-56.5 506.5,-75.5 662.5,-75.5 662.5,-56.5 506.5,-56.5"/>
<text text-anchor="middle" x="584.5" y="-63.5" font-family="Helvetica,sans-Serif" font-size="10.00">wb_sensors_torsojointsensors.h</text>
</a>
</g>
</g>
<!-- Node7&#45;&gt;Node9 -->
<g id="edge9" class="edge">
<title>Node7&#45;&gt;Node9</title>
<path fill="none" stroke="midnightblue" d="M492.94,-112.4C512.62,-102.64 538.64,-89.74 557.91,-80.18"/>
<polygon fill="midnightblue" stroke="midnightblue" points="559.63,-83.24 567.04,-75.66 556.52,-76.96 559.63,-83.24"/>
</g>
<!-- Node10 -->
<g id="node10" class="node">
<title>Node10</title>
<g id="a_node10"><a xlink:href="wb__sensors__legjointsensors_8h.html" target="_top" xlink:title=" ">
<polygon fill="none" stroke="black" points="276,-56.5 276,-75.5 423,-75.5 423,-56.5 276,-56.5"/>
<text text-anchor="middle" x="349.5" y="-63.5" font-family="Helvetica,sans-Serif" font-size="10.00">wb_sensors_legjointsensors.h</text>
</a>
</g>
</g>
<!-- Node7&#45;&gt;Node10 -->
<g id="edge12" class="edge">
<title>Node7&#45;&gt;Node10</title>
<path fill="none" stroke="midnightblue" d="M437.25,-112.4C418.47,-102.68 393.67,-89.86 375.23,-80.31"/>
<polygon fill="midnightblue" stroke="midnightblue" points="376.72,-77.14 366.23,-75.66 373.51,-83.36 376.72,-77.14"/>
</g>
<!-- Node11 -->
<g id="node11" class="node">
<title>Node11</title>
<g id="a_node11"><a xlink:href="wb__vision__control__status_8h.html" target="_top" xlink:title=" ">
<polygon fill="none" stroke="black" points="718.5,-56.5 718.5,-75.5 852.5,-75.5 852.5,-56.5 718.5,-56.5"/>
<text text-anchor="middle" x="785.5" y="-63.5" font-family="Helvetica,sans-Serif" font-size="10.00">wb_vision_control_status.h</text>
</a>
</g>
</g>
<!-- Node7&#45;&gt;Node11 -->
<g id="edge15" class="edge">
<title>Node7&#45;&gt;Node11</title>
<path fill="none" stroke="midnightblue" d="M530.23,-114.32C588.94,-103.43 674.01,-87.67 729.53,-77.37"/>
<polygon fill="midnightblue" stroke="midnightblue" points="730.35,-80.78 739.55,-75.52 729.08,-73.9 730.35,-80.78"/>
</g>
<!-- Node13 -->
<g id="node13" class="node">
<title>Node13</title>
<g id="a_node13"><a xlink:title=" ">
<polygon fill="none" stroke="#bfbfbf" points="441,-56.5 441,-75.5 488,-75.5 488,-56.5 441,-56.5"/>
<text text-anchor="middle" x="464.5" y="-63.5" font-family="Helvetica,sans-Serif" font-size="10.00">stdlib.h</text>
</a>
</g>
</g>
<!-- Node7&#45;&gt;Node13 -->
<g id="edge19" class="edge">
<title>Node7&#45;&gt;Node13</title>
<path fill="none" stroke="midnightblue" d="M464.5,-112.4C464.5,-104.47 464.5,-94.46 464.5,-85.86"/>
<polygon fill="midnightblue" stroke="midnightblue" points="468,-85.66 464.5,-75.66 461,-85.66 468,-85.66"/>
</g>
<!-- Node9&#45;&gt;Node6 -->
<g id="edge10" class="edge">
<title>Node9&#45;&gt;Node6</title>
<path fill="none" stroke="midnightblue" d="M547.26,-56.44C503.17,-46.31 430.19,-29.54 386.3,-19.46"/>
<polygon fill="midnightblue" stroke="midnightblue" points="386.86,-15.99 376.33,-17.16 385.29,-22.82 386.86,-15.99"/>
</g>
<!-- Node9&#45;&gt;Node8 -->
<g id="edge11" class="edge">
<title>Node9&#45;&gt;Node8</title>
<path fill="none" stroke="midnightblue" d="M593.25,-56.08C600.97,-48.22 612.4,-36.57 621.72,-27.08"/>
<polygon fill="midnightblue" stroke="midnightblue" points="624.4,-29.34 628.91,-19.75 619.41,-24.44 624.4,-29.34"/>
</g>
<!-- Node10&#45;&gt;Node6 -->
<g id="edge13" class="edge">
<title>Node10&#45;&gt;Node6</title>
<path fill="none" stroke="midnightblue" d="M349.5,-56.08C349.5,-49.01 349.5,-38.86 349.5,-29.99"/>
<polygon fill="midnightblue" stroke="midnightblue" points="353,-29.75 349.5,-19.75 346,-29.75 353,-29.75"/>
</g>
<!-- Node10&#45;&gt;Node8 -->
<g id="edge14" class="edge">
<title>Node10&#45;&gt;Node8</title>
<path fill="none" stroke="midnightblue" d="M395.13,-56.44C453.01,-45.59 551.48,-27.13 603.29,-17.41"/>
<polygon fill="midnightblue" stroke="midnightblue" points="604.13,-20.82 613.31,-15.54 602.84,-13.94 604.13,-20.82"/>
</g>
<!-- Node11&#45;&gt;Node6 -->
<g id="edge16" class="edge">
<title>Node11&#45;&gt;Node6</title>
<path fill="none" stroke="midnightblue" d="M718.33,-56.68C625.21,-45.15 460.08,-24.7 386.57,-15.59"/>
<polygon fill="midnightblue" stroke="midnightblue" points="386.77,-12.09 376.41,-14.33 385.91,-19.04 386.77,-12.09"/>
</g>
<!-- Node11&#45;&gt;Node8 -->
<g id="edge17" class="edge">
<title>Node11&#45;&gt;Node8</title>
<path fill="none" stroke="midnightblue" d="M762.05,-56.44C737.37,-47.44 698.31,-33.19 670.52,-23.05"/>
<polygon fill="midnightblue" stroke="midnightblue" points="671.44,-19.66 660.84,-19.52 669.04,-26.23 671.44,-19.66"/>
</g>
<!-- Node12 -->
<g id="node12" class="node">
<title>Node12</title>
<g id="a_node12"><a xlink:title=" ">
<polygon fill="none" stroke="#bfbfbf" points="755,-0.5 755,-19.5 816,-19.5 816,-0.5 755,-0.5"/>
<text text-anchor="middle" x="785.5" y="-7.5" font-family="Helvetica,sans-Serif" font-size="10.00">sys/time.h</text>
</a>
</g>
</g>
<!-- Node11&#45;&gt;Node12 -->
<g id="edge18" class="edge">
<title>Node11&#45;&gt;Node12</title>
<path fill="none" stroke="midnightblue" d="M785.5,-56.08C785.5,-49.01 785.5,-38.86 785.5,-29.99"/>
<polygon fill="midnightblue" stroke="midnightblue" points="789,-29.75 785.5,-19.75 782,-29.75 789,-29.75"/>
</g>
</g>
</svg>
