<?xml version="1.0" encoding="UTF-8" standalone="no"?>
<!DOCTYPE svg PUBLIC "-//W3C//DTD SVG 1.1//EN"
 "http://www.w3.org/Graphics/SVG/1.1/DTD/svg11.dtd">
<!-- Generated by graphviz version 2.49.0 (20210830.1337)
 -->
<!-- Title: typeClassDefs/PixelCoordinateLine.hpp Pages: 1 -->
<svg width="445pt" height="508pt"
 viewBox="0.00 0.00 445.00 508.00" xmlns="http://www.w3.org/2000/svg" xmlns:xlink="http://www.w3.org/1999/xlink">
<g id="graph0" class="graph" transform="scale(1 1) rotate(0) translate(4 504)">
<title>typeClassDefs/PixelCoordinateLine.hpp</title>
<!-- Node1 -->
<g id="node1" class="node">
<title>Node1</title>
<g id="a_node1"><a xlink:title=" ">
<polygon fill="#bfbfbf" stroke="black" points="145.5,-469.5 145.5,-499.5 295.5,-499.5 295.5,-469.5 145.5,-469.5"/>
<text text-anchor="start" x="153.5" y="-487.5" font-family="Helvetica,sans-Serif" font-size="10.00">typeClassDefs/PixelCoordinate</text>
<text text-anchor="middle" x="220.5" y="-476.5" font-family="Helvetica,sans-Serif" font-size="10.00">Line.hpp</text>
</a>
</g>
</g>
<!-- Node2 -->
<g id="node2" class="node">
<title>Node2</title>
<g id="a_node2"><a xlink:href="_pixel_coordinate_line_8h.html" target="_top" xlink:title=" ">
<polygon fill="none" stroke="black" points="145.5,-402.5 145.5,-432.5 295.5,-432.5 295.5,-402.5 145.5,-402.5"/>
<text text-anchor="start" x="153.5" y="-420.5" font-family="Helvetica,sans-Serif" font-size="10.00">typeClassDefs/PixelCoordinate</text>
<text text-anchor="middle" x="220.5" y="-409.5" font-family="Helvetica,sans-Serif" font-size="10.00">Line.h</text>
</a>
</g>
</g>
<!-- Node1&#45;&gt;Node2 -->
<g id="edge1" class="edge">
<title>Node1&#45;&gt;Node2</title>
<path fill="none" stroke="midnightblue" d="M220.5,-459.11C220.5,-450.15 220.5,-440.32 220.5,-432.58"/>
<polygon fill="midnightblue" stroke="midnightblue" points="217,-459.4 220.5,-469.4 224,-459.4 217,-459.4"/>
</g>
<!-- Node3 -->
<g id="node3" class="node">
<title>Node3</title>
<g id="a_node3"><a xlink:href="_vision_detection_line_array_8hpp.html" target="_top" xlink:title=" ">
<polygon fill="none" stroke="black" points="62,-335.5 62,-365.5 213,-365.5 213,-335.5 62,-335.5"/>
<text text-anchor="start" x="70" y="-353.5" font-family="Helvetica,sans-Serif" font-size="10.00">typeClassDefs/VisionDetection</text>
<text text-anchor="middle" x="137.5" y="-342.5" font-family="Helvetica,sans-Serif" font-size="10.00">LineArray.hpp</text>
</a>
</g>
</g>
<!-- Node2&#45;&gt;Node3 -->
<g id="edge2" class="edge">
<title>Node2&#45;&gt;Node3</title>
<path fill="none" stroke="midnightblue" d="M194.54,-396.17C181.85,-386.23 166.89,-374.51 155.47,-365.58"/>
<polygon fill="midnightblue" stroke="midnightblue" points="192.46,-398.99 202.49,-402.4 196.78,-393.47 192.46,-398.99"/>
</g>
<!-- Node13 -->
<g id="node13" class="node">
<title>Node13</title>
<g id="a_node13"><a xlink:href="_vision_line_8hpp.html" target="_top" xlink:title=" ">
<polygon fill="none" stroke="black" points="231.5,-341 231.5,-360 377.5,-360 377.5,-341 231.5,-341"/>
<text text-anchor="middle" x="304.5" y="-348" font-family="Helvetica,sans-Serif" font-size="10.00">typeClassDefs/VisionLine.hpp</text>
</a>
</g>
</g>
<!-- Node2&#45;&gt;Node13 -->
<g id="edge12" class="edge">
<title>Node2&#45;&gt;Node13</title>
<path fill="none" stroke="midnightblue" d="M246.98,-396.01C262.58,-383.94 281.49,-369.3 293.26,-360.19"/>
<polygon fill="midnightblue" stroke="midnightblue" points="244.49,-393.51 238.73,-402.4 248.78,-399.04 244.49,-393.51"/>
</g>
<!-- Node4 -->
<g id="node4" class="node">
<title>Node4</title>
<g id="a_node4"><a xlink:href="_vision_detection_line_array_8h.html" target="_top" xlink:title=" ">
<polygon fill="none" stroke="black" points="61,-268.5 61,-298.5 212,-298.5 212,-268.5 61,-268.5"/>
<text text-anchor="start" x="69" y="-286.5" font-family="Helvetica,sans-Serif" font-size="10.00">typeClassDefs/VisionDetection</text>
<text text-anchor="middle" x="136.5" y="-275.5" font-family="Helvetica,sans-Serif" font-size="10.00">LineArray.h</text>
</a>
</g>
</g>
<!-- Node3&#45;&gt;Node4 -->
<g id="edge3" class="edge">
<title>Node3&#45;&gt;Node4</title>
<path fill="none" stroke="midnightblue" d="M137.12,-325.11C136.99,-316.15 136.84,-306.32 136.72,-298.58"/>
<polygon fill="midnightblue" stroke="midnightblue" points="133.63,-325.45 137.28,-335.4 140.63,-325.34 133.63,-325.45"/>
</g>
<!-- Node5 -->
<g id="node5" class="node">
<title>Node5</title>
<g id="a_node5"><a xlink:href="_vision_detection_lines_8hpp.html" target="_top" xlink:title=" ">
<polygon fill="none" stroke="black" points="60,-201.5 60,-231.5 211,-231.5 211,-201.5 60,-201.5"/>
<text text-anchor="start" x="68" y="-219.5" font-family="Helvetica,sans-Serif" font-size="10.00">typeClassDefs/VisionDetection</text>
<text text-anchor="middle" x="135.5" y="-208.5" font-family="Helvetica,sans-Serif" font-size="10.00">Lines.hpp</text>
</a>
</g>
</g>
<!-- Node4&#45;&gt;Node5 -->
<g id="edge4" class="edge">
<title>Node4&#45;&gt;Node5</title>
<path fill="none" stroke="midnightblue" d="M136.12,-258.11C135.99,-249.15 135.84,-239.32 135.72,-231.58"/>
<polygon fill="midnightblue" stroke="midnightblue" points="132.63,-258.45 136.28,-268.4 139.63,-258.34 132.63,-258.45"/>
</g>
<!-- Node6 -->
<g id="node6" class="node">
<title>Node6</title>
<g id="a_node6"><a xlink:href="guwhiteboardposter_8h.html" target="_top" xlink:title=" ">
<polygon fill="none" stroke="black" points="169,-140 169,-159 278,-159 278,-140 169,-140"/>
<text text-anchor="middle" x="223.5" y="-147" font-family="Helvetica,sans-Serif" font-size="10.00">guwhiteboardposter.h</text>
</a>
</g>
</g>
<!-- Node5&#45;&gt;Node6 -->
<g id="edge5" class="edge">
<title>Node5&#45;&gt;Node6</title>
<path fill="none" stroke="midnightblue" d="M162.84,-195.31C179.36,-183.1 199.57,-168.18 211.98,-159.01"/>
<polygon fill="midnightblue" stroke="midnightblue" points="160.56,-192.64 154.59,-201.4 164.72,-198.27 160.56,-192.64"/>
</g>
<!-- Node12 -->
<g id="node12" class="node">
<title>Node12</title>
<g id="a_node12"><a xlink:href="_vision_detection_lines_8h.html" target="_top" xlink:title=" ">
<polygon fill="none" stroke="black" points="0,-134.5 0,-164.5 151,-164.5 151,-134.5 0,-134.5"/>
<text text-anchor="start" x="8" y="-152.5" font-family="Helvetica,sans-Serif" font-size="10.00">typeClassDefs/VisionDetection</text>
<text text-anchor="middle" x="75.5" y="-141.5" font-family="Helvetica,sans-Serif" font-size="10.00">Lines.h</text>
</a>
</g>
</g>
<!-- Node5&#45;&gt;Node12 -->
<g id="edge11" class="edge">
<title>Node5&#45;&gt;Node12</title>
<path fill="none" stroke="midnightblue" d="M115.68,-194.02C106.74,-184.34 96.43,-173.17 88.49,-164.58"/>
<polygon fill="midnightblue" stroke="midnightblue" points="113.13,-196.42 122.48,-201.4 118.27,-191.67 113.13,-196.42"/>
</g>
<!-- Node7 -->
<g id="node7" class="node">
<title>Node7</title>
<g id="a_node7"><a xlink:href="_simple_whiteboard_test_8h.html" target="_top" xlink:title=" ">
<polygon fill="none" stroke="black" points="24,-67.5 24,-97.5 149,-97.5 149,-67.5 24,-67.5"/>
<text text-anchor="start" x="32" y="-85.5" font-family="Helvetica,sans-Serif" font-size="10.00">SimpleWhiteboardTest</text>
<text text-anchor="middle" x="86.5" y="-74.5" font-family="Helvetica,sans-Serif" font-size="10.00">/SimpleWhiteboardTest.h</text>
</a>
</g>
</g>
<!-- Node6&#45;&gt;Node7 -->
<g id="edge6" class="edge">
<title>Node6&#45;&gt;Node7</title>
<path fill="none" stroke="midnightblue" d="M196.04,-135.47C172.88,-124.49 139.81,-108.79 116.07,-97.53"/>
<polygon fill="midnightblue" stroke="midnightblue" points="194.77,-138.74 205.31,-139.87 197.77,-132.42 194.77,-138.74"/>
</g>
<!-- Node9 -->
<g id="node9" class="node">
<title>Node9</title>
<g id="a_node9"><a xlink:href="guwhiteboardgetter_8h.html" target="_top" xlink:title=" ">
<polygon fill="none" stroke="black" points="170,-73 170,-92 277,-92 277,-73 170,-73"/>
<text text-anchor="middle" x="223.5" y="-80" font-family="Helvetica,sans-Serif" font-size="10.00">guwhiteboardgetter.h</text>
</a>
</g>
</g>
<!-- Node6&#45;&gt;Node9 -->
<g id="edge8" class="edge">
<title>Node6&#45;&gt;Node9</title>
<path fill="none" stroke="midnightblue" d="M223.5,-129.54C223.5,-117.17 223.5,-101.62 223.5,-92.13"/>
<polygon fill="midnightblue" stroke="midnightblue" points="220,-129.73 223.5,-139.73 227,-129.73 220,-129.73"/>
</g>
<!-- Node11 -->
<g id="node11" class="node">
<title>Node11</title>
<g id="a_node11"><a xlink:href="guwhiteboardposter_8cpp.html" target="_top" xlink:title=" ">
<polygon fill="none" stroke="black" points="295,-73 295,-92 414,-92 414,-73 295,-73"/>
<text text-anchor="middle" x="354.5" y="-80" font-family="Helvetica,sans-Serif" font-size="10.00">guwhiteboardposter.cpp</text>
</a>
</g>
</g>
<!-- Node6&#45;&gt;Node11 -->
<g id="edge10" class="edge">
<title>Node6&#45;&gt;Node11</title>
<path fill="none" stroke="midnightblue" d="M250.16,-135.27C276.1,-122.4 314.78,-103.21 337.03,-92.17"/>
<polygon fill="midnightblue" stroke="midnightblue" points="248.3,-132.29 240.9,-139.87 251.41,-138.56 248.3,-132.29"/>
</g>
<!-- Node8 -->
<g id="node8" class="node">
<title>Node8</title>
<g id="a_node8"><a xlink:href="_simple_whiteboard_test_8mm.html" target="_top" xlink:title=" ">
<polygon fill="none" stroke="black" points="13,-0.5 13,-30.5 150,-30.5 150,-0.5 13,-0.5"/>
<text text-anchor="start" x="21" y="-18.5" font-family="Helvetica,sans-Serif" font-size="10.00">SimpleWhiteboardTest</text>
<text text-anchor="middle" x="81.5" y="-7.5" font-family="Helvetica,sans-Serif" font-size="10.00">/SimpleWhiteboardTest.mm</text>
</a>
</g>
</g>
<!-- Node7&#45;&gt;Node8 -->
<g id="edge7" class="edge">
<title>Node7&#45;&gt;Node8</title>
<path fill="none" stroke="midnightblue" d="M84.65,-57.4C83.95,-48.37 83.19,-38.41 82.58,-30.58"/>
<polygon fill="midnightblue" stroke="midnightblue" points="81.16,-57.69 85.42,-67.4 88.14,-57.16 81.16,-57.69"/>
</g>
<!-- Node10 -->
<g id="node10" class="node">
<title>Node10</title>
<g id="a_node10"><a xlink:href="guwhiteboardgetter_8cpp.html" target="_top" xlink:title=" ">
<polygon fill="none" stroke="black" points="168,-6 168,-25 285,-25 285,-6 168,-6"/>
<text text-anchor="middle" x="226.5" y="-13" font-family="Helvetica,sans-Serif" font-size="10.00">guwhiteboardgetter.cpp</text>
</a>
</g>
</g>
<!-- Node9&#45;&gt;Node10 -->
<g id="edge9" class="edge">
<title>Node9&#45;&gt;Node10</title>
<path fill="none" stroke="midnightblue" d="M224.38,-62.54C224.95,-50.17 225.66,-34.62 226.1,-25.13"/>
<polygon fill="midnightblue" stroke="midnightblue" points="220.87,-62.58 223.9,-72.73 227.86,-62.91 220.87,-62.58"/>
</g>
<!-- Node14 -->
<g id="node14" class="node">
<title>Node14</title>
<g id="a_node14"><a xlink:href="_vision_line_8h.html" target="_top" xlink:title=" ">
<polygon fill="none" stroke="black" points="236.5,-274 236.5,-293 372.5,-293 372.5,-274 236.5,-274"/>
<text text-anchor="middle" x="304.5" y="-281" font-family="Helvetica,sans-Serif" font-size="10.00">typeClassDefs/VisionLine.h</text>
</a>
</g>
</g>
<!-- Node13&#45;&gt;Node14 -->
<g id="edge13" class="edge">
<title>Node13&#45;&gt;Node14</title>
<path fill="none" stroke="midnightblue" d="M304.5,-330.54C304.5,-318.17 304.5,-302.62 304.5,-293.13"/>
<polygon fill="midnightblue" stroke="midnightblue" points="301,-330.73 304.5,-340.73 308,-330.73 301,-330.73"/>
</g>
<!-- Node15 -->
<g id="node15" class="node">
<title>Node15</title>
<g id="a_node15"><a xlink:href="_vision_lines_8hpp.html" target="_top" xlink:title=" ">
<polygon fill="none" stroke="black" points="229.5,-207 229.5,-226 381.5,-226 381.5,-207 229.5,-207"/>
<text text-anchor="middle" x="305.5" y="-214" font-family="Helvetica,sans-Serif" font-size="10.00">typeClassDefs/VisionLines.hpp</text>
</a>
</g>
</g>
<!-- Node14&#45;&gt;Node15 -->
<g id="edge14" class="edge">
<title>Node14&#45;&gt;Node15</title>
<path fill="none" stroke="midnightblue" d="M304.79,-263.54C304.98,-251.17 305.22,-235.62 305.37,-226.13"/>
<polygon fill="midnightblue" stroke="midnightblue" points="301.29,-263.68 304.63,-273.73 308.29,-263.79 301.29,-263.68"/>
</g>
<!-- Node15&#45;&gt;Node6 -->
<g id="edge15" class="edge">
<title>Node15&#45;&gt;Node6</title>
<path fill="none" stroke="midnightblue" d="M286.22,-200.21C270.06,-187.41 247.58,-169.59 234.38,-159.13"/>
<polygon fill="midnightblue" stroke="midnightblue" points="284.43,-203.26 294.44,-206.73 288.78,-197.78 284.43,-203.26"/>
</g>
<!-- Node16 -->
<g id="node16" class="node">
<title>Node16</title>
<g id="a_node16"><a xlink:href="_vision_lines_8h.html" target="_top" xlink:title=" ">
<polygon fill="none" stroke="black" points="296,-140 296,-159 437,-159 437,-140 296,-140"/>
<text text-anchor="middle" x="366.5" y="-147" font-family="Helvetica,sans-Serif" font-size="10.00">typeClassDefs/VisionLines.h</text>
</a>
</g>
</g>
<!-- Node15&#45;&gt;Node16 -->
<g id="edge16" class="edge">
<title>Node15&#45;&gt;Node16</title>
<path fill="none" stroke="midnightblue" d="M320.86,-199.13C332.79,-186.42 348.86,-169.3 358.4,-159.13"/>
<polygon fill="midnightblue" stroke="midnightblue" points="318.02,-197.05 313.73,-206.73 323.12,-201.84 318.02,-197.05"/>
</g>
</g>
</svg>
