<?xml version="1.0" encoding="UTF-8" standalone="no"?>
<!DOCTYPE svg PUBLIC "-//W3C//DTD SVG 1.1//EN"
 "http://www.w3.org/Graphics/SVG/1.1/DTD/svg11.dtd">
<!-- Generated by graphviz version 2.49.0 (20210830.1337)
 -->
<!-- Title: typeClassDefs/PixelCoordinate.h Pages: 1 -->
<svg width="1086pt" height="564pt"
 viewBox="0.00 0.00 1086.00 564.00" xmlns="http://www.w3.org/2000/svg" xmlns:xlink="http://www.w3.org/1999/xlink">
<g id="graph0" class="graph" transform="scale(1 1) rotate(0) translate(4 560)">
<title>typeClassDefs/PixelCoordinate.h</title>
<!-- Node1 -->
<g id="node1" class="node">
<title>Node1</title>
<g id="a_node1"><a xlink:title=" ">
<polygon fill="#bfbfbf" stroke="black" points="556.5,-536.5 556.5,-555.5 714.5,-555.5 714.5,-536.5 556.5,-536.5"/>
<text text-anchor="middle" x="635.5" y="-543.5" font-family="Helvetica,sans-Serif" font-size="10.00">typeClassDefs/PixelCoordinate.h</text>
</a>
</g>
</g>
<!-- Node2 -->
<g id="node2" class="node">
<title>Node2</title>
<g id="a_node2"><a xlink:href="_pixel_coordinate_line_8hpp.html" target="_top" xlink:title=" ">
<polygon fill="none" stroke="black" points="200.5,-469.5 200.5,-499.5 350.5,-499.5 350.5,-469.5 200.5,-469.5"/>
<text text-anchor="start" x="208.5" y="-487.5" font-family="Helvetica,sans-Serif" font-size="10.00">typeClassDefs/PixelCoordinate</text>
<text text-anchor="middle" x="275.5" y="-476.5" font-family="Helvetica,sans-Serif" font-size="10.00">Line.hpp</text>
</a>
</g>
</g>
<!-- Node1&#45;&gt;Node2 -->
<g id="edge1" class="edge">
<title>Node1&#45;&gt;Node2</title>
<path fill="none" stroke="midnightblue" d="M573.93,-534.82C512.19,-524.62 417.02,-508.89 350.81,-497.95"/>
<polygon fill="midnightblue" stroke="midnightblue" points="573.48,-538.3 583.92,-536.48 574.63,-531.39 573.48,-538.3"/>
</g>
<!-- Node18 -->
<g id="node18" class="node">
<title>Node18</title>
<g id="a_node18"><a xlink:href="_vision_detection_ball_8hpp.html" target="_top" xlink:title=" ">
<polygon fill="none" stroke="black" points="401,-469.5 401,-499.5 552,-499.5 552,-469.5 401,-469.5"/>
<text text-anchor="start" x="409" y="-487.5" font-family="Helvetica,sans-Serif" font-size="10.00">typeClassDefs/VisionDetection</text>
<text text-anchor="middle" x="476.5" y="-476.5" font-family="Helvetica,sans-Serif" font-size="10.00">Ball.hpp</text>
</a>
</g>
</g>
<!-- Node1&#45;&gt;Node18 -->
<g id="edge18" class="edge">
<title>Node1&#45;&gt;Node18</title>
<path fill="none" stroke="midnightblue" d="M603.03,-532.85C577.2,-523.18 541.03,-509.65 513.97,-499.52"/>
<polygon fill="midnightblue" stroke="midnightblue" points="602.13,-536.25 612.72,-536.48 604.58,-529.69 602.13,-536.25"/>
</g>
<!-- Node22 -->
<g id="node22" class="node">
<title>Node22</title>
<g id="a_node22"><a xlink:href="_vision_detection_goal_post_8hpp.html" target="_top" xlink:title=" ">
<polygon fill="none" stroke="black" points="888,-469.5 888,-499.5 1039,-499.5 1039,-469.5 888,-469.5"/>
<text text-anchor="start" x="896" y="-487.5" font-family="Helvetica,sans-Serif" font-size="10.00">typeClassDefs/VisionDetection</text>
<text text-anchor="middle" x="963.5" y="-476.5" font-family="Helvetica,sans-Serif" font-size="10.00">GoalPost.hpp</text>
</a>
</g>
</g>
<!-- Node1&#45;&gt;Node22 -->
<g id="edge23" class="edge">
<title>Node1&#45;&gt;Node22</title>
<path fill="none" stroke="midnightblue" d="M692.6,-534.64C746.69,-524.83 828.27,-510.03 887.77,-499.24"/>
<polygon fill="midnightblue" stroke="midnightblue" points="691.71,-531.25 682.49,-536.48 692.96,-538.13 691.71,-531.25"/>
</g>
<!-- Node28 -->
<g id="node28" class="node">
<title>Node28</title>
<g id="a_node28"><a xlink:href="_vision_detection_horizon_8hpp.html" target="_top" xlink:title=" ">
<polygon fill="none" stroke="black" points="719,-469.5 719,-499.5 870,-499.5 870,-469.5 719,-469.5"/>
<text text-anchor="start" x="727" y="-487.5" font-family="Helvetica,sans-Serif" font-size="10.00">typeClassDefs/VisionDetection</text>
<text text-anchor="middle" x="794.5" y="-476.5" font-family="Helvetica,sans-Serif" font-size="10.00">Horizon.hpp</text>
</a>
</g>
</g>
<!-- Node1&#45;&gt;Node28 -->
<g id="edge30" class="edge">
<title>Node1&#45;&gt;Node28</title>
<path fill="none" stroke="midnightblue" d="M667.97,-532.85C693.8,-523.18 729.97,-509.65 757.03,-499.52"/>
<polygon fill="midnightblue" stroke="midnightblue" points="666.42,-529.69 658.28,-536.48 668.87,-536.25 666.42,-529.69"/>
</g>
<!-- Node32 -->
<g id="node32" class="node">
<title>Node32</title>
<g id="a_node32"><a xlink:href="_vision_field_feature_8hpp.html" target="_top" xlink:title=" ">
<polygon fill="none" stroke="black" points="570,-469.5 570,-499.5 701,-499.5 701,-469.5 570,-469.5"/>
<text text-anchor="start" x="578" y="-487.5" font-family="Helvetica,sans-Serif" font-size="10.00">typeClassDefs/VisionField</text>
<text text-anchor="middle" x="635.5" y="-476.5" font-family="Helvetica,sans-Serif" font-size="10.00">Feature.hpp</text>
</a>
</g>
</g>
<!-- Node1&#45;&gt;Node32 -->
<g id="edge35" class="edge">
<title>Node1&#45;&gt;Node32</title>
<path fill="none" stroke="midnightblue" d="M635.5,-526.23C635.5,-517.59 635.5,-507.5 635.5,-499.52"/>
<polygon fill="midnightblue" stroke="midnightblue" points="632,-526.48 635.5,-536.48 639,-526.48 632,-526.48"/>
</g>
<!-- Node3 -->
<g id="node3" class="node">
<title>Node3</title>
<g id="a_node3"><a xlink:href="_pixel_coordinate_line_8h.html" target="_top" xlink:title=" ">
<polygon fill="none" stroke="black" points="167.5,-402.5 167.5,-432.5 317.5,-432.5 317.5,-402.5 167.5,-402.5"/>
<text text-anchor="start" x="175.5" y="-420.5" font-family="Helvetica,sans-Serif" font-size="10.00">typeClassDefs/PixelCoordinate</text>
<text text-anchor="middle" x="242.5" y="-409.5" font-family="Helvetica,sans-Serif" font-size="10.00">Line.h</text>
</a>
</g>
</g>
<!-- Node2&#45;&gt;Node3 -->
<g id="edge2" class="edge">
<title>Node2&#45;&gt;Node3</title>
<path fill="none" stroke="midnightblue" d="M263.71,-460.28C259.01,-451.02 253.75,-440.66 249.65,-432.58"/>
<polygon fill="midnightblue" stroke="midnightblue" points="260.69,-462.06 268.34,-469.4 266.93,-458.89 260.69,-462.06"/>
</g>
<!-- Node4 -->
<g id="node4" class="node">
<title>Node4</title>
<g id="a_node4"><a xlink:href="_vision_detection_line_array_8hpp.html" target="_top" xlink:title=" ">
<polygon fill="none" stroke="black" points="0,-335.5 0,-365.5 151,-365.5 151,-335.5 0,-335.5"/>
<text text-anchor="start" x="8" y="-353.5" font-family="Helvetica,sans-Serif" font-size="10.00">typeClassDefs/VisionDetection</text>
<text text-anchor="middle" x="75.5" y="-342.5" font-family="Helvetica,sans-Serif" font-size="10.00">LineArray.hpp</text>
</a>
</g>
</g>
<!-- Node3&#45;&gt;Node4 -->
<g id="edge3" class="edge">
<title>Node3&#45;&gt;Node4</title>
<path fill="none" stroke="midnightblue" d="M196.72,-398.68C169.94,-388.26 136.6,-375.28 111.67,-365.58"/>
<polygon fill="midnightblue" stroke="midnightblue" points="195.67,-402.03 206.26,-402.4 198.21,-395.51 195.67,-402.03"/>
</g>
<!-- Node14 -->
<g id="node14" class="node">
<title>Node14</title>
<g id="a_node14"><a xlink:href="_vision_line_8hpp.html" target="_top" xlink:title=" ">
<polygon fill="none" stroke="black" points="169.5,-341 169.5,-360 315.5,-360 315.5,-341 169.5,-341"/>
<text text-anchor="middle" x="242.5" y="-348" font-family="Helvetica,sans-Serif" font-size="10.00">typeClassDefs/VisionLine.hpp</text>
</a>
</g>
</g>
<!-- Node3&#45;&gt;Node14 -->
<g id="edge13" class="edge">
<title>Node3&#45;&gt;Node14</title>
<path fill="none" stroke="midnightblue" d="M242.5,-392.25C242.5,-381.02 242.5,-368.38 242.5,-360.19"/>
<polygon fill="midnightblue" stroke="midnightblue" points="239,-392.4 242.5,-402.4 246,-392.4 239,-392.4"/>
</g>
<!-- Node5 -->
<g id="node5" class="node">
<title>Node5</title>
<g id="a_node5"><a xlink:href="_vision_detection_line_array_8h.html" target="_top" xlink:title=" ">
<polygon fill="none" stroke="black" points="0,-268.5 0,-298.5 151,-298.5 151,-268.5 0,-268.5"/>
<text text-anchor="start" x="8" y="-286.5" font-family="Helvetica,sans-Serif" font-size="10.00">typeClassDefs/VisionDetection</text>
<text text-anchor="middle" x="75.5" y="-275.5" font-family="Helvetica,sans-Serif" font-size="10.00">LineArray.h</text>
</a>
</g>
</g>
<!-- Node4&#45;&gt;Node5 -->
<g id="edge4" class="edge">
<title>Node4&#45;&gt;Node5</title>
<path fill="none" stroke="midnightblue" d="M75.5,-325.11C75.5,-316.15 75.5,-306.32 75.5,-298.58"/>
<polygon fill="midnightblue" stroke="midnightblue" points="72,-325.4 75.5,-335.4 79,-325.4 72,-325.4"/>
</g>
<!-- Node6 -->
<g id="node6" class="node">
<title>Node6</title>
<g id="a_node6"><a xlink:href="_vision_detection_lines_8hpp.html" target="_top" xlink:title=" ">
<polygon fill="none" stroke="black" points="29,-201.5 29,-231.5 180,-231.5 180,-201.5 29,-201.5"/>
<text text-anchor="start" x="37" y="-219.5" font-family="Helvetica,sans-Serif" font-size="10.00">typeClassDefs/VisionDetection</text>
<text text-anchor="middle" x="104.5" y="-208.5" font-family="Helvetica,sans-Serif" font-size="10.00">Lines.hpp</text>
</a>
</g>
</g>
<!-- Node5&#45;&gt;Node6 -->
<g id="edge5" class="edge">
<title>Node5&#45;&gt;Node6</title>
<path fill="none" stroke="midnightblue" d="M85.99,-258.99C90.09,-249.8 94.65,-239.58 98.22,-231.58"/>
<polygon fill="midnightblue" stroke="midnightblue" points="82.67,-257.84 81.79,-268.4 89.06,-260.69 82.67,-257.84"/>
</g>
<!-- Node7 -->
<g id="node7" class="node">
<title>Node7</title>
<g id="a_node7"><a xlink:href="guwhiteboardposter_8h.html" target="_top" xlink:title=" ">
<polygon fill="none" stroke="black" points="468,-140 468,-159 577,-159 577,-140 468,-140"/>
<text text-anchor="middle" x="522.5" y="-147" font-family="Helvetica,sans-Serif" font-size="10.00">guwhiteboardposter.h</text>
</a>
</g>
</g>
<!-- Node6&#45;&gt;Node7 -->
<g id="edge6" class="edge">
<title>Node6&#45;&gt;Node7</title>
<path fill="none" stroke="midnightblue" d="M190.3,-202.18C255.83,-192.01 348.36,-177.63 429.5,-165 441.93,-163.06 455.3,-160.98 467.92,-159.02"/>
<polygon fill="midnightblue" stroke="midnightblue" points="189.37,-198.78 180.02,-203.78 190.44,-205.7 189.37,-198.78"/>
</g>
<!-- Node13 -->
<g id="node13" class="node">
<title>Node13</title>
<g id="a_node13"><a xlink:href="_vision_detection_lines_8h.html" target="_top" xlink:title=" ">
<polygon fill="none" stroke="black" points="29,-134.5 29,-164.5 180,-164.5 180,-134.5 29,-134.5"/>
<text text-anchor="start" x="37" y="-152.5" font-family="Helvetica,sans-Serif" font-size="10.00">typeClassDefs/VisionDetection</text>
<text text-anchor="middle" x="104.5" y="-141.5" font-family="Helvetica,sans-Serif" font-size="10.00">Lines.h</text>
</a>
</g>
</g>
<!-- Node6&#45;&gt;Node13 -->
<g id="edge12" class="edge">
<title>Node6&#45;&gt;Node13</title>
<path fill="none" stroke="midnightblue" d="M104.5,-191.11C104.5,-182.15 104.5,-172.32 104.5,-164.58"/>
<polygon fill="midnightblue" stroke="midnightblue" points="101,-191.4 104.5,-201.4 108,-191.4 101,-191.4"/>
</g>
<!-- Node8 -->
<g id="node8" class="node">
<title>Node8</title>
<g id="a_node8"><a xlink:href="_simple_whiteboard_test_8h.html" target="_top" xlink:title=" ">
<polygon fill="none" stroke="black" points="323,-67.5 323,-97.5 448,-97.5 448,-67.5 323,-67.5"/>
<text text-anchor="start" x="331" y="-85.5" font-family="Helvetica,sans-Serif" font-size="10.00">SimpleWhiteboardTest</text>
<text text-anchor="middle" x="385.5" y="-74.5" font-family="Helvetica,sans-Serif" font-size="10.00">/SimpleWhiteboardTest.h</text>
</a>
</g>
</g>
<!-- Node7&#45;&gt;Node8 -->
<g id="edge7" class="edge">
<title>Node7&#45;&gt;Node8</title>
<path fill="none" stroke="midnightblue" d="M495.04,-135.47C471.88,-124.49 438.81,-108.79 415.07,-97.53"/>
<polygon fill="midnightblue" stroke="midnightblue" points="493.77,-138.74 504.31,-139.87 496.77,-132.42 493.77,-138.74"/>
</g>
<!-- Node10 -->
<g id="node10" class="node">
<title>Node10</title>
<g id="a_node10"><a xlink:href="guwhiteboardgetter_8h.html" target="_top" xlink:title=" ">
<polygon fill="none" stroke="black" points="469,-73 469,-92 576,-92 576,-73 469,-73"/>
<text text-anchor="middle" x="522.5" y="-80" font-family="Helvetica,sans-Serif" font-size="10.00">guwhiteboardgetter.h</text>
</a>
</g>
</g>
<!-- Node7&#45;&gt;Node10 -->
<g id="edge9" class="edge">
<title>Node7&#45;&gt;Node10</title>
<path fill="none" stroke="midnightblue" d="M522.5,-129.54C522.5,-117.17 522.5,-101.62 522.5,-92.13"/>
<polygon fill="midnightblue" stroke="midnightblue" points="519,-129.73 522.5,-139.73 526,-129.73 519,-129.73"/>
</g>
<!-- Node12 -->
<g id="node12" class="node">
<title>Node12</title>
<g id="a_node12"><a xlink:href="guwhiteboardposter_8cpp.html" target="_top" xlink:title=" ">
<polygon fill="none" stroke="black" points="594,-73 594,-92 713,-92 713,-73 594,-73"/>
<text text-anchor="middle" x="653.5" y="-80" font-family="Helvetica,sans-Serif" font-size="10.00">guwhiteboardposter.cpp</text>
</a>
</g>
</g>
<!-- Node7&#45;&gt;Node12 -->
<g id="edge11" class="edge">
<title>Node7&#45;&gt;Node12</title>
<path fill="none" stroke="midnightblue" d="M549.16,-135.27C575.1,-122.4 613.78,-103.21 636.03,-92.17"/>
<polygon fill="midnightblue" stroke="midnightblue" points="547.3,-132.29 539.9,-139.87 550.41,-138.56 547.3,-132.29"/>
</g>
<!-- Node9 -->
<g id="node9" class="node">
<title>Node9</title>
<g id="a_node9"><a xlink:href="_simple_whiteboard_test_8mm.html" target="_top" xlink:title=" ">
<polygon fill="none" stroke="black" points="312,-0.5 312,-30.5 449,-30.5 449,-0.5 312,-0.5"/>
<text text-anchor="start" x="320" y="-18.5" font-family="Helvetica,sans-Serif" font-size="10.00">SimpleWhiteboardTest</text>
<text text-anchor="middle" x="380.5" y="-7.5" font-family="Helvetica,sans-Serif" font-size="10.00">/SimpleWhiteboardTest.mm</text>
</a>
</g>
</g>
<!-- Node8&#45;&gt;Node9 -->
<g id="edge8" class="edge">
<title>Node8&#45;&gt;Node9</title>
<path fill="none" stroke="midnightblue" d="M383.65,-57.4C382.95,-48.37 382.19,-38.41 381.58,-30.58"/>
<polygon fill="midnightblue" stroke="midnightblue" points="380.16,-57.69 384.42,-67.4 387.14,-57.16 380.16,-57.69"/>
</g>
<!-- Node11 -->
<g id="node11" class="node">
<title>Node11</title>
<g id="a_node11"><a xlink:href="guwhiteboardgetter_8cpp.html" target="_top" xlink:title=" ">
<polygon fill="none" stroke="black" points="467,-6 467,-25 584,-25 584,-6 467,-6"/>
<text text-anchor="middle" x="525.5" y="-13" font-family="Helvetica,sans-Serif" font-size="10.00">guwhiteboardgetter.cpp</text>
</a>
</g>
</g>
<!-- Node10&#45;&gt;Node11 -->
<g id="edge10" class="edge">
<title>Node10&#45;&gt;Node11</title>
<path fill="none" stroke="midnightblue" d="M523.38,-62.54C523.95,-50.17 524.66,-34.62 525.1,-25.13"/>
<polygon fill="midnightblue" stroke="midnightblue" points="519.87,-62.58 522.9,-72.73 526.86,-62.91 519.87,-62.58"/>
</g>
<!-- Node15 -->
<g id="node15" class="node">
<title>Node15</title>
<g id="a_node15"><a xlink:href="_vision_line_8h.html" target="_top" xlink:title=" ">
<polygon fill="none" stroke="black" points="169.5,-274 169.5,-293 305.5,-293 305.5,-274 169.5,-274"/>
<text text-anchor="middle" x="237.5" y="-281" font-family="Helvetica,sans-Serif" font-size="10.00">typeClassDefs/VisionLine.h</text>
</a>
</g>
</g>
<!-- Node14&#45;&gt;Node15 -->
<g id="edge14" class="edge">
<title>Node14&#45;&gt;Node15</title>
<path fill="none" stroke="midnightblue" d="M241.04,-330.54C240.09,-318.17 238.89,-302.62 238.16,-293.13"/>
<polygon fill="midnightblue" stroke="midnightblue" points="237.57,-331.03 241.83,-340.73 244.55,-330.49 237.57,-331.03"/>
</g>
<!-- Node16 -->
<g id="node16" class="node">
<title>Node16</title>
<g id="a_node16"><a xlink:href="_vision_lines_8hpp.html" target="_top" xlink:title=" ">
<polygon fill="none" stroke="black" points="274.5,-207 274.5,-226 426.5,-226 426.5,-207 274.5,-207"/>
<text text-anchor="middle" x="350.5" y="-214" font-family="Helvetica,sans-Serif" font-size="10.00">typeClassDefs/VisionLines.hpp</text>
</a>
</g>
</g>
<!-- Node15&#45;&gt;Node16 -->
<g id="edge15" class="edge">
<title>Node15&#45;&gt;Node16</title>
<path fill="none" stroke="midnightblue" d="M261.64,-268.62C284.03,-255.74 316.64,-236.98 335.5,-226.13"/>
<polygon fill="midnightblue" stroke="midnightblue" points="259.66,-265.71 252.74,-273.73 263.15,-271.78 259.66,-265.71"/>
</g>
<!-- Node16&#45;&gt;Node7 -->
<g id="edge16" class="edge">
<title>Node16&#45;&gt;Node7</title>
<path fill="none" stroke="midnightblue" d="M382.86,-203.27C417,-190.37 469.91,-170.38 499.84,-159.06"/>
<polygon fill="midnightblue" stroke="midnightblue" points="381.46,-200.06 373.34,-206.87 383.93,-206.61 381.46,-200.06"/>
</g>
<!-- Node17 -->
<g id="node17" class="node">
<title>Node17</title>
<g id="a_node17"><a xlink:href="_vision_lines_8h.html" target="_top" xlink:title=" ">
<polygon fill="none" stroke="black" points="280,-140 280,-159 421,-159 421,-140 280,-140"/>
<text text-anchor="middle" x="350.5" y="-147" font-family="Helvetica,sans-Serif" font-size="10.00">typeClassDefs/VisionLines.h</text>
</a>
</g>
</g>
<!-- Node16&#45;&gt;Node17 -->
<g id="edge17" class="edge">
<title>Node16&#45;&gt;Node17</title>
<path fill="none" stroke="midnightblue" d="M350.5,-196.54C350.5,-184.17 350.5,-168.62 350.5,-159.13"/>
<polygon fill="midnightblue" stroke="midnightblue" points="347,-196.73 350.5,-206.73 354,-196.73 347,-196.73"/>
</g>
<!-- Node19 -->
<g id="node19" class="node">
<title>Node19</title>
<g id="a_node19"><a xlink:href="_vision_detection_ball_8h.html" target="_top" xlink:title=" ">
<polygon fill="none" stroke="black" points="401,-402.5 401,-432.5 552,-432.5 552,-402.5 401,-402.5"/>
<text text-anchor="start" x="409" y="-420.5" font-family="Helvetica,sans-Serif" font-size="10.00">typeClassDefs/VisionDetection</text>
<text text-anchor="middle" x="476.5" y="-409.5" font-family="Helvetica,sans-Serif" font-size="10.00">Ball.h</text>
</a>
</g>
</g>
<!-- Node18&#45;&gt;Node19 -->
<g id="edge19" class="edge">
<title>Node18&#45;&gt;Node19</title>
<path fill="none" stroke="midnightblue" d="M476.5,-459.11C476.5,-450.15 476.5,-440.32 476.5,-432.58"/>
<polygon fill="midnightblue" stroke="midnightblue" points="473,-459.4 476.5,-469.4 480,-459.4 473,-459.4"/>
</g>
<!-- Node20 -->
<g id="node20" class="node">
<title>Node20</title>
<g id="a_node20"><a xlink:href="_vision_detection_balls_8hpp.html" target="_top" xlink:title=" ">
<polygon fill="none" stroke="black" points="401,-335.5 401,-365.5 552,-365.5 552,-335.5 401,-335.5"/>
<text text-anchor="start" x="409" y="-353.5" font-family="Helvetica,sans-Serif" font-size="10.00">typeClassDefs/VisionDetection</text>
<text text-anchor="middle" x="476.5" y="-342.5" font-family="Helvetica,sans-Serif" font-size="10.00">Balls.hpp</text>
</a>
</g>
</g>
<!-- Node19&#45;&gt;Node20 -->
<g id="edge20" class="edge">
<title>Node19&#45;&gt;Node20</title>
<path fill="none" stroke="midnightblue" d="M476.5,-392.11C476.5,-383.15 476.5,-373.32 476.5,-365.58"/>
<polygon fill="midnightblue" stroke="midnightblue" points="473,-392.4 476.5,-402.4 480,-392.4 473,-392.4"/>
</g>
<!-- Node20&#45;&gt;Node7 -->
<g id="edge21" class="edge">
<title>Node20&#45;&gt;Node7</title>
<path fill="none" stroke="midnightblue" d="M482.11,-325.24C492.37,-280.82 513.76,-188.31 520.45,-159.36"/>
<polygon fill="midnightblue" stroke="midnightblue" points="478.65,-324.66 479.81,-335.19 485.47,-326.23 478.65,-324.66"/>
</g>
<!-- Node21 -->
<g id="node21" class="node">
<title>Node21</title>
<g id="a_node21"><a xlink:href="_vision_detection_balls_8h.html" target="_top" xlink:title=" ">
<polygon fill="none" stroke="black" points="324,-268.5 324,-298.5 475,-298.5 475,-268.5 324,-268.5"/>
<text text-anchor="start" x="332" y="-286.5" font-family="Helvetica,sans-Serif" font-size="10.00">typeClassDefs/VisionDetection</text>
<text text-anchor="middle" x="399.5" y="-275.5" font-family="Helvetica,sans-Serif" font-size="10.00">Balls.h</text>
</a>
</g>
</g>
<!-- Node20&#45;&gt;Node21 -->
<g id="edge22" class="edge">
<title>Node20&#45;&gt;Node21</title>
<path fill="none" stroke="midnightblue" d="M452.08,-328.88C440.38,-319.01 426.66,-307.43 416.18,-298.58"/>
<polygon fill="midnightblue" stroke="midnightblue" points="449.89,-331.62 459.79,-335.4 454.41,-326.27 449.89,-331.62"/>
</g>
<!-- Node23 -->
<g id="node23" class="node">
<title>Node23</title>
<g id="a_node23"><a xlink:href="_vision_detection_goal_post_8h.html" target="_top" xlink:title=" ">
<polygon fill="none" stroke="black" points="888,-402.5 888,-432.5 1039,-432.5 1039,-402.5 888,-402.5"/>
<text text-anchor="start" x="896" y="-420.5" font-family="Helvetica,sans-Serif" font-size="10.00">typeClassDefs/VisionDetection</text>
<text text-anchor="middle" x="963.5" y="-409.5" font-family="Helvetica,sans-Serif" font-size="10.00">GoalPost.h</text>
</a>
</g>
</g>
<!-- Node22&#45;&gt;Node23 -->
<g id="edge24" class="edge">
<title>Node22&#45;&gt;Node23</title>
<path fill="none" stroke="midnightblue" d="M963.5,-459.11C963.5,-450.15 963.5,-440.32 963.5,-432.58"/>
<polygon fill="midnightblue" stroke="midnightblue" points="960,-459.4 963.5,-469.4 967,-459.4 960,-459.4"/>
</g>
<!-- Node24 -->
<g id="node24" class="node">
<title>Node24</title>
<g id="a_node24"><a xlink:href="_vision_detection_goal_8hpp.html" target="_top" xlink:title=" ">
<polygon fill="none" stroke="black" points="907,-335.5 907,-365.5 1058,-365.5 1058,-335.5 907,-335.5"/>
<text text-anchor="start" x="915" y="-353.5" font-family="Helvetica,sans-Serif" font-size="10.00">typeClassDefs/VisionDetection</text>
<text text-anchor="middle" x="982.5" y="-342.5" font-family="Helvetica,sans-Serif" font-size="10.00">Goal.hpp</text>
</a>
</g>
</g>
<!-- Node23&#45;&gt;Node24 -->
<g id="edge25" class="edge">
<title>Node23&#45;&gt;Node24</title>
<path fill="none" stroke="midnightblue" d="M970.46,-392.7C973.12,-383.59 976.07,-373.49 978.39,-365.58"/>
<polygon fill="midnightblue" stroke="midnightblue" points="967.07,-391.82 967.62,-402.4 973.79,-393.78 967.07,-391.82"/>
</g>
<!-- Node25 -->
<g id="node25" class="node">
<title>Node25</title>
<g id="a_node25"><a xlink:href="_vision_detection_goal_8h.html" target="_top" xlink:title=" ">
<polygon fill="none" stroke="black" points="927,-268.5 927,-298.5 1078,-298.5 1078,-268.5 927,-268.5"/>
<text text-anchor="start" x="935" y="-286.5" font-family="Helvetica,sans-Serif" font-size="10.00">typeClassDefs/VisionDetection</text>
<text text-anchor="middle" x="1002.5" y="-275.5" font-family="Helvetica,sans-Serif" font-size="10.00">Goal.h</text>
</a>
</g>
</g>
<!-- Node24&#45;&gt;Node25 -->
<g id="edge26" class="edge">
<title>Node24&#45;&gt;Node25</title>
<path fill="none" stroke="midnightblue" d="M989.82,-325.7C992.63,-316.59 995.73,-306.49 998.17,-298.58"/>
<polygon fill="midnightblue" stroke="midnightblue" points="986.44,-324.81 986.84,-335.4 993.13,-326.87 986.44,-324.81"/>
</g>
<!-- Node26 -->
<g id="node26" class="node">
<title>Node26</title>
<g id="a_node26"><a xlink:href="_vision_detection_goals_8hpp.html" target="_top" xlink:title=" ">
<polygon fill="none" stroke="black" points="927,-201.5 927,-231.5 1078,-231.5 1078,-201.5 927,-201.5"/>
<text text-anchor="start" x="935" y="-219.5" font-family="Helvetica,sans-Serif" font-size="10.00">typeClassDefs/VisionDetection</text>
<text text-anchor="middle" x="1002.5" y="-208.5" font-family="Helvetica,sans-Serif" font-size="10.00">Goals.hpp</text>
</a>
</g>
</g>
<!-- Node25&#45;&gt;Node26 -->
<g id="edge27" class="edge">
<title>Node25&#45;&gt;Node26</title>
<path fill="none" stroke="midnightblue" d="M1002.5,-258.11C1002.5,-249.15 1002.5,-239.32 1002.5,-231.58"/>
<polygon fill="midnightblue" stroke="midnightblue" points="999,-258.4 1002.5,-268.4 1006,-258.4 999,-258.4"/>
</g>
<!-- Node26&#45;&gt;Node7 -->
<g id="edge28" class="edge">
<title>Node26&#45;&gt;Node7</title>
<path fill="none" stroke="midnightblue" d="M916.94,-201.65C915.45,-201.43 913.97,-201.21 912.5,-201 793.08,-183.65 652.65,-166.19 577.15,-157.04"/>
<polygon fill="midnightblue" stroke="midnightblue" points="916.5,-205.12 926.9,-203.15 917.53,-198.2 916.5,-205.12"/>
</g>
<!-- Node27 -->
<g id="node27" class="node">
<title>Node27</title>
<g id="a_node27"><a xlink:href="_vision_detection_goals_8h.html" target="_top" xlink:title=" ">
<polygon fill="none" stroke="black" points="927,-134.5 927,-164.5 1078,-164.5 1078,-134.5 927,-134.5"/>
<text text-anchor="start" x="935" y="-152.5" font-family="Helvetica,sans-Serif" font-size="10.00">typeClassDefs/VisionDetection</text>
<text text-anchor="middle" x="1002.5" y="-141.5" font-family="Helvetica,sans-Serif" font-size="10.00">Goals.h</text>
</a>
</g>
</g>
<!-- Node26&#45;&gt;Node27 -->
<g id="edge29" class="edge">
<title>Node26&#45;&gt;Node27</title>
<path fill="none" stroke="midnightblue" d="M1002.5,-191.11C1002.5,-182.15 1002.5,-172.32 1002.5,-164.58"/>
<polygon fill="midnightblue" stroke="midnightblue" points="999,-191.4 1002.5,-201.4 1006,-191.4 999,-191.4"/>
</g>
<!-- Node29 -->
<g id="node29" class="node">
<title>Node29</title>
<g id="a_node29"><a xlink:href="_vision_detection_horizon_8h.html" target="_top" xlink:title=" ">
<polygon fill="none" stroke="black" points="719,-402.5 719,-432.5 870,-432.5 870,-402.5 719,-402.5"/>
<text text-anchor="start" x="727" y="-420.5" font-family="Helvetica,sans-Serif" font-size="10.00">typeClassDefs/VisionDetection</text>
<text text-anchor="middle" x="794.5" y="-409.5" font-family="Helvetica,sans-Serif" font-size="10.00">Horizon.h</text>
</a>
</g>
</g>
<!-- Node28&#45;&gt;Node29 -->
<g id="edge31" class="edge">
<title>Node28&#45;&gt;Node29</title>
<path fill="none" stroke="midnightblue" d="M794.5,-459.11C794.5,-450.15 794.5,-440.32 794.5,-432.58"/>
<polygon fill="midnightblue" stroke="midnightblue" points="791,-459.4 794.5,-469.4 798,-459.4 791,-459.4"/>
</g>
<!-- Node30 -->
<g id="node30" class="node">
<title>Node30</title>
<g id="a_node30"><a xlink:href="_vision_detection_horizons_8hpp.html" target="_top" xlink:title=" ">
<polygon fill="none" stroke="black" points="719,-335.5 719,-365.5 870,-365.5 870,-335.5 719,-335.5"/>
<text text-anchor="start" x="727" y="-353.5" font-family="Helvetica,sans-Serif" font-size="10.00">typeClassDefs/VisionDetection</text>
<text text-anchor="middle" x="794.5" y="-342.5" font-family="Helvetica,sans-Serif" font-size="10.00">Horizons.hpp</text>
</a>
</g>
</g>
<!-- Node29&#45;&gt;Node30 -->
<g id="edge32" class="edge">
<title>Node29&#45;&gt;Node30</title>
<path fill="none" stroke="midnightblue" d="M794.5,-392.11C794.5,-383.15 794.5,-373.32 794.5,-365.58"/>
<polygon fill="midnightblue" stroke="midnightblue" points="791,-392.4 794.5,-402.4 798,-392.4 791,-392.4"/>
</g>
<!-- Node30&#45;&gt;Node7 -->
<g id="edge33" class="edge">
<title>Node30&#45;&gt;Node7</title>
<path fill="none" stroke="midnightblue" d="M844.9,-330.75C858.55,-323.08 871.7,-312.71 879.5,-299 886.31,-287.03 887.58,-279.16 879.5,-268 809.88,-171.79 658.81,-152.99 577.29,-150.16"/>
<polygon fill="midnightblue" stroke="midnightblue" points="843.17,-327.7 835.9,-335.4 846.39,-333.91 843.17,-327.7"/>
</g>
<!-- Node31 -->
<g id="node31" class="node">
<title>Node31</title>
<g id="a_node31"><a xlink:href="_vision_detection_horizons_8h.html" target="_top" xlink:title=" ">
<polygon fill="none" stroke="black" points="719,-268.5 719,-298.5 870,-298.5 870,-268.5 719,-268.5"/>
<text text-anchor="start" x="727" y="-286.5" font-family="Helvetica,sans-Serif" font-size="10.00">typeClassDefs/VisionDetection</text>
<text text-anchor="middle" x="794.5" y="-275.5" font-family="Helvetica,sans-Serif" font-size="10.00">Horizons.h</text>
</a>
</g>
</g>
<!-- Node30&#45;&gt;Node31 -->
<g id="edge34" class="edge">
<title>Node30&#45;&gt;Node31</title>
<path fill="none" stroke="midnightblue" d="M794.5,-325.11C794.5,-316.15 794.5,-306.32 794.5,-298.58"/>
<polygon fill="midnightblue" stroke="midnightblue" points="791,-325.4 794.5,-335.4 798,-325.4 791,-325.4"/>
</g>
<!-- Node33 -->
<g id="node33" class="node">
<title>Node33</title>
<g id="a_node33"><a xlink:href="_vision_field_feature_8h.html" target="_top" xlink:title=" ">
<polygon fill="none" stroke="black" points="570,-402.5 570,-432.5 701,-432.5 701,-402.5 570,-402.5"/>
<text text-anchor="start" x="578" y="-420.5" font-family="Helvetica,sans-Serif" font-size="10.00">typeClassDefs/VisionField</text>
<text text-anchor="middle" x="635.5" y="-409.5" font-family="Helvetica,sans-Serif" font-size="10.00">Feature.h</text>
</a>
</g>
</g>
<!-- Node32&#45;&gt;Node33 -->
<g id="edge36" class="edge">
<title>Node32&#45;&gt;Node33</title>
<path fill="none" stroke="midnightblue" d="M635.5,-459.11C635.5,-450.15 635.5,-440.32 635.5,-432.58"/>
<polygon fill="midnightblue" stroke="midnightblue" points="632,-459.4 635.5,-469.4 639,-459.4 632,-459.4"/>
</g>
<!-- Node34 -->
<g id="node34" class="node">
<title>Node34</title>
<g id="a_node34"><a xlink:href="_vision_field_features_8hpp.html" target="_top" xlink:title=" ">
<polygon fill="none" stroke="black" points="570,-335.5 570,-365.5 701,-365.5 701,-335.5 570,-335.5"/>
<text text-anchor="start" x="578" y="-353.5" font-family="Helvetica,sans-Serif" font-size="10.00">typeClassDefs/VisionField</text>
<text text-anchor="middle" x="635.5" y="-342.5" font-family="Helvetica,sans-Serif" font-size="10.00">Features.hpp</text>
</a>
</g>
</g>
<!-- Node33&#45;&gt;Node34 -->
<g id="edge37" class="edge">
<title>Node33&#45;&gt;Node34</title>
<path fill="none" stroke="midnightblue" d="M635.5,-392.11C635.5,-383.15 635.5,-373.32 635.5,-365.58"/>
<polygon fill="midnightblue" stroke="midnightblue" points="632,-392.4 635.5,-402.4 639,-392.4 632,-392.4"/>
</g>
<!-- Node34&#45;&gt;Node7 -->
<g id="edge38" class="edge">
<title>Node34&#45;&gt;Node7</title>
<path fill="none" stroke="midnightblue" d="M595.63,-330.17C582.74,-322.15 569.47,-311.71 560.5,-299 528.44,-253.55 523.4,-183.33 522.63,-159.08"/>
<polygon fill="midnightblue" stroke="midnightblue" points="594.04,-333.3 604.44,-335.34 597.58,-327.26 594.04,-333.3"/>
</g>
<!-- Node35 -->
<g id="node35" class="node">
<title>Node35</title>
<g id="a_node35"><a xlink:href="_vision_field_features_8h.html" target="_top" xlink:title=" ">
<polygon fill="none" stroke="black" points="570,-268.5 570,-298.5 701,-298.5 701,-268.5 570,-268.5"/>
<text text-anchor="start" x="578" y="-286.5" font-family="Helvetica,sans-Serif" font-size="10.00">typeClassDefs/VisionField</text>
<text text-anchor="middle" x="635.5" y="-275.5" font-family="Helvetica,sans-Serif" font-size="10.00">Features.h</text>
</a>
</g>
</g>
<!-- Node34&#45;&gt;Node35 -->
<g id="edge39" class="edge">
<title>Node34&#45;&gt;Node35</title>
<path fill="none" stroke="midnightblue" d="M635.5,-325.11C635.5,-316.15 635.5,-306.32 635.5,-298.58"/>
<polygon fill="midnightblue" stroke="midnightblue" points="632,-325.4 635.5,-335.4 639,-325.4 632,-325.4"/>
</g>
</g>
</svg>
