<?xml version="1.0" encoding="UTF-8" standalone="no"?>
<!DOCTYPE svg PUBLIC "-//W3C//DTD SVG 1.1//EN"
 "http://www.w3.org/Graphics/SVG/1.1/DTD/svg11.dtd">
<!-- Generated by graphviz version 2.49.0 (20210830.1337)
 -->
<!-- Title: typeClassDefs/PixelCoordinate.h Pages: 1 -->
<svg width="586pt" height="196pt"
 viewBox="0.00 0.00 586.00 196.00" xmlns="http://www.w3.org/2000/svg" xmlns:xlink="http://www.w3.org/1999/xlink">
<g id="graph0" class="graph" transform="scale(1 1) rotate(0) translate(4 192)">
<title>typeClassDefs/PixelCoordinate.h</title>
<!-- Node1 -->
<g id="node1" class="node">
<title>Node1</title>
<g id="a_node1"><a xlink:title=" ">
<polygon fill="#bfbfbf" stroke="black" points="130.5,-168.5 130.5,-187.5 288.5,-187.5 288.5,-168.5 130.5,-168.5"/>
<text text-anchor="middle" x="209.5" y="-175.5" font-family="Helvetica,sans-Serif" font-size="10.00">typeClassDefs/PixelCoordinate.h</text>
</a>
</g>
</g>
<!-- Node2 -->
<g id="node2" class="node">
<title>Node2</title>
<g id="a_node2"><a xlink:href="_pixel_coordinate_8hpp.html" target="_top" xlink:title=" ">
<polygon fill="none" stroke="black" points="158.5,-112.5 158.5,-131.5 260.5,-131.5 260.5,-112.5 158.5,-112.5"/>
<text text-anchor="middle" x="209.5" y="-119.5" font-family="Helvetica,sans-Serif" font-size="10.00">PixelCoordinate.hpp</text>
</a>
</g>
</g>
<!-- Node1&#45;&gt;Node2 -->
<g id="edge1" class="edge">
<title>Node1&#45;&gt;Node2</title>
<path fill="none" stroke="midnightblue" d="M209.5,-168.08C209.5,-161.01 209.5,-150.86 209.5,-141.99"/>
<polygon fill="midnightblue" stroke="midnightblue" points="213,-141.75 209.5,-131.75 206,-141.75 213,-141.75"/>
</g>
<!-- Node3 -->
<g id="node3" class="node">
<title>Node3</title>
<g id="a_node3"><a xlink:title=" ">
<polygon fill="none" stroke="#bfbfbf" points="0,-56.5 0,-75.5 45,-75.5 45,-56.5 0,-56.5"/>
<text text-anchor="middle" x="22.5" y="-63.5" font-family="Helvetica,sans-Serif" font-size="10.00">cstdlib</text>
</a>
</g>
</g>
<!-- Node2&#45;&gt;Node3 -->
<g id="edge2" class="edge">
<title>Node2&#45;&gt;Node3</title>
<path fill="none" stroke="midnightblue" d="M179.87,-112.44C145.84,-102.62 90.2,-86.55 55.01,-76.39"/>
<polygon fill="midnightblue" stroke="midnightblue" points="55.81,-72.97 45.23,-73.56 53.86,-79.7 55.81,-72.97"/>
</g>
<!-- Node4 -->
<g id="node4" class="node">
<title>Node4</title>
<g id="a_node4"><a xlink:title=" ">
<polygon fill="none" stroke="#bfbfbf" points="63.5,-56.5 63.5,-75.5 111.5,-75.5 111.5,-56.5 63.5,-56.5"/>
<text text-anchor="middle" x="87.5" y="-63.5" font-family="Helvetica,sans-Serif" font-size="10.00">string.h</text>
</a>
</g>
</g>
<!-- Node2&#45;&gt;Node4 -->
<g id="edge3" class="edge">
<title>Node2&#45;&gt;Node4</title>
<path fill="none" stroke="midnightblue" d="M190.17,-112.44C170.18,-103.6 138.76,-89.69 115.94,-79.59"/>
<polygon fill="midnightblue" stroke="midnightblue" points="117.3,-76.36 106.74,-75.52 114.47,-82.76 117.3,-76.36"/>
</g>
<!-- Node5 -->
<g id="node5" class="node">
<title>Node5</title>
<g id="a_node5"><a xlink:title=" ">
<polygon fill="none" stroke="#bfbfbf" points="129.5,-56.5 129.5,-75.5 181.5,-75.5 181.5,-56.5 129.5,-56.5"/>
<text text-anchor="middle" x="155.5" y="-63.5" font-family="Helvetica,sans-Serif" font-size="10.00">sstream</text>
</a>
</g>
</g>
<!-- Node2&#45;&gt;Node5 -->
<g id="edge4" class="edge">
<title>Node2&#45;&gt;Node5</title>
<path fill="none" stroke="midnightblue" d="M200.58,-112.08C192.72,-104.22 181.07,-92.57 171.58,-83.08"/>
<polygon fill="midnightblue" stroke="midnightblue" points="173.8,-80.35 164.25,-75.75 168.85,-85.3 173.8,-80.35"/>
</g>
<!-- Node6 -->
<g id="node6" class="node">
<title>Node6</title>
<g id="a_node6"><a xlink:title=" ">
<polygon fill="none" stroke="#bfbfbf" points="183,-0.5 183,-19.5 236,-19.5 236,-0.5 183,-0.5"/>
<text text-anchor="middle" x="209.5" y="-7.5" font-family="Helvetica,sans-Serif" font-size="10.00">gu_util.h</text>
</a>
</g>
</g>
<!-- Node2&#45;&gt;Node6 -->
<g id="edge5" class="edge">
<title>Node2&#45;&gt;Node6</title>
<path fill="none" stroke="midnightblue" d="M209.5,-112.37C209.5,-94.62 209.5,-53.67 209.5,-29.6"/>
<polygon fill="midnightblue" stroke="midnightblue" points="213,-29.59 209.5,-19.59 206,-29.59 213,-29.59"/>
</g>
<!-- Node7 -->
<g id="node7" class="node">
<title>Node7</title>
<g id="a_node7"><a xlink:href="wb__pixel__coordinate_8h.html" target="_top" xlink:title=" ">
<polygon fill="none" stroke="black" points="237.5,-56.5 237.5,-75.5 349.5,-75.5 349.5,-56.5 237.5,-56.5"/>
<text text-anchor="middle" x="293.5" y="-63.5" font-family="Helvetica,sans-Serif" font-size="10.00">wb_pixel_coordinate.h</text>
</a>
</g>
</g>
<!-- Node2&#45;&gt;Node7 -->
<g id="edge6" class="edge">
<title>Node2&#45;&gt;Node7</title>
<path fill="none" stroke="midnightblue" d="M223,-112.32C236.1,-103.9 256.21,-90.97 271.61,-81.07"/>
<polygon fill="midnightblue" stroke="midnightblue" points="273.52,-84.01 280.04,-75.65 269.73,-78.12 273.52,-84.01"/>
</g>
<!-- Node9 -->
<g id="node9" class="node">
<title>Node9</title>
<g id="a_node9"><a xlink:title=" ">
<polygon fill="none" stroke="#bfbfbf" points="320.5,-0.5 320.5,-19.5 410.5,-19.5 410.5,-0.5 320.5,-0.5"/>
<text text-anchor="middle" x="365.5" y="-7.5" font-family="Helvetica,sans-Serif" font-size="10.00">guunits/guunits.h</text>
</a>
</g>
</g>
<!-- Node2&#45;&gt;Node9 -->
<g id="edge11" class="edge">
<title>Node2&#45;&gt;Node9</title>
<path fill="none" stroke="midnightblue" d="M260.84,-119.34C293.86,-115.38 334.87,-104.5 358.5,-76 369.02,-63.32 369.86,-44.11 368.61,-29.86"/>
<polygon fill="midnightblue" stroke="midnightblue" points="372.06,-29.19 367.31,-19.72 365.11,-30.08 372.06,-29.19"/>
</g>
<!-- Node10 -->
<g id="node10" class="node">
<title>Node10</title>
<g id="a_node10"><a xlink:title=" ">
<polygon fill="none" stroke="#bfbfbf" points="429,-0.5 429,-19.5 578,-19.5 578,-0.5 429,-0.5"/>
<text text-anchor="middle" x="503.5" y="-7.5" font-family="Helvetica,sans-Serif" font-size="10.00">gucoordinates/gucoordinates.h</text>
</a>
</g>
</g>
<!-- Node2&#45;&gt;Node10 -->
<g id="edge12" class="edge">
<title>Node2&#45;&gt;Node10</title>
<path fill="none" stroke="midnightblue" d="M250.76,-112.43C285.03,-104.7 334.76,-92.1 376.5,-76 414.2,-61.46 455.43,-39.05 480.38,-24.71"/>
<polygon fill="midnightblue" stroke="midnightblue" points="482.22,-27.69 489.1,-19.64 478.7,-21.64 482.22,-27.69"/>
</g>
<!-- Node7&#45;&gt;Node6 -->
<g id="edge7" class="edge">
<title>Node7&#45;&gt;Node6</title>
<path fill="none" stroke="midnightblue" d="M280,-56.32C266.9,-47.9 246.79,-34.97 231.39,-25.07"/>
<polygon fill="midnightblue" stroke="midnightblue" points="233.27,-22.12 222.96,-19.65 229.48,-28.01 233.27,-22.12"/>
</g>
<!-- Node8 -->
<g id="node8" class="node">
<title>Node8</title>
<g id="a_node8"><a xlink:title=" ">
<polygon fill="none" stroke="#bfbfbf" points="254.5,-0.5 254.5,-19.5 302.5,-19.5 302.5,-0.5 254.5,-0.5"/>
<text text-anchor="middle" x="278.5" y="-7.5" font-family="Helvetica,sans-Serif" font-size="10.00">stdint.h</text>
</a>
</g>
</g>
<!-- Node7&#45;&gt;Node8 -->
<g id="edge8" class="edge">
<title>Node7&#45;&gt;Node8</title>
<path fill="none" stroke="midnightblue" d="M291.02,-56.08C289.01,-48.85 286.11,-38.41 283.61,-29.4"/>
<polygon fill="midnightblue" stroke="midnightblue" points="286.98,-28.45 280.93,-19.75 280.24,-30.32 286.98,-28.45"/>
</g>
<!-- Node7&#45;&gt;Node9 -->
<g id="edge9" class="edge">
<title>Node7&#45;&gt;Node9</title>
<path fill="none" stroke="midnightblue" d="M305.07,-56.32C315.92,-48.18 332.38,-35.84 345.38,-26.09"/>
<polygon fill="midnightblue" stroke="midnightblue" points="347.82,-28.63 353.72,-19.83 343.62,-23.03 347.82,-28.63"/>
</g>
<!-- Node7&#45;&gt;Node10 -->
<g id="edge10" class="edge">
<title>Node7&#45;&gt;Node10</title>
<path fill="none" stroke="midnightblue" d="M326.78,-56.44C362.95,-47.14 420.88,-32.25 460.48,-22.06"/>
<polygon fill="midnightblue" stroke="midnightblue" points="461.57,-25.4 470.38,-19.52 459.82,-18.62 461.57,-25.4"/>
</g>
</g>
</svg>
