<?xml version="1.0" encoding="UTF-8" standalone="no"?>
<!DOCTYPE svg PUBLIC "-//W3C//DTD SVG 1.1//EN"
 "http://www.w3.org/Graphics/SVG/1.1/DTD/svg11.dtd">
<!-- Generated by graphviz version 2.49.0 (20210830.1337)
 -->
<!-- Title: typeClassDefs/PixelCoordinateLine.hpp Pages: 1 -->
<svg width="720pt" height="274pt"
 viewBox="0.00 0.00 719.95 274.00" xmlns="http://www.w3.org/2000/svg" xmlns:xlink="http://www.w3.org/1999/xlink">
<g id="graph0" class="graph" transform="scale(1 1) rotate(0) translate(4 270)">
<title>typeClassDefs/PixelCoordinateLine.hpp</title>
<!-- Node1 -->
<g id="node1" class="node">
<title>Node1</title>
<g id="a_node1"><a xlink:title=" ">
<polygon fill="#bfbfbf" stroke="black" points="131.45,-235.5 131.45,-265.5 281.45,-265.5 281.45,-235.5 131.45,-235.5"/>
<text text-anchor="start" x="139.45" y="-253.5" font-family="Helvetica,sans-Serif" font-size="10.00">typeClassDefs/PixelCoordinate</text>
<text text-anchor="middle" x="206.45" y="-242.5" font-family="Helvetica,sans-Serif" font-size="10.00">Line.hpp</text>
</a>
</g>
</g>
<!-- Node2 -->
<g id="node2" class="node">
<title>Node2</title>
<g id="a_node2"><a xlink:title=" ">
<polygon fill="none" stroke="#bfbfbf" points="71.95,-56.5 71.95,-75.5 116.95,-75.5 116.95,-56.5 71.95,-56.5"/>
<text text-anchor="middle" x="94.45" y="-63.5" font-family="Helvetica,sans-Serif" font-size="10.00">cstdlib</text>
</a>
</g>
</g>
<!-- Node1&#45;&gt;Node2 -->
<g id="edge1" class="edge">
<title>Node1&#45;&gt;Node2</title>
<path fill="none" stroke="midnightblue" d="M197.05,-235.45C190.37,-225.37 181.23,-211.43 173.45,-199 148.06,-158.42 119.5,-109.97 104.66,-84.55"/>
<polygon fill="midnightblue" stroke="midnightblue" points="107.57,-82.6 99.51,-75.72 101.52,-86.12 107.57,-82.6"/>
</g>
<!-- Node3 -->
<g id="node3" class="node">
<title>Node3</title>
<g id="a_node3"><a xlink:title=" ">
<polygon fill="none" stroke="#bfbfbf" points="135.45,-56.5 135.45,-75.5 183.45,-75.5 183.45,-56.5 135.45,-56.5"/>
<text text-anchor="middle" x="159.45" y="-63.5" font-family="Helvetica,sans-Serif" font-size="10.00">string.h</text>
</a>
</g>
</g>
<!-- Node1&#45;&gt;Node3 -->
<g id="edge2" class="edge">
<title>Node1&#45;&gt;Node3</title>
<path fill="none" stroke="midnightblue" d="M198.44,-235.34C193.17,-225.44 186.51,-211.77 182.45,-199 169.97,-159.79 163.75,-111.73 161.11,-85.78"/>
<polygon fill="midnightblue" stroke="midnightblue" points="164.56,-85.15 160.13,-75.53 157.59,-85.82 164.56,-85.15"/>
</g>
<!-- Node4 -->
<g id="node4" class="node">
<title>Node4</title>
<g id="a_node4"><a xlink:title=" ">
<polygon fill="none" stroke="#bfbfbf" points="315.45,-56.5 315.45,-75.5 367.45,-75.5 367.45,-56.5 315.45,-56.5"/>
<text text-anchor="middle" x="341.45" y="-63.5" font-family="Helvetica,sans-Serif" font-size="10.00">sstream</text>
</a>
</g>
</g>
<!-- Node1&#45;&gt;Node4 -->
<g id="edge3" class="edge">
<title>Node1&#45;&gt;Node4</title>
<path fill="none" stroke="midnightblue" d="M242.17,-235.37C259.37,-227.01 279.1,-214.92 292.45,-199 320.88,-165.08 333.61,-113.12 338.62,-85.59"/>
<polygon fill="midnightblue" stroke="midnightblue" points="342.07,-86.16 340.27,-75.72 335.17,-85.01 342.07,-86.16"/>
</g>
<!-- Node5 -->
<g id="node5" class="node">
<title>Node5</title>
<g id="a_node5"><a xlink:title=" ">
<polygon fill="none" stroke="#bfbfbf" points="218.95,-0.5 218.95,-19.5 271.95,-19.5 271.95,-0.5 218.95,-0.5"/>
<text text-anchor="middle" x="245.45" y="-7.5" font-family="Helvetica,sans-Serif" font-size="10.00">gu_util.h</text>
</a>
</g>
</g>
<!-- Node1&#45;&gt;Node5 -->
<g id="edge4" class="edge">
<title>Node1&#45;&gt;Node5</title>
<path fill="none" stroke="midnightblue" d="M131.04,-237.28C88.81,-228.74 42.15,-215.84 29.45,-199 -8.83,-148.27 -10.65,-105.31 29.45,-56 51.64,-28.71 153.17,-17.41 208.77,-13.21"/>
<polygon fill="midnightblue" stroke="midnightblue" points="209.19,-16.69 218.92,-12.48 208.69,-9.71 209.19,-16.69"/>
</g>
<!-- Node6 -->
<g id="node6" class="node">
<title>Node6</title>
<g id="a_node6"><a xlink:href="wb__pixel__coordinate__line_8h.html" target="_top" xlink:title=" ">
<polygon fill="none" stroke="black" points="423.45,-112.5 423.45,-142.5 527.45,-142.5 527.45,-112.5 423.45,-112.5"/>
<text text-anchor="start" x="431.45" y="-130.5" font-family="Helvetica,sans-Serif" font-size="10.00">wb_pixel_coordinate</text>
<text text-anchor="middle" x="475.45" y="-119.5" font-family="Helvetica,sans-Serif" font-size="10.00">_line.h</text>
</a>
</g>
</g>
<!-- Node1&#45;&gt;Node6 -->
<g id="edge5" class="edge">
<title>Node1&#45;&gt;Node6</title>
<path fill="none" stroke="midnightblue" d="M251.3,-235.47C279.37,-226.19 316.04,-213.16 347.45,-199 381.23,-183.77 418.13,-162.97 443.59,-147.91"/>
<polygon fill="midnightblue" stroke="midnightblue" points="445.63,-150.77 452.43,-142.64 442.05,-144.76 445.63,-150.77"/>
</g>
<!-- Node9 -->
<g id="node9" class="node">
<title>Node9</title>
<g id="a_node9"><a xlink:title=" ">
<polygon fill="none" stroke="#bfbfbf" points="354.45,-0.5 354.45,-19.5 444.45,-19.5 444.45,-0.5 354.45,-0.5"/>
<text text-anchor="middle" x="399.45" y="-7.5" font-family="Helvetica,sans-Serif" font-size="10.00">guunits/guunits.h</text>
</a>
</g>
</g>
<!-- Node1&#45;&gt;Node9 -->
<g id="edge24" class="edge">
<title>Node1&#45;&gt;Node9</title>
<path fill="none" stroke="midnightblue" d="M181.69,-235.31C127.4,-202.5 7.01,-119.33 62.45,-56 71.63,-45.51 250.79,-26 344.05,-16.49"/>
<polygon fill="midnightblue" stroke="midnightblue" points="344.56,-19.96 354.16,-15.46 343.86,-12.99 344.56,-19.96"/>
</g>
<!-- Node10 -->
<g id="node10" class="node">
<title>Node10</title>
<g id="a_node10"><a xlink:title=" ">
<polygon fill="none" stroke="#bfbfbf" points="562.95,-0.5 562.95,-19.5 711.95,-19.5 711.95,-0.5 562.95,-0.5"/>
<text text-anchor="middle" x="637.45" y="-7.5" font-family="Helvetica,sans-Serif" font-size="10.00">gucoordinates/gucoordinates.h</text>
</a>
</g>
</g>
<!-- Node1&#45;&gt;Node10 -->
<g id="edge25" class="edge">
<title>Node1&#45;&gt;Node10</title>
<path fill="none" stroke="midnightblue" d="M276.41,-235.49C345.57,-219.71 452.87,-189.96 536.45,-143 577.78,-119.78 593.43,-115.63 619.45,-76 628.59,-62.08 633.13,-43.57 635.36,-29.87"/>
<polygon fill="midnightblue" stroke="midnightblue" points="638.86,-30.07 636.74,-19.69 631.92,-29.13 638.86,-30.07"/>
</g>
<!-- Node11 -->
<g id="node11" class="node">
<title>Node11</title>
<g id="a_node11"><a xlink:href="_pixel_coordinate_8h.html" target="_top" xlink:title=" ">
<polygon fill="none" stroke="black" points="191.45,-179.5 191.45,-198.5 283.45,-198.5 283.45,-179.5 191.45,-179.5"/>
<text text-anchor="middle" x="237.45" y="-186.5" font-family="Helvetica,sans-Serif" font-size="10.00">PixelCoordinate.h</text>
</a>
</g>
</g>
<!-- Node1&#45;&gt;Node11 -->
<g id="edge15" class="edge">
<title>Node1&#45;&gt;Node11</title>
<path fill="none" stroke="midnightblue" d="M213.8,-235.4C218.11,-227.11 223.61,-216.55 228.22,-207.71"/>
<polygon fill="midnightblue" stroke="midnightblue" points="231.42,-209.14 232.94,-198.66 225.21,-205.91 231.42,-209.14"/>
</g>
<!-- Node6&#45;&gt;Node5 -->
<g id="edge6" class="edge">
<title>Node6&#45;&gt;Node5</title>
<path fill="none" stroke="midnightblue" d="M458.89,-112.42C439.98,-96.9 407.6,-72.01 376.45,-56 345.92,-40.3 308.7,-28.12 281.75,-20.41"/>
<polygon fill="midnightblue" stroke="midnightblue" points="282.53,-17 271.95,-17.68 280.65,-23.74 282.53,-17"/>
</g>
<!-- Node7 -->
<g id="node7" class="node">
<title>Node7</title>
<g id="a_node7"><a xlink:title=" ">
<polygon fill="none" stroke="#bfbfbf" points="494.45,-0.5 494.45,-19.5 542.45,-19.5 542.45,-0.5 494.45,-0.5"/>
<text text-anchor="middle" x="518.45" y="-7.5" font-family="Helvetica,sans-Serif" font-size="10.00">stdint.h</text>
</a>
</g>
</g>
<!-- Node6&#45;&gt;Node7 -->
<g id="edge7" class="edge">
<title>Node6&#45;&gt;Node7</title>
<path fill="none" stroke="midnightblue" d="M527.52,-114.89C548.31,-107.42 570.19,-95.35 582.45,-76 595.41,-55.54 570.05,-36.33 547.52,-24.18"/>
<polygon fill="midnightblue" stroke="midnightblue" points="548.98,-20.99 538.48,-19.57 545.8,-27.23 548.98,-20.99"/>
</g>
<!-- Node8 -->
<g id="node8" class="node">
<title>Node8</title>
<g id="a_node8"><a xlink:href="wb__pixel__coordinate_8h.html" target="_top" xlink:title=" ">
<polygon fill="none" stroke="black" points="461.45,-56.5 461.45,-75.5 573.45,-75.5 573.45,-56.5 461.45,-56.5"/>
<text text-anchor="middle" x="517.45" y="-63.5" font-family="Helvetica,sans-Serif" font-size="10.00">wb_pixel_coordinate.h</text>
</a>
</g>
</g>
<!-- Node6&#45;&gt;Node8 -->
<g id="edge8" class="edge">
<title>Node6&#45;&gt;Node8</title>
<path fill="none" stroke="midnightblue" d="M485.4,-112.4C491.44,-103.84 499.19,-92.87 505.55,-83.86"/>
<polygon fill="midnightblue" stroke="midnightblue" points="508.43,-85.85 511.34,-75.66 502.71,-81.81 508.43,-85.85"/>
</g>
<!-- Node6&#45;&gt;Node9 -->
<g id="edge13" class="edge">
<title>Node6&#45;&gt;Node9</title>
<path fill="none" stroke="midnightblue" d="M466.13,-112.34C452.13,-91.05 425.7,-50.89 410.66,-28.03"/>
<polygon fill="midnightblue" stroke="midnightblue" points="413.57,-26.1 405.15,-19.67 407.73,-29.95 413.57,-26.1"/>
</g>
<!-- Node6&#45;&gt;Node10 -->
<g id="edge14" class="edge">
<title>Node6&#45;&gt;Node10</title>
<path fill="none" stroke="midnightblue" d="M527.45,-112.98C550.73,-105.03 577.38,-93.1 597.45,-76 612.38,-63.27 623.42,-43.53 630.08,-29.13"/>
<polygon fill="midnightblue" stroke="midnightblue" points="633.37,-30.35 634.14,-19.78 626.95,-27.56 633.37,-30.35"/>
</g>
<!-- Node8&#45;&gt;Node5 -->
<g id="edge9" class="edge">
<title>Node8&#45;&gt;Node5</title>
<path fill="none" stroke="midnightblue" d="M474.35,-56.44C421.35,-45.92 332.28,-28.24 282.31,-18.32"/>
<polygon fill="midnightblue" stroke="midnightblue" points="282.76,-14.84 272.27,-16.32 281.4,-21.7 282.76,-14.84"/>
</g>
<!-- Node8&#45;&gt;Node7 -->
<g id="edge10" class="edge">
<title>Node8&#45;&gt;Node7</title>
<path fill="none" stroke="midnightblue" d="M517.61,-56.08C517.74,-49.01 517.93,-38.86 518.1,-29.99"/>
<polygon fill="midnightblue" stroke="midnightblue" points="521.6,-29.81 518.29,-19.75 514.6,-29.68 521.6,-29.81"/>
</g>
<!-- Node8&#45;&gt;Node9 -->
<g id="edge11" class="edge">
<title>Node8&#45;&gt;Node9</title>
<path fill="none" stroke="midnightblue" d="M498.75,-56.44C479.5,-47.64 449.3,-33.81 427.25,-23.72"/>
<polygon fill="midnightblue" stroke="midnightblue" points="428.61,-20.5 418.06,-19.52 425.7,-26.86 428.61,-20.5"/>
</g>
<!-- Node8&#45;&gt;Node10 -->
<g id="edge12" class="edge">
<title>Node8&#45;&gt;Node10</title>
<path fill="none" stroke="midnightblue" d="M536.46,-56.44C556.04,-47.64 586.76,-33.81 609.18,-23.72"/>
<polygon fill="midnightblue" stroke="midnightblue" points="610.84,-26.81 618.52,-19.52 607.97,-20.43 610.84,-26.81"/>
</g>
<!-- Node12 -->
<g id="node12" class="node">
<title>Node12</title>
<g id="a_node12"><a xlink:href="_pixel_coordinate_8hpp.html" target="_top" xlink:title=" ">
<polygon fill="none" stroke="black" points="194.45,-118 194.45,-137 296.45,-137 296.45,-118 194.45,-118"/>
<text text-anchor="middle" x="245.45" y="-125" font-family="Helvetica,sans-Serif" font-size="10.00">PixelCoordinate.hpp</text>
</a>
</g>
</g>
<!-- Node11&#45;&gt;Node12 -->
<g id="edge16" class="edge">
<title>Node11&#45;&gt;Node12</title>
<path fill="none" stroke="midnightblue" d="M238.6,-179.48C239.72,-171.08 241.49,-157.98 242.94,-147.16"/>
<polygon fill="midnightblue" stroke="midnightblue" points="246.44,-147.39 244.3,-137.01 239.5,-146.45 246.44,-147.39"/>
</g>
<!-- Node12&#45;&gt;Node2 -->
<g id="edge17" class="edge">
<title>Node12&#45;&gt;Node2</title>
<path fill="none" stroke="midnightblue" d="M223.81,-117.98C198.02,-107.81 154.74,-90.76 125.41,-79.2"/>
<polygon fill="midnightblue" stroke="midnightblue" points="126.63,-75.92 116.04,-75.51 124.06,-82.43 126.63,-75.92"/>
</g>
<!-- Node12&#45;&gt;Node3 -->
<g id="edge18" class="edge">
<title>Node12&#45;&gt;Node3</title>
<path fill="none" stroke="midnightblue" d="M233.13,-117.98C219.33,-108.43 196.75,-92.81 180.22,-81.37"/>
<polygon fill="midnightblue" stroke="midnightblue" points="181.96,-78.32 171.75,-75.51 177.98,-84.08 181.96,-78.32"/>
</g>
<!-- Node12&#45;&gt;Node4 -->
<g id="edge19" class="edge">
<title>Node12&#45;&gt;Node4</title>
<path fill="none" stroke="midnightblue" d="M259.2,-117.98C274.82,-108.3 300.51,-92.37 319.03,-80.89"/>
<polygon fill="midnightblue" stroke="midnightblue" points="321.06,-83.75 327.72,-75.51 317.38,-77.8 321.06,-83.75"/>
</g>
<!-- Node12&#45;&gt;Node5 -->
<g id="edge20" class="edge">
<title>Node12&#45;&gt;Node5</title>
<path fill="none" stroke="midnightblue" d="M242.81,-117.84C239.08,-104.56 232.99,-78.36 235.45,-56 236.42,-47.14 238.44,-37.47 240.41,-29.38"/>
<polygon fill="midnightblue" stroke="midnightblue" points="243.84,-30.09 242.97,-19.53 237.07,-28.33 243.84,-30.09"/>
</g>
<!-- Node12&#45;&gt;Node8 -->
<g id="edge21" class="edge">
<title>Node12&#45;&gt;Node8</title>
<path fill="none" stroke="midnightblue" d="M284.42,-117.98C333,-107.35 416.03,-89.18 468.75,-77.65"/>
<polygon fill="midnightblue" stroke="midnightblue" points="469.53,-81.07 478.55,-75.51 468.03,-74.23 469.53,-81.07"/>
</g>
<!-- Node12&#45;&gt;Node9 -->
<g id="edge22" class="edge">
<title>Node12&#45;&gt;Node9</title>
<path fill="none" stroke="midnightblue" d="M246.56,-117.86C248.89,-103.16 255.64,-73.2 273.45,-56 292.69,-37.42 320.11,-26.45 344.46,-20.01"/>
<polygon fill="midnightblue" stroke="midnightblue" points="345.44,-23.37 354.32,-17.59 343.77,-16.57 345.44,-23.37"/>
</g>
<!-- Node12&#45;&gt;Node10 -->
<g id="edge23" class="edge">
<title>Node12&#45;&gt;Node10</title>
<path fill="none" stroke="midnightblue" d="M250.13,-117.78C258.9,-102.39 279.41,-70.64 306.45,-56 317.32,-50.11 460.59,-32.1 555.04,-20.73"/>
<polygon fill="midnightblue" stroke="midnightblue" points="555.65,-24.18 565.16,-19.51 554.82,-17.23 555.65,-24.18"/>
</g>
</g>
</svg>
