<?xml version="1.0" encoding="UTF-8" standalone="no"?>
<!DOCTYPE svg PUBLIC "-//W3C//DTD SVG 1.1//EN"
 "http://www.w3.org/Graphics/SVG/1.1/DTD/svg11.dtd">
<!-- Generated by graphviz version 2.49.0 (20210830.1337)
 -->
<!-- Title: typeClassDefs/PolarCoordinate.h Pages: 1 -->
<svg width="505pt" height="564pt"
 viewBox="0.00 0.00 505.00 564.00" xmlns="http://www.w3.org/2000/svg" xmlns:xlink="http://www.w3.org/1999/xlink">
<g id="graph0" class="graph" transform="scale(1 1) rotate(0) translate(4 560)">
<title>typeClassDefs/PolarCoordinate.h</title>
<!-- Node1 -->
<g id="node1" class="node">
<title>Node1</title>
<g id="a_node1"><a xlink:title=" ">
<polygon fill="#bfbfbf" stroke="black" points="256,-536.5 256,-555.5 415,-555.5 415,-536.5 256,-536.5"/>
<text text-anchor="middle" x="335.5" y="-543.5" font-family="Helvetica,sans-Serif" font-size="10.00">typeClassDefs/PolarCoordinate.h</text>
</a>
</g>
</g>
<!-- Node2 -->
<g id="node2" class="node">
<title>Node2</title>
<g id="a_node2"><a xlink:href="_line_sighting_8hpp.html" target="_top" xlink:title=" ">
<polygon fill="none" stroke="black" points="173,-475 173,-494 328,-494 328,-475 173,-475"/>
<text text-anchor="middle" x="250.5" y="-482" font-family="Helvetica,sans-Serif" font-size="10.00">typeClassDefs/LineSighting.hpp</text>
</a>
</g>
</g>
<!-- Node1&#45;&gt;Node2 -->
<g id="edge1" class="edge">
<title>Node1&#45;&gt;Node2</title>
<path fill="none" stroke="midnightblue" d="M314.95,-530.61C298.6,-519.17 276.28,-503.55 262.66,-494.01"/>
<polygon fill="midnightblue" stroke="midnightblue" points="313.12,-533.61 323.32,-536.48 317.14,-527.87 313.12,-533.61"/>
</g>
<!-- Node12 -->
<g id="node12" class="node">
<title>Node12</title>
<g id="a_node12"><a xlink:href="_vision_detection_feature_8hpp.html" target="_top" xlink:title=" ">
<polygon fill="none" stroke="black" points="346,-469.5 346,-499.5 497,-499.5 497,-469.5 346,-469.5"/>
<text text-anchor="start" x="354" y="-487.5" font-family="Helvetica,sans-Serif" font-size="10.00">typeClassDefs/VisionDetection</text>
<text text-anchor="middle" x="421.5" y="-476.5" font-family="Helvetica,sans-Serif" font-size="10.00">Feature.hpp</text>
</a>
</g>
</g>
<!-- Node1&#45;&gt;Node12 -->
<g id="edge11" class="edge">
<title>Node1&#45;&gt;Node12</title>
<path fill="none" stroke="midnightblue" d="M356.11,-530.74C369.78,-521.28 387.63,-508.93 401.23,-499.52"/>
<polygon fill="midnightblue" stroke="midnightblue" points="354.05,-527.91 347.82,-536.48 358.04,-533.66 354.05,-527.91"/>
</g>
<!-- Node3 -->
<g id="node3" class="node">
<title>Node3</title>
<g id="a_node3"><a xlink:href="_line_sighting_8h.html" target="_top" xlink:title=" ">
<polygon fill="none" stroke="black" points="178.5,-408 178.5,-427 322.5,-427 322.5,-408 178.5,-408"/>
<text text-anchor="middle" x="250.5" y="-415" font-family="Helvetica,sans-Serif" font-size="10.00">typeClassDefs/LineSighting.h</text>
</a>
</g>
</g>
<!-- Node2&#45;&gt;Node3 -->
<g id="edge2" class="edge">
<title>Node2&#45;&gt;Node3</title>
<path fill="none" stroke="midnightblue" d="M250.5,-464.54C250.5,-452.17 250.5,-436.62 250.5,-427.13"/>
<polygon fill="midnightblue" stroke="midnightblue" points="247,-464.73 250.5,-474.73 254,-464.73 247,-464.73"/>
</g>
<!-- Node4 -->
<g id="node4" class="node">
<title>Node4</title>
<g id="a_node4"><a xlink:href="_machine_filtered_lines_8hpp.html" target="_top" xlink:title=" ">
<polygon fill="none" stroke="black" points="174.5,-335.5 174.5,-365.5 326.5,-365.5 326.5,-335.5 174.5,-335.5"/>
<text text-anchor="start" x="182.5" y="-353.5" font-family="Helvetica,sans-Serif" font-size="10.00">typeClassDefs/MachineFiltered</text>
<text text-anchor="middle" x="250.5" y="-342.5" font-family="Helvetica,sans-Serif" font-size="10.00">Lines.hpp</text>
</a>
</g>
</g>
<!-- Node3&#45;&gt;Node4 -->
<g id="edge3" class="edge">
<title>Node3&#45;&gt;Node4</title>
<path fill="none" stroke="midnightblue" d="M250.5,-397.41C250.5,-387.22 250.5,-374.9 250.5,-365.59"/>
<polygon fill="midnightblue" stroke="midnightblue" points="247,-397.73 250.5,-407.73 254,-397.73 247,-397.73"/>
</g>
<!-- Node5 -->
<g id="node5" class="node">
<title>Node5</title>
<g id="a_node5"><a xlink:href="guwhiteboardposter_8h.html" target="_top" xlink:title=" ">
<polygon fill="none" stroke="black" points="156,-140 156,-159 265,-159 265,-140 156,-140"/>
<text text-anchor="middle" x="210.5" y="-147" font-family="Helvetica,sans-Serif" font-size="10.00">guwhiteboardposter.h</text>
</a>
</g>
</g>
<!-- Node4&#45;&gt;Node5 -->
<g id="edge4" class="edge">
<title>Node4&#45;&gt;Node5</title>
<path fill="none" stroke="midnightblue" d="M201.04,-330.83C187.42,-323.14 174.27,-312.73 166.5,-299 138.96,-250.32 185.22,-182.71 203.54,-159.07"/>
<polygon fill="midnightblue" stroke="midnightblue" points="199.53,-333.98 210.01,-335.5 202.76,-327.78 199.53,-333.98"/>
</g>
<!-- Node11 -->
<g id="node11" class="node">
<title>Node11</title>
<g id="a_node11"><a xlink:href="_machine_filtered_lines_8h.html" target="_top" xlink:title=" ">
<polygon fill="none" stroke="black" points="175.5,-268.5 175.5,-298.5 327.5,-298.5 327.5,-268.5 175.5,-268.5"/>
<text text-anchor="start" x="183.5" y="-286.5" font-family="Helvetica,sans-Serif" font-size="10.00">typeClassDefs/MachineFiltered</text>
<text text-anchor="middle" x="251.5" y="-275.5" font-family="Helvetica,sans-Serif" font-size="10.00">Lines.h</text>
</a>
</g>
</g>
<!-- Node4&#45;&gt;Node11 -->
<g id="edge10" class="edge">
<title>Node4&#45;&gt;Node11</title>
<path fill="none" stroke="midnightblue" d="M250.88,-325.11C251.01,-316.15 251.16,-306.32 251.28,-298.58"/>
<polygon fill="midnightblue" stroke="midnightblue" points="247.37,-325.34 250.72,-335.4 254.37,-325.45 247.37,-325.34"/>
</g>
<!-- Node6 -->
<g id="node6" class="node">
<title>Node6</title>
<g id="a_node6"><a xlink:href="_simple_whiteboard_test_8h.html" target="_top" xlink:title=" ">
<polygon fill="none" stroke="black" points="11,-67.5 11,-97.5 136,-97.5 136,-67.5 11,-67.5"/>
<text text-anchor="start" x="19" y="-85.5" font-family="Helvetica,sans-Serif" font-size="10.00">SimpleWhiteboardTest</text>
<text text-anchor="middle" x="73.5" y="-74.5" font-family="Helvetica,sans-Serif" font-size="10.00">/SimpleWhiteboardTest.h</text>
</a>
</g>
</g>
<!-- Node5&#45;&gt;Node6 -->
<g id="edge5" class="edge">
<title>Node5&#45;&gt;Node6</title>
<path fill="none" stroke="midnightblue" d="M183.04,-135.47C159.88,-124.49 126.81,-108.79 103.07,-97.53"/>
<polygon fill="midnightblue" stroke="midnightblue" points="181.77,-138.74 192.31,-139.87 184.77,-132.42 181.77,-138.74"/>
</g>
<!-- Node8 -->
<g id="node8" class="node">
<title>Node8</title>
<g id="a_node8"><a xlink:href="guwhiteboardgetter_8h.html" target="_top" xlink:title=" ">
<polygon fill="none" stroke="black" points="157,-73 157,-92 264,-92 264,-73 157,-73"/>
<text text-anchor="middle" x="210.5" y="-80" font-family="Helvetica,sans-Serif" font-size="10.00">guwhiteboardgetter.h</text>
</a>
</g>
</g>
<!-- Node5&#45;&gt;Node8 -->
<g id="edge7" class="edge">
<title>Node5&#45;&gt;Node8</title>
<path fill="none" stroke="midnightblue" d="M210.5,-129.54C210.5,-117.17 210.5,-101.62 210.5,-92.13"/>
<polygon fill="midnightblue" stroke="midnightblue" points="207,-129.73 210.5,-139.73 214,-129.73 207,-129.73"/>
</g>
<!-- Node10 -->
<g id="node10" class="node">
<title>Node10</title>
<g id="a_node10"><a xlink:href="guwhiteboardposter_8cpp.html" target="_top" xlink:title=" ">
<polygon fill="none" stroke="black" points="282,-73 282,-92 401,-92 401,-73 282,-73"/>
<text text-anchor="middle" x="341.5" y="-80" font-family="Helvetica,sans-Serif" font-size="10.00">guwhiteboardposter.cpp</text>
</a>
</g>
</g>
<!-- Node5&#45;&gt;Node10 -->
<g id="edge9" class="edge">
<title>Node5&#45;&gt;Node10</title>
<path fill="none" stroke="midnightblue" d="M237.16,-135.27C263.1,-122.4 301.78,-103.21 324.03,-92.17"/>
<polygon fill="midnightblue" stroke="midnightblue" points="235.3,-132.29 227.9,-139.87 238.41,-138.56 235.3,-132.29"/>
</g>
<!-- Node7 -->
<g id="node7" class="node">
<title>Node7</title>
<g id="a_node7"><a xlink:href="_simple_whiteboard_test_8mm.html" target="_top" xlink:title=" ">
<polygon fill="none" stroke="black" points="0,-0.5 0,-30.5 137,-30.5 137,-0.5 0,-0.5"/>
<text text-anchor="start" x="8" y="-18.5" font-family="Helvetica,sans-Serif" font-size="10.00">SimpleWhiteboardTest</text>
<text text-anchor="middle" x="68.5" y="-7.5" font-family="Helvetica,sans-Serif" font-size="10.00">/SimpleWhiteboardTest.mm</text>
</a>
</g>
</g>
<!-- Node6&#45;&gt;Node7 -->
<g id="edge6" class="edge">
<title>Node6&#45;&gt;Node7</title>
<path fill="none" stroke="midnightblue" d="M71.65,-57.4C70.95,-48.37 70.19,-38.41 69.58,-30.58"/>
<polygon fill="midnightblue" stroke="midnightblue" points="68.16,-57.69 72.42,-67.4 75.14,-57.16 68.16,-57.69"/>
</g>
<!-- Node9 -->
<g id="node9" class="node">
<title>Node9</title>
<g id="a_node9"><a xlink:href="guwhiteboardgetter_8cpp.html" target="_top" xlink:title=" ">
<polygon fill="none" stroke="black" points="155,-6 155,-25 272,-25 272,-6 155,-6"/>
<text text-anchor="middle" x="213.5" y="-13" font-family="Helvetica,sans-Serif" font-size="10.00">guwhiteboardgetter.cpp</text>
</a>
</g>
</g>
<!-- Node8&#45;&gt;Node9 -->
<g id="edge8" class="edge">
<title>Node8&#45;&gt;Node9</title>
<path fill="none" stroke="midnightblue" d="M211.38,-62.54C211.95,-50.17 212.66,-34.62 213.1,-25.13"/>
<polygon fill="midnightblue" stroke="midnightblue" points="207.87,-62.58 210.9,-72.73 214.86,-62.91 207.87,-62.58"/>
</g>
<!-- Node13 -->
<g id="node13" class="node">
<title>Node13</title>
<g id="a_node13"><a xlink:href="_vision_detection_feature_8h.html" target="_top" xlink:title=" ">
<polygon fill="none" stroke="black" points="346,-402.5 346,-432.5 497,-432.5 497,-402.5 346,-402.5"/>
<text text-anchor="start" x="354" y="-420.5" font-family="Helvetica,sans-Serif" font-size="10.00">typeClassDefs/VisionDetection</text>
<text text-anchor="middle" x="421.5" y="-409.5" font-family="Helvetica,sans-Serif" font-size="10.00">Feature.h</text>
</a>
</g>
</g>
<!-- Node12&#45;&gt;Node13 -->
<g id="edge12" class="edge">
<title>Node12&#45;&gt;Node13</title>
<path fill="none" stroke="midnightblue" d="M421.5,-459.11C421.5,-450.15 421.5,-440.32 421.5,-432.58"/>
<polygon fill="midnightblue" stroke="midnightblue" points="418,-459.4 421.5,-469.4 425,-459.4 418,-459.4"/>
</g>
<!-- Node14 -->
<g id="node14" class="node">
<title>Node14</title>
<g id="a_node14"><a xlink:href="_vision_detection_feature_array_8hpp.html" target="_top" xlink:title=" ">
<polygon fill="none" stroke="black" points="346,-335.5 346,-365.5 497,-365.5 497,-335.5 346,-335.5"/>
<text text-anchor="start" x="354" y="-353.5" font-family="Helvetica,sans-Serif" font-size="10.00">typeClassDefs/VisionDetection</text>
<text text-anchor="middle" x="421.5" y="-342.5" font-family="Helvetica,sans-Serif" font-size="10.00">FeatureArray.hpp</text>
</a>
</g>
</g>
<!-- Node13&#45;&gt;Node14 -->
<g id="edge13" class="edge">
<title>Node13&#45;&gt;Node14</title>
<path fill="none" stroke="midnightblue" d="M421.5,-392.11C421.5,-383.15 421.5,-373.32 421.5,-365.58"/>
<polygon fill="midnightblue" stroke="midnightblue" points="418,-392.4 421.5,-402.4 425,-392.4 418,-392.4"/>
</g>
<!-- Node15 -->
<g id="node15" class="node">
<title>Node15</title>
<g id="a_node15"><a xlink:href="_vision_detection_feature_array_8h.html" target="_top" xlink:title=" ">
<polygon fill="none" stroke="black" points="346,-268.5 346,-298.5 497,-298.5 497,-268.5 346,-268.5"/>
<text text-anchor="start" x="354" y="-286.5" font-family="Helvetica,sans-Serif" font-size="10.00">typeClassDefs/VisionDetection</text>
<text text-anchor="middle" x="421.5" y="-275.5" font-family="Helvetica,sans-Serif" font-size="10.00">FeatureArray.h</text>
</a>
</g>
</g>
<!-- Node14&#45;&gt;Node15 -->
<g id="edge14" class="edge">
<title>Node14&#45;&gt;Node15</title>
<path fill="none" stroke="midnightblue" d="M421.5,-325.11C421.5,-316.15 421.5,-306.32 421.5,-298.58"/>
<polygon fill="midnightblue" stroke="midnightblue" points="418,-325.4 421.5,-335.4 425,-325.4 418,-325.4"/>
</g>
<!-- Node16 -->
<g id="node16" class="node">
<title>Node16</title>
<g id="a_node16"><a xlink:href="_vision_detection_features_8hpp.html" target="_top" xlink:title=" ">
<polygon fill="none" stroke="black" points="314,-201.5 314,-231.5 465,-231.5 465,-201.5 314,-201.5"/>
<text text-anchor="start" x="322" y="-219.5" font-family="Helvetica,sans-Serif" font-size="10.00">typeClassDefs/VisionDetection</text>
<text text-anchor="middle" x="389.5" y="-208.5" font-family="Helvetica,sans-Serif" font-size="10.00">Features.hpp</text>
</a>
</g>
</g>
<!-- Node15&#45;&gt;Node16 -->
<g id="edge15" class="edge">
<title>Node15&#45;&gt;Node16</title>
<path fill="none" stroke="midnightblue" d="M410.07,-259.28C405.51,-250.02 400.41,-239.66 396.43,-231.58"/>
<polygon fill="midnightblue" stroke="midnightblue" points="407,-260.97 414.56,-268.4 413.28,-257.88 407,-260.97"/>
</g>
<!-- Node16&#45;&gt;Node5 -->
<g id="edge16" class="edge">
<title>Node16&#45;&gt;Node5</title>
<path fill="none" stroke="midnightblue" d="M341.16,-197.95C306.39,-185.32 261.03,-168.85 233.93,-159.01"/>
<polygon fill="midnightblue" stroke="midnightblue" points="340.07,-201.27 350.66,-201.4 342.45,-194.69 340.07,-201.27"/>
</g>
<!-- Node17 -->
<g id="node17" class="node">
<title>Node17</title>
<g id="a_node17"><a xlink:href="_vision_detection_features_8h.html" target="_top" xlink:title=" ">
<polygon fill="none" stroke="black" points="314,-134.5 314,-164.5 465,-164.5 465,-134.5 314,-134.5"/>
<text text-anchor="start" x="322" y="-152.5" font-family="Helvetica,sans-Serif" font-size="10.00">typeClassDefs/VisionDetection</text>
<text text-anchor="middle" x="389.5" y="-141.5" font-family="Helvetica,sans-Serif" font-size="10.00">Features.h</text>
</a>
</g>
</g>
<!-- Node16&#45;&gt;Node17 -->
<g id="edge17" class="edge">
<title>Node16&#45;&gt;Node17</title>
<path fill="none" stroke="midnightblue" d="M389.5,-191.11C389.5,-182.15 389.5,-172.32 389.5,-164.58"/>
<polygon fill="midnightblue" stroke="midnightblue" points="386,-191.4 389.5,-201.4 393,-191.4 386,-191.4"/>
</g>
</g>
</svg>
