<?xml version="1.0" encoding="UTF-8" standalone="no"?>
<!DOCTYPE svg PUBLIC "-//W3C//DTD SVG 1.1//EN"
 "http://www.w3.org/Graphics/SVG/1.1/DTD/svg11.dtd">
<!-- Generated by graphviz version 2.49.0 (20210830.1337)
 -->
<!-- Title: OLD_WB/RemoteWhiteboard.cc Pages: 1 -->
<svg width="1280pt" height="498pt"
 viewBox="0.00 0.00 1280.00 498.00" xmlns="http://www.w3.org/2000/svg" xmlns:xlink="http://www.w3.org/1999/xlink">
<g id="graph0" class="graph" transform="scale(1 1) rotate(0) translate(4 494)">
<title>OLD_WB/RemoteWhiteboard.cc</title>
<!-- Node1 -->
<g id="node1" class="node">
<title>Node1</title>
<g id="a_node1"><a xlink:title=" ">
<polygon fill="#bfbfbf" stroke="black" points="869,-470.5 869,-489.5 1025,-489.5 1025,-470.5 869,-470.5"/>
<text text-anchor="middle" x="947" y="-477.5" font-family="Helvetica,sans-Serif" font-size="10.00">OLD_WB/RemoteWhiteboard.cc</text>
</a>
</g>
</g>
<!-- Node2 -->
<g id="node2" class="node">
<title>Node2</title>
<g id="a_node2"><a xlink:title=" ">
<polygon fill="none" stroke="#bfbfbf" points="758,-179.5 758,-198.5 804,-198.5 804,-179.5 758,-179.5"/>
<text text-anchor="middle" x="781" y="-186.5" font-family="Helvetica,sans-Serif" font-size="10.00">cstring</text>
</a>
</g>
</g>
<!-- Node1&#45;&gt;Node2 -->
<g id="edge1" class="edge">
<title>Node1&#45;&gt;Node2</title>
<path fill="none" stroke="midnightblue" d="M870.25,-470.48C842.93,-464.14 813.62,-453.12 792,-434 727.02,-376.52 758.88,-255.06 774.29,-208.61"/>
<polygon fill="midnightblue" stroke="midnightblue" points="777.67,-209.55 777.62,-198.95 771.05,-207.26 777.67,-209.55"/>
</g>
<!-- Node3 -->
<g id="node3" class="node">
<title>Node3</title>
<g id="a_node3"><a xlink:title=" ">
<polygon fill="none" stroke="#bfbfbf" points="925.5,-414.5 925.5,-433.5 968.5,-433.5 968.5,-414.5 925.5,-414.5"/>
<text text-anchor="middle" x="947" y="-421.5" font-family="Helvetica,sans-Serif" font-size="10.00">cstdio</text>
</a>
</g>
</g>
<!-- Node1&#45;&gt;Node3 -->
<g id="edge2" class="edge">
<title>Node1&#45;&gt;Node3</title>
<path fill="none" stroke="midnightblue" d="M947,-470.08C947,-463.01 947,-452.86 947,-443.99"/>
<polygon fill="midnightblue" stroke="midnightblue" points="950.5,-443.75 947,-433.75 943.5,-443.75 950.5,-443.75"/>
</g>
<!-- Node4 -->
<g id="node4" class="node">
<title>Node4</title>
<g id="a_node4"><a xlink:title=" ">
<polygon fill="none" stroke="#bfbfbf" points="113.5,-56.5 113.5,-75.5 166.5,-75.5 166.5,-56.5 113.5,-56.5"/>
<text text-anchor="middle" x="140" y="-63.5" font-family="Helvetica,sans-Serif" font-size="10.00">gu_util.h</text>
</a>
</g>
</g>
<!-- Node1&#45;&gt;Node4 -->
<g id="edge3" class="edge">
<title>Node1&#45;&gt;Node4</title>
<path fill="none" stroke="midnightblue" d="M868.7,-478.08C641.81,-474.38 0,-456.21 0,-369 0,-369 0,-369 0,-188 0,-132.38 64.02,-96.65 105.48,-79.35"/>
<polygon fill="midnightblue" stroke="midnightblue" points="106.99,-82.51 114.97,-75.54 104.39,-76.01 106.99,-82.51"/>
</g>
<!-- Node5 -->
<g id="node5" class="node">
<title>Node5</title>
<g id="a_node5"><a xlink:href="_remote_whiteboard_8h.html" target="_top" xlink:title=" ">
<polygon fill="none" stroke="black" points="800.5,-414.5 800.5,-433.5 907.5,-433.5 907.5,-414.5 800.5,-414.5"/>
<text text-anchor="middle" x="854" y="-421.5" font-family="Helvetica,sans-Serif" font-size="10.00">RemoteWhiteboard.h</text>
</a>
</g>
</g>
<!-- Node1&#45;&gt;Node5 -->
<g id="edge4" class="edge">
<title>Node1&#45;&gt;Node5</title>
<path fill="none" stroke="midnightblue" d="M932.06,-470.32C917.41,-461.82 894.87,-448.73 877.76,-438.8"/>
<polygon fill="midnightblue" stroke="midnightblue" points="879.31,-435.65 868.9,-433.65 875.8,-441.7 879.31,-435.65"/>
</g>
<!-- Node28 -->
<g id="node28" class="node">
<title>Node28</title>
<g id="a_node28"><a xlink:title=" ">
<polygon fill="none" stroke="#bfbfbf" points="986.5,-414.5 986.5,-433.5 1129.5,-433.5 1129.5,-414.5 986.5,-414.5"/>
<text text-anchor="middle" x="1058" y="-421.5" font-family="Helvetica,sans-Serif" font-size="10.00">guudpbridge/guudpManager.h</text>
</a>
</g>
</g>
<!-- Node1&#45;&gt;Node28 -->
<g id="edge52" class="edge">
<title>Node1&#45;&gt;Node28</title>
<path fill="none" stroke="midnightblue" d="M964.83,-470.32C982.72,-461.62 1010.48,-448.12 1031.05,-438.11"/>
<polygon fill="midnightblue" stroke="midnightblue" points="1032.75,-441.18 1040.21,-433.65 1029.69,-434.88 1032.75,-441.18"/>
</g>
<!-- Node29 -->
<g id="node29" class="node">
<title>Node29</title>
<g id="a_node29"><a xlink:title=" ">
<polygon fill="none" stroke="#bfbfbf" points="1148,-414.5 1148,-433.5 1198,-433.5 1198,-414.5 1148,-414.5"/>
<text text-anchor="middle" x="1173" y="-421.5" font-family="Helvetica,sans-Serif" font-size="10.00">signal.h</text>
</a>
</g>
</g>
<!-- Node1&#45;&gt;Node29 -->
<g id="edge53" class="edge">
<title>Node1&#45;&gt;Node29</title>
<path fill="none" stroke="midnightblue" d="M984.96,-470.44C1021.71,-462.08 1079.22,-448.8 1137.95,-434.21"/>
<polygon fill="midnightblue" stroke="midnightblue" points="1138.91,-437.58 1147.77,-431.76 1137.22,-430.79 1138.91,-437.58"/>
</g>
<!-- Node30 -->
<g id="node30" class="node">
<title>Node30</title>
<g id="a_node30"><a xlink:title=" ">
<polygon fill="none" stroke="#bfbfbf" points="1216,-414.5 1216,-433.5 1272,-433.5 1272,-414.5 1216,-414.5"/>
<text text-anchor="middle" x="1244" y="-421.5" font-family="Helvetica,sans-Serif" font-size="10.00">pthread.h</text>
</a>
</g>
</g>
<!-- Node1&#45;&gt;Node30 -->
<g id="edge54" class="edge">
<title>Node1&#45;&gt;Node30</title>
<path fill="none" stroke="midnightblue" d="M1002.74,-470.46C1053.26,-462.48 1129.98,-449.73 1205.59,-434.19"/>
<polygon fill="midnightblue" stroke="midnightblue" points="1206.68,-437.53 1215.76,-432.08 1205.26,-430.68 1206.68,-437.53"/>
</g>
<!-- Node6 -->
<g id="node6" class="node">
<title>Node6</title>
<g id="a_node6"><a xlink:title=" ">
<polygon fill="none" stroke="#bfbfbf" points="849.5,-56.5 849.5,-75.5 890.5,-75.5 890.5,-56.5 849.5,-56.5"/>
<text text-anchor="middle" x="870" y="-63.5" font-family="Helvetica,sans-Serif" font-size="10.00">string</text>
</a>
</g>
</g>
<!-- Node5&#45;&gt;Node6 -->
<g id="edge5" class="edge">
<title>Node5&#45;&gt;Node6</title>
<path fill="none" stroke="midnightblue" d="M875.97,-414.41C897.77,-405.73 932.03,-391.69 961,-378 978.26,-369.85 981.64,-365.93 999,-358 1038.93,-339.75 1060.19,-353.28 1091,-322 1131.96,-280.42 1126.61,-256.43 1137,-199 1155.77,-95.21 975.14,-73.02 900.93,-68.28"/>
<polygon fill="midnightblue" stroke="midnightblue" points="900.98,-64.78 890.79,-67.7 900.58,-71.77 900.98,-64.78"/>
</g>
<!-- Node7 -->
<g id="node7" class="node">
<title>Node7</title>
<g id="a_node7"><a xlink:title=" ">
<polygon fill="none" stroke="#bfbfbf" points="296,-56.5 296,-75.5 340,-75.5 340,-56.5 296,-56.5"/>
<text text-anchor="middle" x="318" y="-63.5" font-family="Helvetica,sans-Serif" font-size="10.00">vector</text>
</a>
</g>
</g>
<!-- Node5&#45;&gt;Node7 -->
<g id="edge6" class="edge">
<title>Node5&#45;&gt;Node7</title>
<path fill="none" stroke="midnightblue" d="M800.26,-418.51C657.56,-405.11 280,-359.47 280,-251.5 280,-251.5 280,-251.5 280,-188 280,-149.81 297.44,-107.83 308.69,-84.72"/>
<polygon fill="midnightblue" stroke="midnightblue" points="311.96,-86.02 313.34,-75.52 305.71,-82.86 311.96,-86.02"/>
</g>
<!-- Node8 -->
<g id="node8" class="node">
<title>Node8</title>
<g id="a_node8"><a xlink:title=" ">
<polygon fill="none" stroke="#bfbfbf" points="1021,-56.5 1021,-75.5 1075,-75.5 1075,-56.5 1021,-56.5"/>
<text text-anchor="middle" x="1048" y="-63.5" font-family="Helvetica,sans-Serif" font-size="10.00">iostream</text>
</a>
</g>
</g>
<!-- Node5&#45;&gt;Node8 -->
<g id="edge7" class="edge">
<title>Node5&#45;&gt;Node8</title>
<path fill="none" stroke="midnightblue" d="M907.79,-415.32C997.76,-402.46 1169,-378 1169,-378 1196.77,-359.33 1207,-346.46 1207,-313 1207,-313 1207,-313 1207,-188 1207,-126.95 1131.86,-92.66 1084.89,-77.18"/>
<polygon fill="midnightblue" stroke="midnightblue" points="1085.92,-73.84 1075.33,-74.16 1083.81,-80.51 1085.92,-73.84"/>
</g>
<!-- Node9 -->
<g id="node9" class="node">
<title>Node9</title>
<g id="a_node9"><a xlink:title=" ">
<polygon fill="none" stroke="#bfbfbf" points="1076,-179.5 1076,-198.5 1128,-198.5 1128,-179.5 1076,-179.5"/>
<text text-anchor="middle" x="1102" y="-186.5" font-family="Helvetica,sans-Serif" font-size="10.00">sstream</text>
</a>
</g>
</g>
<!-- Node5&#45;&gt;Node9 -->
<g id="edge8" class="edge">
<title>Node5&#45;&gt;Node9</title>
<path fill="none" stroke="midnightblue" d="M907.51,-415.31C992.25,-403.07 1148.03,-380.29 1150,-378 1193.33,-327.58 1141.32,-243.16 1115.22,-207.14"/>
<polygon fill="midnightblue" stroke="midnightblue" points="1117.71,-204.62 1108.93,-198.7 1112.1,-208.81 1117.71,-204.62"/>
</g>
<!-- Node10 -->
<g id="node10" class="node">
<title>Node10</title>
<g id="a_node10"><a xlink:title=" ">
<polygon fill="none" stroke="#bfbfbf" points="1007.5,-358.5 1007.5,-377.5 1140.5,-377.5 1140.5,-358.5 1007.5,-358.5"/>
<text text-anchor="middle" x="1074" y="-365.5" font-family="Helvetica,sans-Serif" font-size="10.00">guudpbridge/guudpConfig.h</text>
</a>
</g>
</g>
<!-- Node5&#45;&gt;Node10 -->
<g id="edge9" class="edge">
<title>Node5&#45;&gt;Node10</title>
<path fill="none" stroke="midnightblue" d="M888.86,-414.44C926.92,-405.1 987.96,-390.12 1029.46,-379.93"/>
<polygon fill="midnightblue" stroke="midnightblue" points="1030.43,-383.3 1039.3,-377.52 1028.76,-376.5 1030.43,-383.3"/>
</g>
<!-- Node11 -->
<g id="node11" class="node">
<title>Node11</title>
<g id="a_node11"><a xlink:href="gusimplewhiteboard_8h.html" target="_top" xlink:title=" ">
<polygon fill="none" stroke="black" points="621,-56.5 621,-75.5 731,-75.5 731,-56.5 621,-56.5"/>
<text text-anchor="middle" x="676" y="-63.5" font-family="Helvetica,sans-Serif" font-size="10.00">gusimplewhiteboard.h</text>
</a>
</g>
</g>
<!-- Node5&#45;&gt;Node11 -->
<g id="edge10" class="edge">
<title>Node5&#45;&gt;Node11</title>
<path fill="none" stroke="midnightblue" d="M800.4,-416.73C741.16,-406.46 654,-379.97 654,-313 654,-313 654,-313 654,-249.5 654,-189.26 665.96,-118.64 672.24,-85.7"/>
<polygon fill="midnightblue" stroke="midnightblue" points="675.71,-86.18 674.2,-75.69 668.84,-84.83 675.71,-86.18"/>
</g>
<!-- Node16 -->
<g id="node16" class="node">
<title>Node16</title>
<g id="a_node16"><a xlink:href="_whiteboard_constants_8h.html" target="_top" xlink:title=" ">
<polygon fill="none" stroke="black" points="947.5,-302.5 947.5,-321.5 1064.5,-321.5 1064.5,-302.5 947.5,-302.5"/>
<text text-anchor="middle" x="1006" y="-309.5" font-family="Helvetica,sans-Serif" font-size="10.00">WhiteboardConstants.h</text>
</a>
</g>
</g>
<!-- Node5&#45;&gt;Node16 -->
<g id="edge15" class="edge">
<title>Node5&#45;&gt;Node16</title>
<path fill="none" stroke="midnightblue" d="M862.48,-414.36C875.6,-401.27 901.91,-376.01 927,-358 943.67,-346.03 963.79,-334.61 979.55,-326.27"/>
<polygon fill="midnightblue" stroke="midnightblue" points="981.47,-329.22 988.73,-321.5 978.24,-323.01 981.47,-329.22"/>
</g>
<!-- Node17 -->
<g id="node17" class="node">
<title>Node17</title>
<g id="a_node17"><a xlink:href="_whiteboard_8h.html" target="_top" xlink:title=" ">
<polygon fill="none" stroke="black" points="776.5,-358.5 776.5,-377.5 849.5,-377.5 849.5,-358.5 776.5,-358.5"/>
<text text-anchor="middle" x="813" y="-365.5" font-family="Helvetica,sans-Serif" font-size="10.00">Whiteboard.h</text>
</a>
</g>
</g>
<!-- Node5&#45;&gt;Node17 -->
<g id="edge16" class="edge">
<title>Node5&#45;&gt;Node17</title>
<path fill="none" stroke="midnightblue" d="M847.23,-414.08C841.44,-406.46 832.94,-395.26 825.86,-385.94"/>
<polygon fill="midnightblue" stroke="midnightblue" points="828.48,-383.6 819.64,-377.75 822.9,-387.83 828.48,-383.6"/>
</g>
<!-- Node18 -->
<g id="node18" class="node">
<title>Node18</title>
<g id="a_node18"><a xlink:href="_w_b_functor_8h.html" target="_top" xlink:title=" ">
<polygon fill="none" stroke="black" points="514.5,-302.5 514.5,-321.5 587.5,-321.5 587.5,-302.5 514.5,-302.5"/>
<text text-anchor="middle" x="551" y="-309.5" font-family="Helvetica,sans-Serif" font-size="10.00">WBFunctor.h</text>
</a>
</g>
</g>
<!-- Node5&#45;&gt;Node18 -->
<g id="edge50" class="edge">
<title>Node5&#45;&gt;Node18</title>
<path fill="none" stroke="midnightblue" d="M800.18,-418.05C755.69,-412.48 691.67,-401.02 640,-378 612.32,-365.67 584.82,-343.71 567.88,-328.77"/>
<polygon fill="midnightblue" stroke="midnightblue" points="569.8,-325.78 560.03,-321.67 565.1,-330.98 569.8,-325.78"/>
</g>
<!-- Node19 -->
<g id="node19" class="node">
<title>Node19</title>
<g id="a_node19"><a xlink:href="_w_b_msg_8h.html" target="_top" xlink:title=" ">
<polygon fill="none" stroke="black" points="840.5,-241 840.5,-260 899.5,-260 899.5,-241 840.5,-241"/>
<text text-anchor="middle" x="870" y="-248" font-family="Helvetica,sans-Serif" font-size="10.00">WBMsg.h</text>
</a>
</g>
</g>
<!-- Node5&#45;&gt;Node19 -->
<g id="edge51" class="edge">
<title>Node5&#45;&gt;Node19</title>
<path fill="none" stroke="midnightblue" d="M867.68,-414.5C892.79,-398.98 945.46,-366.83 965,-358 1011.49,-336.99 1044.11,-363.35 1074,-322 1116.07,-263.8 980.8,-253.23 910.15,-251.59"/>
<polygon fill="midnightblue" stroke="midnightblue" points="909.88,-248.09 899.81,-251.41 909.75,-255.08 909.88,-248.09"/>
</g>
<!-- Node12 -->
<g id="node12" class="node">
<title>Node12</title>
<g id="a_node12"><a xlink:title=" ">
<polygon fill="none" stroke="#bfbfbf" points="998.5,-0.5 998.5,-19.5 1099.5,-19.5 1099.5,-0.5 998.5,-0.5"/>
<text text-anchor="middle" x="1049" y="-7.5" font-family="Helvetica,sans-Serif" font-size="10.00">dispatch/dispatch.h</text>
</a>
</g>
</g>
<!-- Node11&#45;&gt;Node12 -->
<g id="edge11" class="edge">
<title>Node11&#45;&gt;Node12</title>
<path fill="none" stroke="midnightblue" d="M731.04,-57.03C799.7,-47.09 916.74,-30.15 988.05,-19.82"/>
<polygon fill="midnightblue" stroke="midnightblue" points="988.84,-23.25 998.23,-18.35 987.83,-16.32 988.84,-23.25"/>
</g>
<!-- Node13 -->
<g id="node13" class="node">
<title>Node13</title>
<g id="a_node13"><a xlink:title=" ">
<polygon fill="none" stroke="#bfbfbf" points="719.5,-0.5 719.5,-19.5 784.5,-19.5 784.5,-0.5 719.5,-0.5"/>
<text text-anchor="middle" x="752" y="-7.5" font-family="Helvetica,sans-Serif" font-size="10.00">sys/types.h</text>
</a>
</g>
</g>
<!-- Node11&#45;&gt;Node13 -->
<g id="edge12" class="edge">
<title>Node11&#45;&gt;Node13</title>
<path fill="none" stroke="midnightblue" d="M688.21,-56.32C699.78,-48.11 717.38,-35.6 731.16,-25.81"/>
<polygon fill="midnightblue" stroke="midnightblue" points="733.44,-28.48 739.57,-19.83 729.39,-22.77 733.44,-28.48"/>
</g>
<!-- Node14 -->
<g id="node14" class="node">
<title>Node14</title>
<g id="a_node14"><a xlink:title=" ">
<polygon fill="none" stroke="#bfbfbf" points="579.5,-0.5 579.5,-19.5 632.5,-19.5 632.5,-0.5 579.5,-0.5"/>
<text text-anchor="middle" x="606" y="-7.5" font-family="Helvetica,sans-Serif" font-size="10.00">cstdbool</text>
</a>
</g>
</g>
<!-- Node11&#45;&gt;Node14 -->
<g id="edge13" class="edge">
<title>Node11&#45;&gt;Node14</title>
<path fill="none" stroke="midnightblue" d="M664.75,-56.32C654.2,-48.18 638.2,-35.84 625.56,-26.09"/>
<polygon fill="midnightblue" stroke="midnightblue" points="627.51,-23.17 617.45,-19.83 623.23,-28.71 627.51,-23.17"/>
</g>
<!-- Node15 -->
<g id="node15" class="node">
<title>Node15</title>
<g id="a_node15"><a xlink:title=" ">
<polygon fill="none" stroke="#bfbfbf" points="651,-0.5 651,-19.5 701,-19.5 701,-0.5 651,-0.5"/>
<text text-anchor="middle" x="676" y="-7.5" font-family="Helvetica,sans-Serif" font-size="10.00">unistd.h</text>
</a>
</g>
</g>
<!-- Node11&#45;&gt;Node15 -->
<g id="edge14" class="edge">
<title>Node11&#45;&gt;Node15</title>
<path fill="none" stroke="midnightblue" d="M676,-56.08C676,-49.01 676,-38.86 676,-29.99"/>
<polygon fill="midnightblue" stroke="midnightblue" points="679.5,-29.75 676,-19.75 672.5,-29.75 679.5,-29.75"/>
</g>
<!-- Node17&#45;&gt;Node4 -->
<g id="edge21" class="edge">
<title>Node17&#45;&gt;Node4</title>
<path fill="none" stroke="midnightblue" d="M776.4,-363.86C659.53,-353.39 296.8,-317.42 192,-266 118.83,-230.1 89.07,-217.49 56,-143 50.41,-130.41 48.92,-123.82 56,-112 66.4,-94.63 86.04,-83.59 103.72,-76.79"/>
<polygon fill="midnightblue" stroke="midnightblue" points="104.99,-80.05 113.27,-73.44 102.67,-73.45 104.99,-80.05"/>
</g>
<!-- Node17&#45;&gt;Node6 -->
<g id="edge18" class="edge">
<title>Node17&#45;&gt;Node6</title>
<path fill="none" stroke="midnightblue" d="M819.55,-358.19C829.3,-345.31 848.47,-320.82 867,-302 884.25,-284.48 892.76,-284.46 909,-266 932.53,-239.26 942.79,-233.13 953,-199 967.12,-151.79 919.19,-104.98 890.32,-81.87"/>
<polygon fill="midnightblue" stroke="midnightblue" points="892.45,-79.09 882.4,-75.74 888.17,-84.63 892.45,-79.09"/>
</g>
<!-- Node17&#45;&gt;Node7 -->
<g id="edge19" class="edge">
<title>Node17&#45;&gt;Node7</title>
<path fill="none" stroke="midnightblue" d="M802.69,-358.23C766.63,-328.03 641.82,-227.62 521,-179 443.7,-147.89 397.43,-200.38 337,-143 321.47,-128.25 317.85,-102.88 317.37,-85.55"/>
<polygon fill="midnightblue" stroke="midnightblue" points="320.87,-85.52 317.42,-75.5 313.88,-85.49 320.87,-85.52"/>
</g>
<!-- Node17&#45;&gt;Node8 -->
<g id="edge20" class="edge">
<title>Node17&#45;&gt;Node8</title>
<path fill="none" stroke="midnightblue" d="M825.38,-358.45C848.59,-342.08 899.55,-304.54 936,-266 982.54,-216.78 996.13,-203.79 1026,-143 1035.07,-124.55 1041.05,-101.69 1044.46,-85.89"/>
<polygon fill="midnightblue" stroke="midnightblue" points="1047.95,-86.29 1046.49,-75.8 1041.09,-84.91 1047.95,-86.29"/>
</g>
<!-- Node17&#45;&gt;Node11 -->
<g id="edge22" class="edge">
<title>Node17&#45;&gt;Node11</title>
<path fill="none" stroke="midnightblue" d="M809.05,-358.35C790.3,-317.28 710.14,-141.76 684.16,-84.87"/>
<polygon fill="midnightblue" stroke="midnightblue" points="687.31,-83.33 679.97,-75.69 680.94,-86.24 687.31,-83.33"/>
</g>
<!-- Node17&#45;&gt;Node12 -->
<g id="edge17" class="edge">
<title>Node17&#45;&gt;Node12</title>
<path fill="none" stroke="midnightblue" d="M829.67,-358.25C861.35,-341.65 928.07,-306.8 939,-302 1071.61,-243.8 1245,-334.82 1245,-190 1245,-190 1245,-190 1245,-126.5 1245,-62.88 1167.4,-33.59 1109.86,-20.62"/>
<polygon fill="midnightblue" stroke="midnightblue" points="1110.24,-17.12 1099.73,-18.46 1108.78,-23.97 1110.24,-17.12"/>
</g>
<!-- Node17&#45;&gt;Node16 -->
<g id="edge23" class="edge">
<title>Node17&#45;&gt;Node16</title>
<path fill="none" stroke="midnightblue" d="M843.58,-358.44C876.61,-349.2 929.39,-334.44 965.77,-324.26"/>
<polygon fill="midnightblue" stroke="midnightblue" points="966.87,-327.58 975.56,-321.52 964.99,-320.84 966.87,-327.58"/>
</g>
<!-- Node17&#45;&gt;Node18 -->
<g id="edge24" class="edge">
<title>Node17&#45;&gt;Node18</title>
<path fill="none" stroke="midnightblue" d="M776.29,-359.43C729.56,-349.8 648.75,-333.15 597.68,-322.62"/>
<polygon fill="midnightblue" stroke="midnightblue" points="598.38,-319.19 587.88,-320.6 596.97,-326.05 598.38,-319.19"/>
</g>
<!-- Node17&#45;&gt;Node19 -->
<g id="edge49" class="edge">
<title>Node17&#45;&gt;Node19</title>
<path fill="none" stroke="midnightblue" d="M813.93,-358.17C815.56,-345.26 819.68,-320.73 829,-302 835.3,-289.33 845.26,-276.97 853.78,-267.64"/>
<polygon fill="midnightblue" stroke="midnightblue" points="856.41,-269.96 860.77,-260.3 851.34,-265.13 856.41,-269.96"/>
</g>
<!-- Node18&#45;&gt;Node4 -->
<g id="edge26" class="edge">
<title>Node18&#45;&gt;Node4</title>
<path fill="none" stroke="midnightblue" d="M527.2,-302.46C503.58,-293.83 466.45,-279.81 435,-266 373.31,-238.9 352.43,-240.06 299,-199 258.29,-167.71 263.09,-144.08 223,-112 206.74,-98.99 186.17,-87.81 169.58,-79.85"/>
<polygon fill="midnightblue" stroke="midnightblue" points="170.88,-76.59 160.33,-75.54 167.92,-82.93 170.88,-76.59"/>
</g>
<!-- Node18&#45;&gt;Node6 -->
<g id="edge25" class="edge">
<title>Node18&#45;&gt;Node6</title>
<path fill="none" stroke="midnightblue" d="M562.35,-302.32C609.54,-266.22 790.51,-127.8 850.53,-81.89"/>
<polygon fill="midnightblue" stroke="midnightblue" points="852.97,-84.44 858.78,-75.58 848.71,-78.88 852.97,-84.44"/>
</g>
<!-- Node18&#45;&gt;Node11 -->
<g id="edge46" class="edge">
<title>Node18&#45;&gt;Node11</title>
<path fill="none" stroke="midnightblue" d="M555.45,-302.32C573.6,-266.89 642.25,-132.88 667.02,-84.53"/>
<polygon fill="midnightblue" stroke="midnightblue" points="670.16,-86.08 671.6,-75.58 663.93,-82.88 670.16,-86.08"/>
</g>
<!-- Node18&#45;&gt;Node19 -->
<g id="edge27" class="edge">
<title>Node18&#45;&gt;Node19</title>
<path fill="none" stroke="midnightblue" d="M587.59,-304.17C648.05,-292.9 768.29,-270.47 830.57,-258.85"/>
<polygon fill="midnightblue" stroke="midnightblue" points="831.22,-262.29 840.41,-257.02 829.94,-255.41 831.22,-262.29"/>
</g>
<!-- Node21 -->
<g id="node21" class="node">
<title>Node21</title>
<g id="a_node21"><a xlink:href="guwhiteboardtypelist__generated_8h.html" target="_top" xlink:title=" ">
<polygon fill="none" stroke="black" points="444.5,-235.5 444.5,-265.5 549.5,-265.5 549.5,-235.5 444.5,-235.5"/>
<text text-anchor="start" x="452.5" y="-253.5" font-family="Helvetica,sans-Serif" font-size="10.00">guwhiteboardtypelist</text>
<text text-anchor="middle" x="497" y="-242.5" font-family="Helvetica,sans-Serif" font-size="10.00">_generated.h</text>
</a>
</g>
</g>
<!-- Node18&#45;&gt;Node21 -->
<g id="edge34" class="edge">
<title>Node18&#45;&gt;Node21</title>
<path fill="none" stroke="midnightblue" d="M543.26,-302.48C536.29,-294.79 525.74,-283.17 516.48,-272.96"/>
<polygon fill="midnightblue" stroke="midnightblue" points="519.04,-270.58 509.73,-265.52 513.86,-275.28 519.04,-270.58"/>
</g>
<!-- Node27 -->
<g id="node27" class="node">
<title>Node27</title>
<g id="a_node27"><a xlink:href="_w_b_functor__types__generated_8h.html" target="_top" xlink:title=" ">
<polygon fill="none" stroke="black" points="65.5,-118 65.5,-137 214.5,-137 214.5,-118 65.5,-118"/>
<text text-anchor="middle" x="140" y="-125" font-family="Helvetica,sans-Serif" font-size="10.00">WBFunctor_types_generated.h</text>
</a>
</g>
</g>
<!-- Node18&#45;&gt;Node27 -->
<g id="edge47" class="edge">
<title>Node18&#45;&gt;Node27</title>
<path fill="none" stroke="midnightblue" d="M514.36,-309.7C440.07,-306.47 274.83,-296.02 228,-266 183.37,-237.4 156.98,-177.2 146,-146.83"/>
<polygon fill="midnightblue" stroke="midnightblue" points="149.22,-145.42 142.65,-137.11 142.6,-147.71 149.22,-145.42"/>
</g>
<!-- Node19&#45;&gt;Node2 -->
<g id="edge29" class="edge">
<title>Node19&#45;&gt;Node2</title>
<path fill="none" stroke="midnightblue" d="M857.25,-240.98C842.97,-231.43 819.6,-215.81 802.49,-204.37"/>
<polygon fill="midnightblue" stroke="midnightblue" points="803.99,-201.16 793.73,-198.51 800.1,-206.98 803.99,-201.16"/>
</g>
<!-- Node19&#45;&gt;Node6 -->
<g id="edge30" class="edge">
<title>Node19&#45;&gt;Node6</title>
<path fill="none" stroke="midnightblue" d="M870,-240.7C870,-212.69 870,-125.21 870,-86.16"/>
<polygon fill="midnightblue" stroke="midnightblue" points="873.5,-85.71 870,-75.71 866.5,-85.71 873.5,-85.71"/>
</g>
<!-- Node19&#45;&gt;Node8 -->
<g id="edge31" class="edge">
<title>Node19&#45;&gt;Node8</title>
<path fill="none" stroke="midnightblue" d="M888.58,-240.92C906.41,-232.1 933.44,-217.1 953,-199 990.85,-163.97 1023.05,-111.72 1038.4,-84.67"/>
<polygon fill="midnightblue" stroke="midnightblue" points="1041.63,-86.06 1043.43,-75.62 1035.51,-82.66 1041.63,-86.06"/>
</g>
<!-- Node19&#45;&gt;Node9 -->
<g id="edge32" class="edge">
<title>Node19&#45;&gt;Node9</title>
<path fill="none" stroke="midnightblue" d="M899.85,-241.84C942.41,-230.93 1020.39,-210.93 1066.06,-199.22"/>
<polygon fill="midnightblue" stroke="midnightblue" points="1067.02,-202.58 1075.84,-196.71 1065.28,-195.8 1067.02,-202.58"/>
</g>
<!-- Node19&#45;&gt;Node11 -->
<g id="edge33" class="edge">
<title>Node19&#45;&gt;Node11</title>
<path fill="none" stroke="midnightblue" d="M863.86,-240.78C853.93,-226.97 833.42,-199.53 813,-179 774.68,-140.48 723.92,-101.73 696.2,-81.45"/>
<polygon fill="midnightblue" stroke="midnightblue" points="698.2,-78.58 688.05,-75.54 694.09,-84.24 698.2,-78.58"/>
</g>
<!-- Node20 -->
<g id="node20" class="node">
<title>Node20</title>
<g id="a_node20"><a xlink:title=" ">
<polygon fill="none" stroke="#bfbfbf" points="898.5,-179.5 898.5,-198.5 943.5,-198.5 943.5,-179.5 898.5,-179.5"/>
<text text-anchor="middle" x="921" y="-186.5" font-family="Helvetica,sans-Serif" font-size="10.00">cstdlib</text>
</a>
</g>
</g>
<!-- Node19&#45;&gt;Node20 -->
<g id="edge28" class="edge">
<title>Node19&#45;&gt;Node20</title>
<path fill="none" stroke="midnightblue" d="M877.31,-240.98C885.03,-231.96 897.41,-217.52 907.02,-206.31"/>
<polygon fill="midnightblue" stroke="midnightblue" points="909.86,-208.38 913.71,-198.51 904.54,-203.82 909.86,-208.38"/>
</g>
<!-- Node22 -->
<g id="node22" class="node">
<title>Node22</title>
<g id="a_node22"><a xlink:href="gu_whiteboard__gugenericwhiteboardobject_8h.html" target="_top" xlink:title=" ">
<polygon fill="none" stroke="black" points="308,-179.5 308,-198.5 512,-198.5 512,-179.5 308,-179.5"/>
<text text-anchor="middle" x="410" y="-186.5" font-family="Helvetica,sans-Serif" font-size="10.00">guWhiteboard_gugenericwhiteboardobject.h</text>
</a>
</g>
</g>
<!-- Node21&#45;&gt;Node22 -->
<g id="edge35" class="edge">
<title>Node21&#45;&gt;Node22</title>
<path fill="none" stroke="midnightblue" d="M476.38,-235.4C462.7,-226.04 444.79,-213.79 431.02,-204.38"/>
<polygon fill="midnightblue" stroke="midnightblue" points="432.89,-201.41 422.66,-198.66 428.94,-207.19 432.89,-201.41"/>
</g>
<!-- Node26 -->
<g id="node26" class="node">
<title>Node26</title>
<g id="a_node26"><a xlink:href="guwhiteboardtypelist__c__generated_8h.html" target="_top" xlink:title=" ">
<polygon fill="none" stroke="black" points="504.5,-112.5 504.5,-142.5 609.5,-142.5 609.5,-112.5 504.5,-112.5"/>
<text text-anchor="start" x="512.5" y="-130.5" font-family="Helvetica,sans-Serif" font-size="10.00">guwhiteboardtypelist</text>
<text text-anchor="middle" x="557" y="-119.5" font-family="Helvetica,sans-Serif" font-size="10.00">_c_generated.h</text>
</a>
</g>
</g>
<!-- Node21&#45;&gt;Node26 -->
<g id="edge44" class="edge">
<title>Node21&#45;&gt;Node26</title>
<path fill="none" stroke="midnightblue" d="M504.12,-235.14C514.31,-214.59 533.19,-176.53 545.41,-151.87"/>
<polygon fill="midnightblue" stroke="midnightblue" points="548.58,-153.35 549.89,-142.84 542.31,-150.24 548.58,-153.35"/>
</g>
<!-- Node23 -->
<g id="node23" class="node">
<title>Node23</title>
<g id="a_node23"><a xlink:href="gugenericwhiteboardobject_8h.html" target="_top" xlink:title=" ">
<polygon fill="none" stroke="black" points="346,-118 346,-137 486,-137 486,-118 346,-118"/>
<text text-anchor="middle" x="416" y="-125" font-family="Helvetica,sans-Serif" font-size="10.00">gugenericwhiteboardobject.h</text>
</a>
</g>
</g>
<!-- Node22&#45;&gt;Node23 -->
<g id="edge36" class="edge">
<title>Node22&#45;&gt;Node23</title>
<path fill="none" stroke="midnightblue" d="M410.86,-179.48C411.71,-171.08 413.03,-157.98 414.12,-147.16"/>
<polygon fill="midnightblue" stroke="midnightblue" points="417.62,-147.31 415.14,-137.01 410.66,-146.61 417.62,-147.31"/>
</g>
<!-- Node23&#45;&gt;Node4 -->
<g id="edge43" class="edge">
<title>Node23&#45;&gt;Node4</title>
<path fill="none" stroke="midnightblue" d="M376.46,-117.98C323.05,-106.46 228.58,-86.1 176.69,-74.91"/>
<polygon fill="midnightblue" stroke="midnightblue" points="177.11,-71.42 166.6,-72.73 175.63,-78.26 177.11,-71.42"/>
</g>
<!-- Node23&#45;&gt;Node6 -->
<g id="edge41" class="edge">
<title>Node23&#45;&gt;Node6</title>
<path fill="none" stroke="midnightblue" d="M459.79,-117.96C471.23,-115.87 483.56,-113.74 495,-112 622.17,-92.72 774.62,-76.57 838.95,-70.07"/>
<polygon fill="midnightblue" stroke="midnightblue" points="839.61,-73.52 849.21,-69.04 838.91,-66.55 839.61,-73.52"/>
</g>
<!-- Node23&#45;&gt;Node7 -->
<g id="edge42" class="edge">
<title>Node23&#45;&gt;Node7</title>
<path fill="none" stroke="midnightblue" d="M401.96,-117.98C385.95,-108.25 359.55,-92.23 340.63,-80.74"/>
<polygon fill="midnightblue" stroke="midnightblue" points="342.38,-77.71 332.01,-75.51 338.75,-83.69 342.38,-77.71"/>
</g>
<!-- Node23&#45;&gt;Node8 -->
<g id="edge40" class="edge">
<title>Node23&#45;&gt;Node8</title>
<path fill="none" stroke="midnightblue" d="M458.1,-117.96C470,-115.77 482.97,-113.59 495,-112 595.39,-98.74 903.88,-76.91 1010.94,-69.53"/>
<polygon fill="midnightblue" stroke="midnightblue" points="1011.22,-73.02 1020.95,-68.84 1010.74,-66.03 1011.22,-73.02"/>
</g>
<!-- Node23&#45;&gt;Node11 -->
<g id="edge37" class="edge">
<title>Node23&#45;&gt;Node11</title>
<path fill="none" stroke="midnightblue" d="M453.25,-117.98C499.49,-107.39 578.4,-89.34 628.82,-77.8"/>
<polygon fill="midnightblue" stroke="midnightblue" points="629.85,-81.15 638.82,-75.51 628.29,-74.33 629.85,-81.15"/>
</g>
<!-- Node24 -->
<g id="node24" class="node">
<title>Node24</title>
<g id="a_node24"><a xlink:title=" ">
<polygon fill="none" stroke="#bfbfbf" points="374.5,-56.5 374.5,-75.5 423.5,-75.5 423.5,-56.5 374.5,-56.5"/>
<text text-anchor="middle" x="399" y="-63.5" font-family="Helvetica,sans-Serif" font-size="10.00">cstddef</text>
</a>
</g>
</g>
<!-- Node23&#45;&gt;Node24 -->
<g id="edge38" class="edge">
<title>Node23&#45;&gt;Node24</title>
<path fill="none" stroke="midnightblue" d="M413.56,-117.98C411.14,-109.49 407.34,-96.2 404.23,-85.32"/>
<polygon fill="midnightblue" stroke="midnightblue" points="407.54,-84.16 401.43,-75.51 400.81,-86.09 407.54,-84.16"/>
</g>
<!-- Node25 -->
<g id="node25" class="node">
<title>Node25</title>
<g id="a_node25"><a xlink:title=" ">
<polygon fill="none" stroke="#bfbfbf" points="441.5,-56.5 441.5,-75.5 490.5,-75.5 490.5,-56.5 441.5,-56.5"/>
<text text-anchor="middle" x="466" y="-63.5" font-family="Helvetica,sans-Serif" font-size="10.00">cassert</text>
</a>
</g>
</g>
<!-- Node23&#45;&gt;Node25 -->
<g id="edge39" class="edge">
<title>Node23&#45;&gt;Node25</title>
<path fill="none" stroke="midnightblue" d="M423.16,-117.98C430.74,-108.96 442.87,-94.52 452.29,-83.31"/>
<polygon fill="midnightblue" stroke="midnightblue" points="455.1,-85.42 458.85,-75.51 449.74,-80.91 455.1,-85.42"/>
</g>
<!-- Node26&#45;&gt;Node11 -->
<g id="edge45" class="edge">
<title>Node26&#45;&gt;Node11</title>
<path fill="none" stroke="midnightblue" d="M585.2,-112.4C604.72,-102.64 630.53,-89.74 649.63,-80.18"/>
<polygon fill="midnightblue" stroke="midnightblue" points="651.31,-83.26 658.68,-75.66 648.17,-77 651.31,-83.26"/>
</g>
<!-- Node27&#45;&gt;Node4 -->
<g id="edge48" class="edge">
<title>Node27&#45;&gt;Node4</title>
<path fill="none" stroke="midnightblue" d="M140,-117.98C140,-109.58 140,-96.48 140,-85.66"/>
<polygon fill="midnightblue" stroke="midnightblue" points="143.5,-85.51 140,-75.51 136.5,-85.51 143.5,-85.51"/>
</g>
</g>
</svg>
