<?xml version="1.0" encoding="UTF-8" standalone="no"?>
<!DOCTYPE svg PUBLIC "-//W3C//DTD SVG 1.1//EN"
 "http://www.w3.org/Graphics/SVG/1.1/DTD/svg11.dtd">
<!-- Generated by graphviz version 2.49.0 (20210830.1337)
 -->
<!-- Title: OLD_WB/RemoteWhiteboard.h Pages: 1 -->
<svg width="1280pt" height="442pt"
 viewBox="0.00 0.00 1279.74 442.00" xmlns="http://www.w3.org/2000/svg" xmlns:xlink="http://www.w3.org/1999/xlink">
<g id="graph0" class="graph" transform="scale(1 1) rotate(0) translate(4 438)">
<title>OLD_WB/RemoteWhiteboard.h</title>
<!-- Node1 -->
<g id="node1" class="node">
<title>Node1</title>
<g id="a_node1"><a xlink:title=" ">
<polygon fill="#bfbfbf" stroke="black" points="898.74,-414.5 898.74,-433.5 1049.74,-433.5 1049.74,-414.5 898.74,-414.5"/>
<text text-anchor="middle" x="974.24" y="-421.5" font-family="Helvetica,sans-Serif" font-size="10.00">OLD_WB/RemoteWhiteboard.h</text>
</a>
</g>
</g>
<!-- Node2 -->
<g id="node2" class="node">
<title>Node2</title>
<g id="a_node2"><a xlink:title=" ">
<polygon fill="none" stroke="#bfbfbf" points="251.74,-56.5 251.74,-75.5 292.74,-75.5 292.74,-56.5 251.74,-56.5"/>
<text text-anchor="middle" x="272.24" y="-63.5" font-family="Helvetica,sans-Serif" font-size="10.00">string</text>
</a>
</g>
</g>
<!-- Node1&#45;&gt;Node2 -->
<g id="edge1" class="edge">
<title>Node1&#45;&gt;Node2</title>
<path fill="none" stroke="midnightblue" d="M898.58,-420.17C703.07,-411.84 196.24,-383.47 196.24,-313 196.24,-313 196.24,-313 196.24,-188 196.24,-144.48 231.94,-103.77 254.4,-82.47"/>
<polygon fill="midnightblue" stroke="midnightblue" points="256.97,-84.86 261.99,-75.53 252.25,-79.7 256.97,-84.86"/>
</g>
<!-- Node3 -->
<g id="node3" class="node">
<title>Node3</title>
<g id="a_node3"><a xlink:title=" ">
<polygon fill="none" stroke="#bfbfbf" points="1012.24,-56.5 1012.24,-75.5 1056.24,-75.5 1056.24,-56.5 1012.24,-56.5"/>
<text text-anchor="middle" x="1034.24" y="-63.5" font-family="Helvetica,sans-Serif" font-size="10.00">vector</text>
</a>
</g>
</g>
<!-- Node1&#45;&gt;Node3 -->
<g id="edge2" class="edge">
<title>Node1&#45;&gt;Node3</title>
<path fill="none" stroke="midnightblue" d="M1017.87,-414.46C1040.85,-407.95 1067.98,-396.78 1086.24,-378 1107.7,-355.92 1110.24,-343.8 1110.24,-313 1110.24,-313 1110.24,-313 1110.24,-188 1110.24,-144.48 1074.54,-103.77 1052.08,-82.47"/>
<polygon fill="midnightblue" stroke="midnightblue" points="1054.23,-79.7 1044.49,-75.53 1049.51,-84.86 1054.23,-79.7"/>
</g>
<!-- Node4 -->
<g id="node4" class="node">
<title>Node4</title>
<g id="a_node4"><a xlink:title=" ">
<polygon fill="none" stroke="#bfbfbf" points="873.24,-56.5 873.24,-75.5 927.24,-75.5 927.24,-56.5 873.24,-56.5"/>
<text text-anchor="middle" x="900.24" y="-63.5" font-family="Helvetica,sans-Serif" font-size="10.00">iostream</text>
</a>
</g>
</g>
<!-- Node1&#45;&gt;Node4 -->
<g id="edge3" class="edge">
<title>Node1&#45;&gt;Node4</title>
<path fill="none" stroke="midnightblue" d="M996.09,-414.45C1012.48,-407.03 1034.38,-394.83 1048.24,-378 1067.82,-354.23 1072.24,-343.8 1072.24,-313 1072.24,-313 1072.24,-313 1072.24,-249.5 1072.24,-166.23 976.24,-105.52 927.68,-80.14"/>
<polygon fill="midnightblue" stroke="midnightblue" points="929.15,-76.96 918.65,-75.54 925.97,-83.19 929.15,-76.96"/>
</g>
<!-- Node5 -->
<g id="node5" class="node">
<title>Node5</title>
<g id="a_node5"><a xlink:title=" ">
<polygon fill="none" stroke="#bfbfbf" points="916.24,-179.5 916.24,-198.5 968.24,-198.5 968.24,-179.5 916.24,-179.5"/>
<text text-anchor="middle" x="942.24" y="-186.5" font-family="Helvetica,sans-Serif" font-size="10.00">sstream</text>
</a>
</g>
</g>
<!-- Node1&#45;&gt;Node5 -->
<g id="edge4" class="edge">
<title>Node1&#45;&gt;Node5</title>
<path fill="none" stroke="midnightblue" d="M975.48,-414.43C978.13,-394.53 983.61,-343.75 977.24,-302 972.01,-267.73 958.27,-229.54 949.64,-207.78"/>
<polygon fill="midnightblue" stroke="midnightblue" points="952.88,-206.45 945.88,-198.5 946.4,-209.08 952.88,-206.45"/>
</g>
<!-- Node6 -->
<g id="node6" class="node">
<title>Node6</title>
<g id="a_node6"><a xlink:title=" ">
<polygon fill="none" stroke="#bfbfbf" points="1138.74,-358.5 1138.74,-377.5 1271.74,-377.5 1271.74,-358.5 1138.74,-358.5"/>
<text text-anchor="middle" x="1205.24" y="-365.5" font-family="Helvetica,sans-Serif" font-size="10.00">guudpbridge/guudpConfig.h</text>
</a>
</g>
</g>
<!-- Node1&#45;&gt;Node6 -->
<g id="edge5" class="edge">
<title>Node1&#45;&gt;Node6</title>
<path fill="none" stroke="midnightblue" d="M1010.84,-414.44C1050.97,-405.06 1115.44,-389.99 1159.02,-379.8"/>
<polygon fill="midnightblue" stroke="midnightblue" points="1159.87,-383.2 1168.81,-377.52 1158.27,-376.38 1159.87,-383.2"/>
</g>
<!-- Node7 -->
<g id="node7" class="node">
<title>Node7</title>
<g id="a_node7"><a xlink:href="gusimplewhiteboard_8h.html" target="_top" xlink:title=" ">
<polygon fill="none" stroke="black" points="719.24,-56.5 719.24,-75.5 829.24,-75.5 829.24,-56.5 719.24,-56.5"/>
<text text-anchor="middle" x="774.24" y="-63.5" font-family="Helvetica,sans-Serif" font-size="10.00">gusimplewhiteboard.h</text>
</a>
</g>
</g>
<!-- Node1&#45;&gt;Node7 -->
<g id="edge6" class="edge">
<title>Node1&#45;&gt;Node7</title>
<path fill="none" stroke="midnightblue" d="M979.12,-414.37C983.8,-405.55 990.55,-391.3 993.24,-378 1010.85,-291.03 1026.9,-252.53 977.24,-179 940.01,-123.88 866.26,-93.25 818.65,-78.47"/>
<polygon fill="midnightblue" stroke="midnightblue" points="819.5,-75.06 808.91,-75.55 817.49,-81.77 819.5,-75.06"/>
</g>
<!-- Node12 -->
<g id="node12" class="node">
<title>Node12</title>
<g id="a_node12"><a xlink:href="_whiteboard_constants_8h.html" target="_top" xlink:title=" ">
<polygon fill="none" stroke="black" points="850.74,-302.5 850.74,-321.5 967.74,-321.5 967.74,-302.5 850.74,-302.5"/>
<text text-anchor="middle" x="909.24" y="-309.5" font-family="Helvetica,sans-Serif" font-size="10.00">WhiteboardConstants.h</text>
</a>
</g>
</g>
<!-- Node1&#45;&gt;Node12 -->
<g id="edge11" class="edge">
<title>Node1&#45;&gt;Node12</title>
<path fill="none" stroke="midnightblue" d="M969.14,-414.37C958.46,-396.3 933.57,-354.18 919.47,-330.31"/>
<polygon fill="midnightblue" stroke="midnightblue" points="922.42,-328.42 914.32,-321.59 916.39,-331.98 922.42,-328.42"/>
</g>
<!-- Node13 -->
<g id="node13" class="node">
<title>Node13</title>
<g id="a_node13"><a xlink:href="_whiteboard_8h.html" target="_top" xlink:title=" ">
<polygon fill="none" stroke="black" points="690.74,-358.5 690.74,-377.5 763.74,-377.5 763.74,-358.5 690.74,-358.5"/>
<text text-anchor="middle" x="727.24" y="-365.5" font-family="Helvetica,sans-Serif" font-size="10.00">Whiteboard.h</text>
</a>
</g>
</g>
<!-- Node1&#45;&gt;Node13 -->
<g id="edge12" class="edge">
<title>Node1&#45;&gt;Node13</title>
<path fill="none" stroke="midnightblue" d="M935.1,-414.44C891.25,-404.86 820.23,-389.33 773.62,-379.14"/>
<polygon fill="midnightblue" stroke="midnightblue" points="774.3,-375.7 763.78,-376.99 772.8,-382.54 774.3,-375.7"/>
</g>
<!-- Node15 -->
<g id="node15" class="node">
<title>Node15</title>
<g id="a_node15"><a xlink:href="_w_b_functor_8h.html" target="_top" xlink:title=" ">
<polygon fill="none" stroke="black" points="262.74,-302.5 262.74,-321.5 335.74,-321.5 335.74,-302.5 262.74,-302.5"/>
<text text-anchor="middle" x="299.24" y="-309.5" font-family="Helvetica,sans-Serif" font-size="10.00">WBFunctor.h</text>
</a>
</g>
</g>
<!-- Node1&#45;&gt;Node15 -->
<g id="edge46" class="edge">
<title>Node1&#45;&gt;Node15</title>
<path fill="none" stroke="midnightblue" d="M898.65,-415.11C826.42,-407.19 714.59,-393.88 618.24,-378 520.77,-361.93 407.71,-337.51 345.77,-323.63"/>
<polygon fill="midnightblue" stroke="midnightblue" points="346.44,-320.19 335.91,-321.41 344.9,-327.02 346.44,-320.19"/>
</g>
<!-- Node16 -->
<g id="node16" class="node">
<title>Node16</title>
<g id="a_node16"><a xlink:href="_w_b_msg_8h.html" target="_top" xlink:title=" ">
<polygon fill="none" stroke="black" points="640.74,-241 640.74,-260 699.74,-260 699.74,-241 640.74,-241"/>
<text text-anchor="middle" x="670.24" y="-248" font-family="Helvetica,sans-Serif" font-size="10.00">WBMsg.h</text>
</a>
</g>
</g>
<!-- Node1&#45;&gt;Node16 -->
<g id="edge47" class="edge">
<title>Node1&#45;&gt;Node16</title>
<path fill="none" stroke="midnightblue" d="M898.74,-421.66C821.88,-418.58 710.04,-408.76 681.24,-378 653.96,-348.87 659.76,-297.67 665.5,-270.19"/>
<polygon fill="midnightblue" stroke="midnightblue" points="668.94,-270.83 667.78,-260.3 662.12,-269.26 668.94,-270.83"/>
</g>
<!-- Node8 -->
<g id="node8" class="node">
<title>Node8</title>
<g id="a_node8"><a xlink:title=" ">
<polygon fill="none" stroke="#bfbfbf" points="996.74,-0.5 996.74,-19.5 1097.74,-19.5 1097.74,-0.5 996.74,-0.5"/>
<text text-anchor="middle" x="1047.24" y="-7.5" font-family="Helvetica,sans-Serif" font-size="10.00">dispatch/dispatch.h</text>
</a>
</g>
</g>
<!-- Node7&#45;&gt;Node8 -->
<g id="edge7" class="edge">
<title>Node7&#45;&gt;Node8</title>
<path fill="none" stroke="midnightblue" d="M817.5,-56.44C865.42,-46.96 942.72,-31.67 994.24,-21.48"/>
<polygon fill="midnightblue" stroke="midnightblue" points="995.05,-24.89 1004.18,-19.52 993.7,-18.02 995.05,-24.89"/>
</g>
<!-- Node9 -->
<g id="node9" class="node">
<title>Node9</title>
<g id="a_node9"><a xlink:title=" ">
<polygon fill="none" stroke="#bfbfbf" points="741.74,-0.5 741.74,-19.5 806.74,-19.5 806.74,-0.5 741.74,-0.5"/>
<text text-anchor="middle" x="774.24" y="-7.5" font-family="Helvetica,sans-Serif" font-size="10.00">sys/types.h</text>
</a>
</g>
</g>
<!-- Node7&#45;&gt;Node9 -->
<g id="edge8" class="edge">
<title>Node7&#45;&gt;Node9</title>
<path fill="none" stroke="midnightblue" d="M774.24,-56.08C774.24,-49.01 774.24,-38.86 774.24,-29.99"/>
<polygon fill="midnightblue" stroke="midnightblue" points="777.74,-29.75 774.24,-19.75 770.74,-29.75 777.74,-29.75"/>
</g>
<!-- Node10 -->
<g id="node10" class="node">
<title>Node10</title>
<g id="a_node10"><a xlink:title=" ">
<polygon fill="none" stroke="#bfbfbf" points="824.74,-0.5 824.74,-19.5 877.74,-19.5 877.74,-0.5 824.74,-0.5"/>
<text text-anchor="middle" x="851.24" y="-7.5" font-family="Helvetica,sans-Serif" font-size="10.00">cstdbool</text>
</a>
</g>
</g>
<!-- Node7&#45;&gt;Node10 -->
<g id="edge9" class="edge">
<title>Node7&#45;&gt;Node10</title>
<path fill="none" stroke="midnightblue" d="M786.61,-56.32C798.4,-48.06 816.37,-35.45 830.38,-25.63"/>
<polygon fill="midnightblue" stroke="midnightblue" points="832.72,-28.26 838.9,-19.65 828.7,-22.53 832.72,-28.26"/>
</g>
<!-- Node11 -->
<g id="node11" class="node">
<title>Node11</title>
<g id="a_node11"><a xlink:title=" ">
<polygon fill="none" stroke="#bfbfbf" points="673.24,-0.5 673.24,-19.5 723.24,-19.5 723.24,-0.5 673.24,-0.5"/>
<text text-anchor="middle" x="698.24" y="-7.5" font-family="Helvetica,sans-Serif" font-size="10.00">unistd.h</text>
</a>
</g>
</g>
<!-- Node7&#45;&gt;Node11 -->
<g id="edge10" class="edge">
<title>Node7&#45;&gt;Node11</title>
<path fill="none" stroke="midnightblue" d="M762.03,-56.32C750.46,-48.11 732.86,-35.6 719.08,-25.81"/>
<polygon fill="midnightblue" stroke="midnightblue" points="720.85,-22.77 710.67,-19.83 716.8,-28.48 720.85,-22.77"/>
</g>
<!-- Node13&#45;&gt;Node2 -->
<g id="edge14" class="edge">
<title>Node13&#45;&gt;Node2</title>
<path fill="none" stroke="midnightblue" d="M690.71,-362.55C624.44,-353.2 481.7,-327.11 378.24,-266 319.46,-231.28 306.48,-208.2 286.24,-143 280.29,-123.82 276.51,-101.09 274.4,-85.52"/>
<polygon fill="midnightblue" stroke="midnightblue" points="277.87,-85.08 273.15,-75.59 270.92,-85.95 277.87,-85.08"/>
</g>
<!-- Node13&#45;&gt;Node3 -->
<g id="edge15" class="edge">
<title>Node13&#45;&gt;Node3</title>
<path fill="none" stroke="midnightblue" d="M737.39,-358.14C752.42,-345.2 781.67,-320.64 808.24,-302 880.25,-251.48 919.53,-265.39 977.24,-199 1006.89,-164.89 1023.11,-113 1030.07,-85.55"/>
<polygon fill="midnightblue" stroke="midnightblue" points="1033.5,-86.24 1032.43,-75.7 1026.69,-84.61 1033.5,-86.24"/>
</g>
<!-- Node13&#45;&gt;Node4 -->
<g id="edge16" class="edge">
<title>Node13&#45;&gt;Node4</title>
<path fill="none" stroke="midnightblue" d="M733.16,-358.26C753.05,-328.72 818.86,-229.56 865.24,-143 875.61,-123.65 885.93,-100.66 892.65,-85.07"/>
<polygon fill="midnightblue" stroke="midnightblue" points="895.99,-86.17 896.68,-75.6 889.55,-83.43 895.99,-86.17"/>
</g>
<!-- Node13&#45;&gt;Node7 -->
<g id="edge18" class="edge">
<title>Node13&#45;&gt;Node7</title>
<path fill="none" stroke="midnightblue" d="M727.06,-358.46C726.99,-345.91 727.56,-321.83 732.24,-302 749.53,-228.79 779.81,-217.49 790.24,-143 792.15,-129.36 792.58,-125.58 790.24,-112 788.67,-102.91 785.44,-93.22 782.3,-85.17"/>
<polygon fill="midnightblue" stroke="midnightblue" points="785.43,-83.6 778.35,-75.72 778.97,-86.3 785.43,-83.6"/>
</g>
<!-- Node13&#45;&gt;Node8 -->
<g id="edge13" class="edge">
<title>Node13&#45;&gt;Node8</title>
<path fill="none" stroke="midnightblue" d="M743.17,-358.38C759.58,-349.45 785.84,-335 808.24,-322 823.07,-313.39 825.78,-309.42 841.24,-302 972.19,-239.17 1148.24,-335.24 1148.24,-190 1148.24,-190 1148.24,-190 1148.24,-126.5 1148.24,-80.39 1102.06,-43.83 1072.16,-24.99"/>
<polygon fill="midnightblue" stroke="midnightblue" points="1073.83,-21.91 1063.47,-19.72 1070.2,-27.9 1073.83,-21.91"/>
</g>
<!-- Node13&#45;&gt;Node12 -->
<g id="edge19" class="edge">
<title>Node13&#45;&gt;Node12</title>
<path fill="none" stroke="midnightblue" d="M756.08,-358.44C787.1,-349.24 836.57,-334.56 870.86,-324.39"/>
<polygon fill="midnightblue" stroke="midnightblue" points="871.94,-327.72 880.54,-321.52 869.95,-321.01 871.94,-327.72"/>
</g>
<!-- Node14 -->
<g id="node14" class="node">
<title>Node14</title>
<g id="a_node14"><a xlink:title=" ">
<polygon fill="none" stroke="#bfbfbf" points="16.74,-56.5 16.74,-75.5 69.74,-75.5 69.74,-56.5 16.74,-56.5"/>
<text text-anchor="middle" x="43.24" y="-63.5" font-family="Helvetica,sans-Serif" font-size="10.00">gu_util.h</text>
</a>
</g>
</g>
<!-- Node13&#45;&gt;Node14 -->
<g id="edge17" class="edge">
<title>Node13&#45;&gt;Node14</title>
<path fill="none" stroke="midnightblue" d="M690.47,-366.67C610.13,-365.26 413.31,-358.08 253.24,-322 182.19,-305.98 160.81,-304.89 99.24,-266 40.61,-228.97 19.17,-210.49 3.24,-143 0.07,-129.59 -1.66,-124.88 3.24,-112 7.57,-100.6 16.27,-90.24 24.45,-82.34"/>
<polygon fill="midnightblue" stroke="midnightblue" points="26.88,-84.86 31.97,-75.57 22.2,-79.66 26.88,-84.86"/>
</g>
<!-- Node13&#45;&gt;Node15 -->
<g id="edge20" class="edge">
<title>Node13&#45;&gt;Node15</title>
<path fill="none" stroke="midnightblue" d="M690.49,-363.3C622.96,-356.36 474.62,-340.38 350.24,-322 348.79,-321.79 347.33,-321.56 345.85,-321.33"/>
<polygon fill="midnightblue" stroke="midnightblue" points="346.4,-317.88 335.97,-319.73 345.28,-324.79 346.4,-317.88"/>
</g>
<!-- Node13&#45;&gt;Node16 -->
<g id="edge45" class="edge">
<title>Node13&#45;&gt;Node16</title>
<path fill="none" stroke="midnightblue" d="M719.54,-358.23C712.23,-349.53 701.31,-335.57 694.24,-322 685.48,-305.19 678.88,-284.51 674.84,-269.9"/>
<polygon fill="midnightblue" stroke="midnightblue" points="678.19,-268.87 672.26,-260.09 671.42,-270.65 678.19,-268.87"/>
</g>
<!-- Node15&#45;&gt;Node2 -->
<g id="edge21" class="edge">
<title>Node15&#45;&gt;Node2</title>
<path fill="none" stroke="midnightblue" d="M294.84,-302.3C285.8,-283.84 265.36,-239.17 258.24,-199 251.49,-160.93 252.43,-150.23 258.24,-112 259.61,-103 262.43,-93.33 265.18,-85.26"/>
<polygon fill="midnightblue" stroke="midnightblue" points="268.5,-86.37 268.64,-75.78 261.93,-83.98 268.5,-86.37"/>
</g>
<!-- Node15&#45;&gt;Node7 -->
<g id="edge42" class="edge">
<title>Node15&#45;&gt;Node7</title>
<path fill="none" stroke="midnightblue" d="M336.06,-307.38C377.68,-302.26 446.73,-290.64 501.24,-266 529.46,-253.24 696.93,-126.09 754.68,-81.98"/>
<polygon fill="midnightblue" stroke="midnightblue" points="757.15,-84.5 762.97,-75.64 752.9,-78.93 757.15,-84.5"/>
</g>
<!-- Node15&#45;&gt;Node14 -->
<g id="edge22" class="edge">
<title>Node15&#45;&gt;Node14</title>
<path fill="none" stroke="midnightblue" d="M262.66,-303.05C196.99,-286.51 61.2,-241.44 10.24,-143 -0.14,-122.95 14.61,-98.92 27.58,-83.33"/>
<polygon fill="midnightblue" stroke="midnightblue" points="30.41,-85.41 34.43,-75.61 25.17,-80.77 30.41,-85.41"/>
</g>
<!-- Node15&#45;&gt;Node16 -->
<g id="edge23" class="edge">
<title>Node15&#45;&gt;Node16</title>
<path fill="none" stroke="midnightblue" d="M335.9,-307.76C396.14,-302.02 519.65,-288.5 622.24,-266 626.35,-265.1 630.63,-264.02 634.85,-262.86"/>
<polygon fill="midnightblue" stroke="midnightblue" points="635.89,-266.21 644.53,-260.07 633.95,-259.48 635.89,-266.21"/>
</g>
<!-- Node19 -->
<g id="node19" class="node">
<title>Node19</title>
<g id="a_node19"><a xlink:href="guwhiteboardtypelist__generated_8h.html" target="_top" xlink:title=" ">
<polygon fill="none" stroke="black" points="387.74,-235.5 387.74,-265.5 492.74,-265.5 492.74,-235.5 387.74,-235.5"/>
<text text-anchor="start" x="395.74" y="-253.5" font-family="Helvetica,sans-Serif" font-size="10.00">guwhiteboardtypelist</text>
<text text-anchor="middle" x="440.24" y="-242.5" font-family="Helvetica,sans-Serif" font-size="10.00">_generated.h</text>
</a>
</g>
</g>
<!-- Node15&#45;&gt;Node19 -->
<g id="edge30" class="edge">
<title>Node15&#45;&gt;Node19</title>
<path fill="none" stroke="midnightblue" d="M319.44,-302.48C339.79,-293.89 371.79,-280.38 397.75,-269.43"/>
<polygon fill="midnightblue" stroke="midnightblue" points="399.16,-272.64 407.01,-265.52 396.43,-266.19 399.16,-272.64"/>
</g>
<!-- Node25 -->
<g id="node25" class="node">
<title>Node25</title>
<g id="a_node25"><a xlink:href="_w_b_functor__types__generated_8h.html" target="_top" xlink:title=" ">
<polygon fill="none" stroke="black" points="19.74,-118 19.74,-137 168.74,-137 168.74,-118 19.74,-118"/>
<text text-anchor="middle" x="94.24" y="-125" font-family="Helvetica,sans-Serif" font-size="10.00">WBFunctor_types_generated.h</text>
</a>
</g>
</g>
<!-- Node15&#45;&gt;Node25 -->
<g id="edge43" class="edge">
<title>Node15&#45;&gt;Node25</title>
<path fill="none" stroke="midnightblue" d="M280.66,-302.48C263.97,-294.36 239.24,-281.16 220.24,-266 173.17,-228.45 127.99,-172.89 106.8,-145.31"/>
<polygon fill="midnightblue" stroke="midnightblue" points="109.4,-142.94 100.56,-137.09 103.82,-147.17 109.4,-142.94"/>
</g>
<!-- Node16&#45;&gt;Node2 -->
<g id="edge26" class="edge">
<title>Node16&#45;&gt;Node2</title>
<path fill="none" stroke="midnightblue" d="M640.53,-246.76C562.1,-239.29 353.83,-217.89 329.24,-199 310.3,-184.45 287.82,-117.89 277.68,-85.21"/>
<polygon fill="midnightblue" stroke="midnightblue" points="281,-84.1 274.74,-75.55 274.31,-86.14 281,-84.1"/>
</g>
<!-- Node16&#45;&gt;Node4 -->
<g id="edge27" class="edge">
<title>Node16&#45;&gt;Node4</title>
<path fill="none" stroke="midnightblue" d="M693.87,-240.85C715.86,-232.17 748.95,-217.46 774.24,-199 821.61,-164.44 866.34,-110.86 887.49,-83.82"/>
<polygon fill="midnightblue" stroke="midnightblue" points="890.39,-85.79 893.73,-75.74 884.85,-81.52 890.39,-85.79"/>
</g>
<!-- Node16&#45;&gt;Node5 -->
<g id="edge28" class="edge">
<title>Node16&#45;&gt;Node5</title>
<path fill="none" stroke="midnightblue" d="M699.87,-243.02C750.05,-232.04 851.63,-209.82 905.98,-197.93"/>
<polygon fill="midnightblue" stroke="midnightblue" points="906.86,-201.32 915.88,-195.77 905.36,-194.48 906.86,-201.32"/>
</g>
<!-- Node16&#45;&gt;Node7 -->
<g id="edge29" class="edge">
<title>Node16&#45;&gt;Node7</title>
<path fill="none" stroke="midnightblue" d="M696.53,-240.92C715.98,-233.15 741.42,-219.7 755.24,-199 778.42,-164.3 778.38,-113.02 776.32,-85.72"/>
<polygon fill="midnightblue" stroke="midnightblue" points="779.79,-85.23 775.38,-75.6 772.82,-85.88 779.79,-85.23"/>
</g>
<!-- Node17 -->
<g id="node17" class="node">
<title>Node17</title>
<g id="a_node17"><a xlink:title=" ">
<polygon fill="none" stroke="#bfbfbf" points="636.74,-179.5 636.74,-198.5 681.74,-198.5 681.74,-179.5 636.74,-179.5"/>
<text text-anchor="middle" x="659.24" y="-186.5" font-family="Helvetica,sans-Serif" font-size="10.00">cstdlib</text>
</a>
</g>
</g>
<!-- Node16&#45;&gt;Node17 -->
<g id="edge24" class="edge">
<title>Node16&#45;&gt;Node17</title>
<path fill="none" stroke="midnightblue" d="M668.66,-240.98C667.11,-232.58 664.69,-219.48 662.69,-208.66"/>
<polygon fill="midnightblue" stroke="midnightblue" points="666.07,-207.71 660.81,-198.51 659.19,-208.98 666.07,-207.71"/>
</g>
<!-- Node18 -->
<g id="node18" class="node">
<title>Node18</title>
<g id="a_node18"><a xlink:title=" ">
<polygon fill="none" stroke="#bfbfbf" points="700.24,-179.5 700.24,-198.5 746.24,-198.5 746.24,-179.5 700.24,-179.5"/>
<text text-anchor="middle" x="723.24" y="-186.5" font-family="Helvetica,sans-Serif" font-size="10.00">cstring</text>
</a>
</g>
</g>
<!-- Node16&#45;&gt;Node18 -->
<g id="edge25" class="edge">
<title>Node16&#45;&gt;Node18</title>
<path fill="none" stroke="midnightblue" d="M677.83,-240.98C685.94,-231.87 698.97,-217.24 709,-205.98"/>
<polygon fill="midnightblue" stroke="midnightblue" points="711.62,-208.3 715.66,-198.51 706.4,-203.65 711.62,-208.3"/>
</g>
<!-- Node20 -->
<g id="node20" class="node">
<title>Node20</title>
<g id="a_node20"><a xlink:href="gu_whiteboard__gugenericwhiteboardobject_8h.html" target="_top" xlink:title=" ">
<polygon fill="none" stroke="black" points="338.24,-179.5 338.24,-198.5 542.24,-198.5 542.24,-179.5 338.24,-179.5"/>
<text text-anchor="middle" x="440.24" y="-186.5" font-family="Helvetica,sans-Serif" font-size="10.00">guWhiteboard_gugenericwhiteboardobject.h</text>
</a>
</g>
</g>
<!-- Node19&#45;&gt;Node20 -->
<g id="edge31" class="edge">
<title>Node19&#45;&gt;Node20</title>
<path fill="none" stroke="midnightblue" d="M440.24,-235.4C440.24,-227.47 440.24,-217.46 440.24,-208.86"/>
<polygon fill="midnightblue" stroke="midnightblue" points="443.74,-208.66 440.24,-198.66 436.74,-208.66 443.74,-208.66"/>
</g>
<!-- Node24 -->
<g id="node24" class="node">
<title>Node24</title>
<g id="a_node24"><a xlink:href="guwhiteboardtypelist__c__generated_8h.html" target="_top" xlink:title=" ">
<polygon fill="none" stroke="black" points="517.74,-112.5 517.74,-142.5 622.74,-142.5 622.74,-112.5 517.74,-112.5"/>
<text text-anchor="start" x="525.74" y="-130.5" font-family="Helvetica,sans-Serif" font-size="10.00">guwhiteboardtypelist</text>
<text text-anchor="middle" x="570.24" y="-119.5" font-family="Helvetica,sans-Serif" font-size="10.00">_c_generated.h</text>
</a>
</g>
</g>
<!-- Node19&#45;&gt;Node24 -->
<g id="edge40" class="edge">
<title>Node19&#45;&gt;Node24</title>
<path fill="none" stroke="midnightblue" d="M492.95,-236.18C513.77,-228.47 536.24,-216.68 551.24,-199 562.19,-186.09 566.89,-167.46 568.88,-152.59"/>
<polygon fill="midnightblue" stroke="midnightblue" points="572.37,-152.87 569.89,-142.56 565.4,-152.16 572.37,-152.87"/>
</g>
<!-- Node21 -->
<g id="node21" class="node">
<title>Node21</title>
<g id="a_node21"><a xlink:href="gugenericwhiteboardobject_8h.html" target="_top" xlink:title=" ">
<polygon fill="none" stroke="black" points="359.24,-118 359.24,-137 499.24,-137 499.24,-118 359.24,-118"/>
<text text-anchor="middle" x="429.24" y="-125" font-family="Helvetica,sans-Serif" font-size="10.00">gugenericwhiteboardobject.h</text>
</a>
</g>
</g>
<!-- Node20&#45;&gt;Node21 -->
<g id="edge32" class="edge">
<title>Node20&#45;&gt;Node21</title>
<path fill="none" stroke="midnightblue" d="M438.66,-179.48C437.11,-171.08 434.69,-157.98 432.69,-147.16"/>
<polygon fill="midnightblue" stroke="midnightblue" points="436.07,-146.21 430.81,-137.01 429.19,-147.48 436.07,-146.21"/>
</g>
<!-- Node21&#45;&gt;Node2 -->
<g id="edge37" class="edge">
<title>Node21&#45;&gt;Node2</title>
<path fill="none" stroke="midnightblue" d="M406.75,-117.98C379.47,-107.64 333.38,-90.17 302.88,-78.61"/>
<polygon fill="midnightblue" stroke="midnightblue" points="303.78,-75.21 293.19,-74.94 301.3,-81.76 303.78,-75.21"/>
</g>
<!-- Node21&#45;&gt;Node3 -->
<g id="edge38" class="edge">
<title>Node21&#45;&gt;Node3</title>
<path fill="none" stroke="midnightblue" d="M471.35,-117.98C483.24,-115.79 496.21,-113.61 508.24,-112 697.45,-86.74 746.08,-92.73 936.24,-76 958.21,-74.07 982.94,-71.8 1002.07,-70.02"/>
<polygon fill="midnightblue" stroke="midnightblue" points="1002.43,-73.5 1012.06,-69.09 1001.78,-66.53 1002.43,-73.5"/>
</g>
<!-- Node21&#45;&gt;Node4 -->
<g id="edge36" class="edge">
<title>Node21&#45;&gt;Node4</title>
<path fill="none" stroke="midnightblue" d="M472.61,-117.95C484.16,-115.84 496.65,-113.69 508.24,-112 654.23,-90.67 691.88,-94.6 838.24,-76 846.28,-74.98 854.9,-73.79 863.07,-72.62"/>
<polygon fill="midnightblue" stroke="midnightblue" points="863.72,-76.06 873.11,-71.15 862.71,-69.13 863.72,-76.06"/>
</g>
<!-- Node21&#45;&gt;Node7 -->
<g id="edge33" class="edge">
<title>Node21&#45;&gt;Node7</title>
<path fill="none" stroke="midnightblue" d="M475.17,-117.96C486.01,-115.97 497.53,-113.89 508.24,-112 578,-99.7 658.19,-86.22 712.12,-77.26"/>
<polygon fill="midnightblue" stroke="midnightblue" points="712.92,-80.67 722.21,-75.58 711.77,-73.77 712.92,-80.67"/>
</g>
<!-- Node21&#45;&gt;Node14 -->
<g id="edge39" class="edge">
<title>Node21&#45;&gt;Node14</title>
<path fill="none" stroke="midnightblue" d="M373.94,-117.98C293.99,-105.65 148.29,-83.19 80.18,-72.69"/>
<polygon fill="midnightblue" stroke="midnightblue" points="80.35,-69.18 69.93,-71.11 79.28,-76.1 80.35,-69.18"/>
</g>
<!-- Node22 -->
<g id="node22" class="node">
<title>Node22</title>
<g id="a_node22"><a xlink:title=" ">
<polygon fill="none" stroke="#bfbfbf" points="437.74,-56.5 437.74,-75.5 486.74,-75.5 486.74,-56.5 437.74,-56.5"/>
<text text-anchor="middle" x="462.24" y="-63.5" font-family="Helvetica,sans-Serif" font-size="10.00">cstddef</text>
</a>
</g>
</g>
<!-- Node21&#45;&gt;Node22 -->
<g id="edge34" class="edge">
<title>Node21&#45;&gt;Node22</title>
<path fill="none" stroke="midnightblue" d="M433.97,-117.98C438.82,-109.23 446.51,-95.37 452.64,-84.31"/>
<polygon fill="midnightblue" stroke="midnightblue" points="455.73,-85.95 457.52,-75.51 449.61,-82.56 455.73,-85.95"/>
</g>
<!-- Node23 -->
<g id="node23" class="node">
<title>Node23</title>
<g id="a_node23"><a xlink:title=" ">
<polygon fill="none" stroke="#bfbfbf" points="370.74,-56.5 370.74,-75.5 419.74,-75.5 419.74,-56.5 370.74,-56.5"/>
<text text-anchor="middle" x="395.24" y="-63.5" font-family="Helvetica,sans-Serif" font-size="10.00">cassert</text>
</a>
</g>
</g>
<!-- Node21&#45;&gt;Node23 -->
<g id="edge35" class="edge">
<title>Node21&#45;&gt;Node23</title>
<path fill="none" stroke="midnightblue" d="M424.37,-117.98C419.37,-109.23 411.45,-95.37 405.13,-84.31"/>
<polygon fill="midnightblue" stroke="midnightblue" points="408.1,-82.46 400.1,-75.51 402.02,-85.93 408.1,-82.46"/>
</g>
<!-- Node24&#45;&gt;Node7 -->
<g id="edge41" class="edge">
<title>Node24&#45;&gt;Node7</title>
<path fill="none" stroke="midnightblue" d="M618.33,-112.47C653.98,-102.08 701.97,-88.08 735.25,-78.37"/>
<polygon fill="midnightblue" stroke="midnightblue" points="736.45,-81.67 745.07,-75.51 734.49,-74.95 736.45,-81.67"/>
</g>
<!-- Node25&#45;&gt;Node14 -->
<g id="edge44" class="edge">
<title>Node25&#45;&gt;Node14</title>
<path fill="none" stroke="midnightblue" d="M86.93,-117.98C79.21,-108.96 66.83,-94.52 57.22,-83.31"/>
<polygon fill="midnightblue" stroke="midnightblue" points="59.7,-80.82 50.53,-75.51 54.38,-85.38 59.7,-80.82"/>
</g>
</g>
</svg>
