<?xml version="1.0" encoding="UTF-8" standalone="no"?>
<!DOCTYPE svg PUBLIC "-//W3C//DTD SVG 1.1//EN"
 "http://www.w3.org/Graphics/SVG/1.1/DTD/svg11.dtd">
<!-- Generated by graphviz version 2.49.0 (20210830.1337)
 -->
<!-- Title: typeClassDefs/SENSORSArmJointSensors.h Pages: 1 -->
<svg width="458pt" height="207pt"
 viewBox="0.00 0.00 457.50 207.00" xmlns="http://www.w3.org/2000/svg" xmlns:xlink="http://www.w3.org/1999/xlink">
<g id="graph0" class="graph" transform="scale(1 1) rotate(0) translate(4 203)">
<title>typeClassDefs/SENSORSArmJointSensors.h</title>
<!-- Node1 -->
<g id="node1" class="node">
<title>Node1</title>
<g id="a_node1"><a xlink:title=" ">
<polygon fill="#bfbfbf" stroke="black" points="108,-168.5 108,-198.5 257,-198.5 257,-168.5 108,-168.5"/>
<text text-anchor="start" x="116" y="-186.5" font-family="Helvetica,sans-Serif" font-size="10.00">typeClassDefs/SENSORSArm</text>
<text text-anchor="middle" x="182.5" y="-175.5" font-family="Helvetica,sans-Serif" font-size="10.00">JointSensors.h</text>
</a>
</g>
</g>
<!-- Node2 -->
<g id="node2" class="node">
<title>Node2</title>
<g id="a_node2"><a xlink:href="_s_e_n_s_o_r_s_arm_joint_sensors_8hpp.html" target="_top" xlink:title=" ">
<polygon fill="none" stroke="black" points="103.5,-112.5 103.5,-131.5 261.5,-131.5 261.5,-112.5 103.5,-112.5"/>
<text text-anchor="middle" x="182.5" y="-119.5" font-family="Helvetica,sans-Serif" font-size="10.00">SENSORSArmJointSensors.hpp</text>
</a>
</g>
</g>
<!-- Node1&#45;&gt;Node2 -->
<g id="edge1" class="edge">
<title>Node1&#45;&gt;Node2</title>
<path fill="none" stroke="midnightblue" d="M182.5,-168.4C182.5,-160.47 182.5,-150.46 182.5,-141.86"/>
<polygon fill="midnightblue" stroke="midnightblue" points="186,-141.66 182.5,-131.66 179,-141.66 186,-141.66"/>
</g>
<!-- Node3 -->
<g id="node3" class="node">
<title>Node3</title>
<g id="a_node3"><a xlink:title=" ">
<polygon fill="none" stroke="#bfbfbf" points="0,-56.5 0,-75.5 45,-75.5 45,-56.5 0,-56.5"/>
<text text-anchor="middle" x="22.5" y="-63.5" font-family="Helvetica,sans-Serif" font-size="10.00">cstdlib</text>
</a>
</g>
</g>
<!-- Node2&#45;&gt;Node3 -->
<g id="edge2" class="edge">
<title>Node2&#45;&gt;Node3</title>
<path fill="none" stroke="midnightblue" d="M157.15,-112.44C129.44,-103.09 84.98,-88.09 54.79,-77.9"/>
<polygon fill="midnightblue" stroke="midnightblue" points="55.74,-74.52 45.15,-74.64 53.5,-81.16 55.74,-74.52"/>
</g>
<!-- Node4 -->
<g id="node4" class="node">
<title>Node4</title>
<g id="a_node4"><a xlink:title=" ">
<polygon fill="none" stroke="#bfbfbf" points="63.5,-56.5 63.5,-75.5 111.5,-75.5 111.5,-56.5 63.5,-56.5"/>
<text text-anchor="middle" x="87.5" y="-63.5" font-family="Helvetica,sans-Serif" font-size="10.00">string.h</text>
</a>
</g>
</g>
<!-- Node2&#45;&gt;Node4 -->
<g id="edge3" class="edge">
<title>Node2&#45;&gt;Node4</title>
<path fill="none" stroke="midnightblue" d="M167.24,-112.32C152.28,-103.82 129.25,-90.73 111.77,-80.8"/>
<polygon fill="midnightblue" stroke="midnightblue" points="113.15,-77.55 102.73,-75.65 109.69,-83.64 113.15,-77.55"/>
</g>
<!-- Node5 -->
<g id="node5" class="node">
<title>Node5</title>
<g id="a_node5"><a xlink:title=" ">
<polygon fill="none" stroke="#bfbfbf" points="129.5,-56.5 129.5,-75.5 181.5,-75.5 181.5,-56.5 129.5,-56.5"/>
<text text-anchor="middle" x="155.5" y="-63.5" font-family="Helvetica,sans-Serif" font-size="10.00">sstream</text>
</a>
</g>
</g>
<!-- Node2&#45;&gt;Node5 -->
<g id="edge4" class="edge">
<title>Node2&#45;&gt;Node5</title>
<path fill="none" stroke="midnightblue" d="M178.04,-112.08C174.35,-104.69 168.98,-93.95 164.41,-84.81"/>
<polygon fill="midnightblue" stroke="midnightblue" points="167.48,-83.13 159.88,-75.75 161.22,-86.26 167.48,-83.13"/>
</g>
<!-- Node6 -->
<g id="node6" class="node">
<title>Node6</title>
<g id="a_node6"><a xlink:title=" ">
<polygon fill="none" stroke="#bfbfbf" points="201,-0.5 201,-19.5 254,-19.5 254,-0.5 201,-0.5"/>
<text text-anchor="middle" x="227.5" y="-7.5" font-family="Helvetica,sans-Serif" font-size="10.00">gu_util.h</text>
</a>
</g>
</g>
<!-- Node2&#45;&gt;Node6 -->
<g id="edge5" class="edge">
<title>Node2&#45;&gt;Node6</title>
<path fill="none" stroke="midnightblue" d="M186.03,-112.37C193.36,-94.46 210.35,-52.92 220.16,-28.95"/>
<polygon fill="midnightblue" stroke="midnightblue" points="223.44,-30.17 223.99,-19.59 216.96,-27.52 223.44,-30.17"/>
</g>
<!-- Node7 -->
<g id="node7" class="node">
<title>Node7</title>
<g id="a_node7"><a xlink:href="wb__sensors__armjointsensors_8h.html" target="_top" xlink:title=" ">
<polygon fill="none" stroke="black" points="238,-56.5 238,-75.5 389,-75.5 389,-56.5 238,-56.5"/>
<text text-anchor="middle" x="313.5" y="-63.5" font-family="Helvetica,sans-Serif" font-size="10.00">wb_sensors_armjointsensors.h</text>
</a>
</g>
</g>
<!-- Node2&#45;&gt;Node7 -->
<g id="edge6" class="edge">
<title>Node2&#45;&gt;Node7</title>
<path fill="none" stroke="midnightblue" d="M203.26,-112.44C224.82,-103.56 258.76,-89.56 283.29,-79.45"/>
<polygon fill="midnightblue" stroke="midnightblue" points="284.93,-82.56 292.84,-75.52 282.26,-76.09 284.93,-82.56"/>
</g>
<!-- Node9 -->
<g id="node9" class="node">
<title>Node9</title>
<g id="a_node9"><a xlink:title=" ">
<polygon fill="none" stroke="#bfbfbf" points="407.5,-56.5 407.5,-75.5 449.5,-75.5 449.5,-56.5 407.5,-56.5"/>
<text text-anchor="middle" x="428.5" y="-63.5" font-family="Helvetica,sans-Serif" font-size="10.00">float.h</text>
</a>
</g>
</g>
<!-- Node2&#45;&gt;Node9 -->
<g id="edge9" class="edge">
<title>Node2&#45;&gt;Node9</title>
<path fill="none" stroke="midnightblue" d="M229.11,-112.49C270.89,-104.59 334.04,-92 397.49,-76.09"/>
<polygon fill="midnightblue" stroke="midnightblue" points="398.42,-79.47 407.26,-73.62 396.7,-72.68 398.42,-79.47"/>
</g>
<!-- Node7&#45;&gt;Node6 -->
<g id="edge7" class="edge">
<title>Node7&#45;&gt;Node6</title>
<path fill="none" stroke="midnightblue" d="M299.68,-56.32C286.27,-47.9 265.68,-34.97 249.91,-25.07"/>
<polygon fill="midnightblue" stroke="midnightblue" points="251.61,-22.01 241.28,-19.65 247.89,-27.94 251.61,-22.01"/>
</g>
<!-- Node8 -->
<g id="node8" class="node">
<title>Node8</title>
<g id="a_node8"><a xlink:title=" ">
<polygon fill="none" stroke="#bfbfbf" points="289.5,-0.5 289.5,-19.5 337.5,-19.5 337.5,-0.5 289.5,-0.5"/>
<text text-anchor="middle" x="313.5" y="-7.5" font-family="Helvetica,sans-Serif" font-size="10.00">stdint.h</text>
</a>
</g>
</g>
<!-- Node7&#45;&gt;Node8 -->
<g id="edge8" class="edge">
<title>Node7&#45;&gt;Node8</title>
<path fill="none" stroke="midnightblue" d="M313.5,-56.08C313.5,-49.01 313.5,-38.86 313.5,-29.99"/>
<polygon fill="midnightblue" stroke="midnightblue" points="317,-29.75 313.5,-19.75 310,-29.75 317,-29.75"/>
</g>
</g>
</svg>
