<?xml version="1.0" encoding="UTF-8" standalone="no"?>
<!DOCTYPE svg PUBLIC "-//W3C//DTD SVG 1.1//EN"
 "http://www.w3.org/Graphics/SVG/1.1/DTD/svg11.dtd">
<!-- Generated by graphviz version 2.49.0 (20210830.1337)
 -->
<!-- Title: typeClassDefs/SENSORSLegJointTemps.h Pages: 1 -->
<svg width="446pt" height="207pt"
 viewBox="0.00 0.00 445.50 207.00" xmlns="http://www.w3.org/2000/svg" xmlns:xlink="http://www.w3.org/1999/xlink">
<g id="graph0" class="graph" transform="scale(1 1) rotate(0) translate(4 203)">
<title>typeClassDefs/SENSORSLegJointTemps.h</title>
<!-- Node1 -->
<g id="node1" class="node">
<title>Node1</title>
<g id="a_node1"><a xlink:title=" ">
<polygon fill="#bfbfbf" stroke="black" points="109,-168.5 109,-198.5 256,-198.5 256,-168.5 109,-168.5"/>
<text text-anchor="start" x="117" y="-186.5" font-family="Helvetica,sans-Serif" font-size="10.00">typeClassDefs/SENSORSLeg</text>
<text text-anchor="middle" x="182.5" y="-175.5" font-family="Helvetica,sans-Serif" font-size="10.00">JointTemps.h</text>
</a>
</g>
</g>
<!-- Node2 -->
<g id="node2" class="node">
<title>Node2</title>
<g id="a_node2"><a xlink:href="_s_e_n_s_o_r_s_leg_joint_temps_8hpp.html" target="_top" xlink:title=" ">
<polygon fill="none" stroke="black" points="107.5,-112.5 107.5,-131.5 257.5,-131.5 257.5,-112.5 107.5,-112.5"/>
<text text-anchor="middle" x="182.5" y="-119.5" font-family="Helvetica,sans-Serif" font-size="10.00">SENSORSLegJointTemps.hpp</text>
</a>
</g>
</g>
<!-- Node1&#45;&gt;Node2 -->
<g id="edge1" class="edge">
<title>Node1&#45;&gt;Node2</title>
<path fill="none" stroke="midnightblue" d="M182.5,-168.4C182.5,-160.47 182.5,-150.46 182.5,-141.86"/>
<polygon fill="midnightblue" stroke="midnightblue" points="186,-141.66 182.5,-131.66 179,-141.66 186,-141.66"/>
</g>
<!-- Node3 -->
<g id="node3" class="node">
<title>Node3</title>
<g id="a_node3"><a xlink:title=" ">
<polygon fill="none" stroke="#bfbfbf" points="0,-56.5 0,-75.5 45,-75.5 45,-56.5 0,-56.5"/>
<text text-anchor="middle" x="22.5" y="-63.5" font-family="Helvetica,sans-Serif" font-size="10.00">cstdlib</text>
</a>
</g>
</g>
<!-- Node2&#45;&gt;Node3 -->
<g id="edge2" class="edge">
<title>Node2&#45;&gt;Node3</title>
<path fill="none" stroke="midnightblue" d="M157.15,-112.44C129.44,-103.09 84.98,-88.09 54.79,-77.9"/>
<polygon fill="midnightblue" stroke="midnightblue" points="55.74,-74.52 45.15,-74.64 53.5,-81.16 55.74,-74.52"/>
</g>
<!-- Node4 -->
<g id="node4" class="node">
<title>Node4</title>
<g id="a_node4"><a xlink:title=" ">
<polygon fill="none" stroke="#bfbfbf" points="63.5,-56.5 63.5,-75.5 111.5,-75.5 111.5,-56.5 63.5,-56.5"/>
<text text-anchor="middle" x="87.5" y="-63.5" font-family="Helvetica,sans-Serif" font-size="10.00">string.h</text>
</a>
</g>
</g>
<!-- Node2&#45;&gt;Node4 -->
<g id="edge3" class="edge">
<title>Node2&#45;&gt;Node4</title>
<path fill="none" stroke="midnightblue" d="M167.24,-112.32C152.28,-103.82 129.25,-90.73 111.77,-80.8"/>
<polygon fill="midnightblue" stroke="midnightblue" points="113.15,-77.55 102.73,-75.65 109.69,-83.64 113.15,-77.55"/>
</g>
<!-- Node5 -->
<g id="node5" class="node">
<title>Node5</title>
<g id="a_node5"><a xlink:title=" ">
<polygon fill="none" stroke="#bfbfbf" points="129.5,-56.5 129.5,-75.5 181.5,-75.5 181.5,-56.5 129.5,-56.5"/>
<text text-anchor="middle" x="155.5" y="-63.5" font-family="Helvetica,sans-Serif" font-size="10.00">sstream</text>
</a>
</g>
</g>
<!-- Node2&#45;&gt;Node5 -->
<g id="edge4" class="edge">
<title>Node2&#45;&gt;Node5</title>
<path fill="none" stroke="midnightblue" d="M178.04,-112.08C174.35,-104.69 168.98,-93.95 164.41,-84.81"/>
<polygon fill="midnightblue" stroke="midnightblue" points="167.48,-83.13 159.88,-75.75 161.22,-86.26 167.48,-83.13"/>
</g>
<!-- Node6 -->
<g id="node6" class="node">
<title>Node6</title>
<g id="a_node6"><a xlink:title=" ">
<polygon fill="none" stroke="#bfbfbf" points="198,-0.5 198,-19.5 251,-19.5 251,-0.5 198,-0.5"/>
<text text-anchor="middle" x="224.5" y="-7.5" font-family="Helvetica,sans-Serif" font-size="10.00">gu_util.h</text>
</a>
</g>
</g>
<!-- Node2&#45;&gt;Node6 -->
<g id="edge5" class="edge">
<title>Node2&#45;&gt;Node6</title>
<path fill="none" stroke="midnightblue" d="M185.8,-112.37C192.63,-94.46 208.49,-52.92 217.65,-28.95"/>
<polygon fill="midnightblue" stroke="midnightblue" points="220.92,-30.18 221.22,-19.59 214.38,-27.69 220.92,-30.18"/>
</g>
<!-- Node7 -->
<g id="node7" class="node">
<title>Node7</title>
<g id="a_node7"><a xlink:href="wb__sensors__legjointtemps_8h.html" target="_top" xlink:title=" ">
<polygon fill="none" stroke="black" points="237.5,-56.5 237.5,-75.5 377.5,-75.5 377.5,-56.5 237.5,-56.5"/>
<text text-anchor="middle" x="307.5" y="-63.5" font-family="Helvetica,sans-Serif" font-size="10.00">wb_sensors_legjointtemps.h</text>
</a>
</g>
</g>
<!-- Node2&#45;&gt;Node7 -->
<g id="edge6" class="edge">
<title>Node2&#45;&gt;Node7</title>
<path fill="none" stroke="midnightblue" d="M202.31,-112.44C222.79,-103.6 254.98,-89.69 278.36,-79.59"/>
<polygon fill="midnightblue" stroke="midnightblue" points="279.99,-82.7 287.79,-75.52 277.22,-76.27 279.99,-82.7"/>
</g>
<!-- Node9 -->
<g id="node9" class="node">
<title>Node9</title>
<g id="a_node9"><a xlink:title=" ">
<polygon fill="none" stroke="#bfbfbf" points="395.5,-56.5 395.5,-75.5 437.5,-75.5 437.5,-56.5 395.5,-56.5"/>
<text text-anchor="middle" x="416.5" y="-63.5" font-family="Helvetica,sans-Serif" font-size="10.00">float.h</text>
</a>
</g>
</g>
<!-- Node2&#45;&gt;Node9 -->
<g id="edge9" class="edge">
<title>Node2&#45;&gt;Node9</title>
<path fill="none" stroke="midnightblue" d="M225.7,-112.44C265.04,-104.43 324.92,-91.7 385.52,-76.11"/>
<polygon fill="midnightblue" stroke="midnightblue" points="386.45,-79.49 395.25,-73.59 384.69,-72.71 386.45,-79.49"/>
</g>
<!-- Node7&#45;&gt;Node6 -->
<g id="edge7" class="edge">
<title>Node7&#45;&gt;Node6</title>
<path fill="none" stroke="midnightblue" d="M294.16,-56.32C281.34,-47.98 261.72,-35.21 246.56,-25.35"/>
<polygon fill="midnightblue" stroke="midnightblue" points="248.09,-22.17 237.8,-19.65 244.28,-28.04 248.09,-22.17"/>
</g>
<!-- Node8 -->
<g id="node8" class="node">
<title>Node8</title>
<g id="a_node8"><a xlink:title=" ">
<polygon fill="none" stroke="#bfbfbf" points="283.5,-0.5 283.5,-19.5 331.5,-19.5 331.5,-0.5 283.5,-0.5"/>
<text text-anchor="middle" x="307.5" y="-7.5" font-family="Helvetica,sans-Serif" font-size="10.00">stdint.h</text>
</a>
</g>
</g>
<!-- Node7&#45;&gt;Node8 -->
<g id="edge8" class="edge">
<title>Node7&#45;&gt;Node8</title>
<path fill="none" stroke="midnightblue" d="M307.5,-56.08C307.5,-49.01 307.5,-38.86 307.5,-29.99"/>
<polygon fill="midnightblue" stroke="midnightblue" points="311,-29.75 307.5,-19.75 304,-29.75 311,-29.75"/>
</g>
</g>
</svg>
