<?xml version="1.0" encoding="UTF-8" standalone="no"?>
<!DOCTYPE svg PUBLIC "-//W3C//DTD SVG 1.1//EN"
 "http://www.w3.org/Graphics/SVG/1.1/DTD/svg11.dtd">
<!-- Generated by graphviz version 2.49.0 (20210830.1337)
 -->
<!-- Title: typeClassDefs/SENSORSTorsoJointTemps.h Pages: 1 -->
<svg width="454pt" height="207pt"
 viewBox="0.00 0.00 453.50 207.00" xmlns="http://www.w3.org/2000/svg" xmlns:xlink="http://www.w3.org/1999/xlink">
<g id="graph0" class="graph" transform="scale(1 1) rotate(0) translate(4 203)">
<title>typeClassDefs/SENSORSTorsoJointTemps.h</title>
<!-- Node1 -->
<g id="node1" class="node">
<title>Node1</title>
<g id="a_node1"><a xlink:title=" ">
<polygon fill="#bfbfbf" stroke="black" points="105,-168.5 105,-198.5 260,-198.5 260,-168.5 105,-168.5"/>
<text text-anchor="start" x="113" y="-186.5" font-family="Helvetica,sans-Serif" font-size="10.00">typeClassDefs/SENSORSTorso</text>
<text text-anchor="middle" x="182.5" y="-175.5" font-family="Helvetica,sans-Serif" font-size="10.00">JointTemps.h</text>
</a>
</g>
</g>
<!-- Node2 -->
<g id="node2" class="node">
<title>Node2</title>
<g id="a_node2"><a xlink:href="_s_e_n_s_o_r_s_torso_joint_temps_8hpp.html" target="_top" xlink:title=" ">
<polygon fill="none" stroke="black" points="103.5,-112.5 103.5,-131.5 261.5,-131.5 261.5,-112.5 103.5,-112.5"/>
<text text-anchor="middle" x="182.5" y="-119.5" font-family="Helvetica,sans-Serif" font-size="10.00">SENSORSTorsoJointTemps.hpp</text>
</a>
</g>
</g>
<!-- Node1&#45;&gt;Node2 -->
<g id="edge1" class="edge">
<title>Node1&#45;&gt;Node2</title>
<path fill="none" stroke="midnightblue" d="M182.5,-168.4C182.5,-160.47 182.5,-150.46 182.5,-141.86"/>
<polygon fill="midnightblue" stroke="midnightblue" points="186,-141.66 182.5,-131.66 179,-141.66 186,-141.66"/>
</g>
<!-- Node3 -->
<g id="node3" class="node">
<title>Node3</title>
<g id="a_node3"><a xlink:title=" ">
<polygon fill="none" stroke="#bfbfbf" points="0,-56.5 0,-75.5 45,-75.5 45,-56.5 0,-56.5"/>
<text text-anchor="middle" x="22.5" y="-63.5" font-family="Helvetica,sans-Serif" font-size="10.00">cstdlib</text>
</a>
</g>
</g>
<!-- Node2&#45;&gt;Node3 -->
<g id="edge2" class="edge">
<title>Node2&#45;&gt;Node3</title>
<path fill="none" stroke="midnightblue" d="M157.15,-112.44C129.44,-103.09 84.98,-88.09 54.79,-77.9"/>
<polygon fill="midnightblue" stroke="midnightblue" points="55.74,-74.52 45.15,-74.64 53.5,-81.16 55.74,-74.52"/>
</g>
<!-- Node4 -->
<g id="node4" class="node">
<title>Node4</title>
<g id="a_node4"><a xlink:title=" ">
<polygon fill="none" stroke="#bfbfbf" points="63.5,-56.5 63.5,-75.5 111.5,-75.5 111.5,-56.5 63.5,-56.5"/>
<text text-anchor="middle" x="87.5" y="-63.5" font-family="Helvetica,sans-Serif" font-size="10.00">string.h</text>
</a>
</g>
</g>
<!-- Node2&#45;&gt;Node4 -->
<g id="edge3" class="edge">
<title>Node2&#45;&gt;Node4</title>
<path fill="none" stroke="midnightblue" d="M167.24,-112.32C152.28,-103.82 129.25,-90.73 111.77,-80.8"/>
<polygon fill="midnightblue" stroke="midnightblue" points="113.15,-77.55 102.73,-75.65 109.69,-83.64 113.15,-77.55"/>
</g>
<!-- Node5 -->
<g id="node5" class="node">
<title>Node5</title>
<g id="a_node5"><a xlink:title=" ">
<polygon fill="none" stroke="#bfbfbf" points="129.5,-56.5 129.5,-75.5 181.5,-75.5 181.5,-56.5 129.5,-56.5"/>
<text text-anchor="middle" x="155.5" y="-63.5" font-family="Helvetica,sans-Serif" font-size="10.00">sstream</text>
</a>
</g>
</g>
<!-- Node2&#45;&gt;Node5 -->
<g id="edge4" class="edge">
<title>Node2&#45;&gt;Node5</title>
<path fill="none" stroke="midnightblue" d="M178.04,-112.08C174.35,-104.69 168.98,-93.95 164.41,-84.81"/>
<polygon fill="midnightblue" stroke="midnightblue" points="167.48,-83.13 159.88,-75.75 161.22,-86.26 167.48,-83.13"/>
</g>
<!-- Node6 -->
<g id="node6" class="node">
<title>Node6</title>
<g id="a_node6"><a xlink:title=" ">
<polygon fill="none" stroke="#bfbfbf" points="200,-0.5 200,-19.5 253,-19.5 253,-0.5 200,-0.5"/>
<text text-anchor="middle" x="226.5" y="-7.5" font-family="Helvetica,sans-Serif" font-size="10.00">gu_util.h</text>
</a>
</g>
</g>
<!-- Node2&#45;&gt;Node6 -->
<g id="edge5" class="edge">
<title>Node2&#45;&gt;Node6</title>
<path fill="none" stroke="midnightblue" d="M185.95,-112.37C193.12,-94.46 209.73,-52.92 219.32,-28.95"/>
<polygon fill="midnightblue" stroke="midnightblue" points="222.6,-30.18 223.06,-19.59 216.1,-27.58 222.6,-30.18"/>
</g>
<!-- Node7 -->
<g id="node7" class="node">
<title>Node7</title>
<g id="a_node7"><a xlink:href="wb__sensors__torsojointtemps_8h.html" target="_top" xlink:title=" ">
<polygon fill="none" stroke="black" points="237,-56.5 237,-75.5 386,-75.5 386,-56.5 237,-56.5"/>
<text text-anchor="middle" x="311.5" y="-63.5" font-family="Helvetica,sans-Serif" font-size="10.00">wb_sensors_torsojointtemps.h</text>
</a>
</g>
</g>
<!-- Node2&#45;&gt;Node7 -->
<g id="edge6" class="edge">
<title>Node2&#45;&gt;Node7</title>
<path fill="none" stroke="midnightblue" d="M202.94,-112.44C224.17,-103.56 257.6,-89.56 281.75,-79.45"/>
<polygon fill="midnightblue" stroke="midnightblue" points="283.28,-82.61 291.16,-75.52 280.58,-76.15 283.28,-82.61"/>
</g>
<!-- Node9 -->
<g id="node9" class="node">
<title>Node9</title>
<g id="a_node9"><a xlink:title=" ">
<polygon fill="none" stroke="#bfbfbf" points="403.5,-56.5 403.5,-75.5 445.5,-75.5 445.5,-56.5 403.5,-56.5"/>
<text text-anchor="middle" x="424.5" y="-63.5" font-family="Helvetica,sans-Serif" font-size="10.00">float.h</text>
</a>
</g>
</g>
<!-- Node2&#45;&gt;Node9 -->
<g id="edge9" class="edge">
<title>Node2&#45;&gt;Node9</title>
<path fill="none" stroke="midnightblue" d="M228.91,-112.48C270.05,-104.64 331.94,-92.15 393.47,-76.37"/>
<polygon fill="midnightblue" stroke="midnightblue" points="394.54,-79.71 403.34,-73.81 392.78,-72.94 394.54,-79.71"/>
</g>
<!-- Node7&#45;&gt;Node6 -->
<g id="edge7" class="edge">
<title>Node7&#45;&gt;Node6</title>
<path fill="none" stroke="midnightblue" d="M297.84,-56.32C284.58,-47.9 264.23,-34.97 248.65,-25.07"/>
<polygon fill="midnightblue" stroke="midnightblue" points="250.44,-22.06 240.12,-19.65 246.69,-27.97 250.44,-22.06"/>
</g>
<!-- Node8 -->
<g id="node8" class="node">
<title>Node8</title>
<g id="a_node8"><a xlink:title=" ">
<polygon fill="none" stroke="#bfbfbf" points="287.5,-0.5 287.5,-19.5 335.5,-19.5 335.5,-0.5 287.5,-0.5"/>
<text text-anchor="middle" x="311.5" y="-7.5" font-family="Helvetica,sans-Serif" font-size="10.00">stdint.h</text>
</a>
</g>
</g>
<!-- Node7&#45;&gt;Node8 -->
<g id="edge8" class="edge">
<title>Node7&#45;&gt;Node8</title>
<path fill="none" stroke="midnightblue" d="M311.5,-56.08C311.5,-49.01 311.5,-38.86 311.5,-29.99"/>
<polygon fill="midnightblue" stroke="midnightblue" points="315,-29.75 311.5,-19.75 308,-29.75 315,-29.75"/>
</g>
</g>
</svg>
