<?xml version="1.0" encoding="UTF-8" standalone="no"?>
<!DOCTYPE svg PUBLIC "-//W3C//DTD SVG 1.1//EN"
 "http://www.w3.org/Graphics/SVG/1.1/DTD/svg11.dtd">
<!-- Generated by graphviz version 2.49.0 (20210830.1337)
 -->
<!-- Title: typeClassDefs/SensorsHandSensors.h Pages: 1 -->
<svg width="389pt" height="207pt"
 viewBox="0.00 0.00 389.00 207.00" xmlns="http://www.w3.org/2000/svg" xmlns:xlink="http://www.w3.org/1999/xlink">
<g id="graph0" class="graph" transform="scale(1 1) rotate(0) translate(4 203)">
<title>typeClassDefs/SensorsHandSensors.h</title>
<!-- Node1 -->
<g id="node1" class="node">
<title>Node1</title>
<g id="a_node1"><a xlink:title=" ">
<polygon fill="#bfbfbf" stroke="black" points="84.5,-168.5 84.5,-198.5 226.5,-198.5 226.5,-168.5 84.5,-168.5"/>
<text text-anchor="start" x="92.5" y="-186.5" font-family="Helvetica,sans-Serif" font-size="10.00">typeClassDefs/SensorsHand</text>
<text text-anchor="middle" x="155.5" y="-175.5" font-family="Helvetica,sans-Serif" font-size="10.00">Sensors.h</text>
</a>
</g>
</g>
<!-- Node2 -->
<g id="node2" class="node">
<title>Node2</title>
<g id="a_node2"><a xlink:href="_sensors_hand_sensors_8hpp.html" target="_top" xlink:title=" ">
<polygon fill="none" stroke="black" points="90.5,-112.5 90.5,-131.5 220.5,-131.5 220.5,-112.5 90.5,-112.5"/>
<text text-anchor="middle" x="155.5" y="-119.5" font-family="Helvetica,sans-Serif" font-size="10.00">SensorsHandSensors.hpp</text>
</a>
</g>
</g>
<!-- Node1&#45;&gt;Node2 -->
<g id="edge1" class="edge">
<title>Node1&#45;&gt;Node2</title>
<path fill="none" stroke="midnightblue" d="M155.5,-168.4C155.5,-160.47 155.5,-150.46 155.5,-141.86"/>
<polygon fill="midnightblue" stroke="midnightblue" points="159,-141.66 155.5,-131.66 152,-141.66 159,-141.66"/>
</g>
<!-- Node3 -->
<g id="node3" class="node">
<title>Node3</title>
<g id="a_node3"><a xlink:title=" ">
<polygon fill="none" stroke="#bfbfbf" points="0,-56.5 0,-75.5 45,-75.5 45,-56.5 0,-56.5"/>
<text text-anchor="middle" x="22.5" y="-63.5" font-family="Helvetica,sans-Serif" font-size="10.00">cstdlib</text>
</a>
</g>
</g>
<!-- Node2&#45;&gt;Node3 -->
<g id="edge2" class="edge">
<title>Node2&#45;&gt;Node3</title>
<path fill="none" stroke="midnightblue" d="M134.43,-112.44C112.44,-103.52 77.77,-89.44 52.84,-79.32"/>
<polygon fill="midnightblue" stroke="midnightblue" points="54.06,-76.04 43.48,-75.52 51.42,-82.52 54.06,-76.04"/>
</g>
<!-- Node4 -->
<g id="node4" class="node">
<title>Node4</title>
<g id="a_node4"><a xlink:title=" ">
<polygon fill="none" stroke="#bfbfbf" points="63.5,-56.5 63.5,-75.5 111.5,-75.5 111.5,-56.5 63.5,-56.5"/>
<text text-anchor="middle" x="87.5" y="-63.5" font-family="Helvetica,sans-Serif" font-size="10.00">string.h</text>
</a>
</g>
</g>
<!-- Node2&#45;&gt;Node4 -->
<g id="edge3" class="edge">
<title>Node2&#45;&gt;Node4</title>
<path fill="none" stroke="midnightblue" d="M144.57,-112.32C134.33,-104.18 118.78,-91.84 106.5,-82.09"/>
<polygon fill="midnightblue" stroke="midnightblue" points="108.63,-79.31 98.62,-75.83 104.28,-84.79 108.63,-79.31"/>
</g>
<!-- Node5 -->
<g id="node5" class="node">
<title>Node5</title>
<g id="a_node5"><a xlink:title=" ">
<polygon fill="none" stroke="#bfbfbf" points="129.5,-56.5 129.5,-75.5 181.5,-75.5 181.5,-56.5 129.5,-56.5"/>
<text text-anchor="middle" x="155.5" y="-63.5" font-family="Helvetica,sans-Serif" font-size="10.00">sstream</text>
</a>
</g>
</g>
<!-- Node2&#45;&gt;Node5 -->
<g id="edge4" class="edge">
<title>Node2&#45;&gt;Node5</title>
<path fill="none" stroke="midnightblue" d="M155.5,-112.08C155.5,-105.01 155.5,-94.86 155.5,-85.99"/>
<polygon fill="midnightblue" stroke="midnightblue" points="159,-85.75 155.5,-75.75 152,-85.75 159,-85.75"/>
</g>
<!-- Node6 -->
<g id="node6" class="node">
<title>Node6</title>
<g id="a_node6"><a xlink:title=" ">
<polygon fill="none" stroke="#bfbfbf" points="199,-0.5 199,-19.5 252,-19.5 252,-0.5 199,-0.5"/>
<text text-anchor="middle" x="225.5" y="-7.5" font-family="Helvetica,sans-Serif" font-size="10.00">gu_util.h</text>
</a>
</g>
</g>
<!-- Node2&#45;&gt;Node6 -->
<g id="edge5" class="edge">
<title>Node2&#45;&gt;Node6</title>
<path fill="none" stroke="midnightblue" d="M162.93,-112.36C170.34,-103.53 181.85,-89.27 190.5,-76 200.54,-60.6 210.31,-42.05 216.97,-28.72"/>
<polygon fill="midnightblue" stroke="midnightblue" points="220.14,-30.19 221.41,-19.67 213.86,-27.11 220.14,-30.19"/>
</g>
<!-- Node7 -->
<g id="node7" class="node">
<title>Node7</title>
<g id="a_node7"><a xlink:href="wb__sensors__hand__sensors_8h.html" target="_top" xlink:title=" ">
<polygon fill="none" stroke="black" points="238,-56.5 238,-75.5 381,-75.5 381,-56.5 238,-56.5"/>
<text text-anchor="middle" x="309.5" y="-63.5" font-family="Helvetica,sans-Serif" font-size="10.00">wb_sensors_hand_sensors.h</text>
</a>
</g>
</g>
<!-- Node2&#45;&gt;Node7 -->
<g id="edge6" class="edge">
<title>Node2&#45;&gt;Node7</title>
<path fill="none" stroke="midnightblue" d="M179.9,-112.44C205.7,-103.4 246.58,-89.06 275.52,-78.92"/>
<polygon fill="midnightblue" stroke="midnightblue" points="276.93,-82.13 285.21,-75.52 274.62,-75.52 276.93,-82.13"/>
</g>
<!-- Node7&#45;&gt;Node6 -->
<g id="edge7" class="edge">
<title>Node7&#45;&gt;Node6</title>
<path fill="none" stroke="midnightblue" d="M296,-56.32C282.9,-47.9 262.79,-34.97 247.39,-25.07"/>
<polygon fill="midnightblue" stroke="midnightblue" points="249.27,-22.12 238.96,-19.65 245.48,-28.01 249.27,-22.12"/>
</g>
<!-- Node8 -->
<g id="node8" class="node">
<title>Node8</title>
<g id="a_node8"><a xlink:title=" ">
<polygon fill="none" stroke="#bfbfbf" points="285.5,-0.5 285.5,-19.5 333.5,-19.5 333.5,-0.5 285.5,-0.5"/>
<text text-anchor="middle" x="309.5" y="-7.5" font-family="Helvetica,sans-Serif" font-size="10.00">stdint.h</text>
</a>
</g>
</g>
<!-- Node7&#45;&gt;Node8 -->
<g id="edge8" class="edge">
<title>Node7&#45;&gt;Node8</title>
<path fill="none" stroke="midnightblue" d="M309.5,-56.08C309.5,-49.01 309.5,-38.86 309.5,-29.99"/>
<polygon fill="midnightblue" stroke="midnightblue" points="313,-29.75 309.5,-19.75 306,-29.75 313,-29.75"/>
</g>
</g>
</svg>
