<?xml version="1.0" encoding="UTF-8" standalone="no"?>
<!DOCTYPE svg PUBLIC "-//W3C//DTD SVG 1.1//EN"
 "http://www.w3.org/Graphics/SVG/1.1/DTD/svg11.dtd">
<!-- Generated by graphviz version 2.49.0 (20210830.1337)
 -->
<!-- Title: typeClassDefs/SensorsBodySensors.hpp Pages: 1 -->
<svg width="448pt" height="151pt"
 viewBox="0.00 0.00 447.50 151.00" xmlns="http://www.w3.org/2000/svg" xmlns:xlink="http://www.w3.org/1999/xlink">
<g id="graph0" class="graph" transform="scale(1 1) rotate(0) translate(4 147)">
<title>typeClassDefs/SensorsBodySensors.hpp</title>
<!-- Node1 -->
<g id="node1" class="node">
<title>Node1</title>
<g id="a_node1"><a xlink:title=" ">
<polygon fill="#bfbfbf" stroke="black" points="112.5,-112.5 112.5,-142.5 252.5,-142.5 252.5,-112.5 112.5,-112.5"/>
<text text-anchor="start" x="120.5" y="-130.5" font-family="Helvetica,sans-Serif" font-size="10.00">typeClassDefs/SensorsBody</text>
<text text-anchor="middle" x="182.5" y="-119.5" font-family="Helvetica,sans-Serif" font-size="10.00">Sensors.hpp</text>
</a>
</g>
</g>
<!-- Node2 -->
<g id="node2" class="node">
<title>Node2</title>
<g id="a_node2"><a xlink:title=" ">
<polygon fill="none" stroke="#bfbfbf" points="0,-56.5 0,-75.5 45,-75.5 45,-56.5 0,-56.5"/>
<text text-anchor="middle" x="22.5" y="-63.5" font-family="Helvetica,sans-Serif" font-size="10.00">cstdlib</text>
</a>
</g>
</g>
<!-- Node1&#45;&gt;Node2 -->
<g id="edge1" class="edge">
<title>Node1&#45;&gt;Node2</title>
<path fill="none" stroke="midnightblue" d="M144.58,-112.4C117.21,-102.22 80.66,-88.63 54.7,-78.98"/>
<polygon fill="midnightblue" stroke="midnightblue" points="55.91,-75.69 45.32,-75.48 53.47,-82.25 55.91,-75.69"/>
</g>
<!-- Node3 -->
<g id="node3" class="node">
<title>Node3</title>
<g id="a_node3"><a xlink:title=" ">
<polygon fill="none" stroke="#bfbfbf" points="63.5,-56.5 63.5,-75.5 111.5,-75.5 111.5,-56.5 63.5,-56.5"/>
<text text-anchor="middle" x="87.5" y="-63.5" font-family="Helvetica,sans-Serif" font-size="10.00">string.h</text>
</a>
</g>
</g>
<!-- Node1&#45;&gt;Node3 -->
<g id="edge2" class="edge">
<title>Node1&#45;&gt;Node3</title>
<path fill="none" stroke="midnightblue" d="M159.99,-112.4C144.9,-102.95 125.11,-90.56 110.03,-81.11"/>
<polygon fill="midnightblue" stroke="midnightblue" points="111.66,-78 101.32,-75.66 107.94,-83.93 111.66,-78"/>
</g>
<!-- Node4 -->
<g id="node4" class="node">
<title>Node4</title>
<g id="a_node4"><a xlink:title=" ">
<polygon fill="none" stroke="#bfbfbf" points="129.5,-56.5 129.5,-75.5 181.5,-75.5 181.5,-56.5 129.5,-56.5"/>
<text text-anchor="middle" x="155.5" y="-63.5" font-family="Helvetica,sans-Serif" font-size="10.00">sstream</text>
</a>
</g>
</g>
<!-- Node1&#45;&gt;Node4 -->
<g id="edge3" class="edge">
<title>Node1&#45;&gt;Node4</title>
<path fill="none" stroke="midnightblue" d="M176.1,-112.4C172.38,-104.2 167.65,-93.78 163.67,-84.99"/>
<polygon fill="midnightblue" stroke="midnightblue" points="166.75,-83.32 159.43,-75.66 160.37,-86.21 166.75,-83.32"/>
</g>
<!-- Node5 -->
<g id="node5" class="node">
<title>Node5</title>
<g id="a_node5"><a xlink:title=" ">
<polygon fill="none" stroke="#bfbfbf" points="198,-0.5 198,-19.5 251,-19.5 251,-0.5 198,-0.5"/>
<text text-anchor="middle" x="224.5" y="-7.5" font-family="Helvetica,sans-Serif" font-size="10.00">gu_util.h</text>
</a>
</g>
</g>
<!-- Node1&#45;&gt;Node5 -->
<g id="edge4" class="edge">
<title>Node1&#45;&gt;Node5</title>
<path fill="none" stroke="midnightblue" d="M187.65,-112.34C195.25,-91.43 209.48,-52.31 217.86,-29.27"/>
<polygon fill="midnightblue" stroke="midnightblue" points="221.22,-30.26 221.35,-19.67 214.64,-27.87 221.22,-30.26"/>
</g>
<!-- Node6 -->
<g id="node6" class="node">
<title>Node6</title>
<g id="a_node6"><a xlink:href="wb__sensors__body__sensors_8h.html" target="_top" xlink:title=" ">
<polygon fill="none" stroke="black" points="237.5,-56.5 237.5,-75.5 379.5,-75.5 379.5,-56.5 237.5,-56.5"/>
<text text-anchor="middle" x="308.5" y="-63.5" font-family="Helvetica,sans-Serif" font-size="10.00">wb_sensors_body_sensors.h</text>
</a>
</g>
</g>
<!-- Node1&#45;&gt;Node6 -->
<g id="edge5" class="edge">
<title>Node1&#45;&gt;Node6</title>
<path fill="none" stroke="midnightblue" d="M212.36,-112.4C233.12,-102.59 260.6,-89.62 280.86,-80.05"/>
<polygon fill="midnightblue" stroke="midnightblue" points="282.62,-83.09 290.17,-75.66 279.63,-76.76 282.62,-83.09"/>
</g>
<!-- Node8 -->
<g id="node8" class="node">
<title>Node8</title>
<g id="a_node8"><a xlink:title=" ">
<polygon fill="none" stroke="#bfbfbf" points="397.5,-56.5 397.5,-75.5 439.5,-75.5 439.5,-56.5 397.5,-56.5"/>
<text text-anchor="middle" x="418.5" y="-63.5" font-family="Helvetica,sans-Serif" font-size="10.00">float.h</text>
</a>
</g>
</g>
<!-- Node1&#45;&gt;Node8 -->
<g id="edge8" class="edge">
<title>Node1&#45;&gt;Node8</title>
<path fill="none" stroke="midnightblue" d="M243.55,-112.4C282.33,-103.24 333.78,-90.72 387.53,-76.17"/>
<polygon fill="midnightblue" stroke="midnightblue" points="388.5,-79.53 397.23,-73.53 386.66,-72.78 388.5,-79.53"/>
</g>
<!-- Node6&#45;&gt;Node5 -->
<g id="edge6" class="edge">
<title>Node6&#45;&gt;Node5</title>
<path fill="none" stroke="midnightblue" d="M295,-56.32C281.9,-47.9 261.79,-34.97 246.39,-25.07"/>
<polygon fill="midnightblue" stroke="midnightblue" points="248.27,-22.12 237.96,-19.65 244.48,-28.01 248.27,-22.12"/>
</g>
<!-- Node7 -->
<g id="node7" class="node">
<title>Node7</title>
<g id="a_node7"><a xlink:title=" ">
<polygon fill="none" stroke="#bfbfbf" points="284.5,-0.5 284.5,-19.5 332.5,-19.5 332.5,-0.5 284.5,-0.5"/>
<text text-anchor="middle" x="308.5" y="-7.5" font-family="Helvetica,sans-Serif" font-size="10.00">stdint.h</text>
</a>
</g>
</g>
<!-- Node6&#45;&gt;Node7 -->
<g id="edge7" class="edge">
<title>Node6&#45;&gt;Node7</title>
<path fill="none" stroke="midnightblue" d="M308.5,-56.08C308.5,-49.01 308.5,-38.86 308.5,-29.99"/>
<polygon fill="midnightblue" stroke="midnightblue" points="312,-29.75 308.5,-19.75 305,-29.75 312,-29.75"/>
</g>
</g>
</svg>
