<?xml version="1.0" encoding="UTF-8" standalone="no"?>
<!DOCTYPE svg PUBLIC "-//W3C//DTD SVG 1.1//EN"
 "http://www.w3.org/Graphics/SVG/1.1/DTD/svg11.dtd">
<!-- Generated by graphviz version 2.49.0 (20210830.1337)
 -->
<!-- Title: typeClassDefs/SensorsHeadSensors.hpp Pages: 1 -->
<svg width="389pt" height="151pt"
 viewBox="0.00 0.00 389.00 151.00" xmlns="http://www.w3.org/2000/svg" xmlns:xlink="http://www.w3.org/1999/xlink">
<g id="graph0" class="graph" transform="scale(1 1) rotate(0) translate(4 147)">
<title>typeClassDefs/SensorsHeadSensors.hpp</title>
<!-- Node1 -->
<g id="node1" class="node">
<title>Node1</title>
<g id="a_node1"><a xlink:title=" ">
<polygon fill="#bfbfbf" stroke="black" points="84.5,-112.5 84.5,-142.5 226.5,-142.5 226.5,-112.5 84.5,-112.5"/>
<text text-anchor="start" x="92.5" y="-130.5" font-family="Helvetica,sans-Serif" font-size="10.00">typeClassDefs/SensorsHead</text>
<text text-anchor="middle" x="155.5" y="-119.5" font-family="Helvetica,sans-Serif" font-size="10.00">Sensors.hpp</text>
</a>
</g>
</g>
<!-- Node2 -->
<g id="node2" class="node">
<title>Node2</title>
<g id="a_node2"><a xlink:title=" ">
<polygon fill="none" stroke="#bfbfbf" points="0,-56.5 0,-75.5 45,-75.5 45,-56.5 0,-56.5"/>
<text text-anchor="middle" x="22.5" y="-63.5" font-family="Helvetica,sans-Serif" font-size="10.00">cstdlib</text>
</a>
</g>
</g>
<!-- Node1&#45;&gt;Node2 -->
<g id="edge1" class="edge">
<title>Node1&#45;&gt;Node2</title>
<path fill="none" stroke="midnightblue" d="M123.98,-112.4C101.86,-102.51 72.53,-89.38 51.09,-79.79"/>
<polygon fill="midnightblue" stroke="midnightblue" points="52.41,-76.55 41.85,-75.66 49.55,-82.94 52.41,-76.55"/>
</g>
<!-- Node3 -->
<g id="node3" class="node">
<title>Node3</title>
<g id="a_node3"><a xlink:title=" ">
<polygon fill="none" stroke="#bfbfbf" points="63.5,-56.5 63.5,-75.5 111.5,-75.5 111.5,-56.5 63.5,-56.5"/>
<text text-anchor="middle" x="87.5" y="-63.5" font-family="Helvetica,sans-Serif" font-size="10.00">string.h</text>
</a>
</g>
</g>
<!-- Node1&#45;&gt;Node3 -->
<g id="edge2" class="edge">
<title>Node1&#45;&gt;Node3</title>
<path fill="none" stroke="midnightblue" d="M139.38,-112.4C129.1,-103.4 115.75,-91.72 105.17,-82.47"/>
<polygon fill="midnightblue" stroke="midnightblue" points="107.23,-79.61 97.39,-75.66 102.62,-84.88 107.23,-79.61"/>
</g>
<!-- Node4 -->
<g id="node4" class="node">
<title>Node4</title>
<g id="a_node4"><a xlink:title=" ">
<polygon fill="none" stroke="#bfbfbf" points="129.5,-56.5 129.5,-75.5 181.5,-75.5 181.5,-56.5 129.5,-56.5"/>
<text text-anchor="middle" x="155.5" y="-63.5" font-family="Helvetica,sans-Serif" font-size="10.00">sstream</text>
</a>
</g>
</g>
<!-- Node1&#45;&gt;Node4 -->
<g id="edge3" class="edge">
<title>Node1&#45;&gt;Node4</title>
<path fill="none" stroke="midnightblue" d="M155.5,-112.4C155.5,-104.47 155.5,-94.46 155.5,-85.86"/>
<polygon fill="midnightblue" stroke="midnightblue" points="159,-85.66 155.5,-75.66 152,-85.66 159,-85.66"/>
</g>
<!-- Node5 -->
<g id="node5" class="node">
<title>Node5</title>
<g id="a_node5"><a xlink:title=" ">
<polygon fill="none" stroke="#bfbfbf" points="199,-0.5 199,-19.5 252,-19.5 252,-0.5 199,-0.5"/>
<text text-anchor="middle" x="225.5" y="-7.5" font-family="Helvetica,sans-Serif" font-size="10.00">gu_util.h</text>
</a>
</g>
</g>
<!-- Node1&#45;&gt;Node5 -->
<g id="edge4" class="edge">
<title>Node1&#45;&gt;Node5</title>
<path fill="none" stroke="midnightblue" d="M166.05,-112.2C173.24,-102.24 182.81,-88.55 190.5,-76 200.11,-60.33 209.94,-41.81 216.72,-28.56"/>
<polygon fill="midnightblue" stroke="midnightblue" points="219.87,-30.09 221.27,-19.58 213.63,-26.93 219.87,-30.09"/>
</g>
<!-- Node6 -->
<g id="node6" class="node">
<title>Node6</title>
<g id="a_node6"><a xlink:href="wb__sensors__head__sensors_8h.html" target="_top" xlink:title=" ">
<polygon fill="none" stroke="black" points="238,-56.5 238,-75.5 381,-75.5 381,-56.5 238,-56.5"/>
<text text-anchor="middle" x="309.5" y="-63.5" font-family="Helvetica,sans-Serif" font-size="10.00">wb_sensors_head_sensors.h</text>
</a>
</g>
</g>
<!-- Node1&#45;&gt;Node6 -->
<g id="edge5" class="edge">
<title>Node1&#45;&gt;Node6</title>
<path fill="none" stroke="midnightblue" d="M192,-112.4C218.07,-102.33 252.79,-88.91 277.72,-79.28"/>
<polygon fill="midnightblue" stroke="midnightblue" points="279.03,-82.53 287.09,-75.66 276.5,-76 279.03,-82.53"/>
</g>
<!-- Node6&#45;&gt;Node5 -->
<g id="edge6" class="edge">
<title>Node6&#45;&gt;Node5</title>
<path fill="none" stroke="midnightblue" d="M296,-56.32C282.9,-47.9 262.79,-34.97 247.39,-25.07"/>
<polygon fill="midnightblue" stroke="midnightblue" points="249.27,-22.12 238.96,-19.65 245.48,-28.01 249.27,-22.12"/>
</g>
<!-- Node7 -->
<g id="node7" class="node">
<title>Node7</title>
<g id="a_node7"><a xlink:title=" ">
<polygon fill="none" stroke="#bfbfbf" points="285.5,-0.5 285.5,-19.5 333.5,-19.5 333.5,-0.5 285.5,-0.5"/>
<text text-anchor="middle" x="309.5" y="-7.5" font-family="Helvetica,sans-Serif" font-size="10.00">stdint.h</text>
</a>
</g>
</g>
<!-- Node6&#45;&gt;Node7 -->
<g id="edge7" class="edge">
<title>Node6&#45;&gt;Node7</title>
<path fill="none" stroke="midnightblue" d="M309.5,-56.08C309.5,-49.01 309.5,-38.86 309.5,-29.99"/>
<polygon fill="midnightblue" stroke="midnightblue" points="313,-29.75 309.5,-19.75 306,-29.75 313,-29.75"/>
</g>
</g>
</svg>
