<?xml version="1.0" encoding="UTF-8" standalone="no"?>
<!DOCTYPE svg PUBLIC "-//W3C//DTD SVG 1.1//EN"
 "http://www.w3.org/Graphics/SVG/1.1/DTD/svg11.dtd">
<!-- Generated by graphviz version 2.49.0 (20210830.1337)
 -->
<!-- Title: typeClassDefs/TeleoperationControlStatus.hpp Pages: 1 -->
<svg width="871pt" height="263pt"
 viewBox="0.00 0.00 871.00 263.00" xmlns="http://www.w3.org/2000/svg" xmlns:xlink="http://www.w3.org/1999/xlink">
<g id="graph0" class="graph" transform="scale(1 1) rotate(0) translate(4 259)">
<title>typeClassDefs/TeleoperationControlStatus.hpp</title>
<!-- Node1 -->
<g id="node1" class="node">
<title>Node1</title>
<g id="a_node1"><a xlink:title=" ">
<polygon fill="#bfbfbf" stroke="black" points="637.5,-224.5 637.5,-254.5 778.5,-254.5 778.5,-224.5 637.5,-224.5"/>
<text text-anchor="start" x="645.5" y="-242.5" font-family="Helvetica,sans-Serif" font-size="10.00">typeClassDefs/Teleoperation</text>
<text text-anchor="middle" x="708" y="-231.5" font-family="Helvetica,sans-Serif" font-size="10.00">ControlStatus.hpp</text>
</a>
</g>
</g>
<!-- Node2 -->
<g id="node2" class="node">
<title>Node2</title>
<g id="a_node2"><a xlink:href="_m_o_t_i_o_n___interface_8h.html" target="_top" xlink:title=" ">
<polygon fill="none" stroke="black" points="540.5,-168.5 540.5,-187.5 647.5,-187.5 647.5,-168.5 540.5,-168.5"/>
<text text-anchor="middle" x="594" y="-175.5" font-family="Helvetica,sans-Serif" font-size="10.00">MOTION_Interface.h</text>
</a>
</g>
</g>
<!-- Node1&#45;&gt;Node2 -->
<g id="edge1" class="edge">
<title>Node1&#45;&gt;Node2</title>
<path fill="none" stroke="midnightblue" d="M680.98,-224.4C662.37,-214.68 637.79,-201.86 619.51,-192.31"/>
<polygon fill="midnightblue" stroke="midnightblue" points="621.07,-189.18 610.59,-187.66 617.83,-195.39 621.07,-189.18"/>
</g>
<!-- Node10 -->
<g id="node10" class="node">
<title>Node10</title>
<g id="a_node10"><a xlink:title=" ">
<polygon fill="none" stroke="#bfbfbf" points="433.5,-0.5 433.5,-19.5 486.5,-19.5 486.5,-0.5 433.5,-0.5"/>
<text text-anchor="middle" x="460" y="-7.5" font-family="Helvetica,sans-Serif" font-size="10.00">gu_util.h</text>
</a>
</g>
</g>
<!-- Node1&#45;&gt;Node10 -->
<g id="edge24" class="edge">
<title>Node1&#45;&gt;Node10</title>
<path fill="none" stroke="midnightblue" d="M714.65,-224.11C729.17,-190.33 759.25,-105.06 718,-56 690.15,-22.87 561.01,-14.13 496.65,-11.82"/>
<polygon fill="midnightblue" stroke="midnightblue" points="496.65,-8.32 486.54,-11.5 496.42,-15.32 496.65,-8.32"/>
</g>
<!-- Node11 -->
<g id="node11" class="node">
<title>Node11</title>
<g id="a_node11"><a xlink:href="_vision_control_status_8h.html" target="_top" xlink:title=" ">
<polygon fill="none" stroke="black" points="365,-168.5 365,-187.5 475,-187.5 475,-168.5 365,-168.5"/>
<text text-anchor="middle" x="420" y="-175.5" font-family="Helvetica,sans-Serif" font-size="10.00">VisionControlStatus.h</text>
</a>
</g>
</g>
<!-- Node1&#45;&gt;Node11 -->
<g id="edge10" class="edge">
<title>Node1&#45;&gt;Node11</title>
<path fill="none" stroke="midnightblue" d="M640.11,-224.47C588.37,-213.78 518.22,-199.29 471.15,-189.57"/>
<polygon fill="midnightblue" stroke="midnightblue" points="471.68,-186.1 461.17,-187.51 470.26,-192.96 471.68,-186.1"/>
</g>
<!-- Node18 -->
<g id="node18" class="node">
<title>Node18</title>
<g id="a_node18"><a xlink:href="wb__teleoperation_8h.html" target="_top" xlink:title=" ">
<polygon fill="none" stroke="black" points="765,-168.5 765,-187.5 863,-187.5 863,-168.5 765,-168.5"/>
<text text-anchor="middle" x="814" y="-175.5" font-family="Helvetica,sans-Serif" font-size="10.00">wb_teleoperation.h</text>
</a>
</g>
</g>
<!-- Node1&#45;&gt;Node18 -->
<g id="edge21" class="edge">
<title>Node1&#45;&gt;Node18</title>
<path fill="none" stroke="midnightblue" d="M733.12,-224.4C750.27,-214.77 772.86,-202.09 789.81,-192.58"/>
<polygon fill="midnightblue" stroke="midnightblue" points="791.57,-195.6 798.58,-187.66 788.14,-189.5 791.57,-195.6"/>
</g>
<!-- Node3 -->
<g id="node3" class="node">
<title>Node3</title>
<g id="a_node3"><a xlink:href="_m_o_t_i_o_n___interface_8hpp.html" target="_top" xlink:title=" ">
<polygon fill="none" stroke="black" points="478,-112.5 478,-131.5 596,-131.5 596,-112.5 478,-112.5"/>
<text text-anchor="middle" x="537" y="-119.5" font-family="Helvetica,sans-Serif" font-size="10.00">MOTION_Interface.hpp</text>
</a>
</g>
</g>
<!-- Node2&#45;&gt;Node3 -->
<g id="edge2" class="edge">
<title>Node2&#45;&gt;Node3</title>
<path fill="none" stroke="midnightblue" d="M584.84,-168.32C576.5,-160.42 563.97,-148.55 553.82,-138.94"/>
<polygon fill="midnightblue" stroke="midnightblue" points="555.99,-136.17 546.32,-131.83 551.18,-141.25 555.99,-136.17"/>
</g>
<!-- Node4 -->
<g id="node4" class="node">
<title>Node4</title>
<g id="a_node4"><a xlink:title=" ">
<polygon fill="none" stroke="#bfbfbf" points="663.5,-56.5 663.5,-75.5 708.5,-75.5 708.5,-56.5 663.5,-56.5"/>
<text text-anchor="middle" x="686" y="-63.5" font-family="Helvetica,sans-Serif" font-size="10.00">cctype</text>
</a>
</g>
</g>
<!-- Node3&#45;&gt;Node4 -->
<g id="edge3" class="edge">
<title>Node3&#45;&gt;Node4</title>
<path fill="none" stroke="midnightblue" d="M560.61,-112.44C585.75,-103.33 625.7,-88.85 653.74,-78.69"/>
<polygon fill="midnightblue" stroke="midnightblue" points="655.27,-81.86 663.48,-75.16 652.88,-75.28 655.27,-81.86"/>
</g>
<!-- Node5 -->
<g id="node5" class="node">
<title>Node5</title>
<g id="a_node5"><a xlink:title=" ">
<polygon fill="none" stroke="#bfbfbf" points="386.5,-56.5 386.5,-75.5 431.5,-75.5 431.5,-56.5 386.5,-56.5"/>
<text text-anchor="middle" x="409" y="-63.5" font-family="Helvetica,sans-Serif" font-size="10.00">cstdlib</text>
</a>
</g>
</g>
<!-- Node3&#45;&gt;Node5 -->
<g id="edge4" class="edge">
<title>Node3&#45;&gt;Node5</title>
<path fill="none" stroke="midnightblue" d="M516.72,-112.44C495.65,-103.56 462.48,-89.56 438.51,-79.45"/>
<polygon fill="midnightblue" stroke="midnightblue" points="439.76,-76.18 429.19,-75.52 437.04,-82.63 439.76,-76.18"/>
</g>
<!-- Node6 -->
<g id="node6" class="node">
<title>Node6</title>
<g id="a_node6"><a xlink:title=" ">
<polygon fill="none" stroke="#bfbfbf" points="488.5,-56.5 488.5,-75.5 529.5,-75.5 529.5,-56.5 488.5,-56.5"/>
<text text-anchor="middle" x="509" y="-63.5" font-family="Helvetica,sans-Serif" font-size="10.00">string</text>
</a>
</g>
</g>
<!-- Node3&#45;&gt;Node6 -->
<g id="edge5" class="edge">
<title>Node3&#45;&gt;Node6</title>
<path fill="none" stroke="midnightblue" d="M532.38,-112.08C528.54,-104.69 522.98,-93.95 518.24,-84.81"/>
<polygon fill="midnightblue" stroke="midnightblue" points="521.25,-83.02 513.54,-75.75 515.03,-86.24 521.25,-83.02"/>
</g>
<!-- Node7 -->
<g id="node7" class="node">
<title>Node7</title>
<g id="a_node7"><a xlink:title=" ">
<polygon fill="none" stroke="#bfbfbf" points="316,-56.5 316,-75.5 368,-75.5 368,-56.5 316,-56.5"/>
<text text-anchor="middle" x="342" y="-63.5" font-family="Helvetica,sans-Serif" font-size="10.00">sstream</text>
</a>
</g>
</g>
<!-- Node3&#45;&gt;Node7 -->
<g id="edge6" class="edge">
<title>Node3&#45;&gt;Node7</title>
<path fill="none" stroke="midnightblue" d="M506.1,-112.44C471.25,-102.79 414.66,-87.12 377.89,-76.94"/>
<polygon fill="midnightblue" stroke="midnightblue" points="378.64,-73.52 368.07,-74.22 376.78,-80.26 378.64,-73.52"/>
</g>
<!-- Node8 -->
<g id="node8" class="node">
<title>Node8</title>
<g id="a_node8"><a xlink:title=" ">
<polygon fill="none" stroke="#bfbfbf" points="548,-56.5 548,-75.5 592,-75.5 592,-56.5 548,-56.5"/>
<text text-anchor="middle" x="570" y="-63.5" font-family="Helvetica,sans-Serif" font-size="10.00">vector</text>
</a>
</g>
</g>
<!-- Node3&#45;&gt;Node8 -->
<g id="edge7" class="edge">
<title>Node3&#45;&gt;Node8</title>
<path fill="none" stroke="midnightblue" d="M542.45,-112.08C547.01,-104.61 553.67,-93.72 559.29,-84.52"/>
<polygon fill="midnightblue" stroke="midnightblue" points="562.42,-86.11 564.65,-75.75 556.45,-82.46 562.42,-86.11"/>
</g>
<!-- Node9 -->
<g id="node9" class="node">
<title>Node9</title>
<g id="a_node9"><a xlink:title=" ">
<polygon fill="none" stroke="#bfbfbf" points="610.5,-56.5 610.5,-75.5 645.5,-75.5 645.5,-56.5 610.5,-56.5"/>
<text text-anchor="middle" x="628" y="-63.5" font-family="Helvetica,sans-Serif" font-size="10.00">map</text>
</a>
</g>
</g>
<!-- Node3&#45;&gt;Node9 -->
<g id="edge8" class="edge">
<title>Node3&#45;&gt;Node9</title>
<path fill="none" stroke="midnightblue" d="M551.62,-112.32C565.95,-103.82 588.01,-90.73 604.75,-80.8"/>
<polygon fill="midnightblue" stroke="midnightblue" points="606.6,-83.77 613.42,-75.65 603.03,-77.75 606.6,-83.77"/>
</g>
<!-- Node3&#45;&gt;Node10 -->
<g id="edge9" class="edge">
<title>Node3&#45;&gt;Node10</title>
<path fill="none" stroke="midnightblue" d="M520.94,-112.37C507.82,-104.54 489.76,-91.8 479,-76 469.59,-62.18 464.77,-43.66 462.35,-29.92"/>
<polygon fill="midnightblue" stroke="midnightblue" points="465.76,-29.09 460.83,-19.72 458.84,-30.13 465.76,-29.09"/>
</g>
<!-- Node12 -->
<g id="node12" class="node">
<title>Node12</title>
<g id="a_node12"><a xlink:href="_vision_control_status_8hpp.html" target="_top" xlink:title=" ">
<polygon fill="none" stroke="black" points="227.5,-112.5 227.5,-131.5 348.5,-131.5 348.5,-112.5 227.5,-112.5"/>
<text text-anchor="middle" x="288" y="-119.5" font-family="Helvetica,sans-Serif" font-size="10.00">VisionControlStatus.hpp</text>
</a>
</g>
</g>
<!-- Node11&#45;&gt;Node12 -->
<g id="edge11" class="edge">
<title>Node11&#45;&gt;Node12</title>
<path fill="none" stroke="midnightblue" d="M399.08,-168.44C377.26,-159.52 342.85,-145.44 318.11,-135.32"/>
<polygon fill="midnightblue" stroke="midnightblue" points="319.4,-132.06 308.82,-131.52 316.75,-138.54 319.4,-132.06"/>
</g>
<!-- Node12&#45;&gt;Node5 -->
<g id="edge12" class="edge">
<title>Node12&#45;&gt;Node5</title>
<path fill="none" stroke="midnightblue" d="M307.17,-112.44C326.91,-103.64 357.89,-89.81 380.49,-79.72"/>
<polygon fill="midnightblue" stroke="midnightblue" points="382.21,-82.79 389.92,-75.52 379.36,-76.4 382.21,-82.79"/>
</g>
<!-- Node12&#45;&gt;Node7 -->
<g id="edge14" class="edge">
<title>Node12&#45;&gt;Node7</title>
<path fill="none" stroke="midnightblue" d="M296.92,-112.08C304.78,-104.22 316.43,-92.57 325.92,-83.08"/>
<polygon fill="midnightblue" stroke="midnightblue" points="328.65,-85.3 333.25,-75.75 323.7,-80.35 328.65,-85.3"/>
</g>
<!-- Node12&#45;&gt;Node10 -->
<g id="edge15" class="edge">
<title>Node12&#45;&gt;Node10</title>
<path fill="none" stroke="midnightblue" d="M288.04,-112.1C288.59,-98.19 291.72,-71.31 307,-56 337.85,-25.1 388.74,-15.19 423.28,-12.14"/>
<polygon fill="midnightblue" stroke="midnightblue" points="423.72,-15.62 433.44,-11.4 423.21,-8.64 423.72,-15.62"/>
</g>
<!-- Node13 -->
<g id="node13" class="node">
<title>Node13</title>
<g id="a_node13"><a xlink:title=" ">
<polygon fill="none" stroke="#bfbfbf" points="0,-56.5 0,-75.5 48,-75.5 48,-56.5 0,-56.5"/>
<text text-anchor="middle" x="24" y="-63.5" font-family="Helvetica,sans-Serif" font-size="10.00">string.h</text>
</a>
</g>
</g>
<!-- Node12&#45;&gt;Node13 -->
<g id="edge13" class="edge">
<title>Node12&#45;&gt;Node13</title>
<path fill="none" stroke="midnightblue" d="M238.66,-112.48C193.93,-104.51 126.01,-91.8 58.11,-76.13"/>
<polygon fill="midnightblue" stroke="midnightblue" points="58.63,-72.65 48.1,-73.79 57.04,-79.47 58.63,-72.65"/>
</g>
<!-- Node14 -->
<g id="node14" class="node">
<title>Node14</title>
<g id="a_node14"><a xlink:href="wb__vision__control__status_8h.html" target="_top" xlink:title=" ">
<polygon fill="none" stroke="black" points="126,-56.5 126,-75.5 260,-75.5 260,-56.5 126,-56.5"/>
<text text-anchor="middle" x="193" y="-63.5" font-family="Helvetica,sans-Serif" font-size="10.00">wb_vision_control_status.h</text>
</a>
</g>
</g>
<!-- Node12&#45;&gt;Node14 -->
<g id="edge16" class="edge">
<title>Node12&#45;&gt;Node14</title>
<path fill="none" stroke="midnightblue" d="M272.74,-112.32C257.78,-103.82 234.75,-90.73 217.27,-80.8"/>
<polygon fill="midnightblue" stroke="midnightblue" points="218.65,-77.55 208.23,-75.65 215.19,-83.64 218.65,-77.55"/>
</g>
<!-- Node17 -->
<g id="node17" class="node">
<title>Node17</title>
<g id="a_node17"><a xlink:title=" ">
<polygon fill="none" stroke="#bfbfbf" points="66,-56.5 66,-75.5 108,-75.5 108,-56.5 66,-56.5"/>
<text text-anchor="middle" x="87" y="-63.5" font-family="Helvetica,sans-Serif" font-size="10.00">float.h</text>
</a>
</g>
</g>
<!-- Node12&#45;&gt;Node17 -->
<g id="edge20" class="edge">
<title>Node12&#45;&gt;Node17</title>
<path fill="none" stroke="midnightblue" d="M254.16,-112.46C221.63,-104.17 170.82,-91.01 118.13,-76.25"/>
<polygon fill="midnightblue" stroke="midnightblue" points="118.85,-72.82 108.28,-73.48 116.96,-79.56 118.85,-72.82"/>
</g>
<!-- Node14&#45;&gt;Node10 -->
<g id="edge17" class="edge">
<title>Node14&#45;&gt;Node10</title>
<path fill="none" stroke="midnightblue" d="M235.31,-56.44C287.2,-45.95 374.3,-28.33 423.43,-18.4"/>
<polygon fill="midnightblue" stroke="midnightblue" points="424.2,-21.81 433.31,-16.4 422.81,-14.95 424.2,-21.81"/>
</g>
<!-- Node15 -->
<g id="node15" class="node">
<title>Node15</title>
<g id="a_node15"><a xlink:title=" ">
<polygon fill="none" stroke="#bfbfbf" points="133,-0.5 133,-19.5 181,-19.5 181,-0.5 133,-0.5"/>
<text text-anchor="middle" x="157" y="-7.5" font-family="Helvetica,sans-Serif" font-size="10.00">stdint.h</text>
</a>
</g>
</g>
<!-- Node14&#45;&gt;Node15 -->
<g id="edge18" class="edge">
<title>Node14&#45;&gt;Node15</title>
<path fill="none" stroke="midnightblue" d="M187.06,-56.08C182.02,-48.53 174.66,-37.49 168.49,-28.23"/>
<polygon fill="midnightblue" stroke="midnightblue" points="171.29,-26.13 162.83,-19.75 165.47,-30.01 171.29,-26.13"/>
</g>
<!-- Node16 -->
<g id="node16" class="node">
<title>Node16</title>
<g id="a_node16"><a xlink:title=" ">
<polygon fill="none" stroke="#bfbfbf" points="199.5,-0.5 199.5,-19.5 260.5,-19.5 260.5,-0.5 199.5,-0.5"/>
<text text-anchor="middle" x="230" y="-7.5" font-family="Helvetica,sans-Serif" font-size="10.00">sys/time.h</text>
</a>
</g>
</g>
<!-- Node14&#45;&gt;Node16 -->
<g id="edge19" class="edge">
<title>Node14&#45;&gt;Node16</title>
<path fill="none" stroke="midnightblue" d="M199.11,-56.08C204.28,-48.53 211.85,-37.49 218.19,-28.23"/>
<polygon fill="midnightblue" stroke="midnightblue" points="221.24,-29.98 224,-19.75 215.46,-26.02 221.24,-29.98"/>
</g>
<!-- Node18&#45;&gt;Node10 -->
<g id="edge23" class="edge">
<title>Node18&#45;&gt;Node10</title>
<path fill="none" stroke="midnightblue" d="M822.31,-168.28C833.43,-155.51 850.58,-131.15 840,-112 817.41,-71.09 794.78,-72.35 751,-56 663.72,-23.39 553.22,-14.41 496.8,-11.93"/>
<polygon fill="midnightblue" stroke="midnightblue" points="496.72,-8.43 486.59,-11.53 496.45,-15.42 496.72,-8.43"/>
</g>
<!-- Node19 -->
<g id="node19" class="node">
<title>Node19</title>
<g id="a_node19"><a xlink:title=" ">
<polygon fill="none" stroke="#bfbfbf" points="765.5,-112.5 765.5,-131.5 830.5,-131.5 830.5,-112.5 765.5,-112.5"/>
<text text-anchor="middle" x="798" y="-119.5" font-family="Helvetica,sans-Serif" font-size="10.00">sys/types.h</text>
</a>
</g>
</g>
<!-- Node18&#45;&gt;Node19 -->
<g id="edge22" class="edge">
<title>Node18&#45;&gt;Node19</title>
<path fill="none" stroke="midnightblue" d="M811.36,-168.08C809.21,-160.85 806.12,-150.41 803.45,-141.4"/>
<polygon fill="midnightblue" stroke="midnightblue" points="806.79,-140.34 800.59,-131.75 800.08,-142.33 806.79,-140.34"/>
</g>
</g>
</svg>
