<?xml version="1.0" encoding="UTF-8" standalone="no"?>
<!DOCTYPE svg PUBLIC "-//W3C//DTD SVG 1.1//EN"
 "http://www.w3.org/Graphics/SVG/1.1/DTD/svg11.dtd">
<!-- Generated by graphviz version 2.49.0 (20210830.1337)
 -->
<!-- Title: typeClassDefs/TeleoperationControlVR.h Pages: 1 -->
<svg width="431pt" height="218pt"
 viewBox="0.00 0.00 430.50 218.00" xmlns="http://www.w3.org/2000/svg" xmlns:xlink="http://www.w3.org/1999/xlink">
<g id="graph0" class="graph" transform="scale(1 1) rotate(0) translate(4 214)">
<title>typeClassDefs/TeleoperationControlVR.h</title>
<!-- Node1 -->
<g id="node1" class="node">
<title>Node1</title>
<g id="a_node1"><a xlink:title=" ">
<polygon fill="#bfbfbf" stroke="black" points="112,-179.5 112,-209.5 253,-209.5 253,-179.5 112,-179.5"/>
<text text-anchor="start" x="120" y="-197.5" font-family="Helvetica,sans-Serif" font-size="10.00">typeClassDefs/Teleoperation</text>
<text text-anchor="middle" x="182.5" y="-186.5" font-family="Helvetica,sans-Serif" font-size="10.00">ControlVR.h</text>
</a>
</g>
</g>
<!-- Node2 -->
<g id="node2" class="node">
<title>Node2</title>
<g id="a_node2"><a xlink:href="_teleoperation_control_v_r_8hpp.html" target="_top" xlink:title=" ">
<polygon fill="none" stroke="black" points="114,-123.5 114,-142.5 251,-142.5 251,-123.5 114,-123.5"/>
<text text-anchor="middle" x="182.5" y="-130.5" font-family="Helvetica,sans-Serif" font-size="10.00">TeleoperationControlVR.hpp</text>
</a>
</g>
</g>
<!-- Node1&#45;&gt;Node2 -->
<g id="edge1" class="edge">
<title>Node1&#45;&gt;Node2</title>
<path fill="none" stroke="midnightblue" d="M182.5,-179.4C182.5,-171.47 182.5,-161.46 182.5,-152.86"/>
<polygon fill="midnightblue" stroke="midnightblue" points="186,-152.66 182.5,-142.66 179,-152.66 186,-152.66"/>
</g>
<!-- Node3 -->
<g id="node3" class="node">
<title>Node3</title>
<g id="a_node3"><a xlink:title=" ">
<polygon fill="none" stroke="#bfbfbf" points="0,-62 0,-81 45,-81 45,-62 0,-62"/>
<text text-anchor="middle" x="22.5" y="-69" font-family="Helvetica,sans-Serif" font-size="10.00">cstdlib</text>
</a>
</g>
</g>
<!-- Node2&#45;&gt;Node3 -->
<g id="edge2" class="edge">
<title>Node2&#45;&gt;Node3</title>
<path fill="none" stroke="midnightblue" d="M155.77,-123.36C129.7,-114.76 89.04,-100.87 54.5,-87 53.08,-86.43 51.64,-85.84 50.19,-85.22"/>
<polygon fill="midnightblue" stroke="midnightblue" points="51.22,-81.86 40.66,-81.06 48.42,-88.27 51.22,-81.86"/>
</g>
<!-- Node4 -->
<g id="node4" class="node">
<title>Node4</title>
<g id="a_node4"><a xlink:title=" ">
<polygon fill="none" stroke="#bfbfbf" points="63.5,-62 63.5,-81 111.5,-81 111.5,-62 63.5,-62"/>
<text text-anchor="middle" x="87.5" y="-69" font-family="Helvetica,sans-Serif" font-size="10.00">string.h</text>
</a>
</g>
</g>
<!-- Node2&#45;&gt;Node4 -->
<g id="edge3" class="edge">
<title>Node2&#45;&gt;Node4</title>
<path fill="none" stroke="midnightblue" d="M168.89,-123.48C153.44,-113.8 128.01,-97.87 109.68,-86.39"/>
<polygon fill="midnightblue" stroke="midnightblue" points="111.42,-83.35 101.09,-81.01 107.7,-89.28 111.42,-83.35"/>
</g>
<!-- Node5 -->
<g id="node5" class="node">
<title>Node5</title>
<g id="a_node5"><a xlink:title=" ">
<polygon fill="none" stroke="#bfbfbf" points="129.5,-62 129.5,-81 181.5,-81 181.5,-62 129.5,-62"/>
<text text-anchor="middle" x="155.5" y="-69" font-family="Helvetica,sans-Serif" font-size="10.00">sstream</text>
</a>
</g>
</g>
<!-- Node2&#45;&gt;Node5 -->
<g id="edge4" class="edge">
<title>Node2&#45;&gt;Node5</title>
<path fill="none" stroke="midnightblue" d="M178.63,-123.48C174.7,-114.82 168.5,-101.15 163.51,-90.15"/>
<polygon fill="midnightblue" stroke="midnightblue" points="166.68,-88.67 159.36,-81.01 160.31,-91.56 166.68,-88.67"/>
</g>
<!-- Node6 -->
<g id="node6" class="node">
<title>Node6</title>
<g id="a_node6"><a xlink:title=" ">
<polygon fill="none" stroke="#bfbfbf" points="194,-0.5 194,-19.5 247,-19.5 247,-0.5 194,-0.5"/>
<text text-anchor="middle" x="220.5" y="-7.5" font-family="Helvetica,sans-Serif" font-size="10.00">gu_util.h</text>
</a>
</g>
</g>
<!-- Node2&#45;&gt;Node6 -->
<g id="edge5" class="edge">
<title>Node2&#45;&gt;Node6</title>
<path fill="none" stroke="midnightblue" d="M185.23,-123.3C191.4,-103.68 206.48,-55.64 214.79,-29.19"/>
<polygon fill="midnightblue" stroke="midnightblue" points="218.13,-30.21 217.79,-19.62 211.46,-28.12 218.13,-30.21"/>
</g>
<!-- Node7 -->
<g id="node7" class="node">
<title>Node7</title>
<g id="a_node7"><a xlink:href="wb__teleoperation__control__v__r_8h.html" target="_top" xlink:title=" ">
<polygon fill="none" stroke="black" points="238,-56.5 238,-86.5 363,-86.5 363,-56.5 238,-56.5"/>
<text text-anchor="start" x="246" y="-74.5" font-family="Helvetica,sans-Serif" font-size="10.00">wb_teleoperation_control</text>
<text text-anchor="middle" x="300.5" y="-63.5" font-family="Helvetica,sans-Serif" font-size="10.00">_v_r.h</text>
</a>
</g>
</g>
<!-- Node2&#45;&gt;Node7 -->
<g id="edge6" class="edge">
<title>Node2&#45;&gt;Node7</title>
<path fill="none" stroke="midnightblue" d="M199.41,-123.48C216.06,-115.08 242.05,-101.97 263.51,-91.15"/>
<polygon fill="midnightblue" stroke="midnightblue" points="265.34,-94.15 272.69,-86.52 262.18,-87.9 265.34,-94.15"/>
</g>
<!-- Node9 -->
<g id="node9" class="node">
<title>Node9</title>
<g id="a_node9"><a xlink:title=" ">
<polygon fill="none" stroke="#bfbfbf" points="380.5,-62 380.5,-81 422.5,-81 422.5,-62 380.5,-62"/>
<text text-anchor="middle" x="401.5" y="-69" font-family="Helvetica,sans-Serif" font-size="10.00">float.h</text>
</a>
</g>
</g>
<!-- Node2&#45;&gt;Node9 -->
<g id="edge9" class="edge">
<title>Node2&#45;&gt;Node9</title>
<path fill="none" stroke="midnightblue" d="M232.22,-123.49C271.1,-116.06 326.14,-103.82 372.5,-87 373.92,-86.48 375.37,-85.92 376.81,-85.31"/>
<polygon fill="midnightblue" stroke="midnightblue" points="378.53,-88.38 386.14,-81.01 375.59,-82.02 378.53,-88.38"/>
</g>
<!-- Node7&#45;&gt;Node6 -->
<g id="edge7" class="edge">
<title>Node7&#45;&gt;Node6</title>
<path fill="none" stroke="midnightblue" d="M281.54,-56.4C269.08,-47.13 252.8,-35.03 240.19,-25.65"/>
<polygon fill="midnightblue" stroke="midnightblue" points="242.25,-22.82 232.14,-19.66 238.08,-28.43 242.25,-22.82"/>
</g>
<!-- Node8 -->
<g id="node8" class="node">
<title>Node8</title>
<g id="a_node8"><a xlink:title=" ">
<polygon fill="none" stroke="#bfbfbf" points="276.5,-0.5 276.5,-19.5 324.5,-19.5 324.5,-0.5 276.5,-0.5"/>
<text text-anchor="middle" x="300.5" y="-7.5" font-family="Helvetica,sans-Serif" font-size="10.00">stdint.h</text>
</a>
</g>
</g>
<!-- Node7&#45;&gt;Node8 -->
<g id="edge8" class="edge">
<title>Node7&#45;&gt;Node8</title>
<path fill="none" stroke="midnightblue" d="M300.5,-56.4C300.5,-48.47 300.5,-38.46 300.5,-29.86"/>
<polygon fill="midnightblue" stroke="midnightblue" points="304,-29.66 300.5,-19.66 297,-29.66 304,-29.66"/>
</g>
</g>
</svg>
