<?xml version="1.0" encoding="UTF-8" standalone="no"?>
<!DOCTYPE svg PUBLIC "-//W3C//DTD SVG 1.1//EN"
 "http://www.w3.org/Graphics/SVG/1.1/DTD/svg11.dtd">
<!-- Generated by graphviz version 2.49.0 (20210830.1337)
 -->
<!-- Title: typeClassDefs/TopParticles.hpp Pages: 1 -->
<svg width="580pt" height="364pt"
 viewBox="0.00 0.00 580.00 364.00" xmlns="http://www.w3.org/2000/svg" xmlns:xlink="http://www.w3.org/1999/xlink">
<g id="graph0" class="graph" transform="scale(1 1) rotate(0) translate(4 360)">
<title>typeClassDefs/TopParticles.hpp</title>
<!-- Node1 -->
<g id="node1" class="node">
<title>Node1</title>
<g id="a_node1"><a xlink:title=" ">
<polygon fill="#bfbfbf" stroke="black" points="55.5,-336.5 55.5,-355.5 210.5,-355.5 210.5,-336.5 55.5,-336.5"/>
<text text-anchor="middle" x="133" y="-343.5" font-family="Helvetica,sans-Serif" font-size="10.00">typeClassDefs/TopParticles.hpp</text>
</a>
</g>
</g>
<!-- Node2 -->
<g id="node2" class="node">
<title>Node2</title>
<g id="a_node2"><a xlink:title=" ">
<polygon fill="none" stroke="#bfbfbf" points="50.5,-56.5 50.5,-75.5 95.5,-75.5 95.5,-56.5 50.5,-56.5"/>
<text text-anchor="middle" x="73" y="-63.5" font-family="Helvetica,sans-Serif" font-size="10.00">cstdlib</text>
</a>
</g>
</g>
<!-- Node1&#45;&gt;Node2 -->
<g id="edge1" class="edge">
<title>Node1&#45;&gt;Node2</title>
<path fill="none" stroke="midnightblue" d="M117.31,-336.4C90.33,-320.31 38,-282.94 38,-235 38,-235 38,-235 38,-177 38,-143.07 53.31,-105.91 63.68,-84.63"/>
<polygon fill="midnightblue" stroke="midnightblue" points="66.88,-86.05 68.28,-75.54 60.64,-82.88 66.88,-86.05"/>
</g>
<!-- Node3 -->
<g id="node3" class="node">
<title>Node3</title>
<g id="a_node3"><a xlink:title=" ">
<polygon fill="none" stroke="#bfbfbf" points="114,-56.5 114,-75.5 162,-75.5 162,-56.5 114,-56.5"/>
<text text-anchor="middle" x="138" y="-63.5" font-family="Helvetica,sans-Serif" font-size="10.00">string.h</text>
</a>
</g>
</g>
<!-- Node1&#45;&gt;Node3 -->
<g id="edge2" class="edge">
<title>Node1&#45;&gt;Node3</title>
<path fill="none" stroke="midnightblue" d="M133.16,-336.38C133.85,-297.78 136.68,-140.45 137.66,-85.81"/>
<polygon fill="midnightblue" stroke="midnightblue" points="141.17,-85.59 137.85,-75.52 134.17,-85.46 141.17,-85.59"/>
</g>
<!-- Node4 -->
<g id="node4" class="node">
<title>Node4</title>
<g id="a_node4"><a xlink:title=" ">
<polygon fill="none" stroke="#bfbfbf" points="281,-56.5 281,-75.5 333,-75.5 333,-56.5 281,-56.5"/>
<text text-anchor="middle" x="307" y="-63.5" font-family="Helvetica,sans-Serif" font-size="10.00">sstream</text>
</a>
</g>
</g>
<!-- Node1&#45;&gt;Node4 -->
<g id="edge3" class="edge">
<title>Node1&#45;&gt;Node4</title>
<path fill="none" stroke="midnightblue" d="M167.84,-336.42C226.93,-319.66 344.34,-276.25 385,-188 388.72,-179.93 387.87,-176.41 385,-168 373.11,-133.14 343.76,-100.96 324.65,-82.68"/>
<polygon fill="midnightblue" stroke="midnightblue" points="326.88,-79.97 317.17,-75.73 322.12,-85.1 326.88,-79.97"/>
</g>
<!-- Node5 -->
<g id="node5" class="node">
<title>Node5</title>
<g id="a_node5"><a xlink:title=" ">
<polygon fill="none" stroke="#bfbfbf" points="294.5,-0.5 294.5,-19.5 347.5,-19.5 347.5,-0.5 294.5,-0.5"/>
<text text-anchor="middle" x="321" y="-7.5" font-family="Helvetica,sans-Serif" font-size="10.00">gu_util.h</text>
</a>
</g>
</g>
<!-- Node1&#45;&gt;Node5 -->
<g id="edge4" class="edge">
<title>Node1&#45;&gt;Node5</title>
<path fill="none" stroke="midnightblue" d="M106.09,-336.41C67.22,-322.13 0,-289.54 0,-235 0,-235 0,-235 0,-121 0,-86.84 12.5,-74.82 41,-56 80.39,-29.99 217.85,-17.7 284.38,-13.17"/>
<polygon fill="midnightblue" stroke="midnightblue" points="284.67,-16.65 294.42,-12.5 284.21,-9.67 284.67,-16.65"/>
</g>
<!-- Node6 -->
<g id="node6" class="node">
<title>Node6</title>
<g id="a_node6"><a xlink:href="wb__top__particles_8h.html" target="_top" xlink:title=" ">
<polygon fill="none" stroke="black" points="474,-168.5 474,-187.5 572,-187.5 572,-168.5 474,-168.5"/>
<text text-anchor="middle" x="523" y="-175.5" font-family="Helvetica,sans-Serif" font-size="10.00">wb_top_particles.h</text>
</a>
</g>
</g>
<!-- Node1&#45;&gt;Node6 -->
<g id="edge5" class="edge">
<title>Node1&#45;&gt;Node6</title>
<path fill="none" stroke="midnightblue" d="M210.76,-338.74C282.62,-331.88 383.34,-319.22 418,-300 462.84,-275.13 497.55,-223.33 513.47,-196.28"/>
<polygon fill="midnightblue" stroke="midnightblue" points="516.55,-197.95 518.47,-187.53 510.47,-194.48 516.55,-197.95"/>
</g>
<!-- Node10 -->
<g id="node10" class="node">
<title>Node10</title>
<g id="a_node10"><a xlink:href="_particle_position_8h.html" target="_top" xlink:title=" ">
<polygon fill="none" stroke="black" points="153,-280.5 153,-299.5 245,-299.5 245,-280.5 153,-280.5"/>
<text text-anchor="middle" x="199" y="-287.5" font-family="Helvetica,sans-Serif" font-size="10.00">ParticlePosition.h</text>
</a>
</g>
</g>
<!-- Node1&#45;&gt;Node10 -->
<g id="edge14" class="edge">
<title>Node1&#45;&gt;Node10</title>
<path fill="none" stroke="midnightblue" d="M143.6,-336.32C153.46,-328.26 168.35,-316.08 180.22,-306.37"/>
<polygon fill="midnightblue" stroke="midnightblue" points="182.68,-308.88 188.2,-299.83 178.25,-303.46 182.68,-308.88"/>
</g>
<!-- Node6&#45;&gt;Node5 -->
<g id="edge6" class="edge">
<title>Node6&#45;&gt;Node5</title>
<path fill="none" stroke="midnightblue" d="M522.53,-168.47C521.49,-155.51 518.22,-130.44 508,-112 490.94,-81.21 481.86,-74.64 452,-56 422.7,-37.71 385.03,-25.77 357.62,-18.82"/>
<polygon fill="midnightblue" stroke="midnightblue" points="358.19,-15.36 347.65,-16.4 356.54,-22.16 358.19,-15.36"/>
</g>
<!-- Node7 -->
<g id="node7" class="node">
<title>Node7</title>
<g id="a_node7"><a xlink:title=" ">
<polygon fill="none" stroke="#bfbfbf" points="523,-0.5 523,-19.5 571,-19.5 571,-0.5 523,-0.5"/>
<text text-anchor="middle" x="547" y="-7.5" font-family="Helvetica,sans-Serif" font-size="10.00">stdint.h</text>
</a>
</g>
</g>
<!-- Node6&#45;&gt;Node7 -->
<g id="edge7" class="edge">
<title>Node6&#45;&gt;Node7</title>
<path fill="none" stroke="midnightblue" d="M527.48,-168.31C531.81,-159.44 538.13,-145.15 541,-132 548.75,-96.51 548.77,-53.82 547.97,-29.81"/>
<polygon fill="midnightblue" stroke="midnightblue" points="551.46,-29.48 547.54,-19.64 544.46,-29.78 551.46,-29.48"/>
</g>
<!-- Node8 -->
<g id="node8" class="node">
<title>Node8</title>
<g id="a_node8"><a xlink:href="wb__particle__position_8h.html" target="_top" xlink:title=" ">
<polygon fill="none" stroke="black" points="385.5,-112.5 385.5,-131.5 498.5,-131.5 498.5,-112.5 385.5,-112.5"/>
<text text-anchor="middle" x="442" y="-119.5" font-family="Helvetica,sans-Serif" font-size="10.00">wb_particle_position.h</text>
</a>
</g>
</g>
<!-- Node6&#45;&gt;Node8 -->
<g id="edge8" class="edge">
<title>Node6&#45;&gt;Node8</title>
<path fill="none" stroke="midnightblue" d="M509.99,-168.32C497.47,-159.98 478.32,-147.21 463.53,-137.35"/>
<polygon fill="midnightblue" stroke="midnightblue" points="465.24,-134.29 454.98,-131.65 461.36,-140.11 465.24,-134.29"/>
</g>
<!-- Node8&#45;&gt;Node5 -->
<g id="edge9" class="edge">
<title>Node8&#45;&gt;Node5</title>
<path fill="none" stroke="midnightblue" d="M443.49,-112.4C445.32,-98.9 446.78,-72.56 434,-56 415.75,-32.34 383.15,-21.09 357.64,-15.76"/>
<polygon fill="midnightblue" stroke="midnightblue" points="358.03,-12.27 347.55,-13.87 356.74,-19.15 358.03,-12.27"/>
</g>
<!-- Node8&#45;&gt;Node7 -->
<g id="edge10" class="edge">
<title>Node8&#45;&gt;Node7</title>
<path fill="none" stroke="midnightblue" d="M450.24,-112.37C467.8,-93.97 509.13,-50.67 531.68,-27.05"/>
<polygon fill="midnightblue" stroke="midnightblue" points="534.43,-29.24 538.8,-19.59 529.36,-24.41 534.43,-29.24"/>
</g>
<!-- Node9 -->
<g id="node9" class="node">
<title>Node9</title>
<g id="a_node9"><a xlink:href="wb__point2d_8h.html" target="_top" xlink:title=" ">
<polygon fill="none" stroke="black" points="351,-56.5 351,-75.5 425,-75.5 425,-56.5 351,-56.5"/>
<text text-anchor="middle" x="388" y="-63.5" font-family="Helvetica,sans-Serif" font-size="10.00">wb_point2d.h</text>
</a>
</g>
</g>
<!-- Node8&#45;&gt;Node9 -->
<g id="edge11" class="edge">
<title>Node8&#45;&gt;Node9</title>
<path fill="none" stroke="midnightblue" d="M433.08,-112.08C425.22,-104.22 413.57,-92.57 404.08,-83.08"/>
<polygon fill="midnightblue" stroke="midnightblue" points="406.3,-80.35 396.75,-75.75 401.35,-85.3 406.3,-80.35"/>
</g>
<!-- Node9&#45;&gt;Node5 -->
<g id="edge12" class="edge">
<title>Node9&#45;&gt;Node5</title>
<path fill="none" stroke="midnightblue" d="M377.24,-56.32C367.23,-48.26 352.11,-36.08 340.07,-26.37"/>
<polygon fill="midnightblue" stroke="midnightblue" points="341.94,-23.38 331.96,-19.83 337.55,-28.83 341.94,-23.38"/>
</g>
<!-- Node9&#45;&gt;Node7 -->
<g id="edge13" class="edge">
<title>Node9&#45;&gt;Node7</title>
<path fill="none" stroke="midnightblue" d="M413.19,-56.44C440.26,-47.25 483.4,-32.6 513.36,-22.43"/>
<polygon fill="midnightblue" stroke="midnightblue" points="514.62,-25.69 522.96,-19.16 512.37,-19.06 514.62,-25.69"/>
</g>
<!-- Node11 -->
<g id="node11" class="node">
<title>Node11</title>
<g id="a_node11"><a xlink:href="_particle_position_8hpp.html" target="_top" xlink:title=" ">
<polygon fill="none" stroke="black" points="167.5,-224.5 167.5,-243.5 270.5,-243.5 270.5,-224.5 167.5,-224.5"/>
<text text-anchor="middle" x="219" y="-231.5" font-family="Helvetica,sans-Serif" font-size="10.00">ParticlePosition.hpp</text>
</a>
</g>
</g>
<!-- Node10&#45;&gt;Node11 -->
<g id="edge15" class="edge">
<title>Node10&#45;&gt;Node11</title>
<path fill="none" stroke="midnightblue" d="M202.3,-280.08C204.98,-272.85 208.85,-262.41 212.19,-253.4"/>
<polygon fill="midnightblue" stroke="midnightblue" points="215.57,-254.34 215.76,-243.75 209,-251.91 215.57,-254.34"/>
</g>
<!-- Node11&#45;&gt;Node2 -->
<g id="edge16" class="edge">
<title>Node11&#45;&gt;Node2</title>
<path fill="none" stroke="midnightblue" d="M205.96,-224.24C193.84,-215.76 175.67,-202.14 162,-188 129.52,-154.4 98.9,-108.54 83.45,-84.06"/>
<polygon fill="midnightblue" stroke="midnightblue" points="86.39,-82.16 78.13,-75.52 80.45,-85.86 86.39,-82.16"/>
</g>
<!-- Node11&#45;&gt;Node3 -->
<g id="edge17" class="edge">
<title>Node11&#45;&gt;Node3</title>
<path fill="none" stroke="midnightblue" d="M208.37,-224.41C198.66,-216.05 184.57,-202.51 176,-188 156.39,-154.79 145.82,-110.37 141.11,-85.64"/>
<polygon fill="midnightblue" stroke="midnightblue" points="144.55,-85 139.34,-75.77 137.66,-86.23 144.55,-85"/>
</g>
<!-- Node11&#45;&gt;Node4 -->
<g id="edge18" class="edge">
<title>Node11&#45;&gt;Node4</title>
<path fill="none" stroke="midnightblue" d="M239.52,-224.5C254.75,-217.11 274.75,-204.92 286,-188 306.78,-156.74 308.91,-111.26 308.21,-85.89"/>
<polygon fill="midnightblue" stroke="midnightblue" points="311.71,-85.61 307.75,-75.78 304.71,-85.93 311.71,-85.61"/>
</g>
<!-- Node11&#45;&gt;Node5 -->
<g id="edge19" class="edge">
<title>Node11&#45;&gt;Node5</title>
<path fill="none" stroke="midnightblue" d="M215.8,-224.42C208.74,-204.09 193.63,-151.71 209,-112 224.71,-71.42 267.23,-40.96 295.13,-24.58"/>
<polygon fill="midnightblue" stroke="midnightblue" points="296.99,-27.55 303.97,-19.57 293.54,-21.46 296.99,-27.55"/>
</g>
<!-- Node11&#45;&gt;Node8 -->
<g id="edge20" class="edge">
<title>Node11&#45;&gt;Node8</title>
<path fill="none" stroke="midnightblue" d="M270.76,-226.91C305.19,-221.02 350.29,-209.65 385,-188 404.43,-175.88 420.95,-155.12 431.12,-140.32"/>
<polygon fill="midnightblue" stroke="midnightblue" points="434.28,-141.88 436.86,-131.61 428.43,-138.03 434.28,-141.88"/>
</g>
<!-- Node12 -->
<g id="node12" class="node">
<title>Node12</title>
<g id="a_node12"><a xlink:title=" ">
<polygon fill="none" stroke="#bfbfbf" points="334,-168.5 334,-187.5 376,-187.5 376,-168.5 334,-168.5"/>
<text text-anchor="middle" x="355" y="-175.5" font-family="Helvetica,sans-Serif" font-size="10.00">float.h</text>
</a>
</g>
</g>
<!-- Node11&#45;&gt;Node12 -->
<g id="edge21" class="edge">
<title>Node11&#45;&gt;Node12</title>
<path fill="none" stroke="midnightblue" d="M240.55,-224.44C263.16,-215.46 298.91,-201.27 324.43,-191.14"/>
<polygon fill="midnightblue" stroke="midnightblue" points="326,-194.28 334,-187.34 323.41,-187.78 326,-194.28"/>
</g>
<!-- Node13 -->
<g id="node13" class="node">
<title>Node13</title>
<g id="a_node13"><a xlink:href="_point2_d_8h.html" target="_top" xlink:title=" ">
<polygon fill="none" stroke="black" points="218.5,-168.5 218.5,-187.5 277.5,-187.5 277.5,-168.5 218.5,-168.5"/>
<text text-anchor="middle" x="248" y="-175.5" font-family="Helvetica,sans-Serif" font-size="10.00">Point2D.h</text>
</a>
</g>
</g>
<!-- Node11&#45;&gt;Node13 -->
<g id="edge22" class="edge">
<title>Node11&#45;&gt;Node13</title>
<path fill="none" stroke="midnightblue" d="M223.79,-224.08C227.76,-216.69 233.53,-205.95 238.43,-196.81"/>
<polygon fill="midnightblue" stroke="midnightblue" points="241.65,-198.22 243.3,-187.75 235.49,-194.91 241.65,-198.22"/>
</g>
<!-- Node14 -->
<g id="node14" class="node">
<title>Node14</title>
<g id="a_node14"><a xlink:href="_point2_d_8hpp.html" target="_top" xlink:title=" ">
<polygon fill="none" stroke="black" points="218.5,-112.5 218.5,-131.5 287.5,-131.5 287.5,-112.5 218.5,-112.5"/>
<text text-anchor="middle" x="253" y="-119.5" font-family="Helvetica,sans-Serif" font-size="10.00">Point2D.hpp</text>
</a>
</g>
</g>
<!-- Node13&#45;&gt;Node14 -->
<g id="edge23" class="edge">
<title>Node13&#45;&gt;Node14</title>
<path fill="none" stroke="midnightblue" d="M248.83,-168.08C249.48,-161.01 250.42,-150.86 251.24,-141.99"/>
<polygon fill="midnightblue" stroke="midnightblue" points="254.75,-142.03 252.19,-131.75 247.78,-141.39 254.75,-142.03"/>
</g>
<!-- Node14&#45;&gt;Node2 -->
<g id="edge24" class="edge">
<title>Node14&#45;&gt;Node2</title>
<path fill="none" stroke="midnightblue" d="M224.48,-112.44C192.14,-102.74 139.51,-86.95 105.58,-76.77"/>
<polygon fill="midnightblue" stroke="midnightblue" points="106.27,-73.33 95.69,-73.81 104.26,-80.03 106.27,-73.33"/>
</g>
<!-- Node14&#45;&gt;Node3 -->
<g id="edge25" class="edge">
<title>Node14&#45;&gt;Node3</title>
<path fill="none" stroke="midnightblue" d="M234.78,-112.44C216.1,-103.68 186.84,-89.94 165.38,-79.86"/>
<polygon fill="midnightblue" stroke="midnightblue" points="166.68,-76.6 156.14,-75.52 163.7,-82.93 166.68,-76.6"/>
</g>
<!-- Node14&#45;&gt;Node4 -->
<g id="edge26" class="edge">
<title>Node14&#45;&gt;Node4</title>
<path fill="none" stroke="midnightblue" d="M261.92,-112.08C269.78,-104.22 281.43,-92.57 290.92,-83.08"/>
<polygon fill="midnightblue" stroke="midnightblue" points="293.65,-85.3 298.25,-75.75 288.7,-80.35 293.65,-85.3"/>
</g>
<!-- Node14&#45;&gt;Node5 -->
<g id="edge27" class="edge">
<title>Node14&#45;&gt;Node5</title>
<path fill="none" stroke="midnightblue" d="M254.01,-112.4C255.87,-99.36 260.7,-74.17 272,-56 279.26,-44.32 290.37,-33.76 300.18,-25.82"/>
<polygon fill="midnightblue" stroke="midnightblue" points="302.54,-28.42 308.33,-19.54 298.27,-22.87 302.54,-28.42"/>
</g>
<!-- Node14&#45;&gt;Node9 -->
<g id="edge28" class="edge">
<title>Node14&#45;&gt;Node9</title>
<path fill="none" stroke="midnightblue" d="M274.39,-112.44C296.71,-103.52 331.9,-89.44 357.21,-79.32"/>
<polygon fill="midnightblue" stroke="midnightblue" points="358.72,-82.48 366.71,-75.52 356.12,-75.98 358.72,-82.48"/>
</g>
</g>
</svg>
