<?xml version="1.0" encoding="UTF-8" standalone="no"?>
<!DOCTYPE svg PUBLIC "-//W3C//DTD SVG 1.1//EN"
 "http://www.w3.org/Graphics/SVG/1.1/DTD/svg11.dtd">
<!-- Generated by graphviz version 2.49.0 (20210830.1337)
 -->
<!-- Title: typeClassDefs/TotoDoingMotion.hpp Pages: 1 -->
<svg width="275pt" height="252pt"
 viewBox="0.00 0.00 275.00 252.00" xmlns="http://www.w3.org/2000/svg" xmlns:xlink="http://www.w3.org/1999/xlink">
<g id="graph0" class="graph" transform="scale(1 1) rotate(0) translate(4 248)">
<title>typeClassDefs/TotoDoingMotion.hpp</title>
<!-- Node1 -->
<g id="node1" class="node">
<title>Node1</title>
<g id="a_node1"><a xlink:title=" ">
<polygon fill="#bfbfbf" stroke="black" points="88.5,-224.5 88.5,-243.5 262.5,-243.5 262.5,-224.5 88.5,-224.5"/>
<text text-anchor="middle" x="175.5" y="-231.5" font-family="Helvetica,sans-Serif" font-size="10.00">typeClassDefs/TotoDoingMotion.hpp</text>
</a>
</g>
</g>
<!-- Node2 -->
<g id="node2" class="node">
<title>Node2</title>
<g id="a_node2"><a xlink:href="_switch_subsumption_8h.html" target="_top" xlink:title=" ">
<polygon fill="none" stroke="black" points="120,-168.5 120,-187.5 231,-187.5 231,-168.5 120,-168.5"/>
<text text-anchor="middle" x="175.5" y="-175.5" font-family="Helvetica,sans-Serif" font-size="10.00">SwitchSubsumption.h</text>
</a>
</g>
</g>
<!-- Node1&#45;&gt;Node2 -->
<g id="edge1" class="edge">
<title>Node1&#45;&gt;Node2</title>
<path fill="none" stroke="midnightblue" d="M175.5,-224.08C175.5,-217.01 175.5,-206.86 175.5,-197.99"/>
<polygon fill="midnightblue" stroke="midnightblue" points="179,-197.75 175.5,-187.75 172,-197.75 179,-197.75"/>
</g>
<!-- Node3 -->
<g id="node3" class="node">
<title>Node3</title>
<g id="a_node3"><a xlink:href="_switch_subsumption_8hpp.html" target="_top" xlink:title=" ">
<polygon fill="none" stroke="black" points="114.5,-112.5 114.5,-131.5 236.5,-131.5 236.5,-112.5 114.5,-112.5"/>
<text text-anchor="middle" x="175.5" y="-119.5" font-family="Helvetica,sans-Serif" font-size="10.00">SwitchSubsumption.hpp</text>
</a>
</g>
</g>
<!-- Node2&#45;&gt;Node3 -->
<g id="edge2" class="edge">
<title>Node2&#45;&gt;Node3</title>
<path fill="none" stroke="midnightblue" d="M175.5,-168.08C175.5,-161.01 175.5,-150.86 175.5,-141.99"/>
<polygon fill="midnightblue" stroke="midnightblue" points="179,-141.75 175.5,-131.75 172,-141.75 179,-141.75"/>
</g>
<!-- Node4 -->
<g id="node4" class="node">
<title>Node4</title>
<g id="a_node4"><a xlink:href="wb__switch__subsumption_8h.html" target="_top" xlink:title=" ">
<polygon fill="none" stroke="black" points="0,-56.5 0,-75.5 131,-75.5 131,-56.5 0,-56.5"/>
<text text-anchor="middle" x="65.5" y="-63.5" font-family="Helvetica,sans-Serif" font-size="10.00">wb_switch_subsumption.h</text>
</a>
</g>
</g>
<!-- Node3&#45;&gt;Node4 -->
<g id="edge3" class="edge">
<title>Node3&#45;&gt;Node4</title>
<path fill="none" stroke="midnightblue" d="M157.83,-112.32C140.11,-103.62 112.6,-90.12 92.21,-80.11"/>
<polygon fill="midnightblue" stroke="midnightblue" points="93.65,-76.92 83.13,-75.65 90.56,-83.2 93.65,-76.92"/>
</g>
<!-- Node6 -->
<g id="node6" class="node">
<title>Node6</title>
<g id="a_node6"><a xlink:title=" ">
<polygon fill="none" stroke="#bfbfbf" points="149.5,-56.5 149.5,-75.5 201.5,-75.5 201.5,-56.5 149.5,-56.5"/>
<text text-anchor="middle" x="175.5" y="-63.5" font-family="Helvetica,sans-Serif" font-size="10.00">sstream</text>
</a>
</g>
</g>
<!-- Node3&#45;&gt;Node6 -->
<g id="edge5" class="edge">
<title>Node3&#45;&gt;Node6</title>
<path fill="none" stroke="midnightblue" d="M175.5,-112.08C175.5,-105.01 175.5,-94.86 175.5,-85.99"/>
<polygon fill="midnightblue" stroke="midnightblue" points="179,-85.75 175.5,-75.75 172,-85.75 179,-85.75"/>
</g>
<!-- Node7 -->
<g id="node7" class="node">
<title>Node7</title>
<g id="a_node7"><a xlink:title=" ">
<polygon fill="none" stroke="#bfbfbf" points="220,-56.5 220,-75.5 267,-75.5 267,-56.5 220,-56.5"/>
<text text-anchor="middle" x="243.5" y="-63.5" font-family="Helvetica,sans-Serif" font-size="10.00">ctype.h</text>
</a>
</g>
</g>
<!-- Node3&#45;&gt;Node7 -->
<g id="edge6" class="edge">
<title>Node3&#45;&gt;Node7</title>
<path fill="none" stroke="midnightblue" d="M186.43,-112.32C196.67,-104.18 212.22,-91.84 224.5,-82.09"/>
<polygon fill="midnightblue" stroke="midnightblue" points="226.72,-84.79 232.38,-75.83 222.37,-79.31 226.72,-84.79"/>
</g>
<!-- Node5 -->
<g id="node5" class="node">
<title>Node5</title>
<g id="a_node5"><a xlink:title=" ">
<polygon fill="none" stroke="#bfbfbf" points="39,-0.5 39,-19.5 92,-19.5 92,-0.5 39,-0.5"/>
<text text-anchor="middle" x="65.5" y="-7.5" font-family="Helvetica,sans-Serif" font-size="10.00">gu_util.h</text>
</a>
</g>
</g>
<!-- Node4&#45;&gt;Node5 -->
<g id="edge4" class="edge">
<title>Node4&#45;&gt;Node5</title>
<path fill="none" stroke="midnightblue" d="M65.5,-56.08C65.5,-49.01 65.5,-38.86 65.5,-29.99"/>
<polygon fill="midnightblue" stroke="midnightblue" points="69,-29.75 65.5,-19.75 62,-29.75 69,-29.75"/>
</g>
</g>
</svg>
