<?xml version="1.0" encoding="UTF-8" standalone="no"?>
<!DOCTYPE svg PUBLIC "-//W3C//DTD SVG 1.1//EN"
 "http://www.w3.org/Graphics/SVG/1.1/DTD/svg11.dtd">
<!-- Generated by graphviz version 2.49.0 (20210830.1337)
 -->
<!-- Title: typeClassDefs/VisionFieldFeatures.h Pages: 1 -->
<svg width="816pt" height="431pt"
 viewBox="0.00 0.00 816.00 431.00" xmlns="http://www.w3.org/2000/svg" xmlns:xlink="http://www.w3.org/1999/xlink">
<g id="graph0" class="graph" transform="scale(1 1) rotate(0) translate(4 427)">
<title>typeClassDefs/VisionFieldFeatures.h</title>
<!-- Node1 -->
<g id="node1" class="node">
<title>Node1</title>
<g id="a_node1"><a xlink:title=" ">
<polygon fill="#bfbfbf" stroke="black" points="279.5,-392.5 279.5,-422.5 410.5,-422.5 410.5,-392.5 279.5,-392.5"/>
<text text-anchor="start" x="287.5" y="-410.5" font-family="Helvetica,sans-Serif" font-size="10.00">typeClassDefs/VisionField</text>
<text text-anchor="middle" x="345" y="-399.5" font-family="Helvetica,sans-Serif" font-size="10.00">Features.h</text>
</a>
</g>
</g>
<!-- Node2 -->
<g id="node2" class="node">
<title>Node2</title>
<g id="a_node2"><a xlink:href="_vision_field_features_8hpp.html" target="_top" xlink:title=" ">
<polygon fill="none" stroke="black" points="284.5,-336.5 284.5,-355.5 405.5,-355.5 405.5,-336.5 284.5,-336.5"/>
<text text-anchor="middle" x="345" y="-343.5" font-family="Helvetica,sans-Serif" font-size="10.00">VisionFieldFeatures.hpp</text>
</a>
</g>
</g>
<!-- Node1&#45;&gt;Node2 -->
<g id="edge1" class="edge">
<title>Node1&#45;&gt;Node2</title>
<path fill="none" stroke="midnightblue" d="M345,-392.4C345,-384.47 345,-374.46 345,-365.86"/>
<polygon fill="midnightblue" stroke="midnightblue" points="348.5,-365.66 345,-355.66 341.5,-365.66 348.5,-365.66"/>
</g>
<!-- Node3 -->
<g id="node3" class="node">
<title>Node3</title>
<g id="a_node3"><a xlink:title=" ">
<polygon fill="none" stroke="#bfbfbf" points="338.5,-56.5 338.5,-75.5 383.5,-75.5 383.5,-56.5 338.5,-56.5"/>
<text text-anchor="middle" x="361" y="-63.5" font-family="Helvetica,sans-Serif" font-size="10.00">cstdlib</text>
</a>
</g>
</g>
<!-- Node2&#45;&gt;Node3 -->
<g id="edge2" class="edge">
<title>Node2&#45;&gt;Node3</title>
<path fill="none" stroke="midnightblue" d="M350.7,-336.29C361.97,-318.2 386,-274.95 386,-235 386,-235 386,-235 386,-177 386,-144 375.17,-106.77 367.76,-85.19"/>
<polygon fill="midnightblue" stroke="midnightblue" points="371.03,-83.93 364.37,-75.69 364.43,-86.28 371.03,-83.93"/>
</g>
<!-- Node4 -->
<g id="node4" class="node">
<title>Node4</title>
<g id="a_node4"><a xlink:title=" ">
<polygon fill="none" stroke="#bfbfbf" points="12,-56.5 12,-75.5 60,-75.5 60,-56.5 12,-56.5"/>
<text text-anchor="middle" x="36" y="-63.5" font-family="Helvetica,sans-Serif" font-size="10.00">string.h</text>
</a>
</g>
</g>
<!-- Node2&#45;&gt;Node4 -->
<g id="edge3" class="edge">
<title>Node2&#45;&gt;Node4</title>
<path fill="none" stroke="midnightblue" d="M284.3,-343.58C228.63,-340.27 145.05,-330.13 79,-300 37.63,-281.13 0,-280.47 0,-235 0,-235 0,-235 0,-177 0,-142.98 15.74,-105.85 26.41,-84.6"/>
<polygon fill="midnightblue" stroke="midnightblue" points="29.62,-86.01 31.14,-75.53 23.41,-82.77 29.62,-86.01"/>
</g>
<!-- Node5 -->
<g id="node5" class="node">
<title>Node5</title>
<g id="a_node5"><a xlink:title=" ">
<polygon fill="none" stroke="#bfbfbf" points="116,-56.5 116,-75.5 168,-75.5 168,-56.5 116,-56.5"/>
<text text-anchor="middle" x="142" y="-63.5" font-family="Helvetica,sans-Serif" font-size="10.00">sstream</text>
</a>
</g>
</g>
<!-- Node2&#45;&gt;Node5 -->
<g id="edge4" class="edge">
<title>Node2&#45;&gt;Node5</title>
<path fill="none" stroke="midnightblue" d="M287.62,-336.46C198.76,-321.59 38,-287.44 38,-235 38,-235 38,-235 38,-177 38,-132.22 84.06,-98.32 114.88,-80.66"/>
<polygon fill="midnightblue" stroke="midnightblue" points="116.81,-83.59 123.88,-75.7 113.44,-77.46 116.81,-83.59"/>
</g>
<!-- Node6 -->
<g id="node6" class="node">
<title>Node6</title>
<g id="a_node6"><a xlink:title=" ">
<polygon fill="none" stroke="#bfbfbf" points="682.5,-0.5 682.5,-19.5 735.5,-19.5 735.5,-0.5 682.5,-0.5"/>
<text text-anchor="middle" x="709" y="-7.5" font-family="Helvetica,sans-Serif" font-size="10.00">gu_util.h</text>
</a>
</g>
</g>
<!-- Node2&#45;&gt;Node6 -->
<g id="edge5" class="edge">
<title>Node2&#45;&gt;Node6</title>
<path fill="none" stroke="midnightblue" d="M405.53,-343.21C531.03,-337.87 808,-316.79 808,-235 808,-235 808,-235 808,-121 808,-77.18 764.06,-42.93 734.73,-24.94"/>
<polygon fill="midnightblue" stroke="midnightblue" points="736.19,-21.74 725.79,-19.68 732.64,-27.77 736.19,-21.74"/>
</g>
<!-- Node7 -->
<g id="node7" class="node">
<title>Node7</title>
<g id="a_node7"><a xlink:href="wb__vision__field__features_8h.html" target="_top" xlink:title=" ">
<polygon fill="none" stroke="black" points="648.5,-168.5 648.5,-187.5 779.5,-187.5 779.5,-168.5 648.5,-168.5"/>
<text text-anchor="middle" x="714" y="-175.5" font-family="Helvetica,sans-Serif" font-size="10.00">wb_vision_field_features.h</text>
</a>
</g>
</g>
<!-- Node2&#45;&gt;Node7 -->
<g id="edge6" class="edge">
<title>Node2&#45;&gt;Node7</title>
<path fill="none" stroke="midnightblue" d="M364.06,-336.42C424.67,-309.16 613.2,-224.35 685.43,-191.85"/>
<polygon fill="midnightblue" stroke="midnightblue" points="687.15,-194.92 694.83,-187.62 684.27,-188.53 687.15,-194.92"/>
</g>
<!-- Node13 -->
<g id="node13" class="node">
<title>Node13</title>
<g id="a_node13"><a xlink:href="_vision_field_feature_8h.html" target="_top" xlink:title=" ">
<polygon fill="none" stroke="black" points="249.5,-280.5 249.5,-299.5 354.5,-299.5 354.5,-280.5 249.5,-280.5"/>
<text text-anchor="middle" x="302" y="-287.5" font-family="Helvetica,sans-Serif" font-size="10.00">VisionFieldFeature.h</text>
</a>
</g>
</g>
<!-- Node2&#45;&gt;Node13 -->
<g id="edge19" class="edge">
<title>Node2&#45;&gt;Node13</title>
<path fill="none" stroke="midnightblue" d="M337.9,-336.08C331.76,-328.38 322.73,-317.03 315.26,-307.65"/>
<polygon fill="midnightblue" stroke="midnightblue" points="317.94,-305.39 308.97,-299.75 312.46,-309.75 317.94,-305.39"/>
</g>
<!-- Node7&#45;&gt;Node6 -->
<g id="edge7" class="edge">
<title>Node7&#45;&gt;Node6</title>
<path fill="none" stroke="midnightblue" d="M719.84,-168.34C732.6,-148.26 760.73,-97.12 746,-56 742.06,-45 734.14,-34.77 726.64,-26.85"/>
<polygon fill="midnightblue" stroke="midnightblue" points="729.02,-24.28 719.44,-19.76 724.11,-29.27 729.02,-24.28"/>
</g>
<!-- Node8 -->
<g id="node8" class="node">
<title>Node8</title>
<g id="a_node8"><a xlink:title=" ">
<polygon fill="none" stroke="#bfbfbf" points="594,-0.5 594,-19.5 642,-19.5 642,-0.5 594,-0.5"/>
<text text-anchor="middle" x="618" y="-7.5" font-family="Helvetica,sans-Serif" font-size="10.00">stdint.h</text>
</a>
</g>
</g>
<!-- Node7&#45;&gt;Node8 -->
<g id="edge8" class="edge">
<title>Node7&#45;&gt;Node8</title>
<path fill="none" stroke="midnightblue" d="M708.84,-168.08C693.6,-141.72 648.58,-63.88 628.21,-28.66"/>
<polygon fill="midnightblue" stroke="midnightblue" points="630.99,-26.47 622.96,-19.57 624.93,-29.98 630.99,-26.47"/>
</g>
<!-- Node9 -->
<g id="node9" class="node">
<title>Node9</title>
<g id="a_node9"><a xlink:href="wb__vision__field__feature_8h.html" target="_top" xlink:title=" ">
<polygon fill="none" stroke="black" points="433.5,-112.5 433.5,-131.5 558.5,-131.5 558.5,-112.5 433.5,-112.5"/>
<text text-anchor="middle" x="496" y="-119.5" font-family="Helvetica,sans-Serif" font-size="10.00">wb_vision_field_feature.h</text>
</a>
</g>
</g>
<!-- Node7&#45;&gt;Node9 -->
<g id="edge9" class="edge">
<title>Node7&#45;&gt;Node9</title>
<path fill="none" stroke="midnightblue" d="M679.46,-168.44C641.75,-159.1 581.26,-144.12 540.14,-133.93"/>
<polygon fill="midnightblue" stroke="midnightblue" points="540.93,-130.52 530.38,-131.52 539.25,-137.32 540.93,-130.52"/>
</g>
<!-- Node9&#45;&gt;Node6 -->
<g id="edge10" class="edge">
<title>Node9&#45;&gt;Node6</title>
<path fill="none" stroke="midnightblue" d="M512.89,-112.41C530.62,-103.38 559.29,-88.74 584,-76 618.51,-58.21 658.28,-37.49 683.52,-24.32"/>
<polygon fill="midnightblue" stroke="midnightblue" points="685.19,-27.39 692.44,-19.66 681.95,-21.18 685.19,-27.39"/>
</g>
<!-- Node9&#45;&gt;Node8 -->
<g id="edge11" class="edge">
<title>Node9&#45;&gt;Node8</title>
<path fill="none" stroke="midnightblue" d="M510.43,-112.45C524.11,-104.02 544.92,-90.34 561,-76 577.72,-61.09 594.33,-41.46 605.26,-27.69"/>
<polygon fill="midnightblue" stroke="midnightblue" points="608.19,-29.63 611.58,-19.6 602.67,-25.33 608.19,-29.63"/>
</g>
<!-- Node10 -->
<g id="node10" class="node">
<title>Node10</title>
<g id="a_node10"><a xlink:href="wb__pixel__coordinate_8h.html" target="_top" xlink:title=" ">
<polygon fill="none" stroke="black" points="440,-56.5 440,-75.5 552,-75.5 552,-56.5 440,-56.5"/>
<text text-anchor="middle" x="496" y="-63.5" font-family="Helvetica,sans-Serif" font-size="10.00">wb_pixel_coordinate.h</text>
</a>
</g>
</g>
<!-- Node9&#45;&gt;Node10 -->
<g id="edge12" class="edge">
<title>Node9&#45;&gt;Node10</title>
<path fill="none" stroke="midnightblue" d="M496,-112.08C496,-105.01 496,-94.86 496,-85.99"/>
<polygon fill="midnightblue" stroke="midnightblue" points="499.5,-85.75 496,-75.75 492.5,-85.75 499.5,-85.75"/>
</g>
<!-- Node11 -->
<g id="node11" class="node">
<title>Node11</title>
<g id="a_node11"><a xlink:title=" ">
<polygon fill="none" stroke="#bfbfbf" points="189,-0.5 189,-19.5 279,-19.5 279,-0.5 189,-0.5"/>
<text text-anchor="middle" x="234" y="-7.5" font-family="Helvetica,sans-Serif" font-size="10.00">guunits/guunits.h</text>
</a>
</g>
</g>
<!-- Node9&#45;&gt;Node11 -->
<g id="edge17" class="edge">
<title>Node9&#45;&gt;Node11</title>
<path fill="none" stroke="midnightblue" d="M447.73,-112.49C413.55,-105.4 367.18,-93.59 329,-76 300.14,-62.71 270.49,-40.86 252.16,-26.2"/>
<polygon fill="midnightblue" stroke="midnightblue" points="254.08,-23.26 244.12,-19.66 249.66,-28.69 254.08,-23.26"/>
</g>
<!-- Node12 -->
<g id="node12" class="node">
<title>Node12</title>
<g id="a_node12"><a xlink:title=" ">
<polygon fill="none" stroke="#bfbfbf" points="336.5,-0.5 336.5,-19.5 485.5,-19.5 485.5,-0.5 336.5,-0.5"/>
<text text-anchor="middle" x="411" y="-7.5" font-family="Helvetica,sans-Serif" font-size="10.00">gucoordinates/gucoordinates.h</text>
</a>
</g>
</g>
<!-- Node9&#45;&gt;Node12 -->
<g id="edge18" class="edge">
<title>Node9&#45;&gt;Node12</title>
<path fill="none" stroke="midnightblue" d="M477.46,-112.48C462.85,-104.87 443,-92.39 431,-76 421.08,-62.45 416.01,-43.9 413.46,-30.09"/>
<polygon fill="midnightblue" stroke="midnightblue" points="416.86,-29.15 411.87,-19.81 409.94,-30.23 416.86,-29.15"/>
</g>
<!-- Node10&#45;&gt;Node6 -->
<g id="edge13" class="edge">
<title>Node10&#45;&gt;Node6</title>
<path fill="none" stroke="midnightblue" d="M529.75,-56.44C568.71,-46.57 632.54,-30.38 672.59,-20.23"/>
<polygon fill="midnightblue" stroke="midnightblue" points="673.64,-23.58 682.47,-17.73 671.92,-16.79 673.64,-23.58"/>
</g>
<!-- Node10&#45;&gt;Node8 -->
<g id="edge14" class="edge">
<title>Node10&#45;&gt;Node8</title>
<path fill="none" stroke="midnightblue" d="M515.33,-56.44C535.32,-47.6 566.74,-33.69 589.56,-23.59"/>
<polygon fill="midnightblue" stroke="midnightblue" points="591.03,-26.76 598.76,-19.52 588.2,-20.36 591.03,-26.76"/>
</g>
<!-- Node10&#45;&gt;Node11 -->
<g id="edge15" class="edge">
<title>Node10&#45;&gt;Node11</title>
<path fill="none" stroke="midnightblue" d="M454.49,-56.44C408.59,-46.98 334.62,-31.74 285.17,-21.55"/>
<polygon fill="midnightblue" stroke="midnightblue" points="285.82,-18.11 275.32,-19.52 284.41,-24.96 285.82,-18.11"/>
</g>
<!-- Node10&#45;&gt;Node12 -->
<g id="edge16" class="edge">
<title>Node10&#45;&gt;Node12</title>
<path fill="none" stroke="midnightblue" d="M482.34,-56.32C469.08,-47.9 448.73,-34.97 433.15,-25.07"/>
<polygon fill="midnightblue" stroke="midnightblue" points="434.94,-22.06 424.62,-19.65 431.19,-27.97 434.94,-22.06"/>
</g>
<!-- Node14 -->
<g id="node14" class="node">
<title>Node14</title>
<g id="a_node14"><a xlink:href="_vision_field_feature_8hpp.html" target="_top" xlink:title=" ">
<polygon fill="none" stroke="black" points="242,-224.5 242,-243.5 358,-243.5 358,-224.5 242,-224.5"/>
<text text-anchor="middle" x="300" y="-231.5" font-family="Helvetica,sans-Serif" font-size="10.00">VisionFieldFeature.hpp</text>
</a>
</g>
</g>
<!-- Node13&#45;&gt;Node14 -->
<g id="edge20" class="edge">
<title>Node13&#45;&gt;Node14</title>
<path fill="none" stroke="midnightblue" d="M301.67,-280.08C301.41,-273.01 301.03,-262.86 300.7,-253.99"/>
<polygon fill="midnightblue" stroke="midnightblue" points="304.19,-253.61 300.32,-243.75 297.2,-253.87 304.19,-253.61"/>
</g>
<!-- Node14&#45;&gt;Node3 -->
<g id="edge21" class="edge">
<title>Node14&#45;&gt;Node3</title>
<path fill="none" stroke="midnightblue" d="M305.3,-224.28C310.55,-215.39 318.57,-201.08 324,-188 338.61,-152.79 350.41,-109.72 356.5,-85.62"/>
<polygon fill="midnightblue" stroke="midnightblue" points="359.95,-86.26 358.95,-75.71 353.16,-84.58 359.95,-86.26"/>
</g>
<!-- Node14&#45;&gt;Node4 -->
<g id="edge22" class="edge">
<title>Node14&#45;&gt;Node4</title>
<path fill="none" stroke="midnightblue" d="M241.58,-232.54C198.5,-229.4 140.57,-219.02 100,-188 65.82,-161.87 47.97,-112.17 40.46,-85.32"/>
<polygon fill="midnightblue" stroke="midnightblue" points="43.84,-84.43 37.92,-75.64 37.07,-86.2 43.84,-84.43"/>
</g>
<!-- Node14&#45;&gt;Node5 -->
<g id="edge23" class="edge">
<title>Node14&#45;&gt;Node5</title>
<path fill="none" stroke="midnightblue" d="M247.63,-224.49C223.8,-218.12 196.98,-207.08 179,-188 152.1,-159.45 144.72,-111.85 142.72,-85.68"/>
<polygon fill="midnightblue" stroke="midnightblue" points="146.21,-85.37 142.14,-75.59 139.22,-85.78 146.21,-85.37"/>
</g>
<!-- Node14&#45;&gt;Node6 -->
<g id="edge24" class="edge">
<title>Node14&#45;&gt;Node6</title>
<path fill="none" stroke="midnightblue" d="M333.42,-224.48C385.84,-210.23 489.5,-178.5 568,-132 619.09,-101.74 669.61,-52.43 693.96,-27.12"/>
<polygon fill="midnightblue" stroke="midnightblue" points="696.57,-29.46 700.92,-19.8 691.49,-24.64 696.57,-29.46"/>
</g>
<!-- Node14&#45;&gt;Node9 -->
<g id="edge25" class="edge">
<title>Node14&#45;&gt;Node9</title>
<path fill="none" stroke="midnightblue" d="M315.38,-224.37C349.37,-205.29 431.1,-159.42 471.94,-136.51"/>
<polygon fill="midnightblue" stroke="midnightblue" points="473.68,-139.54 480.69,-131.59 470.26,-133.43 473.68,-139.54"/>
</g>
<!-- Node14&#45;&gt;Node11 -->
<g id="edge35" class="edge">
<title>Node14&#45;&gt;Node11</title>
<path fill="none" stroke="midnightblue" d="M241.69,-224.94C214.58,-218.68 183.46,-207.59 161,-188 119.36,-151.67 119.31,-129.87 107,-76 105.02,-67.33 101.87,-63.26 107,-56 123.34,-32.88 152.62,-21.56 178.95,-16.05"/>
<polygon fill="midnightblue" stroke="midnightblue" points="179.67,-19.48 188.86,-14.22 178.39,-12.6 179.67,-19.48"/>
</g>
<!-- Node14&#45;&gt;Node12 -->
<g id="edge36" class="edge">
<title>Node14&#45;&gt;Node12</title>
<path fill="none" stroke="midnightblue" d="M298.94,-224.28C296.06,-196.72 290.7,-110.15 329,-56 339.56,-41.07 356.7,-30.57 372.59,-23.48"/>
<polygon fill="midnightblue" stroke="midnightblue" points="374.33,-26.55 382.25,-19.51 371.67,-20.08 374.33,-26.55"/>
</g>
<!-- Node15 -->
<g id="node15" class="node">
<title>Node15</title>
<g id="a_node15"><a xlink:href="_pixel_coordinate_8h.html" target="_top" xlink:title=" ">
<polygon fill="none" stroke="black" points="188,-168.5 188,-187.5 280,-187.5 280,-168.5 188,-168.5"/>
<text text-anchor="middle" x="234" y="-175.5" font-family="Helvetica,sans-Serif" font-size="10.00">PixelCoordinate.h</text>
</a>
</g>
</g>
<!-- Node14&#45;&gt;Node15 -->
<g id="edge26" class="edge">
<title>Node14&#45;&gt;Node15</title>
<path fill="none" stroke="midnightblue" d="M289.4,-224.32C279.54,-216.26 264.65,-204.08 252.78,-194.37"/>
<polygon fill="midnightblue" stroke="midnightblue" points="254.75,-191.46 244.8,-187.83 250.32,-196.88 254.75,-191.46"/>
</g>
<!-- Node16 -->
<g id="node16" class="node">
<title>Node16</title>
<g id="a_node16"><a xlink:href="_pixel_coordinate_8hpp.html" target="_top" xlink:title=" ">
<polygon fill="none" stroke="black" points="180,-112.5 180,-131.5 282,-131.5 282,-112.5 180,-112.5"/>
<text text-anchor="middle" x="231" y="-119.5" font-family="Helvetica,sans-Serif" font-size="10.00">PixelCoordinate.hpp</text>
</a>
</g>
</g>
<!-- Node15&#45;&gt;Node16 -->
<g id="edge27" class="edge">
<title>Node15&#45;&gt;Node16</title>
<path fill="none" stroke="midnightblue" d="M233.5,-168.08C233.11,-161.01 232.55,-150.86 232.05,-141.99"/>
<polygon fill="midnightblue" stroke="midnightblue" points="235.54,-141.54 231.49,-131.75 228.55,-141.93 235.54,-141.54"/>
</g>
<!-- Node16&#45;&gt;Node3 -->
<g id="edge28" class="edge">
<title>Node16&#45;&gt;Node3</title>
<path fill="none" stroke="midnightblue" d="M251.6,-112.44C272.99,-103.56 306.68,-89.56 331.02,-79.45"/>
<polygon fill="midnightblue" stroke="midnightblue" points="332.61,-82.58 340.5,-75.52 329.92,-76.12 332.61,-82.58"/>
</g>
<!-- Node16&#45;&gt;Node4 -->
<g id="edge29" class="edge">
<title>Node16&#45;&gt;Node4</title>
<path fill="none" stroke="midnightblue" d="M200.1,-112.44C164.66,-102.63 106.74,-86.59 70.04,-76.43"/>
<polygon fill="midnightblue" stroke="midnightblue" points="70.86,-73.02 60.28,-73.73 68.99,-79.77 70.86,-73.02"/>
</g>
<!-- Node16&#45;&gt;Node5 -->
<g id="edge30" class="edge">
<title>Node16&#45;&gt;Node5</title>
<path fill="none" stroke="midnightblue" d="M216.7,-112.32C202.82,-103.9 181.51,-90.97 165.2,-81.07"/>
<polygon fill="midnightblue" stroke="midnightblue" points="166.63,-77.85 156.26,-75.65 163,-83.83 166.63,-77.85"/>
</g>
<!-- Node16&#45;&gt;Node6 -->
<g id="edge31" class="edge">
<title>Node16&#45;&gt;Node6</title>
<path fill="none" stroke="midnightblue" d="M282.26,-120.42C348.47,-118.24 466.43,-109.47 561,-76 577.17,-70.28 578.62,-63.6 594,-56 619.95,-43.18 650.52,-31.36 673.61,-23.06"/>
<polygon fill="midnightblue" stroke="midnightblue" points="675.08,-26.25 683.34,-19.61 672.74,-19.66 675.08,-26.25"/>
</g>
<!-- Node16&#45;&gt;Node10 -->
<g id="edge32" class="edge">
<title>Node16&#45;&gt;Node10</title>
<path fill="none" stroke="midnightblue" d="M272.99,-112.44C319.41,-102.98 394.23,-87.74 444.24,-77.55"/>
<polygon fill="midnightblue" stroke="midnightblue" points="445.11,-80.94 454.21,-75.52 443.71,-74.08 445.11,-80.94"/>
</g>
<!-- Node16&#45;&gt;Node11 -->
<g id="edge33" class="edge">
<title>Node16&#45;&gt;Node11</title>
<path fill="none" stroke="midnightblue" d="M227.71,-112.18C223.45,-99.7 216.94,-76.14 220,-56 221.37,-47 224.19,-37.33 226.95,-29.26"/>
<polygon fill="midnightblue" stroke="midnightblue" points="230.27,-30.37 230.4,-19.78 223.69,-27.98 230.27,-30.37"/>
</g>
<!-- Node16&#45;&gt;Node12 -->
<g id="edge34" class="edge">
<title>Node16&#45;&gt;Node12</title>
<path fill="none" stroke="midnightblue" d="M237.7,-112.28C248.6,-98.62 271.42,-72.07 296,-56 318.51,-41.28 346.57,-30.18 369.34,-22.69"/>
<polygon fill="midnightblue" stroke="midnightblue" points="370.59,-25.96 379.06,-19.6 368.47,-19.29 370.59,-25.96"/>
</g>
</g>
</svg>
