<?xml version="1.0" encoding="UTF-8" standalone="no"?>
<!DOCTYPE svg PUBLIC "-//W3C//DTD SVG 1.1//EN"
 "http://www.w3.org/Graphics/SVG/1.1/DTD/svg11.dtd">
<!-- Generated by graphviz version 2.49.0 (20210830.1337)
 -->
<!-- Title: typeClassDefs/VisionBall.h Pages: 1 -->
<svg width="744pt" height="308pt"
 viewBox="0.00 0.00 743.50 308.00" xmlns="http://www.w3.org/2000/svg" xmlns:xlink="http://www.w3.org/1999/xlink">
<g id="graph0" class="graph" transform="scale(1 1) rotate(0) translate(4 304)">
<title>typeClassDefs/VisionBall.h</title>
<!-- Node1 -->
<g id="node1" class="node">
<title>Node1</title>
<g id="a_node1"><a xlink:title=" ">
<polygon fill="#bfbfbf" stroke="black" points="154.5,-280.5 154.5,-299.5 288.5,-299.5 288.5,-280.5 154.5,-280.5"/>
<text text-anchor="middle" x="221.5" y="-287.5" font-family="Helvetica,sans-Serif" font-size="10.00">typeClassDefs/VisionBall.h</text>
</a>
</g>
</g>
<!-- Node2 -->
<g id="node2" class="node">
<title>Node2</title>
<g id="a_node2"><a xlink:href="_vision_ball_8hpp.html" target="_top" xlink:title=" ">
<polygon fill="none" stroke="black" points="182.5,-224.5 182.5,-243.5 260.5,-243.5 260.5,-224.5 182.5,-224.5"/>
<text text-anchor="middle" x="221.5" y="-231.5" font-family="Helvetica,sans-Serif" font-size="10.00">VisionBall.hpp</text>
</a>
</g>
</g>
<!-- Node1&#45;&gt;Node2 -->
<g id="edge1" class="edge">
<title>Node1&#45;&gt;Node2</title>
<path fill="none" stroke="midnightblue" d="M221.5,-280.08C221.5,-273.01 221.5,-262.86 221.5,-253.99"/>
<polygon fill="midnightblue" stroke="midnightblue" points="225,-253.75 221.5,-243.75 218,-253.75 225,-253.75"/>
</g>
<!-- Node3 -->
<g id="node3" class="node">
<title>Node3</title>
<g id="a_node3"><a xlink:title=" ">
<polygon fill="none" stroke="#bfbfbf" points="0,-168.5 0,-187.5 41,-187.5 41,-168.5 0,-168.5"/>
<text text-anchor="middle" x="20.5" y="-175.5" font-family="Helvetica,sans-Serif" font-size="10.00">string</text>
</a>
</g>
</g>
<!-- Node2&#45;&gt;Node3 -->
<g id="edge2" class="edge">
<title>Node2&#45;&gt;Node3</title>
<path fill="none" stroke="midnightblue" d="M187.11,-224.49C154.34,-216.27 103.4,-203.22 50.88,-188.31"/>
<polygon fill="midnightblue" stroke="midnightblue" points="51.64,-184.89 41.06,-185.51 49.72,-191.62 51.64,-184.89"/>
</g>
<!-- Node4 -->
<g id="node4" class="node">
<title>Node4</title>
<g id="a_node4"><a xlink:title=" ">
<polygon fill="none" stroke="#bfbfbf" points="304,-56.5 304,-75.5 349,-75.5 349,-56.5 304,-56.5"/>
<text text-anchor="middle" x="326.5" y="-63.5" font-family="Helvetica,sans-Serif" font-size="10.00">cstdlib</text>
</a>
</g>
</g>
<!-- Node2&#45;&gt;Node4 -->
<g id="edge3" class="edge">
<title>Node2&#45;&gt;Node4</title>
<path fill="none" stroke="midnightblue" d="M260.61,-232.51C293.97,-229.76 340.13,-219.93 363.5,-188 386.96,-155.95 358.83,-108.82 340.28,-83.89"/>
<polygon fill="midnightblue" stroke="midnightblue" points="342.88,-81.54 333.99,-75.78 337.35,-85.83 342.88,-81.54"/>
</g>
<!-- Node5 -->
<g id="node5" class="node">
<title>Node5</title>
<g id="a_node5"><a xlink:title=" ">
<polygon fill="none" stroke="#bfbfbf" points="134,-168.5 134,-187.5 175,-187.5 175,-168.5 134,-168.5"/>
<text text-anchor="middle" x="154.5" y="-175.5" font-family="Helvetica,sans-Serif" font-size="10.00">bitset</text>
</a>
</g>
</g>
<!-- Node2&#45;&gt;Node5 -->
<g id="edge4" class="edge">
<title>Node2&#45;&gt;Node5</title>
<path fill="none" stroke="midnightblue" d="M210.74,-224.32C200.73,-216.26 185.61,-204.08 173.57,-194.37"/>
<polygon fill="midnightblue" stroke="midnightblue" points="175.44,-191.38 165.46,-187.83 171.05,-196.83 175.44,-191.38"/>
</g>
<!-- Node6 -->
<g id="node6" class="node">
<title>Node6</title>
<g id="a_node6"><a xlink:title=" ">
<polygon fill="none" stroke="#bfbfbf" points="193.5,-168.5 193.5,-187.5 249.5,-187.5 249.5,-168.5 193.5,-168.5"/>
<text text-anchor="middle" x="221.5" y="-175.5" font-family="Helvetica,sans-Serif" font-size="10.00">algorithm</text>
</a>
</g>
</g>
<!-- Node2&#45;&gt;Node6 -->
<g id="edge5" class="edge">
<title>Node2&#45;&gt;Node6</title>
<path fill="none" stroke="midnightblue" d="M221.5,-224.08C221.5,-217.01 221.5,-206.86 221.5,-197.99"/>
<polygon fill="midnightblue" stroke="midnightblue" points="225,-197.75 221.5,-187.75 218,-197.75 225,-197.75"/>
</g>
<!-- Node7 -->
<g id="node7" class="node">
<title>Node7</title>
<g id="a_node7"><a xlink:title=" ">
<polygon fill="none" stroke="#bfbfbf" points="268,-168.5 268,-187.5 355,-187.5 355,-168.5 268,-168.5"/>
<text text-anchor="middle" x="311.5" y="-175.5" font-family="Helvetica,sans-Serif" font-size="10.00">SimpleShapes.h</text>
</a>
</g>
</g>
<!-- Node2&#45;&gt;Node7 -->
<g id="edge6" class="edge">
<title>Node2&#45;&gt;Node7</title>
<path fill="none" stroke="midnightblue" d="M235.96,-224.32C250,-215.9 271.55,-202.97 288.04,-193.07"/>
<polygon fill="midnightblue" stroke="midnightblue" points="290.3,-195.8 297.08,-187.65 286.7,-189.8 290.3,-195.8"/>
</g>
<!-- Node8 -->
<g id="node8" class="node">
<title>Node8</title>
<g id="a_node8"><a xlink:href="wb__ball_8h.html" target="_top" xlink:title=" ">
<polygon fill="none" stroke="black" points="59,-168.5 59,-187.5 116,-187.5 116,-168.5 59,-168.5"/>
<text text-anchor="middle" x="87.5" y="-175.5" font-family="Helvetica,sans-Serif" font-size="10.00">wb_ball.h</text>
</a>
</g>
</g>
<!-- Node2&#45;&gt;Node8 -->
<g id="edge7" class="edge">
<title>Node2&#45;&gt;Node8</title>
<path fill="none" stroke="midnightblue" d="M200.27,-224.44C178.12,-215.52 143.18,-201.44 118.06,-191.32"/>
<polygon fill="midnightblue" stroke="midnightblue" points="119.22,-188.01 108.63,-187.52 116.6,-194.5 119.22,-188.01"/>
</g>
<!-- Node11 -->
<g id="node11" class="node">
<title>Node11</title>
<g id="a_node11"><a xlink:href="_vision_control_status_8h.html" target="_top" xlink:title=" ">
<polygon fill="none" stroke="black" points="414.5,-168.5 414.5,-187.5 524.5,-187.5 524.5,-168.5 414.5,-168.5"/>
<text text-anchor="middle" x="469.5" y="-175.5" font-family="Helvetica,sans-Serif" font-size="10.00">VisionControlStatus.h</text>
</a>
</g>
</g>
<!-- Node2&#45;&gt;Node11 -->
<g id="edge10" class="edge">
<title>Node2&#45;&gt;Node11</title>
<path fill="none" stroke="midnightblue" d="M260.52,-224.5C303.73,-215.09 373.46,-199.91 420.36,-189.7"/>
<polygon fill="midnightblue" stroke="midnightblue" points="421.27,-193.08 430.3,-187.54 419.78,-186.24 421.27,-193.08"/>
</g>
<!-- Node9 -->
<g id="node9" class="node">
<title>Node9</title>
<g id="a_node9"><a xlink:title=" ">
<polygon fill="none" stroke="#bfbfbf" points="116,-112.5 116,-131.5 181,-131.5 181,-112.5 116,-112.5"/>
<text text-anchor="middle" x="148.5" y="-119.5" font-family="Helvetica,sans-Serif" font-size="10.00">sys/types.h</text>
</a>
</g>
</g>
<!-- Node8&#45;&gt;Node9 -->
<g id="edge8" class="edge">
<title>Node8&#45;&gt;Node9</title>
<path fill="none" stroke="midnightblue" d="M97.3,-168.32C106.32,-160.34 119.91,-148.31 130.82,-138.65"/>
<polygon fill="midnightblue" stroke="midnightblue" points="133.35,-141.08 138.52,-131.83 128.71,-135.84 133.35,-141.08"/>
</g>
<!-- Node10 -->
<g id="node10" class="node">
<title>Node10</title>
<g id="a_node10"><a xlink:title=" ">
<polygon fill="none" stroke="#bfbfbf" points="421,-0.5 421,-19.5 474,-19.5 474,-0.5 421,-0.5"/>
<text text-anchor="middle" x="447.5" y="-7.5" font-family="Helvetica,sans-Serif" font-size="10.00">gu_util.h</text>
</a>
</g>
</g>
<!-- Node8&#45;&gt;Node10 -->
<g id="edge9" class="edge">
<title>Node8&#45;&gt;Node10</title>
<path fill="none" stroke="midnightblue" d="M87.54,-168.11C88.1,-154.21 91.24,-127.34 106.5,-112 190.38,-27.69 341.08,-13.07 410.56,-11"/>
<polygon fill="midnightblue" stroke="midnightblue" points="410.68,-14.5 420.6,-10.78 410.52,-7.5 410.68,-14.5"/>
</g>
<!-- Node12 -->
<g id="node12" class="node">
<title>Node12</title>
<g id="a_node12"><a xlink:href="_vision_control_status_8hpp.html" target="_top" xlink:title=" ">
<polygon fill="none" stroke="black" points="412,-112.5 412,-131.5 533,-131.5 533,-112.5 412,-112.5"/>
<text text-anchor="middle" x="472.5" y="-119.5" font-family="Helvetica,sans-Serif" font-size="10.00">VisionControlStatus.hpp</text>
</a>
</g>
</g>
<!-- Node11&#45;&gt;Node12 -->
<g id="edge11" class="edge">
<title>Node11&#45;&gt;Node12</title>
<path fill="none" stroke="midnightblue" d="M470,-168.08C470.39,-161.01 470.95,-150.86 471.45,-141.99"/>
<polygon fill="midnightblue" stroke="midnightblue" points="474.95,-141.93 472.01,-131.75 467.96,-141.54 474.95,-141.93"/>
</g>
<!-- Node12&#45;&gt;Node4 -->
<g id="edge12" class="edge">
<title>Node12&#45;&gt;Node4</title>
<path fill="none" stroke="midnightblue" d="M449.37,-112.44C424.87,-103.39 386.04,-89.02 358.59,-78.87"/>
<polygon fill="midnightblue" stroke="midnightblue" points="359.64,-75.53 349.05,-75.34 357.21,-82.09 359.64,-75.53"/>
</g>
<!-- Node12&#45;&gt;Node10 -->
<g id="edge15" class="edge">
<title>Node12&#45;&gt;Node10</title>
<path fill="none" stroke="midnightblue" d="M470.54,-112.37C466.5,-94.62 457.2,-53.67 451.73,-29.6"/>
<polygon fill="midnightblue" stroke="midnightblue" points="455.08,-28.57 449.45,-19.59 448.26,-30.12 455.08,-28.57"/>
</g>
<!-- Node13 -->
<g id="node13" class="node">
<title>Node13</title>
<g id="a_node13"><a xlink:title=" ">
<polygon fill="none" stroke="#bfbfbf" points="687.5,-56.5 687.5,-75.5 735.5,-75.5 735.5,-56.5 687.5,-56.5"/>
<text text-anchor="middle" x="711.5" y="-63.5" font-family="Helvetica,sans-Serif" font-size="10.00">string.h</text>
</a>
</g>
</g>
<!-- Node12&#45;&gt;Node13 -->
<g id="edge13" class="edge">
<title>Node12&#45;&gt;Node13</title>
<path fill="none" stroke="midnightblue" d="M514.47,-112.49C554.08,-104.31 615.35,-91.28 677.42,-76.17"/>
<polygon fill="midnightblue" stroke="midnightblue" points="678.51,-79.51 687.39,-73.73 676.84,-72.71 678.51,-79.51"/>
</g>
<!-- Node14 -->
<g id="node14" class="node">
<title>Node14</title>
<g id="a_node14"><a xlink:title=" ">
<polygon fill="none" stroke="#bfbfbf" points="367.5,-56.5 367.5,-75.5 419.5,-75.5 419.5,-56.5 367.5,-56.5"/>
<text text-anchor="middle" x="393.5" y="-63.5" font-family="Helvetica,sans-Serif" font-size="10.00">sstream</text>
</a>
</g>
</g>
<!-- Node12&#45;&gt;Node14 -->
<g id="edge14" class="edge">
<title>Node12&#45;&gt;Node14</title>
<path fill="none" stroke="midnightblue" d="M459.81,-112.32C447.6,-103.98 428.92,-91.21 414.5,-81.35"/>
<polygon fill="midnightblue" stroke="midnightblue" points="416.39,-78.41 406.16,-75.65 412.44,-84.19 416.39,-78.41"/>
</g>
<!-- Node15 -->
<g id="node15" class="node">
<title>Node15</title>
<g id="a_node15"><a xlink:href="wb__vision__control__status_8h.html" target="_top" xlink:title=" ">
<polygon fill="none" stroke="black" points="535.5,-56.5 535.5,-75.5 669.5,-75.5 669.5,-56.5 535.5,-56.5"/>
<text text-anchor="middle" x="602.5" y="-63.5" font-family="Helvetica,sans-Serif" font-size="10.00">wb_vision_control_status.h</text>
</a>
</g>
</g>
<!-- Node12&#45;&gt;Node15 -->
<g id="edge16" class="edge">
<title>Node12&#45;&gt;Node15</title>
<path fill="none" stroke="midnightblue" d="M493.1,-112.44C514.49,-103.56 548.18,-89.56 572.52,-79.45"/>
<polygon fill="midnightblue" stroke="midnightblue" points="574.11,-82.58 582,-75.52 571.42,-76.12 574.11,-82.58"/>
</g>
<!-- Node18 -->
<g id="node18" class="node">
<title>Node18</title>
<g id="a_node18"><a xlink:title=" ">
<polygon fill="none" stroke="#bfbfbf" points="475.5,-56.5 475.5,-75.5 517.5,-75.5 517.5,-56.5 475.5,-56.5"/>
<text text-anchor="middle" x="496.5" y="-63.5" font-family="Helvetica,sans-Serif" font-size="10.00">float.h</text>
</a>
</g>
</g>
<!-- Node12&#45;&gt;Node18 -->
<g id="edge20" class="edge">
<title>Node12&#45;&gt;Node18</title>
<path fill="none" stroke="midnightblue" d="M476.46,-112.08C479.71,-104.77 484.42,-94.18 488.45,-85.1"/>
<polygon fill="midnightblue" stroke="midnightblue" points="491.75,-86.31 492.61,-75.75 485.35,-83.47 491.75,-86.31"/>
</g>
<!-- Node15&#45;&gt;Node10 -->
<g id="edge17" class="edge">
<title>Node15&#45;&gt;Node10</title>
<path fill="none" stroke="midnightblue" d="M577.94,-56.44C551.98,-47.4 510.83,-33.06 481.7,-22.92"/>
<polygon fill="midnightblue" stroke="midnightblue" points="482.54,-19.5 471.95,-19.52 480.24,-26.11 482.54,-19.5"/>
</g>
<!-- Node16 -->
<g id="node16" class="node">
<title>Node16</title>
<g id="a_node16"><a xlink:title=" ">
<polygon fill="none" stroke="#bfbfbf" points="541.5,-0.5 541.5,-19.5 589.5,-19.5 589.5,-0.5 541.5,-0.5"/>
<text text-anchor="middle" x="565.5" y="-7.5" font-family="Helvetica,sans-Serif" font-size="10.00">stdint.h</text>
</a>
</g>
</g>
<!-- Node15&#45;&gt;Node16 -->
<g id="edge18" class="edge">
<title>Node15&#45;&gt;Node16</title>
<path fill="none" stroke="midnightblue" d="M596.39,-56.08C591.22,-48.53 583.65,-37.49 577.31,-28.23"/>
<polygon fill="midnightblue" stroke="midnightblue" points="580.04,-26.02 571.5,-19.75 574.26,-29.98 580.04,-26.02"/>
</g>
<!-- Node17 -->
<g id="node17" class="node">
<title>Node17</title>
<g id="a_node17"><a xlink:title=" ">
<polygon fill="none" stroke="#bfbfbf" points="608,-0.5 608,-19.5 669,-19.5 669,-0.5 608,-0.5"/>
<text text-anchor="middle" x="638.5" y="-7.5" font-family="Helvetica,sans-Serif" font-size="10.00">sys/time.h</text>
</a>
</g>
</g>
<!-- Node15&#45;&gt;Node17 -->
<g id="edge19" class="edge">
<title>Node15&#45;&gt;Node17</title>
<path fill="none" stroke="midnightblue" d="M608.44,-56.08C613.48,-48.53 620.84,-37.49 627.01,-28.23"/>
<polygon fill="midnightblue" stroke="midnightblue" points="630.03,-30.01 632.67,-19.75 624.21,-26.13 630.03,-30.01"/>
</g>
</g>
</svg>
