<?xml version="1.0" encoding="UTF-8" standalone="no"?>
<!DOCTYPE svg PUBLIC "-//W3C//DTD SVG 1.1//EN"
 "http://www.w3.org/Graphics/SVG/1.1/DTD/svg11.dtd">
<!-- Generated by graphviz version 2.49.0 (20210830.1337)
 -->
<!-- Title: typeClassDefs/VisionLine.hpp Pages: 1 -->
<svg width="816pt" height="375pt"
 viewBox="0.00 0.00 816.00 375.00" xmlns="http://www.w3.org/2000/svg" xmlns:xlink="http://www.w3.org/1999/xlink">
<g id="graph0" class="graph" transform="scale(1 1) rotate(0) translate(4 371)">
<title>typeClassDefs/VisionLine.hpp</title>
<!-- Node1 -->
<g id="node1" class="node">
<title>Node1</title>
<g id="a_node1"><a xlink:title=" ">
<polygon fill="#bfbfbf" stroke="black" points="271,-347.5 271,-366.5 417,-366.5 417,-347.5 271,-347.5"/>
<text text-anchor="middle" x="344" y="-354.5" font-family="Helvetica,sans-Serif" font-size="10.00">typeClassDefs/VisionLine.hpp</text>
</a>
</g>
</g>
<!-- Node2 -->
<g id="node2" class="node">
<title>Node2</title>
<g id="a_node2"><a xlink:title=" ">
<polygon fill="none" stroke="#bfbfbf" points="338.5,-56.5 338.5,-75.5 383.5,-75.5 383.5,-56.5 338.5,-56.5"/>
<text text-anchor="middle" x="361" y="-63.5" font-family="Helvetica,sans-Serif" font-size="10.00">cstdlib</text>
</a>
</g>
</g>
<!-- Node1&#45;&gt;Node2 -->
<g id="edge1" class="edge">
<title>Node1&#45;&gt;Node2</title>
<path fill="none" stroke="midnightblue" d="M349.84,-347.31C361.38,-329.26 386,-286.07 386,-246 386,-246 386,-246 386,-188 386,-150.96 374.63,-108.85 367.22,-85.35"/>
<polygon fill="midnightblue" stroke="midnightblue" points="370.5,-84.1 364.07,-75.68 363.84,-86.27 370.5,-84.1"/>
</g>
<!-- Node3 -->
<g id="node3" class="node">
<title>Node3</title>
<g id="a_node3"><a xlink:title=" ">
<polygon fill="none" stroke="#bfbfbf" points="12,-56.5 12,-75.5 60,-75.5 60,-56.5 12,-56.5"/>
<text text-anchor="middle" x="36" y="-63.5" font-family="Helvetica,sans-Serif" font-size="10.00">string.h</text>
</a>
</g>
</g>
<!-- Node1&#45;&gt;Node3 -->
<g id="edge2" class="edge">
<title>Node1&#45;&gt;Node3</title>
<path fill="none" stroke="midnightblue" d="M270.74,-353.68C215.81,-349.59 139.92,-338.81 79,-311 37.64,-292.11 0,-291.47 0,-246 0,-246 0,-246 0,-188 0,-149.99 16.52,-107.94 27.18,-84.78"/>
<polygon fill="midnightblue" stroke="midnightblue" points="30.44,-86.08 31.59,-75.54 24.12,-83.06 30.44,-86.08"/>
</g>
<!-- Node4 -->
<g id="node4" class="node">
<title>Node4</title>
<g id="a_node4"><a xlink:title=" ">
<polygon fill="none" stroke="#bfbfbf" points="116,-56.5 116,-75.5 168,-75.5 168,-56.5 116,-56.5"/>
<text text-anchor="middle" x="142" y="-63.5" font-family="Helvetica,sans-Serif" font-size="10.00">sstream</text>
</a>
</g>
</g>
<!-- Node1&#45;&gt;Node4 -->
<g id="edge3" class="edge">
<title>Node1&#45;&gt;Node4</title>
<path fill="none" stroke="midnightblue" d="M287.16,-347.48C198.67,-332.6 38,-298.36 38,-246 38,-246 38,-246 38,-188 38,-139.55 86.55,-100.82 117.3,-81.15"/>
<polygon fill="midnightblue" stroke="midnightblue" points="119.53,-83.89 126.2,-75.66 115.85,-77.93 119.53,-83.89"/>
</g>
<!-- Node5 -->
<g id="node5" class="node">
<title>Node5</title>
<g id="a_node5"><a xlink:title=" ">
<polygon fill="none" stroke="#bfbfbf" points="682.5,-0.5 682.5,-19.5 735.5,-19.5 735.5,-0.5 682.5,-0.5"/>
<text text-anchor="middle" x="709" y="-7.5" font-family="Helvetica,sans-Serif" font-size="10.00">gu_util.h</text>
</a>
</g>
</g>
<!-- Node1&#45;&gt;Node5 -->
<g id="edge4" class="edge">
<title>Node1&#45;&gt;Node5</title>
<path fill="none" stroke="midnightblue" d="M417.01,-353.69C547.68,-347.56 808,-325.37 808,-246 808,-246 808,-246 808,-126.5 808,-80.55 762.26,-43.7 732.97,-24.81"/>
<polygon fill="midnightblue" stroke="midnightblue" points="734.81,-21.84 724.47,-19.54 731.12,-27.79 734.81,-21.84"/>
</g>
<!-- Node6 -->
<g id="node6" class="node">
<title>Node6</title>
<g id="a_node6"><a xlink:href="wb__vision__line_8h.html" target="_top" xlink:title=" ">
<polygon fill="none" stroke="black" points="684,-179.5 684,-198.5 772,-198.5 772,-179.5 684,-179.5"/>
<text text-anchor="middle" x="728" y="-186.5" font-family="Helvetica,sans-Serif" font-size="10.00">wb_vision_line.h</text>
</a>
</g>
</g>
<!-- Node1&#45;&gt;Node6 -->
<g id="edge5" class="edge">
<title>Node1&#45;&gt;Node6</title>
<path fill="none" stroke="midnightblue" d="M363.84,-347.42C427.04,-320.1 623.9,-235 698.73,-202.65"/>
<polygon fill="midnightblue" stroke="midnightblue" points="700.26,-205.8 708.05,-198.62 697.48,-199.38 700.26,-205.8"/>
</g>
<!-- Node12 -->
<g id="node12" class="node">
<title>Node12</title>
<g id="a_node12"><a xlink:href="_pixel_coordinate_line_8h.html" target="_top" xlink:title=" ">
<polygon fill="none" stroke="black" points="245,-291.5 245,-310.5 355,-310.5 355,-291.5 245,-291.5"/>
<text text-anchor="middle" x="300" y="-298.5" font-family="Helvetica,sans-Serif" font-size="10.00">PixelCoordinateLine.h</text>
</a>
</g>
</g>
<!-- Node1&#45;&gt;Node12 -->
<g id="edge18" class="edge">
<title>Node1&#45;&gt;Node12</title>
<path fill="none" stroke="midnightblue" d="M336.73,-347.08C330.46,-339.38 321.21,-328.03 313.57,-318.65"/>
<polygon fill="midnightblue" stroke="midnightblue" points="316.16,-316.29 307.13,-310.75 310.73,-320.71 316.16,-316.29"/>
</g>
<!-- Node6&#45;&gt;Node5 -->
<g id="edge6" class="edge">
<title>Node6&#45;&gt;Node5</title>
<path fill="none" stroke="midnightblue" d="M731.9,-179.37C741.04,-157.87 761.92,-100.42 746,-56 742.06,-45 734.14,-34.77 726.64,-26.85"/>
<polygon fill="midnightblue" stroke="midnightblue" points="729.02,-24.28 719.44,-19.76 724.11,-29.27 729.02,-24.28"/>
</g>
<!-- Node7 -->
<g id="node7" class="node">
<title>Node7</title>
<g id="a_node7"><a xlink:title=" ">
<polygon fill="none" stroke="#bfbfbf" points="594,-0.5 594,-19.5 642,-19.5 642,-0.5 594,-0.5"/>
<text text-anchor="middle" x="618" y="-7.5" font-family="Helvetica,sans-Serif" font-size="10.00">stdint.h</text>
</a>
</g>
</g>
<!-- Node6&#45;&gt;Node7 -->
<g id="edge7" class="edge">
<title>Node6&#45;&gt;Node7</title>
<path fill="none" stroke="midnightblue" d="M722.69,-179.46C705.68,-152.08 652.21,-66.05 628.97,-28.65"/>
<polygon fill="midnightblue" stroke="midnightblue" points="631.76,-26.51 623.51,-19.87 625.82,-30.21 631.76,-26.51"/>
</g>
<!-- Node8 -->
<g id="node8" class="node">
<title>Node8</title>
<g id="a_node8"><a xlink:href="wb__pixel__coordinate__line_8h.html" target="_top" xlink:title=" ">
<polygon fill="none" stroke="black" points="444,-112.5 444,-142.5 548,-142.5 548,-112.5 444,-112.5"/>
<text text-anchor="start" x="452" y="-130.5" font-family="Helvetica,sans-Serif" font-size="10.00">wb_pixel_coordinate</text>
<text text-anchor="middle" x="496" y="-119.5" font-family="Helvetica,sans-Serif" font-size="10.00">_line.h</text>
</a>
</g>
</g>
<!-- Node6&#45;&gt;Node8 -->
<g id="edge8" class="edge">
<title>Node6&#45;&gt;Node8</title>
<path fill="none" stroke="midnightblue" d="M694.76,-179.48C659.12,-170.33 601.72,-155.61 557.75,-144.34"/>
<polygon fill="midnightblue" stroke="midnightblue" points="558.57,-140.93 548.02,-141.84 556.83,-147.71 558.57,-140.93"/>
</g>
<!-- Node8&#45;&gt;Node5 -->
<g id="edge9" class="edge">
<title>Node8&#45;&gt;Node5</title>
<path fill="none" stroke="midnightblue" d="M522.12,-112.34C563.56,-89.86 643.84,-46.33 684.35,-24.37"/>
<polygon fill="midnightblue" stroke="midnightblue" points="686.16,-27.37 693.28,-19.52 682.82,-21.21 686.16,-27.37"/>
</g>
<!-- Node8&#45;&gt;Node7 -->
<g id="edge10" class="edge">
<title>Node8&#45;&gt;Node7</title>
<path fill="none" stroke="midnightblue" d="M516.13,-112.4C529.39,-102.75 546.86,-89.33 561,-76 577.13,-60.8 593.62,-41.51 604.68,-27.91"/>
<polygon fill="midnightblue" stroke="midnightblue" points="607.59,-29.88 611.11,-19.89 602.12,-25.5 607.59,-29.88"/>
</g>
<!-- Node9 -->
<g id="node9" class="node">
<title>Node9</title>
<g id="a_node9"><a xlink:href="wb__pixel__coordinate_8h.html" target="_top" xlink:title=" ">
<polygon fill="none" stroke="black" points="440,-56.5 440,-75.5 552,-75.5 552,-56.5 440,-56.5"/>
<text text-anchor="middle" x="496" y="-63.5" font-family="Helvetica,sans-Serif" font-size="10.00">wb_pixel_coordinate.h</text>
</a>
</g>
</g>
<!-- Node8&#45;&gt;Node9 -->
<g id="edge11" class="edge">
<title>Node8&#45;&gt;Node9</title>
<path fill="none" stroke="midnightblue" d="M496,-112.4C496,-104.47 496,-94.46 496,-85.86"/>
<polygon fill="midnightblue" stroke="midnightblue" points="499.5,-85.66 496,-75.66 492.5,-85.66 499.5,-85.66"/>
</g>
<!-- Node10 -->
<g id="node10" class="node">
<title>Node10</title>
<g id="a_node10"><a xlink:title=" ">
<polygon fill="none" stroke="#bfbfbf" points="189,-0.5 189,-19.5 279,-19.5 279,-0.5 189,-0.5"/>
<text text-anchor="middle" x="234" y="-7.5" font-family="Helvetica,sans-Serif" font-size="10.00">guunits/guunits.h</text>
</a>
</g>
</g>
<!-- Node8&#45;&gt;Node10 -->
<g id="edge16" class="edge">
<title>Node8&#45;&gt;Node10</title>
<path fill="none" stroke="midnightblue" d="M443.68,-115.07C409.97,-106.65 365.74,-93.6 329,-76 300.35,-62.27 270.64,-40.52 252.25,-26.01"/>
<polygon fill="midnightblue" stroke="midnightblue" points="254.17,-23.07 244.18,-19.54 249.78,-28.53 254.17,-23.07"/>
</g>
<!-- Node11 -->
<g id="node11" class="node">
<title>Node11</title>
<g id="a_node11"><a xlink:title=" ">
<polygon fill="none" stroke="#bfbfbf" points="336.5,-0.5 336.5,-19.5 485.5,-19.5 485.5,-0.5 336.5,-0.5"/>
<text text-anchor="middle" x="411" y="-7.5" font-family="Helvetica,sans-Serif" font-size="10.00">gucoordinates/gucoordinates.h</text>
</a>
</g>
</g>
<!-- Node8&#45;&gt;Node11 -->
<g id="edge17" class="edge">
<title>Node8&#45;&gt;Node11</title>
<path fill="none" stroke="midnightblue" d="M470.98,-112.33C457.39,-103.48 441.31,-90.93 431,-76 421.46,-62.19 416.35,-43.67 413.69,-29.93"/>
<polygon fill="midnightblue" stroke="midnightblue" points="417.08,-29.01 411.99,-19.72 410.18,-30.16 417.08,-29.01"/>
</g>
<!-- Node9&#45;&gt;Node5 -->
<g id="edge12" class="edge">
<title>Node9&#45;&gt;Node5</title>
<path fill="none" stroke="midnightblue" d="M529.75,-56.44C568.71,-46.57 632.54,-30.38 672.59,-20.23"/>
<polygon fill="midnightblue" stroke="midnightblue" points="673.64,-23.58 682.47,-17.73 671.92,-16.79 673.64,-23.58"/>
</g>
<!-- Node9&#45;&gt;Node7 -->
<g id="edge13" class="edge">
<title>Node9&#45;&gt;Node7</title>
<path fill="none" stroke="midnightblue" d="M515.33,-56.44C535.32,-47.6 566.74,-33.69 589.56,-23.59"/>
<polygon fill="midnightblue" stroke="midnightblue" points="591.03,-26.76 598.76,-19.52 588.2,-20.36 591.03,-26.76"/>
</g>
<!-- Node9&#45;&gt;Node10 -->
<g id="edge14" class="edge">
<title>Node9&#45;&gt;Node10</title>
<path fill="none" stroke="midnightblue" d="M454.49,-56.44C408.59,-46.98 334.62,-31.74 285.17,-21.55"/>
<polygon fill="midnightblue" stroke="midnightblue" points="285.82,-18.11 275.32,-19.52 284.41,-24.96 285.82,-18.11"/>
</g>
<!-- Node9&#45;&gt;Node11 -->
<g id="edge15" class="edge">
<title>Node9&#45;&gt;Node11</title>
<path fill="none" stroke="midnightblue" d="M482.34,-56.32C469.08,-47.9 448.73,-34.97 433.15,-25.07"/>
<polygon fill="midnightblue" stroke="midnightblue" points="434.94,-22.06 424.62,-19.65 431.19,-27.97 434.94,-22.06"/>
</g>
<!-- Node13 -->
<g id="node13" class="node">
<title>Node13</title>
<g id="a_node13"><a xlink:href="_pixel_coordinate_line_8hpp.html" target="_top" xlink:title=" ">
<polygon fill="none" stroke="black" points="236.5,-235.5 236.5,-254.5 357.5,-254.5 357.5,-235.5 236.5,-235.5"/>
<text text-anchor="middle" x="297" y="-242.5" font-family="Helvetica,sans-Serif" font-size="10.00">PixelCoordinateLine.hpp</text>
</a>
</g>
</g>
<!-- Node12&#45;&gt;Node13 -->
<g id="edge19" class="edge">
<title>Node12&#45;&gt;Node13</title>
<path fill="none" stroke="midnightblue" d="M299.5,-291.08C299.11,-284.01 298.55,-273.86 298.05,-264.99"/>
<polygon fill="midnightblue" stroke="midnightblue" points="301.54,-264.54 297.49,-254.75 294.55,-264.93 301.54,-264.54"/>
</g>
<!-- Node13&#45;&gt;Node2 -->
<g id="edge20" class="edge">
<title>Node13&#45;&gt;Node2</title>
<path fill="none" stroke="midnightblue" d="M303.11,-235.41C309.13,-226.62 318.23,-212.39 324,-199 340.74,-160.16 352.07,-111.64 357.43,-85.59"/>
<polygon fill="midnightblue" stroke="midnightblue" points="360.9,-86.1 359.42,-75.61 354.03,-84.73 360.9,-86.1"/>
</g>
<!-- Node13&#45;&gt;Node3 -->
<g id="edge21" class="edge">
<title>Node13&#45;&gt;Node3</title>
<path fill="none" stroke="midnightblue" d="M236.44,-243.52C194.15,-240.24 138.58,-229.68 100,-199 63.4,-169.89 46.38,-114.63 39.68,-85.71"/>
<polygon fill="midnightblue" stroke="midnightblue" points="43.05,-84.75 37.53,-75.7 36.21,-86.22 43.05,-84.75"/>
</g>
<!-- Node13&#45;&gt;Node4 -->
<g id="edge22" class="edge">
<title>Node13&#45;&gt;Node4</title>
<path fill="none" stroke="midnightblue" d="M246.01,-235.44C222.65,-229.07 196.37,-218.03 179,-199 149.81,-167.02 143.42,-113.83 142.17,-85.72"/>
<polygon fill="midnightblue" stroke="midnightblue" points="145.67,-85.56 141.9,-75.66 138.67,-85.75 145.67,-85.56"/>
</g>
<!-- Node13&#45;&gt;Node5 -->
<g id="edge23" class="edge">
<title>Node13&#45;&gt;Node5</title>
<path fill="none" stroke="midnightblue" d="M329.03,-235.45C379.77,-221.07 480.71,-189.02 557,-143 613.14,-109.13 668.62,-54.02 694.27,-26.98"/>
<polygon fill="midnightblue" stroke="midnightblue" points="696.95,-29.24 701.23,-19.55 691.84,-24.45 696.95,-29.24"/>
</g>
<!-- Node13&#45;&gt;Node8 -->
<g id="edge24" class="edge">
<title>Node13&#45;&gt;Node8</title>
<path fill="none" stroke="midnightblue" d="M311.96,-235.32C343.86,-216.8 419.22,-173.07 462.97,-147.67"/>
<polygon fill="midnightblue" stroke="midnightblue" points="464.91,-150.59 471.8,-142.55 461.39,-144.54 464.91,-150.59"/>
</g>
<!-- Node13&#45;&gt;Node10 -->
<g id="edge34" class="edge">
<title>Node13&#45;&gt;Node10</title>
<path fill="none" stroke="midnightblue" d="M238.42,-235.44C212.44,-229.09 183.06,-218.07 162,-199 117.62,-158.8 119.5,-134.56 107,-76 105.14,-67.31 101.87,-63.26 107,-56 123.34,-32.88 152.62,-21.56 178.95,-16.05"/>
<polygon fill="midnightblue" stroke="midnightblue" points="179.67,-19.48 188.86,-14.22 178.39,-12.6 179.67,-19.48"/>
</g>
<!-- Node13&#45;&gt;Node11 -->
<g id="edge35" class="edge">
<title>Node13&#45;&gt;Node11</title>
<path fill="none" stroke="midnightblue" d="M295.98,-235.14C293.15,-206.31 287.91,-113.72 329,-56 339.61,-41.1 356.75,-30.6 372.63,-23.52"/>
<polygon fill="midnightblue" stroke="midnightblue" points="374.37,-26.58 382.28,-19.53 371.7,-20.11 374.37,-26.58"/>
</g>
<!-- Node14 -->
<g id="node14" class="node">
<title>Node14</title>
<g id="a_node14"><a xlink:href="_pixel_coordinate_8h.html" target="_top" xlink:title=" ">
<polygon fill="none" stroke="black" points="188,-179.5 188,-198.5 280,-198.5 280,-179.5 188,-179.5"/>
<text text-anchor="middle" x="234" y="-186.5" font-family="Helvetica,sans-Serif" font-size="10.00">PixelCoordinate.h</text>
</a>
</g>
</g>
<!-- Node13&#45;&gt;Node14 -->
<g id="edge25" class="edge">
<title>Node13&#45;&gt;Node14</title>
<path fill="none" stroke="midnightblue" d="M286.88,-235.32C277.47,-227.26 263.26,-215.08 251.93,-205.37"/>
<polygon fill="midnightblue" stroke="midnightblue" points="254.18,-202.68 244.31,-198.83 249.62,-208 254.18,-202.68"/>
</g>
<!-- Node15 -->
<g id="node15" class="node">
<title>Node15</title>
<g id="a_node15"><a xlink:href="_pixel_coordinate_8hpp.html" target="_top" xlink:title=" ">
<polygon fill="none" stroke="black" points="180,-118 180,-137 282,-137 282,-118 180,-118"/>
<text text-anchor="middle" x="231" y="-125" font-family="Helvetica,sans-Serif" font-size="10.00">PixelCoordinate.hpp</text>
</a>
</g>
</g>
<!-- Node14&#45;&gt;Node15 -->
<g id="edge26" class="edge">
<title>Node14&#45;&gt;Node15</title>
<path fill="none" stroke="midnightblue" d="M233.57,-179.48C233.15,-171.08 232.49,-157.98 231.94,-147.16"/>
<polygon fill="midnightblue" stroke="midnightblue" points="235.43,-146.82 231.43,-137.01 228.44,-147.17 235.43,-146.82"/>
</g>
<!-- Node15&#45;&gt;Node2 -->
<g id="edge27" class="edge">
<title>Node15&#45;&gt;Node2</title>
<path fill="none" stroke="midnightblue" d="M249.63,-117.98C271.44,-107.99 307.8,-91.35 333.02,-79.81"/>
<polygon fill="midnightblue" stroke="midnightblue" points="334.77,-82.85 342.41,-75.51 331.86,-76.49 334.77,-82.85"/>
</g>
<!-- Node15&#45;&gt;Node3 -->
<g id="edge28" class="edge">
<title>Node15&#45;&gt;Node3</title>
<path fill="none" stroke="midnightblue" d="M203.06,-117.98C168.02,-107.28 107.97,-88.96 70.22,-77.44"/>
<polygon fill="midnightblue" stroke="midnightblue" points="70.78,-73.95 60.2,-74.38 68.74,-80.65 70.78,-73.95"/>
</g>
<!-- Node15&#45;&gt;Node4 -->
<g id="edge29" class="edge">
<title>Node15&#45;&gt;Node4</title>
<path fill="none" stroke="midnightblue" d="M218.25,-117.98C203.97,-108.43 180.6,-92.81 163.49,-81.37"/>
<polygon fill="midnightblue" stroke="midnightblue" points="164.99,-78.16 154.73,-75.51 161.1,-83.98 164.99,-78.16"/>
</g>
<!-- Node15&#45;&gt;Node5 -->
<g id="edge30" class="edge">
<title>Node15&#45;&gt;Node5</title>
<path fill="none" stroke="midnightblue" d="M282.28,-124.84C348.5,-121.32 466.48,-110.33 561,-76 577.12,-70.15 578.62,-63.6 594,-56 619.95,-43.18 650.52,-31.36 673.61,-23.06"/>
<polygon fill="midnightblue" stroke="midnightblue" points="675.08,-26.25 683.34,-19.61 672.74,-19.66 675.08,-26.25"/>
</g>
<!-- Node15&#45;&gt;Node9 -->
<g id="edge31" class="edge">
<title>Node15&#45;&gt;Node9</title>
<path fill="none" stroke="midnightblue" d="M268.97,-117.98C316.2,-107.37 396.86,-89.26 448.24,-77.72"/>
<polygon fill="midnightblue" stroke="midnightblue" points="449.11,-81.11 458.1,-75.51 447.58,-74.28 449.11,-81.11"/>
</g>
<!-- Node15&#45;&gt;Node10 -->
<g id="edge32" class="edge">
<title>Node15&#45;&gt;Node10</title>
<path fill="none" stroke="midnightblue" d="M227.92,-117.82C223.6,-104.52 216.61,-78.29 220,-56 221.37,-47 224.19,-37.33 226.95,-29.26"/>
<polygon fill="midnightblue" stroke="midnightblue" points="230.27,-30.37 230.4,-19.78 223.69,-27.98 230.27,-30.37"/>
</g>
<!-- Node15&#45;&gt;Node11 -->
<g id="edge33" class="edge">
<title>Node15&#45;&gt;Node11</title>
<path fill="none" stroke="midnightblue" d="M236.85,-117.96C247.22,-103.4 270.16,-73.66 296,-56 317.97,-40.98 345.67,-29.95 368.38,-22.57"/>
<polygon fill="midnightblue" stroke="midnightblue" points="369.6,-25.85 378.1,-19.53 367.51,-19.17 369.6,-25.85"/>
</g>
</g>
</svg>
