<?xml version="1.0" encoding="UTF-8" standalone="no"?>
<!DOCTYPE svg PUBLIC "-//W3C//DTD SVG 1.1//EN"
 "http://www.w3.org/Graphics/SVG/1.1/DTD/svg11.dtd">
<!-- Generated by graphviz version 2.49.0 (20210830.1337)
 -->
<!-- Title: typeClassDefs/VisionDetectionFeatureArray.hpp Pages: 1 -->
<svg width="660pt" height="397pt"
 viewBox="0.00 0.00 660.00 397.00" xmlns="http://www.w3.org/2000/svg" xmlns:xlink="http://www.w3.org/1999/xlink">
<g id="graph0" class="graph" transform="scale(1 1) rotate(0) translate(4 393)">
<title>typeClassDefs/VisionDetectionFeatureArray.hpp</title>
<!-- Node1 -->
<g id="node1" class="node">
<title>Node1</title>
<g id="a_node1"><a xlink:title=" ">
<polygon fill="#bfbfbf" stroke="black" points="264.5,-358.5 264.5,-388.5 415.5,-388.5 415.5,-358.5 264.5,-358.5"/>
<text text-anchor="start" x="272.5" y="-376.5" font-family="Helvetica,sans-Serif" font-size="10.00">typeClassDefs/VisionDetection</text>
<text text-anchor="middle" x="340" y="-365.5" font-family="Helvetica,sans-Serif" font-size="10.00">FeatureArray.hpp</text>
</a>
</g>
</g>
<!-- Node2 -->
<g id="node2" class="node">
<title>Node2</title>
<g id="a_node2"><a xlink:title=" ">
<polygon fill="none" stroke="#bfbfbf" points="91.5,-56.5 91.5,-75.5 136.5,-75.5 136.5,-56.5 91.5,-56.5"/>
<text text-anchor="middle" x="114" y="-63.5" font-family="Helvetica,sans-Serif" font-size="10.00">cstdlib</text>
</a>
</g>
</g>
<!-- Node1&#45;&gt;Node2 -->
<g id="edge1" class="edge">
<title>Node1&#45;&gt;Node2</title>
<path fill="none" stroke="midnightblue" d="M286.71,-358.42C262.18,-350.3 233.57,-338.39 211,-322 158.88,-284.15 146,-268.49 119,-210 100.06,-168.97 105.51,-114.03 110.26,-85.68"/>
<polygon fill="midnightblue" stroke="midnightblue" points="113.75,-86.05 112.11,-75.58 106.86,-84.78 113.75,-86.05"/>
</g>
<!-- Node3 -->
<g id="node3" class="node">
<title>Node3</title>
<g id="a_node3"><a xlink:title=" ">
<polygon fill="none" stroke="#bfbfbf" points="14,-56.5 14,-75.5 62,-75.5 62,-56.5 14,-56.5"/>
<text text-anchor="middle" x="38" y="-63.5" font-family="Helvetica,sans-Serif" font-size="10.00">string.h</text>
</a>
</g>
</g>
<!-- Node1&#45;&gt;Node3 -->
<g id="edge2" class="edge">
<title>Node1&#45;&gt;Node3</title>
<path fill="none" stroke="midnightblue" d="M264.12,-362.25C163.91,-346.55 0,-312.41 0,-257 0,-257 0,-257 0,-193.5 0,-153.35 17.78,-108.95 29.01,-84.89"/>
<polygon fill="midnightblue" stroke="midnightblue" points="32.29,-86.15 33.49,-75.63 25.99,-83.1 32.29,-86.15"/>
</g>
<!-- Node4 -->
<g id="node4" class="node">
<title>Node4</title>
<g id="a_node4"><a xlink:title=" ">
<polygon fill="none" stroke="#bfbfbf" points="302,-56.5 302,-75.5 354,-75.5 354,-56.5 302,-56.5"/>
<text text-anchor="middle" x="328" y="-63.5" font-family="Helvetica,sans-Serif" font-size="10.00">sstream</text>
</a>
</g>
</g>
<!-- Node1&#45;&gt;Node4 -->
<g id="edge3" class="edge">
<title>Node1&#45;&gt;Node4</title>
<path fill="none" stroke="midnightblue" d="M349.76,-358.28C363.26,-337.17 386,-295.85 386,-257 386,-257 386,-257 386,-193.5 386,-150.84 358.41,-106.85 341.29,-83.66"/>
<polygon fill="midnightblue" stroke="midnightblue" points="343.96,-81.4 335.11,-75.57 338.4,-85.65 343.96,-81.4"/>
</g>
<!-- Node5 -->
<g id="node5" class="node">
<title>Node5</title>
<g id="a_node5"><a xlink:title=" ">
<polygon fill="none" stroke="#bfbfbf" points="398.5,-0.5 398.5,-19.5 451.5,-19.5 451.5,-0.5 398.5,-0.5"/>
<text text-anchor="middle" x="425" y="-7.5" font-family="Helvetica,sans-Serif" font-size="10.00">gu_util.h</text>
</a>
</g>
</g>
<!-- Node1&#45;&gt;Node5 -->
<g id="edge4" class="edge">
<title>Node1&#45;&gt;Node5</title>
<path fill="none" stroke="midnightblue" d="M359.48,-358.5C384.3,-338.87 424,-300.64 424,-257 424,-257 424,-257 424,-193.5 424,-131.61 387.51,-116.17 402,-56 404.31,-46.42 409.02,-36.58 413.58,-28.56"/>
<polygon fill="midnightblue" stroke="midnightblue" points="416.69,-30.17 418.9,-19.81 410.71,-26.54 416.69,-30.17"/>
</g>
<!-- Node6 -->
<g id="node6" class="node">
<title>Node6</title>
<g id="a_node6"><a xlink:href="wb__vision__detection__feature__array_8h.html" target="_top" xlink:title=" ">
<polygon fill="none" stroke="black" points="496.5,-179.5 496.5,-209.5 601.5,-209.5 601.5,-179.5 496.5,-179.5"/>
<text text-anchor="start" x="504.5" y="-197.5" font-family="Helvetica,sans-Serif" font-size="10.00">wb_vision_detection</text>
<text text-anchor="middle" x="549" y="-186.5" font-family="Helvetica,sans-Serif" font-size="10.00">_feature_array.h</text>
</a>
</g>
</g>
<!-- Node1&#45;&gt;Node6 -->
<g id="edge5" class="edge">
<title>Node1&#45;&gt;Node6</title>
<path fill="none" stroke="midnightblue" d="M374.98,-358.35C394.58,-349.51 418.84,-336.96 438,-322 477.3,-291.29 513.55,-245.29 533.33,-218.05"/>
<polygon fill="midnightblue" stroke="midnightblue" points="536.42,-219.74 539.39,-209.57 530.73,-215.67 536.42,-219.74"/>
</g>
<!-- Node10 -->
<g id="node10" class="node">
<title>Node10</title>
<g id="a_node10"><a xlink:href="_vision_detection_feature_8h.html" target="_top" xlink:title=" ">
<polygon fill="none" stroke="black" points="220.5,-302.5 220.5,-321.5 345.5,-321.5 345.5,-302.5 220.5,-302.5"/>
<text text-anchor="middle" x="283" y="-309.5" font-family="Helvetica,sans-Serif" font-size="10.00">VisionDetectionFeature.h</text>
</a>
</g>
</g>
<!-- Node1&#45;&gt;Node10 -->
<g id="edge14" class="edge">
<title>Node1&#45;&gt;Node10</title>
<path fill="none" stroke="midnightblue" d="M326.49,-358.4C318.04,-349.58 307.12,-338.18 298.34,-329.02"/>
<polygon fill="midnightblue" stroke="midnightblue" points="300.74,-326.46 291.29,-321.66 295.68,-331.3 300.74,-326.46"/>
</g>
<!-- Node6&#45;&gt;Node5 -->
<g id="edge6" class="edge">
<title>Node6&#45;&gt;Node5</title>
<path fill="none" stroke="midnightblue" d="M557,-179.44C562.13,-169.59 568.31,-155.92 571,-143 579.14,-103.95 577.57,-83.83 549,-56 525.29,-32.9 488.83,-21.54 461.57,-16.03"/>
<polygon fill="midnightblue" stroke="midnightblue" points="462.09,-12.56 451.62,-14.19 460.81,-19.45 462.09,-12.56"/>
</g>
<!-- Node7 -->
<g id="node7" class="node">
<title>Node7</title>
<g id="a_node7"><a xlink:title=" ">
<polygon fill="none" stroke="#bfbfbf" points="604,-0.5 604,-19.5 652,-19.5 652,-0.5 604,-0.5"/>
<text text-anchor="middle" x="628" y="-7.5" font-family="Helvetica,sans-Serif" font-size="10.00">stdint.h</text>
</a>
</g>
</g>
<!-- Node6&#45;&gt;Node7 -->
<g id="edge7" class="edge">
<title>Node6&#45;&gt;Node7</title>
<path fill="none" stroke="midnightblue" d="M570.22,-179.36C582.02,-170.35 595.93,-157.64 604,-143 624.08,-106.58 627.83,-56.74 628.25,-29.92"/>
<polygon fill="midnightblue" stroke="midnightblue" points="631.75,-29.66 628.27,-19.65 624.75,-29.65 631.75,-29.66"/>
</g>
<!-- Node8 -->
<g id="node8" class="node">
<title>Node8</title>
<g id="a_node8"><a xlink:href="wb__vision__detection__feature_8h.html" target="_top" xlink:title=" ">
<polygon fill="none" stroke="black" points="456.5,-112.5 456.5,-142.5 561.5,-142.5 561.5,-112.5 456.5,-112.5"/>
<text text-anchor="start" x="464.5" y="-130.5" font-family="Helvetica,sans-Serif" font-size="10.00">wb_vision_detection</text>
<text text-anchor="middle" x="509" y="-119.5" font-family="Helvetica,sans-Serif" font-size="10.00">_feature.h</text>
</a>
</g>
</g>
<!-- Node6&#45;&gt;Node8 -->
<g id="edge8" class="edge">
<title>Node6&#45;&gt;Node8</title>
<path fill="none" stroke="midnightblue" d="M540.32,-179.4C535.24,-171.13 528.7,-160.51 522.91,-151.1"/>
<polygon fill="midnightblue" stroke="midnightblue" points="525.88,-149.26 517.66,-142.58 519.92,-152.93 525.88,-149.26"/>
</g>
<!-- Node8&#45;&gt;Node5 -->
<g id="edge9" class="edge">
<title>Node8&#45;&gt;Node5</title>
<path fill="none" stroke="midnightblue" d="M520.83,-112.29C531.76,-97.32 544.69,-73.54 533,-56 517.23,-32.34 486.4,-21.1 461.71,-15.77"/>
<polygon fill="midnightblue" stroke="midnightblue" points="462.05,-12.27 451.57,-13.83 460.73,-19.15 462.05,-12.27"/>
</g>
<!-- Node8&#45;&gt;Node7 -->
<g id="edge10" class="edge">
<title>Node8&#45;&gt;Node7</title>
<path fill="none" stroke="midnightblue" d="M523.59,-112.34C545.91,-90.68 588.38,-49.45 611.69,-26.83"/>
<polygon fill="midnightblue" stroke="midnightblue" points="614.33,-29.15 619.07,-19.67 609.45,-24.12 614.33,-29.15"/>
</g>
<!-- Node9 -->
<g id="node9" class="node">
<title>Node9</title>
<g id="a_node9"><a xlink:href="wb__polar__coordinate_8h.html" target="_top" xlink:title=" ">
<polygon fill="none" stroke="black" points="410.5,-56.5 410.5,-75.5 523.5,-75.5 523.5,-56.5 410.5,-56.5"/>
<text text-anchor="middle" x="467" y="-63.5" font-family="Helvetica,sans-Serif" font-size="10.00">wb_polar_coordinate.h</text>
</a>
</g>
</g>
<!-- Node8&#45;&gt;Node9 -->
<g id="edge11" class="edge">
<title>Node8&#45;&gt;Node9</title>
<path fill="none" stroke="midnightblue" d="M499.05,-112.4C493.01,-103.84 485.26,-92.87 478.9,-83.86"/>
<polygon fill="midnightblue" stroke="midnightblue" points="481.74,-81.81 473.11,-75.66 476.02,-85.85 481.74,-81.81"/>
</g>
<!-- Node9&#45;&gt;Node5 -->
<g id="edge12" class="edge">
<title>Node9&#45;&gt;Node5</title>
<path fill="none" stroke="midnightblue" d="M460.06,-56.08C454.07,-48.38 445.25,-37.03 437.95,-27.65"/>
<polygon fill="midnightblue" stroke="midnightblue" points="440.71,-25.5 431.81,-19.75 435.18,-29.79 440.71,-25.5"/>
</g>
<!-- Node9&#45;&gt;Node7 -->
<g id="edge13" class="edge">
<title>Node9&#45;&gt;Node7</title>
<path fill="none" stroke="midnightblue" d="M492.51,-56.44C519.99,-47.23 563.86,-32.51 594.2,-22.34"/>
<polygon fill="midnightblue" stroke="midnightblue" points="595.56,-25.57 603.92,-19.08 593.33,-18.94 595.56,-25.57"/>
</g>
<!-- Node11 -->
<g id="node11" class="node">
<title>Node11</title>
<g id="a_node11"><a xlink:href="_vision_detection_feature_8hpp.html" target="_top" xlink:title=" ">
<polygon fill="none" stroke="black" points="204,-246.5 204,-265.5 340,-265.5 340,-246.5 204,-246.5"/>
<text text-anchor="middle" x="272" y="-253.5" font-family="Helvetica,sans-Serif" font-size="10.00">VisionDetectionFeature.hpp</text>
</a>
</g>
</g>
<!-- Node10&#45;&gt;Node11 -->
<g id="edge15" class="edge">
<title>Node10&#45;&gt;Node11</title>
<path fill="none" stroke="midnightblue" d="M281.18,-302.08C279.73,-294.93 277.63,-284.64 275.81,-275.69"/>
<polygon fill="midnightblue" stroke="midnightblue" points="279.21,-274.85 273.78,-265.75 272.35,-276.25 279.21,-274.85"/>
</g>
<!-- Node11&#45;&gt;Node2 -->
<g id="edge16" class="edge">
<title>Node11&#45;&gt;Node2</title>
<path fill="none" stroke="midnightblue" d="M203.78,-246.42C180.07,-240.07 155.34,-229.06 139,-210 108.73,-174.7 109.11,-116 111.68,-85.97"/>
<polygon fill="midnightblue" stroke="midnightblue" points="115.2,-85.96 112.75,-75.65 108.24,-85.23 115.2,-85.96"/>
</g>
<!-- Node11&#45;&gt;Node3 -->
<g id="edge17" class="edge">
<title>Node11&#45;&gt;Node3</title>
<path fill="none" stroke="midnightblue" d="M203.91,-246.51C175.33,-240.2 143.18,-229.19 119,-210 77.2,-176.83 53.24,-115.8 43.37,-85.32"/>
<polygon fill="midnightblue" stroke="midnightblue" points="46.65,-84.11 40.36,-75.58 39.97,-86.17 46.65,-84.11"/>
</g>
<!-- Node11&#45;&gt;Node4 -->
<g id="edge18" class="edge">
<title>Node11&#45;&gt;Node4</title>
<path fill="none" stroke="midnightblue" d="M274.72,-246.39C277.58,-237.34 282.16,-222.69 286,-210 299.49,-165.38 314.8,-112.73 322.68,-85.46"/>
<polygon fill="midnightblue" stroke="midnightblue" points="326.08,-86.3 325.49,-75.72 319.36,-84.36 326.08,-86.3"/>
</g>
<!-- Node11&#45;&gt;Node5 -->
<g id="edge19" class="edge">
<title>Node11&#45;&gt;Node5</title>
<path fill="none" stroke="midnightblue" d="M269.95,-246.24C263.42,-216 246.18,-114.65 293,-56 315.84,-27.39 357.73,-16.88 388.22,-13.07"/>
<polygon fill="midnightblue" stroke="midnightblue" points="388.9,-16.51 398.47,-11.98 388.16,-9.55 388.9,-16.51"/>
</g>
<!-- Node11&#45;&gt;Node8 -->
<g id="edge20" class="edge">
<title>Node11&#45;&gt;Node8</title>
<path fill="none" stroke="midnightblue" d="M288.29,-246.31C326.27,-226.03 421.43,-175.24 473.53,-147.43"/>
<polygon fill="midnightblue" stroke="midnightblue" points="475.26,-150.48 482.43,-142.68 471.96,-144.3 475.26,-150.48"/>
</g>
<!-- Node12 -->
<g id="node12" class="node">
<title>Node12</title>
<g id="a_node12"><a xlink:href="_polar_coordinate_8h.html" target="_top" xlink:title=" ">
<polygon fill="none" stroke="black" points="148.5,-185 148.5,-204 241.5,-204 241.5,-185 148.5,-185"/>
<text text-anchor="middle" x="195" y="-192" font-family="Helvetica,sans-Serif" font-size="10.00">PolarCoordinate.h</text>
</a>
</g>
</g>
<!-- Node11&#45;&gt;Node12 -->
<g id="edge21" class="edge">
<title>Node11&#45;&gt;Node12</title>
<path fill="none" stroke="midnightblue" d="M260.97,-246.48C248.73,-237.02 228.77,-221.6 214.01,-210.19"/>
<polygon fill="midnightblue" stroke="midnightblue" points="216.06,-207.35 206.01,-204.01 211.78,-212.89 216.06,-207.35"/>
</g>
<!-- Node13 -->
<g id="node13" class="node">
<title>Node13</title>
<g id="a_node13"><a xlink:href="_polar_coordinate_8hpp.html" target="_top" xlink:title=" ">
<polygon fill="none" stroke="black" points="142,-118 142,-137 246,-137 246,-118 142,-118"/>
<text text-anchor="middle" x="194" y="-125" font-family="Helvetica,sans-Serif" font-size="10.00">PolarCoordinate.hpp</text>
</a>
</g>
</g>
<!-- Node12&#45;&gt;Node13 -->
<g id="edge22" class="edge">
<title>Node12&#45;&gt;Node13</title>
<path fill="none" stroke="midnightblue" d="M194.87,-184.73C194.72,-175.18 194.48,-159.62 194.29,-147.28"/>
<polygon fill="midnightblue" stroke="midnightblue" points="197.79,-147.07 194.13,-137.13 190.79,-147.18 197.79,-147.07"/>
</g>
<!-- Node13&#45;&gt;Node2 -->
<g id="edge23" class="edge">
<title>Node13&#45;&gt;Node2</title>
<path fill="none" stroke="midnightblue" d="M182.54,-117.98C169.83,-108.52 149.09,-93.1 133.75,-81.69"/>
<polygon fill="midnightblue" stroke="midnightblue" points="135.55,-78.67 125.44,-75.51 131.38,-84.29 135.55,-78.67"/>
</g>
<!-- Node13&#45;&gt;Node3 -->
<g id="edge24" class="edge">
<title>Node13&#45;&gt;Node3</title>
<path fill="none" stroke="midnightblue" d="M171.65,-117.98C145.01,-107.81 100.29,-90.76 69.99,-79.2"/>
<polygon fill="midnightblue" stroke="midnightblue" points="70.9,-75.8 60.31,-75.51 68.41,-82.34 70.9,-75.8"/>
</g>
<!-- Node13&#45;&gt;Node4 -->
<g id="edge25" class="edge">
<title>Node13&#45;&gt;Node4</title>
<path fill="none" stroke="midnightblue" d="M213.2,-117.98C235.79,-107.95 273.5,-91.2 299.5,-79.65"/>
<polygon fill="midnightblue" stroke="midnightblue" points="301.12,-82.77 308.84,-75.51 298.28,-76.37 301.12,-82.77"/>
</g>
<!-- Node13&#45;&gt;Node5 -->
<g id="edge26" class="edge">
<title>Node13&#45;&gt;Node5</title>
<path fill="none" stroke="midnightblue" d="M199.78,-117.66C210.06,-102.66 233,-72.27 260,-56 299.99,-31.9 353.1,-20.43 388.13,-15.17"/>
<polygon fill="midnightblue" stroke="midnightblue" points="388.97,-18.58 398.38,-13.72 387.99,-11.65 388.97,-18.58"/>
</g>
<!-- Node13&#45;&gt;Node9 -->
<g id="edge27" class="edge">
<title>Node13&#45;&gt;Node9</title>
<path fill="none" stroke="midnightblue" d="M233.11,-117.98C281.87,-107.35 365.21,-89.18 418.12,-77.65"/>
<polygon fill="midnightblue" stroke="midnightblue" points="418.93,-81.06 427.96,-75.51 417.44,-74.22 418.93,-81.06"/>
</g>
</g>
</svg>
