<?xml version="1.0" encoding="UTF-8" standalone="no"?>
<!DOCTYPE svg PUBLIC "-//W3C//DTD SVG 1.1//EN"
 "http://www.w3.org/Graphics/SVG/1.1/DTD/svg11.dtd">
<!-- Generated by graphviz version 2.49.0 (20210830.1337)
 -->
<!-- Title: typeClassDefs/VisionControlStatus.h Pages: 1 -->
<svg width="628pt" height="307pt"
 viewBox="0.00 0.00 627.72 307.00" xmlns="http://www.w3.org/2000/svg" xmlns:xlink="http://www.w3.org/1999/xlink">
<g id="graph0" class="graph" transform="scale(1 1) rotate(0) translate(4 303)">
<title>typeClassDefs/VisionControlStatus.h</title>
<!-- Node1 -->
<g id="node1" class="node">
<title>Node1</title>
<g id="a_node1"><a xlink:title=" ">
<polygon fill="#bfbfbf" stroke="black" points="118.22,-268.5 118.22,-298.5 258.22,-298.5 258.22,-268.5 118.22,-268.5"/>
<text text-anchor="start" x="126.22" y="-286.5" font-family="Helvetica,sans-Serif" font-size="10.00">typeClassDefs/VisionControl</text>
<text text-anchor="middle" x="188.22" y="-275.5" font-family="Helvetica,sans-Serif" font-size="10.00">Status.h</text>
</a>
</g>
</g>
<!-- Node2 -->
<g id="node2" class="node">
<title>Node2</title>
<g id="a_node2"><a xlink:href="_simple_whiteboard_test_8mm.html" target="_top" xlink:title=" ">
<polygon fill="none" stroke="black" points="52.72,-0.5 52.72,-30.5 189.72,-30.5 189.72,-0.5 52.72,-0.5"/>
<text text-anchor="start" x="60.72" y="-18.5" font-family="Helvetica,sans-Serif" font-size="10.00">SimpleWhiteboardTest</text>
<text text-anchor="middle" x="121.22" y="-7.5" font-family="Helvetica,sans-Serif" font-size="10.00">/SimpleWhiteboardTest.mm</text>
</a>
</g>
</g>
<!-- Node1&#45;&gt;Node2 -->
<g id="edge1" class="edge">
<title>Node1&#45;&gt;Node2</title>
<path fill="none" stroke="midnightblue" d="M107.74,-276.71C77.83,-270.17 46.71,-257.22 28.22,-232 -15.17,-172.8 -4.51,-128.72 35.22,-67 45.91,-50.4 64.13,-38.57 81.06,-30.56"/>
<polygon fill="midnightblue" stroke="midnightblue" points="107.33,-280.19 117.82,-278.68 108.68,-273.32 107.33,-280.19"/>
</g>
<!-- Node3 -->
<g id="node3" class="node">
<title>Node3</title>
<g id="a_node3"><a xlink:href="_teleoperation_control_status_8hpp.html" target="_top" xlink:title=" ">
<polygon fill="none" stroke="black" points="37.72,-201.5 37.72,-231.5 178.72,-231.5 178.72,-201.5 37.72,-201.5"/>
<text text-anchor="start" x="45.72" y="-219.5" font-family="Helvetica,sans-Serif" font-size="10.00">typeClassDefs/Teleoperation</text>
<text text-anchor="middle" x="108.22" y="-208.5" font-family="Helvetica,sans-Serif" font-size="10.00">ControlStatus.hpp</text>
</a>
</g>
</g>
<!-- Node1&#45;&gt;Node3 -->
<g id="edge2" class="edge">
<title>Node1&#45;&gt;Node3</title>
<path fill="none" stroke="midnightblue" d="M162.85,-261.88C150.69,-252.01 136.44,-240.43 125.55,-231.58"/>
<polygon fill="midnightblue" stroke="midnightblue" points="160.9,-264.81 170.86,-268.4 165.31,-259.37 160.9,-264.81"/>
</g>
<!-- Node10 -->
<g id="node10" class="node">
<title>Node10</title>
<g id="a_node10"><a xlink:href="_vision_ball_8hpp.html" target="_top" xlink:title=" ">
<polygon fill="none" stroke="black" points="197.22,-207 197.22,-226 341.22,-226 341.22,-207 197.22,-207"/>
<text text-anchor="middle" x="269.22" y="-214" font-family="Helvetica,sans-Serif" font-size="10.00">typeClassDefs/VisionBall.hpp</text>
</a>
</g>
</g>
<!-- Node1&#45;&gt;Node10 -->
<g id="edge10" class="edge">
<title>Node1&#45;&gt;Node10</title>
<path fill="none" stroke="midnightblue" d="M213.76,-262.01C228.8,-249.94 247.04,-235.3 258.39,-226.19"/>
<polygon fill="midnightblue" stroke="midnightblue" points="211.41,-259.41 205.8,-268.4 215.79,-264.87 211.41,-259.41"/>
</g>
<!-- Node12 -->
<g id="node12" class="node">
<title>Node12</title>
<g id="a_node12"><a xlink:href="_vision_goals_8hpp.html" target="_top" xlink:title=" ">
<polygon fill="none" stroke="black" points="359.72,-207 359.72,-226 512.72,-226 512.72,-207 359.72,-207"/>
<text text-anchor="middle" x="436.22" y="-214" font-family="Helvetica,sans-Serif" font-size="10.00">typeClassDefs/VisionGoals.hpp</text>
</a>
</g>
</g>
<!-- Node1&#45;&gt;Node12 -->
<g id="edge13" class="edge">
<title>Node1&#45;&gt;Node12</title>
<path fill="none" stroke="midnightblue" d="M251.52,-265.91C300.09,-253.18 365.15,-236.13 403.68,-226.03"/>
<polygon fill="midnightblue" stroke="midnightblue" points="250.52,-262.55 241.73,-268.48 252.29,-269.33 250.52,-262.55"/>
</g>
<!-- Node4 -->
<g id="node4" class="node">
<title>Node4</title>
<g id="a_node4"><a xlink:href="guwhiteboardposter_8h.html" target="_top" xlink:title=" ">
<polygon fill="none" stroke="black" points="196.72,-140 196.72,-159 305.72,-159 305.72,-140 196.72,-140"/>
<text text-anchor="middle" x="251.22" y="-147" font-family="Helvetica,sans-Serif" font-size="10.00">guwhiteboardposter.h</text>
</a>
</g>
</g>
<!-- Node3&#45;&gt;Node4 -->
<g id="edge3" class="edge">
<title>Node3&#45;&gt;Node4</title>
<path fill="none" stroke="midnightblue" d="M148.63,-197.13C176.16,-184.62 211.32,-168.64 232.51,-159.01"/>
<polygon fill="midnightblue" stroke="midnightblue" points="146.91,-194.07 139.25,-201.4 149.8,-200.44 146.91,-194.07"/>
</g>
<!-- Node9 -->
<g id="node9" class="node">
<title>Node9</title>
<g id="a_node9"><a xlink:href="_teleoperation_control_status_8h.html" target="_top" xlink:title=" ">
<polygon fill="none" stroke="black" points="37.72,-134.5 37.72,-164.5 178.72,-164.5 178.72,-134.5 37.72,-134.5"/>
<text text-anchor="start" x="45.72" y="-152.5" font-family="Helvetica,sans-Serif" font-size="10.00">typeClassDefs/Teleoperation</text>
<text text-anchor="middle" x="108.22" y="-141.5" font-family="Helvetica,sans-Serif" font-size="10.00">ControlStatus.h</text>
</a>
</g>
</g>
<!-- Node3&#45;&gt;Node9 -->
<g id="edge9" class="edge">
<title>Node3&#45;&gt;Node9</title>
<path fill="none" stroke="midnightblue" d="M108.22,-191.11C108.22,-182.15 108.22,-172.32 108.22,-164.58"/>
<polygon fill="midnightblue" stroke="midnightblue" points="104.72,-191.4 108.22,-201.4 111.72,-191.4 104.72,-191.4"/>
</g>
<!-- Node5 -->
<g id="node5" class="node">
<title>Node5</title>
<g id="a_node5"><a xlink:href="_simple_whiteboard_test_8h.html" target="_top" xlink:title=" ">
<polygon fill="none" stroke="black" points="181.72,-67.5 181.72,-97.5 306.72,-97.5 306.72,-67.5 181.72,-67.5"/>
<text text-anchor="start" x="189.72" y="-85.5" font-family="Helvetica,sans-Serif" font-size="10.00">SimpleWhiteboardTest</text>
<text text-anchor="middle" x="244.22" y="-74.5" font-family="Helvetica,sans-Serif" font-size="10.00">/SimpleWhiteboardTest.h</text>
</a>
</g>
</g>
<!-- Node4&#45;&gt;Node5 -->
<g id="edge4" class="edge">
<title>Node4&#45;&gt;Node5</title>
<path fill="none" stroke="midnightblue" d="M249.2,-129.74C248.1,-119.49 246.75,-107 245.74,-97.59"/>
<polygon fill="midnightblue" stroke="midnightblue" points="245.73,-130.17 250.28,-139.73 252.69,-129.42 245.73,-130.17"/>
</g>
<!-- Node6 -->
<g id="node6" class="node">
<title>Node6</title>
<g id="a_node6"><a xlink:href="guwhiteboardgetter_8h.html" target="_top" xlink:title=" ">
<polygon fill="none" stroke="black" points="324.72,-73 324.72,-92 431.72,-92 431.72,-73 324.72,-73"/>
<text text-anchor="middle" x="378.22" y="-80" font-family="Helvetica,sans-Serif" font-size="10.00">guwhiteboardgetter.h</text>
</a>
</g>
</g>
<!-- Node4&#45;&gt;Node6 -->
<g id="edge6" class="edge">
<title>Node4&#45;&gt;Node6</title>
<path fill="none" stroke="midnightblue" d="M277.06,-135.27C302.22,-122.4 339.72,-103.21 361.29,-92.17"/>
<polygon fill="midnightblue" stroke="midnightblue" points="275.39,-132.2 268.09,-139.87 278.58,-138.43 275.39,-132.2"/>
</g>
<!-- Node8 -->
<g id="node8" class="node">
<title>Node8</title>
<g id="a_node8"><a xlink:href="guwhiteboardposter_8cpp.html" target="_top" xlink:title=" ">
<polygon fill="none" stroke="black" points="44.72,-73 44.72,-92 163.72,-92 163.72,-73 44.72,-73"/>
<text text-anchor="middle" x="104.22" y="-80" font-family="Helvetica,sans-Serif" font-size="10.00">guwhiteboardposter.cpp</text>
</a>
</g>
</g>
<!-- Node4&#45;&gt;Node8 -->
<g id="edge8" class="edge">
<title>Node4&#45;&gt;Node8</title>
<path fill="none" stroke="midnightblue" d="M222.46,-135.78C193.35,-122.91 149.12,-103.35 123.82,-92.17"/>
<polygon fill="midnightblue" stroke="midnightblue" points="221.14,-139.03 231.7,-139.87 223.97,-132.62 221.14,-139.03"/>
</g>
<!-- Node5&#45;&gt;Node2 -->
<g id="edge5" class="edge">
<title>Node5&#45;&gt;Node2</title>
<path fill="none" stroke="midnightblue" d="M208.67,-62.71C189.28,-52.46 165.66,-39.98 147.86,-30.58"/>
<polygon fill="midnightblue" stroke="midnightblue" points="207.06,-65.82 217.53,-67.4 210.33,-59.63 207.06,-65.82"/>
</g>
<!-- Node7 -->
<g id="node7" class="node">
<title>Node7</title>
<g id="a_node7"><a xlink:href="guwhiteboardgetter_8cpp.html" target="_top" xlink:title=" ">
<polygon fill="none" stroke="black" points="319.72,-6 319.72,-25 436.72,-25 436.72,-6 319.72,-6"/>
<text text-anchor="middle" x="378.22" y="-13" font-family="Helvetica,sans-Serif" font-size="10.00">guwhiteboardgetter.cpp</text>
</a>
</g>
</g>
<!-- Node6&#45;&gt;Node7 -->
<g id="edge7" class="edge">
<title>Node6&#45;&gt;Node7</title>
<path fill="none" stroke="midnightblue" d="M378.22,-62.54C378.22,-50.17 378.22,-34.62 378.22,-25.13"/>
<polygon fill="midnightblue" stroke="midnightblue" points="374.72,-62.73 378.22,-72.73 381.72,-62.73 374.72,-62.73"/>
</g>
<!-- Node10&#45;&gt;Node4 -->
<g id="edge11" class="edge">
<title>Node10&#45;&gt;Node4</title>
<path fill="none" stroke="midnightblue" d="M264.08,-196.91C260.64,-184.49 256.27,-168.72 253.61,-159.13"/>
<polygon fill="midnightblue" stroke="midnightblue" points="260.75,-198.03 266.8,-206.73 267.5,-196.16 260.75,-198.03"/>
</g>
<!-- Node11 -->
<g id="node11" class="node">
<title>Node11</title>
<g id="a_node11"><a xlink:href="_vision_ball_8h.html" target="_top" xlink:title=" ">
<polygon fill="none" stroke="black" points="324.22,-140 324.22,-159 458.22,-159 458.22,-140 324.22,-140"/>
<text text-anchor="middle" x="391.22" y="-147" font-family="Helvetica,sans-Serif" font-size="10.00">typeClassDefs/VisionBall.h</text>
</a>
</g>
</g>
<!-- Node10&#45;&gt;Node11 -->
<g id="edge12" class="edge">
<title>Node10&#45;&gt;Node11</title>
<path fill="none" stroke="midnightblue" d="M294.37,-202.1C318.53,-189.23 354.32,-170.16 374.96,-159.17"/>
<polygon fill="midnightblue" stroke="midnightblue" points="292.6,-199.08 285.42,-206.87 295.9,-205.26 292.6,-199.08"/>
</g>
<!-- Node12&#45;&gt;Node4 -->
<g id="edge14" class="edge">
<title>Node12&#45;&gt;Node4</title>
<path fill="none" stroke="midnightblue" d="M401.89,-203.44C365.19,-190.54 307.93,-170.42 275.6,-159.06"/>
<polygon fill="midnightblue" stroke="midnightblue" points="401.06,-206.86 411.66,-206.87 403.38,-200.25 401.06,-206.86"/>
</g>
<!-- Node13 -->
<g id="node13" class="node">
<title>Node13</title>
<g id="a_node13"><a xlink:href="_vision_goals_8h.html" target="_top" xlink:title=" ">
<polygon fill="none" stroke="black" points="476.72,-140 476.72,-159 619.72,-159 619.72,-140 476.72,-140"/>
<text text-anchor="middle" x="548.22" y="-147" font-family="Helvetica,sans-Serif" font-size="10.00">typeClassDefs/VisionGoals.h</text>
</a>
</g>
</g>
<!-- Node12&#45;&gt;Node13 -->
<g id="edge15" class="edge">
<title>Node12&#45;&gt;Node13</title>
<path fill="none" stroke="midnightblue" d="M460.15,-201.62C482.34,-188.74 514.66,-169.98 533.36,-159.13"/>
<polygon fill="midnightblue" stroke="midnightblue" points="458.22,-198.69 451.33,-206.73 461.73,-204.74 458.22,-198.69"/>
</g>
</g>
</svg>
