<?xml version="1.0" encoding="UTF-8" standalone="no"?>
<!DOCTYPE svg PUBLIC "-//W3C//DTD SVG 1.1//EN"
 "http://www.w3.org/Graphics/SVG/1.1/DTD/svg11.dtd">
<!-- Generated by graphviz version 2.49.0 (20210830.1337)
 -->
<!-- Title: typeClassDefs/VisionControlStatus.hpp Pages: 1 -->
<svg width="609pt" height="374pt"
 viewBox="0.00 0.00 609.24 374.00" xmlns="http://www.w3.org/2000/svg" xmlns:xlink="http://www.w3.org/1999/xlink">
<g id="graph0" class="graph" transform="scale(1 1) rotate(0) translate(4 370)">
<title>typeClassDefs/VisionControlStatus.hpp</title>
<!-- Node1 -->
<g id="node1" class="node">
<title>Node1</title>
<g id="a_node1"><a xlink:title=" ">
<polygon fill="#bfbfbf" stroke="black" points="319.24,-335.5 319.24,-365.5 459.24,-365.5 459.24,-335.5 319.24,-335.5"/>
<text text-anchor="start" x="327.24" y="-353.5" font-family="Helvetica,sans-Serif" font-size="10.00">typeClassDefs/VisionControl</text>
<text text-anchor="middle" x="389.24" y="-342.5" font-family="Helvetica,sans-Serif" font-size="10.00">Status.hpp</text>
</a>
</g>
</g>
<!-- Node2 -->
<g id="node2" class="node">
<title>Node2</title>
<g id="a_node2"><a xlink:href="guwhiteboardposter_8h.html" target="_top" xlink:title=" ">
<polygon fill="none" stroke="black" points="339.74,-140 339.74,-159 448.74,-159 448.74,-140 339.74,-140"/>
<text text-anchor="middle" x="394.24" y="-147" font-family="Helvetica,sans-Serif" font-size="10.00">guwhiteboardposter.h</text>
</a>
</g>
</g>
<!-- Node1&#45;&gt;Node2 -->
<g id="edge1" class="edge">
<title>Node1&#45;&gt;Node2</title>
<path fill="none" stroke="midnightblue" d="M418.33,-329.43C445.61,-308.67 484.63,-273.49 501.24,-232 506.36,-219.21 508.61,-212.64 501.24,-201 487.11,-178.71 460.2,-166.07 436.91,-159.01"/>
<polygon fill="midnightblue" stroke="midnightblue" points="416.22,-326.64 410.28,-335.41 420.39,-332.26 416.22,-326.64"/>
</g>
<!-- Node8 -->
<g id="node8" class="node">
<title>Node8</title>
<g id="a_node8"><a xlink:href="_vision_control_status_8h.html" target="_top" xlink:title=" ">
<polygon fill="none" stroke="black" points="189.24,-268.5 189.24,-298.5 329.24,-298.5 329.24,-268.5 189.24,-268.5"/>
<text text-anchor="start" x="197.24" y="-286.5" font-family="Helvetica,sans-Serif" font-size="10.00">typeClassDefs/VisionControl</text>
<text text-anchor="middle" x="259.24" y="-275.5" font-family="Helvetica,sans-Serif" font-size="10.00">Status.h</text>
</a>
</g>
</g>
<!-- Node1&#45;&gt;Node8 -->
<g id="edge7" class="edge">
<title>Node1&#45;&gt;Node8</title>
<path fill="none" stroke="midnightblue" d="M351.94,-330.85C331.39,-320.58 306.29,-308.03 287.39,-298.58"/>
<polygon fill="midnightblue" stroke="midnightblue" points="350.52,-334.05 361.03,-335.4 353.65,-327.79 350.52,-334.05"/>
</g>
<!-- Node3 -->
<g id="node3" class="node">
<title>Node3</title>
<g id="a_node3"><a xlink:href="_simple_whiteboard_test_8h.html" target="_top" xlink:title=" ">
<polygon fill="none" stroke="black" points="264.74,-67.5 264.74,-97.5 389.74,-97.5 389.74,-67.5 264.74,-67.5"/>
<text text-anchor="start" x="272.74" y="-85.5" font-family="Helvetica,sans-Serif" font-size="10.00">SimpleWhiteboardTest</text>
<text text-anchor="middle" x="327.24" y="-74.5" font-family="Helvetica,sans-Serif" font-size="10.00">/SimpleWhiteboardTest.h</text>
</a>
</g>
</g>
<!-- Node2&#45;&gt;Node3 -->
<g id="edge2" class="edge">
<title>Node2&#45;&gt;Node3</title>
<path fill="none" stroke="midnightblue" d="M377.87,-132.62C366.83,-121.91 352.39,-107.9 341.76,-97.59"/>
<polygon fill="midnightblue" stroke="midnightblue" points="375.59,-135.28 385.2,-139.73 380.46,-130.26 375.59,-135.28"/>
</g>
<!-- Node5 -->
<g id="node5" class="node">
<title>Node5</title>
<g id="a_node5"><a xlink:href="guwhiteboardgetter_8h.html" target="_top" xlink:title=" ">
<polygon fill="none" stroke="black" points="407.74,-73 407.74,-92 514.74,-92 514.74,-73 407.74,-73"/>
<text text-anchor="middle" x="461.24" y="-80" font-family="Helvetica,sans-Serif" font-size="10.00">guwhiteboardgetter.h</text>
</a>
</g>
</g>
<!-- Node2&#45;&gt;Node5 -->
<g id="edge4" class="edge">
<title>Node2&#45;&gt;Node5</title>
<path fill="none" stroke="midnightblue" d="M410.73,-132.5C423.87,-119.75 441.76,-102.39 452.34,-92.13"/>
<polygon fill="midnightblue" stroke="midnightblue" points="408.01,-130.26 403.27,-139.73 412.89,-135.28 408.01,-130.26"/>
</g>
<!-- Node7 -->
<g id="node7" class="node">
<title>Node7</title>
<g id="a_node7"><a xlink:href="guwhiteboardposter_8cpp.html" target="_top" xlink:title=" ">
<polygon fill="none" stroke="black" points="127.74,-73 127.74,-92 246.74,-92 246.74,-73 127.74,-73"/>
<text text-anchor="middle" x="187.24" y="-80" font-family="Helvetica,sans-Serif" font-size="10.00">guwhiteboardposter.cpp</text>
</a>
</g>
</g>
<!-- Node2&#45;&gt;Node7 -->
<g id="edge6" class="edge">
<title>Node2&#45;&gt;Node7</title>
<path fill="none" stroke="midnightblue" d="M357.13,-136.85C316.13,-123.97 251.07,-103.55 214.51,-92.06"/>
<polygon fill="midnightblue" stroke="midnightblue" points="356.16,-140.21 366.75,-139.87 358.26,-133.53 356.16,-140.21"/>
</g>
<!-- Node4 -->
<g id="node4" class="node">
<title>Node4</title>
<g id="a_node4"><a xlink:href="_simple_whiteboard_test_8mm.html" target="_top" xlink:title=" ">
<polygon fill="none" stroke="black" points="118.74,-0.5 118.74,-30.5 255.74,-30.5 255.74,-0.5 118.74,-0.5"/>
<text text-anchor="start" x="126.74" y="-18.5" font-family="Helvetica,sans-Serif" font-size="10.00">SimpleWhiteboardTest</text>
<text text-anchor="middle" x="187.24" y="-7.5" font-family="Helvetica,sans-Serif" font-size="10.00">/SimpleWhiteboardTest.mm</text>
</a>
</g>
</g>
<!-- Node3&#45;&gt;Node4 -->
<g id="edge3" class="edge">
<title>Node3&#45;&gt;Node4</title>
<path fill="none" stroke="midnightblue" d="M287.67,-63.13C265.43,-52.8 238.09,-40.11 217.56,-30.58"/>
<polygon fill="midnightblue" stroke="midnightblue" points="286.32,-66.36 296.86,-67.4 289.26,-60.01 286.32,-66.36"/>
</g>
<!-- Node6 -->
<g id="node6" class="node">
<title>Node6</title>
<g id="a_node6"><a xlink:href="guwhiteboardgetter_8cpp.html" target="_top" xlink:title=" ">
<polygon fill="none" stroke="black" points="402.74,-6 402.74,-25 519.74,-25 519.74,-6 402.74,-6"/>
<text text-anchor="middle" x="461.24" y="-13" font-family="Helvetica,sans-Serif" font-size="10.00">guwhiteboardgetter.cpp</text>
</a>
</g>
</g>
<!-- Node5&#45;&gt;Node6 -->
<g id="edge5" class="edge">
<title>Node5&#45;&gt;Node6</title>
<path fill="none" stroke="midnightblue" d="M461.24,-62.54C461.24,-50.17 461.24,-34.62 461.24,-25.13"/>
<polygon fill="midnightblue" stroke="midnightblue" points="457.74,-62.73 461.24,-72.73 464.74,-62.73 457.74,-62.73"/>
</g>
<!-- Node8&#45;&gt;Node4 -->
<g id="edge8" class="edge">
<title>Node8&#45;&gt;Node4</title>
<path fill="none" stroke="midnightblue" d="M178.75,-277.17C113.71,-270.98 29.59,-258.07 8.24,-232 -0.37,-221.49 -5.3,-161.95 10.24,-134 39.62,-81.13 104,-47.78 146.47,-30.63"/>
<polygon fill="midnightblue" stroke="midnightblue" points="178.74,-280.68 189.01,-278.1 179.37,-273.71 178.74,-280.68"/>
</g>
<!-- Node9 -->
<g id="node9" class="node">
<title>Node9</title>
<g id="a_node9"><a xlink:href="_teleoperation_control_status_8hpp.html" target="_top" xlink:title=" ">
<polygon fill="none" stroke="black" points="188.74,-201.5 188.74,-231.5 329.74,-231.5 329.74,-201.5 188.74,-201.5"/>
<text text-anchor="start" x="196.74" y="-219.5" font-family="Helvetica,sans-Serif" font-size="10.00">typeClassDefs/Teleoperation</text>
<text text-anchor="middle" x="259.24" y="-208.5" font-family="Helvetica,sans-Serif" font-size="10.00">ControlStatus.hpp</text>
</a>
</g>
</g>
<!-- Node8&#45;&gt;Node9 -->
<g id="edge9" class="edge">
<title>Node8&#45;&gt;Node9</title>
<path fill="none" stroke="midnightblue" d="M259.24,-258.11C259.24,-249.15 259.24,-239.32 259.24,-231.58"/>
<polygon fill="midnightblue" stroke="midnightblue" points="255.74,-258.4 259.24,-268.4 262.74,-258.4 255.74,-258.4"/>
</g>
<!-- Node11 -->
<g id="node11" class="node">
<title>Node11</title>
<g id="a_node11"><a xlink:href="_vision_ball_8hpp.html" target="_top" xlink:title=" ">
<polygon fill="none" stroke="black" points="348.24,-207 348.24,-226 492.24,-226 492.24,-207 348.24,-207"/>
<text text-anchor="middle" x="420.24" y="-214" font-family="Helvetica,sans-Serif" font-size="10.00">typeClassDefs/VisionBall.hpp</text>
</a>
</g>
</g>
<!-- Node8&#45;&gt;Node11 -->
<g id="edge12" class="edge">
<title>Node8&#45;&gt;Node11</title>
<path fill="none" stroke="midnightblue" d="M303.52,-264.62C334.68,-252.04 374.99,-235.77 399.17,-226.01"/>
<polygon fill="midnightblue" stroke="midnightblue" points="302.13,-261.41 294.17,-268.4 304.75,-267.9 302.13,-261.41"/>
</g>
<!-- Node13 -->
<g id="node13" class="node">
<title>Node13</title>
<g id="a_node13"><a xlink:href="_vision_goals_8hpp.html" target="_top" xlink:title=" ">
<polygon fill="none" stroke="black" points="17.74,-207 17.74,-226 170.74,-226 170.74,-207 17.74,-207"/>
<text text-anchor="middle" x="94.24" y="-214" font-family="Helvetica,sans-Serif" font-size="10.00">typeClassDefs/VisionGoals.hpp</text>
</a>
</g>
</g>
<!-- Node8&#45;&gt;Node13 -->
<g id="edge15" class="edge">
<title>Node8&#45;&gt;Node13</title>
<path fill="none" stroke="midnightblue" d="M213.85,-264.62C181.92,-252.04 140.61,-235.77 115.83,-226.01"/>
<polygon fill="midnightblue" stroke="midnightblue" points="212.85,-267.99 223.43,-268.4 215.41,-261.47 212.85,-267.99"/>
</g>
<!-- Node9&#45;&gt;Node2 -->
<g id="edge10" class="edge">
<title>Node9&#45;&gt;Node2</title>
<path fill="none" stroke="midnightblue" d="M297.73,-196.97C323.66,-184.48 356.65,-168.6 376.57,-159.01"/>
<polygon fill="midnightblue" stroke="midnightblue" points="296.02,-193.9 288.53,-201.4 299.06,-200.21 296.02,-193.9"/>
</g>
<!-- Node10 -->
<g id="node10" class="node">
<title>Node10</title>
<g id="a_node10"><a xlink:href="_teleoperation_control_status_8h.html" target="_top" xlink:title=" ">
<polygon fill="none" stroke="black" points="180.74,-134.5 180.74,-164.5 321.74,-164.5 321.74,-134.5 180.74,-134.5"/>
<text text-anchor="start" x="188.74" y="-152.5" font-family="Helvetica,sans-Serif" font-size="10.00">typeClassDefs/Teleoperation</text>
<text text-anchor="middle" x="251.24" y="-141.5" font-family="Helvetica,sans-Serif" font-size="10.00">ControlStatus.h</text>
</a>
</g>
</g>
<!-- Node9&#45;&gt;Node10 -->
<g id="edge11" class="edge">
<title>Node9&#45;&gt;Node10</title>
<path fill="none" stroke="midnightblue" d="M256.27,-191.4C255.16,-182.37 253.93,-172.41 252.97,-164.58"/>
<polygon fill="midnightblue" stroke="midnightblue" points="252.81,-191.9 257.5,-201.4 259.75,-191.04 252.81,-191.9"/>
</g>
<!-- Node11&#45;&gt;Node2 -->
<g id="edge13" class="edge">
<title>Node11&#45;&gt;Node2</title>
<path fill="none" stroke="midnightblue" d="M412.95,-197.29C407.96,-184.81 401.56,-168.81 397.69,-159.13"/>
<polygon fill="midnightblue" stroke="midnightblue" points="409.77,-198.75 416.73,-206.73 416.27,-196.15 409.77,-198.75"/>
</g>
<!-- Node12 -->
<g id="node12" class="node">
<title>Node12</title>
<g id="a_node12"><a xlink:href="_vision_ball_8h.html" target="_top" xlink:title=" ">
<polygon fill="none" stroke="black" points="467.24,-140 467.24,-159 601.24,-159 601.24,-140 467.24,-140"/>
<text text-anchor="middle" x="534.24" y="-147" font-family="Helvetica,sans-Serif" font-size="10.00">typeClassDefs/VisionBall.h</text>
</a>
</g>
</g>
<!-- Node11&#45;&gt;Node12 -->
<g id="edge14" class="edge">
<title>Node11&#45;&gt;Node12</title>
<path fill="none" stroke="midnightblue" d="M444.59,-201.62C467.18,-188.74 500.08,-169.98 519.11,-159.13"/>
<polygon fill="midnightblue" stroke="midnightblue" points="442.57,-198.74 435.61,-206.73 446.03,-204.82 442.57,-198.74"/>
</g>
<!-- Node13&#45;&gt;Node2 -->
<g id="edge16" class="edge">
<title>Node13&#45;&gt;Node2</title>
<path fill="none" stroke="midnightblue" d="M144.57,-204.91C192.38,-194.81 266.25,-179.09 330.24,-165 338.92,-163.09 348.25,-161 357.03,-159.01"/>
<polygon fill="midnightblue" stroke="midnightblue" points="143.84,-201.49 134.78,-206.98 145.28,-208.34 143.84,-201.49"/>
</g>
<!-- Node14 -->
<g id="node14" class="node">
<title>Node14</title>
<g id="a_node14"><a xlink:href="_vision_goals_8h.html" target="_top" xlink:title=" ">
<polygon fill="none" stroke="black" points="19.74,-140 19.74,-159 162.74,-159 162.74,-140 19.74,-140"/>
<text text-anchor="middle" x="91.24" y="-147" font-family="Helvetica,sans-Serif" font-size="10.00">typeClassDefs/VisionGoals.h</text>
</a>
</g>
</g>
<!-- Node13&#45;&gt;Node14 -->
<g id="edge17" class="edge">
<title>Node13&#45;&gt;Node14</title>
<path fill="none" stroke="midnightblue" d="M93.36,-196.54C92.79,-184.17 92.07,-168.62 91.64,-159.13"/>
<polygon fill="midnightblue" stroke="midnightblue" points="89.88,-196.91 93.83,-206.73 96.87,-196.58 89.88,-196.91"/>
</g>
</g>
</svg>
