<?xml version="1.0" encoding="UTF-8" standalone="no"?>
<!DOCTYPE svg PUBLIC "-//W3C//DTD SVG 1.1//EN"
 "http://www.w3.org/Graphics/SVG/1.1/DTD/svg11.dtd">
<!-- Generated by graphviz version 2.49.0 (20210830.1337)
 -->
<!-- Title: typeClassDefs/VisionControlStatus.hpp Pages: 1 -->
<svg width="440pt" height="151pt"
 viewBox="0.00 0.00 439.50 151.00" xmlns="http://www.w3.org/2000/svg" xmlns:xlink="http://www.w3.org/1999/xlink">
<g id="graph0" class="graph" transform="scale(1 1) rotate(0) translate(4 147)">
<title>typeClassDefs/VisionControlStatus.hpp</title>
<!-- Node1 -->
<g id="node1" class="node">
<title>Node1</title>
<g id="a_node1"><a xlink:title=" ">
<polygon fill="#bfbfbf" stroke="black" points="112.5,-112.5 112.5,-142.5 252.5,-142.5 252.5,-112.5 112.5,-112.5"/>
<text text-anchor="start" x="120.5" y="-130.5" font-family="Helvetica,sans-Serif" font-size="10.00">typeClassDefs/VisionControl</text>
<text text-anchor="middle" x="182.5" y="-119.5" font-family="Helvetica,sans-Serif" font-size="10.00">Status.hpp</text>
</a>
</g>
</g>
<!-- Node2 -->
<g id="node2" class="node">
<title>Node2</title>
<g id="a_node2"><a xlink:title=" ">
<polygon fill="none" stroke="#bfbfbf" points="0,-56.5 0,-75.5 45,-75.5 45,-56.5 0,-56.5"/>
<text text-anchor="middle" x="22.5" y="-63.5" font-family="Helvetica,sans-Serif" font-size="10.00">cstdlib</text>
</a>
</g>
</g>
<!-- Node1&#45;&gt;Node2 -->
<g id="edge1" class="edge">
<title>Node1&#45;&gt;Node2</title>
<path fill="none" stroke="midnightblue" d="M144.58,-112.4C117.21,-102.22 80.66,-88.63 54.7,-78.98"/>
<polygon fill="midnightblue" stroke="midnightblue" points="55.91,-75.69 45.32,-75.48 53.47,-82.25 55.91,-75.69"/>
</g>
<!-- Node3 -->
<g id="node3" class="node">
<title>Node3</title>
<g id="a_node3"><a xlink:title=" ">
<polygon fill="none" stroke="#bfbfbf" points="63.5,-56.5 63.5,-75.5 111.5,-75.5 111.5,-56.5 63.5,-56.5"/>
<text text-anchor="middle" x="87.5" y="-63.5" font-family="Helvetica,sans-Serif" font-size="10.00">string.h</text>
</a>
</g>
</g>
<!-- Node1&#45;&gt;Node3 -->
<g id="edge2" class="edge">
<title>Node1&#45;&gt;Node3</title>
<path fill="none" stroke="midnightblue" d="M159.99,-112.4C144.9,-102.95 125.11,-90.56 110.03,-81.11"/>
<polygon fill="midnightblue" stroke="midnightblue" points="111.66,-78 101.32,-75.66 107.94,-83.93 111.66,-78"/>
</g>
<!-- Node4 -->
<g id="node4" class="node">
<title>Node4</title>
<g id="a_node4"><a xlink:title=" ">
<polygon fill="none" stroke="#bfbfbf" points="129.5,-56.5 129.5,-75.5 181.5,-75.5 181.5,-56.5 129.5,-56.5"/>
<text text-anchor="middle" x="155.5" y="-63.5" font-family="Helvetica,sans-Serif" font-size="10.00">sstream</text>
</a>
</g>
</g>
<!-- Node1&#45;&gt;Node4 -->
<g id="edge3" class="edge">
<title>Node1&#45;&gt;Node4</title>
<path fill="none" stroke="midnightblue" d="M176.1,-112.4C172.38,-104.2 167.65,-93.78 163.67,-84.99"/>
<polygon fill="midnightblue" stroke="midnightblue" points="166.75,-83.32 159.43,-75.66 160.37,-86.21 166.75,-83.32"/>
</g>
<!-- Node5 -->
<g id="node5" class="node">
<title>Node5</title>
<g id="a_node5"><a xlink:title=" ">
<polygon fill="none" stroke="#bfbfbf" points="196,-0.5 196,-19.5 249,-19.5 249,-0.5 196,-0.5"/>
<text text-anchor="middle" x="222.5" y="-7.5" font-family="Helvetica,sans-Serif" font-size="10.00">gu_util.h</text>
</a>
</g>
</g>
<!-- Node1&#45;&gt;Node5 -->
<g id="edge4" class="edge">
<title>Node1&#45;&gt;Node5</title>
<path fill="none" stroke="midnightblue" d="M187.4,-112.34C194.64,-91.43 208.19,-52.31 216.17,-29.27"/>
<polygon fill="midnightblue" stroke="midnightblue" points="219.53,-30.26 219.5,-19.67 212.92,-27.97 219.53,-30.26"/>
</g>
<!-- Node6 -->
<g id="node6" class="node">
<title>Node6</title>
<g id="a_node6"><a xlink:href="wb__vision__control__status_8h.html" target="_top" xlink:title=" ">
<polygon fill="none" stroke="black" points="237.5,-56.5 237.5,-75.5 371.5,-75.5 371.5,-56.5 237.5,-56.5"/>
<text text-anchor="middle" x="304.5" y="-63.5" font-family="Helvetica,sans-Serif" font-size="10.00">wb_vision_control_status.h</text>
</a>
</g>
</g>
<!-- Node1&#45;&gt;Node6 -->
<g id="edge5" class="edge">
<title>Node1&#45;&gt;Node6</title>
<path fill="none" stroke="midnightblue" d="M211.41,-112.4C231.52,-102.59 258.12,-89.62 277.74,-80.05"/>
<polygon fill="midnightblue" stroke="midnightblue" points="279.29,-83.19 286.75,-75.66 276.23,-76.9 279.29,-83.19"/>
</g>
<!-- Node9 -->
<g id="node9" class="node">
<title>Node9</title>
<g id="a_node9"><a xlink:title=" ">
<polygon fill="none" stroke="#bfbfbf" points="389.5,-56.5 389.5,-75.5 431.5,-75.5 431.5,-56.5 389.5,-56.5"/>
<text text-anchor="middle" x="410.5" y="-63.5" font-family="Helvetica,sans-Serif" font-size="10.00">float.h</text>
</a>
</g>
</g>
<!-- Node1&#45;&gt;Node9 -->
<g id="edge9" class="edge">
<title>Node1&#45;&gt;Node9</title>
<path fill="none" stroke="midnightblue" d="M240.28,-112.44C277.55,-103.21 327.26,-90.62 379.45,-76.21"/>
<polygon fill="midnightblue" stroke="midnightblue" points="380.53,-79.55 389.23,-73.5 378.65,-72.8 380.53,-79.55"/>
</g>
<!-- Node6&#45;&gt;Node5 -->
<g id="edge6" class="edge">
<title>Node6&#45;&gt;Node5</title>
<path fill="none" stroke="midnightblue" d="M291.33,-56.32C278.65,-47.98 259.27,-35.21 244.29,-25.35"/>
<polygon fill="midnightblue" stroke="midnightblue" points="245.92,-22.23 235.64,-19.65 242.07,-28.08 245.92,-22.23"/>
</g>
<!-- Node7 -->
<g id="node7" class="node">
<title>Node7</title>
<g id="a_node7"><a xlink:title=" ">
<polygon fill="none" stroke="#bfbfbf" points="273.5,-0.5 273.5,-19.5 321.5,-19.5 321.5,-0.5 273.5,-0.5"/>
<text text-anchor="middle" x="297.5" y="-7.5" font-family="Helvetica,sans-Serif" font-size="10.00">stdint.h</text>
</a>
</g>
</g>
<!-- Node6&#45;&gt;Node7 -->
<g id="edge7" class="edge">
<title>Node6&#45;&gt;Node7</title>
<path fill="none" stroke="midnightblue" d="M303.34,-56.08C302.42,-48.93 301.08,-38.64 299.92,-29.69"/>
<polygon fill="midnightblue" stroke="midnightblue" points="303.39,-29.22 298.63,-19.75 296.45,-30.12 303.39,-29.22"/>
</g>
<!-- Node8 -->
<g id="node8" class="node">
<title>Node8</title>
<g id="a_node8"><a xlink:title=" ">
<polygon fill="none" stroke="#bfbfbf" points="340,-0.5 340,-19.5 401,-19.5 401,-0.5 340,-0.5"/>
<text text-anchor="middle" x="370.5" y="-7.5" font-family="Helvetica,sans-Serif" font-size="10.00">sys/time.h</text>
</a>
</g>
</g>
<!-- Node6&#45;&gt;Node8 -->
<g id="edge8" class="edge">
<title>Node6&#45;&gt;Node8</title>
<path fill="none" stroke="midnightblue" d="M315.1,-56.32C324.96,-48.26 339.85,-36.08 351.72,-26.37"/>
<polygon fill="midnightblue" stroke="midnightblue" points="354.18,-28.88 359.7,-19.83 349.75,-23.46 354.18,-28.88"/>
</g>
</g>
</svg>
