<?xml version="1.0" encoding="UTF-8" standalone="no"?>
<!DOCTYPE svg PUBLIC "-//W3C//DTD SVG 1.1//EN"
 "http://www.w3.org/Graphics/SVG/1.1/DTD/svg11.dtd">
<!-- Generated by graphviz version 2.49.0 (20210830.1337)
 -->
<!-- Title: typeClassDefs/VisionFieldFeature.hpp Pages: 1 -->
<svg width="718pt" height="263pt"
 viewBox="0.00 0.00 717.68 263.00" xmlns="http://www.w3.org/2000/svg" xmlns:xlink="http://www.w3.org/1999/xlink">
<g id="graph0" class="graph" transform="scale(1 1) rotate(0) translate(4 259)">
<title>typeClassDefs/VisionFieldFeature.hpp</title>
<!-- Node1 -->
<g id="node1" class="node">
<title>Node1</title>
<g id="a_node1"><a xlink:title=" ">
<polygon fill="#bfbfbf" stroke="black" points="138.68,-224.5 138.68,-254.5 269.68,-254.5 269.68,-224.5 138.68,-224.5"/>
<text text-anchor="start" x="146.68" y="-242.5" font-family="Helvetica,sans-Serif" font-size="10.00">typeClassDefs/VisionField</text>
<text text-anchor="middle" x="204.18" y="-231.5" font-family="Helvetica,sans-Serif" font-size="10.00">Feature.hpp</text>
</a>
</g>
</g>
<!-- Node2 -->
<g id="node2" class="node">
<title>Node2</title>
<g id="a_node2"><a xlink:title=" ">
<polygon fill="none" stroke="#bfbfbf" points="69.68,-56.5 69.68,-75.5 114.68,-75.5 114.68,-56.5 69.68,-56.5"/>
<text text-anchor="middle" x="92.18" y="-63.5" font-family="Helvetica,sans-Serif" font-size="10.00">cstdlib</text>
</a>
</g>
</g>
<!-- Node1&#45;&gt;Node2 -->
<g id="edge1" class="edge">
<title>Node1&#45;&gt;Node2</title>
<path fill="none" stroke="midnightblue" d="M195.02,-224.47C174.67,-193.3 125.76,-118.41 103.52,-84.37"/>
<polygon fill="midnightblue" stroke="midnightblue" points="106.17,-82.02 97.77,-75.56 100.31,-85.85 106.17,-82.02"/>
</g>
<!-- Node3 -->
<g id="node3" class="node">
<title>Node3</title>
<g id="a_node3"><a xlink:title=" ">
<polygon fill="none" stroke="#bfbfbf" points="133.18,-56.5 133.18,-75.5 181.18,-75.5 181.18,-56.5 133.18,-56.5"/>
<text text-anchor="middle" x="157.18" y="-63.5" font-family="Helvetica,sans-Serif" font-size="10.00">string.h</text>
</a>
</g>
</g>
<!-- Node1&#45;&gt;Node3 -->
<g id="edge2" class="edge">
<title>Node1&#45;&gt;Node3</title>
<path fill="none" stroke="midnightblue" d="M196.24,-224.32C190.99,-214.41 184.34,-200.73 180.18,-188 168.71,-152.89 162.25,-110.07 159.26,-85.93"/>
<polygon fill="midnightblue" stroke="midnightblue" points="162.7,-85.22 158.06,-75.7 155.75,-86.04 162.7,-85.22"/>
</g>
<!-- Node4 -->
<g id="node4" class="node">
<title>Node4</title>
<g id="a_node4"><a xlink:title=" ">
<polygon fill="none" stroke="#bfbfbf" points="313.18,-56.5 313.18,-75.5 365.18,-75.5 365.18,-56.5 313.18,-56.5"/>
<text text-anchor="middle" x="339.18" y="-63.5" font-family="Helvetica,sans-Serif" font-size="10.00">sstream</text>
</a>
</g>
</g>
<!-- Node1&#45;&gt;Node4 -->
<g id="edge3" class="edge">
<title>Node1&#45;&gt;Node4</title>
<path fill="none" stroke="midnightblue" d="M239.28,-224.41C256.53,-216.01 276.49,-203.86 290.18,-188 316.51,-157.52 329.9,-111.05 335.62,-85.48"/>
<polygon fill="midnightblue" stroke="midnightblue" points="339.06,-86.12 337.68,-75.62 332.21,-84.69 339.06,-86.12"/>
</g>
<!-- Node5 -->
<g id="node5" class="node">
<title>Node5</title>
<g id="a_node5"><a xlink:title=" ">
<polygon fill="none" stroke="#bfbfbf" points="216.68,-0.5 216.68,-19.5 269.68,-19.5 269.68,-0.5 216.68,-0.5"/>
<text text-anchor="middle" x="243.18" y="-7.5" font-family="Helvetica,sans-Serif" font-size="10.00">gu_util.h</text>
</a>
</g>
</g>
<!-- Node1&#45;&gt;Node5 -->
<g id="edge4" class="edge">
<title>Node1&#45;&gt;Node5</title>
<path fill="none" stroke="midnightblue" d="M138.28,-228.15C93.81,-219.67 40.85,-206.11 27.18,-188 -8.15,-141.17 -9.83,-101.52 27.18,-56 49.38,-28.71 150.9,-17.41 206.51,-13.21"/>
<polygon fill="midnightblue" stroke="midnightblue" points="206.93,-16.69 216.65,-12.48 206.43,-9.71 206.93,-16.69"/>
</g>
<!-- Node6 -->
<g id="node6" class="node">
<title>Node6</title>
<g id="a_node6"><a xlink:href="wb__vision__field__feature_8h.html" target="_top" xlink:title=" ">
<polygon fill="none" stroke="black" points="410.68,-112.5 410.68,-131.5 535.68,-131.5 535.68,-112.5 410.68,-112.5"/>
<text text-anchor="middle" x="473.18" y="-119.5" font-family="Helvetica,sans-Serif" font-size="10.00">wb_vision_field_feature.h</text>
</a>
</g>
</g>
<!-- Node1&#45;&gt;Node6 -->
<g id="edge5" class="edge">
<title>Node1&#45;&gt;Node6</title>
<path fill="none" stroke="midnightblue" d="M247.93,-224.42C276.05,-214.98 313.19,-201.79 345.18,-188 382.12,-172.08 423.36,-150.4 448.79,-136.55"/>
<polygon fill="midnightblue" stroke="midnightblue" points="450.64,-139.53 457.72,-131.65 447.27,-133.39 450.64,-139.53"/>
</g>
<!-- Node9 -->
<g id="node9" class="node">
<title>Node9</title>
<g id="a_node9"><a xlink:title=" ">
<polygon fill="none" stroke="#bfbfbf" points="352.18,-0.5 352.18,-19.5 442.18,-19.5 442.18,-0.5 352.18,-0.5"/>
<text text-anchor="middle" x="397.18" y="-7.5" font-family="Helvetica,sans-Serif" font-size="10.00">guunits/guunits.h</text>
</a>
</g>
</g>
<!-- Node1&#45;&gt;Node9 -->
<g id="edge24" class="edge">
<title>Node1&#45;&gt;Node9</title>
<path fill="none" stroke="midnightblue" d="M178.08,-224.37C123.64,-193.19 7.28,-116.43 60.18,-56 69.36,-45.51 248.52,-26 341.78,-16.49"/>
<polygon fill="midnightblue" stroke="midnightblue" points="342.3,-19.96 351.89,-15.46 341.59,-12.99 342.3,-19.96"/>
</g>
<!-- Node10 -->
<g id="node10" class="node">
<title>Node10</title>
<g id="a_node10"><a xlink:title=" ">
<polygon fill="none" stroke="#bfbfbf" points="560.68,-0.5 560.68,-19.5 709.68,-19.5 709.68,-0.5 560.68,-0.5"/>
<text text-anchor="middle" x="635.18" y="-7.5" font-family="Helvetica,sans-Serif" font-size="10.00">gucoordinates/gucoordinates.h</text>
</a>
</g>
</g>
<!-- Node1&#45;&gt;Node10 -->
<g id="edge25" class="edge">
<title>Node1&#45;&gt;Node10</title>
<path fill="none" stroke="midnightblue" d="M269.95,-225.81C340.87,-210.38 455.63,-180.24 545.18,-132 580.87,-112.77 594.63,-109.69 617.18,-76 626.45,-62.16 630.97,-43.65 633.17,-29.92"/>
<polygon fill="midnightblue" stroke="midnightblue" points="636.67,-30.09 634.51,-19.71 629.73,-29.17 636.67,-30.09"/>
</g>
<!-- Node11 -->
<g id="node11" class="node">
<title>Node11</title>
<g id="a_node11"><a xlink:href="_pixel_coordinate_8h.html" target="_top" xlink:title=" ">
<polygon fill="none" stroke="black" points="189.18,-168.5 189.18,-187.5 281.18,-187.5 281.18,-168.5 189.18,-168.5"/>
<text text-anchor="middle" x="235.18" y="-175.5" font-family="Helvetica,sans-Serif" font-size="10.00">PixelCoordinate.h</text>
</a>
</g>
</g>
<!-- Node1&#45;&gt;Node11 -->
<g id="edge15" class="edge">
<title>Node1&#45;&gt;Node11</title>
<path fill="none" stroke="midnightblue" d="M211.53,-224.4C215.85,-216.11 221.35,-205.55 225.96,-196.71"/>
<polygon fill="midnightblue" stroke="midnightblue" points="229.16,-198.14 230.67,-187.66 222.95,-194.91 229.16,-198.14"/>
</g>
<!-- Node6&#45;&gt;Node5 -->
<g id="edge6" class="edge">
<title>Node6&#45;&gt;Node5</title>
<path fill="none" stroke="midnightblue" d="M462.16,-112.42C444.43,-98.95 408.15,-72.66 374.18,-56 343.46,-40.93 306.41,-28.71 279.56,-20.83"/>
<polygon fill="midnightblue" stroke="midnightblue" points="280.38,-17.42 269.81,-18.02 278.45,-24.15 280.38,-17.42"/>
</g>
<!-- Node7 -->
<g id="node7" class="node">
<title>Node7</title>
<g id="a_node7"><a xlink:title=" ">
<polygon fill="none" stroke="#bfbfbf" points="492.18,-0.5 492.18,-19.5 540.18,-19.5 540.18,-0.5 492.18,-0.5"/>
<text text-anchor="middle" x="516.18" y="-7.5" font-family="Helvetica,sans-Serif" font-size="10.00">stdint.h</text>
</a>
</g>
</g>
<!-- Node6&#45;&gt;Node7 -->
<g id="edge7" class="edge">
<title>Node6&#45;&gt;Node7</title>
<path fill="none" stroke="midnightblue" d="M523.69,-112.49C544.86,-106.15 567.47,-95.14 580.18,-76 593.58,-55.83 568.14,-36.56 545.47,-24.31"/>
<polygon fill="midnightblue" stroke="midnightblue" points="546.87,-21.1 536.37,-19.67 543.68,-27.33 546.87,-21.1"/>
</g>
<!-- Node8 -->
<g id="node8" class="node">
<title>Node8</title>
<g id="a_node8"><a xlink:href="wb__pixel__coordinate_8h.html" target="_top" xlink:title=" ">
<polygon fill="none" stroke="black" points="459.18,-56.5 459.18,-75.5 571.18,-75.5 571.18,-56.5 459.18,-56.5"/>
<text text-anchor="middle" x="515.18" y="-63.5" font-family="Helvetica,sans-Serif" font-size="10.00">wb_pixel_coordinate.h</text>
</a>
</g>
</g>
<!-- Node6&#45;&gt;Node8 -->
<g id="edge8" class="edge">
<title>Node6&#45;&gt;Node8</title>
<path fill="none" stroke="midnightblue" d="M480.12,-112.08C486.11,-104.38 494.94,-93.03 502.23,-83.65"/>
<polygon fill="midnightblue" stroke="midnightblue" points="505,-85.79 508.38,-75.75 499.47,-81.5 505,-85.79"/>
</g>
<!-- Node6&#45;&gt;Node9 -->
<g id="edge13" class="edge">
<title>Node6&#45;&gt;Node9</title>
<path fill="none" stroke="midnightblue" d="M467.22,-112.37C454.68,-94.22 425.37,-51.8 408.92,-27.99"/>
<polygon fill="midnightblue" stroke="midnightblue" points="411.68,-25.83 403.12,-19.59 405.92,-29.81 411.68,-25.83"/>
</g>
<!-- Node6&#45;&gt;Node10 -->
<g id="edge14" class="edge">
<title>Node6&#45;&gt;Node10</title>
<path fill="none" stroke="midnightblue" d="M516.54,-112.47C541.61,-105.82 572.57,-94.52 595.18,-76 610.36,-63.57 621.36,-43.77 627.94,-29.29"/>
<polygon fill="midnightblue" stroke="midnightblue" points="631.26,-30.44 631.95,-19.87 624.81,-27.7 631.26,-30.44"/>
</g>
<!-- Node8&#45;&gt;Node5 -->
<g id="edge9" class="edge">
<title>Node8&#45;&gt;Node5</title>
<path fill="none" stroke="midnightblue" d="M472.08,-56.44C419.08,-45.92 330.02,-28.24 280.05,-18.32"/>
<polygon fill="midnightblue" stroke="midnightblue" points="280.49,-14.84 270,-16.32 279.13,-21.7 280.49,-14.84"/>
</g>
<!-- Node8&#45;&gt;Node7 -->
<g id="edge10" class="edge">
<title>Node8&#45;&gt;Node7</title>
<path fill="none" stroke="midnightblue" d="M515.35,-56.08C515.48,-49.01 515.67,-38.86 515.83,-29.99"/>
<polygon fill="midnightblue" stroke="midnightblue" points="519.34,-29.81 516.02,-19.75 512.34,-29.68 519.34,-29.81"/>
</g>
<!-- Node8&#45;&gt;Node9 -->
<g id="edge11" class="edge">
<title>Node8&#45;&gt;Node9</title>
<path fill="none" stroke="midnightblue" d="M496.49,-56.44C477.24,-47.64 447.03,-33.81 424.98,-23.72"/>
<polygon fill="midnightblue" stroke="midnightblue" points="426.34,-20.5 415.79,-19.52 423.43,-26.86 426.34,-20.5"/>
</g>
<!-- Node8&#45;&gt;Node10 -->
<g id="edge12" class="edge">
<title>Node8&#45;&gt;Node10</title>
<path fill="none" stroke="midnightblue" d="M534.2,-56.44C553.77,-47.64 584.49,-33.81 606.91,-23.72"/>
<polygon fill="midnightblue" stroke="midnightblue" points="608.58,-26.81 616.26,-19.52 605.7,-20.43 608.58,-26.81"/>
</g>
<!-- Node12 -->
<g id="node12" class="node">
<title>Node12</title>
<g id="a_node12"><a xlink:href="_pixel_coordinate_8hpp.html" target="_top" xlink:title=" ">
<polygon fill="none" stroke="black" points="192.18,-112.5 192.18,-131.5 294.18,-131.5 294.18,-112.5 192.18,-112.5"/>
<text text-anchor="middle" x="243.18" y="-119.5" font-family="Helvetica,sans-Serif" font-size="10.00">PixelCoordinate.hpp</text>
</a>
</g>
</g>
<!-- Node11&#45;&gt;Node12 -->
<g id="edge16" class="edge">
<title>Node11&#45;&gt;Node12</title>
<path fill="none" stroke="midnightblue" d="M236.5,-168.08C237.56,-160.93 239.09,-150.64 240.41,-141.69"/>
<polygon fill="midnightblue" stroke="midnightblue" points="243.88,-142.16 241.89,-131.75 236.96,-141.13 243.88,-142.16"/>
</g>
<!-- Node12&#45;&gt;Node2 -->
<g id="edge17" class="edge">
<title>Node12&#45;&gt;Node2</title>
<path fill="none" stroke="midnightblue" d="M219.26,-112.44C193.67,-103.29 152.94,-88.73 124.51,-78.56"/>
<polygon fill="midnightblue" stroke="midnightblue" points="125.6,-75.23 115.01,-75.16 123.25,-81.83 125.6,-75.23"/>
</g>
<!-- Node12&#45;&gt;Node3 -->
<g id="edge18" class="edge">
<title>Node12&#45;&gt;Node3</title>
<path fill="none" stroke="midnightblue" d="M229.37,-112.32C215.95,-103.9 195.36,-90.97 179.6,-81.07"/>
<polygon fill="midnightblue" stroke="midnightblue" points="181.3,-78.01 170.97,-75.65 177.57,-83.94 181.3,-78.01"/>
</g>
<!-- Node12&#45;&gt;Node4 -->
<g id="edge19" class="edge">
<title>Node12&#45;&gt;Node4</title>
<path fill="none" stroke="midnightblue" d="M258.61,-112.32C273.72,-103.82 297,-90.73 314.65,-80.8"/>
<polygon fill="midnightblue" stroke="midnightblue" points="316.8,-83.61 323.8,-75.65 313.37,-77.51 316.8,-83.61"/>
</g>
<!-- Node12&#45;&gt;Node5 -->
<g id="edge20" class="edge">
<title>Node12&#45;&gt;Node5</title>
<path fill="none" stroke="midnightblue" d="M240.35,-112.2C236.67,-99.74 230.97,-76.2 233.18,-56 234.16,-47.14 236.18,-37.47 238.15,-29.38"/>
<polygon fill="midnightblue" stroke="midnightblue" points="241.58,-30.09 240.7,-19.53 234.8,-28.33 241.58,-30.09"/>
</g>
<!-- Node12&#45;&gt;Node8 -->
<g id="edge21" class="edge">
<title>Node12&#45;&gt;Node8</title>
<path fill="none" stroke="midnightblue" d="M286.28,-112.44C334.03,-102.96 411.04,-87.67 462.38,-77.48"/>
<polygon fill="midnightblue" stroke="midnightblue" points="463.16,-80.9 472.29,-75.52 461.8,-74.03 463.16,-80.9"/>
</g>
<!-- Node12&#45;&gt;Node9 -->
<g id="edge22" class="edge">
<title>Node12&#45;&gt;Node9</title>
<path fill="none" stroke="midnightblue" d="M244.67,-112.14C247.44,-98.28 254.7,-71.47 271.18,-56 290.61,-37.77 317.92,-26.84 342.16,-20.33"/>
<polygon fill="midnightblue" stroke="midnightblue" points="343.11,-23.7 351.97,-17.89 341.42,-16.91 343.11,-23.7"/>
</g>
<!-- Node12&#45;&gt;Node10 -->
<g id="edge23" class="edge">
<title>Node12&#45;&gt;Node10</title>
<path fill="none" stroke="midnightblue" d="M248.63,-112.04C257.99,-97.53 278.6,-69.19 304.18,-56 315.19,-50.33 458.81,-32.2 553.22,-20.75"/>
<polygon fill="midnightblue" stroke="midnightblue" points="553.83,-24.21 563.33,-19.53 552.98,-17.26 553.83,-24.21"/>
</g>
</g>
</svg>
