<?xml version="1.0" encoding="UTF-8" standalone="no"?>
<!DOCTYPE svg PUBLIC "-//W3C//DTD SVG 1.1//EN"
 "http://www.w3.org/Graphics/SVG/1.1/DTD/svg11.dtd">
<!-- Generated by graphviz version 2.49.0 (20210830.1337)
 -->
<!-- Title: typeClassDefs/VisionDetectionLineArray.hpp Pages: 1 -->
<svg width="816pt" height="397pt"
 viewBox="0.00 0.00 816.00 397.00" xmlns="http://www.w3.org/2000/svg" xmlns:xlink="http://www.w3.org/1999/xlink">
<g id="graph0" class="graph" transform="scale(1 1) rotate(0) translate(4 393)">
<title>typeClassDefs/VisionDetectionLineArray.hpp</title>
<!-- Node1 -->
<g id="node1" class="node">
<title>Node1</title>
<g id="a_node1"><a xlink:title=" ">
<polygon fill="#bfbfbf" stroke="black" points="268.5,-358.5 268.5,-388.5 419.5,-388.5 419.5,-358.5 268.5,-358.5"/>
<text text-anchor="start" x="276.5" y="-376.5" font-family="Helvetica,sans-Serif" font-size="10.00">typeClassDefs/VisionDetection</text>
<text text-anchor="middle" x="344" y="-365.5" font-family="Helvetica,sans-Serif" font-size="10.00">LineArray.hpp</text>
</a>
</g>
</g>
<!-- Node2 -->
<g id="node2" class="node">
<title>Node2</title>
<g id="a_node2"><a xlink:title=" ">
<polygon fill="none" stroke="#bfbfbf" points="338.5,-56.5 338.5,-75.5 383.5,-75.5 383.5,-56.5 338.5,-56.5"/>
<text text-anchor="middle" x="361" y="-63.5" font-family="Helvetica,sans-Serif" font-size="10.00">cstdlib</text>
</a>
</g>
</g>
<!-- Node1&#45;&gt;Node2 -->
<g id="edge1" class="edge">
<title>Node1&#45;&gt;Node2</title>
<path fill="none" stroke="midnightblue" d="M352.91,-358.16C365.24,-336.91 386,-295.41 386,-257 386,-257 386,-257 386,-193.5 386,-154.48 374.41,-109.95 367.01,-85.5"/>
<polygon fill="midnightblue" stroke="midnightblue" points="370.3,-84.27 363.97,-75.78 363.62,-86.37 370.3,-84.27"/>
</g>
<!-- Node3 -->
<g id="node3" class="node">
<title>Node3</title>
<g id="a_node3"><a xlink:title=" ">
<polygon fill="none" stroke="#bfbfbf" points="12,-56.5 12,-75.5 60,-75.5 60,-56.5 12,-56.5"/>
<text text-anchor="middle" x="36" y="-63.5" font-family="Helvetica,sans-Serif" font-size="10.00">string.h</text>
</a>
</g>
</g>
<!-- Node1&#45;&gt;Node3 -->
<g id="edge2" class="edge">
<title>Node1&#45;&gt;Node3</title>
<path fill="none" stroke="midnightblue" d="M268.4,-368.11C213.64,-362.59 139,-350.13 79,-322 37.83,-302.7 0,-302.47 0,-257 0,-257 0,-257 0,-193.5 0,-153.52 16.84,-109.05 27.48,-84.94"/>
<polygon fill="midnightblue" stroke="midnightblue" points="30.76,-86.2 31.73,-75.65 24.39,-83.29 30.76,-86.2"/>
</g>
<!-- Node4 -->
<g id="node4" class="node">
<title>Node4</title>
<g id="a_node4"><a xlink:title=" ">
<polygon fill="none" stroke="#bfbfbf" points="116,-56.5 116,-75.5 168,-75.5 168,-56.5 116,-56.5"/>
<text text-anchor="middle" x="142" y="-63.5" font-family="Helvetica,sans-Serif" font-size="10.00">sstream</text>
</a>
</g>
</g>
<!-- Node1&#45;&gt;Node4 -->
<g id="edge3" class="edge">
<title>Node1&#45;&gt;Node4</title>
<path fill="none" stroke="midnightblue" d="M268.36,-359.44C177.74,-341.6 38,-306.12 38,-257 38,-257 38,-257 38,-193.5 38,-143.04 87.99,-101.75 118.65,-81.16"/>
<polygon fill="midnightblue" stroke="midnightblue" points="120.61,-84.06 127.1,-75.68 116.8,-78.19 120.61,-84.06"/>
</g>
<!-- Node5 -->
<g id="node5" class="node">
<title>Node5</title>
<g id="a_node5"><a xlink:title=" ">
<polygon fill="none" stroke="#bfbfbf" points="682.5,-0.5 682.5,-19.5 735.5,-19.5 735.5,-0.5 682.5,-0.5"/>
<text text-anchor="middle" x="709" y="-7.5" font-family="Helvetica,sans-Serif" font-size="10.00">gu_util.h</text>
</a>
</g>
</g>
<!-- Node1&#45;&gt;Node5 -->
<g id="edge4" class="edge">
<title>Node1&#45;&gt;Node5</title>
<path fill="none" stroke="midnightblue" d="M419.58,-369.21C551.06,-361.42 808,-336.07 808,-257 808,-257 808,-257 808,-126.5 808,-80.55 762.26,-43.7 732.97,-24.81"/>
<polygon fill="midnightblue" stroke="midnightblue" points="734.81,-21.84 724.47,-19.54 731.12,-27.79 734.81,-21.84"/>
</g>
<!-- Node6 -->
<g id="node6" class="node">
<title>Node6</title>
<g id="a_node6"><a xlink:href="wb__vision__detection__line__array_8h.html" target="_top" xlink:title=" ">
<polygon fill="none" stroke="black" points="674.5,-179.5 674.5,-209.5 779.5,-209.5 779.5,-179.5 674.5,-179.5"/>
<text text-anchor="start" x="682.5" y="-197.5" font-family="Helvetica,sans-Serif" font-size="10.00">wb_vision_detection</text>
<text text-anchor="middle" x="727" y="-186.5" font-family="Helvetica,sans-Serif" font-size="10.00">_line_array.h</text>
</a>
</g>
</g>
<!-- Node1&#45;&gt;Node6 -->
<g id="edge5" class="edge">
<title>Node1&#45;&gt;Node6</title>
<path fill="none" stroke="midnightblue" d="M374.37,-358.46C443.09,-326.71 610.47,-249.36 687.28,-213.86"/>
<polygon fill="midnightblue" stroke="midnightblue" points="689.01,-216.91 696.62,-209.54 686.08,-210.56 689.01,-216.91"/>
</g>
<!-- Node12 -->
<g id="node12" class="node">
<title>Node12</title>
<g id="a_node12"><a xlink:href="_pixel_coordinate_line_8h.html" target="_top" xlink:title=" ">
<polygon fill="none" stroke="black" points="245,-302.5 245,-321.5 355,-321.5 355,-302.5 245,-302.5"/>
<text text-anchor="middle" x="300" y="-309.5" font-family="Helvetica,sans-Serif" font-size="10.00">PixelCoordinateLine.h</text>
</a>
</g>
</g>
<!-- Node1&#45;&gt;Node12 -->
<g id="edge18" class="edge">
<title>Node1&#45;&gt;Node12</title>
<path fill="none" stroke="midnightblue" d="M333.57,-358.4C327.24,-349.84 319.13,-338.87 312.47,-329.86"/>
<polygon fill="midnightblue" stroke="midnightblue" points="315.16,-327.62 306.4,-321.66 309.53,-331.78 315.16,-327.62"/>
</g>
<!-- Node6&#45;&gt;Node5 -->
<g id="edge6" class="edge">
<title>Node6&#45;&gt;Node5</title>
<path fill="none" stroke="midnightblue" d="M733.22,-179.39C743.5,-153.97 761.44,-99.1 746,-56 742.06,-45 734.14,-34.77 726.64,-26.85"/>
<polygon fill="midnightblue" stroke="midnightblue" points="729.02,-24.28 719.44,-19.76 724.11,-29.27 729.02,-24.28"/>
</g>
<!-- Node7 -->
<g id="node7" class="node">
<title>Node7</title>
<g id="a_node7"><a xlink:title=" ">
<polygon fill="none" stroke="#bfbfbf" points="594,-0.5 594,-19.5 642,-19.5 642,-0.5 594,-0.5"/>
<text text-anchor="middle" x="618" y="-7.5" font-family="Helvetica,sans-Serif" font-size="10.00">stdint.h</text>
</a>
</g>
</g>
<!-- Node6&#45;&gt;Node7 -->
<g id="edge7" class="edge">
<title>Node6&#45;&gt;Node7</title>
<path fill="none" stroke="midnightblue" d="M718.63,-179.48C699.03,-146.68 650.22,-64.95 628.6,-28.74"/>
<polygon fill="midnightblue" stroke="midnightblue" points="631.4,-26.61 623.27,-19.82 625.39,-30.2 631.4,-26.61"/>
</g>
<!-- Node8 -->
<g id="node8" class="node">
<title>Node8</title>
<g id="a_node8"><a xlink:href="wb__pixel__coordinate__line_8h.html" target="_top" xlink:title=" ">
<polygon fill="none" stroke="black" points="444,-112.5 444,-142.5 548,-142.5 548,-112.5 444,-112.5"/>
<text text-anchor="start" x="452" y="-130.5" font-family="Helvetica,sans-Serif" font-size="10.00">wb_pixel_coordinate</text>
<text text-anchor="middle" x="496" y="-119.5" font-family="Helvetica,sans-Serif" font-size="10.00">_line.h</text>
</a>
</g>
</g>
<!-- Node6&#45;&gt;Node8 -->
<g id="edge8" class="edge">
<title>Node6&#45;&gt;Node8</title>
<path fill="none" stroke="midnightblue" d="M677.16,-179.48C641.61,-169.47 593.63,-155.97 555.98,-145.38"/>
<polygon fill="midnightblue" stroke="midnightblue" points="556.72,-141.95 546.15,-142.61 554.83,-148.69 556.72,-141.95"/>
</g>
<!-- Node8&#45;&gt;Node5 -->
<g id="edge9" class="edge">
<title>Node8&#45;&gt;Node5</title>
<path fill="none" stroke="midnightblue" d="M522.12,-112.34C563.56,-89.86 643.84,-46.33 684.35,-24.37"/>
<polygon fill="midnightblue" stroke="midnightblue" points="686.16,-27.37 693.28,-19.52 682.82,-21.21 686.16,-27.37"/>
</g>
<!-- Node8&#45;&gt;Node7 -->
<g id="edge10" class="edge">
<title>Node8&#45;&gt;Node7</title>
<path fill="none" stroke="midnightblue" d="M516.13,-112.4C529.39,-102.75 546.86,-89.33 561,-76 577.13,-60.8 593.62,-41.51 604.68,-27.91"/>
<polygon fill="midnightblue" stroke="midnightblue" points="607.59,-29.88 611.11,-19.89 602.12,-25.5 607.59,-29.88"/>
</g>
<!-- Node9 -->
<g id="node9" class="node">
<title>Node9</title>
<g id="a_node9"><a xlink:href="wb__pixel__coordinate_8h.html" target="_top" xlink:title=" ">
<polygon fill="none" stroke="black" points="440,-56.5 440,-75.5 552,-75.5 552,-56.5 440,-56.5"/>
<text text-anchor="middle" x="496" y="-63.5" font-family="Helvetica,sans-Serif" font-size="10.00">wb_pixel_coordinate.h</text>
</a>
</g>
</g>
<!-- Node8&#45;&gt;Node9 -->
<g id="edge11" class="edge">
<title>Node8&#45;&gt;Node9</title>
<path fill="none" stroke="midnightblue" d="M496,-112.4C496,-104.47 496,-94.46 496,-85.86"/>
<polygon fill="midnightblue" stroke="midnightblue" points="499.5,-85.66 496,-75.66 492.5,-85.66 499.5,-85.66"/>
</g>
<!-- Node10 -->
<g id="node10" class="node">
<title>Node10</title>
<g id="a_node10"><a xlink:title=" ">
<polygon fill="none" stroke="#bfbfbf" points="189,-0.5 189,-19.5 279,-19.5 279,-0.5 189,-0.5"/>
<text text-anchor="middle" x="234" y="-7.5" font-family="Helvetica,sans-Serif" font-size="10.00">guunits/guunits.h</text>
</a>
</g>
</g>
<!-- Node8&#45;&gt;Node10 -->
<g id="edge16" class="edge">
<title>Node8&#45;&gt;Node10</title>
<path fill="none" stroke="midnightblue" d="M443.68,-115.07C409.97,-106.65 365.74,-93.6 329,-76 300.35,-62.27 270.64,-40.52 252.25,-26.01"/>
<polygon fill="midnightblue" stroke="midnightblue" points="254.17,-23.07 244.18,-19.54 249.78,-28.53 254.17,-23.07"/>
</g>
<!-- Node11 -->
<g id="node11" class="node">
<title>Node11</title>
<g id="a_node11"><a xlink:title=" ">
<polygon fill="none" stroke="#bfbfbf" points="336.5,-0.5 336.5,-19.5 485.5,-19.5 485.5,-0.5 336.5,-0.5"/>
<text text-anchor="middle" x="411" y="-7.5" font-family="Helvetica,sans-Serif" font-size="10.00">gucoordinates/gucoordinates.h</text>
</a>
</g>
</g>
<!-- Node8&#45;&gt;Node11 -->
<g id="edge17" class="edge">
<title>Node8&#45;&gt;Node11</title>
<path fill="none" stroke="midnightblue" d="M470.98,-112.33C457.39,-103.48 441.31,-90.93 431,-76 421.46,-62.19 416.35,-43.67 413.69,-29.93"/>
<polygon fill="midnightblue" stroke="midnightblue" points="417.08,-29.01 411.99,-19.72 410.18,-30.16 417.08,-29.01"/>
</g>
<!-- Node9&#45;&gt;Node5 -->
<g id="edge12" class="edge">
<title>Node9&#45;&gt;Node5</title>
<path fill="none" stroke="midnightblue" d="M529.75,-56.44C568.71,-46.57 632.54,-30.38 672.59,-20.23"/>
<polygon fill="midnightblue" stroke="midnightblue" points="673.64,-23.58 682.47,-17.73 671.92,-16.79 673.64,-23.58"/>
</g>
<!-- Node9&#45;&gt;Node7 -->
<g id="edge13" class="edge">
<title>Node9&#45;&gt;Node7</title>
<path fill="none" stroke="midnightblue" d="M515.33,-56.44C535.32,-47.6 566.74,-33.69 589.56,-23.59"/>
<polygon fill="midnightblue" stroke="midnightblue" points="591.03,-26.76 598.76,-19.52 588.2,-20.36 591.03,-26.76"/>
</g>
<!-- Node9&#45;&gt;Node10 -->
<g id="edge14" class="edge">
<title>Node9&#45;&gt;Node10</title>
<path fill="none" stroke="midnightblue" d="M454.49,-56.44C408.59,-46.98 334.62,-31.74 285.17,-21.55"/>
<polygon fill="midnightblue" stroke="midnightblue" points="285.82,-18.11 275.32,-19.52 284.41,-24.96 285.82,-18.11"/>
</g>
<!-- Node9&#45;&gt;Node11 -->
<g id="edge15" class="edge">
<title>Node9&#45;&gt;Node11</title>
<path fill="none" stroke="midnightblue" d="M482.34,-56.32C469.08,-47.9 448.73,-34.97 433.15,-25.07"/>
<polygon fill="midnightblue" stroke="midnightblue" points="434.94,-22.06 424.62,-19.65 431.19,-27.97 434.94,-22.06"/>
</g>
<!-- Node13 -->
<g id="node13" class="node">
<title>Node13</title>
<g id="a_node13"><a xlink:href="_pixel_coordinate_line_8hpp.html" target="_top" xlink:title=" ">
<polygon fill="none" stroke="black" points="236.5,-246.5 236.5,-265.5 357.5,-265.5 357.5,-246.5 236.5,-246.5"/>
<text text-anchor="middle" x="297" y="-253.5" font-family="Helvetica,sans-Serif" font-size="10.00">PixelCoordinateLine.hpp</text>
</a>
</g>
</g>
<!-- Node12&#45;&gt;Node13 -->
<g id="edge19" class="edge">
<title>Node12&#45;&gt;Node13</title>
<path fill="none" stroke="midnightblue" d="M299.5,-302.08C299.11,-295.01 298.55,-284.86 298.05,-275.99"/>
<polygon fill="midnightblue" stroke="midnightblue" points="301.54,-275.54 297.49,-265.75 294.55,-275.93 301.54,-275.54"/>
</g>
<!-- Node13&#45;&gt;Node2 -->
<g id="edge20" class="edge">
<title>Node13&#45;&gt;Node2</title>
<path fill="none" stroke="midnightblue" d="M303.17,-246.43C309.23,-237.66 318.37,-223.44 324,-210 341.94,-167.18 353.01,-113.4 357.96,-85.58"/>
<polygon fill="midnightblue" stroke="midnightblue" points="361.42,-86.11 359.65,-75.66 354.52,-84.93 361.42,-86.11"/>
</g>
<!-- Node13&#45;&gt;Node3 -->
<g id="edge21" class="edge">
<title>Node13&#45;&gt;Node3</title>
<path fill="none" stroke="midnightblue" d="M236.08,-247.13C186.2,-239.61 120.61,-226.92 100,-210 60.85,-177.87 44.79,-116.82 38.95,-85.92"/>
<polygon fill="midnightblue" stroke="midnightblue" points="42.33,-84.94 37.18,-75.68 35.43,-86.13 42.33,-84.94"/>
</g>
<!-- Node13&#45;&gt;Node4 -->
<g id="edge22" class="edge">
<title>Node13&#45;&gt;Node4</title>
<path fill="none" stroke="midnightblue" d="M245.24,-246.43C222,-240.07 196.03,-229.04 179,-210 147.45,-174.74 142.16,-116.02 141.66,-85.98"/>
<polygon fill="midnightblue" stroke="midnightblue" points="145.16,-85.65 141.67,-75.65 138.16,-85.65 145.16,-85.65"/>
</g>
<!-- Node13&#45;&gt;Node5 -->
<g id="edge23" class="edge">
<title>Node13&#45;&gt;Node5</title>
<path fill="none" stroke="midnightblue" d="M318.79,-246.44C341.25,-237.56 377.21,-223.16 408,-210 474.77,-181.47 495.82,-182.11 557,-143 611.97,-107.85 667.6,-53.77 693.7,-27.06"/>
<polygon fill="midnightblue" stroke="midnightblue" points="696.38,-29.32 700.81,-19.7 691.34,-24.46 696.38,-29.32"/>
</g>
<!-- Node13&#45;&gt;Node8 -->
<g id="edge24" class="edge">
<title>Node13&#45;&gt;Node8</title>
<path fill="none" stroke="midnightblue" d="M310.68,-246.31C342.31,-226.2 421.15,-176.08 465.12,-148.13"/>
<polygon fill="midnightblue" stroke="midnightblue" points="467.13,-151 473.69,-142.68 463.37,-145.09 467.13,-151"/>
</g>
<!-- Node13&#45;&gt;Node10 -->
<g id="edge34" class="edge">
<title>Node13&#45;&gt;Node10</title>
<path fill="none" stroke="midnightblue" d="M236.4,-247.7C209.17,-241.61 178.42,-230.45 157,-210 111.03,-166.1 118.29,-138.56 107,-76 105.42,-67.25 101.87,-63.26 107,-56 123.34,-32.88 152.62,-21.56 178.95,-16.05"/>
<polygon fill="midnightblue" stroke="midnightblue" points="179.67,-19.48 188.86,-14.22 178.39,-12.6 179.67,-19.48"/>
</g>
<!-- Node13&#45;&gt;Node11 -->
<g id="edge35" class="edge">
<title>Node13&#45;&gt;Node11</title>
<path fill="none" stroke="midnightblue" d="M295.91,-246.47C292.61,-216.97 285.44,-117.77 329,-56 339.46,-41.16 356.42,-30.7 372.22,-23.63"/>
<polygon fill="midnightblue" stroke="midnightblue" points="373.93,-26.71 381.83,-19.65 371.25,-20.24 373.93,-26.71"/>
</g>
<!-- Node14 -->
<g id="node14" class="node">
<title>Node14</title>
<g id="a_node14"><a xlink:href="_pixel_coordinate_8h.html" target="_top" xlink:title=" ">
<polygon fill="none" stroke="black" points="188,-185 188,-204 280,-204 280,-185 188,-185"/>
<text text-anchor="middle" x="234" y="-192" font-family="Helvetica,sans-Serif" font-size="10.00">PixelCoordinate.h</text>
</a>
</g>
</g>
<!-- Node13&#45;&gt;Node14 -->
<g id="edge25" class="edge">
<title>Node13&#45;&gt;Node14</title>
<path fill="none" stroke="midnightblue" d="M287.97,-246.48C278.24,-237.28 262.54,-222.46 250.58,-211.16"/>
<polygon fill="midnightblue" stroke="midnightblue" points="252.68,-208.33 243.01,-204.01 247.88,-213.42 252.68,-208.33"/>
</g>
<!-- Node15 -->
<g id="node15" class="node">
<title>Node15</title>
<g id="a_node15"><a xlink:href="_pixel_coordinate_8hpp.html" target="_top" xlink:title=" ">
<polygon fill="none" stroke="black" points="180,-118 180,-137 282,-137 282,-118 180,-118"/>
<text text-anchor="middle" x="231" y="-125" font-family="Helvetica,sans-Serif" font-size="10.00">PixelCoordinate.hpp</text>
</a>
</g>
</g>
<!-- Node14&#45;&gt;Node15 -->
<g id="edge26" class="edge">
<title>Node14&#45;&gt;Node15</title>
<path fill="none" stroke="midnightblue" d="M233.6,-184.73C233.15,-175.18 232.44,-159.62 231.87,-147.28"/>
<polygon fill="midnightblue" stroke="midnightblue" points="235.36,-146.96 231.4,-137.13 228.36,-147.28 235.36,-146.96"/>
</g>
<!-- Node15&#45;&gt;Node2 -->
<g id="edge27" class="edge">
<title>Node15&#45;&gt;Node2</title>
<path fill="none" stroke="midnightblue" d="M249.63,-117.98C271.44,-107.99 307.8,-91.35 333.02,-79.81"/>
<polygon fill="midnightblue" stroke="midnightblue" points="334.77,-82.85 342.41,-75.51 331.86,-76.49 334.77,-82.85"/>
</g>
<!-- Node15&#45;&gt;Node3 -->
<g id="edge28" class="edge">
<title>Node15&#45;&gt;Node3</title>
<path fill="none" stroke="midnightblue" d="M203.06,-117.98C168.02,-107.28 107.97,-88.96 70.22,-77.44"/>
<polygon fill="midnightblue" stroke="midnightblue" points="70.78,-73.95 60.2,-74.38 68.74,-80.65 70.78,-73.95"/>
</g>
<!-- Node15&#45;&gt;Node4 -->
<g id="edge29" class="edge">
<title>Node15&#45;&gt;Node4</title>
<path fill="none" stroke="midnightblue" d="M218.25,-117.98C203.97,-108.43 180.6,-92.81 163.49,-81.37"/>
<polygon fill="midnightblue" stroke="midnightblue" points="164.99,-78.16 154.73,-75.51 161.1,-83.98 164.99,-78.16"/>
</g>
<!-- Node15&#45;&gt;Node5 -->
<g id="edge30" class="edge">
<title>Node15&#45;&gt;Node5</title>
<path fill="none" stroke="midnightblue" d="M282.28,-124.84C348.5,-121.32 466.48,-110.33 561,-76 577.12,-70.15 578.62,-63.6 594,-56 619.95,-43.18 650.52,-31.36 673.61,-23.06"/>
<polygon fill="midnightblue" stroke="midnightblue" points="675.08,-26.25 683.34,-19.61 672.74,-19.66 675.08,-26.25"/>
</g>
<!-- Node15&#45;&gt;Node9 -->
<g id="edge31" class="edge">
<title>Node15&#45;&gt;Node9</title>
<path fill="none" stroke="midnightblue" d="M268.97,-117.98C316.2,-107.37 396.86,-89.26 448.24,-77.72"/>
<polygon fill="midnightblue" stroke="midnightblue" points="449.11,-81.11 458.1,-75.51 447.58,-74.28 449.11,-81.11"/>
</g>
<!-- Node15&#45;&gt;Node10 -->
<g id="edge32" class="edge">
<title>Node15&#45;&gt;Node10</title>
<path fill="none" stroke="midnightblue" d="M227.92,-117.82C223.6,-104.52 216.61,-78.29 220,-56 221.37,-47 224.19,-37.33 226.95,-29.26"/>
<polygon fill="midnightblue" stroke="midnightblue" points="230.27,-30.37 230.4,-19.78 223.69,-27.98 230.27,-30.37"/>
</g>
<!-- Node15&#45;&gt;Node11 -->
<g id="edge33" class="edge">
<title>Node15&#45;&gt;Node11</title>
<path fill="none" stroke="midnightblue" d="M236.85,-117.96C247.22,-103.4 270.16,-73.66 296,-56 317.97,-40.98 345.67,-29.95 368.38,-22.57"/>
<polygon fill="midnightblue" stroke="midnightblue" points="369.6,-25.85 378.1,-19.53 367.51,-19.17 369.6,-25.85"/>
</g>
</g>
</svg>
