<?xml version="1.0" encoding="UTF-8" standalone="no"?>
<!DOCTYPE svg PUBLIC "-//W3C//DTD SVG 1.1//EN"
 "http://www.w3.org/Graphics/SVG/1.1/DTD/svg11.dtd">
<!-- Generated by graphviz version 2.49.0 (20210830.1337)
 -->
<!-- Title: typeClassDefs/VisionLines.hpp Pages: 1 -->
<svg width="1012pt" height="487pt"
 viewBox="0.00 0.00 1011.50 487.00" xmlns="http://www.w3.org/2000/svg" xmlns:xlink="http://www.w3.org/1999/xlink">
<g id="graph0" class="graph" transform="scale(1 1) rotate(0) translate(4 483)">
<title>typeClassDefs/VisionLines.hpp</title>
<!-- Node1 -->
<g id="node1" class="node">
<title>Node1</title>
<g id="a_node1"><a xlink:title=" ">
<polygon fill="#bfbfbf" stroke="black" points="599,-459.5 599,-478.5 751,-478.5 751,-459.5 599,-459.5"/>
<text text-anchor="middle" x="675" y="-466.5" font-family="Helvetica,sans-Serif" font-size="10.00">typeClassDefs/VisionLines.hpp</text>
</a>
</g>
</g>
<!-- Node2 -->
<g id="node2" class="node">
<title>Node2</title>
<g id="a_node2"><a xlink:title=" ">
<polygon fill="none" stroke="#bfbfbf" points="129.5,-56.5 129.5,-75.5 174.5,-75.5 174.5,-56.5 129.5,-56.5"/>
<text text-anchor="middle" x="152" y="-63.5" font-family="Helvetica,sans-Serif" font-size="10.00">cstdlib</text>
</a>
</g>
</g>
<!-- Node1&#45;&gt;Node2 -->
<g id="edge1" class="edge">
<title>Node1&#45;&gt;Node2</title>
<path fill="none" stroke="midnightblue" d="M650.72,-459.35C581.9,-434.2 381.14,-356.4 236,-255 185.43,-219.67 167.2,-203.26 154,-143 149.81,-123.89 149.81,-101.43 150.54,-85.91"/>
<polygon fill="midnightblue" stroke="midnightblue" points="154.06,-85.76 151.19,-75.56 147.07,-85.32 154.06,-85.76"/>
</g>
<!-- Node3 -->
<g id="node3" class="node">
<title>Node3</title>
<g id="a_node3"><a xlink:title=" ">
<polygon fill="none" stroke="#bfbfbf" points="33,-56.5 33,-75.5 81,-75.5 81,-56.5 33,-56.5"/>
<text text-anchor="middle" x="57" y="-63.5" font-family="Helvetica,sans-Serif" font-size="10.00">string.h</text>
</a>
</g>
</g>
<!-- Node1&#45;&gt;Node3 -->
<g id="edge2" class="edge">
<title>Node1&#45;&gt;Node3</title>
<path fill="none" stroke="midnightblue" d="M598.88,-463.47C422.35,-451.95 0,-418.11 0,-358 0,-358 0,-358 0,-188 0,-147.59 26.34,-106.21 43.21,-83.85"/>
<polygon fill="midnightblue" stroke="midnightblue" points="46.15,-85.77 49.55,-75.74 40.63,-81.46 46.15,-85.77"/>
</g>
<!-- Node4 -->
<g id="node4" class="node">
<title>Node4</title>
<g id="a_node4"><a xlink:title=" ">
<polygon fill="none" stroke="#bfbfbf" points="703,-56.5 703,-75.5 755,-75.5 755,-56.5 703,-56.5"/>
<text text-anchor="middle" x="729" y="-63.5" font-family="Helvetica,sans-Serif" font-size="10.00">sstream</text>
</a>
</g>
</g>
<!-- Node1&#45;&gt;Node4 -->
<g id="edge3" class="edge">
<title>Node1&#45;&gt;Node4</title>
<path fill="none" stroke="midnightblue" d="M685.33,-459.5C704.8,-442.44 745,-401.91 745,-358 745,-358 745,-358 745,-188 745,-151.58 737.79,-109.52 733.05,-85.81"/>
<polygon fill="midnightblue" stroke="midnightblue" points="736.42,-84.83 730.96,-75.75 729.57,-86.26 736.42,-84.83"/>
</g>
<!-- Node5 -->
<g id="node5" class="node">
<title>Node5</title>
<g id="a_node5"><a xlink:title=" ">
<polygon fill="none" stroke="#bfbfbf" points="658.5,-0.5 658.5,-19.5 711.5,-19.5 711.5,-0.5 658.5,-0.5"/>
<text text-anchor="middle" x="685" y="-7.5" font-family="Helvetica,sans-Serif" font-size="10.00">gu_util.h</text>
</a>
</g>
</g>
<!-- Node1&#45;&gt;Node5 -->
<g id="edge4" class="edge">
<title>Node1&#45;&gt;Node5</title>
<path fill="none" stroke="midnightblue" d="M682.77,-459.44C707.53,-431.23 783,-337.72 783,-246 783,-246 783,-246 783,-126.5 783,-94.05 783.85,-81.67 764,-56 752.81,-41.52 735.55,-30.93 720.02,-23.67"/>
<polygon fill="midnightblue" stroke="midnightblue" points="721.2,-20.37 710.64,-19.58 718.4,-26.78 721.2,-20.37"/>
</g>
<!-- Node6 -->
<g id="node6" class="node">
<title>Node6</title>
<g id="a_node6"><a xlink:href="wb__vision__lines_8h.html" target="_top" xlink:title=" ">
<polygon fill="none" stroke="black" points="910.5,-235.5 910.5,-254.5 1003.5,-254.5 1003.5,-235.5 910.5,-235.5"/>
<text text-anchor="middle" x="957" y="-242.5" font-family="Helvetica,sans-Serif" font-size="10.00">wb_vision_lines.h</text>
</a>
</g>
</g>
<!-- Node1&#45;&gt;Node6 -->
<g id="edge5" class="edge">
<title>Node1&#45;&gt;Node6</title>
<path fill="none" stroke="midnightblue" d="M694.1,-459.38C711.63,-451.1 737.99,-437.7 759,-423 833.18,-371.09 910.05,-294.68 941.85,-261.89"/>
<polygon fill="midnightblue" stroke="midnightblue" points="944.51,-264.17 948.93,-254.54 939.47,-259.31 944.51,-264.17"/>
</g>
<!-- Node13 -->
<g id="node13" class="node">
<title>Node13</title>
<g id="a_node13"><a xlink:href="_vision_line_8h.html" target="_top" xlink:title=" ">
<polygon fill="none" stroke="black" points="606,-403.5 606,-422.5 676,-422.5 676,-403.5 606,-403.5"/>
<text text-anchor="middle" x="641" y="-410.5" font-family="Helvetica,sans-Serif" font-size="10.00">VisionLine.h</text>
</a>
</g>
</g>
<!-- Node1&#45;&gt;Node13 -->
<g id="edge21" class="edge">
<title>Node1&#45;&gt;Node13</title>
<path fill="none" stroke="midnightblue" d="M669.39,-459.08C664.63,-451.53 657.68,-440.49 651.85,-431.23"/>
<polygon fill="midnightblue" stroke="midnightblue" points="654.8,-429.35 646.51,-422.75 648.88,-433.08 654.8,-429.35"/>
</g>
<!-- Node6&#45;&gt;Node5 -->
<g id="edge6" class="edge">
<title>Node6&#45;&gt;Node5</title>
<path fill="none" stroke="midnightblue" d="M956.79,-235.23C956.2,-222.4 954.02,-197.98 946,-179 919.64,-116.6 911.97,-94.15 856,-56 815.36,-28.31 758.63,-17.65 721.85,-13.55"/>
<polygon fill="midnightblue" stroke="midnightblue" points="721.88,-10.04 711.58,-12.52 721.18,-17 721.88,-10.04"/>
</g>
<!-- Node7 -->
<g id="node7" class="node">
<title>Node7</title>
<g id="a_node7"><a xlink:title=" ">
<polygon fill="none" stroke="#bfbfbf" points="825,-0.5 825,-19.5 873,-19.5 873,-0.5 825,-0.5"/>
<text text-anchor="middle" x="849" y="-7.5" font-family="Helvetica,sans-Serif" font-size="10.00">stdint.h</text>
</a>
</g>
</g>
<!-- Node6&#45;&gt;Node7 -->
<g id="edge7" class="edge">
<title>Node6&#45;&gt;Node7</title>
<path fill="none" stroke="midnightblue" d="M962.64,-235.48C968.05,-226.74 975.86,-212.56 979,-199 993.33,-137.08 1015.86,-107.77 979,-56 957.44,-25.72 914.04,-15.62 883.33,-12.36"/>
<polygon fill="midnightblue" stroke="midnightblue" points="883.31,-8.85 873.05,-11.47 882.71,-15.82 883.31,-8.85"/>
</g>
<!-- Node8 -->
<g id="node8" class="node">
<title>Node8</title>
<g id="a_node8"><a xlink:href="wb__vision__line_8h.html" target="_top" xlink:title=" ">
<polygon fill="none" stroke="black" points="849,-179.5 849,-198.5 937,-198.5 937,-179.5 849,-179.5"/>
<text text-anchor="middle" x="893" y="-186.5" font-family="Helvetica,sans-Serif" font-size="10.00">wb_vision_line.h</text>
</a>
</g>
</g>
<!-- Node6&#45;&gt;Node8 -->
<g id="edge8" class="edge">
<title>Node6&#45;&gt;Node8</title>
<path fill="none" stroke="midnightblue" d="M946.72,-235.32C937.16,-227.26 922.72,-215.08 911.22,-205.37"/>
<polygon fill="midnightblue" stroke="midnightblue" points="913.37,-202.61 903.47,-198.83 908.86,-207.96 913.37,-202.61"/>
</g>
<!-- Node8&#45;&gt;Node5 -->
<g id="edge9" class="edge">
<title>Node8&#45;&gt;Node5</title>
<path fill="none" stroke="midnightblue" d="M890.21,-179.2C881.61,-152.57 854.88,-73.58 835,-56 803.39,-28.05 754.98,-17.45 721.75,-13.43"/>
<polygon fill="midnightblue" stroke="midnightblue" points="721.85,-9.92 711.54,-12.35 721.11,-16.89 721.85,-9.92"/>
</g>
<!-- Node8&#45;&gt;Node7 -->
<g id="edge10" class="edge">
<title>Node8&#45;&gt;Node7</title>
<path fill="none" stroke="midnightblue" d="M892.7,-179.43C891.75,-158.05 887.88,-100.88 873,-56 869.8,-46.34 864.63,-36.27 859.91,-28.12"/>
<polygon fill="midnightblue" stroke="midnightblue" points="862.89,-26.3 854.71,-19.57 856.91,-29.93 862.89,-26.3"/>
</g>
<!-- Node9 -->
<g id="node9" class="node">
<title>Node9</title>
<g id="a_node9"><a xlink:href="wb__pixel__coordinate__line_8h.html" target="_top" xlink:title=" ">
<polygon fill="none" stroke="black" points="463,-112.5 463,-142.5 567,-142.5 567,-112.5 463,-112.5"/>
<text text-anchor="start" x="471" y="-130.5" font-family="Helvetica,sans-Serif" font-size="10.00">wb_pixel_coordinate</text>
<text text-anchor="middle" x="515" y="-119.5" font-family="Helvetica,sans-Serif" font-size="10.00">_line.h</text>
</a>
</g>
</g>
<!-- Node8&#45;&gt;Node9 -->
<g id="edge11" class="edge">
<title>Node8&#45;&gt;Node9</title>
<path fill="none" stroke="midnightblue" d="M848.9,-181.06C781.8,-170.5 653.81,-150.35 577.26,-138.3"/>
<polygon fill="midnightblue" stroke="midnightblue" points="577.7,-134.83 567.27,-136.73 576.61,-141.74 577.7,-134.83"/>
</g>
<!-- Node9&#45;&gt;Node5 -->
<g id="edge12" class="edge">
<title>Node9&#45;&gt;Node5</title>
<path fill="none" stroke="midnightblue" d="M535.85,-112.34C568.42,-90.2 631.07,-47.64 663.84,-25.38"/>
<polygon fill="midnightblue" stroke="midnightblue" points="665.94,-28.18 672.24,-19.67 662,-22.39 665.94,-28.18"/>
</g>
<!-- Node9&#45;&gt;Node7 -->
<g id="edge13" class="edge">
<title>Node9&#45;&gt;Node7</title>
<path fill="none" stroke="midnightblue" d="M547.98,-112.45C583.64,-97.5 642.32,-73.64 694,-56 735.1,-41.97 783.24,-28.44 814.84,-19.94"/>
<polygon fill="midnightblue" stroke="midnightblue" points="816.13,-23.22 824.89,-17.26 814.32,-16.45 816.13,-23.22"/>
</g>
<!-- Node10 -->
<g id="node10" class="node">
<title>Node10</title>
<g id="a_node10"><a xlink:href="wb__pixel__coordinate_8h.html" target="_top" xlink:title=" ">
<polygon fill="none" stroke="black" points="459,-56.5 459,-75.5 571,-75.5 571,-56.5 459,-56.5"/>
<text text-anchor="middle" x="515" y="-63.5" font-family="Helvetica,sans-Serif" font-size="10.00">wb_pixel_coordinate.h</text>
</a>
</g>
</g>
<!-- Node9&#45;&gt;Node10 -->
<g id="edge14" class="edge">
<title>Node9&#45;&gt;Node10</title>
<path fill="none" stroke="midnightblue" d="M515,-112.4C515,-104.47 515,-94.46 515,-85.86"/>
<polygon fill="midnightblue" stroke="midnightblue" points="518.5,-85.66 515,-75.66 511.5,-85.66 518.5,-85.66"/>
</g>
<!-- Node11 -->
<g id="node11" class="node">
<title>Node11</title>
<g id="a_node11"><a xlink:title=" ">
<polygon fill="none" stroke="#bfbfbf" points="383,-0.5 383,-19.5 473,-19.5 473,-0.5 383,-0.5"/>
<text text-anchor="middle" x="428" y="-7.5" font-family="Helvetica,sans-Serif" font-size="10.00">guunits/guunits.h</text>
</a>
</g>
</g>
<!-- Node9&#45;&gt;Node11 -->
<g id="edge19" class="edge">
<title>Node9&#45;&gt;Node11</title>
<path fill="none" stroke="midnightblue" d="M490.45,-112.43C476.85,-103.53 460.6,-90.9 450,-76 440.18,-62.2 434.48,-43.67 431.36,-29.93"/>
<polygon fill="midnightblue" stroke="midnightblue" points="434.71,-28.84 429.3,-19.72 427.84,-30.22 434.71,-28.84"/>
</g>
<!-- Node12 -->
<g id="node12" class="node">
<title>Node12</title>
<g id="a_node12"><a xlink:title=" ">
<polygon fill="none" stroke="#bfbfbf" points="208.5,-0.5 208.5,-19.5 357.5,-19.5 357.5,-0.5 208.5,-0.5"/>
<text text-anchor="middle" x="283" y="-7.5" font-family="Helvetica,sans-Serif" font-size="10.00">gucoordinates/gucoordinates.h</text>
</a>
</g>
</g>
<!-- Node9&#45;&gt;Node12 -->
<g id="edge20" class="edge">
<title>Node9&#45;&gt;Node12</title>
<path fill="none" stroke="midnightblue" d="M486.55,-112.34C441.22,-89.77 353.23,-45.97 309.29,-24.09"/>
<polygon fill="midnightblue" stroke="midnightblue" points="310.63,-20.85 300.12,-19.52 307.51,-27.11 310.63,-20.85"/>
</g>
<!-- Node10&#45;&gt;Node5 -->
<g id="edge15" class="edge">
<title>Node10&#45;&gt;Node5</title>
<path fill="none" stroke="midnightblue" d="M541.94,-56.44C570.74,-47.29 616.6,-32.73 648.6,-22.56"/>
<polygon fill="midnightblue" stroke="midnightblue" points="650,-25.79 658.47,-19.43 647.88,-19.12 650,-25.79"/>
</g>
<!-- Node10&#45;&gt;Node7 -->
<g id="edge16" class="edge">
<title>Node10&#45;&gt;Node7</title>
<path fill="none" stroke="midnightblue" d="M567.92,-56.44C637.02,-45.27 756.01,-26.03 814.5,-16.58"/>
<polygon fill="midnightblue" stroke="midnightblue" points="815.38,-19.98 824.69,-14.93 814.26,-13.07 815.38,-19.98"/>
</g>
<!-- Node10&#45;&gt;Node11 -->
<g id="edge17" class="edge">
<title>Node10&#45;&gt;Node11</title>
<path fill="none" stroke="midnightblue" d="M501.02,-56.32C487.45,-47.9 466.62,-34.97 450.68,-25.07"/>
<polygon fill="midnightblue" stroke="midnightblue" points="452.29,-21.95 441.94,-19.65 448.59,-27.9 452.29,-21.95"/>
</g>
<!-- Node10&#45;&gt;Node12 -->
<g id="edge18" class="edge">
<title>Node10&#45;&gt;Node12</title>
<path fill="none" stroke="midnightblue" d="M478.24,-56.44C437.94,-47.06 373.19,-31.99 329.42,-21.8"/>
<polygon fill="midnightblue" stroke="midnightblue" points="330.12,-18.37 319.59,-19.52 328.54,-25.19 330.12,-18.37"/>
</g>
<!-- Node14 -->
<g id="node14" class="node">
<title>Node14</title>
<g id="a_node14"><a xlink:href="_vision_line_8hpp.html" target="_top" xlink:title=" ">
<polygon fill="none" stroke="black" points="599,-347.5 599,-366.5 679,-366.5 679,-347.5 599,-347.5"/>
<text text-anchor="middle" x="639" y="-354.5" font-family="Helvetica,sans-Serif" font-size="10.00">VisionLine.hpp</text>
</a>
</g>
</g>
<!-- Node13&#45;&gt;Node14 -->
<g id="edge22" class="edge">
<title>Node13&#45;&gt;Node14</title>
<path fill="none" stroke="midnightblue" d="M640.67,-403.08C640.41,-396.01 640.03,-385.86 639.7,-376.99"/>
<polygon fill="midnightblue" stroke="midnightblue" points="643.19,-376.61 639.32,-366.75 636.2,-376.87 643.19,-376.61"/>
</g>
<!-- Node14&#45;&gt;Node2 -->
<g id="edge23" class="edge">
<title>Node14&#45;&gt;Node2</title>
<path fill="none" stroke="midnightblue" d="M598.87,-350.79C529.41,-340.52 383.78,-313.39 275,-255 213.8,-222.15 188.97,-208.55 166,-143 159.36,-124.05 155.7,-101.28 153.8,-85.63"/>
<polygon fill="midnightblue" stroke="midnightblue" points="157.28,-85.22 152.72,-75.66 150.32,-85.98 157.28,-85.22"/>
</g>
<!-- Node14&#45;&gt;Node3 -->
<g id="edge24" class="edge">
<title>Node14&#45;&gt;Node3</title>
<path fill="none" stroke="midnightblue" d="M598.85,-353.37C542.75,-348.87 438.2,-337.47 353,-311 297.95,-293.9 285.09,-285.23 236,-255 166.67,-212.3 141.37,-206.98 91,-143 77.34,-125.65 67.88,-101.95 62.47,-85.65"/>
<polygon fill="midnightblue" stroke="midnightblue" points="65.69,-84.22 59.36,-75.72 59,-86.31 65.69,-84.22"/>
</g>
<!-- Node14&#45;&gt;Node4 -->
<g id="edge25" class="edge">
<title>Node14&#45;&gt;Node4</title>
<path fill="none" stroke="midnightblue" d="M649.03,-347.43C667.95,-330.27 707,-289.56 707,-246 707,-246 707,-246 707,-188 707,-151.14 717.01,-108.96 723.52,-85.4"/>
<polygon fill="midnightblue" stroke="midnightblue" points="726.91,-86.28 726.3,-75.71 720.18,-84.36 726.91,-86.28"/>
</g>
<!-- Node14&#45;&gt;Node5 -->
<g id="edge26" class="edge">
<title>Node14&#45;&gt;Node5</title>
<path fill="none" stroke="midnightblue" d="M679.39,-349.89C733.01,-339.23 821,-311.72 821,-246 821,-246 821,-246 821,-126.5 821,-93.4 819.77,-80.03 797,-56 777.07,-34.97 746.01,-23.53 721.64,-17.46"/>
<polygon fill="midnightblue" stroke="midnightblue" points="722.19,-13.99 711.66,-15.17 720.63,-20.81 722.19,-13.99"/>
</g>
<!-- Node14&#45;&gt;Node8 -->
<g id="edge27" class="edge">
<title>Node14&#45;&gt;Node8</title>
<path fill="none" stroke="midnightblue" d="M679.03,-356.61C722.01,-355.23 790.15,-346.88 835,-311 867.79,-284.77 883.16,-235.49 889.38,-208.62"/>
<polygon fill="midnightblue" stroke="midnightblue" points="892.85,-209.12 891.52,-198.61 886.01,-207.66 892.85,-209.12"/>
</g>
<!-- Node15 -->
<g id="node15" class="node">
<title>Node15</title>
<g id="a_node15"><a xlink:href="_pixel_coordinate_line_8h.html" target="_top" xlink:title=" ">
<polygon fill="none" stroke="black" points="429,-291.5 429,-310.5 539,-310.5 539,-291.5 429,-291.5"/>
<text text-anchor="middle" x="484" y="-298.5" font-family="Helvetica,sans-Serif" font-size="10.00">PixelCoordinateLine.h</text>
</a>
</g>
</g>
<!-- Node14&#45;&gt;Node15 -->
<g id="edge28" class="edge">
<title>Node14&#45;&gt;Node15</title>
<path fill="none" stroke="midnightblue" d="M614.44,-347.44C588.48,-338.4 547.33,-324.06 518.2,-313.92"/>
<polygon fill="midnightblue" stroke="midnightblue" points="519.04,-310.5 508.45,-310.52 516.74,-317.11 519.04,-310.5"/>
</g>
<!-- Node16 -->
<g id="node16" class="node">
<title>Node16</title>
<g id="a_node16"><a xlink:href="_pixel_coordinate_line_8hpp.html" target="_top" xlink:title=" ">
<polygon fill="none" stroke="black" points="284.5,-235.5 284.5,-254.5 405.5,-254.5 405.5,-235.5 284.5,-235.5"/>
<text text-anchor="middle" x="345" y="-242.5" font-family="Helvetica,sans-Serif" font-size="10.00">PixelCoordinateLine.hpp</text>
</a>
</g>
</g>
<!-- Node15&#45;&gt;Node16 -->
<g id="edge29" class="edge">
<title>Node15&#45;&gt;Node16</title>
<path fill="none" stroke="midnightblue" d="M461.98,-291.44C438.9,-282.48 402.44,-268.31 376.36,-258.18"/>
<polygon fill="midnightblue" stroke="midnightblue" points="377.51,-254.88 366.92,-254.52 374.98,-261.4 377.51,-254.88"/>
</g>
<!-- Node16&#45;&gt;Node2 -->
<g id="edge30" class="edge">
<title>Node16&#45;&gt;Node2</title>
<path fill="none" stroke="midnightblue" d="M290.58,-235.47C264.85,-229.09 235.21,-218.03 214,-199 196.05,-182.9 170.49,-117.69 158.58,-85.35"/>
<polygon fill="midnightblue" stroke="midnightblue" points="161.8,-83.97 155.09,-75.77 155.22,-86.36 161.8,-83.97"/>
</g>
<!-- Node16&#45;&gt;Node3 -->
<g id="edge31" class="edge">
<title>Node16&#45;&gt;Node3</title>
<path fill="none" stroke="midnightblue" d="M297.06,-235.48C266.66,-228.67 227.31,-217.19 196,-199 142,-167.62 92.46,-111.3 69.87,-83.48"/>
<polygon fill="midnightblue" stroke="midnightblue" points="72.49,-81.14 63.52,-75.51 67.02,-85.51 72.49,-81.14"/>
</g>
<!-- Node16&#45;&gt;Node4 -->
<g id="edge32" class="edge">
<title>Node16&#45;&gt;Node4</title>
<path fill="none" stroke="midnightblue" d="M405.72,-241.18C481.95,-236.58 607.33,-225.2 645,-199 681.25,-173.78 668.45,-148.71 693,-112 699.6,-102.12 707.83,-91.73 714.75,-83.42"/>
<polygon fill="midnightblue" stroke="midnightblue" points="717.56,-85.51 721.36,-75.62 712.22,-80.98 717.56,-85.51"/>
</g>
<!-- Node16&#45;&gt;Node5 -->
<g id="edge33" class="edge">
<title>Node16&#45;&gt;Node5</title>
<path fill="none" stroke="midnightblue" d="M376.19,-235.47C422.97,-221.62 512.58,-190.85 576,-143 619.93,-109.85 657.34,-55.6 674.67,-28.11"/>
<polygon fill="midnightblue" stroke="midnightblue" points="677.66,-29.93 679.95,-19.58 671.71,-26.25 677.66,-29.93"/>
</g>
<!-- Node16&#45;&gt;Node9 -->
<g id="edge34" class="edge">
<title>Node16&#45;&gt;Node9</title>
<path fill="none" stroke="midnightblue" d="M357.78,-235.32C384.8,-216.96 448.33,-173.8 485.84,-148.31"/>
<polygon fill="midnightblue" stroke="midnightblue" points="488.02,-151.06 494.33,-142.55 484.09,-145.27 488.02,-151.06"/>
</g>
<!-- Node16&#45;&gt;Node11 -->
<g id="edge44" class="edge">
<title>Node16&#45;&gt;Node11</title>
<path fill="none" stroke="midnightblue" d="M328.46,-235.35C315.59,-227.66 298.55,-215.14 290,-199 271.87,-164.77 267.32,-146.46 285,-112 307.83,-67.51 360.38,-38.49 395.02,-23.43"/>
<polygon fill="midnightblue" stroke="midnightblue" points="396.41,-26.64 404.28,-19.55 393.7,-20.19 396.41,-26.64"/>
</g>
<!-- Node16&#45;&gt;Node12 -->
<g id="edge45" class="edge">
<title>Node16&#45;&gt;Node12</title>
<path fill="none" stroke="midnightblue" d="M309.98,-235.41C290.06,-228.73 266.3,-217.42 252,-199 212.43,-148.04 199.11,-114.18 227,-56 233.25,-42.95 245.34,-32.49 256.68,-24.95"/>
<polygon fill="midnightblue" stroke="midnightblue" points="258.81,-27.75 265.5,-19.54 255.15,-21.79 258.81,-27.75"/>
</g>
<!-- Node17 -->
<g id="node17" class="node">
<title>Node17</title>
<g id="a_node17"><a xlink:href="_pixel_coordinate_8h.html" target="_top" xlink:title=" ">
<polygon fill="none" stroke="black" points="299,-179.5 299,-198.5 391,-198.5 391,-179.5 299,-179.5"/>
<text text-anchor="middle" x="345" y="-186.5" font-family="Helvetica,sans-Serif" font-size="10.00">PixelCoordinate.h</text>
</a>
</g>
</g>
<!-- Node16&#45;&gt;Node17 -->
<g id="edge35" class="edge">
<title>Node16&#45;&gt;Node17</title>
<path fill="none" stroke="midnightblue" d="M345,-235.08C345,-228.01 345,-217.86 345,-208.99"/>
<polygon fill="midnightblue" stroke="midnightblue" points="348.5,-208.75 345,-198.75 341.5,-208.75 348.5,-208.75"/>
</g>
<!-- Node18 -->
<g id="node18" class="node">
<title>Node18</title>
<g id="a_node18"><a xlink:href="_pixel_coordinate_8hpp.html" target="_top" xlink:title=" ">
<polygon fill="none" stroke="black" points="294,-118 294,-137 396,-137 396,-118 294,-118"/>
<text text-anchor="middle" x="345" y="-125" font-family="Helvetica,sans-Serif" font-size="10.00">PixelCoordinate.hpp</text>
</a>
</g>
</g>
<!-- Node17&#45;&gt;Node18 -->
<g id="edge36" class="edge">
<title>Node17&#45;&gt;Node18</title>
<path fill="none" stroke="midnightblue" d="M345,-179.48C345,-171.08 345,-157.98 345,-147.16"/>
<polygon fill="midnightblue" stroke="midnightblue" points="348.5,-147.01 345,-137.01 341.5,-147.01 348.5,-147.01"/>
</g>
<!-- Node18&#45;&gt;Node2 -->
<g id="edge37" class="edge">
<title>Node18&#45;&gt;Node2</title>
<path fill="none" stroke="midnightblue" d="M317.35,-117.98C282.29,-107.17 221.93,-88.56 184.64,-77.06"/>
<polygon fill="midnightblue" stroke="midnightblue" points="185.37,-73.62 174.78,-74.02 183.3,-80.31 185.37,-73.62"/>
</g>
<!-- Node18&#45;&gt;Node3 -->
<g id="edge38" class="edge">
<title>Node18&#45;&gt;Node3</title>
<path fill="none" stroke="midnightblue" d="M303.74,-117.98C246.58,-106.17 144.35,-85.05 91.21,-74.07"/>
<polygon fill="midnightblue" stroke="midnightblue" points="91.76,-70.61 81.26,-72.01 90.35,-77.46 91.76,-70.61"/>
</g>
<!-- Node18&#45;&gt;Node4 -->
<g id="edge39" class="edge">
<title>Node18&#45;&gt;Node4</title>
<path fill="none" stroke="midnightblue" d="M396.39,-118.54C475.31,-106.31 624.4,-83.21 692.91,-72.59"/>
<polygon fill="midnightblue" stroke="midnightblue" points="693.46,-76.05 702.8,-71.06 692.39,-69.13 693.46,-76.05"/>
</g>
<!-- Node18&#45;&gt;Node5 -->
<g id="edge40" class="edge">
<title>Node18&#45;&gt;Node5</title>
<path fill="none" stroke="midnightblue" d="M354.93,-117.78C372.68,-102.69 411.62,-71.79 450,-56 516.61,-28.6 600.79,-17.67 648.19,-13.47"/>
<polygon fill="midnightblue" stroke="midnightblue" points="648.61,-16.95 658.29,-12.63 648.03,-9.98 648.61,-16.95"/>
</g>
<!-- Node18&#45;&gt;Node10 -->
<g id="edge41" class="edge">
<title>Node18&#45;&gt;Node10</title>
<path fill="none" stroke="midnightblue" d="M369.36,-117.98C398.64,-107.72 447.97,-90.46 481,-78.9"/>
<polygon fill="midnightblue" stroke="midnightblue" points="482.41,-82.12 490.69,-75.51 480.09,-75.51 482.41,-82.12"/>
</g>
<!-- Node18&#45;&gt;Node11 -->
<g id="edge42" class="edge">
<title>Node18&#45;&gt;Node11</title>
<path fill="none" stroke="midnightblue" d="M348.02,-117.67C353.05,-103.71 364.1,-76.08 379,-56 387.31,-44.81 398.67,-34.17 408.36,-26.05"/>
<polygon fill="midnightblue" stroke="midnightblue" points="410.75,-28.62 416.33,-19.61 406.35,-23.18 410.75,-28.62"/>
</g>
<!-- Node18&#45;&gt;Node12 -->
<g id="edge43" class="edge">
<title>Node18&#45;&gt;Node12</title>
<path fill="none" stroke="midnightblue" d="M336.08,-117.99C326.64,-108.55 311.9,-92.45 303,-76 295.1,-61.4 289.84,-43.23 286.71,-29.81"/>
<polygon fill="midnightblue" stroke="midnightblue" points="290.09,-28.88 284.57,-19.84 283.25,-30.36 290.09,-28.88"/>
</g>
</g>
</svg>
