<?xml version="1.0" encoding="UTF-8" standalone="no"?>
<!DOCTYPE svg PUBLIC "-//W3C//DTD SVG 1.1//EN"
 "http://www.w3.org/Graphics/SVG/1.1/DTD/svg11.dtd">
<!-- Generated by graphviz version 2.49.0 (20210830.1337)
 -->
<!-- Title: typeClassDefs/VisionRobots.h Pages: 1 -->
<svg width="438pt" height="196pt"
 viewBox="0.00 0.00 438.00 196.00" xmlns="http://www.w3.org/2000/svg" xmlns:xlink="http://www.w3.org/1999/xlink">
<g id="graph0" class="graph" transform="scale(1 1) rotate(0) translate(4 192)">
<title>typeClassDefs/VisionRobots.h</title>
<!-- Node1 -->
<g id="node1" class="node">
<title>Node1</title>
<g id="a_node1"><a xlink:title=" ">
<polygon fill="#bfbfbf" stroke="black" points="153.5,-168.5 153.5,-187.5 301.5,-187.5 301.5,-168.5 153.5,-168.5"/>
<text text-anchor="middle" x="227.5" y="-175.5" font-family="Helvetica,sans-Serif" font-size="10.00">typeClassDefs/VisionRobots.h</text>
</a>
</g>
</g>
<!-- Node2 -->
<g id="node2" class="node">
<title>Node2</title>
<g id="a_node2"><a xlink:href="_vision_robots_8hpp.html" target="_top" xlink:title=" ">
<polygon fill="none" stroke="black" points="181.5,-112.5 181.5,-131.5 273.5,-131.5 273.5,-112.5 181.5,-112.5"/>
<text text-anchor="middle" x="227.5" y="-119.5" font-family="Helvetica,sans-Serif" font-size="10.00">VisionRobots.hpp</text>
</a>
</g>
</g>
<!-- Node1&#45;&gt;Node2 -->
<g id="edge1" class="edge">
<title>Node1&#45;&gt;Node2</title>
<path fill="none" stroke="midnightblue" d="M227.5,-168.08C227.5,-161.01 227.5,-150.86 227.5,-141.99"/>
<polygon fill="midnightblue" stroke="midnightblue" points="231,-141.75 227.5,-131.75 224,-141.75 231,-141.75"/>
</g>
<!-- Node3 -->
<g id="node3" class="node">
<title>Node3</title>
<g id="a_node3"><a xlink:title=" ">
<polygon fill="none" stroke="#bfbfbf" points="0,-56.5 0,-75.5 87,-75.5 87,-56.5 0,-56.5"/>
<text text-anchor="middle" x="43.5" y="-63.5" font-family="Helvetica,sans-Serif" font-size="10.00">SimpleShapes.h</text>
</a>
</g>
</g>
<!-- Node2&#45;&gt;Node3 -->
<g id="edge2" class="edge">
<title>Node2&#45;&gt;Node3</title>
<path fill="none" stroke="midnightblue" d="M198.34,-112.44C166.99,-103.24 116.97,-88.56 82.3,-78.39"/>
<polygon fill="midnightblue" stroke="midnightblue" points="83.1,-74.97 72.52,-75.52 81.13,-81.69 83.1,-74.97"/>
</g>
<!-- Node4 -->
<g id="node4" class="node">
<title>Node4</title>
<g id="a_node4"><a xlink:title=" ">
<polygon fill="none" stroke="#bfbfbf" points="105,-56.5 105,-75.5 146,-75.5 146,-56.5 105,-56.5"/>
<text text-anchor="middle" x="125.5" y="-63.5" font-family="Helvetica,sans-Serif" font-size="10.00">string</text>
</a>
</g>
</g>
<!-- Node2&#45;&gt;Node4 -->
<g id="edge3" class="edge">
<title>Node2&#45;&gt;Node4</title>
<path fill="none" stroke="midnightblue" d="M211.11,-112.32C194.83,-103.7 169.63,-90.36 150.78,-80.39"/>
<polygon fill="midnightblue" stroke="midnightblue" points="152.32,-77.24 141.85,-75.65 149.05,-83.43 152.32,-77.24"/>
</g>
<!-- Node5 -->
<g id="node5" class="node">
<title>Node5</title>
<g id="a_node5"><a xlink:title=" ">
<polygon fill="none" stroke="#bfbfbf" points="164.5,-56.5 164.5,-75.5 218.5,-75.5 218.5,-56.5 164.5,-56.5"/>
<text text-anchor="middle" x="191.5" y="-63.5" font-family="Helvetica,sans-Serif" font-size="10.00">iostream</text>
</a>
</g>
</g>
<!-- Node2&#45;&gt;Node5 -->
<g id="edge4" class="edge">
<title>Node2&#45;&gt;Node5</title>
<path fill="none" stroke="midnightblue" d="M221.56,-112.08C216.52,-104.53 209.16,-93.49 202.99,-84.23"/>
<polygon fill="midnightblue" stroke="midnightblue" points="205.79,-82.13 197.33,-75.75 199.97,-86.01 205.79,-82.13"/>
</g>
<!-- Node6 -->
<g id="node6" class="node">
<title>Node6</title>
<g id="a_node6"><a xlink:title=" ">
<polygon fill="none" stroke="#bfbfbf" points="236.5,-56.5 236.5,-75.5 292.5,-75.5 292.5,-56.5 236.5,-56.5"/>
<text text-anchor="middle" x="264.5" y="-63.5" font-family="Helvetica,sans-Serif" font-size="10.00">algorithm</text>
</a>
</g>
</g>
<!-- Node2&#45;&gt;Node6 -->
<g id="edge5" class="edge">
<title>Node2&#45;&gt;Node6</title>
<path fill="none" stroke="midnightblue" d="M233.61,-112.08C238.78,-104.53 246.35,-93.49 252.69,-84.23"/>
<polygon fill="midnightblue" stroke="midnightblue" points="255.74,-85.98 258.5,-75.75 249.96,-82.02 255.74,-85.98"/>
</g>
<!-- Node7 -->
<g id="node7" class="node">
<title>Node7</title>
<g id="a_node7"><a xlink:title=" ">
<polygon fill="none" stroke="#bfbfbf" points="294,-0.5 294,-19.5 347,-19.5 347,-0.5 294,-0.5"/>
<text text-anchor="middle" x="320.5" y="-7.5" font-family="Helvetica,sans-Serif" font-size="10.00">gu_util.h</text>
</a>
</g>
</g>
<!-- Node2&#45;&gt;Node7 -->
<g id="edge6" class="edge">
<title>Node2&#45;&gt;Node7</title>
<path fill="none" stroke="midnightblue" d="M250.38,-112.41C266.86,-105.1 288.41,-93.06 301.5,-76 311.78,-62.6 316.5,-43.78 318.67,-29.84"/>
<polygon fill="midnightblue" stroke="midnightblue" points="322.15,-30.26 319.92,-19.9 315.2,-29.38 322.15,-30.26"/>
</g>
<!-- Node8 -->
<g id="node8" class="node">
<title>Node8</title>
<g id="a_node8"><a xlink:href="wb__robot_8h.html" target="_top" xlink:title=" ">
<polygon fill="none" stroke="black" points="348.5,-56.5 348.5,-75.5 412.5,-75.5 412.5,-56.5 348.5,-56.5"/>
<text text-anchor="middle" x="380.5" y="-63.5" font-family="Helvetica,sans-Serif" font-size="10.00">wb_robot.h</text>
</a>
</g>
</g>
<!-- Node2&#45;&gt;Node8 -->
<g id="edge7" class="edge">
<title>Node2&#45;&gt;Node8</title>
<path fill="none" stroke="midnightblue" d="M251.74,-112.44C277.37,-103.4 317.99,-89.06 346.74,-78.92"/>
<polygon fill="midnightblue" stroke="midnightblue" points="348.11,-82.15 356.37,-75.52 345.78,-75.54 348.11,-82.15"/>
</g>
<!-- Node8&#45;&gt;Node7 -->
<g id="edge9" class="edge">
<title>Node8&#45;&gt;Node7</title>
<path fill="none" stroke="midnightblue" d="M370.86,-56.32C361.99,-48.34 348.63,-36.31 337.89,-26.65"/>
<polygon fill="midnightblue" stroke="midnightblue" points="340.09,-23.92 330.32,-19.83 335.41,-29.13 340.09,-23.92"/>
</g>
<!-- Node9 -->
<g id="node9" class="node">
<title>Node9</title>
<g id="a_node9"><a xlink:title=" ">
<polygon fill="none" stroke="#bfbfbf" points="365,-0.5 365,-19.5 430,-19.5 430,-0.5 365,-0.5"/>
<text text-anchor="middle" x="397.5" y="-7.5" font-family="Helvetica,sans-Serif" font-size="10.00">sys/types.h</text>
</a>
</g>
</g>
<!-- Node8&#45;&gt;Node9 -->
<g id="edge8" class="edge">
<title>Node8&#45;&gt;Node9</title>
<path fill="none" stroke="midnightblue" d="M383.31,-56.08C385.58,-48.85 388.87,-38.41 391.71,-29.4"/>
<polygon fill="midnightblue" stroke="midnightblue" points="395.08,-30.34 394.75,-19.75 388.4,-28.24 395.08,-30.34"/>
</g>
</g>
</svg>
