<?xml version="1.0" encoding="UTF-8" standalone="no"?>
<!DOCTYPE svg PUBLIC "-//W3C//DTD SVG 1.1//EN"
 "http://www.w3.org/Graphics/SVG/1.1/DTD/svg11.dtd">
<!-- Generated by graphviz version 2.49.0 (20210830.1337)
 -->
<!-- Title: typeClassDefs/VisionDetectionBall.h Pages: 1 -->
<svg width="720pt" height="330pt"
 viewBox="0.00 0.00 720.20 330.00" xmlns="http://www.w3.org/2000/svg" xmlns:xlink="http://www.w3.org/1999/xlink">
<g id="graph0" class="graph" transform="scale(1 1) rotate(0) translate(4 326)">
<title>typeClassDefs/VisionDetectionBall.h</title>
<!-- Node1 -->
<g id="node1" class="node">
<title>Node1</title>
<g id="a_node1"><a xlink:title=" ">
<polygon fill="#bfbfbf" stroke="black" points="131.2,-291.5 131.2,-321.5 282.2,-321.5 282.2,-291.5 131.2,-291.5"/>
<text text-anchor="start" x="139.2" y="-309.5" font-family="Helvetica,sans-Serif" font-size="10.00">typeClassDefs/VisionDetection</text>
<text text-anchor="middle" x="206.7" y="-298.5" font-family="Helvetica,sans-Serif" font-size="10.00">Ball.h</text>
</a>
</g>
</g>
<!-- Node2 -->
<g id="node2" class="node">
<title>Node2</title>
<g id="a_node2"><a xlink:href="_vision_detection_ball_8hpp.html" target="_top" xlink:title=" ">
<polygon fill="none" stroke="black" points="147.2,-235.5 147.2,-254.5 266.2,-254.5 266.2,-235.5 147.2,-235.5"/>
<text text-anchor="middle" x="206.7" y="-242.5" font-family="Helvetica,sans-Serif" font-size="10.00">VisionDetectionBall.hpp</text>
</a>
</g>
</g>
<!-- Node1&#45;&gt;Node2 -->
<g id="edge1" class="edge">
<title>Node1&#45;&gt;Node2</title>
<path fill="none" stroke="midnightblue" d="M206.7,-291.4C206.7,-283.47 206.7,-273.46 206.7,-264.86"/>
<polygon fill="midnightblue" stroke="midnightblue" points="210.2,-264.66 206.7,-254.66 203.2,-264.66 210.2,-264.66"/>
</g>
<!-- Node3 -->
<g id="node3" class="node">
<title>Node3</title>
<g id="a_node3"><a xlink:title=" ">
<polygon fill="none" stroke="#bfbfbf" points="72.2,-56.5 72.2,-75.5 117.2,-75.5 117.2,-56.5 72.2,-56.5"/>
<text text-anchor="middle" x="94.7" y="-63.5" font-family="Helvetica,sans-Serif" font-size="10.00">cstdlib</text>
</a>
</g>
</g>
<!-- Node2&#45;&gt;Node3 -->
<g id="edge2" class="edge">
<title>Node2&#45;&gt;Node3</title>
<path fill="none" stroke="midnightblue" d="M199.62,-235.25C192.52,-226.34 181.42,-212.01 172.7,-199 146.01,-159.18 118.27,-110.06 104.17,-84.43"/>
<polygon fill="midnightblue" stroke="midnightblue" points="107.18,-82.64 99.31,-75.54 101.03,-86 107.18,-82.64"/>
</g>
<!-- Node4 -->
<g id="node4" class="node">
<title>Node4</title>
<g id="a_node4"><a xlink:title=" ">
<polygon fill="none" stroke="#bfbfbf" points="135.7,-56.5 135.7,-75.5 183.7,-75.5 183.7,-56.5 135.7,-56.5"/>
<text text-anchor="middle" x="159.7" y="-63.5" font-family="Helvetica,sans-Serif" font-size="10.00">string.h</text>
</a>
</g>
</g>
<!-- Node2&#45;&gt;Node4 -->
<g id="edge3" class="edge">
<title>Node2&#45;&gt;Node4</title>
<path fill="none" stroke="midnightblue" d="M201.05,-235.41C195.53,-226.63 187.31,-212.4 182.7,-199 169.32,-160.09 163.45,-111.92 161.1,-85.87"/>
<polygon fill="midnightblue" stroke="midnightblue" points="164.56,-85.25 160.25,-75.57 157.58,-85.82 164.56,-85.25"/>
</g>
<!-- Node5 -->
<g id="node5" class="node">
<title>Node5</title>
<g id="a_node5"><a xlink:title=" ">
<polygon fill="none" stroke="#bfbfbf" points="315.7,-56.5 315.7,-75.5 367.7,-75.5 367.7,-56.5 315.7,-56.5"/>
<text text-anchor="middle" x="341.7" y="-63.5" font-family="Helvetica,sans-Serif" font-size="10.00">sstream</text>
</a>
</g>
</g>
<!-- Node2&#45;&gt;Node5 -->
<g id="edge4" class="edge">
<title>Node2&#45;&gt;Node5</title>
<path fill="none" stroke="midnightblue" d="M234.47,-235.41C253.19,-228.33 277.22,-216.58 292.7,-199 321.95,-165.79 334.34,-113.53 339.08,-85.78"/>
<polygon fill="midnightblue" stroke="midnightblue" points="342.55,-86.23 340.63,-75.81 335.64,-85.16 342.55,-86.23"/>
</g>
<!-- Node6 -->
<g id="node6" class="node">
<title>Node6</title>
<g id="a_node6"><a xlink:title=" ">
<polygon fill="none" stroke="#bfbfbf" points="219.2,-0.5 219.2,-19.5 272.2,-19.5 272.2,-0.5 219.2,-0.5"/>
<text text-anchor="middle" x="245.7" y="-7.5" font-family="Helvetica,sans-Serif" font-size="10.00">gu_util.h</text>
</a>
</g>
</g>
<!-- Node2&#45;&gt;Node6 -->
<g id="edge5" class="edge">
<title>Node2&#45;&gt;Node6</title>
<path fill="none" stroke="midnightblue" d="M146.92,-236.69C101.4,-229.75 44.15,-217.58 29.7,-199 -9.31,-148.83 -10.4,-105.31 29.7,-56 51.89,-28.71 153.42,-17.41 209.02,-13.21"/>
<polygon fill="midnightblue" stroke="midnightblue" points="209.44,-16.69 219.17,-12.48 208.94,-9.71 209.44,-16.69"/>
</g>
<!-- Node7 -->
<g id="node7" class="node">
<title>Node7</title>
<g id="a_node7"><a xlink:href="wb__vision__detection__ball_8h.html" target="_top" xlink:title=" ">
<polygon fill="none" stroke="black" points="423.2,-112.5 423.2,-142.5 528.2,-142.5 528.2,-112.5 423.2,-112.5"/>
<text text-anchor="start" x="431.2" y="-130.5" font-family="Helvetica,sans-Serif" font-size="10.00">wb_vision_detection</text>
<text text-anchor="middle" x="475.7" y="-119.5" font-family="Helvetica,sans-Serif" font-size="10.00">_ball.h</text>
</a>
</g>
</g>
<!-- Node2&#45;&gt;Node7 -->
<g id="edge6" class="edge">
<title>Node2&#45;&gt;Node7</title>
<path fill="none" stroke="midnightblue" d="M239.55,-235.47C268.56,-227.49 311.7,-214.48 347.7,-199 381.95,-184.27 419.06,-163.22 444.45,-147.96"/>
<polygon fill="midnightblue" stroke="midnightblue" points="446.52,-150.8 453.25,-142.62 442.89,-144.82 446.52,-150.8"/>
</g>
<!-- Node10 -->
<g id="node10" class="node">
<title>Node10</title>
<g id="a_node10"><a xlink:title=" ">
<polygon fill="none" stroke="#bfbfbf" points="354.7,-0.5 354.7,-19.5 444.7,-19.5 444.7,-0.5 354.7,-0.5"/>
<text text-anchor="middle" x="399.7" y="-7.5" font-family="Helvetica,sans-Serif" font-size="10.00">guunits/guunits.h</text>
</a>
</g>
</g>
<!-- Node2&#45;&gt;Node10 -->
<g id="edge25" class="edge">
<title>Node2&#45;&gt;Node10</title>
<path fill="none" stroke="midnightblue" d="M190.99,-235.45C143.01,-208.28 5.02,-121.89 62.7,-56 71.88,-45.51 251.04,-26 344.3,-16.49"/>
<polygon fill="midnightblue" stroke="midnightblue" points="344.82,-19.96 354.41,-15.46 344.11,-12.99 344.82,-19.96"/>
</g>
<!-- Node11 -->
<g id="node11" class="node">
<title>Node11</title>
<g id="a_node11"><a xlink:title=" ">
<polygon fill="none" stroke="#bfbfbf" points="563.2,-0.5 563.2,-19.5 712.2,-19.5 712.2,-0.5 563.2,-0.5"/>
<text text-anchor="middle" x="637.7" y="-7.5" font-family="Helvetica,sans-Serif" font-size="10.00">gucoordinates/gucoordinates.h</text>
</a>
</g>
</g>
<!-- Node2&#45;&gt;Node11 -->
<g id="edge26" class="edge">
<title>Node2&#45;&gt;Node11</title>
<path fill="none" stroke="midnightblue" d="M258.22,-235.48C325.77,-222.74 446.4,-194.53 537.7,-143 578.69,-119.87 593.99,-115.42 619.7,-76 628.8,-62.05 633.34,-43.55 635.58,-29.85"/>
<polygon fill="midnightblue" stroke="midnightblue" points="639.09,-30.06 636.98,-19.68 632.15,-29.11 639.09,-30.06"/>
</g>
<!-- Node12 -->
<g id="node12" class="node">
<title>Node12</title>
<g id="a_node12"><a xlink:href="_pixel_coordinate_8h.html" target="_top" xlink:title=" ">
<polygon fill="none" stroke="black" points="191.7,-179.5 191.7,-198.5 283.7,-198.5 283.7,-179.5 191.7,-179.5"/>
<text text-anchor="middle" x="237.7" y="-186.5" font-family="Helvetica,sans-Serif" font-size="10.00">PixelCoordinate.h</text>
</a>
</g>
</g>
<!-- Node2&#45;&gt;Node12 -->
<g id="edge16" class="edge">
<title>Node2&#45;&gt;Node12</title>
<path fill="none" stroke="midnightblue" d="M211.82,-235.08C216.11,-227.61 222.36,-216.72 227.64,-207.52"/>
<polygon fill="midnightblue" stroke="midnightblue" points="230.73,-209.17 232.68,-198.75 224.66,-205.68 230.73,-209.17"/>
</g>
<!-- Node7&#45;&gt;Node6 -->
<g id="edge7" class="edge">
<title>Node7&#45;&gt;Node6</title>
<path fill="none" stroke="midnightblue" d="M459.15,-112.42C440.23,-96.9 407.85,-72.01 376.7,-56 346.17,-40.3 308.95,-28.12 282,-20.41"/>
<polygon fill="midnightblue" stroke="midnightblue" points="282.78,-17 272.21,-17.68 280.9,-23.74 282.78,-17"/>
</g>
<!-- Node8 -->
<g id="node8" class="node">
<title>Node8</title>
<g id="a_node8"><a xlink:title=" ">
<polygon fill="none" stroke="#bfbfbf" points="494.7,-0.5 494.7,-19.5 542.7,-19.5 542.7,-0.5 494.7,-0.5"/>
<text text-anchor="middle" x="518.7" y="-7.5" font-family="Helvetica,sans-Serif" font-size="10.00">stdint.h</text>
</a>
</g>
</g>
<!-- Node7&#45;&gt;Node8 -->
<g id="edge8" class="edge">
<title>Node7&#45;&gt;Node8</title>
<path fill="none" stroke="midnightblue" d="M528.33,-114.68C548.95,-107.2 570.55,-95.17 582.7,-76 595.67,-55.54 570.3,-36.33 547.77,-24.18"/>
<polygon fill="midnightblue" stroke="midnightblue" points="549.23,-20.99 538.73,-19.57 546.05,-27.23 549.23,-20.99"/>
</g>
<!-- Node9 -->
<g id="node9" class="node">
<title>Node9</title>
<g id="a_node9"><a xlink:href="wb__pixel__coordinate_8h.html" target="_top" xlink:title=" ">
<polygon fill="none" stroke="black" points="461.7,-56.5 461.7,-75.5 573.7,-75.5 573.7,-56.5 461.7,-56.5"/>
<text text-anchor="middle" x="517.7" y="-63.5" font-family="Helvetica,sans-Serif" font-size="10.00">wb_pixel_coordinate.h</text>
</a>
</g>
</g>
<!-- Node7&#45;&gt;Node9 -->
<g id="edge9" class="edge">
<title>Node7&#45;&gt;Node9</title>
<path fill="none" stroke="midnightblue" d="M485.65,-112.4C491.69,-103.84 499.44,-92.87 505.8,-83.86"/>
<polygon fill="midnightblue" stroke="midnightblue" points="508.68,-85.85 511.59,-75.66 502.96,-81.81 508.68,-85.85"/>
</g>
<!-- Node7&#45;&gt;Node10 -->
<g id="edge14" class="edge">
<title>Node7&#45;&gt;Node10</title>
<path fill="none" stroke="midnightblue" d="M466.38,-112.34C452.38,-91.05 425.95,-50.89 410.91,-28.03"/>
<polygon fill="midnightblue" stroke="midnightblue" points="413.83,-26.1 405.4,-19.67 407.98,-29.95 413.83,-26.1"/>
</g>
<!-- Node7&#45;&gt;Node11 -->
<g id="edge15" class="edge">
<title>Node7&#45;&gt;Node11</title>
<path fill="none" stroke="midnightblue" d="M528.31,-112.77C551.44,-104.82 577.81,-92.95 597.7,-76 612.63,-63.27 623.67,-43.53 630.33,-29.13"/>
<polygon fill="midnightblue" stroke="midnightblue" points="633.62,-30.35 634.39,-19.78 627.2,-27.56 633.62,-30.35"/>
</g>
<!-- Node9&#45;&gt;Node6 -->
<g id="edge10" class="edge">
<title>Node9&#45;&gt;Node6</title>
<path fill="none" stroke="midnightblue" d="M474.6,-56.44C421.6,-45.92 332.53,-28.24 282.56,-18.32"/>
<polygon fill="midnightblue" stroke="midnightblue" points="283.01,-14.84 272.52,-16.32 281.65,-21.7 283.01,-14.84"/>
</g>
<!-- Node9&#45;&gt;Node8 -->
<g id="edge11" class="edge">
<title>Node9&#45;&gt;Node8</title>
<path fill="none" stroke="midnightblue" d="M517.87,-56.08C518,-49.01 518.18,-38.86 518.35,-29.99"/>
<polygon fill="midnightblue" stroke="midnightblue" points="521.85,-29.81 518.54,-19.75 514.85,-29.68 521.85,-29.81"/>
</g>
<!-- Node9&#45;&gt;Node10 -->
<g id="edge12" class="edge">
<title>Node9&#45;&gt;Node10</title>
<path fill="none" stroke="midnightblue" d="M499,-56.44C479.76,-47.64 449.55,-33.81 427.5,-23.72"/>
<polygon fill="midnightblue" stroke="midnightblue" points="428.86,-20.5 418.31,-19.52 425.95,-26.86 428.86,-20.5"/>
</g>
<!-- Node9&#45;&gt;Node11 -->
<g id="edge13" class="edge">
<title>Node9&#45;&gt;Node11</title>
<path fill="none" stroke="midnightblue" d="M536.71,-56.44C556.29,-47.64 587.01,-33.81 609.43,-23.72"/>
<polygon fill="midnightblue" stroke="midnightblue" points="611.09,-26.81 618.77,-19.52 608.22,-20.43 611.09,-26.81"/>
</g>
<!-- Node13 -->
<g id="node13" class="node">
<title>Node13</title>
<g id="a_node13"><a xlink:href="_pixel_coordinate_8hpp.html" target="_top" xlink:title=" ">
<polygon fill="none" stroke="black" points="194.7,-118 194.7,-137 296.7,-137 296.7,-118 194.7,-118"/>
<text text-anchor="middle" x="245.7" y="-125" font-family="Helvetica,sans-Serif" font-size="10.00">PixelCoordinate.hpp</text>
</a>
</g>
</g>
<!-- Node12&#45;&gt;Node13 -->
<g id="edge17" class="edge">
<title>Node12&#45;&gt;Node13</title>
<path fill="none" stroke="midnightblue" d="M238.85,-179.48C239.97,-171.08 241.74,-157.98 243.19,-147.16"/>
<polygon fill="midnightblue" stroke="midnightblue" points="246.69,-147.39 244.56,-137.01 239.75,-146.45 246.69,-147.39"/>
</g>
<!-- Node13&#45;&gt;Node3 -->
<g id="edge18" class="edge">
<title>Node13&#45;&gt;Node3</title>
<path fill="none" stroke="midnightblue" d="M224.07,-117.98C198.28,-107.81 154.99,-90.76 125.66,-79.2"/>
<polygon fill="midnightblue" stroke="midnightblue" points="126.88,-75.92 116.29,-75.51 124.32,-82.43 126.88,-75.92"/>
</g>
<!-- Node13&#45;&gt;Node4 -->
<g id="edge19" class="edge">
<title>Node13&#45;&gt;Node4</title>
<path fill="none" stroke="midnightblue" d="M233.38,-117.98C219.58,-108.43 197,-92.81 180.47,-81.37"/>
<polygon fill="midnightblue" stroke="midnightblue" points="182.21,-78.32 172,-75.51 178.23,-84.08 182.21,-78.32"/>
</g>
<!-- Node13&#45;&gt;Node5 -->
<g id="edge20" class="edge">
<title>Node13&#45;&gt;Node5</title>
<path fill="none" stroke="midnightblue" d="M259.45,-117.98C275.07,-108.3 300.76,-92.37 319.28,-80.89"/>
<polygon fill="midnightblue" stroke="midnightblue" points="321.32,-83.75 327.97,-75.51 317.63,-77.8 321.32,-83.75"/>
</g>
<!-- Node13&#45;&gt;Node6 -->
<g id="edge21" class="edge">
<title>Node13&#45;&gt;Node6</title>
<path fill="none" stroke="midnightblue" d="M243.06,-117.84C239.33,-104.56 233.24,-78.36 235.7,-56 236.67,-47.14 238.69,-37.47 240.66,-29.38"/>
<polygon fill="midnightblue" stroke="midnightblue" points="244.09,-30.09 243.22,-19.53 237.32,-28.33 244.09,-30.09"/>
</g>
<!-- Node13&#45;&gt;Node9 -->
<g id="edge22" class="edge">
<title>Node13&#45;&gt;Node9</title>
<path fill="none" stroke="midnightblue" d="M284.67,-117.98C333.25,-107.35 416.28,-89.18 469,-77.65"/>
<polygon fill="midnightblue" stroke="midnightblue" points="469.78,-81.07 478.8,-75.51 468.28,-74.23 469.78,-81.07"/>
</g>
<!-- Node13&#45;&gt;Node10 -->
<g id="edge23" class="edge">
<title>Node13&#45;&gt;Node10</title>
<path fill="none" stroke="midnightblue" d="M246.81,-117.86C249.14,-103.16 255.89,-73.2 273.7,-56 292.94,-37.42 320.36,-26.45 344.71,-20.01"/>
<polygon fill="midnightblue" stroke="midnightblue" points="345.69,-23.37 354.57,-17.59 344.03,-16.57 345.69,-23.37"/>
</g>
<!-- Node13&#45;&gt;Node11 -->
<g id="edge24" class="edge">
<title>Node13&#45;&gt;Node11</title>
<path fill="none" stroke="midnightblue" d="M250.38,-117.78C259.16,-102.39 279.66,-70.64 306.7,-56 317.57,-50.11 460.84,-32.1 555.29,-20.73"/>
<polygon fill="midnightblue" stroke="midnightblue" points="555.9,-24.18 565.42,-19.51 555.07,-17.23 555.9,-24.18"/>
</g>
</g>
</svg>
