<?xml version="1.0" encoding="UTF-8" standalone="no"?>
<!DOCTYPE svg PUBLIC "-//W3C//DTD SVG 1.1//EN"
 "http://www.w3.org/Graphics/SVG/1.1/DTD/svg11.dtd">
<!-- Generated by graphviz version 2.49.0 (20210830.1337)
 -->
<!-- Title: typeClassDefs/VisionGoals.h Pages: 1 -->
<svg width="711pt" height="308pt"
 viewBox="0.00 0.00 710.50 308.00" xmlns="http://www.w3.org/2000/svg" xmlns:xlink="http://www.w3.org/1999/xlink">
<g id="graph0" class="graph" transform="scale(1 1) rotate(0) translate(4 304)">
<title>typeClassDefs/VisionGoals.h</title>
<!-- Node1 -->
<g id="node1" class="node">
<title>Node1</title>
<g id="a_node1"><a xlink:title=" ">
<polygon fill="#bfbfbf" stroke="black" points="159,-280.5 159,-299.5 302,-299.5 302,-280.5 159,-280.5"/>
<text text-anchor="middle" x="230.5" y="-287.5" font-family="Helvetica,sans-Serif" font-size="10.00">typeClassDefs/VisionGoals.h</text>
</a>
</g>
</g>
<!-- Node2 -->
<g id="node2" class="node">
<title>Node2</title>
<g id="a_node2"><a xlink:href="_vision_goals_8hpp.html" target="_top" xlink:title=" ">
<polygon fill="none" stroke="black" points="187,-224.5 187,-243.5 274,-243.5 274,-224.5 187,-224.5"/>
<text text-anchor="middle" x="230.5" y="-231.5" font-family="Helvetica,sans-Serif" font-size="10.00">VisionGoals.hpp</text>
</a>
</g>
</g>
<!-- Node1&#45;&gt;Node2 -->
<g id="edge1" class="edge">
<title>Node1&#45;&gt;Node2</title>
<path fill="none" stroke="midnightblue" d="M230.5,-280.08C230.5,-273.01 230.5,-262.86 230.5,-253.99"/>
<polygon fill="midnightblue" stroke="midnightblue" points="234,-253.75 230.5,-243.75 227,-253.75 234,-253.75"/>
</g>
<!-- Node3 -->
<g id="node3" class="node">
<title>Node3</title>
<g id="a_node3"><a xlink:title=" ">
<polygon fill="none" stroke="#bfbfbf" points="0,-168.5 0,-187.5 87,-187.5 87,-168.5 0,-168.5"/>
<text text-anchor="middle" x="43.5" y="-175.5" font-family="Helvetica,sans-Serif" font-size="10.00">SimpleShapes.h</text>
</a>
</g>
</g>
<!-- Node2&#45;&gt;Node3 -->
<g id="edge2" class="edge">
<title>Node2&#45;&gt;Node3</title>
<path fill="none" stroke="midnightblue" d="M200.87,-224.44C169,-215.24 118.17,-200.56 82.94,-190.39"/>
<polygon fill="midnightblue" stroke="midnightblue" points="83.57,-186.93 72.99,-187.52 81.63,-193.65 83.57,-186.93"/>
</g>
<!-- Node4 -->
<g id="node4" class="node">
<title>Node4</title>
<g id="a_node4"><a xlink:title=" ">
<polygon fill="none" stroke="#bfbfbf" points="105,-168.5 105,-187.5 146,-187.5 146,-168.5 105,-168.5"/>
<text text-anchor="middle" x="125.5" y="-175.5" font-family="Helvetica,sans-Serif" font-size="10.00">string</text>
</a>
</g>
</g>
<!-- Node2&#45;&gt;Node4 -->
<g id="edge3" class="edge">
<title>Node2&#45;&gt;Node4</title>
<path fill="none" stroke="midnightblue" d="M213.63,-224.32C196.79,-215.66 170.69,-202.24 151.26,-192.25"/>
<polygon fill="midnightblue" stroke="midnightblue" points="152.82,-189.12 142.33,-187.65 149.62,-195.34 152.82,-189.12"/>
</g>
<!-- Node5 -->
<g id="node5" class="node">
<title>Node5</title>
<g id="a_node5"><a xlink:title=" ">
<polygon fill="none" stroke="#bfbfbf" points="270.5,-56.5 270.5,-75.5 322.5,-75.5 322.5,-56.5 270.5,-56.5"/>
<text text-anchor="middle" x="296.5" y="-63.5" font-family="Helvetica,sans-Serif" font-size="10.00">sstream</text>
</a>
</g>
</g>
<!-- Node2&#45;&gt;Node5 -->
<g id="edge4" class="edge">
<title>Node2&#45;&gt;Node5</title>
<path fill="none" stroke="midnightblue" d="M274.08,-228.01C299.47,-222.61 329.55,-211.37 345.5,-188 364.54,-160.1 359.09,-142.92 345.5,-112 340.11,-99.73 329.54,-89.34 319.6,-81.65"/>
<polygon fill="midnightblue" stroke="midnightblue" points="321.33,-78.58 311.16,-75.6 317.25,-84.27 321.33,-78.58"/>
</g>
<!-- Node6 -->
<g id="node6" class="node">
<title>Node6</title>
<g id="a_node6"><a xlink:title=" ">
<polygon fill="none" stroke="#bfbfbf" points="202.5,-168.5 202.5,-187.5 258.5,-187.5 258.5,-168.5 202.5,-168.5"/>
<text text-anchor="middle" x="230.5" y="-175.5" font-family="Helvetica,sans-Serif" font-size="10.00">algorithm</text>
</a>
</g>
</g>
<!-- Node2&#45;&gt;Node6 -->
<g id="edge5" class="edge">
<title>Node2&#45;&gt;Node6</title>
<path fill="none" stroke="midnightblue" d="M230.5,-224.08C230.5,-217.01 230.5,-206.86 230.5,-197.99"/>
<polygon fill="midnightblue" stroke="midnightblue" points="234,-197.75 230.5,-187.75 227,-197.75 234,-197.75"/>
</g>
<!-- Node7 -->
<g id="node7" class="node">
<title>Node7</title>
<g id="a_node7"><a xlink:title=" ">
<polygon fill="none" stroke="#bfbfbf" points="270,-0.5 270,-19.5 323,-19.5 323,-0.5 270,-0.5"/>
<text text-anchor="middle" x="296.5" y="-7.5" font-family="Helvetica,sans-Serif" font-size="10.00">gu_util.h</text>
</a>
</g>
</g>
<!-- Node2&#45;&gt;Node7 -->
<g id="edge6" class="edge">
<title>Node2&#45;&gt;Node7</title>
<path fill="none" stroke="midnightblue" d="M220.06,-224.24C211.08,-215.97 198.75,-202.66 193.5,-188 190.5,-179.63 191.4,-176.64 193.5,-168 206.77,-113.54 218.4,-101.24 251.5,-56 259.39,-45.21 269.87,-34.57 278.73,-26.35"/>
<polygon fill="midnightblue" stroke="midnightblue" points="281.21,-28.83 286.3,-19.54 276.52,-23.63 281.21,-28.83"/>
</g>
<!-- Node8 -->
<g id="node8" class="node">
<title>Node8</title>
<g id="a_node8"><a xlink:href="wb__goal_8h.html" target="_top" xlink:title=" ">
<polygon fill="none" stroke="black" points="276.5,-168.5 276.5,-187.5 336.5,-187.5 336.5,-168.5 276.5,-168.5"/>
<text text-anchor="middle" x="306.5" y="-175.5" font-family="Helvetica,sans-Serif" font-size="10.00">wb_goal.h</text>
</a>
</g>
</g>
<!-- Node2&#45;&gt;Node8 -->
<g id="edge7" class="edge">
<title>Node2&#45;&gt;Node8</title>
<path fill="none" stroke="midnightblue" d="M242.71,-224.32C254.28,-216.11 271.88,-203.6 285.66,-193.81"/>
<polygon fill="midnightblue" stroke="midnightblue" points="287.94,-196.48 294.07,-187.83 283.89,-190.77 287.94,-196.48"/>
</g>
<!-- Node10 -->
<g id="node10" class="node">
<title>Node10</title>
<g id="a_node10"><a xlink:href="_vision_control_status_8h.html" target="_top" xlink:title=" ">
<polygon fill="none" stroke="black" points="395.5,-168.5 395.5,-187.5 505.5,-187.5 505.5,-168.5 395.5,-168.5"/>
<text text-anchor="middle" x="450.5" y="-175.5" font-family="Helvetica,sans-Serif" font-size="10.00">VisionControlStatus.h</text>
</a>
</g>
</g>
<!-- Node2&#45;&gt;Node10 -->
<g id="edge10" class="edge">
<title>Node2&#45;&gt;Node10</title>
<path fill="none" stroke="midnightblue" d="M265.36,-224.44C303.42,-215.1 364.46,-200.12 405.96,-189.93"/>
<polygon fill="midnightblue" stroke="midnightblue" points="406.93,-193.3 415.8,-187.52 405.26,-186.5 406.93,-193.3"/>
</g>
<!-- Node8&#45;&gt;Node7 -->
<g id="edge9" class="edge">
<title>Node8&#45;&gt;Node7</title>
<path fill="none" stroke="midnightblue" d="M293.44,-168.44C282.59,-160.47 267.93,-147.52 261.5,-132 248.57,-100.79 250.54,-87.95 261.5,-56 265.22,-45.16 272.73,-34.92 279.85,-26.96"/>
<polygon fill="midnightblue" stroke="midnightblue" points="282.55,-29.19 286.94,-19.55 277.5,-24.35 282.55,-29.19"/>
</g>
<!-- Node9 -->
<g id="node9" class="node">
<title>Node9</title>
<g id="a_node9"><a xlink:title=" ">
<polygon fill="none" stroke="#bfbfbf" points="271,-112.5 271,-131.5 336,-131.5 336,-112.5 271,-112.5"/>
<text text-anchor="middle" x="303.5" y="-119.5" font-family="Helvetica,sans-Serif" font-size="10.00">sys/types.h</text>
</a>
</g>
</g>
<!-- Node8&#45;&gt;Node9 -->
<g id="edge8" class="edge">
<title>Node8&#45;&gt;Node9</title>
<path fill="none" stroke="midnightblue" d="M306,-168.08C305.61,-161.01 305.05,-150.86 304.55,-141.99"/>
<polygon fill="midnightblue" stroke="midnightblue" points="308.04,-141.54 303.99,-131.75 301.05,-141.93 308.04,-141.54"/>
</g>
<!-- Node11 -->
<g id="node11" class="node">
<title>Node11</title>
<g id="a_node11"><a xlink:href="_vision_control_status_8hpp.html" target="_top" xlink:title=" ">
<polygon fill="none" stroke="black" points="393,-112.5 393,-131.5 514,-131.5 514,-112.5 393,-112.5"/>
<text text-anchor="middle" x="453.5" y="-119.5" font-family="Helvetica,sans-Serif" font-size="10.00">VisionControlStatus.hpp</text>
</a>
</g>
</g>
<!-- Node10&#45;&gt;Node11 -->
<g id="edge11" class="edge">
<title>Node10&#45;&gt;Node11</title>
<path fill="none" stroke="midnightblue" d="M451,-168.08C451.39,-161.01 451.95,-150.86 452.45,-141.99"/>
<polygon fill="midnightblue" stroke="midnightblue" points="455.95,-141.93 453.01,-131.75 448.96,-141.54 455.95,-141.93"/>
</g>
<!-- Node11&#45;&gt;Node5 -->
<g id="edge14" class="edge">
<title>Node11&#45;&gt;Node5</title>
<path fill="none" stroke="midnightblue" d="M428.62,-112.44C402.21,-103.36 360.28,-88.94 330.76,-78.78"/>
<polygon fill="midnightblue" stroke="midnightblue" points="331.86,-75.46 321.26,-75.52 329.58,-82.08 331.86,-75.46"/>
</g>
<!-- Node11&#45;&gt;Node7 -->
<g id="edge15" class="edge">
<title>Node11&#45;&gt;Node7</title>
<path fill="none" stroke="midnightblue" d="M434.41,-112.37C416.88,-104.08 390.52,-90.68 369.5,-76 348.33,-61.22 326.54,-41.05 312.35,-27.12"/>
<polygon fill="midnightblue" stroke="midnightblue" points="314.48,-24.3 304.93,-19.72 309.54,-29.26 314.48,-24.3"/>
</g>
<!-- Node12 -->
<g id="node12" class="node">
<title>Node12</title>
<g id="a_node12"><a xlink:title=" ">
<polygon fill="none" stroke="#bfbfbf" points="591,-56.5 591,-75.5 636,-75.5 636,-56.5 591,-56.5"/>
<text text-anchor="middle" x="613.5" y="-63.5" font-family="Helvetica,sans-Serif" font-size="10.00">cstdlib</text>
</a>
</g>
</g>
<!-- Node11&#45;&gt;Node12 -->
<g id="edge12" class="edge">
<title>Node11&#45;&gt;Node12</title>
<path fill="none" stroke="midnightblue" d="M478.85,-112.44C506.56,-103.09 551.02,-88.09 581.21,-77.9"/>
<polygon fill="midnightblue" stroke="midnightblue" points="582.5,-81.16 590.85,-74.64 580.26,-74.52 582.5,-81.16"/>
</g>
<!-- Node13 -->
<g id="node13" class="node">
<title>Node13</title>
<g id="a_node13"><a xlink:title=" ">
<polygon fill="none" stroke="#bfbfbf" points="654.5,-56.5 654.5,-75.5 702.5,-75.5 702.5,-56.5 654.5,-56.5"/>
<text text-anchor="middle" x="678.5" y="-63.5" font-family="Helvetica,sans-Serif" font-size="10.00">string.h</text>
</a>
</g>
</g>
<!-- Node11&#45;&gt;Node13 -->
<g id="edge13" class="edge">
<title>Node11&#45;&gt;Node13</title>
<path fill="none" stroke="midnightblue" d="M491.85,-112.44C528.63,-104.13 585.95,-90.94 644.58,-76.17"/>
<polygon fill="midnightblue" stroke="midnightblue" points="645.54,-79.53 654.38,-73.69 643.82,-72.75 645.54,-79.53"/>
</g>
<!-- Node14 -->
<g id="node14" class="node">
<title>Node14</title>
<g id="a_node14"><a xlink:href="wb__vision__control__status_8h.html" target="_top" xlink:title=" ">
<polygon fill="none" stroke="black" points="438.5,-56.5 438.5,-75.5 572.5,-75.5 572.5,-56.5 438.5,-56.5"/>
<text text-anchor="middle" x="505.5" y="-63.5" font-family="Helvetica,sans-Serif" font-size="10.00">wb_vision_control_status.h</text>
</a>
</g>
</g>
<!-- Node11&#45;&gt;Node14 -->
<g id="edge16" class="edge">
<title>Node11&#45;&gt;Node14</title>
<path fill="none" stroke="midnightblue" d="M462.09,-112.08C469.66,-104.22 480.88,-92.57 490.01,-83.08"/>
<polygon fill="midnightblue" stroke="midnightblue" points="492.66,-85.38 497.07,-75.75 487.62,-80.53 492.66,-85.38"/>
</g>
<!-- Node17 -->
<g id="node17" class="node">
<title>Node17</title>
<g id="a_node17"><a xlink:title=" ">
<polygon fill="none" stroke="#bfbfbf" points="378.5,-56.5 378.5,-75.5 420.5,-75.5 420.5,-56.5 378.5,-56.5"/>
<text text-anchor="middle" x="399.5" y="-63.5" font-family="Helvetica,sans-Serif" font-size="10.00">float.h</text>
</a>
</g>
</g>
<!-- Node11&#45;&gt;Node17 -->
<g id="edge20" class="edge">
<title>Node11&#45;&gt;Node17</title>
<path fill="none" stroke="midnightblue" d="M444.58,-112.08C436.72,-104.22 425.07,-92.57 415.58,-83.08"/>
<polygon fill="midnightblue" stroke="midnightblue" points="417.8,-80.35 408.25,-75.75 412.85,-85.3 417.8,-80.35"/>
</g>
<!-- Node14&#45;&gt;Node7 -->
<g id="edge17" class="edge">
<title>Node14&#45;&gt;Node7</title>
<path fill="none" stroke="midnightblue" d="M472.38,-56.44C434.37,-46.62 372.22,-30.56 332.88,-20.4"/>
<polygon fill="midnightblue" stroke="midnightblue" points="333.72,-17 323.16,-17.89 331.97,-23.78 333.72,-17"/>
</g>
<!-- Node15 -->
<g id="node15" class="node">
<title>Node15</title>
<g id="a_node15"><a xlink:title=" ">
<polygon fill="none" stroke="#bfbfbf" points="517.5,-0.5 517.5,-19.5 565.5,-19.5 565.5,-0.5 517.5,-0.5"/>
<text text-anchor="middle" x="541.5" y="-7.5" font-family="Helvetica,sans-Serif" font-size="10.00">stdint.h</text>
</a>
</g>
</g>
<!-- Node14&#45;&gt;Node15 -->
<g id="edge18" class="edge">
<title>Node14&#45;&gt;Node15</title>
<path fill="none" stroke="midnightblue" d="M511.44,-56.08C516.48,-48.53 523.84,-37.49 530.01,-28.23"/>
<polygon fill="midnightblue" stroke="midnightblue" points="533.03,-30.01 535.67,-19.75 527.21,-26.13 533.03,-30.01"/>
</g>
<!-- Node16 -->
<g id="node16" class="node">
<title>Node16</title>
<g id="a_node16"><a xlink:title=" ">
<polygon fill="none" stroke="#bfbfbf" points="438,-0.5 438,-19.5 499,-19.5 499,-0.5 438,-0.5"/>
<text text-anchor="middle" x="468.5" y="-7.5" font-family="Helvetica,sans-Serif" font-size="10.00">sys/time.h</text>
</a>
</g>
</g>
<!-- Node14&#45;&gt;Node16 -->
<g id="edge19" class="edge">
<title>Node14&#45;&gt;Node16</title>
<path fill="none" stroke="midnightblue" d="M499.39,-56.08C494.22,-48.53 486.65,-37.49 480.31,-28.23"/>
<polygon fill="midnightblue" stroke="midnightblue" points="483.04,-26.02 474.5,-19.75 477.26,-29.98 483.04,-26.02"/>
</g>
</g>
</svg>
