<?xml version="1.0" encoding="UTF-8" standalone="no"?>
<!DOCTYPE svg PUBLIC "-//W3C//DTD SVG 1.1//EN"
 "http://www.w3.org/Graphics/SVG/1.1/DTD/svg11.dtd">
<!-- Generated by graphviz version 2.49.0 (20210830.1337)
 -->
<!-- Title: typeClassDefs/VisionDetectionFeatures.h Pages: 1 -->
<svg width="852pt" height="576pt"
 viewBox="0.00 0.00 851.61 576.00" xmlns="http://www.w3.org/2000/svg" xmlns:xlink="http://www.w3.org/1999/xlink">
<g id="graph0" class="graph" transform="scale(1 1) rotate(0) translate(4 572)">
<title>typeClassDefs/VisionDetectionFeatures.h</title>
<!-- Node1 -->
<g id="node1" class="node">
<title>Node1</title>
<g id="a_node1"><a xlink:title=" ">
<polygon fill="#bfbfbf" stroke="black" points="132.5,-537.5 132.5,-567.5 283.5,-567.5 283.5,-537.5 132.5,-537.5"/>
<text text-anchor="start" x="140.5" y="-555.5" font-family="Helvetica,sans-Serif" font-size="10.00">typeClassDefs/VisionDetection</text>
<text text-anchor="middle" x="208" y="-544.5" font-family="Helvetica,sans-Serif" font-size="10.00">Features.h</text>
</a>
</g>
</g>
<!-- Node2 -->
<g id="node2" class="node">
<title>Node2</title>
<g id="a_node2"><a xlink:href="_vision_detection_features_8hpp.html" target="_top" xlink:title=" ">
<polygon fill="none" stroke="black" points="137.5,-481.5 137.5,-500.5 278.5,-500.5 278.5,-481.5 137.5,-481.5"/>
<text text-anchor="middle" x="208" y="-488.5" font-family="Helvetica,sans-Serif" font-size="10.00">VisionDetectionFeatures.hpp</text>
</a>
</g>
</g>
<!-- Node1&#45;&gt;Node2 -->
<g id="edge1" class="edge">
<title>Node1&#45;&gt;Node2</title>
<path fill="none" stroke="midnightblue" d="M208,-537.4C208,-529.47 208,-519.46 208,-510.86"/>
<polygon fill="midnightblue" stroke="midnightblue" points="211.5,-510.66 208,-500.66 204.5,-510.66 211.5,-510.66"/>
</g>
<!-- Node3 -->
<g id="node3" class="node">
<title>Node3</title>
<g id="a_node3"><a xlink:title=" ">
<polygon fill="none" stroke="#bfbfbf" points="179.5,-56.5 179.5,-75.5 224.5,-75.5 224.5,-56.5 179.5,-56.5"/>
<text text-anchor="middle" x="202" y="-63.5" font-family="Helvetica,sans-Serif" font-size="10.00">cstdlib</text>
</a>
</g>
</g>
<!-- Node2&#45;&gt;Node3 -->
<g id="edge2" class="edge">
<title>Node2&#45;&gt;Node3</title>
<path fill="none" stroke="midnightblue" d="M181.61,-481.47C143.08,-467.16 76,-434.44 76,-380 76,-380 76,-380 76,-260.5 76,-182.93 147.98,-112.08 183.13,-82.1"/>
<polygon fill="midnightblue" stroke="midnightblue" points="185.37,-84.79 190.82,-75.7 180.89,-79.41 185.37,-84.79"/>
</g>
<!-- Node4 -->
<g id="node4" class="node">
<title>Node4</title>
<g id="a_node4"><a xlink:title=" ">
<polygon fill="none" stroke="#bfbfbf" points="71,-56.5 71,-75.5 119,-75.5 119,-56.5 71,-56.5"/>
<text text-anchor="middle" x="95" y="-63.5" font-family="Helvetica,sans-Serif" font-size="10.00">string.h</text>
</a>
</g>
</g>
<!-- Node2&#45;&gt;Node4 -->
<g id="edge3" class="edge">
<title>Node2&#45;&gt;Node4</title>
<path fill="none" stroke="midnightblue" d="M163.78,-481.44C113.41,-468.83 38,-439.94 38,-380 38,-380 38,-380 38,-193.5 38,-150.97 65.11,-106.93 81.94,-83.7"/>
<polygon fill="midnightblue" stroke="midnightblue" points="84.82,-85.7 88.01,-75.6 79.21,-81.5 84.82,-85.7"/>
</g>
<!-- Node5 -->
<g id="node5" class="node">
<title>Node5</title>
<g id="a_node5"><a xlink:title=" ">
<polygon fill="none" stroke="#bfbfbf" points="419,-56.5 419,-75.5 471,-75.5 471,-56.5 419,-56.5"/>
<text text-anchor="middle" x="445" y="-63.5" font-family="Helvetica,sans-Serif" font-size="10.00">sstream</text>
</a>
</g>
</g>
<!-- Node2&#45;&gt;Node5 -->
<g id="edge4" class="edge">
<title>Node2&#45;&gt;Node5</title>
<path fill="none" stroke="midnightblue" d="M238.96,-481.48C296.93,-463.88 421.87,-417.88 487,-333 546.79,-255.07 531.62,-198.46 485,-112 479.2,-101.24 470.34,-90.91 462.44,-82.87"/>
<polygon fill="midnightblue" stroke="midnightblue" points="464.62,-80.11 455,-75.66 459.75,-85.14 464.62,-80.11"/>
</g>
<!-- Node6 -->
<g id="node6" class="node">
<title>Node6</title>
<g id="a_node6"><a xlink:title=" ">
<polygon fill="none" stroke="#bfbfbf" points="521.5,-0.5 521.5,-19.5 574.5,-19.5 574.5,-0.5 521.5,-0.5"/>
<text text-anchor="middle" x="548" y="-7.5" font-family="Helvetica,sans-Serif" font-size="10.00">gu_util.h</text>
</a>
</g>
</g>
<!-- Node2&#45;&gt;Node6 -->
<g id="edge5" class="edge">
<title>Node2&#45;&gt;Node6</title>
<path fill="none" stroke="midnightblue" d="M137.29,-481.88C76.99,-470.55 0,-443.62 0,-380 0,-380 0,-380 0,-126.5 0,-84.77 24.82,-74.93 62,-56 140.51,-16.03 412.09,-11.3 511.32,-10.94"/>
<polygon fill="midnightblue" stroke="midnightblue" points="511.48,-14.44 521.47,-10.91 511.46,-7.44 511.48,-14.44"/>
</g>
<!-- Node7 -->
<g id="node7" class="node">
<title>Node7</title>
<g id="a_node7"><a xlink:href="wb__vision__detection__features_8h.html" target="_top" xlink:title=" ">
<polygon fill="none" stroke="black" points="688.5,-246.5 688.5,-276.5 793.5,-276.5 793.5,-246.5 688.5,-246.5"/>
<text text-anchor="start" x="696.5" y="-264.5" font-family="Helvetica,sans-Serif" font-size="10.00">wb_vision_detection</text>
<text text-anchor="middle" x="741" y="-253.5" font-family="Helvetica,sans-Serif" font-size="10.00">_features.h</text>
</a>
</g>
</g>
<!-- Node2&#45;&gt;Node7 -->
<g id="edge6" class="edge">
<title>Node2&#45;&gt;Node7</title>
<path fill="none" stroke="midnightblue" d="M278.65,-487.51C372.09,-483.19 530.92,-472.04 582,-445 652.48,-407.68 705.85,-325.39 728.74,-285.32"/>
<polygon fill="midnightblue" stroke="midnightblue" points="731.82,-286.98 733.65,-276.54 725.71,-283.56 731.82,-286.98"/>
</g>
<!-- Node12 -->
<g id="node12" class="node">
<title>Node12</title>
<g id="a_node12"><a xlink:href="_vision_detection_feature_array_8h.html" target="_top" xlink:title=" ">
<polygon fill="none" stroke="black" points="168,-425.5 168,-444.5 316,-444.5 316,-425.5 168,-425.5"/>
<text text-anchor="middle" x="242" y="-432.5" font-family="Helvetica,sans-Serif" font-size="10.00">VisionDetectionFeatureArray.h</text>
</a>
</g>
</g>
<!-- Node2&#45;&gt;Node12 -->
<g id="edge18" class="edge">
<title>Node2&#45;&gt;Node12</title>
<path fill="none" stroke="midnightblue" d="M213.61,-481.08C218.37,-473.53 225.32,-462.49 231.15,-453.23"/>
<polygon fill="midnightblue" stroke="midnightblue" points="234.12,-455.08 236.49,-444.75 228.2,-451.35 234.12,-455.08"/>
</g>
<!-- Node7&#45;&gt;Node6 -->
<g id="edge7" class="edge">
<title>Node7&#45;&gt;Node6</title>
<path fill="none" stroke="midnightblue" d="M747.88,-246.41C764.46,-210.24 801.94,-112.94 756,-56 734.9,-29.85 638.8,-18.14 584.91,-13.56"/>
<polygon fill="midnightblue" stroke="midnightblue" points="584.98,-10.05 574.73,-12.73 584.42,-17.03 584.98,-10.05"/>
</g>
<!-- Node8 -->
<g id="node8" class="node">
<title>Node8</title>
<g id="a_node8"><a xlink:title=" ">
<polygon fill="none" stroke="#bfbfbf" points="789,-0.5 789,-19.5 837,-19.5 837,-0.5 789,-0.5"/>
<text text-anchor="middle" x="813" y="-7.5" font-family="Helvetica,sans-Serif" font-size="10.00">stdint.h</text>
</a>
</g>
</g>
<!-- Node7&#45;&gt;Node8 -->
<g id="edge8" class="edge">
<title>Node7&#45;&gt;Node8</title>
<path fill="none" stroke="midnightblue" d="M783.33,-246.3C800.02,-238.39 817.45,-226.68 827,-210 860.67,-151.18 834.69,-66.01 820.57,-29.14"/>
<polygon fill="midnightblue" stroke="midnightblue" points="823.77,-27.7 816.81,-19.71 817.26,-30.29 823.77,-27.7"/>
</g>
<!-- Node9 -->
<g id="node9" class="node">
<title>Node9</title>
<g id="a_node9"><a xlink:href="wb__vision__detection__feature__array_8h.html" target="_top" xlink:title=" ">
<polygon fill="none" stroke="black" points="627.5,-179.5 627.5,-209.5 732.5,-209.5 732.5,-179.5 627.5,-179.5"/>
<text text-anchor="start" x="635.5" y="-197.5" font-family="Helvetica,sans-Serif" font-size="10.00">wb_vision_detection</text>
<text text-anchor="middle" x="680" y="-186.5" font-family="Helvetica,sans-Serif" font-size="10.00">_feature_array.h</text>
</a>
</g>
</g>
<!-- Node7&#45;&gt;Node9 -->
<g id="edge9" class="edge">
<title>Node7&#45;&gt;Node9</title>
<path fill="none" stroke="midnightblue" d="M727.76,-246.4C719.69,-237.79 709.21,-226.63 700.13,-216.94"/>
<polygon fill="midnightblue" stroke="midnightblue" points="702.61,-214.47 693.21,-209.58 697.5,-219.26 702.61,-214.47"/>
</g>
<!-- Node9&#45;&gt;Node6 -->
<g id="edge10" class="edge">
<title>Node9&#45;&gt;Node6</title>
<path fill="none" stroke="midnightblue" d="M659.02,-179.31C646.36,-170.03 630.5,-157.04 619,-143 589.29,-106.73 566.23,-56.13 555.18,-29.34"/>
<polygon fill="midnightblue" stroke="midnightblue" points="558.29,-27.69 551.31,-19.72 551.79,-30.3 558.29,-27.69"/>
</g>
<!-- Node9&#45;&gt;Node8 -->
<g id="edge11" class="edge">
<title>Node9&#45;&gt;Node8</title>
<path fill="none" stroke="midnightblue" d="M700.93,-179.5C713.81,-170.18 730.08,-157.1 742,-143 772.4,-107.03 795.3,-55.95 806.11,-29.1"/>
<polygon fill="midnightblue" stroke="midnightblue" points="809.37,-30.37 809.77,-19.78 802.86,-27.81 809.37,-30.37"/>
</g>
<!-- Node10 -->
<g id="node10" class="node">
<title>Node10</title>
<g id="a_node10"><a xlink:href="wb__vision__detection__feature_8h.html" target="_top" xlink:title=" ">
<polygon fill="none" stroke="black" points="627.5,-112.5 627.5,-142.5 732.5,-142.5 732.5,-112.5 627.5,-112.5"/>
<text text-anchor="start" x="635.5" y="-130.5" font-family="Helvetica,sans-Serif" font-size="10.00">wb_vision_detection</text>
<text text-anchor="middle" x="680" y="-119.5" font-family="Helvetica,sans-Serif" font-size="10.00">_feature.h</text>
</a>
</g>
</g>
<!-- Node9&#45;&gt;Node10 -->
<g id="edge12" class="edge">
<title>Node9&#45;&gt;Node10</title>
<path fill="none" stroke="midnightblue" d="M680,-179.4C680,-171.64 680,-161.81 680,-152.86"/>
<polygon fill="midnightblue" stroke="midnightblue" points="683.5,-152.58 680,-142.58 676.5,-152.58 683.5,-152.58"/>
</g>
<!-- Node10&#45;&gt;Node6 -->
<g id="edge13" class="edge">
<title>Node10&#45;&gt;Node6</title>
<path fill="none" stroke="midnightblue" d="M663.81,-112.34C638.95,-90.58 591.53,-49.09 565.76,-26.54"/>
<polygon fill="midnightblue" stroke="midnightblue" points="567.74,-23.62 557.91,-19.67 563.13,-28.89 567.74,-23.62"/>
</g>
<!-- Node10&#45;&gt;Node8 -->
<g id="edge14" class="edge">
<title>Node10&#45;&gt;Node8</title>
<path fill="none" stroke="midnightblue" d="M704.79,-112.34C720.25,-102.96 740.14,-89.87 756,-76 772.87,-61.25 789.45,-41.59 800.34,-27.77"/>
<polygon fill="midnightblue" stroke="midnightblue" points="803.27,-29.7 806.62,-19.65 797.74,-25.42 803.27,-29.7"/>
</g>
<!-- Node11 -->
<g id="node11" class="node">
<title>Node11</title>
<g id="a_node11"><a xlink:href="wb__polar__coordinate_8h.html" target="_top" xlink:title=" ">
<polygon fill="none" stroke="black" points="633.5,-56.5 633.5,-75.5 746.5,-75.5 746.5,-56.5 633.5,-56.5"/>
<text text-anchor="middle" x="690" y="-63.5" font-family="Helvetica,sans-Serif" font-size="10.00">wb_polar_coordinate.h</text>
</a>
</g>
</g>
<!-- Node10&#45;&gt;Node11 -->
<g id="edge15" class="edge">
<title>Node10&#45;&gt;Node11</title>
<path fill="none" stroke="midnightblue" d="M682.37,-112.4C683.72,-104.38 685.42,-94.23 686.88,-85.57"/>
<polygon fill="midnightblue" stroke="midnightblue" points="690.34,-86.1 688.54,-75.66 683.44,-84.94 690.34,-86.1"/>
</g>
<!-- Node11&#45;&gt;Node6 -->
<g id="edge16" class="edge">
<title>Node11&#45;&gt;Node6</title>
<path fill="none" stroke="midnightblue" d="M667.5,-56.44C643.92,-47.48 606.68,-33.31 580.04,-23.18"/>
<polygon fill="midnightblue" stroke="midnightblue" points="580.99,-19.8 570.4,-19.52 578.5,-26.34 580.99,-19.8"/>
</g>
<!-- Node11&#45;&gt;Node8 -->
<g id="edge17" class="edge">
<title>Node11&#45;&gt;Node8</title>
<path fill="none" stroke="midnightblue" d="M709.49,-56.44C729.64,-47.6 761.32,-33.69 784.33,-23.59"/>
<polygon fill="midnightblue" stroke="midnightblue" points="785.85,-26.74 793.6,-19.52 783.04,-20.33 785.85,-26.74"/>
</g>
<!-- Node13 -->
<g id="node13" class="node">
<title>Node13</title>
<g id="a_node13"><a xlink:href="_vision_detection_feature_array_8hpp.html" target="_top" xlink:title=" ">
<polygon fill="none" stroke="black" points="229,-369.5 229,-388.5 387,-388.5 387,-369.5 229,-369.5"/>
<text text-anchor="middle" x="308" y="-376.5" font-family="Helvetica,sans-Serif" font-size="10.00">VisionDetectionFeatureArray.hpp</text>
</a>
</g>
</g>
<!-- Node12&#45;&gt;Node13 -->
<g id="edge19" class="edge">
<title>Node12&#45;&gt;Node13</title>
<path fill="none" stroke="midnightblue" d="M252.6,-425.32C262.46,-417.26 277.35,-405.08 289.22,-395.37"/>
<polygon fill="midnightblue" stroke="midnightblue" points="291.68,-397.88 297.2,-388.83 287.25,-392.46 291.68,-397.88"/>
</g>
<!-- Node13&#45;&gt;Node3 -->
<g id="edge20" class="edge">
<title>Node13&#45;&gt;Node3</title>
<path fill="none" stroke="midnightblue" d="M284.35,-369.45C268.06,-362.28 247.38,-350.39 236,-333 184.08,-253.62 193.26,-132.11 199.18,-85.81"/>
<polygon fill="midnightblue" stroke="midnightblue" points="202.67,-86.11 200.57,-75.73 195.74,-85.15 202.67,-86.11"/>
</g>
<!-- Node13&#45;&gt;Node4 -->
<g id="edge21" class="edge">
<title>Node13&#45;&gt;Node4</title>
<path fill="none" stroke="midnightblue" d="M281.61,-369.49C262.74,-362.28 237.81,-350.33 221,-333 148.04,-257.77 111.11,-132.36 99.31,-85.45"/>
<polygon fill="midnightblue" stroke="midnightblue" points="102.66,-84.41 96.9,-75.52 95.86,-86.06 102.66,-84.41"/>
</g>
<!-- Node13&#45;&gt;Node5 -->
<g id="edge22" class="edge">
<title>Node13&#45;&gt;Node5</title>
<path fill="none" stroke="midnightblue" d="M364.61,-369.44C405.37,-361.98 455.32,-349.73 468,-333 525.51,-257.09 475.89,-131.69 454.06,-85.13"/>
<polygon fill="midnightblue" stroke="midnightblue" points="457.14,-83.46 449.64,-75.98 450.84,-86.51 457.14,-83.46"/>
</g>
<!-- Node13&#45;&gt;Node6 -->
<g id="edge23" class="edge">
<title>Node13&#45;&gt;Node6</title>
<path fill="none" stroke="midnightblue" d="M327.4,-369.44C343.14,-361.72 365.08,-349.12 380,-333 469.75,-235.99 525.15,-81.99 542.29,-29.35"/>
<polygon fill="midnightblue" stroke="midnightblue" points="545.66,-30.3 545.36,-19.71 538.99,-28.17 545.66,-30.3"/>
</g>
<!-- Node13&#45;&gt;Node9 -->
<g id="edge24" class="edge">
<title>Node13&#45;&gt;Node9</title>
<path fill="none" stroke="midnightblue" d="M380.19,-369.49C418.88,-363.01 466.57,-351.86 506,-333 568.44,-303.14 628.99,-247.41 659.51,-216.87"/>
<polygon fill="midnightblue" stroke="midnightblue" points="662.07,-219.26 666.61,-209.68 657.09,-214.34 662.07,-219.26"/>
</g>
<!-- Node14 -->
<g id="node14" class="node">
<title>Node14</title>
<g id="a_node14"><a xlink:href="_vision_detection_feature_8h.html" target="_top" xlink:title=" ">
<polygon fill="none" stroke="black" points="245.5,-313.5 245.5,-332.5 370.5,-332.5 370.5,-313.5 245.5,-313.5"/>
<text text-anchor="middle" x="308" y="-320.5" font-family="Helvetica,sans-Serif" font-size="10.00">VisionDetectionFeature.h</text>
</a>
</g>
</g>
<!-- Node13&#45;&gt;Node14 -->
<g id="edge25" class="edge">
<title>Node13&#45;&gt;Node14</title>
<path fill="none" stroke="midnightblue" d="M308,-369.08C308,-362.01 308,-351.86 308,-342.99"/>
<polygon fill="midnightblue" stroke="midnightblue" points="311.5,-342.75 308,-332.75 304.5,-342.75 311.5,-342.75"/>
</g>
<!-- Node15 -->
<g id="node15" class="node">
<title>Node15</title>
<g id="a_node15"><a xlink:href="_vision_detection_feature_8hpp.html" target="_top" xlink:title=" ">
<polygon fill="none" stroke="black" points="240,-252 240,-271 376,-271 376,-252 240,-252"/>
<text text-anchor="middle" x="308" y="-259" font-family="Helvetica,sans-Serif" font-size="10.00">VisionDetectionFeature.hpp</text>
</a>
</g>
</g>
<!-- Node14&#45;&gt;Node15 -->
<g id="edge26" class="edge">
<title>Node14&#45;&gt;Node15</title>
<path fill="none" stroke="midnightblue" d="M308,-313.48C308,-305.08 308,-291.98 308,-281.16"/>
<polygon fill="midnightblue" stroke="midnightblue" points="311.5,-281.01 308,-271.01 304.5,-281.01 311.5,-281.01"/>
</g>
<!-- Node15&#45;&gt;Node3 -->
<g id="edge27" class="edge">
<title>Node15&#45;&gt;Node3</title>
<path fill="none" stroke="midnightblue" d="M295.17,-251.88C282.57,-242.81 263.6,-227.44 252,-210 225.39,-169.98 211.29,-114.23 205.4,-85.6"/>
<polygon fill="midnightblue" stroke="midnightblue" points="208.83,-84.87 203.48,-75.73 201.96,-86.21 208.83,-84.87"/>
</g>
<!-- Node15&#45;&gt;Node4 -->
<g id="edge28" class="edge">
<title>Node15&#45;&gt;Node4</title>
<path fill="none" stroke="midnightblue" d="M292.82,-251.96C276.75,-242.6 251.01,-226.7 231,-210 181.87,-169 132.03,-111.7 108.67,-83.72"/>
<polygon fill="midnightblue" stroke="midnightblue" points="111.13,-81.19 102.06,-75.72 105.73,-85.65 111.13,-81.19"/>
</g>
<!-- Node15&#45;&gt;Node5 -->
<g id="edge29" class="edge">
<title>Node15&#45;&gt;Node5</title>
<path fill="none" stroke="midnightblue" d="M333.23,-251.95C353.14,-244 380.28,-230.29 397,-210 427.58,-172.89 438.99,-115.44 442.99,-85.93"/>
<polygon fill="midnightblue" stroke="midnightblue" points="446.5,-86.11 444.22,-75.76 439.55,-85.27 446.5,-86.11"/>
</g>
<!-- Node15&#45;&gt;Node6 -->
<g id="edge30" class="edge">
<title>Node15&#45;&gt;Node6</title>
<path fill="none" stroke="midnightblue" d="M303.03,-251.76C290.05,-227.68 257.97,-159.05 285,-112 330.62,-32.58 450.22,-15.31 511.16,-11.76"/>
<polygon fill="midnightblue" stroke="midnightblue" points="511.66,-15.24 521.47,-11.26 511.32,-8.25 511.66,-15.24"/>
</g>
<!-- Node15&#45;&gt;Node10 -->
<g id="edge31" class="edge">
<title>Node15&#45;&gt;Node10</title>
<path fill="none" stroke="midnightblue" d="M332.12,-251.94C392.3,-230.59 550.04,-174.62 630.8,-145.96"/>
<polygon fill="midnightblue" stroke="midnightblue" points="632.01,-149.24 640.26,-142.6 629.66,-142.65 632.01,-149.24"/>
</g>
<!-- Node16 -->
<g id="node16" class="node">
<title>Node16</title>
<g id="a_node16"><a xlink:href="_polar_coordinate_8h.html" target="_top" xlink:title=" ">
<polygon fill="none" stroke="black" points="294.5,-185 294.5,-204 387.5,-204 387.5,-185 294.5,-185"/>
<text text-anchor="middle" x="341" y="-192" font-family="Helvetica,sans-Serif" font-size="10.00">PolarCoordinate.h</text>
</a>
</g>
</g>
<!-- Node15&#45;&gt;Node16 -->
<g id="edge32" class="edge">
<title>Node15&#45;&gt;Node16</title>
<path fill="none" stroke="midnightblue" d="M312.45,-251.73C317.45,-241.89 325.69,-225.66 332.03,-213.16"/>
<polygon fill="midnightblue" stroke="midnightblue" points="335.21,-214.63 336.62,-204.13 328.97,-211.46 335.21,-214.63"/>
</g>
<!-- Node17 -->
<g id="node17" class="node">
<title>Node17</title>
<g id="a_node17"><a xlink:href="_polar_coordinate_8hpp.html" target="_top" xlink:title=" ">
<polygon fill="none" stroke="black" points="294,-118 294,-137 398,-137 398,-118 294,-118"/>
<text text-anchor="middle" x="346" y="-125" font-family="Helvetica,sans-Serif" font-size="10.00">PolarCoordinate.hpp</text>
</a>
</g>
</g>
<!-- Node16&#45;&gt;Node17 -->
<g id="edge33" class="edge">
<title>Node16&#45;&gt;Node17</title>
<path fill="none" stroke="midnightblue" d="M341.67,-184.73C342.41,-175.18 343.61,-159.62 344.56,-147.28"/>
<polygon fill="midnightblue" stroke="midnightblue" points="348.06,-147.37 345.34,-137.13 341.08,-146.83 348.06,-147.37"/>
</g>
<!-- Node17&#45;&gt;Node3 -->
<g id="edge34" class="edge">
<title>Node17&#45;&gt;Node3</title>
<path fill="none" stroke="midnightblue" d="M325.37,-117.98C300.88,-107.86 259.85,-90.9 231.89,-79.35"/>
<polygon fill="midnightblue" stroke="midnightblue" points="233.17,-76.09 222.59,-75.51 230.5,-82.56 233.17,-76.09"/>
</g>
<!-- Node17&#45;&gt;Node4 -->
<g id="edge35" class="edge">
<title>Node17&#45;&gt;Node4</title>
<path fill="none" stroke="midnightblue" d="M310.04,-117.98C261.67,-106.51 176.28,-86.27 128.96,-75.05"/>
<polygon fill="midnightblue" stroke="midnightblue" points="129.72,-71.63 119.19,-72.73 128.11,-78.45 129.72,-71.63"/>
</g>
<!-- Node17&#45;&gt;Node5 -->
<g id="edge36" class="edge">
<title>Node17&#45;&gt;Node5</title>
<path fill="none" stroke="midnightblue" d="M360.18,-117.98C376.36,-108.25 403.03,-92.23 422.14,-80.74"/>
<polygon fill="midnightblue" stroke="midnightblue" points="424.07,-83.66 430.84,-75.51 420.47,-77.66 424.07,-83.66"/>
</g>
<!-- Node17&#45;&gt;Node6 -->
<g id="edge37" class="edge">
<title>Node17&#45;&gt;Node6</title>
<path fill="none" stroke="midnightblue" d="M351.63,-117.79C361.62,-102.99 383.91,-72.89 410,-56 441.22,-35.79 482.32,-23.93 511.52,-17.5"/>
<polygon fill="midnightblue" stroke="midnightblue" points="512.25,-20.93 521.32,-15.45 510.81,-14.07 512.25,-20.93"/>
</g>
<!-- Node17&#45;&gt;Node11 -->
<g id="edge38" class="edge">
<title>Node17&#45;&gt;Node11</title>
<path fill="none" stroke="midnightblue" d="M395.29,-117.98C457.49,-107.22 564.37,-88.73 630.89,-77.22"/>
<polygon fill="midnightblue" stroke="midnightblue" points="631.55,-80.66 640.8,-75.51 630.35,-73.76 631.55,-80.66"/>
</g>
</g>
</svg>
