<?xml version="1.0" encoding="UTF-8" standalone="no"?>
<!DOCTYPE svg PUBLIC "-//W3C//DTD SVG 1.1//EN"
 "http://www.w3.org/Graphics/SVG/1.1/DTD/svg11.dtd">
<!-- Generated by graphviz version 2.49.0 (20210830.1337)
 -->
<!-- Title: typeClassDefs/VisionDetectionFeature.hpp Pages: 1 -->
<svg width="451pt" height="274pt"
 viewBox="0.00 0.00 450.86 274.00" xmlns="http://www.w3.org/2000/svg" xmlns:xlink="http://www.w3.org/1999/xlink">
<g id="graph0" class="graph" transform="scale(1 1) rotate(0) translate(4 270)">
<title>typeClassDefs/VisionDetectionFeature.hpp</title>
<!-- Node1 -->
<g id="node1" class="node">
<title>Node1</title>
<g id="a_node1"><a xlink:title=" ">
<polygon fill="#bfbfbf" stroke="black" points="104,-235.5 104,-265.5 255,-265.5 255,-235.5 104,-235.5"/>
<text text-anchor="start" x="112" y="-253.5" font-family="Helvetica,sans-Serif" font-size="10.00">typeClassDefs/VisionDetection</text>
<text text-anchor="middle" x="179.5" y="-242.5" font-family="Helvetica,sans-Serif" font-size="10.00">Feature.hpp</text>
</a>
</g>
</g>
<!-- Node2 -->
<g id="node2" class="node">
<title>Node2</title>
<g id="a_node2"><a xlink:title=" ">
<polygon fill="none" stroke="#bfbfbf" points="0,-56.5 0,-75.5 45,-75.5 45,-56.5 0,-56.5"/>
<text text-anchor="middle" x="22.5" y="-63.5" font-family="Helvetica,sans-Serif" font-size="10.00">cstdlib</text>
</a>
</g>
</g>
<!-- Node1&#45;&gt;Node2 -->
<g id="edge1" class="edge">
<title>Node1&#45;&gt;Node2</title>
<path fill="none" stroke="midnightblue" d="M129.51,-235.41C109.24,-227.53 87,-215.82 71.5,-199 41.37,-166.29 29.32,-113.4 24.86,-85.54"/>
<polygon fill="midnightblue" stroke="midnightblue" points="28.32,-84.97 23.43,-75.57 21.39,-85.96 28.32,-84.97"/>
</g>
<!-- Node3 -->
<g id="node3" class="node">
<title>Node3</title>
<g id="a_node3"><a xlink:title=" ">
<polygon fill="none" stroke="#bfbfbf" points="63.5,-56.5 63.5,-75.5 111.5,-75.5 111.5,-56.5 63.5,-56.5"/>
<text text-anchor="middle" x="87.5" y="-63.5" font-family="Helvetica,sans-Serif" font-size="10.00">string.h</text>
</a>
</g>
</g>
<!-- Node1&#45;&gt;Node3 -->
<g id="edge2" class="edge">
<title>Node1&#45;&gt;Node3</title>
<path fill="none" stroke="midnightblue" d="M132.45,-235.36C114.32,-227.54 95.18,-215.88 83.5,-199 59.77,-164.72 71.77,-112.53 80.72,-85.17"/>
<polygon fill="midnightblue" stroke="midnightblue" points="84.03,-86.29 84.03,-75.69 77.43,-83.98 84.03,-86.29"/>
</g>
<!-- Node4 -->
<g id="node4" class="node">
<title>Node4</title>
<g id="a_node4"><a xlink:title=" ">
<polygon fill="none" stroke="#bfbfbf" points="170.5,-56.5 170.5,-75.5 222.5,-75.5 222.5,-56.5 170.5,-56.5"/>
<text text-anchor="middle" x="196.5" y="-63.5" font-family="Helvetica,sans-Serif" font-size="10.00">sstream</text>
</a>
</g>
</g>
<!-- Node1&#45;&gt;Node4 -->
<g id="edge3" class="edge">
<title>Node1&#45;&gt;Node4</title>
<path fill="none" stroke="midnightblue" d="M184.68,-235.12C188.06,-225.12 192.24,-211.42 194.5,-199 201.72,-159.31 199.96,-111.78 198.15,-85.97"/>
<polygon fill="midnightblue" stroke="midnightblue" points="201.62,-85.44 197.35,-75.74 194.64,-85.99 201.62,-85.44"/>
</g>
<!-- Node5 -->
<g id="node5" class="node">
<title>Node5</title>
<g id="a_node5"><a xlink:title=" ">
<polygon fill="none" stroke="#bfbfbf" points="275,-0.5 275,-19.5 328,-19.5 328,-0.5 275,-0.5"/>
<text text-anchor="middle" x="301.5" y="-7.5" font-family="Helvetica,sans-Serif" font-size="10.00">gu_util.h</text>
</a>
</g>
</g>
<!-- Node1&#45;&gt;Node5 -->
<g id="edge4" class="edge">
<title>Node1&#45;&gt;Node5</title>
<path fill="none" stroke="midnightblue" d="M188.96,-235.21C195.38,-225.25 203.87,-211.55 210.5,-199 243,-137.42 242.31,-117.74 274.5,-56 279.34,-46.71 285.28,-36.69 290.36,-28.46"/>
<polygon fill="midnightblue" stroke="midnightblue" points="293.45,-30.12 295.8,-19.79 287.52,-26.4 293.45,-30.12"/>
</g>
<!-- Node6 -->
<g id="node6" class="node">
<title>Node6</title>
<g id="a_node6"><a xlink:href="wb__vision__detection__feature_8h.html" target="_top" xlink:title=" ">
<polygon fill="none" stroke="black" points="330,-112.5 330,-142.5 435,-142.5 435,-112.5 330,-112.5"/>
<text text-anchor="start" x="338" y="-130.5" font-family="Helvetica,sans-Serif" font-size="10.00">wb_vision_detection</text>
<text text-anchor="middle" x="382.5" y="-119.5" font-family="Helvetica,sans-Serif" font-size="10.00">_feature.h</text>
</a>
</g>
</g>
<!-- Node1&#45;&gt;Node6 -->
<g id="edge5" class="edge">
<title>Node1&#45;&gt;Node6</title>
<path fill="none" stroke="midnightblue" d="M205.28,-235.45C223.38,-225.49 248.07,-211.69 269.5,-199 297.78,-182.26 329.49,-162.37 352.1,-148"/>
<polygon fill="midnightblue" stroke="midnightblue" points="354.05,-150.91 360.6,-142.58 350.29,-145.01 354.05,-150.91"/>
</g>
<!-- Node9 -->
<g id="node9" class="node">
<title>Node9</title>
<g id="a_node9"><a xlink:href="_polar_coordinate_8h.html" target="_top" xlink:title=" ">
<polygon fill="none" stroke="black" points="93,-179.5 93,-198.5 186,-198.5 186,-179.5 93,-179.5"/>
<text text-anchor="middle" x="139.5" y="-186.5" font-family="Helvetica,sans-Serif" font-size="10.00">PolarCoordinate.h</text>
</a>
</g>
</g>
<!-- Node1&#45;&gt;Node9 -->
<g id="edge11" class="edge">
<title>Node1&#45;&gt;Node9</title>
<path fill="none" stroke="midnightblue" d="M170.02,-235.4C164.33,-226.93 157.05,-216.1 151.02,-207.14"/>
<polygon fill="midnightblue" stroke="midnightblue" points="153.8,-205 145.32,-198.66 147.99,-208.91 153.8,-205"/>
</g>
<!-- Node6&#45;&gt;Node5 -->
<g id="edge6" class="edge">
<title>Node6&#45;&gt;Node5</title>
<path fill="none" stroke="midnightblue" d="M394.29,-112.31C405.2,-97.36 418.1,-73.59 406.5,-56 398.45,-43.8 364.86,-30.73 337.81,-21.84"/>
<polygon fill="midnightblue" stroke="midnightblue" points="338.79,-18.48 328.2,-18.76 336.66,-25.14 338.79,-18.48"/>
</g>
<!-- Node7 -->
<g id="node7" class="node">
<title>Node7</title>
<g id="a_node7"><a xlink:title=" ">
<polygon fill="none" stroke="#bfbfbf" points="354.5,-0.5 354.5,-19.5 402.5,-19.5 402.5,-0.5 354.5,-0.5"/>
<text text-anchor="middle" x="378.5" y="-7.5" font-family="Helvetica,sans-Serif" font-size="10.00">stdint.h</text>
</a>
</g>
</g>
<!-- Node6&#45;&gt;Node7 -->
<g id="edge7" class="edge">
<title>Node6&#45;&gt;Node7</title>
<path fill="none" stroke="midnightblue" d="M407.25,-112.41C427.28,-99.03 450.5,-77.78 439.5,-56 432.69,-42.52 419.73,-32.08 407.5,-24.67"/>
<polygon fill="midnightblue" stroke="midnightblue" points="408.84,-21.41 398.41,-19.59 405.43,-27.52 408.84,-21.41"/>
</g>
<!-- Node8 -->
<g id="node8" class="node">
<title>Node8</title>
<g id="a_node8"><a xlink:href="wb__polar__coordinate_8h.html" target="_top" xlink:title=" ">
<polygon fill="none" stroke="black" points="284,-56.5 284,-75.5 397,-75.5 397,-56.5 284,-56.5"/>
<text text-anchor="middle" x="340.5" y="-63.5" font-family="Helvetica,sans-Serif" font-size="10.00">wb_polar_coordinate.h</text>
</a>
</g>
</g>
<!-- Node6&#45;&gt;Node8 -->
<g id="edge8" class="edge">
<title>Node6&#45;&gt;Node8</title>
<path fill="none" stroke="midnightblue" d="M372.55,-112.4C366.51,-103.84 358.76,-92.87 352.4,-83.86"/>
<polygon fill="midnightblue" stroke="midnightblue" points="355.24,-81.81 346.61,-75.66 349.52,-85.85 355.24,-81.81"/>
</g>
<!-- Node8&#45;&gt;Node5 -->
<g id="edge9" class="edge">
<title>Node8&#45;&gt;Node5</title>
<path fill="none" stroke="midnightblue" d="M334.06,-56.08C328.55,-48.46 320.47,-37.26 313.74,-27.94"/>
<polygon fill="midnightblue" stroke="midnightblue" points="316.51,-25.81 307.82,-19.75 310.84,-29.91 316.51,-25.81"/>
</g>
<!-- Node8&#45;&gt;Node7 -->
<g id="edge10" class="edge">
<title>Node8&#45;&gt;Node7</title>
<path fill="none" stroke="midnightblue" d="M346.77,-56.08C352.14,-48.46 360.02,-37.26 366.58,-27.94"/>
<polygon fill="midnightblue" stroke="midnightblue" points="369.45,-29.94 372.34,-19.75 363.72,-25.91 369.45,-29.94"/>
</g>
<!-- Node10 -->
<g id="node10" class="node">
<title>Node10</title>
<g id="a_node10"><a xlink:href="_polar_coordinate_8hpp.html" target="_top" xlink:title=" ">
<polygon fill="none" stroke="black" points="85.5,-118 85.5,-137 189.5,-137 189.5,-118 85.5,-118"/>
<text text-anchor="middle" x="137.5" y="-125" font-family="Helvetica,sans-Serif" font-size="10.00">PolarCoordinate.hpp</text>
</a>
</g>
</g>
<!-- Node9&#45;&gt;Node10 -->
<g id="edge12" class="edge">
<title>Node9&#45;&gt;Node10</title>
<path fill="none" stroke="midnightblue" d="M139.21,-179.48C138.93,-171.08 138.49,-157.98 138.13,-147.16"/>
<polygon fill="midnightblue" stroke="midnightblue" points="141.62,-146.89 137.79,-137.01 134.62,-147.12 141.62,-146.89"/>
</g>
<!-- Node10&#45;&gt;Node2 -->
<g id="edge13" class="edge">
<title>Node10&#45;&gt;Node2</title>
<path fill="none" stroke="midnightblue" d="M121.02,-117.98C101.89,-108.08 70.13,-91.64 47.85,-80.12"/>
<polygon fill="midnightblue" stroke="midnightblue" points="49.44,-77 38.95,-75.51 46.22,-83.21 49.44,-77"/>
</g>
<!-- Node10&#45;&gt;Node3 -->
<g id="edge14" class="edge">
<title>Node10&#45;&gt;Node3</title>
<path fill="none" stroke="midnightblue" d="M130.34,-117.98C122.76,-108.96 110.63,-94.52 101.21,-83.31"/>
<polygon fill="midnightblue" stroke="midnightblue" points="103.76,-80.91 94.65,-75.51 98.4,-85.42 103.76,-80.91"/>
</g>
<!-- Node10&#45;&gt;Node4 -->
<g id="edge15" class="edge">
<title>Node10&#45;&gt;Node4</title>
<path fill="none" stroke="midnightblue" d="M145.95,-117.98C155.07,-108.78 169.77,-93.96 180.98,-82.66"/>
<polygon fill="midnightblue" stroke="midnightblue" points="183.51,-85.07 188.06,-75.51 178.54,-80.15 183.51,-85.07"/>
</g>
<!-- Node10&#45;&gt;Node5 -->
<g id="edge16" class="edge">
<title>Node10&#45;&gt;Node5</title>
<path fill="none" stroke="midnightblue" d="M138.01,-117.83C139.35,-103.07 144.17,-73.04 161.5,-56 189.23,-28.74 233.51,-17.99 264.83,-13.75"/>
<polygon fill="midnightblue" stroke="midnightblue" points="265.4,-17.21 274.92,-12.55 264.58,-10.26 265.4,-17.21"/>
</g>
<!-- Node10&#45;&gt;Node8 -->
<g id="edge17" class="edge">
<title>Node10&#45;&gt;Node8</title>
<path fill="none" stroke="midnightblue" d="M166.58,-117.98C202.08,-107.57 262.25,-89.94 301.67,-78.38"/>
<polygon fill="midnightblue" stroke="midnightblue" points="302.86,-81.68 311.47,-75.51 300.89,-74.96 302.86,-81.68"/>
</g>
</g>
</svg>
