<?xml version="1.0" encoding="UTF-8" standalone="no"?>
<!DOCTYPE svg PUBLIC "-//W3C//DTD SVG 1.1//EN"
 "http://www.w3.org/Graphics/SVG/1.1/DTD/svg11.dtd">
<!-- Generated by graphviz version 2.49.0 (20210830.1337)
 -->
<!-- Title: OLD_WB/WBMsg.h Pages: 1 -->
<svg width="526pt" height="140pt"
 viewBox="0.00 0.00 525.50 140.00" xmlns="http://www.w3.org/2000/svg" xmlns:xlink="http://www.w3.org/1999/xlink">
<g id="graph0" class="graph" transform="scale(1 1) rotate(0) translate(4 136)">
<title>OLD_WB/WBMsg.h</title>
<!-- Node1 -->
<g id="node1" class="node">
<title>Node1</title>
<g id="a_node1"><a xlink:title=" ">
<polygon fill="#bfbfbf" stroke="black" points="130,-112.5 130,-131.5 233,-131.5 233,-112.5 130,-112.5"/>
<text text-anchor="middle" x="181.5" y="-119.5" font-family="Helvetica,sans-Serif" font-size="10.00">OLD_WB/WBMsg.h</text>
</a>
</g>
</g>
<!-- Node2 -->
<g id="node2" class="node">
<title>Node2</title>
<g id="a_node2"><a xlink:title=" ">
<polygon fill="none" stroke="#bfbfbf" points="0,-56.5 0,-75.5 45,-75.5 45,-56.5 0,-56.5"/>
<text text-anchor="middle" x="22.5" y="-63.5" font-family="Helvetica,sans-Serif" font-size="10.00">cstdlib</text>
</a>
</g>
</g>
<!-- Node1&#45;&gt;Node2 -->
<g id="edge1" class="edge">
<title>Node1&#45;&gt;Node2</title>
<path fill="none" stroke="midnightblue" d="M156.31,-112.44C128.77,-103.09 84.59,-88.09 54.59,-77.9"/>
<polygon fill="midnightblue" stroke="midnightblue" points="55.6,-74.55 45.01,-74.64 53.35,-81.17 55.6,-74.55"/>
</g>
<!-- Node3 -->
<g id="node3" class="node">
<title>Node3</title>
<g id="a_node3"><a xlink:title=" ">
<polygon fill="none" stroke="#bfbfbf" points="63.5,-56.5 63.5,-75.5 109.5,-75.5 109.5,-56.5 63.5,-56.5"/>
<text text-anchor="middle" x="86.5" y="-63.5" font-family="Helvetica,sans-Serif" font-size="10.00">cstring</text>
</a>
</g>
</g>
<!-- Node1&#45;&gt;Node3 -->
<g id="edge2" class="edge">
<title>Node1&#45;&gt;Node3</title>
<path fill="none" stroke="midnightblue" d="M166.24,-112.32C151.28,-103.82 128.25,-90.73 110.77,-80.8"/>
<polygon fill="midnightblue" stroke="midnightblue" points="112.15,-77.55 101.73,-75.65 108.69,-83.64 112.15,-77.55"/>
</g>
<!-- Node4 -->
<g id="node4" class="node">
<title>Node4</title>
<g id="a_node4"><a xlink:title=" ">
<polygon fill="none" stroke="#bfbfbf" points="128,-56.5 128,-75.5 169,-75.5 169,-56.5 128,-56.5"/>
<text text-anchor="middle" x="148.5" y="-63.5" font-family="Helvetica,sans-Serif" font-size="10.00">string</text>
</a>
</g>
</g>
<!-- Node1&#45;&gt;Node4 -->
<g id="edge3" class="edge">
<title>Node1&#45;&gt;Node4</title>
<path fill="none" stroke="midnightblue" d="M176.05,-112.08C171.49,-104.61 164.83,-93.72 159.21,-84.52"/>
<polygon fill="midnightblue" stroke="midnightblue" points="162.05,-82.46 153.85,-75.75 156.08,-86.11 162.05,-82.46"/>
</g>
<!-- Node5 -->
<g id="node5" class="node">
<title>Node5</title>
<g id="a_node5"><a xlink:title=" ">
<polygon fill="none" stroke="#bfbfbf" points="187.5,-56.5 187.5,-75.5 241.5,-75.5 241.5,-56.5 187.5,-56.5"/>
<text text-anchor="middle" x="214.5" y="-63.5" font-family="Helvetica,sans-Serif" font-size="10.00">iostream</text>
</a>
</g>
</g>
<!-- Node1&#45;&gt;Node5 -->
<g id="edge4" class="edge">
<title>Node1&#45;&gt;Node5</title>
<path fill="none" stroke="midnightblue" d="M186.95,-112.08C191.51,-104.61 198.17,-93.72 203.79,-84.52"/>
<polygon fill="midnightblue" stroke="midnightblue" points="206.92,-86.11 209.15,-75.75 200.95,-82.46 206.92,-86.11"/>
</g>
<!-- Node6 -->
<g id="node6" class="node">
<title>Node6</title>
<g id="a_node6"><a xlink:title=" ">
<polygon fill="none" stroke="#bfbfbf" points="259.5,-56.5 259.5,-75.5 311.5,-75.5 311.5,-56.5 259.5,-56.5"/>
<text text-anchor="middle" x="285.5" y="-63.5" font-family="Helvetica,sans-Serif" font-size="10.00">sstream</text>
</a>
</g>
</g>
<!-- Node1&#45;&gt;Node6 -->
<g id="edge5" class="edge">
<title>Node1&#45;&gt;Node6</title>
<path fill="none" stroke="midnightblue" d="M198.21,-112.32C214.81,-103.7 240.5,-90.36 259.72,-80.39"/>
<polygon fill="midnightblue" stroke="midnightblue" points="261.57,-83.37 268.83,-75.65 258.34,-77.16 261.57,-83.37"/>
</g>
<!-- Node7 -->
<g id="node7" class="node">
<title>Node7</title>
<g id="a_node7"><a xlink:href="gusimplewhiteboard_8h.html" target="_top" xlink:title=" ">
<polygon fill="none" stroke="black" points="329.5,-56.5 329.5,-75.5 439.5,-75.5 439.5,-56.5 329.5,-56.5"/>
<text text-anchor="middle" x="384.5" y="-63.5" font-family="Helvetica,sans-Serif" font-size="10.00">gusimplewhiteboard.h</text>
</a>
</g>
</g>
<!-- Node1&#45;&gt;Node7 -->
<g id="edge6" class="edge">
<title>Node1&#45;&gt;Node7</title>
<path fill="none" stroke="midnightblue" d="M213.67,-112.44C248.56,-103.16 304.39,-88.31 342.67,-78.13"/>
<polygon fill="midnightblue" stroke="midnightblue" points="343.72,-81.47 352.48,-75.52 341.92,-74.7 343.72,-81.47"/>
</g>
<!-- Node8 -->
<g id="node8" class="node">
<title>Node8</title>
<g id="a_node8"><a xlink:title=" ">
<polygon fill="none" stroke="#bfbfbf" points="194,-0.5 194,-19.5 295,-19.5 295,-0.5 194,-0.5"/>
<text text-anchor="middle" x="244.5" y="-7.5" font-family="Helvetica,sans-Serif" font-size="10.00">dispatch/dispatch.h</text>
</a>
</g>
</g>
<!-- Node7&#45;&gt;Node8 -->
<g id="edge7" class="edge">
<title>Node7&#45;&gt;Node8</title>
<path fill="none" stroke="midnightblue" d="M362.32,-56.44C339.07,-47.48 302.35,-33.31 276.08,-23.18"/>
<polygon fill="midnightblue" stroke="midnightblue" points="277.17,-19.85 266.58,-19.52 274.65,-26.38 277.17,-19.85"/>
</g>
<!-- Node9 -->
<g id="node9" class="node">
<title>Node9</title>
<g id="a_node9"><a xlink:title=" ">
<polygon fill="none" stroke="#bfbfbf" points="313,-0.5 313,-19.5 378,-19.5 378,-0.5 313,-0.5"/>
<text text-anchor="middle" x="345.5" y="-7.5" font-family="Helvetica,sans-Serif" font-size="10.00">sys/types.h</text>
</a>
</g>
</g>
<!-- Node7&#45;&gt;Node9 -->
<g id="edge8" class="edge">
<title>Node7&#45;&gt;Node9</title>
<path fill="none" stroke="midnightblue" d="M378.06,-56.08C372.55,-48.46 364.47,-37.26 357.74,-27.94"/>
<polygon fill="midnightblue" stroke="midnightblue" points="360.51,-25.81 351.82,-19.75 354.84,-29.91 360.51,-25.81"/>
</g>
<!-- Node10 -->
<g id="node10" class="node">
<title>Node10</title>
<g id="a_node10"><a xlink:title=" ">
<polygon fill="none" stroke="#bfbfbf" points="396,-0.5 396,-19.5 449,-19.5 449,-0.5 396,-0.5"/>
<text text-anchor="middle" x="422.5" y="-7.5" font-family="Helvetica,sans-Serif" font-size="10.00">cstdbool</text>
</a>
</g>
</g>
<!-- Node7&#45;&gt;Node10 -->
<g id="edge9" class="edge">
<title>Node7&#45;&gt;Node10</title>
<path fill="none" stroke="midnightblue" d="M390.77,-56.08C396.14,-48.46 404.02,-37.26 410.58,-27.94"/>
<polygon fill="midnightblue" stroke="midnightblue" points="413.45,-29.94 416.34,-19.75 407.72,-25.91 413.45,-29.94"/>
</g>
<!-- Node11 -->
<g id="node11" class="node">
<title>Node11</title>
<g id="a_node11"><a xlink:title=" ">
<polygon fill="none" stroke="#bfbfbf" points="467.5,-0.5 467.5,-19.5 517.5,-19.5 517.5,-0.5 467.5,-0.5"/>
<text text-anchor="middle" x="492.5" y="-7.5" font-family="Helvetica,sans-Serif" font-size="10.00">unistd.h</text>
</a>
</g>
</g>
<!-- Node7&#45;&gt;Node11 -->
<g id="edge10" class="edge">
<title>Node7&#45;&gt;Node11</title>
<path fill="none" stroke="midnightblue" d="M401.85,-56.32C419.17,-47.66 446.02,-34.24 466,-24.25"/>
<polygon fill="midnightblue" stroke="midnightblue" points="467.81,-27.26 475.19,-19.65 464.68,-21 467.81,-27.26"/>
</g>
</g>
</svg>
