<?xml version="1.0" encoding="UTF-8" standalone="no"?>
<!DOCTYPE svg PUBLIC "-//W3C//DTD SVG 1.1//EN"
 "http://www.w3.org/Graphics/SVG/1.1/DTD/svg11.dtd">
<!-- Generated by graphviz version 2.49.0 (20210830.1337)
 -->
<!-- Title: OLD_WB/WBMsg.h Pages: 1 -->
<svg width="564pt" height="274pt"
 viewBox="0.00 0.00 563.50 274.00" xmlns="http://www.w3.org/2000/svg" xmlns:xlink="http://www.w3.org/1999/xlink">
<g id="graph0" class="graph" transform="scale(1 1) rotate(0) translate(4 270)">
<title>OLD_WB/WBMsg.h</title>
<!-- Node1 -->
<g id="node1" class="node">
<title>Node1</title>
<g id="a_node1"><a xlink:title=" ">
<polygon fill="#bfbfbf" stroke="black" points="293.5,-246.5 293.5,-265.5 396.5,-265.5 396.5,-246.5 293.5,-246.5"/>
<text text-anchor="middle" x="345" y="-253.5" font-family="Helvetica,sans-Serif" font-size="10.00">OLD_WB/WBMsg.h</text>
</a>
</g>
</g>
<!-- Node2 -->
<g id="node2" class="node">
<title>Node2</title>
<g id="a_node2"><a xlink:href="_remote_whiteboard_8h.html" target="_top" xlink:title=" ">
<polygon fill="none" stroke="black" points="140.5,-73 140.5,-92 291.5,-92 291.5,-73 140.5,-73"/>
<text text-anchor="middle" x="216" y="-80" font-family="Helvetica,sans-Serif" font-size="10.00">OLD_WB/RemoteWhiteboard.h</text>
</a>
</g>
</g>
<!-- Node1&#45;&gt;Node2 -->
<g id="edge1" class="edge">
<title>Node1&#45;&gt;Node2</title>
<path fill="none" stroke="midnightblue" d="M356.04,-237.64C370.52,-212.42 391.6,-165.26 369,-134 356.01,-116.04 300.46,-100.96 260.02,-92.08"/>
<polygon fill="midnightblue" stroke="midnightblue" points="352.9,-236.06 350.74,-246.43 358.9,-239.68 352.9,-236.06"/>
</g>
<!-- Node4 -->
<g id="node4" class="node">
<title>Node4</title>
<g id="a_node4"><a xlink:href="_whiteboard_8h.html" target="_top" xlink:title=" ">
<polygon fill="none" stroke="black" points="70.5,-134.5 70.5,-153.5 187.5,-153.5 187.5,-134.5 70.5,-134.5"/>
<text text-anchor="middle" x="129" y="-141.5" font-family="Helvetica,sans-Serif" font-size="10.00">OLD_WB/Whiteboard.h</text>
</a>
</g>
</g>
<!-- Node1&#45;&gt;Node4 -->
<g id="edge3" class="edge">
<title>Node1&#45;&gt;Node4</title>
<path fill="none" stroke="midnightblue" d="M300.36,-243.77C274.05,-236.19 240.6,-224.85 213,-210 183.12,-193.93 152.8,-167.38 138.11,-153.72"/>
<polygon fill="midnightblue" stroke="midnightblue" points="299.5,-247.16 310.07,-246.49 301.39,-240.42 299.5,-247.16"/>
</g>
<!-- Node6 -->
<g id="node6" class="node">
<title>Node6</title>
<g id="a_node6"><a xlink:href="i_o_s_whiteboard_8h.html" target="_top" xlink:title=" ">
<polygon fill="none" stroke="black" points="417,-190.5 417,-209.5 551,-209.5 551,-190.5 417,-190.5"/>
<text text-anchor="middle" x="484" y="-197.5" font-family="Helvetica,sans-Serif" font-size="10.00">OLD_WB/iOSWhiteboard.h</text>
</a>
</g>
</g>
<!-- Node1&#45;&gt;Node6 -->
<g id="edge6" class="edge">
<title>Node1&#45;&gt;Node6</title>
<path fill="none" stroke="midnightblue" d="M376.48,-242.77C402.59,-232.63 439.04,-218.47 462.08,-209.52"/>
<polygon fill="midnightblue" stroke="midnightblue" points="375.08,-239.56 367.02,-246.44 377.61,-246.08 375.08,-239.56"/>
</g>
<!-- Node8 -->
<g id="node8" class="node">
<title>Node8</title>
<g id="a_node8"><a xlink:href="_w_b_functor_8h.html" target="_top" xlink:title=" ">
<polygon fill="none" stroke="black" points="222.5,-190.5 222.5,-209.5 295.5,-209.5 295.5,-190.5 222.5,-190.5"/>
<text text-anchor="middle" x="259" y="-197.5" font-family="Helvetica,sans-Serif" font-size="10.00">WBFunctor.h</text>
</a>
</g>
</g>
<!-- Node1&#45;&gt;Node8 -->
<g id="edge8" class="edge">
<title>Node1&#45;&gt;Node8</title>
<path fill="none" stroke="midnightblue" d="M322.55,-240.9C306.78,-231 286.19,-218.07 272.78,-209.65"/>
<polygon fill="midnightblue" stroke="midnightblue" points="320.85,-243.97 331.18,-246.32 324.57,-238.04 320.85,-243.97"/>
</g>
<!-- Node3 -->
<g id="node3" class="node">
<title>Node3</title>
<g id="a_node3"><a xlink:href="_remote_whiteboard_8cc.html" target="_top" xlink:title=" ">
<polygon fill="none" stroke="black" points="136,-6 136,-25 292,-25 292,-6 136,-6"/>
<text text-anchor="middle" x="214" y="-13" font-family="Helvetica,sans-Serif" font-size="10.00">OLD_WB/RemoteWhiteboard.cc</text>
</a>
</g>
</g>
<!-- Node2&#45;&gt;Node3 -->
<g id="edge2" class="edge">
<title>Node2&#45;&gt;Node3</title>
<path fill="none" stroke="midnightblue" d="M215.42,-62.54C215.04,-50.17 214.56,-34.62 214.27,-25.13"/>
<polygon fill="midnightblue" stroke="midnightblue" points="211.92,-62.85 215.73,-72.73 218.92,-62.63 211.92,-62.85"/>
</g>
<!-- Node4&#45;&gt;Node2 -->
<g id="edge4" class="edge">
<title>Node4&#45;&gt;Node2</title>
<path fill="none" stroke="midnightblue" d="M150.04,-128.61C166.77,-117.17 189.61,-101.55 203.56,-92.01"/>
<polygon fill="midnightblue" stroke="midnightblue" points="147.74,-125.94 141.46,-134.48 151.7,-131.72 147.74,-125.94"/>
</g>
<!-- Node5 -->
<g id="node5" class="node">
<title>Node5</title>
<g id="a_node5"><a xlink:href="_whiteboard_8cc.html" target="_top" xlink:title=" ">
<polygon fill="none" stroke="black" points="0,-73 0,-92 122,-92 122,-73 0,-73"/>
<text text-anchor="middle" x="61" y="-80" font-family="Helvetica,sans-Serif" font-size="10.00">OLD_WB/Whiteboard.cc</text>
</a>
</g>
</g>
<!-- Node4&#45;&gt;Node5 -->
<g id="edge5" class="edge">
<title>Node4&#45;&gt;Node5</title>
<path fill="none" stroke="midnightblue" d="M111.46,-127.65C98.49,-116.31 81.32,-101.28 70.72,-92.01"/>
<polygon fill="midnightblue" stroke="midnightblue" points="109.43,-130.52 119.26,-134.48 114.04,-125.26 109.43,-130.52"/>
</g>
<!-- Node7 -->
<g id="node7" class="node">
<title>Node7</title>
<g id="a_node7"><a xlink:href="i_o_s_whiteboard_8cc.html" target="_top" xlink:title=" ">
<polygon fill="none" stroke="black" points="416.5,-134.5 416.5,-153.5 555.5,-153.5 555.5,-134.5 416.5,-134.5"/>
<text text-anchor="middle" x="486" y="-141.5" font-family="Helvetica,sans-Serif" font-size="10.00">OLD_WB/iOSWhiteboard.cc</text>
</a>
</g>
</g>
<!-- Node6&#45;&gt;Node7 -->
<g id="edge7" class="edge">
<title>Node6&#45;&gt;Node7</title>
<path fill="none" stroke="midnightblue" d="M484.71,-179.8C485.04,-170.91 485.42,-160.78 485.68,-153.75"/>
<polygon fill="midnightblue" stroke="midnightblue" points="481.2,-179.96 484.33,-190.08 488.2,-180.22 481.2,-179.96"/>
</g>
<!-- Node8&#45;&gt;Node2 -->
<g id="edge9" class="edge">
<title>Node8&#45;&gt;Node2</title>
<path fill="none" stroke="midnightblue" d="M248.44,-181.43C243.85,-173.29 238.7,-163.37 235,-154 226.52,-132.55 220.49,-105.96 217.72,-92.39"/>
<polygon fill="midnightblue" stroke="midnightblue" points="245.55,-183.44 253.6,-190.32 251.6,-179.92 245.55,-183.44"/>
</g>
<!-- Node8&#45;&gt;Node4 -->
<g id="edge10" class="edge">
<title>Node8&#45;&gt;Node4</title>
<path fill="none" stroke="midnightblue" d="M228.91,-186.5C204.54,-176.38 170.86,-162.39 149.5,-153.52"/>
<polygon fill="midnightblue" stroke="midnightblue" points="227.82,-189.84 238.4,-190.44 230.51,-183.38 227.82,-189.84"/>
</g>
<!-- Node9 -->
<g id="node9" class="node">
<title>Node9</title>
<g id="a_node9"><a xlink:href="guwhiteboardwatcher_8h.html" target="_top" xlink:title=" ">
<polygon fill="none" stroke="black" points="244,-134.5 244,-153.5 360,-153.5 360,-134.5 244,-134.5"/>
<text text-anchor="middle" x="302" y="-141.5" font-family="Helvetica,sans-Serif" font-size="10.00">guwhiteboardwatcher.h</text>
</a>
</g>
</g>
<!-- Node8&#45;&gt;Node9 -->
<g id="edge11" class="edge">
<title>Node8&#45;&gt;Node9</title>
<path fill="none" stroke="midnightblue" d="M272.42,-182.14C279.91,-172.74 288.94,-161.4 295.03,-153.75"/>
<polygon fill="midnightblue" stroke="midnightblue" points="269.59,-180.08 266.1,-190.08 275.07,-184.44 269.59,-180.08"/>
</g>
<!-- Node10 -->
<g id="node10" class="node">
<title>Node10</title>
<g id="a_node10"><a xlink:href="_simple_whiteboard_test_8h.html" target="_top" xlink:title=" ">
<polygon fill="none" stroke="black" points="313.5,-67.5 313.5,-97.5 438.5,-97.5 438.5,-67.5 313.5,-67.5"/>
<text text-anchor="start" x="321.5" y="-85.5" font-family="Helvetica,sans-Serif" font-size="10.00">SimpleWhiteboardTest</text>
<text text-anchor="middle" x="376" y="-74.5" font-family="Helvetica,sans-Serif" font-size="10.00">/SimpleWhiteboardTest.h</text>
</a>
</g>
</g>
<!-- Node9&#45;&gt;Node10 -->
<g id="edge12" class="edge">
<title>Node9&#45;&gt;Node10</title>
<path fill="none" stroke="midnightblue" d="M320.41,-128.2C332.08,-118.81 347.08,-106.75 358.56,-97.52"/>
<polygon fill="midnightblue" stroke="midnightblue" points="318.2,-125.48 312.6,-134.48 322.59,-130.94 318.2,-125.48"/>
</g>
<!-- Node11 -->
<g id="node11" class="node">
<title>Node11</title>
<g id="a_node11"><a xlink:href="_simple_whiteboard_test_8mm.html" target="_top" xlink:title=" ">
<polygon fill="none" stroke="black" points="310.5,-0.5 310.5,-30.5 447.5,-30.5 447.5,-0.5 310.5,-0.5"/>
<text text-anchor="start" x="318.5" y="-18.5" font-family="Helvetica,sans-Serif" font-size="10.00">SimpleWhiteboardTest</text>
<text text-anchor="middle" x="379" y="-7.5" font-family="Helvetica,sans-Serif" font-size="10.00">/SimpleWhiteboardTest.mm</text>
</a>
</g>
</g>
<!-- Node10&#45;&gt;Node11 -->
<g id="edge13" class="edge">
<title>Node10&#45;&gt;Node11</title>
<path fill="none" stroke="midnightblue" d="M377.11,-57.4C377.53,-48.37 377.99,-38.41 378.35,-30.58"/>
<polygon fill="midnightblue" stroke="midnightblue" points="373.62,-57.25 376.65,-67.4 380.61,-57.57 373.62,-57.25"/>
</g>
</g>
</svg>
