<?xml version="1.0" encoding="UTF-8" standalone="no"?>
<!DOCTYPE svg PUBLIC "-//W3C//DTD SVG 1.1//EN"
 "http://www.w3.org/Graphics/SVG/1.1/DTD/svg11.dtd">
<!-- Generated by graphviz version 2.49.0 (20210830.1337)
 -->
<!-- Title: WBFunctor.h Pages: 1 -->
<svg width="715pt" height="330pt"
 viewBox="0.00 0.00 715.00 330.00" xmlns="http://www.w3.org/2000/svg" xmlns:xlink="http://www.w3.org/1999/xlink">
<g id="graph0" class="graph" transform="scale(1 1) rotate(0) translate(4 326)">
<title>WBFunctor.h</title>
<!-- Node1 -->
<g id="node1" class="node">
<title>Node1</title>
<g id="a_node1"><a xlink:title=" ">
<polygon fill="#bfbfbf" stroke="black" points="268,-302.5 268,-321.5 341,-321.5 341,-302.5 268,-302.5"/>
<text text-anchor="middle" x="304.5" y="-309.5" font-family="Helvetica,sans-Serif" font-size="10.00">WBFunctor.h</text>
</a>
</g>
</g>
<!-- Node2 -->
<g id="node2" class="node">
<title>Node2</title>
<g id="a_node2"><a xlink:title=" ">
<polygon fill="none" stroke="#bfbfbf" points="0,-56.5 0,-75.5 41,-75.5 41,-56.5 0,-56.5"/>
<text text-anchor="middle" x="20.5" y="-63.5" font-family="Helvetica,sans-Serif" font-size="10.00">string</text>
</a>
</g>
</g>
<!-- Node1&#45;&gt;Node2 -->
<g id="edge1" class="edge">
<title>Node1&#45;&gt;Node2</title>
<path fill="none" stroke="midnightblue" d="M288.04,-302.49C272.38,-294.09 248.47,-280.44 229.5,-266 150.15,-205.6 67.85,-118.82 35.15,-83.2"/>
<polygon fill="midnightblue" stroke="midnightblue" points="37.6,-80.69 28.27,-75.66 32.42,-85.4 37.6,-80.69"/>
</g>
<!-- Node3 -->
<g id="node3" class="node">
<title>Node3</title>
<g id="a_node3"><a xlink:title=" ">
<polygon fill="none" stroke="#bfbfbf" points="654,-56.5 654,-75.5 707,-75.5 707,-56.5 654,-56.5"/>
<text text-anchor="middle" x="680.5" y="-63.5" font-family="Helvetica,sans-Serif" font-size="10.00">gu_util.h</text>
</a>
</g>
</g>
<!-- Node1&#45;&gt;Node3 -->
<g id="edge2" class="edge">
<title>Node1&#45;&gt;Node3</title>
<path fill="none" stroke="midnightblue" d="M341.09,-310.11C414.77,-307.63 577.73,-298.54 621.5,-266 679,-223.25 682.77,-126.86 681.59,-85.94"/>
<polygon fill="midnightblue" stroke="midnightblue" points="685.08,-85.6 681.15,-75.75 678.08,-85.9 685.08,-85.6"/>
</g>
<!-- Node4 -->
<g id="node4" class="node">
<title>Node4</title>
<g id="a_node4"><a xlink:href="_w_b_msg_8h.html" target="_top" xlink:title=" ">
<polygon fill="none" stroke="black" points="177,-112.5 177,-131.5 236,-131.5 236,-112.5 177,-112.5"/>
<text text-anchor="middle" x="206.5" y="-119.5" font-family="Helvetica,sans-Serif" font-size="10.00">WBMsg.h</text>
</a>
</g>
</g>
<!-- Node1&#45;&gt;Node4 -->
<g id="edge3" class="edge">
<title>Node1&#45;&gt;Node4</title>
<path fill="none" stroke="midnightblue" d="M290.09,-302.4C277.89,-294.41 260.78,-281.44 250.5,-266 224.2,-226.49 213.03,-170.52 208.79,-141.72"/>
<polygon fill="midnightblue" stroke="midnightblue" points="212.25,-141.23 207.44,-131.79 205.31,-142.17 212.25,-141.23"/>
</g>
<!-- Node9 -->
<g id="node9" class="node">
<title>Node9</title>
<g id="a_node9"><a xlink:href="gusimplewhiteboard_8h.html" target="_top" xlink:title=" ">
<polygon fill="none" stroke="black" points="328.5,-56.5 328.5,-75.5 438.5,-75.5 438.5,-56.5 328.5,-56.5"/>
<text text-anchor="middle" x="383.5" y="-63.5" font-family="Helvetica,sans-Serif" font-size="10.00">gusimplewhiteboard.h</text>
</a>
</g>
</g>
<!-- Node1&#45;&gt;Node9 -->
<g id="edge26" class="edge">
<title>Node1&#45;&gt;Node9</title>
<path fill="none" stroke="midnightblue" d="M299.37,-302.41C294.44,-293.61 287.34,-279.38 284.5,-266 275.46,-223.39 268.03,-208.32 284.5,-168 299.97,-130.11 337.28,-98.74 361.42,-81.46"/>
<polygon fill="midnightblue" stroke="midnightblue" points="363.72,-84.12 369.95,-75.55 359.74,-78.37 363.72,-84.12"/>
</g>
<!-- Node14 -->
<g id="node14" class="node">
<title>Node14</title>
<g id="a_node14"><a xlink:href="guwhiteboardtypelist__generated_8h.html" target="_top" xlink:title=" ">
<polygon fill="none" stroke="black" points="293,-235.5 293,-265.5 398,-265.5 398,-235.5 293,-235.5"/>
<text text-anchor="start" x="301" y="-253.5" font-family="Helvetica,sans-Serif" font-size="10.00">guwhiteboardtypelist</text>
<text text-anchor="middle" x="345.5" y="-242.5" font-family="Helvetica,sans-Serif" font-size="10.00">_generated.h</text>
</a>
</g>
</g>
<!-- Node1&#45;&gt;Node14 -->
<g id="edge14" class="edge">
<title>Node1&#45;&gt;Node14</title>
<path fill="none" stroke="midnightblue" d="M310.37,-302.48C315.51,-295.02 323.21,-283.85 330.09,-273.87"/>
<polygon fill="midnightblue" stroke="midnightblue" points="333.05,-275.74 335.84,-265.52 327.28,-271.77 333.05,-275.74"/>
</g>
<!-- Node21 -->
<g id="node21" class="node">
<title>Node21</title>
<g id="a_node21"><a xlink:href="_w_b_functor__types__generated_8h.html" target="_top" xlink:title=" ">
<polygon fill="none" stroke="black" points="463,-241 463,-260 612,-260 612,-241 463,-241"/>
<text text-anchor="middle" x="537.5" y="-248" font-family="Helvetica,sans-Serif" font-size="10.00">WBFunctor_types_generated.h</text>
</a>
</g>
</g>
<!-- Node1&#45;&gt;Node21 -->
<g id="edge27" class="edge">
<title>Node1&#45;&gt;Node21</title>
<path fill="none" stroke="midnightblue" d="M337.88,-302.48C379.06,-291.96 449.15,-274.06 494.37,-262.51"/>
<polygon fill="midnightblue" stroke="midnightblue" points="495.36,-265.87 504.18,-260.01 493.62,-259.09 495.36,-265.87"/>
</g>
<!-- Node4&#45;&gt;Node2 -->
<g id="edge6" class="edge">
<title>Node4&#45;&gt;Node2</title>
<path fill="none" stroke="midnightblue" d="M176.93,-112.73C147.3,-104.4 100.15,-91.02 50.94,-76.39"/>
<polygon fill="midnightblue" stroke="midnightblue" points="51.66,-72.95 41.08,-73.45 49.66,-79.66 51.66,-72.95"/>
</g>
<!-- Node5 -->
<g id="node5" class="node">
<title>Node5</title>
<g id="a_node5"><a xlink:title=" ">
<polygon fill="none" stroke="#bfbfbf" points="59,-56.5 59,-75.5 104,-75.5 104,-56.5 59,-56.5"/>
<text text-anchor="middle" x="81.5" y="-63.5" font-family="Helvetica,sans-Serif" font-size="10.00">cstdlib</text>
</a>
</g>
</g>
<!-- Node4&#45;&gt;Node5 -->
<g id="edge4" class="edge">
<title>Node4&#45;&gt;Node5</title>
<path fill="none" stroke="midnightblue" d="M186.69,-112.44C166.21,-103.6 134.02,-89.69 110.64,-79.59"/>
<polygon fill="midnightblue" stroke="midnightblue" points="111.78,-76.27 101.21,-75.52 109.01,-82.7 111.78,-76.27"/>
</g>
<!-- Node6 -->
<g id="node6" class="node">
<title>Node6</title>
<g id="a_node6"><a xlink:title=" ">
<polygon fill="none" stroke="#bfbfbf" points="122.5,-56.5 122.5,-75.5 168.5,-75.5 168.5,-56.5 122.5,-56.5"/>
<text text-anchor="middle" x="145.5" y="-63.5" font-family="Helvetica,sans-Serif" font-size="10.00">cstring</text>
</a>
</g>
</g>
<!-- Node4&#45;&gt;Node6 -->
<g id="edge5" class="edge">
<title>Node4&#45;&gt;Node6</title>
<path fill="none" stroke="midnightblue" d="M196.7,-112.32C187.68,-104.34 174.09,-92.31 163.18,-82.65"/>
<polygon fill="midnightblue" stroke="midnightblue" points="165.29,-79.84 155.48,-75.83 160.65,-85.08 165.29,-79.84"/>
</g>
<!-- Node7 -->
<g id="node7" class="node">
<title>Node7</title>
<g id="a_node7"><a xlink:title=" ">
<polygon fill="none" stroke="#bfbfbf" points="256.5,-56.5 256.5,-75.5 310.5,-75.5 310.5,-56.5 256.5,-56.5"/>
<text text-anchor="middle" x="283.5" y="-63.5" font-family="Helvetica,sans-Serif" font-size="10.00">iostream</text>
</a>
</g>
</g>
<!-- Node4&#45;&gt;Node7 -->
<g id="edge7" class="edge">
<title>Node4&#45;&gt;Node7</title>
<path fill="none" stroke="midnightblue" d="M218.87,-112.32C230.66,-104.06 248.63,-91.45 262.64,-81.63"/>
<polygon fill="midnightblue" stroke="midnightblue" points="264.98,-84.26 271.16,-75.65 260.96,-78.53 264.98,-84.26"/>
</g>
<!-- Node8 -->
<g id="node8" class="node">
<title>Node8</title>
<g id="a_node8"><a xlink:title=" ">
<polygon fill="none" stroke="#bfbfbf" points="186.5,-56.5 186.5,-75.5 238.5,-75.5 238.5,-56.5 186.5,-56.5"/>
<text text-anchor="middle" x="212.5" y="-63.5" font-family="Helvetica,sans-Serif" font-size="10.00">sstream</text>
</a>
</g>
</g>
<!-- Node4&#45;&gt;Node8 -->
<g id="edge8" class="edge">
<title>Node4&#45;&gt;Node8</title>
<path fill="none" stroke="midnightblue" d="M207.49,-112.08C208.29,-104.93 209.43,-94.64 210.42,-85.69"/>
<polygon fill="midnightblue" stroke="midnightblue" points="213.9,-86.08 211.53,-75.75 206.94,-85.3 213.9,-86.08"/>
</g>
<!-- Node4&#45;&gt;Node9 -->
<g id="edge9" class="edge">
<title>Node4&#45;&gt;Node9</title>
<path fill="none" stroke="midnightblue" d="M234.55,-112.44C264.58,-103.28 312.41,-88.69 345.74,-78.52"/>
<polygon fill="midnightblue" stroke="midnightblue" points="347.04,-81.78 355.59,-75.52 345,-75.09 347.04,-81.78"/>
</g>
<!-- Node10 -->
<g id="node10" class="node">
<title>Node10</title>
<g id="a_node10"><a xlink:title=" ">
<polygon fill="none" stroke="#bfbfbf" points="193,-0.5 193,-19.5 294,-19.5 294,-0.5 193,-0.5"/>
<text text-anchor="middle" x="243.5" y="-7.5" font-family="Helvetica,sans-Serif" font-size="10.00">dispatch/dispatch.h</text>
</a>
</g>
</g>
<!-- Node9&#45;&gt;Node10 -->
<g id="edge10" class="edge">
<title>Node9&#45;&gt;Node10</title>
<path fill="none" stroke="midnightblue" d="M361.32,-56.44C338.07,-47.48 301.35,-33.31 275.08,-23.18"/>
<polygon fill="midnightblue" stroke="midnightblue" points="276.17,-19.85 265.58,-19.52 273.65,-26.38 276.17,-19.85"/>
</g>
<!-- Node11 -->
<g id="node11" class="node">
<title>Node11</title>
<g id="a_node11"><a xlink:title=" ">
<polygon fill="none" stroke="#bfbfbf" points="312,-0.5 312,-19.5 377,-19.5 377,-0.5 312,-0.5"/>
<text text-anchor="middle" x="344.5" y="-7.5" font-family="Helvetica,sans-Serif" font-size="10.00">sys/types.h</text>
</a>
</g>
</g>
<!-- Node9&#45;&gt;Node11 -->
<g id="edge11" class="edge">
<title>Node9&#45;&gt;Node11</title>
<path fill="none" stroke="midnightblue" d="M377.06,-56.08C371.55,-48.46 363.47,-37.26 356.74,-27.94"/>
<polygon fill="midnightblue" stroke="midnightblue" points="359.51,-25.81 350.82,-19.75 353.84,-29.91 359.51,-25.81"/>
</g>
<!-- Node12 -->
<g id="node12" class="node">
<title>Node12</title>
<g id="a_node12"><a xlink:title=" ">
<polygon fill="none" stroke="#bfbfbf" points="395,-0.5 395,-19.5 448,-19.5 448,-0.5 395,-0.5"/>
<text text-anchor="middle" x="421.5" y="-7.5" font-family="Helvetica,sans-Serif" font-size="10.00">cstdbool</text>
</a>
</g>
</g>
<!-- Node9&#45;&gt;Node12 -->
<g id="edge12" class="edge">
<title>Node9&#45;&gt;Node12</title>
<path fill="none" stroke="midnightblue" d="M389.77,-56.08C395.14,-48.46 403.02,-37.26 409.58,-27.94"/>
<polygon fill="midnightblue" stroke="midnightblue" points="412.45,-29.94 415.34,-19.75 406.72,-25.91 412.45,-29.94"/>
</g>
<!-- Node13 -->
<g id="node13" class="node">
<title>Node13</title>
<g id="a_node13"><a xlink:title=" ">
<polygon fill="none" stroke="#bfbfbf" points="466.5,-0.5 466.5,-19.5 516.5,-19.5 516.5,-0.5 466.5,-0.5"/>
<text text-anchor="middle" x="491.5" y="-7.5" font-family="Helvetica,sans-Serif" font-size="10.00">unistd.h</text>
</a>
</g>
</g>
<!-- Node9&#45;&gt;Node13 -->
<g id="edge13" class="edge">
<title>Node9&#45;&gt;Node13</title>
<path fill="none" stroke="midnightblue" d="M400.85,-56.32C418.17,-47.66 445.02,-34.24 465,-24.25"/>
<polygon fill="midnightblue" stroke="midnightblue" points="466.81,-27.26 474.19,-19.65 463.68,-21 466.81,-27.26"/>
</g>
<!-- Node15 -->
<g id="node15" class="node">
<title>Node15</title>
<g id="a_node15"><a xlink:href="gu_whiteboard__gugenericwhiteboardobject_8h.html" target="_top" xlink:title=" ">
<polygon fill="none" stroke="black" points="416.5,-174 416.5,-193 620.5,-193 620.5,-174 416.5,-174"/>
<text text-anchor="middle" x="518.5" y="-181" font-family="Helvetica,sans-Serif" font-size="10.00">guWhiteboard_gugenericwhiteboardobject.h</text>
</a>
</g>
</g>
<!-- Node14&#45;&gt;Node15 -->
<g id="edge15" class="edge">
<title>Node14&#45;&gt;Node15</title>
<path fill="none" stroke="midnightblue" d="M383.04,-235.4C413.8,-223.84 456.87,-207.66 486.13,-196.66"/>
<polygon fill="midnightblue" stroke="midnightblue" points="487.73,-199.8 495.86,-193.01 485.27,-193.25 487.73,-199.8"/>
</g>
<!-- Node20 -->
<g id="node20" class="node">
<title>Node20</title>
<g id="a_node20"><a xlink:href="guwhiteboardtypelist__c__generated_8h.html" target="_top" xlink:title=" ">
<polygon fill="none" stroke="black" points="293,-168.5 293,-198.5 398,-198.5 398,-168.5 293,-168.5"/>
<text text-anchor="start" x="301" y="-186.5" font-family="Helvetica,sans-Serif" font-size="10.00">guwhiteboardtypelist</text>
<text text-anchor="middle" x="345.5" y="-175.5" font-family="Helvetica,sans-Serif" font-size="10.00">_c_generated.h</text>
</a>
</g>
</g>
<!-- Node14&#45;&gt;Node20 -->
<g id="edge24" class="edge">
<title>Node14&#45;&gt;Node20</title>
<path fill="none" stroke="midnightblue" d="M345.5,-235.4C345.5,-227.64 345.5,-217.81 345.5,-208.86"/>
<polygon fill="midnightblue" stroke="midnightblue" points="349,-208.58 345.5,-198.58 342,-208.58 349,-208.58"/>
</g>
<!-- Node16 -->
<g id="node16" class="node">
<title>Node16</title>
<g id="a_node16"><a xlink:href="gugenericwhiteboardobject_8h.html" target="_top" xlink:title=" ">
<polygon fill="none" stroke="black" points="426.5,-112.5 426.5,-131.5 566.5,-131.5 566.5,-112.5 426.5,-112.5"/>
<text text-anchor="middle" x="496.5" y="-119.5" font-family="Helvetica,sans-Serif" font-size="10.00">gugenericwhiteboardobject.h</text>
</a>
</g>
</g>
<!-- Node15&#45;&gt;Node16 -->
<g id="edge16" class="edge">
<title>Node15&#45;&gt;Node16</title>
<path fill="none" stroke="midnightblue" d="M515.35,-173.98C512.18,-165.4 507.2,-151.93 503.15,-140.98"/>
<polygon fill="midnightblue" stroke="midnightblue" points="506.4,-139.67 499.65,-131.51 499.83,-142.1 506.4,-139.67"/>
</g>
<!-- Node16&#45;&gt;Node2 -->
<g id="edge21" class="edge">
<title>Node16&#45;&gt;Node2</title>
<path fill="none" stroke="midnightblue" d="M426.17,-118.28C339.63,-113.96 188.27,-103.25 51.13,-75.99"/>
<polygon fill="midnightblue" stroke="midnightblue" points="51.77,-72.55 41.28,-74 50.39,-79.41 51.77,-72.55"/>
</g>
<!-- Node16&#45;&gt;Node3 -->
<g id="edge23" class="edge">
<title>Node16&#45;&gt;Node3</title>
<path fill="none" stroke="midnightblue" d="M525.66,-112.44C557.75,-103.02 609.39,-87.87 644.12,-77.68"/>
<polygon fill="midnightblue" stroke="midnightblue" points="645.26,-80.99 653.87,-74.82 643.29,-74.27 645.26,-80.99"/>
</g>
<!-- Node16&#45;&gt;Node7 -->
<g id="edge20" class="edge">
<title>Node16&#45;&gt;Node7</title>
<path fill="none" stroke="midnightblue" d="M462.75,-112.44C424.01,-102.62 360.67,-86.56 320.58,-76.4"/>
<polygon fill="midnightblue" stroke="midnightblue" points="321.23,-72.95 310.67,-73.89 319.5,-79.74 321.23,-72.95"/>
</g>
<!-- Node16&#45;&gt;Node9 -->
<g id="edge17" class="edge">
<title>Node16&#45;&gt;Node9</title>
<path fill="none" stroke="midnightblue" d="M478.59,-112.44C460.25,-103.68 431.49,-89.94 410.41,-79.86"/>
<polygon fill="midnightblue" stroke="midnightblue" points="411.85,-76.67 401.32,-75.52 408.83,-82.99 411.85,-76.67"/>
</g>
<!-- Node17 -->
<g id="node17" class="node">
<title>Node17</title>
<g id="a_node17"><a xlink:title=" ">
<polygon fill="none" stroke="#bfbfbf" points="457,-56.5 457,-75.5 506,-75.5 506,-56.5 457,-56.5"/>
<text text-anchor="middle" x="481.5" y="-63.5" font-family="Helvetica,sans-Serif" font-size="10.00">cstddef</text>
</a>
</g>
</g>
<!-- Node16&#45;&gt;Node17 -->
<g id="edge18" class="edge">
<title>Node16&#45;&gt;Node17</title>
<path fill="none" stroke="midnightblue" d="M494.02,-112.08C492.01,-104.85 489.11,-94.41 486.61,-85.4"/>
<polygon fill="midnightblue" stroke="midnightblue" points="489.98,-84.45 483.93,-75.75 483.24,-86.32 489.98,-84.45"/>
</g>
<!-- Node18 -->
<g id="node18" class="node">
<title>Node18</title>
<g id="a_node18"><a xlink:title=" ">
<polygon fill="none" stroke="#bfbfbf" points="524,-56.5 524,-75.5 573,-75.5 573,-56.5 524,-56.5"/>
<text text-anchor="middle" x="548.5" y="-63.5" font-family="Helvetica,sans-Serif" font-size="10.00">cassert</text>
</a>
</g>
</g>
<!-- Node16&#45;&gt;Node18 -->
<g id="edge19" class="edge">
<title>Node16&#45;&gt;Node18</title>
<path fill="none" stroke="midnightblue" d="M505.09,-112.08C512.66,-104.22 523.88,-92.57 533.01,-83.08"/>
<polygon fill="midnightblue" stroke="midnightblue" points="535.66,-85.38 540.07,-75.75 530.62,-80.53 535.66,-85.38"/>
</g>
<!-- Node19 -->
<g id="node19" class="node">
<title>Node19</title>
<g id="a_node19"><a xlink:title=" ">
<polygon fill="none" stroke="#bfbfbf" points="591.5,-56.5 591.5,-75.5 635.5,-75.5 635.5,-56.5 591.5,-56.5"/>
<text text-anchor="middle" x="613.5" y="-63.5" font-family="Helvetica,sans-Serif" font-size="10.00">vector</text>
</a>
</g>
</g>
<!-- Node16&#45;&gt;Node19 -->
<g id="edge22" class="edge">
<title>Node16&#45;&gt;Node19</title>
<path fill="none" stroke="midnightblue" d="M515.04,-112.44C534.12,-103.64 564.07,-89.81 585.94,-79.72"/>
<polygon fill="midnightblue" stroke="midnightblue" points="587.43,-82.88 595.05,-75.52 584.5,-76.53 587.43,-82.88"/>
</g>
<!-- Node20&#45;&gt;Node9 -->
<g id="edge25" class="edge">
<title>Node20&#45;&gt;Node9</title>
<path fill="none" stroke="midnightblue" d="M350.16,-168.34C357.04,-147.43 369.91,-108.31 377.49,-85.27"/>
<polygon fill="midnightblue" stroke="midnightblue" points="380.85,-86.26 380.65,-75.67 374.2,-84.07 380.85,-86.26"/>
</g>
<!-- Node21&#45;&gt;Node3 -->
<g id="edge28" class="edge">
<title>Node21&#45;&gt;Node3</title>
<path fill="none" stroke="midnightblue" d="M563.33,-240.96C583.77,-233 611.74,-219.3 629.5,-199 658.79,-165.52 672.16,-113.37 677.48,-85.71"/>
<polygon fill="midnightblue" stroke="midnightblue" points="680.94,-86.24 679.24,-75.78 674.04,-85.02 680.94,-86.24"/>
</g>
</g>
</svg>
