<?xml version="1.0" encoding="UTF-8" standalone="no"?>
<!DOCTYPE svg PUBLIC "-//W3C//DTD SVG 1.1//EN"
 "http://www.w3.org/Graphics/SVG/1.1/DTD/svg11.dtd">
<!-- Generated by graphviz version 2.49.0 (20210830.1337)
 -->
<!-- Title: WBFunctor.h Pages: 1 -->
<svg width="452pt" height="218pt"
 viewBox="0.00 0.00 451.50 218.00" xmlns="http://www.w3.org/2000/svg" xmlns:xlink="http://www.w3.org/1999/xlink">
<g id="graph0" class="graph" transform="scale(1 1) rotate(0) translate(4 214)">
<title>WBFunctor.h</title>
<!-- Node1 -->
<g id="node1" class="node">
<title>Node1</title>
<g id="a_node1"><a xlink:title=" ">
<polygon fill="#bfbfbf" stroke="black" points="179.5,-190.5 179.5,-209.5 252.5,-209.5 252.5,-190.5 179.5,-190.5"/>
<text text-anchor="middle" x="216" y="-197.5" font-family="Helvetica,sans-Serif" font-size="10.00">WBFunctor.h</text>
</a>
</g>
</g>
<!-- Node2 -->
<g id="node2" class="node">
<title>Node2</title>
<g id="a_node2"><a xlink:href="_remote_whiteboard_8h.html" target="_top" xlink:title=" ">
<polygon fill="none" stroke="black" points="2.5,-73 2.5,-92 153.5,-92 153.5,-73 2.5,-73"/>
<text text-anchor="middle" x="78" y="-80" font-family="Helvetica,sans-Serif" font-size="10.00">OLD_WB/RemoteWhiteboard.h</text>
</a>
</g>
</g>
<!-- Node1&#45;&gt;Node2 -->
<g id="edge1" class="edge">
<title>Node1&#45;&gt;Node2</title>
<path fill="none" stroke="midnightblue" d="M192.37,-185.03C178.9,-176.66 161.96,-165.45 148,-154 123.46,-133.88 98.03,-106.26 85.67,-92.32"/>
<polygon fill="midnightblue" stroke="midnightblue" points="190.71,-188.12 201.07,-190.34 194.35,-182.14 190.71,-188.12"/>
</g>
<!-- Node4 -->
<g id="node4" class="node">
<title>Node4</title>
<g id="a_node4"><a xlink:href="_whiteboard_8h.html" target="_top" xlink:title=" ">
<polygon fill="none" stroke="black" points="157.5,-134.5 157.5,-153.5 274.5,-153.5 274.5,-134.5 157.5,-134.5"/>
<text text-anchor="middle" x="216" y="-141.5" font-family="Helvetica,sans-Serif" font-size="10.00">OLD_WB/Whiteboard.h</text>
</a>
</g>
</g>
<!-- Node1&#45;&gt;Node4 -->
<g id="edge3" class="edge">
<title>Node1&#45;&gt;Node4</title>
<path fill="none" stroke="midnightblue" d="M216,-179.8C216,-170.91 216,-160.78 216,-153.75"/>
<polygon fill="midnightblue" stroke="midnightblue" points="212.5,-180.08 216,-190.08 219.5,-180.08 212.5,-180.08"/>
</g>
<!-- Node6 -->
<g id="node6" class="node">
<title>Node6</title>
<g id="a_node6"><a xlink:href="guwhiteboardwatcher_8h.html" target="_top" xlink:title=" ">
<polygon fill="none" stroke="black" points="305,-134.5 305,-153.5 421,-153.5 421,-134.5 305,-134.5"/>
<text text-anchor="middle" x="363" y="-141.5" font-family="Helvetica,sans-Serif" font-size="10.00">guwhiteboardwatcher.h</text>
</a>
</g>
</g>
<!-- Node1&#45;&gt;Node6 -->
<g id="edge6" class="edge">
<title>Node1&#45;&gt;Node6</title>
<path fill="none" stroke="midnightblue" d="M248.92,-186.91C276.56,-176.75 315.34,-162.51 339.82,-153.52"/>
<polygon fill="midnightblue" stroke="midnightblue" points="247.47,-183.71 239.29,-190.44 249.89,-190.28 247.47,-183.71"/>
</g>
<!-- Node3 -->
<g id="node3" class="node">
<title>Node3</title>
<g id="a_node3"><a xlink:href="_remote_whiteboard_8cc.html" target="_top" xlink:title=" ">
<polygon fill="none" stroke="black" points="0,-6 0,-25 156,-25 156,-6 0,-6"/>
<text text-anchor="middle" x="78" y="-13" font-family="Helvetica,sans-Serif" font-size="10.00">OLD_WB/RemoteWhiteboard.cc</text>
</a>
</g>
</g>
<!-- Node2&#45;&gt;Node3 -->
<g id="edge2" class="edge">
<title>Node2&#45;&gt;Node3</title>
<path fill="none" stroke="midnightblue" d="M78,-62.54C78,-50.17 78,-34.62 78,-25.13"/>
<polygon fill="midnightblue" stroke="midnightblue" points="74.5,-62.73 78,-72.73 81.5,-62.73 74.5,-62.73"/>
</g>
<!-- Node4&#45;&gt;Node2 -->
<g id="edge4" class="edge">
<title>Node4&#45;&gt;Node2</title>
<path fill="none" stroke="midnightblue" d="M186.96,-130.48C160.16,-118.92 121.08,-102.08 97.74,-92.01"/>
<polygon fill="midnightblue" stroke="midnightblue" points="185.66,-133.73 196.23,-134.48 188.43,-127.3 185.66,-133.73"/>
</g>
<!-- Node5 -->
<g id="node5" class="node">
<title>Node5</title>
<g id="a_node5"><a xlink:href="_whiteboard_8cc.html" target="_top" xlink:title=" ">
<polygon fill="none" stroke="black" points="172,-73 172,-92 294,-92 294,-73 172,-73"/>
<text text-anchor="middle" x="233" y="-80" font-family="Helvetica,sans-Serif" font-size="10.00">OLD_WB/Whiteboard.cc</text>
</a>
</g>
</g>
<!-- Node4&#45;&gt;Node5 -->
<g id="edge5" class="edge">
<title>Node4&#45;&gt;Node5</title>
<path fill="none" stroke="midnightblue" d="M221.24,-124.66C224.35,-113.77 228.15,-100.49 230.57,-92.01"/>
<polygon fill="midnightblue" stroke="midnightblue" points="217.82,-123.9 218.44,-134.48 224.55,-125.82 217.82,-123.9"/>
</g>
<!-- Node7 -->
<g id="node7" class="node">
<title>Node7</title>
<g id="a_node7"><a xlink:href="_simple_whiteboard_test_8h.html" target="_top" xlink:title=" ">
<polygon fill="none" stroke="black" points="312.5,-67.5 312.5,-97.5 437.5,-97.5 437.5,-67.5 312.5,-67.5"/>
<text text-anchor="start" x="320.5" y="-85.5" font-family="Helvetica,sans-Serif" font-size="10.00">SimpleWhiteboardTest</text>
<text text-anchor="middle" x="375" y="-74.5" font-family="Helvetica,sans-Serif" font-size="10.00">/SimpleWhiteboardTest.h</text>
</a>
</g>
</g>
<!-- Node6&#45;&gt;Node7 -->
<g id="edge7" class="edge">
<title>Node6&#45;&gt;Node7</title>
<path fill="none" stroke="midnightblue" d="M366.73,-124.53C368.48,-115.81 370.55,-105.59 372.17,-97.52"/>
<polygon fill="midnightblue" stroke="midnightblue" points="363.27,-123.98 364.72,-134.48 370.13,-125.36 363.27,-123.98"/>
</g>
<!-- Node8 -->
<g id="node8" class="node">
<title>Node8</title>
<g id="a_node8"><a xlink:href="_simple_whiteboard_test_8mm.html" target="_top" xlink:title=" ">
<polygon fill="none" stroke="black" points="306.5,-0.5 306.5,-30.5 443.5,-30.5 443.5,-0.5 306.5,-0.5"/>
<text text-anchor="start" x="314.5" y="-18.5" font-family="Helvetica,sans-Serif" font-size="10.00">SimpleWhiteboardTest</text>
<text text-anchor="middle" x="375" y="-7.5" font-family="Helvetica,sans-Serif" font-size="10.00">/SimpleWhiteboardTest.mm</text>
</a>
</g>
</g>
<!-- Node7&#45;&gt;Node8 -->
<g id="edge8" class="edge">
<title>Node7&#45;&gt;Node8</title>
<path fill="none" stroke="midnightblue" d="M375,-57.11C375,-48.15 375,-38.32 375,-30.58"/>
<polygon fill="midnightblue" stroke="midnightblue" points="371.5,-57.4 375,-67.4 378.5,-57.4 371.5,-57.4"/>
</g>
</g>
</svg>
