<?xml version="1.0" encoding="UTF-8" standalone="no"?>
<!DOCTYPE svg PUBLIC "-//W3C//DTD SVG 1.1//EN"
 "http://www.w3.org/Graphics/SVG/1.1/DTD/svg11.dtd">
<!-- Generated by graphviz version 2.49.0 (20210830.1337)
 -->
<!-- Title: typeClassDefs/WEBOTS_NXT_vector_bridge.hpp Pages: 1 -->
<svg width="195pt" height="207pt"
 viewBox="0.00 0.00 195.00 207.00" xmlns="http://www.w3.org/2000/svg" xmlns:xlink="http://www.w3.org/1999/xlink">
<g id="graph0" class="graph" transform="scale(1 1) rotate(0) translate(4 203)">
<title>typeClassDefs/WEBOTS_NXT_vector_bridge.hpp</title>
<!-- Node1 -->
<g id="node1" class="node">
<title>Node1</title>
<g id="a_node1"><a xlink:title=" ">
<polygon fill="#bfbfbf" stroke="black" points="27,-168.5 27,-198.5 152,-198.5 152,-168.5 27,-168.5"/>
<text text-anchor="start" x="35" y="-186.5" font-family="Helvetica,sans-Serif" font-size="10.00">typeClassDefs/WEBOTS</text>
<text text-anchor="middle" x="89.5" y="-175.5" font-family="Helvetica,sans-Serif" font-size="10.00">_NXT_vector_bridge.hpp</text>
</a>
</g>
</g>
<!-- Node2 -->
<g id="node2" class="node">
<title>Node2</title>
<g id="a_node2"><a xlink:href="_w_e_b_o_t_s___n_x_t__bridge_8h.html" target="_top" xlink:title=" ">
<polygon fill="none" stroke="black" points="28,-112.5 28,-131.5 151,-131.5 151,-112.5 28,-112.5"/>
<text text-anchor="middle" x="89.5" y="-119.5" font-family="Helvetica,sans-Serif" font-size="10.00">WEBOTS_NXT_bridge.h</text>
</a>
</g>
</g>
<!-- Node1&#45;&gt;Node2 -->
<g id="edge1" class="edge">
<title>Node1&#45;&gt;Node2</title>
<path fill="none" stroke="midnightblue" d="M89.5,-168.4C89.5,-160.47 89.5,-150.46 89.5,-141.86"/>
<polygon fill="midnightblue" stroke="midnightblue" points="93,-141.66 89.5,-131.66 86,-141.66 93,-141.66"/>
</g>
<!-- Node3 -->
<g id="node3" class="node">
<title>Node3</title>
<g id="a_node3"><a xlink:href="_w_e_b_o_t_s___n_x_t__bridge_8hpp.html" target="_top" xlink:title=" ">
<polygon fill="none" stroke="black" points="22.5,-56.5 22.5,-75.5 156.5,-75.5 156.5,-56.5 22.5,-56.5"/>
<text text-anchor="middle" x="89.5" y="-63.5" font-family="Helvetica,sans-Serif" font-size="10.00">WEBOTS_NXT_bridge.hpp</text>
</a>
</g>
</g>
<!-- Node2&#45;&gt;Node3 -->
<g id="edge2" class="edge">
<title>Node2&#45;&gt;Node3</title>
<path fill="none" stroke="midnightblue" d="M89.5,-112.08C89.5,-105.01 89.5,-94.86 89.5,-85.99"/>
<polygon fill="midnightblue" stroke="midnightblue" points="93,-85.75 89.5,-75.75 86,-85.75 93,-85.75"/>
</g>
<!-- Node4 -->
<g id="node4" class="node">
<title>Node4</title>
<g id="a_node4"><a xlink:title=" ">
<polygon fill="none" stroke="#bfbfbf" points="0,-0.5 0,-19.5 45,-19.5 45,-0.5 0,-0.5"/>
<text text-anchor="middle" x="22.5" y="-7.5" font-family="Helvetica,sans-Serif" font-size="10.00">cstdlib</text>
</a>
</g>
</g>
<!-- Node3&#45;&gt;Node4 -->
<g id="edge3" class="edge">
<title>Node3&#45;&gt;Node4</title>
<path fill="none" stroke="midnightblue" d="M78.74,-56.32C68.73,-48.26 53.61,-36.08 41.57,-26.37"/>
<polygon fill="midnightblue" stroke="midnightblue" points="43.44,-23.38 33.46,-19.83 39.05,-28.83 43.44,-23.38"/>
</g>
<!-- Node5 -->
<g id="node5" class="node">
<title>Node5</title>
<g id="a_node5"><a xlink:title=" ">
<polygon fill="none" stroke="#bfbfbf" points="63.5,-0.5 63.5,-19.5 115.5,-19.5 115.5,-0.5 63.5,-0.5"/>
<text text-anchor="middle" x="89.5" y="-7.5" font-family="Helvetica,sans-Serif" font-size="10.00">sstream</text>
</a>
</g>
</g>
<!-- Node3&#45;&gt;Node5 -->
<g id="edge4" class="edge">
<title>Node3&#45;&gt;Node5</title>
<path fill="none" stroke="midnightblue" d="M89.5,-56.08C89.5,-49.01 89.5,-38.86 89.5,-29.99"/>
<polygon fill="midnightblue" stroke="midnightblue" points="93,-29.75 89.5,-19.75 86,-29.75 93,-29.75"/>
</g>
<!-- Node6 -->
<g id="node6" class="node">
<title>Node6</title>
<g id="a_node6"><a xlink:title=" ">
<polygon fill="none" stroke="#bfbfbf" points="134,-0.5 134,-19.5 187,-19.5 187,-0.5 134,-0.5"/>
<text text-anchor="middle" x="160.5" y="-7.5" font-family="Helvetica,sans-Serif" font-size="10.00">gu_util.h</text>
</a>
</g>
</g>
<!-- Node3&#45;&gt;Node6 -->
<g id="edge5" class="edge">
<title>Node3&#45;&gt;Node6</title>
<path fill="none" stroke="midnightblue" d="M100.91,-56.32C111.61,-48.18 127.84,-35.84 140.66,-26.09"/>
<polygon fill="midnightblue" stroke="midnightblue" points="143.04,-28.67 148.89,-19.83 138.81,-23.1 143.04,-28.67"/>
</g>
</g>
</svg>
