<?xml version="1.0" encoding="UTF-8" standalone="no"?>
<!DOCTYPE svg PUBLIC "-//W3C//DTD SVG 1.1//EN"
 "http://www.w3.org/Graphics/SVG/1.1/DTD/svg11.dtd">
<!-- Generated by graphviz version 2.49.0 (20210830.1337)
 -->
<!-- Title: typeClassDefs/WEBOTS_NXT_camera.hpp Pages: 1 -->
<svg width="416pt" height="240pt"
 viewBox="0.00 0.00 416.00 240.00" xmlns="http://www.w3.org/2000/svg" xmlns:xlink="http://www.w3.org/1999/xlink">
<g id="graph0" class="graph" transform="scale(1 1) rotate(0) translate(4 236)">
<title>typeClassDefs/WEBOTS_NXT_camera.hpp</title>
<!-- Node1 -->
<g id="node1" class="node">
<title>Node1</title>
<g id="a_node1"><a xlink:title=" ">
<polygon fill="#bfbfbf" stroke="black" points="215,-201.5 215,-231.5 340,-231.5 340,-201.5 215,-201.5"/>
<text text-anchor="start" x="223" y="-219.5" font-family="Helvetica,sans-Serif" font-size="10.00">typeClassDefs/WEBOTS</text>
<text text-anchor="middle" x="277.5" y="-208.5" font-family="Helvetica,sans-Serif" font-size="10.00">_NXT_camera.hpp</text>
</a>
</g>
</g>
<!-- Node2 -->
<g id="node2" class="node">
<title>Node2</title>
<g id="a_node2"><a xlink:href="guwhiteboardposter_8h.html" target="_top" xlink:title=" ">
<polygon fill="none" stroke="black" points="156,-140 156,-159 265,-159 265,-140 156,-140"/>
<text text-anchor="middle" x="210.5" y="-147" font-family="Helvetica,sans-Serif" font-size="10.00">guwhiteboardposter.h</text>
</a>
</g>
</g>
<!-- Node1&#45;&gt;Node2 -->
<g id="edge1" class="edge">
<title>Node1&#45;&gt;Node2</title>
<path fill="none" stroke="midnightblue" d="M255.68,-194.34C243.38,-182.4 228.68,-168.14 219.46,-159.19"/>
<polygon fill="midnightblue" stroke="midnightblue" points="253.35,-196.94 262.96,-201.4 258.22,-191.92 253.35,-196.94"/>
</g>
<!-- Node8 -->
<g id="node8" class="node">
<title>Node8</title>
<g id="a_node8"><a xlink:href="_w_e_b_o_t_s___n_x_t__camera_8h.html" target="_top" xlink:title=" ">
<polygon fill="none" stroke="black" points="283,-134.5 283,-164.5 408,-164.5 408,-134.5 283,-134.5"/>
<text text-anchor="start" x="291" y="-152.5" font-family="Helvetica,sans-Serif" font-size="10.00">typeClassDefs/WEBOTS</text>
<text text-anchor="middle" x="345.5" y="-141.5" font-family="Helvetica,sans-Serif" font-size="10.00">_NXT_camera.h</text>
</a>
</g>
</g>
<!-- Node1&#45;&gt;Node8 -->
<g id="edge7" class="edge">
<title>Node1&#45;&gt;Node8</title>
<path fill="none" stroke="midnightblue" d="M299.67,-194.31C309.87,-184.56 321.69,-173.26 330.77,-164.58"/>
<polygon fill="midnightblue" stroke="midnightblue" points="297.07,-191.96 292.25,-201.4 301.9,-197.02 297.07,-191.96"/>
</g>
<!-- Node3 -->
<g id="node3" class="node">
<title>Node3</title>
<g id="a_node3"><a xlink:href="_simple_whiteboard_test_8h.html" target="_top" xlink:title=" ">
<polygon fill="none" stroke="black" points="9,-67.5 9,-97.5 134,-97.5 134,-67.5 9,-67.5"/>
<text text-anchor="start" x="17" y="-85.5" font-family="Helvetica,sans-Serif" font-size="10.00">SimpleWhiteboardTest</text>
<text text-anchor="middle" x="71.5" y="-74.5" font-family="Helvetica,sans-Serif" font-size="10.00">/SimpleWhiteboardTest.h</text>
</a>
</g>
</g>
<!-- Node2&#45;&gt;Node3 -->
<g id="edge2" class="edge">
<title>Node2&#45;&gt;Node3</title>
<path fill="none" stroke="midnightblue" d="M182.96,-135.62C159.44,-124.63 125.69,-108.84 101.5,-97.53"/>
<polygon fill="midnightblue" stroke="midnightblue" points="181.5,-138.8 192.04,-139.87 184.47,-132.46 181.5,-138.8"/>
</g>
<!-- Node5 -->
<g id="node5" class="node">
<title>Node5</title>
<g id="a_node5"><a xlink:href="guwhiteboardgetter_8h.html" target="_top" xlink:title=" ">
<polygon fill="none" stroke="black" points="157,-73 157,-92 264,-92 264,-73 157,-73"/>
<text text-anchor="middle" x="210.5" y="-80" font-family="Helvetica,sans-Serif" font-size="10.00">guwhiteboardgetter.h</text>
</a>
</g>
</g>
<!-- Node2&#45;&gt;Node5 -->
<g id="edge4" class="edge">
<title>Node2&#45;&gt;Node5</title>
<path fill="none" stroke="midnightblue" d="M210.5,-129.54C210.5,-117.17 210.5,-101.62 210.5,-92.13"/>
<polygon fill="midnightblue" stroke="midnightblue" points="207,-129.73 210.5,-139.73 214,-129.73 207,-129.73"/>
</g>
<!-- Node7 -->
<g id="node7" class="node">
<title>Node7</title>
<g id="a_node7"><a xlink:href="guwhiteboardposter_8cpp.html" target="_top" xlink:title=" ">
<polygon fill="none" stroke="black" points="282,-73 282,-92 401,-92 401,-73 282,-73"/>
<text text-anchor="middle" x="341.5" y="-80" font-family="Helvetica,sans-Serif" font-size="10.00">guwhiteboardposter.cpp</text>
</a>
</g>
</g>
<!-- Node2&#45;&gt;Node7 -->
<g id="edge6" class="edge">
<title>Node2&#45;&gt;Node7</title>
<path fill="none" stroke="midnightblue" d="M237.16,-135.27C263.1,-122.4 301.78,-103.21 324.03,-92.17"/>
<polygon fill="midnightblue" stroke="midnightblue" points="235.3,-132.29 227.9,-139.87 238.41,-138.56 235.3,-132.29"/>
</g>
<!-- Node4 -->
<g id="node4" class="node">
<title>Node4</title>
<g id="a_node4"><a xlink:href="_simple_whiteboard_test_8mm.html" target="_top" xlink:title=" ">
<polygon fill="none" stroke="black" points="0,-0.5 0,-30.5 137,-30.5 137,-0.5 0,-0.5"/>
<text text-anchor="start" x="8" y="-18.5" font-family="Helvetica,sans-Serif" font-size="10.00">SimpleWhiteboardTest</text>
<text text-anchor="middle" x="68.5" y="-7.5" font-family="Helvetica,sans-Serif" font-size="10.00">/SimpleWhiteboardTest.mm</text>
</a>
</g>
</g>
<!-- Node3&#45;&gt;Node4 -->
<g id="edge3" class="edge">
<title>Node3&#45;&gt;Node4</title>
<path fill="none" stroke="midnightblue" d="M70.39,-57.4C69.97,-48.37 69.51,-38.41 69.15,-30.58"/>
<polygon fill="midnightblue" stroke="midnightblue" points="66.89,-57.57 70.85,-67.4 73.88,-57.25 66.89,-57.57"/>
</g>
<!-- Node6 -->
<g id="node6" class="node">
<title>Node6</title>
<g id="a_node6"><a xlink:href="guwhiteboardgetter_8cpp.html" target="_top" xlink:title=" ">
<polygon fill="none" stroke="black" points="155,-6 155,-25 272,-25 272,-6 155,-6"/>
<text text-anchor="middle" x="213.5" y="-13" font-family="Helvetica,sans-Serif" font-size="10.00">guwhiteboardgetter.cpp</text>
</a>
</g>
</g>
<!-- Node5&#45;&gt;Node6 -->
<g id="edge5" class="edge">
<title>Node5&#45;&gt;Node6</title>
<path fill="none" stroke="midnightblue" d="M211.38,-62.54C211.95,-50.17 212.66,-34.62 213.1,-25.13"/>
<polygon fill="midnightblue" stroke="midnightblue" points="207.87,-62.58 210.9,-72.73 214.86,-62.91 207.87,-62.58"/>
</g>
</g>
</svg>
