<?xml version="1.0" encoding="UTF-8" standalone="no"?>
<!DOCTYPE svg PUBLIC "-//W3C//DTD SVG 1.1//EN"
 "http://www.w3.org/Graphics/SVG/1.1/DTD/svg11.dtd">
<!-- Generated by graphviz version 2.49.0 (20210830.1337)
 -->
<!-- Title: typeClassDefs/WEBOTS_NXT_bridge.h Pages: 1 -->
<svg width="1283pt" height="307pt"
 viewBox="0.00 0.00 1283.00 307.00" xmlns="http://www.w3.org/2000/svg" xmlns:xlink="http://www.w3.org/1999/xlink">
<g id="graph0" class="graph" transform="scale(1 1) rotate(0) translate(4 303)">
<title>typeClassDefs/WEBOTS_NXT_bridge.h</title>
<!-- Node1 -->
<g id="node1" class="node">
<title>Node1</title>
<g id="a_node1"><a xlink:title=" ">
<polygon fill="#bfbfbf" stroke="black" points="589,-268.5 589,-298.5 714,-298.5 714,-268.5 589,-268.5"/>
<text text-anchor="start" x="597" y="-286.5" font-family="Helvetica,sans-Serif" font-size="10.00">typeClassDefs/WEBOTS</text>
<text text-anchor="middle" x="651.5" y="-275.5" font-family="Helvetica,sans-Serif" font-size="10.00">_NXT_bridge.h</text>
</a>
</g>
</g>
<!-- Node2 -->
<g id="node2" class="node">
<title>Node2</title>
<g id="a_node2"><a xlink:href="_w_e_b_o_t_s___n_x_t__bumper_8hpp.html" target="_top" xlink:title=" ">
<polygon fill="none" stroke="black" points="1100,-201.5 1100,-231.5 1225,-231.5 1225,-201.5 1100,-201.5"/>
<text text-anchor="start" x="1108" y="-219.5" font-family="Helvetica,sans-Serif" font-size="10.00">typeClassDefs/WEBOTS</text>
<text text-anchor="middle" x="1162.5" y="-208.5" font-family="Helvetica,sans-Serif" font-size="10.00">_NXT_bumper.hpp</text>
</a>
</g>
</g>
<!-- Node1&#45;&gt;Node2 -->
<g id="edge1" class="edge">
<title>Node1&#45;&gt;Node2</title>
<path fill="none" stroke="midnightblue" d="M724.31,-276.02C811.61,-267.81 962.21,-252.26 1090.5,-232 1093.52,-231.52 1096.61,-231.01 1099.73,-230.47"/>
<polygon fill="midnightblue" stroke="midnightblue" points="723.88,-272.54 714.25,-276.96 724.53,-279.51 723.88,-272.54"/>
</g>
<!-- Node10 -->
<g id="node10" class="node">
<title>Node10</title>
<g id="a_node10"><a xlink:href="_w_e_b_o_t_s___n_x_t__camera_8hpp.html" target="_top" xlink:title=" ">
<polygon fill="none" stroke="black" points="50,-201.5 50,-231.5 175,-231.5 175,-201.5 50,-201.5"/>
<text text-anchor="start" x="58" y="-219.5" font-family="Helvetica,sans-Serif" font-size="10.00">typeClassDefs/WEBOTS</text>
<text text-anchor="middle" x="112.5" y="-208.5" font-family="Helvetica,sans-Serif" font-size="10.00">_NXT_camera.hpp</text>
</a>
</g>
</g>
<!-- Node1&#45;&gt;Node10 -->
<g id="edge9" class="edge">
<title>Node1&#45;&gt;Node10</title>
<path fill="none" stroke="midnightblue" d="M578.73,-276.78C486.46,-269.04 322.62,-253.66 183.5,-232 180.77,-231.57 177.98,-231.11 175.16,-230.63"/>
<polygon fill="midnightblue" stroke="midnightblue" points="578.55,-280.28 588.8,-277.62 579.13,-273.3 578.55,-280.28"/>
</g>
<!-- Node12 -->
<g id="node12" class="node">
<title>Node12</title>
<g id="a_node12"><a xlink:href="_w_e_b_o_t_s___n_x_t__color_line__walk_8hpp.html" target="_top" xlink:title=" ">
<polygon fill="none" stroke="black" points="193,-201.5 193,-231.5 324,-231.5 324,-201.5 193,-201.5"/>
<text text-anchor="start" x="201" y="-219.5" font-family="Helvetica,sans-Serif" font-size="10.00">typeClassDefs/WEBOTS</text>
<text text-anchor="middle" x="258.5" y="-208.5" font-family="Helvetica,sans-Serif" font-size="10.00">_NXT_colorLine_walk.hpp</text>
</a>
</g>
</g>
<!-- Node1&#45;&gt;Node12 -->
<g id="edge12" class="edge">
<title>Node1&#45;&gt;Node12</title>
<path fill="none" stroke="midnightblue" d="M578.87,-271.67C514.34,-261.89 417.5,-246.79 333.5,-232 330.5,-231.47 327.43,-230.92 324.33,-230.36"/>
<polygon fill="midnightblue" stroke="midnightblue" points="578.53,-275.16 588.95,-273.2 579.58,-268.24 578.53,-275.16"/>
</g>
<!-- Node14 -->
<g id="node14" class="node">
<title>Node14</title>
<g id="a_node14"><a xlink:href="_w_e_b_o_t_s___n_x_t__dead_reakoning__walk_8hpp.html" target="_top" xlink:title=" ">
<polygon fill="none" stroke="black" points="342.5,-201.5 342.5,-231.5 500.5,-231.5 500.5,-201.5 342.5,-201.5"/>
<text text-anchor="start" x="350.5" y="-219.5" font-family="Helvetica,sans-Serif" font-size="10.00">typeClassDefs/WEBOTS</text>
<text text-anchor="middle" x="421.5" y="-208.5" font-family="Helvetica,sans-Serif" font-size="10.00">_NXT_deadReakoning_walk.hpp</text>
</a>
</g>
</g>
<!-- Node1&#45;&gt;Node14 -->
<g id="edge15" class="edge">
<title>Node1&#45;&gt;Node14</title>
<path fill="none" stroke="midnightblue" d="M592.11,-265.71C554.68,-255.14 506.9,-241.63 471.43,-231.61"/>
<polygon fill="midnightblue" stroke="midnightblue" points="591.3,-269.12 601.88,-268.48 593.21,-262.39 591.3,-269.12"/>
</g>
<!-- Node16 -->
<g id="node16" class="node">
<title>Node16</title>
<g id="a_node16"><a xlink:href="_w_e_b_o_t_s___n_x_t__encoders_8hpp.html" target="_top" xlink:title=" ">
<polygon fill="none" stroke="black" points="518,-201.5 518,-231.5 643,-231.5 643,-201.5 518,-201.5"/>
<text text-anchor="start" x="526" y="-219.5" font-family="Helvetica,sans-Serif" font-size="10.00">typeClassDefs/WEBOTS</text>
<text text-anchor="middle" x="580.5" y="-208.5" font-family="Helvetica,sans-Serif" font-size="10.00">_NXT_encoders.hpp</text>
</a>
</g>
</g>
<!-- Node1&#45;&gt;Node16 -->
<g id="edge18" class="edge">
<title>Node1&#45;&gt;Node16</title>
<path fill="none" stroke="midnightblue" d="M628.67,-261.6C617.95,-251.78 605.45,-240.34 595.88,-231.58"/>
<polygon fill="midnightblue" stroke="midnightblue" points="626.35,-264.22 636.09,-268.4 631.08,-259.06 626.35,-264.22"/>
</g>
<!-- Node18 -->
<g id="node18" class="node">
<title>Node18</title>
<g id="a_node18"><a xlink:href="_w_e_b_o_t_s___n_x_t__grid_motions_8hpp.html" target="_top" xlink:title=" ">
<polygon fill="none" stroke="black" points="661,-201.5 661,-231.5 786,-231.5 786,-201.5 661,-201.5"/>
<text text-anchor="start" x="669" y="-219.5" font-family="Helvetica,sans-Serif" font-size="10.00">typeClassDefs/WEBOTS</text>
<text text-anchor="middle" x="723.5" y="-208.5" font-family="Helvetica,sans-Serif" font-size="10.00">_NXT_gridMotions.hpp</text>
</a>
</g>
</g>
<!-- Node1&#45;&gt;Node18 -->
<g id="edge21" class="edge">
<title>Node1&#45;&gt;Node18</title>
<path fill="none" stroke="midnightblue" d="M674.65,-261.6C685.52,-251.78 698.2,-240.34 707.91,-231.58"/>
<polygon fill="midnightblue" stroke="midnightblue" points="672.2,-259.1 667.12,-268.4 676.89,-264.29 672.2,-259.1"/>
</g>
<!-- Node20 -->
<g id="node20" class="node">
<title>Node20</title>
<g id="a_node20"><a xlink:href="_w_e_b_o_t_s___n_x_t__vector__bridge_8hpp.html" target="_top" xlink:title=" ">
<polygon fill="none" stroke="black" points="804,-201.5 804,-231.5 929,-231.5 929,-201.5 804,-201.5"/>
<text text-anchor="start" x="812" y="-219.5" font-family="Helvetica,sans-Serif" font-size="10.00">typeClassDefs/WEBOTS</text>
<text text-anchor="middle" x="866.5" y="-208.5" font-family="Helvetica,sans-Serif" font-size="10.00">_NXT_vector_bridge.hpp</text>
</a>
</g>
</g>
<!-- Node1&#45;&gt;Node20 -->
<g id="edge24" class="edge">
<title>Node1&#45;&gt;Node20</title>
<path fill="none" stroke="midnightblue" d="M707.47,-265.58C742.39,-255.02 786.81,-241.59 819.83,-231.61"/>
<polygon fill="midnightblue" stroke="midnightblue" points="706.45,-262.23 697.89,-268.48 708.47,-268.93 706.45,-262.23"/>
</g>
<!-- Node22 -->
<g id="node22" class="node">
<title>Node22</title>
<g id="a_node22"><a xlink:href="_w_e_b_o_t_s___n_x_t__walk__is_running_8hpp.html" target="_top" xlink:title=" ">
<polygon fill="none" stroke="black" points="947.5,-201.5 947.5,-231.5 1081.5,-231.5 1081.5,-201.5 947.5,-201.5"/>
<text text-anchor="start" x="955.5" y="-219.5" font-family="Helvetica,sans-Serif" font-size="10.00">typeClassDefs/WEBOTS</text>
<text text-anchor="middle" x="1014.5" y="-208.5" font-family="Helvetica,sans-Serif" font-size="10.00">_NXT_walk_isRunning.hpp</text>
</a>
</g>
</g>
<!-- Node1&#45;&gt;Node22 -->
<g id="edge27" class="edge">
<title>Node1&#45;&gt;Node22</title>
<path fill="none" stroke="midnightblue" d="M724.43,-269.97C782.46,-259.92 865.74,-245.34 938.5,-232 941.41,-231.47 944.38,-230.92 947.37,-230.36"/>
<polygon fill="midnightblue" stroke="midnightblue" points="723.51,-266.57 714.25,-271.73 724.7,-273.47 723.51,-266.57"/>
</g>
<!-- Node3 -->
<g id="node3" class="node">
<title>Node3</title>
<g id="a_node3"><a xlink:href="guwhiteboardposter_8h.html" target="_top" xlink:title=" ">
<polygon fill="none" stroke="black" points="594,-140 594,-159 703,-159 703,-140 594,-140"/>
<text text-anchor="middle" x="648.5" y="-147" font-family="Helvetica,sans-Serif" font-size="10.00">guwhiteboardposter.h</text>
</a>
</g>
</g>
<!-- Node2&#45;&gt;Node3 -->
<g id="edge2" class="edge">
<title>Node2&#45;&gt;Node3</title>
<path fill="none" stroke="midnightblue" d="M1089.82,-201.01C921.82,-176.88 875.96,-191.19 712.5,-165 702.71,-163.43 692.19,-161.25 682.55,-159.06"/>
<polygon fill="midnightblue" stroke="midnightblue" points="1089.34,-204.48 1099.74,-202.46 1090.35,-197.55 1089.34,-204.48"/>
</g>
<!-- Node9 -->
<g id="node9" class="node">
<title>Node9</title>
<g id="a_node9"><a xlink:href="_w_e_b_o_t_s___n_x_t__bumper_8h.html" target="_top" xlink:title=" ">
<polygon fill="none" stroke="black" points="1150,-134.5 1150,-164.5 1275,-164.5 1275,-134.5 1150,-134.5"/>
<text text-anchor="start" x="1158" y="-152.5" font-family="Helvetica,sans-Serif" font-size="10.00">typeClassDefs/WEBOTS</text>
<text text-anchor="middle" x="1212.5" y="-141.5" font-family="Helvetica,sans-Serif" font-size="10.00">_NXT_bumper.h</text>
</a>
</g>
</g>
<!-- Node2&#45;&gt;Node9 -->
<g id="edge8" class="edge">
<title>Node2&#45;&gt;Node9</title>
<path fill="none" stroke="midnightblue" d="M1179.46,-193.45C1186.81,-183.9 1195.19,-173 1201.67,-164.58"/>
<polygon fill="midnightblue" stroke="midnightblue" points="1176.67,-191.34 1173.35,-201.4 1182.22,-195.6 1176.67,-191.34"/>
</g>
<!-- Node4 -->
<g id="node4" class="node">
<title>Node4</title>
<g id="a_node4"><a xlink:href="_simple_whiteboard_test_8h.html" target="_top" xlink:title=" ">
<polygon fill="none" stroke="black" points="449,-67.5 449,-97.5 574,-97.5 574,-67.5 449,-67.5"/>
<text text-anchor="start" x="457" y="-85.5" font-family="Helvetica,sans-Serif" font-size="10.00">SimpleWhiteboardTest</text>
<text text-anchor="middle" x="511.5" y="-74.5" font-family="Helvetica,sans-Serif" font-size="10.00">/SimpleWhiteboardTest.h</text>
</a>
</g>
</g>
<!-- Node3&#45;&gt;Node4 -->
<g id="edge3" class="edge">
<title>Node3&#45;&gt;Node4</title>
<path fill="none" stroke="midnightblue" d="M621.04,-135.47C597.88,-124.49 564.81,-108.79 541.07,-97.53"/>
<polygon fill="midnightblue" stroke="midnightblue" points="619.77,-138.74 630.31,-139.87 622.77,-132.42 619.77,-138.74"/>
</g>
<!-- Node6 -->
<g id="node6" class="node">
<title>Node6</title>
<g id="a_node6"><a xlink:href="guwhiteboardgetter_8h.html" target="_top" xlink:title=" ">
<polygon fill="none" stroke="black" points="595,-73 595,-92 702,-92 702,-73 595,-73"/>
<text text-anchor="middle" x="648.5" y="-80" font-family="Helvetica,sans-Serif" font-size="10.00">guwhiteboardgetter.h</text>
</a>
</g>
</g>
<!-- Node3&#45;&gt;Node6 -->
<g id="edge5" class="edge">
<title>Node3&#45;&gt;Node6</title>
<path fill="none" stroke="midnightblue" d="M648.5,-129.54C648.5,-117.17 648.5,-101.62 648.5,-92.13"/>
<polygon fill="midnightblue" stroke="midnightblue" points="645,-129.73 648.5,-139.73 652,-129.73 645,-129.73"/>
</g>
<!-- Node8 -->
<g id="node8" class="node">
<title>Node8</title>
<g id="a_node8"><a xlink:href="guwhiteboardposter_8cpp.html" target="_top" xlink:title=" ">
<polygon fill="none" stroke="black" points="720,-73 720,-92 839,-92 839,-73 720,-73"/>
<text text-anchor="middle" x="779.5" y="-80" font-family="Helvetica,sans-Serif" font-size="10.00">guwhiteboardposter.cpp</text>
</a>
</g>
</g>
<!-- Node3&#45;&gt;Node8 -->
<g id="edge7" class="edge">
<title>Node3&#45;&gt;Node8</title>
<path fill="none" stroke="midnightblue" d="M675.16,-135.27C701.1,-122.4 739.78,-103.21 762.03,-92.17"/>
<polygon fill="midnightblue" stroke="midnightblue" points="673.3,-132.29 665.9,-139.87 676.41,-138.56 673.3,-132.29"/>
</g>
<!-- Node5 -->
<g id="node5" class="node">
<title>Node5</title>
<g id="a_node5"><a xlink:href="_simple_whiteboard_test_8mm.html" target="_top" xlink:title=" ">
<polygon fill="none" stroke="black" points="438,-0.5 438,-30.5 575,-30.5 575,-0.5 438,-0.5"/>
<text text-anchor="start" x="446" y="-18.5" font-family="Helvetica,sans-Serif" font-size="10.00">SimpleWhiteboardTest</text>
<text text-anchor="middle" x="506.5" y="-7.5" font-family="Helvetica,sans-Serif" font-size="10.00">/SimpleWhiteboardTest.mm</text>
</a>
</g>
</g>
<!-- Node4&#45;&gt;Node5 -->
<g id="edge4" class="edge">
<title>Node4&#45;&gt;Node5</title>
<path fill="none" stroke="midnightblue" d="M509.65,-57.4C508.95,-48.37 508.19,-38.41 507.58,-30.58"/>
<polygon fill="midnightblue" stroke="midnightblue" points="506.16,-57.69 510.42,-67.4 513.14,-57.16 506.16,-57.69"/>
</g>
<!-- Node7 -->
<g id="node7" class="node">
<title>Node7</title>
<g id="a_node7"><a xlink:href="guwhiteboardgetter_8cpp.html" target="_top" xlink:title=" ">
<polygon fill="none" stroke="black" points="593,-6 593,-25 710,-25 710,-6 593,-6"/>
<text text-anchor="middle" x="651.5" y="-13" font-family="Helvetica,sans-Serif" font-size="10.00">guwhiteboardgetter.cpp</text>
</a>
</g>
</g>
<!-- Node6&#45;&gt;Node7 -->
<g id="edge6" class="edge">
<title>Node6&#45;&gt;Node7</title>
<path fill="none" stroke="midnightblue" d="M649.38,-62.54C649.95,-50.17 650.66,-34.62 651.1,-25.13"/>
<polygon fill="midnightblue" stroke="midnightblue" points="645.87,-62.58 648.9,-72.73 652.86,-62.91 645.87,-62.58"/>
</g>
<!-- Node10&#45;&gt;Node3 -->
<g id="edge10" class="edge">
<title>Node10&#45;&gt;Node3</title>
<path fill="none" stroke="midnightblue" d="M185.07,-200.88C362.3,-175.68 410.93,-192.33 584.5,-165 594.4,-163.44 605.06,-161.24 614.78,-159.02"/>
<polygon fill="midnightblue" stroke="midnightblue" points="184.55,-197.41 175.15,-202.31 185.55,-204.34 184.55,-197.41"/>
</g>
<!-- Node11 -->
<g id="node11" class="node">
<title>Node11</title>
<g id="a_node11"><a xlink:href="_w_e_b_o_t_s___n_x_t__camera_8h.html" target="_top" xlink:title=" ">
<polygon fill="none" stroke="black" points="0,-134.5 0,-164.5 125,-164.5 125,-134.5 0,-134.5"/>
<text text-anchor="start" x="8" y="-152.5" font-family="Helvetica,sans-Serif" font-size="10.00">typeClassDefs/WEBOTS</text>
<text text-anchor="middle" x="62.5" y="-141.5" font-family="Helvetica,sans-Serif" font-size="10.00">_NXT_camera.h</text>
</a>
</g>
</g>
<!-- Node10&#45;&gt;Node11 -->
<g id="edge11" class="edge">
<title>Node10&#45;&gt;Node11</title>
<path fill="none" stroke="midnightblue" d="M95.54,-193.45C88.19,-183.9 79.81,-173 73.33,-164.58"/>
<polygon fill="midnightblue" stroke="midnightblue" points="92.78,-195.6 101.65,-201.4 98.33,-191.34 92.78,-195.6"/>
</g>
<!-- Node12&#45;&gt;Node3 -->
<g id="edge13" class="edge">
<title>Node12&#45;&gt;Node3</title>
<path fill="none" stroke="midnightblue" d="M334.32,-200.92C446.35,-182.46 476.82,-184.89 584.5,-165 593.8,-163.28 603.8,-161.15 613.06,-159.06"/>
<polygon fill="midnightblue" stroke="midnightblue" points="333.61,-197.49 324.32,-202.59 334.76,-204.4 333.61,-197.49"/>
</g>
<!-- Node13 -->
<g id="node13" class="node">
<title>Node13</title>
<g id="a_node13"><a xlink:href="_w_e_b_o_t_s___n_x_t__color_line__walk_8h.html" target="_top" xlink:title=" ">
<polygon fill="none" stroke="black" points="143,-134.5 143,-164.5 268,-164.5 268,-134.5 143,-134.5"/>
<text text-anchor="start" x="151" y="-152.5" font-family="Helvetica,sans-Serif" font-size="10.00">typeClassDefs/WEBOTS</text>
<text text-anchor="middle" x="205.5" y="-141.5" font-family="Helvetica,sans-Serif" font-size="10.00">_NXT_colorLine_walk.h</text>
</a>
</g>
</g>
<!-- Node12&#45;&gt;Node13 -->
<g id="edge14" class="edge">
<title>Node12&#45;&gt;Node13</title>
<path fill="none" stroke="midnightblue" d="M240.52,-193.45C232.73,-183.9 223.85,-173 216.98,-164.58"/>
<polygon fill="midnightblue" stroke="midnightblue" points="237.97,-195.86 247,-201.4 243.39,-191.43 237.97,-195.86"/>
</g>
<!-- Node14&#45;&gt;Node3 -->
<g id="edge16" class="edge">
<title>Node14&#45;&gt;Node3</title>
<path fill="none" stroke="midnightblue" d="M480.27,-198.67C524.64,-185.97 583.67,-169.06 618.72,-159.03"/>
<polygon fill="midnightblue" stroke="midnightblue" points="479.13,-195.36 470.48,-201.48 481.05,-202.09 479.13,-195.36"/>
</g>
<!-- Node15 -->
<g id="node15" class="node">
<title>Node15</title>
<g id="a_node15"><a xlink:href="_w_e_b_o_t_s___n_x_t__dead_reakoning__walk_8h.html" target="_top" xlink:title=" ">
<polygon fill="none" stroke="black" points="286,-134.5 286,-164.5 433,-164.5 433,-134.5 286,-134.5"/>
<text text-anchor="start" x="294" y="-152.5" font-family="Helvetica,sans-Serif" font-size="10.00">typeClassDefs/WEBOTS</text>
<text text-anchor="middle" x="359.5" y="-141.5" font-family="Helvetica,sans-Serif" font-size="10.00">_NXT_deadReakoning_walk.h</text>
</a>
</g>
</g>
<!-- Node14&#45;&gt;Node15 -->
<g id="edge17" class="edge">
<title>Node14&#45;&gt;Node15</title>
<path fill="none" stroke="midnightblue" d="M401.02,-194.02C391.78,-184.34 381.13,-173.17 372.93,-164.58"/>
<polygon fill="midnightblue" stroke="midnightblue" points="398.61,-196.58 408.05,-201.4 403.68,-191.74 398.61,-196.58"/>
</g>
<!-- Node16&#45;&gt;Node3 -->
<g id="edge19" class="edge">
<title>Node16&#45;&gt;Node3</title>
<path fill="none" stroke="midnightblue" d="M602.64,-194.34C615.13,-182.4 630.05,-168.14 639.4,-159.19"/>
<polygon fill="midnightblue" stroke="midnightblue" points="600.07,-191.96 595.25,-201.4 604.9,-197.02 600.07,-191.96"/>
</g>
<!-- Node17 -->
<g id="node17" class="node">
<title>Node17</title>
<g id="a_node17"><a xlink:href="_w_e_b_o_t_s___n_x_t__encoders_8h.html" target="_top" xlink:title=" ">
<polygon fill="none" stroke="black" points="451,-134.5 451,-164.5 576,-164.5 576,-134.5 451,-134.5"/>
<text text-anchor="start" x="459" y="-152.5" font-family="Helvetica,sans-Serif" font-size="10.00">typeClassDefs/WEBOTS</text>
<text text-anchor="middle" x="513.5" y="-141.5" font-family="Helvetica,sans-Serif" font-size="10.00">_NXT_encoders.h</text>
</a>
</g>
</g>
<!-- Node16&#45;&gt;Node17 -->
<g id="edge20" class="edge">
<title>Node16&#45;&gt;Node17</title>
<path fill="none" stroke="midnightblue" d="M558.66,-194.31C548.61,-184.56 536.96,-173.26 528.01,-164.58"/>
<polygon fill="midnightblue" stroke="midnightblue" points="556.35,-196.94 565.96,-201.4 561.22,-191.92 556.35,-196.94"/>
</g>
<!-- Node18&#45;&gt;Node3 -->
<g id="edge22" class="edge">
<title>Node18&#45;&gt;Node3</title>
<path fill="none" stroke="midnightblue" d="M699.47,-194.67C685.62,-182.67 668.95,-168.22 658.53,-159.19"/>
<polygon fill="midnightblue" stroke="midnightblue" points="697.38,-197.49 707.23,-201.4 701.96,-192.2 697.38,-197.49"/>
</g>
<!-- Node19 -->
<g id="node19" class="node">
<title>Node19</title>
<g id="a_node19"><a xlink:href="_w_e_b_o_t_s___n_x_t__grid_motions_8h.html" target="_top" xlink:title=" ">
<polygon fill="none" stroke="black" points="721,-134.5 721,-164.5 846,-164.5 846,-134.5 721,-134.5"/>
<text text-anchor="start" x="729" y="-152.5" font-family="Helvetica,sans-Serif" font-size="10.00">typeClassDefs/WEBOTS</text>
<text text-anchor="middle" x="783.5" y="-141.5" font-family="Helvetica,sans-Serif" font-size="10.00">_NXT_gridMotions.h</text>
</a>
</g>
</g>
<!-- Node18&#45;&gt;Node19 -->
<g id="edge23" class="edge">
<title>Node18&#45;&gt;Node19</title>
<path fill="none" stroke="midnightblue" d="M743.32,-194.02C752.26,-184.34 762.57,-173.17 770.51,-164.58"/>
<polygon fill="midnightblue" stroke="midnightblue" points="740.73,-191.67 736.52,-201.4 745.87,-196.42 740.73,-191.67"/>
</g>
<!-- Node20&#45;&gt;Node3 -->
<g id="edge25" class="edge">
<title>Node20&#45;&gt;Node3</title>
<path fill="none" stroke="midnightblue" d="M809.79,-198.59C767.21,-185.9 710.69,-169.04 677.1,-159.03"/>
<polygon fill="midnightblue" stroke="midnightblue" points="808.88,-201.97 819.47,-201.48 810.88,-195.26 808.88,-201.97"/>
</g>
<!-- Node21 -->
<g id="node21" class="node">
<title>Node21</title>
<g id="a_node21"><a xlink:href="_w_e_b_o_t_s___n_x_t__vector__bridge_8h.html" target="_top" xlink:title=" ">
<polygon fill="none" stroke="black" points="864,-134.5 864,-164.5 989,-164.5 989,-134.5 864,-134.5"/>
<text text-anchor="start" x="872" y="-152.5" font-family="Helvetica,sans-Serif" font-size="10.00">typeClassDefs/WEBOTS</text>
<text text-anchor="middle" x="926.5" y="-141.5" font-family="Helvetica,sans-Serif" font-size="10.00">_NXT_vector_bridge.h</text>
</a>
</g>
</g>
<!-- Node20&#45;&gt;Node21 -->
<g id="edge26" class="edge">
<title>Node20&#45;&gt;Node21</title>
<path fill="none" stroke="midnightblue" d="M886.32,-194.02C895.26,-184.34 905.57,-173.17 913.51,-164.58"/>
<polygon fill="midnightblue" stroke="midnightblue" points="883.73,-191.67 879.52,-201.4 888.87,-196.42 883.73,-191.67"/>
</g>
<!-- Node22&#45;&gt;Node3 -->
<g id="edge28" class="edge">
<title>Node22&#45;&gt;Node3</title>
<path fill="none" stroke="midnightblue" d="M937.4,-200.84C836.62,-183.5 809.25,-183.65 712.5,-165 703.33,-163.23 693.46,-161.11 684.29,-159.04"/>
<polygon fill="midnightblue" stroke="midnightblue" points="936.93,-204.32 947.38,-202.58 938.13,-197.42 936.93,-204.32"/>
</g>
<!-- Node23 -->
<g id="node23" class="node">
<title>Node23</title>
<g id="a_node23"><a xlink:href="_w_e_b_o_t_s___n_x_t__walk__is_running_8h.html" target="_top" xlink:title=" ">
<polygon fill="none" stroke="black" points="1007,-134.5 1007,-164.5 1132,-164.5 1132,-134.5 1007,-134.5"/>
<text text-anchor="start" x="1015" y="-152.5" font-family="Helvetica,sans-Serif" font-size="10.00">typeClassDefs/WEBOTS</text>
<text text-anchor="middle" x="1069.5" y="-141.5" font-family="Helvetica,sans-Serif" font-size="10.00">_NXT_walk_isRunning.h</text>
</a>
</g>
</g>
<!-- Node22&#45;&gt;Node23 -->
<g id="edge29" class="edge">
<title>Node22&#45;&gt;Node23</title>
<path fill="none" stroke="midnightblue" d="M1032.92,-193.74C1041.05,-184.12 1050.39,-173.09 1057.59,-164.58"/>
<polygon fill="midnightblue" stroke="midnightblue" points="1030.22,-191.5 1026.43,-201.4 1035.57,-196.02 1030.22,-191.5"/>
</g>
</g>
</svg>
