<?xml version="1.0" encoding="UTF-8" standalone="no"?>
<!DOCTYPE svg PUBLIC "-//W3C//DTD SVG 1.1//EN"
 "http://www.w3.org/Graphics/SVG/1.1/DTD/svg11.dtd">
<!-- Generated by graphviz version 2.49.0 (20210830.1337)
 -->
<!-- Title: typeClassDefs/WEBOTS_NXT_bridge.hpp Pages: 1 -->
<svg width="1291pt" height="374pt"
 viewBox="0.00 0.00 1290.50 374.00" xmlns="http://www.w3.org/2000/svg" xmlns:xlink="http://www.w3.org/1999/xlink">
<g id="graph0" class="graph" transform="scale(1 1) rotate(0) translate(4 370)">
<title>typeClassDefs/WEBOTS_NXT_bridge.hpp</title>
<!-- Node1 -->
<g id="node1" class="node">
<title>Node1</title>
<g id="a_node1"><a xlink:title=" ">
<polygon fill="#bfbfbf" stroke="black" points="874.5,-335.5 874.5,-365.5 999.5,-365.5 999.5,-335.5 874.5,-335.5"/>
<text text-anchor="start" x="882.5" y="-353.5" font-family="Helvetica,sans-Serif" font-size="10.00">typeClassDefs/WEBOTS</text>
<text text-anchor="middle" x="937" y="-342.5" font-family="Helvetica,sans-Serif" font-size="10.00">_NXT_bridge.hpp</text>
</a>
</g>
</g>
<!-- Node2 -->
<g id="node2" class="node">
<title>Node2</title>
<g id="a_node2"><a xlink:href="guwhiteboardposter_8h.html" target="_top" xlink:title=" ">
<polygon fill="none" stroke="black" points="601.5,-140 601.5,-159 710.5,-159 710.5,-140 601.5,-140"/>
<text text-anchor="middle" x="656" y="-147" font-family="Helvetica,sans-Serif" font-size="10.00">guwhiteboardposter.h</text>
</a>
</g>
</g>
<!-- Node1&#45;&gt;Node2 -->
<g id="edge1" class="edge">
<title>Node1&#45;&gt;Node2</title>
<path fill="none" stroke="midnightblue" d="M1009.78,-334.48C1102.59,-312.26 1244.25,-266.11 1184,-201 1148.88,-163.05 771.13,-172.73 720,-165 709.97,-163.48 699.18,-161.27 689.37,-159.03"/>
<polygon fill="midnightblue" stroke="midnightblue" points="1008.77,-331.12 999.84,-336.82 1010.37,-337.94 1008.77,-331.12"/>
</g>
<!-- Node8 -->
<g id="node8" class="node">
<title>Node8</title>
<g id="a_node8"><a xlink:href="_w_e_b_o_t_s___n_x_t__bridge_8h.html" target="_top" xlink:title=" ">
<polygon fill="none" stroke="black" points="609.5,-268.5 609.5,-298.5 734.5,-298.5 734.5,-268.5 609.5,-268.5"/>
<text text-anchor="start" x="617.5" y="-286.5" font-family="Helvetica,sans-Serif" font-size="10.00">typeClassDefs/WEBOTS</text>
<text text-anchor="middle" x="672" y="-275.5" font-family="Helvetica,sans-Serif" font-size="10.00">_NXT_bridge.h</text>
</a>
</g>
</g>
<!-- Node1&#45;&gt;Node8 -->
<g id="edge7" class="edge">
<title>Node1&#45;&gt;Node8</title>
<path fill="none" stroke="midnightblue" d="M869.94,-333.05C826.62,-322.43 770.83,-308.74 729.53,-298.61"/>
<polygon fill="midnightblue" stroke="midnightblue" points="869.28,-336.49 879.83,-335.48 870.95,-329.69 869.28,-336.49"/>
</g>
<!-- Node3 -->
<g id="node3" class="node">
<title>Node3</title>
<g id="a_node3"><a xlink:href="_simple_whiteboard_test_8h.html" target="_top" xlink:title=" ">
<polygon fill="none" stroke="black" points="456.5,-67.5 456.5,-97.5 581.5,-97.5 581.5,-67.5 456.5,-67.5"/>
<text text-anchor="start" x="464.5" y="-85.5" font-family="Helvetica,sans-Serif" font-size="10.00">SimpleWhiteboardTest</text>
<text text-anchor="middle" x="519" y="-74.5" font-family="Helvetica,sans-Serif" font-size="10.00">/SimpleWhiteboardTest.h</text>
</a>
</g>
</g>
<!-- Node2&#45;&gt;Node3 -->
<g id="edge2" class="edge">
<title>Node2&#45;&gt;Node3</title>
<path fill="none" stroke="midnightblue" d="M628.54,-135.47C605.38,-124.49 572.31,-108.79 548.57,-97.53"/>
<polygon fill="midnightblue" stroke="midnightblue" points="627.27,-138.74 637.81,-139.87 630.27,-132.42 627.27,-138.74"/>
</g>
<!-- Node5 -->
<g id="node5" class="node">
<title>Node5</title>
<g id="a_node5"><a xlink:href="guwhiteboardgetter_8h.html" target="_top" xlink:title=" ">
<polygon fill="none" stroke="black" points="602.5,-73 602.5,-92 709.5,-92 709.5,-73 602.5,-73"/>
<text text-anchor="middle" x="656" y="-80" font-family="Helvetica,sans-Serif" font-size="10.00">guwhiteboardgetter.h</text>
</a>
</g>
</g>
<!-- Node2&#45;&gt;Node5 -->
<g id="edge4" class="edge">
<title>Node2&#45;&gt;Node5</title>
<path fill="none" stroke="midnightblue" d="M656,-129.54C656,-117.17 656,-101.62 656,-92.13"/>
<polygon fill="midnightblue" stroke="midnightblue" points="652.5,-129.73 656,-139.73 659.5,-129.73 652.5,-129.73"/>
</g>
<!-- Node7 -->
<g id="node7" class="node">
<title>Node7</title>
<g id="a_node7"><a xlink:href="guwhiteboardposter_8cpp.html" target="_top" xlink:title=" ">
<polygon fill="none" stroke="black" points="727.5,-73 727.5,-92 846.5,-92 846.5,-73 727.5,-73"/>
<text text-anchor="middle" x="787" y="-80" font-family="Helvetica,sans-Serif" font-size="10.00">guwhiteboardposter.cpp</text>
</a>
</g>
</g>
<!-- Node2&#45;&gt;Node7 -->
<g id="edge6" class="edge">
<title>Node2&#45;&gt;Node7</title>
<path fill="none" stroke="midnightblue" d="M682.66,-135.27C708.6,-122.4 747.28,-103.21 769.53,-92.17"/>
<polygon fill="midnightblue" stroke="midnightblue" points="680.8,-132.29 673.4,-139.87 683.91,-138.56 680.8,-132.29"/>
</g>
<!-- Node4 -->
<g id="node4" class="node">
<title>Node4</title>
<g id="a_node4"><a xlink:href="_simple_whiteboard_test_8mm.html" target="_top" xlink:title=" ">
<polygon fill="none" stroke="black" points="445.5,-0.5 445.5,-30.5 582.5,-30.5 582.5,-0.5 445.5,-0.5"/>
<text text-anchor="start" x="453.5" y="-18.5" font-family="Helvetica,sans-Serif" font-size="10.00">SimpleWhiteboardTest</text>
<text text-anchor="middle" x="514" y="-7.5" font-family="Helvetica,sans-Serif" font-size="10.00">/SimpleWhiteboardTest.mm</text>
</a>
</g>
</g>
<!-- Node3&#45;&gt;Node4 -->
<g id="edge3" class="edge">
<title>Node3&#45;&gt;Node4</title>
<path fill="none" stroke="midnightblue" d="M517.15,-57.4C516.45,-48.37 515.69,-38.41 515.08,-30.58"/>
<polygon fill="midnightblue" stroke="midnightblue" points="513.66,-57.69 517.92,-67.4 520.64,-57.16 513.66,-57.69"/>
</g>
<!-- Node6 -->
<g id="node6" class="node">
<title>Node6</title>
<g id="a_node6"><a xlink:href="guwhiteboardgetter_8cpp.html" target="_top" xlink:title=" ">
<polygon fill="none" stroke="black" points="600.5,-6 600.5,-25 717.5,-25 717.5,-6 600.5,-6"/>
<text text-anchor="middle" x="659" y="-13" font-family="Helvetica,sans-Serif" font-size="10.00">guwhiteboardgetter.cpp</text>
</a>
</g>
</g>
<!-- Node5&#45;&gt;Node6 -->
<g id="edge5" class="edge">
<title>Node5&#45;&gt;Node6</title>
<path fill="none" stroke="midnightblue" d="M656.88,-62.54C657.45,-50.17 658.16,-34.62 658.6,-25.13"/>
<polygon fill="midnightblue" stroke="midnightblue" points="653.37,-62.58 656.4,-72.73 660.36,-62.91 653.37,-62.58"/>
</g>
<!-- Node9 -->
<g id="node9" class="node">
<title>Node9</title>
<g id="a_node9"><a xlink:href="_w_e_b_o_t_s___n_x_t__bumper_8hpp.html" target="_top" xlink:title=" ">
<polygon fill="none" stroke="black" points="757.5,-201.5 757.5,-231.5 882.5,-231.5 882.5,-201.5 757.5,-201.5"/>
<text text-anchor="start" x="765.5" y="-219.5" font-family="Helvetica,sans-Serif" font-size="10.00">typeClassDefs/WEBOTS</text>
<text text-anchor="middle" x="820" y="-208.5" font-family="Helvetica,sans-Serif" font-size="10.00">_NXT_bumper.hpp</text>
</a>
</g>
</g>
<!-- Node8&#45;&gt;Node9 -->
<g id="edge8" class="edge">
<title>Node8&#45;&gt;Node9</title>
<path fill="none" stroke="midnightblue" d="M713.51,-264.27C737.08,-253.92 766.14,-241.15 787.95,-231.58"/>
<polygon fill="midnightblue" stroke="midnightblue" points="711.86,-261.17 704.11,-268.4 714.68,-267.58 711.86,-261.17"/>
</g>
<!-- Node11 -->
<g id="node11" class="node">
<title>Node11</title>
<g id="a_node11"><a xlink:href="_w_e_b_o_t_s___n_x_t__camera_8hpp.html" target="_top" xlink:title=" ">
<polygon fill="none" stroke="black" points="900.5,-201.5 900.5,-231.5 1025.5,-231.5 1025.5,-201.5 900.5,-201.5"/>
<text text-anchor="start" x="908.5" y="-219.5" font-family="Helvetica,sans-Serif" font-size="10.00">typeClassDefs/WEBOTS</text>
<text text-anchor="middle" x="963" y="-208.5" font-family="Helvetica,sans-Serif" font-size="10.00">_NXT_camera.hpp</text>
</a>
</g>
</g>
<!-- Node8&#45;&gt;Node11 -->
<g id="edge11" class="edge">
<title>Node8&#45;&gt;Node11</title>
<path fill="none" stroke="midnightblue" d="M744.77,-266.24C792.64,-255.55 854.65,-241.7 900.33,-231.5"/>
<polygon fill="midnightblue" stroke="midnightblue" points="743.78,-262.88 734.78,-268.48 745.31,-269.71 743.78,-262.88"/>
</g>
<!-- Node13 -->
<g id="node13" class="node">
<title>Node13</title>
<g id="a_node13"><a xlink:href="_w_e_b_o_t_s___n_x_t__color_line__walk_8hpp.html" target="_top" xlink:title=" ">
<polygon fill="none" stroke="black" points="1043.5,-201.5 1043.5,-231.5 1174.5,-231.5 1174.5,-201.5 1043.5,-201.5"/>
<text text-anchor="start" x="1051.5" y="-219.5" font-family="Helvetica,sans-Serif" font-size="10.00">typeClassDefs/WEBOTS</text>
<text text-anchor="middle" x="1109" y="-208.5" font-family="Helvetica,sans-Serif" font-size="10.00">_NXT_colorLine_walk.hpp</text>
</a>
</g>
</g>
<!-- Node8&#45;&gt;Node13 -->
<g id="edge14" class="edge">
<title>Node8&#45;&gt;Node13</title>
<path fill="none" stroke="midnightblue" d="M744.86,-273.57C818.28,-264.28 934.76,-248.78 1035,-232 1037.71,-231.55 1040.48,-231.07 1043.27,-230.58"/>
<polygon fill="midnightblue" stroke="midnightblue" points="744.27,-270.11 734.79,-274.83 745.15,-277.06 744.27,-270.11"/>
</g>
<!-- Node15 -->
<g id="node15" class="node">
<title>Node15</title>
<g id="a_node15"><a xlink:href="_w_e_b_o_t_s___n_x_t__dead_reakoning__walk_8hpp.html" target="_top" xlink:title=" ">
<polygon fill="none" stroke="black" points="0,-201.5 0,-231.5 158,-231.5 158,-201.5 0,-201.5"/>
<text text-anchor="start" x="8" y="-219.5" font-family="Helvetica,sans-Serif" font-size="10.00">typeClassDefs/WEBOTS</text>
<text text-anchor="middle" x="79" y="-208.5" font-family="Helvetica,sans-Serif" font-size="10.00">_NXT_deadReakoning_walk.hpp</text>
</a>
</g>
</g>
<!-- Node8&#45;&gt;Node15 -->
<g id="edge17" class="edge">
<title>Node8&#45;&gt;Node15</title>
<path fill="none" stroke="midnightblue" d="M598.99,-276.73C500.47,-268.6 319.62,-252.44 166,-232 163.42,-231.66 160.8,-231.29 158.15,-230.92"/>
<polygon fill="midnightblue" stroke="midnightblue" points="598.88,-280.23 609.13,-277.56 599.45,-273.25 598.88,-280.23"/>
</g>
<!-- Node17 -->
<g id="node17" class="node">
<title>Node17</title>
<g id="a_node17"><a xlink:href="_w_e_b_o_t_s___n_x_t__encoders_8hpp.html" target="_top" xlink:title=" ">
<polygon fill="none" stroke="black" points="175.5,-201.5 175.5,-231.5 300.5,-231.5 300.5,-201.5 175.5,-201.5"/>
<text text-anchor="start" x="183.5" y="-219.5" font-family="Helvetica,sans-Serif" font-size="10.00">typeClassDefs/WEBOTS</text>
<text text-anchor="middle" x="238" y="-208.5" font-family="Helvetica,sans-Serif" font-size="10.00">_NXT_encoders.hpp</text>
</a>
</g>
</g>
<!-- Node8&#45;&gt;Node17 -->
<g id="edge20" class="edge">
<title>Node8&#45;&gt;Node17</title>
<path fill="none" stroke="midnightblue" d="M599.11,-273.74C525.67,-264.58 409.17,-249.18 309,-232 306.27,-231.53 303.49,-231.04 300.68,-230.52"/>
<polygon fill="midnightblue" stroke="midnightblue" points="598.83,-277.23 609.18,-274.99 599.69,-270.28 598.83,-277.23"/>
</g>
<!-- Node19 -->
<g id="node19" class="node">
<title>Node19</title>
<g id="a_node19"><a xlink:href="_w_e_b_o_t_s___n_x_t__grid_motions_8hpp.html" target="_top" xlink:title=" ">
<polygon fill="none" stroke="black" points="318.5,-201.5 318.5,-231.5 443.5,-231.5 443.5,-201.5 318.5,-201.5"/>
<text text-anchor="start" x="326.5" y="-219.5" font-family="Helvetica,sans-Serif" font-size="10.00">typeClassDefs/WEBOTS</text>
<text text-anchor="middle" x="381" y="-208.5" font-family="Helvetica,sans-Serif" font-size="10.00">_NXT_gridMotions.hpp</text>
</a>
</g>
</g>
<!-- Node8&#45;&gt;Node19 -->
<g id="edge23" class="edge">
<title>Node8&#45;&gt;Node19</title>
<path fill="none" stroke="midnightblue" d="M599.23,-266.24C551.36,-255.55 489.35,-241.7 443.67,-231.5"/>
<polygon fill="midnightblue" stroke="midnightblue" points="598.69,-269.71 609.22,-268.48 600.22,-262.88 598.69,-269.71"/>
</g>
<!-- Node21 -->
<g id="node21" class="node">
<title>Node21</title>
<g id="a_node21"><a xlink:href="_w_e_b_o_t_s___n_x_t__vector__bridge_8hpp.html" target="_top" xlink:title=" ">
<polygon fill="none" stroke="black" points="461.5,-201.5 461.5,-231.5 586.5,-231.5 586.5,-201.5 461.5,-201.5"/>
<text text-anchor="start" x="469.5" y="-219.5" font-family="Helvetica,sans-Serif" font-size="10.00">typeClassDefs/WEBOTS</text>
<text text-anchor="middle" x="524" y="-208.5" font-family="Helvetica,sans-Serif" font-size="10.00">_NXT_vector_bridge.hpp</text>
</a>
</g>
</g>
<!-- Node8&#45;&gt;Node21 -->
<g id="edge26" class="edge">
<title>Node8&#45;&gt;Node21</title>
<path fill="none" stroke="midnightblue" d="M630.49,-264.27C606.92,-253.92 577.86,-241.15 556.05,-231.58"/>
<polygon fill="midnightblue" stroke="midnightblue" points="629.32,-267.58 639.89,-268.4 632.14,-261.17 629.32,-267.58"/>
</g>
<!-- Node23 -->
<g id="node23" class="node">
<title>Node23</title>
<g id="a_node23"><a xlink:href="_w_e_b_o_t_s___n_x_t__walk__is_running_8hpp.html" target="_top" xlink:title=" ">
<polygon fill="none" stroke="black" points="605,-201.5 605,-231.5 739,-231.5 739,-201.5 605,-201.5"/>
<text text-anchor="start" x="613" y="-219.5" font-family="Helvetica,sans-Serif" font-size="10.00">typeClassDefs/WEBOTS</text>
<text text-anchor="middle" x="672" y="-208.5" font-family="Helvetica,sans-Serif" font-size="10.00">_NXT_walk_isRunning.hpp</text>
</a>
</g>
</g>
<!-- Node8&#45;&gt;Node23 -->
<g id="edge29" class="edge">
<title>Node8&#45;&gt;Node23</title>
<path fill="none" stroke="midnightblue" d="M672,-258.11C672,-249.15 672,-239.32 672,-231.58"/>
<polygon fill="midnightblue" stroke="midnightblue" points="668.5,-258.4 672,-268.4 675.5,-258.4 668.5,-258.4"/>
</g>
<!-- Node9&#45;&gt;Node2 -->
<g id="edge9" class="edge">
<title>Node9&#45;&gt;Node2</title>
<path fill="none" stroke="midnightblue" d="M774.89,-197.62C743.15,-185.04 702.09,-168.77 677.46,-159.01"/>
<polygon fill="midnightblue" stroke="midnightblue" points="773.83,-200.97 784.41,-201.4 776.41,-194.46 773.83,-200.97"/>
</g>
<!-- Node10 -->
<g id="node10" class="node">
<title>Node10</title>
<g id="a_node10"><a xlink:href="_w_e_b_o_t_s___n_x_t__bumper_8h.html" target="_top" xlink:title=" ">
<polygon fill="none" stroke="black" points="871.5,-134.5 871.5,-164.5 996.5,-164.5 996.5,-134.5 871.5,-134.5"/>
<text text-anchor="start" x="879.5" y="-152.5" font-family="Helvetica,sans-Serif" font-size="10.00">typeClassDefs/WEBOTS</text>
<text text-anchor="middle" x="934" y="-141.5" font-family="Helvetica,sans-Serif" font-size="10.00">_NXT_bumper.h</text>
</a>
</g>
</g>
<!-- Node9&#45;&gt;Node10 -->
<g id="edge10" class="edge">
<title>Node9&#45;&gt;Node10</title>
<path fill="none" stroke="midnightblue" d="M853.68,-196.3C871.52,-186.12 893.04,-173.85 909.31,-164.58"/>
<polygon fill="midnightblue" stroke="midnightblue" points="851.69,-193.4 844.74,-201.4 855.16,-199.48 851.69,-193.4"/>
</g>
<!-- Node11&#45;&gt;Node2 -->
<g id="edge12" class="edge">
<title>Node11&#45;&gt;Node2</title>
<path fill="none" stroke="midnightblue" d="M890.23,-200.53C830.88,-188.29 751.84,-171.92 720,-165 711.32,-163.11 701.98,-161.03 693.2,-159.05"/>
<polygon fill="midnightblue" stroke="midnightblue" points="889.82,-204.02 900.32,-202.61 891.24,-197.16 889.82,-204.02"/>
</g>
<!-- Node12 -->
<g id="node12" class="node">
<title>Node12</title>
<g id="a_node12"><a xlink:href="_w_e_b_o_t_s___n_x_t__camera_8h.html" target="_top" xlink:title=" ">
<polygon fill="none" stroke="black" points="1014.5,-134.5 1014.5,-164.5 1139.5,-164.5 1139.5,-134.5 1014.5,-134.5"/>
<text text-anchor="start" x="1022.5" y="-152.5" font-family="Helvetica,sans-Serif" font-size="10.00">typeClassDefs/WEBOTS</text>
<text text-anchor="middle" x="1077" y="-141.5" font-family="Helvetica,sans-Serif" font-size="10.00">_NXT_camera.h</text>
</a>
</g>
</g>
<!-- Node11&#45;&gt;Node12 -->
<g id="edge13" class="edge">
<title>Node11&#45;&gt;Node12</title>
<path fill="none" stroke="midnightblue" d="M996.68,-196.3C1014.52,-186.12 1036.04,-173.85 1052.31,-164.58"/>
<polygon fill="midnightblue" stroke="midnightblue" points="994.69,-193.4 987.74,-201.4 998.16,-199.48 994.69,-193.4"/>
</g>
<!-- Node13&#45;&gt;Node2 -->
<g id="edge15" class="edge">
<title>Node13&#45;&gt;Node2</title>
<path fill="none" stroke="midnightblue" d="M1033.09,-200.78C893.97,-179.85 855.66,-188.05 720,-165 710.34,-163.36 699.95,-161.18 690.41,-159.02"/>
<polygon fill="midnightblue" stroke="midnightblue" points="1032.87,-204.29 1043.28,-202.34 1033.92,-197.37 1032.87,-204.29"/>
</g>
<!-- Node14 -->
<g id="node14" class="node">
<title>Node14</title>
<g id="a_node14"><a xlink:href="_w_e_b_o_t_s___n_x_t__color_line__walk_8h.html" target="_top" xlink:title=" ">
<polygon fill="none" stroke="black" points="1157.5,-134.5 1157.5,-164.5 1282.5,-164.5 1282.5,-134.5 1157.5,-134.5"/>
<text text-anchor="start" x="1165.5" y="-152.5" font-family="Helvetica,sans-Serif" font-size="10.00">typeClassDefs/WEBOTS</text>
<text text-anchor="middle" x="1220" y="-141.5" font-family="Helvetica,sans-Serif" font-size="10.00">_NXT_colorLine_walk.h</text>
</a>
</g>
</g>
<!-- Node13&#45;&gt;Node14 -->
<g id="edge16" class="edge">
<title>Node13&#45;&gt;Node14</title>
<path fill="none" stroke="midnightblue" d="M1141.8,-196.3C1159.16,-186.12 1180.12,-173.85 1195.96,-164.58"/>
<polygon fill="midnightblue" stroke="midnightblue" points="1139.95,-193.32 1133.09,-201.4 1143.48,-199.36 1139.95,-193.32"/>
</g>
<!-- Node15&#45;&gt;Node2 -->
<g id="edge18" class="edge">
<title>Node15&#45;&gt;Node2</title>
<path fill="none" stroke="midnightblue" d="M168.09,-200.8C356.27,-177.92 407.44,-193.57 592,-165 601.91,-163.47 612.57,-161.27 622.29,-159.06"/>
<polygon fill="midnightblue" stroke="midnightblue" points="167.64,-197.33 158.15,-202.03 168.5,-204.28 167.64,-197.33"/>
</g>
<!-- Node16 -->
<g id="node16" class="node">
<title>Node16</title>
<g id="a_node16"><a xlink:href="_w_e_b_o_t_s___n_x_t__dead_reakoning__walk_8h.html" target="_top" xlink:title=" ">
<polygon fill="none" stroke="black" points="5.5,-134.5 5.5,-164.5 152.5,-164.5 152.5,-134.5 5.5,-134.5"/>
<text text-anchor="start" x="13.5" y="-152.5" font-family="Helvetica,sans-Serif" font-size="10.00">typeClassDefs/WEBOTS</text>
<text text-anchor="middle" x="79" y="-141.5" font-family="Helvetica,sans-Serif" font-size="10.00">_NXT_deadReakoning_walk.h</text>
</a>
</g>
</g>
<!-- Node15&#45;&gt;Node16 -->
<g id="edge19" class="edge">
<title>Node15&#45;&gt;Node16</title>
<path fill="none" stroke="midnightblue" d="M79,-191.11C79,-182.15 79,-172.32 79,-164.58"/>
<polygon fill="midnightblue" stroke="midnightblue" points="75.5,-191.4 79,-201.4 82.5,-191.4 75.5,-191.4"/>
</g>
<!-- Node17&#45;&gt;Node2 -->
<g id="edge21" class="edge">
<title>Node17&#45;&gt;Node2</title>
<path fill="none" stroke="midnightblue" d="M310.64,-200.8C435.83,-180.62 470.31,-186.47 592,-165 601.54,-163.32 611.8,-161.15 621.25,-159.01"/>
<polygon fill="midnightblue" stroke="midnightblue" points="309.98,-197.37 300.67,-202.44 311.11,-204.28 309.98,-197.37"/>
</g>
<!-- Node18 -->
<g id="node18" class="node">
<title>Node18</title>
<g id="a_node18"><a xlink:href="_w_e_b_o_t_s___n_x_t__encoders_8h.html" target="_top" xlink:title=" ">
<polygon fill="none" stroke="black" points="172.5,-134.5 172.5,-164.5 297.5,-164.5 297.5,-134.5 172.5,-134.5"/>
<text text-anchor="start" x="180.5" y="-152.5" font-family="Helvetica,sans-Serif" font-size="10.00">typeClassDefs/WEBOTS</text>
<text text-anchor="middle" x="235" y="-141.5" font-family="Helvetica,sans-Serif" font-size="10.00">_NXT_encoders.h</text>
</a>
</g>
</g>
<!-- Node17&#45;&gt;Node18 -->
<g id="edge22" class="edge">
<title>Node17&#45;&gt;Node18</title>
<path fill="none" stroke="midnightblue" d="M236.89,-191.4C236.47,-182.37 236.01,-172.41 235.65,-164.58"/>
<polygon fill="midnightblue" stroke="midnightblue" points="233.39,-191.57 237.35,-201.4 240.38,-191.25 233.39,-191.57"/>
</g>
<!-- Node19&#45;&gt;Node2 -->
<g id="edge24" class="edge">
<title>Node19&#45;&gt;Node2</title>
<path fill="none" stroke="midnightblue" d="M450.18,-199.15C504.14,-186.39 576.92,-169.19 619.92,-159.03"/>
<polygon fill="midnightblue" stroke="midnightblue" points="449.26,-195.77 440.33,-201.48 450.87,-202.58 449.26,-195.77"/>
</g>
<!-- Node20 -->
<g id="node20" class="node">
<title>Node20</title>
<g id="a_node20"><a xlink:href="_w_e_b_o_t_s___n_x_t__grid_motions_8h.html" target="_top" xlink:title=" ">
<polygon fill="none" stroke="black" points="315.5,-134.5 315.5,-164.5 440.5,-164.5 440.5,-134.5 315.5,-134.5"/>
<text text-anchor="start" x="323.5" y="-152.5" font-family="Helvetica,sans-Serif" font-size="10.00">typeClassDefs/WEBOTS</text>
<text text-anchor="middle" x="378" y="-141.5" font-family="Helvetica,sans-Serif" font-size="10.00">_NXT_gridMotions.h</text>
</a>
</g>
</g>
<!-- Node19&#45;&gt;Node20 -->
<g id="edge25" class="edge">
<title>Node19&#45;&gt;Node20</title>
<path fill="none" stroke="midnightblue" d="M379.89,-191.4C379.47,-182.37 379.01,-172.41 378.65,-164.58"/>
<polygon fill="midnightblue" stroke="midnightblue" points="376.39,-191.57 380.35,-201.4 383.38,-191.25 376.39,-191.57"/>
</g>
<!-- Node21&#45;&gt;Node2 -->
<g id="edge27" class="edge">
<title>Node21&#45;&gt;Node2</title>
<path fill="none" stroke="midnightblue" d="M561.64,-196.97C586.99,-184.48 619.25,-168.6 638.72,-159.01"/>
<polygon fill="midnightblue" stroke="midnightblue" points="560.07,-193.84 552.64,-201.4 563.16,-200.12 560.07,-193.84"/>
</g>
<!-- Node22 -->
<g id="node22" class="node">
<title>Node22</title>
<g id="a_node22"><a xlink:href="_w_e_b_o_t_s___n_x_t__vector__bridge_8h.html" target="_top" xlink:title=" ">
<polygon fill="none" stroke="black" points="458.5,-134.5 458.5,-164.5 583.5,-164.5 583.5,-134.5 458.5,-134.5"/>
<text text-anchor="start" x="466.5" y="-152.5" font-family="Helvetica,sans-Serif" font-size="10.00">typeClassDefs/WEBOTS</text>
<text text-anchor="middle" x="521" y="-141.5" font-family="Helvetica,sans-Serif" font-size="10.00">_NXT_vector_bridge.h</text>
</a>
</g>
</g>
<!-- Node21&#45;&gt;Node22 -->
<g id="edge28" class="edge">
<title>Node21&#45;&gt;Node22</title>
<path fill="none" stroke="midnightblue" d="M522.89,-191.4C522.47,-182.37 522.01,-172.41 521.65,-164.58"/>
<polygon fill="midnightblue" stroke="midnightblue" points="519.39,-191.57 523.35,-201.4 526.38,-191.25 519.39,-191.57"/>
</g>
<!-- Node23&#45;&gt;Node2 -->
<g id="edge30" class="edge">
<title>Node23&#45;&gt;Node2</title>
<path fill="none" stroke="midnightblue" d="M666.12,-191.6C663.33,-180.28 660.18,-167.46 658.14,-159.19"/>
<polygon fill="midnightblue" stroke="midnightblue" points="662.74,-192.52 668.53,-201.4 669.54,-190.85 662.74,-192.52"/>
</g>
<!-- Node24 -->
<g id="node24" class="node">
<title>Node24</title>
<g id="a_node24"><a xlink:href="_w_e_b_o_t_s___n_x_t__walk__is_running_8h.html" target="_top" xlink:title=" ">
<polygon fill="none" stroke="black" points="728.5,-134.5 728.5,-164.5 853.5,-164.5 853.5,-134.5 728.5,-134.5"/>
<text text-anchor="start" x="736.5" y="-152.5" font-family="Helvetica,sans-Serif" font-size="10.00">typeClassDefs/WEBOTS</text>
<text text-anchor="middle" x="791" y="-141.5" font-family="Helvetica,sans-Serif" font-size="10.00">_NXT_walk_isRunning.h</text>
</a>
</g>
</g>
<!-- Node23&#45;&gt;Node24 -->
<g id="edge31" class="edge">
<title>Node23&#45;&gt;Node24</title>
<path fill="none" stroke="midnightblue" d="M706.65,-196.57C725.37,-186.35 748.09,-173.94 765.23,-164.58"/>
<polygon fill="midnightblue" stroke="midnightblue" points="704.92,-193.53 697.82,-201.4 708.28,-199.67 704.92,-193.53"/>
</g>
</g>
</svg>
