<?xml version="1.0" encoding="UTF-8" standalone="no"?>
<!DOCTYPE svg PUBLIC "-//W3C//DTD SVG 1.1//EN"
 "http://www.w3.org/Graphics/SVG/1.1/DTD/svg11.dtd">
<!-- Generated by graphviz version 2.49.0 (20210830.1337)
 -->
<!-- Title: OLD_WB/Whiteboard.cc Pages: 1 -->
<svg width="1272pt" height="442pt"
 viewBox="0.00 0.00 1271.50 442.00" xmlns="http://www.w3.org/2000/svg" xmlns:xlink="http://www.w3.org/1999/xlink">
<g id="graph0" class="graph" transform="scale(1 1) rotate(0) translate(4 438)">
<title>OLD_WB/Whiteboard.cc</title>
<!-- Node1 -->
<g id="node1" class="node">
<title>Node1</title>
<g id="a_node1"><a xlink:title=" ">
<polygon fill="#bfbfbf" stroke="black" points="174,-414.5 174,-433.5 296,-433.5 296,-414.5 174,-414.5"/>
<text text-anchor="middle" x="235" y="-421.5" font-family="Helvetica,sans-Serif" font-size="10.00">OLD_WB/Whiteboard.cc</text>
</a>
</g>
</g>
<!-- Node2 -->
<g id="node2" class="node">
<title>Node2</title>
<g id="a_node2"><a xlink:title=" ">
<polygon fill="none" stroke="#bfbfbf" points="644,-174 644,-193 690,-193 690,-174 644,-174"/>
<text text-anchor="middle" x="667" y="-181" font-family="Helvetica,sans-Serif" font-size="10.00">cstring</text>
</a>
</g>
</g>
<!-- Node1&#45;&gt;Node2 -->
<g id="edge1" class="edge">
<title>Node1&#45;&gt;Node2</title>
<path fill="none" stroke="midnightblue" d="M250.63,-414.37C315.46,-378.58 563.5,-241.64 642.6,-197.97"/>
<polygon fill="midnightblue" stroke="midnightblue" points="644.33,-201.01 651.39,-193.12 640.94,-194.89 644.33,-201.01"/>
</g>
<!-- Node3 -->
<g id="node3" class="node">
<title>Node3</title>
<g id="a_node3"><a xlink:title=" ">
<polygon fill="none" stroke="#bfbfbf" points="87.5,-56.5 87.5,-75.5 140.5,-75.5 140.5,-56.5 87.5,-56.5"/>
<text text-anchor="middle" x="114" y="-63.5" font-family="Helvetica,sans-Serif" font-size="10.00">gu_util.h</text>
</a>
</g>
</g>
<!-- Node1&#45;&gt;Node3 -->
<g id="edge2" class="edge">
<title>Node1&#45;&gt;Node3</title>
<path fill="none" stroke="midnightblue" d="M173.87,-420.09C104.24,-413.1 0,-389.81 0,-313 0,-313 0,-313 0,-182.5 0,-133.7 52.19,-98.06 85.95,-80.11"/>
<polygon fill="midnightblue" stroke="midnightblue" points="87.61,-83.19 94.92,-75.52 84.42,-76.96 87.61,-83.19"/>
</g>
<!-- Node4 -->
<g id="node4" class="node">
<title>Node4</title>
<g id="a_node4"><a xlink:href="_whiteboard_8h.html" target="_top" xlink:title=" ">
<polygon fill="none" stroke="black" points="916.5,-358.5 916.5,-377.5 989.5,-377.5 989.5,-358.5 916.5,-358.5"/>
<text text-anchor="middle" x="953" y="-365.5" font-family="Helvetica,sans-Serif" font-size="10.00">Whiteboard.h</text>
</a>
</g>
</g>
<!-- Node1&#45;&gt;Node4 -->
<g id="edge3" class="edge">
<title>Node1&#45;&gt;Node4</title>
<path fill="none" stroke="midnightblue" d="M296.22,-418.4C436.9,-407.82 780.77,-381.95 906.22,-372.52"/>
<polygon fill="midnightblue" stroke="midnightblue" points="906.56,-376 916.27,-371.76 906.04,-369.02 906.56,-376"/>
</g>
<!-- Node23 -->
<g id="node23" class="node">
<title>Node23</title>
<g id="a_node23"><a xlink:href="guwhiteboardtypelist__c__generated_8h.html" target="_top" xlink:title=" ">
<polygon fill="none" stroke="black" points="222.5,-168.5 222.5,-198.5 327.5,-198.5 327.5,-168.5 222.5,-168.5"/>
<text text-anchor="start" x="230.5" y="-186.5" font-family="Helvetica,sans-Serif" font-size="10.00">guwhiteboardtypelist</text>
<text text-anchor="middle" x="275" y="-175.5" font-family="Helvetica,sans-Serif" font-size="10.00">_c_generated.h</text>
</a>
</g>
</g>
<!-- Node1&#45;&gt;Node23 -->
<g id="edge41" class="edge">
<title>Node1&#45;&gt;Node23</title>
<path fill="none" stroke="midnightblue" d="M230.8,-414.22C218.14,-386.39 182.96,-298.22 213,-235 218.83,-222.73 229.26,-212.46 239.92,-204.46"/>
<polygon fill="midnightblue" stroke="midnightblue" points="242.23,-207.12 248.44,-198.53 238.23,-201.37 242.23,-207.12"/>
</g>
<!-- Node4&#45;&gt;Node3 -->
<g id="edge8" class="edge">
<title>Node4&#45;&gt;Node3</title>
<path fill="none" stroke="midnightblue" d="M916.43,-366.1C750.45,-361.54 76,-337.69 76,-251.5 76,-251.5 76,-251.5 76,-182.5 76,-146.25 93.09,-106.67 104.35,-84.53"/>
<polygon fill="midnightblue" stroke="midnightblue" points="107.46,-86.14 109.03,-75.66 101.27,-82.87 107.46,-86.14"/>
</g>
<!-- Node5 -->
<g id="node5" class="node">
<title>Node5</title>
<g id="a_node5"><a xlink:title=" ">
<polygon fill="none" stroke="#bfbfbf" points="903.5,-0.5 903.5,-19.5 1004.5,-19.5 1004.5,-0.5 903.5,-0.5"/>
<text text-anchor="middle" x="954" y="-7.5" font-family="Helvetica,sans-Serif" font-size="10.00">dispatch/dispatch.h</text>
</a>
</g>
</g>
<!-- Node4&#45;&gt;Node5 -->
<g id="edge4" class="edge">
<title>Node4&#45;&gt;Node5</title>
<path fill="none" stroke="midnightblue" d="M989.62,-358.7C1038.23,-345.27 1118,-313.74 1118,-251.5 1118,-251.5 1118,-251.5 1118,-121 1118,-65.67 1052.83,-36.39 1004.65,-22.3"/>
<polygon fill="midnightblue" stroke="midnightblue" points="1005.53,-18.91 994.96,-19.6 1003.65,-25.65 1005.53,-18.91"/>
</g>
<!-- Node6 -->
<g id="node6" class="node">
<title>Node6</title>
<g id="a_node6"><a xlink:title=" ">
<polygon fill="none" stroke="#bfbfbf" points="869.5,-56.5 869.5,-75.5 910.5,-75.5 910.5,-56.5 869.5,-56.5"/>
<text text-anchor="middle" x="890" y="-63.5" font-family="Helvetica,sans-Serif" font-size="10.00">string</text>
</a>
</g>
</g>
<!-- Node4&#45;&gt;Node6 -->
<g id="edge5" class="edge">
<title>Node4&#45;&gt;Node6</title>
<path fill="none" stroke="midnightblue" d="M959.88,-358.3C973.8,-339.8 1004,-294.68 1004,-251.5 1004,-251.5 1004,-251.5 1004,-182.5 1004,-133.7 951.81,-98.06 918.05,-80.11"/>
<polygon fill="midnightblue" stroke="midnightblue" points="919.58,-76.96 909.08,-75.52 916.39,-83.19 919.58,-76.96"/>
</g>
<!-- Node7 -->
<g id="node7" class="node">
<title>Node7</title>
<g id="a_node7"><a xlink:title=" ">
<polygon fill="none" stroke="#bfbfbf" points="929,-56.5 929,-75.5 973,-75.5 973,-56.5 929,-56.5"/>
<text text-anchor="middle" x="951" y="-63.5" font-family="Helvetica,sans-Serif" font-size="10.00">vector</text>
</a>
</g>
</g>
<!-- Node4&#45;&gt;Node7 -->
<g id="edge6" class="edge">
<title>Node4&#45;&gt;Node7</title>
<path fill="none" stroke="midnightblue" d="M971.41,-358.39C985.95,-350.72 1005.76,-338.21 1018,-322 1037.94,-295.58 1042,-284.6 1042,-251.5 1042,-251.5 1042,-251.5 1042,-182.5 1042,-149.4 1038.13,-138.27 1018,-112 1007.82,-98.71 992.56,-88.03 979.17,-80.41"/>
<polygon fill="midnightblue" stroke="midnightblue" points="980.75,-77.29 970.28,-75.63 977.43,-83.45 980.75,-77.29"/>
</g>
<!-- Node8 -->
<g id="node8" class="node">
<title>Node8</title>
<g id="a_node8"><a xlink:title=" ">
<polygon fill="none" stroke="#bfbfbf" points="991,-56.5 991,-75.5 1045,-75.5 1045,-56.5 991,-56.5"/>
<text text-anchor="middle" x="1018" y="-63.5" font-family="Helvetica,sans-Serif" font-size="10.00">iostream</text>
</a>
</g>
</g>
<!-- Node4&#45;&gt;Node8 -->
<g id="edge7" class="edge">
<title>Node4&#45;&gt;Node8</title>
<path fill="none" stroke="midnightblue" d="M975.71,-358.5C1012.23,-343.17 1080,-307.23 1080,-251.5 1080,-251.5 1080,-251.5 1080,-182.5 1080,-143.3 1051.93,-104.55 1033.56,-83.4"/>
<polygon fill="midnightblue" stroke="midnightblue" points="1035.92,-80.79 1026.62,-75.71 1030.72,-85.48 1035.92,-80.79"/>
</g>
<!-- Node9 -->
<g id="node9" class="node">
<title>Node9</title>
<g id="a_node9"><a xlink:href="gusimplewhiteboard_8h.html" target="_top" xlink:title=" ">
<polygon fill="none" stroke="black" points="455,-56.5 455,-75.5 565,-75.5 565,-56.5 455,-56.5"/>
<text text-anchor="middle" x="510" y="-63.5" font-family="Helvetica,sans-Serif" font-size="10.00">gusimplewhiteboard.h</text>
</a>
</g>
</g>
<!-- Node4&#45;&gt;Node9 -->
<g id="edge9" class="edge">
<title>Node4&#45;&gt;Node9</title>
<path fill="none" stroke="midnightblue" d="M916.49,-361.31C805.31,-343.17 474.77,-282.91 413,-199 381.45,-156.14 447.86,-105.4 485.87,-81.21"/>
<polygon fill="midnightblue" stroke="midnightblue" points="488.19,-83.89 494.85,-75.65 484.5,-77.94 488.19,-83.89"/>
</g>
<!-- Node13 -->
<g id="node13" class="node">
<title>Node13</title>
<g id="a_node13"><a xlink:href="_whiteboard_constants_8h.html" target="_top" xlink:title=" ">
<polygon fill="none" stroke="black" points="1146.5,-302.5 1146.5,-321.5 1263.5,-321.5 1263.5,-302.5 1146.5,-302.5"/>
<text text-anchor="middle" x="1205" y="-309.5" font-family="Helvetica,sans-Serif" font-size="10.00">WhiteboardConstants.h</text>
</a>
</g>
</g>
<!-- Node4&#45;&gt;Node13 -->
<g id="edge14" class="edge">
<title>Node4&#45;&gt;Node13</title>
<path fill="none" stroke="midnightblue" d="M989.64,-359.15C1033.23,-349.81 1106.2,-334.17 1154.96,-323.72"/>
<polygon fill="midnightblue" stroke="midnightblue" points="1155.94,-327.09 1164.98,-321.58 1154.47,-320.25 1155.94,-327.09"/>
</g>
<!-- Node14 -->
<g id="node14" class="node">
<title>Node14</title>
<g id="a_node14"><a xlink:href="_w_b_functor_8h.html" target="_top" xlink:title=" ">
<polygon fill="none" stroke="black" points="319.5,-302.5 319.5,-321.5 392.5,-321.5 392.5,-302.5 319.5,-302.5"/>
<text text-anchor="middle" x="356" y="-309.5" font-family="Helvetica,sans-Serif" font-size="10.00">WBFunctor.h</text>
</a>
</g>
</g>
<!-- Node4&#45;&gt;Node14 -->
<g id="edge15" class="edge">
<title>Node4&#45;&gt;Node14</title>
<path fill="none" stroke="midnightblue" d="M916.46,-363.79C833.64,-356.49 625.27,-338.07 451,-322 435.32,-320.55 418.18,-318.94 402.84,-317.48"/>
<polygon fill="midnightblue" stroke="midnightblue" points="402.82,-313.97 392.54,-316.5 402.16,-320.94 402.82,-313.97"/>
</g>
<!-- Node15 -->
<g id="node15" class="node">
<title>Node15</title>
<g id="a_node15"><a xlink:href="_w_b_msg_8h.html" target="_top" xlink:title=" ">
<polygon fill="none" stroke="black" points="775.5,-241 775.5,-260 834.5,-260 834.5,-241 775.5,-241"/>
<text text-anchor="middle" x="805" y="-248" font-family="Helvetica,sans-Serif" font-size="10.00">WBMsg.h</text>
</a>
</g>
</g>
<!-- Node4&#45;&gt;Node15 -->
<g id="edge40" class="edge">
<title>Node4&#45;&gt;Node15</title>
<path fill="none" stroke="midnightblue" d="M941.88,-358.32C916.81,-338.75 855.64,-291.02 824.26,-266.53"/>
<polygon fill="midnightblue" stroke="midnightblue" points="826.29,-263.68 816.25,-260.28 821.98,-269.19 826.29,-263.68"/>
</g>
<!-- Node9&#45;&gt;Node5 -->
<g id="edge10" class="edge">
<title>Node9&#45;&gt;Node5</title>
<path fill="none" stroke="midnightblue" d="M565.34,-58.27C648.97,-48.1 806.96,-28.88 893.53,-18.36"/>
<polygon fill="midnightblue" stroke="midnightblue" points="893.96,-21.83 903.46,-17.15 893.11,-14.88 893.96,-21.83"/>
</g>
<!-- Node10 -->
<g id="node10" class="node">
<title>Node10</title>
<g id="a_node10"><a xlink:title=" ">
<polygon fill="none" stroke="#bfbfbf" points="400.5,-0.5 400.5,-19.5 465.5,-19.5 465.5,-0.5 400.5,-0.5"/>
<text text-anchor="middle" x="433" y="-7.5" font-family="Helvetica,sans-Serif" font-size="10.00">sys/types.h</text>
</a>
</g>
</g>
<!-- Node9&#45;&gt;Node10 -->
<g id="edge11" class="edge">
<title>Node9&#45;&gt;Node10</title>
<path fill="none" stroke="midnightblue" d="M497.63,-56.32C485.84,-48.06 467.87,-35.45 453.86,-25.63"/>
<polygon fill="midnightblue" stroke="midnightblue" points="455.54,-22.53 445.34,-19.65 451.52,-28.26 455.54,-22.53"/>
</g>
<!-- Node11 -->
<g id="node11" class="node">
<title>Node11</title>
<g id="a_node11"><a xlink:title=" ">
<polygon fill="none" stroke="#bfbfbf" points="483.5,-0.5 483.5,-19.5 536.5,-19.5 536.5,-0.5 483.5,-0.5"/>
<text text-anchor="middle" x="510" y="-7.5" font-family="Helvetica,sans-Serif" font-size="10.00">cstdbool</text>
</a>
</g>
</g>
<!-- Node9&#45;&gt;Node11 -->
<g id="edge12" class="edge">
<title>Node9&#45;&gt;Node11</title>
<path fill="none" stroke="midnightblue" d="M510,-56.08C510,-49.01 510,-38.86 510,-29.99"/>
<polygon fill="midnightblue" stroke="midnightblue" points="513.5,-29.75 510,-19.75 506.5,-29.75 513.5,-29.75"/>
</g>
<!-- Node12 -->
<g id="node12" class="node">
<title>Node12</title>
<g id="a_node12"><a xlink:title=" ">
<polygon fill="none" stroke="#bfbfbf" points="555,-0.5 555,-19.5 605,-19.5 605,-0.5 555,-0.5"/>
<text text-anchor="middle" x="580" y="-7.5" font-family="Helvetica,sans-Serif" font-size="10.00">unistd.h</text>
</a>
</g>
</g>
<!-- Node9&#45;&gt;Node12 -->
<g id="edge13" class="edge">
<title>Node9&#45;&gt;Node12</title>
<path fill="none" stroke="midnightblue" d="M521.25,-56.32C531.8,-48.18 547.8,-35.84 560.44,-26.09"/>
<polygon fill="midnightblue" stroke="midnightblue" points="562.77,-28.71 568.55,-19.83 558.49,-23.17 562.77,-28.71"/>
</g>
<!-- Node14&#45;&gt;Node3 -->
<g id="edge17" class="edge">
<title>Node14&#45;&gt;Node3</title>
<path fill="none" stroke="midnightblue" d="M319.28,-309.21C283.99,-305.69 230.99,-295.45 196,-266 139.54,-218.47 121.39,-125.83 116.04,-85.98"/>
<polygon fill="midnightblue" stroke="midnightblue" points="119.49,-85.32 114.81,-75.81 112.54,-86.16 119.49,-85.32"/>
</g>
<!-- Node14&#45;&gt;Node6 -->
<g id="edge16" class="edge">
<title>Node14&#45;&gt;Node6</title>
<path fill="none" stroke="midnightblue" d="M392.6,-311.53C492.48,-312.36 767.36,-310.44 844,-266 900.61,-233.17 898.27,-197.09 905,-132 905.91,-123.16 906.42,-120.77 905,-112 903.53,-102.96 900.51,-93.28 897.56,-85.22"/>
<polygon fill="midnightblue" stroke="midnightblue" points="900.76,-83.79 893.86,-75.75 894.24,-86.34 900.76,-83.79"/>
</g>
<!-- Node14&#45;&gt;Node9 -->
<g id="edge37" class="edge">
<title>Node14&#45;&gt;Node9</title>
<path fill="none" stroke="midnightblue" d="M354.12,-302.23C348.17,-271.95 332.81,-170.5 380,-112 395.95,-92.23 421.08,-81.12 445.01,-74.89"/>
<polygon fill="midnightblue" stroke="midnightblue" points="445.88,-78.28 454.81,-72.58 444.27,-71.47 445.88,-78.28"/>
</g>
<!-- Node14&#45;&gt;Node15 -->
<g id="edge18" class="edge">
<title>Node14&#45;&gt;Node15</title>
<path fill="none" stroke="midnightblue" d="M392.74,-306.13C476.08,-295.09 678.88,-268.21 765.12,-256.78"/>
<polygon fill="midnightblue" stroke="midnightblue" points="765.84,-260.22 775.29,-255.44 764.92,-253.28 765.84,-260.22"/>
</g>
<!-- Node18 -->
<g id="node18" class="node">
<title>Node18</title>
<g id="a_node18"><a xlink:href="guwhiteboardtypelist__generated_8h.html" target="_top" xlink:title=" ">
<polygon fill="none" stroke="black" points="222.5,-235.5 222.5,-265.5 327.5,-265.5 327.5,-235.5 222.5,-235.5"/>
<text text-anchor="start" x="230.5" y="-253.5" font-family="Helvetica,sans-Serif" font-size="10.00">guwhiteboardtypelist</text>
<text text-anchor="middle" x="275" y="-242.5" font-family="Helvetica,sans-Serif" font-size="10.00">_generated.h</text>
</a>
</g>
</g>
<!-- Node14&#45;&gt;Node18 -->
<g id="edge25" class="edge">
<title>Node14&#45;&gt;Node18</title>
<path fill="none" stroke="midnightblue" d="M344.39,-302.48C333.42,-294.42 316.55,-282.02 302.19,-271.47"/>
<polygon fill="midnightblue" stroke="midnightblue" points="304.22,-268.62 294.09,-265.52 300.08,-274.26 304.22,-268.62"/>
</g>
<!-- Node24 -->
<g id="node24" class="node">
<title>Node24</title>
<g id="a_node24"><a xlink:href="_w_b_functor__types__generated_8h.html" target="_top" xlink:title=" ">
<polygon fill="none" stroke="black" points="141.5,-112.5 141.5,-131.5 290.5,-131.5 290.5,-112.5 141.5,-112.5"/>
<text text-anchor="middle" x="216" y="-119.5" font-family="Helvetica,sans-Serif" font-size="10.00">WBFunctor_types_generated.h</text>
</a>
</g>
</g>
<!-- Node14&#45;&gt;Node24 -->
<g id="edge38" class="edge">
<title>Node14&#45;&gt;Node24</title>
<path fill="none" stroke="midnightblue" d="M319.23,-310.8C285.48,-308.41 237.17,-298.95 213,-266 185.91,-229.07 199.41,-171.13 209.08,-141.62"/>
<polygon fill="midnightblue" stroke="midnightblue" points="212.51,-142.4 212.5,-131.8 205.9,-140.09 212.51,-142.4"/>
</g>
<!-- Node15&#45;&gt;Node2 -->
<g id="edge20" class="edge">
<title>Node15&#45;&gt;Node2</title>
<path fill="none" stroke="midnightblue" d="M786.67,-240.87C763.06,-229.75 721.81,-210.32 694.45,-197.43"/>
<polygon fill="midnightblue" stroke="midnightblue" points="695.94,-194.26 685.4,-193.17 692.96,-200.59 695.94,-194.26"/>
</g>
<!-- Node15&#45;&gt;Node6 -->
<g id="edge21" class="edge">
<title>Node15&#45;&gt;Node6</title>
<path fill="none" stroke="midnightblue" d="M822.73,-240.97C838.16,-232.55 859.76,-218.17 871,-199 892.01,-163.17 892.9,-112.75 891.56,-85.77"/>
<polygon fill="midnightblue" stroke="midnightblue" points="895.05,-85.5 890.9,-75.75 888.06,-85.96 895.05,-85.5"/>
</g>
<!-- Node15&#45;&gt;Node8 -->
<g id="edge22" class="edge">
<title>Node15&#45;&gt;Node8</title>
<path fill="none" stroke="midnightblue" d="M822.7,-240.93C840.74,-231.79 869.11,-216.26 891,-199 936.99,-162.73 982.54,-110.32 1004.48,-83.77"/>
<polygon fill="midnightblue" stroke="midnightblue" points="1007.36,-85.78 1010.98,-75.82 1001.94,-81.35 1007.36,-85.78"/>
</g>
<!-- Node15&#45;&gt;Node9 -->
<g id="edge24" class="edge">
<title>Node15&#45;&gt;Node9</title>
<path fill="none" stroke="midnightblue" d="M792.84,-240.72C779.13,-230.78 756.26,-214 737,-199 719.8,-185.61 717.14,-180.08 699,-168 644.71,-131.84 576.13,-97.84 538.3,-79.99"/>
<polygon fill="midnightblue" stroke="midnightblue" points="539.47,-76.68 528.93,-75.61 536.5,-83.02 539.47,-76.68"/>
</g>
<!-- Node16 -->
<g id="node16" class="node">
<title>Node16</title>
<g id="a_node16"><a xlink:title=" ">
<polygon fill="none" stroke="#bfbfbf" points="816.5,-174 816.5,-193 861.5,-193 861.5,-174 816.5,-174"/>
<text text-anchor="middle" x="839" y="-181" font-family="Helvetica,sans-Serif" font-size="10.00">cstdlib</text>
</a>
</g>
</g>
<!-- Node15&#45;&gt;Node16 -->
<g id="edge19" class="edge">
<title>Node15&#45;&gt;Node16</title>
<path fill="none" stroke="midnightblue" d="M809.59,-240.73C814.73,-230.89 823.22,-214.66 829.76,-202.16"/>
<polygon fill="midnightblue" stroke="midnightblue" points="832.95,-203.61 834.49,-193.13 826.75,-200.37 832.95,-203.61"/>
</g>
<!-- Node17 -->
<g id="node17" class="node">
<title>Node17</title>
<g id="a_node17"><a xlink:title=" ">
<polygon fill="none" stroke="#bfbfbf" points="746,-174 746,-193 798,-193 798,-174 746,-174"/>
<text text-anchor="middle" x="772" y="-181" font-family="Helvetica,sans-Serif" font-size="10.00">sstream</text>
</a>
</g>
</g>
<!-- Node15&#45;&gt;Node17 -->
<g id="edge23" class="edge">
<title>Node15&#45;&gt;Node17</title>
<path fill="none" stroke="midnightblue" d="M800.55,-240.73C795.55,-230.89 787.31,-214.66 780.97,-202.16"/>
<polygon fill="midnightblue" stroke="midnightblue" points="784.03,-200.46 776.38,-193.13 777.79,-203.63 784.03,-200.46"/>
</g>
<!-- Node19 -->
<g id="node19" class="node">
<title>Node19</title>
<g id="a_node19"><a xlink:href="gu_whiteboard__gugenericwhiteboardobject_8h.html" target="_top" xlink:title=" ">
<polygon fill="none" stroke="black" points="422,-174 422,-193 626,-193 626,-174 422,-174"/>
<text text-anchor="middle" x="524" y="-181" font-family="Helvetica,sans-Serif" font-size="10.00">guWhiteboard_gugenericwhiteboardobject.h</text>
</a>
</g>
</g>
<!-- Node18&#45;&gt;Node19 -->
<g id="edge26" class="edge">
<title>Node18&#45;&gt;Node19</title>
<path fill="none" stroke="midnightblue" d="M327.5,-235.79C373.34,-223.83 439.01,-206.69 481.59,-195.57"/>
<polygon fill="midnightblue" stroke="midnightblue" points="482.57,-198.93 491.36,-193.02 480.8,-192.16 482.57,-198.93"/>
</g>
<!-- Node18&#45;&gt;Node23 -->
<g id="edge35" class="edge">
<title>Node18&#45;&gt;Node23</title>
<path fill="none" stroke="midnightblue" d="M275,-235.4C275,-227.64 275,-217.81 275,-208.86"/>
<polygon fill="midnightblue" stroke="midnightblue" points="278.5,-208.58 275,-198.58 271.5,-208.58 278.5,-208.58"/>
</g>
<!-- Node20 -->
<g id="node20" class="node">
<title>Node20</title>
<g id="a_node20"><a xlink:href="gugenericwhiteboardobject_8h.html" target="_top" xlink:title=" ">
<polygon fill="none" stroke="black" points="722,-112.5 722,-131.5 862,-131.5 862,-112.5 722,-112.5"/>
<text text-anchor="middle" x="792" y="-119.5" font-family="Helvetica,sans-Serif" font-size="10.00">gugenericwhiteboardobject.h</text>
</a>
</g>
</g>
<!-- Node19&#45;&gt;Node20 -->
<g id="edge27" class="edge">
<title>Node19&#45;&gt;Node20</title>
<path fill="none" stroke="midnightblue" d="M562.4,-173.98C610.16,-163.37 691.74,-145.26 743.7,-133.72"/>
<polygon fill="midnightblue" stroke="midnightblue" points="744.67,-137.09 753.67,-131.51 743.15,-130.26 744.67,-137.09"/>
</g>
<!-- Node20&#45;&gt;Node3 -->
<g id="edge34" class="edge">
<title>Node20&#45;&gt;Node3</title>
<path fill="none" stroke="midnightblue" d="M722,-115.42C579.4,-104.07 259.58,-78.59 150.93,-69.94"/>
<polygon fill="midnightblue" stroke="midnightblue" points="151.04,-66.44 140.8,-69.13 150.49,-73.42 151.04,-66.44"/>
</g>
<!-- Node20&#45;&gt;Node6 -->
<g id="edge32" class="edge">
<title>Node20&#45;&gt;Node6</title>
<path fill="none" stroke="midnightblue" d="M807.75,-112.32C823.32,-103.74 847.38,-90.49 865.46,-80.52"/>
<polygon fill="midnightblue" stroke="midnightblue" points="867.22,-83.55 874.29,-75.65 863.85,-77.42 867.22,-83.55"/>
</g>
<!-- Node20&#45;&gt;Node7 -->
<g id="edge33" class="edge">
<title>Node20&#45;&gt;Node7</title>
<path fill="none" stroke="midnightblue" d="M817.19,-112.44C844.89,-103.04 889.42,-87.91 919.42,-77.72"/>
<polygon fill="midnightblue" stroke="midnightblue" points="920.65,-81 929,-74.47 918.4,-74.37 920.65,-81"/>
</g>
<!-- Node20&#45;&gt;Node8 -->
<g id="edge31" class="edge">
<title>Node20&#45;&gt;Node8</title>
<path fill="none" stroke="midnightblue" d="M828.81,-112.42C865.09,-103.94 922.36,-90.46 981.07,-76.21"/>
<polygon fill="midnightblue" stroke="midnightblue" points="981.99,-79.58 990.88,-73.82 980.34,-72.78 981.99,-79.58"/>
</g>
<!-- Node20&#45;&gt;Node9 -->
<g id="edge28" class="edge">
<title>Node20&#45;&gt;Node9</title>
<path fill="none" stroke="midnightblue" d="M747.32,-112.44C697.71,-102.94 617.64,-87.61 564.41,-77.42"/>
<polygon fill="midnightblue" stroke="midnightblue" points="564.95,-73.96 554.47,-75.52 563.64,-80.83 564.95,-73.96"/>
</g>
<!-- Node21 -->
<g id="node21" class="node">
<title>Node21</title>
<g id="a_node21"><a xlink:title=" ">
<polygon fill="none" stroke="#bfbfbf" points="784.5,-56.5 784.5,-75.5 833.5,-75.5 833.5,-56.5 784.5,-56.5"/>
<text text-anchor="middle" x="809" y="-63.5" font-family="Helvetica,sans-Serif" font-size="10.00">cstddef</text>
</a>
</g>
</g>
<!-- Node20&#45;&gt;Node21 -->
<g id="edge29" class="edge">
<title>Node20&#45;&gt;Node21</title>
<path fill="none" stroke="midnightblue" d="M794.81,-112.08C797.08,-104.85 800.37,-94.41 803.21,-85.4"/>
<polygon fill="midnightblue" stroke="midnightblue" points="806.58,-86.34 806.25,-75.75 799.9,-84.24 806.58,-86.34"/>
</g>
<!-- Node22 -->
<g id="node22" class="node">
<title>Node22</title>
<g id="a_node22"><a xlink:title=" ">
<polygon fill="none" stroke="#bfbfbf" points="717.5,-56.5 717.5,-75.5 766.5,-75.5 766.5,-56.5 717.5,-56.5"/>
<text text-anchor="middle" x="742" y="-63.5" font-family="Helvetica,sans-Serif" font-size="10.00">cassert</text>
</a>
</g>
</g>
<!-- Node20&#45;&gt;Node22 -->
<g id="edge30" class="edge">
<title>Node20&#45;&gt;Node22</title>
<path fill="none" stroke="midnightblue" d="M783.74,-112.08C776.54,-104.3 765.89,-92.8 757.15,-83.37"/>
<polygon fill="midnightblue" stroke="midnightblue" points="759.47,-80.71 750.1,-75.75 754.33,-85.47 759.47,-80.71"/>
</g>
<!-- Node23&#45;&gt;Node9 -->
<g id="edge36" class="edge">
<title>Node23&#45;&gt;Node9</title>
<path fill="none" stroke="midnightblue" d="M284.66,-168.37C296.38,-152.33 317.62,-126.49 342,-112 373.29,-93.4 412.35,-82.34 444.94,-75.85"/>
<polygon fill="midnightblue" stroke="midnightblue" points="445.65,-79.27 454.83,-73.97 444.35,-72.39 445.65,-79.27"/>
</g>
<!-- Node24&#45;&gt;Node3 -->
<g id="edge39" class="edge">
<title>Node24&#45;&gt;Node3</title>
<path fill="none" stroke="midnightblue" d="M199.61,-112.32C183.33,-103.7 158.13,-90.36 139.28,-80.39"/>
<polygon fill="midnightblue" stroke="midnightblue" points="140.82,-77.24 130.35,-75.65 137.55,-83.43 140.82,-77.24"/>
</g>
</g>
</svg>
