<?xml version="1.0" encoding="UTF-8" standalone="no"?>
<!DOCTYPE svg PUBLIC "-//W3C//DTD SVG 1.1//EN"
 "http://www.w3.org/Graphics/SVG/1.1/DTD/svg11.dtd">
<!-- Generated by graphviz version 2.49.0 (20210830.1337)
 -->
<!-- Title: OLD_WB/WhiteboardConstants.h Pages: 1 -->
<svg width="417pt" height="196pt"
 viewBox="0.00 0.00 416.50 196.00" xmlns="http://www.w3.org/2000/svg" xmlns:xlink="http://www.w3.org/1999/xlink">
<g id="graph0" class="graph" transform="scale(1 1) rotate(0) translate(4 192)">
<title>OLD_WB/WhiteboardConstants.h</title>
<!-- Node1 -->
<g id="node1" class="node">
<title>Node1</title>
<g id="a_node1"><a xlink:title=" ">
<polygon fill="#bfbfbf" stroke="black" points="84.5,-168.5 84.5,-187.5 245.5,-187.5 245.5,-168.5 84.5,-168.5"/>
<text text-anchor="middle" x="165" y="-175.5" font-family="Helvetica,sans-Serif" font-size="10.00">OLD_WB/WhiteboardConstants.h</text>
</a>
</g>
</g>
<!-- Node2 -->
<g id="node2" class="node">
<title>Node2</title>
<g id="a_node2"><a xlink:href="_remote_whiteboard_8h.html" target="_top" xlink:title=" ">
<polygon fill="none" stroke="black" points="2.5,-56.5 2.5,-75.5 153.5,-75.5 153.5,-56.5 2.5,-56.5"/>
<text text-anchor="middle" x="78" y="-63.5" font-family="Helvetica,sans-Serif" font-size="10.00">OLD_WB/RemoteWhiteboard.h</text>
</a>
</g>
</g>
<!-- Node1&#45;&gt;Node2 -->
<g id="edge1" class="edge">
<title>Node1&#45;&gt;Node2</title>
<path fill="none" stroke="midnightblue" d="M136.66,-163.71C123.23,-156.13 107.98,-145.43 98,-132 85.19,-114.75 80.48,-89.17 78.84,-75.83"/>
<polygon fill="midnightblue" stroke="midnightblue" points="135.11,-166.85 145.58,-168.47 138.4,-160.68 135.11,-166.85"/>
</g>
<!-- Node4 -->
<g id="node4" class="node">
<title>Node4</title>
<g id="a_node4"><a xlink:href="_whiteboard_8h.html" target="_top" xlink:title=" ">
<polygon fill="none" stroke="black" points="106.5,-112.5 106.5,-131.5 223.5,-131.5 223.5,-112.5 106.5,-112.5"/>
<text text-anchor="middle" x="165" y="-119.5" font-family="Helvetica,sans-Serif" font-size="10.00">OLD_WB/Whiteboard.h</text>
</a>
</g>
</g>
<!-- Node1&#45;&gt;Node4 -->
<g id="edge3" class="edge">
<title>Node1&#45;&gt;Node4</title>
<path fill="none" stroke="midnightblue" d="M165,-157.8C165,-148.91 165,-138.78 165,-131.75"/>
<polygon fill="midnightblue" stroke="midnightblue" points="161.5,-158.08 165,-168.08 168.5,-158.08 161.5,-158.08"/>
</g>
<!-- Node6 -->
<g id="node6" class="node">
<title>Node6</title>
<g id="a_node6"><a xlink:href="_whiteboard_constants_8cc.html" target="_top" xlink:title=" ">
<polygon fill="none" stroke="black" points="241.5,-112.5 241.5,-131.5 408.5,-131.5 408.5,-112.5 241.5,-112.5"/>
<text text-anchor="middle" x="325" y="-119.5" font-family="Helvetica,sans-Serif" font-size="10.00">OLD_WB/WhiteboardConstants.cc</text>
</a>
</g>
</g>
<!-- Node1&#45;&gt;Node6 -->
<g id="edge6" class="edge">
<title>Node1&#45;&gt;Node6</title>
<path fill="none" stroke="midnightblue" d="M200.05,-165.17C230.17,-155 272.9,-140.59 299.77,-131.52"/>
<polygon fill="midnightblue" stroke="midnightblue" points="198.71,-161.93 190.35,-168.44 200.95,-168.56 198.71,-161.93"/>
</g>
<!-- Node3 -->
<g id="node3" class="node">
<title>Node3</title>
<g id="a_node3"><a xlink:href="_remote_whiteboard_8cc.html" target="_top" xlink:title=" ">
<polygon fill="none" stroke="black" points="0,-0.5 0,-19.5 156,-19.5 156,-0.5 0,-0.5"/>
<text text-anchor="middle" x="78" y="-7.5" font-family="Helvetica,sans-Serif" font-size="10.00">OLD_WB/RemoteWhiteboard.cc</text>
</a>
</g>
</g>
<!-- Node2&#45;&gt;Node3 -->
<g id="edge2" class="edge">
<title>Node2&#45;&gt;Node3</title>
<path fill="none" stroke="midnightblue" d="M78,-45.8C78,-36.91 78,-26.78 78,-19.75"/>
<polygon fill="midnightblue" stroke="midnightblue" points="74.5,-46.08 78,-56.08 81.5,-46.08 74.5,-46.08"/>
</g>
<!-- Node4&#45;&gt;Node2 -->
<g id="edge4" class="edge">
<title>Node4&#45;&gt;Node2</title>
<path fill="none" stroke="midnightblue" d="M142.28,-106.9C126.33,-97 105.5,-84.07 91.94,-75.65"/>
<polygon fill="midnightblue" stroke="midnightblue" points="140.68,-110.02 151.02,-112.32 144.37,-104.08 140.68,-110.02"/>
</g>
<!-- Node5 -->
<g id="node5" class="node">
<title>Node5</title>
<g id="a_node5"><a xlink:href="_whiteboard_8cc.html" target="_top" xlink:title=" ">
<polygon fill="none" stroke="black" points="172,-56.5 172,-75.5 294,-75.5 294,-56.5 172,-56.5"/>
<text text-anchor="middle" x="233" y="-63.5" font-family="Helvetica,sans-Serif" font-size="10.00">OLD_WB/Whiteboard.cc</text>
</a>
</g>
</g>
<!-- Node4&#45;&gt;Node5 -->
<g id="edge5" class="edge">
<title>Node4&#45;&gt;Node5</title>
<path fill="none" stroke="midnightblue" d="M183.76,-106.1C196,-96.38 211.56,-84.03 221.88,-75.83"/>
<polygon fill="midnightblue" stroke="midnightblue" points="181.58,-103.36 175.93,-112.32 185.93,-108.85 181.58,-103.36"/>
</g>
</g>
</svg>
