<?xml version="1.0" encoding="UTF-8" standalone="no"?>
<!DOCTYPE svg PUBLIC "-//W3C//DTD SVG 1.1//EN"
 "http://www.w3.org/Graphics/SVG/1.1/DTD/svg11.dtd">
<!-- Generated by graphviz version 2.49.0 (20210830.1337)
 -->
<!-- Title: OLD_WB/Whiteboard.h Pages: 1 -->
<svg width="302pt" height="140pt"
 viewBox="0.00 0.00 302.00 140.00" xmlns="http://www.w3.org/2000/svg" xmlns:xlink="http://www.w3.org/1999/xlink">
<g id="graph0" class="graph" transform="scale(1 1) rotate(0) translate(4 136)">
<title>OLD_WB/Whiteboard.h</title>
<!-- Node1 -->
<g id="node1" class="node">
<title>Node1</title>
<g id="a_node1"><a xlink:title=" ">
<polygon fill="#bfbfbf" stroke="black" points="96.5,-112.5 96.5,-131.5 213.5,-131.5 213.5,-112.5 96.5,-112.5"/>
<text text-anchor="middle" x="155" y="-119.5" font-family="Helvetica,sans-Serif" font-size="10.00">OLD_WB/Whiteboard.h</text>
</a>
</g>
</g>
<!-- Node2 -->
<g id="node2" class="node">
<title>Node2</title>
<g id="a_node2"><a xlink:href="_remote_whiteboard_8h.html" target="_top" xlink:title=" ">
<polygon fill="none" stroke="black" points="2.5,-56.5 2.5,-75.5 153.5,-75.5 153.5,-56.5 2.5,-56.5"/>
<text text-anchor="middle" x="78" y="-63.5" font-family="Helvetica,sans-Serif" font-size="10.00">OLD_WB/RemoteWhiteboard.h</text>
</a>
</g>
</g>
<!-- Node1&#45;&gt;Node2 -->
<g id="edge1" class="edge">
<title>Node1&#45;&gt;Node2</title>
<path fill="none" stroke="midnightblue" d="M134.1,-106.34C120.09,-96.52 102.12,-83.91 90.34,-75.65"/>
<polygon fill="midnightblue" stroke="midnightblue" points="132.43,-109.45 142.63,-112.32 136.45,-103.72 132.43,-109.45"/>
</g>
<!-- Node4 -->
<g id="node4" class="node">
<title>Node4</title>
<g id="a_node4"><a xlink:href="_whiteboard_8cc.html" target="_top" xlink:title=" ">
<polygon fill="none" stroke="black" points="172,-56.5 172,-75.5 294,-75.5 294,-56.5 172,-56.5"/>
<text text-anchor="middle" x="233" y="-63.5" font-family="Helvetica,sans-Serif" font-size="10.00">OLD_WB/Whiteboard.cc</text>
</a>
</g>
</g>
<!-- Node1&#45;&gt;Node4 -->
<g id="edge3" class="edge">
<title>Node1&#45;&gt;Node4</title>
<path fill="none" stroke="midnightblue" d="M175.77,-106.62C190.02,-96.76 208.46,-83.99 220.5,-75.65"/>
<polygon fill="midnightblue" stroke="midnightblue" points="173.76,-103.75 167.53,-112.32 177.75,-109.51 173.76,-103.75"/>
</g>
<!-- Node3 -->
<g id="node3" class="node">
<title>Node3</title>
<g id="a_node3"><a xlink:href="_remote_whiteboard_8cc.html" target="_top" xlink:title=" ">
<polygon fill="none" stroke="black" points="0,-0.5 0,-19.5 156,-19.5 156,-0.5 0,-0.5"/>
<text text-anchor="middle" x="78" y="-7.5" font-family="Helvetica,sans-Serif" font-size="10.00">OLD_WB/RemoteWhiteboard.cc</text>
</a>
</g>
</g>
<!-- Node2&#45;&gt;Node3 -->
<g id="edge2" class="edge">
<title>Node2&#45;&gt;Node3</title>
<path fill="none" stroke="midnightblue" d="M78,-45.8C78,-36.91 78,-26.78 78,-19.75"/>
<polygon fill="midnightblue" stroke="midnightblue" points="74.5,-46.08 78,-56.08 81.5,-46.08 74.5,-46.08"/>
</g>
</g>
</svg>
