<?xml version="1.0" encoding="UTF-8" standalone="no"?>
<!DOCTYPE svg PUBLIC "-//W3C//DTD SVG 1.1//EN"
 "http://www.w3.org/Graphics/SVG/1.1/DTD/svg11.dtd">
<!-- Generated by graphviz version 2.49.0 (20210830.1337)
 -->
<!-- Title: OLD_WB/Whiteboard.h Pages: 1 -->
<svg width="987pt" height="386pt"
 viewBox="0.00 0.00 986.50 386.00" xmlns="http://www.w3.org/2000/svg" xmlns:xlink="http://www.w3.org/1999/xlink">
<g id="graph0" class="graph" transform="scale(1 1) rotate(0) translate(4 382)">
<title>OLD_WB/Whiteboard.h</title>
<!-- Node1 -->
<g id="node1" class="node">
<title>Node1</title>
<g id="a_node1"><a xlink:title=" ">
<polygon fill="#bfbfbf" stroke="black" points="547.5,-358.5 547.5,-377.5 664.5,-377.5 664.5,-358.5 547.5,-358.5"/>
<text text-anchor="middle" x="606" y="-365.5" font-family="Helvetica,sans-Serif" font-size="10.00">OLD_WB/Whiteboard.h</text>
</a>
</g>
</g>
<!-- Node2 -->
<g id="node2" class="node">
<title>Node2</title>
<g id="a_node2"><a xlink:title=" ">
<polygon fill="none" stroke="#bfbfbf" points="91.5,-0.5 91.5,-19.5 192.5,-19.5 192.5,-0.5 91.5,-0.5"/>
<text text-anchor="middle" x="142" y="-7.5" font-family="Helvetica,sans-Serif" font-size="10.00">dispatch/dispatch.h</text>
</a>
</g>
</g>
<!-- Node1&#45;&gt;Node2 -->
<g id="edge1" class="edge">
<title>Node1&#45;&gt;Node2</title>
<path fill="none" stroke="midnightblue" d="M547.19,-367.24C425.73,-366.92 151.5,-361.66 68,-322 28.68,-303.32 0,-295.03 0,-251.5 0,-251.5 0,-251.5 0,-121 0,-69.07 60.09,-38.15 102.09,-22.89"/>
<polygon fill="midnightblue" stroke="midnightblue" points="103.24,-26.19 111.54,-19.6 100.94,-19.58 103.24,-26.19"/>
</g>
<!-- Node3 -->
<g id="node3" class="node">
<title>Node3</title>
<g id="a_node3"><a xlink:title=" ">
<polygon fill="none" stroke="#bfbfbf" points="638.5,-56.5 638.5,-75.5 679.5,-75.5 679.5,-56.5 638.5,-56.5"/>
<text text-anchor="middle" x="659" y="-63.5" font-family="Helvetica,sans-Serif" font-size="10.00">string</text>
</a>
</g>
</g>
<!-- Node1&#45;&gt;Node3 -->
<g id="edge2" class="edge">
<title>Node1&#45;&gt;Node3</title>
<path fill="none" stroke="midnightblue" d="M609.07,-358.48C612.21,-349.51 617.02,-334.92 620,-322 640.1,-234.86 652.57,-128.5 657.09,-85.94"/>
<polygon fill="midnightblue" stroke="midnightblue" points="660.58,-86.21 658.13,-75.9 653.61,-85.48 660.58,-86.21"/>
</g>
<!-- Node4 -->
<g id="node4" class="node">
<title>Node4</title>
<g id="a_node4"><a xlink:title=" ">
<polygon fill="none" stroke="#bfbfbf" points="200,-56.5 200,-75.5 244,-75.5 244,-56.5 200,-56.5"/>
<text text-anchor="middle" x="222" y="-63.5" font-family="Helvetica,sans-Serif" font-size="10.00">vector</text>
</a>
</g>
</g>
<!-- Node1&#45;&gt;Node4 -->
<g id="edge3" class="edge">
<title>Node1&#45;&gt;Node4</title>
<path fill="none" stroke="midnightblue" d="M547.26,-366.49C409.26,-363.7 76,-347.09 76,-251.5 76,-251.5 76,-251.5 76,-182.5 76,-124.75 147.12,-91.35 190.09,-76.44"/>
<polygon fill="midnightblue" stroke="midnightblue" points="191.44,-79.68 199.83,-73.21 189.23,-73.04 191.44,-79.68"/>
</g>
<!-- Node5 -->
<g id="node5" class="node">
<title>Node5</title>
<g id="a_node5"><a xlink:title=" ">
<polygon fill="none" stroke="#bfbfbf" points="727,-56.5 727,-75.5 781,-75.5 781,-56.5 727,-56.5"/>
<text text-anchor="middle" x="754" y="-63.5" font-family="Helvetica,sans-Serif" font-size="10.00">iostream</text>
</a>
</g>
</g>
<!-- Node1&#45;&gt;Node5 -->
<g id="edge4" class="edge">
<title>Node1&#45;&gt;Node5</title>
<path fill="none" stroke="midnightblue" d="M664.68,-361.27C715.17,-354.98 782.42,-342.89 799,-322 856.54,-249.5 792.42,-128.67 765.11,-84.15"/>
<polygon fill="midnightblue" stroke="midnightblue" points="768.04,-82.24 759.76,-75.63 762.11,-85.96 768.04,-82.24"/>
</g>
<!-- Node6 -->
<g id="node6" class="node">
<title>Node6</title>
<g id="a_node6"><a xlink:title=" ">
<polygon fill="none" stroke="#bfbfbf" points="97.5,-56.5 97.5,-75.5 150.5,-75.5 150.5,-56.5 97.5,-56.5"/>
<text text-anchor="middle" x="124" y="-63.5" font-family="Helvetica,sans-Serif" font-size="10.00">gu_util.h</text>
</a>
</g>
</g>
<!-- Node1&#45;&gt;Node6 -->
<g id="edge5" class="edge">
<title>Node1&#45;&gt;Node6</title>
<path fill="none" stroke="midnightblue" d="M547.33,-366.11C434.96,-363.67 193.78,-354.68 118,-322 74.48,-303.23 38,-298.89 38,-251.5 38,-251.5 38,-251.5 38,-182.5 38,-139.11 77.52,-101.47 102.98,-81.73"/>
<polygon fill="midnightblue" stroke="midnightblue" points="105.39,-84.29 111.31,-75.51 101.2,-78.69 105.39,-84.29"/>
</g>
<!-- Node7 -->
<g id="node7" class="node">
<title>Node7</title>
<g id="a_node7"><a xlink:href="gusimplewhiteboard_8h.html" target="_top" xlink:title=" ">
<polygon fill="none" stroke="black" points="454,-56.5 454,-75.5 564,-75.5 564,-56.5 454,-56.5"/>
<text text-anchor="middle" x="509" y="-63.5" font-family="Helvetica,sans-Serif" font-size="10.00">gusimplewhiteboard.h</text>
</a>
</g>
</g>
<!-- Node1&#45;&gt;Node7 -->
<g id="edge6" class="edge">
<title>Node1&#45;&gt;Node7</title>
<path fill="none" stroke="midnightblue" d="M603.95,-358.49C596.01,-325.95 565.94,-206.57 530,-112 526.55,-102.93 522.08,-93.15 518.15,-85.02"/>
<polygon fill="midnightblue" stroke="midnightblue" points="521.16,-83.2 513.58,-75.8 514.88,-86.31 521.16,-83.2"/>
</g>
<!-- Node11 -->
<g id="node11" class="node">
<title>Node11</title>
<g id="a_node11"><a xlink:href="_whiteboard_constants_8h.html" target="_top" xlink:title=" ">
<polygon fill="none" stroke="black" points="672.5,-302.5 672.5,-321.5 789.5,-321.5 789.5,-302.5 672.5,-302.5"/>
<text text-anchor="middle" x="731" y="-309.5" font-family="Helvetica,sans-Serif" font-size="10.00">WhiteboardConstants.h</text>
</a>
</g>
</g>
<!-- Node1&#45;&gt;Node11 -->
<g id="edge11" class="edge">
<title>Node1&#45;&gt;Node11</title>
<path fill="none" stroke="midnightblue" d="M625.81,-358.44C646.29,-349.6 678.48,-335.69 701.86,-325.59"/>
<polygon fill="midnightblue" stroke="midnightblue" points="703.49,-328.7 711.29,-321.52 700.72,-322.27 703.49,-328.7"/>
</g>
<!-- Node12 -->
<g id="node12" class="node">
<title>Node12</title>
<g id="a_node12"><a xlink:href="_w_b_functor_8h.html" target="_top" xlink:title=" ">
<polygon fill="none" stroke="black" points="499.5,-302.5 499.5,-321.5 572.5,-321.5 572.5,-302.5 499.5,-302.5"/>
<text text-anchor="middle" x="536" y="-309.5" font-family="Helvetica,sans-Serif" font-size="10.00">WBFunctor.h</text>
</a>
</g>
</g>
<!-- Node1&#45;&gt;Node12 -->
<g id="edge12" class="edge">
<title>Node1&#45;&gt;Node12</title>
<path fill="none" stroke="midnightblue" d="M594.75,-358.32C584.2,-350.18 568.2,-337.84 555.56,-328.09"/>
<polygon fill="midnightblue" stroke="midnightblue" points="557.51,-325.17 547.45,-321.83 553.23,-330.71 557.51,-325.17"/>
</g>
<!-- Node13 -->
<g id="node13" class="node">
<title>Node13</title>
<g id="a_node13"><a xlink:href="_w_b_msg_8h.html" target="_top" xlink:title=" ">
<polygon fill="none" stroke="black" points="826.5,-112.5 826.5,-131.5 885.5,-131.5 885.5,-112.5 826.5,-112.5"/>
<text text-anchor="middle" x="856" y="-119.5" font-family="Helvetica,sans-Serif" font-size="10.00">WBMsg.h</text>
</a>
</g>
</g>
<!-- Node1&#45;&gt;Node13 -->
<g id="edge37" class="edge">
<title>Node1&#45;&gt;Node13</title>
<path fill="none" stroke="midnightblue" d="M664.76,-362.99C724.02,-357.66 809.81,-345.96 832,-322 878.7,-271.58 867.63,-180.51 860.13,-141.52"/>
<polygon fill="midnightblue" stroke="midnightblue" points="863.53,-140.67 858.07,-131.59 856.67,-142.09 863.53,-140.67"/>
</g>
<!-- Node7&#45;&gt;Node2 -->
<g id="edge7" class="edge">
<title>Node7&#45;&gt;Node2</title>
<path fill="none" stroke="midnightblue" d="M453.66,-56.86C386.19,-46.93 272.56,-30.21 202.73,-19.94"/>
<polygon fill="midnightblue" stroke="midnightblue" points="203.16,-16.46 192.76,-18.47 202.14,-23.39 203.16,-16.46"/>
</g>
<!-- Node8 -->
<g id="node8" class="node">
<title>Node8</title>
<g id="a_node8"><a xlink:title=" ">
<polygon fill="none" stroke="#bfbfbf" points="476.5,-0.5 476.5,-19.5 541.5,-19.5 541.5,-0.5 476.5,-0.5"/>
<text text-anchor="middle" x="509" y="-7.5" font-family="Helvetica,sans-Serif" font-size="10.00">sys/types.h</text>
</a>
</g>
</g>
<!-- Node7&#45;&gt;Node8 -->
<g id="edge8" class="edge">
<title>Node7&#45;&gt;Node8</title>
<path fill="none" stroke="midnightblue" d="M509,-56.08C509,-49.01 509,-38.86 509,-29.99"/>
<polygon fill="midnightblue" stroke="midnightblue" points="512.5,-29.75 509,-19.75 505.5,-29.75 512.5,-29.75"/>
</g>
<!-- Node9 -->
<g id="node9" class="node">
<title>Node9</title>
<g id="a_node9"><a xlink:title=" ">
<polygon fill="none" stroke="#bfbfbf" points="559.5,-0.5 559.5,-19.5 612.5,-19.5 612.5,-0.5 559.5,-0.5"/>
<text text-anchor="middle" x="586" y="-7.5" font-family="Helvetica,sans-Serif" font-size="10.00">cstdbool</text>
</a>
</g>
</g>
<!-- Node7&#45;&gt;Node9 -->
<g id="edge9" class="edge">
<title>Node7&#45;&gt;Node9</title>
<path fill="none" stroke="midnightblue" d="M521.37,-56.32C533.16,-48.06 551.13,-35.45 565.14,-25.63"/>
<polygon fill="midnightblue" stroke="midnightblue" points="567.48,-28.26 573.66,-19.65 563.46,-22.53 567.48,-28.26"/>
</g>
<!-- Node10 -->
<g id="node10" class="node">
<title>Node10</title>
<g id="a_node10"><a xlink:title=" ">
<polygon fill="none" stroke="#bfbfbf" points="408,-0.5 408,-19.5 458,-19.5 458,-0.5 408,-0.5"/>
<text text-anchor="middle" x="433" y="-7.5" font-family="Helvetica,sans-Serif" font-size="10.00">unistd.h</text>
</a>
</g>
</g>
<!-- Node7&#45;&gt;Node10 -->
<g id="edge10" class="edge">
<title>Node7&#45;&gt;Node10</title>
<path fill="none" stroke="midnightblue" d="M496.79,-56.32C485.22,-48.11 467.62,-35.6 453.84,-25.81"/>
<polygon fill="midnightblue" stroke="midnightblue" points="455.61,-22.77 445.43,-19.83 451.56,-28.48 455.61,-22.77"/>
</g>
<!-- Node12&#45;&gt;Node3 -->
<g id="edge13" class="edge">
<title>Node12&#45;&gt;Node3</title>
<path fill="none" stroke="midnightblue" d="M540.38,-302.32C558.24,-266.89 625.79,-132.88 650.16,-84.53"/>
<polygon fill="midnightblue" stroke="midnightblue" points="653.3,-86.09 654.67,-75.58 647.05,-82.93 653.3,-86.09"/>
</g>
<!-- Node12&#45;&gt;Node6 -->
<g id="edge14" class="edge">
<title>Node12&#45;&gt;Node6</title>
<path fill="none" stroke="midnightblue" d="M499.46,-310.78C418.96,-309.6 229.43,-302.88 179,-266 121.47,-223.93 120.13,-127.16 122.4,-86.04"/>
<polygon fill="midnightblue" stroke="midnightblue" points="125.91,-86.02 123.11,-75.8 118.92,-85.54 125.91,-86.02"/>
</g>
<!-- Node12&#45;&gt;Node7 -->
<g id="edge34" class="edge">
<title>Node12&#45;&gt;Node7</title>
<path fill="none" stroke="midnightblue" d="M535.04,-302.32C531.15,-267.18 516.54,-135.12 511.08,-85.76"/>
<polygon fill="midnightblue" stroke="midnightblue" points="514.53,-85.13 509.95,-75.58 507.57,-85.9 514.53,-85.13"/>
</g>
<!-- Node12&#45;&gt;Node13 -->
<g id="edge15" class="edge">
<title>Node12&#45;&gt;Node13</title>
<path fill="none" stroke="midnightblue" d="M550.58,-302.43C601.29,-272.64 770.23,-173.39 832.6,-136.75"/>
<polygon fill="midnightblue" stroke="midnightblue" points="834.48,-139.7 841.33,-131.62 830.94,-133.66 834.48,-139.7"/>
</g>
<!-- Node17 -->
<g id="node17" class="node">
<title>Node17</title>
<g id="a_node17"><a xlink:href="guwhiteboardtypelist__generated_8h.html" target="_top" xlink:title=" ">
<polygon fill="none" stroke="black" points="402.5,-235.5 402.5,-265.5 507.5,-265.5 507.5,-235.5 402.5,-235.5"/>
<text text-anchor="start" x="410.5" y="-253.5" font-family="Helvetica,sans-Serif" font-size="10.00">guwhiteboardtypelist</text>
<text text-anchor="middle" x="455" y="-242.5" font-family="Helvetica,sans-Serif" font-size="10.00">_generated.h</text>
</a>
</g>
</g>
<!-- Node12&#45;&gt;Node17 -->
<g id="edge22" class="edge">
<title>Node12&#45;&gt;Node17</title>
<path fill="none" stroke="midnightblue" d="M524.39,-302.48C513.42,-294.42 496.55,-282.02 482.19,-271.47"/>
<polygon fill="midnightblue" stroke="midnightblue" points="484.22,-268.62 474.09,-265.52 480.08,-274.26 484.22,-268.62"/>
</g>
<!-- Node23 -->
<g id="node23" class="node">
<title>Node23</title>
<g id="a_node23"><a xlink:href="_w_b_functor__types__generated_8h.html" target="_top" xlink:title=" ">
<polygon fill="none" stroke="black" points="188.5,-241 188.5,-260 337.5,-260 337.5,-241 188.5,-241"/>
<text text-anchor="middle" x="263" y="-248" font-family="Helvetica,sans-Serif" font-size="10.00">WBFunctor_types_generated.h</text>
</a>
</g>
</g>
<!-- Node12&#45;&gt;Node23 -->
<g id="edge35" class="edge">
<title>Node12&#45;&gt;Node23</title>
<path fill="none" stroke="midnightblue" d="M499.47,-303.04C451.28,-292.54 366.31,-274.02 312.42,-262.27"/>
<polygon fill="midnightblue" stroke="midnightblue" points="312.93,-258.8 302.41,-260.09 311.44,-265.64 312.93,-258.8"/>
</g>
<!-- Node13&#45;&gt;Node3 -->
<g id="edge18" class="edge">
<title>Node13&#45;&gt;Node3</title>
<path fill="none" stroke="midnightblue" d="M826.08,-112.8C789.09,-102.66 726.47,-85.49 689.3,-75.31"/>
<polygon fill="midnightblue" stroke="midnightblue" points="690.11,-71.9 679.54,-72.63 688.26,-78.65 690.11,-71.9"/>
</g>
<!-- Node13&#45;&gt;Node5 -->
<g id="edge19" class="edge">
<title>Node13&#45;&gt;Node5</title>
<path fill="none" stroke="midnightblue" d="M839.61,-112.32C823.33,-103.7 798.13,-90.36 779.28,-80.39"/>
<polygon fill="midnightblue" stroke="midnightblue" points="780.82,-77.24 770.35,-75.65 777.55,-83.43 780.82,-77.24"/>
</g>
<!-- Node13&#45;&gt;Node7 -->
<g id="edge21" class="edge">
<title>Node13&#45;&gt;Node7</title>
<path fill="none" stroke="midnightblue" d="M826.41,-116.4C770.85,-107.75 649.68,-88.89 574.16,-77.14"/>
<polygon fill="midnightblue" stroke="midnightblue" points="574.24,-73.61 563.82,-75.53 573.16,-80.53 574.24,-73.61"/>
</g>
<!-- Node14 -->
<g id="node14" class="node">
<title>Node14</title>
<g id="a_node14"><a xlink:title=" ">
<polygon fill="none" stroke="#bfbfbf" points="933.5,-56.5 933.5,-75.5 978.5,-75.5 978.5,-56.5 933.5,-56.5"/>
<text text-anchor="middle" x="956" y="-63.5" font-family="Helvetica,sans-Serif" font-size="10.00">cstdlib</text>
</a>
</g>
</g>
<!-- Node13&#45;&gt;Node14 -->
<g id="edge16" class="edge">
<title>Node13&#45;&gt;Node14</title>
<path fill="none" stroke="midnightblue" d="M872.07,-112.32C887.96,-103.74 912.51,-90.49 930.96,-80.52"/>
<polygon fill="midnightblue" stroke="midnightblue" points="932.84,-83.49 939.97,-75.65 929.51,-77.33 932.84,-83.49"/>
</g>
<!-- Node15 -->
<g id="node15" class="node">
<title>Node15</title>
<g id="a_node15"><a xlink:title=" ">
<polygon fill="none" stroke="#bfbfbf" points="799,-56.5 799,-75.5 845,-75.5 845,-56.5 799,-56.5"/>
<text text-anchor="middle" x="822" y="-63.5" font-family="Helvetica,sans-Serif" font-size="10.00">cstring</text>
</a>
</g>
</g>
<!-- Node13&#45;&gt;Node15 -->
<g id="edge17" class="edge">
<title>Node13&#45;&gt;Node15</title>
<path fill="none" stroke="midnightblue" d="M850.39,-112.08C845.63,-104.53 838.68,-93.49 832.85,-84.23"/>
<polygon fill="midnightblue" stroke="midnightblue" points="835.8,-82.35 827.51,-75.75 829.88,-86.08 835.8,-82.35"/>
</g>
<!-- Node16 -->
<g id="node16" class="node">
<title>Node16</title>
<g id="a_node16"><a xlink:title=" ">
<polygon fill="none" stroke="#bfbfbf" points="863,-56.5 863,-75.5 915,-75.5 915,-56.5 863,-56.5"/>
<text text-anchor="middle" x="889" y="-63.5" font-family="Helvetica,sans-Serif" font-size="10.00">sstream</text>
</a>
</g>
</g>
<!-- Node13&#45;&gt;Node16 -->
<g id="edge20" class="edge">
<title>Node13&#45;&gt;Node16</title>
<path fill="none" stroke="midnightblue" d="M861.45,-112.08C866.01,-104.61 872.67,-93.72 878.29,-84.52"/>
<polygon fill="midnightblue" stroke="midnightblue" points="881.42,-86.11 883.65,-75.75 875.45,-82.46 881.42,-86.11"/>
</g>
<!-- Node18 -->
<g id="node18" class="node">
<title>Node18</title>
<g id="a_node18"><a xlink:href="gu_whiteboard__gugenericwhiteboardobject_8h.html" target="_top" xlink:title=" ">
<polygon fill="none" stroke="black" points="180,-174 180,-193 384,-193 384,-174 180,-174"/>
<text text-anchor="middle" x="282" y="-181" font-family="Helvetica,sans-Serif" font-size="10.00">guWhiteboard_gugenericwhiteboardobject.h</text>
</a>
</g>
</g>
<!-- Node17&#45;&gt;Node18 -->
<g id="edge23" class="edge">
<title>Node17&#45;&gt;Node18</title>
<path fill="none" stroke="midnightblue" d="M417.46,-235.4C386.7,-223.84 343.63,-207.66 314.37,-196.66"/>
<polygon fill="midnightblue" stroke="midnightblue" points="315.23,-193.25 304.64,-193.01 312.77,-199.8 315.23,-193.25"/>
</g>
<!-- Node22 -->
<g id="node22" class="node">
<title>Node22</title>
<g id="a_node22"><a xlink:href="guwhiteboardtypelist__c__generated_8h.html" target="_top" xlink:title=" ">
<polygon fill="none" stroke="black" points="402.5,-168.5 402.5,-198.5 507.5,-198.5 507.5,-168.5 402.5,-168.5"/>
<text text-anchor="start" x="410.5" y="-186.5" font-family="Helvetica,sans-Serif" font-size="10.00">guwhiteboardtypelist</text>
<text text-anchor="middle" x="455" y="-175.5" font-family="Helvetica,sans-Serif" font-size="10.00">_c_generated.h</text>
</a>
</g>
</g>
<!-- Node17&#45;&gt;Node22 -->
<g id="edge32" class="edge">
<title>Node17&#45;&gt;Node22</title>
<path fill="none" stroke="midnightblue" d="M455,-235.4C455,-227.64 455,-217.81 455,-208.86"/>
<polygon fill="midnightblue" stroke="midnightblue" points="458.5,-208.58 455,-198.58 451.5,-208.58 458.5,-208.58"/>
</g>
<!-- Node19 -->
<g id="node19" class="node">
<title>Node19</title>
<g id="a_node19"><a xlink:href="gugenericwhiteboardobject_8h.html" target="_top" xlink:title=" ">
<polygon fill="none" stroke="black" points="291,-112.5 291,-131.5 431,-131.5 431,-112.5 291,-112.5"/>
<text text-anchor="middle" x="361" y="-119.5" font-family="Helvetica,sans-Serif" font-size="10.00">gugenericwhiteboardobject.h</text>
</a>
</g>
</g>
<!-- Node18&#45;&gt;Node19 -->
<g id="edge24" class="edge">
<title>Node18&#45;&gt;Node19</title>
<path fill="none" stroke="midnightblue" d="M293.32,-173.98C305.87,-164.52 326.35,-149.1 341.5,-137.69"/>
<polygon fill="midnightblue" stroke="midnightblue" points="343.82,-140.32 349.7,-131.51 339.61,-134.73 343.82,-140.32"/>
</g>
<!-- Node19&#45;&gt;Node3 -->
<g id="edge29" class="edge">
<title>Node19&#45;&gt;Node3</title>
<path fill="none" stroke="midnightblue" d="M408.22,-112.44C469.94,-101.26 576.3,-81.99 628.42,-72.54"/>
<polygon fill="midnightblue" stroke="midnightblue" points="629.17,-75.96 638.38,-70.74 627.92,-69.08 629.17,-75.96"/>
</g>
<!-- Node19&#45;&gt;Node4 -->
<g id="edge30" class="edge">
<title>Node19&#45;&gt;Node4</title>
<path fill="none" stroke="midnightblue" d="M338.98,-112.44C315.9,-103.48 279.44,-89.31 253.36,-79.18"/>
<polygon fill="midnightblue" stroke="midnightblue" points="254.51,-75.88 243.92,-75.52 251.98,-82.4 254.51,-75.88"/>
</g>
<!-- Node19&#45;&gt;Node5 -->
<g id="edge28" class="edge">
<title>Node19&#45;&gt;Node5</title>
<path fill="none" stroke="midnightblue" d="M423.27,-112.44C505.86,-101.1 649.05,-81.42 716.63,-72.13"/>
<polygon fill="midnightblue" stroke="midnightblue" points="717.38,-75.56 726.81,-70.74 716.43,-68.63 717.38,-75.56"/>
</g>
<!-- Node19&#45;&gt;Node6 -->
<g id="edge31" class="edge">
<title>Node19&#45;&gt;Node6</title>
<path fill="none" stroke="midnightblue" d="M323.45,-112.44C278.76,-102.26 204.67,-85.38 160.47,-75.31"/>
<polygon fill="midnightblue" stroke="midnightblue" points="161.24,-71.9 150.71,-73.09 159.69,-78.72 161.24,-71.9"/>
</g>
<!-- Node19&#45;&gt;Node7 -->
<g id="edge25" class="edge">
<title>Node19&#45;&gt;Node7</title>
<path fill="none" stroke="midnightblue" d="M384.45,-112.44C409.13,-103.44 448.19,-89.19 475.98,-79.05"/>
<polygon fill="midnightblue" stroke="midnightblue" points="477.46,-82.23 485.66,-75.52 475.06,-75.66 477.46,-82.23"/>
</g>
<!-- Node20 -->
<g id="node20" class="node">
<title>Node20</title>
<g id="a_node20"><a xlink:title=" ">
<polygon fill="none" stroke="#bfbfbf" points="300.5,-56.5 300.5,-75.5 349.5,-75.5 349.5,-56.5 300.5,-56.5"/>
<text text-anchor="middle" x="325" y="-63.5" font-family="Helvetica,sans-Serif" font-size="10.00">cstddef</text>
</a>
</g>
</g>
<!-- Node19&#45;&gt;Node20 -->
<g id="edge26" class="edge">
<title>Node19&#45;&gt;Node20</title>
<path fill="none" stroke="midnightblue" d="M355.06,-112.08C350.02,-104.53 342.66,-93.49 336.49,-84.23"/>
<polygon fill="midnightblue" stroke="midnightblue" points="339.29,-82.13 330.83,-75.75 333.47,-86.01 339.29,-82.13"/>
</g>
<!-- Node21 -->
<g id="node21" class="node">
<title>Node21</title>
<g id="a_node21"><a xlink:title=" ">
<polygon fill="none" stroke="#bfbfbf" points="367.5,-56.5 367.5,-75.5 416.5,-75.5 416.5,-56.5 367.5,-56.5"/>
<text text-anchor="middle" x="392" y="-63.5" font-family="Helvetica,sans-Serif" font-size="10.00">cassert</text>
</a>
</g>
</g>
<!-- Node19&#45;&gt;Node21 -->
<g id="edge27" class="edge">
<title>Node19&#45;&gt;Node21</title>
<path fill="none" stroke="midnightblue" d="M366.12,-112.08C370.41,-104.61 376.66,-93.72 381.94,-84.52"/>
<polygon fill="midnightblue" stroke="midnightblue" points="385.03,-86.17 386.98,-75.75 378.96,-82.68 385.03,-86.17"/>
</g>
<!-- Node22&#45;&gt;Node7 -->
<g id="edge33" class="edge">
<title>Node22&#45;&gt;Node7</title>
<path fill="none" stroke="midnightblue" d="M461.62,-168.34C471.44,-147.34 489.85,-107.96 500.6,-84.96"/>
<polygon fill="midnightblue" stroke="midnightblue" points="503.88,-86.21 504.95,-75.67 497.54,-83.25 503.88,-86.21"/>
</g>
<!-- Node23&#45;&gt;Node6 -->
<g id="edge36" class="edge">
<title>Node23&#45;&gt;Node6</title>
<path fill="none" stroke="midnightblue" d="M236.61,-240.92C216.12,-233.02 188.37,-219.39 171,-199 142.44,-165.47 130.77,-113.34 126.38,-85.69"/>
<polygon fill="midnightblue" stroke="midnightblue" points="129.85,-85.17 124.96,-75.77 122.92,-86.17 129.85,-85.17"/>
</g>
</g>
</svg>
