<?xml version="1.0" encoding="UTF-8" standalone="no"?>
<!DOCTYPE svg PUBLIC "-//W3C//DTD SVG 1.1//EN"
 "http://www.w3.org/Graphics/SVG/1.1/DTD/svg11.dtd">
<!-- Generated by graphviz version 2.49.0 (20210830.1337)
 -->
<!-- Title: guWhiteboard::OculusPrimeInterface Pages: 1 -->
<svg width="164pt" height="226pt"
 viewBox="0.00 0.00 164.00 226.00" xmlns="http://www.w3.org/2000/svg" xmlns:xlink="http://www.w3.org/1999/xlink">
<g id="graph0" class="graph" transform="scale(1 1) rotate(0) translate(4 222)">
<title>guWhiteboard::OculusPrimeInterface</title>
<!-- Node1 -->
<g id="node1" class="node">
<title>Node1</title>
<g id="a_node1"><a xlink:title=" ">
<polygon fill="#bfbfbf" stroke="black" points="9.5,-0.5 9.5,-90.5 146.5,-90.5 146.5,-0.5 9.5,-0.5"/>
<text text-anchor="start" x="17.5" y="-78.5" font-family="Helvetica,sans-Serif" font-size="10.00">guWhiteboard::OculusPrime</text>
<text text-anchor="middle" x="78" y="-67.5" font-family="Helvetica,sans-Serif" font-size="10.00">Interface</text>
<polyline fill="none" stroke="black" points="9.5,-60.5 146.5,-60.5 "/>
<text text-anchor="middle" x="78" y="-48.5" font-family="Helvetica,sans-Serif" font-size="10.00"> </text>
<polyline fill="none" stroke="black" points="9.5,-41.5 146.5,-41.5 "/>
<text text-anchor="start" x="17.5" y="-29.5" font-family="Helvetica,sans-Serif" font-size="10.00">+ OculusPrimeInterface()</text>
<text text-anchor="start" x="17.5" y="-18.5" font-family="Helvetica,sans-Serif" font-size="10.00">+ OculusPrimeInterface()</text>
<text text-anchor="start" x="17.5" y="-7.5" font-family="Helvetica,sans-Serif" font-size="10.00">+ from_string()</text>
</a>
</g>
</g>
<!-- Node2 -->
<g id="node2" class="node">
<title>Node2</title>
<g id="a_node2"><a xlink:href="structwb__oculus__prime__interface.html" target="_top" xlink:title=" ">
<polygon fill="none" stroke="black" points="0,-127.5 0,-217.5 156,-217.5 156,-127.5 0,-127.5"/>
<text text-anchor="middle" x="78" y="-205.5" font-family="Helvetica,sans-Serif" font-size="10.00">wb_oculus_prime_interface</text>
<polyline fill="none" stroke="black" points="0,-198.5 156,-198.5 "/>
<text text-anchor="middle" x="78" y="-186.5" font-family="Helvetica,sans-Serif" font-size="10.00"> </text>
<polyline fill="none" stroke="black" points="0,-179.5 156,-179.5 "/>
<text text-anchor="start" x="8" y="-167.5" font-family="Helvetica,sans-Serif" font-size="10.00">+ CONTROLLED_PROPERTY()</text>
<text text-anchor="start" x="8" y="-156.5" font-family="Helvetica,sans-Serif" font-size="10.00">+ CONTROLLED_PROPERTY()</text>
<text text-anchor="start" x="8" y="-145.5" font-family="Helvetica,sans-Serif" font-size="10.00">+ CONTROLLED_PROPERTY()</text>
<text text-anchor="start" x="8" y="-134.5" font-family="Helvetica,sans-Serif" font-size="10.00">+ CONTROL_BIT()</text>
</a>
</g>
</g>
<!-- Node2&#45;&gt;Node1 -->
<g id="edge1" class="edge">
<title>Node2&#45;&gt;Node1</title>
<path fill="none" stroke="midnightblue" d="M78,-117.16C78,-108.28 78,-99.18 78,-90.59"/>
<polygon fill="none" stroke="midnightblue" points="74.5,-117.43 78,-127.43 81.5,-117.43 74.5,-117.43"/>
</g>
</g>
</svg>
