<?xml version="1.0" encoding="UTF-8" standalone="no"?>
<!DOCTYPE svg PUBLIC "-//W3C//DTD SVG 1.1//EN"
 "http://www.w3.org/Graphics/SVG/1.1/DTD/svg11.dtd">
<!-- Generated by graphviz version 2.49.0 (20210830.1337)
 -->
<!-- Title: guWhiteboard::VisionDetectionHorizon Pages: 1 -->
<svg width="165pt" height="431pt"
 viewBox="0.00 0.00 164.50 431.00" xmlns="http://www.w3.org/2000/svg" xmlns:xlink="http://www.w3.org/1999/xlink">
<g id="graph0" class="graph" transform="scale(1 1) rotate(0) translate(4 427)">
<title>guWhiteboard::VisionDetectionHorizon</title>
<!-- Node1 -->
<g id="node1" class="node">
<title>Node1</title>
<g id="a_node1"><a xlink:title="Provides a C++ wrapper around wb_vision_detection_horizon.">
<polygon fill="#bfbfbf" stroke="black" points="0,-0.5 0,-178.5 149,-178.5 149,-0.5 0,-0.5"/>
<text text-anchor="start" x="8" y="-166.5" font-family="Helvetica,sans-Serif" font-size="10.00">guWhiteboard::VisionDetection</text>
<text text-anchor="middle" x="74.5" y="-155.5" font-family="Helvetica,sans-Serif" font-size="10.00">Horizon</text>
<polyline fill="none" stroke="black" points="0,-148.5 149,-148.5 "/>
<text text-anchor="middle" x="74.5" y="-136.5" font-family="Helvetica,sans-Serif" font-size="10.00"> </text>
<polyline fill="none" stroke="black" points="0,-129.5 149,-129.5 "/>
<text text-anchor="start" x="8" y="-117.5" font-family="Helvetica,sans-Serif" font-size="10.00">+ VisionDetectionHorizon()</text>
<text text-anchor="start" x="8" y="-106.5" font-family="Helvetica,sans-Serif" font-size="10.00">+ VisionDetectionHorizon()</text>
<text text-anchor="start" x="8" y="-95.5" font-family="Helvetica,sans-Serif" font-size="10.00">+ VisionDetectionHorizon()</text>
<text text-anchor="start" x="8" y="-84.5" font-family="Helvetica,sans-Serif" font-size="10.00">+ operator=()</text>
<text text-anchor="start" x="8" y="-73.5" font-family="Helvetica,sans-Serif" font-size="10.00">+ operator=()</text>
<text text-anchor="start" x="8" y="-62.5" font-family="Helvetica,sans-Serif" font-size="10.00">+ operator==()</text>
<text text-anchor="start" x="8" y="-51.5" font-family="Helvetica,sans-Serif" font-size="10.00">+ operator!=()</text>
<text text-anchor="start" x="8" y="-40.5" font-family="Helvetica,sans-Serif" font-size="10.00">+ operator==()</text>
<text text-anchor="start" x="8" y="-29.5" font-family="Helvetica,sans-Serif" font-size="10.00">+ operator!=()</text>
<text text-anchor="start" x="8" y="-18.5" font-family="Helvetica,sans-Serif" font-size="10.00">+ horizonType()</text>
<text text-anchor="start" x="8" y="-7.5" font-family="Helvetica,sans-Serif" font-size="10.00">and 18 more...</text>
</a>
</g>
</g>
<!-- Node2 -->
<g id="node2" class="node">
<title>Node2</title>
<g id="a_node2"><a xlink:href="structwb__vision__detection__horizon.html" target="_top" xlink:title="WHITEBOARD_POSTER_STRING_CONVERSION.">
<polygon fill="none" stroke="black" points="22,-216.5 22,-284.5 127,-284.5 127,-216.5 22,-216.5"/>
<text text-anchor="start" x="30" y="-272.5" font-family="Helvetica,sans-Serif" font-size="10.00">wb_vision_detection</text>
<text text-anchor="middle" x="74.5" y="-261.5" font-family="Helvetica,sans-Serif" font-size="10.00">_horizon</text>
<polyline fill="none" stroke="black" points="22,-254.5 127,-254.5 "/>
<text text-anchor="start" x="30" y="-242.5" font-family="Helvetica,sans-Serif" font-size="10.00">+ horizonType</text>
<polyline fill="none" stroke="black" points="22,-235.5 127,-235.5 "/>
<text text-anchor="middle" x="74.5" y="-223.5" font-family="Helvetica,sans-Serif" font-size="10.00"> </text>
</a>
</g>
</g>
<!-- Node2&#45;&gt;Node1 -->
<g id="edge1" class="edge">
<title>Node2&#45;&gt;Node1</title>
<path fill="none" stroke="midnightblue" d="M74.5,-206.11C74.5,-197.54 74.5,-188.27 74.5,-178.83"/>
<polygon fill="none" stroke="midnightblue" points="71,-206.17 74.5,-216.17 78,-206.17 71,-206.17"/>
</g>
<!-- Node3 -->
<g id="node3" class="node">
<title>Node3</title>
<g id="a_node3"><a xlink:href="structwb__pixel__coordinate.html" target="_top" xlink:title="WHITEBOARD_POSTER_STRING_CONVERSION.">
<polygon fill="none" stroke="black" points="22.5,-354.5 22.5,-422.5 126.5,-422.5 126.5,-354.5 22.5,-354.5"/>
<text text-anchor="middle" x="74.5" y="-410.5" font-family="Helvetica,sans-Serif" font-size="10.00">wb_pixel_coordinate</text>
<polyline fill="none" stroke="black" points="22.5,-403.5 126.5,-403.5 "/>
<text text-anchor="start" x="30.5" y="-391.5" font-family="Helvetica,sans-Serif" font-size="10.00">+ x</text>
<text text-anchor="start" x="30.5" y="-380.5" font-family="Helvetica,sans-Serif" font-size="10.00">+ y</text>
<polyline fill="none" stroke="black" points="22.5,-373.5 126.5,-373.5 "/>
<text text-anchor="middle" x="74.5" y="-361.5" font-family="Helvetica,sans-Serif" font-size="10.00"> </text>
</a>
</g>
</g>
<!-- Node3&#45;&gt;Node2 -->
<g id="edge2" class="edge">
<title>Node3&#45;&gt;Node2</title>
<path fill="none" stroke="#404040" d="M74.5,-354.23C74.5,-337.02 74.5,-315.76 74.5,-297.06"/>
<polygon fill="none" stroke="#404040" points="74.5,-296.9 70.5,-290.9 74.5,-284.9 78.5,-290.9 74.5,-296.9"/>
<text text-anchor="middle" x="115.5" y="-328" font-family="Helvetica,sans-Serif" font-size="10.00"> +centerCoordinate</text>
<text text-anchor="middle" x="115.5" y="-317" font-family="Helvetica,sans-Serif" font-size="10.00">+leftCoordinate</text>
<text text-anchor="middle" x="115.5" y="-306" font-family="Helvetica,sans-Serif" font-size="10.00">+rightCoordinate</text>
</g>
</g>
</svg>
