<?xml version="1.0" encoding="UTF-8" standalone="no"?>
<!DOCTYPE svg PUBLIC "-//W3C//DTD SVG 1.1//EN"
 "http://www.w3.org/Graphics/SVG/1.1/DTD/svg11.dtd">
<!-- Generated by graphviz version 2.49.0 (20210830.1337)
 -->
<!-- Title: guWhiteboard::VisionLines Pages: 1 -->
<svg width="151pt" height="652pt"
 viewBox="0.00 0.00 150.50 652.00" xmlns="http://www.w3.org/2000/svg" xmlns:xlink="http://www.w3.org/1999/xlink">
<g id="graph0" class="graph" transform="scale(1 1) rotate(0) translate(4 648)">
<title>guWhiteboard::VisionLines</title>
<!-- Node1 -->
<g id="node1" class="node">
<title>Node1</title>
<g id="a_node1"><a xlink:title="Provides a C++ wrapper around wb_vision_lines.">
<polygon fill="#bfbfbf" stroke="black" points="0,-0.5 0,-167.5 131,-167.5 131,-0.5 0,-0.5"/>
<text text-anchor="middle" x="65.5" y="-155.5" font-family="Helvetica,sans-Serif" font-size="10.00">guWhiteboard::VisionLines</text>
<polyline fill="none" stroke="black" points="0,-148.5 131,-148.5 "/>
<text text-anchor="middle" x="65.5" y="-136.5" font-family="Helvetica,sans-Serif" font-size="10.00"> </text>
<polyline fill="none" stroke="black" points="0,-129.5 131,-129.5 "/>
<text text-anchor="start" x="8" y="-117.5" font-family="Helvetica,sans-Serif" font-size="10.00">+ VisionLines()</text>
<text text-anchor="start" x="8" y="-106.5" font-family="Helvetica,sans-Serif" font-size="10.00">+ VisionLines()</text>
<text text-anchor="start" x="8" y="-95.5" font-family="Helvetica,sans-Serif" font-size="10.00">+ VisionLines()</text>
<text text-anchor="start" x="8" y="-84.5" font-family="Helvetica,sans-Serif" font-size="10.00">+ operator=()</text>
<text text-anchor="start" x="8" y="-73.5" font-family="Helvetica,sans-Serif" font-size="10.00">+ operator=()</text>
<text text-anchor="start" x="8" y="-62.5" font-family="Helvetica,sans-Serif" font-size="10.00">+ operator==()</text>
<text text-anchor="start" x="8" y="-51.5" font-family="Helvetica,sans-Serif" font-size="10.00">+ operator!=()</text>
<text text-anchor="start" x="8" y="-40.5" font-family="Helvetica,sans-Serif" font-size="10.00">+ operator==()</text>
<text text-anchor="start" x="8" y="-29.5" font-family="Helvetica,sans-Serif" font-size="10.00">+ operator!=()</text>
<text text-anchor="start" x="8" y="-18.5" font-family="Helvetica,sans-Serif" font-size="10.00">+ lines()</text>
<text text-anchor="start" x="8" y="-7.5" font-family="Helvetica,sans-Serif" font-size="10.00">and 21 more...</text>
</a>
</g>
</g>
<!-- Node2 -->
<g id="node2" class="node">
<title>Node2</title>
<g id="a_node2"><a xlink:href="structwb__vision__lines.html" target="_top" xlink:title="Class use to represent lines detected by vision for a single camera and posted to the whiteboard.">
<polygon fill="none" stroke="black" points="22.5,-205.5 22.5,-295.5 108.5,-295.5 108.5,-205.5 22.5,-205.5"/>
<text text-anchor="middle" x="65.5" y="-283.5" font-family="Helvetica,sans-Serif" font-size="10.00">wb_vision_lines</text>
<polyline fill="none" stroke="black" points="22.5,-276.5 108.5,-276.5 "/>
<text text-anchor="start" x="30.5" y="-264.5" font-family="Helvetica,sans-Serif" font-size="10.00">+ numLines</text>
<text text-anchor="start" x="30.5" y="-253.5" font-family="Helvetica,sans-Serif" font-size="10.00">+ frameNumber</text>
<text text-anchor="start" x="30.5" y="-242.5" font-family="Helvetica,sans-Serif" font-size="10.00">+ res_width</text>
<text text-anchor="start" x="30.5" y="-231.5" font-family="Helvetica,sans-Serif" font-size="10.00">+ res_height</text>
<polyline fill="none" stroke="black" points="22.5,-224.5 108.5,-224.5 "/>
<text text-anchor="middle" x="65.5" y="-212.5" font-family="Helvetica,sans-Serif" font-size="10.00"> </text>
</a>
</g>
</g>
<!-- Node2&#45;&gt;Node1 -->
<g id="edge1" class="edge">
<title>Node2&#45;&gt;Node1</title>
<path fill="none" stroke="midnightblue" d="M65.5,-195.25C65.5,-186.38 65.5,-177.01 65.5,-167.64"/>
<polygon fill="none" stroke="midnightblue" points="62,-195.42 65.5,-205.42 69,-195.42 62,-195.42"/>
</g>
<!-- Node3 -->
<g id="node3" class="node">
<title>Node3</title>
<g id="a_node3"><a xlink:href="structwb__vision__line.html" target="_top" xlink:title="WHITEBOARD_POSTER_STRING_CONVERSION.">
<polygon fill="none" stroke="black" points="25.5,-343.5 25.5,-400.5 105.5,-400.5 105.5,-343.5 25.5,-343.5"/>
<text text-anchor="middle" x="65.5" y="-388.5" font-family="Helvetica,sans-Serif" font-size="10.00">wb_vision_line</text>
<polyline fill="none" stroke="black" points="25.5,-381.5 105.5,-381.5 "/>
<text text-anchor="middle" x="65.5" y="-369.5" font-family="Helvetica,sans-Serif" font-size="10.00"> </text>
<polyline fill="none" stroke="black" points="25.5,-362.5 105.5,-362.5 "/>
<text text-anchor="middle" x="65.5" y="-350.5" font-family="Helvetica,sans-Serif" font-size="10.00"> </text>
</a>
</g>
</g>
<!-- Node3&#45;&gt;Node2 -->
<g id="edge2" class="edge">
<title>Node3&#45;&gt;Node2</title>
<path fill="none" stroke="#404040" d="M65.5,-343.28C65.5,-332.73 65.5,-320.29 65.5,-308.03"/>
<polygon fill="none" stroke="#404040" points="65.5,-307.91 61.5,-301.91 65.5,-295.91 69.5,-301.91 65.5,-307.91"/>
<text text-anchor="middle" x="80" y="-317" font-family="Helvetica,sans-Serif" font-size="10.00"> +lines</text>
</g>
<!-- Node4 -->
<g id="node4" class="node">
<title>Node4</title>
<g id="a_node4"><a xlink:href="structwb__pixel__coordinate__line.html" target="_top" xlink:title="WHITEBOARD_POSTER_STRING_CONVERSION.">
<polygon fill="none" stroke="black" points="3,-459.5 3,-516.5 128,-516.5 128,-459.5 3,-459.5"/>
<text text-anchor="middle" x="65.5" y="-504.5" font-family="Helvetica,sans-Serif" font-size="10.00">wb_pixel_coordinate_line</text>
<polyline fill="none" stroke="black" points="3,-497.5 128,-497.5 "/>
<text text-anchor="middle" x="65.5" y="-485.5" font-family="Helvetica,sans-Serif" font-size="10.00"> </text>
<polyline fill="none" stroke="black" points="3,-478.5 128,-478.5 "/>
<text text-anchor="middle" x="65.5" y="-466.5" font-family="Helvetica,sans-Serif" font-size="10.00"> </text>
</a>
</g>
</g>
<!-- Node4&#45;&gt;Node3 -->
<g id="edge3" class="edge">
<title>Node4&#45;&gt;Node3</title>
<path fill="none" stroke="#404040" d="M65.5,-459.4C65.5,-445.5 65.5,-428.39 65.5,-413.07"/>
<polygon fill="none" stroke="#404040" points="65.5,-412.74 61.5,-406.74 65.5,-400.74 69.5,-406.74 65.5,-412.74"/>
<text text-anchor="middle" x="104" y="-433" font-family="Helvetica,sans-Serif" font-size="10.00"> +lineEdgeBottom</text>
<text text-anchor="middle" x="104" y="-422" font-family="Helvetica,sans-Serif" font-size="10.00">+lineEdgeTop</text>
</g>
<!-- Node5 -->
<g id="node5" class="node">
<title>Node5</title>
<g id="a_node5"><a xlink:href="structwb__pixel__coordinate.html" target="_top" xlink:title="WHITEBOARD_POSTER_STRING_CONVERSION.">
<polygon fill="none" stroke="black" points="13.5,-575.5 13.5,-643.5 117.5,-643.5 117.5,-575.5 13.5,-575.5"/>
<text text-anchor="middle" x="65.5" y="-631.5" font-family="Helvetica,sans-Serif" font-size="10.00">wb_pixel_coordinate</text>
<polyline fill="none" stroke="black" points="13.5,-624.5 117.5,-624.5 "/>
<text text-anchor="start" x="21.5" y="-612.5" font-family="Helvetica,sans-Serif" font-size="10.00">+ x</text>
<text text-anchor="start" x="21.5" y="-601.5" font-family="Helvetica,sans-Serif" font-size="10.00">+ y</text>
<polyline fill="none" stroke="black" points="13.5,-594.5 117.5,-594.5 "/>
<text text-anchor="middle" x="65.5" y="-582.5" font-family="Helvetica,sans-Serif" font-size="10.00"> </text>
</a>
</g>
</g>
<!-- Node5&#45;&gt;Node4 -->
<g id="edge4" class="edge">
<title>Node5&#45;&gt;Node4</title>
<path fill="none" stroke="#404040" d="M65.5,-575.21C65.5,-560.86 65.5,-543.96 65.5,-528.94"/>
<polygon fill="none" stroke="#404040" points="65.5,-528.86 61.5,-522.86 65.5,-516.86 69.5,-522.86 65.5,-528.86"/>
<text text-anchor="middle" x="78.5" y="-549" font-family="Helvetica,sans-Serif" font-size="10.00"> +end</text>
<text text-anchor="middle" x="78.5" y="-538" font-family="Helvetica,sans-Serif" font-size="10.00">+start</text>
</g>
</g>
</svg>
