<?xml version="1.0" encoding="UTF-8" standalone="no"?>
<!DOCTYPE svg PUBLIC "-//W3C//DTD SVG 1.1//EN"
 "http://www.w3.org/Graphics/SVG/1.1/DTD/svg11.dtd">
<!-- Generated by graphviz version 2.49.0 (20210830.1337)
 -->
<!-- Title: guWhiteboard::RemoteWhiteboard Pages: 1 -->
<svg width="202pt" height="927pt"
 viewBox="0.00 0.00 201.50 927.00" xmlns="http://www.w3.org/2000/svg" xmlns:xlink="http://www.w3.org/1999/xlink">
<g id="graph0" class="graph" transform="scale(1 1) rotate(0) translate(4 923)">
<title>guWhiteboard::RemoteWhiteboard</title>
<!-- Node1 -->
<g id="node1" class="node">
<title>Node1</title>
<g id="a_node1"><a xlink:title="compatibility API for accessing the remote whiteboard">
<polygon fill="#bfbfbf" stroke="black" points="0,-0.5 0,-112.5 163,-112.5 163,-0.5 0,-0.5"/>
<text text-anchor="middle" x="81.5" y="-100.5" font-family="Helvetica,sans-Serif" font-size="10.00">guWhiteboard::RemoteWhiteboard</text>
<polyline fill="none" stroke="black" points="0,-93.5 163,-93.5 "/>
<text text-anchor="middle" x="81.5" y="-81.5" font-family="Helvetica,sans-Serif" font-size="10.00"> </text>
<polyline fill="none" stroke="black" points="0,-74.5 163,-74.5 "/>
<text text-anchor="start" x="8" y="-62.5" font-family="Helvetica,sans-Serif" font-size="10.00">+ RemoteWhiteboard()</text>
<text text-anchor="start" x="8" y="-51.5" font-family="Helvetica,sans-Serif" font-size="10.00">+ ~RemoteWhiteboard()</text>
<text text-anchor="start" x="8" y="-40.5" font-family="Helvetica,sans-Serif" font-size="10.00">+ machine()</text>
<text text-anchor="start" x="8" y="-29.5" font-family="Helvetica,sans-Serif" font-size="10.00">+ addReplicationType()</text>
<text text-anchor="start" x="8" y="-18.5" font-family="Helvetica,sans-Serif" font-size="10.00">+ getKnownTypesForMachine()</text>
<text text-anchor="start" x="8" y="-7.5" font-family="Helvetica,sans-Serif" font-size="10.00">+ subscribeToMessage()</text>
</a>
</g>
</g>
<!-- Node2 -->
<g id="node2" class="node">
<title>Node2</title>
<g id="a_node2"><a xlink:href="classgu_whiteboard_1_1_whiteboard.html" target="_top" xlink:title="compatibility API for accessing the whiteboard">
<polygon fill="none" stroke="black" points="14.5,-150.5 14.5,-339.5 148.5,-339.5 148.5,-150.5 14.5,-150.5"/>
<text text-anchor="middle" x="81.5" y="-327.5" font-family="Helvetica,sans-Serif" font-size="10.00">guWhiteboard::Whiteboard</text>
<polyline fill="none" stroke="black" points="14.5,-320.5 148.5,-320.5 "/>
<text text-anchor="middle" x="81.5" y="-308.5" font-family="Helvetica,sans-Serif" font-size="10.00"> </text>
<polyline fill="none" stroke="black" points="14.5,-301.5 148.5,-301.5 "/>
<text text-anchor="start" x="22.5" y="-289.5" font-family="Helvetica,sans-Serif" font-size="10.00">+ Whiteboard()</text>
<text text-anchor="start" x="22.5" y="-278.5" font-family="Helvetica,sans-Serif" font-size="10.00">+ ~Whiteboard()</text>
<text text-anchor="start" x="22.5" y="-267.5" font-family="Helvetica,sans-Serif" font-size="10.00">+ addMessage()</text>
<text text-anchor="start" x="22.5" y="-256.5" font-family="Helvetica,sans-Serif" font-size="10.00">+ getMessage()</text>
<text text-anchor="start" x="22.5" y="-245.5" font-family="Helvetica,sans-Serif" font-size="10.00">+ subscriptionCallback()</text>
<text text-anchor="start" x="22.5" y="-234.5" font-family="Helvetica,sans-Serif" font-size="10.00">+ subscribeToMessage()</text>
<text text-anchor="start" x="22.5" y="-223.5" font-family="Helvetica,sans-Serif" font-size="10.00">+ unsubscribeToMessage()</text>
<text text-anchor="start" x="22.5" y="-212.5" font-family="Helvetica,sans-Serif" font-size="10.00">+ getTypeOffset()</text>
<text text-anchor="start" x="22.5" y="-201.5" font-family="Helvetica,sans-Serif" font-size="10.00">+ addMessage()</text>
<text text-anchor="start" x="22.5" y="-190.5" font-family="Helvetica,sans-Serif" font-size="10.00">+ getMessage()</text>
<text text-anchor="start" x="22.5" y="-179.5" font-family="Helvetica,sans-Serif" font-size="10.00">+ subscribeToMessage()</text>
<text text-anchor="start" x="22.5" y="-168.5" font-family="Helvetica,sans-Serif" font-size="10.00">+ unsubscribeToMessage()</text>
<text text-anchor="start" x="22.5" y="-157.5" font-family="Helvetica,sans-Serif" font-size="10.00">+ getWBMsg()</text>
</a>
</g>
</g>
<!-- Node2&#45;&gt;Node1 -->
<g id="edge1" class="edge">
<title>Node2&#45;&gt;Node1</title>
<path fill="none" stroke="midnightblue" d="M81.5,-140.44C81.5,-130.85 81.5,-121.4 81.5,-112.52"/>
<polygon fill="none" stroke="midnightblue" points="78,-140.48 81.5,-150.48 85,-140.48 78,-140.48"/>
</g>
<!-- Node3 -->
<g id="node3" class="node">
<title>Node3</title>
<g id="a_node3"><a xlink:href="structgsw__whiteboard__s.html" target="_top" xlink:title="the underlying whiteboard object">
<polygon fill="none" stroke="black" points="32.5,-387.5 32.5,-499.5 130.5,-499.5 130.5,-387.5 32.5,-387.5"/>
<text text-anchor="middle" x="81.5" y="-487.5" font-family="Helvetica,sans-Serif" font-size="10.00">gsw_whiteboard_s</text>
<polyline fill="none" stroke="black" points="32.5,-480.5 130.5,-480.5 "/>
<text text-anchor="start" x="40.5" y="-468.5" font-family="Helvetica,sans-Serif" font-size="10.00">+ sem</text>
<text text-anchor="start" x="40.5" y="-457.5" font-family="Helvetica,sans-Serif" font-size="10.00">+ fd</text>
<text text-anchor="start" x="40.5" y="-446.5" font-family="Helvetica,sans-Serif" font-size="10.00">+ callback_queue</text>
<text text-anchor="start" x="40.5" y="-435.5" font-family="Helvetica,sans-Serif" font-size="10.00">+ context</text>
<text text-anchor="start" x="40.5" y="-424.5" font-family="Helvetica,sans-Serif" font-size="10.00">+ got_monitor</text>
<text text-anchor="start" x="40.5" y="-413.5" font-family="Helvetica,sans-Serif" font-size="10.00">+ exit_monitor</text>
<polyline fill="none" stroke="black" points="32.5,-406.5 130.5,-406.5 "/>
<text text-anchor="middle" x="81.5" y="-394.5" font-family="Helvetica,sans-Serif" font-size="10.00"> </text>
</a>
</g>
</g>
<!-- Node3&#45;&gt;Node2 -->
<g id="edge2" class="edge">
<title>Node3&#45;&gt;Node2</title>
<path fill="none" stroke="#404040" d="M81.5,-387.24C81.5,-376.09 81.5,-364.01 81.5,-351.78"/>
<polygon fill="none" stroke="#404040" points="81.5,-351.53 77.5,-345.53 81.5,-339.53 85.5,-345.53 81.5,-351.53"/>
<text text-anchor="middle" x="97.5" y="-361" font-family="Helvetica,sans-Serif" font-size="10.00"> +_wbd</text>
</g>
<!-- Node3&#45;&gt;Node3 -->
<g id="edge5" class="edge">
<title>Node3&#45;&gt;Node3</title>
<path fill="none" stroke="#404040" d="M130.58,-458.02C140.99,-456.54 148.5,-451.7 148.5,-443.5 148.5,-438.89 146.12,-435.34 142.19,-432.85"/>
<polygon fill="none" stroke="#404040" points="141.97,-432.78 135.01,-434.68 130.58,-428.98 137.54,-427.09 141.97,-432.78"/>
<text text-anchor="middle" x="171" y="-441" font-family="Helvetica,sans-Serif" font-size="10.00"> +callback</text>
</g>
<!-- Node4 -->
<g id="node4" class="node">
<title>Node4</title>
<g id="a_node4"><a xlink:href="structgsw__simple__whiteboard__s.html" target="_top" xlink:title="the actual whiteboard in shared mem">
<polygon fill="none" stroke="black" points="16,-547.5 16,-681.5 147,-681.5 147,-547.5 16,-547.5"/>
<text text-anchor="middle" x="81.5" y="-669.5" font-family="Helvetica,sans-Serif" font-size="10.00">gsw_simple_whiteboard_s</text>
<polyline fill="none" stroke="black" points="16,-662.5 147,-662.5 "/>
<text text-anchor="start" x="24" y="-650.5" font-family="Helvetica,sans-Serif" font-size="10.00">+ version</text>
<text text-anchor="start" x="24" y="-639.5" font-family="Helvetica,sans-Serif" font-size="10.00">+ eventcount</text>
<text text-anchor="start" x="24" y="-628.5" font-family="Helvetica,sans-Serif" font-size="10.00">+ subscribed</text>
<text text-anchor="start" x="24" y="-617.5" font-family="Helvetica,sans-Serif" font-size="10.00">+ num_types</text>
<text text-anchor="start" x="24" y="-606.5" font-family="Helvetica,sans-Serif" font-size="10.00">+ indexes</text>
<text text-anchor="start" x="24" y="-595.5" font-family="Helvetica,sans-Serif" font-size="10.00">+ event_counters</text>
<text text-anchor="start" x="24" y="-584.5" font-family="Helvetica,sans-Serif" font-size="10.00">+ processes</text>
<text text-anchor="start" x="24" y="-573.5" font-family="Helvetica,sans-Serif" font-size="10.00">+ magic</text>
<polyline fill="none" stroke="black" points="16,-566.5 147,-566.5 "/>
<text text-anchor="middle" x="81.5" y="-554.5" font-family="Helvetica,sans-Serif" font-size="10.00"> </text>
</a>
</g>
</g>
<!-- Node4&#45;&gt;Node3 -->
<g id="edge3" class="edge">
<title>Node4&#45;&gt;Node3</title>
<path fill="none" stroke="#404040" d="M81.5,-547.19C81.5,-535.65 81.5,-523.63 81.5,-512.05"/>
<polygon fill="none" stroke="#404040" points="81.5,-511.7 77.5,-505.7 81.5,-499.7 85.5,-505.7 81.5,-511.7"/>
<text text-anchor="middle" x="92.5" y="-521" font-family="Helvetica,sans-Serif" font-size="10.00"> +wb</text>
</g>
<!-- Node5 -->
<g id="node5" class="node">
<title>Node5</title>
<g id="a_node5"><a xlink:href="uniongsw__simple__message.html" target="_top" xlink:title="union type that is used to store data in shared memory">
<polygon fill="none" stroke="black" points="25,-751.5 25,-918.5 138,-918.5 138,-751.5 25,-751.5"/>
<text text-anchor="middle" x="81.5" y="-906.5" font-family="Helvetica,sans-Serif" font-size="10.00">gsw_simple_message</text>
<polyline fill="none" stroke="black" points="25,-899.5 138,-899.5 "/>
<text text-anchor="start" x="33" y="-887.5" font-family="Helvetica,sans-Serif" font-size="10.00">+ ulonglong</text>
<text text-anchor="start" x="33" y="-876.5" font-family="Helvetica,sans-Serif" font-size="10.00">+ slonglong</text>
<text text-anchor="start" x="33" y="-865.5" font-family="Helvetica,sans-Serif" font-size="10.00">+ ulong</text>
<text text-anchor="start" x="33" y="-854.5" font-family="Helvetica,sans-Serif" font-size="10.00">+ slong</text>
<text text-anchor="start" x="33" y="-843.5" font-family="Helvetica,sans-Serif" font-size="10.00">+ uint</text>
<text text-anchor="start" x="33" y="-832.5" font-family="Helvetica,sans-Serif" font-size="10.00">+ sint</text>
<text text-anchor="start" x="33" y="-821.5" font-family="Helvetica,sans-Serif" font-size="10.00">+ ushort</text>
<text text-anchor="start" x="33" y="-810.5" font-family="Helvetica,sans-Serif" font-size="10.00">+ sshort</text>
<text text-anchor="start" x="33" y="-799.5" font-family="Helvetica,sans-Serif" font-size="10.00">+ uchar</text>
<text text-anchor="start" x="33" y="-788.5" font-family="Helvetica,sans-Serif" font-size="10.00">+ schar</text>
<text text-anchor="start" x="33" y="-777.5" font-family="Helvetica,sans-Serif" font-size="10.00">and 65 more...</text>
<polyline fill="none" stroke="black" points="25,-770.5 138,-770.5 "/>
<text text-anchor="middle" x="81.5" y="-758.5" font-family="Helvetica,sans-Serif" font-size="10.00"> </text>
</a>
</g>
</g>
<!-- Node5&#45;&gt;Node4 -->
<g id="edge4" class="edge">
<title>Node5&#45;&gt;Node4</title>
<path fill="none" stroke="#404040" d="M81.5,-751.39C81.5,-732.46 81.5,-712.39 81.5,-693.65"/>
<polygon fill="none" stroke="#404040" points="81.5,-693.55 77.5,-687.55 81.5,-681.55 85.5,-687.55 81.5,-693.55"/>
<text text-anchor="middle" x="108.5" y="-725" font-family="Helvetica,sans-Serif" font-size="10.00"> +hashes</text>
<text text-anchor="middle" x="108.5" y="-714" font-family="Helvetica,sans-Serif" font-size="10.00">+messages</text>
<text text-anchor="middle" x="108.5" y="-703" font-family="Helvetica,sans-Serif" font-size="10.00">+typenames</text>
</g>
</g>
</svg>
