<?xml version="1.0" encoding="UTF-8" standalone="no"?>
<!DOCTYPE svg PUBLIC "-//W3C//DTD SVG 1.1//EN"
 "http://www.w3.org/Graphics/SVG/1.1/DTD/svg11.dtd">
<!-- Generated by graphviz version 2.49.0 (20210830.1337)
 -->
<!-- Title: motor_WBFunctor&lt; motor_WBFunctor_T &gt; Pages: 1 -->
<svg width="180pt" height="518pt"
 viewBox="0.00 0.00 180.00 518.00" xmlns="http://www.w3.org/2000/svg" xmlns:xlink="http://www.w3.org/1999/xlink">
<g id="graph0" class="graph" transform="scale(1 1) rotate(0) translate(4 514)">
<title>motor_WBFunctor&lt; motor_WBFunctor_T &gt;</title>
<!-- Node1 -->
<g id="node1" class="node">
<title>Node1</title>
<g id="a_node1"><a xlink:title="WBFunctor definition for motor_WBFunctor_T.">
<polygon fill="#bfbfbf" stroke="black" points="22,-0.5 22,-90.5 150,-90.5 150,-0.5 22,-0.5"/>
<text text-anchor="start" x="30" y="-78.5" font-family="Helvetica,sans-Serif" font-size="10.00">motor_WBFunctor&lt; motor</text>
<text text-anchor="middle" x="86" y="-67.5" font-family="Helvetica,sans-Serif" font-size="10.00">_WBFunctor_T &gt;</text>
<polyline fill="none" stroke="black" points="22,-60.5 150,-60.5 "/>
<text text-anchor="middle" x="86" y="-48.5" font-family="Helvetica,sans-Serif" font-size="10.00"> </text>
<polyline fill="none" stroke="black" points="22,-41.5 150,-41.5 "/>
<text text-anchor="start" x="30" y="-29.5" font-family="Helvetica,sans-Serif" font-size="10.00">+ motor_WBFunctor()</text>
<text text-anchor="start" x="30" y="-18.5" font-family="Helvetica,sans-Serif" font-size="10.00">+ call()</text>
<text text-anchor="start" x="30" y="-7.5" font-family="Helvetica,sans-Serif" font-size="10.00">+ bind()</text>
</a>
</g>
</g>
<!-- Node2 -->
<g id="node2" class="node">
<title>Node2</title>
<g id="a_node2"><a xlink:href="class_w_b_functor.html" target="_top" xlink:title=" ">
<polygon fill="none" stroke="black" points="0,-127.5 0,-338.5 172,-338.5 172,-127.5 0,-127.5"/>
<text text-anchor="middle" x="86" y="-326.5" font-family="Helvetica,sans-Serif" font-size="10.00">WBFunctor&lt; motor_WBFunctor_T &gt;</text>
<polyline fill="none" stroke="black" points="0,-319.5 172,-319.5 "/>
<text text-anchor="start" x="8" y="-307.5" font-family="Helvetica,sans-Serif" font-size="10.00"># fObject</text>
<text text-anchor="start" x="8" y="-296.5" font-family="Helvetica,sans-Serif" font-size="10.00"># fFunction</text>
<text text-anchor="start" x="8" y="-285.5" font-family="Helvetica,sans-Serif" font-size="10.00"># s_fFunction</text>
<text text-anchor="start" x="8" y="-274.5" font-family="Helvetica,sans-Serif" font-size="10.00"># type_enum</text>
<text text-anchor="start" x="8" y="-263.5" font-family="Helvetica,sans-Serif" font-size="10.00"># event_count</text>
<text text-anchor="start" x="8" y="-252.5" font-family="Helvetica,sans-Serif" font-size="10.00"># simple_wb_version</text>
<polyline fill="none" stroke="black" points="0,-245.5 172,-245.5 "/>
<text text-anchor="start" x="8" y="-233.5" font-family="Helvetica,sans-Serif" font-size="10.00">+ WBFunctor()</text>
<text text-anchor="start" x="8" y="-222.5" font-family="Helvetica,sans-Serif" font-size="10.00">+ WBFunctor()</text>
<text text-anchor="start" x="8" y="-211.5" font-family="Helvetica,sans-Serif" font-size="10.00">+ call()</text>
<text text-anchor="start" x="8" y="-200.5" font-family="Helvetica,sans-Serif" font-size="10.00">+ call()</text>
<text text-anchor="start" x="8" y="-189.5" font-family="Helvetica,sans-Serif" font-size="10.00">+ call()</text>
<text text-anchor="start" x="8" y="-178.5" font-family="Helvetica,sans-Serif" font-size="10.00">+ type()</text>
<text text-anchor="start" x="8" y="-167.5" font-family="Helvetica,sans-Serif" font-size="10.00">+ get_event_count()</text>
<text text-anchor="start" x="8" y="-156.5" font-family="Helvetica,sans-Serif" font-size="10.00">+ set_event_count()</text>
<text text-anchor="start" x="8" y="-145.5" font-family="Helvetica,sans-Serif" font-size="10.00">+ is_simple_wb_version()</text>
<text text-anchor="start" x="8" y="-134.5" font-family="Helvetica,sans-Serif" font-size="10.00">+ get_s_func_ptr()</text>
</a>
</g>
</g>
<!-- Node2&#45;&gt;Node1 -->
<g id="edge1" class="edge">
<title>Node2&#45;&gt;Node1</title>
<path fill="none" stroke="midnightblue" d="M86,-117.19C86,-107.95 86,-99.02 86,-90.79"/>
<polygon fill="none" stroke="midnightblue" points="82.5,-117.32 86,-127.32 89.5,-117.32 82.5,-117.32"/>
</g>
<!-- Node3 -->
<g id="node3" class="node">
<title>Node3</title>
<g id="a_node3"><a xlink:href="class_w_b_functor_base.html" target="_top" xlink:title="Base class for WBFunctor.">
<polygon fill="none" stroke="black" points="22.5,-375.5 22.5,-509.5 149.5,-509.5 149.5,-375.5 22.5,-375.5"/>
<text text-anchor="middle" x="86" y="-497.5" font-family="Helvetica,sans-Serif" font-size="10.00">WBFunctorBase</text>
<polyline fill="none" stroke="black" points="22.5,-490.5 149.5,-490.5 "/>
<text text-anchor="middle" x="86" y="-478.5" font-family="Helvetica,sans-Serif" font-size="10.00"> </text>
<polyline fill="none" stroke="black" points="22.5,-471.5 149.5,-471.5 "/>
<text text-anchor="start" x="30.5" y="-459.5" font-family="Helvetica,sans-Serif" font-size="10.00">+ call()</text>
<text text-anchor="start" x="30.5" y="-448.5" font-family="Helvetica,sans-Serif" font-size="10.00">+ call()</text>
<text text-anchor="start" x="30.5" y="-437.5" font-family="Helvetica,sans-Serif" font-size="10.00">+ call()</text>
<text text-anchor="start" x="30.5" y="-426.5" font-family="Helvetica,sans-Serif" font-size="10.00">+ type()</text>
<text text-anchor="start" x="30.5" y="-415.5" font-family="Helvetica,sans-Serif" font-size="10.00">+ get_event_count()</text>
<text text-anchor="start" x="30.5" y="-404.5" font-family="Helvetica,sans-Serif" font-size="10.00">+ set_event_count()</text>
<text text-anchor="start" x="30.5" y="-393.5" font-family="Helvetica,sans-Serif" font-size="10.00">+ is_simple_wb_version()</text>
<text text-anchor="start" x="30.5" y="-382.5" font-family="Helvetica,sans-Serif" font-size="10.00">+ ~WBFunctorBase()</text>
</a>
</g>
</g>
<!-- Node3&#45;&gt;Node2 -->
<g id="edge2" class="edge">
<title>Node3&#45;&gt;Node2</title>
<path fill="none" stroke="midnightblue" d="M86,-365.21C86,-356.51 86,-347.53 86,-338.55"/>
<polygon fill="none" stroke="midnightblue" points="82.5,-365.28 86,-375.28 89.5,-365.28 82.5,-365.28"/>
</g>
</g>
</svg>
