<?xml version="1.0" encoding="UTF-8" standalone="no"?>
<!DOCTYPE svg PUBLIC "-//W3C//DTD SVG 1.1//EN"
 "http://www.w3.org/Graphics/SVG/1.1/DTD/svg11.dtd">
<!-- Generated by graphviz version 2.49.0 (20210830.1337)
 -->
<!-- Title: guWhiteboard::DifferentialRobotControl_t Pages: 1 -->
<svg width="191pt" height="1121pt"
 viewBox="0.00 0.00 190.50 1121.00" xmlns="http://www.w3.org/2000/svg" xmlns:xlink="http://www.w3.org/1999/xlink">
<g id="graph0" class="graph" transform="scale(1 1) rotate(0) translate(4 1117)">
<title>guWhiteboard::DifferentialRobotControl_t</title>
<!-- Node1 -->
<g id="node1" class="node">
<title>Node1</title>
<g id="a_node1"><a xlink:title="WB Ptr Class: DifferentialRobotControl_t.">
<polygon fill="#bfbfbf" stroke="black" points="0,-0.5 0,-79.5 141,-79.5 141,-0.5 0,-0.5"/>
<text text-anchor="start" x="8" y="-67.5" font-family="Helvetica,sans-Serif" font-size="10.00">guWhiteboard::Differential</text>
<text text-anchor="middle" x="70.5" y="-56.5" font-family="Helvetica,sans-Serif" font-size="10.00">RobotControl_t</text>
<polyline fill="none" stroke="black" points="0,-49.5 141,-49.5 "/>
<text text-anchor="start" x="8" y="-37.5" font-family="Helvetica,sans-Serif" font-size="10.00">+ slot</text>
<polyline fill="none" stroke="black" points="0,-30.5 141,-30.5 "/>
<text text-anchor="start" x="8" y="-18.5" font-family="Helvetica,sans-Serif" font-size="10.00">+ DifferentialRobotControl_t()</text>
<text text-anchor="start" x="8" y="-7.5" font-family="Helvetica,sans-Serif" font-size="10.00">+ eventCounter()</text>
</a>
</g>
</g>
<!-- Node2 -->
<g id="node2" class="node">
<title>Node2</title>
<g id="a_node2"><a xlink:href="classwb__generic__whiteboard__object.html" target="_top" xlink:title=" ">
<polygon fill="none" stroke="black" points="6.5,-117.5 6.5,-240.5 134.5,-240.5 134.5,-117.5 6.5,-117.5"/>
<text text-anchor="start" x="14.5" y="-228.5" font-family="Helvetica,sans-Serif" font-size="10.00">wb_generic_whiteboard</text>
<text text-anchor="start" x="14.5" y="-217.5" font-family="Helvetica,sans-Serif" font-size="10.00">_object&lt; class Differential</text>
<text text-anchor="middle" x="70.5" y="-206.5" font-family="Helvetica,sans-Serif" font-size="10.00">RobotControlStatus &gt;</text>
<polyline fill="none" stroke="black" points="6.5,-199.5 134.5,-199.5 "/>
<text text-anchor="middle" x="70.5" y="-187.5" font-family="Helvetica,sans-Serif" font-size="10.00"> </text>
<polyline fill="none" stroke="black" points="6.5,-180.5 134.5,-180.5 "/>
<text text-anchor="start" x="14.5" y="-168.5" font-family="Helvetica,sans-Serif" font-size="10.00">+ wb_generic_whiteboard</text>
<text text-anchor="start" x="14.5" y="-157.5" font-family="Helvetica,sans-Serif" font-size="10.00">_object()</text>
<text text-anchor="start" x="14.5" y="-146.5" font-family="Helvetica,sans-Serif" font-size="10.00">+ wb_generic_whiteboard</text>
<text text-anchor="start" x="14.5" y="-135.5" font-family="Helvetica,sans-Serif" font-size="10.00">_object()</text>
<text text-anchor="start" x="14.5" y="-124.5" font-family="Helvetica,sans-Serif" font-size="10.00">+ init()</text>
</a>
</g>
</g>
<!-- Node2&#45;&gt;Node1 -->
<g id="edge1" class="edge">
<title>Node2&#45;&gt;Node1</title>
<path fill="none" stroke="midnightblue" d="M70.5,-106.93C70.5,-97.55 70.5,-88.22 70.5,-79.67"/>
<polygon fill="none" stroke="midnightblue" points="67,-107.11 70.5,-117.11 74,-107.11 67,-107.11"/>
</g>
<!-- Node3 -->
<g id="node3" class="node">
<title>Node3</title>
<g id="a_node3"><a xlink:href="classgeneric__whiteboard__object.html" target="_top" xlink:title="This class allows you to set and get data directly into or out of the local whiteboard in shared memo...">
<polygon fill="none" stroke="black" points="13.5,-278.5 13.5,-533.5 127.5,-533.5 127.5,-278.5 13.5,-278.5"/>
<text text-anchor="start" x="21.5" y="-521.5" font-family="Helvetica,sans-Serif" font-size="10.00">generic_whiteboard</text>
<text text-anchor="middle" x="70.5" y="-510.5" font-family="Helvetica,sans-Serif" font-size="10.00">_object&lt; object_type &gt;</text>
<polyline fill="none" stroke="black" points="13.5,-503.5 127.5,-503.5 "/>
<text text-anchor="start" x="21.5" y="-491.5" font-family="Helvetica,sans-Serif" font-size="10.00"># type_offset</text>
<text text-anchor="start" x="21.5" y="-480.5" font-family="Helvetica,sans-Serif" font-size="10.00"># atomic</text>
<text text-anchor="start" x="21.5" y="-469.5" font-family="Helvetica,sans-Serif" font-size="10.00"># notify_subscribers</text>
<text text-anchor="start" x="21.5" y="-458.5" font-family="Helvetica,sans-Serif" font-size="10.00"># last_count</text>
<text text-anchor="start" x="21.5" y="-447.5" font-family="Helvetica,sans-Serif" font-size="10.00"># isFirst</text>
<polyline fill="none" stroke="black" points="13.5,-440.5 127.5,-440.5 "/>
<text text-anchor="start" x="21.5" y="-428.5" font-family="Helvetica,sans-Serif" font-size="10.00">+ generic_whiteboard</text>
<text text-anchor="start" x="21.5" y="-417.5" font-family="Helvetica,sans-Serif" font-size="10.00">_object()</text>
<text text-anchor="start" x="21.5" y="-406.5" font-family="Helvetica,sans-Serif" font-size="10.00">+ generic_whiteboard</text>
<text text-anchor="start" x="21.5" y="-395.5" font-family="Helvetica,sans-Serif" font-size="10.00">_object()</text>
<text text-anchor="start" x="21.5" y="-384.5" font-family="Helvetica,sans-Serif" font-size="10.00">+ generic_whiteboard</text>
<text text-anchor="start" x="21.5" y="-373.5" font-family="Helvetica,sans-Serif" font-size="10.00">_object()</text>
<text text-anchor="start" x="21.5" y="-362.5" font-family="Helvetica,sans-Serif" font-size="10.00">+ init()</text>
<text text-anchor="start" x="21.5" y="-351.5" font-family="Helvetica,sans-Serif" font-size="10.00">+ set()</text>
<text text-anchor="start" x="21.5" y="-340.5" font-family="Helvetica,sans-Serif" font-size="10.00">+ get()</text>
<text text-anchor="start" x="21.5" y="-329.5" font-family="Helvetica,sans-Serif" font-size="10.00">+ get_from()</text>
<text text-anchor="start" x="21.5" y="-318.5" font-family="Helvetica,sans-Serif" font-size="10.00">+ post()</text>
<text text-anchor="start" x="21.5" y="-307.5" font-family="Helvetica,sans-Serif" font-size="10.00">+ operator&lt;&lt;()</text>
<text text-anchor="start" x="21.5" y="-296.5" font-family="Helvetica,sans-Serif" font-size="10.00">+ operator&gt;&gt;()</text>
<text text-anchor="start" x="21.5" y="-285.5" font-family="Helvetica,sans-Serif" font-size="10.00">and 18 more...</text>
</a>
</g>
</g>
<!-- Node3&#45;&gt;Node2 -->
<g id="edge2" class="edge">
<title>Node3&#45;&gt;Node2</title>
<path fill="none" stroke="midnightblue" d="M70.5,-268.3C70.5,-258.72 70.5,-249.39 70.5,-240.59"/>
<polygon fill="none" stroke="midnightblue" points="67,-268.36 70.5,-278.36 74,-268.36 67,-268.36"/>
</g>
<!-- Node4 -->
<g id="node4" class="node">
<title>Node4</title>
<g id="a_node4"><a xlink:href="structgsw__whiteboard__s.html" target="_top" xlink:title="the underlying whiteboard object">
<polygon fill="none" stroke="black" points="21.5,-581.5 21.5,-693.5 119.5,-693.5 119.5,-581.5 21.5,-581.5"/>
<text text-anchor="middle" x="70.5" y="-681.5" font-family="Helvetica,sans-Serif" font-size="10.00">gsw_whiteboard_s</text>
<polyline fill="none" stroke="black" points="21.5,-674.5 119.5,-674.5 "/>
<text text-anchor="start" x="29.5" y="-662.5" font-family="Helvetica,sans-Serif" font-size="10.00">+ sem</text>
<text text-anchor="start" x="29.5" y="-651.5" font-family="Helvetica,sans-Serif" font-size="10.00">+ fd</text>
<text text-anchor="start" x="29.5" y="-640.5" font-family="Helvetica,sans-Serif" font-size="10.00">+ callback_queue</text>
<text text-anchor="start" x="29.5" y="-629.5" font-family="Helvetica,sans-Serif" font-size="10.00">+ context</text>
<text text-anchor="start" x="29.5" y="-618.5" font-family="Helvetica,sans-Serif" font-size="10.00">+ got_monitor</text>
<text text-anchor="start" x="29.5" y="-607.5" font-family="Helvetica,sans-Serif" font-size="10.00">+ exit_monitor</text>
<polyline fill="none" stroke="black" points="21.5,-600.5 119.5,-600.5 "/>
<text text-anchor="middle" x="70.5" y="-588.5" font-family="Helvetica,sans-Serif" font-size="10.00"> </text>
</a>
</g>
</g>
<!-- Node4&#45;&gt;Node3 -->
<g id="edge3" class="edge">
<title>Node4&#45;&gt;Node3</title>
<path fill="none" stroke="#404040" d="M70.5,-581.24C70.5,-570.18 70.5,-558.11 70.5,-545.64"/>
<polygon fill="none" stroke="#404040" points="70.5,-545.58 66.5,-539.58 70.5,-533.58 74.5,-539.58 70.5,-545.58"/>
<text text-anchor="middle" x="86" y="-555" font-family="Helvetica,sans-Serif" font-size="10.00"> #_wbd</text>
</g>
<!-- Node4&#45;&gt;Node4 -->
<g id="edge6" class="edge">
<title>Node4&#45;&gt;Node4</title>
<path fill="none" stroke="#404040" d="M119.58,-652.02C129.99,-650.54 137.5,-645.7 137.5,-637.5 137.5,-632.89 135.12,-629.34 131.19,-626.85"/>
<polygon fill="none" stroke="#404040" points="130.97,-626.78 124.01,-628.68 119.58,-622.98 126.54,-621.09 130.97,-626.78"/>
<text text-anchor="middle" x="160" y="-635" font-family="Helvetica,sans-Serif" font-size="10.00"> +callback</text>
</g>
<!-- Node5 -->
<g id="node5" class="node">
<title>Node5</title>
<g id="a_node5"><a xlink:href="structgsw__simple__whiteboard__s.html" target="_top" xlink:title="the actual whiteboard in shared mem">
<polygon fill="none" stroke="black" points="5,-741.5 5,-875.5 136,-875.5 136,-741.5 5,-741.5"/>
<text text-anchor="middle" x="70.5" y="-863.5" font-family="Helvetica,sans-Serif" font-size="10.00">gsw_simple_whiteboard_s</text>
<polyline fill="none" stroke="black" points="5,-856.5 136,-856.5 "/>
<text text-anchor="start" x="13" y="-844.5" font-family="Helvetica,sans-Serif" font-size="10.00">+ version</text>
<text text-anchor="start" x="13" y="-833.5" font-family="Helvetica,sans-Serif" font-size="10.00">+ eventcount</text>
<text text-anchor="start" x="13" y="-822.5" font-family="Helvetica,sans-Serif" font-size="10.00">+ subscribed</text>
<text text-anchor="start" x="13" y="-811.5" font-family="Helvetica,sans-Serif" font-size="10.00">+ num_types</text>
<text text-anchor="start" x="13" y="-800.5" font-family="Helvetica,sans-Serif" font-size="10.00">+ indexes</text>
<text text-anchor="start" x="13" y="-789.5" font-family="Helvetica,sans-Serif" font-size="10.00">+ event_counters</text>
<text text-anchor="start" x="13" y="-778.5" font-family="Helvetica,sans-Serif" font-size="10.00">+ processes</text>
<text text-anchor="start" x="13" y="-767.5" font-family="Helvetica,sans-Serif" font-size="10.00">+ magic</text>
<polyline fill="none" stroke="black" points="5,-760.5 136,-760.5 "/>
<text text-anchor="middle" x="70.5" y="-748.5" font-family="Helvetica,sans-Serif" font-size="10.00"> </text>
</a>
</g>
</g>
<!-- Node5&#45;&gt;Node4 -->
<g id="edge4" class="edge">
<title>Node5&#45;&gt;Node4</title>
<path fill="none" stroke="#404040" d="M70.5,-741.19C70.5,-729.65 70.5,-717.63 70.5,-706.05"/>
<polygon fill="none" stroke="#404040" points="70.5,-705.7 66.5,-699.7 70.5,-693.7 74.5,-699.7 70.5,-705.7"/>
<text text-anchor="middle" x="81.5" y="-715" font-family="Helvetica,sans-Serif" font-size="10.00"> +wb</text>
</g>
<!-- Node6 -->
<g id="node6" class="node">
<title>Node6</title>
<g id="a_node6"><a xlink:href="uniongsw__simple__message.html" target="_top" xlink:title="union type that is used to store data in shared memory">
<polygon fill="none" stroke="black" points="14,-945.5 14,-1112.5 127,-1112.5 127,-945.5 14,-945.5"/>
<text text-anchor="middle" x="70.5" y="-1100.5" font-family="Helvetica,sans-Serif" font-size="10.00">gsw_simple_message</text>
<polyline fill="none" stroke="black" points="14,-1093.5 127,-1093.5 "/>
<text text-anchor="start" x="22" y="-1081.5" font-family="Helvetica,sans-Serif" font-size="10.00">+ ulonglong</text>
<text text-anchor="start" x="22" y="-1070.5" font-family="Helvetica,sans-Serif" font-size="10.00">+ slonglong</text>
<text text-anchor="start" x="22" y="-1059.5" font-family="Helvetica,sans-Serif" font-size="10.00">+ ulong</text>
<text text-anchor="start" x="22" y="-1048.5" font-family="Helvetica,sans-Serif" font-size="10.00">+ slong</text>
<text text-anchor="start" x="22" y="-1037.5" font-family="Helvetica,sans-Serif" font-size="10.00">+ uint</text>
<text text-anchor="start" x="22" y="-1026.5" font-family="Helvetica,sans-Serif" font-size="10.00">+ sint</text>
<text text-anchor="start" x="22" y="-1015.5" font-family="Helvetica,sans-Serif" font-size="10.00">+ ushort</text>
<text text-anchor="start" x="22" y="-1004.5" font-family="Helvetica,sans-Serif" font-size="10.00">+ sshort</text>
<text text-anchor="start" x="22" y="-993.5" font-family="Helvetica,sans-Serif" font-size="10.00">+ uchar</text>
<text text-anchor="start" x="22" y="-982.5" font-family="Helvetica,sans-Serif" font-size="10.00">+ schar</text>
<text text-anchor="start" x="22" y="-971.5" font-family="Helvetica,sans-Serif" font-size="10.00">and 65 more...</text>
<polyline fill="none" stroke="black" points="14,-964.5 127,-964.5 "/>
<text text-anchor="middle" x="70.5" y="-952.5" font-family="Helvetica,sans-Serif" font-size="10.00"> </text>
</a>
</g>
</g>
<!-- Node6&#45;&gt;Node5 -->
<g id="edge5" class="edge">
<title>Node6&#45;&gt;Node5</title>
<path fill="none" stroke="#404040" d="M70.5,-945.39C70.5,-926.46 70.5,-906.39 70.5,-887.65"/>
<polygon fill="none" stroke="#404040" points="70.5,-887.55 66.5,-881.55 70.5,-875.55 74.5,-881.55 70.5,-887.55"/>
<text text-anchor="middle" x="97.5" y="-919" font-family="Helvetica,sans-Serif" font-size="10.00"> +hashes</text>
<text text-anchor="middle" x="97.5" y="-908" font-family="Helvetica,sans-Serif" font-size="10.00">+messages</text>
<text text-anchor="middle" x="97.5" y="-897" font-family="Helvetica,sans-Serif" font-size="10.00">+typenames</text>
</g>
</g>
</svg>
