<?xml version="1.0" encoding="UTF-8" standalone="no"?>
<!DOCTYPE svg PUBLIC "-//W3C//DTD SVG 1.1//EN"
 "http://www.w3.org/Graphics/SVG/1.1/DTD/svg11.dtd">
<!-- Generated by graphviz version 2.49.0 (20210830.1337)
 -->
<!-- Title: guWhiteboard::FSMState Pages: 1 -->
<svg width="136pt" height="248pt"
 viewBox="0.00 0.00 136.00 248.00" xmlns="http://www.w3.org/2000/svg" xmlns:xlink="http://www.w3.org/1999/xlink">
<g id="graph0" class="graph" transform="scale(1 1) rotate(0) translate(4 244)">
<title>guWhiteboard::FSMState</title>
<!-- Node1 -->
<g id="node1" class="node">
<title>Node1</title>
<g id="a_node1"><a xlink:title="Class for transmitting machine names over the whiteboard.">
<polygon fill="#bfbfbf" stroke="black" points="0,-0.5 0,-145.5 128,-145.5 128,-0.5 0,-0.5"/>
<text text-anchor="middle" x="64" y="-133.5" font-family="Helvetica,sans-Serif" font-size="10.00">guWhiteboard::FSMState</text>
<polyline fill="none" stroke="black" points="0,-126.5 128,-126.5 "/>
<text text-anchor="middle" x="64" y="-114.5" font-family="Helvetica,sans-Serif" font-size="10.00"> </text>
<polyline fill="none" stroke="black" points="0,-107.5 128,-107.5 "/>
<text text-anchor="start" x="8" y="-95.5" font-family="Helvetica,sans-Serif" font-size="10.00">+ FSMState()</text>
<text text-anchor="start" x="8" y="-84.5" font-family="Helvetica,sans-Serif" font-size="10.00">+ FSMState()</text>
<text text-anchor="start" x="8" y="-73.5" font-family="Helvetica,sans-Serif" font-size="10.00">+ operator=()</text>
<text text-anchor="start" x="8" y="-62.5" font-family="Helvetica,sans-Serif" font-size="10.00">+ getStateForMachineID()</text>
<text text-anchor="start" x="8" y="-51.5" font-family="Helvetica,sans-Serif" font-size="10.00">+ setStateForMachineID()</text>
<text text-anchor="start" x="8" y="-40.5" font-family="Helvetica,sans-Serif" font-size="10.00">+ reset()</text>
<text text-anchor="start" x="8" y="-29.5" font-family="Helvetica,sans-Serif" font-size="10.00">+ FSMState()</text>
<text text-anchor="start" x="8" y="-18.5" font-family="Helvetica,sans-Serif" font-size="10.00">+ description()</text>
<text text-anchor="start" x="8" y="-7.5" font-family="Helvetica,sans-Serif" font-size="10.00">+ from_string()</text>
</a>
</g>
</g>
<!-- Node2 -->
<g id="node2" class="node">
<title>Node2</title>
<g id="a_node2"><a xlink:href="structwb__fsm__state__status.html" target="_top" xlink:title="Idempotent Message publicising the state &#45;about to be executed&#45; (0&#45;254) of up&#45;to the first 128 machin...">
<polygon fill="none" stroke="black" points="2.5,-182.5 2.5,-239.5 125.5,-239.5 125.5,-182.5 2.5,-182.5"/>
<text text-anchor="middle" x="64" y="-227.5" font-family="Helvetica,sans-Serif" font-size="10.00">wb_fsm_state_status</text>
<polyline fill="none" stroke="black" points="2.5,-220.5 125.5,-220.5 "/>
<text text-anchor="middle" x="64" y="-208.5" font-family="Helvetica,sans-Serif" font-size="10.00"> </text>
<polyline fill="none" stroke="black" points="2.5,-201.5 125.5,-201.5 "/>
<text text-anchor="start" x="10.5" y="-189.5" font-family="Helvetica,sans-Serif" font-size="10.00">+ ARRAY_PROPERTY()</text>
</a>
</g>
</g>
<!-- Node2&#45;&gt;Node1 -->
<g id="edge1" class="edge">
<title>Node2&#45;&gt;Node1</title>
<path fill="none" stroke="midnightblue" d="M64,-172.36C64,-164 64,-154.87 64,-145.66"/>
<polygon fill="none" stroke="midnightblue" points="60.5,-172.48 64,-182.48 67.5,-172.48 60.5,-172.48"/>
</g>
</g>
</svg>
