<?xml version="1.0" encoding="UTF-8" standalone="no"?>
<!DOCTYPE svg PUBLIC "-//W3C//DTD SVG 1.1//EN"
 "http://www.w3.org/Graphics/SVG/1.1/DTD/svg11.dtd">
<!-- Generated by graphviz version 2.49.0 (20210830.1337)
 -->
<!-- Title: guWhiteboard::VisionDetectionHorizons Pages: 1 -->
<svg width="165pt" height="569pt"
 viewBox="0.00 0.00 164.50 569.00" xmlns="http://www.w3.org/2000/svg" xmlns:xlink="http://www.w3.org/1999/xlink">
<g id="graph0" class="graph" transform="scale(1 1) rotate(0) translate(4 565)">
<title>guWhiteboard::VisionDetectionHorizons</title>
<!-- Node1 -->
<g id="node1" class="node">
<title>Node1</title>
<g id="a_node1"><a xlink:title="Provides a C++ wrapper around wb_vision_detection_horizons.">
<polygon fill="#bfbfbf" stroke="black" points="0,-0.5 0,-178.5 149,-178.5 149,-0.5 0,-0.5"/>
<text text-anchor="start" x="8" y="-166.5" font-family="Helvetica,sans-Serif" font-size="10.00">guWhiteboard::VisionDetection</text>
<text text-anchor="middle" x="74.5" y="-155.5" font-family="Helvetica,sans-Serif" font-size="10.00">Horizons</text>
<polyline fill="none" stroke="black" points="0,-148.5 149,-148.5 "/>
<text text-anchor="middle" x="74.5" y="-136.5" font-family="Helvetica,sans-Serif" font-size="10.00"> </text>
<polyline fill="none" stroke="black" points="0,-129.5 149,-129.5 "/>
<text text-anchor="start" x="8" y="-117.5" font-family="Helvetica,sans-Serif" font-size="10.00">+ VisionDetectionHorizons()</text>
<text text-anchor="start" x="8" y="-106.5" font-family="Helvetica,sans-Serif" font-size="10.00">+ VisionDetectionHorizons()</text>
<text text-anchor="start" x="8" y="-95.5" font-family="Helvetica,sans-Serif" font-size="10.00">+ VisionDetectionHorizons()</text>
<text text-anchor="start" x="8" y="-84.5" font-family="Helvetica,sans-Serif" font-size="10.00">+ operator=()</text>
<text text-anchor="start" x="8" y="-73.5" font-family="Helvetica,sans-Serif" font-size="10.00">+ operator=()</text>
<text text-anchor="start" x="8" y="-62.5" font-family="Helvetica,sans-Serif" font-size="10.00">+ operator==()</text>
<text text-anchor="start" x="8" y="-51.5" font-family="Helvetica,sans-Serif" font-size="10.00">+ operator!=()</text>
<text text-anchor="start" x="8" y="-40.5" font-family="Helvetica,sans-Serif" font-size="10.00">+ operator==()</text>
<text text-anchor="start" x="8" y="-29.5" font-family="Helvetica,sans-Serif" font-size="10.00">+ operator!=()</text>
<text text-anchor="start" x="8" y="-18.5" font-family="Helvetica,sans-Serif" font-size="10.00">+ frameNumber()</text>
<text text-anchor="start" x="8" y="-7.5" font-family="Helvetica,sans-Serif" font-size="10.00">and 18 more...</text>
</a>
</g>
</g>
<!-- Node2 -->
<g id="node2" class="node">
<title>Node2</title>
<g id="a_node2"><a xlink:href="structwb__vision__detection__horizons.html" target="_top" xlink:title="Array of fieldHorizons, one instance reported by each camera.">
<polygon fill="none" stroke="black" points="22,-216.5 22,-306.5 127,-306.5 127,-216.5 22,-216.5"/>
<text text-anchor="start" x="30" y="-294.5" font-family="Helvetica,sans-Serif" font-size="10.00">wb_vision_detection</text>
<text text-anchor="middle" x="74.5" y="-283.5" font-family="Helvetica,sans-Serif" font-size="10.00">_horizons</text>
<polyline fill="none" stroke="black" points="22,-276.5 127,-276.5 "/>
<text text-anchor="start" x="30" y="-264.5" font-family="Helvetica,sans-Serif" font-size="10.00">+ frameNumber</text>
<text text-anchor="start" x="30" y="-253.5" font-family="Helvetica,sans-Serif" font-size="10.00">+ res_width</text>
<text text-anchor="start" x="30" y="-242.5" font-family="Helvetica,sans-Serif" font-size="10.00">+ res_height</text>
<polyline fill="none" stroke="black" points="22,-235.5 127,-235.5 "/>
<text text-anchor="middle" x="74.5" y="-223.5" font-family="Helvetica,sans-Serif" font-size="10.00"> </text>
</a>
</g>
</g>
<!-- Node2&#45;&gt;Node1 -->
<g id="edge1" class="edge">
<title>Node2&#45;&gt;Node1</title>
<path fill="none" stroke="midnightblue" d="M74.5,-206.2C74.5,-197.38 74.5,-188.06 74.5,-178.69"/>
<polygon fill="none" stroke="midnightblue" points="71,-206.28 74.5,-216.28 78,-206.28 71,-206.28"/>
</g>
<!-- Node3 -->
<g id="node3" class="node">
<title>Node3</title>
<g id="a_node3"><a xlink:href="structwb__vision__detection__horizon.html" target="_top" xlink:title="WHITEBOARD_POSTER_STRING_CONVERSION.">
<polygon fill="none" stroke="black" points="22,-354.5 22,-422.5 127,-422.5 127,-354.5 22,-354.5"/>
<text text-anchor="start" x="30" y="-410.5" font-family="Helvetica,sans-Serif" font-size="10.00">wb_vision_detection</text>
<text text-anchor="middle" x="74.5" y="-399.5" font-family="Helvetica,sans-Serif" font-size="10.00">_horizon</text>
<polyline fill="none" stroke="black" points="22,-392.5 127,-392.5 "/>
<text text-anchor="start" x="30" y="-380.5" font-family="Helvetica,sans-Serif" font-size="10.00">+ horizonType</text>
<polyline fill="none" stroke="black" points="22,-373.5 127,-373.5 "/>
<text text-anchor="middle" x="74.5" y="-361.5" font-family="Helvetica,sans-Serif" font-size="10.00"> </text>
</a>
</g>
</g>
<!-- Node3&#45;&gt;Node2 -->
<g id="edge2" class="edge">
<title>Node3&#45;&gt;Node2</title>
<path fill="none" stroke="#404040" d="M74.5,-354.33C74.5,-343.37 74.5,-330.86 74.5,-318.67"/>
<polygon fill="none" stroke="#404040" points="74.5,-318.66 70.5,-312.66 74.5,-306.66 78.5,-312.66 74.5,-318.66"/>
<text text-anchor="middle" x="97" y="-328" font-family="Helvetica,sans-Serif" font-size="10.00"> +horizons</text>
</g>
<!-- Node4 -->
<g id="node4" class="node">
<title>Node4</title>
<g id="a_node4"><a xlink:href="structwb__pixel__coordinate.html" target="_top" xlink:title="WHITEBOARD_POSTER_STRING_CONVERSION.">
<polygon fill="none" stroke="black" points="22.5,-492.5 22.5,-560.5 126.5,-560.5 126.5,-492.5 22.5,-492.5"/>
<text text-anchor="middle" x="74.5" y="-548.5" font-family="Helvetica,sans-Serif" font-size="10.00">wb_pixel_coordinate</text>
<polyline fill="none" stroke="black" points="22.5,-541.5 126.5,-541.5 "/>
<text text-anchor="start" x="30.5" y="-529.5" font-family="Helvetica,sans-Serif" font-size="10.00">+ x</text>
<text text-anchor="start" x="30.5" y="-518.5" font-family="Helvetica,sans-Serif" font-size="10.00">+ y</text>
<polyline fill="none" stroke="black" points="22.5,-511.5 126.5,-511.5 "/>
<text text-anchor="middle" x="74.5" y="-499.5" font-family="Helvetica,sans-Serif" font-size="10.00"> </text>
</a>
</g>
</g>
<!-- Node4&#45;&gt;Node3 -->
<g id="edge3" class="edge">
<title>Node4&#45;&gt;Node3</title>
<path fill="none" stroke="#404040" d="M74.5,-492.23C74.5,-475.02 74.5,-453.76 74.5,-435.06"/>
<polygon fill="none" stroke="#404040" points="74.5,-434.9 70.5,-428.9 74.5,-422.9 78.5,-428.9 74.5,-434.9"/>
<text text-anchor="middle" x="115.5" y="-466" font-family="Helvetica,sans-Serif" font-size="10.00"> +centerCoordinate</text>
<text text-anchor="middle" x="115.5" y="-455" font-family="Helvetica,sans-Serif" font-size="10.00">+leftCoordinate</text>
<text text-anchor="middle" x="115.5" y="-444" font-family="Helvetica,sans-Serif" font-size="10.00">+rightCoordinate</text>
</g>
</g>
</svg>
