<?xml version="1.0" encoding="UTF-8" standalone="no"?>
<!DOCTYPE svg PUBLIC "-//W3C//DTD SVG 1.1//EN"
 "http://www.w3.org/Graphics/SVG/1.1/DTD/svg11.dtd">
<!-- Generated by graphviz version 2.49.0 (20210830.1337)
 -->
<!-- Title: guWhiteboard::FilteredArrayOneDimObjects Pages: 1 -->
<svg width="163pt" height="486pt"
 viewBox="0.00 0.00 163.00 486.00" xmlns="http://www.w3.org/2000/svg" xmlns:xlink="http://www.w3.org/1999/xlink">
<g id="graph0" class="graph" transform="scale(1 1) rotate(0) translate(4 482)">
<title>guWhiteboard::FilteredArrayOneDimObjects</title>
<!-- Node1 -->
<g id="node1" class="node">
<title>Node1</title>
<g id="a_node1"><a xlink:title="Provides a C++ wrapper around wb_filtered_arrayonedimobjects.">
<polygon fill="#bfbfbf" stroke="black" points="0,-0.5 0,-178.5 155,-178.5 155,-0.5 0,-0.5"/>
<text text-anchor="start" x="8" y="-166.5" font-family="Helvetica,sans-Serif" font-size="10.00">guWhiteboard::FilteredArray</text>
<text text-anchor="middle" x="77.5" y="-155.5" font-family="Helvetica,sans-Serif" font-size="10.00">OneDimObjects</text>
<polyline fill="none" stroke="black" points="0,-148.5 155,-148.5 "/>
<text text-anchor="middle" x="77.5" y="-136.5" font-family="Helvetica,sans-Serif" font-size="10.00"> </text>
<polyline fill="none" stroke="black" points="0,-129.5 155,-129.5 "/>
<text text-anchor="start" x="8" y="-117.5" font-family="Helvetica,sans-Serif" font-size="10.00">+ FilteredArrayOneDimObjects()</text>
<text text-anchor="start" x="8" y="-106.5" font-family="Helvetica,sans-Serif" font-size="10.00">+ FilteredArrayOneDimObjects()</text>
<text text-anchor="start" x="8" y="-95.5" font-family="Helvetica,sans-Serif" font-size="10.00">+ FilteredArrayOneDimObjects()</text>
<text text-anchor="start" x="8" y="-84.5" font-family="Helvetica,sans-Serif" font-size="10.00">+ operator=()</text>
<text text-anchor="start" x="8" y="-73.5" font-family="Helvetica,sans-Serif" font-size="10.00">+ operator=()</text>
<text text-anchor="start" x="8" y="-62.5" font-family="Helvetica,sans-Serif" font-size="10.00">+ operator==()</text>
<text text-anchor="start" x="8" y="-51.5" font-family="Helvetica,sans-Serif" font-size="10.00">+ operator!=()</text>
<text text-anchor="start" x="8" y="-40.5" font-family="Helvetica,sans-Serif" font-size="10.00">+ operator==()</text>
<text text-anchor="start" x="8" y="-29.5" font-family="Helvetica,sans-Serif" font-size="10.00">+ operator!=()</text>
<text text-anchor="start" x="8" y="-18.5" font-family="Helvetica,sans-Serif" font-size="10.00">+ objects()</text>
<text text-anchor="start" x="8" y="-7.5" font-family="Helvetica,sans-Serif" font-size="10.00">and 9 more...</text>
</a>
</g>
</g>
<!-- Node2 -->
<g id="node2" class="node">
<title>Node2</title>
<g id="a_node2"><a xlink:href="structwb__filtered__arrayonedimobjects.html" target="_top" xlink:title="The class of landmarks filtered regarding goal sightings.">
<polygon fill="none" stroke="black" points="1.5,-216.5 1.5,-273.5 153.5,-273.5 153.5,-216.5 1.5,-216.5"/>
<text text-anchor="middle" x="77.5" y="-261.5" font-family="Helvetica,sans-Serif" font-size="10.00">wb_filtered_arrayonedimobjects</text>
<polyline fill="none" stroke="black" points="1.5,-254.5 153.5,-254.5 "/>
<text text-anchor="middle" x="77.5" y="-242.5" font-family="Helvetica,sans-Serif" font-size="10.00"> </text>
<polyline fill="none" stroke="black" points="1.5,-235.5 153.5,-235.5 "/>
<text text-anchor="middle" x="77.5" y="-223.5" font-family="Helvetica,sans-Serif" font-size="10.00"> </text>
</a>
</g>
</g>
<!-- Node2&#45;&gt;Node1 -->
<g id="edge1" class="edge">
<title>Node2&#45;&gt;Node1</title>
<path fill="none" stroke="midnightblue" d="M77.5,-205.96C77.5,-197.47 77.5,-188.13 77.5,-178.55"/>
<polygon fill="none" stroke="midnightblue" points="74,-206.2 77.5,-216.2 81,-206.2 74,-206.2"/>
</g>
<!-- Node3 -->
<g id="node3" class="node">
<title>Node3</title>
<g id="a_node3"><a xlink:href="structwb__filtered__vision__object.html" target="_top" xlink:title="WHITEBOARD_POSTER_STRING_CONVERSION.">
<polygon fill="none" stroke="black" points="30.5,-321.5 30.5,-477.5 124.5,-477.5 124.5,-321.5 30.5,-321.5"/>
<text text-anchor="start" x="38.5" y="-465.5" font-family="Helvetica,sans-Serif" font-size="10.00">wb_filtered_vision</text>
<text text-anchor="middle" x="77.5" y="-454.5" font-family="Helvetica,sans-Serif" font-size="10.00">_object</text>
<polyline fill="none" stroke="black" points="30.5,-447.5 124.5,-447.5 "/>
<text text-anchor="start" x="38.5" y="-435.5" font-family="Helvetica,sans-Serif" font-size="10.00">+ visibilityHistory</text>
<text text-anchor="start" x="38.5" y="-424.5" font-family="Helvetica,sans-Serif" font-size="10.00">+ frameCounter</text>
<text text-anchor="start" x="38.5" y="-413.5" font-family="Helvetica,sans-Serif" font-size="10.00">+ distance</text>
<text text-anchor="start" x="38.5" y="-402.5" font-family="Helvetica,sans-Serif" font-size="10.00">+ x</text>
<text text-anchor="start" x="38.5" y="-391.5" font-family="Helvetica,sans-Serif" font-size="10.00">+ y</text>
<text text-anchor="start" x="38.5" y="-380.5" font-family="Helvetica,sans-Serif" font-size="10.00">+ yaw</text>
<text text-anchor="start" x="38.5" y="-369.5" font-family="Helvetica,sans-Serif" font-size="10.00">+ ray_angle</text>
<text text-anchor="start" x="38.5" y="-358.5" font-family="Helvetica,sans-Serif" font-size="10.00">+ isVisible</text>
<text text-anchor="start" x="38.5" y="-347.5" font-family="Helvetica,sans-Serif" font-size="10.00">+ pad1</text>
<polyline fill="none" stroke="black" points="30.5,-340.5 124.5,-340.5 "/>
<text text-anchor="middle" x="77.5" y="-328.5" font-family="Helvetica,sans-Serif" font-size="10.00"> </text>
</a>
</g>
</g>
<!-- Node3&#45;&gt;Node2 -->
<g id="edge2" class="edge">
<title>Node3&#45;&gt;Node2</title>
<path fill="none" stroke="#404040" d="M77.5,-321.36C77.5,-309.04 77.5,-296.75 77.5,-285.78"/>
<polygon fill="none" stroke="#404040" points="77.5,-285.58 73.5,-279.58 77.5,-273.58 81.5,-279.58 77.5,-285.58"/>
<text text-anchor="middle" x="97.5" y="-295" font-family="Helvetica,sans-Serif" font-size="10.00"> +objects</text>
</g>
</g>
</svg>
