<?xml version="1.0" encoding="UTF-8" standalone="no"?>
<!DOCTYPE svg PUBLIC "-//W3C//DTD SVG 1.1//EN"
 "http://www.w3.org/Graphics/SVG/1.1/DTD/svg11.dtd">
<!-- Generated by graphviz version 2.49.0 (20210830.1337)
 -->
<!-- Title: guWhiteboard::NXT_Lights_Control Pages: 1 -->
<svg width="141pt" height="215pt"
 viewBox="0.00 0.00 141.00 215.00" xmlns="http://www.w3.org/2000/svg" xmlns:xlink="http://www.w3.org/1999/xlink">
<g id="graph0" class="graph" transform="scale(1 1) rotate(0) translate(4 211)">
<title>guWhiteboard::NXT_Lights_Control</title>
<!-- Node1 -->
<g id="node1" class="node">
<title>Node1</title>
<g id="a_node1"><a xlink:title="Class for controlling differential robots Defines whiteboard message.">
<polygon fill="#bfbfbf" stroke="black" points="0,-0.5 0,-112.5 133,-112.5 133,-0.5 0,-0.5"/>
<text text-anchor="start" x="8" y="-100.5" font-family="Helvetica,sans-Serif" font-size="10.00">guWhiteboard::NXT_Lights</text>
<text text-anchor="middle" x="66.5" y="-89.5" font-family="Helvetica,sans-Serif" font-size="10.00">_Control</text>
<polyline fill="none" stroke="black" points="0,-82.5 133,-82.5 "/>
<text text-anchor="middle" x="66.5" y="-70.5" font-family="Helvetica,sans-Serif" font-size="10.00"> </text>
<polyline fill="none" stroke="black" points="0,-63.5 133,-63.5 "/>
<text text-anchor="start" x="8" y="-51.5" font-family="Helvetica,sans-Serif" font-size="10.00">+ NXT_Lights_Control()</text>
<text text-anchor="start" x="8" y="-40.5" font-family="Helvetica,sans-Serif" font-size="10.00">+ NXT_Lights_Control()</text>
<text text-anchor="start" x="8" y="-29.5" font-family="Helvetica,sans-Serif" font-size="10.00">+ description()</text>
<text text-anchor="start" x="8" y="-18.5" font-family="Helvetica,sans-Serif" font-size="10.00">+ from_string()</text>
<text text-anchor="start" x="8" y="-7.5" font-family="Helvetica,sans-Serif" font-size="10.00">+ operator==()</text>
</a>
</g>
</g>
<!-- Node2 -->
<g id="node2" class="node">
<title>Node2</title>
<g id="a_node2"><a xlink:href="structwb__lights.html" target="_top" xlink:title="Lights that can go an on — C struct.">
<polygon fill="none" stroke="black" points="37.5,-149.5 37.5,-206.5 95.5,-206.5 95.5,-149.5 37.5,-149.5"/>
<text text-anchor="middle" x="66.5" y="-194.5" font-family="Helvetica,sans-Serif" font-size="10.00">wb_lights</text>
<polyline fill="none" stroke="black" points="37.5,-187.5 95.5,-187.5 "/>
<text text-anchor="middle" x="66.5" y="-175.5" font-family="Helvetica,sans-Serif" font-size="10.00"> </text>
<polyline fill="none" stroke="black" points="37.5,-168.5 95.5,-168.5 "/>
<text text-anchor="middle" x="66.5" y="-156.5" font-family="Helvetica,sans-Serif" font-size="10.00"> </text>
</a>
</g>
</g>
<!-- Node2&#45;&gt;Node1 -->
<g id="edge1" class="edge">
<title>Node2&#45;&gt;Node1</title>
<path fill="none" stroke="midnightblue" d="M66.5,-139.11C66.5,-130.75 66.5,-121.73 66.5,-112.83"/>
<polygon fill="none" stroke="midnightblue" points="63,-139.28 66.5,-149.28 70,-139.28 63,-139.28"/>
</g>
</g>
</svg>
