<?xml version="1.0" encoding="UTF-8" standalone="no"?>
<!DOCTYPE svg PUBLIC "-//W3C//DTD SVG 1.1//EN"
 "http://www.w3.org/Graphics/SVG/1.1/DTD/svg11.dtd">
<!-- Generated by graphviz version 2.49.0 (20210830.1337)
 -->
<!-- Title: guWhiteboard::VisionDetectionBall Pages: 1 -->
<svg width="173pt" height="409pt"
 viewBox="0.00 0.00 173.00 409.00" xmlns="http://www.w3.org/2000/svg" xmlns:xlink="http://www.w3.org/1999/xlink">
<g id="graph0" class="graph" transform="scale(1 1) rotate(0) translate(4 405)">
<title>guWhiteboard::VisionDetectionBall</title>
<!-- Node1 -->
<g id="node1" class="node">
<title>Node1</title>
<g id="a_node1"><a xlink:title="Provides a C++ wrapper around wb_vision_detection_ball.">
<polygon fill="#bfbfbf" stroke="black" points="0,-0.5 0,-167.5 165,-167.5 165,-0.5 0,-0.5"/>
<text text-anchor="middle" x="82.5" y="-155.5" font-family="Helvetica,sans-Serif" font-size="10.00">guWhiteboard::VisionDetectionBall</text>
<polyline fill="none" stroke="black" points="0,-148.5 165,-148.5 "/>
<text text-anchor="middle" x="82.5" y="-136.5" font-family="Helvetica,sans-Serif" font-size="10.00"> </text>
<polyline fill="none" stroke="black" points="0,-129.5 165,-129.5 "/>
<text text-anchor="start" x="8" y="-117.5" font-family="Helvetica,sans-Serif" font-size="10.00">+ VisionDetectionBall()</text>
<text text-anchor="start" x="8" y="-106.5" font-family="Helvetica,sans-Serif" font-size="10.00">+ VisionDetectionBall()</text>
<text text-anchor="start" x="8" y="-95.5" font-family="Helvetica,sans-Serif" font-size="10.00">+ VisionDetectionBall()</text>
<text text-anchor="start" x="8" y="-84.5" font-family="Helvetica,sans-Serif" font-size="10.00">+ operator=()</text>
<text text-anchor="start" x="8" y="-73.5" font-family="Helvetica,sans-Serif" font-size="10.00">+ operator=()</text>
<text text-anchor="start" x="8" y="-62.5" font-family="Helvetica,sans-Serif" font-size="10.00">+ operator==()</text>
<text text-anchor="start" x="8" y="-51.5" font-family="Helvetica,sans-Serif" font-size="10.00">+ operator!=()</text>
<text text-anchor="start" x="8" y="-40.5" font-family="Helvetica,sans-Serif" font-size="10.00">+ operator==()</text>
<text text-anchor="start" x="8" y="-29.5" font-family="Helvetica,sans-Serif" font-size="10.00">+ operator!=()</text>
<text text-anchor="start" x="8" y="-18.5" font-family="Helvetica,sans-Serif" font-size="10.00">+ sightingType()</text>
<text text-anchor="start" x="8" y="-7.5" font-family="Helvetica,sans-Serif" font-size="10.00">and 16 more...</text>
</a>
</g>
</g>
<!-- Node2 -->
<g id="node2" class="node">
<title>Node2</title>
<g id="a_node2"><a xlink:href="structwb__vision__detection__ball.html" target="_top" xlink:title="WHITEBOARD_POSTER_STRING_CONVERSION.">
<polygon fill="none" stroke="black" points="20,-205.5 20,-284.5 145,-284.5 145,-205.5 20,-205.5"/>
<text text-anchor="middle" x="82.5" y="-272.5" font-family="Helvetica,sans-Serif" font-size="10.00">wb_vision_detection_ball</text>
<polyline fill="none" stroke="black" points="20,-265.5 145,-265.5 "/>
<text text-anchor="start" x="28" y="-253.5" font-family="Helvetica,sans-Serif" font-size="10.00">+ sightingType</text>
<text text-anchor="start" x="28" y="-242.5" font-family="Helvetica,sans-Serif" font-size="10.00">+ verticalRadius</text>
<text text-anchor="start" x="28" y="-231.5" font-family="Helvetica,sans-Serif" font-size="10.00">+ horizontalRadius</text>
<polyline fill="none" stroke="black" points="20,-224.5 145,-224.5 "/>
<text text-anchor="middle" x="82.5" y="-212.5" font-family="Helvetica,sans-Serif" font-size="10.00"> </text>
</a>
</g>
</g>
<!-- Node2&#45;&gt;Node1 -->
<g id="edge1" class="edge">
<title>Node2&#45;&gt;Node1</title>
<path fill="none" stroke="midnightblue" d="M82.5,-194.87C82.5,-186.22 82.5,-177.01 82.5,-167.74"/>
<polygon fill="none" stroke="midnightblue" points="79,-195.1 82.5,-205.1 86,-195.1 79,-195.1"/>
</g>
<!-- Node3 -->
<g id="node3" class="node">
<title>Node3</title>
<g id="a_node3"><a xlink:href="structwb__pixel__coordinate.html" target="_top" xlink:title="WHITEBOARD_POSTER_STRING_CONVERSION.">
<polygon fill="none" stroke="black" points="30.5,-332.5 30.5,-400.5 134.5,-400.5 134.5,-332.5 30.5,-332.5"/>
<text text-anchor="middle" x="82.5" y="-388.5" font-family="Helvetica,sans-Serif" font-size="10.00">wb_pixel_coordinate</text>
<polyline fill="none" stroke="black" points="30.5,-381.5 134.5,-381.5 "/>
<text text-anchor="start" x="38.5" y="-369.5" font-family="Helvetica,sans-Serif" font-size="10.00">+ x</text>
<text text-anchor="start" x="38.5" y="-358.5" font-family="Helvetica,sans-Serif" font-size="10.00">+ y</text>
<polyline fill="none" stroke="black" points="30.5,-351.5 134.5,-351.5 "/>
<text text-anchor="middle" x="82.5" y="-339.5" font-family="Helvetica,sans-Serif" font-size="10.00"> </text>
</a>
</g>
</g>
<!-- Node3&#45;&gt;Node2 -->
<g id="edge2" class="edge">
<title>Node3&#45;&gt;Node2</title>
<path fill="none" stroke="#404040" d="M82.5,-332.21C82.5,-321.24 82.5,-308.78 82.5,-296.81"/>
<polygon fill="none" stroke="#404040" points="82.5,-296.6 78.5,-290.6 82.5,-284.6 86.5,-290.6 82.5,-296.6"/>
<text text-anchor="middle" x="109.5" y="-306" font-family="Helvetica,sans-Serif" font-size="10.00"> +coordinate</text>
</g>
</g>
</svg>
