<?xml version="1.0" encoding="UTF-8" standalone="no"?>
<!DOCTYPE svg PUBLIC "-//W3C//DTD SVG 1.1//EN"
 "http://www.w3.org/Graphics/SVG/1.1/DTD/svg11.dtd">
<!-- Generated by graphviz version 2.49.0 (20210830.1337)
 -->
<!-- Title: guWhiteboard::VisionControl_t Pages: 1 -->
<svg width="193pt" height="1110pt"
 viewBox="0.00 0.00 193.00 1110.00" xmlns="http://www.w3.org/2000/svg" xmlns:xlink="http://www.w3.org/1999/xlink">
<g id="graph0" class="graph" transform="scale(1 1) rotate(0) translate(4 1106)">
<title>guWhiteboard::VisionControl_t</title>
<!-- Node1 -->
<g id="node1" class="node">
<title>Node1</title>
<g id="a_node1"><a xlink:title="WB Ptr Class: VisionControl_t.">
<polygon fill="#bfbfbf" stroke="black" points="0,-0.5 0,-68.5 146,-68.5 146,-0.5 0,-0.5"/>
<text text-anchor="middle" x="73" y="-56.5" font-family="Helvetica,sans-Serif" font-size="10.00">guWhiteboard::VisionControl_t</text>
<polyline fill="none" stroke="black" points="0,-49.5 146,-49.5 "/>
<text text-anchor="start" x="8" y="-37.5" font-family="Helvetica,sans-Serif" font-size="10.00">+ slot</text>
<polyline fill="none" stroke="black" points="0,-30.5 146,-30.5 "/>
<text text-anchor="start" x="8" y="-18.5" font-family="Helvetica,sans-Serif" font-size="10.00">+ VisionControl_t()</text>
<text text-anchor="start" x="8" y="-7.5" font-family="Helvetica,sans-Serif" font-size="10.00">+ eventCounter()</text>
</a>
</g>
</g>
<!-- Node2 -->
<g id="node2" class="node">
<title>Node2</title>
<g id="a_node2"><a xlink:href="classwb__generic__whiteboard__object.html" target="_top" xlink:title=" ">
<polygon fill="none" stroke="black" points="3,-106.5 3,-229.5 143,-229.5 143,-106.5 3,-106.5"/>
<text text-anchor="start" x="11" y="-217.5" font-family="Helvetica,sans-Serif" font-size="10.00">wb_generic_whiteboard</text>
<text text-anchor="start" x="11" y="-206.5" font-family="Helvetica,sans-Serif" font-size="10.00">_object&lt; class VisionControl</text>
<text text-anchor="middle" x="73" y="-195.5" font-family="Helvetica,sans-Serif" font-size="10.00">Status &gt;</text>
<polyline fill="none" stroke="black" points="3,-188.5 143,-188.5 "/>
<text text-anchor="middle" x="73" y="-176.5" font-family="Helvetica,sans-Serif" font-size="10.00"> </text>
<polyline fill="none" stroke="black" points="3,-169.5 143,-169.5 "/>
<text text-anchor="start" x="11" y="-157.5" font-family="Helvetica,sans-Serif" font-size="10.00">+ wb_generic_whiteboard</text>
<text text-anchor="start" x="11" y="-146.5" font-family="Helvetica,sans-Serif" font-size="10.00">_object()</text>
<text text-anchor="start" x="11" y="-135.5" font-family="Helvetica,sans-Serif" font-size="10.00">+ wb_generic_whiteboard</text>
<text text-anchor="start" x="11" y="-124.5" font-family="Helvetica,sans-Serif" font-size="10.00">_object()</text>
<text text-anchor="start" x="11" y="-113.5" font-family="Helvetica,sans-Serif" font-size="10.00">+ init()</text>
</a>
</g>
</g>
<!-- Node2&#45;&gt;Node1 -->
<g id="edge1" class="edge">
<title>Node2&#45;&gt;Node1</title>
<path fill="none" stroke="midnightblue" d="M73,-96.24C73,-86.65 73,-77.21 73,-68.73"/>
<polygon fill="none" stroke="midnightblue" points="69.5,-96.25 73,-106.25 76.5,-96.25 69.5,-96.25"/>
</g>
<!-- Node3 -->
<g id="node3" class="node">
<title>Node3</title>
<g id="a_node3"><a xlink:href="classgeneric__whiteboard__object.html" target="_top" xlink:title="This class allows you to set and get data directly into or out of the local whiteboard in shared memo...">
<polygon fill="none" stroke="black" points="16,-267.5 16,-522.5 130,-522.5 130,-267.5 16,-267.5"/>
<text text-anchor="start" x="24" y="-510.5" font-family="Helvetica,sans-Serif" font-size="10.00">generic_whiteboard</text>
<text text-anchor="middle" x="73" y="-499.5" font-family="Helvetica,sans-Serif" font-size="10.00">_object&lt; object_type &gt;</text>
<polyline fill="none" stroke="black" points="16,-492.5 130,-492.5 "/>
<text text-anchor="start" x="24" y="-480.5" font-family="Helvetica,sans-Serif" font-size="10.00"># type_offset</text>
<text text-anchor="start" x="24" y="-469.5" font-family="Helvetica,sans-Serif" font-size="10.00"># atomic</text>
<text text-anchor="start" x="24" y="-458.5" font-family="Helvetica,sans-Serif" font-size="10.00"># notify_subscribers</text>
<text text-anchor="start" x="24" y="-447.5" font-family="Helvetica,sans-Serif" font-size="10.00"># last_count</text>
<text text-anchor="start" x="24" y="-436.5" font-family="Helvetica,sans-Serif" font-size="10.00"># isFirst</text>
<polyline fill="none" stroke="black" points="16,-429.5 130,-429.5 "/>
<text text-anchor="start" x="24" y="-417.5" font-family="Helvetica,sans-Serif" font-size="10.00">+ generic_whiteboard</text>
<text text-anchor="start" x="24" y="-406.5" font-family="Helvetica,sans-Serif" font-size="10.00">_object()</text>
<text text-anchor="start" x="24" y="-395.5" font-family="Helvetica,sans-Serif" font-size="10.00">+ generic_whiteboard</text>
<text text-anchor="start" x="24" y="-384.5" font-family="Helvetica,sans-Serif" font-size="10.00">_object()</text>
<text text-anchor="start" x="24" y="-373.5" font-family="Helvetica,sans-Serif" font-size="10.00">+ generic_whiteboard</text>
<text text-anchor="start" x="24" y="-362.5" font-family="Helvetica,sans-Serif" font-size="10.00">_object()</text>
<text text-anchor="start" x="24" y="-351.5" font-family="Helvetica,sans-Serif" font-size="10.00">+ init()</text>
<text text-anchor="start" x="24" y="-340.5" font-family="Helvetica,sans-Serif" font-size="10.00">+ set()</text>
<text text-anchor="start" x="24" y="-329.5" font-family="Helvetica,sans-Serif" font-size="10.00">+ get()</text>
<text text-anchor="start" x="24" y="-318.5" font-family="Helvetica,sans-Serif" font-size="10.00">+ get_from()</text>
<text text-anchor="start" x="24" y="-307.5" font-family="Helvetica,sans-Serif" font-size="10.00">+ post()</text>
<text text-anchor="start" x="24" y="-296.5" font-family="Helvetica,sans-Serif" font-size="10.00">+ operator&lt;&lt;()</text>
<text text-anchor="start" x="24" y="-285.5" font-family="Helvetica,sans-Serif" font-size="10.00">+ operator&gt;&gt;()</text>
<text text-anchor="start" x="24" y="-274.5" font-family="Helvetica,sans-Serif" font-size="10.00">and 18 more...</text>
</a>
</g>
</g>
<!-- Node3&#45;&gt;Node2 -->
<g id="edge2" class="edge">
<title>Node3&#45;&gt;Node2</title>
<path fill="none" stroke="midnightblue" d="M73,-257.3C73,-247.72 73,-238.39 73,-229.59"/>
<polygon fill="none" stroke="midnightblue" points="69.5,-257.36 73,-267.36 76.5,-257.36 69.5,-257.36"/>
</g>
<!-- Node4 -->
<g id="node4" class="node">
<title>Node4</title>
<g id="a_node4"><a xlink:href="structgsw__whiteboard__s.html" target="_top" xlink:title="the underlying whiteboard object">
<polygon fill="none" stroke="black" points="24,-570.5 24,-682.5 122,-682.5 122,-570.5 24,-570.5"/>
<text text-anchor="middle" x="73" y="-670.5" font-family="Helvetica,sans-Serif" font-size="10.00">gsw_whiteboard_s</text>
<polyline fill="none" stroke="black" points="24,-663.5 122,-663.5 "/>
<text text-anchor="start" x="32" y="-651.5" font-family="Helvetica,sans-Serif" font-size="10.00">+ sem</text>
<text text-anchor="start" x="32" y="-640.5" font-family="Helvetica,sans-Serif" font-size="10.00">+ fd</text>
<text text-anchor="start" x="32" y="-629.5" font-family="Helvetica,sans-Serif" font-size="10.00">+ callback_queue</text>
<text text-anchor="start" x="32" y="-618.5" font-family="Helvetica,sans-Serif" font-size="10.00">+ context</text>
<text text-anchor="start" x="32" y="-607.5" font-family="Helvetica,sans-Serif" font-size="10.00">+ got_monitor</text>
<text text-anchor="start" x="32" y="-596.5" font-family="Helvetica,sans-Serif" font-size="10.00">+ exit_monitor</text>
<polyline fill="none" stroke="black" points="24,-589.5 122,-589.5 "/>
<text text-anchor="middle" x="73" y="-577.5" font-family="Helvetica,sans-Serif" font-size="10.00"> </text>
</a>
</g>
</g>
<!-- Node4&#45;&gt;Node3 -->
<g id="edge3" class="edge">
<title>Node4&#45;&gt;Node3</title>
<path fill="none" stroke="#404040" d="M73,-570.24C73,-559.18 73,-547.11 73,-534.64"/>
<polygon fill="none" stroke="#404040" points="73,-534.58 69,-528.58 73,-522.58 77,-528.58 73,-534.58"/>
<text text-anchor="middle" x="88.5" y="-544" font-family="Helvetica,sans-Serif" font-size="10.00"> #_wbd</text>
</g>
<!-- Node4&#45;&gt;Node4 -->
<g id="edge6" class="edge">
<title>Node4&#45;&gt;Node4</title>
<path fill="none" stroke="#404040" d="M122.08,-641.02C132.49,-639.54 140,-634.7 140,-626.5 140,-621.89 137.62,-618.34 133.69,-615.85"/>
<polygon fill="none" stroke="#404040" points="133.47,-615.78 126.51,-617.68 122.08,-611.98 129.04,-610.09 133.47,-615.78"/>
<text text-anchor="middle" x="162.5" y="-624" font-family="Helvetica,sans-Serif" font-size="10.00"> +callback</text>
</g>
<!-- Node5 -->
<g id="node5" class="node">
<title>Node5</title>
<g id="a_node5"><a xlink:href="structgsw__simple__whiteboard__s.html" target="_top" xlink:title="the actual whiteboard in shared mem">
<polygon fill="none" stroke="black" points="7.5,-730.5 7.5,-864.5 138.5,-864.5 138.5,-730.5 7.5,-730.5"/>
<text text-anchor="middle" x="73" y="-852.5" font-family="Helvetica,sans-Serif" font-size="10.00">gsw_simple_whiteboard_s</text>
<polyline fill="none" stroke="black" points="7.5,-845.5 138.5,-845.5 "/>
<text text-anchor="start" x="15.5" y="-833.5" font-family="Helvetica,sans-Serif" font-size="10.00">+ version</text>
<text text-anchor="start" x="15.5" y="-822.5" font-family="Helvetica,sans-Serif" font-size="10.00">+ eventcount</text>
<text text-anchor="start" x="15.5" y="-811.5" font-family="Helvetica,sans-Serif" font-size="10.00">+ subscribed</text>
<text text-anchor="start" x="15.5" y="-800.5" font-family="Helvetica,sans-Serif" font-size="10.00">+ num_types</text>
<text text-anchor="start" x="15.5" y="-789.5" font-family="Helvetica,sans-Serif" font-size="10.00">+ indexes</text>
<text text-anchor="start" x="15.5" y="-778.5" font-family="Helvetica,sans-Serif" font-size="10.00">+ event_counters</text>
<text text-anchor="start" x="15.5" y="-767.5" font-family="Helvetica,sans-Serif" font-size="10.00">+ processes</text>
<text text-anchor="start" x="15.5" y="-756.5" font-family="Helvetica,sans-Serif" font-size="10.00">+ magic</text>
<polyline fill="none" stroke="black" points="7.5,-749.5 138.5,-749.5 "/>
<text text-anchor="middle" x="73" y="-737.5" font-family="Helvetica,sans-Serif" font-size="10.00"> </text>
</a>
</g>
</g>
<!-- Node5&#45;&gt;Node4 -->
<g id="edge4" class="edge">
<title>Node5&#45;&gt;Node4</title>
<path fill="none" stroke="#404040" d="M73,-730.19C73,-718.65 73,-706.63 73,-695.05"/>
<polygon fill="none" stroke="#404040" points="73,-694.7 69,-688.7 73,-682.7 77,-688.7 73,-694.7"/>
<text text-anchor="middle" x="84" y="-704" font-family="Helvetica,sans-Serif" font-size="10.00"> +wb</text>
</g>
<!-- Node6 -->
<g id="node6" class="node">
<title>Node6</title>
<g id="a_node6"><a xlink:href="uniongsw__simple__message.html" target="_top" xlink:title="union type that is used to store data in shared memory">
<polygon fill="none" stroke="black" points="16.5,-934.5 16.5,-1101.5 129.5,-1101.5 129.5,-934.5 16.5,-934.5"/>
<text text-anchor="middle" x="73" y="-1089.5" font-family="Helvetica,sans-Serif" font-size="10.00">gsw_simple_message</text>
<polyline fill="none" stroke="black" points="16.5,-1082.5 129.5,-1082.5 "/>
<text text-anchor="start" x="24.5" y="-1070.5" font-family="Helvetica,sans-Serif" font-size="10.00">+ ulonglong</text>
<text text-anchor="start" x="24.5" y="-1059.5" font-family="Helvetica,sans-Serif" font-size="10.00">+ slonglong</text>
<text text-anchor="start" x="24.5" y="-1048.5" font-family="Helvetica,sans-Serif" font-size="10.00">+ ulong</text>
<text text-anchor="start" x="24.5" y="-1037.5" font-family="Helvetica,sans-Serif" font-size="10.00">+ slong</text>
<text text-anchor="start" x="24.5" y="-1026.5" font-family="Helvetica,sans-Serif" font-size="10.00">+ uint</text>
<text text-anchor="start" x="24.5" y="-1015.5" font-family="Helvetica,sans-Serif" font-size="10.00">+ sint</text>
<text text-anchor="start" x="24.5" y="-1004.5" font-family="Helvetica,sans-Serif" font-size="10.00">+ ushort</text>
<text text-anchor="start" x="24.5" y="-993.5" font-family="Helvetica,sans-Serif" font-size="10.00">+ sshort</text>
<text text-anchor="start" x="24.5" y="-982.5" font-family="Helvetica,sans-Serif" font-size="10.00">+ uchar</text>
<text text-anchor="start" x="24.5" y="-971.5" font-family="Helvetica,sans-Serif" font-size="10.00">+ schar</text>
<text text-anchor="start" x="24.5" y="-960.5" font-family="Helvetica,sans-Serif" font-size="10.00">and 65 more...</text>
<polyline fill="none" stroke="black" points="16.5,-953.5 129.5,-953.5 "/>
<text text-anchor="middle" x="73" y="-941.5" font-family="Helvetica,sans-Serif" font-size="10.00"> </text>
</a>
</g>
</g>
<!-- Node6&#45;&gt;Node5 -->
<g id="edge5" class="edge">
<title>Node6&#45;&gt;Node5</title>
<path fill="none" stroke="#404040" d="M73,-934.39C73,-915.46 73,-895.39 73,-876.65"/>
<polygon fill="none" stroke="#404040" points="73,-876.55 69,-870.55 73,-864.55 77,-870.55 73,-876.55"/>
<text text-anchor="middle" x="100" y="-908" font-family="Helvetica,sans-Serif" font-size="10.00"> +hashes</text>
<text text-anchor="middle" x="100" y="-897" font-family="Helvetica,sans-Serif" font-size="10.00">+messages</text>
<text text-anchor="middle" x="100" y="-886" font-family="Helvetica,sans-Serif" font-size="10.00">+typenames</text>
</g>
</g>
</svg>
