<?xml version="1.0" encoding="UTF-8" standalone="no"?>
<!DOCTYPE svg PUBLIC "-//W3C//DTD SVG 1.1//EN"
 "http://www.w3.org/Graphics/SVG/1.1/DTD/svg11.dtd">
<!-- Generated by graphviz version 2.49.0 (20210830.1337)
 -->
<!-- Title: guWhiteboard::TopParticles Pages: 1 -->
<svg width="143pt" height="503pt"
 viewBox="0.00 0.00 143.00 503.00" xmlns="http://www.w3.org/2000/svg" xmlns:xlink="http://www.w3.org/1999/xlink">
<g id="graph0" class="graph" transform="scale(1 1) rotate(0) translate(4 499)">
<title>guWhiteboard::TopParticles</title>
<!-- Node1 -->
<g id="node1" class="node">
<title>Node1</title>
<g id="a_node1"><a xlink:title="Provides a C++ wrapper around wb_top_particles.">
<polygon fill="#bfbfbf" stroke="black" points="0,-0.5 0,-167.5 135,-167.5 135,-0.5 0,-0.5"/>
<text text-anchor="middle" x="67.5" y="-155.5" font-family="Helvetica,sans-Serif" font-size="10.00">guWhiteboard::TopParticles</text>
<polyline fill="none" stroke="black" points="0,-148.5 135,-148.5 "/>
<text text-anchor="middle" x="67.5" y="-136.5" font-family="Helvetica,sans-Serif" font-size="10.00"> </text>
<polyline fill="none" stroke="black" points="0,-129.5 135,-129.5 "/>
<text text-anchor="start" x="8" y="-117.5" font-family="Helvetica,sans-Serif" font-size="10.00">+ TopParticles()</text>
<text text-anchor="start" x="8" y="-106.5" font-family="Helvetica,sans-Serif" font-size="10.00">+ TopParticles()</text>
<text text-anchor="start" x="8" y="-95.5" font-family="Helvetica,sans-Serif" font-size="10.00">+ TopParticles()</text>
<text text-anchor="start" x="8" y="-84.5" font-family="Helvetica,sans-Serif" font-size="10.00">+ operator=()</text>
<text text-anchor="start" x="8" y="-73.5" font-family="Helvetica,sans-Serif" font-size="10.00">+ operator=()</text>
<text text-anchor="start" x="8" y="-62.5" font-family="Helvetica,sans-Serif" font-size="10.00">+ operator==()</text>
<text text-anchor="start" x="8" y="-51.5" font-family="Helvetica,sans-Serif" font-size="10.00">+ operator!=()</text>
<text text-anchor="start" x="8" y="-40.5" font-family="Helvetica,sans-Serif" font-size="10.00">+ operator==()</text>
<text text-anchor="start" x="8" y="-29.5" font-family="Helvetica,sans-Serif" font-size="10.00">+ operator!=()</text>
<text text-anchor="start" x="8" y="-18.5" font-family="Helvetica,sans-Serif" font-size="10.00">+ particles()</text>
<text text-anchor="start" x="8" y="-7.5" font-family="Helvetica,sans-Serif" font-size="10.00">and 10 more...</text>
</a>
</g>
</g>
<!-- Node2 -->
<g id="node2" class="node">
<title>Node2</title>
<g id="a_node2"><a xlink:href="structwb__top__particles.html" target="_top" xlink:title="The class of the top particles in a Localization Filter.">
<polygon fill="none" stroke="black" points="22.5,-205.5 22.5,-262.5 112.5,-262.5 112.5,-205.5 22.5,-205.5"/>
<text text-anchor="middle" x="67.5" y="-250.5" font-family="Helvetica,sans-Serif" font-size="10.00">wb_top_particles</text>
<polyline fill="none" stroke="black" points="22.5,-243.5 112.5,-243.5 "/>
<text text-anchor="middle" x="67.5" y="-231.5" font-family="Helvetica,sans-Serif" font-size="10.00"> </text>
<polyline fill="none" stroke="black" points="22.5,-224.5 112.5,-224.5 "/>
<text text-anchor="middle" x="67.5" y="-212.5" font-family="Helvetica,sans-Serif" font-size="10.00"> </text>
</a>
</g>
</g>
<!-- Node2&#45;&gt;Node1 -->
<g id="edge1" class="edge">
<title>Node2&#45;&gt;Node1</title>
<path fill="none" stroke="midnightblue" d="M67.5,-194.93C67.5,-186.46 67.5,-177.17 67.5,-167.68"/>
<polygon fill="none" stroke="midnightblue" points="64,-195.16 67.5,-205.16 71,-195.16 64,-195.16"/>
</g>
<!-- Node3 -->
<g id="node3" class="node">
<title>Node3</title>
<g id="a_node3"><a xlink:href="structwb__particle__position.html" target="_top" xlink:title="WHITEBOARD_POSTER_STRING_CONVERSION.">
<polygon fill="none" stroke="black" points="15,-310.5 15,-378.5 120,-378.5 120,-310.5 15,-310.5"/>
<text text-anchor="middle" x="67.5" y="-366.5" font-family="Helvetica,sans-Serif" font-size="10.00">wb_particle_position</text>
<polyline fill="none" stroke="black" points="15,-359.5 120,-359.5 "/>
<text text-anchor="start" x="23" y="-347.5" font-family="Helvetica,sans-Serif" font-size="10.00">+ headingInDegrees</text>
<text text-anchor="start" x="23" y="-336.5" font-family="Helvetica,sans-Serif" font-size="10.00">+ confidence</text>
<polyline fill="none" stroke="black" points="15,-329.5 120,-329.5 "/>
<text text-anchor="middle" x="67.5" y="-317.5" font-family="Helvetica,sans-Serif" font-size="10.00"> </text>
</a>
</g>
</g>
<!-- Node3&#45;&gt;Node2 -->
<g id="edge2" class="edge">
<title>Node3&#45;&gt;Node2</title>
<path fill="none" stroke="#404040" d="M67.5,-310.36C67.5,-299.19 67.5,-286.61 67.5,-274.97"/>
<polygon fill="none" stroke="#404040" points="67.5,-274.83 63.5,-268.83 67.5,-262.83 71.5,-268.83 67.5,-274.83"/>
<text text-anchor="middle" x="90.5" y="-284" font-family="Helvetica,sans-Serif" font-size="10.00"> +particles</text>
</g>
<!-- Node4 -->
<g id="node4" class="node">
<title>Node4</title>
<g id="a_node4"><a xlink:href="structwb__point2d.html" target="_top" xlink:title="WHITEBOARD_POSTER_STRING_CONVERSION.">
<polygon fill="none" stroke="black" points="34.5,-426.5 34.5,-494.5 100.5,-494.5 100.5,-426.5 34.5,-426.5"/>
<text text-anchor="middle" x="67.5" y="-482.5" font-family="Helvetica,sans-Serif" font-size="10.00">wb_point2d</text>
<polyline fill="none" stroke="black" points="34.5,-475.5 100.5,-475.5 "/>
<text text-anchor="start" x="42.5" y="-463.5" font-family="Helvetica,sans-Serif" font-size="10.00">+ x</text>
<text text-anchor="start" x="42.5" y="-452.5" font-family="Helvetica,sans-Serif" font-size="10.00">+ y</text>
<polyline fill="none" stroke="black" points="34.5,-445.5 100.5,-445.5 "/>
<text text-anchor="middle" x="67.5" y="-433.5" font-family="Helvetica,sans-Serif" font-size="10.00"> </text>
</a>
</g>
</g>
<!-- Node4&#45;&gt;Node3 -->
<g id="edge3" class="edge">
<title>Node4&#45;&gt;Node3</title>
<path fill="none" stroke="#404040" d="M67.5,-426.22C67.5,-415.1 67.5,-402.51 67.5,-390.64"/>
<polygon fill="none" stroke="#404040" points="67.5,-390.62 63.5,-384.62 67.5,-378.62 71.5,-384.62 67.5,-390.62"/>
<text text-anchor="middle" x="89" y="-400" font-family="Helvetica,sans-Serif" font-size="10.00"> +position</text>
</g>
</g>
</svg>
