<?xml version="1.0" encoding="UTF-8" standalone="no"?>
<!DOCTYPE svg PUBLIC "-//W3C//DTD SVG 1.1//EN"
 "http://www.w3.org/Graphics/SVG/1.1/DTD/svg11.dtd">
<!-- Generated by graphviz version 2.49.0 (20210830.1337)
 -->
<!-- Title: guWhiteboard::VisionFieldFeatures Pages: 1 -->
<svg width="147pt" height="569pt"
 viewBox="0.00 0.00 147.00 569.00" xmlns="http://www.w3.org/2000/svg" xmlns:xlink="http://www.w3.org/1999/xlink">
<g id="graph0" class="graph" transform="scale(1 1) rotate(0) translate(4 565)">
<title>guWhiteboard::VisionFieldFeatures</title>
<!-- Node1 -->
<g id="node1" class="node">
<title>Node1</title>
<g id="a_node1"><a xlink:title="Provides a C++ wrapper around wb_vision_field_features.">
<polygon fill="#bfbfbf" stroke="black" points="0,-0.5 0,-178.5 128,-178.5 128,-0.5 0,-0.5"/>
<text text-anchor="start" x="8" y="-166.5" font-family="Helvetica,sans-Serif" font-size="10.00">guWhiteboard::VisionField</text>
<text text-anchor="middle" x="64" y="-155.5" font-family="Helvetica,sans-Serif" font-size="10.00">Features</text>
<polyline fill="none" stroke="black" points="0,-148.5 128,-148.5 "/>
<text text-anchor="middle" x="64" y="-136.5" font-family="Helvetica,sans-Serif" font-size="10.00"> </text>
<polyline fill="none" stroke="black" points="0,-129.5 128,-129.5 "/>
<text text-anchor="start" x="8" y="-117.5" font-family="Helvetica,sans-Serif" font-size="10.00">+ VisionFieldFeatures()</text>
<text text-anchor="start" x="8" y="-106.5" font-family="Helvetica,sans-Serif" font-size="10.00">+ VisionFieldFeatures()</text>
<text text-anchor="start" x="8" y="-95.5" font-family="Helvetica,sans-Serif" font-size="10.00">+ VisionFieldFeatures()</text>
<text text-anchor="start" x="8" y="-84.5" font-family="Helvetica,sans-Serif" font-size="10.00">+ operator=()</text>
<text text-anchor="start" x="8" y="-73.5" font-family="Helvetica,sans-Serif" font-size="10.00">+ operator=()</text>
<text text-anchor="start" x="8" y="-62.5" font-family="Helvetica,sans-Serif" font-size="10.00">+ operator==()</text>
<text text-anchor="start" x="8" y="-51.5" font-family="Helvetica,sans-Serif" font-size="10.00">+ operator!=()</text>
<text text-anchor="start" x="8" y="-40.5" font-family="Helvetica,sans-Serif" font-size="10.00">+ operator==()</text>
<text text-anchor="start" x="8" y="-29.5" font-family="Helvetica,sans-Serif" font-size="10.00">+ operator!=()</text>
<text text-anchor="start" x="8" y="-18.5" font-family="Helvetica,sans-Serif" font-size="10.00">+ fieldCorner()</text>
<text text-anchor="start" x="8" y="-7.5" font-family="Helvetica,sans-Serif" font-size="10.00">and 36 more...</text>
</a>
</g>
</g>
<!-- Node2 -->
<g id="node2" class="node">
<title>Node2</title>
<g id="a_node2"><a xlink:href="structwb__vision__field__features.html" target="_top" xlink:title="Posting by Vision of the field corners, T&#45;Intersections and crosses that have been seen.">
<polygon fill="none" stroke="black" points="2.5,-216.5 2.5,-317.5 125.5,-317.5 125.5,-216.5 2.5,-216.5"/>
<text text-anchor="middle" x="64" y="-305.5" font-family="Helvetica,sans-Serif" font-size="10.00">wb_vision_field_features</text>
<polyline fill="none" stroke="black" points="2.5,-298.5 125.5,-298.5 "/>
<text text-anchor="start" x="10.5" y="-286.5" font-family="Helvetica,sans-Serif" font-size="10.00">+ numCorners</text>
<text text-anchor="start" x="10.5" y="-275.5" font-family="Helvetica,sans-Serif" font-size="10.00">+ numIntersections</text>
<text text-anchor="start" x="10.5" y="-264.5" font-family="Helvetica,sans-Serif" font-size="10.00">+ numCrosses</text>
<text text-anchor="start" x="10.5" y="-253.5" font-family="Helvetica,sans-Serif" font-size="10.00">+ res_width</text>
<text text-anchor="start" x="10.5" y="-242.5" font-family="Helvetica,sans-Serif" font-size="10.00">+ res_height</text>
<polyline fill="none" stroke="black" points="2.5,-235.5 125.5,-235.5 "/>
<text text-anchor="middle" x="64" y="-223.5" font-family="Helvetica,sans-Serif" font-size="10.00"> </text>
</a>
</g>
</g>
<!-- Node2&#45;&gt;Node1 -->
<g id="edge1" class="edge">
<title>Node2&#45;&gt;Node1</title>
<path fill="none" stroke="midnightblue" d="M64,-206.02C64,-197.18 64,-187.92 64,-178.65"/>
<polygon fill="none" stroke="midnightblue" points="60.5,-206.18 64,-216.18 67.5,-206.18 60.5,-206.18"/>
</g>
<!-- Node3 -->
<g id="node3" class="node">
<title>Node3</title>
<g id="a_node3"><a xlink:href="structwb__vision__field__feature.html" target="_top" xlink:title="WHITEBOARD_POSTER_STRING_CONVERSION.">
<polygon fill="none" stroke="black" points="5,-387.5 5,-444.5 123,-444.5 123,-387.5 5,-387.5"/>
<text text-anchor="middle" x="64" y="-432.5" font-family="Helvetica,sans-Serif" font-size="10.00">wb_vision_field_feature</text>
<polyline fill="none" stroke="black" points="5,-425.5 123,-425.5 "/>
<text text-anchor="start" x="13" y="-413.5" font-family="Helvetica,sans-Serif" font-size="10.00">+ camera</text>
<polyline fill="none" stroke="black" points="5,-406.5 123,-406.5 "/>
<text text-anchor="middle" x="64" y="-394.5" font-family="Helvetica,sans-Serif" font-size="10.00"> </text>
</a>
</g>
</g>
<!-- Node3&#45;&gt;Node2 -->
<g id="edge2" class="edge">
<title>Node3&#45;&gt;Node2</title>
<path fill="none" stroke="#404040" d="M64,-387.35C64,-371.1 64,-349.86 64,-329.82"/>
<polygon fill="none" stroke="#404040" points="64,-329.54 60,-323.54 64,-317.54 68,-323.54 64,-329.54"/>
<text text-anchor="middle" x="101.5" y="-361" font-family="Helvetica,sans-Serif" font-size="10.00"> +fieldCorner</text>
<text text-anchor="middle" x="101.5" y="-350" font-family="Helvetica,sans-Serif" font-size="10.00">+fieldCrosses</text>
<text text-anchor="middle" x="101.5" y="-339" font-family="Helvetica,sans-Serif" font-size="10.00">+fieldIntersection</text>
</g>
<!-- Node4 -->
<g id="node4" class="node">
<title>Node4</title>
<g id="a_node4"><a xlink:href="structwb__pixel__coordinate.html" target="_top" xlink:title="WHITEBOARD_POSTER_STRING_CONVERSION.">
<polygon fill="none" stroke="black" points="12,-492.5 12,-560.5 116,-560.5 116,-492.5 12,-492.5"/>
<text text-anchor="middle" x="64" y="-548.5" font-family="Helvetica,sans-Serif" font-size="10.00">wb_pixel_coordinate</text>
<polyline fill="none" stroke="black" points="12,-541.5 116,-541.5 "/>
<text text-anchor="start" x="20" y="-529.5" font-family="Helvetica,sans-Serif" font-size="10.00">+ x</text>
<text text-anchor="start" x="20" y="-518.5" font-family="Helvetica,sans-Serif" font-size="10.00">+ y</text>
<polyline fill="none" stroke="black" points="12,-511.5 116,-511.5 "/>
<text text-anchor="middle" x="64" y="-499.5" font-family="Helvetica,sans-Serif" font-size="10.00"> </text>
</a>
</g>
</g>
<!-- Node4&#45;&gt;Node3 -->
<g id="edge3" class="edge">
<title>Node4&#45;&gt;Node3</title>
<path fill="none" stroke="#404040" d="M64,-492.36C64,-481.19 64,-468.61 64,-456.97"/>
<polygon fill="none" stroke="#404040" points="64,-456.83 60,-450.83 64,-444.83 68,-450.83 64,-456.83"/>
<text text-anchor="middle" x="91" y="-466" font-family="Helvetica,sans-Serif" font-size="10.00"> +coordinate</text>
</g>
</g>
</svg>
