<?xml version="1.0" encoding="UTF-8" standalone="no"?>
<!DOCTYPE svg PUBLIC "-//W3C//DTD SVG 1.1//EN"
 "http://www.w3.org/Graphics/SVG/1.1/DTD/svg11.dtd">
<!-- Generated by graphviz version 2.49.0 (20210830.1337)
 -->
<!-- Title: guWhiteboard::WEBOTS_NXT_colorLine_walk_t Pages: 1 -->
<svg width="189pt" height="1132pt"
 viewBox="0.00 0.00 188.50 1132.00" xmlns="http://www.w3.org/2000/svg" xmlns:xlink="http://www.w3.org/1999/xlink">
<g id="graph0" class="graph" transform="scale(1 1) rotate(0) translate(4 1128)">
<title>guWhiteboard::WEBOTS_NXT_colorLine_walk_t</title>
<!-- Node1 -->
<g id="node1" class="node">
<title>Node1</title>
<g id="a_node1"><a xlink:title="WB Ptr Class: WEBOTS_NXT_colorLine_walk_t.">
<polygon fill="#bfbfbf" stroke="black" points="0,-0.5 0,-90.5 137,-90.5 137,-0.5 0,-0.5"/>
<text text-anchor="start" x="8" y="-78.5" font-family="Helvetica,sans-Serif" font-size="10.00">guWhiteboard::WEBOTS</text>
<text text-anchor="middle" x="68.5" y="-67.5" font-family="Helvetica,sans-Serif" font-size="10.00">_NXT_colorLine_walk_t</text>
<polyline fill="none" stroke="black" points="0,-60.5 137,-60.5 "/>
<text text-anchor="start" x="8" y="-48.5" font-family="Helvetica,sans-Serif" font-size="10.00">+ slot</text>
<polyline fill="none" stroke="black" points="0,-41.5 137,-41.5 "/>
<text text-anchor="start" x="8" y="-29.5" font-family="Helvetica,sans-Serif" font-size="10.00">+ WEBOTS_NXT_colorLine</text>
<text text-anchor="start" x="8" y="-18.5" font-family="Helvetica,sans-Serif" font-size="10.00">_walk_t()</text>
<text text-anchor="start" x="8" y="-7.5" font-family="Helvetica,sans-Serif" font-size="10.00">+ eventCounter()</text>
</a>
</g>
</g>
<!-- Node2 -->
<g id="node2" class="node">
<title>Node2</title>
<g id="a_node2"><a xlink:href="classwb__generic__whiteboard__object.html" target="_top" xlink:title=" ">
<polygon fill="none" stroke="black" points="5,-128.5 5,-251.5 132,-251.5 132,-128.5 5,-128.5"/>
<text text-anchor="start" x="13" y="-239.5" font-family="Helvetica,sans-Serif" font-size="10.00">wb_generic_whiteboard</text>
<text text-anchor="start" x="13" y="-228.5" font-family="Helvetica,sans-Serif" font-size="10.00">_object&lt; class WEBOTS</text>
<text text-anchor="middle" x="68.5" y="-217.5" font-family="Helvetica,sans-Serif" font-size="10.00">_NXT_colorLine_walk &gt;</text>
<polyline fill="none" stroke="black" points="5,-210.5 132,-210.5 "/>
<text text-anchor="middle" x="68.5" y="-198.5" font-family="Helvetica,sans-Serif" font-size="10.00"> </text>
<polyline fill="none" stroke="black" points="5,-191.5 132,-191.5 "/>
<text text-anchor="start" x="13" y="-179.5" font-family="Helvetica,sans-Serif" font-size="10.00">+ wb_generic_whiteboard</text>
<text text-anchor="start" x="13" y="-168.5" font-family="Helvetica,sans-Serif" font-size="10.00">_object()</text>
<text text-anchor="start" x="13" y="-157.5" font-family="Helvetica,sans-Serif" font-size="10.00">+ wb_generic_whiteboard</text>
<text text-anchor="start" x="13" y="-146.5" font-family="Helvetica,sans-Serif" font-size="10.00">_object()</text>
<text text-anchor="start" x="13" y="-135.5" font-family="Helvetica,sans-Serif" font-size="10.00">+ init()</text>
</a>
</g>
</g>
<!-- Node2&#45;&gt;Node1 -->
<g id="edge1" class="edge">
<title>Node2&#45;&gt;Node1</title>
<path fill="none" stroke="midnightblue" d="M68.5,-118.08C68.5,-108.77 68.5,-99.46 68.5,-90.77"/>
<polygon fill="none" stroke="midnightblue" points="65,-118.15 68.5,-128.15 72,-118.15 65,-118.15"/>
</g>
<!-- Node3 -->
<g id="node3" class="node">
<title>Node3</title>
<g id="a_node3"><a xlink:href="classgeneric__whiteboard__object.html" target="_top" xlink:title="This class allows you to set and get data directly into or out of the local whiteboard in shared memo...">
<polygon fill="none" stroke="black" points="11.5,-289.5 11.5,-544.5 125.5,-544.5 125.5,-289.5 11.5,-289.5"/>
<text text-anchor="start" x="19.5" y="-532.5" font-family="Helvetica,sans-Serif" font-size="10.00">generic_whiteboard</text>
<text text-anchor="middle" x="68.5" y="-521.5" font-family="Helvetica,sans-Serif" font-size="10.00">_object&lt; object_type &gt;</text>
<polyline fill="none" stroke="black" points="11.5,-514.5 125.5,-514.5 "/>
<text text-anchor="start" x="19.5" y="-502.5" font-family="Helvetica,sans-Serif" font-size="10.00"># type_offset</text>
<text text-anchor="start" x="19.5" y="-491.5" font-family="Helvetica,sans-Serif" font-size="10.00"># atomic</text>
<text text-anchor="start" x="19.5" y="-480.5" font-family="Helvetica,sans-Serif" font-size="10.00"># notify_subscribers</text>
<text text-anchor="start" x="19.5" y="-469.5" font-family="Helvetica,sans-Serif" font-size="10.00"># last_count</text>
<text text-anchor="start" x="19.5" y="-458.5" font-family="Helvetica,sans-Serif" font-size="10.00"># isFirst</text>
<polyline fill="none" stroke="black" points="11.5,-451.5 125.5,-451.5 "/>
<text text-anchor="start" x="19.5" y="-439.5" font-family="Helvetica,sans-Serif" font-size="10.00">+ generic_whiteboard</text>
<text text-anchor="start" x="19.5" y="-428.5" font-family="Helvetica,sans-Serif" font-size="10.00">_object()</text>
<text text-anchor="start" x="19.5" y="-417.5" font-family="Helvetica,sans-Serif" font-size="10.00">+ generic_whiteboard</text>
<text text-anchor="start" x="19.5" y="-406.5" font-family="Helvetica,sans-Serif" font-size="10.00">_object()</text>
<text text-anchor="start" x="19.5" y="-395.5" font-family="Helvetica,sans-Serif" font-size="10.00">+ generic_whiteboard</text>
<text text-anchor="start" x="19.5" y="-384.5" font-family="Helvetica,sans-Serif" font-size="10.00">_object()</text>
<text text-anchor="start" x="19.5" y="-373.5" font-family="Helvetica,sans-Serif" font-size="10.00">+ init()</text>
<text text-anchor="start" x="19.5" y="-362.5" font-family="Helvetica,sans-Serif" font-size="10.00">+ set()</text>
<text text-anchor="start" x="19.5" y="-351.5" font-family="Helvetica,sans-Serif" font-size="10.00">+ get()</text>
<text text-anchor="start" x="19.5" y="-340.5" font-family="Helvetica,sans-Serif" font-size="10.00">+ get_from()</text>
<text text-anchor="start" x="19.5" y="-329.5" font-family="Helvetica,sans-Serif" font-size="10.00">+ post()</text>
<text text-anchor="start" x="19.5" y="-318.5" font-family="Helvetica,sans-Serif" font-size="10.00">+ operator&lt;&lt;()</text>
<text text-anchor="start" x="19.5" y="-307.5" font-family="Helvetica,sans-Serif" font-size="10.00">+ operator&gt;&gt;()</text>
<text text-anchor="start" x="19.5" y="-296.5" font-family="Helvetica,sans-Serif" font-size="10.00">and 18 more...</text>
</a>
</g>
</g>
<!-- Node3&#45;&gt;Node2 -->
<g id="edge2" class="edge">
<title>Node3&#45;&gt;Node2</title>
<path fill="none" stroke="midnightblue" d="M68.5,-279.3C68.5,-269.72 68.5,-260.39 68.5,-251.59"/>
<polygon fill="none" stroke="midnightblue" points="65,-279.36 68.5,-289.36 72,-279.36 65,-279.36"/>
</g>
<!-- Node4 -->
<g id="node4" class="node">
<title>Node4</title>
<g id="a_node4"><a xlink:href="structgsw__whiteboard__s.html" target="_top" xlink:title="the underlying whiteboard object">
<polygon fill="none" stroke="black" points="19.5,-592.5 19.5,-704.5 117.5,-704.5 117.5,-592.5 19.5,-592.5"/>
<text text-anchor="middle" x="68.5" y="-692.5" font-family="Helvetica,sans-Serif" font-size="10.00">gsw_whiteboard_s</text>
<polyline fill="none" stroke="black" points="19.5,-685.5 117.5,-685.5 "/>
<text text-anchor="start" x="27.5" y="-673.5" font-family="Helvetica,sans-Serif" font-size="10.00">+ sem</text>
<text text-anchor="start" x="27.5" y="-662.5" font-family="Helvetica,sans-Serif" font-size="10.00">+ fd</text>
<text text-anchor="start" x="27.5" y="-651.5" font-family="Helvetica,sans-Serif" font-size="10.00">+ callback_queue</text>
<text text-anchor="start" x="27.5" y="-640.5" font-family="Helvetica,sans-Serif" font-size="10.00">+ context</text>
<text text-anchor="start" x="27.5" y="-629.5" font-family="Helvetica,sans-Serif" font-size="10.00">+ got_monitor</text>
<text text-anchor="start" x="27.5" y="-618.5" font-family="Helvetica,sans-Serif" font-size="10.00">+ exit_monitor</text>
<polyline fill="none" stroke="black" points="19.5,-611.5 117.5,-611.5 "/>
<text text-anchor="middle" x="68.5" y="-599.5" font-family="Helvetica,sans-Serif" font-size="10.00"> </text>
</a>
</g>
</g>
<!-- Node4&#45;&gt;Node3 -->
<g id="edge3" class="edge">
<title>Node4&#45;&gt;Node3</title>
<path fill="none" stroke="#404040" d="M68.5,-592.24C68.5,-581.18 68.5,-569.11 68.5,-556.64"/>
<polygon fill="none" stroke="#404040" points="68.5,-556.58 64.5,-550.58 68.5,-544.58 72.5,-550.58 68.5,-556.58"/>
<text text-anchor="middle" x="84" y="-566" font-family="Helvetica,sans-Serif" font-size="10.00"> #_wbd</text>
</g>
<!-- Node4&#45;&gt;Node4 -->
<g id="edge6" class="edge">
<title>Node4&#45;&gt;Node4</title>
<path fill="none" stroke="#404040" d="M117.58,-663.02C127.99,-661.54 135.5,-656.7 135.5,-648.5 135.5,-643.89 133.12,-640.34 129.19,-637.85"/>
<polygon fill="none" stroke="#404040" points="128.97,-637.78 122.01,-639.68 117.58,-633.98 124.54,-632.09 128.97,-637.78"/>
<text text-anchor="middle" x="158" y="-646" font-family="Helvetica,sans-Serif" font-size="10.00"> +callback</text>
</g>
<!-- Node5 -->
<g id="node5" class="node">
<title>Node5</title>
<g id="a_node5"><a xlink:href="structgsw__simple__whiteboard__s.html" target="_top" xlink:title="the actual whiteboard in shared mem">
<polygon fill="none" stroke="black" points="3,-752.5 3,-886.5 134,-886.5 134,-752.5 3,-752.5"/>
<text text-anchor="middle" x="68.5" y="-874.5" font-family="Helvetica,sans-Serif" font-size="10.00">gsw_simple_whiteboard_s</text>
<polyline fill="none" stroke="black" points="3,-867.5 134,-867.5 "/>
<text text-anchor="start" x="11" y="-855.5" font-family="Helvetica,sans-Serif" font-size="10.00">+ version</text>
<text text-anchor="start" x="11" y="-844.5" font-family="Helvetica,sans-Serif" font-size="10.00">+ eventcount</text>
<text text-anchor="start" x="11" y="-833.5" font-family="Helvetica,sans-Serif" font-size="10.00">+ subscribed</text>
<text text-anchor="start" x="11" y="-822.5" font-family="Helvetica,sans-Serif" font-size="10.00">+ num_types</text>
<text text-anchor="start" x="11" y="-811.5" font-family="Helvetica,sans-Serif" font-size="10.00">+ indexes</text>
<text text-anchor="start" x="11" y="-800.5" font-family="Helvetica,sans-Serif" font-size="10.00">+ event_counters</text>
<text text-anchor="start" x="11" y="-789.5" font-family="Helvetica,sans-Serif" font-size="10.00">+ processes</text>
<text text-anchor="start" x="11" y="-778.5" font-family="Helvetica,sans-Serif" font-size="10.00">+ magic</text>
<polyline fill="none" stroke="black" points="3,-771.5 134,-771.5 "/>
<text text-anchor="middle" x="68.5" y="-759.5" font-family="Helvetica,sans-Serif" font-size="10.00"> </text>
</a>
</g>
</g>
<!-- Node5&#45;&gt;Node4 -->
<g id="edge4" class="edge">
<title>Node5&#45;&gt;Node4</title>
<path fill="none" stroke="#404040" d="M68.5,-752.19C68.5,-740.65 68.5,-728.63 68.5,-717.05"/>
<polygon fill="none" stroke="#404040" points="68.5,-716.7 64.5,-710.7 68.5,-704.7 72.5,-710.7 68.5,-716.7"/>
<text text-anchor="middle" x="79.5" y="-726" font-family="Helvetica,sans-Serif" font-size="10.00"> +wb</text>
</g>
<!-- Node6 -->
<g id="node6" class="node">
<title>Node6</title>
<g id="a_node6"><a xlink:href="uniongsw__simple__message.html" target="_top" xlink:title="union type that is used to store data in shared memory">
<polygon fill="none" stroke="black" points="12,-956.5 12,-1123.5 125,-1123.5 125,-956.5 12,-956.5"/>
<text text-anchor="middle" x="68.5" y="-1111.5" font-family="Helvetica,sans-Serif" font-size="10.00">gsw_simple_message</text>
<polyline fill="none" stroke="black" points="12,-1104.5 125,-1104.5 "/>
<text text-anchor="start" x="20" y="-1092.5" font-family="Helvetica,sans-Serif" font-size="10.00">+ ulonglong</text>
<text text-anchor="start" x="20" y="-1081.5" font-family="Helvetica,sans-Serif" font-size="10.00">+ slonglong</text>
<text text-anchor="start" x="20" y="-1070.5" font-family="Helvetica,sans-Serif" font-size="10.00">+ ulong</text>
<text text-anchor="start" x="20" y="-1059.5" font-family="Helvetica,sans-Serif" font-size="10.00">+ slong</text>
<text text-anchor="start" x="20" y="-1048.5" font-family="Helvetica,sans-Serif" font-size="10.00">+ uint</text>
<text text-anchor="start" x="20" y="-1037.5" font-family="Helvetica,sans-Serif" font-size="10.00">+ sint</text>
<text text-anchor="start" x="20" y="-1026.5" font-family="Helvetica,sans-Serif" font-size="10.00">+ ushort</text>
<text text-anchor="start" x="20" y="-1015.5" font-family="Helvetica,sans-Serif" font-size="10.00">+ sshort</text>
<text text-anchor="start" x="20" y="-1004.5" font-family="Helvetica,sans-Serif" font-size="10.00">+ uchar</text>
<text text-anchor="start" x="20" y="-993.5" font-family="Helvetica,sans-Serif" font-size="10.00">+ schar</text>
<text text-anchor="start" x="20" y="-982.5" font-family="Helvetica,sans-Serif" font-size="10.00">and 65 more...</text>
<polyline fill="none" stroke="black" points="12,-975.5 125,-975.5 "/>
<text text-anchor="middle" x="68.5" y="-963.5" font-family="Helvetica,sans-Serif" font-size="10.00"> </text>
</a>
</g>
</g>
<!-- Node6&#45;&gt;Node5 -->
<g id="edge5" class="edge">
<title>Node6&#45;&gt;Node5</title>
<path fill="none" stroke="#404040" d="M68.5,-956.39C68.5,-937.46 68.5,-917.39 68.5,-898.65"/>
<polygon fill="none" stroke="#404040" points="68.5,-898.55 64.5,-892.55 68.5,-886.55 72.5,-892.55 68.5,-898.55"/>
<text text-anchor="middle" x="95.5" y="-930" font-family="Helvetica,sans-Serif" font-size="10.00"> +hashes</text>
<text text-anchor="middle" x="95.5" y="-919" font-family="Helvetica,sans-Serif" font-size="10.00">+messages</text>
<text text-anchor="middle" x="95.5" y="-908" font-family="Helvetica,sans-Serif" font-size="10.00">+typenames</text>
</g>
</g>
</svg>
