<?xml version="1.0" encoding="UTF-8" standalone="no"?>
<!DOCTYPE svg PUBLIC "-//W3C//DTD SVG 1.1//EN"
 "http://www.w3.org/Graphics/SVG/1.1/DTD/svg11.dtd">
<!-- Generated by graphviz version 2.49.0 (20210830.1337)
 -->
<!-- Title: guWhiteboard::DominantFrequencies Pages: 1 -->
<svg width="258pt" height="420pt"
 viewBox="0.00 0.00 258.00 420.00" xmlns="http://www.w3.org/2000/svg" xmlns:xlink="http://www.w3.org/1999/xlink">
<g id="graph0" class="graph" transform="scale(1 1) rotate(0) translate(4 416)">
<title>guWhiteboard::DominantFrequencies</title>
<!-- Node1 -->
<g id="node1" class="node">
<title>Node1</title>
<g id="a_node1"><a xlink:title="Provides a C++ wrapper around wb_dominant_frequencies.">
<polygon fill="#bfbfbf" stroke="black" points="25.5,-0.5 25.5,-178.5 200.5,-178.5 200.5,-0.5 25.5,-0.5"/>
<text text-anchor="middle" x="113" y="-166.5" font-family="Helvetica,sans-Serif" font-size="10.00">guWhiteboard::DominantFrequencies</text>
<polyline fill="none" stroke="black" points="25.5,-159.5 200.5,-159.5 "/>
<text text-anchor="middle" x="113" y="-147.5" font-family="Helvetica,sans-Serif" font-size="10.00"> </text>
<polyline fill="none" stroke="black" points="25.5,-140.5 200.5,-140.5 "/>
<text text-anchor="start" x="33.5" y="-128.5" font-family="Helvetica,sans-Serif" font-size="10.00">+ DominantFrequencies()</text>
<text text-anchor="start" x="33.5" y="-117.5" font-family="Helvetica,sans-Serif" font-size="10.00">+ DominantFrequencies()</text>
<text text-anchor="start" x="33.5" y="-106.5" font-family="Helvetica,sans-Serif" font-size="10.00">+ DominantFrequencies()</text>
<text text-anchor="start" x="33.5" y="-95.5" font-family="Helvetica,sans-Serif" font-size="10.00">+ operator=()</text>
<text text-anchor="start" x="33.5" y="-84.5" font-family="Helvetica,sans-Serif" font-size="10.00">+ operator=()</text>
<text text-anchor="start" x="33.5" y="-73.5" font-family="Helvetica,sans-Serif" font-size="10.00">+ operator==()</text>
<text text-anchor="start" x="33.5" y="-62.5" font-family="Helvetica,sans-Serif" font-size="10.00">+ operator!=()</text>
<text text-anchor="start" x="33.5" y="-51.5" font-family="Helvetica,sans-Serif" font-size="10.00">+ operator==()</text>
<text text-anchor="start" x="33.5" y="-40.5" font-family="Helvetica,sans-Serif" font-size="10.00">+ operator!=()</text>
<text text-anchor="start" x="33.5" y="-29.5" font-family="Helvetica,sans-Serif" font-size="10.00">+ rms()</text>
<text text-anchor="start" x="33.5" y="-18.5" font-family="Helvetica,sans-Serif" font-size="10.00">and 12 more...</text>
<text text-anchor="start" x="33.5" y="-7.5" font-family="Helvetica,sans-Serif" font-size="10.00">+ num_frequencies()</text>
</a>
</g>
</g>
<!-- Node2 -->
<g id="node2" class="node">
<title>Node2</title>
<g id="a_node2"><a xlink:href="structwb__dominant__frequencies.html" target="_top" xlink:title="Frequency quadruple for rear and front stereo channels.">
<polygon fill="none" stroke="black" points="48,-216.5 48,-273.5 178,-273.5 178,-216.5 48,-216.5"/>
<text text-anchor="middle" x="113" y="-261.5" font-family="Helvetica,sans-Serif" font-size="10.00">wb_dominant_frequencies</text>
<polyline fill="none" stroke="black" points="48,-254.5 178,-254.5 "/>
<text text-anchor="middle" x="113" y="-242.5" font-family="Helvetica,sans-Serif" font-size="10.00"> </text>
<polyline fill="none" stroke="black" points="48,-235.5 178,-235.5 "/>
<text text-anchor="middle" x="113" y="-223.5" font-family="Helvetica,sans-Serif" font-size="10.00"> </text>
</a>
</g>
</g>
<!-- Node2&#45;&gt;Node1 -->
<g id="edge1" class="edge">
<title>Node2&#45;&gt;Node1</title>
<path fill="none" stroke="midnightblue" d="M113,-205.96C113,-197.47 113,-188.13 113,-178.55"/>
<polygon fill="none" stroke="midnightblue" points="109.5,-206.2 113,-216.2 116.5,-206.2 109.5,-206.2"/>
</g>
<!-- Node3 -->
<g id="node3" class="node">
<title>Node3</title>
<g id="a_node3"><a xlink:href="structwb__r__m__s__levels.html" target="_top" xlink:title="WHITEBOARD_POSTER_STRING_CONVERSION.">
<polygon fill="none" stroke="black" points="0,-321.5 0,-411.5 92,-411.5 92,-321.5 0,-321.5"/>
<text text-anchor="middle" x="46" y="-399.5" font-family="Helvetica,sans-Serif" font-size="10.00">wb_r_m_s_levels</text>
<polyline fill="none" stroke="black" points="0,-392.5 92,-392.5 "/>
<text text-anchor="start" x="8" y="-380.5" font-family="Helvetica,sans-Serif" font-size="10.00">+ rear_left</text>
<text text-anchor="start" x="8" y="-369.5" font-family="Helvetica,sans-Serif" font-size="10.00">+ rear_right</text>
<text text-anchor="start" x="8" y="-358.5" font-family="Helvetica,sans-Serif" font-size="10.00">+ front_left</text>
<text text-anchor="start" x="8" y="-347.5" font-family="Helvetica,sans-Serif" font-size="10.00">+ front_right</text>
<polyline fill="none" stroke="black" points="0,-340.5 92,-340.5 "/>
<text text-anchor="middle" x="46" y="-328.5" font-family="Helvetica,sans-Serif" font-size="10.00"> </text>
</a>
</g>
</g>
<!-- Node3&#45;&gt;Node2 -->
<g id="edge2" class="edge">
<title>Node3&#45;&gt;Node2</title>
<path fill="none" stroke="#404040" d="M70.76,-321.34C77.54,-309.25 84.83,-296.24 91.42,-284.49"/>
<polygon fill="none" stroke="#404040" points="91.61,-284.15 91.05,-276.97 97.48,-273.69 98.03,-280.88 91.61,-284.15"/>
<text text-anchor="middle" x="98.5" y="-295" font-family="Helvetica,sans-Serif" font-size="10.00"> +rms</text>
</g>
<!-- Node4 -->
<g id="node4" class="node">
<title>Node4</title>
<g id="a_node4"><a xlink:href="structwb__microphone__frequencies.html" target="_top" xlink:title="WHITEBOARD_POSTER_STRING_CONVERSION.">
<polygon fill="none" stroke="black" points="110,-321.5 110,-411.5 250,-411.5 250,-321.5 110,-321.5"/>
<text text-anchor="middle" x="180" y="-399.5" font-family="Helvetica,sans-Serif" font-size="10.00">wb_microphone_frequencies</text>
<polyline fill="none" stroke="black" points="110,-392.5 250,-392.5 "/>
<text text-anchor="start" x="118" y="-380.5" font-family="Helvetica,sans-Serif" font-size="10.00">+ rear_left</text>
<text text-anchor="start" x="118" y="-369.5" font-family="Helvetica,sans-Serif" font-size="10.00">+ rear_right</text>
<text text-anchor="start" x="118" y="-358.5" font-family="Helvetica,sans-Serif" font-size="10.00">+ front_left</text>
<text text-anchor="start" x="118" y="-347.5" font-family="Helvetica,sans-Serif" font-size="10.00">+ front_right</text>
<polyline fill="none" stroke="black" points="110,-340.5 250,-340.5 "/>
<text text-anchor="middle" x="180" y="-328.5" font-family="Helvetica,sans-Serif" font-size="10.00"> </text>
</a>
</g>
</g>
<!-- Node4&#45;&gt;Node2 -->
<g id="edge3" class="edge">
<title>Node4&#45;&gt;Node2</title>
<path fill="none" stroke="#404040" d="M155.24,-321.34C148.46,-309.25 141.17,-296.24 134.58,-284.49"/>
<polygon fill="none" stroke="#404040" points="134.39,-284.15 127.97,-280.88 128.52,-273.69 134.95,-276.97 134.39,-284.15"/>
<text text-anchor="middle" x="173.5" y="-295" font-family="Helvetica,sans-Serif" font-size="10.00"> +frequencies</text>
</g>
</g>
</svg>
