<?xml version="1.0" encoding="UTF-8" standalone="no"?>
<!DOCTYPE svg PUBLIC "-//W3C//DTD SVG 1.1//EN"
 "http://www.w3.org/Graphics/SVG/1.1/DTD/svg11.dtd">
<!-- Generated by graphviz version 2.49.0 (20210830.1337)
 -->
<!-- Title: WBFunctor&lt; C &gt; Pages: 1 -->
<svg width="343pt" height="519pt"
 viewBox="0.00 0.00 343.00 519.00" xmlns="http://www.w3.org/2000/svg" xmlns:xlink="http://www.w3.org/1999/xlink">
<g id="graph0" class="graph" transform="scale(1 1) rotate(0) translate(4 515)">
<title>WBFunctor&lt; C &gt;</title>
<!-- Node1 -->
<g id="node1" class="node">
<title>Node1</title>
<g id="a_node1"><a xlink:title="WBFunctor callback manager class.">
<polygon fill="#bfbfbf" stroke="black" points="111,-0.5 111,-189.5 238,-189.5 238,-0.5 111,-0.5"/>
<text text-anchor="middle" x="174.5" y="-177.5" font-family="Helvetica,sans-Serif" font-size="10.00">WBFunctor&lt; C &gt;</text>
<polyline fill="none" stroke="black" points="111,-170.5 238,-170.5 "/>
<text text-anchor="start" x="119" y="-158.5" font-family="Helvetica,sans-Serif" font-size="10.00"># fObject</text>
<text text-anchor="start" x="119" y="-147.5" font-family="Helvetica,sans-Serif" font-size="10.00"># type_enum</text>
<text text-anchor="start" x="119" y="-136.5" font-family="Helvetica,sans-Serif" font-size="10.00"># event_count</text>
<text text-anchor="start" x="119" y="-125.5" font-family="Helvetica,sans-Serif" font-size="10.00"># simple_wb_version</text>
<polyline fill="none" stroke="black" points="111,-118.5 238,-118.5 "/>
<text text-anchor="start" x="119" y="-106.5" font-family="Helvetica,sans-Serif" font-size="10.00">+ WBFunctor()</text>
<text text-anchor="start" x="119" y="-95.5" font-family="Helvetica,sans-Serif" font-size="10.00">+ WBFunctor()</text>
<text text-anchor="start" x="119" y="-84.5" font-family="Helvetica,sans-Serif" font-size="10.00">+ call()</text>
<text text-anchor="start" x="119" y="-73.5" font-family="Helvetica,sans-Serif" font-size="10.00">+ call()</text>
<text text-anchor="start" x="119" y="-62.5" font-family="Helvetica,sans-Serif" font-size="10.00">+ call()</text>
<text text-anchor="start" x="119" y="-51.5" font-family="Helvetica,sans-Serif" font-size="10.00">+ type()</text>
<text text-anchor="start" x="119" y="-40.5" font-family="Helvetica,sans-Serif" font-size="10.00">+ get_event_count()</text>
<text text-anchor="start" x="119" y="-29.5" font-family="Helvetica,sans-Serif" font-size="10.00">+ set_event_count()</text>
<text text-anchor="start" x="119" y="-18.5" font-family="Helvetica,sans-Serif" font-size="10.00">+ is_simple_wb_version()</text>
<text text-anchor="start" x="119" y="-7.5" font-family="Helvetica,sans-Serif" font-size="10.00">+ get_s_func_ptr()</text>
</a>
</g>
</g>
<!-- Node2 -->
<g id="node2" class="node">
<title>Node2</title>
<g id="a_node2"><a xlink:href="class_w_b_functor_base.html" target="_top" xlink:title="Base class for WBFunctor.">
<polygon fill="none" stroke="black" points="0,-254 0,-388 127,-388 127,-254 0,-254"/>
<text text-anchor="middle" x="63.5" y="-376" font-family="Helvetica,sans-Serif" font-size="10.00">WBFunctorBase</text>
<polyline fill="none" stroke="black" points="0,-369 127,-369 "/>
<text text-anchor="middle" x="63.5" y="-357" font-family="Helvetica,sans-Serif" font-size="10.00"> </text>
<polyline fill="none" stroke="black" points="0,-350 127,-350 "/>
<text text-anchor="start" x="8" y="-338" font-family="Helvetica,sans-Serif" font-size="10.00">+ call()</text>
<text text-anchor="start" x="8" y="-327" font-family="Helvetica,sans-Serif" font-size="10.00">+ call()</text>
<text text-anchor="start" x="8" y="-316" font-family="Helvetica,sans-Serif" font-size="10.00">+ call()</text>
<text text-anchor="start" x="8" y="-305" font-family="Helvetica,sans-Serif" font-size="10.00">+ type()</text>
<text text-anchor="start" x="8" y="-294" font-family="Helvetica,sans-Serif" font-size="10.00">+ get_event_count()</text>
<text text-anchor="start" x="8" y="-283" font-family="Helvetica,sans-Serif" font-size="10.00">+ set_event_count()</text>
<text text-anchor="start" x="8" y="-272" font-family="Helvetica,sans-Serif" font-size="10.00">+ is_simple_wb_version()</text>
<text text-anchor="start" x="8" y="-261" font-family="Helvetica,sans-Serif" font-size="10.00">+ ~WBFunctorBase()</text>
</a>
</g>
</g>
<!-- Node2&#45;&gt;Node1 -->
<g id="edge1" class="edge">
<title>Node2&#45;&gt;Node1</title>
<path fill="none" stroke="midnightblue" d="M100.87,-244.59C109.63,-226.92 119.06,-207.87 128.16,-189.51"/>
<polygon fill="none" stroke="midnightblue" points="97.66,-243.19 96.35,-253.7 103.93,-246.3 97.66,-243.19"/>
</g>
<!-- Node3 -->
<g id="node3" class="node">
<title>Node3</title>
<g id="a_node3"><a xlink:title=" ">
<polygon fill="none" stroke="#bfbfbf" points="145,-292.5 145,-349.5 204,-349.5 204,-292.5 145,-292.5"/>
<text text-anchor="middle" x="174.5" y="-337.5" font-family="Helvetica,sans-Serif" font-size="10.00">std::string</text>
<polyline fill="none" stroke="#bfbfbf" points="145,-330.5 204,-330.5 "/>
<text text-anchor="middle" x="174.5" y="-318.5" font-family="Helvetica,sans-Serif" font-size="10.00"> </text>
<polyline fill="none" stroke="#bfbfbf" points="145,-311.5 204,-311.5 "/>
<text text-anchor="middle" x="174.5" y="-299.5" font-family="Helvetica,sans-Serif" font-size="10.00"> </text>
</a>
</g>
</g>
<!-- Node3&#45;&gt;Node1 -->
<g id="edge2" class="edge">
<title>Node3&#45;&gt;Node1</title>
<path fill="none" stroke="#404040" d="M174.5,-292.08C174.5,-269.16 174.5,-235.15 174.5,-201.87"/>
<polygon fill="none" stroke="#404040" points="174.5,-201.66 170.5,-195.66 174.5,-189.66 178.5,-195.66 174.5,-201.66"/>
<text text-anchor="middle" x="199" y="-211" font-family="Helvetica,sans-Serif" font-size="10.00"> #fFunction</text>
</g>
<!-- Node4 -->
<g id="node4" class="node">
<title>Node4</title>
<g id="a_node4"><a xlink:title=" ">
<polygon fill="none" stroke="#bfbfbf" points="128,-442.5 128,-510.5 221,-510.5 221,-442.5 128,-442.5"/>
<text text-anchor="start" x="136" y="-498.5" font-family="Helvetica,sans-Serif" font-size="10.00">std::basic_string&lt;</text>
<text text-anchor="middle" x="174.5" y="-487.5" font-family="Helvetica,sans-Serif" font-size="10.00"> Char &gt;</text>
<polyline fill="none" stroke="#bfbfbf" points="128,-480.5 221,-480.5 "/>
<text text-anchor="middle" x="174.5" y="-468.5" font-family="Helvetica,sans-Serif" font-size="10.00"> </text>
<polyline fill="none" stroke="#bfbfbf" points="128,-461.5 221,-461.5 "/>
<text text-anchor="middle" x="174.5" y="-449.5" font-family="Helvetica,sans-Serif" font-size="10.00"> </text>
</a>
</g>
</g>
<!-- Node4&#45;&gt;Node3 -->
<g id="edge3" class="edge">
<title>Node4&#45;&gt;Node3</title>
<path fill="none" stroke="midnightblue" d="M174.5,-432.03C174.5,-405.56 174.5,-372.53 174.5,-349.6"/>
<polygon fill="none" stroke="midnightblue" points="171,-432.19 174.5,-442.19 178,-432.19 171,-432.19"/>
</g>
<!-- Node5 -->
<g id="node5" class="node">
<title>Node5</title>
<g id="a_node5"><a xlink:href="uniongsw__simple__message.html" target="_top" xlink:title="union type that is used to store data in shared memory">
<polygon fill="none" stroke="black" points="222,-237.5 222,-404.5 335,-404.5 335,-237.5 222,-237.5"/>
<text text-anchor="middle" x="278.5" y="-392.5" font-family="Helvetica,sans-Serif" font-size="10.00">gsw_simple_message</text>
<polyline fill="none" stroke="black" points="222,-385.5 335,-385.5 "/>
<text text-anchor="start" x="230" y="-373.5" font-family="Helvetica,sans-Serif" font-size="10.00">+ ulonglong</text>
<text text-anchor="start" x="230" y="-362.5" font-family="Helvetica,sans-Serif" font-size="10.00">+ slonglong</text>
<text text-anchor="start" x="230" y="-351.5" font-family="Helvetica,sans-Serif" font-size="10.00">+ ulong</text>
<text text-anchor="start" x="230" y="-340.5" font-family="Helvetica,sans-Serif" font-size="10.00">+ slong</text>
<text text-anchor="start" x="230" y="-329.5" font-family="Helvetica,sans-Serif" font-size="10.00">+ uint</text>
<text text-anchor="start" x="230" y="-318.5" font-family="Helvetica,sans-Serif" font-size="10.00">+ sint</text>
<text text-anchor="start" x="230" y="-307.5" font-family="Helvetica,sans-Serif" font-size="10.00">+ ushort</text>
<text text-anchor="start" x="230" y="-296.5" font-family="Helvetica,sans-Serif" font-size="10.00">+ sshort</text>
<text text-anchor="start" x="230" y="-285.5" font-family="Helvetica,sans-Serif" font-size="10.00">+ uchar</text>
<text text-anchor="start" x="230" y="-274.5" font-family="Helvetica,sans-Serif" font-size="10.00">+ schar</text>
<text text-anchor="start" x="230" y="-263.5" font-family="Helvetica,sans-Serif" font-size="10.00">and 65 more...</text>
<polyline fill="none" stroke="black" points="222,-256.5 335,-256.5 "/>
<text text-anchor="middle" x="278.5" y="-244.5" font-family="Helvetica,sans-Serif" font-size="10.00"> </text>
</a>
</g>
</g>
<!-- Node5&#45;&gt;Node1 -->
<g id="edge4" class="edge">
<title>Node5&#45;&gt;Node1</title>
<path fill="none" stroke="#404040" d="M241.04,-237.36C236.5,-227.46 231.91,-217.5 227.5,-208 226.38,-205.58 225.24,-203.14 224.09,-200.67"/>
<polygon fill="none" stroke="#404040" points="224.07,-200.63 217.91,-196.89 218.99,-189.76 225.16,-193.5 224.07,-200.63"/>
<text text-anchor="middle" x="262" y="-211" font-family="Helvetica,sans-Serif" font-size="10.00"> #s_fFunction</text>
</g>
</g>
</svg>
