<?xml version="1.0" encoding="UTF-8" standalone="no"?>
<!DOCTYPE svg PUBLIC "-//W3C//DTD SVG 1.1//EN"
 "http://www.w3.org/Graphics/SVG/1.1/DTD/svg11.dtd">
<!-- Generated by graphviz version 2.49.0 (20210830.1337)
 -->
<!-- Title: guWhiteboard::MachineFilteredLocalisationVision Pages: 1 -->
<svg width="157pt" height="453pt"
 viewBox="0.00 0.00 157.00 453.00" xmlns="http://www.w3.org/2000/svg" xmlns:xlink="http://www.w3.org/1999/xlink">
<g id="graph0" class="graph" transform="scale(1 1) rotate(0) translate(4 449)">
<title>guWhiteboard::MachineFilteredLocalisationVision</title>
<!-- Node1 -->
<g id="node1" class="node">
<title>Node1</title>
<g id="a_node1"><a xlink:title="Provides a C++ wrapper around wb_machine_filtered_localisation_vision.">
<polygon fill="#bfbfbf" stroke="black" points="0,-0.5 0,-211.5 149,-211.5 149,-0.5 0,-0.5"/>
<text text-anchor="start" x="8" y="-199.5" font-family="Helvetica,sans-Serif" font-size="10.00">guWhiteboard::MachineFiltered</text>
<text text-anchor="middle" x="74.5" y="-188.5" font-family="Helvetica,sans-Serif" font-size="10.00">LocalisationVision</text>
<polyline fill="none" stroke="black" points="0,-181.5 149,-181.5 "/>
<text text-anchor="middle" x="74.5" y="-169.5" font-family="Helvetica,sans-Serif" font-size="10.00"> </text>
<polyline fill="none" stroke="black" points="0,-162.5 149,-162.5 "/>
<text text-anchor="start" x="8" y="-150.5" font-family="Helvetica,sans-Serif" font-size="10.00">+ MachineFilteredLocalisation</text>
<text text-anchor="start" x="8" y="-139.5" font-family="Helvetica,sans-Serif" font-size="10.00">Vision()</text>
<text text-anchor="start" x="8" y="-128.5" font-family="Helvetica,sans-Serif" font-size="10.00">+ MachineFilteredLocalisation</text>
<text text-anchor="start" x="8" y="-117.5" font-family="Helvetica,sans-Serif" font-size="10.00">Vision()</text>
<text text-anchor="start" x="8" y="-106.5" font-family="Helvetica,sans-Serif" font-size="10.00">+ MachineFilteredLocalisation</text>
<text text-anchor="start" x="8" y="-95.5" font-family="Helvetica,sans-Serif" font-size="10.00">Vision()</text>
<text text-anchor="start" x="8" y="-84.5" font-family="Helvetica,sans-Serif" font-size="10.00">+ operator=()</text>
<text text-anchor="start" x="8" y="-73.5" font-family="Helvetica,sans-Serif" font-size="10.00">+ operator=()</text>
<text text-anchor="start" x="8" y="-62.5" font-family="Helvetica,sans-Serif" font-size="10.00">+ operator==()</text>
<text text-anchor="start" x="8" y="-51.5" font-family="Helvetica,sans-Serif" font-size="10.00">+ operator!=()</text>
<text text-anchor="start" x="8" y="-40.5" font-family="Helvetica,sans-Serif" font-size="10.00">+ operator==()</text>
<text text-anchor="start" x="8" y="-29.5" font-family="Helvetica,sans-Serif" font-size="10.00">+ operator!=()</text>
<text text-anchor="start" x="8" y="-18.5" font-family="Helvetica,sans-Serif" font-size="10.00">+ numberOfSightings()</text>
<text text-anchor="start" x="8" y="-7.5" font-family="Helvetica,sans-Serif" font-size="10.00">and 25 more...</text>
</a>
</g>
</g>
<!-- Node2 -->
<g id="node2" class="node">
<title>Node2</title>
<g id="a_node2"><a xlink:href="structwb__machine__filtered__localisation__vision.html" target="_top" xlink:title="Results of the FSM (and sub machines) &quot;SMFilterVision&quot;.">
<polygon fill="none" stroke="black" points="20.5,-249.5 20.5,-317.5 128.5,-317.5 128.5,-249.5 20.5,-249.5"/>
<text text-anchor="start" x="28.5" y="-305.5" font-family="Helvetica,sans-Serif" font-size="10.00">wb_machine_filtered</text>
<text text-anchor="middle" x="74.5" y="-294.5" font-family="Helvetica,sans-Serif" font-size="10.00">_localisation_vision</text>
<polyline fill="none" stroke="black" points="20.5,-287.5 128.5,-287.5 "/>
<text text-anchor="start" x="28.5" y="-275.5" font-family="Helvetica,sans-Serif" font-size="10.00">+ numberOfSightings</text>
<polyline fill="none" stroke="black" points="20.5,-268.5 128.5,-268.5 "/>
<text text-anchor="middle" x="74.5" y="-256.5" font-family="Helvetica,sans-Serif" font-size="10.00"> </text>
</a>
</g>
</g>
<!-- Node2&#45;&gt;Node1 -->
<g id="edge1" class="edge">
<title>Node2&#45;&gt;Node1</title>
<path fill="none" stroke="midnightblue" d="M74.5,-239.39C74.5,-230.76 74.5,-221.35 74.5,-211.65"/>
<polygon fill="none" stroke="midnightblue" points="71,-239.49 74.5,-249.49 78,-239.49 71,-239.49"/>
</g>
<!-- Node3 -->
<g id="node3" class="node">
<title>Node3</title>
<g id="a_node3"><a xlink:href="structwb__landmark__sighting.html" target="_top" xlink:title="WHITEBOARD_POSTER_STRING_CONVERSION.">
<polygon fill="none" stroke="black" points="18,-365.5 18,-444.5 131,-444.5 131,-365.5 18,-365.5"/>
<text text-anchor="middle" x="74.5" y="-432.5" font-family="Helvetica,sans-Serif" font-size="10.00">wb_landmark_sighting</text>
<polyline fill="none" stroke="black" points="18,-425.5 131,-425.5 "/>
<text text-anchor="start" x="26" y="-413.5" font-family="Helvetica,sans-Serif" font-size="10.00">+ direction</text>
<text text-anchor="start" x="26" y="-402.5" font-family="Helvetica,sans-Serif" font-size="10.00">+ distance</text>
<text text-anchor="start" x="26" y="-391.5" font-family="Helvetica,sans-Serif" font-size="10.00">+ sightingType</text>
<polyline fill="none" stroke="black" points="18,-384.5 131,-384.5 "/>
<text text-anchor="middle" x="74.5" y="-372.5" font-family="Helvetica,sans-Serif" font-size="10.00"> </text>
</a>
</g>
</g>
<!-- Node3&#45;&gt;Node2 -->
<g id="edge2" class="edge">
<title>Node3&#45;&gt;Node2</title>
<path fill="none" stroke="#404040" d="M74.5,-365.2C74.5,-353.99 74.5,-341.65 74.5,-330.07"/>
<polygon fill="none" stroke="#404040" points="74.5,-329.89 70.5,-323.89 74.5,-317.89 78.5,-323.89 74.5,-329.89"/>
<text text-anchor="middle" x="98.5" y="-339" font-family="Helvetica,sans-Serif" font-size="10.00"> +sightings</text>
</g>
</g>
</svg>
