<?xml version="1.0" encoding="UTF-8" standalone="no"?>
<!DOCTYPE svg PUBLIC "-//W3C//DTD SVG 1.1//EN"
 "http://www.w3.org/Graphics/SVG/1.1/DTD/svg11.dtd">
<!-- Generated by graphviz version 2.49.0 (20210830.1337)
 -->
<!-- Title: guWhiteboard::DifferentialRobotControlStatus Pages: 1 -->
<svg width="135pt" height="259pt"
 viewBox="0.00 0.00 135.00 259.00" xmlns="http://www.w3.org/2000/svg" xmlns:xlink="http://www.w3.org/1999/xlink">
<g id="graph0" class="graph" transform="scale(1 1) rotate(0) translate(4 255)">
<title>guWhiteboard::DifferentialRobotControlStatus</title>
<!-- Node1 -->
<g id="node1" class="node">
<title>Node1</title>
<g id="a_node1"><a xlink:title="Class for controlling differential robots Defines whiteboard message.">
<polygon fill="#bfbfbf" stroke="black" points="0,-0.5 0,-145.5 127,-145.5 127,-0.5 0,-0.5"/>
<text text-anchor="start" x="8" y="-133.5" font-family="Helvetica,sans-Serif" font-size="10.00">guWhiteboard::Differential</text>
<text text-anchor="middle" x="63.5" y="-122.5" font-family="Helvetica,sans-Serif" font-size="10.00">RobotControlStatus</text>
<polyline fill="none" stroke="black" points="0,-115.5 127,-115.5 "/>
<text text-anchor="middle" x="63.5" y="-103.5" font-family="Helvetica,sans-Serif" font-size="10.00"> </text>
<polyline fill="none" stroke="black" points="0,-96.5 127,-96.5 "/>
<text text-anchor="start" x="8" y="-84.5" font-family="Helvetica,sans-Serif" font-size="10.00">+ DifferentialRobotControl</text>
<text text-anchor="start" x="8" y="-73.5" font-family="Helvetica,sans-Serif" font-size="10.00">Status()</text>
<text text-anchor="start" x="8" y="-62.5" font-family="Helvetica,sans-Serif" font-size="10.00">+ DifferentialRobotControl</text>
<text text-anchor="start" x="8" y="-51.5" font-family="Helvetica,sans-Serif" font-size="10.00">Status()</text>
<text text-anchor="start" x="8" y="-40.5" font-family="Helvetica,sans-Serif" font-size="10.00">+ description()</text>
<text text-anchor="start" x="8" y="-29.5" font-family="Helvetica,sans-Serif" font-size="10.00">+ from_string()</text>
<text text-anchor="start" x="8" y="-18.5" font-family="Helvetica,sans-Serif" font-size="10.00">+ operator==()</text>
<text text-anchor="start" x="8" y="-7.5" font-family="Helvetica,sans-Serif" font-size="10.00">+ stop()</text>
</a>
</g>
</g>
<!-- Node2 -->
<g id="node2" class="node">
<title>Node2</title>
<g id="a_node2"><a xlink:href="structwb__differential__robot.html" target="_top" xlink:title="Differential, kinematic robot model.">
<polygon fill="none" stroke="black" points="3.5,-182.5 3.5,-250.5 123.5,-250.5 123.5,-182.5 3.5,-182.5"/>
<text text-anchor="middle" x="63.5" y="-238.5" font-family="Helvetica,sans-Serif" font-size="10.00">wb_differential_robot</text>
<polyline fill="none" stroke="black" points="3.5,-231.5 123.5,-231.5 "/>
<text text-anchor="middle" x="63.5" y="-219.5" font-family="Helvetica,sans-Serif" font-size="10.00"> </text>
<polyline fill="none" stroke="black" points="3.5,-212.5 123.5,-212.5 "/>
<text text-anchor="start" x="11.5" y="-200.5" font-family="Helvetica,sans-Serif" font-size="10.00">+ PROPERTY()</text>
<text text-anchor="start" x="11.5" y="-189.5" font-family="Helvetica,sans-Serif" font-size="10.00">+ wb_differential_robot()</text>
</a>
</g>
</g>
<!-- Node2&#45;&gt;Node1 -->
<g id="edge1" class="edge">
<title>Node2&#45;&gt;Node1</title>
<path fill="none" stroke="midnightblue" d="M63.5,-172.09C63.5,-163.73 63.5,-154.76 63.5,-145.77"/>
<polygon fill="none" stroke="midnightblue" points="60,-172.32 63.5,-182.32 67,-172.32 60,-172.32"/>
</g>
</g>
</svg>
