<?xml version="1.0" encoding="UTF-8" standalone="no"?>
<!DOCTYPE svg PUBLIC "-//W3C//DTD SVG 1.1//EN"
 "http://www.w3.org/Graphics/SVG/1.1/DTD/svg11.dtd">
<!-- Generated by graphviz version 2.49.0 (20210830.1337)
 -->
<!-- Title: guWhiteboard::VisionDetectionFeatures Pages: 1 -->
<svg width="157pt" height="641pt"
 viewBox="0.00 0.00 157.00 641.00" xmlns="http://www.w3.org/2000/svg" xmlns:xlink="http://www.w3.org/1999/xlink">
<g id="graph0" class="graph" transform="scale(1 1) rotate(0) translate(4 637)">
<title>guWhiteboard::VisionDetectionFeatures</title>
<!-- Node1 -->
<g id="node1" class="node">
<title>Node1</title>
<g id="a_node1"><a xlink:title="Provides a C++ wrapper around wb_vision_detection_features.">
<polygon fill="#bfbfbf" stroke="black" points="0,-0.5 0,-178.5 149,-178.5 149,-0.5 0,-0.5"/>
<text text-anchor="start" x="8" y="-166.5" font-family="Helvetica,sans-Serif" font-size="10.00">guWhiteboard::VisionDetection</text>
<text text-anchor="middle" x="74.5" y="-155.5" font-family="Helvetica,sans-Serif" font-size="10.00">Features</text>
<polyline fill="none" stroke="black" points="0,-148.5 149,-148.5 "/>
<text text-anchor="middle" x="74.5" y="-136.5" font-family="Helvetica,sans-Serif" font-size="10.00"> </text>
<polyline fill="none" stroke="black" points="0,-129.5 149,-129.5 "/>
<text text-anchor="start" x="8" y="-117.5" font-family="Helvetica,sans-Serif" font-size="10.00">+ VisionDetectionFeatures()</text>
<text text-anchor="start" x="8" y="-106.5" font-family="Helvetica,sans-Serif" font-size="10.00">+ VisionDetectionFeatures()</text>
<text text-anchor="start" x="8" y="-95.5" font-family="Helvetica,sans-Serif" font-size="10.00">+ VisionDetectionFeatures()</text>
<text text-anchor="start" x="8" y="-84.5" font-family="Helvetica,sans-Serif" font-size="10.00">+ operator=()</text>
<text text-anchor="start" x="8" y="-73.5" font-family="Helvetica,sans-Serif" font-size="10.00">+ operator=()</text>
<text text-anchor="start" x="8" y="-62.5" font-family="Helvetica,sans-Serif" font-size="10.00">+ operator==()</text>
<text text-anchor="start" x="8" y="-51.5" font-family="Helvetica,sans-Serif" font-size="10.00">+ operator!=()</text>
<text text-anchor="start" x="8" y="-40.5" font-family="Helvetica,sans-Serif" font-size="10.00">+ operator==()</text>
<text text-anchor="start" x="8" y="-29.5" font-family="Helvetica,sans-Serif" font-size="10.00">+ operator!=()</text>
<text text-anchor="start" x="8" y="-18.5" font-family="Helvetica,sans-Serif" font-size="10.00">+ frameNumber()</text>
<text text-anchor="start" x="8" y="-7.5" font-family="Helvetica,sans-Serif" font-size="10.00">and 12 more...</text>
</a>
</g>
</g>
<!-- Node2 -->
<g id="node2" class="node">
<title>Node2</title>
<g id="a_node2"><a xlink:href="structwb__vision__detection__features.html" target="_top" xlink:title="Results for the Feature Detector (guvision).">
<polygon fill="none" stroke="black" points="22,-216.5 22,-284.5 127,-284.5 127,-216.5 22,-216.5"/>
<text text-anchor="start" x="30" y="-272.5" font-family="Helvetica,sans-Serif" font-size="10.00">wb_vision_detection</text>
<text text-anchor="middle" x="74.5" y="-261.5" font-family="Helvetica,sans-Serif" font-size="10.00">_features</text>
<polyline fill="none" stroke="black" points="22,-254.5 127,-254.5 "/>
<text text-anchor="start" x="30" y="-242.5" font-family="Helvetica,sans-Serif" font-size="10.00">+ frameNumber</text>
<polyline fill="none" stroke="black" points="22,-235.5 127,-235.5 "/>
<text text-anchor="middle" x="74.5" y="-223.5" font-family="Helvetica,sans-Serif" font-size="10.00"> </text>
</a>
</g>
</g>
<!-- Node2&#45;&gt;Node1 -->
<g id="edge1" class="edge">
<title>Node2&#45;&gt;Node1</title>
<path fill="none" stroke="midnightblue" d="M74.5,-206.11C74.5,-197.54 74.5,-188.27 74.5,-178.83"/>
<polygon fill="none" stroke="midnightblue" points="71,-206.17 74.5,-216.17 78,-206.17 71,-206.17"/>
</g>
<!-- Node3 -->
<g id="node3" class="node">
<title>Node3</title>
<g id="a_node3"><a xlink:href="structwb__vision__detection__feature__array.html" target="_top" xlink:title="Results for the Feature Detector (guvision).">
<polygon fill="none" stroke="black" points="22,-332.5 22,-400.5 127,-400.5 127,-332.5 22,-332.5"/>
<text text-anchor="start" x="30" y="-388.5" font-family="Helvetica,sans-Serif" font-size="10.00">wb_vision_detection</text>
<text text-anchor="middle" x="74.5" y="-377.5" font-family="Helvetica,sans-Serif" font-size="10.00">_feature_array</text>
<polyline fill="none" stroke="black" points="22,-370.5 127,-370.5 "/>
<text text-anchor="start" x="30" y="-358.5" font-family="Helvetica,sans-Serif" font-size="10.00">+ numFeatures</text>
<polyline fill="none" stroke="black" points="22,-351.5 127,-351.5 "/>
<text text-anchor="middle" x="74.5" y="-339.5" font-family="Helvetica,sans-Serif" font-size="10.00"> </text>
</a>
</g>
</g>
<!-- Node3&#45;&gt;Node2 -->
<g id="edge2" class="edge">
<title>Node3&#45;&gt;Node2</title>
<path fill="none" stroke="#404040" d="M74.5,-332.22C74.5,-321.1 74.5,-308.51 74.5,-296.64"/>
<polygon fill="none" stroke="#404040" points="74.5,-296.62 70.5,-290.62 74.5,-284.62 78.5,-290.62 74.5,-296.62"/>
<text text-anchor="middle" x="96.5" y="-306" font-family="Helvetica,sans-Serif" font-size="10.00"> +features</text>
</g>
<!-- Node4 -->
<g id="node4" class="node">
<title>Node4</title>
<g id="a_node4"><a xlink:href="structwb__vision__detection__feature.html" target="_top" xlink:title="WHITEBOARD_POSTER_STRING_CONVERSION.">
<polygon fill="none" stroke="black" points="22,-448.5 22,-516.5 127,-516.5 127,-448.5 22,-448.5"/>
<text text-anchor="start" x="30" y="-504.5" font-family="Helvetica,sans-Serif" font-size="10.00">wb_vision_detection</text>
<text text-anchor="middle" x="74.5" y="-493.5" font-family="Helvetica,sans-Serif" font-size="10.00">_feature</text>
<polyline fill="none" stroke="black" points="22,-486.5 127,-486.5 "/>
<text text-anchor="start" x="30" y="-474.5" font-family="Helvetica,sans-Serif" font-size="10.00">+ featureType</text>
<polyline fill="none" stroke="black" points="22,-467.5 127,-467.5 "/>
<text text-anchor="middle" x="74.5" y="-455.5" font-family="Helvetica,sans-Serif" font-size="10.00"> </text>
</a>
</g>
</g>
<!-- Node4&#45;&gt;Node3 -->
<g id="edge3" class="edge">
<title>Node4&#45;&gt;Node3</title>
<path fill="none" stroke="#404040" d="M74.5,-448.22C74.5,-437.1 74.5,-424.51 74.5,-412.64"/>
<polygon fill="none" stroke="#404040" points="74.5,-412.62 70.5,-406.62 74.5,-400.62 78.5,-406.62 74.5,-412.62"/>
<text text-anchor="middle" x="96.5" y="-422" font-family="Helvetica,sans-Serif" font-size="10.00"> +features</text>
</g>
<!-- Node5 -->
<g id="node5" class="node">
<title>Node5</title>
<g id="a_node5"><a xlink:href="structwb__polar__coordinate.html" target="_top" xlink:title="WHITEBOARD_POSTER_STRING_CONVERSION.">
<polygon fill="none" stroke="black" points="21.5,-564.5 21.5,-632.5 127.5,-632.5 127.5,-564.5 21.5,-564.5"/>
<text text-anchor="middle" x="74.5" y="-620.5" font-family="Helvetica,sans-Serif" font-size="10.00">wb_polar_coordinate</text>
<polyline fill="none" stroke="black" points="21.5,-613.5 127.5,-613.5 "/>
<text text-anchor="start" x="29.5" y="-601.5" font-family="Helvetica,sans-Serif" font-size="10.00">+ direction</text>
<text text-anchor="start" x="29.5" y="-590.5" font-family="Helvetica,sans-Serif" font-size="10.00">+ distance</text>
<polyline fill="none" stroke="black" points="21.5,-583.5 127.5,-583.5 "/>
<text text-anchor="middle" x="74.5" y="-571.5" font-family="Helvetica,sans-Serif" font-size="10.00"> </text>
</a>
</g>
</g>
<!-- Node5&#45;&gt;Node4 -->
<g id="edge4" class="edge">
<title>Node5&#45;&gt;Node4</title>
<path fill="none" stroke="#404040" d="M74.5,-564.22C74.5,-553.1 74.5,-540.51 74.5,-528.64"/>
<polygon fill="none" stroke="#404040" points="74.5,-528.62 70.5,-522.62 74.5,-516.62 78.5,-522.62 74.5,-528.62"/>
<text text-anchor="middle" x="101.5" y="-538" font-family="Helvetica,sans-Serif" font-size="10.00"> +coordinate</text>
</g>
</g>
</svg>
