<?xml version="1.0" encoding="UTF-8" standalone="no"?>
<!DOCTYPE svg PUBLIC "-//W3C//DTD SVG 1.1//EN"
 "http://www.w3.org/Graphics/SVG/1.1/DTD/svg11.dtd">
<!-- Generated by graphviz version 2.49.0 (20210830.1337)
 -->
<!-- Title: guWhiteboard::ParticlePosition Pages: 1 -->
<svg width="157pt" height="398pt"
 viewBox="0.00 0.00 157.00 398.00" xmlns="http://www.w3.org/2000/svg" xmlns:xlink="http://www.w3.org/1999/xlink">
<g id="graph0" class="graph" transform="scale(1 1) rotate(0) translate(4 394)">
<title>guWhiteboard::ParticlePosition</title>
<!-- Node1 -->
<g id="node1" class="node">
<title>Node1</title>
<g id="a_node1"><a xlink:title="Provides a C++ wrapper around wb_particle_position.">
<polygon fill="#bfbfbf" stroke="black" points="0,-0.5 0,-167.5 149,-167.5 149,-0.5 0,-0.5"/>
<text text-anchor="middle" x="74.5" y="-155.5" font-family="Helvetica,sans-Serif" font-size="10.00">guWhiteboard::ParticlePosition</text>
<polyline fill="none" stroke="black" points="0,-148.5 149,-148.5 "/>
<text text-anchor="middle" x="74.5" y="-136.5" font-family="Helvetica,sans-Serif" font-size="10.00"> </text>
<polyline fill="none" stroke="black" points="0,-129.5 149,-129.5 "/>
<text text-anchor="start" x="8" y="-117.5" font-family="Helvetica,sans-Serif" font-size="10.00">+ ParticlePosition()</text>
<text text-anchor="start" x="8" y="-106.5" font-family="Helvetica,sans-Serif" font-size="10.00">+ ParticlePosition()</text>
<text text-anchor="start" x="8" y="-95.5" font-family="Helvetica,sans-Serif" font-size="10.00">+ ParticlePosition()</text>
<text text-anchor="start" x="8" y="-84.5" font-family="Helvetica,sans-Serif" font-size="10.00">+ operator=()</text>
<text text-anchor="start" x="8" y="-73.5" font-family="Helvetica,sans-Serif" font-size="10.00">+ operator=()</text>
<text text-anchor="start" x="8" y="-62.5" font-family="Helvetica,sans-Serif" font-size="10.00">+ operator==()</text>
<text text-anchor="start" x="8" y="-51.5" font-family="Helvetica,sans-Serif" font-size="10.00">+ operator!=()</text>
<text text-anchor="start" x="8" y="-40.5" font-family="Helvetica,sans-Serif" font-size="10.00">+ operator==()</text>
<text text-anchor="start" x="8" y="-29.5" font-family="Helvetica,sans-Serif" font-size="10.00">+ operator!=()</text>
<text text-anchor="start" x="8" y="-18.5" font-family="Helvetica,sans-Serif" font-size="10.00">+ position()</text>
<text text-anchor="start" x="8" y="-7.5" font-family="Helvetica,sans-Serif" font-size="10.00">and 12 more...</text>
</a>
</g>
</g>
<!-- Node2 -->
<g id="node2" class="node">
<title>Node2</title>
<g id="a_node2"><a xlink:href="structwb__particle__position.html" target="_top" xlink:title="WHITEBOARD_POSTER_STRING_CONVERSION.">
<polygon fill="none" stroke="black" points="22,-205.5 22,-273.5 127,-273.5 127,-205.5 22,-205.5"/>
<text text-anchor="middle" x="74.5" y="-261.5" font-family="Helvetica,sans-Serif" font-size="10.00">wb_particle_position</text>
<polyline fill="none" stroke="black" points="22,-254.5 127,-254.5 "/>
<text text-anchor="start" x="30" y="-242.5" font-family="Helvetica,sans-Serif" font-size="10.00">+ headingInDegrees</text>
<text text-anchor="start" x="30" y="-231.5" font-family="Helvetica,sans-Serif" font-size="10.00">+ confidence</text>
<polyline fill="none" stroke="black" points="22,-224.5 127,-224.5 "/>
<text text-anchor="middle" x="74.5" y="-212.5" font-family="Helvetica,sans-Serif" font-size="10.00"> </text>
</a>
</g>
</g>
<!-- Node2&#45;&gt;Node1 -->
<g id="edge1" class="edge">
<title>Node2&#45;&gt;Node1</title>
<path fill="none" stroke="midnightblue" d="M74.5,-195.06C74.5,-186.44 74.5,-177.12 74.5,-167.68"/>
<polygon fill="none" stroke="midnightblue" points="71,-195.19 74.5,-205.19 78,-195.19 71,-195.19"/>
</g>
<!-- Node3 -->
<g id="node3" class="node">
<title>Node3</title>
<g id="a_node3"><a xlink:href="structwb__point2d.html" target="_top" xlink:title="WHITEBOARD_POSTER_STRING_CONVERSION.">
<polygon fill="none" stroke="black" points="41.5,-321.5 41.5,-389.5 107.5,-389.5 107.5,-321.5 41.5,-321.5"/>
<text text-anchor="middle" x="74.5" y="-377.5" font-family="Helvetica,sans-Serif" font-size="10.00">wb_point2d</text>
<polyline fill="none" stroke="black" points="41.5,-370.5 107.5,-370.5 "/>
<text text-anchor="start" x="49.5" y="-358.5" font-family="Helvetica,sans-Serif" font-size="10.00">+ x</text>
<text text-anchor="start" x="49.5" y="-347.5" font-family="Helvetica,sans-Serif" font-size="10.00">+ y</text>
<polyline fill="none" stroke="black" points="41.5,-340.5 107.5,-340.5 "/>
<text text-anchor="middle" x="74.5" y="-328.5" font-family="Helvetica,sans-Serif" font-size="10.00"> </text>
</a>
</g>
</g>
<!-- Node3&#45;&gt;Node2 -->
<g id="edge2" class="edge">
<title>Node3&#45;&gt;Node2</title>
<path fill="none" stroke="#404040" d="M74.5,-321.22C74.5,-310.1 74.5,-297.51 74.5,-285.64"/>
<polygon fill="none" stroke="#404040" points="74.5,-285.62 70.5,-279.62 74.5,-273.62 78.5,-279.62 74.5,-285.62"/>
<text text-anchor="middle" x="96" y="-295" font-family="Helvetica,sans-Serif" font-size="10.00"> +position</text>
</g>
</g>
</svg>
