<?xml version="1.0" encoding="UTF-8" standalone="no"?>
<!DOCTYPE svg PUBLIC "-//W3C//DTD SVG 1.1//EN"
 "http://www.w3.org/Graphics/SVG/1.1/DTD/svg11.dtd">
<!-- Generated by graphviz version 2.49.0 (20210830.1337)
 -->
<!-- Title: guWhiteboard::HAL_HeadTarget Pages: 1 -->
<svg width="165pt" height="237pt"
 viewBox="0.00 0.00 165.00 237.00" xmlns="http://www.w3.org/2000/svg" xmlns:xlink="http://www.w3.org/1999/xlink">
<g id="graph0" class="graph" transform="scale(1 1) rotate(0) translate(4 233)">
<title>guWhiteboard::HAL_HeadTarget</title>
<!-- Node1 -->
<g id="node1" class="node">
<title>Node1</title>
<g id="a_node1"><a xlink:title="Class for moving a robotic head in abs coords.">
<polygon fill="#bfbfbf" stroke="black" points="0,-0.5 0,-123.5 157,-123.5 157,-0.5 0,-0.5"/>
<text text-anchor="middle" x="78.5" y="-111.5" font-family="Helvetica,sans-Serif" font-size="10.00">guWhiteboard::HAL_HeadTarget</text>
<polyline fill="none" stroke="black" points="0,-104.5 157,-104.5 "/>
<text text-anchor="middle" x="78.5" y="-92.5" font-family="Helvetica,sans-Serif" font-size="10.00"> </text>
<polyline fill="none" stroke="black" points="0,-85.5 157,-85.5 "/>
<text text-anchor="start" x="8" y="-73.5" font-family="Helvetica,sans-Serif" font-size="10.00">+ HAL_HeadTarget()</text>
<text text-anchor="start" x="8" y="-62.5" font-family="Helvetica,sans-Serif" font-size="10.00">+ Stop()</text>
<text text-anchor="start" x="8" y="-51.5" font-family="Helvetica,sans-Serif" font-size="10.00">+ GoToWithTime()</text>
<text text-anchor="start" x="8" y="-40.5" font-family="Helvetica,sans-Serif" font-size="10.00">+ GoToWithTime_rad()</text>
<text text-anchor="start" x="8" y="-29.5" font-family="Helvetica,sans-Serif" font-size="10.00">+ HAL_HeadTarget()</text>
<text text-anchor="start" x="8" y="-18.5" font-family="Helvetica,sans-Serif" font-size="10.00">+ from_string()</text>
<text text-anchor="start" x="8" y="-7.5" font-family="Helvetica,sans-Serif" font-size="10.00">+ description()</text>
</a>
</g>
</g>
<!-- Node2 -->
<g id="node2" class="node">
<title>Node2</title>
<g id="a_node2"><a xlink:href="structwb__hal__headtarget.html" target="_top" xlink:title="HAL_HeadTarget c struct.">
<polygon fill="none" stroke="black" points="22,-160.5 22,-228.5 135,-228.5 135,-160.5 22,-160.5"/>
<text text-anchor="middle" x="78.5" y="-216.5" font-family="Helvetica,sans-Serif" font-size="10.00">wb_hal_headtarget</text>
<polyline fill="none" stroke="black" points="22,-209.5 135,-209.5 "/>
<text text-anchor="middle" x="78.5" y="-197.5" font-family="Helvetica,sans-Serif" font-size="10.00"> </text>
<polyline fill="none" stroke="black" points="22,-190.5 135,-190.5 "/>
<text text-anchor="start" x="30" y="-178.5" font-family="Helvetica,sans-Serif" font-size="10.00">+ PROPERTY()</text>
<text text-anchor="start" x="30" y="-167.5" font-family="Helvetica,sans-Serif" font-size="10.00">+ wb_hal_headtarget()</text>
</a>
</g>
</g>
<!-- Node2&#45;&gt;Node1 -->
<g id="edge1" class="edge">
<title>Node2&#45;&gt;Node1</title>
<path fill="none" stroke="midnightblue" d="M78.5,-150.17C78.5,-141.65 78.5,-132.57 78.5,-123.61"/>
<polygon fill="none" stroke="midnightblue" points="75,-150.23 78.5,-160.23 82,-150.23 75,-150.23"/>
</g>
</g>
</svg>
