<?xml version="1.0" encoding="UTF-8" standalone="no"?>
<!DOCTYPE svg PUBLIC "-//W3C//DTD SVG 1.1//EN"
 "http://www.w3.org/Graphics/SVG/1.1/DTD/svg11.dtd">
<!-- Generated by graphviz version 2.49.0 (20210830.1337)
 -->
<!-- Title: guWhiteboard::VisionDetectionGoals Pages: 1 -->
<svg width="189pt" height="707pt"
 viewBox="0.00 0.00 188.50 707.00" xmlns="http://www.w3.org/2000/svg" xmlns:xlink="http://www.w3.org/1999/xlink">
<g id="graph0" class="graph" transform="scale(1 1) rotate(0) translate(4 703)">
<title>guWhiteboard::VisionDetectionGoals</title>
<!-- Node1 -->
<g id="node1" class="node">
<title>Node1</title>
<g id="a_node1"><a xlink:title="Provides a C++ wrapper around wb_vision_detection_goals.">
<polygon fill="#bfbfbf" stroke="black" points="0,-0.5 0,-178.5 149,-178.5 149,-0.5 0,-0.5"/>
<text text-anchor="start" x="8" y="-166.5" font-family="Helvetica,sans-Serif" font-size="10.00">guWhiteboard::VisionDetection</text>
<text text-anchor="middle" x="74.5" y="-155.5" font-family="Helvetica,sans-Serif" font-size="10.00">Goals</text>
<polyline fill="none" stroke="black" points="0,-148.5 149,-148.5 "/>
<text text-anchor="middle" x="74.5" y="-136.5" font-family="Helvetica,sans-Serif" font-size="10.00"> </text>
<polyline fill="none" stroke="black" points="0,-129.5 149,-129.5 "/>
<text text-anchor="start" x="8" y="-117.5" font-family="Helvetica,sans-Serif" font-size="10.00">+ VisionDetectionGoals()</text>
<text text-anchor="start" x="8" y="-106.5" font-family="Helvetica,sans-Serif" font-size="10.00">+ VisionDetectionGoals()</text>
<text text-anchor="start" x="8" y="-95.5" font-family="Helvetica,sans-Serif" font-size="10.00">+ VisionDetectionGoals()</text>
<text text-anchor="start" x="8" y="-84.5" font-family="Helvetica,sans-Serif" font-size="10.00">+ operator=()</text>
<text text-anchor="start" x="8" y="-73.5" font-family="Helvetica,sans-Serif" font-size="10.00">+ operator=()</text>
<text text-anchor="start" x="8" y="-62.5" font-family="Helvetica,sans-Serif" font-size="10.00">+ operator==()</text>
<text text-anchor="start" x="8" y="-51.5" font-family="Helvetica,sans-Serif" font-size="10.00">+ operator!=()</text>
<text text-anchor="start" x="8" y="-40.5" font-family="Helvetica,sans-Serif" font-size="10.00">+ operator==()</text>
<text text-anchor="start" x="8" y="-29.5" font-family="Helvetica,sans-Serif" font-size="10.00">+ operator!=()</text>
<text text-anchor="start" x="8" y="-18.5" font-family="Helvetica,sans-Serif" font-size="10.00">+ frameNumber()</text>
<text text-anchor="start" x="8" y="-7.5" font-family="Helvetica,sans-Serif" font-size="10.00">and 18 more...</text>
</a>
</g>
</g>
<!-- Node2 -->
<g id="node2" class="node">
<title>Node2</title>
<g id="a_node2"><a xlink:href="structwb__vision__detection__goals.html" target="_top" xlink:title="Array of fieldGoals, one instance reported by each camera.">
<polygon fill="none" stroke="black" points="22,-216.5 22,-306.5 127,-306.5 127,-216.5 22,-216.5"/>
<text text-anchor="start" x="30" y="-294.5" font-family="Helvetica,sans-Serif" font-size="10.00">wb_vision_detection</text>
<text text-anchor="middle" x="74.5" y="-283.5" font-family="Helvetica,sans-Serif" font-size="10.00">_goals</text>
<polyline fill="none" stroke="black" points="22,-276.5 127,-276.5 "/>
<text text-anchor="start" x="30" y="-264.5" font-family="Helvetica,sans-Serif" font-size="10.00">+ frameNumber</text>
<text text-anchor="start" x="30" y="-253.5" font-family="Helvetica,sans-Serif" font-size="10.00">+ res_width</text>
<text text-anchor="start" x="30" y="-242.5" font-family="Helvetica,sans-Serif" font-size="10.00">+ res_height</text>
<polyline fill="none" stroke="black" points="22,-235.5 127,-235.5 "/>
<text text-anchor="middle" x="74.5" y="-223.5" font-family="Helvetica,sans-Serif" font-size="10.00"> </text>
</a>
</g>
</g>
<!-- Node2&#45;&gt;Node1 -->
<g id="edge1" class="edge">
<title>Node2&#45;&gt;Node1</title>
<path fill="none" stroke="midnightblue" d="M74.5,-206.2C74.5,-197.38 74.5,-188.06 74.5,-178.69"/>
<polygon fill="none" stroke="midnightblue" points="71,-206.28 74.5,-216.28 78,-206.28 71,-206.28"/>
</g>
<!-- Node3 -->
<g id="node3" class="node">
<title>Node3</title>
<g id="a_node3"><a xlink:href="structwb__vision__detection__goal.html" target="_top" xlink:title="WHITEBOARD_POSTER_STRING_CONVERSION.">
<polygon fill="none" stroke="black" points="10.5,-354.5 10.5,-411.5 138.5,-411.5 138.5,-354.5 10.5,-354.5"/>
<text text-anchor="middle" x="74.5" y="-399.5" font-family="Helvetica,sans-Serif" font-size="10.00">wb_vision_detection_goal</text>
<polyline fill="none" stroke="black" points="10.5,-392.5 138.5,-392.5 "/>
<text text-anchor="start" x="18.5" y="-380.5" font-family="Helvetica,sans-Serif" font-size="10.00">+ sightingType</text>
<polyline fill="none" stroke="black" points="10.5,-373.5 138.5,-373.5 "/>
<text text-anchor="middle" x="74.5" y="-361.5" font-family="Helvetica,sans-Serif" font-size="10.00"> </text>
</a>
</g>
</g>
<!-- Node3&#45;&gt;Node2 -->
<g id="edge2" class="edge">
<title>Node3&#45;&gt;Node2</title>
<path fill="none" stroke="#404040" d="M74.5,-354.28C74.5,-343.73 74.5,-331.29 74.5,-319.03"/>
<polygon fill="none" stroke="#404040" points="74.5,-318.91 70.5,-312.91 74.5,-306.91 78.5,-312.91 74.5,-318.91"/>
<text text-anchor="middle" x="90.5" y="-328" font-family="Helvetica,sans-Serif" font-size="10.00"> +goals</text>
</g>
<!-- Node4 -->
<g id="node4" class="node">
<title>Node4</title>
<g id="a_node4"><a xlink:href="structwb__vision__detection__goal__post.html" target="_top" xlink:title="WHITEBOARD_POSTER_STRING_CONVERSION.">
<polygon fill="none" stroke="black" points="22,-470.5 22,-549.5 127,-549.5 127,-470.5 22,-470.5"/>
<text text-anchor="start" x="30" y="-537.5" font-family="Helvetica,sans-Serif" font-size="10.00">wb_vision_detection</text>
<text text-anchor="middle" x="74.5" y="-526.5" font-family="Helvetica,sans-Serif" font-size="10.00">_goal_post</text>
<polyline fill="none" stroke="black" points="22,-519.5 127,-519.5 "/>
<text text-anchor="start" x="30" y="-507.5" font-family="Helvetica,sans-Serif" font-size="10.00">+ sightingType</text>
<text text-anchor="start" x="30" y="-496.5" font-family="Helvetica,sans-Serif" font-size="10.00">+ orientation</text>
<polyline fill="none" stroke="black" points="22,-489.5 127,-489.5 "/>
<text text-anchor="middle" x="74.5" y="-477.5" font-family="Helvetica,sans-Serif" font-size="10.00"> </text>
</a>
</g>
</g>
<!-- Node4&#45;&gt;Node3 -->
<g id="edge3" class="edge">
<title>Node4&#45;&gt;Node3</title>
<path fill="none" stroke="#404040" d="M74.5,-470.48C74.5,-455.83 74.5,-439.11 74.5,-424.3"/>
<polygon fill="none" stroke="#404040" points="74.5,-423.88 70.5,-417.88 74.5,-411.88 78.5,-417.88 74.5,-423.88"/>
<text text-anchor="middle" x="91" y="-444" font-family="Helvetica,sans-Serif" font-size="10.00"> +post1</text>
<text text-anchor="middle" x="91" y="-433" font-family="Helvetica,sans-Serif" font-size="10.00">+post2</text>
</g>
<!-- Node5 -->
<g id="node5" class="node">
<title>Node5</title>
<g id="a_node5"><a xlink:href="structwb__pixel__coordinate.html" target="_top" xlink:title="WHITEBOARD_POSTER_STRING_CONVERSION.">
<polygon fill="none" stroke="black" points="22.5,-630.5 22.5,-698.5 126.5,-698.5 126.5,-630.5 22.5,-630.5"/>
<text text-anchor="middle" x="74.5" y="-686.5" font-family="Helvetica,sans-Serif" font-size="10.00">wb_pixel_coordinate</text>
<polyline fill="none" stroke="black" points="22.5,-679.5 126.5,-679.5 "/>
<text text-anchor="start" x="30.5" y="-667.5" font-family="Helvetica,sans-Serif" font-size="10.00">+ x</text>
<text text-anchor="start" x="30.5" y="-656.5" font-family="Helvetica,sans-Serif" font-size="10.00">+ y</text>
<polyline fill="none" stroke="black" points="22.5,-649.5 126.5,-649.5 "/>
<text text-anchor="middle" x="74.5" y="-637.5" font-family="Helvetica,sans-Serif" font-size="10.00"> </text>
</a>
</g>
</g>
<!-- Node5&#45;&gt;Node4 -->
<g id="edge4" class="edge">
<title>Node5&#45;&gt;Node4</title>
<path fill="none" stroke="#404040" d="M74.5,-630.41C74.5,-610.38 74.5,-584.42 74.5,-561.83"/>
<polygon fill="none" stroke="#404040" points="74.5,-561.68 70.5,-555.68 74.5,-549.68 78.5,-555.68 74.5,-561.68"/>
<text text-anchor="middle" x="127.5" y="-604" font-family="Helvetica,sans-Serif" font-size="10.00"> +bottomLeftCoordinate</text>
<text text-anchor="middle" x="127.5" y="-593" font-family="Helvetica,sans-Serif" font-size="10.00">+bottomRightCoordinate</text>
<text text-anchor="middle" x="127.5" y="-582" font-family="Helvetica,sans-Serif" font-size="10.00">+topLeftCoordinate</text>
<text text-anchor="middle" x="127.5" y="-571" font-family="Helvetica,sans-Serif" font-size="10.00">+topRightCoordinate</text>
</g>
</g>
</svg>
