<?xml version="1.0" encoding="UTF-8" standalone="no"?>
<!DOCTYPE svg PUBLIC "-//W3C//DTD SVG 1.1//EN"
 "http://www.w3.org/Graphics/SVG/1.1/DTD/svg11.dtd">
<!-- Generated by graphviz version 2.49.0 (20210830.1337)
 -->
<!-- Title: guWhiteboard::MachineFilteredLines Pages: 1 -->
<svg width="157pt" height="525pt"
 viewBox="0.00 0.00 157.00 525.00" xmlns="http://www.w3.org/2000/svg" xmlns:xlink="http://www.w3.org/1999/xlink">
<g id="graph0" class="graph" transform="scale(1 1) rotate(0) translate(4 521)">
<title>guWhiteboard::MachineFilteredLines</title>
<!-- Node1 -->
<g id="node1" class="node">
<title>Node1</title>
<g id="a_node1"><a xlink:title="Provides a C++ wrapper around wb_machine_filtered_lines.">
<polygon fill="#bfbfbf" stroke="black" points="0,-0.5 0,-178.5 149,-178.5 149,-0.5 0,-0.5"/>
<text text-anchor="start" x="8" y="-166.5" font-family="Helvetica,sans-Serif" font-size="10.00">guWhiteboard::MachineFiltered</text>
<text text-anchor="middle" x="74.5" y="-155.5" font-family="Helvetica,sans-Serif" font-size="10.00">Lines</text>
<polyline fill="none" stroke="black" points="0,-148.5 149,-148.5 "/>
<text text-anchor="middle" x="74.5" y="-136.5" font-family="Helvetica,sans-Serif" font-size="10.00"> </text>
<polyline fill="none" stroke="black" points="0,-129.5 149,-129.5 "/>
<text text-anchor="start" x="8" y="-117.5" font-family="Helvetica,sans-Serif" font-size="10.00">+ MachineFilteredLines()</text>
<text text-anchor="start" x="8" y="-106.5" font-family="Helvetica,sans-Serif" font-size="10.00">+ MachineFilteredLines()</text>
<text text-anchor="start" x="8" y="-95.5" font-family="Helvetica,sans-Serif" font-size="10.00">+ MachineFilteredLines()</text>
<text text-anchor="start" x="8" y="-84.5" font-family="Helvetica,sans-Serif" font-size="10.00">+ operator=()</text>
<text text-anchor="start" x="8" y="-73.5" font-family="Helvetica,sans-Serif" font-size="10.00">+ operator=()</text>
<text text-anchor="start" x="8" y="-62.5" font-family="Helvetica,sans-Serif" font-size="10.00">+ operator==()</text>
<text text-anchor="start" x="8" y="-51.5" font-family="Helvetica,sans-Serif" font-size="10.00">+ operator!=()</text>
<text text-anchor="start" x="8" y="-40.5" font-family="Helvetica,sans-Serif" font-size="10.00">+ operator==()</text>
<text text-anchor="start" x="8" y="-29.5" font-family="Helvetica,sans-Serif" font-size="10.00">+ operator!=()</text>
<text text-anchor="start" x="8" y="-18.5" font-family="Helvetica,sans-Serif" font-size="10.00">+ numberOfSightings()</text>
<text text-anchor="start" x="8" y="-7.5" font-family="Helvetica,sans-Serif" font-size="10.00">and 16 more...</text>
</a>
</g>
</g>
<!-- Node2 -->
<g id="node2" class="node">
<title>Node2</title>
<g id="a_node2"><a xlink:href="structwb__machine__filtered__lines.html" target="_top" xlink:title="Results of the KalmanFilter machines for lines.">
<polygon fill="none" stroke="black" points="20.5,-216.5 20.5,-284.5 128.5,-284.5 128.5,-216.5 20.5,-216.5"/>
<text text-anchor="start" x="28.5" y="-272.5" font-family="Helvetica,sans-Serif" font-size="10.00">wb_machine_filtered</text>
<text text-anchor="middle" x="74.5" y="-261.5" font-family="Helvetica,sans-Serif" font-size="10.00">_lines</text>
<polyline fill="none" stroke="black" points="20.5,-254.5 128.5,-254.5 "/>
<text text-anchor="start" x="28.5" y="-242.5" font-family="Helvetica,sans-Serif" font-size="10.00">+ numberOfSightings</text>
<polyline fill="none" stroke="black" points="20.5,-235.5 128.5,-235.5 "/>
<text text-anchor="middle" x="74.5" y="-223.5" font-family="Helvetica,sans-Serif" font-size="10.00"> </text>
</a>
</g>
</g>
<!-- Node2&#45;&gt;Node1 -->
<g id="edge1" class="edge">
<title>Node2&#45;&gt;Node1</title>
<path fill="none" stroke="midnightblue" d="M74.5,-206.11C74.5,-197.54 74.5,-188.27 74.5,-178.83"/>
<polygon fill="none" stroke="midnightblue" points="71,-206.17 74.5,-216.17 78,-206.17 71,-206.17"/>
</g>
<!-- Node3 -->
<g id="node3" class="node">
<title>Node3</title>
<g id="a_node3"><a xlink:href="structwb__line__sighting.html" target="_top" xlink:title="WHITEBOARD_POSTER_STRING_CONVERSION.">
<polygon fill="none" stroke="black" points="30,-332.5 30,-389.5 119,-389.5 119,-332.5 30,-332.5"/>
<text text-anchor="middle" x="74.5" y="-377.5" font-family="Helvetica,sans-Serif" font-size="10.00">wb_line_sighting</text>
<polyline fill="none" stroke="black" points="30,-370.5 119,-370.5 "/>
<text text-anchor="start" x="38" y="-358.5" font-family="Helvetica,sans-Serif" font-size="10.00">+ sightingType</text>
<polyline fill="none" stroke="black" points="30,-351.5 119,-351.5 "/>
<text text-anchor="middle" x="74.5" y="-339.5" font-family="Helvetica,sans-Serif" font-size="10.00"> </text>
</a>
</g>
</g>
<!-- Node3&#45;&gt;Node2 -->
<g id="edge2" class="edge">
<title>Node3&#45;&gt;Node2</title>
<path fill="none" stroke="#404040" d="M74.5,-332.34C74.5,-321.53 74.5,-308.85 74.5,-296.77"/>
<polygon fill="none" stroke="#404040" points="74.5,-296.52 70.5,-290.52 74.5,-284.52 78.5,-290.52 74.5,-296.52"/>
<text text-anchor="middle" x="98.5" y="-306" font-family="Helvetica,sans-Serif" font-size="10.00"> +sightings</text>
</g>
<!-- Node4 -->
<g id="node4" class="node">
<title>Node4</title>
<g id="a_node4"><a xlink:href="structwb__polar__coordinate.html" target="_top" xlink:title="WHITEBOARD_POSTER_STRING_CONVERSION.">
<polygon fill="none" stroke="black" points="21.5,-448.5 21.5,-516.5 127.5,-516.5 127.5,-448.5 21.5,-448.5"/>
<text text-anchor="middle" x="74.5" y="-504.5" font-family="Helvetica,sans-Serif" font-size="10.00">wb_polar_coordinate</text>
<polyline fill="none" stroke="black" points="21.5,-497.5 127.5,-497.5 "/>
<text text-anchor="start" x="29.5" y="-485.5" font-family="Helvetica,sans-Serif" font-size="10.00">+ direction</text>
<text text-anchor="start" x="29.5" y="-474.5" font-family="Helvetica,sans-Serif" font-size="10.00">+ distance</text>
<polyline fill="none" stroke="black" points="21.5,-467.5 127.5,-467.5 "/>
<text text-anchor="middle" x="74.5" y="-455.5" font-family="Helvetica,sans-Serif" font-size="10.00"> </text>
</a>
</g>
</g>
<!-- Node4&#45;&gt;Node3 -->
<g id="edge3" class="edge">
<title>Node4&#45;&gt;Node3</title>
<path fill="none" stroke="#404040" d="M74.5,-448.21C74.5,-433.86 74.5,-416.96 74.5,-401.94"/>
<polygon fill="none" stroke="#404040" points="74.5,-401.86 70.5,-395.86 74.5,-389.86 78.5,-395.86 74.5,-401.86"/>
<text text-anchor="middle" x="98.5" y="-422" font-family="Helvetica,sans-Serif" font-size="10.00"> +leftPoint</text>
<text text-anchor="middle" x="98.5" y="-411" font-family="Helvetica,sans-Serif" font-size="10.00">+rightPoint</text>
</g>
</g>
</svg>
