<?xml version="1.0" encoding="UTF-8" standalone="no"?>
<!DOCTYPE svg PUBLIC "-//W3C//DTD SVG 1.1//EN"
 "http://www.w3.org/Graphics/SVG/1.1/DTD/svg11.dtd">
<!-- Generated by graphviz version 2.49.0 (20210830.1337)
 -->
<!-- Title: RedEWon_WBFunctor&lt; RedEWon_WBFunctor_T &gt; Pages: 1 -->
<svg width="143pt" height="529pt"
 viewBox="0.00 0.00 143.00 529.00" xmlns="http://www.w3.org/2000/svg" xmlns:xlink="http://www.w3.org/1999/xlink">
<g id="graph0" class="graph" transform="scale(1 1) rotate(0) translate(4 525)">
<title>RedEWon_WBFunctor&lt; RedEWon_WBFunctor_T &gt;</title>
<!-- Node1 -->
<g id="node1" class="node">
<title>Node1</title>
<g id="a_node1"><a xlink:title="WBFunctor definition for RedEWon_WBFunctor_T.">
<polygon fill="#bfbfbf" stroke="black" points="0,-0.5 0,-90.5 135,-90.5 135,-0.5 0,-0.5"/>
<text text-anchor="start" x="8" y="-78.5" font-family="Helvetica,sans-Serif" font-size="10.00">RedEWon_WBFunctor&lt;</text>
<text text-anchor="middle" x="67.5" y="-67.5" font-family="Helvetica,sans-Serif" font-size="10.00"> RedEWon_WBFunctor_T &gt;</text>
<polyline fill="none" stroke="black" points="0,-60.5 135,-60.5 "/>
<text text-anchor="middle" x="67.5" y="-48.5" font-family="Helvetica,sans-Serif" font-size="10.00"> </text>
<polyline fill="none" stroke="black" points="0,-41.5 135,-41.5 "/>
<text text-anchor="start" x="8" y="-29.5" font-family="Helvetica,sans-Serif" font-size="10.00">+ RedEWon_WBFunctor()</text>
<text text-anchor="start" x="8" y="-18.5" font-family="Helvetica,sans-Serif" font-size="10.00">+ call()</text>
<text text-anchor="start" x="8" y="-7.5" font-family="Helvetica,sans-Serif" font-size="10.00">+ bind()</text>
</a>
</g>
</g>
<!-- Node2 -->
<g id="node2" class="node">
<title>Node2</title>
<g id="a_node2"><a xlink:href="class_w_b_functor.html" target="_top" xlink:title=" ">
<polygon fill="none" stroke="black" points="4,-127.5 4,-349.5 131,-349.5 131,-127.5 4,-127.5"/>
<text text-anchor="start" x="12" y="-337.5" font-family="Helvetica,sans-Serif" font-size="10.00">WBFunctor&lt; RedEWon</text>
<text text-anchor="middle" x="67.5" y="-326.5" font-family="Helvetica,sans-Serif" font-size="10.00">_WBFunctor_T &gt;</text>
<polyline fill="none" stroke="black" points="4,-319.5 131,-319.5 "/>
<text text-anchor="start" x="12" y="-307.5" font-family="Helvetica,sans-Serif" font-size="10.00"># fObject</text>
<text text-anchor="start" x="12" y="-296.5" font-family="Helvetica,sans-Serif" font-size="10.00"># fFunction</text>
<text text-anchor="start" x="12" y="-285.5" font-family="Helvetica,sans-Serif" font-size="10.00"># s_fFunction</text>
<text text-anchor="start" x="12" y="-274.5" font-family="Helvetica,sans-Serif" font-size="10.00"># type_enum</text>
<text text-anchor="start" x="12" y="-263.5" font-family="Helvetica,sans-Serif" font-size="10.00"># event_count</text>
<text text-anchor="start" x="12" y="-252.5" font-family="Helvetica,sans-Serif" font-size="10.00"># simple_wb_version</text>
<polyline fill="none" stroke="black" points="4,-245.5 131,-245.5 "/>
<text text-anchor="start" x="12" y="-233.5" font-family="Helvetica,sans-Serif" font-size="10.00">+ WBFunctor()</text>
<text text-anchor="start" x="12" y="-222.5" font-family="Helvetica,sans-Serif" font-size="10.00">+ WBFunctor()</text>
<text text-anchor="start" x="12" y="-211.5" font-family="Helvetica,sans-Serif" font-size="10.00">+ call()</text>
<text text-anchor="start" x="12" y="-200.5" font-family="Helvetica,sans-Serif" font-size="10.00">+ call()</text>
<text text-anchor="start" x="12" y="-189.5" font-family="Helvetica,sans-Serif" font-size="10.00">+ call()</text>
<text text-anchor="start" x="12" y="-178.5" font-family="Helvetica,sans-Serif" font-size="10.00">+ type()</text>
<text text-anchor="start" x="12" y="-167.5" font-family="Helvetica,sans-Serif" font-size="10.00">+ get_event_count()</text>
<text text-anchor="start" x="12" y="-156.5" font-family="Helvetica,sans-Serif" font-size="10.00">+ set_event_count()</text>
<text text-anchor="start" x="12" y="-145.5" font-family="Helvetica,sans-Serif" font-size="10.00">+ is_simple_wb_version()</text>
<text text-anchor="start" x="12" y="-134.5" font-family="Helvetica,sans-Serif" font-size="10.00">+ get_s_func_ptr()</text>
</a>
</g>
</g>
<!-- Node2&#45;&gt;Node1 -->
<g id="edge1" class="edge">
<title>Node2&#45;&gt;Node1</title>
<path fill="none" stroke="midnightblue" d="M67.5,-117.04C67.5,-107.76 67.5,-98.81 67.5,-90.59"/>
<polygon fill="none" stroke="midnightblue" points="64,-117.22 67.5,-127.22 71,-117.22 64,-117.22"/>
</g>
<!-- Node3 -->
<g id="node3" class="node">
<title>Node3</title>
<g id="a_node3"><a xlink:href="class_w_b_functor_base.html" target="_top" xlink:title="Base class for WBFunctor.">
<polygon fill="none" stroke="black" points="4,-386.5 4,-520.5 131,-520.5 131,-386.5 4,-386.5"/>
<text text-anchor="middle" x="67.5" y="-508.5" font-family="Helvetica,sans-Serif" font-size="10.00">WBFunctorBase</text>
<polyline fill="none" stroke="black" points="4,-501.5 131,-501.5 "/>
<text text-anchor="middle" x="67.5" y="-489.5" font-family="Helvetica,sans-Serif" font-size="10.00"> </text>
<polyline fill="none" stroke="black" points="4,-482.5 131,-482.5 "/>
<text text-anchor="start" x="12" y="-470.5" font-family="Helvetica,sans-Serif" font-size="10.00">+ call()</text>
<text text-anchor="start" x="12" y="-459.5" font-family="Helvetica,sans-Serif" font-size="10.00">+ call()</text>
<text text-anchor="start" x="12" y="-448.5" font-family="Helvetica,sans-Serif" font-size="10.00">+ call()</text>
<text text-anchor="start" x="12" y="-437.5" font-family="Helvetica,sans-Serif" font-size="10.00">+ type()</text>
<text text-anchor="start" x="12" y="-426.5" font-family="Helvetica,sans-Serif" font-size="10.00">+ get_event_count()</text>
<text text-anchor="start" x="12" y="-415.5" font-family="Helvetica,sans-Serif" font-size="10.00">+ set_event_count()</text>
<text text-anchor="start" x="12" y="-404.5" font-family="Helvetica,sans-Serif" font-size="10.00">+ is_simple_wb_version()</text>
<text text-anchor="start" x="12" y="-393.5" font-family="Helvetica,sans-Serif" font-size="10.00">+ ~WBFunctorBase()</text>
</a>
</g>
</g>
<!-- Node3&#45;&gt;Node2 -->
<g id="edge2" class="edge">
<title>Node3&#45;&gt;Node2</title>
<path fill="none" stroke="midnightblue" d="M67.5,-376.22C67.5,-367.52 67.5,-358.53 67.5,-349.51"/>
<polygon fill="none" stroke="midnightblue" points="64,-376.27 67.5,-386.27 71,-376.27 64,-376.27"/>
</g>
</g>
</svg>
