<?xml version="1.0" encoding="UTF-8" standalone="no"?>
<!DOCTYPE svg PUBLIC "-//W3C//DTD SVG 1.1//EN"
 "http://www.w3.org/Graphics/SVG/1.1/DTD/svg11.dtd">
<!-- Generated by graphviz version 2.49.0 (20210830.1337)
 -->
<!-- Title: guWhiteboard::Oculus_PrimeSerialInterface Pages: 1 -->
<svg width="203pt" height="226pt"
 viewBox="0.00 0.00 203.00 226.00" xmlns="http://www.w3.org/2000/svg" xmlns:xlink="http://www.w3.org/1999/xlink">
<g id="graph0" class="graph" transform="scale(1 1) rotate(0) translate(4 222)">
<title>guWhiteboard::Oculus_PrimeSerialInterface</title>
<!-- Node1 -->
<g id="node1" class="node">
<title>Node1</title>
<g id="a_node1"><a xlink:title="Serial interface for the main oculus prime board.">
<polygon fill="#bfbfbf" stroke="black" points="20,-0.5 20,-101.5 175,-101.5 175,-0.5 20,-0.5"/>
<text text-anchor="start" x="28" y="-89.5" font-family="Helvetica,sans-Serif" font-size="10.00">guWhiteboard::Oculus</text>
<text text-anchor="middle" x="97.5" y="-78.5" font-family="Helvetica,sans-Serif" font-size="10.00">_PrimeSerialInterface</text>
<polyline fill="none" stroke="black" points="20,-71.5 175,-71.5 "/>
<text text-anchor="middle" x="97.5" y="-59.5" font-family="Helvetica,sans-Serif" font-size="10.00"> </text>
<polyline fill="none" stroke="black" points="20,-52.5 175,-52.5 "/>
<text text-anchor="start" x="28" y="-40.5" font-family="Helvetica,sans-Serif" font-size="10.00">+ Oculus_PrimeSerialInterface()</text>
<text text-anchor="start" x="28" y="-29.5" font-family="Helvetica,sans-Serif" font-size="10.00">+ Oculus_PrimeSerialInterface()</text>
<text text-anchor="start" x="28" y="-18.5" font-family="Helvetica,sans-Serif" font-size="10.00">+ from_string()</text>
<text text-anchor="start" x="28" y="-7.5" font-family="Helvetica,sans-Serif" font-size="10.00">+ description()</text>
</a>
</g>
</g>
<!-- Node2 -->
<g id="node2" class="node">
<title>Node2</title>
<g id="a_node2"><a xlink:href="structwb__oculus__prime__serial.html" target="_top" xlink:title="/file wb_oculus_prime_serial.h">
<polygon fill="none" stroke="black" points="0,-138.5 0,-217.5 195,-217.5 195,-138.5 0,-138.5"/>
<text text-anchor="middle" x="97.5" y="-205.5" font-family="Helvetica,sans-Serif" font-size="10.00">wb_oculus_prime_serial</text>
<polyline fill="none" stroke="black" points="0,-198.5 195,-198.5 "/>
<text text-anchor="start" x="8" y="-186.5" font-family="Helvetica,sans-Serif" font-size="10.00">+ left</text>
<polyline fill="none" stroke="black" points="0,-179.5 195,-179.5 "/>
<text text-anchor="start" x="8" y="-167.5" font-family="Helvetica,sans-Serif" font-size="10.00">+ CONTROLLED_ARRAY_PROPERTY()</text>
<text text-anchor="start" x="8" y="-156.5" font-family="Helvetica,sans-Serif" font-size="10.00">+ CONTROLLED_ARRAY_PROPERTY()</text>
<text text-anchor="start" x="8" y="-145.5" font-family="Helvetica,sans-Serif" font-size="10.00">+ CONTROL_BIT()</text>
</a>
</g>
</g>
<!-- Node2&#45;&gt;Node1 -->
<g id="edge1" class="edge">
<title>Node2&#45;&gt;Node1</title>
<path fill="none" stroke="midnightblue" d="M97.5,-128.41C97.5,-119.64 97.5,-110.49 97.5,-101.69"/>
<polygon fill="none" stroke="midnightblue" points="94,-128.48 97.5,-138.48 101,-128.48 94,-128.48"/>
</g>
</g>
</svg>
