<?xml version="1.0" encoding="UTF-8" standalone="no"?>
<!DOCTYPE svg PUBLIC "-//W3C//DTD SVG 1.1//EN"
 "http://www.w3.org/Graphics/SVG/1.1/DTD/svg11.dtd">
<!-- Generated by graphviz version 2.49.0 (20210830.1337)
 -->
<!-- Title: guWhiteboard::VisionDetectionGoal Pages: 1 -->
<svg width="199pt" height="558pt"
 viewBox="0.00 0.00 198.50 558.00" xmlns="http://www.w3.org/2000/svg" xmlns:xlink="http://www.w3.org/1999/xlink">
<g id="graph0" class="graph" transform="scale(1 1) rotate(0) translate(4 554)">
<title>guWhiteboard::VisionDetectionGoal</title>
<!-- Node1 -->
<g id="node1" class="node">
<title>Node1</title>
<g id="a_node1"><a xlink:title="Provides a C++ wrapper around wb_vision_detection_goal.">
<polygon fill="#bfbfbf" stroke="black" points="0,-0.5 0,-167.5 169,-167.5 169,-0.5 0,-0.5"/>
<text text-anchor="middle" x="84.5" y="-155.5" font-family="Helvetica,sans-Serif" font-size="10.00">guWhiteboard::VisionDetectionGoal</text>
<polyline fill="none" stroke="black" points="0,-148.5 169,-148.5 "/>
<text text-anchor="middle" x="84.5" y="-136.5" font-family="Helvetica,sans-Serif" font-size="10.00"> </text>
<polyline fill="none" stroke="black" points="0,-129.5 169,-129.5 "/>
<text text-anchor="start" x="8" y="-117.5" font-family="Helvetica,sans-Serif" font-size="10.00">+ VisionDetectionGoal()</text>
<text text-anchor="start" x="8" y="-106.5" font-family="Helvetica,sans-Serif" font-size="10.00">+ VisionDetectionGoal()</text>
<text text-anchor="start" x="8" y="-95.5" font-family="Helvetica,sans-Serif" font-size="10.00">+ VisionDetectionGoal()</text>
<text text-anchor="start" x="8" y="-84.5" font-family="Helvetica,sans-Serif" font-size="10.00">+ operator=()</text>
<text text-anchor="start" x="8" y="-73.5" font-family="Helvetica,sans-Serif" font-size="10.00">+ operator=()</text>
<text text-anchor="start" x="8" y="-62.5" font-family="Helvetica,sans-Serif" font-size="10.00">+ operator==()</text>
<text text-anchor="start" x="8" y="-51.5" font-family="Helvetica,sans-Serif" font-size="10.00">+ operator!=()</text>
<text text-anchor="start" x="8" y="-40.5" font-family="Helvetica,sans-Serif" font-size="10.00">+ operator==()</text>
<text text-anchor="start" x="8" y="-29.5" font-family="Helvetica,sans-Serif" font-size="10.00">+ operator!=()</text>
<text text-anchor="start" x="8" y="-18.5" font-family="Helvetica,sans-Serif" font-size="10.00">+ sightingType()</text>
<text text-anchor="start" x="8" y="-7.5" font-family="Helvetica,sans-Serif" font-size="10.00">and 12 more...</text>
</a>
</g>
</g>
<!-- Node2 -->
<g id="node2" class="node">
<title>Node2</title>
<g id="a_node2"><a xlink:href="structwb__vision__detection__goal.html" target="_top" xlink:title="WHITEBOARD_POSTER_STRING_CONVERSION.">
<polygon fill="none" stroke="black" points="20.5,-205.5 20.5,-262.5 148.5,-262.5 148.5,-205.5 20.5,-205.5"/>
<text text-anchor="middle" x="84.5" y="-250.5" font-family="Helvetica,sans-Serif" font-size="10.00">wb_vision_detection_goal</text>
<polyline fill="none" stroke="black" points="20.5,-243.5 148.5,-243.5 "/>
<text text-anchor="start" x="28.5" y="-231.5" font-family="Helvetica,sans-Serif" font-size="10.00">+ sightingType</text>
<polyline fill="none" stroke="black" points="20.5,-224.5 148.5,-224.5 "/>
<text text-anchor="middle" x="84.5" y="-212.5" font-family="Helvetica,sans-Serif" font-size="10.00"> </text>
</a>
</g>
</g>
<!-- Node2&#45;&gt;Node1 -->
<g id="edge1" class="edge">
<title>Node2&#45;&gt;Node1</title>
<path fill="none" stroke="midnightblue" d="M84.5,-194.93C84.5,-186.46 84.5,-177.17 84.5,-167.68"/>
<polygon fill="none" stroke="midnightblue" points="81,-195.16 84.5,-205.16 88,-195.16 81,-195.16"/>
</g>
<!-- Node3 -->
<g id="node3" class="node">
<title>Node3</title>
<g id="a_node3"><a xlink:href="structwb__vision__detection__goal__post.html" target="_top" xlink:title="WHITEBOARD_POSTER_STRING_CONVERSION.">
<polygon fill="none" stroke="black" points="32,-321.5 32,-400.5 137,-400.5 137,-321.5 32,-321.5"/>
<text text-anchor="start" x="40" y="-388.5" font-family="Helvetica,sans-Serif" font-size="10.00">wb_vision_detection</text>
<text text-anchor="middle" x="84.5" y="-377.5" font-family="Helvetica,sans-Serif" font-size="10.00">_goal_post</text>
<polyline fill="none" stroke="black" points="32,-370.5 137,-370.5 "/>
<text text-anchor="start" x="40" y="-358.5" font-family="Helvetica,sans-Serif" font-size="10.00">+ sightingType</text>
<text text-anchor="start" x="40" y="-347.5" font-family="Helvetica,sans-Serif" font-size="10.00">+ orientation</text>
<polyline fill="none" stroke="black" points="32,-340.5 137,-340.5 "/>
<text text-anchor="middle" x="84.5" y="-328.5" font-family="Helvetica,sans-Serif" font-size="10.00"> </text>
</a>
</g>
</g>
<!-- Node3&#45;&gt;Node2 -->
<g id="edge2" class="edge">
<title>Node3&#45;&gt;Node2</title>
<path fill="none" stroke="#404040" d="M84.5,-321.48C84.5,-306.83 84.5,-290.11 84.5,-275.3"/>
<polygon fill="none" stroke="#404040" points="84.5,-274.88 80.5,-268.88 84.5,-262.88 88.5,-268.88 84.5,-274.88"/>
<text text-anchor="middle" x="101" y="-295" font-family="Helvetica,sans-Serif" font-size="10.00"> +post1</text>
<text text-anchor="middle" x="101" y="-284" font-family="Helvetica,sans-Serif" font-size="10.00">+post2</text>
</g>
<!-- Node4 -->
<g id="node4" class="node">
<title>Node4</title>
<g id="a_node4"><a xlink:href="structwb__pixel__coordinate.html" target="_top" xlink:title="WHITEBOARD_POSTER_STRING_CONVERSION.">
<polygon fill="none" stroke="black" points="32.5,-481.5 32.5,-549.5 136.5,-549.5 136.5,-481.5 32.5,-481.5"/>
<text text-anchor="middle" x="84.5" y="-537.5" font-family="Helvetica,sans-Serif" font-size="10.00">wb_pixel_coordinate</text>
<polyline fill="none" stroke="black" points="32.5,-530.5 136.5,-530.5 "/>
<text text-anchor="start" x="40.5" y="-518.5" font-family="Helvetica,sans-Serif" font-size="10.00">+ x</text>
<text text-anchor="start" x="40.5" y="-507.5" font-family="Helvetica,sans-Serif" font-size="10.00">+ y</text>
<polyline fill="none" stroke="black" points="32.5,-500.5 136.5,-500.5 "/>
<text text-anchor="middle" x="84.5" y="-488.5" font-family="Helvetica,sans-Serif" font-size="10.00"> </text>
</a>
</g>
</g>
<!-- Node4&#45;&gt;Node3 -->
<g id="edge3" class="edge">
<title>Node4&#45;&gt;Node3</title>
<path fill="none" stroke="#404040" d="M84.5,-481.41C84.5,-461.38 84.5,-435.42 84.5,-412.83"/>
<polygon fill="none" stroke="#404040" points="84.5,-412.68 80.5,-406.68 84.5,-400.68 88.5,-406.68 84.5,-412.68"/>
<text text-anchor="middle" x="137.5" y="-455" font-family="Helvetica,sans-Serif" font-size="10.00"> +bottomLeftCoordinate</text>
<text text-anchor="middle" x="137.5" y="-444" font-family="Helvetica,sans-Serif" font-size="10.00">+bottomRightCoordinate</text>
<text text-anchor="middle" x="137.5" y="-433" font-family="Helvetica,sans-Serif" font-size="10.00">+topLeftCoordinate</text>
<text text-anchor="middle" x="137.5" y="-422" font-family="Helvetica,sans-Serif" font-size="10.00">+topRightCoordinate</text>
</g>
</g>
</svg>
