<?xml version="1.0" encoding="UTF-8" standalone="no"?>
<!DOCTYPE svg PUBLIC "-//W3C//DTD SVG 1.1//EN"
 "http://www.w3.org/Graphics/SVG/1.1/DTD/svg11.dtd">
<!-- Generated by graphviz version 2.49.0 (20210830.1337)
 -->
<!-- Title: guWhiteboard::FilteredArrayOneDimBall Pages: 1 -->
<svg width="151pt" height="702pt"
 viewBox="0.00 0.00 151.00 702.00" xmlns="http://www.w3.org/2000/svg" xmlns:xlink="http://www.w3.org/1999/xlink">
<g id="graph0" class="graph" transform="scale(1 1) rotate(0) translate(4 698)">
<title>guWhiteboard::FilteredArrayOneDimBall</title>
<!-- Node1 -->
<g id="node1" class="node">
<title>Node1</title>
<g id="a_node1"><a xlink:title="Class for for the array of ball sighthings TOP or Bottom.">
<polygon fill="#bfbfbf" stroke="black" points="3,-0.5 3,-178.5 140,-178.5 140,-0.5 3,-0.5"/>
<text text-anchor="start" x="11" y="-166.5" font-family="Helvetica,sans-Serif" font-size="10.00">guWhiteboard::FilteredArray</text>
<text text-anchor="middle" x="71.5" y="-155.5" font-family="Helvetica,sans-Serif" font-size="10.00">OneDimBall</text>
<polyline fill="none" stroke="black" points="3,-148.5 140,-148.5 "/>
<text text-anchor="middle" x="71.5" y="-136.5" font-family="Helvetica,sans-Serif" font-size="10.00"> </text>
<polyline fill="none" stroke="black" points="3,-129.5 140,-129.5 "/>
<text text-anchor="start" x="11" y="-117.5" font-family="Helvetica,sans-Serif" font-size="10.00">+ FilteredArrayOneDimBall()</text>
<text text-anchor="start" x="11" y="-106.5" font-family="Helvetica,sans-Serif" font-size="10.00">+ FilteredArrayOneDimBall()</text>
<text text-anchor="start" x="11" y="-95.5" font-family="Helvetica,sans-Serif" font-size="10.00">+ FilteredArrayOneDimBall()</text>
<text text-anchor="start" x="11" y="-84.5" font-family="Helvetica,sans-Serif" font-size="10.00">+ operator=()</text>
<text text-anchor="start" x="11" y="-73.5" font-family="Helvetica,sans-Serif" font-size="10.00">+ set_objects()</text>
<text text-anchor="start" x="11" y="-62.5" font-family="Helvetica,sans-Serif" font-size="10.00">+ set_object()</text>
<text text-anchor="start" x="11" y="-51.5" font-family="Helvetica,sans-Serif" font-size="10.00">+ get_object()</text>
<text text-anchor="start" x="11" y="-40.5" font-family="Helvetica,sans-Serif" font-size="10.00">+ FilteredArrayOneDimBall()</text>
<text text-anchor="start" x="11" y="-29.5" font-family="Helvetica,sans-Serif" font-size="10.00">+ FilteredArrayOneDimBall()</text>
<text text-anchor="start" x="11" y="-18.5" font-family="Helvetica,sans-Serif" font-size="10.00">+ description()</text>
<text text-anchor="start" x="11" y="-7.5" font-family="Helvetica,sans-Serif" font-size="10.00">+ from_string()</text>
</a>
</g>
</g>
<!-- Node2 -->
<g id="node2" class="node">
<title>Node2</title>
<g id="a_node2"><a xlink:href="classgu_whiteboard_1_1_filtered_array_ball_sightings.html" target="_top" xlink:title="Provides a C++ wrapper around wb_filtered_arrayballsightings.">
<polygon fill="none" stroke="black" points="0,-216.5 0,-394.5 143,-394.5 143,-216.5 0,-216.5"/>
<text text-anchor="start" x="8" y="-382.5" font-family="Helvetica,sans-Serif" font-size="10.00">guWhiteboard::FilteredArray</text>
<text text-anchor="middle" x="71.5" y="-371.5" font-family="Helvetica,sans-Serif" font-size="10.00">BallSightings</text>
<polyline fill="none" stroke="black" points="0,-364.5 143,-364.5 "/>
<text text-anchor="middle" x="71.5" y="-352.5" font-family="Helvetica,sans-Serif" font-size="10.00"> </text>
<polyline fill="none" stroke="black" points="0,-345.5 143,-345.5 "/>
<text text-anchor="start" x="8" y="-333.5" font-family="Helvetica,sans-Serif" font-size="10.00">+ FilteredArrayBallSightings()</text>
<text text-anchor="start" x="8" y="-322.5" font-family="Helvetica,sans-Serif" font-size="10.00">+ FilteredArrayBallSightings()</text>
<text text-anchor="start" x="8" y="-311.5" font-family="Helvetica,sans-Serif" font-size="10.00">+ FilteredArrayBallSightings()</text>
<text text-anchor="start" x="8" y="-300.5" font-family="Helvetica,sans-Serif" font-size="10.00">+ operator=()</text>
<text text-anchor="start" x="8" y="-289.5" font-family="Helvetica,sans-Serif" font-size="10.00">+ operator=()</text>
<text text-anchor="start" x="8" y="-278.5" font-family="Helvetica,sans-Serif" font-size="10.00">+ operator==()</text>
<text text-anchor="start" x="8" y="-267.5" font-family="Helvetica,sans-Serif" font-size="10.00">+ operator!=()</text>
<text text-anchor="start" x="8" y="-256.5" font-family="Helvetica,sans-Serif" font-size="10.00">+ operator==()</text>
<text text-anchor="start" x="8" y="-245.5" font-family="Helvetica,sans-Serif" font-size="10.00">+ operator!=()</text>
<text text-anchor="start" x="8" y="-234.5" font-family="Helvetica,sans-Serif" font-size="10.00">+ objects()</text>
<text text-anchor="start" x="8" y="-223.5" font-family="Helvetica,sans-Serif" font-size="10.00">and 9 more...</text>
</a>
</g>
</g>
<!-- Node2&#45;&gt;Node1 -->
<g id="edge1" class="edge">
<title>Node2&#45;&gt;Node1</title>
<path fill="none" stroke="midnightblue" d="M71.5,-205.96C71.5,-196.82 71.5,-187.61 71.5,-178.57"/>
<polygon fill="none" stroke="midnightblue" points="68,-206.22 71.5,-216.22 75,-206.22 68,-206.22"/>
</g>
<!-- Node3 -->
<g id="node3" class="node">
<title>Node3</title>
<g id="a_node3"><a xlink:href="structwb__filtered__arrayballsightings.html" target="_top" xlink:title="The class of landmarks filtered regarding goal sightings.">
<polygon fill="none" stroke="black" points="0,-432.5 0,-489.5 143,-489.5 143,-432.5 0,-432.5"/>
<text text-anchor="middle" x="71.5" y="-477.5" font-family="Helvetica,sans-Serif" font-size="10.00">wb_filtered_arrayballsightings</text>
<polyline fill="none" stroke="black" points="0,-470.5 143,-470.5 "/>
<text text-anchor="middle" x="71.5" y="-458.5" font-family="Helvetica,sans-Serif" font-size="10.00"> </text>
<polyline fill="none" stroke="black" points="0,-451.5 143,-451.5 "/>
<text text-anchor="middle" x="71.5" y="-439.5" font-family="Helvetica,sans-Serif" font-size="10.00"> </text>
</a>
</g>
</g>
<!-- Node3&#45;&gt;Node2 -->
<g id="edge2" class="edge">
<title>Node3&#45;&gt;Node2</title>
<path fill="none" stroke="midnightblue" d="M71.5,-421.96C71.5,-413.47 71.5,-404.13 71.5,-394.55"/>
<polygon fill="none" stroke="midnightblue" points="68,-422.2 71.5,-432.2 75,-422.2 68,-422.2"/>
</g>
<!-- Node4 -->
<g id="node4" class="node">
<title>Node4</title>
<g id="a_node4"><a xlink:href="structwb__filtered__vision__object.html" target="_top" xlink:title="WHITEBOARD_POSTER_STRING_CONVERSION.">
<polygon fill="none" stroke="black" points="24.5,-537.5 24.5,-693.5 118.5,-693.5 118.5,-537.5 24.5,-537.5"/>
<text text-anchor="start" x="32.5" y="-681.5" font-family="Helvetica,sans-Serif" font-size="10.00">wb_filtered_vision</text>
<text text-anchor="middle" x="71.5" y="-670.5" font-family="Helvetica,sans-Serif" font-size="10.00">_object</text>
<polyline fill="none" stroke="black" points="24.5,-663.5 118.5,-663.5 "/>
<text text-anchor="start" x="32.5" y="-651.5" font-family="Helvetica,sans-Serif" font-size="10.00">+ visibilityHistory</text>
<text text-anchor="start" x="32.5" y="-640.5" font-family="Helvetica,sans-Serif" font-size="10.00">+ frameCounter</text>
<text text-anchor="start" x="32.5" y="-629.5" font-family="Helvetica,sans-Serif" font-size="10.00">+ distance</text>
<text text-anchor="start" x="32.5" y="-618.5" font-family="Helvetica,sans-Serif" font-size="10.00">+ x</text>
<text text-anchor="start" x="32.5" y="-607.5" font-family="Helvetica,sans-Serif" font-size="10.00">+ y</text>
<text text-anchor="start" x="32.5" y="-596.5" font-family="Helvetica,sans-Serif" font-size="10.00">+ yaw</text>
<text text-anchor="start" x="32.5" y="-585.5" font-family="Helvetica,sans-Serif" font-size="10.00">+ ray_angle</text>
<text text-anchor="start" x="32.5" y="-574.5" font-family="Helvetica,sans-Serif" font-size="10.00">+ isVisible</text>
<text text-anchor="start" x="32.5" y="-563.5" font-family="Helvetica,sans-Serif" font-size="10.00">+ pad1</text>
<polyline fill="none" stroke="black" points="24.5,-556.5 118.5,-556.5 "/>
<text text-anchor="middle" x="71.5" y="-544.5" font-family="Helvetica,sans-Serif" font-size="10.00"> </text>
</a>
</g>
</g>
<!-- Node4&#45;&gt;Node3 -->
<g id="edge3" class="edge">
<title>Node4&#45;&gt;Node3</title>
<path fill="none" stroke="#404040" d="M71.5,-537.36C71.5,-525.04 71.5,-512.75 71.5,-501.78"/>
<polygon fill="none" stroke="#404040" points="71.5,-501.58 67.5,-495.58 71.5,-489.58 75.5,-495.58 71.5,-501.58"/>
<text text-anchor="middle" x="91.5" y="-511" font-family="Helvetica,sans-Serif" font-size="10.00"> +objects</text>
</g>
</g>
</svg>
