<?xml version="1.0" encoding="UTF-8" standalone="no"?>
<!DOCTYPE svg PUBLIC "-//W3C//DTD SVG 1.1//EN"
 "http://www.w3.org/Graphics/SVG/1.1/DTD/svg11.dtd">
<!-- Generated by graphviz version 2.49.0 (20210830.1337)
 -->
<!-- Title: guWhiteboard::VisionDetectionGoalPost Pages: 1 -->
<svg width="189pt" height="453pt"
 viewBox="0.00 0.00 188.50 453.00" xmlns="http://www.w3.org/2000/svg" xmlns:xlink="http://www.w3.org/1999/xlink">
<g id="graph0" class="graph" transform="scale(1 1) rotate(0) translate(4 449)">
<title>guWhiteboard::VisionDetectionGoalPost</title>
<!-- Node1 -->
<g id="node1" class="node">
<title>Node1</title>
<g id="a_node1"><a xlink:title="Provides a C++ wrapper around wb_vision_detection_goal_post.">
<polygon fill="#bfbfbf" stroke="black" points="0,-0.5 0,-178.5 149,-178.5 149,-0.5 0,-0.5"/>
<text text-anchor="start" x="8" y="-166.5" font-family="Helvetica,sans-Serif" font-size="10.00">guWhiteboard::VisionDetection</text>
<text text-anchor="middle" x="74.5" y="-155.5" font-family="Helvetica,sans-Serif" font-size="10.00">GoalPost</text>
<polyline fill="none" stroke="black" points="0,-148.5 149,-148.5 "/>
<text text-anchor="middle" x="74.5" y="-136.5" font-family="Helvetica,sans-Serif" font-size="10.00"> </text>
<polyline fill="none" stroke="black" points="0,-129.5 149,-129.5 "/>
<text text-anchor="start" x="8" y="-117.5" font-family="Helvetica,sans-Serif" font-size="10.00">+ VisionDetectionGoalPost()</text>
<text text-anchor="start" x="8" y="-106.5" font-family="Helvetica,sans-Serif" font-size="10.00">+ VisionDetectionGoalPost()</text>
<text text-anchor="start" x="8" y="-95.5" font-family="Helvetica,sans-Serif" font-size="10.00">+ VisionDetectionGoalPost()</text>
<text text-anchor="start" x="8" y="-84.5" font-family="Helvetica,sans-Serif" font-size="10.00">+ operator=()</text>
<text text-anchor="start" x="8" y="-73.5" font-family="Helvetica,sans-Serif" font-size="10.00">+ operator=()</text>
<text text-anchor="start" x="8" y="-62.5" font-family="Helvetica,sans-Serif" font-size="10.00">+ operator==()</text>
<text text-anchor="start" x="8" y="-51.5" font-family="Helvetica,sans-Serif" font-size="10.00">+ operator!=()</text>
<text text-anchor="start" x="8" y="-40.5" font-family="Helvetica,sans-Serif" font-size="10.00">+ operator==()</text>
<text text-anchor="start" x="8" y="-29.5" font-family="Helvetica,sans-Serif" font-size="10.00">+ operator!=()</text>
<text text-anchor="start" x="8" y="-18.5" font-family="Helvetica,sans-Serif" font-size="10.00">+ sightingType()</text>
<text text-anchor="start" x="8" y="-7.5" font-family="Helvetica,sans-Serif" font-size="10.00">and 25 more...</text>
</a>
</g>
</g>
<!-- Node2 -->
<g id="node2" class="node">
<title>Node2</title>
<g id="a_node2"><a xlink:href="structwb__vision__detection__goal__post.html" target="_top" xlink:title="WHITEBOARD_POSTER_STRING_CONVERSION.">
<polygon fill="none" stroke="black" points="22,-216.5 22,-295.5 127,-295.5 127,-216.5 22,-216.5"/>
<text text-anchor="start" x="30" y="-283.5" font-family="Helvetica,sans-Serif" font-size="10.00">wb_vision_detection</text>
<text text-anchor="middle" x="74.5" y="-272.5" font-family="Helvetica,sans-Serif" font-size="10.00">_goal_post</text>
<polyline fill="none" stroke="black" points="22,-265.5 127,-265.5 "/>
<text text-anchor="start" x="30" y="-253.5" font-family="Helvetica,sans-Serif" font-size="10.00">+ sightingType</text>
<text text-anchor="start" x="30" y="-242.5" font-family="Helvetica,sans-Serif" font-size="10.00">+ orientation</text>
<polyline fill="none" stroke="black" points="22,-235.5 127,-235.5 "/>
<text text-anchor="middle" x="74.5" y="-223.5" font-family="Helvetica,sans-Serif" font-size="10.00"> </text>
</a>
</g>
</g>
<!-- Node2&#45;&gt;Node1 -->
<g id="edge1" class="edge">
<title>Node2&#45;&gt;Node1</title>
<path fill="none" stroke="midnightblue" d="M74.5,-206.39C74.5,-197.56 74.5,-188.11 74.5,-178.55"/>
<polygon fill="none" stroke="midnightblue" points="71,-206.43 74.5,-216.43 78,-206.43 71,-206.43"/>
</g>
<!-- Node3 -->
<g id="node3" class="node">
<title>Node3</title>
<g id="a_node3"><a xlink:href="structwb__pixel__coordinate.html" target="_top" xlink:title="WHITEBOARD_POSTER_STRING_CONVERSION.">
<polygon fill="none" stroke="black" points="22.5,-376.5 22.5,-444.5 126.5,-444.5 126.5,-376.5 22.5,-376.5"/>
<text text-anchor="middle" x="74.5" y="-432.5" font-family="Helvetica,sans-Serif" font-size="10.00">wb_pixel_coordinate</text>
<polyline fill="none" stroke="black" points="22.5,-425.5 126.5,-425.5 "/>
<text text-anchor="start" x="30.5" y="-413.5" font-family="Helvetica,sans-Serif" font-size="10.00">+ x</text>
<text text-anchor="start" x="30.5" y="-402.5" font-family="Helvetica,sans-Serif" font-size="10.00">+ y</text>
<polyline fill="none" stroke="black" points="22.5,-395.5 126.5,-395.5 "/>
<text text-anchor="middle" x="74.5" y="-383.5" font-family="Helvetica,sans-Serif" font-size="10.00"> </text>
</a>
</g>
</g>
<!-- Node3&#45;&gt;Node2 -->
<g id="edge2" class="edge">
<title>Node3&#45;&gt;Node2</title>
<path fill="none" stroke="#404040" d="M74.5,-376.41C74.5,-356.38 74.5,-330.42 74.5,-307.83"/>
<polygon fill="none" stroke="#404040" points="74.5,-307.68 70.5,-301.68 74.5,-295.68 78.5,-301.68 74.5,-307.68"/>
<text text-anchor="middle" x="127.5" y="-350" font-family="Helvetica,sans-Serif" font-size="10.00"> +bottomLeftCoordinate</text>
<text text-anchor="middle" x="127.5" y="-339" font-family="Helvetica,sans-Serif" font-size="10.00">+bottomRightCoordinate</text>
<text text-anchor="middle" x="127.5" y="-328" font-family="Helvetica,sans-Serif" font-size="10.00">+topLeftCoordinate</text>
<text text-anchor="middle" x="127.5" y="-317" font-family="Helvetica,sans-Serif" font-size="10.00">+topRightCoordinate</text>
</g>
</g>
</svg>
