<?xml version="1.0" encoding="UTF-8" standalone="no"?>
<!DOCTYPE svg PUBLIC "-//W3C//DTD SVG 1.1//EN"
 "http://www.w3.org/Graphics/SVG/1.1/DTD/svg11.dtd">
<!-- Generated by graphviz version 2.49.0 (20210830.1337)
 -->
<!-- Title: Print_WBFunctor&lt; Print_WBFunctor_T &gt; Pages: 1 -->
<svg width="175pt" height="518pt"
 viewBox="0.00 0.00 175.00 518.00" xmlns="http://www.w3.org/2000/svg" xmlns:xlink="http://www.w3.org/1999/xlink">
<g id="graph0" class="graph" transform="scale(1 1) rotate(0) translate(4 514)">
<title>Print_WBFunctor&lt; Print_WBFunctor_T &gt;</title>
<!-- Node1 -->
<g id="node1" class="node">
<title>Node1</title>
<g id="a_node1"><a xlink:title="WBFunctor definition for Print_WBFunctor_T.">
<polygon fill="#bfbfbf" stroke="black" points="24,-0.5 24,-90.5 143,-90.5 143,-0.5 24,-0.5"/>
<text text-anchor="start" x="32" y="-78.5" font-family="Helvetica,sans-Serif" font-size="10.00">Print_WBFunctor&lt; Print</text>
<text text-anchor="middle" x="83.5" y="-67.5" font-family="Helvetica,sans-Serif" font-size="10.00">_WBFunctor_T &gt;</text>
<polyline fill="none" stroke="black" points="24,-60.5 143,-60.5 "/>
<text text-anchor="middle" x="83.5" y="-48.5" font-family="Helvetica,sans-Serif" font-size="10.00"> </text>
<polyline fill="none" stroke="black" points="24,-41.5 143,-41.5 "/>
<text text-anchor="start" x="32" y="-29.5" font-family="Helvetica,sans-Serif" font-size="10.00">+ Print_WBFunctor()</text>
<text text-anchor="start" x="32" y="-18.5" font-family="Helvetica,sans-Serif" font-size="10.00">+ call()</text>
<text text-anchor="start" x="32" y="-7.5" font-family="Helvetica,sans-Serif" font-size="10.00">+ bind()</text>
</a>
</g>
</g>
<!-- Node2 -->
<g id="node2" class="node">
<title>Node2</title>
<g id="a_node2"><a xlink:href="class_w_b_functor.html" target="_top" xlink:title=" ">
<polygon fill="none" stroke="black" points="0,-127.5 0,-338.5 167,-338.5 167,-127.5 0,-127.5"/>
<text text-anchor="middle" x="83.5" y="-326.5" font-family="Helvetica,sans-Serif" font-size="10.00">WBFunctor&lt; Print_WBFunctor_T &gt;</text>
<polyline fill="none" stroke="black" points="0,-319.5 167,-319.5 "/>
<text text-anchor="start" x="8" y="-307.5" font-family="Helvetica,sans-Serif" font-size="10.00"># fObject</text>
<text text-anchor="start" x="8" y="-296.5" font-family="Helvetica,sans-Serif" font-size="10.00"># fFunction</text>
<text text-anchor="start" x="8" y="-285.5" font-family="Helvetica,sans-Serif" font-size="10.00"># s_fFunction</text>
<text text-anchor="start" x="8" y="-274.5" font-family="Helvetica,sans-Serif" font-size="10.00"># type_enum</text>
<text text-anchor="start" x="8" y="-263.5" font-family="Helvetica,sans-Serif" font-size="10.00"># event_count</text>
<text text-anchor="start" x="8" y="-252.5" font-family="Helvetica,sans-Serif" font-size="10.00"># simple_wb_version</text>
<polyline fill="none" stroke="black" points="0,-245.5 167,-245.5 "/>
<text text-anchor="start" x="8" y="-233.5" font-family="Helvetica,sans-Serif" font-size="10.00">+ WBFunctor()</text>
<text text-anchor="start" x="8" y="-222.5" font-family="Helvetica,sans-Serif" font-size="10.00">+ WBFunctor()</text>
<text text-anchor="start" x="8" y="-211.5" font-family="Helvetica,sans-Serif" font-size="10.00">+ call()</text>
<text text-anchor="start" x="8" y="-200.5" font-family="Helvetica,sans-Serif" font-size="10.00">+ call()</text>
<text text-anchor="start" x="8" y="-189.5" font-family="Helvetica,sans-Serif" font-size="10.00">+ call()</text>
<text text-anchor="start" x="8" y="-178.5" font-family="Helvetica,sans-Serif" font-size="10.00">+ type()</text>
<text text-anchor="start" x="8" y="-167.5" font-family="Helvetica,sans-Serif" font-size="10.00">+ get_event_count()</text>
<text text-anchor="start" x="8" y="-156.5" font-family="Helvetica,sans-Serif" font-size="10.00">+ set_event_count()</text>
<text text-anchor="start" x="8" y="-145.5" font-family="Helvetica,sans-Serif" font-size="10.00">+ is_simple_wb_version()</text>
<text text-anchor="start" x="8" y="-134.5" font-family="Helvetica,sans-Serif" font-size="10.00">+ get_s_func_ptr()</text>
</a>
</g>
</g>
<!-- Node2&#45;&gt;Node1 -->
<g id="edge1" class="edge">
<title>Node2&#45;&gt;Node1</title>
<path fill="none" stroke="midnightblue" d="M83.5,-117.19C83.5,-107.95 83.5,-99.02 83.5,-90.79"/>
<polygon fill="none" stroke="midnightblue" points="80,-117.32 83.5,-127.32 87,-117.32 80,-117.32"/>
</g>
<!-- Node3 -->
<g id="node3" class="node">
<title>Node3</title>
<g id="a_node3"><a xlink:href="class_w_b_functor_base.html" target="_top" xlink:title="Base class for WBFunctor.">
<polygon fill="none" stroke="black" points="20,-375.5 20,-509.5 147,-509.5 147,-375.5 20,-375.5"/>
<text text-anchor="middle" x="83.5" y="-497.5" font-family="Helvetica,sans-Serif" font-size="10.00">WBFunctorBase</text>
<polyline fill="none" stroke="black" points="20,-490.5 147,-490.5 "/>
<text text-anchor="middle" x="83.5" y="-478.5" font-family="Helvetica,sans-Serif" font-size="10.00"> </text>
<polyline fill="none" stroke="black" points="20,-471.5 147,-471.5 "/>
<text text-anchor="start" x="28" y="-459.5" font-family="Helvetica,sans-Serif" font-size="10.00">+ call()</text>
<text text-anchor="start" x="28" y="-448.5" font-family="Helvetica,sans-Serif" font-size="10.00">+ call()</text>
<text text-anchor="start" x="28" y="-437.5" font-family="Helvetica,sans-Serif" font-size="10.00">+ call()</text>
<text text-anchor="start" x="28" y="-426.5" font-family="Helvetica,sans-Serif" font-size="10.00">+ type()</text>
<text text-anchor="start" x="28" y="-415.5" font-family="Helvetica,sans-Serif" font-size="10.00">+ get_event_count()</text>
<text text-anchor="start" x="28" y="-404.5" font-family="Helvetica,sans-Serif" font-size="10.00">+ set_event_count()</text>
<text text-anchor="start" x="28" y="-393.5" font-family="Helvetica,sans-Serif" font-size="10.00">+ is_simple_wb_version()</text>
<text text-anchor="start" x="28" y="-382.5" font-family="Helvetica,sans-Serif" font-size="10.00">+ ~WBFunctorBase()</text>
</a>
</g>
</g>
<!-- Node3&#45;&gt;Node2 -->
<g id="edge2" class="edge">
<title>Node3&#45;&gt;Node2</title>
<path fill="none" stroke="midnightblue" d="M83.5,-365.21C83.5,-356.51 83.5,-347.53 83.5,-338.55"/>
<polygon fill="none" stroke="midnightblue" points="80,-365.28 83.5,-375.28 87,-365.28 80,-365.28"/>
</g>
</g>
</svg>
