<?xml version="1.0" encoding="UTF-8" standalone="no"?>
<!DOCTYPE svg PUBLIC "-//W3C//DTD SVG 1.1//EN"
 "http://www.w3.org/Graphics/SVG/1.1/DTD/svg11.dtd">
<!-- Generated by graphviz version 2.49.0 (20210830.1337)
 -->
<!-- Title: guWhiteboard::TrafficLightConfiguration Pages: 1 -->
<svg width="149pt" height="204pt"
 viewBox="0.00 0.00 149.00 204.00" xmlns="http://www.w3.org/2000/svg" xmlns:xlink="http://www.w3.org/1999/xlink">
<g id="graph0" class="graph" transform="scale(1 1) rotate(0) translate(4 200)">
<title>guWhiteboard::TrafficLightConfiguration</title>
<!-- Node1 -->
<g id="node1" class="node">
<title>Node1</title>
<g id="a_node1"><a xlink:title=" ">
<polygon fill="#bfbfbf" stroke="black" points="3,-0.5 3,-101.5 138,-101.5 138,-0.5 3,-0.5"/>
<text text-anchor="start" x="11" y="-89.5" font-family="Helvetica,sans-Serif" font-size="10.00">guWhiteboard::TrafficLight</text>
<text text-anchor="middle" x="70.5" y="-78.5" font-family="Helvetica,sans-Serif" font-size="10.00">Configuration</text>
<polyline fill="none" stroke="black" points="3,-71.5 138,-71.5 "/>
<text text-anchor="middle" x="70.5" y="-59.5" font-family="Helvetica,sans-Serif" font-size="10.00"> </text>
<polyline fill="none" stroke="black" points="3,-52.5 138,-52.5 "/>
<text text-anchor="start" x="11" y="-40.5" font-family="Helvetica,sans-Serif" font-size="10.00">+ TrafficLightConfiguration()</text>
<text text-anchor="start" x="11" y="-29.5" font-family="Helvetica,sans-Serif" font-size="10.00">+ TrafficLightConfiguration()</text>
<text text-anchor="start" x="11" y="-18.5" font-family="Helvetica,sans-Serif" font-size="10.00">+ description()</text>
<text text-anchor="start" x="11" y="-7.5" font-family="Helvetica,sans-Serif" font-size="10.00">+ from_string()</text>
</a>
</g>
</g>
<!-- Node2 -->
<g id="node2" class="node">
<title>Node2</title>
<g id="a_node2"><a xlink:href="structwb__traffic__light__configuration.html" target="_top" xlink:title=" ">
<polygon fill="none" stroke="black" points="0,-138.5 0,-195.5 141,-195.5 141,-138.5 0,-138.5"/>
<text text-anchor="middle" x="70.5" y="-183.5" font-family="Helvetica,sans-Serif" font-size="10.00">wb_traffic_light_configuration</text>
<polyline fill="none" stroke="black" points="0,-176.5 141,-176.5 "/>
<text text-anchor="middle" x="70.5" y="-164.5" font-family="Helvetica,sans-Serif" font-size="10.00"> </text>
<polyline fill="none" stroke="black" points="0,-157.5 141,-157.5 "/>
<text text-anchor="middle" x="70.5" y="-145.5" font-family="Helvetica,sans-Serif" font-size="10.00"> </text>
</a>
</g>
</g>
<!-- Node2&#45;&gt;Node1 -->
<g id="edge1" class="edge">
<title>Node2&#45;&gt;Node1</title>
<path fill="none" stroke="midnightblue" d="M70.5,-128.35C70.5,-119.8 70.5,-110.58 70.5,-101.61"/>
<polygon fill="none" stroke="midnightblue" points="67,-128.4 70.5,-138.4 74,-128.4 67,-128.4"/>
</g>
</g>
</svg>
