<?xml version="1.0" encoding="UTF-8" standalone="no"?>
<!DOCTYPE svg PUBLIC "-//W3C//DTD SVG 1.1//EN"
 "http://www.w3.org/Graphics/SVG/1.1/DTD/svg11.dtd">
<!-- Generated by graphviz version 2.49.0 (20210830.1337)
 -->
<!-- Title: guWhiteboard::LineSighting Pages: 1 -->
<svg width="142pt" height="398pt"
 viewBox="0.00 0.00 142.00 398.00" xmlns="http://www.w3.org/2000/svg" xmlns:xlink="http://www.w3.org/1999/xlink">
<g id="graph0" class="graph" transform="scale(1 1) rotate(0) translate(4 394)">
<title>guWhiteboard::LineSighting</title>
<!-- Node1 -->
<g id="node1" class="node">
<title>Node1</title>
<g id="a_node1"><a xlink:title="Provides a C++ wrapper around wb_line_sighting.">
<polygon fill="#bfbfbf" stroke="black" points="0,-0.5 0,-167.5 134,-167.5 134,-0.5 0,-0.5"/>
<text text-anchor="middle" x="67" y="-155.5" font-family="Helvetica,sans-Serif" font-size="10.00">guWhiteboard::LineSighting</text>
<polyline fill="none" stroke="black" points="0,-148.5 134,-148.5 "/>
<text text-anchor="middle" x="67" y="-136.5" font-family="Helvetica,sans-Serif" font-size="10.00"> </text>
<polyline fill="none" stroke="black" points="0,-129.5 134,-129.5 "/>
<text text-anchor="start" x="8" y="-117.5" font-family="Helvetica,sans-Serif" font-size="10.00">+ LineSighting()</text>
<text text-anchor="start" x="8" y="-106.5" font-family="Helvetica,sans-Serif" font-size="10.00">+ LineSighting()</text>
<text text-anchor="start" x="8" y="-95.5" font-family="Helvetica,sans-Serif" font-size="10.00">+ LineSighting()</text>
<text text-anchor="start" x="8" y="-84.5" font-family="Helvetica,sans-Serif" font-size="10.00">+ operator=()</text>
<text text-anchor="start" x="8" y="-73.5" font-family="Helvetica,sans-Serif" font-size="10.00">+ operator=()</text>
<text text-anchor="start" x="8" y="-62.5" font-family="Helvetica,sans-Serif" font-size="10.00">+ operator==()</text>
<text text-anchor="start" x="8" y="-51.5" font-family="Helvetica,sans-Serif" font-size="10.00">+ operator!=()</text>
<text text-anchor="start" x="8" y="-40.5" font-family="Helvetica,sans-Serif" font-size="10.00">+ operator==()</text>
<text text-anchor="start" x="8" y="-29.5" font-family="Helvetica,sans-Serif" font-size="10.00">+ operator!=()</text>
<text text-anchor="start" x="8" y="-18.5" font-family="Helvetica,sans-Serif" font-size="10.00">+ leftPoint()</text>
<text text-anchor="start" x="8" y="-7.5" font-family="Helvetica,sans-Serif" font-size="10.00">and 13 more...</text>
</a>
</g>
</g>
<!-- Node2 -->
<g id="node2" class="node">
<title>Node2</title>
<g id="a_node2"><a xlink:href="structwb__line__sighting.html" target="_top" xlink:title="WHITEBOARD_POSTER_STRING_CONVERSION.">
<polygon fill="none" stroke="black" points="22.5,-205.5 22.5,-262.5 111.5,-262.5 111.5,-205.5 22.5,-205.5"/>
<text text-anchor="middle" x="67" y="-250.5" font-family="Helvetica,sans-Serif" font-size="10.00">wb_line_sighting</text>
<polyline fill="none" stroke="black" points="22.5,-243.5 111.5,-243.5 "/>
<text text-anchor="start" x="30.5" y="-231.5" font-family="Helvetica,sans-Serif" font-size="10.00">+ sightingType</text>
<polyline fill="none" stroke="black" points="22.5,-224.5 111.5,-224.5 "/>
<text text-anchor="middle" x="67" y="-212.5" font-family="Helvetica,sans-Serif" font-size="10.00"> </text>
</a>
</g>
</g>
<!-- Node2&#45;&gt;Node1 -->
<g id="edge1" class="edge">
<title>Node2&#45;&gt;Node1</title>
<path fill="none" stroke="midnightblue" d="M67,-194.93C67,-186.46 67,-177.17 67,-167.68"/>
<polygon fill="none" stroke="midnightblue" points="63.5,-195.16 67,-205.16 70.5,-195.16 63.5,-195.16"/>
</g>
<!-- Node3 -->
<g id="node3" class="node">
<title>Node3</title>
<g id="a_node3"><a xlink:href="structwb__polar__coordinate.html" target="_top" xlink:title="WHITEBOARD_POSTER_STRING_CONVERSION.">
<polygon fill="none" stroke="black" points="14,-321.5 14,-389.5 120,-389.5 120,-321.5 14,-321.5"/>
<text text-anchor="middle" x="67" y="-377.5" font-family="Helvetica,sans-Serif" font-size="10.00">wb_polar_coordinate</text>
<polyline fill="none" stroke="black" points="14,-370.5 120,-370.5 "/>
<text text-anchor="start" x="22" y="-358.5" font-family="Helvetica,sans-Serif" font-size="10.00">+ direction</text>
<text text-anchor="start" x="22" y="-347.5" font-family="Helvetica,sans-Serif" font-size="10.00">+ distance</text>
<polyline fill="none" stroke="black" points="14,-340.5 120,-340.5 "/>
<text text-anchor="middle" x="67" y="-328.5" font-family="Helvetica,sans-Serif" font-size="10.00"> </text>
</a>
</g>
</g>
<!-- Node3&#45;&gt;Node2 -->
<g id="edge2" class="edge">
<title>Node3&#45;&gt;Node2</title>
<path fill="none" stroke="#404040" d="M67,-321.21C67,-306.86 67,-289.96 67,-274.94"/>
<polygon fill="none" stroke="#404040" points="67,-274.86 63,-268.86 67,-262.86 71,-268.86 67,-274.86"/>
<text text-anchor="middle" x="91" y="-295" font-family="Helvetica,sans-Serif" font-size="10.00"> +leftPoint</text>
<text text-anchor="middle" x="91" y="-284" font-family="Helvetica,sans-Serif" font-size="10.00">+rightPoint</text>
</g>
</g>
</svg>
