<?xml version="1.0" encoding="UTF-8" standalone="no"?>
<!DOCTYPE svg PUBLIC "-//W3C//DTD SVG 1.1//EN"
 "http://www.w3.org/Graphics/SVG/1.1/DTD/svg11.dtd">
<!-- Generated by graphviz version 2.49.0 (20210830.1337)
 -->
<!-- Title: guWhiteboard::NXT_Two_Touch_Status Pages: 1 -->
<svg width="149pt" height="215pt"
 viewBox="0.00 0.00 149.00 215.00" xmlns="http://www.w3.org/2000/svg" xmlns:xlink="http://www.w3.org/1999/xlink">
<g id="graph0" class="graph" transform="scale(1 1) rotate(0) translate(4 211)">
<title>guWhiteboard::NXT_Two_Touch_Status</title>
<!-- Node1 -->
<g id="node1" class="node">
<title>Node1</title>
<g id="a_node1"><a xlink:title="Class for controlling differential robots Defines whiteboard message.">
<polygon fill="#bfbfbf" stroke="black" points="0,-0.5 0,-112.5 141,-112.5 141,-0.5 0,-0.5"/>
<text text-anchor="start" x="8" y="-100.5" font-family="Helvetica,sans-Serif" font-size="10.00">guWhiteboard::NXT_Two</text>
<text text-anchor="middle" x="70.5" y="-89.5" font-family="Helvetica,sans-Serif" font-size="10.00">_Touch_Status</text>
<polyline fill="none" stroke="black" points="0,-82.5 141,-82.5 "/>
<text text-anchor="middle" x="70.5" y="-70.5" font-family="Helvetica,sans-Serif" font-size="10.00"> </text>
<polyline fill="none" stroke="black" points="0,-63.5 141,-63.5 "/>
<text text-anchor="start" x="8" y="-51.5" font-family="Helvetica,sans-Serif" font-size="10.00">+ NXT_Two_Touch_Status()</text>
<text text-anchor="start" x="8" y="-40.5" font-family="Helvetica,sans-Serif" font-size="10.00">+ NXT_Two_Touch_Status()</text>
<text text-anchor="start" x="8" y="-29.5" font-family="Helvetica,sans-Serif" font-size="10.00">+ description()</text>
<text text-anchor="start" x="8" y="-18.5" font-family="Helvetica,sans-Serif" font-size="10.00">+ from_string()</text>
<text text-anchor="start" x="8" y="-7.5" font-family="Helvetica,sans-Serif" font-size="10.00">+ operator==()</text>
</a>
</g>
</g>
<!-- Node2 -->
<g id="node2" class="node">
<title>Node2</title>
<g id="a_node2"><a xlink:href="structwb__buttons__status.html" target="_top" xlink:title="An Array of buttons for talking with an NXT.">
<polygon fill="none" stroke="black" points="9,-149.5 9,-206.5 132,-206.5 132,-149.5 9,-149.5"/>
<text text-anchor="middle" x="70.5" y="-194.5" font-family="Helvetica,sans-Serif" font-size="10.00">wb_buttons_status</text>
<polyline fill="none" stroke="black" points="9,-187.5 132,-187.5 "/>
<text text-anchor="middle" x="70.5" y="-175.5" font-family="Helvetica,sans-Serif" font-size="10.00"> </text>
<polyline fill="none" stroke="black" points="9,-168.5 132,-168.5 "/>
<text text-anchor="start" x="17" y="-156.5" font-family="Helvetica,sans-Serif" font-size="10.00">+ ARRAY_PROPERTY()</text>
</a>
</g>
</g>
<!-- Node2&#45;&gt;Node1 -->
<g id="edge1" class="edge">
<title>Node2&#45;&gt;Node1</title>
<path fill="none" stroke="midnightblue" d="M70.5,-139.11C70.5,-130.75 70.5,-121.73 70.5,-112.83"/>
<polygon fill="none" stroke="midnightblue" points="67,-139.28 70.5,-149.28 74,-139.28 67,-139.28"/>
</g>
</g>
</svg>
