<?xml version="1.0" encoding="UTF-8" standalone="no"?>
<!DOCTYPE svg PUBLIC "-//W3C//DTD SVG 1.1//EN"
 "http://www.w3.org/Graphics/SVG/1.1/DTD/svg11.dtd">
<!-- Generated by graphviz version 2.49.0 (20210830.1337)
 -->
<!-- Title: guWhiteboard::VisionLine Pages: 1 -->
<svg width="148pt" height="514pt"
 viewBox="0.00 0.00 148.00 514.00" xmlns="http://www.w3.org/2000/svg" xmlns:xlink="http://www.w3.org/1999/xlink">
<g id="graph0" class="graph" transform="scale(1 1) rotate(0) translate(4 510)">
<title>guWhiteboard::VisionLine</title>
<!-- Node1 -->
<g id="node1" class="node">
<title>Node1</title>
<g id="a_node1"><a xlink:title="Provides a C++ wrapper around wb_vision_line.">
<polygon fill="#bfbfbf" stroke="black" points="0,-0.5 0,-167.5 126,-167.5 126,-0.5 0,-0.5"/>
<text text-anchor="middle" x="63" y="-155.5" font-family="Helvetica,sans-Serif" font-size="10.00">guWhiteboard::VisionLine</text>
<polyline fill="none" stroke="black" points="0,-148.5 126,-148.5 "/>
<text text-anchor="middle" x="63" y="-136.5" font-family="Helvetica,sans-Serif" font-size="10.00"> </text>
<polyline fill="none" stroke="black" points="0,-129.5 126,-129.5 "/>
<text text-anchor="start" x="8" y="-117.5" font-family="Helvetica,sans-Serif" font-size="10.00">+ VisionLine()</text>
<text text-anchor="start" x="8" y="-106.5" font-family="Helvetica,sans-Serif" font-size="10.00">+ VisionLine()</text>
<text text-anchor="start" x="8" y="-95.5" font-family="Helvetica,sans-Serif" font-size="10.00">+ VisionLine()</text>
<text text-anchor="start" x="8" y="-84.5" font-family="Helvetica,sans-Serif" font-size="10.00">+ operator=()</text>
<text text-anchor="start" x="8" y="-73.5" font-family="Helvetica,sans-Serif" font-size="10.00">+ operator=()</text>
<text text-anchor="start" x="8" y="-62.5" font-family="Helvetica,sans-Serif" font-size="10.00">+ operator==()</text>
<text text-anchor="start" x="8" y="-51.5" font-family="Helvetica,sans-Serif" font-size="10.00">+ operator!=()</text>
<text text-anchor="start" x="8" y="-40.5" font-family="Helvetica,sans-Serif" font-size="10.00">+ operator==()</text>
<text text-anchor="start" x="8" y="-29.5" font-family="Helvetica,sans-Serif" font-size="10.00">+ operator!=()</text>
<text text-anchor="start" x="8" y="-18.5" font-family="Helvetica,sans-Serif" font-size="10.00">+ lineEdgeTop()</text>
<text text-anchor="start" x="8" y="-7.5" font-family="Helvetica,sans-Serif" font-size="10.00">and 9 more...</text>
</a>
</g>
</g>
<!-- Node2 -->
<g id="node2" class="node">
<title>Node2</title>
<g id="a_node2"><a xlink:href="structwb__vision__line.html" target="_top" xlink:title="WHITEBOARD_POSTER_STRING_CONVERSION.">
<polygon fill="none" stroke="black" points="23,-205.5 23,-262.5 103,-262.5 103,-205.5 23,-205.5"/>
<text text-anchor="middle" x="63" y="-250.5" font-family="Helvetica,sans-Serif" font-size="10.00">wb_vision_line</text>
<polyline fill="none" stroke="black" points="23,-243.5 103,-243.5 "/>
<text text-anchor="middle" x="63" y="-231.5" font-family="Helvetica,sans-Serif" font-size="10.00"> </text>
<polyline fill="none" stroke="black" points="23,-224.5 103,-224.5 "/>
<text text-anchor="middle" x="63" y="-212.5" font-family="Helvetica,sans-Serif" font-size="10.00"> </text>
</a>
</g>
</g>
<!-- Node2&#45;&gt;Node1 -->
<g id="edge1" class="edge">
<title>Node2&#45;&gt;Node1</title>
<path fill="none" stroke="midnightblue" d="M63,-194.93C63,-186.46 63,-177.17 63,-167.68"/>
<polygon fill="none" stroke="midnightblue" points="59.5,-195.16 63,-205.16 66.5,-195.16 59.5,-195.16"/>
</g>
<!-- Node3 -->
<g id="node3" class="node">
<title>Node3</title>
<g id="a_node3"><a xlink:href="structwb__pixel__coordinate__line.html" target="_top" xlink:title="WHITEBOARD_POSTER_STRING_CONVERSION.">
<polygon fill="none" stroke="black" points="0.5,-321.5 0.5,-378.5 125.5,-378.5 125.5,-321.5 0.5,-321.5"/>
<text text-anchor="middle" x="63" y="-366.5" font-family="Helvetica,sans-Serif" font-size="10.00">wb_pixel_coordinate_line</text>
<polyline fill="none" stroke="black" points="0.5,-359.5 125.5,-359.5 "/>
<text text-anchor="middle" x="63" y="-347.5" font-family="Helvetica,sans-Serif" font-size="10.00"> </text>
<polyline fill="none" stroke="black" points="0.5,-340.5 125.5,-340.5 "/>
<text text-anchor="middle" x="63" y="-328.5" font-family="Helvetica,sans-Serif" font-size="10.00"> </text>
</a>
</g>
</g>
<!-- Node3&#45;&gt;Node2 -->
<g id="edge2" class="edge">
<title>Node3&#45;&gt;Node2</title>
<path fill="none" stroke="#404040" d="M63,-321.4C63,-307.5 63,-290.39 63,-275.07"/>
<polygon fill="none" stroke="#404040" points="63,-274.74 59,-268.74 63,-262.74 67,-268.74 63,-274.74"/>
<text text-anchor="middle" x="101.5" y="-295" font-family="Helvetica,sans-Serif" font-size="10.00"> +lineEdgeBottom</text>
<text text-anchor="middle" x="101.5" y="-284" font-family="Helvetica,sans-Serif" font-size="10.00">+lineEdgeTop</text>
</g>
<!-- Node4 -->
<g id="node4" class="node">
<title>Node4</title>
<g id="a_node4"><a xlink:href="structwb__pixel__coordinate.html" target="_top" xlink:title="WHITEBOARD_POSTER_STRING_CONVERSION.">
<polygon fill="none" stroke="black" points="11,-437.5 11,-505.5 115,-505.5 115,-437.5 11,-437.5"/>
<text text-anchor="middle" x="63" y="-493.5" font-family="Helvetica,sans-Serif" font-size="10.00">wb_pixel_coordinate</text>
<polyline fill="none" stroke="black" points="11,-486.5 115,-486.5 "/>
<text text-anchor="start" x="19" y="-474.5" font-family="Helvetica,sans-Serif" font-size="10.00">+ x</text>
<text text-anchor="start" x="19" y="-463.5" font-family="Helvetica,sans-Serif" font-size="10.00">+ y</text>
<polyline fill="none" stroke="black" points="11,-456.5 115,-456.5 "/>
<text text-anchor="middle" x="63" y="-444.5" font-family="Helvetica,sans-Serif" font-size="10.00"> </text>
</a>
</g>
</g>
<!-- Node4&#45;&gt;Node3 -->
<g id="edge3" class="edge">
<title>Node4&#45;&gt;Node3</title>
<path fill="none" stroke="#404040" d="M63,-437.21C63,-422.86 63,-405.96 63,-390.94"/>
<polygon fill="none" stroke="#404040" points="63,-390.86 59,-384.86 63,-378.86 67,-384.86 63,-390.86"/>
<text text-anchor="middle" x="76" y="-411" font-family="Helvetica,sans-Serif" font-size="10.00"> +end</text>
<text text-anchor="middle" x="76" y="-400" font-family="Helvetica,sans-Serif" font-size="10.00">+start</text>
</g>
</g>
</svg>
