<?xml version="1.0" encoding="UTF-8" standalone="no"?>
<!DOCTYPE svg PUBLIC "-//W3C//DTD SVG 1.1//EN"
 "http://www.w3.org/Graphics/SVG/1.1/DTD/svg11.dtd">
<!-- Generated by graphviz version 2.49.0 (20210830.1337)
 -->
<!-- Title: guWhiteboard::VisionDetectionBalls Pages: 1 -->
<svg width="157pt" height="558pt"
 viewBox="0.00 0.00 157.00 558.00" xmlns="http://www.w3.org/2000/svg" xmlns:xlink="http://www.w3.org/1999/xlink">
<g id="graph0" class="graph" transform="scale(1 1) rotate(0) translate(4 554)">
<title>guWhiteboard::VisionDetectionBalls</title>
<!-- Node1 -->
<g id="node1" class="node">
<title>Node1</title>
<g id="a_node1"><a xlink:title="Provides a C++ wrapper around wb_vision_detection_balls.">
<polygon fill="#bfbfbf" stroke="black" points="0,-0.5 0,-178.5 149,-178.5 149,-0.5 0,-0.5"/>
<text text-anchor="start" x="8" y="-166.5" font-family="Helvetica,sans-Serif" font-size="10.00">guWhiteboard::VisionDetection</text>
<text text-anchor="middle" x="74.5" y="-155.5" font-family="Helvetica,sans-Serif" font-size="10.00">Balls</text>
<polyline fill="none" stroke="black" points="0,-148.5 149,-148.5 "/>
<text text-anchor="middle" x="74.5" y="-136.5" font-family="Helvetica,sans-Serif" font-size="10.00"> </text>
<polyline fill="none" stroke="black" points="0,-129.5 149,-129.5 "/>
<text text-anchor="start" x="8" y="-117.5" font-family="Helvetica,sans-Serif" font-size="10.00">+ VisionDetectionBalls()</text>
<text text-anchor="start" x="8" y="-106.5" font-family="Helvetica,sans-Serif" font-size="10.00">+ VisionDetectionBalls()</text>
<text text-anchor="start" x="8" y="-95.5" font-family="Helvetica,sans-Serif" font-size="10.00">+ VisionDetectionBalls()</text>
<text text-anchor="start" x="8" y="-84.5" font-family="Helvetica,sans-Serif" font-size="10.00">+ operator=()</text>
<text text-anchor="start" x="8" y="-73.5" font-family="Helvetica,sans-Serif" font-size="10.00">+ operator=()</text>
<text text-anchor="start" x="8" y="-62.5" font-family="Helvetica,sans-Serif" font-size="10.00">+ operator==()</text>
<text text-anchor="start" x="8" y="-51.5" font-family="Helvetica,sans-Serif" font-size="10.00">+ operator!=()</text>
<text text-anchor="start" x="8" y="-40.5" font-family="Helvetica,sans-Serif" font-size="10.00">+ operator==()</text>
<text text-anchor="start" x="8" y="-29.5" font-family="Helvetica,sans-Serif" font-size="10.00">+ operator!=()</text>
<text text-anchor="start" x="8" y="-18.5" font-family="Helvetica,sans-Serif" font-size="10.00">+ frameNumber()</text>
<text text-anchor="start" x="8" y="-7.5" font-family="Helvetica,sans-Serif" font-size="10.00">and 18 more...</text>
</a>
</g>
</g>
<!-- Node2 -->
<g id="node2" class="node">
<title>Node2</title>
<g id="a_node2"><a xlink:href="structwb__vision__detection__balls.html" target="_top" xlink:title="Array of fieldBalls, one instance reported by each camera.">
<polygon fill="none" stroke="black" points="22,-216.5 22,-306.5 127,-306.5 127,-216.5 22,-216.5"/>
<text text-anchor="start" x="30" y="-294.5" font-family="Helvetica,sans-Serif" font-size="10.00">wb_vision_detection</text>
<text text-anchor="middle" x="74.5" y="-283.5" font-family="Helvetica,sans-Serif" font-size="10.00">_balls</text>
<polyline fill="none" stroke="black" points="22,-276.5 127,-276.5 "/>
<text text-anchor="start" x="30" y="-264.5" font-family="Helvetica,sans-Serif" font-size="10.00">+ frameNumber</text>
<text text-anchor="start" x="30" y="-253.5" font-family="Helvetica,sans-Serif" font-size="10.00">+ res_width</text>
<text text-anchor="start" x="30" y="-242.5" font-family="Helvetica,sans-Serif" font-size="10.00">+ res_height</text>
<polyline fill="none" stroke="black" points="22,-235.5 127,-235.5 "/>
<text text-anchor="middle" x="74.5" y="-223.5" font-family="Helvetica,sans-Serif" font-size="10.00"> </text>
</a>
</g>
</g>
<!-- Node2&#45;&gt;Node1 -->
<g id="edge1" class="edge">
<title>Node2&#45;&gt;Node1</title>
<path fill="none" stroke="midnightblue" d="M74.5,-206.2C74.5,-197.38 74.5,-188.06 74.5,-178.69"/>
<polygon fill="none" stroke="midnightblue" points="71,-206.28 74.5,-216.28 78,-206.28 71,-206.28"/>
</g>
<!-- Node3 -->
<g id="node3" class="node">
<title>Node3</title>
<g id="a_node3"><a xlink:href="structwb__vision__detection__ball.html" target="_top" xlink:title="WHITEBOARD_POSTER_STRING_CONVERSION.">
<polygon fill="none" stroke="black" points="12,-354.5 12,-433.5 137,-433.5 137,-354.5 12,-354.5"/>
<text text-anchor="middle" x="74.5" y="-421.5" font-family="Helvetica,sans-Serif" font-size="10.00">wb_vision_detection_ball</text>
<polyline fill="none" stroke="black" points="12,-414.5 137,-414.5 "/>
<text text-anchor="start" x="20" y="-402.5" font-family="Helvetica,sans-Serif" font-size="10.00">+ sightingType</text>
<text text-anchor="start" x="20" y="-391.5" font-family="Helvetica,sans-Serif" font-size="10.00">+ verticalRadius</text>
<text text-anchor="start" x="20" y="-380.5" font-family="Helvetica,sans-Serif" font-size="10.00">+ horizontalRadius</text>
<polyline fill="none" stroke="black" points="12,-373.5 137,-373.5 "/>
<text text-anchor="middle" x="74.5" y="-361.5" font-family="Helvetica,sans-Serif" font-size="10.00"> </text>
</a>
</g>
</g>
<!-- Node3&#45;&gt;Node2 -->
<g id="edge2" class="edge">
<title>Node3&#45;&gt;Node2</title>
<path fill="none" stroke="#404040" d="M74.5,-354.2C74.5,-343.16 74.5,-330.9 74.5,-319.04"/>
<polygon fill="none" stroke="#404040" points="74.5,-318.88 70.5,-312.88 74.5,-306.88 78.5,-312.88 74.5,-318.88"/>
<text text-anchor="middle" x="89" y="-328" font-family="Helvetica,sans-Serif" font-size="10.00"> +balls</text>
</g>
<!-- Node4 -->
<g id="node4" class="node">
<title>Node4</title>
<g id="a_node4"><a xlink:href="structwb__pixel__coordinate.html" target="_top" xlink:title="WHITEBOARD_POSTER_STRING_CONVERSION.">
<polygon fill="none" stroke="black" points="22.5,-481.5 22.5,-549.5 126.5,-549.5 126.5,-481.5 22.5,-481.5"/>
<text text-anchor="middle" x="74.5" y="-537.5" font-family="Helvetica,sans-Serif" font-size="10.00">wb_pixel_coordinate</text>
<polyline fill="none" stroke="black" points="22.5,-530.5 126.5,-530.5 "/>
<text text-anchor="start" x="30.5" y="-518.5" font-family="Helvetica,sans-Serif" font-size="10.00">+ x</text>
<text text-anchor="start" x="30.5" y="-507.5" font-family="Helvetica,sans-Serif" font-size="10.00">+ y</text>
<polyline fill="none" stroke="black" points="22.5,-500.5 126.5,-500.5 "/>
<text text-anchor="middle" x="74.5" y="-488.5" font-family="Helvetica,sans-Serif" font-size="10.00"> </text>
</a>
</g>
</g>
<!-- Node4&#45;&gt;Node3 -->
<g id="edge3" class="edge">
<title>Node4&#45;&gt;Node3</title>
<path fill="none" stroke="#404040" d="M74.5,-481.21C74.5,-470.24 74.5,-457.78 74.5,-445.81"/>
<polygon fill="none" stroke="#404040" points="74.5,-445.6 70.5,-439.6 74.5,-433.6 78.5,-439.6 74.5,-445.6"/>
<text text-anchor="middle" x="101.5" y="-455" font-family="Helvetica,sans-Serif" font-size="10.00"> +coordinate</text>
</g>
</g>
</svg>
