<?xml version="1.0" encoding="UTF-8" standalone="no"?>
<!DOCTYPE svg PUBLIC "-//W3C//DTD SVG 1.1//EN"
 "http://www.w3.org/Graphics/SVG/1.1/DTD/svg11.dtd">
<!-- Generated by graphviz version 2.49.0 (20210830.1337)
 -->
<!-- Title: guWhiteboard::PlayerNumber_t Pages: 1 -->
<svg width="195pt" height="1110pt"
 viewBox="0.00 0.00 195.00 1110.00" xmlns="http://www.w3.org/2000/svg" xmlns:xlink="http://www.w3.org/1999/xlink">
<g id="graph0" class="graph" transform="scale(1 1) rotate(0) translate(4 1106)">
<title>guWhiteboard::PlayerNumber_t</title>
<!-- Node1 -->
<g id="node1" class="node">
<title>Node1</title>
<g id="a_node1"><a xlink:title="WB Ptr Class: PlayerNumber_t.">
<polygon fill="#bfbfbf" stroke="black" points="0,-0.5 0,-79.5 150,-79.5 150,-0.5 0,-0.5"/>
<text text-anchor="middle" x="75" y="-67.5" font-family="Helvetica,sans-Serif" font-size="10.00">guWhiteboard::PlayerNumber_t</text>
<polyline fill="none" stroke="black" points="0,-60.5 150,-60.5 "/>
<text text-anchor="start" x="8" y="-48.5" font-family="Helvetica,sans-Serif" font-size="10.00">+ slot</text>
<polyline fill="none" stroke="black" points="0,-41.5 150,-41.5 "/>
<text text-anchor="start" x="8" y="-29.5" font-family="Helvetica,sans-Serif" font-size="10.00">+ PlayerNumber_t()</text>
<text text-anchor="start" x="8" y="-18.5" font-family="Helvetica,sans-Serif" font-size="10.00">+ PlayerNumber_t()</text>
<text text-anchor="start" x="8" y="-7.5" font-family="Helvetica,sans-Serif" font-size="10.00">+ eventCounter()</text>
</a>
</g>
</g>
<!-- Node2 -->
<g id="node2" class="node">
<title>Node2</title>
<g id="a_node2"><a xlink:href="classwb__generic__whiteboard__object.html" target="_top" xlink:title=" ">
<polygon fill="none" stroke="black" points="11.5,-117.5 11.5,-229.5 138.5,-229.5 138.5,-117.5 11.5,-117.5"/>
<text text-anchor="start" x="19.5" y="-217.5" font-family="Helvetica,sans-Serif" font-size="10.00">wb_generic_whiteboard</text>
<text text-anchor="middle" x="75" y="-206.5" font-family="Helvetica,sans-Serif" font-size="10.00">_object&lt; int8_t &gt;</text>
<polyline fill="none" stroke="black" points="11.5,-199.5 138.5,-199.5 "/>
<text text-anchor="middle" x="75" y="-187.5" font-family="Helvetica,sans-Serif" font-size="10.00"> </text>
<polyline fill="none" stroke="black" points="11.5,-180.5 138.5,-180.5 "/>
<text text-anchor="start" x="19.5" y="-168.5" font-family="Helvetica,sans-Serif" font-size="10.00">+ wb_generic_whiteboard</text>
<text text-anchor="start" x="19.5" y="-157.5" font-family="Helvetica,sans-Serif" font-size="10.00">_object()</text>
<text text-anchor="start" x="19.5" y="-146.5" font-family="Helvetica,sans-Serif" font-size="10.00">+ wb_generic_whiteboard</text>
<text text-anchor="start" x="19.5" y="-135.5" font-family="Helvetica,sans-Serif" font-size="10.00">_object()</text>
<text text-anchor="start" x="19.5" y="-124.5" font-family="Helvetica,sans-Serif" font-size="10.00">+ init()</text>
</a>
</g>
</g>
<!-- Node2&#45;&gt;Node1 -->
<g id="edge1" class="edge">
<title>Node2&#45;&gt;Node1</title>
<path fill="none" stroke="midnightblue" d="M75,-107.32C75,-97.9 75,-88.47 75,-79.8"/>
<polygon fill="none" stroke="midnightblue" points="71.5,-107.49 75,-117.49 78.5,-107.49 71.5,-107.49"/>
</g>
<!-- Node3 -->
<g id="node3" class="node">
<title>Node3</title>
<g id="a_node3"><a xlink:href="classgeneric__whiteboard__object.html" target="_top" xlink:title="This class allows you to set and get data directly into or out of the local whiteboard in shared memo...">
<polygon fill="none" stroke="black" points="18,-267.5 18,-522.5 132,-522.5 132,-267.5 18,-267.5"/>
<text text-anchor="start" x="26" y="-510.5" font-family="Helvetica,sans-Serif" font-size="10.00">generic_whiteboard</text>
<text text-anchor="middle" x="75" y="-499.5" font-family="Helvetica,sans-Serif" font-size="10.00">_object&lt; object_type &gt;</text>
<polyline fill="none" stroke="black" points="18,-492.5 132,-492.5 "/>
<text text-anchor="start" x="26" y="-480.5" font-family="Helvetica,sans-Serif" font-size="10.00"># type_offset</text>
<text text-anchor="start" x="26" y="-469.5" font-family="Helvetica,sans-Serif" font-size="10.00"># atomic</text>
<text text-anchor="start" x="26" y="-458.5" font-family="Helvetica,sans-Serif" font-size="10.00"># notify_subscribers</text>
<text text-anchor="start" x="26" y="-447.5" font-family="Helvetica,sans-Serif" font-size="10.00"># last_count</text>
<text text-anchor="start" x="26" y="-436.5" font-family="Helvetica,sans-Serif" font-size="10.00"># isFirst</text>
<polyline fill="none" stroke="black" points="18,-429.5 132,-429.5 "/>
<text text-anchor="start" x="26" y="-417.5" font-family="Helvetica,sans-Serif" font-size="10.00">+ generic_whiteboard</text>
<text text-anchor="start" x="26" y="-406.5" font-family="Helvetica,sans-Serif" font-size="10.00">_object()</text>
<text text-anchor="start" x="26" y="-395.5" font-family="Helvetica,sans-Serif" font-size="10.00">+ generic_whiteboard</text>
<text text-anchor="start" x="26" y="-384.5" font-family="Helvetica,sans-Serif" font-size="10.00">_object()</text>
<text text-anchor="start" x="26" y="-373.5" font-family="Helvetica,sans-Serif" font-size="10.00">+ generic_whiteboard</text>
<text text-anchor="start" x="26" y="-362.5" font-family="Helvetica,sans-Serif" font-size="10.00">_object()</text>
<text text-anchor="start" x="26" y="-351.5" font-family="Helvetica,sans-Serif" font-size="10.00">+ init()</text>
<text text-anchor="start" x="26" y="-340.5" font-family="Helvetica,sans-Serif" font-size="10.00">+ set()</text>
<text text-anchor="start" x="26" y="-329.5" font-family="Helvetica,sans-Serif" font-size="10.00">+ get()</text>
<text text-anchor="start" x="26" y="-318.5" font-family="Helvetica,sans-Serif" font-size="10.00">+ get_from()</text>
<text text-anchor="start" x="26" y="-307.5" font-family="Helvetica,sans-Serif" font-size="10.00">+ post()</text>
<text text-anchor="start" x="26" y="-296.5" font-family="Helvetica,sans-Serif" font-size="10.00">+ operator&lt;&lt;()</text>
<text text-anchor="start" x="26" y="-285.5" font-family="Helvetica,sans-Serif" font-size="10.00">+ operator&gt;&gt;()</text>
<text text-anchor="start" x="26" y="-274.5" font-family="Helvetica,sans-Serif" font-size="10.00">and 18 more...</text>
</a>
</g>
</g>
<!-- Node3&#45;&gt;Node2 -->
<g id="edge2" class="edge">
<title>Node3&#45;&gt;Node2</title>
<path fill="none" stroke="midnightblue" d="M75,-257.2C75,-247.63 75,-238.36 75,-229.69"/>
<polygon fill="none" stroke="midnightblue" points="71.5,-257.27 75,-267.27 78.5,-257.27 71.5,-257.27"/>
</g>
<!-- Node4 -->
<g id="node4" class="node">
<title>Node4</title>
<g id="a_node4"><a xlink:href="structgsw__whiteboard__s.html" target="_top" xlink:title="the underlying whiteboard object">
<polygon fill="none" stroke="black" points="26,-570.5 26,-682.5 124,-682.5 124,-570.5 26,-570.5"/>
<text text-anchor="middle" x="75" y="-670.5" font-family="Helvetica,sans-Serif" font-size="10.00">gsw_whiteboard_s</text>
<polyline fill="none" stroke="black" points="26,-663.5 124,-663.5 "/>
<text text-anchor="start" x="34" y="-651.5" font-family="Helvetica,sans-Serif" font-size="10.00">+ sem</text>
<text text-anchor="start" x="34" y="-640.5" font-family="Helvetica,sans-Serif" font-size="10.00">+ fd</text>
<text text-anchor="start" x="34" y="-629.5" font-family="Helvetica,sans-Serif" font-size="10.00">+ callback_queue</text>
<text text-anchor="start" x="34" y="-618.5" font-family="Helvetica,sans-Serif" font-size="10.00">+ context</text>
<text text-anchor="start" x="34" y="-607.5" font-family="Helvetica,sans-Serif" font-size="10.00">+ got_monitor</text>
<text text-anchor="start" x="34" y="-596.5" font-family="Helvetica,sans-Serif" font-size="10.00">+ exit_monitor</text>
<polyline fill="none" stroke="black" points="26,-589.5 124,-589.5 "/>
<text text-anchor="middle" x="75" y="-577.5" font-family="Helvetica,sans-Serif" font-size="10.00"> </text>
</a>
</g>
</g>
<!-- Node4&#45;&gt;Node3 -->
<g id="edge3" class="edge">
<title>Node4&#45;&gt;Node3</title>
<path fill="none" stroke="#404040" d="M75,-570.24C75,-559.18 75,-547.11 75,-534.64"/>
<polygon fill="none" stroke="#404040" points="75,-534.58 71,-528.58 75,-522.58 79,-528.58 75,-534.58"/>
<text text-anchor="middle" x="90.5" y="-544" font-family="Helvetica,sans-Serif" font-size="10.00"> #_wbd</text>
</g>
<!-- Node4&#45;&gt;Node4 -->
<g id="edge6" class="edge">
<title>Node4&#45;&gt;Node4</title>
<path fill="none" stroke="#404040" d="M124.08,-641.02C134.49,-639.54 142,-634.7 142,-626.5 142,-621.89 139.62,-618.34 135.69,-615.85"/>
<polygon fill="none" stroke="#404040" points="135.47,-615.78 128.51,-617.68 124.08,-611.98 131.04,-610.09 135.47,-615.78"/>
<text text-anchor="middle" x="164.5" y="-624" font-family="Helvetica,sans-Serif" font-size="10.00"> +callback</text>
</g>
<!-- Node5 -->
<g id="node5" class="node">
<title>Node5</title>
<g id="a_node5"><a xlink:href="structgsw__simple__whiteboard__s.html" target="_top" xlink:title="the actual whiteboard in shared mem">
<polygon fill="none" stroke="black" points="9.5,-730.5 9.5,-864.5 140.5,-864.5 140.5,-730.5 9.5,-730.5"/>
<text text-anchor="middle" x="75" y="-852.5" font-family="Helvetica,sans-Serif" font-size="10.00">gsw_simple_whiteboard_s</text>
<polyline fill="none" stroke="black" points="9.5,-845.5 140.5,-845.5 "/>
<text text-anchor="start" x="17.5" y="-833.5" font-family="Helvetica,sans-Serif" font-size="10.00">+ version</text>
<text text-anchor="start" x="17.5" y="-822.5" font-family="Helvetica,sans-Serif" font-size="10.00">+ eventcount</text>
<text text-anchor="start" x="17.5" y="-811.5" font-family="Helvetica,sans-Serif" font-size="10.00">+ subscribed</text>
<text text-anchor="start" x="17.5" y="-800.5" font-family="Helvetica,sans-Serif" font-size="10.00">+ num_types</text>
<text text-anchor="start" x="17.5" y="-789.5" font-family="Helvetica,sans-Serif" font-size="10.00">+ indexes</text>
<text text-anchor="start" x="17.5" y="-778.5" font-family="Helvetica,sans-Serif" font-size="10.00">+ event_counters</text>
<text text-anchor="start" x="17.5" y="-767.5" font-family="Helvetica,sans-Serif" font-size="10.00">+ processes</text>
<text text-anchor="start" x="17.5" y="-756.5" font-family="Helvetica,sans-Serif" font-size="10.00">+ magic</text>
<polyline fill="none" stroke="black" points="9.5,-749.5 140.5,-749.5 "/>
<text text-anchor="middle" x="75" y="-737.5" font-family="Helvetica,sans-Serif" font-size="10.00"> </text>
</a>
</g>
</g>
<!-- Node5&#45;&gt;Node4 -->
<g id="edge4" class="edge">
<title>Node5&#45;&gt;Node4</title>
<path fill="none" stroke="#404040" d="M75,-730.19C75,-718.65 75,-706.63 75,-695.05"/>
<polygon fill="none" stroke="#404040" points="75,-694.7 71,-688.7 75,-682.7 79,-688.7 75,-694.7"/>
<text text-anchor="middle" x="86" y="-704" font-family="Helvetica,sans-Serif" font-size="10.00"> +wb</text>
</g>
<!-- Node6 -->
<g id="node6" class="node">
<title>Node6</title>
<g id="a_node6"><a xlink:href="uniongsw__simple__message.html" target="_top" xlink:title="union type that is used to store data in shared memory">
<polygon fill="none" stroke="black" points="18.5,-934.5 18.5,-1101.5 131.5,-1101.5 131.5,-934.5 18.5,-934.5"/>
<text text-anchor="middle" x="75" y="-1089.5" font-family="Helvetica,sans-Serif" font-size="10.00">gsw_simple_message</text>
<polyline fill="none" stroke="black" points="18.5,-1082.5 131.5,-1082.5 "/>
<text text-anchor="start" x="26.5" y="-1070.5" font-family="Helvetica,sans-Serif" font-size="10.00">+ ulonglong</text>
<text text-anchor="start" x="26.5" y="-1059.5" font-family="Helvetica,sans-Serif" font-size="10.00">+ slonglong</text>
<text text-anchor="start" x="26.5" y="-1048.5" font-family="Helvetica,sans-Serif" font-size="10.00">+ ulong</text>
<text text-anchor="start" x="26.5" y="-1037.5" font-family="Helvetica,sans-Serif" font-size="10.00">+ slong</text>
<text text-anchor="start" x="26.5" y="-1026.5" font-family="Helvetica,sans-Serif" font-size="10.00">+ uint</text>
<text text-anchor="start" x="26.5" y="-1015.5" font-family="Helvetica,sans-Serif" font-size="10.00">+ sint</text>
<text text-anchor="start" x="26.5" y="-1004.5" font-family="Helvetica,sans-Serif" font-size="10.00">+ ushort</text>
<text text-anchor="start" x="26.5" y="-993.5" font-family="Helvetica,sans-Serif" font-size="10.00">+ sshort</text>
<text text-anchor="start" x="26.5" y="-982.5" font-family="Helvetica,sans-Serif" font-size="10.00">+ uchar</text>
<text text-anchor="start" x="26.5" y="-971.5" font-family="Helvetica,sans-Serif" font-size="10.00">+ schar</text>
<text text-anchor="start" x="26.5" y="-960.5" font-family="Helvetica,sans-Serif" font-size="10.00">and 65 more...</text>
<polyline fill="none" stroke="black" points="18.5,-953.5 131.5,-953.5 "/>
<text text-anchor="middle" x="75" y="-941.5" font-family="Helvetica,sans-Serif" font-size="10.00"> </text>
</a>
</g>
</g>
<!-- Node6&#45;&gt;Node5 -->
<g id="edge5" class="edge">
<title>Node6&#45;&gt;Node5</title>
<path fill="none" stroke="#404040" d="M75,-934.39C75,-915.46 75,-895.39 75,-876.65"/>
<polygon fill="none" stroke="#404040" points="75,-876.55 71,-870.55 75,-864.55 79,-870.55 75,-876.55"/>
<text text-anchor="middle" x="102" y="-908" font-family="Helvetica,sans-Serif" font-size="10.00"> +hashes</text>
<text text-anchor="middle" x="102" y="-897" font-family="Helvetica,sans-Serif" font-size="10.00">+messages</text>
<text text-anchor="middle" x="102" y="-886" font-family="Helvetica,sans-Serif" font-size="10.00">+typenames</text>
</g>
</g>
</svg>
