<?xml version="1.0" encoding="UTF-8" standalone="no"?>
<!DOCTYPE svg PUBLIC "-//W3C//DTD SVG 1.1//EN"
 "http://www.w3.org/Graphics/SVG/1.1/DTD/svg11.dtd">
<!-- Generated by graphviz version 2.49.0 (20210830.1337)
 -->
<!-- Title: guWhiteboard_gugenericwhiteboardobject.h Pages: 1 -->
<svg width="624pt" height="341pt"
 viewBox="0.00 0.00 623.50 341.00" xmlns="http://www.w3.org/2000/svg" xmlns:xlink="http://www.w3.org/1999/xlink">
<g id="graph0" class="graph" transform="scale(1 1) rotate(0) translate(4 337)">
<title>guWhiteboard_gugenericwhiteboardobject.h</title>
<!-- Node1 -->
<g id="node1" class="node">
<title>Node1</title>
<g id="a_node1"><a xlink:title=" ">
<polygon fill="#bfbfbf" stroke="black" points="185,-313.5 185,-332.5 389,-332.5 389,-313.5 185,-313.5"/>
<text text-anchor="middle" x="287" y="-320.5" font-family="Helvetica,sans-Serif" font-size="10.00">guWhiteboard_gugenericwhiteboardobject.h</text>
</a>
</g>
</g>
<!-- Node2 -->
<g id="node2" class="node">
<title>Node2</title>
<g id="a_node2"><a xlink:href="gu_whiteboard__gugenericwhiteboardobject_8cpp.html" target="_top" xlink:title=" ">
<polygon fill="none" stroke="black" points="90.5,-252 90.5,-271 305.5,-271 305.5,-252 90.5,-252"/>
<text text-anchor="middle" x="198" y="-259" font-family="Helvetica,sans-Serif" font-size="10.00">guWhiteboard_gugenericwhiteboardobject.cpp</text>
</a>
</g>
</g>
<!-- Node1&#45;&gt;Node2 -->
<g id="edge1" class="edge">
<title>Node1&#45;&gt;Node2</title>
<path fill="none" stroke="midnightblue" d="M265.48,-307.61C248.36,-296.17 224.99,-280.55 210.73,-271.01"/>
<polygon fill="midnightblue" stroke="midnightblue" points="263.99,-310.83 274.25,-313.48 267.88,-305.01 263.99,-310.83"/>
</g>
<!-- Node3 -->
<g id="node3" class="node">
<title>Node3</title>
<g id="a_node3"><a xlink:href="guwhiteboardtypelist__generated_8h.html" target="_top" xlink:title=" ">
<polygon fill="none" stroke="black" points="323.5,-246.5 323.5,-276.5 428.5,-276.5 428.5,-246.5 323.5,-246.5"/>
<text text-anchor="start" x="331.5" y="-264.5" font-family="Helvetica,sans-Serif" font-size="10.00">guwhiteboardtypelist</text>
<text text-anchor="middle" x="376" y="-253.5" font-family="Helvetica,sans-Serif" font-size="10.00">_generated.h</text>
</a>
</g>
</g>
<!-- Node1&#45;&gt;Node3 -->
<g id="edge2" class="edge">
<title>Node1&#45;&gt;Node3</title>
<path fill="none" stroke="midnightblue" d="M308.33,-307.74C322.48,-298.28 340.95,-285.93 355.02,-276.52"/>
<polygon fill="midnightblue" stroke="midnightblue" points="306.12,-305.01 299.75,-313.48 310.01,-310.83 306.12,-305.01"/>
</g>
<!-- Node4 -->
<g id="node4" class="node">
<title>Node4</title>
<g id="a_node4"><a xlink:href="_w_b_functor_8h.html" target="_top" xlink:title=" ">
<polygon fill="none" stroke="black" points="214.5,-190.5 214.5,-209.5 287.5,-209.5 287.5,-190.5 214.5,-190.5"/>
<text text-anchor="middle" x="251" y="-197.5" font-family="Helvetica,sans-Serif" font-size="10.00">WBFunctor.h</text>
</a>
</g>
</g>
<!-- Node3&#45;&gt;Node4 -->
<g id="edge3" class="edge">
<title>Node3&#45;&gt;Node4</title>
<path fill="none" stroke="midnightblue" d="M337.31,-242.08C314.61,-231.28 286.97,-218.12 269.19,-209.66"/>
<polygon fill="midnightblue" stroke="midnightblue" points="335.84,-245.26 346.38,-246.4 338.85,-238.94 335.84,-245.26"/>
</g>
<!-- Node9 -->
<g id="node9" class="node">
<title>Node9</title>
<g id="a_node9"><a xlink:href="guwhiteboardwatcher_8h.html" target="_top" xlink:title=" ">
<polygon fill="none" stroke="black" points="293,-134.5 293,-153.5 409,-153.5 409,-134.5 293,-134.5"/>
<text text-anchor="middle" x="351" y="-141.5" font-family="Helvetica,sans-Serif" font-size="10.00">guwhiteboardwatcher.h</text>
</a>
</g>
</g>
<!-- Node3&#45;&gt;Node9 -->
<g id="edge14" class="edge">
<title>Node3&#45;&gt;Node9</title>
<path fill="none" stroke="midnightblue" d="M362.3,-237.06C358.17,-228.79 354.16,-219.24 352,-210 347.38,-190.22 348.76,-166.12 349.99,-153.55"/>
<polygon fill="midnightblue" stroke="midnightblue" points="359.32,-238.9 367.1,-246.09 365.5,-235.62 359.32,-238.9"/>
</g>
<!-- Node12 -->
<g id="node12" class="node">
<title>Node12</title>
<g id="a_node12"><a xlink:href="guwhiteboardgetter_8cpp.html" target="_top" xlink:title=" ">
<polygon fill="none" stroke="black" points="361.5,-190.5 361.5,-209.5 478.5,-209.5 478.5,-190.5 361.5,-190.5"/>
<text text-anchor="middle" x="420" y="-197.5" font-family="Helvetica,sans-Serif" font-size="10.00">guwhiteboardgetter.cpp</text>
</a>
</g>
</g>
<!-- Node3&#45;&gt;Node12 -->
<g id="edge12" class="edge">
<title>Node3&#45;&gt;Node12</title>
<path fill="none" stroke="midnightblue" d="M392.56,-238.1C399.9,-228.19 408.09,-217.11 413.6,-209.66"/>
<polygon fill="midnightblue" stroke="midnightblue" points="389.56,-236.28 386.43,-246.4 395.19,-240.44 389.56,-236.28"/>
</g>
<!-- Node13 -->
<g id="node13" class="node">
<title>Node13</title>
<g id="a_node13"><a xlink:href="guwhiteboardposter_8cpp.html" target="_top" xlink:title=" ">
<polygon fill="none" stroke="black" points="496.5,-190.5 496.5,-209.5 615.5,-209.5 615.5,-190.5 496.5,-190.5"/>
<text text-anchor="middle" x="556" y="-197.5" font-family="Helvetica,sans-Serif" font-size="10.00">guwhiteboardposter.cpp</text>
</a>
</g>
</g>
<!-- Node3&#45;&gt;Node13 -->
<g id="edge13" class="edge">
<title>Node3&#45;&gt;Node13</title>
<path fill="none" stroke="midnightblue" d="M428.28,-243.22C461.7,-232.17 503.58,-218.33 530.07,-209.57"/>
<polygon fill="midnightblue" stroke="midnightblue" points="427.05,-239.94 418.66,-246.4 429.25,-246.58 427.05,-239.94"/>
</g>
<!-- Node5 -->
<g id="node5" class="node">
<title>Node5</title>
<g id="a_node5"><a xlink:href="_remote_whiteboard_8h.html" target="_top" xlink:title=" ">
<polygon fill="none" stroke="black" points="2.5,-73 2.5,-92 153.5,-92 153.5,-73 2.5,-73"/>
<text text-anchor="middle" x="78" y="-80" font-family="Helvetica,sans-Serif" font-size="10.00">OLD_WB/RemoteWhiteboard.h</text>
</a>
</g>
</g>
<!-- Node4&#45;&gt;Node5 -->
<g id="edge4" class="edge">
<title>Node4&#45;&gt;Node5</title>
<path fill="none" stroke="midnightblue" d="M214.56,-186.94C194.03,-179.22 168.48,-168.02 148,-154 121.53,-135.87 96.57,-106.87 84.9,-92.37"/>
<polygon fill="midnightblue" stroke="midnightblue" points="213.6,-190.31 224.2,-190.44 216,-183.73 213.6,-190.31"/>
</g>
<!-- Node7 -->
<g id="node7" class="node">
<title>Node7</title>
<g id="a_node7"><a xlink:href="_whiteboard_8h.html" target="_top" xlink:title=" ">
<polygon fill="none" stroke="black" points="157.5,-134.5 157.5,-153.5 274.5,-153.5 274.5,-134.5 157.5,-134.5"/>
<text text-anchor="middle" x="216" y="-141.5" font-family="Helvetica,sans-Serif" font-size="10.00">OLD_WB/Whiteboard.h</text>
</a>
</g>
</g>
<!-- Node4&#45;&gt;Node7 -->
<g id="edge6" class="edge">
<title>Node4&#45;&gt;Node7</title>
<path fill="none" stroke="midnightblue" d="M239.7,-181.57C233.68,-172.27 226.53,-161.25 221.67,-153.75"/>
<polygon fill="midnightblue" stroke="midnightblue" points="236.84,-183.6 245.22,-190.08 242.72,-179.79 236.84,-183.6"/>
</g>
<!-- Node4&#45;&gt;Node9 -->
<g id="edge9" class="edge">
<title>Node4&#45;&gt;Node9</title>
<path fill="none" stroke="midnightblue" d="M276.09,-185.45C294.55,-175.48 319.1,-162.23 334.97,-153.65"/>
<polygon fill="midnightblue" stroke="midnightblue" points="274.2,-182.49 267.07,-190.32 277.53,-188.65 274.2,-182.49"/>
</g>
<!-- Node6 -->
<g id="node6" class="node">
<title>Node6</title>
<g id="a_node6"><a xlink:href="_remote_whiteboard_8cc.html" target="_top" xlink:title=" ">
<polygon fill="none" stroke="black" points="0,-6 0,-25 156,-25 156,-6 0,-6"/>
<text text-anchor="middle" x="78" y="-13" font-family="Helvetica,sans-Serif" font-size="10.00">OLD_WB/RemoteWhiteboard.cc</text>
</a>
</g>
</g>
<!-- Node5&#45;&gt;Node6 -->
<g id="edge5" class="edge">
<title>Node5&#45;&gt;Node6</title>
<path fill="none" stroke="midnightblue" d="M78,-62.54C78,-50.17 78,-34.62 78,-25.13"/>
<polygon fill="midnightblue" stroke="midnightblue" points="74.5,-62.73 78,-72.73 81.5,-62.73 74.5,-62.73"/>
</g>
<!-- Node7&#45;&gt;Node5 -->
<g id="edge7" class="edge">
<title>Node7&#45;&gt;Node5</title>
<path fill="none" stroke="midnightblue" d="M186.96,-130.48C160.16,-118.92 121.08,-102.08 97.74,-92.01"/>
<polygon fill="midnightblue" stroke="midnightblue" points="185.66,-133.73 196.23,-134.48 188.43,-127.3 185.66,-133.73"/>
</g>
<!-- Node8 -->
<g id="node8" class="node">
<title>Node8</title>
<g id="a_node8"><a xlink:href="_whiteboard_8cc.html" target="_top" xlink:title=" ">
<polygon fill="none" stroke="black" points="172,-73 172,-92 294,-92 294,-73 172,-73"/>
<text text-anchor="middle" x="233" y="-80" font-family="Helvetica,sans-Serif" font-size="10.00">OLD_WB/Whiteboard.cc</text>
</a>
</g>
</g>
<!-- Node7&#45;&gt;Node8 -->
<g id="edge8" class="edge">
<title>Node7&#45;&gt;Node8</title>
<path fill="none" stroke="midnightblue" d="M221.24,-124.66C224.35,-113.77 228.15,-100.49 230.57,-92.01"/>
<polygon fill="midnightblue" stroke="midnightblue" points="217.82,-123.9 218.44,-134.48 224.55,-125.82 217.82,-123.9"/>
</g>
<!-- Node10 -->
<g id="node10" class="node">
<title>Node10</title>
<g id="a_node10"><a xlink:href="_simple_whiteboard_test_8h.html" target="_top" xlink:title=" ">
<polygon fill="none" stroke="black" points="312.5,-67.5 312.5,-97.5 437.5,-97.5 437.5,-67.5 312.5,-67.5"/>
<text text-anchor="start" x="320.5" y="-85.5" font-family="Helvetica,sans-Serif" font-size="10.00">SimpleWhiteboardTest</text>
<text text-anchor="middle" x="375" y="-74.5" font-family="Helvetica,sans-Serif" font-size="10.00">/SimpleWhiteboardTest.h</text>
</a>
</g>
</g>
<!-- Node9&#45;&gt;Node10 -->
<g id="edge10" class="edge">
<title>Node9&#45;&gt;Node10</title>
<path fill="none" stroke="midnightblue" d="M358.22,-125.1C361.78,-116.27 366.02,-105.77 369.34,-97.52"/>
<polygon fill="midnightblue" stroke="midnightblue" points="354.93,-123.89 354.44,-134.48 361.43,-126.51 354.93,-123.89"/>
</g>
<!-- Node11 -->
<g id="node11" class="node">
<title>Node11</title>
<g id="a_node11"><a xlink:href="_simple_whiteboard_test_8mm.html" target="_top" xlink:title=" ">
<polygon fill="none" stroke="black" points="306.5,-0.5 306.5,-30.5 443.5,-30.5 443.5,-0.5 306.5,-0.5"/>
<text text-anchor="start" x="314.5" y="-18.5" font-family="Helvetica,sans-Serif" font-size="10.00">SimpleWhiteboardTest</text>
<text text-anchor="middle" x="375" y="-7.5" font-family="Helvetica,sans-Serif" font-size="10.00">/SimpleWhiteboardTest.mm</text>
</a>
</g>
</g>
<!-- Node10&#45;&gt;Node11 -->
<g id="edge11" class="edge">
<title>Node10&#45;&gt;Node11</title>
<path fill="none" stroke="midnightblue" d="M375,-57.11C375,-48.15 375,-38.32 375,-30.58"/>
<polygon fill="midnightblue" stroke="midnightblue" points="371.5,-57.4 375,-67.4 378.5,-57.4 371.5,-57.4"/>
</g>
</g>
</svg>
