<?xml version="1.0" encoding="UTF-8" standalone="no"?>
<!DOCTYPE svg PUBLIC "-//W3C//DTD SVG 1.1//EN"
 "http://www.w3.org/Graphics/SVG/1.1/DTD/svg11.dtd">
<!-- Generated by graphviz version 2.49.0 (20210830.1337)
 -->
<!-- Title: gugenericwhiteboardobject.cpp Pages: 1 -->
<svg width="653pt" height="196pt"
 viewBox="0.00 0.00 653.00 196.00" xmlns="http://www.w3.org/2000/svg" xmlns:xlink="http://www.w3.org/1999/xlink">
<g id="graph0" class="graph" transform="scale(1 1) rotate(0) translate(4 192)">
<title>gugenericwhiteboardobject.cpp</title>
<!-- Node1 -->
<g id="node1" class="node">
<title>Node1</title>
<g id="a_node1"><a xlink:title=" ">
<polygon fill="#bfbfbf" stroke="black" points="431.5,-168.5 431.5,-187.5 581.5,-187.5 581.5,-168.5 431.5,-168.5"/>
<text text-anchor="middle" x="506.5" y="-175.5" font-family="Helvetica,sans-Serif" font-size="10.00">gugenericwhiteboardobject.cpp</text>
</a>
</g>
</g>
<!-- Node2 -->
<g id="node2" class="node">
<title>Node2</title>
<g id="a_node2"><a xlink:href="gugenericwhiteboardobject_8h.html" target="_top" xlink:title=" ">
<polygon fill="none" stroke="black" points="387.5,-112.5 387.5,-131.5 527.5,-131.5 527.5,-112.5 387.5,-112.5"/>
<text text-anchor="middle" x="457.5" y="-119.5" font-family="Helvetica,sans-Serif" font-size="10.00">gugenericwhiteboardobject.h</text>
</a>
</g>
</g>
<!-- Node1&#45;&gt;Node2 -->
<g id="edge1" class="edge">
<title>Node1&#45;&gt;Node2</title>
<path fill="none" stroke="midnightblue" d="M498.41,-168.08C491.34,-160.3 480.91,-148.8 472.35,-139.37"/>
<polygon fill="midnightblue" stroke="midnightblue" points="474.75,-136.8 465.44,-131.75 469.57,-141.51 474.75,-136.8"/>
</g>
<!-- Node13 -->
<g id="node13" class="node">
<title>Node13</title>
<g id="a_node13"><a xlink:title=" ">
<polygon fill="none" stroke="#bfbfbf" points="592,-56.5 592,-75.5 645,-75.5 645,-56.5 592,-56.5"/>
<text text-anchor="middle" x="618.5" y="-63.5" font-family="Helvetica,sans-Serif" font-size="10.00">gu_util.h</text>
</a>
</g>
</g>
<!-- Node1&#45;&gt;Node13 -->
<g id="edge13" class="edge">
<title>Node1&#45;&gt;Node13</title>
<path fill="none" stroke="midnightblue" d="M515.29,-168.37C534.1,-149.89 578.49,-106.29 602.47,-82.74"/>
<polygon fill="midnightblue" stroke="midnightblue" points="605.07,-85.1 609.75,-75.59 600.17,-80.1 605.07,-85.1"/>
</g>
<!-- Node3 -->
<g id="node3" class="node">
<title>Node3</title>
<g id="a_node3"><a xlink:href="gusimplewhiteboard_8h.html" target="_top" xlink:title=" ">
<polygon fill="none" stroke="black" points="134.5,-56.5 134.5,-75.5 244.5,-75.5 244.5,-56.5 134.5,-56.5"/>
<text text-anchor="middle" x="189.5" y="-63.5" font-family="Helvetica,sans-Serif" font-size="10.00">gusimplewhiteboard.h</text>
</a>
</g>
</g>
<!-- Node2&#45;&gt;Node3 -->
<g id="edge2" class="edge">
<title>Node2&#45;&gt;Node3</title>
<path fill="none" stroke="midnightblue" d="M415.03,-112.44C368.09,-102.98 292.42,-87.74 241.85,-77.55"/>
<polygon fill="midnightblue" stroke="midnightblue" points="242.26,-74.06 231.77,-75.52 240.88,-80.92 242.26,-74.06"/>
</g>
<!-- Node8 -->
<g id="node8" class="node">
<title>Node8</title>
<g id="a_node8"><a xlink:title=" ">
<polygon fill="none" stroke="#bfbfbf" points="263,-56.5 263,-75.5 312,-75.5 312,-56.5 263,-56.5"/>
<text text-anchor="middle" x="287.5" y="-63.5" font-family="Helvetica,sans-Serif" font-size="10.00">cstddef</text>
</a>
</g>
</g>
<!-- Node2&#45;&gt;Node8 -->
<g id="edge7" class="edge">
<title>Node2&#45;&gt;Node8</title>
<path fill="none" stroke="midnightblue" d="M430.56,-112.44C401.16,-103.1 354.01,-88.13 321.94,-77.94"/>
<polygon fill="midnightblue" stroke="midnightblue" points="322.69,-74.51 312.1,-74.82 320.57,-81.18 322.69,-74.51"/>
</g>
<!-- Node9 -->
<g id="node9" class="node">
<title>Node9</title>
<g id="a_node9"><a xlink:title=" ">
<polygon fill="none" stroke="#bfbfbf" points="330,-56.5 330,-75.5 379,-75.5 379,-56.5 330,-56.5"/>
<text text-anchor="middle" x="354.5" y="-63.5" font-family="Helvetica,sans-Serif" font-size="10.00">cassert</text>
</a>
</g>
</g>
<!-- Node2&#45;&gt;Node9 -->
<g id="edge8" class="edge">
<title>Node2&#45;&gt;Node9</title>
<path fill="none" stroke="midnightblue" d="M440.95,-112.32C424.51,-103.7 399.07,-90.36 380.03,-80.39"/>
<polygon fill="midnightblue" stroke="midnightblue" points="381.49,-77.2 371.01,-75.65 378.24,-83.4 381.49,-77.2"/>
</g>
<!-- Node10 -->
<g id="node10" class="node">
<title>Node10</title>
<g id="a_node10"><a xlink:title=" ">
<polygon fill="none" stroke="#bfbfbf" points="397.5,-56.5 397.5,-75.5 451.5,-75.5 451.5,-56.5 397.5,-56.5"/>
<text text-anchor="middle" x="424.5" y="-63.5" font-family="Helvetica,sans-Serif" font-size="10.00">iostream</text>
</a>
</g>
</g>
<!-- Node2&#45;&gt;Node10 -->
<g id="edge9" class="edge">
<title>Node2&#45;&gt;Node10</title>
<path fill="none" stroke="midnightblue" d="M452.05,-112.08C447.49,-104.61 440.83,-93.72 435.21,-84.52"/>
<polygon fill="midnightblue" stroke="midnightblue" points="438.05,-82.46 429.85,-75.75 432.08,-86.11 438.05,-82.46"/>
</g>
<!-- Node11 -->
<g id="node11" class="node">
<title>Node11</title>
<g id="a_node11"><a xlink:title=" ">
<polygon fill="none" stroke="#bfbfbf" points="470,-56.5 470,-75.5 511,-75.5 511,-56.5 470,-56.5"/>
<text text-anchor="middle" x="490.5" y="-63.5" font-family="Helvetica,sans-Serif" font-size="10.00">string</text>
</a>
</g>
</g>
<!-- Node2&#45;&gt;Node11 -->
<g id="edge10" class="edge">
<title>Node2&#45;&gt;Node11</title>
<path fill="none" stroke="midnightblue" d="M462.95,-112.08C467.51,-104.61 474.17,-93.72 479.79,-84.52"/>
<polygon fill="midnightblue" stroke="midnightblue" points="482.92,-86.11 485.15,-75.75 476.95,-82.46 482.92,-86.11"/>
</g>
<!-- Node12 -->
<g id="node12" class="node">
<title>Node12</title>
<g id="a_node12"><a xlink:title=" ">
<polygon fill="none" stroke="#bfbfbf" points="529.5,-56.5 529.5,-75.5 573.5,-75.5 573.5,-56.5 529.5,-56.5"/>
<text text-anchor="middle" x="551.5" y="-63.5" font-family="Helvetica,sans-Serif" font-size="10.00">vector</text>
</a>
</g>
</g>
<!-- Node2&#45;&gt;Node12 -->
<g id="edge11" class="edge">
<title>Node2&#45;&gt;Node12</title>
<path fill="none" stroke="midnightblue" d="M472.6,-112.32C487.4,-103.82 510.19,-90.73 527.48,-80.8"/>
<polygon fill="midnightblue" stroke="midnightblue" points="529.51,-83.67 536.43,-75.65 526.02,-77.6 529.51,-83.67"/>
</g>
<!-- Node2&#45;&gt;Node13 -->
<g id="edge12" class="edge">
<title>Node2&#45;&gt;Node13</title>
<path fill="none" stroke="midnightblue" d="M483.01,-112.44C510.1,-103.36 553.09,-88.94 583.37,-78.78"/>
<polygon fill="midnightblue" stroke="midnightblue" points="584.74,-82.01 593.11,-75.52 582.51,-75.38 584.74,-82.01"/>
</g>
<!-- Node4 -->
<g id="node4" class="node">
<title>Node4</title>
<g id="a_node4"><a xlink:title=" ">
<polygon fill="none" stroke="#bfbfbf" points="0,-0.5 0,-19.5 101,-19.5 101,-0.5 0,-0.5"/>
<text text-anchor="middle" x="50.5" y="-7.5" font-family="Helvetica,sans-Serif" font-size="10.00">dispatch/dispatch.h</text>
</a>
</g>
</g>
<!-- Node3&#45;&gt;Node4 -->
<g id="edge3" class="edge">
<title>Node3&#45;&gt;Node4</title>
<path fill="none" stroke="midnightblue" d="M167.48,-56.44C144.4,-47.48 107.94,-33.31 81.86,-23.18"/>
<polygon fill="midnightblue" stroke="midnightblue" points="83.01,-19.88 72.42,-19.52 80.48,-26.4 83.01,-19.88"/>
</g>
<!-- Node5 -->
<g id="node5" class="node">
<title>Node5</title>
<g id="a_node5"><a xlink:title=" ">
<polygon fill="none" stroke="#bfbfbf" points="119,-0.5 119,-19.5 184,-19.5 184,-0.5 119,-0.5"/>
<text text-anchor="middle" x="151.5" y="-7.5" font-family="Helvetica,sans-Serif" font-size="10.00">sys/types.h</text>
</a>
</g>
</g>
<!-- Node3&#45;&gt;Node5 -->
<g id="edge4" class="edge">
<title>Node3&#45;&gt;Node5</title>
<path fill="none" stroke="midnightblue" d="M183.23,-56.08C177.86,-48.46 169.98,-37.26 163.42,-27.94"/>
<polygon fill="midnightblue" stroke="midnightblue" points="166.28,-25.91 157.66,-19.75 160.55,-29.94 166.28,-25.91"/>
</g>
<!-- Node6 -->
<g id="node6" class="node">
<title>Node6</title>
<g id="a_node6"><a xlink:title=" ">
<polygon fill="none" stroke="#bfbfbf" points="202,-0.5 202,-19.5 255,-19.5 255,-0.5 202,-0.5"/>
<text text-anchor="middle" x="228.5" y="-7.5" font-family="Helvetica,sans-Serif" font-size="10.00">cstdbool</text>
</a>
</g>
</g>
<!-- Node3&#45;&gt;Node6 -->
<g id="edge5" class="edge">
<title>Node3&#45;&gt;Node6</title>
<path fill="none" stroke="midnightblue" d="M195.94,-56.08C201.45,-48.46 209.53,-37.26 216.26,-27.94"/>
<polygon fill="midnightblue" stroke="midnightblue" points="219.16,-29.91 222.18,-19.75 213.49,-25.81 219.16,-29.91"/>
</g>
<!-- Node7 -->
<g id="node7" class="node">
<title>Node7</title>
<g id="a_node7"><a xlink:title=" ">
<polygon fill="none" stroke="#bfbfbf" points="273.5,-0.5 273.5,-19.5 323.5,-19.5 323.5,-0.5 273.5,-0.5"/>
<text text-anchor="middle" x="298.5" y="-7.5" font-family="Helvetica,sans-Serif" font-size="10.00">unistd.h</text>
</a>
</g>
</g>
<!-- Node3&#45;&gt;Node7 -->
<g id="edge6" class="edge">
<title>Node3&#45;&gt;Node7</title>
<path fill="none" stroke="midnightblue" d="M207.01,-56.32C224.57,-47.62 251.83,-34.12 272.03,-24.11"/>
<polygon fill="midnightblue" stroke="midnightblue" points="273.62,-27.23 281.03,-19.65 270.52,-20.96 273.62,-27.23"/>
</g>
</g>
</svg>
