<?xml version="1.0" encoding="UTF-8" standalone="no"?>
<!DOCTYPE svg PUBLIC "-//W3C//DTD SVG 1.1//EN"
 "http://www.w3.org/Graphics/SVG/1.1/DTD/svg11.dtd">
<!-- Generated by graphviz version 2.49.0 (20210830.1337)
 -->
<!-- Title: gugenericwhiteboardobject.h Pages: 1 -->
<svg width="583pt" height="397pt"
 viewBox="0.00 0.00 582.50 397.00" xmlns="http://www.w3.org/2000/svg" xmlns:xlink="http://www.w3.org/1999/xlink">
<g id="graph0" class="graph" transform="scale(1 1) rotate(0) translate(4 393)">
<title>gugenericwhiteboardobject.h</title>
<!-- Node1 -->
<g id="node1" class="node">
<title>Node1</title>
<g id="a_node1"><a xlink:title=" ">
<polygon fill="#bfbfbf" stroke="black" points="85.5,-369.5 85.5,-388.5 225.5,-388.5 225.5,-369.5 85.5,-369.5"/>
<text text-anchor="middle" x="155.5" y="-376.5" font-family="Helvetica,sans-Serif" font-size="10.00">gugenericwhiteboardobject.h</text>
</a>
</g>
</g>
<!-- Node2 -->
<g id="node2" class="node">
<title>Node2</title>
<g id="a_node2"><a xlink:href="_simple_whiteboard_test_8h.html" target="_top" xlink:title=" ">
<polygon fill="none" stroke="black" points="6,-67.5 6,-97.5 131,-97.5 131,-67.5 6,-67.5"/>
<text text-anchor="start" x="14" y="-85.5" font-family="Helvetica,sans-Serif" font-size="10.00">SimpleWhiteboardTest</text>
<text text-anchor="middle" x="68.5" y="-74.5" font-family="Helvetica,sans-Serif" font-size="10.00">/SimpleWhiteboardTest.h</text>
</a>
</g>
</g>
<!-- Node1&#45;&gt;Node2 -->
<g id="edge1" class="edge">
<title>Node1&#45;&gt;Node2</title>
<path fill="none" stroke="midnightblue" d="M99.97,-366.45C80.01,-359.74 58.89,-349.26 44.5,-333 22.99,-308.7 25.5,-294.95 25.5,-262.5 25.5,-262.5 25.5,-262.5 25.5,-199 25.5,-160.49 46.76,-119.03 59.38,-97.81"/>
<polygon fill="midnightblue" stroke="midnightblue" points="99.05,-369.83 109.64,-369.46 101.13,-363.15 99.05,-369.83"/>
</g>
<!-- Node4 -->
<g id="node4" class="node">
<title>Node4</title>
<g id="a_node4"><a xlink:href="gu_whiteboard__gugenericwhiteboardobject_8h.html" target="_top" xlink:title=" ">
<polygon fill="none" stroke="black" points="53.5,-313.5 53.5,-332.5 257.5,-332.5 257.5,-313.5 53.5,-313.5"/>
<text text-anchor="middle" x="155.5" y="-320.5" font-family="Helvetica,sans-Serif" font-size="10.00">guWhiteboard_gugenericwhiteboardobject.h</text>
</a>
</g>
</g>
<!-- Node1&#45;&gt;Node4 -->
<g id="edge3" class="edge">
<title>Node1&#45;&gt;Node4</title>
<path fill="none" stroke="midnightblue" d="M155.5,-358.8C155.5,-349.91 155.5,-339.78 155.5,-332.75"/>
<polygon fill="midnightblue" stroke="midnightblue" points="152,-359.08 155.5,-369.08 159,-359.08 152,-359.08"/>
</g>
<!-- Node15 -->
<g id="node15" class="node">
<title>Node15</title>
<g id="a_node15"><a xlink:href="gugenericwhiteboardobject_8cpp.html" target="_top" xlink:title=" ">
<polygon fill="none" stroke="black" points="275.5,-313.5 275.5,-332.5 425.5,-332.5 425.5,-313.5 275.5,-313.5"/>
<text text-anchor="middle" x="350.5" y="-320.5" font-family="Helvetica,sans-Serif" font-size="10.00">gugenericwhiteboardobject.cpp</text>
</a>
</g>
</g>
<!-- Node1&#45;&gt;Node15 -->
<g id="edge17" class="edge">
<title>Node1&#45;&gt;Node15</title>
<path fill="none" stroke="midnightblue" d="M196.31,-366.7C233.11,-356.51 286.43,-341.74 319.75,-332.52"/>
<polygon fill="midnightblue" stroke="midnightblue" points="195.1,-363.4 186.4,-369.44 196.97,-370.15 195.1,-363.4"/>
</g>
<!-- Node3 -->
<g id="node3" class="node">
<title>Node3</title>
<g id="a_node3"><a xlink:href="_simple_whiteboard_test_8mm.html" target="_top" xlink:title=" ">
<polygon fill="none" stroke="black" points="0,-0.5 0,-30.5 137,-30.5 137,-0.5 0,-0.5"/>
<text text-anchor="start" x="8" y="-18.5" font-family="Helvetica,sans-Serif" font-size="10.00">SimpleWhiteboardTest</text>
<text text-anchor="middle" x="68.5" y="-7.5" font-family="Helvetica,sans-Serif" font-size="10.00">/SimpleWhiteboardTest.mm</text>
</a>
</g>
</g>
<!-- Node2&#45;&gt;Node3 -->
<g id="edge2" class="edge">
<title>Node2&#45;&gt;Node3</title>
<path fill="none" stroke="midnightblue" d="M68.5,-57.11C68.5,-48.15 68.5,-38.32 68.5,-30.58"/>
<polygon fill="midnightblue" stroke="midnightblue" points="65,-57.4 68.5,-67.4 72,-57.4 65,-57.4"/>
</g>
<!-- Node5 -->
<g id="node5" class="node">
<title>Node5</title>
<g id="a_node5"><a xlink:href="gu_whiteboard__gugenericwhiteboardobject_8cpp.html" target="_top" xlink:title=" ">
<polygon fill="none" stroke="black" points="224,-252 224,-271 439,-271 439,-252 224,-252"/>
<text text-anchor="middle" x="331.5" y="-259" font-family="Helvetica,sans-Serif" font-size="10.00">guWhiteboard_gugenericwhiteboardobject.cpp</text>
</a>
</g>
</g>
<!-- Node4&#45;&gt;Node5 -->
<g id="edge4" class="edge">
<title>Node4&#45;&gt;Node5</title>
<path fill="none" stroke="midnightblue" d="M190.31,-310.23C224.52,-298.67 275.9,-281.3 306.33,-271.01"/>
<polygon fill="midnightblue" stroke="midnightblue" points="189.07,-306.96 180.72,-313.48 191.31,-313.59 189.07,-306.96"/>
</g>
<!-- Node6 -->
<g id="node6" class="node">
<title>Node6</title>
<g id="a_node6"><a xlink:href="guwhiteboardtypelist__generated_8h.html" target="_top" xlink:title=" ">
<polygon fill="none" stroke="black" points="101,-246.5 101,-276.5 206,-276.5 206,-246.5 101,-246.5"/>
<text text-anchor="start" x="109" y="-264.5" font-family="Helvetica,sans-Serif" font-size="10.00">guwhiteboardtypelist</text>
<text text-anchor="middle" x="153.5" y="-253.5" font-family="Helvetica,sans-Serif" font-size="10.00">_generated.h</text>
</a>
</g>
</g>
<!-- Node4&#45;&gt;Node6 -->
<g id="edge5" class="edge">
<title>Node4&#45;&gt;Node6</title>
<path fill="none" stroke="midnightblue" d="M154.87,-303.23C154.58,-294.59 154.24,-284.5 153.97,-276.52"/>
<polygon fill="midnightblue" stroke="midnightblue" points="151.38,-303.6 155.21,-313.48 158.38,-303.36 151.38,-303.6"/>
</g>
<!-- Node7 -->
<g id="node7" class="node">
<title>Node7</title>
<g id="a_node7"><a xlink:href="_w_b_functor_8h.html" target="_top" xlink:title=" ">
<polygon fill="none" stroke="black" points="366,-190.5 366,-209.5 439,-209.5 439,-190.5 366,-190.5"/>
<text text-anchor="middle" x="402.5" y="-197.5" font-family="Helvetica,sans-Serif" font-size="10.00">WBFunctor.h</text>
</a>
</g>
</g>
<!-- Node6&#45;&gt;Node7 -->
<g id="edge6" class="edge">
<title>Node6&#45;&gt;Node7</title>
<path fill="none" stroke="midnightblue" d="M215.92,-245.59C263.6,-234.19 327.63,-218.89 366.93,-209.5"/>
<polygon fill="midnightblue" stroke="midnightblue" points="214.91,-242.23 206,-247.95 216.54,-249.03 214.91,-242.23"/>
</g>
<!-- Node12 -->
<g id="node12" class="node">
<title>Node12</title>
<g id="a_node12"><a xlink:href="guwhiteboardwatcher_8h.html" target="_top" xlink:title=" ">
<polygon fill="none" stroke="black" points="53.5,-134.5 53.5,-153.5 169.5,-153.5 169.5,-134.5 53.5,-134.5"/>
<text text-anchor="middle" x="111.5" y="-141.5" font-family="Helvetica,sans-Serif" font-size="10.00">guwhiteboardwatcher.h</text>
</a>
</g>
</g>
<!-- Node6&#45;&gt;Node12 -->
<g id="edge16" class="edge">
<title>Node6&#45;&gt;Node12</title>
<path fill="none" stroke="midnightblue" d="M114.09,-241.01C102.4,-233.11 90.99,-222.78 84.5,-210 74.55,-190.38 91.94,-166.22 103.14,-153.6"/>
<polygon fill="midnightblue" stroke="midnightblue" points="112.26,-243.99 122.59,-246.34 115.98,-238.06 112.26,-243.99"/>
</g>
<!-- Node13 -->
<g id="node13" class="node">
<title>Node13</title>
<g id="a_node13"><a xlink:href="guwhiteboardgetter_8cpp.html" target="_top" xlink:title=" ">
<polygon fill="none" stroke="black" points="94,-190.5 94,-209.5 211,-209.5 211,-190.5 94,-190.5"/>
<text text-anchor="middle" x="152.5" y="-197.5" font-family="Helvetica,sans-Serif" font-size="10.00">guwhiteboardgetter.cpp</text>
</a>
</g>
</g>
<!-- Node6&#45;&gt;Node13 -->
<g id="edge14" class="edge">
<title>Node6&#45;&gt;Node13</title>
<path fill="none" stroke="midnightblue" d="M153.09,-236.29C152.93,-226.86 152.76,-216.65 152.65,-209.66"/>
<polygon fill="midnightblue" stroke="midnightblue" points="149.6,-236.46 153.26,-246.4 156.59,-236.34 149.6,-236.46"/>
</g>
<!-- Node14 -->
<g id="node14" class="node">
<title>Node14</title>
<g id="a_node14"><a xlink:href="guwhiteboardposter_8cpp.html" target="_top" xlink:title=" ">
<polygon fill="none" stroke="black" points="229,-190.5 229,-209.5 348,-209.5 348,-190.5 229,-190.5"/>
<text text-anchor="middle" x="288.5" y="-197.5" font-family="Helvetica,sans-Serif" font-size="10.00">guwhiteboardposter.cpp</text>
</a>
</g>
</g>
<!-- Node6&#45;&gt;Node14 -->
<g id="edge15" class="edge">
<title>Node6&#45;&gt;Node14</title>
<path fill="none" stroke="midnightblue" d="M194.96,-242.23C219.54,-231.39 249.57,-218.16 268.86,-209.66"/>
<polygon fill="midnightblue" stroke="midnightblue" points="193.23,-239.16 185.49,-246.4 196.06,-245.57 193.23,-239.16"/>
</g>
<!-- Node8 -->
<g id="node8" class="node">
<title>Node8</title>
<g id="a_node8"><a xlink:href="_remote_whiteboard_8h.html" target="_top" xlink:title=" ">
<polygon fill="none" stroke="black" points="283,-73 283,-92 434,-92 434,-73 283,-73"/>
<text text-anchor="middle" x="358.5" y="-80" font-family="Helvetica,sans-Serif" font-size="10.00">OLD_WB/RemoteWhiteboard.h</text>
</a>
</g>
</g>
<!-- Node7&#45;&gt;Node8 -->
<g id="edge7" class="edge">
<title>Node7&#45;&gt;Node8</title>
<path fill="none" stroke="midnightblue" d="M391.99,-181.41C387.42,-173.27 382.27,-163.34 378.5,-154 369.84,-132.52 363.39,-105.95 360.38,-92.38"/>
<polygon fill="midnightblue" stroke="midnightblue" points="389.1,-183.4 397.14,-190.3 395.16,-179.9 389.1,-183.4"/>
</g>
<!-- Node10 -->
<g id="node10" class="node">
<title>Node10</title>
<g id="a_node10"><a xlink:href="_whiteboard_8h.html" target="_top" xlink:title=" ">
<polygon fill="none" stroke="black" points="387,-134.5 387,-153.5 504,-153.5 504,-134.5 387,-134.5"/>
<text text-anchor="middle" x="445.5" y="-141.5" font-family="Helvetica,sans-Serif" font-size="10.00">OLD_WB/Whiteboard.h</text>
</a>
</g>
</g>
<!-- Node7&#45;&gt;Node10 -->
<g id="edge9" class="edge">
<title>Node7&#45;&gt;Node10</title>
<path fill="none" stroke="midnightblue" d="M415.92,-182.14C423.41,-172.74 432.44,-161.4 438.53,-153.75"/>
<polygon fill="midnightblue" stroke="midnightblue" points="413.09,-180.08 409.6,-190.08 418.57,-184.44 413.09,-180.08"/>
</g>
<!-- Node7&#45;&gt;Node12 -->
<g id="edge12" class="edge">
<title>Node7&#45;&gt;Node12</title>
<path fill="none" stroke="midnightblue" d="M355.76,-189.69C282.06,-175.63 207.11,-162.06 159.62,-153.56"/>
<polygon fill="midnightblue" stroke="midnightblue" points="355.19,-193.14 365.67,-191.58 356.51,-186.27 355.19,-193.14"/>
</g>
<!-- Node9 -->
<g id="node9" class="node">
<title>Node9</title>
<g id="a_node9"><a xlink:href="_remote_whiteboard_8cc.html" target="_top" xlink:title=" ">
<polygon fill="none" stroke="black" points="280.5,-6 280.5,-25 436.5,-25 436.5,-6 280.5,-6"/>
<text text-anchor="middle" x="358.5" y="-13" font-family="Helvetica,sans-Serif" font-size="10.00">OLD_WB/RemoteWhiteboard.cc</text>
</a>
</g>
</g>
<!-- Node8&#45;&gt;Node9 -->
<g id="edge8" class="edge">
<title>Node8&#45;&gt;Node9</title>
<path fill="none" stroke="midnightblue" d="M358.5,-62.54C358.5,-50.17 358.5,-34.62 358.5,-25.13"/>
<polygon fill="midnightblue" stroke="midnightblue" points="355,-62.73 358.5,-72.73 362,-62.73 355,-62.73"/>
</g>
<!-- Node10&#45;&gt;Node8 -->
<g id="edge10" class="edge">
<title>Node10&#45;&gt;Node8</title>
<path fill="none" stroke="midnightblue" d="M424.46,-128.61C407.73,-117.17 384.89,-101.55 370.94,-92.01"/>
<polygon fill="midnightblue" stroke="midnightblue" points="422.8,-131.72 433.04,-134.48 426.76,-125.94 422.8,-131.72"/>
</g>
<!-- Node11 -->
<g id="node11" class="node">
<title>Node11</title>
<g id="a_node11"><a xlink:href="_whiteboard_8cc.html" target="_top" xlink:title=" ">
<polygon fill="none" stroke="black" points="452.5,-73 452.5,-92 574.5,-92 574.5,-73 452.5,-73"/>
<text text-anchor="middle" x="513.5" y="-80" font-family="Helvetica,sans-Serif" font-size="10.00">OLD_WB/Whiteboard.cc</text>
</a>
</g>
</g>
<!-- Node10&#45;&gt;Node11 -->
<g id="edge11" class="edge">
<title>Node10&#45;&gt;Node11</title>
<path fill="none" stroke="midnightblue" d="M463.04,-127.65C476.01,-116.31 493.18,-101.28 503.78,-92.01"/>
<polygon fill="midnightblue" stroke="midnightblue" points="460.46,-125.26 455.24,-134.48 465.07,-130.52 460.46,-125.26"/>
</g>
<!-- Node12&#45;&gt;Node2 -->
<g id="edge13" class="edge">
<title>Node12&#45;&gt;Node2</title>
<path fill="none" stroke="midnightblue" d="M99.39,-126.25C92.84,-117.19 84.85,-106.12 78.63,-97.52"/>
<polygon fill="midnightblue" stroke="midnightblue" points="96.64,-128.42 105.34,-134.48 102.32,-124.32 96.64,-128.42"/>
</g>
</g>
</svg>
