<?xml version="1.0" encoding="UTF-8" standalone="no"?>
<!DOCTYPE svg PUBLIC "-//W3C//DTD SVG 1.1//EN"
 "http://www.w3.org/Graphics/SVG/1.1/DTD/svg11.dtd">
<!-- Generated by graphviz version 2.49.0 (20210830.1337)
 -->
<!-- Title: gusimplewhiteboard.c Pages: 1 -->
<svg width="1295pt" height="207pt"
 viewBox="0.00 0.00 1295.00 207.00" xmlns="http://www.w3.org/2000/svg" xmlns:xlink="http://www.w3.org/1999/xlink">
<g id="graph0" class="graph" transform="scale(1 1) rotate(0) translate(4 203)">
<title>gusimplewhiteboard.c</title>
<!-- Node1 -->
<g id="node1" class="node">
<title>Node1</title>
<g id="a_node1"><a xlink:title=" ">
<polygon fill="#bfbfbf" stroke="black" points="536.5,-179.5 536.5,-198.5 646.5,-198.5 646.5,-179.5 536.5,-179.5"/>
<text text-anchor="middle" x="591.5" y="-186.5" font-family="Helvetica,sans-Serif" font-size="10.00">gusimplewhiteboard.c</text>
</a>
</g>
</g>
<!-- Node2 -->
<g id="node2" class="node">
<title>Node2</title>
<g id="a_node2"><a xlink:title=" ">
<polygon fill="none" stroke="#bfbfbf" points="0,-118 0,-137 43,-137 43,-118 0,-118"/>
<text text-anchor="middle" x="21.5" y="-125" font-family="Helvetica,sans-Serif" font-size="10.00">fcntl.h</text>
</a>
</g>
</g>
<!-- Node1&#45;&gt;Node2 -->
<g id="edge1" class="edge">
<title>Node1&#45;&gt;Node2</title>
<path fill="none" stroke="midnightblue" d="M536.22,-185.86C417.71,-180.87 142.67,-167.03 52.5,-143 50.56,-142.48 48.6,-141.85 46.64,-141.14"/>
<polygon fill="midnightblue" stroke="midnightblue" points="47.76,-137.81 37.18,-137.15 45.03,-144.26 47.76,-137.81"/>
</g>
<!-- Node3 -->
<g id="node3" class="node">
<title>Node3</title>
<g id="a_node3"><a xlink:title=" ">
<polygon fill="none" stroke="#bfbfbf" points="61.5,-118 61.5,-137 107.5,-137 107.5,-118 61.5,-118"/>
<text text-anchor="middle" x="84.5" y="-125" font-family="Helvetica,sans-Serif" font-size="10.00">errno.h</text>
</a>
</g>
</g>
<!-- Node1&#45;&gt;Node3 -->
<g id="edge2" class="edge">
<title>Node1&#45;&gt;Node3</title>
<path fill="none" stroke="midnightblue" d="M536.33,-188.63C446.71,-188.35 264.6,-182.39 116.5,-143 114.34,-142.43 112.15,-141.72 109.98,-140.93"/>
<polygon fill="midnightblue" stroke="midnightblue" points="111.3,-137.69 100.72,-137.1 108.63,-144.16 111.3,-137.69"/>
</g>
<!-- Node4 -->
<g id="node4" class="node">
<title>Node4</title>
<g id="a_node4"><a xlink:title=" ">
<polygon fill="none" stroke="#bfbfbf" points="126,-118 126,-137 171,-137 171,-118 126,-118"/>
<text text-anchor="middle" x="148.5" y="-125" font-family="Helvetica,sans-Serif" font-size="10.00">stdio.h</text>
</a>
</g>
</g>
<!-- Node1&#45;&gt;Node4 -->
<g id="edge3" class="edge">
<title>Node1&#45;&gt;Node4</title>
<path fill="none" stroke="midnightblue" d="M536.43,-187.68C456.39,-185.95 303.87,-177.84 179.5,-143 177.57,-142.46 175.61,-141.81 173.66,-141.09"/>
<polygon fill="midnightblue" stroke="midnightblue" points="174.78,-137.76 164.2,-137.06 172.04,-144.2 174.78,-137.76"/>
</g>
<!-- Node5 -->
<g id="node5" class="node">
<title>Node5</title>
<g id="a_node5"><a xlink:title=" ">
<polygon fill="none" stroke="#bfbfbf" points="189,-118 189,-137 236,-137 236,-118 189,-118"/>
<text text-anchor="middle" x="212.5" y="-125" font-family="Helvetica,sans-Serif" font-size="10.00">stdlib.h</text>
</a>
</g>
</g>
<!-- Node1&#45;&gt;Node5 -->
<g id="edge4" class="edge">
<title>Node1&#45;&gt;Node5</title>
<path fill="none" stroke="midnightblue" d="M536.31,-185.66C467.2,-181.63 345.72,-170.92 245.5,-143 243.34,-142.4 241.15,-141.68 238.96,-140.9"/>
<polygon fill="midnightblue" stroke="midnightblue" points="240.21,-137.63 229.63,-137.13 237.59,-144.12 240.21,-137.63"/>
</g>
<!-- Node6 -->
<g id="node6" class="node">
<title>Node6</title>
<g id="a_node6"><a xlink:title=" ">
<polygon fill="none" stroke="#bfbfbf" points="254.5,-118 254.5,-137 310.5,-137 310.5,-118 254.5,-118"/>
<text text-anchor="middle" x="282.5" y="-125" font-family="Helvetica,sans-Serif" font-size="10.00">stdbool.h</text>
</a>
</g>
</g>
<!-- Node1&#45;&gt;Node6 -->
<g id="edge5" class="edge">
<title>Node1&#45;&gt;Node6</title>
<path fill="none" stroke="midnightblue" d="M536.33,-182.31C480.85,-175.79 393.22,-163.3 319.5,-143 316.91,-142.29 314.25,-141.45 311.6,-140.56"/>
<polygon fill="midnightblue" stroke="midnightblue" points="312.8,-137.27 302.21,-137.11 310.39,-143.84 312.8,-137.27"/>
</g>
<!-- Node7 -->
<g id="node7" class="node">
<title>Node7</title>
<g id="a_node7"><a xlink:title=" ">
<polygon fill="none" stroke="#bfbfbf" points="328.5,-118 328.5,-137 376.5,-137 376.5,-118 328.5,-118"/>
<text text-anchor="middle" x="352.5" y="-125" font-family="Helvetica,sans-Serif" font-size="10.00">string.h</text>
</a>
</g>
</g>
<!-- Node1&#45;&gt;Node7 -->
<g id="edge6" class="edge">
<title>Node1&#45;&gt;Node7</title>
<path fill="none" stroke="midnightblue" d="M538.67,-179.45C496.59,-171.93 436.5,-159.59 385.5,-143 383.63,-142.39 381.71,-141.71 379.8,-140.99"/>
<polygon fill="midnightblue" stroke="midnightblue" points="380.98,-137.69 370.4,-137.14 378.33,-144.17 380.98,-137.69"/>
</g>
<!-- Node8 -->
<g id="node8" class="node">
<title>Node8</title>
<g id="a_node8"><a xlink:title=" ">
<polygon fill="none" stroke="#bfbfbf" points="394.5,-118 394.5,-137 444.5,-137 444.5,-118 394.5,-118"/>
<text text-anchor="middle" x="419.5" y="-125" font-family="Helvetica,sans-Serif" font-size="10.00">signal.h</text>
</a>
</g>
</g>
<!-- Node1&#45;&gt;Node8 -->
<g id="edge7" class="edge">
<title>Node1&#45;&gt;Node8</title>
<path fill="none" stroke="midnightblue" d="M565.43,-179.43C538.55,-170.54 495.48,-156.13 458.5,-143 456.26,-142.2 453.95,-141.37 451.63,-140.53"/>
<polygon fill="midnightblue" stroke="midnightblue" points="452.74,-137.21 442.14,-137.05 450.32,-143.78 452.74,-137.21"/>
</g>
<!-- Node9 -->
<g id="node9" class="node">
<title>Node9</title>
<g id="a_node9"><a xlink:title=" ">
<polygon fill="none" stroke="#bfbfbf" points="442.5,-0.5 442.5,-19.5 492.5,-19.5 492.5,-0.5 442.5,-0.5"/>
<text text-anchor="middle" x="467.5" y="-7.5" font-family="Helvetica,sans-Serif" font-size="10.00">unistd.h</text>
</a>
</g>
</g>
<!-- Node1&#45;&gt;Node9 -->
<g id="edge8" class="edge">
<title>Node1&#45;&gt;Node9</title>
<path fill="none" stroke="midnightblue" d="M572.25,-179.42C556.98,-171.77 536.04,-159.27 522.5,-143 493.76,-108.44 478.16,-56.74 471.49,-29.43"/>
<polygon fill="midnightblue" stroke="midnightblue" points="474.89,-28.6 469.23,-19.64 468.07,-30.17 474.89,-28.6"/>
</g>
<!-- Node10 -->
<g id="node10" class="node">
<title>Node10</title>
<g id="a_node10"><a xlink:title=" ">
<polygon fill="none" stroke="#bfbfbf" points="701,-118 701,-137 748,-137 748,-118 701,-118"/>
<text text-anchor="middle" x="724.5" y="-125" font-family="Helvetica,sans-Serif" font-size="10.00">limits.h</text>
</a>
</g>
</g>
<!-- Node1&#45;&gt;Node10 -->
<g id="edge9" class="edge">
<title>Node1&#45;&gt;Node10</title>
<path fill="none" stroke="midnightblue" d="M610.56,-179.48C632.97,-169.45 670.41,-152.7 696.21,-141.15"/>
<polygon fill="midnightblue" stroke="midnightblue" points="697.78,-144.29 705.48,-137.01 694.92,-137.9 697.78,-144.29"/>
</g>
<!-- Node11 -->
<g id="node11" class="node">
<title>Node11</title>
<g id="a_node11"><a xlink:title=" ">
<polygon fill="none" stroke="#bfbfbf" points="766,-118 766,-137 817,-137 817,-118 766,-118"/>
<text text-anchor="middle" x="791.5" y="-125" font-family="Helvetica,sans-Serif" font-size="10.00">assert.h</text>
</a>
</g>
</g>
<!-- Node1&#45;&gt;Node11 -->
<g id="edge10" class="edge">
<title>Node1&#45;&gt;Node11</title>
<path fill="none" stroke="midnightblue" d="M628.87,-179.44C662.81,-171.29 714.06,-158.07 757.5,-143 759.36,-142.35 761.27,-141.65 763.18,-140.92"/>
<polygon fill="midnightblue" stroke="midnightblue" points="764.66,-144.1 772.62,-137.1 762.04,-137.61 764.66,-144.1"/>
</g>
<!-- Node12 -->
<g id="node12" class="node">
<title>Node12</title>
<g id="a_node12"><a xlink:title=" ">
<polygon fill="none" stroke="#bfbfbf" points="701,-0.5 701,-19.5 766,-19.5 766,-0.5 701,-0.5"/>
<text text-anchor="middle" x="733.5" y="-7.5" font-family="Helvetica,sans-Serif" font-size="10.00">sys/types.h</text>
</a>
</g>
</g>
<!-- Node1&#45;&gt;Node12 -->
<g id="edge11" class="edge">
<title>Node1&#45;&gt;Node12</title>
<path fill="none" stroke="midnightblue" d="M606.58,-179.44C620.01,-171.29 639.63,-158.07 653.5,-143 686.34,-107.32 712.73,-56.12 725.38,-29.17"/>
<polygon fill="midnightblue" stroke="midnightblue" points="728.68,-30.36 729.67,-19.82 722.32,-27.45 728.68,-30.36"/>
</g>
<!-- Node13 -->
<g id="node13" class="node">
<title>Node13</title>
<g id="a_node13"><a xlink:title=" ">
<polygon fill="none" stroke="#bfbfbf" points="835,-118 835,-137 904,-137 904,-118 835,-118"/>
<text text-anchor="middle" x="869.5" y="-125" font-family="Helvetica,sans-Serif" font-size="10.00">sys/param.h</text>
</a>
</g>
</g>
<!-- Node1&#45;&gt;Node13 -->
<g id="edge12" class="edge">
<title>Node1&#45;&gt;Node13</title>
<path fill="none" stroke="midnightblue" d="M646.58,-179.63C694.51,-171.83 765.64,-159.01 826.5,-143 829.7,-142.16 833.01,-141.2 836.3,-140.19"/>
<polygon fill="midnightblue" stroke="midnightblue" points="837.57,-143.46 846.02,-137.06 835.43,-136.8 837.57,-143.46"/>
</g>
<!-- Node14 -->
<g id="node14" class="node">
<title>Node14</title>
<g id="a_node14"><a xlink:title=" ">
<polygon fill="none" stroke="#bfbfbf" points="922.5,-118 922.5,-137 976.5,-137 976.5,-118 922.5,-118"/>
<text text-anchor="middle" x="949.5" y="-125" font-family="Helvetica,sans-Serif" font-size="10.00">sys/file.h</text>
</a>
</g>
</g>
<!-- Node1&#45;&gt;Node14 -->
<g id="edge13" class="edge">
<title>Node1&#45;&gt;Node14</title>
<path fill="none" stroke="midnightblue" d="M646.72,-184.4C711.51,-179.23 821.74,-167.5 913.5,-143 916.01,-142.33 918.57,-141.54 921.13,-140.67"/>
<polygon fill="midnightblue" stroke="midnightblue" points="922.6,-143.85 930.74,-137.06 920.15,-137.3 922.6,-143.85"/>
</g>
<!-- Node15 -->
<g id="node15" class="node">
<title>Node15</title>
<g id="a_node15"><a xlink:title=" ">
<polygon fill="none" stroke="#bfbfbf" points="995,-118 995,-137 1064,-137 1064,-118 995,-118"/>
<text text-anchor="middle" x="1029.5" y="-125" font-family="Helvetica,sans-Serif" font-size="10.00">sys/mman.h</text>
</a>
</g>
</g>
<!-- Node1&#45;&gt;Node15 -->
<g id="edge14" class="edge">
<title>Node1&#45;&gt;Node15</title>
<path fill="none" stroke="midnightblue" d="M646.57,-185.27C723.29,-180.67 866.3,-169.16 985.5,-143 989.17,-142.19 992.97,-141.2 996.73,-140.11"/>
<polygon fill="midnightblue" stroke="midnightblue" points="997.95,-143.4 1006.46,-137.08 995.87,-136.71 997.95,-143.4"/>
</g>
<!-- Node16 -->
<g id="node16" class="node">
<title>Node16</title>
<g id="a_node16"><a xlink:title=" ">
<polygon fill="none" stroke="#bfbfbf" points="1082,-118 1082,-137 1137,-137 1137,-118 1082,-118"/>
<text text-anchor="middle" x="1109.5" y="-125" font-family="Helvetica,sans-Serif" font-size="10.00">sys/ipc.h</text>
</a>
</g>
</g>
<!-- Node1&#45;&gt;Node16 -->
<g id="edge15" class="edge">
<title>Node1&#45;&gt;Node16</title>
<path fill="none" stroke="midnightblue" d="M646.56,-188C736.97,-186.87 921.99,-179.75 1073.5,-143 1076.17,-142.35 1078.9,-141.54 1081.61,-140.64"/>
<polygon fill="midnightblue" stroke="midnightblue" points="1083.01,-143.85 1091.15,-137.08 1080.56,-137.3 1083.01,-143.85"/>
</g>
<!-- Node17 -->
<g id="node17" class="node">
<title>Node17</title>
<g id="a_node17"><a xlink:title=" ">
<polygon fill="none" stroke="#bfbfbf" points="1155,-118 1155,-137 1216,-137 1216,-118 1155,-118"/>
<text text-anchor="middle" x="1185.5" y="-125" font-family="Helvetica,sans-Serif" font-size="10.00">sys/sem.h</text>
</a>
</g>
</g>
<!-- Node1&#45;&gt;Node17 -->
<g id="edge16" class="edge">
<title>Node1&#45;&gt;Node17</title>
<path fill="none" stroke="midnightblue" d="M646.6,-188.51C747.17,-188.34 966.72,-182.91 1146.5,-143 1149.57,-142.32 1152.73,-141.45 1155.86,-140.47"/>
<polygon fill="midnightblue" stroke="midnightblue" points="1157.27,-143.69 1165.58,-137.11 1154.98,-137.07 1157.27,-143.69"/>
</g>
<!-- Node18 -->
<g id="node18" class="node">
<title>Node18</title>
<g id="a_node18"><a xlink:title=" ">
<polygon fill="none" stroke="#bfbfbf" points="1234,-118 1234,-137 1287,-137 1287,-118 1234,-118"/>
<text text-anchor="middle" x="1260.5" y="-125" font-family="Helvetica,sans-Serif" font-size="10.00">gu_util.h</text>
</a>
</g>
</g>
<!-- Node1&#45;&gt;Node18 -->
<g id="edge17" class="edge">
<title>Node1&#45;&gt;Node18</title>
<path fill="none" stroke="midnightblue" d="M646.77,-186.35C780.06,-182.02 1116.23,-168.79 1225.5,-143 1228.17,-142.37 1230.9,-141.56 1233.59,-140.65"/>
<polygon fill="midnightblue" stroke="midnightblue" points="1234.98,-143.86 1243.06,-137.02 1232.47,-137.33 1234.98,-143.86"/>
</g>
<!-- Node19 -->
<g id="node19" class="node">
<title>Node19</title>
<g id="a_node19"><a xlink:href="gusimplewhiteboard_8h.html" target="_top" xlink:title=" ">
<polygon fill="none" stroke="black" points="520.5,-56.5 520.5,-75.5 630.5,-75.5 630.5,-56.5 520.5,-56.5"/>
<text text-anchor="middle" x="575.5" y="-63.5" font-family="Helvetica,sans-Serif" font-size="10.00">gusimplewhiteboard.h</text>
</a>
</g>
</g>
<!-- Node1&#45;&gt;Node19 -->
<g id="edge18" class="edge">
<title>Node1&#45;&gt;Node19</title>
<path fill="none" stroke="midnightblue" d="M571.59,-179.41C557.28,-172.04 539.04,-159.92 530.5,-143 524.29,-130.7 525.23,-124.73 530.5,-112 535.42,-100.12 545.17,-89.74 554.33,-81.96"/>
<polygon fill="midnightblue" stroke="midnightblue" points="556.75,-84.51 562.44,-75.56 552.42,-79.01 556.75,-84.51"/>
</g>
<!-- Node22 -->
<g id="node22" class="node">
<title>Node22</title>
<g id="a_node22"><a xlink:href="guwhiteboardtypelist__c__generated_8h.html" target="_top" xlink:title=" ">
<polygon fill="none" stroke="black" points="539,-112.5 539,-142.5 644,-142.5 644,-112.5 539,-112.5"/>
<text text-anchor="start" x="547" y="-130.5" font-family="Helvetica,sans-Serif" font-size="10.00">guwhiteboardtypelist</text>
<text text-anchor="middle" x="591.5" y="-119.5" font-family="Helvetica,sans-Serif" font-size="10.00">_c_generated.h</text>
</a>
</g>
</g>
<!-- Node1&#45;&gt;Node22 -->
<g id="edge23" class="edge">
<title>Node1&#45;&gt;Node22</title>
<path fill="none" stroke="midnightblue" d="M591.5,-179.48C591.5,-172.47 591.5,-162.19 591.5,-152.7"/>
<polygon fill="midnightblue" stroke="midnightblue" points="595,-152.52 591.5,-142.52 588,-152.52 595,-152.52"/>
</g>
<!-- Node19&#45;&gt;Node9 -->
<g id="edge22" class="edge">
<title>Node19&#45;&gt;Node9</title>
<path fill="none" stroke="midnightblue" d="M558.15,-56.32C540.83,-47.66 513.98,-34.24 494,-24.25"/>
<polygon fill="midnightblue" stroke="midnightblue" points="495.32,-21 484.81,-19.65 492.19,-27.26 495.32,-21"/>
</g>
<!-- Node19&#45;&gt;Node12 -->
<g id="edge20" class="edge">
<title>Node19&#45;&gt;Node12</title>
<path fill="none" stroke="midnightblue" d="M600.54,-56.44C627.12,-47.36 669.31,-32.94 699.02,-22.78"/>
<polygon fill="midnightblue" stroke="midnightblue" points="700.25,-26.06 708.58,-19.52 697.99,-19.44 700.25,-26.06"/>
</g>
<!-- Node20 -->
<g id="node20" class="node">
<title>Node20</title>
<g id="a_node20"><a xlink:title=" ">
<polygon fill="none" stroke="#bfbfbf" points="511,-0.5 511,-19.5 612,-19.5 612,-0.5 511,-0.5"/>
<text text-anchor="middle" x="561.5" y="-7.5" font-family="Helvetica,sans-Serif" font-size="10.00">dispatch/dispatch.h</text>
</a>
</g>
</g>
<!-- Node19&#45;&gt;Node20 -->
<g id="edge19" class="edge">
<title>Node19&#45;&gt;Node20</title>
<path fill="none" stroke="midnightblue" d="M573.19,-56.08C571.33,-48.93 568.66,-38.64 566.35,-29.69"/>
<polygon fill="midnightblue" stroke="midnightblue" points="569.67,-28.55 563.77,-19.75 562.89,-30.31 569.67,-28.55"/>
</g>
<!-- Node21 -->
<g id="node21" class="node">
<title>Node21</title>
<g id="a_node21"><a xlink:title=" ">
<polygon fill="none" stroke="#bfbfbf" points="630,-0.5 630,-19.5 683,-19.5 683,-0.5 630,-0.5"/>
<text text-anchor="middle" x="656.5" y="-7.5" font-family="Helvetica,sans-Serif" font-size="10.00">cstdbool</text>
</a>
</g>
</g>
<!-- Node19&#45;&gt;Node21 -->
<g id="edge21" class="edge">
<title>Node19&#45;&gt;Node21</title>
<path fill="none" stroke="midnightblue" d="M588.51,-56.32C601.03,-47.98 620.18,-35.21 634.97,-25.35"/>
<polygon fill="midnightblue" stroke="midnightblue" points="637.14,-28.11 643.52,-19.65 633.26,-22.29 637.14,-28.11"/>
</g>
<!-- Node22&#45;&gt;Node19 -->
<g id="edge24" class="edge">
<title>Node22&#45;&gt;Node19</title>
<path fill="none" stroke="midnightblue" d="M587.71,-112.4C585.55,-104.38 582.82,-94.23 580.49,-85.57"/>
<polygon fill="midnightblue" stroke="midnightblue" points="583.8,-84.41 577.83,-75.66 577.05,-86.22 583.8,-84.41"/>
</g>
</g>
</svg>
