<?xml version="1.0" encoding="UTF-8" standalone="no"?>
<!DOCTYPE svg PUBLIC "-//W3C//DTD SVG 1.1//EN"
 "http://www.w3.org/Graphics/SVG/1.1/DTD/svg11.dtd">
<!-- Generated by graphviz version 2.49.0 (20210830.1337)
 -->
<!-- Title: guwhiteboardserialisation.h Pages: 1 -->
<svg width="332pt" height="207pt"
 viewBox="0.00 0.00 331.50 207.00" xmlns="http://www.w3.org/2000/svg" xmlns:xlink="http://www.w3.org/1999/xlink">
<g id="graph0" class="graph" transform="scale(1 1) rotate(0) translate(4 203)">
<title>guwhiteboardserialisation.h</title>
<!-- Node1 -->
<g id="node1" class="node">
<title>Node1</title>
<g id="a_node1"><a xlink:title=" ">
<polygon fill="#bfbfbf" stroke="black" points="5.5,-179.5 5.5,-198.5 139.5,-198.5 139.5,-179.5 5.5,-179.5"/>
<text text-anchor="middle" x="72.5" y="-186.5" font-family="Helvetica,sans-Serif" font-size="10.00">guwhiteboardserialisation.h</text>
</a>
</g>
</g>
<!-- Node2 -->
<g id="node2" class="node">
<title>Node2</title>
<g id="a_node2"><a xlink:title=" ">
<polygon fill="none" stroke="#bfbfbf" points="0,-0.5 0,-19.5 53,-19.5 53,-0.5 0,-0.5"/>
<text text-anchor="middle" x="26.5" y="-7.5" font-family="Helvetica,sans-Serif" font-size="10.00">cstdbool</text>
</a>
</g>
</g>
<!-- Node1&#45;&gt;Node2 -->
<g id="edge1" class="edge">
<title>Node1&#45;&gt;Node2</title>
<path fill="none" stroke="midnightblue" d="M67.91,-179.26C63.41,-170.36 56.63,-156.04 52.5,-143 40.04,-103.6 32.38,-55.62 28.84,-29.73"/>
<polygon fill="midnightblue" stroke="midnightblue" points="32.27,-28.96 27.5,-19.5 25.33,-29.87 32.27,-28.96"/>
</g>
<!-- Node3 -->
<g id="node3" class="node">
<title>Node3</title>
<g id="a_node3"><a xlink:href="guwhiteboardtypelist__c__generated_8h.html" target="_top" xlink:title=" ">
<polygon fill="none" stroke="black" points="62,-112.5 62,-142.5 167,-142.5 167,-112.5 62,-112.5"/>
<text text-anchor="start" x="70" y="-130.5" font-family="Helvetica,sans-Serif" font-size="10.00">guwhiteboardtypelist</text>
<text text-anchor="middle" x="114.5" y="-119.5" font-family="Helvetica,sans-Serif" font-size="10.00">_c_generated.h</text>
</a>
</g>
</g>
<!-- Node1&#45;&gt;Node3 -->
<g id="edge2" class="edge">
<title>Node1&#45;&gt;Node3</title>
<path fill="none" stroke="midnightblue" d="M78.52,-179.48C83.78,-172.02 91.66,-160.85 98.71,-150.87"/>
<polygon fill="midnightblue" stroke="midnightblue" points="101.69,-152.71 104.6,-142.52 95.98,-148.67 101.69,-152.71"/>
</g>
<!-- Node4 -->
<g id="node4" class="node">
<title>Node4</title>
<g id="a_node4"><a xlink:href="gusimplewhiteboard_8h.html" target="_top" xlink:title=" ">
<polygon fill="none" stroke="black" points="66.5,-56.5 66.5,-75.5 176.5,-75.5 176.5,-56.5 66.5,-56.5"/>
<text text-anchor="middle" x="121.5" y="-63.5" font-family="Helvetica,sans-Serif" font-size="10.00">gusimplewhiteboard.h</text>
</a>
</g>
</g>
<!-- Node3&#45;&gt;Node4 -->
<g id="edge3" class="edge">
<title>Node3&#45;&gt;Node4</title>
<path fill="none" stroke="midnightblue" d="M116.16,-112.4C117.09,-104.47 118.27,-94.46 119.28,-85.86"/>
<polygon fill="midnightblue" stroke="midnightblue" points="122.79,-86 120.48,-75.66 115.84,-85.18 122.79,-86"/>
</g>
<!-- Node4&#45;&gt;Node2 -->
<g id="edge6" class="edge">
<title>Node4&#45;&gt;Node2</title>
<path fill="none" stroke="midnightblue" d="M106.24,-56.32C91.28,-47.82 68.25,-34.73 50.77,-24.8"/>
<polygon fill="midnightblue" stroke="midnightblue" points="52.15,-21.55 41.73,-19.65 48.69,-27.64 52.15,-21.55"/>
</g>
<!-- Node5 -->
<g id="node5" class="node">
<title>Node5</title>
<g id="a_node5"><a xlink:title=" ">
<polygon fill="none" stroke="#bfbfbf" points="71,-0.5 71,-19.5 172,-19.5 172,-0.5 71,-0.5"/>
<text text-anchor="middle" x="121.5" y="-7.5" font-family="Helvetica,sans-Serif" font-size="10.00">dispatch/dispatch.h</text>
</a>
</g>
</g>
<!-- Node4&#45;&gt;Node5 -->
<g id="edge4" class="edge">
<title>Node4&#45;&gt;Node5</title>
<path fill="none" stroke="midnightblue" d="M121.5,-56.08C121.5,-49.01 121.5,-38.86 121.5,-29.99"/>
<polygon fill="midnightblue" stroke="midnightblue" points="125,-29.75 121.5,-19.75 118,-29.75 125,-29.75"/>
</g>
<!-- Node6 -->
<g id="node6" class="node">
<title>Node6</title>
<g id="a_node6"><a xlink:title=" ">
<polygon fill="none" stroke="#bfbfbf" points="190,-0.5 190,-19.5 255,-19.5 255,-0.5 190,-0.5"/>
<text text-anchor="middle" x="222.5" y="-7.5" font-family="Helvetica,sans-Serif" font-size="10.00">sys/types.h</text>
</a>
</g>
</g>
<!-- Node4&#45;&gt;Node6 -->
<g id="edge5" class="edge">
<title>Node4&#45;&gt;Node6</title>
<path fill="none" stroke="midnightblue" d="M137.73,-56.32C153.85,-47.7 178.8,-34.36 197.46,-24.39"/>
<polygon fill="midnightblue" stroke="midnightblue" points="199.14,-27.46 206.31,-19.65 195.84,-21.28 199.14,-27.46"/>
</g>
<!-- Node7 -->
<g id="node7" class="node">
<title>Node7</title>
<g id="a_node7"><a xlink:title=" ">
<polygon fill="none" stroke="#bfbfbf" points="273.5,-0.5 273.5,-19.5 323.5,-19.5 323.5,-0.5 273.5,-0.5"/>
<text text-anchor="middle" x="298.5" y="-7.5" font-family="Helvetica,sans-Serif" font-size="10.00">unistd.h</text>
</a>
</g>
</g>
<!-- Node4&#45;&gt;Node7 -->
<g id="edge7" class="edge">
<title>Node4&#45;&gt;Node7</title>
<path fill="none" stroke="midnightblue" d="M149.55,-56.44C180.47,-47.01 230.24,-31.82 263.65,-21.63"/>
<polygon fill="midnightblue" stroke="midnightblue" points="264.9,-24.91 273.45,-18.64 262.86,-18.21 264.9,-24.91"/>
</g>
</g>
</svg>
