<?xml version="1.0" encoding="UTF-8" standalone="no"?>
<!DOCTYPE svg PUBLIC "-//W3C//DTD SVG 1.1//EN"
 "http://www.w3.org/Graphics/SVG/1.1/DTD/svg11.dtd">
<!-- Generated by graphviz version 2.49.0 (20210830.1337)
 -->
<!-- Title: guwhiteboard_c_types_manual_definitions.h Pages: 1 -->
<svg width="2266pt" height="329pt"
 viewBox="0.00 0.00 2265.50 329.00" xmlns="http://www.w3.org/2000/svg" xmlns:xlink="http://www.w3.org/1999/xlink">
<g id="graph0" class="graph" transform="scale(1 1) rotate(0) translate(4 325)">
<title>guwhiteboard_c_types_manual_definitions.h</title>
<!-- Node1 -->
<g id="node1" class="node">
<title>Node1</title>
<g id="a_node1"><a xlink:title=" ">
<polygon fill="#bfbfbf" stroke="black" points="913.5,-290.5 913.5,-320.5 1026.5,-320.5 1026.5,-290.5 913.5,-290.5"/>
<text text-anchor="start" x="921.5" y="-308.5" font-family="Helvetica,sans-Serif" font-size="10.00">guwhiteboard_c_types</text>
<text text-anchor="middle" x="970" y="-297.5" font-family="Helvetica,sans-Serif" font-size="10.00">_manual_definitions.h</text>
</a>
</g>
</g>
<!-- Node2 -->
<g id="node2" class="node">
<title>Node2</title>
<g id="a_node2"><a xlink:href="wb__filtered__vision__object__type_8h.html" target="_top" xlink:title=" ">
<polygon fill="none" stroke="black" points="0,-56.5 0,-97.5 132,-97.5 132,-56.5 0,-56.5"/>
<text text-anchor="start" x="8" y="-85.5" font-family="Helvetica,sans-Serif" font-size="10.00">gusimplewhiteboard</text>
<text text-anchor="start" x="8" y="-74.5" font-family="Helvetica,sans-Serif" font-size="10.00">/typeClassDefs/wb_filtered</text>
<text text-anchor="middle" x="66" y="-63.5" font-family="Helvetica,sans-Serif" font-size="10.00">_vision_object_type.h</text>
</a>
</g>
</g>
<!-- Node1&#45;&gt;Node2 -->
<g id="edge1" class="edge">
<title>Node1&#45;&gt;Node2</title>
<path fill="none" stroke="midnightblue" d="M913.47,-303.18C749.53,-298.99 281.59,-284.48 220,-254 154.34,-221.5 104.73,-147.38 81.17,-106.45"/>
<polygon fill="midnightblue" stroke="midnightblue" points="84.1,-104.52 76.14,-97.53 78,-107.96 84.1,-104.52"/>
</g>
<!-- Node4 -->
<g id="node4" class="node">
<title>Node4</title>
<g id="a_node4"><a xlink:href="wb__ball_8h.html" target="_top" xlink:title=" ">
<polygon fill="none" stroke="black" points="150,-62 150,-92 276,-92 276,-62 150,-62"/>
<text text-anchor="start" x="158" y="-80" font-family="Helvetica,sans-Serif" font-size="10.00">gusimplewhiteboard</text>
<text text-anchor="middle" x="213" y="-69" font-family="Helvetica,sans-Serif" font-size="10.00">/typeClassDefs/wb_ball.h</text>
</a>
</g>
</g>
<!-- Node1&#45;&gt;Node4 -->
<g id="edge3" class="edge">
<title>Node1&#45;&gt;Node4</title>
<path fill="none" stroke="midnightblue" d="M913.49,-304.3C753.16,-303.23 303.75,-296.43 254,-254 209.9,-216.38 208.1,-141.39 210.51,-102.56"/>
<polygon fill="midnightblue" stroke="midnightblue" points="214.03,-102.43 211.31,-92.19 207.05,-101.89 214.03,-102.43"/>
</g>
<!-- Node6 -->
<g id="node6" class="node">
<title>Node6</title>
<g id="a_node6"><a xlink:href="wb__goal_8h.html" target="_top" xlink:title=" ">
<polygon fill="none" stroke="black" points="294.5,-62 294.5,-92 423.5,-92 423.5,-62 294.5,-62"/>
<text text-anchor="start" x="302.5" y="-80" font-family="Helvetica,sans-Serif" font-size="10.00">gusimplewhiteboard</text>
<text text-anchor="middle" x="359" y="-69" font-family="Helvetica,sans-Serif" font-size="10.00">/typeClassDefs/wb_goal.h</text>
</a>
</g>
</g>
<!-- Node1&#45;&gt;Node6 -->
<g id="edge6" class="edge">
<title>Node1&#45;&gt;Node6</title>
<path fill="none" stroke="midnightblue" d="M913.37,-304.71C754.99,-304.72 316.25,-300.5 273,-254 229.64,-207.39 295.67,-134.84 334.3,-99.21"/>
<polygon fill="midnightblue" stroke="midnightblue" points="337,-101.49 342.08,-92.19 332.31,-96.29 337,-101.49"/>
</g>
<!-- Node7 -->
<g id="node7" class="node">
<title>Node7</title>
<g id="a_node7"><a xlink:href="wb__filtered__arrayonedimobjects_8h.html" target="_top" xlink:title=" ">
<polygon fill="none" stroke="black" points="840,-134.5 840,-175.5 972,-175.5 972,-134.5 840,-134.5"/>
<text text-anchor="start" x="848" y="-163.5" font-family="Helvetica,sans-Serif" font-size="10.00">gusimplewhiteboard</text>
<text text-anchor="start" x="848" y="-152.5" font-family="Helvetica,sans-Serif" font-size="10.00">/typeClassDefs/wb_filtered</text>
<text text-anchor="middle" x="906" y="-141.5" font-family="Helvetica,sans-Serif" font-size="10.00">_arrayonedimobjects.h</text>
</a>
</g>
</g>
<!-- Node1&#45;&gt;Node7 -->
<g id="edge9" class="edge">
<title>Node1&#45;&gt;Node7</title>
<path fill="none" stroke="midnightblue" d="M999.69,-290.34C1013.74,-281.92 1029.14,-269.77 1037,-254 1045.33,-237.29 1047.28,-227.58 1037,-212 1029.6,-200.79 1004.88,-189 978.88,-179.15"/>
<polygon fill="midnightblue" stroke="midnightblue" points="979.86,-175.79 969.27,-175.62 977.45,-182.36 979.86,-175.79"/>
</g>
<!-- Node9 -->
<g id="node9" class="node">
<title>Node9</title>
<g id="a_node9"><a xlink:href="wb__filtered__vision__object_8h.html" target="_top" xlink:title=" ">
<polygon fill="none" stroke="black" points="916,-62 916,-92 1010,-92 1010,-62 916,-62"/>
<text text-anchor="start" x="924" y="-80" font-family="Helvetica,sans-Serif" font-size="10.00">wb_filtered_vision</text>
<text text-anchor="middle" x="963" y="-69" font-family="Helvetica,sans-Serif" font-size="10.00">_object.h</text>
</a>
</g>
</g>
<!-- Node1&#45;&gt;Node9 -->
<g id="edge22" class="edge">
<title>Node1&#45;&gt;Node9</title>
<path fill="none" stroke="midnightblue" d="M1009.26,-290.45C1029.65,-281.93 1054.16,-269.66 1073,-254 1118.55,-216.13 1165.64,-182.05 1131,-134 1130.55,-133.37 1064.4,-111.44 1015.25,-95.22"/>
<polygon fill="midnightblue" stroke="midnightblue" points="1016.26,-91.87 1005.67,-92.06 1014.07,-98.52 1016.26,-91.87"/>
</g>
<!-- Node10 -->
<g id="node10" class="node">
<title>Node10</title>
<g id="a_node10"><a xlink:href="wb__filtered__arrayballsightings_8h.html" target="_top" xlink:title=" ">
<polygon fill="none" stroke="black" points="990,-134.5 990,-175.5 1122,-175.5 1122,-134.5 990,-134.5"/>
<text text-anchor="start" x="998" y="-163.5" font-family="Helvetica,sans-Serif" font-size="10.00">gusimplewhiteboard</text>
<text text-anchor="start" x="998" y="-152.5" font-family="Helvetica,sans-Serif" font-size="10.00">/typeClassDefs/wb_filtered</text>
<text text-anchor="middle" x="1056" y="-141.5" font-family="Helvetica,sans-Serif" font-size="10.00">_arrayballsightings.h</text>
</a>
</g>
</g>
<!-- Node1&#45;&gt;Node10 -->
<g id="edge16" class="edge">
<title>Node1&#45;&gt;Node10</title>
<path fill="none" stroke="midnightblue" d="M1010.33,-290.41C1026.87,-282.43 1044.36,-270.64 1054,-254 1065.91,-233.43 1065.42,-206.14 1062.52,-185.58"/>
<polygon fill="midnightblue" stroke="midnightblue" points="1065.93,-184.8 1060.83,-175.52 1059.03,-185.96 1065.93,-184.8"/>
</g>
<!-- Node12 -->
<g id="node12" class="node">
<title>Node12</title>
<g id="a_node12"><a xlink:href="wb__sensors__foot__sensors_8h.html" target="_top" xlink:title=" ">
<polygon fill="none" stroke="black" points="1542,-56.5 1542,-97.5 1680,-97.5 1680,-56.5 1542,-56.5"/>
<text text-anchor="start" x="1550" y="-85.5" font-family="Helvetica,sans-Serif" font-size="10.00">gusimplewhiteboard</text>
<text text-anchor="start" x="1550" y="-74.5" font-family="Helvetica,sans-Serif" font-size="10.00">/typeClassDefs/wb_sensors</text>
<text text-anchor="middle" x="1611" y="-63.5" font-family="Helvetica,sans-Serif" font-size="10.00">_foot_sensors.h</text>
</a>
</g>
</g>
<!-- Node1&#45;&gt;Node12 -->
<g id="edge23" class="edge">
<title>Node1&#45;&gt;Node12</title>
<path fill="none" stroke="midnightblue" d="M1026.53,-300.56C1119.73,-293.49 1301.28,-277.23 1361,-254 1451.12,-218.95 1539.57,-144.67 1583.09,-104.73"/>
<polygon fill="midnightblue" stroke="midnightblue" points="1585.73,-107.06 1590.69,-97.69 1580.98,-101.92 1585.73,-107.06"/>
</g>
<!-- Node13 -->
<g id="node13" class="node">
<title>Node13</title>
<g id="a_node13"><a xlink:href="wb__sensors__body__sensors_8h.html" target="_top" xlink:title=" ">
<polygon fill="none" stroke="black" points="1386,-56.5 1386,-97.5 1524,-97.5 1524,-56.5 1386,-56.5"/>
<text text-anchor="start" x="1394" y="-85.5" font-family="Helvetica,sans-Serif" font-size="10.00">gusimplewhiteboard</text>
<text text-anchor="start" x="1394" y="-74.5" font-family="Helvetica,sans-Serif" font-size="10.00">/typeClassDefs/wb_sensors</text>
<text text-anchor="middle" x="1455" y="-63.5" font-family="Helvetica,sans-Serif" font-size="10.00">_body_sensors.h</text>
</a>
</g>
</g>
<!-- Node1&#45;&gt;Node13 -->
<g id="edge26" class="edge">
<title>Node1&#45;&gt;Node13</title>
<path fill="none" stroke="midnightblue" d="M1026.79,-301.63C1113.51,-296.38 1274.06,-282.98 1323,-254 1381.75,-219.21 1422.81,-147.19 1442.25,-106.9"/>
<polygon fill="midnightblue" stroke="midnightblue" points="1445.52,-108.15 1446.61,-97.61 1439.19,-105.18 1445.52,-108.15"/>
</g>
<!-- Node14 -->
<g id="node14" class="node">
<title>Node14</title>
<g id="a_node14"><a xlink:href="wb__sensors__torso_8h.html" target="_top" xlink:title=" ">
<polygon fill="none" stroke="black" points="756,-212.5 756,-253.5 894,-253.5 894,-212.5 756,-212.5"/>
<text text-anchor="start" x="764" y="-241.5" font-family="Helvetica,sans-Serif" font-size="10.00">gusimplewhiteboard</text>
<text text-anchor="start" x="764" y="-230.5" font-family="Helvetica,sans-Serif" font-size="10.00">/typeClassDefs/wb_sensors</text>
<text text-anchor="middle" x="825" y="-219.5" font-family="Helvetica,sans-Serif" font-size="10.00">_torso.h</text>
</a>
</g>
</g>
<!-- Node1&#45;&gt;Node14 -->
<g id="edge29" class="edge">
<title>Node1&#45;&gt;Node14</title>
<path fill="none" stroke="midnightblue" d="M941.01,-290.4C921.99,-281.16 896.63,-268.83 874.47,-258.05"/>
<polygon fill="midnightblue" stroke="midnightblue" points="875.73,-254.77 865.2,-253.55 872.66,-261.07 875.73,-254.77"/>
</g>
<!-- Node15 -->
<g id="node15" class="node">
<title>Node15</title>
<g id="a_node15"><a xlink:href="wb__sensors__torsojointsensors_8h.html" target="_top" xlink:title=" ">
<polygon fill="none" stroke="black" points="1698,-56.5 1698,-97.5 1836,-97.5 1836,-56.5 1698,-56.5"/>
<text text-anchor="start" x="1706" y="-85.5" font-family="Helvetica,sans-Serif" font-size="10.00">gusimplewhiteboard</text>
<text text-anchor="start" x="1706" y="-74.5" font-family="Helvetica,sans-Serif" font-size="10.00">/typeClassDefs/wb_sensors</text>
<text text-anchor="middle" x="1767" y="-63.5" font-family="Helvetica,sans-Serif" font-size="10.00">_torsojointsensors.h</text>
</a>
</g>
</g>
<!-- Node1&#45;&gt;Node15 -->
<g id="edge31" class="edge">
<title>Node1&#45;&gt;Node15</title>
<path fill="none" stroke="midnightblue" d="M1026.62,-304.32C1112.24,-302.65 1278.99,-293.98 1414,-254 1535.1,-218.14 1664.92,-142.6 1728.05,-103.17"/>
<polygon fill="midnightblue" stroke="midnightblue" points="1730.27,-105.91 1736.87,-97.62 1726.54,-99.98 1730.27,-105.91"/>
</g>
<!-- Node16 -->
<g id="node16" class="node">
<title>Node16</title>
<g id="a_node16"><a xlink:href="wb__filteredsonarobject_8h.html" target="_top" xlink:title="gusimplewhiteboard">
<polygon fill="none" stroke="black" points="556,-140 556,-170 746,-170 746,-140 556,-140"/>
<text text-anchor="start" x="564" y="-158" font-family="Helvetica,sans-Serif" font-size="10.00">gusimplewhiteboard</text>
<text text-anchor="middle" x="651" y="-147" font-family="Helvetica,sans-Serif" font-size="10.00">/typeClassDefs/wb_filteredsonarobject.h</text>
</a>
</g>
</g>
<!-- Node1&#45;&gt;Node16 -->
<g id="edge34" class="edge">
<title>Node1&#45;&gt;Node16</title>
<path fill="none" stroke="midnightblue" d="M913.4,-301.15C866.13,-296.22 798.4,-284.05 747,-254 725.27,-241.3 726.51,-230.09 709,-212 697.56,-200.19 684.41,-187.42 673.52,-177.07"/>
<polygon fill="midnightblue" stroke="midnightblue" points="675.72,-174.33 666.05,-170 670.91,-179.41 675.72,-174.33"/>
</g>
<!-- Node17 -->
<g id="node17" class="node">
<title>Node17</title>
<g id="a_node17"><a xlink:href="wb__arrayoffilteredsonarobjects_8h.html" target="_top" xlink:title="gusimplewhiteboard">
<polygon fill="none" stroke="black" points="476,-218 476,-248 700,-248 700,-218 476,-218"/>
<text text-anchor="start" x="484" y="-236" font-family="Helvetica,sans-Serif" font-size="10.00">gusimplewhiteboard</text>
<text text-anchor="middle" x="588" y="-225" font-family="Helvetica,sans-Serif" font-size="10.00">/typeClassDefs/wb_arrayoffilteredsonarobjects.h</text>
</a>
</g>
</g>
<!-- Node1&#45;&gt;Node17 -->
<g id="edge36" class="edge">
<title>Node1&#45;&gt;Node17</title>
<path fill="none" stroke="midnightblue" d="M913.22,-294.02C850,-282.35 747.1,-263.36 673.99,-249.87"/>
<polygon fill="midnightblue" stroke="midnightblue" points="674.35,-246.38 663.88,-248 673.08,-253.26 674.35,-246.38"/>
</g>
<!-- Node18 -->
<g id="node18" class="node">
<title>Node18</title>
<g id="a_node18"><a xlink:href="wb__top__particles_8h.html" target="_top" xlink:title=" ">
<polygon fill="none" stroke="black" points="1196.5,-212.5 1196.5,-253.5 1313.5,-253.5 1313.5,-212.5 1196.5,-212.5"/>
<text text-anchor="start" x="1204.5" y="-241.5" font-family="Helvetica,sans-Serif" font-size="10.00">gusimplewhiteboard</text>
<text text-anchor="start" x="1204.5" y="-230.5" font-family="Helvetica,sans-Serif" font-size="10.00">/typeClassDefs/wb_top</text>
<text text-anchor="middle" x="1255" y="-219.5" font-family="Helvetica,sans-Serif" font-size="10.00">_particles.h</text>
</a>
</g>
</g>
<!-- Node1&#45;&gt;Node18 -->
<g id="edge39" class="edge">
<title>Node1&#45;&gt;Node18</title>
<path fill="none" stroke="midnightblue" d="M1026.65,-290.49C1072.51,-279.14 1137.29,-263.12 1186.15,-251.03"/>
<polygon fill="midnightblue" stroke="midnightblue" points="1187.14,-254.39 1196.01,-248.59 1185.46,-247.6 1187.14,-254.39"/>
</g>
<!-- Node21 -->
<g id="node21" class="node">
<title>Node21</title>
<g id="a_node21"><a xlink:href="wb__hal__headtarget_8h.html" target="_top" xlink:title=" ">
<polygon fill="none" stroke="black" points="912,-212.5 912,-253.5 1028,-253.5 1028,-212.5 912,-212.5"/>
<text text-anchor="start" x="920" y="-241.5" font-family="Helvetica,sans-Serif" font-size="10.00">gusimplewhiteboard</text>
<text text-anchor="start" x="920" y="-230.5" font-family="Helvetica,sans-Serif" font-size="10.00">/typeClassDefs/wb_hal</text>
<text text-anchor="middle" x="970" y="-219.5" font-family="Helvetica,sans-Serif" font-size="10.00">_headtarget.h</text>
</a>
</g>
</g>
<!-- Node1&#45;&gt;Node21 -->
<g id="edge48" class="edge">
<title>Node1&#45;&gt;Node21</title>
<path fill="none" stroke="midnightblue" d="M970,-290.23C970,-282.57 970,-272.84 970,-263.63"/>
<polygon fill="midnightblue" stroke="midnightblue" points="973.5,-263.59 970,-253.59 966.5,-263.59 973.5,-263.59"/>
</g>
<!-- Node22 -->
<g id="node22" class="node">
<title>Node22</title>
<g id="a_node22"><a xlink:href="wb__sensors__sonar_8h.html" target="_top" xlink:title=" ">
<polygon fill="none" stroke="black" points="282,-212.5 282,-253.5 420,-253.5 420,-212.5 282,-212.5"/>
<text text-anchor="start" x="290" y="-241.5" font-family="Helvetica,sans-Serif" font-size="10.00">gusimplewhiteboard</text>
<text text-anchor="start" x="290" y="-230.5" font-family="Helvetica,sans-Serif" font-size="10.00">/typeClassDefs/wb_sensors</text>
<text text-anchor="middle" x="351" y="-219.5" font-family="Helvetica,sans-Serif" font-size="10.00">_sonar.h</text>
</a>
</g>
</g>
<!-- Node1&#45;&gt;Node22 -->
<g id="edge50" class="edge">
<title>Node1&#45;&gt;Node22</title>
<path fill="none" stroke="midnightblue" d="M913.32,-301.82C815.15,-296.59 607.33,-282.9 434,-254 432.73,-253.79 431.44,-253.57 430.15,-253.34"/>
<polygon fill="midnightblue" stroke="midnightblue" points="430.62,-249.86 420.14,-251.44 429.31,-256.74 430.62,-249.86"/>
</g>
<!-- Node23 -->
<g id="node23" class="node">
<title>Node23</title>
<g id="a_node23"><a xlink:href="wb__pixel__to__robot__relative__coord_8h.html" target="_top" xlink:title=" ">
<polygon fill="none" stroke="black" points="1862.5,-134.5 1862.5,-175.5 1993.5,-175.5 1993.5,-134.5 1862.5,-134.5"/>
<text text-anchor="start" x="1870.5" y="-163.5" font-family="Helvetica,sans-Serif" font-size="10.00">gusimplewhiteboard</text>
<text text-anchor="start" x="1870.5" y="-152.5" font-family="Helvetica,sans-Serif" font-size="10.00">/typeClassDefs/wb_pixel</text>
<text text-anchor="middle" x="1928" y="-141.5" font-family="Helvetica,sans-Serif" font-size="10.00">_to_robot_relative_coord.h</text>
</a>
</g>
</g>
<!-- Node1&#45;&gt;Node23 -->
<g id="edge52" class="edge">
<title>Node1&#45;&gt;Node23</title>
<path fill="none" stroke="midnightblue" d="M1026.61,-302.78C1172.77,-297.98 1560.04,-282.85 1685,-254 1755.85,-237.64 1832.96,-203.5 1880.89,-180.17"/>
<polygon fill="midnightblue" stroke="midnightblue" points="1882.65,-183.21 1890.08,-175.65 1879.56,-176.92 1882.65,-183.21"/>
</g>
<!-- Node28 -->
<g id="node28" class="node">
<title>Node28</title>
<g id="a_node28"><a xlink:href="wb__nao__state_8h.html" target="_top" xlink:title=" ">
<polygon fill="none" stroke="black" points="380.5,-134.5 380.5,-175.5 499.5,-175.5 499.5,-134.5 380.5,-134.5"/>
<text text-anchor="start" x="388.5" y="-163.5" font-family="Helvetica,sans-Serif" font-size="10.00">gusimplewhiteboard</text>
<text text-anchor="start" x="388.5" y="-152.5" font-family="Helvetica,sans-Serif" font-size="10.00">/typeClassDefs/wb_nao</text>
<text text-anchor="middle" x="440" y="-141.5" font-family="Helvetica,sans-Serif" font-size="10.00">_state.h</text>
</a>
</g>
</g>
<!-- Node1&#45;&gt;Node28 -->
<g id="edge64" class="edge">
<title>Node1&#45;&gt;Node28</title>
<path fill="none" stroke="midnightblue" d="M913.14,-302.37C788.68,-297.21 500.53,-282.3 467,-254 447.41,-237.47 441.36,-208.15 439.79,-185.88"/>
<polygon fill="midnightblue" stroke="midnightblue" points="443.27,-185.43 439.34,-175.6 436.28,-185.74 443.27,-185.43"/>
</g>
<!-- Node3 -->
<g id="node3" class="node">
<title>Node3</title>
<g id="a_node3"><a xlink:title=" ">
<polygon fill="none" stroke="#bfbfbf" points="253.5,-0.5 253.5,-19.5 318.5,-19.5 318.5,-0.5 253.5,-0.5"/>
<text text-anchor="middle" x="286" y="-7.5" font-family="Helvetica,sans-Serif" font-size="10.00">sys/types.h</text>
</a>
</g>
</g>
<!-- Node2&#45;&gt;Node3 -->
<g id="edge2" class="edge">
<title>Node2&#45;&gt;Node3</title>
<path fill="none" stroke="midnightblue" d="M132.01,-56.5C169.58,-45.4 215.35,-31.87 247.19,-22.47"/>
<polygon fill="midnightblue" stroke="midnightblue" points="248.41,-25.76 257,-19.57 246.42,-19.04 248.41,-25.76"/>
</g>
<!-- Node4&#45;&gt;Node3 -->
<g id="edge4" class="edge">
<title>Node4&#45;&gt;Node3</title>
<path fill="none" stroke="midnightblue" d="M228.84,-61.9C240.56,-51.46 256.52,-37.25 268.59,-26.5"/>
<polygon fill="midnightblue" stroke="midnightblue" points="271.09,-28.96 276.24,-19.69 266.44,-23.73 271.09,-28.96"/>
</g>
<!-- Node5 -->
<g id="node5" class="node">
<title>Node5</title>
<g id="a_node5"><a xlink:title=" ">
<polygon fill="none" stroke="#bfbfbf" points="898.5,-0.5 898.5,-19.5 951.5,-19.5 951.5,-0.5 898.5,-0.5"/>
<text text-anchor="middle" x="925" y="-7.5" font-family="Helvetica,sans-Serif" font-size="10.00">gu_util.h</text>
</a>
</g>
</g>
<!-- Node4&#45;&gt;Node5 -->
<g id="edge5" class="edge">
<title>Node4&#45;&gt;Node5</title>
<path fill="none" stroke="midnightblue" d="M259.03,-61.91C267.91,-59.62 277.19,-57.5 286,-56 512.63,-17.36 789.91,-11.78 888.27,-11.07"/>
<polygon fill="midnightblue" stroke="midnightblue" points="888.32,-14.57 898.3,-11.01 888.28,-7.57 888.32,-14.57"/>
</g>
<!-- Node6&#45;&gt;Node3 -->
<g id="edge7" class="edge">
<title>Node6&#45;&gt;Node3</title>
<path fill="none" stroke="midnightblue" d="M343.16,-61.9C331.44,-51.46 315.48,-37.25 303.41,-26.5"/>
<polygon fill="midnightblue" stroke="midnightblue" points="305.56,-23.73 295.76,-19.69 300.91,-28.96 305.56,-23.73"/>
</g>
<!-- Node6&#45;&gt;Node5 -->
<g id="edge8" class="edge">
<title>Node6&#45;&gt;Node5</title>
<path fill="none" stroke="midnightblue" d="M409.75,-61.91C419.09,-59.67 428.8,-57.58 438,-56 604.58,-27.4 806.56,-16.07 888.17,-12.44"/>
<polygon fill="midnightblue" stroke="midnightblue" points="888.58,-15.93 898.42,-12 888.27,-8.94 888.58,-15.93"/>
</g>
<!-- Node7&#45;&gt;Node2 -->
<g id="edge15" class="edge">
<title>Node7&#45;&gt;Node2</title>
<path fill="none" stroke="midnightblue" d="M839.97,-144.19C813.59,-140.55 782.9,-136.66 755,-134 486.2,-108.35 412.67,-140.63 142.21,-98.02"/>
<polygon fill="midnightblue" stroke="midnightblue" points="142.52,-94.52 132.1,-96.4 141.42,-101.43 142.52,-94.52"/>
</g>
<!-- Node7&#45;&gt;Node5 -->
<g id="edge10" class="edge">
<title>Node7&#45;&gt;Node5</title>
<path fill="none" stroke="midnightblue" d="M891.15,-134.38C877.86,-114.25 862.15,-82.27 874,-56 879.62,-43.56 890.56,-33.17 900.88,-25.53"/>
<polygon fill="midnightblue" stroke="midnightblue" points="903.01,-28.31 909.27,-19.76 899.04,-22.54 903.01,-28.31"/>
</g>
<!-- Node8 -->
<g id="node8" class="node">
<title>Node8</title>
<g id="a_node8"><a xlink:title=" ">
<polygon fill="none" stroke="#bfbfbf" points="1382,-0.5 1382,-19.5 1430,-19.5 1430,-0.5 1382,-0.5"/>
<text text-anchor="middle" x="1406" y="-7.5" font-family="Helvetica,sans-Serif" font-size="10.00">stdint.h</text>
</a>
</g>
</g>
<!-- Node7&#45;&gt;Node8 -->
<g id="edge11" class="edge">
<title>Node7&#45;&gt;Node8</title>
<path fill="none" stroke="midnightblue" d="M972.18,-136.02C975.15,-135.31 978.1,-134.64 981,-134 1071.77,-114.01 1099.81,-130.18 1187,-98 1221.4,-85.3 1224.44,-70.77 1258,-56 1295.76,-39.38 1341.5,-26.5 1372.05,-18.86"/>
<polygon fill="midnightblue" stroke="midnightblue" points="1372.91,-22.25 1381.79,-16.47 1371.24,-15.45 1372.91,-22.25"/>
</g>
<!-- Node7&#45;&gt;Node9 -->
<g id="edge12" class="edge">
<title>Node7&#45;&gt;Node9</title>
<path fill="none" stroke="midnightblue" d="M920.68,-134.43C928.49,-124.02 938.12,-111.17 946.22,-100.37"/>
<polygon fill="midnightblue" stroke="midnightblue" points="949.13,-102.33 952.33,-92.23 943.53,-98.13 949.13,-102.33"/>
</g>
<!-- Node9&#45;&gt;Node5 -->
<g id="edge13" class="edge">
<title>Node9&#45;&gt;Node5</title>
<path fill="none" stroke="midnightblue" d="M954.75,-61.9C949.01,-52.06 941.3,-38.88 935.17,-28.39"/>
<polygon fill="midnightblue" stroke="midnightblue" points="938.15,-26.56 930.08,-19.69 932.11,-30.09 938.15,-26.56"/>
</g>
<!-- Node9&#45;&gt;Node8 -->
<g id="edge14" class="edge">
<title>Node9&#45;&gt;Node8</title>
<path fill="none" stroke="midnightblue" d="M1010.03,-68.8C1035.22,-64.96 1066.8,-60.18 1095,-56 1195.59,-41.1 1314.58,-24.04 1371.84,-15.87"/>
<polygon fill="midnightblue" stroke="midnightblue" points="1372.39,-19.32 1381.8,-14.45 1371.4,-12.39 1372.39,-19.32"/>
</g>
<!-- Node10&#45;&gt;Node5 -->
<g id="edge17" class="edge">
<title>Node10&#45;&gt;Node5</title>
<path fill="none" stroke="midnightblue" d="M994.09,-134.41C955.61,-121.61 912.45,-105.87 907,-98 892.56,-77.15 904.1,-47.19 914.2,-28.42"/>
<polygon fill="midnightblue" stroke="midnightblue" points="917.38,-29.92 919.35,-19.51 911.31,-26.42 917.38,-29.92"/>
</g>
<!-- Node10&#45;&gt;Node8 -->
<g id="edge18" class="edge">
<title>Node10&#45;&gt;Node8</title>
<path fill="none" stroke="midnightblue" d="M1122.13,-143.61C1163.05,-135.3 1215.68,-121.11 1258,-98 1282.59,-84.57 1281.48,-71.22 1305,-56 1326.05,-42.38 1351.92,-30.94 1372.2,-23.01"/>
<polygon fill="midnightblue" stroke="midnightblue" points="1373.57,-26.23 1381.67,-19.4 1371.08,-19.69 1373.57,-26.23"/>
</g>
<!-- Node10&#45;&gt;Node9 -->
<g id="edge19" class="edge">
<title>Node10&#45;&gt;Node9</title>
<path fill="none" stroke="midnightblue" d="M1032.05,-134.43C1018.68,-123.5 1002.03,-109.89 988.43,-98.78"/>
<polygon fill="midnightblue" stroke="midnightblue" points="990.37,-95.84 980.41,-92.23 985.94,-101.26 990.37,-95.84"/>
</g>
<!-- Node11 -->
<g id="node11" class="node">
<title>Node11</title>
<g id="a_node11"><a xlink:href="wb__filtered__vision__ball__type_8h.html" target="_top" xlink:title=" ">
<polygon fill="none" stroke="black" points="652,-62 652,-92 746,-92 746,-62 652,-62"/>
<text text-anchor="start" x="660" y="-80" font-family="Helvetica,sans-Serif" font-size="10.00">wb_filtered_vision</text>
<text text-anchor="middle" x="699" y="-69" font-family="Helvetica,sans-Serif" font-size="10.00">_ball_type.h</text>
</a>
</g>
</g>
<!-- Node10&#45;&gt;Node11 -->
<g id="edge20" class="edge">
<title>Node10&#45;&gt;Node11</title>
<path fill="none" stroke="midnightblue" d="M989.8,-136.1C986.83,-135.37 983.89,-134.67 981,-134 903.49,-115.99 813.15,-98.69 756.02,-88.21"/>
<polygon fill="midnightblue" stroke="midnightblue" points="756.57,-84.75 746.1,-86.39 755.31,-91.63 756.57,-84.75"/>
</g>
<!-- Node11&#45;&gt;Node3 -->
<g id="edge21" class="edge">
<title>Node11&#45;&gt;Node3</title>
<path fill="none" stroke="midnightblue" d="M651.62,-68.54C570.51,-55.78 406.3,-29.93 328.59,-17.7"/>
<polygon fill="midnightblue" stroke="midnightblue" points="329.09,-14.24 318.67,-16.14 328,-21.15 329.09,-14.24"/>
</g>
<!-- Node12&#45;&gt;Node5 -->
<g id="edge24" class="edge">
<title>Node12&#45;&gt;Node5</title>
<path fill="none" stroke="midnightblue" d="M1541.81,-57.58C1538.84,-57.01 1535.9,-56.47 1533,-56 1318.52,-20.85 1056.95,-13.14 961.81,-11.46"/>
<polygon fill="midnightblue" stroke="midnightblue" points="961.62,-7.96 951.57,-11.29 961.51,-14.96 961.62,-7.96"/>
</g>
<!-- Node12&#45;&gt;Node8 -->
<g id="edge25" class="edge">
<title>Node12&#45;&gt;Node8</title>
<path fill="none" stroke="midnightblue" d="M1549.49,-56.5C1513.62,-45.12 1469.74,-31.21 1440.01,-21.78"/>
<polygon fill="midnightblue" stroke="midnightblue" points="1440.72,-18.34 1430.13,-18.65 1438.6,-25.01 1440.72,-18.34"/>
</g>
<!-- Node13&#45;&gt;Node5 -->
<g id="edge27" class="edge">
<title>Node13&#45;&gt;Node5</title>
<path fill="none" stroke="midnightblue" d="M1385.98,-67.54C1272.3,-53.59 1049.52,-26.27 961.77,-15.51"/>
<polygon fill="midnightblue" stroke="midnightblue" points="962.11,-12.03 951.76,-14.28 961.26,-18.97 962.11,-12.03"/>
</g>
<!-- Node13&#45;&gt;Node8 -->
<g id="edge28" class="edge">
<title>Node13&#45;&gt;Node8</title>
<path fill="none" stroke="midnightblue" d="M1440.3,-56.5C1433.44,-47.39 1425.35,-36.66 1418.75,-27.91"/>
<polygon fill="midnightblue" stroke="midnightblue" points="1421.34,-25.53 1412.52,-19.65 1415.75,-29.74 1421.34,-25.53"/>
</g>
<!-- Node14&#45;&gt;Node5 -->
<g id="edge30" class="edge">
<title>Node14&#45;&gt;Node5</title>
<path fill="none" stroke="midnightblue" d="M818.63,-212.36C808.49,-176.97 793.25,-101.95 829,-56 843.67,-37.15 868.13,-25.85 888.69,-19.28"/>
<polygon fill="midnightblue" stroke="midnightblue" points="889.8,-22.6 898.41,-16.43 887.83,-15.89 889.8,-22.6"/>
</g>
<!-- Node15&#45;&gt;Node5 -->
<g id="edge32" class="edge">
<title>Node15&#45;&gt;Node5</title>
<path fill="none" stroke="midnightblue" d="M1697.82,-57.53C1694.85,-56.97 1691.9,-56.45 1689,-56 1412.04,-12.75 1072.69,-10.22 961.88,-10.67"/>
<polygon fill="midnightblue" stroke="midnightblue" points="961.57,-7.17 951.59,-10.73 961.6,-14.17 961.57,-7.17"/>
</g>
<!-- Node15&#45;&gt;Node8 -->
<g id="edge33" class="edge">
<title>Node15&#45;&gt;Node8</title>
<path fill="none" stroke="midnightblue" d="M1697.76,-57.89C1694.8,-57.23 1691.87,-56.6 1689,-56 1599.94,-37.54 1493.76,-22.5 1440.33,-15.41"/>
<polygon fill="midnightblue" stroke="midnightblue" points="1440.74,-11.93 1430.37,-14.09 1439.82,-18.87 1440.74,-11.93"/>
</g>
<!-- Node16&#45;&gt;Node5 -->
<g id="edge35" class="edge">
<title>Node16&#45;&gt;Node5</title>
<path fill="none" stroke="midnightblue" d="M644.18,-139.75C635.25,-118.76 622.95,-79.51 643,-56 674.08,-19.57 818.81,-12.5 887.99,-11.22"/>
<polygon fill="midnightblue" stroke="midnightblue" points="888.47,-14.71 898.41,-11.06 888.36,-7.71 888.47,-14.71"/>
</g>
<!-- Node17&#45;&gt;Node5 -->
<g id="edge37" class="edge">
<title>Node17&#45;&gt;Node5</title>
<path fill="none" stroke="midnightblue" d="M573.6,-217.8C564.01,-207.28 552.24,-192.03 547,-176 541.2,-158.26 539.69,-151.18 547,-134 566.56,-88.01 583.18,-78.12 628,-56 673.15,-33.72 819.15,-19.45 888.19,-13.78"/>
<polygon fill="midnightblue" stroke="midnightblue" points="888.5,-17.27 898.18,-12.98 887.94,-10.29 888.5,-17.27"/>
</g>
<!-- Node17&#45;&gt;Node16 -->
<g id="edge38" class="edge">
<title>Node17&#45;&gt;Node16</title>
<path fill="none" stroke="midnightblue" d="M599.85,-217.7C609.09,-206.56 622.08,-190.88 632.66,-178.12"/>
<polygon fill="midnightblue" stroke="midnightblue" points="635.52,-180.16 639.2,-170.23 630.13,-175.7 635.52,-180.16"/>
</g>
<!-- Node18&#45;&gt;Node5 -->
<g id="edge40" class="edge">
<title>Node18&#45;&gt;Node5</title>
<path fill="none" stroke="midnightblue" d="M1238.26,-212.22C1218.94,-190.46 1185.26,-155.69 1150,-134 1110.48,-109.69 1089.54,-125.28 1052,-98 1032.8,-84.04 1037.52,-70.85 1019,-56 1001.45,-41.93 978.77,-30.91 960.09,-23.3"/>
<polygon fill="midnightblue" stroke="midnightblue" points="961.32,-20.03 950.73,-19.63 958.77,-26.54 961.32,-20.03"/>
</g>
<!-- Node18&#45;&gt;Node8 -->
<g id="edge41" class="edge">
<title>Node18&#45;&gt;Node8</title>
<path fill="none" stroke="midnightblue" d="M1295.79,-212.4C1311.21,-203.23 1327.73,-190.99 1339,-176 1372.62,-131.29 1353.19,-106.63 1377,-56 1381.6,-46.22 1388,-36.05 1393.62,-27.85"/>
<polygon fill="midnightblue" stroke="midnightblue" points="1396.57,-29.74 1399.49,-19.56 1390.86,-25.7 1396.57,-29.74"/>
</g>
<!-- Node19 -->
<g id="node19" class="node">
<title>Node19</title>
<g id="a_node19"><a xlink:href="wb__particle__position_8h.html" target="_top" xlink:title=" ">
<polygon fill="none" stroke="black" points="1216.5,-145.5 1216.5,-164.5 1329.5,-164.5 1329.5,-145.5 1216.5,-145.5"/>
<text text-anchor="middle" x="1273" y="-152.5" font-family="Helvetica,sans-Serif" font-size="10.00">wb_particle_position.h</text>
</a>
</g>
</g>
<!-- Node18&#45;&gt;Node19 -->
<g id="edge42" class="edge">
<title>Node18&#45;&gt;Node19</title>
<path fill="none" stroke="midnightblue" d="M1259.64,-212.43C1262.41,-200.7 1265.93,-185.87 1268.65,-174.36"/>
<polygon fill="midnightblue" stroke="midnightblue" points="1272.08,-175.09 1270.97,-164.55 1265.26,-173.48 1272.08,-175.09"/>
</g>
<!-- Node19&#45;&gt;Node5 -->
<g id="edge43" class="edge">
<title>Node19&#45;&gt;Node5</title>
<path fill="none" stroke="midnightblue" d="M1243.25,-145.46C1196.03,-131.79 1107.93,-105.73 1095,-98 1072.08,-84.28 1074.68,-70.12 1052,-56 1023.95,-38.53 988.19,-26.64 961.77,-19.49"/>
<polygon fill="midnightblue" stroke="midnightblue" points="962.34,-16.02 951.78,-16.89 960.58,-22.8 962.34,-16.02"/>
</g>
<!-- Node19&#45;&gt;Node8 -->
<g id="edge44" class="edge">
<title>Node19&#45;&gt;Node8</title>
<path fill="none" stroke="midnightblue" d="M1277.91,-145.45C1288.47,-127.53 1314.75,-85.28 1344,-56 1355.8,-44.19 1370.94,-33.14 1383.3,-24.95"/>
<polygon fill="midnightblue" stroke="midnightblue" points="1385.21,-27.88 1391.72,-19.52 1381.42,-21.99 1385.21,-27.88"/>
</g>
<!-- Node20 -->
<g id="node20" class="node">
<title>Node20</title>
<g id="a_node20"><a xlink:href="wb__point2d_8h.html" target="_top" xlink:title=" ">
<polygon fill="none" stroke="black" points="1104,-67.5 1104,-86.5 1178,-86.5 1178,-67.5 1104,-67.5"/>
<text text-anchor="middle" x="1141" y="-74.5" font-family="Helvetica,sans-Serif" font-size="10.00">wb_point2d.h</text>
</a>
</g>
</g>
<!-- Node19&#45;&gt;Node20 -->
<g id="edge45" class="edge">
<title>Node19&#45;&gt;Node20</title>
<path fill="none" stroke="midnightblue" d="M1258.11,-145.43C1235.44,-132.37 1192.01,-107.37 1164.89,-91.75"/>
<polygon fill="midnightblue" stroke="midnightblue" points="1166.45,-88.61 1156.03,-86.66 1162.95,-94.68 1166.45,-88.61"/>
</g>
<!-- Node20&#45;&gt;Node5 -->
<g id="edge46" class="edge">
<title>Node20&#45;&gt;Node5</title>
<path fill="none" stroke="midnightblue" d="M1120.34,-67.32C1111.14,-63.6 1100.11,-59.35 1090,-56 1046.32,-41.53 995.06,-28.09 961.4,-19.73"/>
<polygon fill="midnightblue" stroke="midnightblue" points="962.1,-16.3 951.55,-17.31 960.43,-23.1 962.1,-16.3"/>
</g>
<!-- Node20&#45;&gt;Node8 -->
<g id="edge47" class="edge">
<title>Node20&#45;&gt;Node8</title>
<path fill="none" stroke="midnightblue" d="M1175.92,-67.44C1226.93,-54.92 1321.26,-31.79 1371.84,-19.38"/>
<polygon fill="midnightblue" stroke="midnightblue" points="1372.77,-22.76 1381.65,-16.97 1371.1,-15.96 1372.77,-22.76"/>
</g>
<!-- Node21&#45;&gt;Node5 -->
<g id="edge49" class="edge">
<title>Node21&#45;&gt;Node5</title>
<path fill="none" stroke="midnightblue" d="M913,-212.44C876.9,-199.47 836.08,-183.52 831,-176 799.98,-130.06 830.61,-99.48 865,-56 874.78,-43.63 888.74,-32.89 900.73,-25.01"/>
<polygon fill="midnightblue" stroke="midnightblue" points="902.81,-27.84 909.42,-19.56 899.09,-21.91 902.81,-27.84"/>
</g>
<!-- Node22&#45;&gt;Node5 -->
<g id="edge51" class="edge">
<title>Node22&#45;&gt;Node5</title>
<path fill="none" stroke="midnightblue" d="M350.71,-212.48C351.34,-191.27 355.22,-157.29 372,-134 390.4,-108.46 409.16,-118.56 433,-98 451.19,-82.31 445.86,-67.39 467,-56 539.63,-16.88 793.11,-11.59 888.41,-11.01"/>
<polygon fill="midnightblue" stroke="midnightblue" points="888.46,-14.51 898.44,-10.96 888.43,-7.51 888.46,-14.51"/>
</g>
<!-- Node23&#45;&gt;Node5 -->
<g id="edge53" class="edge">
<title>Node23&#45;&gt;Node5</title>
<path fill="none" stroke="midnightblue" d="M1862.37,-149.81C1758.77,-142.64 1551.2,-126.01 1377,-98 1291.61,-84.27 1271.86,-72.66 1187,-56 1107.09,-40.31 1012.87,-24.87 962.03,-16.79"/>
<polygon fill="midnightblue" stroke="midnightblue" points="962.28,-13.29 951.86,-15.18 961.19,-20.2 962.28,-13.29"/>
</g>
<!-- Node23&#45;&gt;Node8 -->
<g id="edge54" class="edge">
<title>Node23&#45;&gt;Node8</title>
<path fill="none" stroke="midnightblue" d="M1973.37,-134.32C1988.1,-125.49 2002.76,-113.5 2011,-98 2019.76,-81.52 2023.7,-69.68 2011,-56 1972.05,-14.04 1562.8,-10.89 1440.4,-10.9"/>
<polygon fill="midnightblue" stroke="midnightblue" points="1440.11,-7.4 1430.12,-10.91 1440.12,-14.4 1440.11,-7.4"/>
</g>
<!-- Node23&#45;&gt;Node15 -->
<g id="edge55" class="edge">
<title>Node23&#45;&gt;Node15</title>
<path fill="none" stroke="midnightblue" d="M1886.54,-134.43C1865.51,-124.5 1839.78,-112.36 1817.59,-101.88"/>
<polygon fill="midnightblue" stroke="midnightblue" points="1818.86,-98.61 1808.32,-97.51 1815.87,-104.94 1818.86,-98.61"/>
</g>
<!-- Node24 -->
<g id="node24" class="node">
<title>Node24</title>
<g id="a_node24"><a xlink:href="wb__sensors__legjointsensors_8h.html" target="_top" xlink:title=" ">
<polygon fill="none" stroke="black" points="1854.5,-67.5 1854.5,-86.5 2001.5,-86.5 2001.5,-67.5 1854.5,-67.5"/>
<text text-anchor="middle" x="1928" y="-74.5" font-family="Helvetica,sans-Serif" font-size="10.00">wb_sensors_legjointsensors.h</text>
</a>
</g>
</g>
<!-- Node23&#45;&gt;Node24 -->
<g id="edge56" class="edge">
<title>Node23&#45;&gt;Node24</title>
<path fill="none" stroke="midnightblue" d="M1928,-134.43C1928,-122.82 1928,-108.18 1928,-96.72"/>
<polygon fill="midnightblue" stroke="midnightblue" points="1931.5,-96.55 1928,-86.55 1924.5,-96.55 1931.5,-96.55"/>
</g>
<!-- Node25 -->
<g id="node25" class="node">
<title>Node25</title>
<g id="a_node25"><a xlink:href="wb__vision__control__status_8h.html" target="_top" xlink:title=" ">
<polygon fill="none" stroke="black" points="2058,-67.5 2058,-86.5 2192,-86.5 2192,-67.5 2058,-67.5"/>
<text text-anchor="middle" x="2125" y="-74.5" font-family="Helvetica,sans-Serif" font-size="10.00">wb_vision_control_status.h</text>
</a>
</g>
</g>
<!-- Node23&#45;&gt;Node25 -->
<g id="edge59" class="edge">
<title>Node23&#45;&gt;Node25</title>
<path fill="none" stroke="midnightblue" d="M1978.73,-134.43C2014.94,-120.46 2062.52,-102.11 2093.42,-90.18"/>
<polygon fill="midnightblue" stroke="midnightblue" points="2094.76,-93.42 2102.83,-86.55 2092.24,-86.89 2094.76,-93.42"/>
</g>
<!-- Node27 -->
<g id="node27" class="node">
<title>Node27</title>
<g id="a_node27"><a xlink:title=" ">
<polygon fill="none" stroke="#bfbfbf" points="2210.5,-67.5 2210.5,-86.5 2257.5,-86.5 2257.5,-67.5 2210.5,-67.5"/>
<text text-anchor="middle" x="2234" y="-74.5" font-family="Helvetica,sans-Serif" font-size="10.00">stdlib.h</text>
</a>
</g>
</g>
<!-- Node23&#45;&gt;Node27 -->
<g id="edge63" class="edge">
<title>Node23&#45;&gt;Node27</title>
<path fill="none" stroke="midnightblue" d="M1993.78,-146.92C2050.22,-139.36 2132.98,-124.66 2201,-98 2205.14,-96.38 2209.35,-94.25 2213.32,-91.99"/>
<polygon fill="midnightblue" stroke="midnightblue" points="2215.31,-94.88 2221.99,-86.65 2211.64,-88.92 2215.31,-94.88"/>
</g>
<!-- Node24&#45;&gt;Node5 -->
<g id="edge57" class="edge">
<title>Node24&#45;&gt;Node5</title>
<path fill="none" stroke="midnightblue" d="M1898.3,-67.41C1882.59,-63.23 1862.9,-58.57 1845,-56 1669.94,-30.85 1110.57,-15.57 961.69,-11.87"/>
<polygon fill="midnightblue" stroke="midnightblue" points="961.78,-8.38 951.69,-11.63 961.6,-15.37 961.78,-8.38"/>
</g>
<!-- Node24&#45;&gt;Node8 -->
<g id="edge58" class="edge">
<title>Node24&#45;&gt;Node8</title>
<path fill="none" stroke="midnightblue" d="M1896.68,-67.4C1881.22,-63.43 1862.24,-58.95 1845,-56 1695.64,-30.47 1515.05,-17.53 1440.62,-12.96"/>
<polygon fill="midnightblue" stroke="midnightblue" points="1440.62,-9.46 1430.43,-12.35 1440.2,-16.44 1440.62,-9.46"/>
</g>
<!-- Node25&#45;&gt;Node5 -->
<g id="edge60" class="edge">
<title>Node25&#45;&gt;Node5</title>
<path fill="none" stroke="midnightblue" d="M2084.03,-67.46C2062.41,-63.3 2035.37,-58.63 2011,-56 1800.8,-33.31 1126.52,-15.86 961.64,-11.87"/>
<polygon fill="midnightblue" stroke="midnightblue" points="961.61,-8.36 951.52,-11.62 961.44,-15.36 961.61,-8.36"/>
</g>
<!-- Node25&#45;&gt;Node8 -->
<g id="edge61" class="edge">
<title>Node25&#45;&gt;Node8</title>
<path fill="none" stroke="midnightblue" d="M2095.62,-67.46C2080.36,-63.34 2061.31,-58.73 2044,-56 1815.61,-20.02 1536.66,-12.8 1440.5,-11.36"/>
<polygon fill="midnightblue" stroke="midnightblue" points="1440.26,-7.85 1430.21,-11.22 1440.16,-14.85 1440.26,-7.85"/>
</g>
<!-- Node26 -->
<g id="node26" class="node">
<title>Node26</title>
<g id="a_node26"><a xlink:title=" ">
<polygon fill="none" stroke="#bfbfbf" points="2094.5,-0.5 2094.5,-19.5 2155.5,-19.5 2155.5,-0.5 2094.5,-0.5"/>
<text text-anchor="middle" x="2125" y="-7.5" font-family="Helvetica,sans-Serif" font-size="10.00">sys/time.h</text>
</a>
</g>
</g>
<!-- Node25&#45;&gt;Node26 -->
<g id="edge62" class="edge">
<title>Node25&#45;&gt;Node26</title>
<path fill="none" stroke="midnightblue" d="M2125,-67.23C2125,-57.68 2125,-42.12 2125,-29.78"/>
<polygon fill="midnightblue" stroke="midnightblue" points="2128.5,-29.63 2125,-19.63 2121.5,-29.63 2128.5,-29.63"/>
</g>
<!-- Node28&#45;&gt;Node5 -->
<g id="edge65" class="edge">
<title>Node28&#45;&gt;Node5</title>
<path fill="none" stroke="midnightblue" d="M448.77,-134.31C460.19,-111.24 482.49,-73.9 514,-56 577.5,-19.93 799.71,-12.77 888.22,-11.35"/>
<polygon fill="midnightblue" stroke="midnightblue" points="888.38,-14.85 898.33,-11.2 888.28,-7.85 888.38,-14.85"/>
</g>
</g>
</svg>
