<?xml version="1.0" encoding="UTF-8" standalone="no"?>
<!DOCTYPE svg PUBLIC "-//W3C//DTD SVG 1.1//EN"
 "http://www.w3.org/Graphics/SVG/1.1/DTD/svg11.dtd">
<!-- Generated by graphviz version 2.49.0 (20210830.1337)
 -->
<!-- Title: guwhiteboardtypelist_c_typestrings_generated_default.c Pages: 1 -->
<svg width="332pt" height="229pt"
 viewBox="0.00 0.00 331.50 229.00" xmlns="http://www.w3.org/2000/svg" xmlns:xlink="http://www.w3.org/1999/xlink">
<g id="graph0" class="graph" transform="scale(1 1) rotate(0) translate(4 225)">
<title>guwhiteboardtypelist_c_typestrings_generated_default.c</title>
<!-- Node1 -->
<g id="node1" class="node">
<title>Node1</title>
<g id="a_node1"><a xlink:title=" ">
<polygon fill="#bfbfbf" stroke="black" points="125.5,-179.5 125.5,-220.5 253.5,-220.5 253.5,-179.5 125.5,-179.5"/>
<text text-anchor="start" x="133.5" y="-208.5" font-family="Helvetica,sans-Serif" font-size="10.00">guwhiteboardtypelist</text>
<text text-anchor="start" x="133.5" y="-197.5" font-family="Helvetica,sans-Serif" font-size="10.00">_c_typestrings_generated</text>
<text text-anchor="middle" x="189.5" y="-186.5" font-family="Helvetica,sans-Serif" font-size="10.00">_default.c</text>
</a>
</g>
</g>
<!-- Node2 -->
<g id="node2" class="node">
<title>Node2</title>
<g id="a_node2"><a xlink:href="gusimplewhiteboard_8h.html" target="_top" xlink:title=" ">
<polygon fill="none" stroke="black" points="134.5,-56.5 134.5,-75.5 244.5,-75.5 244.5,-56.5 134.5,-56.5"/>
<text text-anchor="middle" x="189.5" y="-63.5" font-family="Helvetica,sans-Serif" font-size="10.00">gusimplewhiteboard.h</text>
</a>
</g>
</g>
<!-- Node1&#45;&gt;Node2 -->
<g id="edge1" class="edge">
<title>Node1&#45;&gt;Node2</title>
<path fill="none" stroke="midnightblue" d="M178.15,-179.38C169.39,-161.79 159.69,-135.26 165.5,-112 167.94,-102.25 172.94,-92.29 177.74,-84.23"/>
<polygon fill="midnightblue" stroke="midnightblue" points="180.71,-86.08 183.13,-75.77 174.81,-82.32 180.71,-86.08"/>
</g>
<!-- Node7 -->
<g id="node7" class="node">
<title>Node7</title>
<g id="a_node7"><a xlink:href="guwhiteboardtypelist__c__generated__default_8h.html" target="_top" xlink:title=" ">
<polygon fill="none" stroke="black" points="175,-112.5 175,-142.5 292,-142.5 292,-112.5 175,-112.5"/>
<text text-anchor="start" x="183" y="-130.5" font-family="Helvetica,sans-Serif" font-size="10.00">guwhiteboardtypelist</text>
<text text-anchor="middle" x="233.5" y="-119.5" font-family="Helvetica,sans-Serif" font-size="10.00">_c_generated_default.h</text>
</a>
</g>
</g>
<!-- Node1&#45;&gt;Node7 -->
<g id="edge6" class="edge">
<title>Node1&#45;&gt;Node7</title>
<path fill="none" stroke="midnightblue" d="M201.76,-179.36C207.17,-170.68 213.58,-160.42 219.21,-151.4"/>
<polygon fill="midnightblue" stroke="midnightblue" points="222.19,-153.23 224.52,-142.89 216.25,-149.52 222.19,-153.23"/>
</g>
<!-- Node3 -->
<g id="node3" class="node">
<title>Node3</title>
<g id="a_node3"><a xlink:title=" ">
<polygon fill="none" stroke="#bfbfbf" points="0,-0.5 0,-19.5 101,-19.5 101,-0.5 0,-0.5"/>
<text text-anchor="middle" x="50.5" y="-7.5" font-family="Helvetica,sans-Serif" font-size="10.00">dispatch/dispatch.h</text>
</a>
</g>
</g>
<!-- Node2&#45;&gt;Node3 -->
<g id="edge2" class="edge">
<title>Node2&#45;&gt;Node3</title>
<path fill="none" stroke="midnightblue" d="M167.48,-56.44C144.4,-47.48 107.94,-33.31 81.86,-23.18"/>
<polygon fill="midnightblue" stroke="midnightblue" points="83.01,-19.88 72.42,-19.52 80.48,-26.4 83.01,-19.88"/>
</g>
<!-- Node4 -->
<g id="node4" class="node">
<title>Node4</title>
<g id="a_node4"><a xlink:title=" ">
<polygon fill="none" stroke="#bfbfbf" points="119,-0.5 119,-19.5 184,-19.5 184,-0.5 119,-0.5"/>
<text text-anchor="middle" x="151.5" y="-7.5" font-family="Helvetica,sans-Serif" font-size="10.00">sys/types.h</text>
</a>
</g>
</g>
<!-- Node2&#45;&gt;Node4 -->
<g id="edge3" class="edge">
<title>Node2&#45;&gt;Node4</title>
<path fill="none" stroke="midnightblue" d="M183.23,-56.08C177.86,-48.46 169.98,-37.26 163.42,-27.94"/>
<polygon fill="midnightblue" stroke="midnightblue" points="166.28,-25.91 157.66,-19.75 160.55,-29.94 166.28,-25.91"/>
</g>
<!-- Node5 -->
<g id="node5" class="node">
<title>Node5</title>
<g id="a_node5"><a xlink:title=" ">
<polygon fill="none" stroke="#bfbfbf" points="202,-0.5 202,-19.5 255,-19.5 255,-0.5 202,-0.5"/>
<text text-anchor="middle" x="228.5" y="-7.5" font-family="Helvetica,sans-Serif" font-size="10.00">cstdbool</text>
</a>
</g>
</g>
<!-- Node2&#45;&gt;Node5 -->
<g id="edge4" class="edge">
<title>Node2&#45;&gt;Node5</title>
<path fill="none" stroke="midnightblue" d="M195.94,-56.08C201.45,-48.46 209.53,-37.26 216.26,-27.94"/>
<polygon fill="midnightblue" stroke="midnightblue" points="219.16,-29.91 222.18,-19.75 213.49,-25.81 219.16,-29.91"/>
</g>
<!-- Node6 -->
<g id="node6" class="node">
<title>Node6</title>
<g id="a_node6"><a xlink:title=" ">
<polygon fill="none" stroke="#bfbfbf" points="273.5,-0.5 273.5,-19.5 323.5,-19.5 323.5,-0.5 273.5,-0.5"/>
<text text-anchor="middle" x="298.5" y="-7.5" font-family="Helvetica,sans-Serif" font-size="10.00">unistd.h</text>
</a>
</g>
</g>
<!-- Node2&#45;&gt;Node6 -->
<g id="edge5" class="edge">
<title>Node2&#45;&gt;Node6</title>
<path fill="none" stroke="midnightblue" d="M207.01,-56.32C224.57,-47.62 251.83,-34.12 272.03,-24.11"/>
<polygon fill="midnightblue" stroke="midnightblue" points="273.62,-27.23 281.03,-19.65 270.52,-20.96 273.62,-27.23"/>
</g>
<!-- Node7&#45;&gt;Node2 -->
<g id="edge7" class="edge">
<title>Node7&#45;&gt;Node2</title>
<path fill="none" stroke="midnightblue" d="M223.07,-112.4C216.74,-103.84 208.63,-92.87 201.97,-83.86"/>
<polygon fill="midnightblue" stroke="midnightblue" points="204.66,-81.62 195.9,-75.66 199.03,-85.78 204.66,-81.62"/>
</g>
</g>
</svg>
