<?xml version="1.0" encoding="UTF-8" standalone="no"?>
<!DOCTYPE svg PUBLIC "-//W3C//DTD SVG 1.1//EN"
 "http://www.w3.org/Graphics/SVG/1.1/DTD/svg11.dtd">
<!-- Generated by graphviz version 2.49.0 (20210830.1337)
 -->
<!-- Title: guwhiteboardtypelist_c_generated.h Pages: 1 -->
<svg width="1259pt" height="352pt"
 viewBox="0.00 0.00 1258.50 352.00" xmlns="http://www.w3.org/2000/svg" xmlns:xlink="http://www.w3.org/1999/xlink">
<g id="graph0" class="graph" transform="scale(1 1) rotate(0) translate(4 348)">
<title>guwhiteboardtypelist_c_generated.h</title>
<!-- Node1 -->
<g id="node1" class="node">
<title>Node1</title>
<g id="a_node1"><a xlink:title=" ">
<polygon fill="#bfbfbf" stroke="black" points="698,-313.5 698,-343.5 803,-343.5 803,-313.5 698,-313.5"/>
<text text-anchor="start" x="706" y="-331.5" font-family="Helvetica,sans-Serif" font-size="10.00">guwhiteboardtypelist</text>
<text text-anchor="middle" x="750.5" y="-320.5" font-family="Helvetica,sans-Serif" font-size="10.00">_c_generated.h</text>
</a>
</g>
</g>
<!-- Node2 -->
<g id="node2" class="node">
<title>Node2</title>
<g id="a_node2"><a xlink:href="_whiteboard_8cc.html" target="_top" xlink:title=" ">
<polygon fill="none" stroke="black" points="1128.5,-73 1128.5,-92 1250.5,-92 1250.5,-73 1128.5,-73"/>
<text text-anchor="middle" x="1189.5" y="-80" font-family="Helvetica,sans-Serif" font-size="10.00">OLD_WB/Whiteboard.cc</text>
</a>
</g>
</g>
<!-- Node1&#45;&gt;Node2 -->
<g id="edge1" class="edge">
<title>Node1&#45;&gt;Node2</title>
<path fill="none" stroke="midnightblue" d="M813.32,-328.38C914.4,-328.4 1106.68,-322.28 1154.5,-277 1208.29,-226.07 1196.04,-122.45 1191.06,-92.06"/>
<polygon fill="midnightblue" stroke="midnightblue" points="813.25,-324.88 803.24,-328.35 813.23,-331.88 813.25,-324.88"/>
</g>
<!-- Node3 -->
<g id="node3" class="node">
<title>Node3</title>
<g id="a_node3"><a xlink:href="_simple_whiteboard_test_plain_c_8m.html" target="_top" xlink:title=" ">
<polygon fill="none" stroke="black" points="223,-246.5 223,-276.5 380,-276.5 380,-246.5 223,-246.5"/>
<text text-anchor="start" x="231" y="-264.5" font-family="Helvetica,sans-Serif" font-size="10.00">SimpleWhiteboardTest</text>
<text text-anchor="middle" x="301.5" y="-253.5" font-family="Helvetica,sans-Serif" font-size="10.00">/SimpleWhiteboardTestPlainC.m</text>
</a>
</g>
</g>
<!-- Node1&#45;&gt;Node3 -->
<g id="edge2" class="edge">
<title>Node1&#45;&gt;Node3</title>
<path fill="none" stroke="midnightblue" d="M687.69,-319.25C615.44,-309.65 493.27,-293.04 388.5,-277 385.78,-276.58 383,-276.15 380.21,-275.71"/>
<polygon fill="midnightblue" stroke="midnightblue" points="687.61,-322.77 697.98,-320.62 688.53,-315.83 687.61,-322.77"/>
</g>
<!-- Node4 -->
<g id="node4" class="node">
<title>Node4</title>
<g id="a_node4"><a xlink:href="gu_whiteboard__gugenericwhiteboardobject_8cpp.html" target="_top" xlink:title=" ">
<polygon fill="none" stroke="black" points="398,-252 398,-271 613,-271 613,-252 398,-252"/>
<text text-anchor="middle" x="505.5" y="-259" font-family="Helvetica,sans-Serif" font-size="10.00">guWhiteboard_gugenericwhiteboardobject.cpp</text>
</a>
</g>
</g>
<!-- Node1&#45;&gt;Node4 -->
<g id="edge3" class="edge">
<title>Node1&#45;&gt;Node4</title>
<path fill="none" stroke="midnightblue" d="M688.27,-310.99C640.29,-298.26 575.88,-281.17 537.73,-271.05"/>
<polygon fill="midnightblue" stroke="midnightblue" points="687.38,-314.37 697.94,-313.56 689.17,-307.61 687.38,-314.37"/>
</g>
<!-- Node5 -->
<g id="node5" class="node">
<title>Node5</title>
<g id="a_node5"><a xlink:href="gusimplewhiteboard_8c.html" target="_top" xlink:title=" ">
<polygon fill="none" stroke="black" points="631.5,-252 631.5,-271 741.5,-271 741.5,-252 631.5,-252"/>
<text text-anchor="middle" x="686.5" y="-259" font-family="Helvetica,sans-Serif" font-size="10.00">gusimplewhiteboard.c</text>
</a>
</g>
</g>
<!-- Node1&#45;&gt;Node5 -->
<g id="edge4" class="edge">
<title>Node1&#45;&gt;Node5</title>
<path fill="none" stroke="midnightblue" d="M729.33,-306C717.65,-294.13 703.78,-280.05 695.06,-271.19"/>
<polygon fill="midnightblue" stroke="midnightblue" points="727.1,-308.73 736.61,-313.4 732.09,-303.81 727.1,-308.73"/>
</g>
<!-- Node6 -->
<g id="node6" class="node">
<title>Node6</title>
<g id="a_node6"><a xlink:href="guwhiteboardposter_8h.html" target="_top" xlink:title=" ">
<polygon fill="none" stroke="black" points="760,-252 760,-271 869,-271 869,-252 760,-252"/>
<text text-anchor="middle" x="814.5" y="-259" font-family="Helvetica,sans-Serif" font-size="10.00">guwhiteboardposter.h</text>
</a>
</g>
</g>
<!-- Node1&#45;&gt;Node6 -->
<g id="edge5" class="edge">
<title>Node1&#45;&gt;Node6</title>
<path fill="none" stroke="midnightblue" d="M771.67,-306C783.35,-294.13 797.22,-280.05 805.94,-271.19"/>
<polygon fill="midnightblue" stroke="midnightblue" points="768.91,-303.81 764.39,-313.4 773.9,-308.73 768.91,-303.81"/>
</g>
<!-- Node12 -->
<g id="node12" class="node">
<title>Node12</title>
<g id="a_node12"><a xlink:href="guwhiteboardserialisation_8h.html" target="_top" xlink:title=" ">
<polygon fill="none" stroke="black" points="70.5,-252 70.5,-271 204.5,-271 204.5,-252 70.5,-252"/>
<text text-anchor="middle" x="137.5" y="-259" font-family="Helvetica,sans-Serif" font-size="10.00">guwhiteboardserialisation.h</text>
</a>
</g>
</g>
<!-- Node1&#45;&gt;Node12 -->
<g id="edge11" class="edge">
<title>Node1&#45;&gt;Node12</title>
<path fill="none" stroke="midnightblue" d="M687.73,-323.53C587.25,-316.75 384.25,-301.26 213.5,-277 202.06,-275.37 189.73,-273.21 178.4,-271.04"/>
<polygon fill="midnightblue" stroke="midnightblue" points="687.5,-327.03 697.71,-324.2 687.97,-320.04 687.5,-327.03"/>
</g>
<!-- Node15 -->
<g id="node15" class="node">
<title>Node15</title>
<g id="a_node15"><a xlink:href="guwhiteboardtypelist__c__typestrings__generated_8c.html" target="_top" xlink:title=" ">
<polygon fill="none" stroke="black" points="1010,-246.5 1010,-276.5 1145,-276.5 1145,-246.5 1010,-246.5"/>
<text text-anchor="start" x="1018" y="-264.5" font-family="Helvetica,sans-Serif" font-size="10.00">guwhiteboardtypelist</text>
<text text-anchor="middle" x="1077.5" y="-253.5" font-family="Helvetica,sans-Serif" font-size="10.00">_c_typestrings_generated.c</text>
</a>
</g>
</g>
<!-- Node1&#45;&gt;Node15 -->
<g id="edge14" class="edge">
<title>Node1&#45;&gt;Node15</title>
<path fill="none" stroke="midnightblue" d="M812.89,-315.1C869.2,-303.9 951.87,-287.47 1009.77,-275.96"/>
<polygon fill="midnightblue" stroke="midnightblue" points="812.16,-311.67 803.04,-317.06 813.53,-318.54 812.16,-311.67"/>
</g>
<!-- Node16 -->
<g id="node16" class="node">
<title>Node16</title>
<g id="a_node16"><a xlink:href="guwhiteboardtypelist__generated_8h.html" target="_top" xlink:title=" ">
<polygon fill="none" stroke="black" points="887,-246.5 887,-276.5 992,-276.5 992,-246.5 887,-246.5"/>
<text text-anchor="start" x="895" y="-264.5" font-family="Helvetica,sans-Serif" font-size="10.00">guwhiteboardtypelist</text>
<text text-anchor="middle" x="939.5" y="-253.5" font-family="Helvetica,sans-Serif" font-size="10.00">_generated.h</text>
</a>
</g>
</g>
<!-- Node1&#45;&gt;Node16 -->
<g id="edge15" class="edge">
<title>Node1&#45;&gt;Node16</title>
<path fill="none" stroke="midnightblue" d="M801.12,-310.09C831.63,-299.6 869.98,-286.41 898.57,-276.58"/>
<polygon fill="midnightblue" stroke="midnightblue" points="799.83,-306.83 791.51,-313.4 802.1,-313.45 799.83,-306.83"/>
</g>
<!-- Node7 -->
<g id="node7" class="node">
<title>Node7</title>
<g id="a_node7"><a xlink:href="_simple_whiteboard_test_8h.html" target="_top" xlink:title=" ">
<polygon fill="none" stroke="black" points="690,-67.5 690,-97.5 815,-97.5 815,-67.5 690,-67.5"/>
<text text-anchor="start" x="698" y="-85.5" font-family="Helvetica,sans-Serif" font-size="10.00">SimpleWhiteboardTest</text>
<text text-anchor="middle" x="752.5" y="-74.5" font-family="Helvetica,sans-Serif" font-size="10.00">/SimpleWhiteboardTest.h</text>
</a>
</g>
</g>
<!-- Node6&#45;&gt;Node7 -->
<g id="edge6" class="edge">
<title>Node6&#45;&gt;Node7</title>
<path fill="none" stroke="midnightblue" d="M768.14,-249.48C721.33,-237.89 654.9,-219.97 647.5,-210 616.03,-167.6 684.88,-120.42 725.49,-97.51"/>
<polygon fill="midnightblue" stroke="midnightblue" points="767.55,-252.94 778.09,-251.92 769.22,-246.14 767.55,-252.94"/>
</g>
<!-- Node9 -->
<g id="node9" class="node">
<title>Node9</title>
<g id="a_node9"><a xlink:href="guwhiteboardgetter_8h.html" target="_top" xlink:title=" ">
<polygon fill="none" stroke="black" points="656,-190.5 656,-209.5 763,-209.5 763,-190.5 656,-190.5"/>
<text text-anchor="middle" x="709.5" y="-197.5" font-family="Helvetica,sans-Serif" font-size="10.00">guwhiteboardgetter.h</text>
</a>
</g>
</g>
<!-- Node6&#45;&gt;Node9 -->
<g id="edge8" class="edge">
<title>Node6&#45;&gt;Node9</title>
<path fill="none" stroke="midnightblue" d="M790.5,-246.9C770.2,-235.4 741.74,-219.27 724.52,-209.51"/>
<polygon fill="midnightblue" stroke="midnightblue" points="789.03,-250.09 799.46,-251.98 792.48,-244 789.03,-250.09"/>
</g>
<!-- Node11 -->
<g id="node11" class="node">
<title>Node11</title>
<g id="a_node11"><a xlink:href="guwhiteboardposter_8cpp.html" target="_top" xlink:title=" ">
<polygon fill="none" stroke="black" points="781,-190.5 781,-209.5 900,-209.5 900,-190.5 781,-190.5"/>
<text text-anchor="middle" x="840.5" y="-197.5" font-family="Helvetica,sans-Serif" font-size="10.00">guwhiteboardposter.cpp</text>
</a>
</g>
</g>
<!-- Node6&#45;&gt;Node11 -->
<g id="edge10" class="edge">
<title>Node6&#45;&gt;Node11</title>
<path fill="none" stroke="midnightblue" d="M822.37,-242.5C827.15,-231.55 833.04,-218.07 836.78,-209.51"/>
<polygon fill="midnightblue" stroke="midnightblue" points="819.02,-241.41 818.23,-251.98 825.44,-244.21 819.02,-241.41"/>
</g>
<!-- Node8 -->
<g id="node8" class="node">
<title>Node8</title>
<g id="a_node8"><a xlink:href="_simple_whiteboard_test_8mm.html" target="_top" xlink:title=" ">
<polygon fill="none" stroke="black" points="684,-0.5 684,-30.5 821,-30.5 821,-0.5 684,-0.5"/>
<text text-anchor="start" x="692" y="-18.5" font-family="Helvetica,sans-Serif" font-size="10.00">SimpleWhiteboardTest</text>
<text text-anchor="middle" x="752.5" y="-7.5" font-family="Helvetica,sans-Serif" font-size="10.00">/SimpleWhiteboardTest.mm</text>
</a>
</g>
</g>
<!-- Node7&#45;&gt;Node8 -->
<g id="edge7" class="edge">
<title>Node7&#45;&gt;Node8</title>
<path fill="none" stroke="midnightblue" d="M752.5,-57.11C752.5,-48.15 752.5,-38.32 752.5,-30.58"/>
<polygon fill="midnightblue" stroke="midnightblue" points="749,-57.4 752.5,-67.4 756,-57.4 749,-57.4"/>
</g>
<!-- Node10 -->
<g id="node10" class="node">
<title>Node10</title>
<g id="a_node10"><a xlink:href="guwhiteboardgetter_8cpp.html" target="_top" xlink:title=" ">
<polygon fill="none" stroke="black" points="704,-134.5 704,-153.5 821,-153.5 821,-134.5 704,-134.5"/>
<text text-anchor="middle" x="762.5" y="-141.5" font-family="Helvetica,sans-Serif" font-size="10.00">guwhiteboardgetter.cpp</text>
</a>
</g>
</g>
<!-- Node9&#45;&gt;Node10 -->
<g id="edge9" class="edge">
<title>Node9&#45;&gt;Node10</title>
<path fill="none" stroke="midnightblue" d="M725.48,-182.72C734.82,-173.2 746.25,-161.56 753.91,-153.75"/>
<polygon fill="midnightblue" stroke="midnightblue" points="722.76,-180.49 718.25,-190.08 727.75,-185.4 722.76,-180.49"/>
</g>
<!-- Node13 -->
<g id="node13" class="node">
<title>Node13</title>
<g id="a_node13"><a xlink:href="guwhiteboarddeserialiser_8c.html" target="_top" xlink:title=" ">
<polygon fill="none" stroke="black" points="0,-190.5 0,-209.5 131,-209.5 131,-190.5 0,-190.5"/>
<text text-anchor="middle" x="65.5" y="-197.5" font-family="Helvetica,sans-Serif" font-size="10.00">guwhiteboarddeserialiser.c</text>
</a>
</g>
</g>
<!-- Node12&#45;&gt;Node13 -->
<g id="edge12" class="edge">
<title>Node12&#45;&gt;Node13</title>
<path fill="none" stroke="midnightblue" d="M119.32,-245.47C105.54,-234.09 87.12,-218.87 75.8,-209.51"/>
<polygon fill="midnightblue" stroke="midnightblue" points="117.25,-248.3 127.18,-251.98 121.71,-242.91 117.25,-248.3"/>
</g>
<!-- Node14 -->
<g id="node14" class="node">
<title>Node14</title>
<g id="a_node14"><a xlink:href="guwhiteboardserialiser_8c.html" target="_top" xlink:title=" ">
<polygon fill="none" stroke="black" points="149,-190.5 149,-209.5 270,-209.5 270,-190.5 149,-190.5"/>
<text text-anchor="middle" x="209.5" y="-197.5" font-family="Helvetica,sans-Serif" font-size="10.00">guwhiteboardserialiser.c</text>
</a>
</g>
</g>
<!-- Node12&#45;&gt;Node14 -->
<g id="edge13" class="edge">
<title>Node12&#45;&gt;Node14</title>
<path fill="none" stroke="midnightblue" d="M155.68,-245.47C169.46,-234.09 187.88,-218.87 199.2,-209.51"/>
<polygon fill="midnightblue" stroke="midnightblue" points="153.29,-242.91 147.82,-251.98 157.75,-248.3 153.29,-242.91"/>
</g>
<!-- Node16&#45;&gt;Node10 -->
<g id="edge24" class="edge">
<title>Node16&#45;&gt;Node10</title>
<path fill="none" stroke="midnightblue" d="M934.74,-236.42C930.54,-221.15 922.92,-202.07 909.5,-190 885.3,-168.22 850.78,-156.98 821.27,-151.18"/>
<polygon fill="midnightblue" stroke="midnightblue" points="931.37,-237.36 937.13,-246.25 938.17,-235.71 931.37,-237.36"/>
</g>
<!-- Node16&#45;&gt;Node11 -->
<g id="edge25" class="edge">
<title>Node16&#45;&gt;Node11</title>
<path fill="none" stroke="midnightblue" d="M907.17,-241.07C889.52,-230.46 868.55,-217.86 854.91,-209.66"/>
<polygon fill="midnightblue" stroke="midnightblue" points="905.66,-244.25 916.04,-246.4 909.27,-238.25 905.66,-244.25"/>
</g>
<!-- Node17 -->
<g id="node17" class="node">
<title>Node17</title>
<g id="a_node17"><a xlink:href="_w_b_functor_8h.html" target="_top" xlink:title=" ">
<polygon fill="none" stroke="black" points="995,-190.5 995,-209.5 1068,-209.5 1068,-190.5 995,-190.5"/>
<text text-anchor="middle" x="1031.5" y="-197.5" font-family="Helvetica,sans-Serif" font-size="10.00">WBFunctor.h</text>
</a>
</g>
</g>
<!-- Node16&#45;&gt;Node17 -->
<g id="edge16" class="edge">
<title>Node16&#45;&gt;Node17</title>
<path fill="none" stroke="midnightblue" d="M970,-240.78C986.3,-230.23 1005.55,-217.78 1018.11,-209.66"/>
<polygon fill="midnightblue" stroke="midnightblue" points="967.8,-238.03 961.3,-246.4 971.6,-243.91 967.8,-238.03"/>
</g>
<!-- Node21 -->
<g id="node21" class="node">
<title>Node21</title>
<g id="a_node21"><a xlink:href="guwhiteboardwatcher_8h.html" target="_top" xlink:title=" ">
<polygon fill="none" stroke="black" points="876.5,-134.5 876.5,-153.5 992.5,-153.5 992.5,-134.5 876.5,-134.5"/>
<text text-anchor="middle" x="934.5" y="-141.5" font-family="Helvetica,sans-Serif" font-size="10.00">guwhiteboardwatcher.h</text>
</a>
</g>
</g>
<!-- Node16&#45;&gt;Node21 -->
<g id="edge26" class="edge">
<title>Node16&#45;&gt;Node21</title>
<path fill="none" stroke="midnightblue" d="M942.08,-236.4C943.15,-222.76 943.86,-205.41 942.5,-190 941.37,-177.2 938.47,-162.58 936.49,-153.57"/>
<polygon fill="midnightblue" stroke="midnightblue" points="938.59,-236.16 941.18,-246.43 945.56,-236.78 938.59,-236.16"/>
</g>
<!-- Node18 -->
<g id="node18" class="node">
<title>Node18</title>
<g id="a_node18"><a xlink:href="_remote_whiteboard_8h.html" target="_top" xlink:title=" ">
<polygon fill="none" stroke="black" points="950,-73 950,-92 1101,-92 1101,-73 950,-73"/>
<text text-anchor="middle" x="1025.5" y="-80" font-family="Helvetica,sans-Serif" font-size="10.00">OLD_WB/RemoteWhiteboard.h</text>
</a>
</g>
</g>
<!-- Node17&#45;&gt;Node18 -->
<g id="edge17" class="edge">
<title>Node17&#45;&gt;Node18</title>
<path fill="none" stroke="midnightblue" d="M1030.52,-180.16C1029.21,-154.87 1026.93,-110.94 1025.96,-92.28"/>
<polygon fill="midnightblue" stroke="midnightblue" points="1027.03,-180.51 1031.05,-190.32 1034.03,-180.15 1027.03,-180.51"/>
</g>
<!-- Node20 -->
<g id="node20" class="node">
<title>Node20</title>
<g id="a_node20"><a xlink:href="_whiteboard_8h.html" target="_top" xlink:title=" ">
<polygon fill="none" stroke="black" points="1049,-134.5 1049,-153.5 1166,-153.5 1166,-134.5 1049,-134.5"/>
<text text-anchor="middle" x="1107.5" y="-141.5" font-family="Helvetica,sans-Serif" font-size="10.00">OLD_WB/Whiteboard.h</text>
</a>
</g>
</g>
<!-- Node17&#45;&gt;Node20 -->
<g id="edge19" class="edge">
<title>Node17&#45;&gt;Node20</title>
<path fill="none" stroke="midnightblue" d="M1052.08,-184.38C1065.81,-174.62 1083.43,-162.11 1095.07,-153.83"/>
<polygon fill="midnightblue" stroke="midnightblue" points="1049.84,-181.68 1043.71,-190.32 1053.89,-187.38 1049.84,-181.68"/>
</g>
<!-- Node17&#45;&gt;Node21 -->
<g id="edge22" class="edge">
<title>Node17&#45;&gt;Node21</title>
<path fill="none" stroke="midnightblue" d="M1007.16,-185.45C989.26,-175.48 965.45,-162.23 950.05,-153.65"/>
<polygon fill="midnightblue" stroke="midnightblue" points="1005.48,-188.52 1015.92,-190.32 1008.88,-182.4 1005.48,-188.52"/>
</g>
<!-- Node19 -->
<g id="node19" class="node">
<title>Node19</title>
<g id="a_node19"><a xlink:href="_remote_whiteboard_8cc.html" target="_top" xlink:title=" ">
<polygon fill="none" stroke="black" points="947.5,-6 947.5,-25 1103.5,-25 1103.5,-6 947.5,-6"/>
<text text-anchor="middle" x="1025.5" y="-13" font-family="Helvetica,sans-Serif" font-size="10.00">OLD_WB/RemoteWhiteboard.cc</text>
</a>
</g>
</g>
<!-- Node18&#45;&gt;Node19 -->
<g id="edge18" class="edge">
<title>Node18&#45;&gt;Node19</title>
<path fill="none" stroke="midnightblue" d="M1025.5,-62.54C1025.5,-50.17 1025.5,-34.62 1025.5,-25.13"/>
<polygon fill="midnightblue" stroke="midnightblue" points="1022,-62.73 1025.5,-72.73 1029,-62.73 1022,-62.73"/>
</g>
<!-- Node20&#45;&gt;Node2 -->
<g id="edge21" class="edge">
<title>Node20&#45;&gt;Node2</title>
<path fill="none" stroke="midnightblue" d="M1127.77,-128.29C1143.5,-116.88 1164.75,-101.46 1177.77,-92.01"/>
<polygon fill="midnightblue" stroke="midnightblue" points="1125.29,-125.77 1119.25,-134.48 1129.4,-131.43 1125.29,-125.77"/>
</g>
<!-- Node20&#45;&gt;Node18 -->
<g id="edge20" class="edge">
<title>Node20&#45;&gt;Node18</title>
<path fill="none" stroke="midnightblue" d="M1087.23,-128.29C1071.5,-116.88 1050.25,-101.46 1037.23,-92.01"/>
<polygon fill="midnightblue" stroke="midnightblue" points="1085.6,-131.43 1095.75,-134.48 1089.71,-125.77 1085.6,-131.43"/>
</g>
<!-- Node21&#45;&gt;Node7 -->
<g id="edge23" class="edge">
<title>Node21&#45;&gt;Node7</title>
<path fill="none" stroke="midnightblue" d="M898.89,-131.36C869.23,-121.66 826.91,-107.83 795.39,-97.52"/>
<polygon fill="midnightblue" stroke="midnightblue" points="897.83,-134.69 908.42,-134.48 900.01,-128.04 897.83,-134.69"/>
</g>
</g>
</svg>
