<?xml version="1.0" encoding="UTF-8" standalone="no"?>
<!DOCTYPE svg PUBLIC "-//W3C//DTD SVG 1.1//EN"
 "http://www.w3.org/Graphics/SVG/1.1/DTD/svg11.dtd">
<!-- Generated by graphviz version 2.49.0 (20210830.1337)
 -->
<!-- Title: guwhiteboardwatcher.h Pages: 1 -->
<svg width="927pt" height="386pt"
 viewBox="0.00 0.00 927.00 386.00" xmlns="http://www.w3.org/2000/svg" xmlns:xlink="http://www.w3.org/1999/xlink">
<g id="graph0" class="graph" transform="scale(1 1) rotate(0) translate(4 382)">
<title>guwhiteboardwatcher.h</title>
<!-- Node1 -->
<g id="node1" class="node">
<title>Node1</title>
<g id="a_node1"><a xlink:title=" ">
<polygon fill="#bfbfbf" stroke="black" points="503.5,-358.5 503.5,-377.5 619.5,-377.5 619.5,-358.5 503.5,-358.5"/>
<text text-anchor="middle" x="561.5" y="-365.5" font-family="Helvetica,sans-Serif" font-size="10.00">guwhiteboardwatcher.h</text>
</a>
</g>
</g>
<!-- Node2 -->
<g id="node2" class="node">
<title>Node2</title>
<g id="a_node2"><a xlink:href="guwhiteboardtypelist__generated_8h.html" target="_top" xlink:title=" ">
<polygon fill="none" stroke="black" points="315,-235.5 315,-265.5 420,-265.5 420,-235.5 315,-235.5"/>
<text text-anchor="start" x="323" y="-253.5" font-family="Helvetica,sans-Serif" font-size="10.00">guwhiteboardtypelist</text>
<text text-anchor="middle" x="367.5" y="-242.5" font-family="Helvetica,sans-Serif" font-size="10.00">_generated.h</text>
</a>
</g>
</g>
<!-- Node1&#45;&gt;Node2 -->
<g id="edge1" class="edge">
<title>Node1&#45;&gt;Node2</title>
<path fill="none" stroke="midnightblue" d="M546.92,-358.32C515.82,-339.8 442.36,-296.07 399.7,-270.67"/>
<polygon fill="midnightblue" stroke="midnightblue" points="401.47,-267.65 391.09,-265.55 397.89,-273.67 401.47,-267.65"/>
</g>
<!-- Node5 -->
<g id="node5" class="node">
<title>Node5</title>
<g id="a_node5"><a xlink:href="gusimplewhiteboard_8h.html" target="_top" xlink:title=" ">
<polygon fill="none" stroke="black" points="166.5,-56.5 166.5,-75.5 276.5,-75.5 276.5,-56.5 166.5,-56.5"/>
<text text-anchor="middle" x="221.5" y="-63.5" font-family="Helvetica,sans-Serif" font-size="10.00">gusimplewhiteboard.h</text>
</a>
</g>
</g>
<!-- Node1&#45;&gt;Node5 -->
<g id="edge17" class="edge">
<title>Node1&#45;&gt;Node5</title>
<path fill="none" stroke="midnightblue" d="M503.03,-364.95C376.47,-358.92 88.5,-335.93 88.5,-251.5 88.5,-251.5 88.5,-251.5 88.5,-182.5 88.5,-130.2 147.85,-96.24 187.25,-79.45"/>
<polygon fill="midnightblue" stroke="midnightblue" points="188.86,-82.57 196.8,-75.55 186.21,-76.09 188.86,-82.57"/>
</g>
<!-- Node6 -->
<g id="node6" class="node">
<title>Node6</title>
<g id="a_node6"><a xlink:title=" ">
<polygon fill="none" stroke="#bfbfbf" points="0,-0.5 0,-19.5 101,-19.5 101,-0.5 0,-0.5"/>
<text text-anchor="middle" x="50.5" y="-7.5" font-family="Helvetica,sans-Serif" font-size="10.00">dispatch/dispatch.h</text>
</a>
</g>
</g>
<!-- Node1&#45;&gt;Node6 -->
<g id="edge35" class="edge">
<title>Node1&#45;&gt;Node6</title>
<path fill="none" stroke="midnightblue" d="M503.19,-365.06C402.25,-361 199.51,-349.61 134.5,-322 89.64,-302.95 50.5,-300.24 50.5,-251.5 50.5,-251.5 50.5,-251.5 50.5,-121 50.5,-88.95 50.5,-51.64 50.5,-29.75"/>
<polygon fill="midnightblue" stroke="midnightblue" points="54,-29.56 50.5,-19.56 47,-29.56 54,-29.56"/>
</g>
<!-- Node12 -->
<g id="node12" class="node">
<title>Node12</title>
<g id="a_node12"><a xlink:title=" ">
<polygon fill="none" stroke="#bfbfbf" points="820.5,-56.5 820.5,-75.5 874.5,-75.5 874.5,-56.5 820.5,-56.5"/>
<text text-anchor="middle" x="847.5" y="-63.5" font-family="Helvetica,sans-Serif" font-size="10.00">iostream</text>
</a>
</g>
</g>
<!-- Node1&#45;&gt;Node12 -->
<g id="edge32" class="edge">
<title>Node1&#45;&gt;Node12</title>
<path fill="none" stroke="midnightblue" d="M619.66,-363.69C690.4,-356.16 800.5,-331.57 800.5,-251.5 800.5,-251.5 800.5,-251.5 800.5,-182.5 800.5,-145.35 821.62,-106.11 835.54,-84.27"/>
<polygon fill="midnightblue" stroke="midnightblue" points="838.56,-86.05 841.16,-75.78 832.72,-82.19 838.56,-86.05"/>
</g>
<!-- Node17 -->
<g id="node17" class="node">
<title>Node17</title>
<g id="a_node17"><a xlink:href="_w_b_functor_8h.html" target="_top" xlink:title=" ">
<polygon fill="none" stroke="black" points="525,-302.5 525,-321.5 598,-321.5 598,-302.5 525,-302.5"/>
<text text-anchor="middle" x="561.5" y="-309.5" font-family="Helvetica,sans-Serif" font-size="10.00">WBFunctor.h</text>
</a>
</g>
</g>
<!-- Node1&#45;&gt;Node17 -->
<g id="edge18" class="edge">
<title>Node1&#45;&gt;Node17</title>
<path fill="none" stroke="midnightblue" d="M561.5,-358.08C561.5,-351.01 561.5,-340.86 561.5,-331.99"/>
<polygon fill="midnightblue" stroke="midnightblue" points="565,-331.75 561.5,-321.75 558,-331.75 565,-331.75"/>
</g>
<!-- Node23 -->
<g id="node23" class="node">
<title>Node23</title>
<g id="a_node23"><a xlink:title=" ">
<polygon fill="none" stroke="#bfbfbf" points="829,-302.5 829,-321.5 872,-321.5 872,-302.5 829,-302.5"/>
<text text-anchor="middle" x="850.5" y="-309.5" font-family="Helvetica,sans-Serif" font-size="10.00">cstdio</text>
</a>
</g>
</g>
<!-- Node1&#45;&gt;Node23 -->
<g id="edge33" class="edge">
<title>Node1&#45;&gt;Node23</title>
<path fill="none" stroke="midnightblue" d="M616,-358.42C667.38,-350.07 746.44,-336.54 814.5,-322 815.96,-321.69 817.44,-321.36 818.94,-321.02"/>
<polygon fill="midnightblue" stroke="midnightblue" points="819.93,-324.38 828.85,-318.67 818.32,-317.57 819.93,-324.38"/>
</g>
<!-- Node24 -->
<g id="node24" class="node">
<title>Node24</title>
<g id="a_node24"><a xlink:title=" ">
<polygon fill="none" stroke="#bfbfbf" points="890,-302.5 890,-321.5 919,-321.5 919,-302.5 890,-302.5"/>
<text text-anchor="middle" x="904.5" y="-309.5" font-family="Helvetica,sans-Serif" font-size="10.00">list</text>
</a>
</g>
</g>
<!-- Node1&#45;&gt;Node24 -->
<g id="edge34" class="edge">
<title>Node1&#45;&gt;Node24</title>
<path fill="none" stroke="midnightblue" d="M619.53,-362.93C682.11,-357.63 784.6,-346.33 879.79,-321.97"/>
<polygon fill="midnightblue" stroke="midnightblue" points="880.78,-325.33 889.57,-319.42 879.01,-318.56 880.78,-325.33"/>
</g>
<!-- Node3 -->
<g id="node3" class="node">
<title>Node3</title>
<g id="a_node3"><a xlink:href="gu_whiteboard__gugenericwhiteboardobject_8h.html" target="_top" xlink:title=" ">
<polygon fill="none" stroke="black" points="240.5,-174 240.5,-193 444.5,-193 444.5,-174 240.5,-174"/>
<text text-anchor="middle" x="342.5" y="-181" font-family="Helvetica,sans-Serif" font-size="10.00">guWhiteboard_gugenericwhiteboardobject.h</text>
</a>
</g>
</g>
<!-- Node2&#45;&gt;Node3 -->
<g id="edge2" class="edge">
<title>Node2&#45;&gt;Node3</title>
<path fill="none" stroke="midnightblue" d="M362.08,-235.4C358.37,-225.76 353.43,-212.91 349.44,-202.54"/>
<polygon fill="midnightblue" stroke="midnightblue" points="352.7,-201.27 345.84,-193.19 346.17,-203.78 352.7,-201.27"/>
</g>
<!-- Node16 -->
<g id="node16" class="node">
<title>Node16</title>
<g id="a_node16"><a xlink:href="guwhiteboardtypelist__c__generated_8h.html" target="_top" xlink:title=" ">
<polygon fill="none" stroke="black" points="117,-168.5 117,-198.5 222,-198.5 222,-168.5 117,-168.5"/>
<text text-anchor="start" x="125" y="-186.5" font-family="Helvetica,sans-Serif" font-size="10.00">guwhiteboardtypelist</text>
<text text-anchor="middle" x="169.5" y="-175.5" font-family="Helvetica,sans-Serif" font-size="10.00">_c_generated.h</text>
</a>
</g>
</g>
<!-- Node2&#45;&gt;Node16 -->
<g id="edge15" class="edge">
<title>Node2&#45;&gt;Node16</title>
<path fill="none" stroke="midnightblue" d="M324.54,-235.4C294.44,-225.52 254.04,-212.25 222.02,-201.74"/>
<polygon fill="midnightblue" stroke="midnightblue" points="222.97,-198.37 212.38,-198.58 220.79,-205.02 222.97,-198.37"/>
</g>
<!-- Node4 -->
<g id="node4" class="node">
<title>Node4</title>
<g id="a_node4"><a xlink:href="gugenericwhiteboardobject_8h.html" target="_top" xlink:title=" ">
<polygon fill="none" stroke="black" points="346.5,-112.5 346.5,-131.5 486.5,-131.5 486.5,-112.5 346.5,-112.5"/>
<text text-anchor="middle" x="416.5" y="-119.5" font-family="Helvetica,sans-Serif" font-size="10.00">gugenericwhiteboardobject.h</text>
</a>
</g>
</g>
<!-- Node3&#45;&gt;Node4 -->
<g id="edge3" class="edge">
<title>Node3&#45;&gt;Node4</title>
<path fill="none" stroke="midnightblue" d="M353.1,-173.98C364.75,-164.61 383.69,-149.38 397.83,-138.01"/>
<polygon fill="midnightblue" stroke="midnightblue" points="400.32,-140.5 405.92,-131.51 395.93,-135.05 400.32,-140.5"/>
</g>
<!-- Node4&#45;&gt;Node5 -->
<g id="edge4" class="edge">
<title>Node4&#45;&gt;Node5</title>
<path fill="none" stroke="midnightblue" d="M385.6,-112.44C352.23,-103.2 298.91,-88.44 262.15,-78.26"/>
<polygon fill="midnightblue" stroke="midnightblue" points="262.83,-74.81 252.25,-75.52 260.96,-81.56 262.83,-74.81"/>
</g>
<!-- Node10 -->
<g id="node10" class="node">
<title>Node10</title>
<g id="a_node10"><a xlink:title=" ">
<polygon fill="none" stroke="#bfbfbf" points="425,-56.5 425,-75.5 474,-75.5 474,-56.5 425,-56.5"/>
<text text-anchor="middle" x="449.5" y="-63.5" font-family="Helvetica,sans-Serif" font-size="10.00">cstddef</text>
</a>
</g>
</g>
<!-- Node4&#45;&gt;Node10 -->
<g id="edge9" class="edge">
<title>Node4&#45;&gt;Node10</title>
<path fill="none" stroke="midnightblue" d="M421.95,-112.08C426.51,-104.61 433.17,-93.72 438.79,-84.52"/>
<polygon fill="midnightblue" stroke="midnightblue" points="441.92,-86.11 444.15,-75.75 435.95,-82.46 441.92,-86.11"/>
</g>
<!-- Node11 -->
<g id="node11" class="node">
<title>Node11</title>
<g id="a_node11"><a xlink:title=" ">
<polygon fill="none" stroke="#bfbfbf" points="295,-56.5 295,-75.5 344,-75.5 344,-56.5 295,-56.5"/>
<text text-anchor="middle" x="319.5" y="-63.5" font-family="Helvetica,sans-Serif" font-size="10.00">cassert</text>
</a>
</g>
</g>
<!-- Node4&#45;&gt;Node11 -->
<g id="edge10" class="edge">
<title>Node4&#45;&gt;Node11</title>
<path fill="none" stroke="midnightblue" d="M400.92,-112.32C385.5,-103.74 361.69,-90.49 343.79,-80.52"/>
<polygon fill="midnightblue" stroke="midnightblue" points="345.49,-77.46 335.05,-75.65 342.08,-83.58 345.49,-77.46"/>
</g>
<!-- Node4&#45;&gt;Node12 -->
<g id="edge11" class="edge">
<title>Node4&#45;&gt;Node12</title>
<path fill="none" stroke="midnightblue" d="M486.83,-115.8C563.98,-109.46 691.55,-97.12 810.45,-75.97"/>
<polygon fill="midnightblue" stroke="midnightblue" points="811.24,-79.39 820.46,-74.17 809.99,-72.5 811.24,-79.39"/>
</g>
<!-- Node13 -->
<g id="node13" class="node">
<title>Node13</title>
<g id="a_node13"><a xlink:title=" ">
<polygon fill="none" stroke="#bfbfbf" points="563,-56.5 563,-75.5 604,-75.5 604,-56.5 563,-56.5"/>
<text text-anchor="middle" x="583.5" y="-63.5" font-family="Helvetica,sans-Serif" font-size="10.00">string</text>
</a>
</g>
</g>
<!-- Node4&#45;&gt;Node13 -->
<g id="edge12" class="edge">
<title>Node4&#45;&gt;Node13</title>
<path fill="none" stroke="midnightblue" d="M442.96,-112.44C473,-102.73 521.92,-86.91 553.39,-76.74"/>
<polygon fill="midnightblue" stroke="midnightblue" points="554.52,-80.05 562.95,-73.64 552.36,-73.39 554.52,-80.05"/>
</g>
<!-- Node14 -->
<g id="node14" class="node">
<title>Node14</title>
<g id="a_node14"><a xlink:title=" ">
<polygon fill="none" stroke="#bfbfbf" points="362.5,-56.5 362.5,-75.5 406.5,-75.5 406.5,-56.5 362.5,-56.5"/>
<text text-anchor="middle" x="384.5" y="-63.5" font-family="Helvetica,sans-Serif" font-size="10.00">vector</text>
</a>
</g>
</g>
<!-- Node4&#45;&gt;Node14 -->
<g id="edge13" class="edge">
<title>Node4&#45;&gt;Node14</title>
<path fill="none" stroke="midnightblue" d="M411.22,-112.08C406.79,-104.61 400.34,-93.72 394.88,-84.52"/>
<polygon fill="midnightblue" stroke="midnightblue" points="397.79,-82.57 389.69,-75.75 391.77,-86.14 397.79,-82.57"/>
</g>
<!-- Node15 -->
<g id="node15" class="node">
<title>Node15</title>
<g id="a_node15"><a xlink:title=" ">
<polygon fill="none" stroke="#bfbfbf" points="492,-56.5 492,-75.5 545,-75.5 545,-56.5 492,-56.5"/>
<text text-anchor="middle" x="518.5" y="-63.5" font-family="Helvetica,sans-Serif" font-size="10.00">gu_util.h</text>
</a>
</g>
</g>
<!-- Node4&#45;&gt;Node15 -->
<g id="edge14" class="edge">
<title>Node4&#45;&gt;Node15</title>
<path fill="none" stroke="midnightblue" d="M432.89,-112.32C449.17,-103.7 474.37,-90.36 493.22,-80.39"/>
<polygon fill="midnightblue" stroke="midnightblue" points="494.95,-83.43 502.15,-75.65 491.68,-77.24 494.95,-83.43"/>
</g>
<!-- Node5&#45;&gt;Node6 -->
<g id="edge5" class="edge">
<title>Node5&#45;&gt;Node6</title>
<path fill="none" stroke="midnightblue" d="M194.4,-56.44C165.51,-47.32 119.58,-32.81 87.39,-22.65"/>
<polygon fill="midnightblue" stroke="midnightblue" points="88.06,-19.19 77.47,-19.52 85.95,-25.87 88.06,-19.19"/>
</g>
<!-- Node7 -->
<g id="node7" class="node">
<title>Node7</title>
<g id="a_node7"><a xlink:title=" ">
<polygon fill="none" stroke="#bfbfbf" points="119,-0.5 119,-19.5 184,-19.5 184,-0.5 119,-0.5"/>
<text text-anchor="middle" x="151.5" y="-7.5" font-family="Helvetica,sans-Serif" font-size="10.00">sys/types.h</text>
</a>
</g>
</g>
<!-- Node5&#45;&gt;Node7 -->
<g id="edge6" class="edge">
<title>Node5&#45;&gt;Node7</title>
<path fill="none" stroke="midnightblue" d="M210.25,-56.32C199.7,-48.18 183.7,-35.84 171.06,-26.09"/>
<polygon fill="midnightblue" stroke="midnightblue" points="173.01,-23.17 162.95,-19.83 168.73,-28.71 173.01,-23.17"/>
</g>
<!-- Node8 -->
<g id="node8" class="node">
<title>Node8</title>
<g id="a_node8"><a xlink:title=" ">
<polygon fill="none" stroke="#bfbfbf" points="202,-0.5 202,-19.5 255,-19.5 255,-0.5 202,-0.5"/>
<text text-anchor="middle" x="228.5" y="-7.5" font-family="Helvetica,sans-Serif" font-size="10.00">cstdbool</text>
</a>
</g>
</g>
<!-- Node5&#45;&gt;Node8 -->
<g id="edge7" class="edge">
<title>Node5&#45;&gt;Node8</title>
<path fill="none" stroke="midnightblue" d="M222.66,-56.08C223.58,-48.93 224.92,-38.64 226.08,-29.69"/>
<polygon fill="midnightblue" stroke="midnightblue" points="229.55,-30.12 227.37,-19.75 222.61,-29.22 229.55,-30.12"/>
</g>
<!-- Node9 -->
<g id="node9" class="node">
<title>Node9</title>
<g id="a_node9"><a xlink:title=" ">
<polygon fill="none" stroke="#bfbfbf" points="273.5,-0.5 273.5,-19.5 323.5,-19.5 323.5,-0.5 273.5,-0.5"/>
<text text-anchor="middle" x="298.5" y="-7.5" font-family="Helvetica,sans-Serif" font-size="10.00">unistd.h</text>
</a>
</g>
</g>
<!-- Node5&#45;&gt;Node9 -->
<g id="edge8" class="edge">
<title>Node5&#45;&gt;Node9</title>
<path fill="none" stroke="midnightblue" d="M233.87,-56.32C245.66,-48.06 263.63,-35.45 277.64,-25.63"/>
<polygon fill="midnightblue" stroke="midnightblue" points="279.98,-28.26 286.16,-19.65 275.96,-22.53 279.98,-28.26"/>
</g>
<!-- Node16&#45;&gt;Node5 -->
<g id="edge16" class="edge">
<title>Node16&#45;&gt;Node5</title>
<path fill="none" stroke="midnightblue" d="M175.88,-168.34C185.33,-147.34 203.06,-107.96 213.42,-84.96"/>
<polygon fill="midnightblue" stroke="midnightblue" points="216.68,-86.22 217.6,-75.67 210.3,-83.35 216.68,-86.22"/>
</g>
<!-- Node17&#45;&gt;Node2 -->
<g id="edge28" class="edge">
<title>Node17&#45;&gt;Node2</title>
<path fill="none" stroke="midnightblue" d="M533.7,-302.48C504.97,-293.66 459.34,-279.67 423.16,-268.57"/>
<polygon fill="midnightblue" stroke="midnightblue" points="423.81,-265.11 413.22,-265.52 421.76,-271.8 423.81,-265.11"/>
</g>
<!-- Node17&#45;&gt;Node5 -->
<g id="edge29" class="edge">
<title>Node17&#45;&gt;Node5</title>
<path fill="none" stroke="midnightblue" d="M551.84,-302.18C542.53,-293.45 528.31,-279.46 517.5,-266 484.94,-225.43 495.02,-199.34 453.5,-168 410.42,-135.48 387.1,-153.31 337.5,-132 303.2,-117.26 265.94,-95.2 243.15,-80.96"/>
<polygon fill="midnightblue" stroke="midnightblue" points="244.93,-77.94 234.6,-75.55 241.19,-83.85 244.93,-77.94"/>
</g>
<!-- Node17&#45;&gt;Node13 -->
<g id="edge19" class="edge">
<title>Node17&#45;&gt;Node13</title>
<path fill="none" stroke="midnightblue" d="M598.17,-309.84C629.71,-306.67 673.51,-296.58 695.5,-266 741.95,-201.41 646.75,-115.8 603.44,-81.82"/>
<polygon fill="midnightblue" stroke="midnightblue" points="605.35,-78.87 595.29,-75.55 601.08,-84.42 605.35,-78.87"/>
</g>
<!-- Node17&#45;&gt;Node15 -->
<g id="edge20" class="edge">
<title>Node17&#45;&gt;Node15</title>
<path fill="none" stroke="midnightblue" d="M552.93,-302.23C545.24,-293.74 534.44,-280.12 529.5,-266 507.43,-202.94 512.39,-121.78 516.17,-85.71"/>
<polygon fill="midnightblue" stroke="midnightblue" points="519.66,-86 517.32,-75.67 512.7,-85.21 519.66,-86"/>
</g>
<!-- Node18 -->
<g id="node18" class="node">
<title>Node18</title>
<g id="a_node18"><a xlink:href="_w_b_msg_8h.html" target="_top" xlink:title=" ">
<polygon fill="none" stroke="black" points="713,-112.5 713,-131.5 772,-131.5 772,-112.5 713,-112.5"/>
<text text-anchor="middle" x="742.5" y="-119.5" font-family="Helvetica,sans-Serif" font-size="10.00">WBMsg.h</text>
</a>
</g>
</g>
<!-- Node17&#45;&gt;Node18 -->
<g id="edge21" class="edge">
<title>Node17&#45;&gt;Node18</title>
<path fill="none" stroke="midnightblue" d="M598.25,-306.01C642.16,-299.25 711.81,-285.71 728.5,-266 758.37,-230.72 752.33,-171.58 746.72,-141.61"/>
<polygon fill="midnightblue" stroke="midnightblue" points="750.11,-140.75 744.66,-131.67 743.26,-142.17 750.11,-140.75"/>
</g>
<!-- Node22 -->
<g id="node22" class="node">
<title>Node22</title>
<g id="a_node22"><a xlink:href="_w_b_functor__types__generated_8h.html" target="_top" xlink:title=" ">
<polygon fill="none" stroke="black" points="538,-241 538,-260 687,-260 687,-241 538,-241"/>
<text text-anchor="middle" x="612.5" y="-248" font-family="Helvetica,sans-Serif" font-size="10.00">WBFunctor_types_generated.h</text>
</a>
</g>
</g>
<!-- Node17&#45;&gt;Node22 -->
<g id="edge30" class="edge">
<title>Node17&#45;&gt;Node22</title>
<path fill="none" stroke="midnightblue" d="M568.81,-302.48C576.53,-293.46 588.91,-279.02 598.52,-267.81"/>
<polygon fill="midnightblue" stroke="midnightblue" points="601.36,-269.88 605.21,-260.01 596.04,-265.32 601.36,-269.88"/>
</g>
<!-- Node18&#45;&gt;Node5 -->
<g id="edge27" class="edge">
<title>Node18&#45;&gt;Node5</title>
<path fill="none" stroke="midnightblue" d="M712.78,-118.5C641.3,-112.41 453.91,-95.89 286.61,-76.09"/>
<polygon fill="midnightblue" stroke="midnightblue" points="286.98,-72.61 276.64,-74.9 286.16,-79.56 286.98,-72.61"/>
</g>
<!-- Node18&#45;&gt;Node12 -->
<g id="edge25" class="edge">
<title>Node18&#45;&gt;Node12</title>
<path fill="none" stroke="midnightblue" d="M759.37,-112.32C776.21,-103.66 802.31,-90.24 821.74,-80.25"/>
<polygon fill="midnightblue" stroke="midnightblue" points="823.38,-83.34 830.67,-75.65 820.18,-77.12 823.38,-83.34"/>
</g>
<!-- Node18&#45;&gt;Node13 -->
<g id="edge24" class="edge">
<title>Node18&#45;&gt;Node13</title>
<path fill="none" stroke="midnightblue" d="M717.31,-112.44C689.14,-102.88 643.56,-87.4 613.56,-77.21"/>
<polygon fill="midnightblue" stroke="midnightblue" points="614.62,-73.87 604.03,-73.97 612.37,-80.5 614.62,-73.87"/>
</g>
<!-- Node19 -->
<g id="node19" class="node">
<title>Node19</title>
<g id="a_node19"><a xlink:title=" ">
<polygon fill="none" stroke="#bfbfbf" points="757,-56.5 757,-75.5 802,-75.5 802,-56.5 757,-56.5"/>
<text text-anchor="middle" x="779.5" y="-63.5" font-family="Helvetica,sans-Serif" font-size="10.00">cstdlib</text>
</a>
</g>
</g>
<!-- Node18&#45;&gt;Node19 -->
<g id="edge22" class="edge">
<title>Node18&#45;&gt;Node19</title>
<path fill="none" stroke="midnightblue" d="M748.61,-112.08C753.78,-104.53 761.35,-93.49 767.69,-84.23"/>
<polygon fill="midnightblue" stroke="midnightblue" points="770.74,-85.98 773.5,-75.75 764.96,-82.02 770.74,-85.98"/>
</g>
<!-- Node20 -->
<g id="node20" class="node">
<title>Node20</title>
<g id="a_node20"><a xlink:title=" ">
<polygon fill="none" stroke="#bfbfbf" points="622.5,-56.5 622.5,-75.5 668.5,-75.5 668.5,-56.5 622.5,-56.5"/>
<text text-anchor="middle" x="645.5" y="-63.5" font-family="Helvetica,sans-Serif" font-size="10.00">cstring</text>
</a>
</g>
</g>
<!-- Node18&#45;&gt;Node20 -->
<g id="edge23" class="edge">
<title>Node18&#45;&gt;Node20</title>
<path fill="none" stroke="midnightblue" d="M726.92,-112.32C711.5,-103.74 687.69,-90.49 669.79,-80.52"/>
<polygon fill="midnightblue" stroke="midnightblue" points="671.49,-77.46 661.05,-75.65 668.08,-83.58 671.49,-77.46"/>
</g>
<!-- Node21 -->
<g id="node21" class="node">
<title>Node21</title>
<g id="a_node21"><a xlink:title=" ">
<polygon fill="none" stroke="#bfbfbf" points="686.5,-56.5 686.5,-75.5 738.5,-75.5 738.5,-56.5 686.5,-56.5"/>
<text text-anchor="middle" x="712.5" y="-63.5" font-family="Helvetica,sans-Serif" font-size="10.00">sstream</text>
</a>
</g>
</g>
<!-- Node18&#45;&gt;Node21 -->
<g id="edge26" class="edge">
<title>Node18&#45;&gt;Node21</title>
<path fill="none" stroke="midnightblue" d="M737.55,-112.08C733.4,-104.61 727.35,-93.72 722.23,-84.52"/>
<polygon fill="midnightblue" stroke="midnightblue" points="725.28,-82.79 717.36,-75.75 719.16,-86.19 725.28,-82.79"/>
</g>
<!-- Node22&#45;&gt;Node15 -->
<g id="edge31" class="edge">
<title>Node22&#45;&gt;Node15</title>
<path fill="none" stroke="midnightblue" d="M607.97,-240.7C593.36,-212.33 547.31,-122.94 527.6,-84.67"/>
<polygon fill="midnightblue" stroke="midnightblue" points="530.68,-83 522.99,-75.71 524.46,-86.21 530.68,-83"/>
</g>
</g>
</svg>
