<?xml version="1.0" encoding="UTF-8" standalone="no"?>
<!DOCTYPE svg PUBLIC "-//W3C//DTD SVG 1.1//EN"
 "http://www.w3.org/Graphics/SVG/1.1/DTD/svg11.dtd">
<!-- Generated by graphviz version 2.49.0 (20210830.1337)
 -->
<!-- Title: OLD_WB/iOSWhiteboard.h Pages: 1 -->
<svg width="649pt" height="196pt"
 viewBox="0.00 0.00 649.00 196.00" xmlns="http://www.w3.org/2000/svg" xmlns:xlink="http://www.w3.org/1999/xlink">
<g id="graph0" class="graph" transform="scale(1 1) rotate(0) translate(4 192)">
<title>OLD_WB/iOSWhiteboard.h</title>
<!-- Node1 -->
<g id="node1" class="node">
<title>Node1</title>
<g id="a_node1"><a xlink:title=" ">
<polygon fill="#bfbfbf" stroke="black" points="122.5,-168.5 122.5,-187.5 256.5,-187.5 256.5,-168.5 122.5,-168.5"/>
<text text-anchor="middle" x="189.5" y="-175.5" font-family="Helvetica,sans-Serif" font-size="10.00">OLD_WB/iOSWhiteboard.h</text>
</a>
</g>
</g>
<!-- Node2 -->
<g id="node2" class="node">
<title>Node2</title>
<g id="a_node2"><a xlink:title=" ">
<polygon fill="none" stroke="#bfbfbf" points="3,-56.5 3,-75.5 44,-75.5 44,-56.5 3,-56.5"/>
<text text-anchor="middle" x="23.5" y="-63.5" font-family="Helvetica,sans-Serif" font-size="10.00">string</text>
</a>
</g>
</g>
<!-- Node1&#45;&gt;Node2 -->
<g id="edge1" class="edge">
<title>Node1&#45;&gt;Node2</title>
<path fill="none" stroke="midnightblue" d="M176.47,-168.37C147.99,-149.49 79.92,-104.38 44.98,-81.24"/>
<polygon fill="midnightblue" stroke="midnightblue" points="46.73,-78.2 36.47,-75.59 42.87,-84.03 46.73,-78.2"/>
</g>
<!-- Node3 -->
<g id="node3" class="node">
<title>Node3</title>
<g id="a_node3"><a xlink:title=" ">
<polygon fill="none" stroke="#bfbfbf" points="237.5,-112.5 237.5,-131.5 281.5,-131.5 281.5,-112.5 237.5,-112.5"/>
<text text-anchor="middle" x="259.5" y="-119.5" font-family="Helvetica,sans-Serif" font-size="10.00">vector</text>
</a>
</g>
</g>
<!-- Node1&#45;&gt;Node3 -->
<g id="edge2" class="edge">
<title>Node1&#45;&gt;Node3</title>
<path fill="none" stroke="midnightblue" d="M200.75,-168.32C211.3,-160.18 227.3,-147.84 239.94,-138.09"/>
<polygon fill="midnightblue" stroke="midnightblue" points="242.27,-140.71 248.05,-131.83 237.99,-135.17 242.27,-140.71"/>
</g>
<!-- Node4 -->
<g id="node4" class="node">
<title>Node4</title>
<g id="a_node4"><a xlink:title=" ">
<polygon fill="none" stroke="#bfbfbf" points="62.5,-56.5 62.5,-75.5 116.5,-75.5 116.5,-56.5 62.5,-56.5"/>
<text text-anchor="middle" x="89.5" y="-63.5" font-family="Helvetica,sans-Serif" font-size="10.00">iostream</text>
</a>
</g>
</g>
<!-- Node1&#45;&gt;Node4 -->
<g id="edge3" class="edge">
<title>Node1&#45;&gt;Node4</title>
<path fill="none" stroke="midnightblue" d="M180.57,-168.19C171.55,-159.24 157.32,-144.88 145.5,-132 130.63,-115.8 114.28,-96.66 103.11,-83.37"/>
<polygon fill="midnightblue" stroke="midnightblue" points="105.68,-80.99 96.58,-75.56 100.31,-85.48 105.68,-80.99"/>
</g>
<!-- Node5 -->
<g id="node5" class="node">
<title>Node5</title>
<g id="a_node5"><a xlink:title=" ">
<polygon fill="none" stroke="#bfbfbf" points="299.5,-112.5 299.5,-131.5 491.5,-131.5 491.5,-112.5 299.5,-112.5"/>
<text text-anchor="middle" x="395.5" y="-119.5" font-family="Helvetica,sans-Serif" font-size="10.00">guudpbridge/guudpbridgenetworkconfig.h</text>
</a>
</g>
</g>
<!-- Node1&#45;&gt;Node5 -->
<g id="edge4" class="edge">
<title>Node1&#45;&gt;Node5</title>
<path fill="none" stroke="midnightblue" d="M222.14,-168.44C257.55,-159.16 314.21,-144.31 353.05,-134.13"/>
<polygon fill="midnightblue" stroke="midnightblue" points="354.23,-137.44 363.01,-131.52 352.45,-130.67 354.23,-137.44"/>
</g>
<!-- Node6 -->
<g id="node6" class="node">
<title>Node6</title>
<g id="a_node6"><a xlink:title=" ">
<polygon fill="none" stroke="#bfbfbf" points="510,-112.5 510,-131.5 641,-131.5 641,-112.5 510,-112.5"/>
<text text-anchor="middle" x="575.5" y="-119.5" font-family="Helvetica,sans-Serif" font-size="10.00">guudpBridgeBroadcaster.h</text>
</a>
</g>
</g>
<!-- Node1&#45;&gt;Node6 -->
<g id="edge5" class="edge">
<title>Node1&#45;&gt;Node6</title>
<path fill="none" stroke="midnightblue" d="M250.66,-168.44C319.69,-158.79 431.83,-143.1 504.62,-132.92"/>
<polygon fill="midnightblue" stroke="midnightblue" points="505.2,-136.37 514.62,-131.52 504.23,-129.44 505.2,-136.37"/>
</g>
<!-- Node7 -->
<g id="node7" class="node">
<title>Node7</title>
<g id="a_node7"><a xlink:href="gusimplewhiteboard_8h.html" target="_top" xlink:title=" ">
<polygon fill="none" stroke="black" points="134.5,-56.5 134.5,-75.5 244.5,-75.5 244.5,-56.5 134.5,-56.5"/>
<text text-anchor="middle" x="189.5" y="-63.5" font-family="Helvetica,sans-Serif" font-size="10.00">gusimplewhiteboard.h</text>
</a>
</g>
</g>
<!-- Node1&#45;&gt;Node7 -->
<g id="edge6" class="edge">
<title>Node1&#45;&gt;Node7</title>
<path fill="none" stroke="midnightblue" d="M178.08,-168.28C163.87,-156.29 142.4,-133.7 150.5,-112 154.67,-100.81 163.02,-90.56 170.92,-82.68"/>
<polygon fill="midnightblue" stroke="midnightblue" points="173.56,-85 178.51,-75.63 168.8,-79.87 173.56,-85"/>
</g>
<!-- Node12 -->
<g id="node12" class="node">
<title>Node12</title>
<g id="a_node12"><a xlink:href="_w_b_msg_8h.html" target="_top" xlink:title=" ">
<polygon fill="none" stroke="black" points="160,-112.5 160,-131.5 219,-131.5 219,-112.5 160,-112.5"/>
<text text-anchor="middle" x="189.5" y="-119.5" font-family="Helvetica,sans-Serif" font-size="10.00">WBMsg.h</text>
</a>
</g>
</g>
<!-- Node1&#45;&gt;Node12 -->
<g id="edge11" class="edge">
<title>Node1&#45;&gt;Node12</title>
<path fill="none" stroke="midnightblue" d="M189.5,-168.08C189.5,-161.01 189.5,-150.86 189.5,-141.99"/>
<polygon fill="midnightblue" stroke="midnightblue" points="193,-141.75 189.5,-131.75 186,-141.75 193,-141.75"/>
</g>
<!-- Node8 -->
<g id="node8" class="node">
<title>Node8</title>
<g id="a_node8"><a xlink:title=" ">
<polygon fill="none" stroke="#bfbfbf" points="0,-0.5 0,-19.5 101,-19.5 101,-0.5 0,-0.5"/>
<text text-anchor="middle" x="50.5" y="-7.5" font-family="Helvetica,sans-Serif" font-size="10.00">dispatch/dispatch.h</text>
</a>
</g>
</g>
<!-- Node7&#45;&gt;Node8 -->
<g id="edge7" class="edge">
<title>Node7&#45;&gt;Node8</title>
<path fill="none" stroke="midnightblue" d="M167.48,-56.44C144.4,-47.48 107.94,-33.31 81.86,-23.18"/>
<polygon fill="midnightblue" stroke="midnightblue" points="83.01,-19.88 72.42,-19.52 80.48,-26.4 83.01,-19.88"/>
</g>
<!-- Node9 -->
<g id="node9" class="node">
<title>Node9</title>
<g id="a_node9"><a xlink:title=" ">
<polygon fill="none" stroke="#bfbfbf" points="119,-0.5 119,-19.5 184,-19.5 184,-0.5 119,-0.5"/>
<text text-anchor="middle" x="151.5" y="-7.5" font-family="Helvetica,sans-Serif" font-size="10.00">sys/types.h</text>
</a>
</g>
</g>
<!-- Node7&#45;&gt;Node9 -->
<g id="edge8" class="edge">
<title>Node7&#45;&gt;Node9</title>
<path fill="none" stroke="midnightblue" d="M183.23,-56.08C177.86,-48.46 169.98,-37.26 163.42,-27.94"/>
<polygon fill="midnightblue" stroke="midnightblue" points="166.28,-25.91 157.66,-19.75 160.55,-29.94 166.28,-25.91"/>
</g>
<!-- Node10 -->
<g id="node10" class="node">
<title>Node10</title>
<g id="a_node10"><a xlink:title=" ">
<polygon fill="none" stroke="#bfbfbf" points="202,-0.5 202,-19.5 255,-19.5 255,-0.5 202,-0.5"/>
<text text-anchor="middle" x="228.5" y="-7.5" font-family="Helvetica,sans-Serif" font-size="10.00">cstdbool</text>
</a>
</g>
</g>
<!-- Node7&#45;&gt;Node10 -->
<g id="edge9" class="edge">
<title>Node7&#45;&gt;Node10</title>
<path fill="none" stroke="midnightblue" d="M195.94,-56.08C201.45,-48.46 209.53,-37.26 216.26,-27.94"/>
<polygon fill="midnightblue" stroke="midnightblue" points="219.16,-29.91 222.18,-19.75 213.49,-25.81 219.16,-29.91"/>
</g>
<!-- Node11 -->
<g id="node11" class="node">
<title>Node11</title>
<g id="a_node11"><a xlink:title=" ">
<polygon fill="none" stroke="#bfbfbf" points="273.5,-0.5 273.5,-19.5 323.5,-19.5 323.5,-0.5 273.5,-0.5"/>
<text text-anchor="middle" x="298.5" y="-7.5" font-family="Helvetica,sans-Serif" font-size="10.00">unistd.h</text>
</a>
</g>
</g>
<!-- Node7&#45;&gt;Node11 -->
<g id="edge10" class="edge">
<title>Node7&#45;&gt;Node11</title>
<path fill="none" stroke="midnightblue" d="M207.01,-56.32C224.57,-47.62 251.83,-34.12 272.03,-24.11"/>
<polygon fill="midnightblue" stroke="midnightblue" points="273.62,-27.23 281.03,-19.65 270.52,-20.96 273.62,-27.23"/>
</g>
<!-- Node12&#45;&gt;Node2 -->
<g id="edge14" class="edge">
<title>Node12&#45;&gt;Node2</title>
<path fill="none" stroke="midnightblue" d="M163.2,-112.44C133.5,-102.78 85.25,-87.09 53.95,-76.9"/>
<polygon fill="midnightblue" stroke="midnightblue" points="55.02,-73.57 44.42,-73.81 52.85,-80.23 55.02,-73.57"/>
</g>
<!-- Node12&#45;&gt;Node4 -->
<g id="edge15" class="edge">
<title>Node12&#45;&gt;Node4</title>
<path fill="none" stroke="midnightblue" d="M173.43,-112.32C157.54,-103.74 132.99,-90.49 114.54,-80.52"/>
<polygon fill="midnightblue" stroke="midnightblue" points="115.99,-77.33 105.53,-75.65 112.66,-83.49 115.99,-77.33"/>
</g>
<!-- Node12&#45;&gt;Node7 -->
<g id="edge17" class="edge">
<title>Node12&#45;&gt;Node7</title>
<path fill="none" stroke="midnightblue" d="M189.5,-112.08C189.5,-105.01 189.5,-94.86 189.5,-85.99"/>
<polygon fill="midnightblue" stroke="midnightblue" points="193,-85.75 189.5,-75.75 186,-85.75 193,-85.75"/>
</g>
<!-- Node13 -->
<g id="node13" class="node">
<title>Node13</title>
<g id="a_node13"><a xlink:title=" ">
<polygon fill="none" stroke="#bfbfbf" points="263,-56.5 263,-75.5 308,-75.5 308,-56.5 263,-56.5"/>
<text text-anchor="middle" x="285.5" y="-63.5" font-family="Helvetica,sans-Serif" font-size="10.00">cstdlib</text>
</a>
</g>
</g>
<!-- Node12&#45;&gt;Node13 -->
<g id="edge12" class="edge">
<title>Node12&#45;&gt;Node13</title>
<path fill="none" stroke="midnightblue" d="M204.92,-112.32C220.04,-103.82 243.32,-90.73 260.97,-80.8"/>
<polygon fill="midnightblue" stroke="midnightblue" points="263.11,-83.61 270.11,-75.65 259.68,-77.51 263.11,-83.61"/>
</g>
<!-- Node14 -->
<g id="node14" class="node">
<title>Node14</title>
<g id="a_node14"><a xlink:title=" ">
<polygon fill="none" stroke="#bfbfbf" points="326.5,-56.5 326.5,-75.5 372.5,-75.5 372.5,-56.5 326.5,-56.5"/>
<text text-anchor="middle" x="349.5" y="-63.5" font-family="Helvetica,sans-Serif" font-size="10.00">cstring</text>
</a>
</g>
</g>
<!-- Node12&#45;&gt;Node14 -->
<g id="edge13" class="edge">
<title>Node12&#45;&gt;Node14</title>
<path fill="none" stroke="midnightblue" d="M214.85,-112.44C242.4,-103.15 286.52,-88.26 316.69,-78.07"/>
<polygon fill="midnightblue" stroke="midnightblue" points="317.99,-81.33 326.34,-74.82 315.75,-74.7 317.99,-81.33"/>
</g>
<!-- Node15 -->
<g id="node15" class="node">
<title>Node15</title>
<g id="a_node15"><a xlink:title=" ">
<polygon fill="none" stroke="#bfbfbf" points="390.5,-56.5 390.5,-75.5 442.5,-75.5 442.5,-56.5 390.5,-56.5"/>
<text text-anchor="middle" x="416.5" y="-63.5" font-family="Helvetica,sans-Serif" font-size="10.00">sstream</text>
</a>
</g>
</g>
<!-- Node12&#45;&gt;Node15 -->
<g id="edge16" class="edge">
<title>Node12&#45;&gt;Node15</title>
<path fill="none" stroke="midnightblue" d="M219.26,-114.11C261.61,-104.28 338.07,-86.5 380.4,-76.22"/>
<polygon fill="midnightblue" stroke="midnightblue" points="381.26,-79.62 390.14,-73.84 379.6,-72.82 381.26,-79.62"/>
</g>
</g>
</svg>
