<?xml version="1.0" encoding="UTF-8" standalone="no"?>
<!DOCTYPE svg PUBLIC "-//W3C//DTD SVG 1.1//EN"
 "http://www.w3.org/Graphics/SVG/1.1/DTD/svg11.dtd">
<!-- Generated by graphviz version 2.49.0 (20210830.1337)
 -->
<!-- Title: OLD_WB/iOSWhiteboard.cc Pages: 1 -->
<svg width="769pt" height="252pt"
 viewBox="0.00 0.00 768.50 252.00" xmlns="http://www.w3.org/2000/svg" xmlns:xlink="http://www.w3.org/1999/xlink">
<g id="graph0" class="graph" transform="scale(1 1) rotate(0) translate(4 248)">
<title>OLD_WB/iOSWhiteboard.cc</title>
<!-- Node1 -->
<g id="node1" class="node">
<title>Node1</title>
<g id="a_node1"><a xlink:title=" ">
<polygon fill="#bfbfbf" stroke="black" points="221.5,-224.5 221.5,-243.5 360.5,-243.5 360.5,-224.5 221.5,-224.5"/>
<text text-anchor="middle" x="291" y="-231.5" font-family="Helvetica,sans-Serif" font-size="10.00">OLD_WB/iOSWhiteboard.cc</text>
</a>
</g>
</g>
<!-- Node2 -->
<g id="node2" class="node">
<title>Node2</title>
<g id="a_node2"><a xlink:title=" ">
<polygon fill="none" stroke="#bfbfbf" points="0,-56.5 0,-75.5 46,-75.5 46,-56.5 0,-56.5"/>
<text text-anchor="middle" x="23" y="-63.5" font-family="Helvetica,sans-Serif" font-size="10.00">cstring</text>
</a>
</g>
</g>
<!-- Node1&#45;&gt;Node2 -->
<g id="edge1" class="edge">
<title>Node1&#45;&gt;Node2</title>
<path fill="none" stroke="midnightblue" d="M270.95,-224.38C251.79,-215.89 222.33,-202.18 198,-188 139.04,-153.63 74.03,-105.84 42.42,-81.91"/>
<polygon fill="midnightblue" stroke="midnightblue" points="44.14,-78.83 34.07,-75.56 39.9,-84.4 44.14,-78.83"/>
</g>
<!-- Node3 -->
<g id="node3" class="node">
<title>Node3</title>
<g id="a_node3"><a xlink:title=" ">
<polygon fill="none" stroke="#bfbfbf" points="353.5,-168.5 353.5,-187.5 396.5,-187.5 396.5,-168.5 353.5,-168.5"/>
<text text-anchor="middle" x="375" y="-175.5" font-family="Helvetica,sans-Serif" font-size="10.00">cstdio</text>
</a>
</g>
</g>
<!-- Node1&#45;&gt;Node3 -->
<g id="edge2" class="edge">
<title>Node1&#45;&gt;Node3</title>
<path fill="none" stroke="midnightblue" d="M304.5,-224.32C317.6,-215.9 337.71,-202.97 353.11,-193.07"/>
<polygon fill="midnightblue" stroke="midnightblue" points="355.02,-196.01 361.54,-187.65 351.23,-190.12 355.02,-196.01"/>
</g>
<!-- Node4 -->
<g id="node4" class="node">
<title>Node4</title>
<g id="a_node4"><a xlink:title=" ">
<polygon fill="none" stroke="#bfbfbf" points="414.5,-168.5 414.5,-187.5 467.5,-187.5 467.5,-168.5 414.5,-168.5"/>
<text text-anchor="middle" x="441" y="-175.5" font-family="Helvetica,sans-Serif" font-size="10.00">gu_util.h</text>
</a>
</g>
</g>
<!-- Node1&#45;&gt;Node4 -->
<g id="edge3" class="edge">
<title>Node1&#45;&gt;Node4</title>
<path fill="none" stroke="midnightblue" d="M314.77,-224.44C339.89,-215.4 379.71,-201.06 407.9,-190.92"/>
<polygon fill="midnightblue" stroke="midnightblue" points="409.12,-194.2 417.34,-187.52 406.75,-187.61 409.12,-194.2"/>
</g>
<!-- Node5 -->
<g id="node5" class="node">
<title>Node5</title>
<g id="a_node5"><a xlink:title=" ">
<polygon fill="none" stroke="#bfbfbf" points="64,-56.5 64,-75.5 116,-75.5 116,-56.5 64,-56.5"/>
<text text-anchor="middle" x="90" y="-63.5" font-family="Helvetica,sans-Serif" font-size="10.00">sstream</text>
</a>
</g>
</g>
<!-- Node1&#45;&gt;Node5 -->
<g id="edge4" class="edge">
<title>Node1&#45;&gt;Node5</title>
<path fill="none" stroke="midnightblue" d="M278.28,-224.35C253.82,-207.53 198.84,-168.83 156,-132 137.82,-116.37 118.44,-96.91 105.41,-83.37"/>
<polygon fill="midnightblue" stroke="midnightblue" points="107.63,-80.62 98.19,-75.8 102.56,-85.45 107.63,-80.62"/>
</g>
<!-- Node6 -->
<g id="node6" class="node">
<title>Node6</title>
<g id="a_node6"><a xlink:href="i_o_s_whiteboard_8h.html" target="_top" xlink:title=" ">
<polygon fill="none" stroke="black" points="246.5,-168.5 246.5,-187.5 335.5,-187.5 335.5,-168.5 246.5,-168.5"/>
<text text-anchor="middle" x="291" y="-175.5" font-family="Helvetica,sans-Serif" font-size="10.00">iOSWhiteboard.h</text>
</a>
</g>
</g>
<!-- Node1&#45;&gt;Node6 -->
<g id="edge5" class="edge">
<title>Node1&#45;&gt;Node6</title>
<path fill="none" stroke="midnightblue" d="M291,-224.08C291,-217.01 291,-206.86 291,-197.99"/>
<polygon fill="midnightblue" stroke="midnightblue" points="294.5,-197.75 291,-187.75 287.5,-197.75 294.5,-197.75"/>
</g>
<!-- Node7 -->
<g id="node7" class="node">
<title>Node7</title>
<g id="a_node7"><a xlink:title=" ">
<polygon fill="none" stroke="#bfbfbf" points="326.5,-56.5 326.5,-75.5 367.5,-75.5 367.5,-56.5 326.5,-56.5"/>
<text text-anchor="middle" x="347" y="-63.5" font-family="Helvetica,sans-Serif" font-size="10.00">string</text>
</a>
</g>
</g>
<!-- Node6&#45;&gt;Node7 -->
<g id="edge6" class="edge">
<title>Node6&#45;&gt;Node7</title>
<path fill="none" stroke="midnightblue" d="M292.41,-168.16C294.73,-155.24 300.11,-130.71 310,-112 315.6,-101.4 323.94,-90.98 331.29,-82.83"/>
<polygon fill="midnightblue" stroke="midnightblue" points="333.86,-85.2 338.17,-75.52 328.77,-80.41 333.86,-85.2"/>
</g>
<!-- Node8 -->
<g id="node8" class="node">
<title>Node8</title>
<g id="a_node8"><a xlink:title=" ">
<polygon fill="none" stroke="#bfbfbf" points="319,-112.5 319,-131.5 363,-131.5 363,-112.5 319,-112.5"/>
<text text-anchor="middle" x="341" y="-119.5" font-family="Helvetica,sans-Serif" font-size="10.00">vector</text>
</a>
</g>
</g>
<!-- Node6&#45;&gt;Node8 -->
<g id="edge7" class="edge">
<title>Node6&#45;&gt;Node8</title>
<path fill="none" stroke="midnightblue" d="M299.26,-168.08C306.46,-160.3 317.11,-148.8 325.85,-139.37"/>
<polygon fill="midnightblue" stroke="midnightblue" points="328.67,-141.47 332.9,-131.75 323.53,-136.71 328.67,-141.47"/>
</g>
<!-- Node9 -->
<g id="node9" class="node">
<title>Node9</title>
<g id="a_node9"><a xlink:title=" ">
<polygon fill="none" stroke="#bfbfbf" points="386,-56.5 386,-75.5 440,-75.5 440,-56.5 386,-56.5"/>
<text text-anchor="middle" x="413" y="-63.5" font-family="Helvetica,sans-Serif" font-size="10.00">iostream</text>
</a>
</g>
</g>
<!-- Node6&#45;&gt;Node9 -->
<g id="edge8" class="edge">
<title>Node6&#45;&gt;Node9</title>
<path fill="none" stroke="midnightblue" d="M312.85,-168.47C330.33,-160.84 354.7,-148.36 372,-132 386.35,-118.43 397.82,-98.81 404.93,-84.68"/>
<polygon fill="midnightblue" stroke="midnightblue" points="408.16,-86.06 409.33,-75.53 401.84,-83.03 408.16,-86.06"/>
</g>
<!-- Node10 -->
<g id="node10" class="node">
<title>Node10</title>
<g id="a_node10"><a xlink:title=" ">
<polygon fill="none" stroke="#bfbfbf" points="419,-112.5 419,-131.5 611,-131.5 611,-112.5 419,-112.5"/>
<text text-anchor="middle" x="515" y="-119.5" font-family="Helvetica,sans-Serif" font-size="10.00">guudpbridge/guudpbridgenetworkconfig.h</text>
</a>
</g>
</g>
<!-- Node6&#45;&gt;Node10 -->
<g id="edge9" class="edge">
<title>Node6&#45;&gt;Node10</title>
<path fill="none" stroke="midnightblue" d="M326.49,-168.44C365.32,-159.08 427.66,-144.06 469.92,-133.87"/>
<polygon fill="midnightblue" stroke="midnightblue" points="470.77,-137.26 479.67,-131.52 469.13,-130.46 470.77,-137.26"/>
</g>
<!-- Node11 -->
<g id="node11" class="node">
<title>Node11</title>
<g id="a_node11"><a xlink:title=" ">
<polygon fill="none" stroke="#bfbfbf" points="629.5,-112.5 629.5,-131.5 760.5,-131.5 760.5,-112.5 629.5,-112.5"/>
<text text-anchor="middle" x="695" y="-119.5" font-family="Helvetica,sans-Serif" font-size="10.00">guudpBridgeBroadcaster.h</text>
</a>
</g>
</g>
<!-- Node6&#45;&gt;Node11 -->
<g id="edge10" class="edge">
<title>Node6&#45;&gt;Node11</title>
<path fill="none" stroke="midnightblue" d="M335.77,-169.41C338.89,-168.92 341.99,-168.44 345,-168 396.3,-160.43 532.82,-143.19 619.41,-132.38"/>
<polygon fill="midnightblue" stroke="midnightblue" points="619.96,-135.84 629.45,-131.13 619.09,-128.9 619.96,-135.84"/>
</g>
<!-- Node12 -->
<g id="node12" class="node">
<title>Node12</title>
<g id="a_node12"><a xlink:href="gusimplewhiteboard_8h.html" target="_top" xlink:title=" ">
<polygon fill="none" stroke="black" points="198,-56.5 198,-75.5 308,-75.5 308,-56.5 198,-56.5"/>
<text text-anchor="middle" x="253" y="-63.5" font-family="Helvetica,sans-Serif" font-size="10.00">gusimplewhiteboard.h</text>
</a>
</g>
</g>
<!-- Node6&#45;&gt;Node12 -->
<g id="edge11" class="edge">
<title>Node6&#45;&gt;Node12</title>
<path fill="none" stroke="midnightblue" d="M288.02,-168.37C281.86,-150.54 267.61,-109.3 259.31,-85.27"/>
<polygon fill="midnightblue" stroke="midnightblue" points="262.54,-83.9 255.97,-75.59 255.93,-86.19 262.54,-83.9"/>
</g>
<!-- Node17 -->
<g id="node17" class="node">
<title>Node17</title>
<g id="a_node17"><a xlink:href="_w_b_msg_8h.html" target="_top" xlink:title=" ">
<polygon fill="none" stroke="black" points="165.5,-112.5 165.5,-131.5 224.5,-131.5 224.5,-112.5 165.5,-112.5"/>
<text text-anchor="middle" x="195" y="-119.5" font-family="Helvetica,sans-Serif" font-size="10.00">WBMsg.h</text>
</a>
</g>
</g>
<!-- Node6&#45;&gt;Node17 -->
<g id="edge16" class="edge">
<title>Node6&#45;&gt;Node17</title>
<path fill="none" stroke="midnightblue" d="M275.58,-168.32C260.46,-159.82 237.18,-146.73 219.53,-136.8"/>
<polygon fill="midnightblue" stroke="midnightblue" points="220.82,-133.51 210.39,-131.65 217.39,-139.61 220.82,-133.51"/>
</g>
<!-- Node13 -->
<g id="node13" class="node">
<title>Node13</title>
<g id="a_node13"><a xlink:title=" ">
<polygon fill="none" stroke="#bfbfbf" points="62.5,-0.5 62.5,-19.5 163.5,-19.5 163.5,-0.5 62.5,-0.5"/>
<text text-anchor="middle" x="113" y="-7.5" font-family="Helvetica,sans-Serif" font-size="10.00">dispatch/dispatch.h</text>
</a>
</g>
</g>
<!-- Node12&#45;&gt;Node13 -->
<g id="edge12" class="edge">
<title>Node12&#45;&gt;Node13</title>
<path fill="none" stroke="midnightblue" d="M230.82,-56.44C207.57,-47.48 170.85,-33.31 144.58,-23.18"/>
<polygon fill="midnightblue" stroke="midnightblue" points="145.67,-19.85 135.08,-19.52 143.15,-26.38 145.67,-19.85"/>
</g>
<!-- Node14 -->
<g id="node14" class="node">
<title>Node14</title>
<g id="a_node14"><a xlink:title=" ">
<polygon fill="none" stroke="#bfbfbf" points="181.5,-0.5 181.5,-19.5 246.5,-19.5 246.5,-0.5 181.5,-0.5"/>
<text text-anchor="middle" x="214" y="-7.5" font-family="Helvetica,sans-Serif" font-size="10.00">sys/types.h</text>
</a>
</g>
</g>
<!-- Node12&#45;&gt;Node14 -->
<g id="edge13" class="edge">
<title>Node12&#45;&gt;Node14</title>
<path fill="none" stroke="midnightblue" d="M246.56,-56.08C241.05,-48.46 232.97,-37.26 226.24,-27.94"/>
<polygon fill="midnightblue" stroke="midnightblue" points="229.01,-25.81 220.32,-19.75 223.34,-29.91 229.01,-25.81"/>
</g>
<!-- Node15 -->
<g id="node15" class="node">
<title>Node15</title>
<g id="a_node15"><a xlink:title=" ">
<polygon fill="none" stroke="#bfbfbf" points="264.5,-0.5 264.5,-19.5 317.5,-19.5 317.5,-0.5 264.5,-0.5"/>
<text text-anchor="middle" x="291" y="-7.5" font-family="Helvetica,sans-Serif" font-size="10.00">cstdbool</text>
</a>
</g>
</g>
<!-- Node12&#45;&gt;Node15 -->
<g id="edge14" class="edge">
<title>Node12&#45;&gt;Node15</title>
<path fill="none" stroke="midnightblue" d="M259.27,-56.08C264.64,-48.46 272.52,-37.26 279.08,-27.94"/>
<polygon fill="midnightblue" stroke="midnightblue" points="281.95,-29.94 284.84,-19.75 276.22,-25.91 281.95,-29.94"/>
</g>
<!-- Node16 -->
<g id="node16" class="node">
<title>Node16</title>
<g id="a_node16"><a xlink:title=" ">
<polygon fill="none" stroke="#bfbfbf" points="336,-0.5 336,-19.5 386,-19.5 386,-0.5 336,-0.5"/>
<text text-anchor="middle" x="361" y="-7.5" font-family="Helvetica,sans-Serif" font-size="10.00">unistd.h</text>
</a>
</g>
</g>
<!-- Node12&#45;&gt;Node16 -->
<g id="edge15" class="edge">
<title>Node12&#45;&gt;Node16</title>
<path fill="none" stroke="midnightblue" d="M270.35,-56.32C287.67,-47.66 314.52,-34.24 334.5,-24.25"/>
<polygon fill="midnightblue" stroke="midnightblue" points="336.31,-27.26 343.69,-19.65 333.18,-21 336.31,-27.26"/>
</g>
<!-- Node17&#45;&gt;Node2 -->
<g id="edge18" class="edge">
<title>Node17&#45;&gt;Node2</title>
<path fill="none" stroke="midnightblue" d="M167.75,-112.44C137.49,-102.94 88.65,-87.61 56.18,-77.42"/>
<polygon fill="midnightblue" stroke="midnightblue" points="56.85,-73.96 46.27,-74.3 54.76,-80.64 56.85,-73.96"/>
</g>
<!-- Node17&#45;&gt;Node5 -->
<g id="edge21" class="edge">
<title>Node17&#45;&gt;Node5</title>
<path fill="none" stroke="midnightblue" d="M178.13,-112.32C161.29,-103.66 135.19,-90.24 115.76,-80.25"/>
<polygon fill="midnightblue" stroke="midnightblue" points="117.32,-77.12 106.83,-75.65 114.12,-83.34 117.32,-77.12"/>
</g>
<!-- Node17&#45;&gt;Node7 -->
<g id="edge19" class="edge">
<title>Node17&#45;&gt;Node7</title>
<path fill="none" stroke="midnightblue" d="M219.08,-112.44C245.59,-103.03 288.24,-87.87 316.93,-77.68"/>
<polygon fill="midnightblue" stroke="midnightblue" points="318.19,-80.95 326.44,-74.3 315.85,-74.35 318.19,-80.95"/>
</g>
<!-- Node17&#45;&gt;Node9 -->
<g id="edge20" class="edge">
<title>Node17&#45;&gt;Node9</title>
<path fill="none" stroke="midnightblue" d="M224.64,-113.7C258.76,-105.28 316.77,-90.96 375.98,-76.25"/>
<polygon fill="midnightblue" stroke="midnightblue" points="377.01,-79.6 385.88,-73.79 375.33,-72.81 377.01,-79.6"/>
</g>
<!-- Node17&#45;&gt;Node12 -->
<g id="edge22" class="edge">
<title>Node17&#45;&gt;Node12</title>
<path fill="none" stroke="midnightblue" d="M204.32,-112.32C212.89,-104.34 225.81,-92.31 236.19,-82.65"/>
<polygon fill="midnightblue" stroke="midnightblue" points="238.58,-85.21 243.51,-75.83 233.81,-80.09 238.58,-85.21"/>
</g>
<!-- Node18 -->
<g id="node18" class="node">
<title>Node18</title>
<g id="a_node18"><a xlink:title=" ">
<polygon fill="none" stroke="#bfbfbf" points="134.5,-56.5 134.5,-75.5 179.5,-75.5 179.5,-56.5 134.5,-56.5"/>
<text text-anchor="middle" x="157" y="-63.5" font-family="Helvetica,sans-Serif" font-size="10.00">cstdlib</text>
</a>
</g>
</g>
<!-- Node17&#45;&gt;Node18 -->
<g id="edge17" class="edge">
<title>Node17&#45;&gt;Node18</title>
<path fill="none" stroke="midnightblue" d="M188.73,-112.08C183.36,-104.46 175.48,-93.26 168.92,-83.94"/>
<polygon fill="midnightblue" stroke="midnightblue" points="171.78,-81.91 163.16,-75.75 166.05,-85.94 171.78,-81.91"/>
</g>
</g>
</svg>
