<?xml version="1.0" encoding="UTF-8" standalone="no"?>
<!DOCTYPE svg PUBLIC "-//W3C//DTD SVG 1.1//EN"
 "http://www.w3.org/Graphics/SVG/1.1/DTD/svg11.dtd">
<!-- Generated by graphviz version 2.49.0 (20210830.1337)
 -->
<!-- Title: Graphical Class Hierarchy Pages: 1 -->
<svg width="279pt" height="66pt"
 viewBox="0.00 0.00 279.00 66.00" xmlns="http://www.w3.org/2000/svg" xmlns:xlink="http://www.w3.org/1999/xlink">
<g id="graph0" class="graph" transform="scale(1 1) rotate(0) translate(4 62)">
<title>Graphical Class Hierarchy</title>
<!-- Node0 -->
<g id="node1" class="node">
<title>Node0</title>
<g id="a_node1"><a xlink:href="structwb__hal__leg__target.html" target="_top" xlink:title="WHITEBOARD_POSTER_STRING_CONVERSION.">
<polygon fill="none" stroke="black" points="0,-38.5 0,-57.5 95,-57.5 95,-38.5 0,-38.5"/>
<text text-anchor="middle" x="47.5" y="-45.5" font-family="Helvetica,sans-Serif" font-size="10.00">wb_hal_leg_target</text>
</a>
</g>
</g>
<!-- Node1 -->
<g id="node2" class="node">
<title>Node1</title>
<g id="a_node2"><a xlink:href="classgu_whiteboard_1_1_hal_leg_target.html" target="_top" xlink:title="Class for moving a SINGLE robotic leg with up to 6 degrees of freedom using local coords of each join...">
<polygon fill="none" stroke="black" points="131,-19.5 131,-38.5 271,-38.5 271,-19.5 131,-19.5"/>
<text text-anchor="middle" x="201" y="-26.5" font-family="Helvetica,sans-Serif" font-size="10.00">guWhiteboard::HalLegTarget</text>
</a>
</g>
</g>
<!-- Node0&#45;&gt;Node1 -->
<g id="edge1" class="edge">
<title>Node0&#45;&gt;Node1</title>
<path fill="none" stroke="midnightblue" d="M105.22,-40.89C113.6,-39.84 122.31,-38.74 130.91,-37.67"/>
<polygon fill="midnightblue" stroke="midnightblue" points="104.68,-37.43 95.19,-42.14 105.55,-44.37 104.68,-37.43"/>
</g>
<!-- Node371 -->
<g id="node3" class="node">
<title>Node371</title>
<g id="a_node3"><a xlink:href="structwb__hal__legtarget.html" target="_top" xlink:title="HalLegTarget c struct.">
<polygon fill="none" stroke="black" points="2.5,-0.5 2.5,-19.5 92.5,-19.5 92.5,-0.5 2.5,-0.5"/>
<text text-anchor="middle" x="47.5" y="-7.5" font-family="Helvetica,sans-Serif" font-size="10.00">wb_hal_legtarget</text>
</a>
</g>
</g>
<!-- Node371&#45;&gt;Node1 -->
<g id="edge2" class="edge">
<title>Node371&#45;&gt;Node1</title>
<path fill="none" stroke="midnightblue" d="M102.8,-16.81C111.92,-17.95 121.48,-19.15 130.91,-20.34"/>
<polygon fill="midnightblue" stroke="midnightblue" points="103.09,-13.32 92.73,-15.55 102.21,-20.26 103.09,-13.32"/>
</g>
</g>
</svg>
