<?xml version="1.0" encoding="UTF-8" standalone="no"?>
<!DOCTYPE svg PUBLIC "-//W3C//DTD SVG 1.1//EN"
 "http://www.w3.org/Graphics/SVG/1.1/DTD/svg11.dtd">
<!-- Generated by graphviz version 2.49.0 (20210830.1337)
 -->
<!-- Title: Graphical Class Hierarchy Pages: 1 -->
<svg width="493pt" height="39pt"
 viewBox="0.00 0.00 493.00 39.00" xmlns="http://www.w3.org/2000/svg" xmlns:xlink="http://www.w3.org/1999/xlink">
<g id="graph0" class="graph" transform="scale(1 1) rotate(0) translate(4 35)">
<title>Graphical Class Hierarchy</title>
<!-- Node0 -->
<g id="node1" class="node">
<title>Node0</title>
<g id="a_node1"><a xlink:href="structwb__filtered__arrayballsightings.html" target="_top" xlink:title="The class of landmarks filtered regarding goal sightings.">
<polygon fill="none" stroke="black" points="0,-6 0,-25 143,-25 143,-6 0,-6"/>
<text text-anchor="middle" x="71.5" y="-13" font-family="Helvetica,sans-Serif" font-size="10.00">wb_filtered_arrayballsightings</text>
</a>
</g>
</g>
<!-- Node1 -->
<g id="node2" class="node">
<title>Node1</title>
<g id="a_node2"><a xlink:href="classgu_whiteboard_1_1_filtered_array_ball_sightings.html" target="_top" xlink:title="Provides a C++ wrapper around wb_filtered_arrayballsightings.">
<polygon fill="none" stroke="black" points="179,-0.5 179,-30.5 314,-30.5 314,-0.5 179,-0.5"/>
<text text-anchor="start" x="187" y="-18.5" font-family="Helvetica,sans-Serif" font-size="10.00">guWhiteboard::FilteredArray</text>
<text text-anchor="middle" x="246.5" y="-7.5" font-family="Helvetica,sans-Serif" font-size="10.00">BallSightings</text>
</a>
</g>
</g>
<!-- Node0&#45;&gt;Node1 -->
<g id="edge1" class="edge">
<title>Node0&#45;&gt;Node1</title>
<path fill="none" stroke="midnightblue" d="M153.64,-15.5C162.11,-15.5 170.64,-15.5 178.92,-15.5"/>
<polygon fill="midnightblue" stroke="midnightblue" points="153.36,-12 143.36,-15.5 153.36,-19 153.36,-12"/>
</g>
<!-- Node2 -->
<g id="node3" class="node">
<title>Node2</title>
<g id="a_node3"><a xlink:href="classgu_whiteboard_1_1_filtered_array_one_dim_ball.html" target="_top" xlink:title="Class for for the array of ball sighthings TOP or Bottom.">
<polygon fill="none" stroke="black" points="350,-0.5 350,-30.5 485,-30.5 485,-0.5 350,-0.5"/>
<text text-anchor="start" x="358" y="-18.5" font-family="Helvetica,sans-Serif" font-size="10.00">guWhiteboard::FilteredArray</text>
<text text-anchor="middle" x="417.5" y="-7.5" font-family="Helvetica,sans-Serif" font-size="10.00">OneDimBall</text>
</a>
</g>
</g>
<!-- Node1&#45;&gt;Node2 -->
<g id="edge2" class="edge">
<title>Node1&#45;&gt;Node2</title>
<path fill="none" stroke="midnightblue" d="M324.55,-15.5C333.02,-15.5 341.59,-15.5 349.92,-15.5"/>
<polygon fill="midnightblue" stroke="midnightblue" points="324.29,-12 314.29,-15.5 324.29,-19 324.29,-12"/>
</g>
</g>
</svg>
