<?xml version="1.0" encoding="UTF-8" standalone="no"?>
<!DOCTYPE svg PUBLIC "-//W3C//DTD SVG 1.1//EN"
 "http://www.w3.org/Graphics/SVG/1.1/DTD/svg11.dtd">
<!-- Generated by graphviz version 2.49.0 (20210830.1337)
 -->
<!-- Title: Graphical Class Hierarchy Pages: 1 -->
<svg width="259pt" height="66pt"
 viewBox="0.00 0.00 259.00 66.00" xmlns="http://www.w3.org/2000/svg" xmlns:xlink="http://www.w3.org/1999/xlink">
<g id="graph0" class="graph" transform="scale(1 1) rotate(0) translate(4 62)">
<title>Graphical Class Hierarchy</title>
<!-- Node686 -->
<g id="node1" class="node">
<title>Node686</title>
<g id="a_node1"><a xlink:title=" ">
<polygon fill="none" stroke="#bfbfbf" points="0,-19.5 0,-38.5 72,-38.5 72,-19.5 0,-19.5"/>
<text text-anchor="middle" x="36" y="-26.5" font-family="Helvetica,sans-Serif" font-size="10.00">XCTestCase</text>
</a>
</g>
</g>
<!-- Node0 -->
<g id="node2" class="node">
<title>Node0</title>
<g id="a_node2"><a xlink:href="interface_simple_whiteboard_test.html" target="_top" xlink:title="Test class.">
<polygon fill="none" stroke="black" points="122,-38.5 122,-57.5 237,-57.5 237,-38.5 122,-38.5"/>
<text text-anchor="middle" x="179.5" y="-45.5" font-family="Helvetica,sans-Serif" font-size="10.00">SimpleWhiteboardTest</text>
</a>
</g>
</g>
<!-- Node686&#45;&gt;Node0 -->
<g id="edge1" class="edge">
<title>Node686&#45;&gt;Node0</title>
<path fill="none" stroke="midnightblue" d="M82.54,-35.11C95.07,-36.8 108.82,-38.64 121.89,-40.4"/>
<polygon fill="midnightblue" stroke="midnightblue" points="82.72,-31.61 72.34,-33.75 81.79,-38.55 82.72,-31.61"/>
</g>
<!-- Node688 -->
<g id="node3" class="node">
<title>Node688</title>
<g id="a_node3"><a xlink:href="interface_simple_whiteboard_test_plain_c.html" target="_top" xlink:title="plain c code testing of the simple whiteboard implementation">
<polygon fill="none" stroke="black" points="108,-0.5 108,-19.5 251,-19.5 251,-0.5 108,-0.5"/>
<text text-anchor="middle" x="179.5" y="-7.5" font-family="Helvetica,sans-Serif" font-size="10.00">SimpleWhiteboardTestPlainC</text>
</a>
</g>
</g>
<!-- Node686&#45;&gt;Node688 -->
<g id="edge2" class="edge">
<title>Node686&#45;&gt;Node688</title>
<path fill="none" stroke="midnightblue" d="M82.32,-22.91C90.44,-21.82 99.09,-20.66 107.73,-19.5"/>
<polygon fill="midnightblue" stroke="midnightblue" points="81.79,-19.45 72.34,-24.25 82.72,-26.39 81.79,-19.45"/>
</g>
</g>
</svg>
