<?xml version="1.0" encoding="UTF-8" standalone="no"?>
<!DOCTYPE svg PUBLIC "-//W3C//DTD SVG 1.1//EN"
 "http://www.w3.org/Graphics/SVG/1.1/DTD/svg11.dtd">
<!-- Generated by graphviz version 2.49.0 (20210830.1337)
 -->
<!-- Title: Graphical Class Hierarchy Pages: 1 -->
<svg width="284pt" height="66pt"
 viewBox="0.00 0.00 284.00 66.00" xmlns="http://www.w3.org/2000/svg" xmlns:xlink="http://www.w3.org/1999/xlink">
<g id="graph0" class="graph" transform="scale(1 1) rotate(0) translate(4 62)">
<title>Graphical Class Hierarchy</title>
<!-- Node0 -->
<g id="node1" class="node">
<title>Node0</title>
<g id="a_node1"><a xlink:href="structwb__hal__arm__target.html" target="_top" xlink:title="WHITEBOARD_POSTER_STRING_CONVERSION.">
<polygon fill="none" stroke="black" points="0,-38.5 0,-57.5 99,-57.5 99,-38.5 0,-38.5"/>
<text text-anchor="middle" x="49.5" y="-45.5" font-family="Helvetica,sans-Serif" font-size="10.00">wb_hal_arm_target</text>
</a>
</g>
</g>
<!-- Node1 -->
<g id="node2" class="node">
<title>Node1</title>
<g id="a_node2"><a xlink:href="classgu_whiteboard_1_1_hal_arm_target.html" target="_top" xlink:title="Class for moving a SINGLE robotic arm with up to 6 degrees of freedom using local coords of each join...">
<polygon fill="none" stroke="black" points="135,-19.5 135,-38.5 276,-38.5 276,-19.5 135,-19.5"/>
<text text-anchor="middle" x="205.5" y="-26.5" font-family="Helvetica,sans-Serif" font-size="10.00">guWhiteboard::HalArmTarget</text>
</a>
</g>
</g>
<!-- Node0&#45;&gt;Node1 -->
<g id="edge1" class="edge">
<title>Node0&#45;&gt;Node1</title>
<path fill="none" stroke="midnightblue" d="M109.29,-40.75C117.7,-39.71 126.41,-38.63 134.99,-37.58"/>
<polygon fill="midnightblue" stroke="midnightblue" points="108.72,-37.29 99.23,-41.99 109.58,-44.24 108.72,-37.29"/>
</g>
<!-- Node366 -->
<g id="node3" class="node">
<title>Node366</title>
<g id="a_node3"><a xlink:href="structwb__hal__armtarget.html" target="_top" xlink:title="HalArmTarget c struct.">
<polygon fill="none" stroke="black" points="2.5,-0.5 2.5,-19.5 96.5,-19.5 96.5,-0.5 2.5,-0.5"/>
<text text-anchor="middle" x="49.5" y="-7.5" font-family="Helvetica,sans-Serif" font-size="10.00">wb_hal_armtarget</text>
</a>
</g>
</g>
<!-- Node366&#45;&gt;Node1 -->
<g id="edge2" class="edge">
<title>Node366&#45;&gt;Node1</title>
<path fill="none" stroke="midnightblue" d="M106.83,-16.95C115.98,-18.08 125.55,-19.26 134.98,-20.42"/>
<polygon fill="midnightblue" stroke="midnightblue" points="107.06,-13.45 96.71,-15.7 106.2,-20.4 107.06,-13.45"/>
</g>
</g>
</svg>
