<?xml version="1.0" encoding="UTF-8" standalone="no"?>
<!DOCTYPE svg PUBLIC "-//W3C//DTD SVG 1.1//EN"
 "http://www.w3.org/Graphics/SVG/1.1/DTD/svg11.dtd">
<!-- Generated by graphviz version 2.49.0 (20210830.1337)
 -->
<!-- Title: wb_filtered_arrayonedimobjects Pages: 1 -->
<svg width="160pt" height="270pt"
 viewBox="0.00 0.00 160.00 270.00" xmlns="http://www.w3.org/2000/svg" xmlns:xlink="http://www.w3.org/1999/xlink">
<g id="graph0" class="graph" transform="scale(1 1) rotate(0) translate(4 266)">
<title>wb_filtered_arrayonedimobjects</title>
<!-- Node1 -->
<g id="node1" class="node">
<title>Node1</title>
<g id="a_node1"><a xlink:title="The class of landmarks filtered regarding goal sightings.">
<polygon fill="#bfbfbf" stroke="black" points="0,-0.5 0,-57.5 152,-57.5 152,-0.5 0,-0.5"/>
<text text-anchor="middle" x="76" y="-45.5" font-family="Helvetica,sans-Serif" font-size="10.00">wb_filtered_arrayonedimobjects</text>
<polyline fill="none" stroke="black" points="0,-38.5 152,-38.5 "/>
<text text-anchor="middle" x="76" y="-26.5" font-family="Helvetica,sans-Serif" font-size="10.00"> </text>
<polyline fill="none" stroke="black" points="0,-19.5 152,-19.5 "/>
<text text-anchor="middle" x="76" y="-7.5" font-family="Helvetica,sans-Serif" font-size="10.00"> </text>
</a>
</g>
</g>
<!-- Node2 -->
<g id="node2" class="node">
<title>Node2</title>
<g id="a_node2"><a xlink:href="structwb__filtered__vision__object.html" target="_top" xlink:title="WHITEBOARD_POSTER_STRING_CONVERSION.">
<polygon fill="none" stroke="black" points="29,-105.5 29,-261.5 123,-261.5 123,-105.5 29,-105.5"/>
<text text-anchor="start" x="37" y="-249.5" font-family="Helvetica,sans-Serif" font-size="10.00">wb_filtered_vision</text>
<text text-anchor="middle" x="76" y="-238.5" font-family="Helvetica,sans-Serif" font-size="10.00">_object</text>
<polyline fill="none" stroke="black" points="29,-231.5 123,-231.5 "/>
<text text-anchor="start" x="37" y="-219.5" font-family="Helvetica,sans-Serif" font-size="10.00">+ visibilityHistory</text>
<text text-anchor="start" x="37" y="-208.5" font-family="Helvetica,sans-Serif" font-size="10.00">+ frameCounter</text>
<text text-anchor="start" x="37" y="-197.5" font-family="Helvetica,sans-Serif" font-size="10.00">+ distance</text>
<text text-anchor="start" x="37" y="-186.5" font-family="Helvetica,sans-Serif" font-size="10.00">+ x</text>
<text text-anchor="start" x="37" y="-175.5" font-family="Helvetica,sans-Serif" font-size="10.00">+ y</text>
<text text-anchor="start" x="37" y="-164.5" font-family="Helvetica,sans-Serif" font-size="10.00">+ yaw</text>
<text text-anchor="start" x="37" y="-153.5" font-family="Helvetica,sans-Serif" font-size="10.00">+ ray_angle</text>
<text text-anchor="start" x="37" y="-142.5" font-family="Helvetica,sans-Serif" font-size="10.00">+ isVisible</text>
<text text-anchor="start" x="37" y="-131.5" font-family="Helvetica,sans-Serif" font-size="10.00">+ pad1</text>
<polyline fill="none" stroke="black" points="29,-124.5 123,-124.5 "/>
<text text-anchor="middle" x="76" y="-112.5" font-family="Helvetica,sans-Serif" font-size="10.00"> </text>
</a>
</g>
</g>
<!-- Node2&#45;&gt;Node1 -->
<g id="edge1" class="edge">
<title>Node2&#45;&gt;Node1</title>
<path fill="none" stroke="#404040" d="M76,-105.36C76,-93.04 76,-80.75 76,-69.78"/>
<polygon fill="none" stroke="#404040" points="76,-69.58 72,-63.58 76,-57.58 80,-63.58 76,-69.58"/>
<text text-anchor="middle" x="96" y="-79" font-family="Helvetica,sans-Serif" font-size="10.00"> +objects</text>
</g>
</g>
</svg>
