<?xml version="1.0" encoding="UTF-8" standalone="no"?>
<!DOCTYPE svg PUBLIC "-//W3C//DTD SVG 1.1//EN"
 "http://www.w3.org/Graphics/SVG/1.1/DTD/svg11.dtd">
<!-- Generated by graphviz version 2.49.0 (20210830.1337)
 -->
<!-- Title: wb_vision_detection_feature Pages: 1 -->
<svg width="115pt" height="193pt"
 viewBox="0.00 0.00 115.00 193.00" xmlns="http://www.w3.org/2000/svg" xmlns:xlink="http://www.w3.org/1999/xlink">
<g id="graph0" class="graph" transform="scale(1 1) rotate(0) translate(4 189)">
<title>wb_vision_detection_feature</title>
<!-- Node1 -->
<g id="node1" class="node">
<title>Node1</title>
<g id="a_node1"><a xlink:title="WHITEBOARD_POSTER_STRING_CONVERSION.">
<polygon fill="#bfbfbf" stroke="black" points="0.5,-0.5 0.5,-68.5 105.5,-68.5 105.5,-0.5 0.5,-0.5"/>
<text text-anchor="start" x="8.5" y="-56.5" font-family="Helvetica,sans-Serif" font-size="10.00">wb_vision_detection</text>
<text text-anchor="middle" x="53" y="-45.5" font-family="Helvetica,sans-Serif" font-size="10.00">_feature</text>
<polyline fill="none" stroke="black" points="0.5,-38.5 105.5,-38.5 "/>
<text text-anchor="start" x="8.5" y="-26.5" font-family="Helvetica,sans-Serif" font-size="10.00">+ featureType</text>
<polyline fill="none" stroke="black" points="0.5,-19.5 105.5,-19.5 "/>
<text text-anchor="middle" x="53" y="-7.5" font-family="Helvetica,sans-Serif" font-size="10.00"> </text>
</a>
</g>
</g>
<!-- Node2 -->
<g id="node2" class="node">
<title>Node2</title>
<g id="a_node2"><a xlink:href="structwb__polar__coordinate.html" target="_top" xlink:title="WHITEBOARD_POSTER_STRING_CONVERSION.">
<polygon fill="none" stroke="black" points="0,-116.5 0,-184.5 106,-184.5 106,-116.5 0,-116.5"/>
<text text-anchor="middle" x="53" y="-172.5" font-family="Helvetica,sans-Serif" font-size="10.00">wb_polar_coordinate</text>
<polyline fill="none" stroke="black" points="0,-165.5 106,-165.5 "/>
<text text-anchor="start" x="8" y="-153.5" font-family="Helvetica,sans-Serif" font-size="10.00">+ direction</text>
<text text-anchor="start" x="8" y="-142.5" font-family="Helvetica,sans-Serif" font-size="10.00">+ distance</text>
<polyline fill="none" stroke="black" points="0,-135.5 106,-135.5 "/>
<text text-anchor="middle" x="53" y="-123.5" font-family="Helvetica,sans-Serif" font-size="10.00"> </text>
</a>
</g>
</g>
<!-- Node2&#45;&gt;Node1 -->
<g id="edge1" class="edge">
<title>Node2&#45;&gt;Node1</title>
<path fill="none" stroke="#404040" d="M53,-116.22C53,-105.1 53,-92.51 53,-80.64"/>
<polygon fill="none" stroke="#404040" points="53,-80.62 49,-74.62 53,-68.62 57,-74.62 53,-80.62"/>
<text text-anchor="middle" x="80" y="-90" font-family="Helvetica,sans-Serif" font-size="10.00"> +coordinate</text>
</g>
</g>
</svg>
