<?xml version="1.0" encoding="UTF-8" standalone="no"?>
<!DOCTYPE svg PUBLIC "-//W3C//DTD SVG 1.1//EN"
 "http://www.w3.org/Graphics/SVG/1.1/DTD/svg11.dtd">
<!-- Generated by graphviz version 2.49.0 (20210830.1337)
 -->
<!-- Title: wb_nao_walk_status Pages: 1 -->
<svg width="132pt" height="204pt"
 viewBox="0.00 0.00 132.00 204.00" xmlns="http://www.w3.org/2000/svg" xmlns:xlink="http://www.w3.org/1999/xlink">
<g id="graph0" class="graph" transform="scale(1 1) rotate(0) translate(4 200)">
<title>wb_nao_walk_status</title>
<!-- Node1 -->
<g id="node1" class="node">
<title>Node1</title>
<g id="a_node1"><a xlink:title="WHITEBOARD_POSTER_STRING_CONVERSION.">
<polygon fill="#bfbfbf" stroke="black" points="0,-0.5 0,-68.5 124,-68.5 124,-0.5 0,-0.5"/>
<text text-anchor="middle" x="62" y="-56.5" font-family="Helvetica,sans-Serif" font-size="10.00">wb_nao_walk_status</text>
<polyline fill="none" stroke="black" points="0,-49.5 124,-49.5 "/>
<text text-anchor="start" x="8" y="-37.5" font-family="Helvetica,sans-Serif" font-size="10.00">+ walkEngineState</text>
<text text-anchor="start" x="8" y="-26.5" font-family="Helvetica,sans-Serif" font-size="10.00">+ odometryResetCounter</text>
<polyline fill="none" stroke="black" points="0,-19.5 124,-19.5 "/>
<text text-anchor="middle" x="62" y="-7.5" font-family="Helvetica,sans-Serif" font-size="10.00"> </text>
</a>
</g>
</g>
<!-- Node2 -->
<g id="node2" class="node">
<title>Node2</title>
<g id="a_node2"><a xlink:href="structwb__odometry.html" target="_top" xlink:title="WHITEBOARD_POSTER_STRING_CONVERSION.">
<polygon fill="none" stroke="black" points="25,-116.5 25,-195.5 99,-195.5 99,-116.5 25,-116.5"/>
<text text-anchor="middle" x="62" y="-183.5" font-family="Helvetica,sans-Serif" font-size="10.00">wb_odometry</text>
<polyline fill="none" stroke="black" points="25,-176.5 99,-176.5 "/>
<text text-anchor="start" x="33" y="-164.5" font-family="Helvetica,sans-Serif" font-size="10.00">+ forward</text>
<text text-anchor="start" x="33" y="-153.5" font-family="Helvetica,sans-Serif" font-size="10.00">+ left</text>
<text text-anchor="start" x="33" y="-142.5" font-family="Helvetica,sans-Serif" font-size="10.00">+ turn</text>
<polyline fill="none" stroke="black" points="25,-135.5 99,-135.5 "/>
<text text-anchor="middle" x="62" y="-123.5" font-family="Helvetica,sans-Serif" font-size="10.00"> </text>
</a>
</g>
</g>
<!-- Node2&#45;&gt;Node1 -->
<g id="edge1" class="edge">
<title>Node2&#45;&gt;Node1</title>
<path fill="none" stroke="#404040" d="M62,-116.2C62,-104.99 62,-92.65 62,-81.07"/>
<polygon fill="none" stroke="#404040" points="62,-80.89 58,-74.89 62,-68.89 66,-74.89 62,-80.89"/>
<text text-anchor="middle" x="86.5" y="-90" font-family="Helvetica,sans-Serif" font-size="10.00"> +odometry</text>
</g>
</g>
</svg>
