<?xml version="1.0" encoding="UTF-8" standalone="no"?>
<!DOCTYPE svg PUBLIC "-//W3C//DTD SVG 1.1//EN"
 "http://www.w3.org/Graphics/SVG/1.1/DTD/svg11.dtd">
<!-- Generated by graphviz version 2.49.0 (20210830.1337)
 -->
<!-- Title: wb_machine_filtered_lines Pages: 1 -->
<svg width="116pt" height="309pt"
 viewBox="0.00 0.00 116.00 309.00" xmlns="http://www.w3.org/2000/svg" xmlns:xlink="http://www.w3.org/1999/xlink">
<g id="graph0" class="graph" transform="scale(1 1) rotate(0) translate(4 305)">
<title>wb_machine_filtered_lines</title>
<!-- Node1 -->
<g id="node1" class="node">
<title>Node1</title>
<g id="a_node1"><a xlink:title="Results of the KalmanFilter machines for lines.">
<polygon fill="#bfbfbf" stroke="black" points="0,-0.5 0,-68.5 108,-68.5 108,-0.5 0,-0.5"/>
<text text-anchor="start" x="8" y="-56.5" font-family="Helvetica,sans-Serif" font-size="10.00">wb_machine_filtered</text>
<text text-anchor="middle" x="54" y="-45.5" font-family="Helvetica,sans-Serif" font-size="10.00">_lines</text>
<polyline fill="none" stroke="black" points="0,-38.5 108,-38.5 "/>
<text text-anchor="start" x="8" y="-26.5" font-family="Helvetica,sans-Serif" font-size="10.00">+ numberOfSightings</text>
<polyline fill="none" stroke="black" points="0,-19.5 108,-19.5 "/>
<text text-anchor="middle" x="54" y="-7.5" font-family="Helvetica,sans-Serif" font-size="10.00"> </text>
</a>
</g>
</g>
<!-- Node2 -->
<g id="node2" class="node">
<title>Node2</title>
<g id="a_node2"><a xlink:href="structwb__line__sighting.html" target="_top" xlink:title="WHITEBOARD_POSTER_STRING_CONVERSION.">
<polygon fill="none" stroke="black" points="9.5,-116.5 9.5,-173.5 98.5,-173.5 98.5,-116.5 9.5,-116.5"/>
<text text-anchor="middle" x="54" y="-161.5" font-family="Helvetica,sans-Serif" font-size="10.00">wb_line_sighting</text>
<polyline fill="none" stroke="black" points="9.5,-154.5 98.5,-154.5 "/>
<text text-anchor="start" x="17.5" y="-142.5" font-family="Helvetica,sans-Serif" font-size="10.00">+ sightingType</text>
<polyline fill="none" stroke="black" points="9.5,-135.5 98.5,-135.5 "/>
<text text-anchor="middle" x="54" y="-123.5" font-family="Helvetica,sans-Serif" font-size="10.00"> </text>
</a>
</g>
</g>
<!-- Node2&#45;&gt;Node1 -->
<g id="edge1" class="edge">
<title>Node2&#45;&gt;Node1</title>
<path fill="none" stroke="#404040" d="M54,-116.34C54,-105.53 54,-92.85 54,-80.77"/>
<polygon fill="none" stroke="#404040" points="54,-80.52 50,-74.52 54,-68.52 58,-74.52 54,-80.52"/>
<text text-anchor="middle" x="78" y="-90" font-family="Helvetica,sans-Serif" font-size="10.00"> +sightings</text>
</g>
<!-- Node3 -->
<g id="node3" class="node">
<title>Node3</title>
<g id="a_node3"><a xlink:href="structwb__polar__coordinate.html" target="_top" xlink:title="WHITEBOARD_POSTER_STRING_CONVERSION.">
<polygon fill="none" stroke="black" points="1,-232.5 1,-300.5 107,-300.5 107,-232.5 1,-232.5"/>
<text text-anchor="middle" x="54" y="-288.5" font-family="Helvetica,sans-Serif" font-size="10.00">wb_polar_coordinate</text>
<polyline fill="none" stroke="black" points="1,-281.5 107,-281.5 "/>
<text text-anchor="start" x="9" y="-269.5" font-family="Helvetica,sans-Serif" font-size="10.00">+ direction</text>
<text text-anchor="start" x="9" y="-258.5" font-family="Helvetica,sans-Serif" font-size="10.00">+ distance</text>
<polyline fill="none" stroke="black" points="1,-251.5 107,-251.5 "/>
<text text-anchor="middle" x="54" y="-239.5" font-family="Helvetica,sans-Serif" font-size="10.00"> </text>
</a>
</g>
</g>
<!-- Node3&#45;&gt;Node2 -->
<g id="edge2" class="edge">
<title>Node3&#45;&gt;Node2</title>
<path fill="none" stroke="#404040" d="M54,-232.21C54,-217.86 54,-200.96 54,-185.94"/>
<polygon fill="none" stroke="#404040" points="54,-185.86 50,-179.86 54,-173.86 58,-179.86 54,-185.86"/>
<text text-anchor="middle" x="78" y="-206" font-family="Helvetica,sans-Serif" font-size="10.00"> +leftPoint</text>
<text text-anchor="middle" x="78" y="-195" font-family="Helvetica,sans-Serif" font-size="10.00">+rightPoint</text>
</g>
</g>
</svg>
