<?xml version="1.0" encoding="UTF-8" standalone="no"?>
<!DOCTYPE svg PUBLIC "-//W3C//DTD SVG 1.1//EN"
 "http://www.w3.org/Graphics/SVG/1.1/DTD/svg11.dtd">
<!-- Generated by graphviz version 2.49.0 (20210830.1337)
 -->
<!-- Title: wb_vision_detection_lines Pages: 1 -->
<svg width="133pt" height="447pt"
 viewBox="0.00 0.00 133.00 447.00" xmlns="http://www.w3.org/2000/svg" xmlns:xlink="http://www.w3.org/1999/xlink">
<g id="graph0" class="graph" transform="scale(1 1) rotate(0) translate(4 443)">
<title>wb_vision_detection_lines</title>
<!-- Node1 -->
<g id="node1" class="node">
<title>Node1</title>
<g id="a_node1"><a xlink:title="Results for the Line Ray Tracer (guvision).">
<polygon fill="#bfbfbf" stroke="black" points="10,-0.5 10,-90.5 115,-90.5 115,-0.5 10,-0.5"/>
<text text-anchor="start" x="18" y="-78.5" font-family="Helvetica,sans-Serif" font-size="10.00">wb_vision_detection</text>
<text text-anchor="middle" x="62.5" y="-67.5" font-family="Helvetica,sans-Serif" font-size="10.00">_lines</text>
<polyline fill="none" stroke="black" points="10,-60.5 115,-60.5 "/>
<text text-anchor="start" x="18" y="-48.5" font-family="Helvetica,sans-Serif" font-size="10.00">+ frameNumber</text>
<text text-anchor="start" x="18" y="-37.5" font-family="Helvetica,sans-Serif" font-size="10.00">+ res_width</text>
<text text-anchor="start" x="18" y="-26.5" font-family="Helvetica,sans-Serif" font-size="10.00">+ res_height</text>
<polyline fill="none" stroke="black" points="10,-19.5 115,-19.5 "/>
<text text-anchor="middle" x="62.5" y="-7.5" font-family="Helvetica,sans-Serif" font-size="10.00"> </text>
</a>
</g>
</g>
<!-- Node2 -->
<g id="node2" class="node">
<title>Node2</title>
<g id="a_node2"><a xlink:href="structwb__vision__detection__line__array.html" target="_top" xlink:title="Results for the Line Ray Tracer (guvision).">
<polygon fill="none" stroke="black" points="10,-138.5 10,-206.5 115,-206.5 115,-138.5 10,-138.5"/>
<text text-anchor="start" x="18" y="-194.5" font-family="Helvetica,sans-Serif" font-size="10.00">wb_vision_detection</text>
<text text-anchor="middle" x="62.5" y="-183.5" font-family="Helvetica,sans-Serif" font-size="10.00">_line_array</text>
<polyline fill="none" stroke="black" points="10,-176.5 115,-176.5 "/>
<text text-anchor="start" x="18" y="-164.5" font-family="Helvetica,sans-Serif" font-size="10.00">+ numLines</text>
<polyline fill="none" stroke="black" points="10,-157.5 115,-157.5 "/>
<text text-anchor="middle" x="62.5" y="-145.5" font-family="Helvetica,sans-Serif" font-size="10.00"> </text>
</a>
</g>
</g>
<!-- Node2&#45;&gt;Node1 -->
<g id="edge1" class="edge">
<title>Node2&#45;&gt;Node1</title>
<path fill="none" stroke="#404040" d="M62.5,-138.33C62.5,-127.37 62.5,-114.86 62.5,-102.67"/>
<polygon fill="none" stroke="#404040" points="62.5,-102.66 58.5,-96.66 62.5,-90.66 66.5,-96.66 62.5,-102.66"/>
<text text-anchor="middle" x="77" y="-112" font-family="Helvetica,sans-Serif" font-size="10.00"> +lines</text>
</g>
<!-- Node3 -->
<g id="node3" class="node">
<title>Node3</title>
<g id="a_node3"><a xlink:href="structwb__pixel__coordinate__line.html" target="_top" xlink:title="WHITEBOARD_POSTER_STRING_CONVERSION.">
<polygon fill="none" stroke="black" points="0,-254.5 0,-311.5 125,-311.5 125,-254.5 0,-254.5"/>
<text text-anchor="middle" x="62.5" y="-299.5" font-family="Helvetica,sans-Serif" font-size="10.00">wb_pixel_coordinate_line</text>
<polyline fill="none" stroke="black" points="0,-292.5 125,-292.5 "/>
<text text-anchor="middle" x="62.5" y="-280.5" font-family="Helvetica,sans-Serif" font-size="10.00"> </text>
<polyline fill="none" stroke="black" points="0,-273.5 125,-273.5 "/>
<text text-anchor="middle" x="62.5" y="-261.5" font-family="Helvetica,sans-Serif" font-size="10.00"> </text>
</a>
</g>
</g>
<!-- Node3&#45;&gt;Node2 -->
<g id="edge2" class="edge">
<title>Node3&#45;&gt;Node2</title>
<path fill="none" stroke="#404040" d="M62.5,-254.34C62.5,-243.53 62.5,-230.85 62.5,-218.77"/>
<polygon fill="none" stroke="#404040" points="62.5,-218.52 58.5,-212.52 62.5,-206.52 66.5,-212.52 62.5,-218.52"/>
<text text-anchor="middle" x="77" y="-228" font-family="Helvetica,sans-Serif" font-size="10.00"> +lines</text>
</g>
<!-- Node4 -->
<g id="node4" class="node">
<title>Node4</title>
<g id="a_node4"><a xlink:href="structwb__pixel__coordinate.html" target="_top" xlink:title="WHITEBOARD_POSTER_STRING_CONVERSION.">
<polygon fill="none" stroke="black" points="10.5,-370.5 10.5,-438.5 114.5,-438.5 114.5,-370.5 10.5,-370.5"/>
<text text-anchor="middle" x="62.5" y="-426.5" font-family="Helvetica,sans-Serif" font-size="10.00">wb_pixel_coordinate</text>
<polyline fill="none" stroke="black" points="10.5,-419.5 114.5,-419.5 "/>
<text text-anchor="start" x="18.5" y="-407.5" font-family="Helvetica,sans-Serif" font-size="10.00">+ x</text>
<text text-anchor="start" x="18.5" y="-396.5" font-family="Helvetica,sans-Serif" font-size="10.00">+ y</text>
<polyline fill="none" stroke="black" points="10.5,-389.5 114.5,-389.5 "/>
<text text-anchor="middle" x="62.5" y="-377.5" font-family="Helvetica,sans-Serif" font-size="10.00"> </text>
</a>
</g>
</g>
<!-- Node4&#45;&gt;Node3 -->
<g id="edge3" class="edge">
<title>Node4&#45;&gt;Node3</title>
<path fill="none" stroke="#404040" d="M62.5,-370.21C62.5,-355.86 62.5,-338.96 62.5,-323.94"/>
<polygon fill="none" stroke="#404040" points="62.5,-323.86 58.5,-317.86 62.5,-311.86 66.5,-317.86 62.5,-323.86"/>
<text text-anchor="middle" x="75.5" y="-344" font-family="Helvetica,sans-Serif" font-size="10.00"> +end</text>
<text text-anchor="middle" x="75.5" y="-333" font-family="Helvetica,sans-Serif" font-size="10.00">+start</text>
</g>
</g>
</svg>
