<?xml version="1.0" encoding="UTF-8" standalone="no"?>
<!DOCTYPE svg PUBLIC "-//W3C//DTD SVG 1.1//EN"
 "http://www.w3.org/Graphics/SVG/1.1/DTD/svg11.dtd">
<!-- Generated by graphviz version 2.49.0 (20210830.1337)
 -->
<!-- Title: wb_io_pins Pages: 1 -->
<svg width="131pt" height="248pt"
 viewBox="0.00 0.00 131.00 248.00" xmlns="http://www.w3.org/2000/svg" xmlns:xlink="http://www.w3.org/1999/xlink">
<g id="graph0" class="graph" transform="scale(1 1) rotate(0) translate(4 244)">
<title>wb_io_pins</title>
<!-- Node1 -->
<g id="node1" class="node">
<title>Node1</title>
<g id="a_node1"><a xlink:title="Simulated I/O pins.">
<polygon fill="#bfbfbf" stroke="black" points="0,-182.5 0,-239.5 123,-239.5 123,-182.5 0,-182.5"/>
<text text-anchor="middle" x="61.5" y="-227.5" font-family="Helvetica,sans-Serif" font-size="10.00">wb_io_pins</text>
<polyline fill="none" stroke="black" points="0,-220.5 123,-220.5 "/>
<text text-anchor="middle" x="61.5" y="-208.5" font-family="Helvetica,sans-Serif" font-size="10.00"> </text>
<polyline fill="none" stroke="black" points="0,-201.5 123,-201.5 "/>
<text text-anchor="start" x="8" y="-189.5" font-family="Helvetica,sans-Serif" font-size="10.00">+ ARRAY_PROPERTY()</text>
</a>
</g>
</g>
<!-- Node2 -->
<g id="node2" class="node">
<title>Node2</title>
<g id="a_node2"><a xlink:href="classgu_whiteboard_1_1_i_o_pins.html" target="_top" xlink:title="Class for controlling and getting the status of IO pins.">
<polygon fill="none" stroke="black" points="6.5,-0.5 6.5,-145.5 116.5,-145.5 116.5,-0.5 6.5,-0.5"/>
<text text-anchor="middle" x="61.5" y="-133.5" font-family="Helvetica,sans-Serif" font-size="10.00">guWhiteboard::IOPins</text>
<polyline fill="none" stroke="black" points="6.5,-126.5 116.5,-126.5 "/>
<text text-anchor="middle" x="61.5" y="-114.5" font-family="Helvetica,sans-Serif" font-size="10.00"> </text>
<polyline fill="none" stroke="black" points="6.5,-107.5 116.5,-107.5 "/>
<text text-anchor="start" x="14.5" y="-95.5" font-family="Helvetica,sans-Serif" font-size="10.00">+ get()</text>
<text text-anchor="start" x="14.5" y="-84.5" font-family="Helvetica,sans-Serif" font-size="10.00">+ set()</text>
<text text-anchor="start" x="14.5" y="-73.5" font-family="Helvetica,sans-Serif" font-size="10.00">+ clr()</text>
<text text-anchor="start" x="14.5" y="-62.5" font-family="Helvetica,sans-Serif" font-size="10.00">+ set()</text>
<text text-anchor="start" x="14.5" y="-51.5" font-family="Helvetica,sans-Serif" font-size="10.00">+ reset()</text>
<text text-anchor="start" x="14.5" y="-40.5" font-family="Helvetica,sans-Serif" font-size="10.00">+ operator==()</text>
<text text-anchor="start" x="14.5" y="-29.5" font-family="Helvetica,sans-Serif" font-size="10.00">+ IOPins()</text>
<text text-anchor="start" x="14.5" y="-18.5" font-family="Helvetica,sans-Serif" font-size="10.00">+ description()</text>
<text text-anchor="start" x="14.5" y="-7.5" font-family="Helvetica,sans-Serif" font-size="10.00">+ from_string()</text>
</a>
</g>
</g>
<!-- Node1&#45;&gt;Node2 -->
<g id="edge1" class="edge">
<title>Node1&#45;&gt;Node2</title>
<path fill="none" stroke="midnightblue" d="M61.5,-172.36C61.5,-164 61.5,-154.87 61.5,-145.66"/>
<polygon fill="none" stroke="midnightblue" points="58,-172.48 61.5,-182.48 65,-172.48 58,-172.48"/>
</g>
</g>
</svg>
