<?xml version="1.0" encoding="UTF-8" standalone="no"?>
<!DOCTYPE svg PUBLIC "-//W3C//DTD SVG 1.1//EN"
 "http://www.w3.org/Graphics/SVG/1.1/DTD/svg11.dtd">
<!-- Generated by graphviz version 2.49.0 (20210830.1337)
 -->
<!-- Title: wb_vision_detection_goal_post Pages: 1 -->
<svg width="167pt" height="237pt"
 viewBox="0.00 0.00 166.50 237.00" xmlns="http://www.w3.org/2000/svg" xmlns:xlink="http://www.w3.org/1999/xlink">
<g id="graph0" class="graph" transform="scale(1 1) rotate(0) translate(4 233)">
<title>wb_vision_detection_goal_post</title>
<!-- Node1 -->
<g id="node1" class="node">
<title>Node1</title>
<g id="a_node1"><a xlink:title="WHITEBOARD_POSTER_STRING_CONVERSION.">
<polygon fill="#bfbfbf" stroke="black" points="0,-0.5 0,-79.5 105,-79.5 105,-0.5 0,-0.5"/>
<text text-anchor="start" x="8" y="-67.5" font-family="Helvetica,sans-Serif" font-size="10.00">wb_vision_detection</text>
<text text-anchor="middle" x="52.5" y="-56.5" font-family="Helvetica,sans-Serif" font-size="10.00">_goal_post</text>
<polyline fill="none" stroke="black" points="0,-49.5 105,-49.5 "/>
<text text-anchor="start" x="8" y="-37.5" font-family="Helvetica,sans-Serif" font-size="10.00">+ sightingType</text>
<text text-anchor="start" x="8" y="-26.5" font-family="Helvetica,sans-Serif" font-size="10.00">+ orientation</text>
<polyline fill="none" stroke="black" points="0,-19.5 105,-19.5 "/>
<text text-anchor="middle" x="52.5" y="-7.5" font-family="Helvetica,sans-Serif" font-size="10.00"> </text>
</a>
</g>
</g>
<!-- Node2 -->
<g id="node2" class="node">
<title>Node2</title>
<g id="a_node2"><a xlink:href="structwb__pixel__coordinate.html" target="_top" xlink:title="WHITEBOARD_POSTER_STRING_CONVERSION.">
<polygon fill="none" stroke="black" points="0.5,-160.5 0.5,-228.5 104.5,-228.5 104.5,-160.5 0.5,-160.5"/>
<text text-anchor="middle" x="52.5" y="-216.5" font-family="Helvetica,sans-Serif" font-size="10.00">wb_pixel_coordinate</text>
<polyline fill="none" stroke="black" points="0.5,-209.5 104.5,-209.5 "/>
<text text-anchor="start" x="8.5" y="-197.5" font-family="Helvetica,sans-Serif" font-size="10.00">+ x</text>
<text text-anchor="start" x="8.5" y="-186.5" font-family="Helvetica,sans-Serif" font-size="10.00">+ y</text>
<polyline fill="none" stroke="black" points="0.5,-179.5 104.5,-179.5 "/>
<text text-anchor="middle" x="52.5" y="-167.5" font-family="Helvetica,sans-Serif" font-size="10.00"> </text>
</a>
</g>
</g>
<!-- Node2&#45;&gt;Node1 -->
<g id="edge1" class="edge">
<title>Node2&#45;&gt;Node1</title>
<path fill="none" stroke="#404040" d="M52.5,-160.41C52.5,-140.38 52.5,-114.42 52.5,-91.83"/>
<polygon fill="none" stroke="#404040" points="52.5,-91.68 48.5,-85.68 52.5,-79.68 56.5,-85.68 52.5,-91.68"/>
<text text-anchor="middle" x="105.5" y="-134" font-family="Helvetica,sans-Serif" font-size="10.00"> +bottomLeftCoordinate</text>
<text text-anchor="middle" x="105.5" y="-123" font-family="Helvetica,sans-Serif" font-size="10.00">+bottomRightCoordinate</text>
<text text-anchor="middle" x="105.5" y="-112" font-family="Helvetica,sans-Serif" font-size="10.00">+topLeftCoordinate</text>
<text text-anchor="middle" x="105.5" y="-101" font-family="Helvetica,sans-Serif" font-size="10.00">+topRightCoordinate</text>
</g>
</g>
</svg>
