<?xml version="1.0" encoding="UTF-8" standalone="no"?>
<!DOCTYPE svg PUBLIC "-//W3C//DTD SVG 1.1//EN"
 "http://www.w3.org/Graphics/SVG/1.1/DTD/svg11.dtd">
<!-- Generated by graphviz version 2.49.0 (20210830.1337)
 -->
<!-- Title: wb_switch_subsumption_traffic_lights Pages: 1 -->
<svg width="175pt" height="237pt"
 viewBox="0.00 0.00 175.00 237.00" xmlns="http://www.w3.org/2000/svg" xmlns:xlink="http://www.w3.org/1999/xlink">
<g id="graph0" class="graph" transform="scale(1 1) rotate(0) translate(4 233)">
<title>wb_switch_subsumption_traffic_lights</title>
<!-- Node1 -->
<g id="node1" class="node">
<title>Node1</title>
<g id="a_node1"><a xlink:title=" ">
<polygon fill="#bfbfbf" stroke="black" points="21.5,-160.5 21.5,-228.5 145.5,-228.5 145.5,-160.5 21.5,-160.5"/>
<text text-anchor="start" x="29.5" y="-216.5" font-family="Helvetica,sans-Serif" font-size="10.00">wb_switch_subsumption</text>
<text text-anchor="middle" x="83.5" y="-205.5" font-family="Helvetica,sans-Serif" font-size="10.00">_traffic_lights</text>
<polyline fill="none" stroke="black" points="21.5,-198.5 145.5,-198.5 "/>
<text text-anchor="middle" x="83.5" y="-186.5" font-family="Helvetica,sans-Serif" font-size="10.00"> </text>
<polyline fill="none" stroke="black" points="21.5,-179.5 145.5,-179.5 "/>
<text text-anchor="start" x="29.5" y="-167.5" font-family="Helvetica,sans-Serif" font-size="10.00">+ ARRAY_PROPERTY()</text>
</a>
</g>
</g>
<!-- Node2 -->
<g id="node2" class="node">
<title>Node2</title>
<g id="a_node2"><a xlink:href="classgu_whiteboard_1_1_switch_subsumption_traffic_lights.html" target="_top" xlink:title="Subsumption SWITCH that select highest priority command.">
<polygon fill="none" stroke="black" points="0,-0.5 0,-123.5 167,-123.5 167,-0.5 0,-0.5"/>
<text text-anchor="start" x="8" y="-111.5" font-family="Helvetica,sans-Serif" font-size="10.00">guWhiteboard::SwitchSubsumption</text>
<text text-anchor="middle" x="83.5" y="-100.5" font-family="Helvetica,sans-Serif" font-size="10.00">TrafficLights</text>
<polyline fill="none" stroke="black" points="0,-93.5 167,-93.5 "/>
<text text-anchor="middle" x="83.5" y="-81.5" font-family="Helvetica,sans-Serif" font-size="10.00"> </text>
<polyline fill="none" stroke="black" points="0,-74.5 167,-74.5 "/>
<text text-anchor="start" x="8" y="-62.5" font-family="Helvetica,sans-Serif" font-size="10.00">+ SwitchSubsumptionTraffic</text>
<text text-anchor="start" x="8" y="-51.5" font-family="Helvetica,sans-Serif" font-size="10.00">Lights()</text>
<text text-anchor="start" x="8" y="-40.5" font-family="Helvetica,sans-Serif" font-size="10.00">+ SwitchSubsumptionTraffic</text>
<text text-anchor="start" x="8" y="-29.5" font-family="Helvetica,sans-Serif" font-size="10.00">Lights()</text>
<text text-anchor="start" x="8" y="-18.5" font-family="Helvetica,sans-Serif" font-size="10.00">+ description()</text>
<text text-anchor="start" x="8" y="-7.5" font-family="Helvetica,sans-Serif" font-size="10.00">+ from_string()</text>
</a>
</g>
</g>
<!-- Node1&#45;&gt;Node2 -->
<g id="edge1" class="edge">
<title>Node1&#45;&gt;Node2</title>
<path fill="none" stroke="midnightblue" d="M83.5,-150.17C83.5,-141.65 83.5,-132.57 83.5,-123.61"/>
<polygon fill="none" stroke="midnightblue" points="80,-150.23 83.5,-160.23 87,-150.23 80,-150.23"/>
</g>
</g>
</svg>
