<?xml version="1.0" encoding="UTF-8" standalone="no"?>
<!DOCTYPE svg PUBLIC "-//W3C//DTD SVG 1.1//EN"
 "http://www.w3.org/Graphics/SVG/1.1/DTD/svg11.dtd">
<!-- Generated by graphviz version 2.49.0 (20210830.1337)
 -->
<!-- Title: wb_particle_position Pages: 1 -->
<svg width="113pt" height="193pt"
 viewBox="0.00 0.00 113.00 193.00" xmlns="http://www.w3.org/2000/svg" xmlns:xlink="http://www.w3.org/1999/xlink">
<g id="graph0" class="graph" transform="scale(1 1) rotate(0) translate(4 189)">
<title>wb_particle_position</title>
<!-- Node1 -->
<g id="node1" class="node">
<title>Node1</title>
<g id="a_node1"><a xlink:title="WHITEBOARD_POSTER_STRING_CONVERSION.">
<polygon fill="#bfbfbf" stroke="black" points="0,-0.5 0,-68.5 105,-68.5 105,-0.5 0,-0.5"/>
<text text-anchor="middle" x="52.5" y="-56.5" font-family="Helvetica,sans-Serif" font-size="10.00">wb_particle_position</text>
<polyline fill="none" stroke="black" points="0,-49.5 105,-49.5 "/>
<text text-anchor="start" x="8" y="-37.5" font-family="Helvetica,sans-Serif" font-size="10.00">+ headingInDegrees</text>
<text text-anchor="start" x="8" y="-26.5" font-family="Helvetica,sans-Serif" font-size="10.00">+ confidence</text>
<polyline fill="none" stroke="black" points="0,-19.5 105,-19.5 "/>
<text text-anchor="middle" x="52.5" y="-7.5" font-family="Helvetica,sans-Serif" font-size="10.00"> </text>
</a>
</g>
</g>
<!-- Node2 -->
<g id="node2" class="node">
<title>Node2</title>
<g id="a_node2"><a xlink:href="structwb__point2d.html" target="_top" xlink:title="WHITEBOARD_POSTER_STRING_CONVERSION.">
<polygon fill="none" stroke="black" points="19.5,-116.5 19.5,-184.5 85.5,-184.5 85.5,-116.5 19.5,-116.5"/>
<text text-anchor="middle" x="52.5" y="-172.5" font-family="Helvetica,sans-Serif" font-size="10.00">wb_point2d</text>
<polyline fill="none" stroke="black" points="19.5,-165.5 85.5,-165.5 "/>
<text text-anchor="start" x="27.5" y="-153.5" font-family="Helvetica,sans-Serif" font-size="10.00">+ x</text>
<text text-anchor="start" x="27.5" y="-142.5" font-family="Helvetica,sans-Serif" font-size="10.00">+ y</text>
<polyline fill="none" stroke="black" points="19.5,-135.5 85.5,-135.5 "/>
<text text-anchor="middle" x="52.5" y="-123.5" font-family="Helvetica,sans-Serif" font-size="10.00"> </text>
</a>
</g>
</g>
<!-- Node2&#45;&gt;Node1 -->
<g id="edge1" class="edge">
<title>Node2&#45;&gt;Node1</title>
<path fill="none" stroke="#404040" d="M52.5,-116.22C52.5,-105.1 52.5,-92.51 52.5,-80.64"/>
<polygon fill="none" stroke="#404040" points="52.5,-80.62 48.5,-74.62 52.5,-68.62 56.5,-74.62 52.5,-80.62"/>
<text text-anchor="middle" x="74" y="-90" font-family="Helvetica,sans-Serif" font-size="10.00"> +position</text>
</g>
</g>
</svg>
