<?xml version="1.0" encoding="UTF-8" standalone="no"?>
<!DOCTYPE svg PUBLIC "-//W3C//DTD SVG 1.1//EN"
 "http://www.w3.org/Graphics/SVG/1.1/DTD/svg11.dtd">
<!-- Generated by graphviz version 2.49.0 (20210830.1337)
 -->
<!-- Title: wb_clocks Pages: 1 -->
<svg width="131pt" height="237pt"
 viewBox="0.00 0.00 131.00 237.00" xmlns="http://www.w3.org/2000/svg" xmlns:xlink="http://www.w3.org/1999/xlink">
<g id="graph0" class="graph" transform="scale(1 1) rotate(0) translate(4 233)">
<title>wb_clocks</title>
<!-- Node1 -->
<g id="node1" class="node">
<title>Node1</title>
<g id="a_node1"><a xlink:title="clocks and timers class">
<polygon fill="#bfbfbf" stroke="black" points="0,-171.5 0,-228.5 123,-228.5 123,-171.5 0,-171.5"/>
<text text-anchor="middle" x="61.5" y="-216.5" font-family="Helvetica,sans-Serif" font-size="10.00">wb_clocks</text>
<polyline fill="none" stroke="black" points="0,-209.5 123,-209.5 "/>
<text text-anchor="middle" x="61.5" y="-197.5" font-family="Helvetica,sans-Serif" font-size="10.00"> </text>
<polyline fill="none" stroke="black" points="0,-190.5 123,-190.5 "/>
<text text-anchor="start" x="8" y="-178.5" font-family="Helvetica,sans-Serif" font-size="10.00">+ ARRAY_PROPERTY()</text>
</a>
</g>
</g>
<!-- Node2 -->
<g id="node2" class="node">
<title>Node2</title>
<g id="a_node2"><a xlink:href="classgu_whiteboard_1_1_clocks.html" target="_top" xlink:title="Class for working with timing and clock messages.">
<polygon fill="none" stroke="black" points="6.5,-0.5 6.5,-134.5 116.5,-134.5 116.5,-0.5 6.5,-0.5"/>
<text text-anchor="middle" x="61.5" y="-122.5" font-family="Helvetica,sans-Serif" font-size="10.00">guWhiteboard::Clocks</text>
<polyline fill="none" stroke="black" points="6.5,-115.5 116.5,-115.5 "/>
<text text-anchor="middle" x="61.5" y="-103.5" font-family="Helvetica,sans-Serif" font-size="10.00"> </text>
<polyline fill="none" stroke="black" points="6.5,-96.5 116.5,-96.5 "/>
<text text-anchor="start" x="14.5" y="-84.5" font-family="Helvetica,sans-Serif" font-size="10.00">+ get()</text>
<text text-anchor="start" x="14.5" y="-73.5" font-family="Helvetica,sans-Serif" font-size="10.00">+ set()</text>
<text text-anchor="start" x="14.5" y="-62.5" font-family="Helvetica,sans-Serif" font-size="10.00">+ reset()</text>
<text text-anchor="start" x="14.5" y="-51.5" font-family="Helvetica,sans-Serif" font-size="10.00">+ time()</text>
<text text-anchor="start" x="14.5" y="-40.5" font-family="Helvetica,sans-Serif" font-size="10.00">+ time_ms()</text>
<text text-anchor="start" x="14.5" y="-29.5" font-family="Helvetica,sans-Serif" font-size="10.00">+ Clocks()</text>
<text text-anchor="start" x="14.5" y="-18.5" font-family="Helvetica,sans-Serif" font-size="10.00">+ description()</text>
<text text-anchor="start" x="14.5" y="-7.5" font-family="Helvetica,sans-Serif" font-size="10.00">+ from_string()</text>
</a>
</g>
</g>
<!-- Node1&#45;&gt;Node2 -->
<g id="edge1" class="edge">
<title>Node1&#45;&gt;Node2</title>
<path fill="none" stroke="midnightblue" d="M61.5,-161.16C61.5,-152.78 61.5,-143.67 61.5,-134.53"/>
<polygon fill="none" stroke="midnightblue" points="58,-161.32 61.5,-171.32 65,-161.32 58,-161.32"/>
</g>
</g>
</svg>
