<?xml version="1.0" encoding="UTF-8" standalone="no"?>
<!DOCTYPE svg PUBLIC "-//W3C//DTD SVG 1.1//EN"
 "http://www.w3.org/Graphics/SVG/1.1/DTD/svg11.dtd">
<!-- Generated by graphviz version 2.49.0 (20210830.1337)
 -->
<!-- Title: wb_sensors_leds Pages: 1 -->
<svg width="158pt" height="215pt"
 viewBox="0.00 0.00 158.00 215.00" xmlns="http://www.w3.org/2000/svg" xmlns:xlink="http://www.w3.org/1999/xlink">
<g id="graph0" class="graph" transform="scale(1 1) rotate(0) translate(4 211)">
<title>wb_sensors_leds</title>
<!-- Node1 -->
<g id="node1" class="node">
<title>Node1</title>
<g id="a_node1"><a xlink:title="LED sensors c struct.">
<polygon fill="#bfbfbf" stroke="black" points="29,-149.5 29,-206.5 121,-206.5 121,-149.5 29,-149.5"/>
<text text-anchor="middle" x="75" y="-194.5" font-family="Helvetica,sans-Serif" font-size="10.00">wb_sensors_leds</text>
<polyline fill="none" stroke="black" points="29,-187.5 121,-187.5 "/>
<text text-anchor="middle" x="75" y="-175.5" font-family="Helvetica,sans-Serif" font-size="10.00"> </text>
<polyline fill="none" stroke="black" points="29,-168.5 121,-168.5 "/>
<text text-anchor="middle" x="75" y="-156.5" font-family="Helvetica,sans-Serif" font-size="10.00"> </text>
</a>
</g>
</g>
<!-- Node2 -->
<g id="node2" class="node">
<title>Node2</title>
<g id="a_node2"><a xlink:href="classgu_whiteboard_1_1_s_e_n_s_o_r_s_leds_sensors.html" target="_top" xlink:title="Class for changing the LEDs on a robot, designed for Nao but is fairly generic.">
<polygon fill="none" stroke="black" points="0,-0.5 0,-112.5 150,-112.5 150,-0.5 0,-0.5"/>
<text text-anchor="start" x="8" y="-100.5" font-family="Helvetica,sans-Serif" font-size="10.00">guWhiteboard::SENSORSLeds</text>
<text text-anchor="middle" x="75" y="-89.5" font-family="Helvetica,sans-Serif" font-size="10.00">Sensors</text>
<polyline fill="none" stroke="black" points="0,-82.5 150,-82.5 "/>
<text text-anchor="middle" x="75" y="-70.5" font-family="Helvetica,sans-Serif" font-size="10.00"> </text>
<polyline fill="none" stroke="black" points="0,-63.5 150,-63.5 "/>
<text text-anchor="start" x="8" y="-51.5" font-family="Helvetica,sans-Serif" font-size="10.00">+ SENSORSLedsSensors()</text>
<text text-anchor="start" x="8" y="-40.5" font-family="Helvetica,sans-Serif" font-size="10.00">+ LEDsGroupChange()</text>
<text text-anchor="start" x="8" y="-29.5" font-family="Helvetica,sans-Serif" font-size="10.00">+ changeLedColour()</text>
<text text-anchor="start" x="8" y="-18.5" font-family="Helvetica,sans-Serif" font-size="10.00">+ changeLed()</text>
<text text-anchor="start" x="8" y="-7.5" font-family="Helvetica,sans-Serif" font-size="10.00">+ changeLed()</text>
</a>
</g>
</g>
<!-- Node1&#45;&gt;Node2 -->
<g id="edge1" class="edge">
<title>Node1&#45;&gt;Node2</title>
<path fill="none" stroke="midnightblue" d="M75,-139.11C75,-130.75 75,-121.73 75,-112.83"/>
<polygon fill="none" stroke="midnightblue" points="71.5,-139.28 75,-149.28 78.5,-139.28 71.5,-139.28"/>
</g>
</g>
</svg>
