<?xml version="1.0" encoding="UTF-8" standalone="no"?>
<!DOCTYPE svg PUBLIC "-//W3C//DTD SVG 1.1//EN"
 "http://www.w3.org/Graphics/SVG/1.1/DTD/svg11.dtd">
<!-- Generated by graphviz version 2.49.0 (20210830.1337)
 -->
<!-- Title: callback_helper Pages: 1 -->
<svg width="415pt" height="959pt"
 viewBox="0.00 0.00 415.00 959.00" xmlns="http://www.w3.org/2000/svg" xmlns:xlink="http://www.w3.org/1999/xlink">
<g id="graph0" class="graph" transform="scale(1 1) rotate(0) translate(4 955)">
<title>callback_helper</title>
<!-- Node1 -->
<g id="node1" class="node">
<title>Node1</title>
<g id="a_node1"><a xlink:title="An internal stuct for passing callback information to dispatch queues.">
<polygon fill="#bfbfbf" stroke="black" points="167,-0.5 167,-112.5 276,-112.5 276,-0.5 167,-0.5"/>
<text text-anchor="middle" x="221.5" y="-100.5" font-family="Helvetica,sans-Serif" font-size="10.00">callback_helper</text>
<polyline fill="none" stroke="black" points="167,-93.5 276,-93.5 "/>
<text text-anchor="start" x="175" y="-81.5" font-family="Helvetica,sans-Serif" font-size="10.00">+ offs</text>
<text text-anchor="start" x="175" y="-70.5" font-family="Helvetica,sans-Serif" font-size="10.00">+ t_overwrite</text>
<text text-anchor="start" x="175" y="-59.5" font-family="Helvetica,sans-Serif" font-size="10.00">+ use_type_overwrite</text>
<text text-anchor="start" x="175" y="-48.5" font-family="Helvetica,sans-Serif" font-size="10.00">+ gen_to_use</text>
<text text-anchor="start" x="175" y="-37.5" font-family="Helvetica,sans-Serif" font-size="10.00">+ curr</text>
<polyline fill="none" stroke="black" points="167,-30.5 276,-30.5 "/>
<text text-anchor="start" x="175" y="-18.5" font-family="Helvetica,sans-Serif" font-size="10.00">+ callback_helper()</text>
<text text-anchor="start" x="175" y="-7.5" font-family="Helvetica,sans-Serif" font-size="10.00">+ callback_helper()</text>
</a>
</g>
</g>
<!-- Node2 -->
<g id="node2" class="node">
<title>Node2</title>
<g id="a_node2"><a xlink:href="structgsw__simple__whiteboard__s.html" target="_top" xlink:title="the actual whiteboard in shared mem">
<polygon fill="none" stroke="black" points="0,-579.5 0,-713.5 131,-713.5 131,-579.5 0,-579.5"/>
<text text-anchor="middle" x="65.5" y="-701.5" font-family="Helvetica,sans-Serif" font-size="10.00">gsw_simple_whiteboard_s</text>
<polyline fill="none" stroke="black" points="0,-694.5 131,-694.5 "/>
<text text-anchor="start" x="8" y="-682.5" font-family="Helvetica,sans-Serif" font-size="10.00">+ version</text>
<text text-anchor="start" x="8" y="-671.5" font-family="Helvetica,sans-Serif" font-size="10.00">+ eventcount</text>
<text text-anchor="start" x="8" y="-660.5" font-family="Helvetica,sans-Serif" font-size="10.00">+ subscribed</text>
<text text-anchor="start" x="8" y="-649.5" font-family="Helvetica,sans-Serif" font-size="10.00">+ num_types</text>
<text text-anchor="start" x="8" y="-638.5" font-family="Helvetica,sans-Serif" font-size="10.00">+ indexes</text>
<text text-anchor="start" x="8" y="-627.5" font-family="Helvetica,sans-Serif" font-size="10.00">+ event_counters</text>
<text text-anchor="start" x="8" y="-616.5" font-family="Helvetica,sans-Serif" font-size="10.00">+ processes</text>
<text text-anchor="start" x="8" y="-605.5" font-family="Helvetica,sans-Serif" font-size="10.00">+ magic</text>
<polyline fill="none" stroke="black" points="0,-598.5 131,-598.5 "/>
<text text-anchor="middle" x="65.5" y="-586.5" font-family="Helvetica,sans-Serif" font-size="10.00"> </text>
</a>
</g>
</g>
<!-- Node2&#45;&gt;Node1 -->
<g id="edge1" class="edge">
<title>Node2&#45;&gt;Node1</title>
<path fill="none" stroke="#404040" d="M47.42,-579.1C24.59,-480.91 -3.65,-294.19 68.5,-160 87.21,-125.21 123.49,-100.13 156.02,-83.49"/>
<polygon fill="none" stroke="#404040" points="156.11,-83.45 159.74,-77.21 166.88,-78.17 163.26,-84.4 156.11,-83.45"/>
<text text-anchor="middle" x="33.5" y="-371" font-family="Helvetica,sans-Serif" font-size="10.00"> +wb</text>
</g>
<!-- Node6 -->
<g id="node6" class="node">
<title>Node6</title>
<g id="a_node6"><a xlink:href="structgsw__whiteboard__s.html" target="_top" xlink:title="the underlying whiteboard object">
<polygon fill="none" stroke="black" points="86.5,-408.5 86.5,-520.5 184.5,-520.5 184.5,-408.5 86.5,-408.5"/>
<text text-anchor="middle" x="135.5" y="-508.5" font-family="Helvetica,sans-Serif" font-size="10.00">gsw_whiteboard_s</text>
<polyline fill="none" stroke="black" points="86.5,-501.5 184.5,-501.5 "/>
<text text-anchor="start" x="94.5" y="-489.5" font-family="Helvetica,sans-Serif" font-size="10.00">+ sem</text>
<text text-anchor="start" x="94.5" y="-478.5" font-family="Helvetica,sans-Serif" font-size="10.00">+ fd</text>
<text text-anchor="start" x="94.5" y="-467.5" font-family="Helvetica,sans-Serif" font-size="10.00">+ callback_queue</text>
<text text-anchor="start" x="94.5" y="-456.5" font-family="Helvetica,sans-Serif" font-size="10.00">+ context</text>
<text text-anchor="start" x="94.5" y="-445.5" font-family="Helvetica,sans-Serif" font-size="10.00">+ got_monitor</text>
<text text-anchor="start" x="94.5" y="-434.5" font-family="Helvetica,sans-Serif" font-size="10.00">+ exit_monitor</text>
<polyline fill="none" stroke="black" points="86.5,-427.5 184.5,-427.5 "/>
<text text-anchor="middle" x="135.5" y="-415.5" font-family="Helvetica,sans-Serif" font-size="10.00"> </text>
</a>
</g>
</g>
<!-- Node2&#45;&gt;Node6 -->
<g id="edge6" class="edge">
<title>Node2&#45;&gt;Node6</title>
<path fill="none" stroke="#404040" d="M91.17,-579.5C97.17,-564.07 103.56,-547.62 109.58,-532.16"/>
<polygon fill="none" stroke="#404040" points="109.74,-531.75 108.18,-524.7 114.09,-520.56 115.64,-527.6 109.74,-531.75"/>
<text text-anchor="middle" x="114.5" y="-553" font-family="Helvetica,sans-Serif" font-size="10.00"> +wb</text>
</g>
<!-- Node3 -->
<g id="node3" class="node">
<title>Node3</title>
<g id="a_node3"><a xlink:href="uniongsw__simple__message.html" target="_top" xlink:title="union type that is used to store data in shared memory">
<polygon fill="none" stroke="black" points="9,-783.5 9,-950.5 122,-950.5 122,-783.5 9,-783.5"/>
<text text-anchor="middle" x="65.5" y="-938.5" font-family="Helvetica,sans-Serif" font-size="10.00">gsw_simple_message</text>
<polyline fill="none" stroke="black" points="9,-931.5 122,-931.5 "/>
<text text-anchor="start" x="17" y="-919.5" font-family="Helvetica,sans-Serif" font-size="10.00">+ ulonglong</text>
<text text-anchor="start" x="17" y="-908.5" font-family="Helvetica,sans-Serif" font-size="10.00">+ slonglong</text>
<text text-anchor="start" x="17" y="-897.5" font-family="Helvetica,sans-Serif" font-size="10.00">+ ulong</text>
<text text-anchor="start" x="17" y="-886.5" font-family="Helvetica,sans-Serif" font-size="10.00">+ slong</text>
<text text-anchor="start" x="17" y="-875.5" font-family="Helvetica,sans-Serif" font-size="10.00">+ uint</text>
<text text-anchor="start" x="17" y="-864.5" font-family="Helvetica,sans-Serif" font-size="10.00">+ sint</text>
<text text-anchor="start" x="17" y="-853.5" font-family="Helvetica,sans-Serif" font-size="10.00">+ ushort</text>
<text text-anchor="start" x="17" y="-842.5" font-family="Helvetica,sans-Serif" font-size="10.00">+ sshort</text>
<text text-anchor="start" x="17" y="-831.5" font-family="Helvetica,sans-Serif" font-size="10.00">+ uchar</text>
<text text-anchor="start" x="17" y="-820.5" font-family="Helvetica,sans-Serif" font-size="10.00">+ schar</text>
<text text-anchor="start" x="17" y="-809.5" font-family="Helvetica,sans-Serif" font-size="10.00">and 65 more...</text>
<polyline fill="none" stroke="black" points="9,-802.5 122,-802.5 "/>
<text text-anchor="middle" x="65.5" y="-790.5" font-family="Helvetica,sans-Serif" font-size="10.00"> </text>
</a>
</g>
</g>
<!-- Node3&#45;&gt;Node2 -->
<g id="edge2" class="edge">
<title>Node3&#45;&gt;Node2</title>
<path fill="none" stroke="#404040" d="M65.5,-783.39C65.5,-764.46 65.5,-744.39 65.5,-725.65"/>
<polygon fill="none" stroke="#404040" points="65.5,-725.55 61.5,-719.55 65.5,-713.55 69.5,-719.55 65.5,-725.55"/>
<text text-anchor="middle" x="92.5" y="-757" font-family="Helvetica,sans-Serif" font-size="10.00"> +hashes</text>
<text text-anchor="middle" x="92.5" y="-746" font-family="Helvetica,sans-Serif" font-size="10.00">+messages</text>
<text text-anchor="middle" x="92.5" y="-735" font-family="Helvetica,sans-Serif" font-size="10.00">+typenames</text>
</g>
<!-- Node4 -->
<g id="node4" class="node">
<title>Node4</title>
<g id="a_node4"><a xlink:href="class_w_b_functor_base.html" target="_top" xlink:title="Base class for WBFunctor.">
<polygon fill="none" stroke="black" points="272,-397.5 272,-531.5 399,-531.5 399,-397.5 272,-397.5"/>
<text text-anchor="middle" x="335.5" y="-519.5" font-family="Helvetica,sans-Serif" font-size="10.00">WBFunctorBase</text>
<polyline fill="none" stroke="black" points="272,-512.5 399,-512.5 "/>
<text text-anchor="middle" x="335.5" y="-500.5" font-family="Helvetica,sans-Serif" font-size="10.00"> </text>
<polyline fill="none" stroke="black" points="272,-493.5 399,-493.5 "/>
<text text-anchor="start" x="280" y="-481.5" font-family="Helvetica,sans-Serif" font-size="10.00">+ call()</text>
<text text-anchor="start" x="280" y="-470.5" font-family="Helvetica,sans-Serif" font-size="10.00">+ call()</text>
<text text-anchor="start" x="280" y="-459.5" font-family="Helvetica,sans-Serif" font-size="10.00">+ call()</text>
<text text-anchor="start" x="280" y="-448.5" font-family="Helvetica,sans-Serif" font-size="10.00">+ type()</text>
<text text-anchor="start" x="280" y="-437.5" font-family="Helvetica,sans-Serif" font-size="10.00">+ get_event_count()</text>
<text text-anchor="start" x="280" y="-426.5" font-family="Helvetica,sans-Serif" font-size="10.00">+ set_event_count()</text>
<text text-anchor="start" x="280" y="-415.5" font-family="Helvetica,sans-Serif" font-size="10.00">+ is_simple_wb_version()</text>
<text text-anchor="start" x="280" y="-404.5" font-family="Helvetica,sans-Serif" font-size="10.00">+ ~WBFunctorBase()</text>
</a>
</g>
</g>
<!-- Node4&#45;&gt;Node1 -->
<g id="edge3" class="edge">
<title>Node4&#45;&gt;Node1</title>
<path fill="none" stroke="#404040" d="M281.46,-397.23C271.71,-382.42 262.69,-366.27 256.5,-350 241.35,-310.18 231.09,-198.3 225.78,-125.02"/>
<polygon fill="none" stroke="#404040" points="225.76,-124.68 221.34,-118.98 224.91,-112.71 229.32,-118.41 225.76,-124.68"/>
<text text-anchor="middle" x="262.5" y="-252.5" font-family="Helvetica,sans-Serif" font-size="10.00"> +f</text>
</g>
<!-- Node7 -->
<g id="node7" class="node">
<title>Node7</title>
<g id="a_node7"><a xlink:href="structgu_whiteboard_1_1_whiteboard_1_1callback__descr.html" target="_top" xlink:title=" ">
<polygon fill="none" stroke="black" points="278,-215.5 278,-294.5 407,-294.5 407,-215.5 278,-215.5"/>
<text text-anchor="start" x="286" y="-282.5" font-family="Helvetica,sans-Serif" font-size="10.00">guWhiteboard::Whiteboard</text>
<text text-anchor="middle" x="342.5" y="-271.5" font-family="Helvetica,sans-Serif" font-size="10.00">::callback_descr</text>
<polyline fill="none" stroke="black" points="278,-264.5 407,-264.5 "/>
<text text-anchor="start" x="286" y="-252.5" font-family="Helvetica,sans-Serif" font-size="10.00">+ type</text>
<text text-anchor="start" x="286" y="-241.5" font-family="Helvetica,sans-Serif" font-size="10.00">+ current</text>
<polyline fill="none" stroke="black" points="278,-234.5 407,-234.5 "/>
<text text-anchor="start" x="286" y="-222.5" font-family="Helvetica,sans-Serif" font-size="10.00">+ callback_descr()</text>
</a>
</g>
</g>
<!-- Node4&#45;&gt;Node7 -->
<g id="edge9" class="edge">
<title>Node4&#45;&gt;Node7</title>
<path fill="none" stroke="#404040" d="M337.73,-397.28C338.72,-367.96 339.87,-334.03 340.79,-306.77"/>
<polygon fill="none" stroke="#404040" points="340.79,-306.75 336.99,-300.61 341.19,-294.75 344.99,-300.88 340.79,-306.75"/>
<text text-anchor="middle" x="352.5" y="-371" font-family="Helvetica,sans-Serif" font-size="10.00"> +func</text>
</g>
<!-- Node5 -->
<g id="node5" class="node">
<title>Node5</title>
<g id="a_node5"><a xlink:href="classgu_whiteboard_1_1_whiteboard.html" target="_top" xlink:title="compatibility API for accessing the whiteboard">
<polygon fill="none" stroke="black" points="77.5,-160.5 77.5,-349.5 211.5,-349.5 211.5,-160.5 77.5,-160.5"/>
<text text-anchor="middle" x="144.5" y="-337.5" font-family="Helvetica,sans-Serif" font-size="10.00">guWhiteboard::Whiteboard</text>
<polyline fill="none" stroke="black" points="77.5,-330.5 211.5,-330.5 "/>
<text text-anchor="middle" x="144.5" y="-318.5" font-family="Helvetica,sans-Serif" font-size="10.00"> </text>
<polyline fill="none" stroke="black" points="77.5,-311.5 211.5,-311.5 "/>
<text text-anchor="start" x="85.5" y="-299.5" font-family="Helvetica,sans-Serif" font-size="10.00">+ Whiteboard()</text>
<text text-anchor="start" x="85.5" y="-288.5" font-family="Helvetica,sans-Serif" font-size="10.00">+ ~Whiteboard()</text>
<text text-anchor="start" x="85.5" y="-277.5" font-family="Helvetica,sans-Serif" font-size="10.00">+ addMessage()</text>
<text text-anchor="start" x="85.5" y="-266.5" font-family="Helvetica,sans-Serif" font-size="10.00">+ getMessage()</text>
<text text-anchor="start" x="85.5" y="-255.5" font-family="Helvetica,sans-Serif" font-size="10.00">+ subscriptionCallback()</text>
<text text-anchor="start" x="85.5" y="-244.5" font-family="Helvetica,sans-Serif" font-size="10.00">+ subscribeToMessage()</text>
<text text-anchor="start" x="85.5" y="-233.5" font-family="Helvetica,sans-Serif" font-size="10.00">+ unsubscribeToMessage()</text>
<text text-anchor="start" x="85.5" y="-222.5" font-family="Helvetica,sans-Serif" font-size="10.00">+ getTypeOffset()</text>
<text text-anchor="start" x="85.5" y="-211.5" font-family="Helvetica,sans-Serif" font-size="10.00">+ addMessage()</text>
<text text-anchor="start" x="85.5" y="-200.5" font-family="Helvetica,sans-Serif" font-size="10.00">+ getMessage()</text>
<text text-anchor="start" x="85.5" y="-189.5" font-family="Helvetica,sans-Serif" font-size="10.00">+ subscribeToMessage()</text>
<text text-anchor="start" x="85.5" y="-178.5" font-family="Helvetica,sans-Serif" font-size="10.00">+ unsubscribeToMessage()</text>
<text text-anchor="start" x="85.5" y="-167.5" font-family="Helvetica,sans-Serif" font-size="10.00">+ getWBMsg()</text>
</a>
</g>
</g>
<!-- Node5&#45;&gt;Node1 -->
<g id="edge4" class="edge">
<title>Node5&#45;&gt;Node1</title>
<path fill="none" stroke="#404040" d="M181.2,-160.35C185.99,-148.12 190.82,-135.79 195.39,-124.13"/>
<polygon fill="none" stroke="#404040" points="195.48,-123.89 193.95,-116.85 199.86,-112.72 201.4,-119.76 195.48,-123.89"/>
<text text-anchor="middle" x="205" y="-134" font-family="Helvetica,sans-Serif" font-size="10.00"> +self</text>
</g>
<!-- Node6&#45;&gt;Node5 -->
<g id="edge5" class="edge">
<title>Node6&#45;&gt;Node5</title>
<path fill="none" stroke="#404040" d="M137.89,-408.44C138.51,-394.09 139.2,-378.13 139.9,-362.09"/>
<polygon fill="none" stroke="#404040" points="139.91,-361.83 136.17,-355.67 140.43,-349.84 144.17,-356.01 139.91,-361.83"/>
<text text-anchor="middle" x="155.5" y="-371" font-family="Helvetica,sans-Serif" font-size="10.00"> +_wbd</text>
</g>
<!-- Node6&#45;&gt;Node6 -->
<g id="edge7" class="edge">
<title>Node6&#45;&gt;Node6</title>
<path fill="none" stroke="#404040" d="M184.58,-480.83C194.99,-479.17 202.5,-473.73 202.5,-464.5 202.5,-459.16 199.99,-455.09 195.86,-452.29"/>
<polygon fill="none" stroke="#404040" points="195.85,-452.29 188.84,-453.99 184.58,-448.17 191.59,-446.47 195.85,-452.29"/>
<text text-anchor="middle" x="225" y="-462" font-family="Helvetica,sans-Serif" font-size="10.00"> +callback</text>
</g>
<!-- Node7&#45;&gt;Node1 -->
<g id="edge8" class="edge">
<title>Node7&#45;&gt;Node1</title>
<path fill="none" stroke="#404040" d="M318.59,-215.18C302.45,-188.96 280.74,-153.71 261.95,-123.19"/>
<polygon fill="none" stroke="#404040" points="261.73,-122.83 255.17,-119.81 255.43,-112.61 261.99,-115.62 261.73,-122.83"/>
<text text-anchor="middle" x="288" y="-134" font-family="Helvetica,sans-Serif" font-size="10.00"> +descr</text>
</g>
</g>
</svg>
