<?xml version="1.0" encoding="UTF-8" standalone="no"?>
<!DOCTYPE svg PUBLIC "-//W3C//DTD SVG 1.1//EN"
 "http://www.w3.org/Graphics/SVG/1.1/DTD/svg11.dtd">
<!-- Generated by graphviz version 2.49.0 (20210830.1337)
 -->
<!-- Title: wb_top_particles Pages: 1 -->
<svg width="113pt" height="298pt"
 viewBox="0.00 0.00 113.00 298.00" xmlns="http://www.w3.org/2000/svg" xmlns:xlink="http://www.w3.org/1999/xlink">
<g id="graph0" class="graph" transform="scale(1 1) rotate(0) translate(4 294)">
<title>wb_top_particles</title>
<!-- Node1 -->
<g id="node1" class="node">
<title>Node1</title>
<g id="a_node1"><a xlink:title="The class of the top particles in a Localization Filter.">
<polygon fill="#bfbfbf" stroke="black" points="7.5,-0.5 7.5,-57.5 97.5,-57.5 97.5,-0.5 7.5,-0.5"/>
<text text-anchor="middle" x="52.5" y="-45.5" font-family="Helvetica,sans-Serif" font-size="10.00">wb_top_particles</text>
<polyline fill="none" stroke="black" points="7.5,-38.5 97.5,-38.5 "/>
<text text-anchor="middle" x="52.5" y="-26.5" font-family="Helvetica,sans-Serif" font-size="10.00"> </text>
<polyline fill="none" stroke="black" points="7.5,-19.5 97.5,-19.5 "/>
<text text-anchor="middle" x="52.5" y="-7.5" font-family="Helvetica,sans-Serif" font-size="10.00"> </text>
</a>
</g>
</g>
<!-- Node2 -->
<g id="node2" class="node">
<title>Node2</title>
<g id="a_node2"><a xlink:href="structwb__particle__position.html" target="_top" xlink:title="WHITEBOARD_POSTER_STRING_CONVERSION.">
<polygon fill="none" stroke="black" points="0,-105.5 0,-173.5 105,-173.5 105,-105.5 0,-105.5"/>
<text text-anchor="middle" x="52.5" y="-161.5" font-family="Helvetica,sans-Serif" font-size="10.00">wb_particle_position</text>
<polyline fill="none" stroke="black" points="0,-154.5 105,-154.5 "/>
<text text-anchor="start" x="8" y="-142.5" font-family="Helvetica,sans-Serif" font-size="10.00">+ headingInDegrees</text>
<text text-anchor="start" x="8" y="-131.5" font-family="Helvetica,sans-Serif" font-size="10.00">+ confidence</text>
<polyline fill="none" stroke="black" points="0,-124.5 105,-124.5 "/>
<text text-anchor="middle" x="52.5" y="-112.5" font-family="Helvetica,sans-Serif" font-size="10.00"> </text>
</a>
</g>
</g>
<!-- Node2&#45;&gt;Node1 -->
<g id="edge1" class="edge">
<title>Node2&#45;&gt;Node1</title>
<path fill="none" stroke="#404040" d="M52.5,-105.36C52.5,-94.19 52.5,-81.61 52.5,-69.97"/>
<polygon fill="none" stroke="#404040" points="52.5,-69.83 48.5,-63.83 52.5,-57.83 56.5,-63.83 52.5,-69.83"/>
<text text-anchor="middle" x="75.5" y="-79" font-family="Helvetica,sans-Serif" font-size="10.00"> +particles</text>
</g>
<!-- Node3 -->
<g id="node3" class="node">
<title>Node3</title>
<g id="a_node3"><a xlink:href="structwb__point2d.html" target="_top" xlink:title="WHITEBOARD_POSTER_STRING_CONVERSION.">
<polygon fill="none" stroke="black" points="19.5,-221.5 19.5,-289.5 85.5,-289.5 85.5,-221.5 19.5,-221.5"/>
<text text-anchor="middle" x="52.5" y="-277.5" font-family="Helvetica,sans-Serif" font-size="10.00">wb_point2d</text>
<polyline fill="none" stroke="black" points="19.5,-270.5 85.5,-270.5 "/>
<text text-anchor="start" x="27.5" y="-258.5" font-family="Helvetica,sans-Serif" font-size="10.00">+ x</text>
<text text-anchor="start" x="27.5" y="-247.5" font-family="Helvetica,sans-Serif" font-size="10.00">+ y</text>
<polyline fill="none" stroke="black" points="19.5,-240.5 85.5,-240.5 "/>
<text text-anchor="middle" x="52.5" y="-228.5" font-family="Helvetica,sans-Serif" font-size="10.00"> </text>
</a>
</g>
</g>
<!-- Node3&#45;&gt;Node2 -->
<g id="edge2" class="edge">
<title>Node3&#45;&gt;Node2</title>
<path fill="none" stroke="#404040" d="M52.5,-221.22C52.5,-210.1 52.5,-197.51 52.5,-185.64"/>
<polygon fill="none" stroke="#404040" points="52.5,-185.62 48.5,-179.62 52.5,-173.62 56.5,-179.62 52.5,-185.62"/>
<text text-anchor="middle" x="74" y="-195" font-family="Helvetica,sans-Serif" font-size="10.00"> +position</text>
</g>
</g>
</svg>
