<?xml version="1.0" encoding="UTF-8" standalone="no"?>
<!DOCTYPE svg PUBLIC "-//W3C//DTD SVG 1.1//EN"
 "http://www.w3.org/Graphics/SVG/1.1/DTD/svg11.dtd">
<!-- Generated by graphviz version 2.49.0 (20210830.1337)
 -->
<!-- Title: wb_vision_field_features Pages: 1 -->
<svg width="145pt" height="353pt"
 viewBox="0.00 0.00 144.50 353.00" xmlns="http://www.w3.org/2000/svg" xmlns:xlink="http://www.w3.org/1999/xlink">
<g id="graph0" class="graph" transform="scale(1 1) rotate(0) translate(4 349)">
<title>wb_vision_field_features</title>
<!-- Node1 -->
<g id="node1" class="node">
<title>Node1</title>
<g id="a_node1"><a xlink:title="Posting by Vision of the field corners, T&#45;Intersections and crosses that have been seen.">
<polygon fill="#bfbfbf" stroke="black" points="0,-0.5 0,-101.5 123,-101.5 123,-0.5 0,-0.5"/>
<text text-anchor="middle" x="61.5" y="-89.5" font-family="Helvetica,sans-Serif" font-size="10.00">wb_vision_field_features</text>
<polyline fill="none" stroke="black" points="0,-82.5 123,-82.5 "/>
<text text-anchor="start" x="8" y="-70.5" font-family="Helvetica,sans-Serif" font-size="10.00">+ numCorners</text>
<text text-anchor="start" x="8" y="-59.5" font-family="Helvetica,sans-Serif" font-size="10.00">+ numIntersections</text>
<text text-anchor="start" x="8" y="-48.5" font-family="Helvetica,sans-Serif" font-size="10.00">+ numCrosses</text>
<text text-anchor="start" x="8" y="-37.5" font-family="Helvetica,sans-Serif" font-size="10.00">+ res_width</text>
<text text-anchor="start" x="8" y="-26.5" font-family="Helvetica,sans-Serif" font-size="10.00">+ res_height</text>
<polyline fill="none" stroke="black" points="0,-19.5 123,-19.5 "/>
<text text-anchor="middle" x="61.5" y="-7.5" font-family="Helvetica,sans-Serif" font-size="10.00"> </text>
</a>
</g>
</g>
<!-- Node2 -->
<g id="node2" class="node">
<title>Node2</title>
<g id="a_node2"><a xlink:href="structwb__vision__field__feature.html" target="_top" xlink:title="WHITEBOARD_POSTER_STRING_CONVERSION.">
<polygon fill="none" stroke="black" points="2.5,-171.5 2.5,-228.5 120.5,-228.5 120.5,-171.5 2.5,-171.5"/>
<text text-anchor="middle" x="61.5" y="-216.5" font-family="Helvetica,sans-Serif" font-size="10.00">wb_vision_field_feature</text>
<polyline fill="none" stroke="black" points="2.5,-209.5 120.5,-209.5 "/>
<text text-anchor="start" x="10.5" y="-197.5" font-family="Helvetica,sans-Serif" font-size="10.00">+ camera</text>
<polyline fill="none" stroke="black" points="2.5,-190.5 120.5,-190.5 "/>
<text text-anchor="middle" x="61.5" y="-178.5" font-family="Helvetica,sans-Serif" font-size="10.00"> </text>
</a>
</g>
</g>
<!-- Node2&#45;&gt;Node1 -->
<g id="edge1" class="edge">
<title>Node2&#45;&gt;Node1</title>
<path fill="none" stroke="#404040" d="M61.5,-171.35C61.5,-155.1 61.5,-133.86 61.5,-113.82"/>
<polygon fill="none" stroke="#404040" points="61.5,-113.54 57.5,-107.54 61.5,-101.54 65.5,-107.54 61.5,-113.54"/>
<text text-anchor="middle" x="99" y="-145" font-family="Helvetica,sans-Serif" font-size="10.00"> +fieldCorner</text>
<text text-anchor="middle" x="99" y="-134" font-family="Helvetica,sans-Serif" font-size="10.00">+fieldCrosses</text>
<text text-anchor="middle" x="99" y="-123" font-family="Helvetica,sans-Serif" font-size="10.00">+fieldIntersection</text>
</g>
<!-- Node3 -->
<g id="node3" class="node">
<title>Node3</title>
<g id="a_node3"><a xlink:href="structwb__pixel__coordinate.html" target="_top" xlink:title="WHITEBOARD_POSTER_STRING_CONVERSION.">
<polygon fill="none" stroke="black" points="9.5,-276.5 9.5,-344.5 113.5,-344.5 113.5,-276.5 9.5,-276.5"/>
<text text-anchor="middle" x="61.5" y="-332.5" font-family="Helvetica,sans-Serif" font-size="10.00">wb_pixel_coordinate</text>
<polyline fill="none" stroke="black" points="9.5,-325.5 113.5,-325.5 "/>
<text text-anchor="start" x="17.5" y="-313.5" font-family="Helvetica,sans-Serif" font-size="10.00">+ x</text>
<text text-anchor="start" x="17.5" y="-302.5" font-family="Helvetica,sans-Serif" font-size="10.00">+ y</text>
<polyline fill="none" stroke="black" points="9.5,-295.5 113.5,-295.5 "/>
<text text-anchor="middle" x="61.5" y="-283.5" font-family="Helvetica,sans-Serif" font-size="10.00"> </text>
</a>
</g>
</g>
<!-- Node3&#45;&gt;Node2 -->
<g id="edge2" class="edge">
<title>Node3&#45;&gt;Node2</title>
<path fill="none" stroke="#404040" d="M61.5,-276.36C61.5,-265.19 61.5,-252.61 61.5,-240.97"/>
<polygon fill="none" stroke="#404040" points="61.5,-240.83 57.5,-234.83 61.5,-228.83 65.5,-234.83 61.5,-240.83"/>
<text text-anchor="middle" x="88.5" y="-250" font-family="Helvetica,sans-Serif" font-size="10.00"> +coordinate</text>
</g>
</g>
</svg>
