<?xml version="1.0" encoding="UTF-8" standalone="no"?>
<!DOCTYPE svg PUBLIC "-//W3C//DTD SVG 1.1//EN"
 "http://www.w3.org/Graphics/SVG/1.1/DTD/svg11.dtd">
<!-- Generated by graphviz version 2.49.0 (20210830.1337)
 -->
<!-- Title: wb_pixel_coordinate_line Pages: 1 -->
<svg width="133pt" height="193pt"
 viewBox="0.00 0.00 133.00 193.00" xmlns="http://www.w3.org/2000/svg" xmlns:xlink="http://www.w3.org/1999/xlink">
<g id="graph0" class="graph" transform="scale(1 1) rotate(0) translate(4 189)">
<title>wb_pixel_coordinate_line</title>
<!-- Node1 -->
<g id="node1" class="node">
<title>Node1</title>
<g id="a_node1"><a xlink:title="WHITEBOARD_POSTER_STRING_CONVERSION.">
<polygon fill="#bfbfbf" stroke="black" points="0,-0.5 0,-57.5 125,-57.5 125,-0.5 0,-0.5"/>
<text text-anchor="middle" x="62.5" y="-45.5" font-family="Helvetica,sans-Serif" font-size="10.00">wb_pixel_coordinate_line</text>
<polyline fill="none" stroke="black" points="0,-38.5 125,-38.5 "/>
<text text-anchor="middle" x="62.5" y="-26.5" font-family="Helvetica,sans-Serif" font-size="10.00"> </text>
<polyline fill="none" stroke="black" points="0,-19.5 125,-19.5 "/>
<text text-anchor="middle" x="62.5" y="-7.5" font-family="Helvetica,sans-Serif" font-size="10.00"> </text>
</a>
</g>
</g>
<!-- Node2 -->
<g id="node2" class="node">
<title>Node2</title>
<g id="a_node2"><a xlink:href="structwb__pixel__coordinate.html" target="_top" xlink:title="WHITEBOARD_POSTER_STRING_CONVERSION.">
<polygon fill="none" stroke="black" points="10.5,-116.5 10.5,-184.5 114.5,-184.5 114.5,-116.5 10.5,-116.5"/>
<text text-anchor="middle" x="62.5" y="-172.5" font-family="Helvetica,sans-Serif" font-size="10.00">wb_pixel_coordinate</text>
<polyline fill="none" stroke="black" points="10.5,-165.5 114.5,-165.5 "/>
<text text-anchor="start" x="18.5" y="-153.5" font-family="Helvetica,sans-Serif" font-size="10.00">+ x</text>
<text text-anchor="start" x="18.5" y="-142.5" font-family="Helvetica,sans-Serif" font-size="10.00">+ y</text>
<polyline fill="none" stroke="black" points="10.5,-135.5 114.5,-135.5 "/>
<text text-anchor="middle" x="62.5" y="-123.5" font-family="Helvetica,sans-Serif" font-size="10.00"> </text>
</a>
</g>
</g>
<!-- Node2&#45;&gt;Node1 -->
<g id="edge1" class="edge">
<title>Node2&#45;&gt;Node1</title>
<path fill="none" stroke="#404040" d="M62.5,-116.21C62.5,-101.86 62.5,-84.96 62.5,-69.94"/>
<polygon fill="none" stroke="#404040" points="62.5,-69.86 58.5,-63.86 62.5,-57.86 66.5,-63.86 62.5,-69.86"/>
<text text-anchor="middle" x="75.5" y="-90" font-family="Helvetica,sans-Serif" font-size="10.00"> +end</text>
<text text-anchor="middle" x="75.5" y="-79" font-family="Helvetica,sans-Serif" font-size="10.00">+start</text>
</g>
</g>
</svg>
