<?xml version="1.0" encoding="UTF-8" standalone="no"?>
<!DOCTYPE svg PUBLIC "-//W3C//DTD SVG 1.1//EN"
 "http://www.w3.org/Graphics/SVG/1.1/DTD/svg11.dtd">
<!-- Generated by graphviz version 2.49.0 (20210830.1337)
 -->
<!-- Title: wb_toto_doing_motion Pages: 1 -->
<svg width="162pt" height="193pt"
 viewBox="0.00 0.00 162.00 193.00" xmlns="http://www.w3.org/2000/svg" xmlns:xlink="http://www.w3.org/1999/xlink">
<g id="graph0" class="graph" transform="scale(1 1) rotate(0) translate(4 189)">
<title>wb_toto_doing_motion</title>
<!-- Node1 -->
<g id="node1" class="node">
<title>Node1</title>
<g id="a_node1"><a xlink:title=" ">
<polygon fill="#bfbfbf" stroke="black" points="20,-127.5 20,-184.5 134,-184.5 134,-127.5 20,-127.5"/>
<text text-anchor="middle" x="77" y="-172.5" font-family="Helvetica,sans-Serif" font-size="10.00">wb_toto_doing_motion</text>
<polyline fill="none" stroke="black" points="20,-165.5 134,-165.5 "/>
<text text-anchor="middle" x="77" y="-153.5" font-family="Helvetica,sans-Serif" font-size="10.00"> </text>
<polyline fill="none" stroke="black" points="20,-146.5 134,-146.5 "/>
<text text-anchor="middle" x="77" y="-134.5" font-family="Helvetica,sans-Serif" font-size="10.00"> </text>
</a>
</g>
</g>
<!-- Node2 -->
<g id="node2" class="node">
<title>Node2</title>
<g id="a_node2"><a xlink:href="classgu_whiteboard_1_1_toto_doing_motion.html" target="_top" xlink:title="TOTO motion of what is doing.">
<polygon fill="none" stroke="black" points="0,-0.5 0,-90.5 154,-90.5 154,-0.5 0,-0.5"/>
<text text-anchor="middle" x="77" y="-78.5" font-family="Helvetica,sans-Serif" font-size="10.00">guWhiteboard::TotoDoingMotion</text>
<polyline fill="none" stroke="black" points="0,-71.5 154,-71.5 "/>
<text text-anchor="middle" x="77" y="-59.5" font-family="Helvetica,sans-Serif" font-size="10.00"> </text>
<polyline fill="none" stroke="black" points="0,-52.5 154,-52.5 "/>
<text text-anchor="start" x="8" y="-40.5" font-family="Helvetica,sans-Serif" font-size="10.00">+ TotoDoingMotion()</text>
<text text-anchor="start" x="8" y="-29.5" font-family="Helvetica,sans-Serif" font-size="10.00">+ TotoDoingMotion()</text>
<text text-anchor="start" x="8" y="-18.5" font-family="Helvetica,sans-Serif" font-size="10.00">+ description()</text>
<text text-anchor="start" x="8" y="-7.5" font-family="Helvetica,sans-Serif" font-size="10.00">+ from_string()</text>
</a>
</g>
</g>
<!-- Node1&#45;&gt;Node2 -->
<g id="edge1" class="edge">
<title>Node1&#45;&gt;Node2</title>
<path fill="none" stroke="midnightblue" d="M77,-117.21C77,-108.61 77,-99.39 77,-90.55"/>
<polygon fill="none" stroke="midnightblue" points="73.5,-117.34 77,-127.34 80.5,-117.34 73.5,-117.34"/>
</g>
</g>
</svg>
