<?xml version="1.0" encoding="UTF-8" standalone="no"?>
<!DOCTYPE svg PUBLIC "-//W3C//DTD SVG 1.1//EN"
 "http://www.w3.org/Graphics/SVG/1.1/DTD/svg11.dtd">
<!-- Generated by graphviz version 2.49.0 (20210830.1337)
 -->
<!-- Title: wb_vision_detection_horizon Pages: 1 -->
<svg width="143pt" height="215pt"
 viewBox="0.00 0.00 142.50 215.00" xmlns="http://www.w3.org/2000/svg" xmlns:xlink="http://www.w3.org/1999/xlink">
<g id="graph0" class="graph" transform="scale(1 1) rotate(0) translate(4 211)">
<title>wb_vision_detection_horizon</title>
<!-- Node1 -->
<g id="node1" class="node">
<title>Node1</title>
<g id="a_node1"><a xlink:title="WHITEBOARD_POSTER_STRING_CONVERSION.">
<polygon fill="#bfbfbf" stroke="black" points="0,-0.5 0,-68.5 105,-68.5 105,-0.5 0,-0.5"/>
<text text-anchor="start" x="8" y="-56.5" font-family="Helvetica,sans-Serif" font-size="10.00">wb_vision_detection</text>
<text text-anchor="middle" x="52.5" y="-45.5" font-family="Helvetica,sans-Serif" font-size="10.00">_horizon</text>
<polyline fill="none" stroke="black" points="0,-38.5 105,-38.5 "/>
<text text-anchor="start" x="8" y="-26.5" font-family="Helvetica,sans-Serif" font-size="10.00">+ horizonType</text>
<polyline fill="none" stroke="black" points="0,-19.5 105,-19.5 "/>
<text text-anchor="middle" x="52.5" y="-7.5" font-family="Helvetica,sans-Serif" font-size="10.00"> </text>
</a>
</g>
</g>
<!-- Node2 -->
<g id="node2" class="node">
<title>Node2</title>
<g id="a_node2"><a xlink:href="structwb__pixel__coordinate.html" target="_top" xlink:title="WHITEBOARD_POSTER_STRING_CONVERSION.">
<polygon fill="none" stroke="black" points="0.5,-138.5 0.5,-206.5 104.5,-206.5 104.5,-138.5 0.5,-138.5"/>
<text text-anchor="middle" x="52.5" y="-194.5" font-family="Helvetica,sans-Serif" font-size="10.00">wb_pixel_coordinate</text>
<polyline fill="none" stroke="black" points="0.5,-187.5 104.5,-187.5 "/>
<text text-anchor="start" x="8.5" y="-175.5" font-family="Helvetica,sans-Serif" font-size="10.00">+ x</text>
<text text-anchor="start" x="8.5" y="-164.5" font-family="Helvetica,sans-Serif" font-size="10.00">+ y</text>
<polyline fill="none" stroke="black" points="0.5,-157.5 104.5,-157.5 "/>
<text text-anchor="middle" x="52.5" y="-145.5" font-family="Helvetica,sans-Serif" font-size="10.00"> </text>
</a>
</g>
</g>
<!-- Node2&#45;&gt;Node1 -->
<g id="edge1" class="edge">
<title>Node2&#45;&gt;Node1</title>
<path fill="none" stroke="#404040" d="M52.5,-138.23C52.5,-121.02 52.5,-99.76 52.5,-81.06"/>
<polygon fill="none" stroke="#404040" points="52.5,-80.9 48.5,-74.9 52.5,-68.9 56.5,-74.9 52.5,-80.9"/>
<text text-anchor="middle" x="93.5" y="-112" font-family="Helvetica,sans-Serif" font-size="10.00"> +centerCoordinate</text>
<text text-anchor="middle" x="93.5" y="-101" font-family="Helvetica,sans-Serif" font-size="10.00">+leftCoordinate</text>
<text text-anchor="middle" x="93.5" y="-90" font-family="Helvetica,sans-Serif" font-size="10.00">+rightCoordinate</text>
</g>
</g>
</svg>
