<?xml version="1.0" encoding="UTF-8" standalone="no"?>
<!DOCTYPE svg PUBLIC "-//W3C//DTD SVG 1.1//EN"
 "http://www.w3.org/Graphics/SVG/1.1/DTD/svg11.dtd">
<!-- Generated by graphviz version 2.49.0 (20210830.1337)
 -->
<!-- Title: wb_vision_line Pages: 1 -->
<svg width="148pt" height="309pt"
 viewBox="0.00 0.00 147.50 309.00" xmlns="http://www.w3.org/2000/svg" xmlns:xlink="http://www.w3.org/1999/xlink">
<g id="graph0" class="graph" transform="scale(1 1) rotate(0) translate(4 305)">
<title>wb_vision_line</title>
<!-- Node1 -->
<g id="node1" class="node">
<title>Node1</title>
<g id="a_node1"><a xlink:title="WHITEBOARD_POSTER_STRING_CONVERSION.">
<polygon fill="#bfbfbf" stroke="black" points="22.5,-0.5 22.5,-57.5 102.5,-57.5 102.5,-0.5 22.5,-0.5"/>
<text text-anchor="middle" x="62.5" y="-45.5" font-family="Helvetica,sans-Serif" font-size="10.00">wb_vision_line</text>
<polyline fill="none" stroke="black" points="22.5,-38.5 102.5,-38.5 "/>
<text text-anchor="middle" x="62.5" y="-26.5" font-family="Helvetica,sans-Serif" font-size="10.00"> </text>
<polyline fill="none" stroke="black" points="22.5,-19.5 102.5,-19.5 "/>
<text text-anchor="middle" x="62.5" y="-7.5" font-family="Helvetica,sans-Serif" font-size="10.00"> </text>
</a>
</g>
</g>
<!-- Node2 -->
<g id="node2" class="node">
<title>Node2</title>
<g id="a_node2"><a xlink:href="structwb__pixel__coordinate__line.html" target="_top" xlink:title="WHITEBOARD_POSTER_STRING_CONVERSION.">
<polygon fill="none" stroke="black" points="0,-116.5 0,-173.5 125,-173.5 125,-116.5 0,-116.5"/>
<text text-anchor="middle" x="62.5" y="-161.5" font-family="Helvetica,sans-Serif" font-size="10.00">wb_pixel_coordinate_line</text>
<polyline fill="none" stroke="black" points="0,-154.5 125,-154.5 "/>
<text text-anchor="middle" x="62.5" y="-142.5" font-family="Helvetica,sans-Serif" font-size="10.00"> </text>
<polyline fill="none" stroke="black" points="0,-135.5 125,-135.5 "/>
<text text-anchor="middle" x="62.5" y="-123.5" font-family="Helvetica,sans-Serif" font-size="10.00"> </text>
</a>
</g>
</g>
<!-- Node2&#45;&gt;Node1 -->
<g id="edge1" class="edge">
<title>Node2&#45;&gt;Node1</title>
<path fill="none" stroke="#404040" d="M62.5,-116.4C62.5,-102.5 62.5,-85.39 62.5,-70.07"/>
<polygon fill="none" stroke="#404040" points="62.5,-69.74 58.5,-63.74 62.5,-57.74 66.5,-63.74 62.5,-69.74"/>
<text text-anchor="middle" x="101" y="-90" font-family="Helvetica,sans-Serif" font-size="10.00"> +lineEdgeBottom</text>
<text text-anchor="middle" x="101" y="-79" font-family="Helvetica,sans-Serif" font-size="10.00">+lineEdgeTop</text>
</g>
<!-- Node3 -->
<g id="node3" class="node">
<title>Node3</title>
<g id="a_node3"><a xlink:href="structwb__pixel__coordinate.html" target="_top" xlink:title="WHITEBOARD_POSTER_STRING_CONVERSION.">
<polygon fill="none" stroke="black" points="10.5,-232.5 10.5,-300.5 114.5,-300.5 114.5,-232.5 10.5,-232.5"/>
<text text-anchor="middle" x="62.5" y="-288.5" font-family="Helvetica,sans-Serif" font-size="10.00">wb_pixel_coordinate</text>
<polyline fill="none" stroke="black" points="10.5,-281.5 114.5,-281.5 "/>
<text text-anchor="start" x="18.5" y="-269.5" font-family="Helvetica,sans-Serif" font-size="10.00">+ x</text>
<text text-anchor="start" x="18.5" y="-258.5" font-family="Helvetica,sans-Serif" font-size="10.00">+ y</text>
<polyline fill="none" stroke="black" points="10.5,-251.5 114.5,-251.5 "/>
<text text-anchor="middle" x="62.5" y="-239.5" font-family="Helvetica,sans-Serif" font-size="10.00"> </text>
</a>
</g>
</g>
<!-- Node3&#45;&gt;Node2 -->
<g id="edge2" class="edge">
<title>Node3&#45;&gt;Node2</title>
<path fill="none" stroke="#404040" d="M62.5,-232.21C62.5,-217.86 62.5,-200.96 62.5,-185.94"/>
<polygon fill="none" stroke="#404040" points="62.5,-185.86 58.5,-179.86 62.5,-173.86 66.5,-179.86 62.5,-185.86"/>
<text text-anchor="middle" x="75.5" y="-206" font-family="Helvetica,sans-Serif" font-size="10.00"> +end</text>
<text text-anchor="middle" x="75.5" y="-195" font-family="Helvetica,sans-Serif" font-size="10.00">+start</text>
</g>
</g>
</svg>
