<?xml version="1.0" encoding="UTF-8" standalone="no"?>
<!DOCTYPE svg PUBLIC "-//W3C//DTD SVG 1.1//EN"
 "http://www.w3.org/Graphics/SVG/1.1/DTD/svg11.dtd">
<!-- Generated by graphviz version 2.49.0 (20210830.1337)
 -->
<!-- Title: wb_frequency_limits Pages: 1 -->
<svg width="160pt" height="281pt"
 viewBox="0.00 0.00 160.00 281.00" xmlns="http://www.w3.org/2000/svg" xmlns:xlink="http://www.w3.org/1999/xlink">
<g id="graph0" class="graph" transform="scale(1 1) rotate(0) translate(4 277)">
<title>wb_frequency_limits</title>
<!-- Node1 -->
<g id="node1" class="node">
<title>Node1</title>
<g id="a_node1"><a xlink:title="WHITEBOARD_POSTER_STRING_CONVERSION.">
<polygon fill="#bfbfbf" stroke="black" points="23.5,-204.5 23.5,-272.5 128.5,-272.5 128.5,-204.5 23.5,-204.5"/>
<text text-anchor="middle" x="76" y="-260.5" font-family="Helvetica,sans-Serif" font-size="10.00">wb_frequency_limits</text>
<polyline fill="none" stroke="black" points="23.5,-253.5 128.5,-253.5 "/>
<text text-anchor="start" x="31.5" y="-241.5" font-family="Helvetica,sans-Serif" font-size="10.00">+ lo_freq</text>
<text text-anchor="start" x="31.5" y="-230.5" font-family="Helvetica,sans-Serif" font-size="10.00">+ hi_freq</text>
<polyline fill="none" stroke="black" points="23.5,-223.5 128.5,-223.5 "/>
<text text-anchor="middle" x="76" y="-211.5" font-family="Helvetica,sans-Serif" font-size="10.00"> </text>
</a>
</g>
</g>
<!-- Node2 -->
<g id="node2" class="node">
<title>Node2</title>
<g id="a_node2"><a xlink:href="classgu_whiteboard_1_1_frequency_limits.html" target="_top" xlink:title="Provides a C++ wrapper around wb_frequency_limits.">
<polygon fill="none" stroke="black" points="0,-0.5 0,-167.5 152,-167.5 152,-0.5 0,-0.5"/>
<text text-anchor="middle" x="76" y="-155.5" font-family="Helvetica,sans-Serif" font-size="10.00">guWhiteboard::FrequencyLimits</text>
<polyline fill="none" stroke="black" points="0,-148.5 152,-148.5 "/>
<text text-anchor="middle" x="76" y="-136.5" font-family="Helvetica,sans-Serif" font-size="10.00"> </text>
<polyline fill="none" stroke="black" points="0,-129.5 152,-129.5 "/>
<text text-anchor="start" x="8" y="-117.5" font-family="Helvetica,sans-Serif" font-size="10.00">+ FrequencyLimits()</text>
<text text-anchor="start" x="8" y="-106.5" font-family="Helvetica,sans-Serif" font-size="10.00">+ FrequencyLimits()</text>
<text text-anchor="start" x="8" y="-95.5" font-family="Helvetica,sans-Serif" font-size="10.00">+ FrequencyLimits()</text>
<text text-anchor="start" x="8" y="-84.5" font-family="Helvetica,sans-Serif" font-size="10.00">+ operator=()</text>
<text text-anchor="start" x="8" y="-73.5" font-family="Helvetica,sans-Serif" font-size="10.00">+ operator=()</text>
<text text-anchor="start" x="8" y="-62.5" font-family="Helvetica,sans-Serif" font-size="10.00">+ operator==()</text>
<text text-anchor="start" x="8" y="-51.5" font-family="Helvetica,sans-Serif" font-size="10.00">+ operator!=()</text>
<text text-anchor="start" x="8" y="-40.5" font-family="Helvetica,sans-Serif" font-size="10.00">+ operator==()</text>
<text text-anchor="start" x="8" y="-29.5" font-family="Helvetica,sans-Serif" font-size="10.00">+ operator!=()</text>
<text text-anchor="start" x="8" y="-18.5" font-family="Helvetica,sans-Serif" font-size="10.00">+ lo_freq()</text>
<text text-anchor="start" x="8" y="-7.5" font-family="Helvetica,sans-Serif" font-size="10.00">and 9 more...</text>
</a>
</g>
</g>
<!-- Node1&#45;&gt;Node2 -->
<g id="edge1" class="edge">
<title>Node1&#45;&gt;Node2</title>
<path fill="none" stroke="midnightblue" d="M76,-194.23C76,-185.88 76,-176.89 76,-167.76"/>
<polygon fill="none" stroke="midnightblue" points="72.5,-194.41 76,-204.41 79.5,-194.41 72.5,-194.41"/>
</g>
</g>
</svg>
