<?xml version="1.0" encoding="UTF-8" standalone="no"?>
<!DOCTYPE svg PUBLIC "-//W3C//DTD SVG 1.1//EN"
 "http://www.w3.org/Graphics/SVG/1.1/DTD/svg11.dtd">
<!-- Generated by graphviz version 2.49.0 (20210830.1337)
 -->
<!-- Title: wb_vision_detection_goal Pages: 1 -->
<svg width="178pt" height="353pt"
 viewBox="0.00 0.00 178.00 353.00" xmlns="http://www.w3.org/2000/svg" xmlns:xlink="http://www.w3.org/1999/xlink">
<g id="graph0" class="graph" transform="scale(1 1) rotate(0) translate(4 349)">
<title>wb_vision_detection_goal</title>
<!-- Node1 -->
<g id="node1" class="node">
<title>Node1</title>
<g id="a_node1"><a xlink:title="WHITEBOARD_POSTER_STRING_CONVERSION.">
<polygon fill="#bfbfbf" stroke="black" points="0,-0.5 0,-57.5 128,-57.5 128,-0.5 0,-0.5"/>
<text text-anchor="middle" x="64" y="-45.5" font-family="Helvetica,sans-Serif" font-size="10.00">wb_vision_detection_goal</text>
<polyline fill="none" stroke="black" points="0,-38.5 128,-38.5 "/>
<text text-anchor="start" x="8" y="-26.5" font-family="Helvetica,sans-Serif" font-size="10.00">+ sightingType</text>
<polyline fill="none" stroke="black" points="0,-19.5 128,-19.5 "/>
<text text-anchor="middle" x="64" y="-7.5" font-family="Helvetica,sans-Serif" font-size="10.00"> </text>
</a>
</g>
</g>
<!-- Node2 -->
<g id="node2" class="node">
<title>Node2</title>
<g id="a_node2"><a xlink:href="structwb__vision__detection__goal__post.html" target="_top" xlink:title="WHITEBOARD_POSTER_STRING_CONVERSION.">
<polygon fill="none" stroke="black" points="11.5,-116.5 11.5,-195.5 116.5,-195.5 116.5,-116.5 11.5,-116.5"/>
<text text-anchor="start" x="19.5" y="-183.5" font-family="Helvetica,sans-Serif" font-size="10.00">wb_vision_detection</text>
<text text-anchor="middle" x="64" y="-172.5" font-family="Helvetica,sans-Serif" font-size="10.00">_goal_post</text>
<polyline fill="none" stroke="black" points="11.5,-165.5 116.5,-165.5 "/>
<text text-anchor="start" x="19.5" y="-153.5" font-family="Helvetica,sans-Serif" font-size="10.00">+ sightingType</text>
<text text-anchor="start" x="19.5" y="-142.5" font-family="Helvetica,sans-Serif" font-size="10.00">+ orientation</text>
<polyline fill="none" stroke="black" points="11.5,-135.5 116.5,-135.5 "/>
<text text-anchor="middle" x="64" y="-123.5" font-family="Helvetica,sans-Serif" font-size="10.00"> </text>
</a>
</g>
</g>
<!-- Node2&#45;&gt;Node1 -->
<g id="edge1" class="edge">
<title>Node2&#45;&gt;Node1</title>
<path fill="none" stroke="#404040" d="M64,-116.48C64,-101.83 64,-85.11 64,-70.3"/>
<polygon fill="none" stroke="#404040" points="64,-69.88 60,-63.88 64,-57.88 68,-63.88 64,-69.88"/>
<text text-anchor="middle" x="80.5" y="-90" font-family="Helvetica,sans-Serif" font-size="10.00"> +post1</text>
<text text-anchor="middle" x="80.5" y="-79" font-family="Helvetica,sans-Serif" font-size="10.00">+post2</text>
</g>
<!-- Node3 -->
<g id="node3" class="node">
<title>Node3</title>
<g id="a_node3"><a xlink:href="structwb__pixel__coordinate.html" target="_top" xlink:title="WHITEBOARD_POSTER_STRING_CONVERSION.">
<polygon fill="none" stroke="black" points="12,-276.5 12,-344.5 116,-344.5 116,-276.5 12,-276.5"/>
<text text-anchor="middle" x="64" y="-332.5" font-family="Helvetica,sans-Serif" font-size="10.00">wb_pixel_coordinate</text>
<polyline fill="none" stroke="black" points="12,-325.5 116,-325.5 "/>
<text text-anchor="start" x="20" y="-313.5" font-family="Helvetica,sans-Serif" font-size="10.00">+ x</text>
<text text-anchor="start" x="20" y="-302.5" font-family="Helvetica,sans-Serif" font-size="10.00">+ y</text>
<polyline fill="none" stroke="black" points="12,-295.5 116,-295.5 "/>
<text text-anchor="middle" x="64" y="-283.5" font-family="Helvetica,sans-Serif" font-size="10.00"> </text>
</a>
</g>
</g>
<!-- Node3&#45;&gt;Node2 -->
<g id="edge2" class="edge">
<title>Node3&#45;&gt;Node2</title>
<path fill="none" stroke="#404040" d="M64,-276.41C64,-256.38 64,-230.42 64,-207.83"/>
<polygon fill="none" stroke="#404040" points="64,-207.68 60,-201.68 64,-195.68 68,-201.68 64,-207.68"/>
<text text-anchor="middle" x="117" y="-250" font-family="Helvetica,sans-Serif" font-size="10.00"> +bottomLeftCoordinate</text>
<text text-anchor="middle" x="117" y="-239" font-family="Helvetica,sans-Serif" font-size="10.00">+bottomRightCoordinate</text>
<text text-anchor="middle" x="117" y="-228" font-family="Helvetica,sans-Serif" font-size="10.00">+topLeftCoordinate</text>
<text text-anchor="middle" x="117" y="-217" font-family="Helvetica,sans-Serif" font-size="10.00">+topRightCoordinate</text>
</g>
</g>
</svg>
