<?xml version="1.0" encoding="UTF-8" standalone="no"?>
<!DOCTYPE svg PUBLIC "-//W3C//DTD SVG 1.1//EN"
 "http://www.w3.org/Graphics/SVG/1.1/DTD/svg11.dtd">
<!-- Generated by graphviz version 2.49.0 (20210830.1337)
 -->
<!-- Title: wb_head_joint_sensors Pages: 1 -->
<svg width="169pt" height="281pt"
 viewBox="0.00 0.00 169.00 281.00" xmlns="http://www.w3.org/2000/svg" xmlns:xlink="http://www.w3.org/1999/xlink">
<g id="graph0" class="graph" transform="scale(1 1) rotate(0) translate(4 277)">
<title>wb_head_joint_sensors</title>
<!-- Node1 -->
<g id="node1" class="node">
<title>Node1</title>
<g id="a_node1"><a xlink:title="WHITEBOARD_POSTER_STRING_CONVERSION.">
<polygon fill="#bfbfbf" stroke="black" points="21,-204.5 21,-272.5 140,-272.5 140,-204.5 21,-204.5"/>
<text text-anchor="middle" x="80.5" y="-260.5" font-family="Helvetica,sans-Serif" font-size="10.00">wb_head_joint_sensors</text>
<polyline fill="none" stroke="black" points="21,-253.5 140,-253.5 "/>
<text text-anchor="start" x="29" y="-241.5" font-family="Helvetica,sans-Serif" font-size="10.00">+ headYaw</text>
<text text-anchor="start" x="29" y="-230.5" font-family="Helvetica,sans-Serif" font-size="10.00">+ headPitch</text>
<polyline fill="none" stroke="black" points="21,-223.5 140,-223.5 "/>
<text text-anchor="middle" x="80.5" y="-211.5" font-family="Helvetica,sans-Serif" font-size="10.00"> </text>
</a>
</g>
</g>
<!-- Node2 -->
<g id="node2" class="node">
<title>Node2</title>
<g id="a_node2"><a xlink:href="classgu_whiteboard_1_1_head_joint_sensors.html" target="_top" xlink:title="Provides a C++ wrapper around wb_head_joint_sensors.">
<polygon fill="none" stroke="black" points="0,-0.5 0,-167.5 161,-167.5 161,-0.5 0,-0.5"/>
<text text-anchor="middle" x="80.5" y="-155.5" font-family="Helvetica,sans-Serif" font-size="10.00">guWhiteboard::HeadJointSensors</text>
<polyline fill="none" stroke="black" points="0,-148.5 161,-148.5 "/>
<text text-anchor="middle" x="80.5" y="-136.5" font-family="Helvetica,sans-Serif" font-size="10.00"> </text>
<polyline fill="none" stroke="black" points="0,-129.5 161,-129.5 "/>
<text text-anchor="start" x="8" y="-117.5" font-family="Helvetica,sans-Serif" font-size="10.00">+ HeadJointSensors()</text>
<text text-anchor="start" x="8" y="-106.5" font-family="Helvetica,sans-Serif" font-size="10.00">+ HeadJointSensors()</text>
<text text-anchor="start" x="8" y="-95.5" font-family="Helvetica,sans-Serif" font-size="10.00">+ HeadJointSensors()</text>
<text text-anchor="start" x="8" y="-84.5" font-family="Helvetica,sans-Serif" font-size="10.00">+ operator=()</text>
<text text-anchor="start" x="8" y="-73.5" font-family="Helvetica,sans-Serif" font-size="10.00">+ operator=()</text>
<text text-anchor="start" x="8" y="-62.5" font-family="Helvetica,sans-Serif" font-size="10.00">+ operator==()</text>
<text text-anchor="start" x="8" y="-51.5" font-family="Helvetica,sans-Serif" font-size="10.00">+ operator!=()</text>
<text text-anchor="start" x="8" y="-40.5" font-family="Helvetica,sans-Serif" font-size="10.00">+ operator==()</text>
<text text-anchor="start" x="8" y="-29.5" font-family="Helvetica,sans-Serif" font-size="10.00">+ operator!=()</text>
<text text-anchor="start" x="8" y="-18.5" font-family="Helvetica,sans-Serif" font-size="10.00">+ headYaw()</text>
<text text-anchor="start" x="8" y="-7.5" font-family="Helvetica,sans-Serif" font-size="10.00">and 9 more...</text>
</a>
</g>
</g>
<!-- Node1&#45;&gt;Node2 -->
<g id="edge1" class="edge">
<title>Node1&#45;&gt;Node2</title>
<path fill="none" stroke="midnightblue" d="M80.5,-194.23C80.5,-185.88 80.5,-176.89 80.5,-167.76"/>
<polygon fill="none" stroke="midnightblue" points="77,-194.41 80.5,-204.41 84,-194.41 77,-194.41"/>
</g>
</g>
</svg>
