<?xml version="1.0" encoding="UTF-8" standalone="no"?>
<!DOCTYPE svg PUBLIC "-//W3C//DTD SVG 1.1//EN"
 "http://www.w3.org/Graphics/SVG/1.1/DTD/svg11.dtd">
<!-- Generated by graphviz version 2.49.0 (20210830.1337)
 -->
<!-- Title: wb_vision_detection_horizons Pages: 1 -->
<svg width="143pt" height="353pt"
 viewBox="0.00 0.00 142.50 353.00" xmlns="http://www.w3.org/2000/svg" xmlns:xlink="http://www.w3.org/1999/xlink">
<g id="graph0" class="graph" transform="scale(1 1) rotate(0) translate(4 349)">
<title>wb_vision_detection_horizons</title>
<!-- Node1 -->
<g id="node1" class="node">
<title>Node1</title>
<g id="a_node1"><a xlink:title="Array of fieldHorizons, one instance reported by each camera.">
<polygon fill="#bfbfbf" stroke="black" points="0,-0.5 0,-90.5 105,-90.5 105,-0.5 0,-0.5"/>
<text text-anchor="start" x="8" y="-78.5" font-family="Helvetica,sans-Serif" font-size="10.00">wb_vision_detection</text>
<text text-anchor="middle" x="52.5" y="-67.5" font-family="Helvetica,sans-Serif" font-size="10.00">_horizons</text>
<polyline fill="none" stroke="black" points="0,-60.5 105,-60.5 "/>
<text text-anchor="start" x="8" y="-48.5" font-family="Helvetica,sans-Serif" font-size="10.00">+ frameNumber</text>
<text text-anchor="start" x="8" y="-37.5" font-family="Helvetica,sans-Serif" font-size="10.00">+ res_width</text>
<text text-anchor="start" x="8" y="-26.5" font-family="Helvetica,sans-Serif" font-size="10.00">+ res_height</text>
<polyline fill="none" stroke="black" points="0,-19.5 105,-19.5 "/>
<text text-anchor="middle" x="52.5" y="-7.5" font-family="Helvetica,sans-Serif" font-size="10.00"> </text>
</a>
</g>
</g>
<!-- Node2 -->
<g id="node2" class="node">
<title>Node2</title>
<g id="a_node2"><a xlink:href="structwb__vision__detection__horizon.html" target="_top" xlink:title="WHITEBOARD_POSTER_STRING_CONVERSION.">
<polygon fill="none" stroke="black" points="0,-138.5 0,-206.5 105,-206.5 105,-138.5 0,-138.5"/>
<text text-anchor="start" x="8" y="-194.5" font-family="Helvetica,sans-Serif" font-size="10.00">wb_vision_detection</text>
<text text-anchor="middle" x="52.5" y="-183.5" font-family="Helvetica,sans-Serif" font-size="10.00">_horizon</text>
<polyline fill="none" stroke="black" points="0,-176.5 105,-176.5 "/>
<text text-anchor="start" x="8" y="-164.5" font-family="Helvetica,sans-Serif" font-size="10.00">+ horizonType</text>
<polyline fill="none" stroke="black" points="0,-157.5 105,-157.5 "/>
<text text-anchor="middle" x="52.5" y="-145.5" font-family="Helvetica,sans-Serif" font-size="10.00"> </text>
</a>
</g>
</g>
<!-- Node2&#45;&gt;Node1 -->
<g id="edge1" class="edge">
<title>Node2&#45;&gt;Node1</title>
<path fill="none" stroke="#404040" d="M52.5,-138.33C52.5,-127.37 52.5,-114.86 52.5,-102.67"/>
<polygon fill="none" stroke="#404040" points="52.5,-102.66 48.5,-96.66 52.5,-90.66 56.5,-96.66 52.5,-102.66"/>
<text text-anchor="middle" x="75" y="-112" font-family="Helvetica,sans-Serif" font-size="10.00"> +horizons</text>
</g>
<!-- Node3 -->
<g id="node3" class="node">
<title>Node3</title>
<g id="a_node3"><a xlink:href="structwb__pixel__coordinate.html" target="_top" xlink:title="WHITEBOARD_POSTER_STRING_CONVERSION.">
<polygon fill="none" stroke="black" points="0.5,-276.5 0.5,-344.5 104.5,-344.5 104.5,-276.5 0.5,-276.5"/>
<text text-anchor="middle" x="52.5" y="-332.5" font-family="Helvetica,sans-Serif" font-size="10.00">wb_pixel_coordinate</text>
<polyline fill="none" stroke="black" points="0.5,-325.5 104.5,-325.5 "/>
<text text-anchor="start" x="8.5" y="-313.5" font-family="Helvetica,sans-Serif" font-size="10.00">+ x</text>
<text text-anchor="start" x="8.5" y="-302.5" font-family="Helvetica,sans-Serif" font-size="10.00">+ y</text>
<polyline fill="none" stroke="black" points="0.5,-295.5 104.5,-295.5 "/>
<text text-anchor="middle" x="52.5" y="-283.5" font-family="Helvetica,sans-Serif" font-size="10.00"> </text>
</a>
</g>
</g>
<!-- Node3&#45;&gt;Node2 -->
<g id="edge2" class="edge">
<title>Node3&#45;&gt;Node2</title>
<path fill="none" stroke="#404040" d="M52.5,-276.23C52.5,-259.02 52.5,-237.76 52.5,-219.06"/>
<polygon fill="none" stroke="#404040" points="52.5,-218.9 48.5,-212.9 52.5,-206.9 56.5,-212.9 52.5,-218.9"/>
<text text-anchor="middle" x="93.5" y="-250" font-family="Helvetica,sans-Serif" font-size="10.00"> +centerCoordinate</text>
<text text-anchor="middle" x="93.5" y="-239" font-family="Helvetica,sans-Serif" font-size="10.00">+leftCoordinate</text>
<text text-anchor="middle" x="93.5" y="-228" font-family="Helvetica,sans-Serif" font-size="10.00">+rightCoordinate</text>
</g>
</g>
</svg>
