<?xml version="1.0" encoding="UTF-8" standalone="no"?>
<!DOCTYPE svg PUBLIC "-//W3C//DTD SVG 1.1//EN"
 "http://www.w3.org/Graphics/SVG/1.1/DTD/svg11.dtd">
<!-- Generated by graphviz version 2.49.0 (20210830.1337)
 -->
<!-- Title: guWhiteboard::whiteboard_types_map Pages: 1 -->
<svg width="139pt" height="277pt"
 viewBox="0.00 0.00 139.00 277.00" xmlns="http://www.w3.org/2000/svg" xmlns:xlink="http://www.w3.org/1999/xlink">
<g id="graph0" class="graph" transform="scale(1 1) rotate(0) translate(4 273)">
<title>guWhiteboard::whiteboard_types_map</title>
<!-- Node1 -->
<g id="node1" class="node">
<title>Node1</title>
<g id="a_node1"><a xlink:title="Map structure from strings to message types.">
<polygon fill="#bfbfbf" stroke="black" points="0,-0.5 0,-68.5 131,-68.5 131,-0.5 0,-0.5"/>
<text text-anchor="start" x="8" y="-56.5" font-family="Helvetica,sans-Serif" font-size="10.00">guWhiteboard::whiteboard</text>
<text text-anchor="middle" x="65.5" y="-45.5" font-family="Helvetica,sans-Serif" font-size="10.00">_types_map</text>
<polyline fill="none" stroke="black" points="0,-38.5 131,-38.5 "/>
<text text-anchor="middle" x="65.5" y="-26.5" font-family="Helvetica,sans-Serif" font-size="10.00"> </text>
<polyline fill="none" stroke="black" points="0,-19.5 131,-19.5 "/>
<text text-anchor="start" x="8" y="-7.5" font-family="Helvetica,sans-Serif" font-size="10.00">+ whiteboard_types_map()</text>
</a>
</g>
</g>
<!-- Node2 -->
<g id="node2" class="node">
<title>Node2</title>
<g id="a_node2"><a xlink:title=" ">
<polygon fill="none" stroke="#bfbfbf" points="21.5,-106.5 21.5,-163.5 109.5,-163.5 109.5,-106.5 21.5,-106.5"/>
<text text-anchor="middle" x="65.5" y="-151.5" font-family="Helvetica,sans-Serif" font-size="10.00">std::map&lt; K, T &gt;</text>
<polyline fill="none" stroke="#bfbfbf" points="21.5,-144.5 109.5,-144.5 "/>
<text text-anchor="middle" x="65.5" y="-132.5" font-family="Helvetica,sans-Serif" font-size="10.00"> </text>
<polyline fill="none" stroke="#bfbfbf" points="21.5,-125.5 109.5,-125.5 "/>
<text text-anchor="middle" x="65.5" y="-113.5" font-family="Helvetica,sans-Serif" font-size="10.00"> </text>
</a>
</g>
</g>
<!-- Node2&#45;&gt;Node1 -->
<g id="edge1" class="edge">
<title>Node2&#45;&gt;Node1</title>
<path fill="none" stroke="midnightblue" d="M65.5,-96.01C65.5,-86.96 65.5,-77.38 65.5,-68.58"/>
<polygon fill="none" stroke="midnightblue" points="62,-96.3 65.5,-106.3 69,-96.3 62,-96.3"/>
</g>
<!-- Node3 -->
<g id="node3" class="node">
<title>Node3</title>
<g id="a_node3"><a xlink:title=" ">
<polygon fill="none" stroke="#bfbfbf" points="25,-211.5 25,-268.5 54,-268.5 54,-211.5 25,-211.5"/>
<text text-anchor="middle" x="39.5" y="-256.5" font-family="Helvetica,sans-Serif" font-size="10.00">K</text>
<polyline fill="none" stroke="#bfbfbf" points="25,-249.5 54,-249.5 "/>
<text text-anchor="middle" x="39.5" y="-237.5" font-family="Helvetica,sans-Serif" font-size="10.00"> </text>
<polyline fill="none" stroke="#bfbfbf" points="25,-230.5 54,-230.5 "/>
<text text-anchor="middle" x="39.5" y="-218.5" font-family="Helvetica,sans-Serif" font-size="10.00"> </text>
</a>
</g>
</g>
<!-- Node3&#45;&gt;Node2 -->
<g id="edge2" class="edge">
<title>Node3&#45;&gt;Node2</title>
<path fill="none" stroke="#404040" d="M37.35,-211.38C37.3,-201.93 38.03,-191.38 40.5,-182 41.11,-179.69 41.85,-177.38 42.7,-175.07"/>
<polygon fill="none" stroke="#404040" points="42.82,-174.8 41.58,-167.7 47.65,-163.82 48.9,-170.92 42.82,-174.8"/>
<text text-anchor="middle" x="55" y="-185" font-family="Helvetica,sans-Serif" font-size="10.00"> +keys</text>
</g>
<!-- Node4 -->
<g id="node4" class="node">
<title>Node4</title>
<g id="a_node4"><a xlink:title=" ">
<polygon fill="none" stroke="#bfbfbf" points="77,-211.5 77,-268.5 106,-268.5 106,-211.5 77,-211.5"/>
<text text-anchor="middle" x="91.5" y="-256.5" font-family="Helvetica,sans-Serif" font-size="10.00">T</text>
<polyline fill="none" stroke="#bfbfbf" points="77,-249.5 106,-249.5 "/>
<text text-anchor="middle" x="91.5" y="-237.5" font-family="Helvetica,sans-Serif" font-size="10.00"> </text>
<polyline fill="none" stroke="#bfbfbf" points="77,-230.5 106,-230.5 "/>
<text text-anchor="middle" x="91.5" y="-218.5" font-family="Helvetica,sans-Serif" font-size="10.00"> </text>
</a>
</g>
</g>
<!-- Node4&#45;&gt;Node2 -->
<g id="edge3" class="edge">
<title>Node4&#45;&gt;Node2</title>
<path fill="none" stroke="#404040" d="M84.53,-211.4C81.76,-200.43 78.53,-187.6 75.51,-175.67"/>
<polygon fill="none" stroke="#404040" points="75.42,-175.31 70.08,-170.47 72.49,-163.68 77.83,-168.52 75.42,-175.31"/>
<text text-anchor="middle" x="103" y="-185" font-family="Helvetica,sans-Serif" font-size="10.00"> +elements</text>
</g>
</g>
</svg>
