<?xml version="1.0" encoding="UTF-8" standalone="no"?>
<!DOCTYPE svg PUBLIC "-//W3C//DTD SVG 1.1//EN"
 "http://www.w3.org/Graphics/SVG/1.1/DTD/svg11.dtd">
<!-- Generated by graphviz version 2.49.0 (20210830.1337)
 -->
<!-- Title: wb_machine_filtered_localisation_vision Pages: 1 -->
<svg width="121pt" height="204pt"
 viewBox="0.00 0.00 121.00 204.00" xmlns="http://www.w3.org/2000/svg" xmlns:xlink="http://www.w3.org/1999/xlink">
<g id="graph0" class="graph" transform="scale(1 1) rotate(0) translate(4 200)">
<title>wb_machine_filtered_localisation_vision</title>
<!-- Node1 -->
<g id="node1" class="node">
<title>Node1</title>
<g id="a_node1"><a xlink:title="Results of the FSM (and sub machines) &quot;SMFilterVision&quot;.">
<polygon fill="#bfbfbf" stroke="black" points="2.5,-0.5 2.5,-68.5 110.5,-68.5 110.5,-0.5 2.5,-0.5"/>
<text text-anchor="start" x="10.5" y="-56.5" font-family="Helvetica,sans-Serif" font-size="10.00">wb_machine_filtered</text>
<text text-anchor="middle" x="56.5" y="-45.5" font-family="Helvetica,sans-Serif" font-size="10.00">_localisation_vision</text>
<polyline fill="none" stroke="black" points="2.5,-38.5 110.5,-38.5 "/>
<text text-anchor="start" x="10.5" y="-26.5" font-family="Helvetica,sans-Serif" font-size="10.00">+ numberOfSightings</text>
<polyline fill="none" stroke="black" points="2.5,-19.5 110.5,-19.5 "/>
<text text-anchor="middle" x="56.5" y="-7.5" font-family="Helvetica,sans-Serif" font-size="10.00"> </text>
</a>
</g>
</g>
<!-- Node2 -->
<g id="node2" class="node">
<title>Node2</title>
<g id="a_node2"><a xlink:href="structwb__landmark__sighting.html" target="_top" xlink:title="WHITEBOARD_POSTER_STRING_CONVERSION.">
<polygon fill="none" stroke="black" points="0,-116.5 0,-195.5 113,-195.5 113,-116.5 0,-116.5"/>
<text text-anchor="middle" x="56.5" y="-183.5" font-family="Helvetica,sans-Serif" font-size="10.00">wb_landmark_sighting</text>
<polyline fill="none" stroke="black" points="0,-176.5 113,-176.5 "/>
<text text-anchor="start" x="8" y="-164.5" font-family="Helvetica,sans-Serif" font-size="10.00">+ direction</text>
<text text-anchor="start" x="8" y="-153.5" font-family="Helvetica,sans-Serif" font-size="10.00">+ distance</text>
<text text-anchor="start" x="8" y="-142.5" font-family="Helvetica,sans-Serif" font-size="10.00">+ sightingType</text>
<polyline fill="none" stroke="black" points="0,-135.5 113,-135.5 "/>
<text text-anchor="middle" x="56.5" y="-123.5" font-family="Helvetica,sans-Serif" font-size="10.00"> </text>
</a>
</g>
</g>
<!-- Node2&#45;&gt;Node1 -->
<g id="edge1" class="edge">
<title>Node2&#45;&gt;Node1</title>
<path fill="none" stroke="#404040" d="M56.5,-116.2C56.5,-104.99 56.5,-92.65 56.5,-81.07"/>
<polygon fill="none" stroke="#404040" points="56.5,-80.89 52.5,-74.89 56.5,-68.89 60.5,-74.89 56.5,-80.89"/>
<text text-anchor="middle" x="80.5" y="-90" font-family="Helvetica,sans-Serif" font-size="10.00"> +sightings</text>
</g>
</g>
</svg>
