<?xml version="1.0" encoding="UTF-8" standalone="no"?>
<!DOCTYPE svg PUBLIC "-//W3C//DTD SVG 1.1//EN"
 "http://www.w3.org/Graphics/SVG/1.1/DTD/svg11.dtd">
<!-- Generated by graphviz version 2.49.0 (20210830.1337)
 -->
<!-- Title: guWhiteboard::Motions::Action_Transition Pages: 1 -->
<svg width="123pt" height="310pt"
 viewBox="0.00 0.00 123.00 310.00" xmlns="http://www.w3.org/2000/svg" xmlns:xlink="http://www.w3.org/1999/xlink">
<g id="graph0" class="graph" transform="scale(1 1) rotate(0) translate(4 306)">
<title>guWhiteboard::Motions::Action_Transition</title>
<!-- Node1 -->
<g id="node1" class="node">
<title>Node1</title>
<g id="a_node1"><a xlink:title="Internal struct for representing a motion &#39;Action&#39; such as Kicking.">
<polygon fill="#bfbfbf" stroke="black" points="0,-0.5 0,-90.5 115,-90.5 115,-0.5 0,-0.5"/>
<text text-anchor="start" x="8" y="-78.5" font-family="Helvetica,sans-Serif" font-size="10.00">guWhiteboard::Motions</text>
<text text-anchor="middle" x="57.5" y="-67.5" font-family="Helvetica,sans-Serif" font-size="10.00">::Action_Transition</text>
<polyline fill="none" stroke="black" points="0,-60.5 115,-60.5 "/>
<text text-anchor="start" x="8" y="-48.5" font-family="Helvetica,sans-Serif" font-size="10.00">+ _a</text>
<text text-anchor="start" x="8" y="-37.5" font-family="Helvetica,sans-Serif" font-size="10.00">+ _s</text>
<text text-anchor="start" x="8" y="-26.5" font-family="Helvetica,sans-Serif" font-size="10.00">+ _cost</text>
<polyline fill="none" stroke="black" points="0,-19.5 115,-19.5 "/>
<text text-anchor="start" x="8" y="-7.5" font-family="Helvetica,sans-Serif" font-size="10.00">+ Action_Transition()</text>
</a>
</g>
</g>
<!-- Node2 -->
<g id="node2" class="node">
<title>Node2</title>
<g id="a_node2"><a xlink:title=" ">
<polygon fill="none" stroke="#bfbfbf" points="28,-138.5 28,-195.5 87,-195.5 87,-138.5 28,-138.5"/>
<text text-anchor="middle" x="57.5" y="-183.5" font-family="Helvetica,sans-Serif" font-size="10.00">std::string</text>
<polyline fill="none" stroke="#bfbfbf" points="28,-176.5 87,-176.5 "/>
<text text-anchor="middle" x="57.5" y="-164.5" font-family="Helvetica,sans-Serif" font-size="10.00"> </text>
<polyline fill="none" stroke="#bfbfbf" points="28,-157.5 87,-157.5 "/>
<text text-anchor="middle" x="57.5" y="-145.5" font-family="Helvetica,sans-Serif" font-size="10.00"> </text>
</a>
</g>
</g>
<!-- Node2&#45;&gt;Node1 -->
<g id="edge1" class="edge">
<title>Node2&#45;&gt;Node1</title>
<path fill="none" stroke="#404040" d="M57.5,-138.28C57.5,-127.73 57.5,-115.29 57.5,-103.03"/>
<polygon fill="none" stroke="#404040" points="57.5,-102.91 53.5,-96.91 57.5,-90.91 61.5,-96.91 57.5,-102.91"/>
<text text-anchor="middle" x="76.5" y="-112" font-family="Helvetica,sans-Serif" font-size="10.00"> +_name</text>
</g>
<!-- Node3 -->
<g id="node3" class="node">
<title>Node3</title>
<g id="a_node3"><a xlink:title=" ">
<polygon fill="none" stroke="#bfbfbf" points="11,-233.5 11,-301.5 104,-301.5 104,-233.5 11,-233.5"/>
<text text-anchor="start" x="19" y="-289.5" font-family="Helvetica,sans-Serif" font-size="10.00">std::basic_string&lt;</text>
<text text-anchor="middle" x="57.5" y="-278.5" font-family="Helvetica,sans-Serif" font-size="10.00"> Char &gt;</text>
<polyline fill="none" stroke="#bfbfbf" points="11,-271.5 104,-271.5 "/>
<text text-anchor="middle" x="57.5" y="-259.5" font-family="Helvetica,sans-Serif" font-size="10.00"> </text>
<polyline fill="none" stroke="#bfbfbf" points="11,-252.5 104,-252.5 "/>
<text text-anchor="middle" x="57.5" y="-240.5" font-family="Helvetica,sans-Serif" font-size="10.00"> </text>
</a>
</g>
</g>
<!-- Node3&#45;&gt;Node2 -->
<g id="edge2" class="edge">
<title>Node3&#45;&gt;Node2</title>
<path fill="none" stroke="midnightblue" d="M57.5,-223.38C57.5,-213.94 57.5,-204.2 57.5,-195.57"/>
<polygon fill="none" stroke="midnightblue" points="54,-223.43 57.5,-233.43 61,-223.43 54,-223.43"/>
</g>
</g>
</svg>
