<?xml version="1.0" encoding="UTF-8" standalone="no"?>
<!DOCTYPE svg PUBLIC "-//W3C//DTD SVG 1.1//EN"
 "http://www.w3.org/Graphics/SVG/1.1/DTD/svg11.dtd">
<!-- Generated by graphviz version 2.49.0 (20210830.1337)
 -->
<!-- Title: wb_dominant_frequencies Pages: 1 -->
<svg width="258pt" height="204pt"
 viewBox="0.00 0.00 258.00 204.00" xmlns="http://www.w3.org/2000/svg" xmlns:xlink="http://www.w3.org/1999/xlink">
<g id="graph0" class="graph" transform="scale(1 1) rotate(0) translate(4 200)">
<title>wb_dominant_frequencies</title>
<!-- Node1 -->
<g id="node1" class="node">
<title>Node1</title>
<g id="a_node1"><a xlink:title="Frequency quadruple for rear and front stereo channels.">
<polygon fill="#bfbfbf" stroke="black" points="48,-0.5 48,-57.5 178,-57.5 178,-0.5 48,-0.5"/>
<text text-anchor="middle" x="113" y="-45.5" font-family="Helvetica,sans-Serif" font-size="10.00">wb_dominant_frequencies</text>
<polyline fill="none" stroke="black" points="48,-38.5 178,-38.5 "/>
<text text-anchor="middle" x="113" y="-26.5" font-family="Helvetica,sans-Serif" font-size="10.00"> </text>
<polyline fill="none" stroke="black" points="48,-19.5 178,-19.5 "/>
<text text-anchor="middle" x="113" y="-7.5" font-family="Helvetica,sans-Serif" font-size="10.00"> </text>
</a>
</g>
</g>
<!-- Node2 -->
<g id="node2" class="node">
<title>Node2</title>
<g id="a_node2"><a xlink:href="structwb__r__m__s__levels.html" target="_top" xlink:title="WHITEBOARD_POSTER_STRING_CONVERSION.">
<polygon fill="none" stroke="black" points="0,-105.5 0,-195.5 92,-195.5 92,-105.5 0,-105.5"/>
<text text-anchor="middle" x="46" y="-183.5" font-family="Helvetica,sans-Serif" font-size="10.00">wb_r_m_s_levels</text>
<polyline fill="none" stroke="black" points="0,-176.5 92,-176.5 "/>
<text text-anchor="start" x="8" y="-164.5" font-family="Helvetica,sans-Serif" font-size="10.00">+ rear_left</text>
<text text-anchor="start" x="8" y="-153.5" font-family="Helvetica,sans-Serif" font-size="10.00">+ rear_right</text>
<text text-anchor="start" x="8" y="-142.5" font-family="Helvetica,sans-Serif" font-size="10.00">+ front_left</text>
<text text-anchor="start" x="8" y="-131.5" font-family="Helvetica,sans-Serif" font-size="10.00">+ front_right</text>
<polyline fill="none" stroke="black" points="0,-124.5 92,-124.5 "/>
<text text-anchor="middle" x="46" y="-112.5" font-family="Helvetica,sans-Serif" font-size="10.00"> </text>
</a>
</g>
</g>
<!-- Node2&#45;&gt;Node1 -->
<g id="edge1" class="edge">
<title>Node2&#45;&gt;Node1</title>
<path fill="none" stroke="#404040" d="M70.76,-105.34C77.54,-93.25 84.83,-80.24 91.42,-68.49"/>
<polygon fill="none" stroke="#404040" points="91.61,-68.15 91.05,-60.97 97.48,-57.69 98.03,-64.88 91.61,-68.15"/>
<text text-anchor="middle" x="98.5" y="-79" font-family="Helvetica,sans-Serif" font-size="10.00"> +rms</text>
</g>
<!-- Node3 -->
<g id="node3" class="node">
<title>Node3</title>
<g id="a_node3"><a xlink:href="structwb__microphone__frequencies.html" target="_top" xlink:title="WHITEBOARD_POSTER_STRING_CONVERSION.">
<polygon fill="none" stroke="black" points="110,-105.5 110,-195.5 250,-195.5 250,-105.5 110,-105.5"/>
<text text-anchor="middle" x="180" y="-183.5" font-family="Helvetica,sans-Serif" font-size="10.00">wb_microphone_frequencies</text>
<polyline fill="none" stroke="black" points="110,-176.5 250,-176.5 "/>
<text text-anchor="start" x="118" y="-164.5" font-family="Helvetica,sans-Serif" font-size="10.00">+ rear_left</text>
<text text-anchor="start" x="118" y="-153.5" font-family="Helvetica,sans-Serif" font-size="10.00">+ rear_right</text>
<text text-anchor="start" x="118" y="-142.5" font-family="Helvetica,sans-Serif" font-size="10.00">+ front_left</text>
<text text-anchor="start" x="118" y="-131.5" font-family="Helvetica,sans-Serif" font-size="10.00">+ front_right</text>
<polyline fill="none" stroke="black" points="110,-124.5 250,-124.5 "/>
<text text-anchor="middle" x="180" y="-112.5" font-family="Helvetica,sans-Serif" font-size="10.00"> </text>
</a>
</g>
</g>
<!-- Node3&#45;&gt;Node1 -->
<g id="edge2" class="edge">
<title>Node3&#45;&gt;Node1</title>
<path fill="none" stroke="#404040" d="M155.24,-105.34C148.46,-93.25 141.17,-80.24 134.58,-68.49"/>
<polygon fill="none" stroke="#404040" points="134.39,-68.15 127.97,-64.88 128.52,-57.69 134.95,-60.97 134.39,-68.15"/>
<text text-anchor="middle" x="173.5" y="-79" font-family="Helvetica,sans-Serif" font-size="10.00"> +frequencies</text>
</g>
</g>
</svg>
