<?xml version="1.0" encoding="UTF-8" standalone="no"?>
<!DOCTYPE svg PUBLIC "-//W3C//DTD SVG 1.1//EN"
 "http://www.w3.org/Graphics/SVG/1.1/DTD/svg11.dtd">
<!-- Generated by graphviz version 2.49.0 (20210830.1337)
 -->
<!-- Title: typeClassDefs/wb_filtered_arrayballsightings.c Pages: 1 -->
<svg width="508pt" height="218pt"
 viewBox="0.00 0.00 508.00 218.00" xmlns="http://www.w3.org/2000/svg" xmlns:xlink="http://www.w3.org/1999/xlink">
<g id="graph0" class="graph" transform="scale(1 1) rotate(0) translate(4 214)">
<title>typeClassDefs/wb_filtered_arrayballsightings.c</title>
<!-- Node1 -->
<g id="node1" class="node">
<title>Node1</title>
<g id="a_node1"><a xlink:title=" ">
<polygon fill="#bfbfbf" stroke="black" points="249,-179.5 249,-209.5 378,-209.5 378,-179.5 249,-179.5"/>
<text text-anchor="start" x="257" y="-197.5" font-family="Helvetica,sans-Serif" font-size="10.00">typeClassDefs/wb_filtered</text>
<text text-anchor="middle" x="313.5" y="-186.5" font-family="Helvetica,sans-Serif" font-size="10.00">_arrayballsightings.c</text>
</a>
</g>
</g>
<!-- Node2 -->
<g id="node2" class="node">
<title>Node2</title>
<g id="a_node2"><a xlink:href="wb__filtered__arrayballsightings_8h.html" target="_top" xlink:title=" ">
<polygon fill="none" stroke="black" points="24,-123.5 24,-142.5 175,-142.5 175,-123.5 24,-123.5"/>
<text text-anchor="middle" x="99.5" y="-130.5" font-family="Helvetica,sans-Serif" font-size="10.00">wb_filtered_arrayballsightings.h</text>
</a>
</g>
</g>
<!-- Node1&#45;&gt;Node2 -->
<g id="edge1" class="edge">
<title>Node1&#45;&gt;Node2</title>
<path fill="none" stroke="midnightblue" d="M263.06,-179.47C225.49,-169.03 174.88,-154.96 139.95,-145.25"/>
<polygon fill="midnightblue" stroke="midnightblue" points="140.67,-141.81 130.09,-142.51 138.79,-148.56 140.67,-141.81"/>
</g>
<!-- Node8 -->
<g id="node8" class="node">
<title>Node8</title>
<g id="a_node8"><a xlink:title=" ">
<polygon fill="none" stroke="#bfbfbf" points="193,-123.5 193,-142.5 238,-142.5 238,-123.5 193,-123.5"/>
<text text-anchor="middle" x="215.5" y="-130.5" font-family="Helvetica,sans-Serif" font-size="10.00">stdio.h</text>
</a>
</g>
</g>
<!-- Node1&#45;&gt;Node8 -->
<g id="edge9" class="edge">
<title>Node1&#45;&gt;Node8</title>
<path fill="none" stroke="midnightblue" d="M290.28,-179.4C274.71,-169.95 254.3,-157.56 238.74,-148.11"/>
<polygon fill="midnightblue" stroke="midnightblue" points="240.12,-144.86 229.76,-142.66 236.49,-150.84 240.12,-144.86"/>
</g>
<!-- Node9 -->
<g id="node9" class="node">
<title>Node9</title>
<g id="a_node9"><a xlink:title=" ">
<polygon fill="none" stroke="#bfbfbf" points="256.5,-123.5 256.5,-142.5 304.5,-142.5 304.5,-123.5 256.5,-123.5"/>
<text text-anchor="middle" x="280.5" y="-130.5" font-family="Helvetica,sans-Serif" font-size="10.00">string.h</text>
</a>
</g>
</g>
<!-- Node1&#45;&gt;Node9 -->
<g id="edge10" class="edge">
<title>Node1&#45;&gt;Node9</title>
<path fill="none" stroke="midnightblue" d="M305.68,-179.4C301.03,-171.02 295.1,-160.33 290.16,-151.42"/>
<polygon fill="midnightblue" stroke="midnightblue" points="293.21,-149.71 285.3,-142.66 287.09,-153.1 293.21,-149.71"/>
</g>
<!-- Node10 -->
<g id="node10" class="node">
<title>Node10</title>
<g id="a_node10"><a xlink:title=" ">
<polygon fill="none" stroke="#bfbfbf" points="323,-123.5 323,-142.5 370,-142.5 370,-123.5 323,-123.5"/>
<text text-anchor="middle" x="346.5" y="-130.5" font-family="Helvetica,sans-Serif" font-size="10.00">stdlib.h</text>
</a>
</g>
</g>
<!-- Node1&#45;&gt;Node10 -->
<g id="edge11" class="edge">
<title>Node1&#45;&gt;Node10</title>
<path fill="none" stroke="midnightblue" d="M321.32,-179.4C325.97,-171.02 331.9,-160.33 336.84,-151.42"/>
<polygon fill="midnightblue" stroke="midnightblue" points="339.91,-153.1 341.7,-142.66 333.79,-149.71 339.91,-153.1"/>
</g>
<!-- Node11 -->
<g id="node11" class="node">
<title>Node11</title>
<g id="a_node11"><a xlink:title=" ">
<polygon fill="none" stroke="#bfbfbf" points="388,-123.5 388,-142.5 435,-142.5 435,-123.5 388,-123.5"/>
<text text-anchor="middle" x="411.5" y="-130.5" font-family="Helvetica,sans-Serif" font-size="10.00">ctype.h</text>
</a>
</g>
</g>
<!-- Node1&#45;&gt;Node11 -->
<g id="edge12" class="edge">
<title>Node1&#45;&gt;Node11</title>
<path fill="none" stroke="midnightblue" d="M336.72,-179.4C352.29,-169.95 372.7,-157.56 388.26,-148.11"/>
<polygon fill="midnightblue" stroke="midnightblue" points="390.51,-150.84 397.24,-142.66 386.88,-144.86 390.51,-150.84"/>
</g>
<!-- Node12 -->
<g id="node12" class="node">
<title>Node12</title>
<g id="a_node12"><a xlink:title=" ">
<polygon fill="none" stroke="#bfbfbf" points="453,-123.5 453,-142.5 500,-142.5 500,-123.5 453,-123.5"/>
<text text-anchor="middle" x="476.5" y="-130.5" font-family="Helvetica,sans-Serif" font-size="10.00">limits.h</text>
</a>
</g>
</g>
<!-- Node1&#45;&gt;Node12 -->
<g id="edge13" class="edge">
<title>Node1&#45;&gt;Node12</title>
<path fill="none" stroke="midnightblue" d="M352.13,-179.4C379.84,-169.28 416.81,-155.79 443.22,-146.15"/>
<polygon fill="midnightblue" stroke="midnightblue" points="444.59,-149.37 452.78,-142.66 442.19,-142.8 444.59,-149.37"/>
</g>
<!-- Node3 -->
<g id="node3" class="node">
<title>Node3</title>
<g id="a_node3"><a xlink:title=" ">
<polygon fill="none" stroke="#bfbfbf" points="0,-0.5 0,-19.5 53,-19.5 53,-0.5 0,-0.5"/>
<text text-anchor="middle" x="26.5" y="-7.5" font-family="Helvetica,sans-Serif" font-size="10.00">gu_util.h</text>
</a>
</g>
</g>
<!-- Node2&#45;&gt;Node3 -->
<g id="edge2" class="edge">
<title>Node2&#45;&gt;Node3</title>
<path fill="none" stroke="midnightblue" d="M60.25,-123.48C40.5,-116.99 18.32,-105.84 6.5,-87 -4.89,-68.83 5.24,-44.33 14.76,-28.12"/>
<polygon fill="midnightblue" stroke="midnightblue" points="17.74,-29.96 20.13,-19.64 11.82,-26.21 17.74,-29.96"/>
</g>
<!-- Node4 -->
<g id="node4" class="node">
<title>Node4</title>
<g id="a_node4"><a xlink:title=" ">
<polygon fill="none" stroke="#bfbfbf" points="74.5,-0.5 74.5,-19.5 122.5,-19.5 122.5,-0.5 74.5,-0.5"/>
<text text-anchor="middle" x="98.5" y="-7.5" font-family="Helvetica,sans-Serif" font-size="10.00">stdint.h</text>
</a>
</g>
</g>
<!-- Node2&#45;&gt;Node4 -->
<g id="edge3" class="edge">
<title>Node2&#45;&gt;Node4</title>
<path fill="none" stroke="midnightblue" d="M104.38,-123.37C109.06,-114.55 115.81,-100.3 118.5,-87 121.23,-73.5 121.36,-69.48 118.5,-56 116.5,-46.59 112.4,-36.76 108.43,-28.7"/>
<polygon fill="midnightblue" stroke="midnightblue" points="111.39,-26.81 103.63,-19.59 105.19,-30.07 111.39,-26.81"/>
</g>
<!-- Node5 -->
<g id="node5" class="node">
<title>Node5</title>
<g id="a_node5"><a xlink:href="wb__filtered__vision__object_8h.html" target="_top" xlink:title=" ">
<polygon fill="none" stroke="black" points="15.5,-56.5 15.5,-86.5 109.5,-86.5 109.5,-56.5 15.5,-56.5"/>
<text text-anchor="start" x="23.5" y="-74.5" font-family="Helvetica,sans-Serif" font-size="10.00">wb_filtered_vision</text>
<text text-anchor="middle" x="62.5" y="-63.5" font-family="Helvetica,sans-Serif" font-size="10.00">_object.h</text>
</a>
</g>
</g>
<!-- Node2&#45;&gt;Node5 -->
<g id="edge4" class="edge">
<title>Node2&#45;&gt;Node5</title>
<path fill="none" stroke="midnightblue" d="M94.2,-123.48C89.61,-116.09 82.76,-105.08 76.6,-95.17"/>
<polygon fill="midnightblue" stroke="midnightblue" points="79.47,-93.17 71.22,-86.52 73.53,-96.86 79.47,-93.17"/>
</g>
<!-- Node6 -->
<g id="node6" class="node">
<title>Node6</title>
<g id="a_node6"><a xlink:href="wb__filtered__vision__ball__type_8h.html" target="_top" xlink:title=" ">
<polygon fill="none" stroke="black" points="165.5,-56.5 165.5,-86.5 259.5,-86.5 259.5,-56.5 165.5,-56.5"/>
<text text-anchor="start" x="173.5" y="-74.5" font-family="Helvetica,sans-Serif" font-size="10.00">wb_filtered_vision</text>
<text text-anchor="middle" x="212.5" y="-63.5" font-family="Helvetica,sans-Serif" font-size="10.00">_ball_type.h</text>
</a>
</g>
</g>
<!-- Node2&#45;&gt;Node6 -->
<g id="edge7" class="edge">
<title>Node2&#45;&gt;Node6</title>
<path fill="none" stroke="midnightblue" d="M115.69,-123.48C131.57,-115.12 156.3,-102.09 176.8,-91.3"/>
<polygon fill="midnightblue" stroke="midnightblue" points="178.65,-94.28 185.87,-86.52 175.39,-88.09 178.65,-94.28"/>
</g>
<!-- Node5&#45;&gt;Node3 -->
<g id="edge5" class="edge">
<title>Node5&#45;&gt;Node3</title>
<path fill="none" stroke="midnightblue" d="M53.97,-56.4C48.9,-48.02 42.43,-37.33 37.04,-28.42"/>
<polygon fill="midnightblue" stroke="midnightblue" points="39.91,-26.4 31.74,-19.66 33.92,-30.03 39.91,-26.4"/>
</g>
<!-- Node5&#45;&gt;Node4 -->
<g id="edge6" class="edge">
<title>Node5&#45;&gt;Node4</title>
<path fill="none" stroke="midnightblue" d="M71.03,-56.4C76.1,-48.02 82.57,-37.33 87.96,-28.42"/>
<polygon fill="midnightblue" stroke="midnightblue" points="91.08,-30.03 93.26,-19.66 85.09,-26.4 91.08,-30.03"/>
</g>
<!-- Node7 -->
<g id="node7" class="node">
<title>Node7</title>
<g id="a_node7"><a xlink:title=" ">
<polygon fill="none" stroke="#bfbfbf" points="180,-0.5 180,-19.5 245,-19.5 245,-0.5 180,-0.5"/>
<text text-anchor="middle" x="212.5" y="-7.5" font-family="Helvetica,sans-Serif" font-size="10.00">sys/types.h</text>
</a>
</g>
</g>
<!-- Node6&#45;&gt;Node7 -->
<g id="edge8" class="edge">
<title>Node6&#45;&gt;Node7</title>
<path fill="none" stroke="midnightblue" d="M212.5,-56.4C212.5,-48.47 212.5,-38.46 212.5,-29.86"/>
<polygon fill="midnightblue" stroke="midnightblue" points="216,-29.66 212.5,-19.66 209,-29.66 216,-29.66"/>
</g>
</g>
</svg>
