<?xml version="1.0" encoding="UTF-8" standalone="no"?>
<!DOCTYPE svg PUBLIC "-//W3C//DTD SVG 1.1//EN"
 "http://www.w3.org/Graphics/SVG/1.1/DTD/svg11.dtd">
<!-- Generated by graphviz version 2.49.0 (20210830.1337)
 -->
<!-- Title: typeClassDefs/wb_nao_walk_status.h Pages: 1 -->
<svg width="597pt" height="296pt"
 viewBox="0.00 0.00 596.50 296.00" xmlns="http://www.w3.org/2000/svg" xmlns:xlink="http://www.w3.org/1999/xlink">
<g id="graph0" class="graph" transform="scale(1 1) rotate(0) translate(4 292)">
<title>typeClassDefs/wb_nao_walk_status.h</title>
<!-- Node1 -->
<g id="node1" class="node">
<title>Node1</title>
<g id="a_node1"><a xlink:title=" ">
<polygon fill="#bfbfbf" stroke="black" points="306.5,-257.5 306.5,-287.5 422.5,-287.5 422.5,-257.5 306.5,-257.5"/>
<text text-anchor="start" x="314.5" y="-275.5" font-family="Helvetica,sans-Serif" font-size="10.00">typeClassDefs/wb_nao</text>
<text text-anchor="middle" x="364.5" y="-264.5" font-family="Helvetica,sans-Serif" font-size="10.00">_walk_status.h</text>
</a>
</g>
</g>
<!-- Node2 -->
<g id="node2" class="node">
<title>Node2</title>
<g id="a_node2"><a xlink:href="guwhiteboard__c__types_8h.html" target="_top" xlink:title=" ">
<polygon fill="none" stroke="black" points="141,-196 141,-215 262,-215 262,-196 141,-196"/>
<text text-anchor="middle" x="201.5" y="-203" font-family="Helvetica,sans-Serif" font-size="10.00">guwhiteboard_c_types.h</text>
</a>
</g>
</g>
<!-- Node1&#45;&gt;Node2 -->
<g id="edge1" class="edge">
<title>Node1&#45;&gt;Node2</title>
<path fill="none" stroke="midnightblue" d="M319.67,-253.62C288.12,-241.04 247.31,-224.77 222.83,-215.01"/>
<polygon fill="midnightblue" stroke="midnightblue" points="318.55,-256.94 329.13,-257.4 321.14,-250.44 318.55,-256.94"/>
</g>
<!-- Node5 -->
<g id="node5" class="node">
<title>Node5</title>
<g id="a_node5"><a xlink:href="_nao_walk_status_8hpp.html" target="_top" xlink:title=" ">
<polygon fill="none" stroke="black" points="280,-196 280,-215 449,-215 449,-196 280,-196"/>
<text text-anchor="middle" x="364.5" y="-203" font-family="Helvetica,sans-Serif" font-size="10.00">typeClassDefs/NaoWalkStatus.hpp</text>
</a>
</g>
</g>
<!-- Node1&#45;&gt;Node5 -->
<g id="edge4" class="edge">
<title>Node1&#45;&gt;Node5</title>
<path fill="none" stroke="midnightblue" d="M364.5,-247.25C364.5,-236.02 364.5,-223.38 364.5,-215.19"/>
<polygon fill="midnightblue" stroke="midnightblue" points="361,-247.4 364.5,-257.4 368,-247.4 361,-247.4"/>
</g>
<!-- Node13 -->
<g id="node13" class="node">
<title>Node13</title>
<g id="a_node13"><a xlink:href="wb__nao__walk__status_8c.html" target="_top" xlink:title=" ">
<polygon fill="none" stroke="black" points="466.5,-190.5 466.5,-220.5 582.5,-220.5 582.5,-190.5 466.5,-190.5"/>
<text text-anchor="start" x="474.5" y="-208.5" font-family="Helvetica,sans-Serif" font-size="10.00">typeClassDefs/wb_nao</text>
<text text-anchor="middle" x="524.5" y="-197.5" font-family="Helvetica,sans-Serif" font-size="10.00">_walk_status.c</text>
</a>
</g>
</g>
<!-- Node1&#45;&gt;Node13 -->
<g id="edge12" class="edge">
<title>Node1&#45;&gt;Node13</title>
<path fill="none" stroke="midnightblue" d="M408.7,-253.54C434.3,-243.14 466.07,-230.24 489.85,-220.58"/>
<polygon fill="midnightblue" stroke="midnightblue" points="407.16,-250.39 399.22,-257.4 409.8,-256.87 407.16,-250.39"/>
</g>
<!-- Node3 -->
<g id="node3" class="node">
<title>Node3</title>
<g id="a_node3"><a xlink:href="guwhiteboarddeserialiser_8c.html" target="_top" xlink:title=" ">
<polygon fill="none" stroke="black" points="0,-134.5 0,-153.5 131,-153.5 131,-134.5 0,-134.5"/>
<text text-anchor="middle" x="65.5" y="-141.5" font-family="Helvetica,sans-Serif" font-size="10.00">guwhiteboarddeserialiser.c</text>
</a>
</g>
</g>
<!-- Node2&#45;&gt;Node3 -->
<g id="edge2" class="edge">
<title>Node2&#45;&gt;Node3</title>
<path fill="none" stroke="midnightblue" d="M172.53,-191.83C146.13,-180.28 107.86,-163.53 84.95,-153.51"/>
<polygon fill="midnightblue" stroke="midnightblue" points="171.45,-195.17 182.01,-195.98 174.26,-188.76 171.45,-195.17"/>
</g>
<!-- Node4 -->
<g id="node4" class="node">
<title>Node4</title>
<g id="a_node4"><a xlink:href="guwhiteboardserialiser_8c.html" target="_top" xlink:title=" ">
<polygon fill="none" stroke="black" points="149,-134.5 149,-153.5 270,-153.5 270,-134.5 149,-134.5"/>
<text text-anchor="middle" x="209.5" y="-141.5" font-family="Helvetica,sans-Serif" font-size="10.00">guwhiteboardserialiser.c</text>
</a>
</g>
</g>
<!-- Node2&#45;&gt;Node4 -->
<g id="edge3" class="edge">
<title>Node2&#45;&gt;Node4</title>
<path fill="none" stroke="midnightblue" d="M204.01,-185.82C205.47,-175 207.23,-161.9 208.36,-153.51"/>
<polygon fill="midnightblue" stroke="midnightblue" points="200.51,-185.6 202.65,-195.98 207.45,-186.53 200.51,-185.6"/>
</g>
<!-- Node6 -->
<g id="node6" class="node">
<title>Node6</title>
<g id="a_node6"><a xlink:href="guwhiteboardposter_8h.html" target="_top" xlink:title=" ">
<polygon fill="none" stroke="black" points="303,-134.5 303,-153.5 412,-153.5 412,-134.5 303,-134.5"/>
<text text-anchor="middle" x="357.5" y="-141.5" font-family="Helvetica,sans-Serif" font-size="10.00">guwhiteboardposter.h</text>
</a>
</g>
</g>
<!-- Node5&#45;&gt;Node6 -->
<g id="edge5" class="edge">
<title>Node5&#45;&gt;Node6</title>
<path fill="none" stroke="midnightblue" d="M362.3,-185.82C361.03,-175 359.49,-161.9 358.5,-153.51"/>
<polygon fill="midnightblue" stroke="midnightblue" points="358.85,-186.45 363.5,-195.98 365.8,-185.63 358.85,-186.45"/>
</g>
<!-- Node12 -->
<g id="node12" class="node">
<title>Node12</title>
<g id="a_node12"><a xlink:href="_nao_walk_status_8h.html" target="_top" xlink:title=" ">
<polygon fill="none" stroke="black" points="430.5,-134.5 430.5,-153.5 588.5,-153.5 588.5,-134.5 430.5,-134.5"/>
<text text-anchor="middle" x="509.5" y="-141.5" font-family="Helvetica,sans-Serif" font-size="10.00">typeClassDefs/NaoWalkStatus.h</text>
</a>
</g>
</g>
<!-- Node5&#45;&gt;Node12 -->
<g id="edge11" class="edge">
<title>Node5&#45;&gt;Node12</title>
<path fill="none" stroke="midnightblue" d="M394.64,-192.13C422.81,-180.57 464.12,-163.62 488.76,-153.51"/>
<polygon fill="midnightblue" stroke="midnightblue" points="393.2,-188.94 385.27,-195.98 395.86,-195.42 393.2,-188.94"/>
</g>
<!-- Node7 -->
<g id="node7" class="node">
<title>Node7</title>
<g id="a_node7"><a xlink:href="_simple_whiteboard_test_8h.html" target="_top" xlink:title=" ">
<polygon fill="none" stroke="black" points="158,-67.5 158,-97.5 283,-97.5 283,-67.5 158,-67.5"/>
<text text-anchor="start" x="166" y="-85.5" font-family="Helvetica,sans-Serif" font-size="10.00">SimpleWhiteboardTest</text>
<text text-anchor="middle" x="220.5" y="-74.5" font-family="Helvetica,sans-Serif" font-size="10.00">/SimpleWhiteboardTest.h</text>
</a>
</g>
</g>
<!-- Node6&#45;&gt;Node7 -->
<g id="edge6" class="edge">
<title>Node6&#45;&gt;Node7</title>
<path fill="none" stroke="midnightblue" d="M328.63,-130.46C306.44,-120.82 275.79,-107.51 252.79,-97.52"/>
<polygon fill="midnightblue" stroke="midnightblue" points="327.3,-133.7 337.87,-134.48 330.09,-127.28 327.3,-133.7"/>
</g>
<!-- Node9 -->
<g id="node9" class="node">
<title>Node9</title>
<g id="a_node9"><a xlink:href="guwhiteboardgetter_8h.html" target="_top" xlink:title=" ">
<polygon fill="none" stroke="black" points="304,-73 304,-92 411,-92 411,-73 304,-73"/>
<text text-anchor="middle" x="357.5" y="-80" font-family="Helvetica,sans-Serif" font-size="10.00">guwhiteboardgetter.h</text>
</a>
</g>
</g>
<!-- Node6&#45;&gt;Node9 -->
<g id="edge8" class="edge">
<title>Node6&#45;&gt;Node9</title>
<path fill="none" stroke="midnightblue" d="M357.5,-124.32C357.5,-113.5 357.5,-100.4 357.5,-92.01"/>
<polygon fill="midnightblue" stroke="midnightblue" points="354,-124.48 357.5,-134.48 361,-124.48 354,-124.48"/>
</g>
<!-- Node11 -->
<g id="node11" class="node">
<title>Node11</title>
<g id="a_node11"><a xlink:href="guwhiteboardposter_8cpp.html" target="_top" xlink:title=" ">
<polygon fill="none" stroke="black" points="429,-73 429,-92 548,-92 548,-73 429,-73"/>
<text text-anchor="middle" x="488.5" y="-80" font-family="Helvetica,sans-Serif" font-size="10.00">guwhiteboardposter.cpp</text>
</a>
</g>
</g>
<!-- Node6&#45;&gt;Node11 -->
<g id="edge10" class="edge">
<title>Node6&#45;&gt;Node11</title>
<path fill="none" stroke="midnightblue" d="M385.4,-130.33C410.83,-118.78 447.7,-102.03 469.77,-92.01"/>
<polygon fill="midnightblue" stroke="midnightblue" points="383.93,-127.15 376.27,-134.48 386.82,-133.53 383.93,-127.15"/>
</g>
<!-- Node8 -->
<g id="node8" class="node">
<title>Node8</title>
<g id="a_node8"><a xlink:href="_simple_whiteboard_test_8mm.html" target="_top" xlink:title=" ">
<polygon fill="none" stroke="black" points="147,-0.5 147,-30.5 284,-30.5 284,-0.5 147,-0.5"/>
<text text-anchor="start" x="155" y="-18.5" font-family="Helvetica,sans-Serif" font-size="10.00">SimpleWhiteboardTest</text>
<text text-anchor="middle" x="215.5" y="-7.5" font-family="Helvetica,sans-Serif" font-size="10.00">/SimpleWhiteboardTest.mm</text>
</a>
</g>
</g>
<!-- Node7&#45;&gt;Node8 -->
<g id="edge7" class="edge">
<title>Node7&#45;&gt;Node8</title>
<path fill="none" stroke="midnightblue" d="M218.65,-57.4C217.95,-48.37 217.19,-38.41 216.58,-30.58"/>
<polygon fill="midnightblue" stroke="midnightblue" points="215.16,-57.69 219.42,-67.4 222.14,-57.16 215.16,-57.69"/>
</g>
<!-- Node10 -->
<g id="node10" class="node">
<title>Node10</title>
<g id="a_node10"><a xlink:href="guwhiteboardgetter_8cpp.html" target="_top" xlink:title=" ">
<polygon fill="none" stroke="black" points="302,-6 302,-25 419,-25 419,-6 302,-6"/>
<text text-anchor="middle" x="360.5" y="-13" font-family="Helvetica,sans-Serif" font-size="10.00">guwhiteboardgetter.cpp</text>
</a>
</g>
</g>
<!-- Node9&#45;&gt;Node10 -->
<g id="edge9" class="edge">
<title>Node9&#45;&gt;Node10</title>
<path fill="none" stroke="midnightblue" d="M358.38,-62.54C358.95,-50.17 359.66,-34.62 360.1,-25.13"/>
<polygon fill="midnightblue" stroke="midnightblue" points="354.87,-62.58 357.9,-72.73 361.86,-62.91 354.87,-62.58"/>
</g>
</g>
</svg>
