<?xml version="1.0" encoding="UTF-8" standalone="no"?>
<!DOCTYPE svg PUBLIC "-//W3C//DTD SVG 1.1//EN"
 "http://www.w3.org/Graphics/SVG/1.1/DTD/svg11.dtd">
<!-- Generated by graphviz version 2.49.0 (20210830.1337)
 -->
<!-- Title: typeClassDefs/wb_dominant_frequencies.h Pages: 1 -->
<svg width="639pt" height="296pt"
 viewBox="0.00 0.00 638.50 296.00" xmlns="http://www.w3.org/2000/svg" xmlns:xlink="http://www.w3.org/1999/xlink">
<g id="graph0" class="graph" transform="scale(1 1) rotate(0) translate(4 292)">
<title>typeClassDefs/wb_dominant_frequencies.h</title>
<!-- Node1 -->
<g id="node1" class="node">
<title>Node1</title>
<g id="a_node1"><a xlink:title=" ">
<polygon fill="#bfbfbf" stroke="black" points="304.5,-257.5 304.5,-287.5 444.5,-287.5 444.5,-257.5 304.5,-257.5"/>
<text text-anchor="start" x="312.5" y="-275.5" font-family="Helvetica,sans-Serif" font-size="10.00">typeClassDefs/wb_dominant</text>
<text text-anchor="middle" x="374.5" y="-264.5" font-family="Helvetica,sans-Serif" font-size="10.00">_frequencies.h</text>
</a>
</g>
</g>
<!-- Node2 -->
<g id="node2" class="node">
<title>Node2</title>
<g id="a_node2"><a xlink:href="guwhiteboard__c__types_8h.html" target="_top" xlink:title=" ">
<polygon fill="none" stroke="black" points="138,-196 138,-215 259,-215 259,-196 138,-196"/>
<text text-anchor="middle" x="198.5" y="-203" font-family="Helvetica,sans-Serif" font-size="10.00">guwhiteboard_c_types.h</text>
</a>
</g>
</g>
<!-- Node1&#45;&gt;Node2 -->
<g id="edge1" class="edge">
<title>Node1&#45;&gt;Node2</title>
<path fill="none" stroke="midnightblue" d="M326.53,-253.78C292.4,-241.18 248.07,-224.81 221.53,-215.01"/>
<polygon fill="midnightblue" stroke="midnightblue" points="325.72,-257.21 336.31,-257.4 328.14,-250.65 325.72,-257.21"/>
</g>
<!-- Node5 -->
<g id="node5" class="node">
<title>Node5</title>
<g id="a_node5"><a xlink:href="_dominant_frequencies_8hpp.html" target="_top" xlink:title=" ">
<polygon fill="none" stroke="black" points="277,-196 277,-215 472,-215 472,-196 277,-196"/>
<text text-anchor="middle" x="374.5" y="-203" font-family="Helvetica,sans-Serif" font-size="10.00">typeClassDefs/DominantFrequencies.hpp</text>
</a>
</g>
</g>
<!-- Node1&#45;&gt;Node5 -->
<g id="edge4" class="edge">
<title>Node1&#45;&gt;Node5</title>
<path fill="none" stroke="midnightblue" d="M374.5,-247.25C374.5,-236.02 374.5,-223.38 374.5,-215.19"/>
<polygon fill="midnightblue" stroke="midnightblue" points="371,-247.4 374.5,-257.4 378,-247.4 371,-247.4"/>
</g>
<!-- Node13 -->
<g id="node13" class="node">
<title>Node13</title>
<g id="a_node13"><a xlink:href="wb__dominant__frequencies_8c.html" target="_top" xlink:title=" ">
<polygon fill="none" stroke="black" points="490.5,-190.5 490.5,-220.5 630.5,-220.5 630.5,-190.5 490.5,-190.5"/>
<text text-anchor="start" x="498.5" y="-208.5" font-family="Helvetica,sans-Serif" font-size="10.00">typeClassDefs/wb_dominant</text>
<text text-anchor="middle" x="560.5" y="-197.5" font-family="Helvetica,sans-Serif" font-size="10.00">_frequencies.c</text>
</a>
</g>
</g>
<!-- Node1&#45;&gt;Node13 -->
<g id="edge12" class="edge">
<title>Node1&#45;&gt;Node13</title>
<path fill="none" stroke="midnightblue" d="M424.31,-254.09C454.34,-243.6 492.09,-230.41 520.22,-220.58"/>
<polygon fill="midnightblue" stroke="midnightblue" points="423.14,-250.79 414.86,-257.4 425.45,-257.4 423.14,-250.79"/>
</g>
<!-- Node3 -->
<g id="node3" class="node">
<title>Node3</title>
<g id="a_node3"><a xlink:href="guwhiteboarddeserialiser_8c.html" target="_top" xlink:title=" ">
<polygon fill="none" stroke="black" points="0,-134.5 0,-153.5 131,-153.5 131,-134.5 0,-134.5"/>
<text text-anchor="middle" x="65.5" y="-141.5" font-family="Helvetica,sans-Serif" font-size="10.00">guwhiteboarddeserialiser.c</text>
</a>
</g>
</g>
<!-- Node2&#45;&gt;Node3 -->
<g id="edge2" class="edge">
<title>Node2&#45;&gt;Node3</title>
<path fill="none" stroke="midnightblue" d="M170.17,-191.83C144.35,-180.28 106.92,-163.53 84.52,-153.51"/>
<polygon fill="midnightblue" stroke="midnightblue" points="168.89,-195.09 179.44,-195.98 171.75,-188.7 168.89,-195.09"/>
</g>
<!-- Node4 -->
<g id="node4" class="node">
<title>Node4</title>
<g id="a_node4"><a xlink:href="guwhiteboardserialiser_8c.html" target="_top" xlink:title=" ">
<polygon fill="none" stroke="black" points="149,-134.5 149,-153.5 270,-153.5 270,-134.5 149,-134.5"/>
<text text-anchor="middle" x="209.5" y="-141.5" font-family="Helvetica,sans-Serif" font-size="10.00">guwhiteboardserialiser.c</text>
</a>
</g>
</g>
<!-- Node2&#45;&gt;Node4 -->
<g id="edge3" class="edge">
<title>Node2&#45;&gt;Node4</title>
<path fill="none" stroke="midnightblue" d="M201.95,-185.82C203.95,-175 206.38,-161.9 207.93,-153.51"/>
<polygon fill="midnightblue" stroke="midnightblue" points="198.45,-185.51 200.08,-195.98 205.34,-186.78 198.45,-185.51"/>
</g>
<!-- Node6 -->
<g id="node6" class="node">
<title>Node6</title>
<g id="a_node6"><a xlink:href="guwhiteboardposter_8h.html" target="_top" xlink:title=" ">
<polygon fill="none" stroke="black" points="309,-134.5 309,-153.5 418,-153.5 418,-134.5 309,-134.5"/>
<text text-anchor="middle" x="363.5" y="-141.5" font-family="Helvetica,sans-Serif" font-size="10.00">guwhiteboardposter.h</text>
</a>
</g>
</g>
<!-- Node5&#45;&gt;Node6 -->
<g id="edge5" class="edge">
<title>Node5&#45;&gt;Node6</title>
<path fill="none" stroke="midnightblue" d="M371.05,-185.82C369.05,-175 366.62,-161.9 365.07,-153.51"/>
<polygon fill="midnightblue" stroke="midnightblue" points="367.66,-186.78 372.92,-195.98 374.55,-185.51 367.66,-186.78"/>
</g>
<!-- Node12 -->
<g id="node12" class="node">
<title>Node12</title>
<g id="a_node12"><a xlink:href="_dominant_frequencies_8h.html" target="_top" xlink:title=" ">
<polygon fill="none" stroke="black" points="436,-134.5 436,-153.5 621,-153.5 621,-134.5 436,-134.5"/>
<text text-anchor="middle" x="528.5" y="-141.5" font-family="Helvetica,sans-Serif" font-size="10.00">typeClassDefs/DominantFrequencies.h</text>
</a>
</g>
</g>
<!-- Node5&#45;&gt;Node12 -->
<g id="edge11" class="edge">
<title>Node5&#45;&gt;Node12</title>
<path fill="none" stroke="midnightblue" d="M406.12,-192.28C436.05,-180.72 480.19,-163.66 506.48,-153.51"/>
<polygon fill="midnightblue" stroke="midnightblue" points="404.63,-189.11 396.56,-195.98 407.15,-195.64 404.63,-189.11"/>
</g>
<!-- Node7 -->
<g id="node7" class="node">
<title>Node7</title>
<g id="a_node7"><a xlink:href="_simple_whiteboard_test_8h.html" target="_top" xlink:title=" ">
<polygon fill="none" stroke="black" points="164,-67.5 164,-97.5 289,-97.5 289,-67.5 164,-67.5"/>
<text text-anchor="start" x="172" y="-85.5" font-family="Helvetica,sans-Serif" font-size="10.00">SimpleWhiteboardTest</text>
<text text-anchor="middle" x="226.5" y="-74.5" font-family="Helvetica,sans-Serif" font-size="10.00">/SimpleWhiteboardTest.h</text>
</a>
</g>
</g>
<!-- Node6&#45;&gt;Node7 -->
<g id="edge6" class="edge">
<title>Node6&#45;&gt;Node7</title>
<path fill="none" stroke="midnightblue" d="M334.63,-130.46C312.44,-120.82 281.79,-107.51 258.79,-97.52"/>
<polygon fill="midnightblue" stroke="midnightblue" points="333.3,-133.7 343.87,-134.48 336.09,-127.28 333.3,-133.7"/>
</g>
<!-- Node9 -->
<g id="node9" class="node">
<title>Node9</title>
<g id="a_node9"><a xlink:href="guwhiteboardgetter_8h.html" target="_top" xlink:title=" ">
<polygon fill="none" stroke="black" points="310,-73 310,-92 417,-92 417,-73 310,-73"/>
<text text-anchor="middle" x="363.5" y="-80" font-family="Helvetica,sans-Serif" font-size="10.00">guwhiteboardgetter.h</text>
</a>
</g>
</g>
<!-- Node6&#45;&gt;Node9 -->
<g id="edge8" class="edge">
<title>Node6&#45;&gt;Node9</title>
<path fill="none" stroke="midnightblue" d="M363.5,-124.32C363.5,-113.5 363.5,-100.4 363.5,-92.01"/>
<polygon fill="midnightblue" stroke="midnightblue" points="360,-124.48 363.5,-134.48 367,-124.48 360,-124.48"/>
</g>
<!-- Node11 -->
<g id="node11" class="node">
<title>Node11</title>
<g id="a_node11"><a xlink:href="guwhiteboardposter_8cpp.html" target="_top" xlink:title=" ">
<polygon fill="none" stroke="black" points="435,-73 435,-92 554,-92 554,-73 435,-73"/>
<text text-anchor="middle" x="494.5" y="-80" font-family="Helvetica,sans-Serif" font-size="10.00">guwhiteboardposter.cpp</text>
</a>
</g>
</g>
<!-- Node6&#45;&gt;Node11 -->
<g id="edge10" class="edge">
<title>Node6&#45;&gt;Node11</title>
<path fill="none" stroke="midnightblue" d="M391.4,-130.33C416.83,-118.78 453.7,-102.03 475.77,-92.01"/>
<polygon fill="midnightblue" stroke="midnightblue" points="389.93,-127.15 382.27,-134.48 392.82,-133.53 389.93,-127.15"/>
</g>
<!-- Node8 -->
<g id="node8" class="node">
<title>Node8</title>
<g id="a_node8"><a xlink:href="_simple_whiteboard_test_8mm.html" target="_top" xlink:title=" ">
<polygon fill="none" stroke="black" points="153,-0.5 153,-30.5 290,-30.5 290,-0.5 153,-0.5"/>
<text text-anchor="start" x="161" y="-18.5" font-family="Helvetica,sans-Serif" font-size="10.00">SimpleWhiteboardTest</text>
<text text-anchor="middle" x="221.5" y="-7.5" font-family="Helvetica,sans-Serif" font-size="10.00">/SimpleWhiteboardTest.mm</text>
</a>
</g>
</g>
<!-- Node7&#45;&gt;Node8 -->
<g id="edge7" class="edge">
<title>Node7&#45;&gt;Node8</title>
<path fill="none" stroke="midnightblue" d="M224.65,-57.4C223.95,-48.37 223.19,-38.41 222.58,-30.58"/>
<polygon fill="midnightblue" stroke="midnightblue" points="221.16,-57.69 225.42,-67.4 228.14,-57.16 221.16,-57.69"/>
</g>
<!-- Node10 -->
<g id="node10" class="node">
<title>Node10</title>
<g id="a_node10"><a xlink:href="guwhiteboardgetter_8cpp.html" target="_top" xlink:title=" ">
<polygon fill="none" stroke="black" points="308,-6 308,-25 425,-25 425,-6 308,-6"/>
<text text-anchor="middle" x="366.5" y="-13" font-family="Helvetica,sans-Serif" font-size="10.00">guwhiteboardgetter.cpp</text>
</a>
</g>
</g>
<!-- Node9&#45;&gt;Node10 -->
<g id="edge9" class="edge">
<title>Node9&#45;&gt;Node10</title>
<path fill="none" stroke="midnightblue" d="M364.38,-62.54C364.95,-50.17 365.66,-34.62 366.1,-25.13"/>
<polygon fill="midnightblue" stroke="midnightblue" points="360.87,-62.58 363.9,-72.73 367.86,-62.91 360.87,-62.58"/>
</g>
</g>
</svg>
