<?xml version="1.0" encoding="UTF-8" standalone="no"?>
<!DOCTYPE svg PUBLIC "-//W3C//DTD SVG 1.1//EN"
 "http://www.w3.org/Graphics/SVG/1.1/DTD/svg11.dtd">
<!-- Generated by graphviz version 2.49.0 (20210830.1337)
 -->
<!-- Title: typeClassDefs/wb_vision_field_feature.h Pages: 1 -->
<svg width="403pt" height="151pt"
 viewBox="0.00 0.00 403.00 151.00" xmlns="http://www.w3.org/2000/svg" xmlns:xlink="http://www.w3.org/1999/xlink">
<g id="graph0" class="graph" transform="scale(1 1) rotate(0) translate(4 147)">
<title>typeClassDefs/wb_vision_field_feature.h</title>
<!-- Node1 -->
<g id="node1" class="node">
<title>Node1</title>
<g id="a_node1"><a xlink:title=" ">
<polygon fill="#bfbfbf" stroke="black" points="108.5,-112.5 108.5,-142.5 234.5,-142.5 234.5,-112.5 108.5,-112.5"/>
<text text-anchor="start" x="116.5" y="-130.5" font-family="Helvetica,sans-Serif" font-size="10.00">typeClassDefs/wb_vision</text>
<text text-anchor="middle" x="171.5" y="-119.5" font-family="Helvetica,sans-Serif" font-size="10.00">_field_feature.h</text>
</a>
</g>
</g>
<!-- Node2 -->
<g id="node2" class="node">
<title>Node2</title>
<g id="a_node2"><a xlink:title=" ">
<polygon fill="none" stroke="#bfbfbf" points="0,-0.5 0,-19.5 53,-19.5 53,-0.5 0,-0.5"/>
<text text-anchor="middle" x="26.5" y="-7.5" font-family="Helvetica,sans-Serif" font-size="10.00">gu_util.h</text>
</a>
</g>
</g>
<!-- Node1&#45;&gt;Node2 -->
<g id="edge1" class="edge">
<title>Node1&#45;&gt;Node2</title>
<path fill="none" stroke="midnightblue" d="M148.18,-112.44C132.77,-102.81 112.37,-89.4 95.5,-76 76.11,-60.6 55.67,-40.85 42.12,-27.18"/>
<polygon fill="midnightblue" stroke="midnightblue" points="44.5,-24.61 35,-19.91 39.5,-29.51 44.5,-24.61"/>
</g>
<!-- Node3 -->
<g id="node3" class="node">
<title>Node3</title>
<g id="a_node3"><a xlink:title=" ">
<polygon fill="none" stroke="#bfbfbf" points="71.5,-0.5 71.5,-19.5 119.5,-19.5 119.5,-0.5 71.5,-0.5"/>
<text text-anchor="middle" x="95.5" y="-7.5" font-family="Helvetica,sans-Serif" font-size="10.00">stdint.h</text>
</a>
</g>
</g>
<!-- Node1&#45;&gt;Node3 -->
<g id="edge2" class="edge">
<title>Node1&#45;&gt;Node3</title>
<path fill="none" stroke="midnightblue" d="M145.06,-112.41C131.38,-103.73 115.67,-91.33 106.5,-76 98.15,-62.03 95.68,-43.53 95.14,-29.84"/>
<polygon fill="midnightblue" stroke="midnightblue" points="98.64,-29.64 95.05,-19.67 91.64,-29.7 98.64,-29.64"/>
</g>
<!-- Node4 -->
<g id="node4" class="node">
<title>Node4</title>
<g id="a_node4"><a xlink:href="wb__pixel__coordinate_8h.html" target="_top" xlink:title=" ">
<polygon fill="none" stroke="black" points="115.5,-56.5 115.5,-75.5 227.5,-75.5 227.5,-56.5 115.5,-56.5"/>
<text text-anchor="middle" x="171.5" y="-63.5" font-family="Helvetica,sans-Serif" font-size="10.00">wb_pixel_coordinate.h</text>
</a>
</g>
</g>
<!-- Node1&#45;&gt;Node4 -->
<g id="edge3" class="edge">
<title>Node1&#45;&gt;Node4</title>
<path fill="none" stroke="midnightblue" d="M171.5,-112.4C171.5,-104.47 171.5,-94.46 171.5,-85.86"/>
<polygon fill="midnightblue" stroke="midnightblue" points="175,-85.66 171.5,-75.66 168,-85.66 175,-85.66"/>
</g>
<!-- Node5 -->
<g id="node5" class="node">
<title>Node5</title>
<g id="a_node5"><a xlink:title=" ">
<polygon fill="none" stroke="#bfbfbf" points="137.5,-0.5 137.5,-19.5 227.5,-19.5 227.5,-0.5 137.5,-0.5"/>
<text text-anchor="middle" x="182.5" y="-7.5" font-family="Helvetica,sans-Serif" font-size="10.00">guunits/guunits.h</text>
</a>
</g>
</g>
<!-- Node1&#45;&gt;Node5 -->
<g id="edge8" class="edge">
<title>Node1&#45;&gt;Node5</title>
<path fill="none" stroke="midnightblue" d="M199.98,-112.35C213.71,-103.86 228.84,-91.66 236.5,-76 246.14,-56.3 226.1,-37.43 207.76,-25.15"/>
<polygon fill="midnightblue" stroke="midnightblue" points="209.36,-22.03 199.03,-19.68 205.64,-27.96 209.36,-22.03"/>
</g>
<!-- Node6 -->
<g id="node6" class="node">
<title>Node6</title>
<g id="a_node6"><a xlink:title=" ">
<polygon fill="none" stroke="#bfbfbf" points="246,-0.5 246,-19.5 395,-19.5 395,-0.5 246,-0.5"/>
<text text-anchor="middle" x="320.5" y="-7.5" font-family="Helvetica,sans-Serif" font-size="10.00">gucoordinates/gucoordinates.h</text>
</a>
</g>
</g>
<!-- Node1&#45;&gt;Node6 -->
<g id="edge9" class="edge">
<title>Node1&#45;&gt;Node6</title>
<path fill="none" stroke="midnightblue" d="M196.48,-112.42C212.69,-102.88 233.97,-89.58 251.5,-76 271.29,-60.66 291.93,-40.6 305.42,-26.84"/>
<polygon fill="midnightblue" stroke="midnightblue" points="308.03,-29.17 312.47,-19.55 303,-24.3 308.03,-29.17"/>
</g>
<!-- Node4&#45;&gt;Node2 -->
<g id="edge4" class="edge">
<title>Node4&#45;&gt;Node2</title>
<path fill="none" stroke="midnightblue" d="M148.52,-56.44C124.34,-47.44 86.08,-33.19 58.85,-23.05"/>
<polygon fill="midnightblue" stroke="midnightblue" points="59.96,-19.73 49.37,-19.52 57.52,-26.29 59.96,-19.73"/>
</g>
<!-- Node4&#45;&gt;Node3 -->
<g id="edge5" class="edge">
<title>Node4&#45;&gt;Node3</title>
<path fill="none" stroke="midnightblue" d="M159.29,-56.32C147.72,-48.11 130.12,-35.6 116.34,-25.81"/>
<polygon fill="midnightblue" stroke="midnightblue" points="118.11,-22.77 107.93,-19.83 114.06,-28.48 118.11,-22.77"/>
</g>
<!-- Node4&#45;&gt;Node5 -->
<g id="edge6" class="edge">
<title>Node4&#45;&gt;Node5</title>
<path fill="none" stroke="midnightblue" d="M173.32,-56.08C174.77,-48.93 176.87,-38.64 178.69,-29.69"/>
<polygon fill="midnightblue" stroke="midnightblue" points="182.15,-30.25 180.72,-19.75 175.29,-28.85 182.15,-30.25"/>
</g>
<!-- Node4&#45;&gt;Node6 -->
<g id="edge7" class="edge">
<title>Node4&#45;&gt;Node6</title>
<path fill="none" stroke="midnightblue" d="M195.11,-56.44C219.96,-47.44 259.27,-33.19 287.25,-23.05"/>
<polygon fill="midnightblue" stroke="midnightblue" points="288.79,-26.21 297,-19.52 286.41,-19.63 288.79,-26.21"/>
</g>
</g>
</svg>
