<?xml version="1.0" encoding="UTF-8" standalone="no"?>
<!DOCTYPE svg PUBLIC "-//W3C//DTD SVG 1.1//EN"
 "http://www.w3.org/Graphics/SVG/1.1/DTD/svg11.dtd">
<!-- Generated by graphviz version 2.49.0 (20210830.1337)
 -->
<!-- Title: typeClassDefs/wb_count.c Pages: 1 -->
<svg width="427pt" height="140pt"
 viewBox="0.00 0.00 427.00 140.00" xmlns="http://www.w3.org/2000/svg" xmlns:xlink="http://www.w3.org/1999/xlink">
<g id="graph0" class="graph" transform="scale(1 1) rotate(0) translate(4 136)">
<title>typeClassDefs/wb_count.c</title>
<!-- Node1 -->
<g id="node1" class="node">
<title>Node1</title>
<g id="a_node1"><a xlink:title=" ">
<polygon fill="#bfbfbf" stroke="black" points="166.5,-112.5 166.5,-131.5 298.5,-131.5 298.5,-112.5 166.5,-112.5"/>
<text text-anchor="middle" x="232.5" y="-119.5" font-family="Helvetica,sans-Serif" font-size="10.00">typeClassDefs/wb_count.c</text>
</a>
</g>
</g>
<!-- Node2 -->
<g id="node2" class="node">
<title>Node2</title>
<g id="a_node2"><a xlink:href="wb__count_8h.html" target="_top" xlink:title=" ">
<polygon fill="none" stroke="black" points="27.5,-56.5 27.5,-75.5 93.5,-75.5 93.5,-56.5 27.5,-56.5"/>
<text text-anchor="middle" x="60.5" y="-63.5" font-family="Helvetica,sans-Serif" font-size="10.00">wb_count.h</text>
</a>
</g>
</g>
<!-- Node1&#45;&gt;Node2 -->
<g id="edge1" class="edge">
<title>Node1&#45;&gt;Node2</title>
<path fill="none" stroke="midnightblue" d="M205.25,-112.44C176.06,-103.28 129.58,-88.69 97.19,-78.52"/>
<polygon fill="midnightblue" stroke="midnightblue" points="98.22,-75.17 87.63,-75.52 96.12,-81.85 98.22,-75.17"/>
</g>
<!-- Node5 -->
<g id="node5" class="node">
<title>Node5</title>
<g id="a_node5"><a xlink:title=" ">
<polygon fill="none" stroke="#bfbfbf" points="112,-56.5 112,-75.5 157,-75.5 157,-56.5 112,-56.5"/>
<text text-anchor="middle" x="134.5" y="-63.5" font-family="Helvetica,sans-Serif" font-size="10.00">stdio.h</text>
</a>
</g>
</g>
<!-- Node1&#45;&gt;Node5 -->
<g id="edge4" class="edge">
<title>Node1&#45;&gt;Node5</title>
<path fill="none" stroke="midnightblue" d="M216.75,-112.32C201.18,-103.74 177.12,-90.49 159.04,-80.52"/>
<polygon fill="midnightblue" stroke="midnightblue" points="160.65,-77.42 150.21,-75.65 157.28,-83.55 160.65,-77.42"/>
</g>
<!-- Node6 -->
<g id="node6" class="node">
<title>Node6</title>
<g id="a_node6"><a xlink:title=" ">
<polygon fill="none" stroke="#bfbfbf" points="175.5,-56.5 175.5,-75.5 223.5,-75.5 223.5,-56.5 175.5,-56.5"/>
<text text-anchor="middle" x="199.5" y="-63.5" font-family="Helvetica,sans-Serif" font-size="10.00">string.h</text>
</a>
</g>
</g>
<!-- Node1&#45;&gt;Node6 -->
<g id="edge5" class="edge">
<title>Node1&#45;&gt;Node6</title>
<path fill="none" stroke="midnightblue" d="M227.05,-112.08C222.49,-104.61 215.83,-93.72 210.21,-84.52"/>
<polygon fill="midnightblue" stroke="midnightblue" points="213.05,-82.46 204.85,-75.75 207.08,-86.11 213.05,-82.46"/>
</g>
<!-- Node7 -->
<g id="node7" class="node">
<title>Node7</title>
<g id="a_node7"><a xlink:title=" ">
<polygon fill="none" stroke="#bfbfbf" points="242,-56.5 242,-75.5 289,-75.5 289,-56.5 242,-56.5"/>
<text text-anchor="middle" x="265.5" y="-63.5" font-family="Helvetica,sans-Serif" font-size="10.00">stdlib.h</text>
</a>
</g>
</g>
<!-- Node1&#45;&gt;Node7 -->
<g id="edge6" class="edge">
<title>Node1&#45;&gt;Node7</title>
<path fill="none" stroke="midnightblue" d="M237.95,-112.08C242.51,-104.61 249.17,-93.72 254.79,-84.52"/>
<polygon fill="midnightblue" stroke="midnightblue" points="257.92,-86.11 260.15,-75.75 251.95,-82.46 257.92,-86.11"/>
</g>
<!-- Node8 -->
<g id="node8" class="node">
<title>Node8</title>
<g id="a_node8"><a xlink:title=" ">
<polygon fill="none" stroke="#bfbfbf" points="307,-56.5 307,-75.5 354,-75.5 354,-56.5 307,-56.5"/>
<text text-anchor="middle" x="330.5" y="-63.5" font-family="Helvetica,sans-Serif" font-size="10.00">ctype.h</text>
</a>
</g>
</g>
<!-- Node1&#45;&gt;Node8 -->
<g id="edge7" class="edge">
<title>Node1&#45;&gt;Node8</title>
<path fill="none" stroke="midnightblue" d="M248.25,-112.32C263.82,-103.74 287.88,-90.49 305.96,-80.52"/>
<polygon fill="midnightblue" stroke="midnightblue" points="307.72,-83.55 314.79,-75.65 304.35,-77.42 307.72,-83.55"/>
</g>
<!-- Node9 -->
<g id="node9" class="node">
<title>Node9</title>
<g id="a_node9"><a xlink:title=" ">
<polygon fill="none" stroke="#bfbfbf" points="372,-56.5 372,-75.5 419,-75.5 419,-56.5 372,-56.5"/>
<text text-anchor="middle" x="395.5" y="-63.5" font-family="Helvetica,sans-Serif" font-size="10.00">limits.h</text>
</a>
</g>
</g>
<!-- Node1&#45;&gt;Node9 -->
<g id="edge8" class="edge">
<title>Node1&#45;&gt;Node9</title>
<path fill="none" stroke="midnightblue" d="M258.33,-112.44C286.39,-103.15 331.33,-88.26 362.07,-78.07"/>
<polygon fill="midnightblue" stroke="midnightblue" points="363.52,-81.28 371.91,-74.82 361.32,-74.64 363.52,-81.28"/>
</g>
<!-- Node3 -->
<g id="node3" class="node">
<title>Node3</title>
<g id="a_node3"><a xlink:title=" ">
<polygon fill="none" stroke="#bfbfbf" points="0,-0.5 0,-19.5 53,-19.5 53,-0.5 0,-0.5"/>
<text text-anchor="middle" x="26.5" y="-7.5" font-family="Helvetica,sans-Serif" font-size="10.00">gu_util.h</text>
</a>
</g>
</g>
<!-- Node2&#45;&gt;Node3 -->
<g id="edge2" class="edge">
<title>Node2&#45;&gt;Node3</title>
<path fill="none" stroke="midnightblue" d="M54.89,-56.08C50.13,-48.53 43.18,-37.49 37.35,-28.23"/>
<polygon fill="midnightblue" stroke="midnightblue" points="40.3,-26.35 32.01,-19.75 34.38,-30.08 40.3,-26.35"/>
</g>
<!-- Node4 -->
<g id="node4" class="node">
<title>Node4</title>
<g id="a_node4"><a xlink:title=" ">
<polygon fill="none" stroke="#bfbfbf" points="71.5,-0.5 71.5,-19.5 119.5,-19.5 119.5,-0.5 71.5,-0.5"/>
<text text-anchor="middle" x="95.5" y="-7.5" font-family="Helvetica,sans-Serif" font-size="10.00">stdint.h</text>
</a>
</g>
</g>
<!-- Node2&#45;&gt;Node4 -->
<g id="edge3" class="edge">
<title>Node2&#45;&gt;Node4</title>
<path fill="none" stroke="midnightblue" d="M66.28,-56.08C71.17,-48.53 78.33,-37.49 84.33,-28.23"/>
<polygon fill="midnightblue" stroke="midnightblue" points="87.33,-30.05 89.83,-19.75 81.45,-26.24 87.33,-30.05"/>
</g>
</g>
</svg>
