<?xml version="1.0" encoding="UTF-8" standalone="no"?>
<!DOCTYPE svg PUBLIC "-//W3C//DTD SVG 1.1//EN"
 "http://www.w3.org/Graphics/SVG/1.1/DTD/svg11.dtd">
<!-- Generated by graphviz version 2.49.0 (20210830.1337)
 -->
<!-- Title: typeClassDefs/wb_microphone_frequencies.h Pages: 1 -->
<svg width="715pt" height="419pt"
 viewBox="0.00 0.00 715.00 419.00" xmlns="http://www.w3.org/2000/svg" xmlns:xlink="http://www.w3.org/1999/xlink">
<g id="graph0" class="graph" transform="scale(1 1) rotate(0) translate(4 415)">
<title>typeClassDefs/wb_microphone_frequencies.h</title>
<!-- Node1 -->
<g id="node1" class="node">
<title>Node1</title>
<g id="a_node1"><a xlink:title=" ">
<polygon fill="#bfbfbf" stroke="black" points="392,-380.5 392,-410.5 543,-410.5 543,-380.5 392,-380.5"/>
<text text-anchor="start" x="400" y="-398.5" font-family="Helvetica,sans-Serif" font-size="10.00">typeClassDefs/wb_microphone</text>
<text text-anchor="middle" x="467.5" y="-387.5" font-family="Helvetica,sans-Serif" font-size="10.00">_frequencies.h</text>
</a>
</g>
</g>
<!-- Node2 -->
<g id="node2" class="node">
<title>Node2</title>
<g id="a_node2"><a xlink:href="_microphone_frequencies_8hpp.html" target="_top" xlink:title=" ">
<polygon fill="none" stroke="black" points="239,-313.5 239,-343.5 372,-343.5 372,-313.5 239,-313.5"/>
<text text-anchor="start" x="247" y="-331.5" font-family="Helvetica,sans-Serif" font-size="10.00">typeClassDefs/Microphone</text>
<text text-anchor="middle" x="305.5" y="-320.5" font-family="Helvetica,sans-Serif" font-size="10.00">Frequencies.hpp</text>
</a>
</g>
</g>
<!-- Node1&#45;&gt;Node2 -->
<g id="edge1" class="edge">
<title>Node1&#45;&gt;Node2</title>
<path fill="none" stroke="midnightblue" d="M422.75,-376.54C396.83,-366.14 364.66,-353.24 340.58,-343.58"/>
<polygon fill="midnightblue" stroke="midnightblue" points="421.76,-379.92 432.35,-380.4 424.37,-373.42 421.76,-379.92"/>
</g>
<!-- Node12 -->
<g id="node12" class="node">
<title>Node12</title>
<g id="a_node12"><a xlink:href="wb__dominant__frequencies_8h.html" target="_top" xlink:title=" ">
<polygon fill="none" stroke="black" points="397.5,-313.5 397.5,-343.5 537.5,-343.5 537.5,-313.5 397.5,-313.5"/>
<text text-anchor="start" x="405.5" y="-331.5" font-family="Helvetica,sans-Serif" font-size="10.00">typeClassDefs/wb_dominant</text>
<text text-anchor="middle" x="467.5" y="-320.5" font-family="Helvetica,sans-Serif" font-size="10.00">_frequencies.h</text>
</a>
</g>
</g>
<!-- Node1&#45;&gt;Node12 -->
<g id="edge11" class="edge">
<title>Node1&#45;&gt;Node12</title>
<path fill="none" stroke="midnightblue" d="M467.5,-370.11C467.5,-361.15 467.5,-351.32 467.5,-343.58"/>
<polygon fill="midnightblue" stroke="midnightblue" points="464,-370.4 467.5,-380.4 471,-370.4 464,-370.4"/>
</g>
<!-- Node17 -->
<g id="node17" class="node">
<title>Node17</title>
<g id="a_node17"><a xlink:href="wb__microphone__frequencies_8c.html" target="_top" xlink:title=" ">
<polygon fill="none" stroke="black" points="556,-313.5 556,-343.5 707,-343.5 707,-313.5 556,-313.5"/>
<text text-anchor="start" x="564" y="-331.5" font-family="Helvetica,sans-Serif" font-size="10.00">typeClassDefs/wb_microphone</text>
<text text-anchor="middle" x="631.5" y="-320.5" font-family="Helvetica,sans-Serif" font-size="10.00">_frequencies.c</text>
</a>
</g>
</g>
<!-- Node1&#45;&gt;Node17 -->
<g id="edge17" class="edge">
<title>Node1&#45;&gt;Node17</title>
<path fill="none" stroke="midnightblue" d="M512.46,-376.68C538.76,-366.26 571.5,-353.28 595.98,-343.58"/>
<polygon fill="midnightblue" stroke="midnightblue" points="511.09,-373.46 503.09,-380.4 513.67,-379.97 511.09,-373.46"/>
</g>
<!-- Node3 -->
<g id="node3" class="node">
<title>Node3</title>
<g id="a_node3"><a xlink:href="_microphone_frequencies_8h.html" target="_top" xlink:title=" ">
<polygon fill="none" stroke="black" points="225,-246.5 225,-276.5 358,-276.5 358,-246.5 225,-246.5"/>
<text text-anchor="start" x="233" y="-264.5" font-family="Helvetica,sans-Serif" font-size="10.00">typeClassDefs/Microphone</text>
<text text-anchor="middle" x="291.5" y="-253.5" font-family="Helvetica,sans-Serif" font-size="10.00">Frequencies.h</text>
</a>
</g>
</g>
<!-- Node2&#45;&gt;Node3 -->
<g id="edge2" class="edge">
<title>Node2&#45;&gt;Node3</title>
<path fill="none" stroke="midnightblue" d="M300.31,-303.4C298.36,-294.37 296.22,-284.41 294.53,-276.58"/>
<polygon fill="midnightblue" stroke="midnightblue" points="296.94,-304.36 302.46,-313.4 303.78,-302.88 296.94,-304.36"/>
</g>
<!-- Node4 -->
<g id="node4" class="node">
<title>Node4</title>
<g id="a_node4"><a xlink:href="_dominant_frequencies_8hpp.html" target="_top" xlink:title=" ">
<polygon fill="none" stroke="black" points="195,-190.5 195,-209.5 390,-209.5 390,-190.5 195,-190.5"/>
<text text-anchor="middle" x="292.5" y="-197.5" font-family="Helvetica,sans-Serif" font-size="10.00">typeClassDefs/DominantFrequencies.hpp</text>
</a>
</g>
</g>
<!-- Node3&#45;&gt;Node4 -->
<g id="edge3" class="edge">
<title>Node3&#45;&gt;Node4</title>
<path fill="none" stroke="midnightblue" d="M291.91,-236.29C292.07,-226.86 292.24,-216.65 292.35,-209.66"/>
<polygon fill="midnightblue" stroke="midnightblue" points="288.41,-236.34 291.74,-246.4 295.4,-236.46 288.41,-236.34"/>
</g>
<!-- Node5 -->
<g id="node5" class="node">
<title>Node5</title>
<g id="a_node5"><a xlink:href="guwhiteboardposter_8h.html" target="_top" xlink:title=" ">
<polygon fill="none" stroke="black" points="156,-134.5 156,-153.5 265,-153.5 265,-134.5 156,-134.5"/>
<text text-anchor="middle" x="210.5" y="-141.5" font-family="Helvetica,sans-Serif" font-size="10.00">guwhiteboardposter.h</text>
</a>
</g>
</g>
<!-- Node4&#45;&gt;Node5 -->
<g id="edge4" class="edge">
<title>Node4&#45;&gt;Node5</title>
<path fill="none" stroke="midnightblue" d="M270.67,-184.62C255.69,-174.76 236.3,-161.99 223.64,-153.65"/>
<polygon fill="midnightblue" stroke="midnightblue" points="269.05,-187.75 279.33,-190.32 272.9,-181.9 269.05,-187.75"/>
</g>
<!-- Node11 -->
<g id="node11" class="node">
<title>Node11</title>
<g id="a_node11"><a xlink:href="_dominant_frequencies_8h.html" target="_top" xlink:title=" ">
<polygon fill="none" stroke="black" points="283,-134.5 283,-153.5 468,-153.5 468,-134.5 283,-134.5"/>
<text text-anchor="middle" x="375.5" y="-141.5" font-family="Helvetica,sans-Serif" font-size="10.00">typeClassDefs/DominantFrequencies.h</text>
</a>
</g>
</g>
<!-- Node4&#45;&gt;Node11 -->
<g id="edge10" class="edge">
<title>Node4&#45;&gt;Node11</title>
<path fill="none" stroke="midnightblue" d="M314.6,-184.62C329.76,-174.76 349.38,-161.99 362.2,-153.65"/>
<polygon fill="midnightblue" stroke="midnightblue" points="312.31,-181.94 305.84,-190.32 316.13,-187.8 312.31,-181.94"/>
</g>
<!-- Node6 -->
<g id="node6" class="node">
<title>Node6</title>
<g id="a_node6"><a xlink:href="_simple_whiteboard_test_8h.html" target="_top" xlink:title=" ">
<polygon fill="none" stroke="black" points="11,-67.5 11,-97.5 136,-97.5 136,-67.5 11,-67.5"/>
<text text-anchor="start" x="19" y="-85.5" font-family="Helvetica,sans-Serif" font-size="10.00">SimpleWhiteboardTest</text>
<text text-anchor="middle" x="73.5" y="-74.5" font-family="Helvetica,sans-Serif" font-size="10.00">/SimpleWhiteboardTest.h</text>
</a>
</g>
</g>
<!-- Node5&#45;&gt;Node6 -->
<g id="edge5" class="edge">
<title>Node5&#45;&gt;Node6</title>
<path fill="none" stroke="midnightblue" d="M181.63,-130.46C159.44,-120.82 128.79,-107.51 105.79,-97.52"/>
<polygon fill="midnightblue" stroke="midnightblue" points="180.3,-133.7 190.87,-134.48 183.09,-127.28 180.3,-133.7"/>
</g>
<!-- Node8 -->
<g id="node8" class="node">
<title>Node8</title>
<g id="a_node8"><a xlink:href="guwhiteboardgetter_8h.html" target="_top" xlink:title=" ">
<polygon fill="none" stroke="black" points="157,-73 157,-92 264,-92 264,-73 157,-73"/>
<text text-anchor="middle" x="210.5" y="-80" font-family="Helvetica,sans-Serif" font-size="10.00">guwhiteboardgetter.h</text>
</a>
</g>
</g>
<!-- Node5&#45;&gt;Node8 -->
<g id="edge7" class="edge">
<title>Node5&#45;&gt;Node8</title>
<path fill="none" stroke="midnightblue" d="M210.5,-124.32C210.5,-113.5 210.5,-100.4 210.5,-92.01"/>
<polygon fill="midnightblue" stroke="midnightblue" points="207,-124.48 210.5,-134.48 214,-124.48 207,-124.48"/>
</g>
<!-- Node10 -->
<g id="node10" class="node">
<title>Node10</title>
<g id="a_node10"><a xlink:href="guwhiteboardposter_8cpp.html" target="_top" xlink:title=" ">
<polygon fill="none" stroke="black" points="282,-73 282,-92 401,-92 401,-73 282,-73"/>
<text text-anchor="middle" x="341.5" y="-80" font-family="Helvetica,sans-Serif" font-size="10.00">guwhiteboardposter.cpp</text>
</a>
</g>
</g>
<!-- Node5&#45;&gt;Node10 -->
<g id="edge9" class="edge">
<title>Node5&#45;&gt;Node10</title>
<path fill="none" stroke="midnightblue" d="M238.4,-130.33C263.83,-118.78 300.7,-102.03 322.77,-92.01"/>
<polygon fill="midnightblue" stroke="midnightblue" points="236.93,-127.15 229.27,-134.48 239.82,-133.53 236.93,-127.15"/>
</g>
<!-- Node7 -->
<g id="node7" class="node">
<title>Node7</title>
<g id="a_node7"><a xlink:href="_simple_whiteboard_test_8mm.html" target="_top" xlink:title=" ">
<polygon fill="none" stroke="black" points="0,-0.5 0,-30.5 137,-30.5 137,-0.5 0,-0.5"/>
<text text-anchor="start" x="8" y="-18.5" font-family="Helvetica,sans-Serif" font-size="10.00">SimpleWhiteboardTest</text>
<text text-anchor="middle" x="68.5" y="-7.5" font-family="Helvetica,sans-Serif" font-size="10.00">/SimpleWhiteboardTest.mm</text>
</a>
</g>
</g>
<!-- Node6&#45;&gt;Node7 -->
<g id="edge6" class="edge">
<title>Node6&#45;&gt;Node7</title>
<path fill="none" stroke="midnightblue" d="M71.65,-57.4C70.95,-48.37 70.19,-38.41 69.58,-30.58"/>
<polygon fill="midnightblue" stroke="midnightblue" points="68.16,-57.69 72.42,-67.4 75.14,-57.16 68.16,-57.69"/>
</g>
<!-- Node9 -->
<g id="node9" class="node">
<title>Node9</title>
<g id="a_node9"><a xlink:href="guwhiteboardgetter_8cpp.html" target="_top" xlink:title=" ">
<polygon fill="none" stroke="black" points="155,-6 155,-25 272,-25 272,-6 155,-6"/>
<text text-anchor="middle" x="213.5" y="-13" font-family="Helvetica,sans-Serif" font-size="10.00">guwhiteboardgetter.cpp</text>
</a>
</g>
</g>
<!-- Node8&#45;&gt;Node9 -->
<g id="edge8" class="edge">
<title>Node8&#45;&gt;Node9</title>
<path fill="none" stroke="midnightblue" d="M211.38,-62.54C211.95,-50.17 212.66,-34.62 213.1,-25.13"/>
<polygon fill="midnightblue" stroke="midnightblue" points="207.87,-62.58 210.9,-72.73 214.86,-62.91 207.87,-62.58"/>
</g>
<!-- Node12&#45;&gt;Node4 -->
<g id="edge15" class="edge">
<title>Node12&#45;&gt;Node4</title>
<path fill="none" stroke="midnightblue" d="M441.93,-306.73C413.31,-283.5 370.4,-248.74 366.5,-246 346.94,-232.25 323.13,-218.22 307.9,-209.56"/>
<polygon fill="midnightblue" stroke="midnightblue" points="439.97,-309.64 449.94,-313.23 444.38,-304.21 439.97,-309.64"/>
</g>
<!-- Node13 -->
<g id="node13" class="node">
<title>Node13</title>
<g id="a_node13"><a xlink:href="guwhiteboard__c__types_8h.html" target="_top" xlink:title=" ">
<polygon fill="none" stroke="black" points="415,-252 415,-271 536,-271 536,-252 415,-252"/>
<text text-anchor="middle" x="475.5" y="-259" font-family="Helvetica,sans-Serif" font-size="10.00">guwhiteboard_c_types.h</text>
</a>
</g>
</g>
<!-- Node12&#45;&gt;Node13 -->
<g id="edge12" class="edge">
<title>Node12&#45;&gt;Node13</title>
<path fill="none" stroke="midnightblue" d="M470.48,-303.25C471.87,-292.02 473.42,-279.38 474.43,-271.19"/>
<polygon fill="midnightblue" stroke="midnightblue" points="466.98,-303.04 469.24,-313.4 473.93,-303.9 466.98,-303.04"/>
</g>
<!-- Node16 -->
<g id="node16" class="node">
<title>Node16</title>
<g id="a_node16"><a xlink:href="wb__dominant__frequencies_8c.html" target="_top" xlink:title=" ">
<polygon fill="none" stroke="black" points="554.5,-246.5 554.5,-276.5 694.5,-276.5 694.5,-246.5 554.5,-246.5"/>
<text text-anchor="start" x="562.5" y="-264.5" font-family="Helvetica,sans-Serif" font-size="10.00">typeClassDefs/wb_dominant</text>
<text text-anchor="middle" x="624.5" y="-253.5" font-family="Helvetica,sans-Serif" font-size="10.00">_frequencies.c</text>
</a>
</g>
</g>
<!-- Node12&#45;&gt;Node16 -->
<g id="edge16" class="edge">
<title>Node12&#45;&gt;Node16</title>
<path fill="none" stroke="midnightblue" d="M510.87,-309.54C535.99,-299.14 567.16,-286.24 590.5,-276.58"/>
<polygon fill="midnightblue" stroke="midnightblue" points="509.47,-306.34 501.57,-313.4 512.14,-312.8 509.47,-306.34"/>
</g>
<!-- Node14 -->
<g id="node14" class="node">
<title>Node14</title>
<g id="a_node14"><a xlink:href="guwhiteboarddeserialiser_8c.html" target="_top" xlink:title=" ">
<polygon fill="none" stroke="black" points="409,-190.5 409,-209.5 540,-209.5 540,-190.5 409,-190.5"/>
<text text-anchor="middle" x="474.5" y="-197.5" font-family="Helvetica,sans-Serif" font-size="10.00">guwhiteboarddeserialiser.c</text>
</a>
</g>
</g>
<!-- Node13&#45;&gt;Node14 -->
<g id="edge13" class="edge">
<title>Node13&#45;&gt;Node14</title>
<path fill="none" stroke="midnightblue" d="M475.19,-241.82C475,-231 474.78,-217.9 474.64,-209.51"/>
<polygon fill="midnightblue" stroke="midnightblue" points="471.69,-242.04 475.36,-251.98 478.69,-241.92 471.69,-242.04"/>
</g>
<!-- Node15 -->
<g id="node15" class="node">
<title>Node15</title>
<g id="a_node15"><a xlink:href="guwhiteboardserialiser_8c.html" target="_top" xlink:title=" ">
<polygon fill="none" stroke="black" points="558,-190.5 558,-209.5 679,-209.5 679,-190.5 558,-190.5"/>
<text text-anchor="middle" x="618.5" y="-197.5" font-family="Helvetica,sans-Serif" font-size="10.00">guwhiteboardserialiser.c</text>
</a>
</g>
</g>
<!-- Node13&#45;&gt;Node15 -->
<g id="edge14" class="edge">
<title>Node13&#45;&gt;Node15</title>
<path fill="none" stroke="midnightblue" d="M505.23,-248.13C533.01,-236.57 573.75,-219.62 598.05,-209.51"/>
<polygon fill="midnightblue" stroke="midnightblue" points="503.88,-244.9 495.99,-251.98 506.57,-251.36 503.88,-244.9"/>
</g>
</g>
</svg>
