<?xml version="1.0" encoding="UTF-8" standalone="no"?>
<!DOCTYPE svg PUBLIC "-//W3C//DTD SVG 1.1//EN"
 "http://www.w3.org/Graphics/SVG/1.1/DTD/svg11.dtd">
<!-- Generated by graphviz version 2.49.0 (20210830.1337)
 -->
<!-- Title: typeClassDefs/wb_dominant_frequencies.c Pages: 1 -->
<svg width="855pt" height="207pt"
 viewBox="0.00 0.00 855.00 207.00" xmlns="http://www.w3.org/2000/svg" xmlns:xlink="http://www.w3.org/1999/xlink">
<g id="graph0" class="graph" transform="scale(1 1) rotate(0) translate(4 203)">
<title>typeClassDefs/wb_dominant_frequencies.c</title>
<!-- Node1 -->
<g id="node1" class="node">
<title>Node1</title>
<g id="a_node1"><a xlink:title=" ">
<polygon fill="#bfbfbf" stroke="black" points="557.5,-168.5 557.5,-198.5 697.5,-198.5 697.5,-168.5 557.5,-168.5"/>
<text text-anchor="start" x="565.5" y="-186.5" font-family="Helvetica,sans-Serif" font-size="10.00">typeClassDefs/wb_dominant</text>
<text text-anchor="middle" x="627.5" y="-175.5" font-family="Helvetica,sans-Serif" font-size="10.00">_frequencies.c</text>
</a>
</g>
</g>
<!-- Node2 -->
<g id="node2" class="node">
<title>Node2</title>
<g id="a_node2"><a xlink:href="gusimplewhiteboard_8h.html" target="_top" xlink:title=" ">
<polygon fill="none" stroke="black" points="173.5,-112.5 173.5,-131.5 283.5,-131.5 283.5,-112.5 173.5,-112.5"/>
<text text-anchor="middle" x="228.5" y="-119.5" font-family="Helvetica,sans-Serif" font-size="10.00">gusimplewhiteboard.h</text>
</a>
</g>
</g>
<!-- Node1&#45;&gt;Node2 -->
<g id="edge1" class="edge">
<title>Node1&#45;&gt;Node2</title>
<path fill="none" stroke="midnightblue" d="M557.09,-172C482.62,-160.9 366.11,-143.52 293.69,-132.72"/>
<polygon fill="midnightblue" stroke="midnightblue" points="294.18,-129.26 283.77,-131.24 293.14,-136.18 294.18,-129.26"/>
</g>
<!-- Node7 -->
<g id="node7" class="node">
<title>Node7</title>
<g id="a_node7"><a xlink:href="wb__dominant__frequencies_8h.html" target="_top" xlink:title=" ">
<polygon fill="none" stroke="black" points="385,-112.5 385,-131.5 522,-131.5 522,-112.5 385,-112.5"/>
<text text-anchor="middle" x="453.5" y="-119.5" font-family="Helvetica,sans-Serif" font-size="10.00">wb_dominant_frequencies.h</text>
</a>
</g>
</g>
<!-- Node1&#45;&gt;Node7 -->
<g id="edge6" class="edge">
<title>Node1&#45;&gt;Node7</title>
<path fill="none" stroke="midnightblue" d="M586.26,-168.4C556.33,-158.16 516.29,-144.47 488.03,-134.81"/>
<polygon fill="midnightblue" stroke="midnightblue" points="489.16,-131.49 478.56,-131.57 486.89,-138.12 489.16,-131.49"/>
</g>
<!-- Node12 -->
<g id="node12" class="node">
<title>Node12</title>
<g id="a_node12"><a xlink:title=" ">
<polygon fill="none" stroke="#bfbfbf" points="540,-112.5 540,-131.5 585,-131.5 585,-112.5 540,-112.5"/>
<text text-anchor="middle" x="562.5" y="-119.5" font-family="Helvetica,sans-Serif" font-size="10.00">stdio.h</text>
</a>
</g>
</g>
<!-- Node1&#45;&gt;Node12 -->
<g id="edge15" class="edge">
<title>Node1&#45;&gt;Node12</title>
<path fill="none" stroke="midnightblue" d="M612.1,-168.4C602.26,-159.4 589.51,-147.72 579.39,-138.47"/>
<polygon fill="midnightblue" stroke="midnightblue" points="581.7,-135.83 571.96,-131.66 576.97,-140.99 581.7,-135.83"/>
</g>
<!-- Node13 -->
<g id="node13" class="node">
<title>Node13</title>
<g id="a_node13"><a xlink:title=" ">
<polygon fill="none" stroke="#bfbfbf" points="603.5,-112.5 603.5,-131.5 651.5,-131.5 651.5,-112.5 603.5,-112.5"/>
<text text-anchor="middle" x="627.5" y="-119.5" font-family="Helvetica,sans-Serif" font-size="10.00">string.h</text>
</a>
</g>
</g>
<!-- Node1&#45;&gt;Node13 -->
<g id="edge16" class="edge">
<title>Node1&#45;&gt;Node13</title>
<path fill="none" stroke="midnightblue" d="M627.5,-168.4C627.5,-160.47 627.5,-150.46 627.5,-141.86"/>
<polygon fill="midnightblue" stroke="midnightblue" points="631,-141.66 627.5,-131.66 624,-141.66 631,-141.66"/>
</g>
<!-- Node14 -->
<g id="node14" class="node">
<title>Node14</title>
<g id="a_node14"><a xlink:title=" ">
<polygon fill="none" stroke="#bfbfbf" points="670,-112.5 670,-131.5 717,-131.5 717,-112.5 670,-112.5"/>
<text text-anchor="middle" x="693.5" y="-119.5" font-family="Helvetica,sans-Serif" font-size="10.00">stdlib.h</text>
</a>
</g>
</g>
<!-- Node1&#45;&gt;Node14 -->
<g id="edge17" class="edge">
<title>Node1&#45;&gt;Node14</title>
<path fill="none" stroke="midnightblue" d="M643.14,-168.4C653.13,-159.4 666.08,-147.72 676.35,-138.47"/>
<polygon fill="midnightblue" stroke="midnightblue" points="678.81,-140.95 683.9,-131.66 674.13,-135.75 678.81,-140.95"/>
</g>
<!-- Node15 -->
<g id="node15" class="node">
<title>Node15</title>
<g id="a_node15"><a xlink:title=" ">
<polygon fill="none" stroke="#bfbfbf" points="735,-112.5 735,-131.5 782,-131.5 782,-112.5 735,-112.5"/>
<text text-anchor="middle" x="758.5" y="-119.5" font-family="Helvetica,sans-Serif" font-size="10.00">ctype.h</text>
</a>
</g>
</g>
<!-- Node1&#45;&gt;Node15 -->
<g id="edge18" class="edge">
<title>Node1&#45;&gt;Node15</title>
<path fill="none" stroke="midnightblue" d="M658.55,-168.4C680.23,-158.55 708.96,-145.5 730.05,-135.92"/>
<polygon fill="midnightblue" stroke="midnightblue" points="731.78,-138.98 739.44,-131.66 728.89,-132.61 731.78,-138.98"/>
</g>
<!-- Node16 -->
<g id="node16" class="node">
<title>Node16</title>
<g id="a_node16"><a xlink:title=" ">
<polygon fill="none" stroke="#bfbfbf" points="800,-112.5 800,-131.5 847,-131.5 847,-112.5 800,-112.5"/>
<text text-anchor="middle" x="823.5" y="-119.5" font-family="Helvetica,sans-Serif" font-size="10.00">limits.h</text>
</a>
</g>
</g>
<!-- Node1&#45;&gt;Node16 -->
<g id="edge19" class="edge">
<title>Node1&#45;&gt;Node16</title>
<path fill="none" stroke="midnightblue" d="M673.95,-168.4C709.7,-157.55 758.25,-142.81 790.2,-133.11"/>
<polygon fill="midnightblue" stroke="midnightblue" points="791.41,-136.4 799.96,-130.15 789.37,-129.7 791.41,-136.4"/>
</g>
<!-- Node3 -->
<g id="node3" class="node">
<title>Node3</title>
<g id="a_node3"><a xlink:title=" ">
<polygon fill="none" stroke="#bfbfbf" points="0,-56.5 0,-75.5 101,-75.5 101,-56.5 0,-56.5"/>
<text text-anchor="middle" x="50.5" y="-63.5" font-family="Helvetica,sans-Serif" font-size="10.00">dispatch/dispatch.h</text>
</a>
</g>
</g>
<!-- Node2&#45;&gt;Node3 -->
<g id="edge2" class="edge">
<title>Node2&#45;&gt;Node3</title>
<path fill="none" stroke="midnightblue" d="M200.3,-112.44C170.09,-103.28 121.99,-88.69 88.47,-78.52"/>
<polygon fill="midnightblue" stroke="midnightblue" points="89.16,-75.07 78.57,-75.52 87.13,-81.77 89.16,-75.07"/>
</g>
<!-- Node4 -->
<g id="node4" class="node">
<title>Node4</title>
<g id="a_node4"><a xlink:title=" ">
<polygon fill="none" stroke="#bfbfbf" points="119,-56.5 119,-75.5 184,-75.5 184,-56.5 119,-56.5"/>
<text text-anchor="middle" x="151.5" y="-63.5" font-family="Helvetica,sans-Serif" font-size="10.00">sys/types.h</text>
</a>
</g>
</g>
<!-- Node2&#45;&gt;Node4 -->
<g id="edge3" class="edge">
<title>Node2&#45;&gt;Node4</title>
<path fill="none" stroke="midnightblue" d="M216.13,-112.32C204.34,-104.06 186.37,-91.45 172.36,-81.63"/>
<polygon fill="midnightblue" stroke="midnightblue" points="174.04,-78.53 163.84,-75.65 170.02,-84.26 174.04,-78.53"/>
</g>
<!-- Node5 -->
<g id="node5" class="node">
<title>Node5</title>
<g id="a_node5"><a xlink:title=" ">
<polygon fill="none" stroke="#bfbfbf" points="202,-56.5 202,-75.5 255,-75.5 255,-56.5 202,-56.5"/>
<text text-anchor="middle" x="228.5" y="-63.5" font-family="Helvetica,sans-Serif" font-size="10.00">cstdbool</text>
</a>
</g>
</g>
<!-- Node2&#45;&gt;Node5 -->
<g id="edge4" class="edge">
<title>Node2&#45;&gt;Node5</title>
<path fill="none" stroke="midnightblue" d="M228.5,-112.08C228.5,-105.01 228.5,-94.86 228.5,-85.99"/>
<polygon fill="midnightblue" stroke="midnightblue" points="232,-85.75 228.5,-75.75 225,-85.75 232,-85.75"/>
</g>
<!-- Node6 -->
<g id="node6" class="node">
<title>Node6</title>
<g id="a_node6"><a xlink:title=" ">
<polygon fill="none" stroke="#bfbfbf" points="273.5,-56.5 273.5,-75.5 323.5,-75.5 323.5,-56.5 273.5,-56.5"/>
<text text-anchor="middle" x="298.5" y="-63.5" font-family="Helvetica,sans-Serif" font-size="10.00">unistd.h</text>
</a>
</g>
</g>
<!-- Node2&#45;&gt;Node6 -->
<g id="edge5" class="edge">
<title>Node2&#45;&gt;Node6</title>
<path fill="none" stroke="midnightblue" d="M239.75,-112.32C250.3,-104.18 266.3,-91.84 278.94,-82.09"/>
<polygon fill="midnightblue" stroke="midnightblue" points="281.27,-84.71 287.05,-75.83 276.99,-79.17 281.27,-84.71"/>
</g>
<!-- Node8 -->
<g id="node8" class="node">
<title>Node8</title>
<g id="a_node8"><a xlink:title=" ">
<polygon fill="none" stroke="#bfbfbf" points="427,-0.5 427,-19.5 480,-19.5 480,-0.5 427,-0.5"/>
<text text-anchor="middle" x="453.5" y="-7.5" font-family="Helvetica,sans-Serif" font-size="10.00">gu_util.h</text>
</a>
</g>
</g>
<!-- Node7&#45;&gt;Node8 -->
<g id="edge7" class="edge">
<title>Node7&#45;&gt;Node8</title>
<path fill="none" stroke="midnightblue" d="M421.32,-112.49C402.96,-105.8 381.48,-94.45 370.5,-76 356.12,-51.84 388.89,-33.27 417.4,-22.28"/>
<polygon fill="midnightblue" stroke="midnightblue" points="418.63,-25.55 426.83,-18.84 416.24,-18.98 418.63,-25.55"/>
</g>
<!-- Node9 -->
<g id="node9" class="node">
<title>Node9</title>
<g id="a_node9"><a xlink:title=" ">
<polygon fill="none" stroke="#bfbfbf" points="571.5,-0.5 571.5,-19.5 619.5,-19.5 619.5,-0.5 571.5,-0.5"/>
<text text-anchor="middle" x="595.5" y="-7.5" font-family="Helvetica,sans-Serif" font-size="10.00">stdint.h</text>
</a>
</g>
</g>
<!-- Node7&#45;&gt;Node9 -->
<g id="edge8" class="edge">
<title>Node7&#45;&gt;Node9</title>
<path fill="none" stroke="midnightblue" d="M507.38,-112.48C563.71,-103.02 645.24,-87.57 654.5,-76 669.4,-57.39 644.06,-37.25 622.09,-24.4"/>
<polygon fill="midnightblue" stroke="midnightblue" points="623.76,-21.32 613.32,-19.53 620.36,-27.44 623.76,-21.32"/>
</g>
<!-- Node10 -->
<g id="node10" class="node">
<title>Node10</title>
<g id="a_node10"><a xlink:href="wb__microphone__frequencies_8h.html" target="_top" xlink:title=" ">
<polygon fill="none" stroke="black" points="379.5,-56.5 379.5,-75.5 527.5,-75.5 527.5,-56.5 379.5,-56.5"/>
<text text-anchor="middle" x="453.5" y="-63.5" font-family="Helvetica,sans-Serif" font-size="10.00">wb_microphone_frequencies.h</text>
</a>
</g>
</g>
<!-- Node7&#45;&gt;Node10 -->
<g id="edge9" class="edge">
<title>Node7&#45;&gt;Node10</title>
<path fill="none" stroke="midnightblue" d="M453.5,-112.08C453.5,-105.01 453.5,-94.86 453.5,-85.99"/>
<polygon fill="midnightblue" stroke="midnightblue" points="457,-85.75 453.5,-75.75 450,-85.75 457,-85.75"/>
</g>
<!-- Node11 -->
<g id="node11" class="node">
<title>Node11</title>
<g id="a_node11"><a xlink:href="wb__r__m__s__levels_8h.html" target="_top" xlink:title=" ">
<polygon fill="none" stroke="black" points="545.5,-56.5 545.5,-75.5 645.5,-75.5 645.5,-56.5 545.5,-56.5"/>
<text text-anchor="middle" x="595.5" y="-63.5" font-family="Helvetica,sans-Serif" font-size="10.00">wb_r_m_s_levels.h</text>
</a>
</g>
</g>
<!-- Node7&#45;&gt;Node11 -->
<g id="edge12" class="edge">
<title>Node7&#45;&gt;Node11</title>
<path fill="none" stroke="midnightblue" d="M476,-112.44C499.58,-103.48 536.82,-89.31 563.46,-79.18"/>
<polygon fill="midnightblue" stroke="midnightblue" points="565,-82.34 573.1,-75.52 562.51,-75.8 565,-82.34"/>
</g>
<!-- Node10&#45;&gt;Node8 -->
<g id="edge10" class="edge">
<title>Node10&#45;&gt;Node8</title>
<path fill="none" stroke="midnightblue" d="M453.5,-56.08C453.5,-49.01 453.5,-38.86 453.5,-29.99"/>
<polygon fill="midnightblue" stroke="midnightblue" points="457,-29.75 453.5,-19.75 450,-29.75 457,-29.75"/>
</g>
<!-- Node10&#45;&gt;Node9 -->
<g id="edge11" class="edge">
<title>Node10&#45;&gt;Node9</title>
<path fill="none" stroke="midnightblue" d="M476,-56.44C499.58,-47.48 536.82,-33.31 563.46,-23.18"/>
<polygon fill="midnightblue" stroke="midnightblue" points="565,-26.34 573.1,-19.52 562.51,-19.8 565,-26.34"/>
</g>
<!-- Node11&#45;&gt;Node8 -->
<g id="edge13" class="edge">
<title>Node11&#45;&gt;Node8</title>
<path fill="none" stroke="midnightblue" d="M573,-56.44C549.42,-47.48 512.18,-33.31 485.54,-23.18"/>
<polygon fill="midnightblue" stroke="midnightblue" points="486.49,-19.8 475.9,-19.52 484,-26.34 486.49,-19.8"/>
</g>
<!-- Node11&#45;&gt;Node9 -->
<g id="edge14" class="edge">
<title>Node11&#45;&gt;Node9</title>
<path fill="none" stroke="midnightblue" d="M595.5,-56.08C595.5,-49.01 595.5,-38.86 595.5,-29.99"/>
<polygon fill="midnightblue" stroke="midnightblue" points="599,-29.75 595.5,-19.75 592,-29.75 599,-29.75"/>
</g>
</g>
</svg>
