<?xml version="1.0" encoding="UTF-8" standalone="no"?>
<!DOCTYPE svg PUBLIC "-//W3C//DTD SVG 1.1//EN"
 "http://www.w3.org/Graphics/SVG/1.1/DTD/svg11.dtd">
<!-- Generated by graphviz version 2.49.0 (20210830.1337)
 -->
<!-- Title: typeClassDefs/wb_nao_walk_command.h Pages: 1 -->
<svg width="617pt" height="296pt"
 viewBox="0.00 0.00 616.50 296.00" xmlns="http://www.w3.org/2000/svg" xmlns:xlink="http://www.w3.org/1999/xlink">
<g id="graph0" class="graph" transform="scale(1 1) rotate(0) translate(4 292)">
<title>typeClassDefs/wb_nao_walk_command.h</title>
<!-- Node1 -->
<g id="node1" class="node">
<title>Node1</title>
<g id="a_node1"><a xlink:title=" ">
<polygon fill="#bfbfbf" stroke="black" points="312.5,-257.5 312.5,-287.5 428.5,-287.5 428.5,-257.5 312.5,-257.5"/>
<text text-anchor="start" x="320.5" y="-275.5" font-family="Helvetica,sans-Serif" font-size="10.00">typeClassDefs/wb_nao</text>
<text text-anchor="middle" x="370.5" y="-264.5" font-family="Helvetica,sans-Serif" font-size="10.00">_walk_command.h</text>
</a>
</g>
</g>
<!-- Node2 -->
<g id="node2" class="node">
<title>Node2</title>
<g id="a_node2"><a xlink:href="guwhiteboard__c__types_8h.html" target="_top" xlink:title=" ">
<polygon fill="none" stroke="black" points="139,-196 139,-215 260,-215 260,-196 139,-196"/>
<text text-anchor="middle" x="199.5" y="-203" font-family="Helvetica,sans-Serif" font-size="10.00">guwhiteboard_c_types.h</text>
</a>
</g>
</g>
<!-- Node1&#45;&gt;Node2 -->
<g id="edge1" class="edge">
<title>Node1&#45;&gt;Node2</title>
<path fill="none" stroke="midnightblue" d="M323.89,-253.78C290.74,-241.18 247.66,-224.81 221.88,-215.01"/>
<polygon fill="midnightblue" stroke="midnightblue" points="322.8,-257.11 333.4,-257.4 325.29,-250.57 322.8,-257.11"/>
</g>
<!-- Node5 -->
<g id="node5" class="node">
<title>Node5</title>
<g id="a_node5"><a xlink:href="_nao_walk_command_8hpp.html" target="_top" xlink:title=" ">
<polygon fill="none" stroke="black" points="278,-196 278,-215 463,-215 463,-196 278,-196"/>
<text text-anchor="middle" x="370.5" y="-203" font-family="Helvetica,sans-Serif" font-size="10.00">typeClassDefs/NaoWalkCommand.hpp</text>
</a>
</g>
</g>
<!-- Node1&#45;&gt;Node5 -->
<g id="edge4" class="edge">
<title>Node1&#45;&gt;Node5</title>
<path fill="none" stroke="midnightblue" d="M370.5,-247.25C370.5,-236.02 370.5,-223.38 370.5,-215.19"/>
<polygon fill="midnightblue" stroke="midnightblue" points="367,-247.4 370.5,-257.4 374,-247.4 367,-247.4"/>
</g>
<!-- Node13 -->
<g id="node13" class="node">
<title>Node13</title>
<g id="a_node13"><a xlink:href="wb__nao__walk__command_8c.html" target="_top" xlink:title=" ">
<polygon fill="none" stroke="black" points="480.5,-190.5 480.5,-220.5 596.5,-220.5 596.5,-190.5 480.5,-190.5"/>
<text text-anchor="start" x="488.5" y="-208.5" font-family="Helvetica,sans-Serif" font-size="10.00">typeClassDefs/wb_nao</text>
<text text-anchor="middle" x="538.5" y="-197.5" font-family="Helvetica,sans-Serif" font-size="10.00">_walk_command.c</text>
</a>
</g>
</g>
<!-- Node1&#45;&gt;Node13 -->
<g id="edge12" class="edge">
<title>Node1&#45;&gt;Node13</title>
<path fill="none" stroke="midnightblue" d="M416.55,-253.68C443.5,-243.26 477.04,-230.28 502.12,-220.58"/>
<polygon fill="midnightblue" stroke="midnightblue" points="415.02,-250.52 406.95,-257.4 417.54,-257.05 415.02,-250.52"/>
</g>
<!-- Node3 -->
<g id="node3" class="node">
<title>Node3</title>
<g id="a_node3"><a xlink:href="guwhiteboarddeserialiser_8c.html" target="_top" xlink:title=" ">
<polygon fill="none" stroke="black" points="0,-134.5 0,-153.5 131,-153.5 131,-134.5 0,-134.5"/>
<text text-anchor="middle" x="65.5" y="-141.5" font-family="Helvetica,sans-Serif" font-size="10.00">guwhiteboarddeserialiser.c</text>
</a>
</g>
</g>
<!-- Node2&#45;&gt;Node3 -->
<g id="edge2" class="edge">
<title>Node2&#45;&gt;Node3</title>
<path fill="none" stroke="midnightblue" d="M170.96,-191.83C144.95,-180.28 107.24,-163.53 84.66,-153.51"/>
<polygon fill="midnightblue" stroke="midnightblue" points="169.74,-195.12 180.3,-195.98 172.58,-188.72 169.74,-195.12"/>
</g>
<!-- Node4 -->
<g id="node4" class="node">
<title>Node4</title>
<g id="a_node4"><a xlink:href="guwhiteboardserialiser_8c.html" target="_top" xlink:title=" ">
<polygon fill="none" stroke="black" points="149,-134.5 149,-153.5 270,-153.5 270,-134.5 149,-134.5"/>
<text text-anchor="middle" x="209.5" y="-141.5" font-family="Helvetica,sans-Serif" font-size="10.00">guwhiteboardserialiser.c</text>
</a>
</g>
</g>
<!-- Node2&#45;&gt;Node4 -->
<g id="edge3" class="edge">
<title>Node2&#45;&gt;Node4</title>
<path fill="none" stroke="midnightblue" d="M202.64,-185.82C204.46,-175 206.66,-161.9 208.07,-153.51"/>
<polygon fill="midnightblue" stroke="midnightblue" points="199.14,-185.53 200.93,-195.98 206.04,-186.69 199.14,-185.53"/>
</g>
<!-- Node6 -->
<g id="node6" class="node">
<title>Node6</title>
<g id="a_node6"><a xlink:href="guwhiteboardposter_8h.html" target="_top" xlink:title=" ">
<polygon fill="none" stroke="black" points="307,-134.5 307,-153.5 416,-153.5 416,-134.5 307,-134.5"/>
<text text-anchor="middle" x="361.5" y="-141.5" font-family="Helvetica,sans-Serif" font-size="10.00">guwhiteboardposter.h</text>
</a>
</g>
</g>
<!-- Node5&#45;&gt;Node6 -->
<g id="edge5" class="edge">
<title>Node5&#45;&gt;Node6</title>
<path fill="none" stroke="midnightblue" d="M367.67,-185.82C366.04,-175 364.06,-161.9 362.79,-153.51"/>
<polygon fill="midnightblue" stroke="midnightblue" points="364.25,-186.61 369.21,-195.98 371.18,-185.56 364.25,-186.61"/>
</g>
<!-- Node12 -->
<g id="node12" class="node">
<title>Node12</title>
<g id="a_node12"><a xlink:href="_nao_walk_command_8h.html" target="_top" xlink:title=" ">
<polygon fill="none" stroke="black" points="434.5,-134.5 434.5,-153.5 608.5,-153.5 608.5,-134.5 434.5,-134.5"/>
<text text-anchor="middle" x="521.5" y="-141.5" font-family="Helvetica,sans-Serif" font-size="10.00">typeClassDefs/NaoWalkCommand.h</text>
</a>
</g>
</g>
<!-- Node5&#45;&gt;Node12 -->
<g id="edge11" class="edge">
<title>Node5&#45;&gt;Node12</title>
<path fill="none" stroke="midnightblue" d="M401.51,-192.28C430.85,-180.72 474.13,-163.66 499.91,-153.51"/>
<polygon fill="midnightblue" stroke="midnightblue" points="400.16,-189.05 392.13,-195.98 402.72,-195.57 400.16,-189.05"/>
</g>
<!-- Node7 -->
<g id="node7" class="node">
<title>Node7</title>
<g id="a_node7"><a xlink:href="_simple_whiteboard_test_8h.html" target="_top" xlink:title=" ">
<polygon fill="none" stroke="black" points="162,-67.5 162,-97.5 287,-97.5 287,-67.5 162,-67.5"/>
<text text-anchor="start" x="170" y="-85.5" font-family="Helvetica,sans-Serif" font-size="10.00">SimpleWhiteboardTest</text>
<text text-anchor="middle" x="224.5" y="-74.5" font-family="Helvetica,sans-Serif" font-size="10.00">/SimpleWhiteboardTest.h</text>
</a>
</g>
</g>
<!-- Node6&#45;&gt;Node7 -->
<g id="edge6" class="edge">
<title>Node6&#45;&gt;Node7</title>
<path fill="none" stroke="midnightblue" d="M332.63,-130.46C310.44,-120.82 279.79,-107.51 256.79,-97.52"/>
<polygon fill="midnightblue" stroke="midnightblue" points="331.3,-133.7 341.87,-134.48 334.09,-127.28 331.3,-133.7"/>
</g>
<!-- Node9 -->
<g id="node9" class="node">
<title>Node9</title>
<g id="a_node9"><a xlink:href="guwhiteboardgetter_8h.html" target="_top" xlink:title=" ">
<polygon fill="none" stroke="black" points="308,-73 308,-92 415,-92 415,-73 308,-73"/>
<text text-anchor="middle" x="361.5" y="-80" font-family="Helvetica,sans-Serif" font-size="10.00">guwhiteboardgetter.h</text>
</a>
</g>
</g>
<!-- Node6&#45;&gt;Node9 -->
<g id="edge8" class="edge">
<title>Node6&#45;&gt;Node9</title>
<path fill="none" stroke="midnightblue" d="M361.5,-124.32C361.5,-113.5 361.5,-100.4 361.5,-92.01"/>
<polygon fill="midnightblue" stroke="midnightblue" points="358,-124.48 361.5,-134.48 365,-124.48 358,-124.48"/>
</g>
<!-- Node11 -->
<g id="node11" class="node">
<title>Node11</title>
<g id="a_node11"><a xlink:href="guwhiteboardposter_8cpp.html" target="_top" xlink:title=" ">
<polygon fill="none" stroke="black" points="433,-73 433,-92 552,-92 552,-73 433,-73"/>
<text text-anchor="middle" x="492.5" y="-80" font-family="Helvetica,sans-Serif" font-size="10.00">guwhiteboardposter.cpp</text>
</a>
</g>
</g>
<!-- Node6&#45;&gt;Node11 -->
<g id="edge10" class="edge">
<title>Node6&#45;&gt;Node11</title>
<path fill="none" stroke="midnightblue" d="M389.4,-130.33C414.83,-118.78 451.7,-102.03 473.77,-92.01"/>
<polygon fill="midnightblue" stroke="midnightblue" points="387.93,-127.15 380.27,-134.48 390.82,-133.53 387.93,-127.15"/>
</g>
<!-- Node8 -->
<g id="node8" class="node">
<title>Node8</title>
<g id="a_node8"><a xlink:href="_simple_whiteboard_test_8mm.html" target="_top" xlink:title=" ">
<polygon fill="none" stroke="black" points="151,-0.5 151,-30.5 288,-30.5 288,-0.5 151,-0.5"/>
<text text-anchor="start" x="159" y="-18.5" font-family="Helvetica,sans-Serif" font-size="10.00">SimpleWhiteboardTest</text>
<text text-anchor="middle" x="219.5" y="-7.5" font-family="Helvetica,sans-Serif" font-size="10.00">/SimpleWhiteboardTest.mm</text>
</a>
</g>
</g>
<!-- Node7&#45;&gt;Node8 -->
<g id="edge7" class="edge">
<title>Node7&#45;&gt;Node8</title>
<path fill="none" stroke="midnightblue" d="M222.65,-57.4C221.95,-48.37 221.19,-38.41 220.58,-30.58"/>
<polygon fill="midnightblue" stroke="midnightblue" points="219.16,-57.69 223.42,-67.4 226.14,-57.16 219.16,-57.69"/>
</g>
<!-- Node10 -->
<g id="node10" class="node">
<title>Node10</title>
<g id="a_node10"><a xlink:href="guwhiteboardgetter_8cpp.html" target="_top" xlink:title=" ">
<polygon fill="none" stroke="black" points="306,-6 306,-25 423,-25 423,-6 306,-6"/>
<text text-anchor="middle" x="364.5" y="-13" font-family="Helvetica,sans-Serif" font-size="10.00">guwhiteboardgetter.cpp</text>
</a>
</g>
</g>
<!-- Node9&#45;&gt;Node10 -->
<g id="edge9" class="edge">
<title>Node9&#45;&gt;Node10</title>
<path fill="none" stroke="midnightblue" d="M362.38,-62.54C362.95,-50.17 363.66,-34.62 364.1,-25.13"/>
<polygon fill="midnightblue" stroke="midnightblue" points="358.87,-62.58 361.9,-72.73 365.86,-62.91 358.87,-62.58"/>
</g>
</g>
</svg>
