<?xml version="1.0" encoding="UTF-8" standalone="no"?>
<!DOCTYPE svg PUBLIC "-//W3C//DTD SVG 1.1//EN"
 "http://www.w3.org/Graphics/SVG/1.1/DTD/svg11.dtd">
<!-- Generated by graphviz version 2.49.0 (20210830.1337)
 -->
<!-- Title: typeClassDefs/wb_differential_robot.h Pages: 1 -->
<svg width="194pt" height="151pt"
 viewBox="0.00 0.00 194.00 151.00" xmlns="http://www.w3.org/2000/svg" xmlns:xlink="http://www.w3.org/1999/xlink">
<g id="graph0" class="graph" transform="scale(1 1) rotate(0) translate(4 147)">
<title>typeClassDefs/wb_differential_robot.h</title>
<!-- Node1 -->
<g id="node1" class="node">
<title>Node1</title>
<g id="a_node1"><a xlink:title=" ">
<polygon fill="#bfbfbf" stroke="black" points="41,-112.5 41,-142.5 186,-142.5 186,-112.5 41,-112.5"/>
<text text-anchor="start" x="49" y="-130.5" font-family="Helvetica,sans-Serif" font-size="10.00">typeClassDefs/wb_differential</text>
<text text-anchor="middle" x="113.5" y="-119.5" font-family="Helvetica,sans-Serif" font-size="10.00">_robot.h</text>
</a>
</g>
</g>
<!-- Node2 -->
<g id="node2" class="node">
<title>Node2</title>
<g id="a_node2"><a xlink:title=" ">
<polygon fill="none" stroke="#bfbfbf" points="0,-0.5 0,-19.5 65,-19.5 65,-0.5 0,-0.5"/>
<text text-anchor="middle" x="32.5" y="-7.5" font-family="Helvetica,sans-Serif" font-size="10.00">sys/types.h</text>
</a>
</g>
</g>
<!-- Node1&#45;&gt;Node2 -->
<g id="edge1" class="edge">
<title>Node1&#45;&gt;Node2</title>
<path fill="none" stroke="midnightblue" d="M87.34,-112.48C73.49,-103.76 57.34,-91.28 47.5,-76 38.58,-62.16 34.94,-43.64 33.47,-29.91"/>
<polygon fill="midnightblue" stroke="midnightblue" points="36.94,-29.41 32.67,-19.71 29.96,-29.95 36.94,-29.41"/>
</g>
<!-- Node3 -->
<g id="node3" class="node">
<title>Node3</title>
<g id="a_node3"><a xlink:title=" ">
<polygon fill="none" stroke="#bfbfbf" points="129,-0.5 129,-19.5 182,-19.5 182,-0.5 129,-0.5"/>
<text text-anchor="middle" x="155.5" y="-7.5" font-family="Helvetica,sans-Serif" font-size="10.00">gu_util.h</text>
</a>
</g>
</g>
<!-- Node1&#45;&gt;Node3 -->
<g id="edge2" class="edge">
<title>Node1&#45;&gt;Node3</title>
<path fill="none" stroke="midnightblue" d="M142.41,-112.45C156.35,-103.99 171.7,-91.78 179.5,-76 187.29,-60.23 178.35,-41.26 169.25,-27.9"/>
<polygon fill="midnightblue" stroke="midnightblue" points="171.9,-25.6 163.13,-19.65 166.28,-29.77 171.9,-25.6"/>
</g>
<!-- Node4 -->
<g id="node4" class="node">
<title>Node4</title>
<g id="a_node4"><a xlink:href="wb__kinematic__motor_8h.html" target="_top" xlink:title="Whiteboard Kinematic Motor Class Created by.">
<polygon fill="none" stroke="black" points="56.5,-56.5 56.5,-75.5 170.5,-75.5 170.5,-56.5 56.5,-56.5"/>
<text text-anchor="middle" x="113.5" y="-63.5" font-family="Helvetica,sans-Serif" font-size="10.00">wb_kinematic_motor.h</text>
</a>
</g>
</g>
<!-- Node1&#45;&gt;Node4 -->
<g id="edge3" class="edge">
<title>Node1&#45;&gt;Node4</title>
<path fill="none" stroke="midnightblue" d="M113.5,-112.4C113.5,-104.47 113.5,-94.46 113.5,-85.86"/>
<polygon fill="midnightblue" stroke="midnightblue" points="117,-85.66 113.5,-75.66 110,-85.66 117,-85.66"/>
</g>
<!-- Node4&#45;&gt;Node2 -->
<g id="edge4" class="edge">
<title>Node4&#45;&gt;Node2</title>
<path fill="none" stroke="midnightblue" d="M100.49,-56.32C87.97,-47.98 68.82,-35.21 54.03,-25.35"/>
<polygon fill="midnightblue" stroke="midnightblue" points="55.74,-22.29 45.48,-19.65 51.86,-28.11 55.74,-22.29"/>
</g>
<!-- Node4&#45;&gt;Node3 -->
<g id="edge5" class="edge">
<title>Node4&#45;&gt;Node3</title>
<path fill="none" stroke="midnightblue" d="M120.44,-56.08C126.43,-48.38 135.25,-37.03 142.55,-27.65"/>
<polygon fill="midnightblue" stroke="midnightblue" points="145.32,-29.79 148.69,-19.75 139.79,-25.5 145.32,-29.79"/>
</g>
</g>
</svg>
