<?xml version="1.0" encoding="UTF-8" standalone="no"?>
<!DOCTYPE svg PUBLIC "-//W3C//DTD SVG 1.1//EN"
 "http://www.w3.org/Graphics/SVG/1.1/DTD/svg11.dtd">
<!-- Generated by graphviz version 2.49.0 (20210830.1337)
 -->
<!-- Title: typeClassDefs/wb_vision_detection_horizon.c Pages: 1 -->
<svg width="557pt" height="218pt"
 viewBox="0.00 0.00 557.00 218.00" xmlns="http://www.w3.org/2000/svg" xmlns:xlink="http://www.w3.org/1999/xlink">
<g id="graph0" class="graph" transform="scale(1 1) rotate(0) translate(4 214)">
<title>typeClassDefs/wb_vision_detection_horizon.c</title>
<!-- Node1 -->
<g id="node1" class="node">
<title>Node1</title>
<g id="a_node1"><a xlink:title=" ">
<polygon fill="#bfbfbf" stroke="black" points="299.5,-179.5 299.5,-209.5 425.5,-209.5 425.5,-179.5 299.5,-179.5"/>
<text text-anchor="start" x="307.5" y="-197.5" font-family="Helvetica,sans-Serif" font-size="10.00">typeClassDefs/wb_vision</text>
<text text-anchor="middle" x="362.5" y="-186.5" font-family="Helvetica,sans-Serif" font-size="10.00">_detection_horizon.c</text>
</a>
</g>
</g>
<!-- Node2 -->
<g id="node2" class="node">
<title>Node2</title>
<g id="a_node2"><a xlink:href="wb__vision__detection__horizon_8h.html" target="_top" xlink:title=" ">
<polygon fill="none" stroke="black" points="119,-112.5 119,-142.5 224,-142.5 224,-112.5 119,-112.5"/>
<text text-anchor="start" x="127" y="-130.5" font-family="Helvetica,sans-Serif" font-size="10.00">wb_vision_detection</text>
<text text-anchor="middle" x="171.5" y="-119.5" font-family="Helvetica,sans-Serif" font-size="10.00">_horizon.h</text>
</a>
</g>
</g>
<!-- Node1&#45;&gt;Node2 -->
<g id="edge1" class="edge">
<title>Node1&#45;&gt;Node2</title>
<path fill="none" stroke="midnightblue" d="M321.06,-179.4C292.15,-169.56 253.39,-156.37 222.57,-145.88"/>
<polygon fill="midnightblue" stroke="midnightblue" points="223.46,-142.48 212.86,-142.58 221.2,-149.11 223.46,-142.48"/>
</g>
<!-- Node8 -->
<g id="node8" class="node">
<title>Node8</title>
<g id="a_node8"><a xlink:title=" ">
<polygon fill="none" stroke="#bfbfbf" points="242,-118 242,-137 287,-137 287,-118 242,-118"/>
<text text-anchor="middle" x="264.5" y="-125" font-family="Helvetica,sans-Serif" font-size="10.00">stdio.h</text>
</a>
</g>
</g>
<!-- Node1&#45;&gt;Node8 -->
<g id="edge11" class="edge">
<title>Node1&#45;&gt;Node8</title>
<path fill="none" stroke="midnightblue" d="M341.24,-179.4C324.8,-168.5 302.16,-153.48 285.73,-142.58"/>
<polygon fill="midnightblue" stroke="midnightblue" points="287.59,-139.62 277.33,-137.01 283.72,-145.45 287.59,-139.62"/>
</g>
<!-- Node9 -->
<g id="node9" class="node">
<title>Node9</title>
<g id="a_node9"><a xlink:title=" ">
<polygon fill="none" stroke="#bfbfbf" points="305.5,-118 305.5,-137 353.5,-137 353.5,-118 305.5,-118"/>
<text text-anchor="middle" x="329.5" y="-125" font-family="Helvetica,sans-Serif" font-size="10.00">string.h</text>
</a>
</g>
</g>
<!-- Node1&#45;&gt;Node9 -->
<g id="edge12" class="edge">
<title>Node1&#45;&gt;Node9</title>
<path fill="none" stroke="midnightblue" d="M355.34,-179.4C350.4,-169.66 343.79,-156.65 338.49,-146.21"/>
<polygon fill="midnightblue" stroke="midnightblue" points="341.56,-144.53 333.91,-137.19 335.32,-147.7 341.56,-144.53"/>
</g>
<!-- Node10 -->
<g id="node10" class="node">
<title>Node10</title>
<g id="a_node10"><a xlink:title=" ">
<polygon fill="none" stroke="#bfbfbf" points="372,-118 372,-137 419,-137 419,-118 372,-118"/>
<text text-anchor="middle" x="395.5" y="-125" font-family="Helvetica,sans-Serif" font-size="10.00">stdlib.h</text>
</a>
</g>
</g>
<!-- Node1&#45;&gt;Node10 -->
<g id="edge13" class="edge">
<title>Node1&#45;&gt;Node10</title>
<path fill="none" stroke="midnightblue" d="M369.66,-179.4C374.6,-169.66 381.21,-156.65 386.51,-146.21"/>
<polygon fill="midnightblue" stroke="midnightblue" points="389.68,-147.7 391.09,-137.19 383.44,-144.53 389.68,-147.7"/>
</g>
<!-- Node11 -->
<g id="node11" class="node">
<title>Node11</title>
<g id="a_node11"><a xlink:title=" ">
<polygon fill="none" stroke="#bfbfbf" points="437,-118 437,-137 484,-137 484,-118 437,-118"/>
<text text-anchor="middle" x="460.5" y="-125" font-family="Helvetica,sans-Serif" font-size="10.00">ctype.h</text>
</a>
</g>
</g>
<!-- Node1&#45;&gt;Node11 -->
<g id="edge14" class="edge">
<title>Node1&#45;&gt;Node11</title>
<path fill="none" stroke="midnightblue" d="M383.76,-179.4C400.2,-168.5 422.84,-153.48 439.27,-142.58"/>
<polygon fill="midnightblue" stroke="midnightblue" points="441.28,-145.45 447.67,-137.01 437.41,-139.62 441.28,-145.45"/>
</g>
<!-- Node12 -->
<g id="node12" class="node">
<title>Node12</title>
<g id="a_node12"><a xlink:title=" ">
<polygon fill="none" stroke="#bfbfbf" points="502,-118 502,-137 549,-137 549,-118 502,-118"/>
<text text-anchor="middle" x="525.5" y="-125" font-family="Helvetica,sans-Serif" font-size="10.00">limits.h</text>
</a>
</g>
</g>
<!-- Node1&#45;&gt;Node12 -->
<g id="edge15" class="edge">
<title>Node1&#45;&gt;Node12</title>
<path fill="none" stroke="midnightblue" d="M400.57,-179.49C426.83,-169.66 462.48,-156 493.5,-143 494.87,-142.43 496.27,-141.83 497.68,-141.22"/>
<polygon fill="midnightblue" stroke="midnightblue" points="499.24,-144.36 506.97,-137.12 496.4,-137.96 499.24,-144.36"/>
</g>
<!-- Node3 -->
<g id="node3" class="node">
<title>Node3</title>
<g id="a_node3"><a xlink:title=" ">
<polygon fill="none" stroke="#bfbfbf" points="0,-0.5 0,-19.5 53,-19.5 53,-0.5 0,-0.5"/>
<text text-anchor="middle" x="26.5" y="-7.5" font-family="Helvetica,sans-Serif" font-size="10.00">gu_util.h</text>
</a>
</g>
</g>
<!-- Node2&#45;&gt;Node3 -->
<g id="edge2" class="edge">
<title>Node2&#45;&gt;Node3</title>
<path fill="none" stroke="midnightblue" d="M148.18,-112.44C132.77,-102.81 112.37,-89.4 95.5,-76 76.11,-60.6 55.67,-40.85 42.12,-27.18"/>
<polygon fill="midnightblue" stroke="midnightblue" points="44.5,-24.61 35,-19.91 39.5,-29.51 44.5,-24.61"/>
</g>
<!-- Node4 -->
<g id="node4" class="node">
<title>Node4</title>
<g id="a_node4"><a xlink:title=" ">
<polygon fill="none" stroke="#bfbfbf" points="71.5,-0.5 71.5,-19.5 119.5,-19.5 119.5,-0.5 71.5,-0.5"/>
<text text-anchor="middle" x="95.5" y="-7.5" font-family="Helvetica,sans-Serif" font-size="10.00">stdint.h</text>
</a>
</g>
</g>
<!-- Node2&#45;&gt;Node4 -->
<g id="edge3" class="edge">
<title>Node2&#45;&gt;Node4</title>
<path fill="none" stroke="midnightblue" d="M145.06,-112.41C131.38,-103.73 115.67,-91.33 106.5,-76 98.15,-62.03 95.68,-43.53 95.14,-29.84"/>
<polygon fill="midnightblue" stroke="midnightblue" points="98.64,-29.64 95.05,-19.67 91.64,-29.7 98.64,-29.64"/>
</g>
<!-- Node5 -->
<g id="node5" class="node">
<title>Node5</title>
<g id="a_node5"><a xlink:href="wb__pixel__coordinate_8h.html" target="_top" xlink:title=" ">
<polygon fill="none" stroke="black" points="115.5,-56.5 115.5,-75.5 227.5,-75.5 227.5,-56.5 115.5,-56.5"/>
<text text-anchor="middle" x="171.5" y="-63.5" font-family="Helvetica,sans-Serif" font-size="10.00">wb_pixel_coordinate.h</text>
</a>
</g>
</g>
<!-- Node2&#45;&gt;Node5 -->
<g id="edge4" class="edge">
<title>Node2&#45;&gt;Node5</title>
<path fill="none" stroke="midnightblue" d="M171.5,-112.4C171.5,-104.47 171.5,-94.46 171.5,-85.86"/>
<polygon fill="midnightblue" stroke="midnightblue" points="175,-85.66 171.5,-75.66 168,-85.66 175,-85.66"/>
</g>
<!-- Node6 -->
<g id="node6" class="node">
<title>Node6</title>
<g id="a_node6"><a xlink:title=" ">
<polygon fill="none" stroke="#bfbfbf" points="137.5,-0.5 137.5,-19.5 227.5,-19.5 227.5,-0.5 137.5,-0.5"/>
<text text-anchor="middle" x="182.5" y="-7.5" font-family="Helvetica,sans-Serif" font-size="10.00">guunits/guunits.h</text>
</a>
</g>
</g>
<!-- Node2&#45;&gt;Node6 -->
<g id="edge9" class="edge">
<title>Node2&#45;&gt;Node6</title>
<path fill="none" stroke="midnightblue" d="M199.98,-112.35C213.71,-103.86 228.84,-91.66 236.5,-76 246.14,-56.3 226.1,-37.43 207.76,-25.15"/>
<polygon fill="midnightblue" stroke="midnightblue" points="209.36,-22.03 199.03,-19.68 205.64,-27.96 209.36,-22.03"/>
</g>
<!-- Node7 -->
<g id="node7" class="node">
<title>Node7</title>
<g id="a_node7"><a xlink:title=" ">
<polygon fill="none" stroke="#bfbfbf" points="246,-0.5 246,-19.5 395,-19.5 395,-0.5 246,-0.5"/>
<text text-anchor="middle" x="320.5" y="-7.5" font-family="Helvetica,sans-Serif" font-size="10.00">gucoordinates/gucoordinates.h</text>
</a>
</g>
</g>
<!-- Node2&#45;&gt;Node7 -->
<g id="edge10" class="edge">
<title>Node2&#45;&gt;Node7</title>
<path fill="none" stroke="midnightblue" d="M196.48,-112.42C212.69,-102.88 233.97,-89.58 251.5,-76 271.29,-60.66 291.93,-40.6 305.42,-26.84"/>
<polygon fill="midnightblue" stroke="midnightblue" points="308.03,-29.17 312.47,-19.55 303,-24.3 308.03,-29.17"/>
</g>
<!-- Node5&#45;&gt;Node3 -->
<g id="edge5" class="edge">
<title>Node5&#45;&gt;Node3</title>
<path fill="none" stroke="midnightblue" d="M148.52,-56.44C124.34,-47.44 86.08,-33.19 58.85,-23.05"/>
<polygon fill="midnightblue" stroke="midnightblue" points="59.96,-19.73 49.37,-19.52 57.52,-26.29 59.96,-19.73"/>
</g>
<!-- Node5&#45;&gt;Node4 -->
<g id="edge6" class="edge">
<title>Node5&#45;&gt;Node4</title>
<path fill="none" stroke="midnightblue" d="M159.29,-56.32C147.72,-48.11 130.12,-35.6 116.34,-25.81"/>
<polygon fill="midnightblue" stroke="midnightblue" points="118.11,-22.77 107.93,-19.83 114.06,-28.48 118.11,-22.77"/>
</g>
<!-- Node5&#45;&gt;Node6 -->
<g id="edge7" class="edge">
<title>Node5&#45;&gt;Node6</title>
<path fill="none" stroke="midnightblue" d="M173.32,-56.08C174.77,-48.93 176.87,-38.64 178.69,-29.69"/>
<polygon fill="midnightblue" stroke="midnightblue" points="182.15,-30.25 180.72,-19.75 175.29,-28.85 182.15,-30.25"/>
</g>
<!-- Node5&#45;&gt;Node7 -->
<g id="edge8" class="edge">
<title>Node5&#45;&gt;Node7</title>
<path fill="none" stroke="midnightblue" d="M195.11,-56.44C219.96,-47.44 259.27,-33.19 287.25,-23.05"/>
<polygon fill="midnightblue" stroke="midnightblue" points="288.79,-26.21 297,-19.52 286.41,-19.63 288.79,-26.21"/>
</g>
</g>
</svg>
