<?xml version="1.0" encoding="UTF-8" standalone="no"?>
<!DOCTYPE svg PUBLIC "-//W3C//DTD SVG 1.1//EN"
 "http://www.w3.org/Graphics/SVG/1.1/DTD/svg11.dtd">
<!-- Generated by graphviz version 2.49.0 (20210830.1337)
 -->
<!-- Title: typeClassDefs/wb_filteredsonarobject.h Pages: 1 -->
<svg width="582pt" height="419pt"
 viewBox="0.00 0.00 581.66 419.00" xmlns="http://www.w3.org/2000/svg" xmlns:xlink="http://www.w3.org/1999/xlink">
<g id="graph0" class="graph" transform="scale(1 1) rotate(0) translate(4 415)">
<title>typeClassDefs/wb_filteredsonarobject.h</title>
<!-- Node1 -->
<g id="node1" class="node">
<title>Node1</title>
<g id="a_node1"><a xlink:title="gusimplewhiteboard">
<polygon fill="#bfbfbf" stroke="black" points="100,-391.5 100,-410.5 287,-410.5 287,-391.5 100,-391.5"/>
<text text-anchor="middle" x="193.5" y="-398.5" font-family="Helvetica,sans-Serif" font-size="10.00">typeClassDefs/wb_filteredsonarobject.h</text>
</a>
</g>
</g>
<!-- Node2 -->
<g id="node2" class="node">
<title>Node2</title>
<g id="a_node2"><a xlink:href="_simple_whiteboard_test_plain_c_8m.html" target="_top" xlink:title=" ">
<polygon fill="none" stroke="black" points="8,-257.5 8,-287.5 165,-287.5 165,-257.5 8,-257.5"/>
<text text-anchor="start" x="16" y="-275.5" font-family="Helvetica,sans-Serif" font-size="10.00">SimpleWhiteboardTest</text>
<text text-anchor="middle" x="86.5" y="-264.5" font-family="Helvetica,sans-Serif" font-size="10.00">/SimpleWhiteboardTestPlainC.m</text>
</a>
</g>
</g>
<!-- Node1&#45;&gt;Node2 -->
<g id="edge1" class="edge">
<title>Node1&#45;&gt;Node2</title>
<path fill="none" stroke="midnightblue" d="M171.15,-385.62C159.64,-377.52 145.88,-366.69 135.5,-355 116.75,-333.89 101.19,-304.62 92.92,-287.51"/>
<polygon fill="midnightblue" stroke="midnightblue" points="169.19,-388.51 179.42,-391.25 173.13,-382.73 169.19,-388.51"/>
</g>
<!-- Node3 -->
<g id="node3" class="node">
<title>Node3</title>
<g id="a_node3"><a xlink:href="guwhiteboard__c__types__manual__definitions_8h.html" target="_top" xlink:title=" ">
<polygon fill="none" stroke="black" points="183,-257.5 183,-287.5 296,-287.5 296,-257.5 183,-257.5"/>
<text text-anchor="start" x="191" y="-275.5" font-family="Helvetica,sans-Serif" font-size="10.00">guwhiteboard_c_types</text>
<text text-anchor="middle" x="239.5" y="-264.5" font-family="Helvetica,sans-Serif" font-size="10.00">_manual_definitions.h</text>
</a>
</g>
</g>
<!-- Node1&#45;&gt;Node3 -->
<g id="edge2" class="edge">
<title>Node1&#45;&gt;Node3</title>
<path fill="none" stroke="midnightblue" d="M170.25,-385.68C160.02,-377.99 149.07,-367.5 143.5,-355 137.89,-342.41 136.38,-335.79 143.5,-324 153.82,-306.91 172.05,-295.32 189.88,-287.6"/>
<polygon fill="midnightblue" stroke="midnightblue" points="168.34,-388.62 178.55,-391.47 172.35,-382.88 168.34,-388.62"/>
</g>
<!-- Node7 -->
<g id="node7" class="node">
<title>Node7</title>
<g id="a_node7"><a xlink:href="_filtered_one_dim_sonar_8hpp.html" target="_top" xlink:title=" ">
<polygon fill="none" stroke="black" points="392,-324.5 392,-354.5 525,-354.5 525,-324.5 392,-324.5"/>
<text text-anchor="start" x="400" y="-342.5" font-family="Helvetica,sans-Serif" font-size="10.00">typeClassDefs/FilteredOne</text>
<text text-anchor="middle" x="458.5" y="-331.5" font-family="Helvetica,sans-Serif" font-size="10.00">DimSonar.hpp</text>
</a>
</g>
</g>
<!-- Node1&#45;&gt;Node7 -->
<g id="edge6" class="edge">
<title>Node1&#45;&gt;Node7</title>
<path fill="none" stroke="midnightblue" d="M241.47,-389.23C284.77,-379.51 348.76,-365.14 396.04,-354.52"/>
<polygon fill="midnightblue" stroke="midnightblue" points="240.46,-385.87 231.47,-391.48 241.99,-392.7 240.46,-385.87"/>
</g>
<!-- Node17 -->
<g id="node17" class="node">
<title>Node17</title>
<g id="a_node17"><a xlink:href="wb__arrayoffilteredsonarobjects_8h.html" target="_top" xlink:title="gusimplewhiteboard">
<polygon fill="none" stroke="black" points="153,-330 153,-349 374,-349 374,-330 153,-330"/>
<text text-anchor="middle" x="263.5" y="-337" font-family="Helvetica,sans-Serif" font-size="10.00">typeClassDefs/wb_arrayoffilteredsonarobjects.h</text>
</a>
</g>
</g>
<!-- Node1&#45;&gt;Node17 -->
<g id="edge18" class="edge">
<title>Node1&#45;&gt;Node17</title>
<path fill="none" stroke="midnightblue" d="M211.18,-384.97C224.57,-373.59 242.48,-358.37 253.49,-349.01"/>
<polygon fill="midnightblue" stroke="midnightblue" points="208.88,-382.33 203.53,-391.48 213.42,-387.67 208.88,-382.33"/>
</g>
<!-- Node4 -->
<g id="node4" class="node">
<title>Node4</title>
<g id="a_node4"><a xlink:href="guwhiteboard__c__types_8h.html" target="_top" xlink:title=" ">
<polygon fill="none" stroke="black" points="144,-196 144,-215 265,-215 265,-196 144,-196"/>
<text text-anchor="middle" x="204.5" y="-203" font-family="Helvetica,sans-Serif" font-size="10.00">guwhiteboard_c_types.h</text>
</a>
</g>
</g>
<!-- Node3&#45;&gt;Node4 -->
<g id="edge3" class="edge">
<title>Node3&#45;&gt;Node4</title>
<path fill="none" stroke="midnightblue" d="M227,-248.29C220.82,-236.8 213.72,-223.63 209.18,-215.19"/>
<polygon fill="midnightblue" stroke="midnightblue" points="224.08,-250.25 231.91,-257.4 230.25,-246.93 224.08,-250.25"/>
</g>
<!-- Node5 -->
<g id="node5" class="node">
<title>Node5</title>
<g id="a_node5"><a xlink:href="guwhiteboarddeserialiser_8c.html" target="_top" xlink:title=" ">
<polygon fill="none" stroke="black" points="139,-134.5 139,-153.5 270,-153.5 270,-134.5 139,-134.5"/>
<text text-anchor="middle" x="204.5" y="-141.5" font-family="Helvetica,sans-Serif" font-size="10.00">guwhiteboarddeserialiser.c</text>
</a>
</g>
</g>
<!-- Node4&#45;&gt;Node5 -->
<g id="edge4" class="edge">
<title>Node4&#45;&gt;Node5</title>
<path fill="none" stroke="midnightblue" d="M204.5,-185.82C204.5,-175 204.5,-161.9 204.5,-153.51"/>
<polygon fill="midnightblue" stroke="midnightblue" points="201,-185.98 204.5,-195.98 208,-185.98 201,-185.98"/>
</g>
<!-- Node6 -->
<g id="node6" class="node">
<title>Node6</title>
<g id="a_node6"><a xlink:href="guwhiteboardserialiser_8c.html" target="_top" xlink:title=" ">
<polygon fill="none" stroke="black" points="0,-134.5 0,-153.5 121,-153.5 121,-134.5 0,-134.5"/>
<text text-anchor="middle" x="60.5" y="-141.5" font-family="Helvetica,sans-Serif" font-size="10.00">guwhiteboardserialiser.c</text>
</a>
</g>
</g>
<!-- Node4&#45;&gt;Node6 -->
<g id="edge5" class="edge">
<title>Node4&#45;&gt;Node6</title>
<path fill="none" stroke="midnightblue" d="M174.57,-192.13C146.59,-180.57 105.56,-163.62 81.09,-153.51"/>
<polygon fill="midnightblue" stroke="midnightblue" points="173.29,-195.39 183.87,-195.98 175.96,-188.92 173.29,-195.39"/>
</g>
<!-- Node8 -->
<g id="node8" class="node">
<title>Node8</title>
<g id="a_node8"><a xlink:href="_filtered_one_dim_sonar_8h.html" target="_top" xlink:title=" ">
<polygon fill="none" stroke="black" points="392,-257.5 392,-287.5 525,-287.5 525,-257.5 392,-257.5"/>
<text text-anchor="start" x="400" y="-275.5" font-family="Helvetica,sans-Serif" font-size="10.00">typeClassDefs/FilteredOne</text>
<text text-anchor="middle" x="458.5" y="-264.5" font-family="Helvetica,sans-Serif" font-size="10.00">DimSonar.h</text>
</a>
</g>
</g>
<!-- Node7&#45;&gt;Node8 -->
<g id="edge7" class="edge">
<title>Node7&#45;&gt;Node8</title>
<path fill="none" stroke="midnightblue" d="M458.5,-314.11C458.5,-305.15 458.5,-295.32 458.5,-287.58"/>
<polygon fill="midnightblue" stroke="midnightblue" points="455,-314.4 458.5,-324.4 462,-314.4 455,-314.4"/>
</g>
<!-- Node9 -->
<g id="node9" class="node">
<title>Node9</title>
<g id="a_node9"><a xlink:href="_simple_whiteboard_test_8mm.html" target="_top" xlink:title=" ">
<polygon fill="none" stroke="black" points="423,-0.5 423,-30.5 560,-30.5 560,-0.5 423,-0.5"/>
<text text-anchor="start" x="431" y="-18.5" font-family="Helvetica,sans-Serif" font-size="10.00">SimpleWhiteboardTest</text>
<text text-anchor="middle" x="491.5" y="-7.5" font-family="Helvetica,sans-Serif" font-size="10.00">/SimpleWhiteboardTest.mm</text>
</a>
</g>
</g>
<!-- Node8&#45;&gt;Node9 -->
<g id="edge8" class="edge">
<title>Node8&#45;&gt;Node9</title>
<path fill="none" stroke="midnightblue" d="M479.04,-249.71C506.47,-218.85 553.48,-159.29 569.5,-98 572.98,-84.67 576.08,-79.1 569.5,-67 560.56,-50.56 543.71,-38.65 527.95,-30.54"/>
<polygon fill="midnightblue" stroke="midnightblue" points="476.3,-247.52 472.19,-257.28 481.49,-252.21 476.3,-247.52"/>
</g>
<!-- Node10 -->
<g id="node10" class="node">
<title>Node10</title>
<g id="a_node10"><a xlink:href="_filtered_array_one_dim_sonar_8hpp.html" target="_top" xlink:title=" ">
<polygon fill="none" stroke="black" points="354,-190.5 354,-220.5 491,-220.5 491,-190.5 354,-190.5"/>
<text text-anchor="start" x="362" y="-208.5" font-family="Helvetica,sans-Serif" font-size="10.00">typeClassDefs/FilteredArray</text>
<text text-anchor="middle" x="422.5" y="-197.5" font-family="Helvetica,sans-Serif" font-size="10.00">OneDimSonar.hpp</text>
</a>
</g>
</g>
<!-- Node8&#45;&gt;Node10 -->
<g id="edge9" class="edge">
<title>Node8&#45;&gt;Node10</title>
<path fill="none" stroke="midnightblue" d="M445.8,-248.58C440.63,-239.24 434.82,-228.75 430.3,-220.58"/>
<polygon fill="midnightblue" stroke="midnightblue" points="442.78,-250.34 450.69,-257.4 448.91,-246.95 442.78,-250.34"/>
</g>
<!-- Node11 -->
<g id="node11" class="node">
<title>Node11</title>
<g id="a_node11"><a xlink:href="guwhiteboardposter_8h.html" target="_top" xlink:title=" ">
<polygon fill="none" stroke="black" points="288,-134.5 288,-153.5 397,-153.5 397,-134.5 288,-134.5"/>
<text text-anchor="middle" x="342.5" y="-141.5" font-family="Helvetica,sans-Serif" font-size="10.00">guwhiteboardposter.h</text>
</a>
</g>
</g>
<!-- Node10&#45;&gt;Node11 -->
<g id="edge10" class="edge">
<title>Node10&#45;&gt;Node11</title>
<path fill="none" stroke="midnightblue" d="M395.19,-184.19C381.18,-173.77 364.86,-161.63 354.14,-153.66"/>
<polygon fill="midnightblue" stroke="midnightblue" points="393.43,-187.24 403.54,-190.4 397.61,-181.62 393.43,-187.24"/>
</g>
<!-- Node16 -->
<g id="node16" class="node">
<title>Node16</title>
<g id="a_node16"><a xlink:href="_filtered_array_one_dim_sonar_8h.html" target="_top" xlink:title=" ">
<polygon fill="none" stroke="black" points="423,-67.5 423,-97.5 560,-97.5 560,-67.5 423,-67.5"/>
<text text-anchor="start" x="431" y="-85.5" font-family="Helvetica,sans-Serif" font-size="10.00">typeClassDefs/FilteredArray</text>
<text text-anchor="middle" x="491.5" y="-74.5" font-family="Helvetica,sans-Serif" font-size="10.00">OneDimSonar.h</text>
</a>
</g>
</g>
<!-- Node10&#45;&gt;Node16 -->
<g id="edge16" class="edge">
<title>Node10&#45;&gt;Node16</title>
<path fill="none" stroke="midnightblue" d="M435.65,-181.43C449.71,-156.78 471.56,-118.48 483.32,-97.84"/>
<polygon fill="midnightblue" stroke="midnightblue" points="432.6,-179.72 430.69,-190.14 438.68,-183.19 432.6,-179.72"/>
</g>
<!-- Node12 -->
<g id="node12" class="node">
<title>Node12</title>
<g id="a_node12"><a xlink:href="_simple_whiteboard_test_8h.html" target="_top" xlink:title=" ">
<polygon fill="none" stroke="black" points="280,-67.5 280,-97.5 405,-97.5 405,-67.5 280,-67.5"/>
<text text-anchor="start" x="288" y="-85.5" font-family="Helvetica,sans-Serif" font-size="10.00">SimpleWhiteboardTest</text>
<text text-anchor="middle" x="342.5" y="-74.5" font-family="Helvetica,sans-Serif" font-size="10.00">/SimpleWhiteboardTest.h</text>
</a>
</g>
</g>
<!-- Node11&#45;&gt;Node12 -->
<g id="edge11" class="edge">
<title>Node11&#45;&gt;Node12</title>
<path fill="none" stroke="midnightblue" d="M342.5,-124.23C342.5,-115.59 342.5,-105.5 342.5,-97.52"/>
<polygon fill="midnightblue" stroke="midnightblue" points="339,-124.48 342.5,-134.48 346,-124.48 339,-124.48"/>
</g>
<!-- Node13 -->
<g id="node13" class="node">
<title>Node13</title>
<g id="a_node13"><a xlink:href="guwhiteboardgetter_8h.html" target="_top" xlink:title=" ">
<polygon fill="none" stroke="black" points="155,-73 155,-92 262,-92 262,-73 155,-73"/>
<text text-anchor="middle" x="208.5" y="-80" font-family="Helvetica,sans-Serif" font-size="10.00">guwhiteboardgetter.h</text>
</a>
</g>
</g>
<!-- Node11&#45;&gt;Node13 -->
<g id="edge13" class="edge">
<title>Node11&#45;&gt;Node13</title>
<path fill="none" stroke="midnightblue" d="M313.96,-130.33C287.95,-118.78 250.24,-102.03 227.66,-92.01"/>
<polygon fill="midnightblue" stroke="midnightblue" points="312.74,-133.62 323.3,-134.48 315.58,-127.22 312.74,-133.62"/>
</g>
<!-- Node15 -->
<g id="node15" class="node">
<title>Node15</title>
<g id="a_node15"><a xlink:href="guwhiteboardposter_8cpp.html" target="_top" xlink:title=" ">
<polygon fill="none" stroke="black" points="18,-73 18,-92 137,-92 137,-73 18,-73"/>
<text text-anchor="middle" x="77.5" y="-80" font-family="Helvetica,sans-Serif" font-size="10.00">guwhiteboardposter.cpp</text>
</a>
</g>
</g>
<!-- Node11&#45;&gt;Node15 -->
<g id="edge15" class="edge">
<title>Node11&#45;&gt;Node15</title>
<path fill="none" stroke="midnightblue" d="M294.66,-132.26C243.25,-120.72 162.59,-102.61 115.4,-92.01"/>
<polygon fill="midnightblue" stroke="midnightblue" points="294.01,-135.7 304.53,-134.48 295.54,-128.87 294.01,-135.7"/>
</g>
<!-- Node12&#45;&gt;Node9 -->
<g id="edge12" class="edge">
<title>Node12&#45;&gt;Node9</title>
<path fill="none" stroke="midnightblue" d="M384.29,-63.27C408.02,-52.92 437.28,-40.15 459.23,-30.58"/>
<polygon fill="midnightblue" stroke="midnightblue" points="382.6,-60.19 374.83,-67.4 385.4,-66.61 382.6,-60.19"/>
</g>
<!-- Node14 -->
<g id="node14" class="node">
<title>Node14</title>
<g id="a_node14"><a xlink:href="guwhiteboardgetter_8cpp.html" target="_top" xlink:title=" ">
<polygon fill="none" stroke="black" points="150,-6 150,-25 267,-25 267,-6 150,-6"/>
<text text-anchor="middle" x="208.5" y="-13" font-family="Helvetica,sans-Serif" font-size="10.00">guwhiteboardgetter.cpp</text>
</a>
</g>
</g>
<!-- Node13&#45;&gt;Node14 -->
<g id="edge14" class="edge">
<title>Node13&#45;&gt;Node14</title>
<path fill="none" stroke="midnightblue" d="M208.5,-62.54C208.5,-50.17 208.5,-34.62 208.5,-25.13"/>
<polygon fill="midnightblue" stroke="midnightblue" points="205,-62.73 208.5,-72.73 212,-62.73 205,-62.73"/>
</g>
<!-- Node16&#45;&gt;Node9 -->
<g id="edge17" class="edge">
<title>Node16&#45;&gt;Node9</title>
<path fill="none" stroke="midnightblue" d="M491.5,-57.11C491.5,-48.15 491.5,-38.32 491.5,-30.58"/>
<polygon fill="midnightblue" stroke="midnightblue" points="488,-57.4 491.5,-67.4 495,-57.4 488,-57.4"/>
</g>
<!-- Node17&#45;&gt;Node2 -->
<g id="edge19" class="edge">
<title>Node17&#45;&gt;Node2</title>
<path fill="none" stroke="midnightblue" d="M230.41,-326.35C200.4,-315.33 156.19,-299.09 124.7,-287.53"/>
<polygon fill="midnightblue" stroke="midnightblue" points="229.4,-329.71 240,-329.87 231.82,-323.14 229.4,-329.71"/>
</g>
<!-- Node17&#45;&gt;Node3 -->
<g id="edge20" class="edge">
<title>Node17&#45;&gt;Node3</title>
<path fill="none" stroke="midnightblue" d="M256.69,-320.06C252.89,-309.75 248.21,-297.1 244.7,-287.59"/>
<polygon fill="midnightblue" stroke="midnightblue" points="253.52,-321.57 260.26,-329.73 260.08,-319.14 253.52,-321.57"/>
</g>
<!-- Node17&#45;&gt;Node10 -->
<g id="edge21" class="edge">
<title>Node17&#45;&gt;Node10</title>
<path fill="none" stroke="midnightblue" d="M281.8,-323.3C312.86,-297.52 375.44,-245.57 405.55,-220.57"/>
<polygon fill="midnightblue" stroke="midnightblue" points="279.39,-320.76 273.93,-329.84 283.86,-326.14 279.39,-320.76"/>
</g>
</g>
</svg>
