<?xml version="1.0" encoding="UTF-8" standalone="no"?>
<!DOCTYPE svg PUBLIC "-//W3C//DTD SVG 1.1//EN"
 "http://www.w3.org/Graphics/SVG/1.1/DTD/svg11.dtd">
<!-- Generated by graphviz version 2.49.0 (20210830.1337)
 -->
<!-- Title: typeClassDefs/wb_overheating.h Pages: 1 -->
<svg width="620pt" height="274pt"
 viewBox="0.00 0.00 619.50 274.00" xmlns="http://www.w3.org/2000/svg" xmlns:xlink="http://www.w3.org/1999/xlink">
<g id="graph0" class="graph" transform="scale(1 1) rotate(0) translate(4 270)">
<title>typeClassDefs/wb_overheating.h</title>
<!-- Node1 -->
<g id="node1" class="node">
<title>Node1</title>
<g id="a_node1"><a xlink:title=" ">
<polygon fill="#bfbfbf" stroke="black" points="279.5,-246.5 279.5,-265.5 437.5,-265.5 437.5,-246.5 279.5,-246.5"/>
<text text-anchor="middle" x="358.5" y="-253.5" font-family="Helvetica,sans-Serif" font-size="10.00">typeClassDefs/wb_overheating.h</text>
</a>
</g>
</g>
<!-- Node2 -->
<g id="node2" class="node">
<title>Node2</title>
<g id="a_node2"><a xlink:href="guwhiteboard__c__types_8h.html" target="_top" xlink:title=" ">
<polygon fill="none" stroke="black" points="143,-190.5 143,-209.5 264,-209.5 264,-190.5 143,-190.5"/>
<text text-anchor="middle" x="203.5" y="-197.5" font-family="Helvetica,sans-Serif" font-size="10.00">guwhiteboard_c_types.h</text>
</a>
</g>
</g>
<!-- Node1&#45;&gt;Node2 -->
<g id="edge1" class="edge">
<title>Node1&#45;&gt;Node2</title>
<path fill="none" stroke="midnightblue" d="M324.17,-243.04C295,-232.88 253.86,-218.55 227.95,-209.52"/>
<polygon fill="midnightblue" stroke="midnightblue" points="323.34,-246.46 333.94,-246.44 325.65,-239.85 323.34,-246.46"/>
</g>
<!-- Node5 -->
<g id="node5" class="node">
<title>Node5</title>
<g id="a_node5"><a xlink:href="_overheating_8hpp.html" target="_top" xlink:title=" ">
<polygon fill="none" stroke="black" points="282,-190.5 282,-209.5 435,-209.5 435,-190.5 282,-190.5"/>
<text text-anchor="middle" x="358.5" y="-197.5" font-family="Helvetica,sans-Serif" font-size="10.00">typeClassDefs/Overheating.hpp</text>
</a>
</g>
</g>
<!-- Node1&#45;&gt;Node5 -->
<g id="edge4" class="edge">
<title>Node1&#45;&gt;Node5</title>
<path fill="none" stroke="midnightblue" d="M358.5,-235.8C358.5,-226.91 358.5,-216.78 358.5,-209.75"/>
<polygon fill="midnightblue" stroke="midnightblue" points="355,-236.08 358.5,-246.08 362,-236.08 355,-236.08"/>
</g>
<!-- Node13 -->
<g id="node13" class="node">
<title>Node13</title>
<g id="a_node13"><a xlink:href="wb__overheating_8c.html" target="_top" xlink:title=" ">
<polygon fill="none" stroke="black" points="453.5,-190.5 453.5,-209.5 611.5,-209.5 611.5,-190.5 453.5,-190.5"/>
<text text-anchor="middle" x="532.5" y="-197.5" font-family="Helvetica,sans-Serif" font-size="10.00">typeClassDefs/wb_overheating.c</text>
</a>
</g>
</g>
<!-- Node1&#45;&gt;Node13 -->
<g id="edge12" class="edge">
<title>Node1&#45;&gt;Node13</title>
<path fill="none" stroke="midnightblue" d="M395.76,-243.44C428.57,-233.26 475.58,-218.66 505.06,-209.52"/>
<polygon fill="midnightblue" stroke="midnightblue" points="394.58,-240.14 386.07,-246.44 396.66,-246.82 394.58,-240.14"/>
</g>
<!-- Node3 -->
<g id="node3" class="node">
<title>Node3</title>
<g id="a_node3"><a xlink:href="guwhiteboarddeserialiser_8c.html" target="_top" xlink:title=" ">
<polygon fill="none" stroke="black" points="0,-134.5 0,-153.5 131,-153.5 131,-134.5 0,-134.5"/>
<text text-anchor="middle" x="65.5" y="-141.5" font-family="Helvetica,sans-Serif" font-size="10.00">guwhiteboarddeserialiser.c</text>
</a>
</g>
</g>
<!-- Node2&#45;&gt;Node3 -->
<g id="edge2" class="edge">
<title>Node2&#45;&gt;Node3</title>
<path fill="none" stroke="midnightblue" d="M172.25,-186.77C146.33,-176.63 110.14,-162.47 87.26,-153.52"/>
<polygon fill="midnightblue" stroke="midnightblue" points="171.05,-190.06 181.63,-190.44 173.6,-183.54 171.05,-190.06"/>
</g>
<!-- Node4 -->
<g id="node4" class="node">
<title>Node4</title>
<g id="a_node4"><a xlink:href="guwhiteboardserialiser_8c.html" target="_top" xlink:title=" ">
<polygon fill="none" stroke="black" points="149,-134.5 149,-153.5 270,-153.5 270,-134.5 149,-134.5"/>
<text text-anchor="middle" x="209.5" y="-141.5" font-family="Helvetica,sans-Serif" font-size="10.00">guwhiteboardserialiser.c</text>
</a>
</g>
</g>
<!-- Node2&#45;&gt;Node4 -->
<g id="edge3" class="edge">
<title>Node2&#45;&gt;Node4</title>
<path fill="none" stroke="midnightblue" d="M205.6,-180.1C206.6,-171.14 207.74,-160.86 208.53,-153.75"/>
<polygon fill="midnightblue" stroke="midnightblue" points="202.12,-179.76 204.49,-190.08 209.07,-180.53 202.12,-179.76"/>
</g>
<!-- Node6 -->
<g id="node6" class="node">
<title>Node6</title>
<g id="a_node6"><a xlink:href="guwhiteboardposter_8h.html" target="_top" xlink:title=" ">
<polygon fill="none" stroke="black" points="299,-134.5 299,-153.5 408,-153.5 408,-134.5 299,-134.5"/>
<text text-anchor="middle" x="353.5" y="-141.5" font-family="Helvetica,sans-Serif" font-size="10.00">guwhiteboardposter.h</text>
</a>
</g>
</g>
<!-- Node5&#45;&gt;Node6 -->
<g id="edge5" class="edge">
<title>Node5&#45;&gt;Node6</title>
<path fill="none" stroke="midnightblue" d="M356.75,-180.1C355.92,-171.14 354.97,-160.86 354.31,-153.75"/>
<polygon fill="midnightblue" stroke="midnightblue" points="353.27,-180.45 357.67,-190.08 360.24,-179.8 353.27,-180.45"/>
</g>
<!-- Node12 -->
<g id="node12" class="node">
<title>Node12</title>
<g id="a_node12"><a xlink:href="_overheating_8h.html" target="_top" xlink:title=" ">
<polygon fill="none" stroke="black" points="426,-134.5 426,-153.5 569,-153.5 569,-134.5 426,-134.5"/>
<text text-anchor="middle" x="497.5" y="-141.5" font-family="Helvetica,sans-Serif" font-size="10.00">typeClassDefs/Overheating.h</text>
</a>
</g>
</g>
<!-- Node5&#45;&gt;Node12 -->
<g id="edge11" class="edge">
<title>Node5&#45;&gt;Node12</title>
<path fill="none" stroke="midnightblue" d="M389.98,-186.77C416.09,-176.63 452.54,-162.47 475.58,-153.52"/>
<polygon fill="midnightblue" stroke="midnightblue" points="388.58,-183.56 380.52,-190.44 391.11,-190.08 388.58,-183.56"/>
</g>
<!-- Node7 -->
<g id="node7" class="node">
<title>Node7</title>
<g id="a_node7"><a xlink:href="_simple_whiteboard_test_8h.html" target="_top" xlink:title=" ">
<polygon fill="none" stroke="black" points="154,-67.5 154,-97.5 279,-97.5 279,-67.5 154,-67.5"/>
<text text-anchor="start" x="162" y="-85.5" font-family="Helvetica,sans-Serif" font-size="10.00">SimpleWhiteboardTest</text>
<text text-anchor="middle" x="216.5" y="-74.5" font-family="Helvetica,sans-Serif" font-size="10.00">/SimpleWhiteboardTest.h</text>
</a>
</g>
</g>
<!-- Node6&#45;&gt;Node7 -->
<g id="edge6" class="edge">
<title>Node6&#45;&gt;Node7</title>
<path fill="none" stroke="midnightblue" d="M324.63,-130.46C302.44,-120.82 271.79,-107.51 248.79,-97.52"/>
<polygon fill="midnightblue" stroke="midnightblue" points="323.3,-133.7 333.87,-134.48 326.09,-127.28 323.3,-133.7"/>
</g>
<!-- Node9 -->
<g id="node9" class="node">
<title>Node9</title>
<g id="a_node9"><a xlink:href="guwhiteboardgetter_8h.html" target="_top" xlink:title=" ">
<polygon fill="none" stroke="black" points="300,-73 300,-92 407,-92 407,-73 300,-73"/>
<text text-anchor="middle" x="353.5" y="-80" font-family="Helvetica,sans-Serif" font-size="10.00">guwhiteboardgetter.h</text>
</a>
</g>
</g>
<!-- Node6&#45;&gt;Node9 -->
<g id="edge8" class="edge">
<title>Node6&#45;&gt;Node9</title>
<path fill="none" stroke="midnightblue" d="M353.5,-124.32C353.5,-113.5 353.5,-100.4 353.5,-92.01"/>
<polygon fill="midnightblue" stroke="midnightblue" points="350,-124.48 353.5,-134.48 357,-124.48 350,-124.48"/>
</g>
<!-- Node11 -->
<g id="node11" class="node">
<title>Node11</title>
<g id="a_node11"><a xlink:href="guwhiteboardposter_8cpp.html" target="_top" xlink:title=" ">
<polygon fill="none" stroke="black" points="425,-73 425,-92 544,-92 544,-73 425,-73"/>
<text text-anchor="middle" x="484.5" y="-80" font-family="Helvetica,sans-Serif" font-size="10.00">guwhiteboardposter.cpp</text>
</a>
</g>
</g>
<!-- Node6&#45;&gt;Node11 -->
<g id="edge10" class="edge">
<title>Node6&#45;&gt;Node11</title>
<path fill="none" stroke="midnightblue" d="M381.4,-130.33C406.83,-118.78 443.7,-102.03 465.77,-92.01"/>
<polygon fill="midnightblue" stroke="midnightblue" points="379.93,-127.15 372.27,-134.48 382.82,-133.53 379.93,-127.15"/>
</g>
<!-- Node8 -->
<g id="node8" class="node">
<title>Node8</title>
<g id="a_node8"><a xlink:href="_simple_whiteboard_test_8mm.html" target="_top" xlink:title=" ">
<polygon fill="none" stroke="black" points="143,-0.5 143,-30.5 280,-30.5 280,-0.5 143,-0.5"/>
<text text-anchor="start" x="151" y="-18.5" font-family="Helvetica,sans-Serif" font-size="10.00">SimpleWhiteboardTest</text>
<text text-anchor="middle" x="211.5" y="-7.5" font-family="Helvetica,sans-Serif" font-size="10.00">/SimpleWhiteboardTest.mm</text>
</a>
</g>
</g>
<!-- Node7&#45;&gt;Node8 -->
<g id="edge7" class="edge">
<title>Node7&#45;&gt;Node8</title>
<path fill="none" stroke="midnightblue" d="M214.65,-57.4C213.95,-48.37 213.19,-38.41 212.58,-30.58"/>
<polygon fill="midnightblue" stroke="midnightblue" points="211.16,-57.69 215.42,-67.4 218.14,-57.16 211.16,-57.69"/>
</g>
<!-- Node10 -->
<g id="node10" class="node">
<title>Node10</title>
<g id="a_node10"><a xlink:href="guwhiteboardgetter_8cpp.html" target="_top" xlink:title=" ">
<polygon fill="none" stroke="black" points="298,-6 298,-25 415,-25 415,-6 298,-6"/>
<text text-anchor="middle" x="356.5" y="-13" font-family="Helvetica,sans-Serif" font-size="10.00">guwhiteboardgetter.cpp</text>
</a>
</g>
</g>
<!-- Node9&#45;&gt;Node10 -->
<g id="edge9" class="edge">
<title>Node9&#45;&gt;Node10</title>
<path fill="none" stroke="midnightblue" d="M354.38,-62.54C354.95,-50.17 355.66,-34.62 356.1,-25.13"/>
<polygon fill="midnightblue" stroke="midnightblue" points="350.87,-62.58 353.9,-72.73 357.86,-62.91 350.87,-62.58"/>
</g>
</g>
</svg>
