<?xml version="1.0" encoding="UTF-8" standalone="no"?>
<!DOCTYPE svg PUBLIC "-//W3C//DTD SVG 1.1//EN"
 "http://www.w3.org/Graphics/SVG/1.1/DTD/svg11.dtd">
<!-- Generated by graphviz version 2.49.0 (20210830.1337)
 -->
<!-- Title: typeClassDefs/wb_vision_detection_feature.c Pages: 1 -->
<svg width="454pt" height="218pt"
 viewBox="0.00 0.00 454.38 218.00" xmlns="http://www.w3.org/2000/svg" xmlns:xlink="http://www.w3.org/1999/xlink">
<g id="graph0" class="graph" transform="scale(1 1) rotate(0) translate(4 214)">
<title>typeClassDefs/wb_vision_detection_feature.c</title>
<!-- Node1 -->
<g id="node1" class="node">
<title>Node1</title>
<g id="a_node1"><a xlink:title=" ">
<polygon fill="#bfbfbf" stroke="black" points="196.88,-179.5 196.88,-209.5 322.88,-209.5 322.88,-179.5 196.88,-179.5"/>
<text text-anchor="start" x="204.88" y="-197.5" font-family="Helvetica,sans-Serif" font-size="10.00">typeClassDefs/wb_vision</text>
<text text-anchor="middle" x="259.88" y="-186.5" font-family="Helvetica,sans-Serif" font-size="10.00">_detection_feature.c</text>
</a>
</g>
</g>
<!-- Node2 -->
<g id="node2" class="node">
<title>Node2</title>
<g id="a_node2"><a xlink:href="wb__vision__detection__feature_8h.html" target="_top" xlink:title=" ">
<polygon fill="none" stroke="black" points="16.38,-112.5 16.38,-142.5 121.38,-142.5 121.38,-112.5 16.38,-112.5"/>
<text text-anchor="start" x="24.38" y="-130.5" font-family="Helvetica,sans-Serif" font-size="10.00">wb_vision_detection</text>
<text text-anchor="middle" x="68.88" y="-119.5" font-family="Helvetica,sans-Serif" font-size="10.00">_feature.h</text>
</a>
</g>
</g>
<!-- Node1&#45;&gt;Node2 -->
<g id="edge1" class="edge">
<title>Node1&#45;&gt;Node2</title>
<path fill="none" stroke="midnightblue" d="M218.43,-179.4C189.52,-169.56 150.76,-156.37 119.94,-145.88"/>
<polygon fill="midnightblue" stroke="midnightblue" points="120.83,-142.48 110.24,-142.58 118.58,-149.11 120.83,-142.48"/>
</g>
<!-- Node6 -->
<g id="node6" class="node">
<title>Node6</title>
<g id="a_node6"><a xlink:title=" ">
<polygon fill="none" stroke="#bfbfbf" points="139.38,-118 139.38,-137 184.38,-137 184.38,-118 139.38,-118"/>
<text text-anchor="middle" x="161.88" y="-125" font-family="Helvetica,sans-Serif" font-size="10.00">stdio.h</text>
</a>
</g>
</g>
<!-- Node1&#45;&gt;Node6 -->
<g id="edge7" class="edge">
<title>Node1&#45;&gt;Node6</title>
<path fill="none" stroke="midnightblue" d="M238.61,-179.4C222.18,-168.5 199.54,-153.48 183.11,-142.58"/>
<polygon fill="midnightblue" stroke="midnightblue" points="184.97,-139.62 174.7,-137.01 181.1,-145.45 184.97,-139.62"/>
</g>
<!-- Node7 -->
<g id="node7" class="node">
<title>Node7</title>
<g id="a_node7"><a xlink:title=" ">
<polygon fill="none" stroke="#bfbfbf" points="202.88,-118 202.88,-137 250.88,-137 250.88,-118 202.88,-118"/>
<text text-anchor="middle" x="226.88" y="-125" font-family="Helvetica,sans-Serif" font-size="10.00">string.h</text>
</a>
</g>
</g>
<!-- Node1&#45;&gt;Node7 -->
<g id="edge8" class="edge">
<title>Node1&#45;&gt;Node7</title>
<path fill="none" stroke="midnightblue" d="M252.72,-179.4C247.77,-169.66 241.17,-156.65 235.87,-146.21"/>
<polygon fill="midnightblue" stroke="midnightblue" points="238.94,-144.53 231.29,-137.19 232.7,-147.7 238.94,-144.53"/>
</g>
<!-- Node8 -->
<g id="node8" class="node">
<title>Node8</title>
<g id="a_node8"><a xlink:title=" ">
<polygon fill="none" stroke="#bfbfbf" points="269.38,-118 269.38,-137 316.38,-137 316.38,-118 269.38,-118"/>
<text text-anchor="middle" x="292.88" y="-125" font-family="Helvetica,sans-Serif" font-size="10.00">stdlib.h</text>
</a>
</g>
</g>
<!-- Node1&#45;&gt;Node8 -->
<g id="edge9" class="edge">
<title>Node1&#45;&gt;Node8</title>
<path fill="none" stroke="midnightblue" d="M267.04,-179.4C271.98,-169.66 278.59,-156.65 283.88,-146.21"/>
<polygon fill="midnightblue" stroke="midnightblue" points="287.06,-147.7 288.46,-137.19 280.81,-144.53 287.06,-147.7"/>
</g>
<!-- Node9 -->
<g id="node9" class="node">
<title>Node9</title>
<g id="a_node9"><a xlink:title=" ">
<polygon fill="none" stroke="#bfbfbf" points="334.38,-118 334.38,-137 381.38,-137 381.38,-118 334.38,-118"/>
<text text-anchor="middle" x="357.88" y="-125" font-family="Helvetica,sans-Serif" font-size="10.00">ctype.h</text>
</a>
</g>
</g>
<!-- Node1&#45;&gt;Node9 -->
<g id="edge10" class="edge">
<title>Node1&#45;&gt;Node9</title>
<path fill="none" stroke="midnightblue" d="M281.14,-179.4C297.58,-168.5 320.22,-153.48 336.64,-142.58"/>
<polygon fill="midnightblue" stroke="midnightblue" points="338.65,-145.45 345.05,-137.01 334.78,-139.62 338.65,-145.45"/>
</g>
<!-- Node10 -->
<g id="node10" class="node">
<title>Node10</title>
<g id="a_node10"><a xlink:title=" ">
<polygon fill="none" stroke="#bfbfbf" points="399.38,-118 399.38,-137 446.38,-137 446.38,-118 399.38,-118"/>
<text text-anchor="middle" x="422.88" y="-125" font-family="Helvetica,sans-Serif" font-size="10.00">limits.h</text>
</a>
</g>
</g>
<!-- Node1&#45;&gt;Node10 -->
<g id="edge11" class="edge">
<title>Node1&#45;&gt;Node10</title>
<path fill="none" stroke="midnightblue" d="M297.94,-179.49C324.21,-169.66 359.85,-156 390.88,-143 392.25,-142.43 393.65,-141.83 395.06,-141.22"/>
<polygon fill="midnightblue" stroke="midnightblue" points="396.61,-144.36 404.34,-137.12 393.78,-137.96 396.61,-144.36"/>
</g>
<!-- Node3 -->
<g id="node3" class="node">
<title>Node3</title>
<g id="a_node3"><a xlink:title=" ">
<polygon fill="none" stroke="#bfbfbf" points="3.38,-0.5 3.38,-19.5 56.38,-19.5 56.38,-0.5 3.38,-0.5"/>
<text text-anchor="middle" x="29.88" y="-7.5" font-family="Helvetica,sans-Serif" font-size="10.00">gu_util.h</text>
</a>
</g>
</g>
<!-- Node2&#45;&gt;Node3 -->
<g id="edge2" class="edge">
<title>Node2&#45;&gt;Node3</title>
<path fill="none" stroke="midnightblue" d="M39.97,-112.45C26.03,-103.99 10.67,-91.78 2.88,-76 -5.11,-59.82 5.09,-40.68 15.17,-27.38"/>
<polygon fill="midnightblue" stroke="midnightblue" points="17.94,-29.52 21.57,-19.57 12.53,-25.08 17.94,-29.52"/>
</g>
<!-- Node4 -->
<g id="node4" class="node">
<title>Node4</title>
<g id="a_node4"><a xlink:title=" ">
<polygon fill="none" stroke="#bfbfbf" points="82.88,-0.5 82.88,-19.5 130.88,-19.5 130.88,-0.5 82.88,-0.5"/>
<text text-anchor="middle" x="106.88" y="-7.5" font-family="Helvetica,sans-Serif" font-size="10.00">stdint.h</text>
</a>
</g>
</g>
<!-- Node2&#45;&gt;Node4 -->
<g id="edge3" class="edge">
<title>Node2&#45;&gt;Node4</title>
<path fill="none" stroke="midnightblue" d="M97.79,-112.45C111.73,-103.99 127.08,-91.78 134.88,-76 142.91,-59.73 132.36,-40.61 121.99,-27.33"/>
<polygon fill="midnightblue" stroke="midnightblue" points="124.54,-24.92 115.4,-19.54 119.19,-29.44 124.54,-24.92"/>
</g>
<!-- Node5 -->
<g id="node5" class="node">
<title>Node5</title>
<g id="a_node5"><a xlink:href="wb__polar__coordinate_8h.html" target="_top" xlink:title=" ">
<polygon fill="none" stroke="black" points="12.38,-56.5 12.38,-75.5 125.38,-75.5 125.38,-56.5 12.38,-56.5"/>
<text text-anchor="middle" x="68.88" y="-63.5" font-family="Helvetica,sans-Serif" font-size="10.00">wb_polar_coordinate.h</text>
</a>
</g>
</g>
<!-- Node2&#45;&gt;Node5 -->
<g id="edge4" class="edge">
<title>Node2&#45;&gt;Node5</title>
<path fill="none" stroke="midnightblue" d="M68.88,-112.4C68.88,-104.47 68.88,-94.46 68.88,-85.86"/>
<polygon fill="midnightblue" stroke="midnightblue" points="72.38,-85.66 68.88,-75.66 65.38,-85.66 72.38,-85.66"/>
</g>
<!-- Node5&#45;&gt;Node3 -->
<g id="edge5" class="edge">
<title>Node5&#45;&gt;Node3</title>
<path fill="none" stroke="midnightblue" d="M62.44,-56.08C56.93,-48.46 48.85,-37.26 42.11,-27.94"/>
<polygon fill="midnightblue" stroke="midnightblue" points="44.89,-25.81 36.2,-19.75 39.21,-29.91 44.89,-25.81"/>
</g>
<!-- Node5&#45;&gt;Node4 -->
<g id="edge6" class="edge">
<title>Node5&#45;&gt;Node4</title>
<path fill="none" stroke="midnightblue" d="M75.15,-56.08C80.52,-48.46 88.39,-37.26 94.96,-27.94"/>
<polygon fill="midnightblue" stroke="midnightblue" points="97.83,-29.94 100.72,-19.75 92.1,-25.91 97.83,-29.94"/>
</g>
</g>
</svg>
