<?xml version="1.0" encoding="UTF-8" standalone="no"?>
<!DOCTYPE svg PUBLIC "-//W3C//DTD SVG 1.1//EN"
 "http://www.w3.org/Graphics/SVG/1.1/DTD/svg11.dtd">
<!-- Generated by graphviz version 2.49.0 (20210830.1337)
 -->
<!-- Title: typeClassDefs/wb_head_joint_sensors.c Pages: 1 -->
<svg width="460pt" height="151pt"
 viewBox="0.00 0.00 459.50 151.00" xmlns="http://www.w3.org/2000/svg" xmlns:xlink="http://www.w3.org/1999/xlink">
<g id="graph0" class="graph" transform="scale(1 1) rotate(0) translate(4 147)">
<title>typeClassDefs/wb_head_joint_sensors.c</title>
<!-- Node1 -->
<g id="node1" class="node">
<title>Node1</title>
<g id="a_node1"><a xlink:title=" ">
<polygon fill="#bfbfbf" stroke="black" points="204,-112.5 204,-142.5 326,-142.5 326,-112.5 204,-112.5"/>
<text text-anchor="start" x="212" y="-130.5" font-family="Helvetica,sans-Serif" font-size="10.00">typeClassDefs/wb_head</text>
<text text-anchor="middle" x="265" y="-119.5" font-family="Helvetica,sans-Serif" font-size="10.00">_joint_sensors.c</text>
</a>
</g>
</g>
<!-- Node2 -->
<g id="node2" class="node">
<title>Node2</title>
<g id="a_node2"><a xlink:href="wb__head__joint__sensors_8h.html" target="_top" xlink:title=" ">
<polygon fill="none" stroke="black" points="0,-56.5 0,-75.5 126,-75.5 126,-56.5 0,-56.5"/>
<text text-anchor="middle" x="63" y="-63.5" font-family="Helvetica,sans-Serif" font-size="10.00">wb_head_joint_sensors.h</text>
</a>
</g>
</g>
<!-- Node1&#45;&gt;Node2 -->
<g id="edge1" class="edge">
<title>Node1&#45;&gt;Node2</title>
<path fill="none" stroke="midnightblue" d="M217.38,-112.47C182.08,-102.08 134.56,-88.08 101.61,-78.37"/>
<polygon fill="midnightblue" stroke="midnightblue" points="102.46,-74.97 91.88,-75.51 100.48,-81.69 102.46,-74.97"/>
</g>
<!-- Node5 -->
<g id="node5" class="node">
<title>Node5</title>
<g id="a_node5"><a xlink:title=" ">
<polygon fill="none" stroke="#bfbfbf" points="144.5,-56.5 144.5,-75.5 189.5,-75.5 189.5,-56.5 144.5,-56.5"/>
<text text-anchor="middle" x="167" y="-63.5" font-family="Helvetica,sans-Serif" font-size="10.00">stdio.h</text>
</a>
</g>
</g>
<!-- Node1&#45;&gt;Node5 -->
<g id="edge4" class="edge">
<title>Node1&#45;&gt;Node5</title>
<path fill="none" stroke="midnightblue" d="M241.78,-112.4C226.21,-102.95 205.8,-90.56 190.24,-81.11"/>
<polygon fill="midnightblue" stroke="midnightblue" points="191.62,-77.86 181.26,-75.66 187.99,-83.84 191.62,-77.86"/>
</g>
<!-- Node6 -->
<g id="node6" class="node">
<title>Node6</title>
<g id="a_node6"><a xlink:title=" ">
<polygon fill="none" stroke="#bfbfbf" points="208,-56.5 208,-75.5 256,-75.5 256,-56.5 208,-56.5"/>
<text text-anchor="middle" x="232" y="-63.5" font-family="Helvetica,sans-Serif" font-size="10.00">string.h</text>
</a>
</g>
</g>
<!-- Node1&#45;&gt;Node6 -->
<g id="edge5" class="edge">
<title>Node1&#45;&gt;Node6</title>
<path fill="none" stroke="midnightblue" d="M257.18,-112.4C252.53,-104.02 246.6,-93.33 241.66,-84.42"/>
<polygon fill="midnightblue" stroke="midnightblue" points="244.71,-82.71 236.8,-75.66 238.59,-86.1 244.71,-82.71"/>
</g>
<!-- Node7 -->
<g id="node7" class="node">
<title>Node7</title>
<g id="a_node7"><a xlink:title=" ">
<polygon fill="none" stroke="#bfbfbf" points="274.5,-56.5 274.5,-75.5 321.5,-75.5 321.5,-56.5 274.5,-56.5"/>
<text text-anchor="middle" x="298" y="-63.5" font-family="Helvetica,sans-Serif" font-size="10.00">stdlib.h</text>
</a>
</g>
</g>
<!-- Node1&#45;&gt;Node7 -->
<g id="edge6" class="edge">
<title>Node1&#45;&gt;Node7</title>
<path fill="none" stroke="midnightblue" d="M272.82,-112.4C277.47,-104.02 283.4,-93.33 288.34,-84.42"/>
<polygon fill="midnightblue" stroke="midnightblue" points="291.41,-86.1 293.2,-75.66 285.29,-82.71 291.41,-86.1"/>
</g>
<!-- Node8 -->
<g id="node8" class="node">
<title>Node8</title>
<g id="a_node8"><a xlink:title=" ">
<polygon fill="none" stroke="#bfbfbf" points="339.5,-56.5 339.5,-75.5 386.5,-75.5 386.5,-56.5 339.5,-56.5"/>
<text text-anchor="middle" x="363" y="-63.5" font-family="Helvetica,sans-Serif" font-size="10.00">ctype.h</text>
</a>
</g>
</g>
<!-- Node1&#45;&gt;Node8 -->
<g id="edge7" class="edge">
<title>Node1&#45;&gt;Node8</title>
<path fill="none" stroke="midnightblue" d="M288.22,-112.4C303.79,-102.95 324.2,-90.56 339.76,-81.11"/>
<polygon fill="midnightblue" stroke="midnightblue" points="342.01,-83.84 348.74,-75.66 338.38,-77.86 342.01,-83.84"/>
</g>
<!-- Node9 -->
<g id="node9" class="node">
<title>Node9</title>
<g id="a_node9"><a xlink:title=" ">
<polygon fill="none" stroke="#bfbfbf" points="404.5,-56.5 404.5,-75.5 451.5,-75.5 451.5,-56.5 404.5,-56.5"/>
<text text-anchor="middle" x="428" y="-63.5" font-family="Helvetica,sans-Serif" font-size="10.00">limits.h</text>
</a>
</g>
</g>
<!-- Node1&#45;&gt;Node9 -->
<g id="edge8" class="edge">
<title>Node1&#45;&gt;Node9</title>
<path fill="none" stroke="midnightblue" d="M303.63,-112.4C331.34,-102.28 368.31,-88.79 394.72,-79.15"/>
<polygon fill="midnightblue" stroke="midnightblue" points="396.09,-82.37 404.28,-75.66 393.69,-75.8 396.09,-82.37"/>
</g>
<!-- Node3 -->
<g id="node3" class="node">
<title>Node3</title>
<g id="a_node3"><a xlink:title=" ">
<polygon fill="none" stroke="#bfbfbf" points="2.5,-0.5 2.5,-19.5 55.5,-19.5 55.5,-0.5 2.5,-0.5"/>
<text text-anchor="middle" x="29" y="-7.5" font-family="Helvetica,sans-Serif" font-size="10.00">gu_util.h</text>
</a>
</g>
</g>
<!-- Node2&#45;&gt;Node3 -->
<g id="edge2" class="edge">
<title>Node2&#45;&gt;Node3</title>
<path fill="none" stroke="midnightblue" d="M57.39,-56.08C52.63,-48.53 45.68,-37.49 39.85,-28.23"/>
<polygon fill="midnightblue" stroke="midnightblue" points="42.8,-26.35 34.51,-19.75 36.88,-30.08 42.8,-26.35"/>
</g>
<!-- Node4 -->
<g id="node4" class="node">
<title>Node4</title>
<g id="a_node4"><a xlink:title=" ">
<polygon fill="none" stroke="#bfbfbf" points="74,-0.5 74,-19.5 122,-19.5 122,-0.5 74,-0.5"/>
<text text-anchor="middle" x="98" y="-7.5" font-family="Helvetica,sans-Serif" font-size="10.00">stdint.h</text>
</a>
</g>
</g>
<!-- Node2&#45;&gt;Node4 -->
<g id="edge3" class="edge">
<title>Node2&#45;&gt;Node4</title>
<path fill="none" stroke="midnightblue" d="M68.78,-56.08C73.67,-48.53 80.83,-37.49 86.83,-28.23"/>
<polygon fill="midnightblue" stroke="midnightblue" points="89.83,-30.05 92.33,-19.75 83.95,-26.24 89.83,-30.05"/>
</g>
</g>
</svg>
