<?xml version="1.0" encoding="UTF-8" standalone="no"?>
<!DOCTYPE svg PUBLIC "-//W3C//DTD SVG 1.1//EN"
 "http://www.w3.org/Graphics/SVG/1.1/DTD/svg11.dtd">
<!-- Generated by graphviz version 2.49.0 (20210830.1337)
 -->
<!-- Title: typeClassDefs/wb_vision_field_feature.h Pages: 1 -->
<svg width="699pt" height="441pt"
 viewBox="0.00 0.00 698.50 441.00" xmlns="http://www.w3.org/2000/svg" xmlns:xlink="http://www.w3.org/1999/xlink">
<g id="graph0" class="graph" transform="scale(1 1) rotate(0) translate(4 437)">
<title>typeClassDefs/wb_vision_field_feature.h</title>
<!-- Node1 -->
<g id="node1" class="node">
<title>Node1</title>
<g id="a_node1"><a xlink:title=" ">
<polygon fill="#bfbfbf" stroke="black" points="292.5,-402.5 292.5,-432.5 418.5,-432.5 418.5,-402.5 292.5,-402.5"/>
<text text-anchor="start" x="300.5" y="-420.5" font-family="Helvetica,sans-Serif" font-size="10.00">typeClassDefs/wb_vision</text>
<text text-anchor="middle" x="355.5" y="-409.5" font-family="Helvetica,sans-Serif" font-size="10.00">_field_feature.h</text>
</a>
</g>
</g>
<!-- Node2 -->
<g id="node2" class="node">
<title>Node2</title>
<g id="a_node2"><a xlink:href="_vision_field_feature_8hpp.html" target="_top" xlink:title=" ">
<polygon fill="none" stroke="black" points="143,-335.5 143,-365.5 274,-365.5 274,-335.5 143,-335.5"/>
<text text-anchor="start" x="151" y="-353.5" font-family="Helvetica,sans-Serif" font-size="10.00">typeClassDefs/VisionField</text>
<text text-anchor="middle" x="208.5" y="-342.5" font-family="Helvetica,sans-Serif" font-size="10.00">Feature.hpp</text>
</a>
</g>
</g>
<!-- Node1&#45;&gt;Node2 -->
<g id="edge1" class="edge">
<title>Node1&#45;&gt;Node2</title>
<path fill="none" stroke="midnightblue" d="M314.27,-398.27C290.86,-387.92 261.99,-375.15 240.33,-365.58"/>
<polygon fill="midnightblue" stroke="midnightblue" points="313.04,-401.55 323.6,-402.4 315.87,-395.15 313.04,-401.55"/>
</g>
<!-- Node12 -->
<g id="node12" class="node">
<title>Node12</title>
<g id="a_node12"><a xlink:href="wb__vision__field__feature_8c.html" target="_top" xlink:title=" ">
<polygon fill="none" stroke="black" points="292.5,-335.5 292.5,-365.5 418.5,-365.5 418.5,-335.5 292.5,-335.5"/>
<text text-anchor="start" x="300.5" y="-353.5" font-family="Helvetica,sans-Serif" font-size="10.00">typeClassDefs/wb_vision</text>
<text text-anchor="middle" x="355.5" y="-342.5" font-family="Helvetica,sans-Serif" font-size="10.00">_field_feature.c</text>
</a>
</g>
</g>
<!-- Node1&#45;&gt;Node12 -->
<g id="edge11" class="edge">
<title>Node1&#45;&gt;Node12</title>
<path fill="none" stroke="midnightblue" d="M355.5,-392.11C355.5,-383.15 355.5,-373.32 355.5,-365.58"/>
<polygon fill="midnightblue" stroke="midnightblue" points="352,-392.4 355.5,-402.4 359,-392.4 352,-392.4"/>
</g>
<!-- Node13 -->
<g id="node13" class="node">
<title>Node13</title>
<g id="a_node13"><a xlink:href="wb__vision__field__features_8h.html" target="_top" xlink:title=" ">
<polygon fill="none" stroke="black" points="436.5,-335.5 436.5,-365.5 562.5,-365.5 562.5,-335.5 436.5,-335.5"/>
<text text-anchor="start" x="444.5" y="-353.5" font-family="Helvetica,sans-Serif" font-size="10.00">typeClassDefs/wb_vision</text>
<text text-anchor="middle" x="499.5" y="-342.5" font-family="Helvetica,sans-Serif" font-size="10.00">_field_features.h</text>
</a>
</g>
</g>
<!-- Node1&#45;&gt;Node13 -->
<g id="edge12" class="edge">
<title>Node1&#45;&gt;Node13</title>
<path fill="none" stroke="midnightblue" d="M395.89,-398.27C418.82,-387.92 447.1,-375.15 468.32,-365.58"/>
<polygon fill="midnightblue" stroke="midnightblue" points="394.42,-395.09 386.75,-402.4 397.3,-401.47 394.42,-395.09"/>
</g>
<!-- Node3 -->
<g id="node3" class="node">
<title>Node3</title>
<g id="a_node3"><a xlink:href="_vision_field_feature_8h.html" target="_top" xlink:title=" ">
<polygon fill="none" stroke="black" points="197,-268.5 197,-298.5 328,-298.5 328,-268.5 197,-268.5"/>
<text text-anchor="start" x="205" y="-286.5" font-family="Helvetica,sans-Serif" font-size="10.00">typeClassDefs/VisionField</text>
<text text-anchor="middle" x="262.5" y="-275.5" font-family="Helvetica,sans-Serif" font-size="10.00">Feature.h</text>
</a>
</g>
</g>
<!-- Node2&#45;&gt;Node3 -->
<g id="edge2" class="edge">
<title>Node2&#45;&gt;Node3</title>
<path fill="none" stroke="midnightblue" d="M226.82,-327.45C234.75,-317.9 243.8,-307 250.81,-298.58"/>
<polygon fill="midnightblue" stroke="midnightblue" points="223.92,-325.47 220.22,-335.4 229.3,-329.94 223.92,-325.47"/>
</g>
<!-- Node4 -->
<g id="node4" class="node">
<title>Node4</title>
<g id="a_node4"><a xlink:href="_vision_field_features_8hpp.html" target="_top" xlink:title=" ">
<polygon fill="none" stroke="black" points="214,-201.5 214,-231.5 345,-231.5 345,-201.5 214,-201.5"/>
<text text-anchor="start" x="222" y="-219.5" font-family="Helvetica,sans-Serif" font-size="10.00">typeClassDefs/VisionField</text>
<text text-anchor="middle" x="279.5" y="-208.5" font-family="Helvetica,sans-Serif" font-size="10.00">Features.hpp</text>
</a>
</g>
</g>
<!-- Node3&#45;&gt;Node4 -->
<g id="edge3" class="edge">
<title>Node3&#45;&gt;Node4</title>
<path fill="none" stroke="midnightblue" d="M268.73,-258.7C271.11,-249.59 273.75,-239.49 275.82,-231.58"/>
<polygon fill="midnightblue" stroke="midnightblue" points="265.33,-257.84 266.19,-268.4 272.11,-259.61 265.33,-257.84"/>
</g>
<!-- Node5 -->
<g id="node5" class="node">
<title>Node5</title>
<g id="a_node5"><a xlink:href="guwhiteboardposter_8h.html" target="_top" xlink:title=" ">
<polygon fill="none" stroke="black" points="156,-140 156,-159 265,-159 265,-140 156,-140"/>
<text text-anchor="middle" x="210.5" y="-147" font-family="Helvetica,sans-Serif" font-size="10.00">guwhiteboardposter.h</text>
</a>
</g>
</g>
<!-- Node4&#45;&gt;Node5 -->
<g id="edge4" class="edge">
<title>Node4&#45;&gt;Node5</title>
<path fill="none" stroke="midnightblue" d="M257.03,-194.34C244.36,-182.4 229.22,-168.14 219.73,-159.19"/>
<polygon fill="midnightblue" stroke="midnightblue" points="254.85,-197.09 264.53,-201.4 259.65,-191.99 254.85,-197.09"/>
</g>
<!-- Node11 -->
<g id="node11" class="node">
<title>Node11</title>
<g id="a_node11"><a xlink:href="_vision_field_features_8h.html" target="_top" xlink:title=" ">
<polygon fill="none" stroke="black" points="283,-134.5 283,-164.5 414,-164.5 414,-134.5 283,-134.5"/>
<text text-anchor="start" x="291" y="-152.5" font-family="Helvetica,sans-Serif" font-size="10.00">typeClassDefs/VisionField</text>
<text text-anchor="middle" x="348.5" y="-141.5" font-family="Helvetica,sans-Serif" font-size="10.00">Features.h</text>
</a>
</g>
</g>
<!-- Node4&#45;&gt;Node11 -->
<g id="edge10" class="edge">
<title>Node4&#45;&gt;Node11</title>
<path fill="none" stroke="midnightblue" d="M301.99,-194.31C312.34,-184.56 324.34,-173.26 333.56,-164.58"/>
<polygon fill="midnightblue" stroke="midnightblue" points="299.35,-191.99 294.47,-201.4 304.15,-197.09 299.35,-191.99"/>
</g>
<!-- Node6 -->
<g id="node6" class="node">
<title>Node6</title>
<g id="a_node6"><a xlink:href="_simple_whiteboard_test_8h.html" target="_top" xlink:title=" ">
<polygon fill="none" stroke="black" points="11,-67.5 11,-97.5 136,-97.5 136,-67.5 11,-67.5"/>
<text text-anchor="start" x="19" y="-85.5" font-family="Helvetica,sans-Serif" font-size="10.00">SimpleWhiteboardTest</text>
<text text-anchor="middle" x="73.5" y="-74.5" font-family="Helvetica,sans-Serif" font-size="10.00">/SimpleWhiteboardTest.h</text>
</a>
</g>
</g>
<!-- Node5&#45;&gt;Node6 -->
<g id="edge5" class="edge">
<title>Node5&#45;&gt;Node6</title>
<path fill="none" stroke="midnightblue" d="M183.04,-135.47C159.88,-124.49 126.81,-108.79 103.07,-97.53"/>
<polygon fill="midnightblue" stroke="midnightblue" points="181.77,-138.74 192.31,-139.87 184.77,-132.42 181.77,-138.74"/>
</g>
<!-- Node8 -->
<g id="node8" class="node">
<title>Node8</title>
<g id="a_node8"><a xlink:href="guwhiteboardgetter_8h.html" target="_top" xlink:title=" ">
<polygon fill="none" stroke="black" points="157,-73 157,-92 264,-92 264,-73 157,-73"/>
<text text-anchor="middle" x="210.5" y="-80" font-family="Helvetica,sans-Serif" font-size="10.00">guwhiteboardgetter.h</text>
</a>
</g>
</g>
<!-- Node5&#45;&gt;Node8 -->
<g id="edge7" class="edge">
<title>Node5&#45;&gt;Node8</title>
<path fill="none" stroke="midnightblue" d="M210.5,-129.54C210.5,-117.17 210.5,-101.62 210.5,-92.13"/>
<polygon fill="midnightblue" stroke="midnightblue" points="207,-129.73 210.5,-139.73 214,-129.73 207,-129.73"/>
</g>
<!-- Node10 -->
<g id="node10" class="node">
<title>Node10</title>
<g id="a_node10"><a xlink:href="guwhiteboardposter_8cpp.html" target="_top" xlink:title=" ">
<polygon fill="none" stroke="black" points="282,-73 282,-92 401,-92 401,-73 282,-73"/>
<text text-anchor="middle" x="341.5" y="-80" font-family="Helvetica,sans-Serif" font-size="10.00">guwhiteboardposter.cpp</text>
</a>
</g>
</g>
<!-- Node5&#45;&gt;Node10 -->
<g id="edge9" class="edge">
<title>Node5&#45;&gt;Node10</title>
<path fill="none" stroke="midnightblue" d="M237.16,-135.27C263.1,-122.4 301.78,-103.21 324.03,-92.17"/>
<polygon fill="midnightblue" stroke="midnightblue" points="235.3,-132.29 227.9,-139.87 238.41,-138.56 235.3,-132.29"/>
</g>
<!-- Node7 -->
<g id="node7" class="node">
<title>Node7</title>
<g id="a_node7"><a xlink:href="_simple_whiteboard_test_8mm.html" target="_top" xlink:title=" ">
<polygon fill="none" stroke="black" points="0,-0.5 0,-30.5 137,-30.5 137,-0.5 0,-0.5"/>
<text text-anchor="start" x="8" y="-18.5" font-family="Helvetica,sans-Serif" font-size="10.00">SimpleWhiteboardTest</text>
<text text-anchor="middle" x="68.5" y="-7.5" font-family="Helvetica,sans-Serif" font-size="10.00">/SimpleWhiteboardTest.mm</text>
</a>
</g>
</g>
<!-- Node6&#45;&gt;Node7 -->
<g id="edge6" class="edge">
<title>Node6&#45;&gt;Node7</title>
<path fill="none" stroke="midnightblue" d="M71.65,-57.4C70.95,-48.37 70.19,-38.41 69.58,-30.58"/>
<polygon fill="midnightblue" stroke="midnightblue" points="68.16,-57.69 72.42,-67.4 75.14,-57.16 68.16,-57.69"/>
</g>
<!-- Node9 -->
<g id="node9" class="node">
<title>Node9</title>
<g id="a_node9"><a xlink:href="guwhiteboardgetter_8cpp.html" target="_top" xlink:title=" ">
<polygon fill="none" stroke="black" points="155,-6 155,-25 272,-25 272,-6 155,-6"/>
<text text-anchor="middle" x="213.5" y="-13" font-family="Helvetica,sans-Serif" font-size="10.00">guwhiteboardgetter.cpp</text>
</a>
</g>
</g>
<!-- Node8&#45;&gt;Node9 -->
<g id="edge8" class="edge">
<title>Node8&#45;&gt;Node9</title>
<path fill="none" stroke="midnightblue" d="M211.38,-62.54C211.95,-50.17 212.66,-34.62 213.1,-25.13"/>
<polygon fill="midnightblue" stroke="midnightblue" points="207.87,-62.58 210.9,-72.73 214.86,-62.91 207.87,-62.58"/>
</g>
<!-- Node13&#45;&gt;Node4 -->
<g id="edge16" class="edge">
<title>Node13&#45;&gt;Node4</title>
<path fill="none" stroke="midnightblue" d="M467.22,-330.13C422.39,-303.24 342.37,-255.22 302.87,-231.52"/>
<polygon fill="midnightblue" stroke="midnightblue" points="465.58,-333.23 475.96,-335.37 469.18,-327.23 465.58,-333.23"/>
</g>
<!-- Node14 -->
<g id="node14" class="node">
<title>Node14</title>
<g id="a_node14"><a xlink:href="guwhiteboard__c__types_8h.html" target="_top" xlink:title=" ">
<polygon fill="none" stroke="black" points="425,-274 425,-293 546,-293 546,-274 425,-274"/>
<text text-anchor="middle" x="485.5" y="-281" font-family="Helvetica,sans-Serif" font-size="10.00">guwhiteboard_c_types.h</text>
</a>
</g>
</g>
<!-- Node13&#45;&gt;Node14 -->
<g id="edge13" class="edge">
<title>Node13&#45;&gt;Node14</title>
<path fill="none" stroke="midnightblue" d="M494.35,-325.6C491.91,-314.28 489.15,-301.46 487.37,-293.19"/>
<polygon fill="midnightblue" stroke="midnightblue" points="490.94,-326.36 496.46,-335.4 497.78,-324.88 490.94,-326.36"/>
</g>
<!-- Node17 -->
<g id="node17" class="node">
<title>Node17</title>
<g id="a_node17"><a xlink:href="wb__vision__field__features_8c.html" target="_top" xlink:title=" ">
<polygon fill="none" stroke="black" points="564.5,-268.5 564.5,-298.5 690.5,-298.5 690.5,-268.5 564.5,-268.5"/>
<text text-anchor="start" x="572.5" y="-286.5" font-family="Helvetica,sans-Serif" font-size="10.00">typeClassDefs/wb_vision</text>
<text text-anchor="middle" x="627.5" y="-275.5" font-family="Helvetica,sans-Serif" font-size="10.00">_field_features.c</text>
</a>
</g>
</g>
<!-- Node13&#45;&gt;Node17 -->
<g id="edge17" class="edge">
<title>Node13&#45;&gt;Node17</title>
<path fill="none" stroke="midnightblue" d="M536.22,-330.85C556.46,-320.58 581.17,-308.03 599.78,-298.58"/>
<polygon fill="midnightblue" stroke="midnightblue" points="534.61,-327.75 527.27,-335.4 537.78,-333.99 534.61,-327.75"/>
</g>
<!-- Node15 -->
<g id="node15" class="node">
<title>Node15</title>
<g id="a_node15"><a xlink:href="guwhiteboarddeserialiser_8c.html" target="_top" xlink:title=" ">
<polygon fill="none" stroke="black" points="391,-207 391,-226 522,-226 522,-207 391,-207"/>
<text text-anchor="middle" x="456.5" y="-214" font-family="Helvetica,sans-Serif" font-size="10.00">guwhiteboarddeserialiser.c</text>
</a>
</g>
</g>
<!-- Node14&#45;&gt;Node15 -->
<g id="edge14" class="edge">
<title>Node14&#45;&gt;Node15</title>
<path fill="none" stroke="midnightblue" d="M477.38,-264.29C471.81,-251.81 464.67,-235.81 460.35,-226.13"/>
<polygon fill="midnightblue" stroke="midnightblue" points="474.32,-266.03 481.59,-273.73 480.71,-263.18 474.32,-266.03"/>
</g>
<!-- Node16 -->
<g id="node16" class="node">
<title>Node16</title>
<g id="a_node16"><a xlink:href="guwhiteboardserialiser_8c.html" target="_top" xlink:title=" ">
<polygon fill="none" stroke="black" points="540,-207 540,-226 661,-226 661,-207 540,-207"/>
<text text-anchor="middle" x="600.5" y="-214" font-family="Helvetica,sans-Serif" font-size="10.00">guwhiteboardserialiser.c</text>
</a>
</g>
</g>
<!-- Node14&#45;&gt;Node16 -->
<g id="edge15" class="edge">
<title>Node14&#45;&gt;Node16</title>
<path fill="none" stroke="midnightblue" d="M509.76,-268.79C532.55,-255.9 565.96,-237.02 585.24,-226.13"/>
<polygon fill="midnightblue" stroke="midnightblue" points="507.99,-265.77 501.01,-273.73 511.44,-271.86 507.99,-265.77"/>
</g>
</g>
</svg>
