<?xml version="1.0" encoding="UTF-8" standalone="no"?>
<!DOCTYPE svg PUBLIC "-//W3C//DTD SVG 1.1//EN"
 "http://www.w3.org/Graphics/SVG/1.1/DTD/svg11.dtd">
<!-- Generated by graphviz version 2.49.0 (20210830.1337)
 -->
<!-- Title: typeClassDefs/wb_sensors_torsojointtemps.c Pages: 1 -->
<svg width="482pt" height="151pt"
 viewBox="0.00 0.00 482.00 151.00" xmlns="http://www.w3.org/2000/svg" xmlns:xlink="http://www.w3.org/1999/xlink">
<g id="graph0" class="graph" transform="scale(1 1) rotate(0) translate(4 147)">
<title>typeClassDefs/wb_sensors_torsojointtemps.c</title>
<!-- Node1 -->
<g id="node1" class="node">
<title>Node1</title>
<g id="a_node1"><a xlink:title=" ">
<polygon fill="#bfbfbf" stroke="black" points="220,-112.5 220,-142.5 355,-142.5 355,-112.5 220,-112.5"/>
<text text-anchor="start" x="228" y="-130.5" font-family="Helvetica,sans-Serif" font-size="10.00">typeClassDefs/wb_sensors</text>
<text text-anchor="middle" x="287.5" y="-119.5" font-family="Helvetica,sans-Serif" font-size="10.00">_torsojointtemps.c</text>
</a>
</g>
</g>
<!-- Node2 -->
<g id="node2" class="node">
<title>Node2</title>
<g id="a_node2"><a xlink:href="wb__sensors__torsojointtemps_8h.html" target="_top" xlink:title=" ">
<polygon fill="none" stroke="black" points="0,-56.5 0,-75.5 149,-75.5 149,-56.5 0,-56.5"/>
<text text-anchor="middle" x="74.5" y="-63.5" font-family="Helvetica,sans-Serif" font-size="10.00">wb_sensors_torsojointtemps.h</text>
</a>
</g>
</g>
<!-- Node1&#45;&gt;Node2 -->
<g id="edge1" class="edge">
<title>Node1&#45;&gt;Node2</title>
<path fill="none" stroke="midnightblue" d="M237.29,-112.47C199.9,-102.03 149.52,-87.96 114.76,-78.25"/>
<polygon fill="midnightblue" stroke="midnightblue" points="115.52,-74.83 104.95,-75.51 113.64,-81.57 115.52,-74.83"/>
</g>
<!-- Node5 -->
<g id="node5" class="node">
<title>Node5</title>
<g id="a_node5"><a xlink:title=" ">
<polygon fill="none" stroke="#bfbfbf" points="167,-56.5 167,-75.5 212,-75.5 212,-56.5 167,-56.5"/>
<text text-anchor="middle" x="189.5" y="-63.5" font-family="Helvetica,sans-Serif" font-size="10.00">stdio.h</text>
</a>
</g>
</g>
<!-- Node1&#45;&gt;Node5 -->
<g id="edge4" class="edge">
<title>Node1&#45;&gt;Node5</title>
<path fill="none" stroke="midnightblue" d="M264.28,-112.4C248.71,-102.95 228.3,-90.56 212.74,-81.11"/>
<polygon fill="midnightblue" stroke="midnightblue" points="214.12,-77.86 203.76,-75.66 210.49,-83.84 214.12,-77.86"/>
</g>
<!-- Node6 -->
<g id="node6" class="node">
<title>Node6</title>
<g id="a_node6"><a xlink:title=" ">
<polygon fill="none" stroke="#bfbfbf" points="230.5,-56.5 230.5,-75.5 278.5,-75.5 278.5,-56.5 230.5,-56.5"/>
<text text-anchor="middle" x="254.5" y="-63.5" font-family="Helvetica,sans-Serif" font-size="10.00">string.h</text>
</a>
</g>
</g>
<!-- Node1&#45;&gt;Node6 -->
<g id="edge5" class="edge">
<title>Node1&#45;&gt;Node6</title>
<path fill="none" stroke="midnightblue" d="M279.68,-112.4C275.03,-104.02 269.1,-93.33 264.16,-84.42"/>
<polygon fill="midnightblue" stroke="midnightblue" points="267.21,-82.71 259.3,-75.66 261.09,-86.1 267.21,-82.71"/>
</g>
<!-- Node7 -->
<g id="node7" class="node">
<title>Node7</title>
<g id="a_node7"><a xlink:title=" ">
<polygon fill="none" stroke="#bfbfbf" points="297,-56.5 297,-75.5 344,-75.5 344,-56.5 297,-56.5"/>
<text text-anchor="middle" x="320.5" y="-63.5" font-family="Helvetica,sans-Serif" font-size="10.00">stdlib.h</text>
</a>
</g>
</g>
<!-- Node1&#45;&gt;Node7 -->
<g id="edge6" class="edge">
<title>Node1&#45;&gt;Node7</title>
<path fill="none" stroke="midnightblue" d="M295.32,-112.4C299.97,-104.02 305.9,-93.33 310.84,-84.42"/>
<polygon fill="midnightblue" stroke="midnightblue" points="313.91,-86.1 315.7,-75.66 307.79,-82.71 313.91,-86.1"/>
</g>
<!-- Node8 -->
<g id="node8" class="node">
<title>Node8</title>
<g id="a_node8"><a xlink:title=" ">
<polygon fill="none" stroke="#bfbfbf" points="362,-56.5 362,-75.5 409,-75.5 409,-56.5 362,-56.5"/>
<text text-anchor="middle" x="385.5" y="-63.5" font-family="Helvetica,sans-Serif" font-size="10.00">ctype.h</text>
</a>
</g>
</g>
<!-- Node1&#45;&gt;Node8 -->
<g id="edge7" class="edge">
<title>Node1&#45;&gt;Node8</title>
<path fill="none" stroke="midnightblue" d="M310.72,-112.4C326.29,-102.95 346.7,-90.56 362.26,-81.11"/>
<polygon fill="midnightblue" stroke="midnightblue" points="364.51,-83.84 371.24,-75.66 360.88,-77.86 364.51,-83.84"/>
</g>
<!-- Node9 -->
<g id="node9" class="node">
<title>Node9</title>
<g id="a_node9"><a xlink:title=" ">
<polygon fill="none" stroke="#bfbfbf" points="427,-56.5 427,-75.5 474,-75.5 474,-56.5 427,-56.5"/>
<text text-anchor="middle" x="450.5" y="-63.5" font-family="Helvetica,sans-Serif" font-size="10.00">limits.h</text>
</a>
</g>
</g>
<!-- Node1&#45;&gt;Node9 -->
<g id="edge8" class="edge">
<title>Node1&#45;&gt;Node9</title>
<path fill="none" stroke="midnightblue" d="M326.13,-112.4C353.84,-102.28 390.81,-88.79 417.22,-79.15"/>
<polygon fill="midnightblue" stroke="midnightblue" points="418.59,-82.37 426.78,-75.66 416.19,-75.8 418.59,-82.37"/>
</g>
<!-- Node3 -->
<g id="node3" class="node">
<title>Node3</title>
<g id="a_node3"><a xlink:title=" ">
<polygon fill="none" stroke="#bfbfbf" points="14,-0.5 14,-19.5 67,-19.5 67,-0.5 14,-0.5"/>
<text text-anchor="middle" x="40.5" y="-7.5" font-family="Helvetica,sans-Serif" font-size="10.00">gu_util.h</text>
</a>
</g>
</g>
<!-- Node2&#45;&gt;Node3 -->
<g id="edge2" class="edge">
<title>Node2&#45;&gt;Node3</title>
<path fill="none" stroke="midnightblue" d="M68.89,-56.08C64.13,-48.53 57.18,-37.49 51.35,-28.23"/>
<polygon fill="midnightblue" stroke="midnightblue" points="54.3,-26.35 46.01,-19.75 48.38,-30.08 54.3,-26.35"/>
</g>
<!-- Node4 -->
<g id="node4" class="node">
<title>Node4</title>
<g id="a_node4"><a xlink:title=" ">
<polygon fill="none" stroke="#bfbfbf" points="85.5,-0.5 85.5,-19.5 133.5,-19.5 133.5,-0.5 85.5,-0.5"/>
<text text-anchor="middle" x="109.5" y="-7.5" font-family="Helvetica,sans-Serif" font-size="10.00">stdint.h</text>
</a>
</g>
</g>
<!-- Node2&#45;&gt;Node4 -->
<g id="edge3" class="edge">
<title>Node2&#45;&gt;Node4</title>
<path fill="none" stroke="midnightblue" d="M80.28,-56.08C85.17,-48.53 92.33,-37.49 98.33,-28.23"/>
<polygon fill="midnightblue" stroke="midnightblue" points="101.33,-30.05 103.83,-19.75 95.45,-26.24 101.33,-30.05"/>
</g>
</g>
</svg>
