<?xml version="1.0" encoding="UTF-8" standalone="no"?>
<!DOCTYPE svg PUBLIC "-//W3C//DTD SVG 1.1//EN"
 "http://www.w3.org/Graphics/SVG/1.1/DTD/svg11.dtd">
<!-- Generated by graphviz version 2.49.0 (20210830.1337)
 -->
<!-- Title: typeClassDefs/wb_line_sighting.h Pages: 1 -->
<svg width="146pt" height="151pt"
 viewBox="0.00 0.00 145.73 151.00" xmlns="http://www.w3.org/2000/svg" xmlns:xlink="http://www.w3.org/1999/xlink">
<g id="graph0" class="graph" transform="scale(1 1) rotate(0) translate(4 147)">
<title>typeClassDefs/wb_line_sighting.h</title>
<!-- Node1 -->
<g id="node1" class="node">
<title>Node1</title>
<g id="a_node1"><a xlink:title=" ">
<polygon fill="#bfbfbf" stroke="black" points="10.88,-112.5 10.88,-142.5 126.88,-142.5 126.88,-112.5 10.88,-112.5"/>
<text text-anchor="start" x="18.88" y="-130.5" font-family="Helvetica,sans-Serif" font-size="10.00">typeClassDefs/wb_line</text>
<text text-anchor="middle" x="68.88" y="-119.5" font-family="Helvetica,sans-Serif" font-size="10.00">_sighting.h</text>
</a>
</g>
</g>
<!-- Node2 -->
<g id="node2" class="node">
<title>Node2</title>
<g id="a_node2"><a xlink:title=" ">
<polygon fill="none" stroke="#bfbfbf" points="3.38,-0.5 3.38,-19.5 56.38,-19.5 56.38,-0.5 3.38,-0.5"/>
<text text-anchor="middle" x="29.88" y="-7.5" font-family="Helvetica,sans-Serif" font-size="10.00">gu_util.h</text>
</a>
</g>
</g>
<!-- Node1&#45;&gt;Node2 -->
<g id="edge1" class="edge">
<title>Node1&#45;&gt;Node2</title>
<path fill="none" stroke="midnightblue" d="M39.97,-112.45C26.03,-103.99 10.67,-91.78 2.88,-76 -5.11,-59.82 5.09,-40.68 15.17,-27.38"/>
<polygon fill="midnightblue" stroke="midnightblue" points="17.94,-29.52 21.57,-19.57 12.53,-25.08 17.94,-29.52"/>
</g>
<!-- Node3 -->
<g id="node3" class="node">
<title>Node3</title>
<g id="a_node3"><a xlink:title=" ">
<polygon fill="none" stroke="#bfbfbf" points="82.88,-0.5 82.88,-19.5 130.88,-19.5 130.88,-0.5 82.88,-0.5"/>
<text text-anchor="middle" x="106.88" y="-7.5" font-family="Helvetica,sans-Serif" font-size="10.00">stdint.h</text>
</a>
</g>
</g>
<!-- Node1&#45;&gt;Node3 -->
<g id="edge2" class="edge">
<title>Node1&#45;&gt;Node3</title>
<path fill="none" stroke="midnightblue" d="M97.79,-112.45C111.73,-103.99 127.08,-91.78 134.88,-76 142.91,-59.73 132.36,-40.61 121.99,-27.33"/>
<polygon fill="midnightblue" stroke="midnightblue" points="124.54,-24.92 115.4,-19.54 119.19,-29.44 124.54,-24.92"/>
</g>
<!-- Node4 -->
<g id="node4" class="node">
<title>Node4</title>
<g id="a_node4"><a xlink:href="wb__polar__coordinate_8h.html" target="_top" xlink:title=" ">
<polygon fill="none" stroke="black" points="12.38,-56.5 12.38,-75.5 125.38,-75.5 125.38,-56.5 12.38,-56.5"/>
<text text-anchor="middle" x="68.88" y="-63.5" font-family="Helvetica,sans-Serif" font-size="10.00">wb_polar_coordinate.h</text>
</a>
</g>
</g>
<!-- Node1&#45;&gt;Node4 -->
<g id="edge3" class="edge">
<title>Node1&#45;&gt;Node4</title>
<path fill="none" stroke="midnightblue" d="M68.88,-112.4C68.88,-104.47 68.88,-94.46 68.88,-85.86"/>
<polygon fill="midnightblue" stroke="midnightblue" points="72.38,-85.66 68.88,-75.66 65.38,-85.66 72.38,-85.66"/>
</g>
<!-- Node4&#45;&gt;Node2 -->
<g id="edge4" class="edge">
<title>Node4&#45;&gt;Node2</title>
<path fill="none" stroke="midnightblue" d="M62.44,-56.08C56.93,-48.46 48.85,-37.26 42.11,-27.94"/>
<polygon fill="midnightblue" stroke="midnightblue" points="44.89,-25.81 36.2,-19.75 39.21,-29.91 44.89,-25.81"/>
</g>
<!-- Node4&#45;&gt;Node3 -->
<g id="edge5" class="edge">
<title>Node4&#45;&gt;Node3</title>
<path fill="none" stroke="midnightblue" d="M75.15,-56.08C80.52,-48.46 88.39,-37.26 94.96,-27.94"/>
<polygon fill="midnightblue" stroke="midnightblue" points="97.83,-29.94 100.72,-19.75 92.1,-25.91 97.83,-29.94"/>
</g>
</g>
</svg>
