<?xml version="1.0" encoding="UTF-8" standalone="no"?>
<!DOCTYPE svg PUBLIC "-//W3C//DTD SVG 1.1//EN"
 "http://www.w3.org/Graphics/SVG/1.1/DTD/svg11.dtd">
<!-- Generated by graphviz version 2.49.0 (20210830.1337)
 -->
<!-- Title: typeClassDefs/wb_microwave_status.h Pages: 1 -->
<svg width="629pt" height="296pt"
 viewBox="0.00 0.00 628.50 296.00" xmlns="http://www.w3.org/2000/svg" xmlns:xlink="http://www.w3.org/1999/xlink">
<g id="graph0" class="graph" transform="scale(1 1) rotate(0) translate(4 292)">
<title>typeClassDefs/wb_microwave_status.h</title>
<!-- Node1 -->
<g id="node1" class="node">
<title>Node1</title>
<g id="a_node1"><a xlink:title=" ">
<polygon fill="#bfbfbf" stroke="black" points="292.5,-257.5 292.5,-287.5 440.5,-287.5 440.5,-257.5 292.5,-257.5"/>
<text text-anchor="start" x="300.5" y="-275.5" font-family="Helvetica,sans-Serif" font-size="10.00">typeClassDefs/wb_microwave</text>
<text text-anchor="middle" x="366.5" y="-264.5" font-family="Helvetica,sans-Serif" font-size="10.00">_status.h</text>
</a>
</g>
</g>
<!-- Node2 -->
<g id="node2" class="node">
<title>Node2</title>
<g id="a_node2"><a xlink:href="guwhiteboard__c__types_8h.html" target="_top" xlink:title=" ">
<polygon fill="none" stroke="black" points="140,-196 140,-215 261,-215 261,-196 140,-196"/>
<text text-anchor="middle" x="200.5" y="-203" font-family="Helvetica,sans-Serif" font-size="10.00">guwhiteboard_c_types.h</text>
</a>
</g>
</g>
<!-- Node1&#45;&gt;Node2 -->
<g id="edge1" class="edge">
<title>Node1&#45;&gt;Node2</title>
<path fill="none" stroke="midnightblue" d="M320.84,-253.62C288.71,-241.04 247.15,-224.77 222.23,-215.01"/>
<polygon fill="midnightblue" stroke="midnightblue" points="319.89,-257.01 330.48,-257.4 322.45,-250.49 319.89,-257.01"/>
</g>
<!-- Node5 -->
<g id="node5" class="node">
<title>Node5</title>
<g id="a_node5"><a xlink:href="_microwave_status_8hpp.html" target="_top" xlink:title=" ">
<polygon fill="none" stroke="black" points="278.5,-196 278.5,-215 454.5,-215 454.5,-196 278.5,-196"/>
<text text-anchor="middle" x="366.5" y="-203" font-family="Helvetica,sans-Serif" font-size="10.00">typeClassDefs/MicrowaveStatus.hpp</text>
</a>
</g>
</g>
<!-- Node1&#45;&gt;Node5 -->
<g id="edge4" class="edge">
<title>Node1&#45;&gt;Node5</title>
<path fill="none" stroke="midnightblue" d="M366.5,-247.25C366.5,-236.02 366.5,-223.38 366.5,-215.19"/>
<polygon fill="midnightblue" stroke="midnightblue" points="363,-247.4 366.5,-257.4 370,-247.4 363,-247.4"/>
</g>
<!-- Node13 -->
<g id="node13" class="node">
<title>Node13</title>
<g id="a_node13"><a xlink:href="wb__microwave__status_8c.html" target="_top" xlink:title=" ">
<polygon fill="none" stroke="black" points="472.5,-190.5 472.5,-220.5 620.5,-220.5 620.5,-190.5 472.5,-190.5"/>
<text text-anchor="start" x="480.5" y="-208.5" font-family="Helvetica,sans-Serif" font-size="10.00">typeClassDefs/wb_microwave</text>
<text text-anchor="middle" x="546.5" y="-197.5" font-family="Helvetica,sans-Serif" font-size="10.00">_status.c</text>
</a>
</g>
</g>
<!-- Node1&#45;&gt;Node13 -->
<g id="edge12" class="edge">
<title>Node1&#45;&gt;Node13</title>
<path fill="none" stroke="midnightblue" d="M415.09,-253.96C444.08,-243.48 480.41,-230.37 507.52,-220.58"/>
<polygon fill="midnightblue" stroke="midnightblue" points="413.77,-250.71 405.56,-257.4 416.15,-257.29 413.77,-250.71"/>
</g>
<!-- Node3 -->
<g id="node3" class="node">
<title>Node3</title>
<g id="a_node3"><a xlink:href="guwhiteboarddeserialiser_8c.html" target="_top" xlink:title=" ">
<polygon fill="none" stroke="black" points="0,-134.5 0,-153.5 131,-153.5 131,-134.5 0,-134.5"/>
<text text-anchor="middle" x="65.5" y="-141.5" font-family="Helvetica,sans-Serif" font-size="10.00">guwhiteboarddeserialiser.c</text>
</a>
</g>
</g>
<!-- Node2&#45;&gt;Node3 -->
<g id="edge2" class="edge">
<title>Node2&#45;&gt;Node3</title>
<path fill="none" stroke="midnightblue" d="M171.75,-191.83C145.54,-180.28 107.55,-163.53 84.81,-153.51"/>
<polygon fill="midnightblue" stroke="midnightblue" points="170.6,-195.14 181.16,-195.98 173.42,-188.74 170.6,-195.14"/>
</g>
<!-- Node4 -->
<g id="node4" class="node">
<title>Node4</title>
<g id="a_node4"><a xlink:href="guwhiteboardserialiser_8c.html" target="_top" xlink:title=" ">
<polygon fill="none" stroke="black" points="149,-134.5 149,-153.5 270,-153.5 270,-134.5 149,-134.5"/>
<text text-anchor="middle" x="209.5" y="-141.5" font-family="Helvetica,sans-Serif" font-size="10.00">guwhiteboardserialiser.c</text>
</a>
</g>
</g>
<!-- Node2&#45;&gt;Node4 -->
<g id="edge3" class="edge">
<title>Node2&#45;&gt;Node4</title>
<path fill="none" stroke="midnightblue" d="M203.33,-185.82C204.96,-175 206.94,-161.9 208.21,-153.51"/>
<polygon fill="midnightblue" stroke="midnightblue" points="199.82,-185.56 201.79,-195.98 206.75,-186.61 199.82,-185.56"/>
</g>
<!-- Node6 -->
<g id="node6" class="node">
<title>Node6</title>
<g id="a_node6"><a xlink:href="guwhiteboardposter_8h.html" target="_top" xlink:title=" ">
<polygon fill="none" stroke="black" points="304,-134.5 304,-153.5 413,-153.5 413,-134.5 304,-134.5"/>
<text text-anchor="middle" x="358.5" y="-141.5" font-family="Helvetica,sans-Serif" font-size="10.00">guwhiteboardposter.h</text>
</a>
</g>
</g>
<!-- Node5&#45;&gt;Node6 -->
<g id="edge5" class="edge">
<title>Node5&#45;&gt;Node6</title>
<path fill="none" stroke="midnightblue" d="M363.99,-185.82C362.53,-175 360.77,-161.9 359.64,-153.51"/>
<polygon fill="midnightblue" stroke="midnightblue" points="360.55,-186.53 365.35,-195.98 367.49,-185.6 360.55,-186.53"/>
</g>
<!-- Node12 -->
<g id="node12" class="node">
<title>Node12</title>
<g id="a_node12"><a xlink:href="_microwave_status_8h.html" target="_top" xlink:title=" ">
<polygon fill="none" stroke="black" points="431.5,-134.5 431.5,-153.5 597.5,-153.5 597.5,-134.5 431.5,-134.5"/>
<text text-anchor="middle" x="514.5" y="-141.5" font-family="Helvetica,sans-Serif" font-size="10.00">typeClassDefs/MicrowaveStatus.h</text>
</a>
</g>
</g>
<!-- Node5&#45;&gt;Node12 -->
<g id="edge11" class="edge">
<title>Node5&#45;&gt;Node12</title>
<path fill="none" stroke="midnightblue" d="M397.27,-192.13C426.02,-180.57 468.18,-163.62 493.33,-153.51"/>
<polygon fill="midnightblue" stroke="midnightblue" points="395.68,-189 387.7,-195.98 398.29,-195.49 395.68,-189"/>
</g>
<!-- Node7 -->
<g id="node7" class="node">
<title>Node7</title>
<g id="a_node7"><a xlink:href="_simple_whiteboard_test_8h.html" target="_top" xlink:title=" ">
<polygon fill="none" stroke="black" points="159,-67.5 159,-97.5 284,-97.5 284,-67.5 159,-67.5"/>
<text text-anchor="start" x="167" y="-85.5" font-family="Helvetica,sans-Serif" font-size="10.00">SimpleWhiteboardTest</text>
<text text-anchor="middle" x="221.5" y="-74.5" font-family="Helvetica,sans-Serif" font-size="10.00">/SimpleWhiteboardTest.h</text>
</a>
</g>
</g>
<!-- Node6&#45;&gt;Node7 -->
<g id="edge6" class="edge">
<title>Node6&#45;&gt;Node7</title>
<path fill="none" stroke="midnightblue" d="M329.63,-130.46C307.44,-120.82 276.79,-107.51 253.79,-97.52"/>
<polygon fill="midnightblue" stroke="midnightblue" points="328.3,-133.7 338.87,-134.48 331.09,-127.28 328.3,-133.7"/>
</g>
<!-- Node9 -->
<g id="node9" class="node">
<title>Node9</title>
<g id="a_node9"><a xlink:href="guwhiteboardgetter_8h.html" target="_top" xlink:title=" ">
<polygon fill="none" stroke="black" points="305,-73 305,-92 412,-92 412,-73 305,-73"/>
<text text-anchor="middle" x="358.5" y="-80" font-family="Helvetica,sans-Serif" font-size="10.00">guwhiteboardgetter.h</text>
</a>
</g>
</g>
<!-- Node6&#45;&gt;Node9 -->
<g id="edge8" class="edge">
<title>Node6&#45;&gt;Node9</title>
<path fill="none" stroke="midnightblue" d="M358.5,-124.32C358.5,-113.5 358.5,-100.4 358.5,-92.01"/>
<polygon fill="midnightblue" stroke="midnightblue" points="355,-124.48 358.5,-134.48 362,-124.48 355,-124.48"/>
</g>
<!-- Node11 -->
<g id="node11" class="node">
<title>Node11</title>
<g id="a_node11"><a xlink:href="guwhiteboardposter_8cpp.html" target="_top" xlink:title=" ">
<polygon fill="none" stroke="black" points="430,-73 430,-92 549,-92 549,-73 430,-73"/>
<text text-anchor="middle" x="489.5" y="-80" font-family="Helvetica,sans-Serif" font-size="10.00">guwhiteboardposter.cpp</text>
</a>
</g>
</g>
<!-- Node6&#45;&gt;Node11 -->
<g id="edge10" class="edge">
<title>Node6&#45;&gt;Node11</title>
<path fill="none" stroke="midnightblue" d="M386.4,-130.33C411.83,-118.78 448.7,-102.03 470.77,-92.01"/>
<polygon fill="midnightblue" stroke="midnightblue" points="384.93,-127.15 377.27,-134.48 387.82,-133.53 384.93,-127.15"/>
</g>
<!-- Node8 -->
<g id="node8" class="node">
<title>Node8</title>
<g id="a_node8"><a xlink:href="_simple_whiteboard_test_8mm.html" target="_top" xlink:title=" ">
<polygon fill="none" stroke="black" points="148,-0.5 148,-30.5 285,-30.5 285,-0.5 148,-0.5"/>
<text text-anchor="start" x="156" y="-18.5" font-family="Helvetica,sans-Serif" font-size="10.00">SimpleWhiteboardTest</text>
<text text-anchor="middle" x="216.5" y="-7.5" font-family="Helvetica,sans-Serif" font-size="10.00">/SimpleWhiteboardTest.mm</text>
</a>
</g>
</g>
<!-- Node7&#45;&gt;Node8 -->
<g id="edge7" class="edge">
<title>Node7&#45;&gt;Node8</title>
<path fill="none" stroke="midnightblue" d="M219.65,-57.4C218.95,-48.37 218.19,-38.41 217.58,-30.58"/>
<polygon fill="midnightblue" stroke="midnightblue" points="216.16,-57.69 220.42,-67.4 223.14,-57.16 216.16,-57.69"/>
</g>
<!-- Node10 -->
<g id="node10" class="node">
<title>Node10</title>
<g id="a_node10"><a xlink:href="guwhiteboardgetter_8cpp.html" target="_top" xlink:title=" ">
<polygon fill="none" stroke="black" points="303,-6 303,-25 420,-25 420,-6 303,-6"/>
<text text-anchor="middle" x="361.5" y="-13" font-family="Helvetica,sans-Serif" font-size="10.00">guwhiteboardgetter.cpp</text>
</a>
</g>
</g>
<!-- Node9&#45;&gt;Node10 -->
<g id="edge9" class="edge">
<title>Node9&#45;&gt;Node10</title>
<path fill="none" stroke="midnightblue" d="M359.38,-62.54C359.95,-50.17 360.66,-34.62 361.1,-25.13"/>
<polygon fill="midnightblue" stroke="midnightblue" points="355.87,-62.58 358.9,-72.73 362.86,-62.91 355.87,-62.58"/>
</g>
</g>
</svg>
