<?xml version="1.0" encoding="UTF-8" standalone="no"?>
<!DOCTYPE svg PUBLIC "-//W3C//DTD SVG 1.1//EN"
 "http://www.w3.org/Graphics/SVG/1.1/DTD/svg11.dtd">
<!-- Generated by graphviz version 2.49.0 (20210830.1337)
 -->
<!-- Title: typeClassDefs/wb_vision_detection_features.c Pages: 1 -->
<svg width="514pt" height="352pt"
 viewBox="0.00 0.00 513.50 352.00" xmlns="http://www.w3.org/2000/svg" xmlns:xlink="http://www.w3.org/1999/xlink">
<g id="graph0" class="graph" transform="scale(1 1) rotate(0) translate(4 348)">
<title>typeClassDefs/wb_vision_detection_features.c</title>
<!-- Node1 -->
<g id="node1" class="node">
<title>Node1</title>
<g id="a_node1"><a xlink:title=" ">
<polygon fill="#bfbfbf" stroke="black" points="256,-313.5 256,-343.5 382,-343.5 382,-313.5 256,-313.5"/>
<text text-anchor="start" x="264" y="-331.5" font-family="Helvetica,sans-Serif" font-size="10.00">typeClassDefs/wb_vision</text>
<text text-anchor="middle" x="319" y="-320.5" font-family="Helvetica,sans-Serif" font-size="10.00">_detection_features.c</text>
</a>
</g>
</g>
<!-- Node2 -->
<g id="node2" class="node">
<title>Node2</title>
<g id="a_node2"><a xlink:href="wb__vision__detection__features_8h.html" target="_top" xlink:title=" ">
<polygon fill="none" stroke="black" points="75.5,-246.5 75.5,-276.5 180.5,-276.5 180.5,-246.5 75.5,-246.5"/>
<text text-anchor="start" x="83.5" y="-264.5" font-family="Helvetica,sans-Serif" font-size="10.00">wb_vision_detection</text>
<text text-anchor="middle" x="128" y="-253.5" font-family="Helvetica,sans-Serif" font-size="10.00">_features.h</text>
</a>
</g>
</g>
<!-- Node1&#45;&gt;Node2 -->
<g id="edge1" class="edge">
<title>Node1&#45;&gt;Node2</title>
<path fill="none" stroke="midnightblue" d="M277.56,-313.4C248.65,-303.56 209.89,-290.37 179.07,-279.88"/>
<polygon fill="midnightblue" stroke="midnightblue" points="179.96,-276.48 169.36,-276.58 177.7,-283.11 179.96,-276.48"/>
</g>
<!-- Node8 -->
<g id="node8" class="node">
<title>Node8</title>
<g id="a_node8"><a xlink:title=" ">
<polygon fill="none" stroke="#bfbfbf" points="198.5,-252 198.5,-271 243.5,-271 243.5,-252 198.5,-252"/>
<text text-anchor="middle" x="221" y="-259" font-family="Helvetica,sans-Serif" font-size="10.00">stdio.h</text>
</a>
</g>
</g>
<!-- Node1&#45;&gt;Node8 -->
<g id="edge13" class="edge">
<title>Node1&#45;&gt;Node8</title>
<path fill="none" stroke="midnightblue" d="M297.74,-313.4C281.3,-302.5 258.66,-287.48 242.23,-276.58"/>
<polygon fill="midnightblue" stroke="midnightblue" points="244.09,-273.62 233.83,-271.01 240.22,-279.45 244.09,-273.62"/>
</g>
<!-- Node9 -->
<g id="node9" class="node">
<title>Node9</title>
<g id="a_node9"><a xlink:title=" ">
<polygon fill="none" stroke="#bfbfbf" points="262,-252 262,-271 310,-271 310,-252 262,-252"/>
<text text-anchor="middle" x="286" y="-259" font-family="Helvetica,sans-Serif" font-size="10.00">string.h</text>
</a>
</g>
</g>
<!-- Node1&#45;&gt;Node9 -->
<g id="edge14" class="edge">
<title>Node1&#45;&gt;Node9</title>
<path fill="none" stroke="midnightblue" d="M311.84,-313.4C306.9,-303.66 300.29,-290.65 294.99,-280.21"/>
<polygon fill="midnightblue" stroke="midnightblue" points="298.06,-278.53 290.41,-271.19 291.82,-281.7 298.06,-278.53"/>
</g>
<!-- Node10 -->
<g id="node10" class="node">
<title>Node10</title>
<g id="a_node10"><a xlink:title=" ">
<polygon fill="none" stroke="#bfbfbf" points="328.5,-252 328.5,-271 375.5,-271 375.5,-252 328.5,-252"/>
<text text-anchor="middle" x="352" y="-259" font-family="Helvetica,sans-Serif" font-size="10.00">stdlib.h</text>
</a>
</g>
</g>
<!-- Node1&#45;&gt;Node10 -->
<g id="edge15" class="edge">
<title>Node1&#45;&gt;Node10</title>
<path fill="none" stroke="midnightblue" d="M326.16,-313.4C331.1,-303.66 337.71,-290.65 343.01,-280.21"/>
<polygon fill="midnightblue" stroke="midnightblue" points="346.18,-281.7 347.59,-271.19 339.94,-278.53 346.18,-281.7"/>
</g>
<!-- Node11 -->
<g id="node11" class="node">
<title>Node11</title>
<g id="a_node11"><a xlink:title=" ">
<polygon fill="none" stroke="#bfbfbf" points="393.5,-252 393.5,-271 440.5,-271 440.5,-252 393.5,-252"/>
<text text-anchor="middle" x="417" y="-259" font-family="Helvetica,sans-Serif" font-size="10.00">ctype.h</text>
</a>
</g>
</g>
<!-- Node1&#45;&gt;Node11 -->
<g id="edge16" class="edge">
<title>Node1&#45;&gt;Node11</title>
<path fill="none" stroke="midnightblue" d="M340.26,-313.4C356.7,-302.5 379.34,-287.48 395.77,-276.58"/>
<polygon fill="midnightblue" stroke="midnightblue" points="397.78,-279.45 404.17,-271.01 393.91,-273.62 397.78,-279.45"/>
</g>
<!-- Node12 -->
<g id="node12" class="node">
<title>Node12</title>
<g id="a_node12"><a xlink:title=" ">
<polygon fill="none" stroke="#bfbfbf" points="458.5,-252 458.5,-271 505.5,-271 505.5,-252 458.5,-252"/>
<text text-anchor="middle" x="482" y="-259" font-family="Helvetica,sans-Serif" font-size="10.00">limits.h</text>
</a>
</g>
</g>
<!-- Node1&#45;&gt;Node12 -->
<g id="edge17" class="edge">
<title>Node1&#45;&gt;Node12</title>
<path fill="none" stroke="midnightblue" d="M357.07,-313.49C383.33,-303.66 418.98,-290 450,-277 451.37,-276.43 452.77,-275.83 454.18,-275.22"/>
<polygon fill="midnightblue" stroke="midnightblue" points="455.74,-278.36 463.47,-271.12 452.9,-271.96 455.74,-278.36"/>
</g>
<!-- Node3 -->
<g id="node3" class="node">
<title>Node3</title>
<g id="a_node3"><a xlink:title=" ">
<polygon fill="none" stroke="#bfbfbf" points="205.5,-0.5 205.5,-19.5 258.5,-19.5 258.5,-0.5 205.5,-0.5"/>
<text text-anchor="middle" x="232" y="-7.5" font-family="Helvetica,sans-Serif" font-size="10.00">gu_util.h</text>
</a>
</g>
</g>
<!-- Node2&#45;&gt;Node3 -->
<g id="edge2" class="edge">
<title>Node2&#45;&gt;Node3</title>
<path fill="none" stroke="midnightblue" d="M151.07,-246.39C164.09,-237.4 179.76,-224.69 190,-210 226.02,-158.35 225.64,-138.11 236,-76 238.56,-60.65 237.21,-43.01 235.42,-29.98"/>
<polygon fill="midnightblue" stroke="midnightblue" points="238.84,-29.22 233.81,-19.9 231.93,-30.32 238.84,-29.22"/>
</g>
<!-- Node4 -->
<g id="node4" class="node">
<title>Node4</title>
<g id="a_node4"><a xlink:title=" ">
<polygon fill="none" stroke="#bfbfbf" points="0,-0.5 0,-19.5 48,-19.5 48,-0.5 0,-0.5"/>
<text text-anchor="middle" x="24" y="-7.5" font-family="Helvetica,sans-Serif" font-size="10.00">stdint.h</text>
</a>
</g>
</g>
<!-- Node2&#45;&gt;Node4 -->
<g id="edge3" class="edge">
<title>Node2&#45;&gt;Node4</title>
<path fill="none" stroke="midnightblue" d="M104.4,-246.33C91.37,-237.4 75.87,-224.78 66,-210 27.8,-152.78 23.42,-67.38 23.51,-29.85"/>
<polygon fill="midnightblue" stroke="midnightblue" points="27.01,-29.87 23.64,-19.82 20.01,-29.77 27.01,-29.87"/>
</g>
<!-- Node5 -->
<g id="node5" class="node">
<title>Node5</title>
<g id="a_node5"><a xlink:href="wb__vision__detection__feature__array_8h.html" target="_top" xlink:title=" ">
<polygon fill="none" stroke="black" points="75.5,-179.5 75.5,-209.5 180.5,-209.5 180.5,-179.5 75.5,-179.5"/>
<text text-anchor="start" x="83.5" y="-197.5" font-family="Helvetica,sans-Serif" font-size="10.00">wb_vision_detection</text>
<text text-anchor="middle" x="128" y="-186.5" font-family="Helvetica,sans-Serif" font-size="10.00">_feature_array.h</text>
</a>
</g>
</g>
<!-- Node2&#45;&gt;Node5 -->
<g id="edge4" class="edge">
<title>Node2&#45;&gt;Node5</title>
<path fill="none" stroke="midnightblue" d="M128,-246.4C128,-238.64 128,-228.81 128,-219.86"/>
<polygon fill="midnightblue" stroke="midnightblue" points="131.5,-219.58 128,-209.58 124.5,-219.58 131.5,-219.58"/>
</g>
<!-- Node5&#45;&gt;Node3 -->
<g id="edge5" class="edge">
<title>Node5&#45;&gt;Node3</title>
<path fill="none" stroke="midnightblue" d="M150.63,-179.5C163.66,-170.46 179.48,-157.67 190,-143 215.26,-107.78 225.77,-56.71 229.78,-29.58"/>
<polygon fill="midnightblue" stroke="midnightblue" points="233.27,-29.91 231.12,-19.53 226.33,-28.98 233.27,-29.91"/>
</g>
<!-- Node5&#45;&gt;Node4 -->
<g id="edge6" class="edge">
<title>Node5&#45;&gt;Node4</title>
<path fill="none" stroke="midnightblue" d="M104.85,-179.44C91.81,-170.47 76.15,-157.76 66,-143 41.56,-107.45 30.75,-56.91 26.47,-29.84"/>
<polygon fill="midnightblue" stroke="midnightblue" points="29.91,-29.19 25.01,-19.79 22.98,-30.19 29.91,-29.19"/>
</g>
<!-- Node6 -->
<g id="node6" class="node">
<title>Node6</title>
<g id="a_node6"><a xlink:href="wb__vision__detection__feature_8h.html" target="_top" xlink:title=" ">
<polygon fill="none" stroke="black" points="75.5,-112.5 75.5,-142.5 180.5,-142.5 180.5,-112.5 75.5,-112.5"/>
<text text-anchor="start" x="83.5" y="-130.5" font-family="Helvetica,sans-Serif" font-size="10.00">wb_vision_detection</text>
<text text-anchor="middle" x="128" y="-119.5" font-family="Helvetica,sans-Serif" font-size="10.00">_feature.h</text>
</a>
</g>
</g>
<!-- Node5&#45;&gt;Node6 -->
<g id="edge7" class="edge">
<title>Node5&#45;&gt;Node6</title>
<path fill="none" stroke="midnightblue" d="M128,-179.4C128,-171.64 128,-161.81 128,-152.86"/>
<polygon fill="midnightblue" stroke="midnightblue" points="131.5,-152.58 128,-142.58 124.5,-152.58 131.5,-152.58"/>
</g>
<!-- Node6&#45;&gt;Node3 -->
<g id="edge8" class="edge">
<title>Node6&#45;&gt;Node3</title>
<path fill="none" stroke="midnightblue" d="M150.58,-112.48C164.24,-103.26 181.39,-90.28 194,-76 206.55,-61.79 217.07,-42.82 223.84,-29.04"/>
<polygon fill="midnightblue" stroke="midnightblue" points="227.16,-30.22 228.26,-19.68 220.83,-27.23 227.16,-30.22"/>
</g>
<!-- Node6&#45;&gt;Node4 -->
<g id="edge9" class="edge">
<title>Node6&#45;&gt;Node4</title>
<path fill="none" stroke="midnightblue" d="M105.42,-112.48C91.76,-103.26 74.61,-90.28 62,-76 49.45,-61.79 38.93,-42.82 32.16,-29.04"/>
<polygon fill="midnightblue" stroke="midnightblue" points="35.17,-27.23 27.74,-19.68 28.84,-30.22 35.17,-27.23"/>
</g>
<!-- Node7 -->
<g id="node7" class="node">
<title>Node7</title>
<g id="a_node7"><a xlink:href="wb__polar__coordinate_8h.html" target="_top" xlink:title=" ">
<polygon fill="none" stroke="black" points="71.5,-56.5 71.5,-75.5 184.5,-75.5 184.5,-56.5 71.5,-56.5"/>
<text text-anchor="middle" x="128" y="-63.5" font-family="Helvetica,sans-Serif" font-size="10.00">wb_polar_coordinate.h</text>
</a>
</g>
</g>
<!-- Node6&#45;&gt;Node7 -->
<g id="edge10" class="edge">
<title>Node6&#45;&gt;Node7</title>
<path fill="none" stroke="midnightblue" d="M128,-112.4C128,-104.47 128,-94.46 128,-85.86"/>
<polygon fill="midnightblue" stroke="midnightblue" points="131.5,-85.66 128,-75.66 124.5,-85.66 131.5,-85.66"/>
</g>
<!-- Node7&#45;&gt;Node3 -->
<g id="edge11" class="edge">
<title>Node7&#45;&gt;Node3</title>
<path fill="none" stroke="midnightblue" d="M144.71,-56.32C161.31,-47.7 187,-34.36 206.22,-24.39"/>
<polygon fill="midnightblue" stroke="midnightblue" points="208.07,-27.37 215.33,-19.65 204.84,-21.16 208.07,-27.37"/>
</g>
<!-- Node7&#45;&gt;Node4 -->
<g id="edge12" class="edge">
<title>Node7&#45;&gt;Node4</title>
<path fill="none" stroke="midnightblue" d="M111.29,-56.32C94.69,-47.7 69,-34.36 49.78,-24.39"/>
<polygon fill="midnightblue" stroke="midnightblue" points="51.16,-21.16 40.67,-19.65 47.93,-27.37 51.16,-21.16"/>
</g>
</g>
</svg>
