<?xml version="1.0" encoding="UTF-8" standalone="no"?>
<!DOCTYPE svg PUBLIC "-//W3C//DTD SVG 1.1//EN"
 "http://www.w3.org/Graphics/SVG/1.1/DTD/svg11.dtd">
<!-- Generated by graphviz version 2.49.0 (20210830.1337)
 -->
<!-- Title: typeClassDefs/wb_vision_detection_goal.c Pages: 1 -->
<svg width="438pt" height="285pt"
 viewBox="0.00 0.00 438.00 285.00" xmlns="http://www.w3.org/2000/svg" xmlns:xlink="http://www.w3.org/1999/xlink">
<g id="graph0" class="graph" transform="scale(1 1) rotate(0) translate(4 281)">
<title>typeClassDefs/wb_vision_detection_goal.c</title>
<!-- Node1 -->
<g id="node1" class="node">
<title>Node1</title>
<g id="a_node1"><a xlink:title=" ">
<polygon fill="#bfbfbf" stroke="black" points="180.5,-246.5 180.5,-276.5 306.5,-276.5 306.5,-246.5 180.5,-246.5"/>
<text text-anchor="start" x="188.5" y="-264.5" font-family="Helvetica,sans-Serif" font-size="10.00">typeClassDefs/wb_vision</text>
<text text-anchor="middle" x="243.5" y="-253.5" font-family="Helvetica,sans-Serif" font-size="10.00">_detection_goal.c</text>
</a>
</g>
</g>
<!-- Node2 -->
<g id="node2" class="node">
<title>Node2</title>
<g id="a_node2"><a xlink:href="wb__vision__detection__goal_8h.html" target="_top" xlink:title=" ">
<polygon fill="none" stroke="black" points="0,-179.5 0,-209.5 105,-209.5 105,-179.5 0,-179.5"/>
<text text-anchor="start" x="8" y="-197.5" font-family="Helvetica,sans-Serif" font-size="10.00">wb_vision_detection</text>
<text text-anchor="middle" x="52.5" y="-186.5" font-family="Helvetica,sans-Serif" font-size="10.00">_goal.h</text>
</a>
</g>
</g>
<!-- Node1&#45;&gt;Node2 -->
<g id="edge1" class="edge">
<title>Node1&#45;&gt;Node2</title>
<path fill="none" stroke="midnightblue" d="M202.06,-246.4C173.15,-236.56 134.39,-223.37 103.57,-212.88"/>
<polygon fill="midnightblue" stroke="midnightblue" points="104.46,-209.48 93.86,-209.58 102.2,-216.11 104.46,-209.48"/>
</g>
<!-- Node9 -->
<g id="node9" class="node">
<title>Node9</title>
<g id="a_node9"><a xlink:title=" ">
<polygon fill="none" stroke="#bfbfbf" points="123,-185 123,-204 168,-204 168,-185 123,-185"/>
<text text-anchor="middle" x="145.5" y="-192" font-family="Helvetica,sans-Serif" font-size="10.00">stdio.h</text>
</a>
</g>
</g>
<!-- Node1&#45;&gt;Node9 -->
<g id="edge14" class="edge">
<title>Node1&#45;&gt;Node9</title>
<path fill="none" stroke="midnightblue" d="M222.24,-246.4C205.8,-235.5 183.16,-220.48 166.73,-209.58"/>
<polygon fill="midnightblue" stroke="midnightblue" points="168.59,-206.62 158.33,-204.01 164.72,-212.45 168.59,-206.62"/>
</g>
<!-- Node10 -->
<g id="node10" class="node">
<title>Node10</title>
<g id="a_node10"><a xlink:title=" ">
<polygon fill="none" stroke="#bfbfbf" points="186.5,-185 186.5,-204 234.5,-204 234.5,-185 186.5,-185"/>
<text text-anchor="middle" x="210.5" y="-192" font-family="Helvetica,sans-Serif" font-size="10.00">string.h</text>
</a>
</g>
</g>
<!-- Node1&#45;&gt;Node10 -->
<g id="edge15" class="edge">
<title>Node1&#45;&gt;Node10</title>
<path fill="none" stroke="midnightblue" d="M236.34,-246.4C231.4,-236.66 224.79,-223.65 219.49,-213.21"/>
<polygon fill="midnightblue" stroke="midnightblue" points="222.56,-211.53 214.91,-204.19 216.32,-214.7 222.56,-211.53"/>
</g>
<!-- Node11 -->
<g id="node11" class="node">
<title>Node11</title>
<g id="a_node11"><a xlink:title=" ">
<polygon fill="none" stroke="#bfbfbf" points="253,-185 253,-204 300,-204 300,-185 253,-185"/>
<text text-anchor="middle" x="276.5" y="-192" font-family="Helvetica,sans-Serif" font-size="10.00">stdlib.h</text>
</a>
</g>
</g>
<!-- Node1&#45;&gt;Node11 -->
<g id="edge16" class="edge">
<title>Node1&#45;&gt;Node11</title>
<path fill="none" stroke="midnightblue" d="M250.66,-246.4C255.6,-236.66 262.21,-223.65 267.51,-213.21"/>
<polygon fill="midnightblue" stroke="midnightblue" points="270.68,-214.7 272.09,-204.19 264.44,-211.53 270.68,-214.7"/>
</g>
<!-- Node12 -->
<g id="node12" class="node">
<title>Node12</title>
<g id="a_node12"><a xlink:title=" ">
<polygon fill="none" stroke="#bfbfbf" points="318,-185 318,-204 365,-204 365,-185 318,-185"/>
<text text-anchor="middle" x="341.5" y="-192" font-family="Helvetica,sans-Serif" font-size="10.00">ctype.h</text>
</a>
</g>
</g>
<!-- Node1&#45;&gt;Node12 -->
<g id="edge17" class="edge">
<title>Node1&#45;&gt;Node12</title>
<path fill="none" stroke="midnightblue" d="M264.76,-246.4C281.2,-235.5 303.84,-220.48 320.27,-209.58"/>
<polygon fill="midnightblue" stroke="midnightblue" points="322.28,-212.45 328.67,-204.01 318.41,-206.62 322.28,-212.45"/>
</g>
<!-- Node13 -->
<g id="node13" class="node">
<title>Node13</title>
<g id="a_node13"><a xlink:title=" ">
<polygon fill="none" stroke="#bfbfbf" points="383,-185 383,-204 430,-204 430,-185 383,-185"/>
<text text-anchor="middle" x="406.5" y="-192" font-family="Helvetica,sans-Serif" font-size="10.00">limits.h</text>
</a>
</g>
</g>
<!-- Node1&#45;&gt;Node13 -->
<g id="edge18" class="edge">
<title>Node1&#45;&gt;Node13</title>
<path fill="none" stroke="midnightblue" d="M281.57,-246.49C307.83,-236.66 343.48,-223 374.5,-210 375.87,-209.43 377.27,-208.83 378.68,-208.22"/>
<polygon fill="midnightblue" stroke="midnightblue" points="380.24,-211.36 387.97,-204.12 377.4,-204.96 380.24,-211.36"/>
</g>
<!-- Node3 -->
<g id="node3" class="node">
<title>Node3</title>
<g id="a_node3"><a xlink:title=" ">
<polygon fill="none" stroke="#bfbfbf" points="31,-0.5 31,-19.5 84,-19.5 84,-0.5 31,-0.5"/>
<text text-anchor="middle" x="57.5" y="-7.5" font-family="Helvetica,sans-Serif" font-size="10.00">gu_util.h</text>
</a>
</g>
</g>
<!-- Node2&#45;&gt;Node3 -->
<g id="edge2" class="edge">
<title>Node2&#45;&gt;Node3</title>
<path fill="none" stroke="midnightblue" d="M47.4,-179.13C44.13,-169.14 40.19,-155.44 38.5,-143 33.29,-104.69 30.83,-93.9 38.5,-56 40.39,-46.65 44.29,-36.83 48.07,-28.75"/>
<polygon fill="midnightblue" stroke="midnightblue" points="51.29,-30.14 52.62,-19.63 45.03,-27.01 51.29,-30.14"/>
</g>
<!-- Node4 -->
<g id="node4" class="node">
<title>Node4</title>
<g id="a_node4"><a xlink:title=" ">
<polygon fill="none" stroke="#bfbfbf" points="102.5,-0.5 102.5,-19.5 150.5,-19.5 150.5,-0.5 102.5,-0.5"/>
<text text-anchor="middle" x="126.5" y="-7.5" font-family="Helvetica,sans-Serif" font-size="10.00">stdint.h</text>
</a>
</g>
</g>
<!-- Node2&#45;&gt;Node4 -->
<g id="edge3" class="edge">
<title>Node2&#45;&gt;Node4</title>
<path fill="none" stroke="midnightblue" d="M58.18,-179.48C71.43,-146.82 104.34,-65.65 119.12,-29.21"/>
<polygon fill="midnightblue" stroke="midnightblue" points="122.41,-30.4 122.92,-19.82 115.92,-27.77 122.41,-30.4"/>
</g>
<!-- Node5 -->
<g id="node5" class="node">
<title>Node5</title>
<g id="a_node5"><a xlink:href="wb__vision__detection__goal__post_8h.html" target="_top" xlink:title=" ">
<polygon fill="none" stroke="black" points="120,-112.5 120,-142.5 225,-142.5 225,-112.5 120,-112.5"/>
<text text-anchor="start" x="128" y="-130.5" font-family="Helvetica,sans-Serif" font-size="10.00">wb_vision_detection</text>
<text text-anchor="middle" x="172.5" y="-119.5" font-family="Helvetica,sans-Serif" font-size="10.00">_goal_post.h</text>
</a>
</g>
</g>
<!-- Node2&#45;&gt;Node5 -->
<g id="edge4" class="edge">
<title>Node2&#45;&gt;Node5</title>
<path fill="none" stroke="midnightblue" d="M78.54,-179.4C95.84,-170.03 118.75,-157.62 137.62,-147.39"/>
<polygon fill="midnightblue" stroke="midnightblue" points="139.39,-150.42 146.51,-142.58 136.05,-144.26 139.39,-150.42"/>
</g>
<!-- Node5&#45;&gt;Node3 -->
<g id="edge5" class="edge">
<title>Node5&#45;&gt;Node3</title>
<path fill="none" stroke="midnightblue" d="M158.4,-112.34C136.83,-90.68 95.79,-49.45 73.26,-26.83"/>
<polygon fill="midnightblue" stroke="midnightblue" points="75.67,-24.29 66.13,-19.67 70.71,-29.23 75.67,-24.29"/>
</g>
<!-- Node5&#45;&gt;Node4 -->
<g id="edge6" class="edge">
<title>Node5&#45;&gt;Node4</title>
<path fill="none" stroke="midnightblue" d="M164.7,-112.17C159.45,-102.2 152.58,-88.51 147.5,-76 141.22,-60.55 135.5,-42.46 131.62,-29.29"/>
<polygon fill="midnightblue" stroke="midnightblue" points="134.95,-28.2 128.83,-19.56 128.22,-30.13 134.95,-28.2"/>
</g>
<!-- Node6 -->
<g id="node6" class="node">
<title>Node6</title>
<g id="a_node6"><a xlink:href="wb__pixel__coordinate_8h.html" target="_top" xlink:title=" ">
<polygon fill="none" stroke="black" points="156.5,-56.5 156.5,-75.5 268.5,-75.5 268.5,-56.5 156.5,-56.5"/>
<text text-anchor="middle" x="212.5" y="-63.5" font-family="Helvetica,sans-Serif" font-size="10.00">wb_pixel_coordinate.h</text>
</a>
</g>
</g>
<!-- Node5&#45;&gt;Node6 -->
<g id="edge7" class="edge">
<title>Node5&#45;&gt;Node6</title>
<path fill="none" stroke="midnightblue" d="M181.98,-112.4C187.67,-103.93 194.95,-93.1 200.98,-84.14"/>
<polygon fill="midnightblue" stroke="midnightblue" points="204.01,-85.91 206.68,-75.66 198.2,-82 204.01,-85.91"/>
</g>
<!-- Node7 -->
<g id="node7" class="node">
<title>Node7</title>
<g id="a_node7"><a xlink:title=" ">
<polygon fill="none" stroke="#bfbfbf" points="168.5,-0.5 168.5,-19.5 258.5,-19.5 258.5,-0.5 168.5,-0.5"/>
<text text-anchor="middle" x="213.5" y="-7.5" font-family="Helvetica,sans-Serif" font-size="10.00">guunits/guunits.h</text>
</a>
</g>
</g>
<!-- Node5&#45;&gt;Node7 -->
<g id="edge12" class="edge">
<title>Node5&#45;&gt;Node7</title>
<path fill="none" stroke="midnightblue" d="M225.27,-114.03C245.18,-106.48 265.82,-94.58 277.5,-76 290.39,-55.5 265.04,-36.29 242.54,-24.15"/>
<polygon fill="midnightblue" stroke="midnightblue" points="244.01,-20.97 233.51,-19.55 240.83,-27.21 244.01,-20.97"/>
</g>
<!-- Node8 -->
<g id="node8" class="node">
<title>Node8</title>
<g id="a_node8"><a xlink:title=" ">
<polygon fill="none" stroke="#bfbfbf" points="277,-0.5 277,-19.5 426,-19.5 426,-0.5 277,-0.5"/>
<text text-anchor="middle" x="351.5" y="-7.5" font-family="Helvetica,sans-Serif" font-size="10.00">gucoordinates/gucoordinates.h</text>
</a>
</g>
</g>
<!-- Node5&#45;&gt;Node8 -->
<g id="edge13" class="edge">
<title>Node5&#45;&gt;Node8</title>
<path fill="none" stroke="midnightblue" d="M218.51,-112.47C241.92,-104.05 270.09,-91.87 292.5,-76 311.27,-62.71 328.42,-42.49 339.33,-28.14"/>
<polygon fill="midnightblue" stroke="midnightblue" points="342.44,-29.82 345.56,-19.69 336.81,-25.67 342.44,-29.82"/>
</g>
<!-- Node6&#45;&gt;Node3 -->
<g id="edge8" class="edge">
<title>Node6&#45;&gt;Node3</title>
<path fill="none" stroke="midnightblue" d="M187.94,-56.44C161.98,-47.4 120.83,-33.06 91.7,-22.92"/>
<polygon fill="midnightblue" stroke="midnightblue" points="92.54,-19.5 81.95,-19.52 90.24,-26.11 92.54,-19.5"/>
</g>
<!-- Node6&#45;&gt;Node4 -->
<g id="edge9" class="edge">
<title>Node6&#45;&gt;Node4</title>
<path fill="none" stroke="midnightblue" d="M198.68,-56.32C185.27,-47.9 164.68,-34.97 148.91,-25.07"/>
<polygon fill="midnightblue" stroke="midnightblue" points="150.61,-22.01 140.28,-19.65 146.89,-27.94 150.61,-22.01"/>
</g>
<!-- Node6&#45;&gt;Node7 -->
<g id="edge10" class="edge">
<title>Node6&#45;&gt;Node7</title>
<path fill="none" stroke="midnightblue" d="M212.67,-56.08C212.8,-49.01 212.98,-38.86 213.15,-29.99"/>
<polygon fill="midnightblue" stroke="midnightblue" points="216.65,-29.81 213.34,-19.75 209.65,-29.68 216.65,-29.81"/>
</g>
<!-- Node6&#45;&gt;Node8 -->
<g id="edge11" class="edge">
<title>Node6&#45;&gt;Node8</title>
<path fill="none" stroke="midnightblue" d="M234.52,-56.44C257.6,-47.48 294.06,-33.31 320.14,-23.18"/>
<polygon fill="midnightblue" stroke="midnightblue" points="321.52,-26.4 329.58,-19.52 318.99,-19.88 321.52,-26.4"/>
</g>
</g>
</svg>
