<?xml version="1.0" encoding="UTF-8" standalone="no"?>
<!DOCTYPE svg PUBLIC "-//W3C//DTD SVG 1.1//EN"
 "http://www.w3.org/Graphics/SVG/1.1/DTD/svg11.dtd">
<!-- Generated by graphviz version 2.49.0 (20210830.1337)
 -->
<!-- Title: typeClassDefs/wb_microphone_frequencies.c Pages: 1 -->
<svg width="482pt" height="151pt"
 viewBox="0.00 0.00 481.50 151.00" xmlns="http://www.w3.org/2000/svg" xmlns:xlink="http://www.w3.org/1999/xlink">
<g id="graph0" class="graph" transform="scale(1 1) rotate(0) translate(4 147)">
<title>typeClassDefs/wb_microphone_frequencies.c</title>
<!-- Node1 -->
<g id="node1" class="node">
<title>Node1</title>
<g id="a_node1"><a xlink:title=" ">
<polygon fill="#bfbfbf" stroke="black" points="211.5,-112.5 211.5,-142.5 362.5,-142.5 362.5,-112.5 211.5,-112.5"/>
<text text-anchor="start" x="219.5" y="-130.5" font-family="Helvetica,sans-Serif" font-size="10.00">typeClassDefs/wb_microphone</text>
<text text-anchor="middle" x="287" y="-119.5" font-family="Helvetica,sans-Serif" font-size="10.00">_frequencies.c</text>
</a>
</g>
</g>
<!-- Node2 -->
<g id="node2" class="node">
<title>Node2</title>
<g id="a_node2"><a xlink:href="wb__microphone__frequencies_8h.html" target="_top" xlink:title=" ">
<polygon fill="none" stroke="black" points="0,-56.5 0,-75.5 148,-75.5 148,-56.5 0,-56.5"/>
<text text-anchor="middle" x="74" y="-63.5" font-family="Helvetica,sans-Serif" font-size="10.00">wb_microphone_frequencies.h</text>
</a>
</g>
</g>
<!-- Node1&#45;&gt;Node2 -->
<g id="edge1" class="edge">
<title>Node1&#45;&gt;Node2</title>
<path fill="none" stroke="midnightblue" d="M236.79,-112.47C199.4,-102.03 149.02,-87.96 114.26,-78.25"/>
<polygon fill="midnightblue" stroke="midnightblue" points="115.02,-74.83 104.45,-75.51 113.14,-81.57 115.02,-74.83"/>
</g>
<!-- Node5 -->
<g id="node5" class="node">
<title>Node5</title>
<g id="a_node5"><a xlink:title=" ">
<polygon fill="none" stroke="#bfbfbf" points="166.5,-56.5 166.5,-75.5 211.5,-75.5 211.5,-56.5 166.5,-56.5"/>
<text text-anchor="middle" x="189" y="-63.5" font-family="Helvetica,sans-Serif" font-size="10.00">stdio.h</text>
</a>
</g>
</g>
<!-- Node1&#45;&gt;Node5 -->
<g id="edge4" class="edge">
<title>Node1&#45;&gt;Node5</title>
<path fill="none" stroke="midnightblue" d="M263.78,-112.4C248.21,-102.95 227.8,-90.56 212.24,-81.11"/>
<polygon fill="midnightblue" stroke="midnightblue" points="213.62,-77.86 203.26,-75.66 209.99,-83.84 213.62,-77.86"/>
</g>
<!-- Node6 -->
<g id="node6" class="node">
<title>Node6</title>
<g id="a_node6"><a xlink:title=" ">
<polygon fill="none" stroke="#bfbfbf" points="230,-56.5 230,-75.5 278,-75.5 278,-56.5 230,-56.5"/>
<text text-anchor="middle" x="254" y="-63.5" font-family="Helvetica,sans-Serif" font-size="10.00">string.h</text>
</a>
</g>
</g>
<!-- Node1&#45;&gt;Node6 -->
<g id="edge5" class="edge">
<title>Node1&#45;&gt;Node6</title>
<path fill="none" stroke="midnightblue" d="M279.18,-112.4C274.53,-104.02 268.6,-93.33 263.66,-84.42"/>
<polygon fill="midnightblue" stroke="midnightblue" points="266.71,-82.71 258.8,-75.66 260.59,-86.1 266.71,-82.71"/>
</g>
<!-- Node7 -->
<g id="node7" class="node">
<title>Node7</title>
<g id="a_node7"><a xlink:title=" ">
<polygon fill="none" stroke="#bfbfbf" points="296.5,-56.5 296.5,-75.5 343.5,-75.5 343.5,-56.5 296.5,-56.5"/>
<text text-anchor="middle" x="320" y="-63.5" font-family="Helvetica,sans-Serif" font-size="10.00">stdlib.h</text>
</a>
</g>
</g>
<!-- Node1&#45;&gt;Node7 -->
<g id="edge6" class="edge">
<title>Node1&#45;&gt;Node7</title>
<path fill="none" stroke="midnightblue" d="M294.82,-112.4C299.47,-104.02 305.4,-93.33 310.34,-84.42"/>
<polygon fill="midnightblue" stroke="midnightblue" points="313.41,-86.1 315.2,-75.66 307.29,-82.71 313.41,-86.1"/>
</g>
<!-- Node8 -->
<g id="node8" class="node">
<title>Node8</title>
<g id="a_node8"><a xlink:title=" ">
<polygon fill="none" stroke="#bfbfbf" points="361.5,-56.5 361.5,-75.5 408.5,-75.5 408.5,-56.5 361.5,-56.5"/>
<text text-anchor="middle" x="385" y="-63.5" font-family="Helvetica,sans-Serif" font-size="10.00">ctype.h</text>
</a>
</g>
</g>
<!-- Node1&#45;&gt;Node8 -->
<g id="edge7" class="edge">
<title>Node1&#45;&gt;Node8</title>
<path fill="none" stroke="midnightblue" d="M310.22,-112.4C325.79,-102.95 346.2,-90.56 361.76,-81.11"/>
<polygon fill="midnightblue" stroke="midnightblue" points="364.01,-83.84 370.74,-75.66 360.38,-77.86 364.01,-83.84"/>
</g>
<!-- Node9 -->
<g id="node9" class="node">
<title>Node9</title>
<g id="a_node9"><a xlink:title=" ">
<polygon fill="none" stroke="#bfbfbf" points="426.5,-56.5 426.5,-75.5 473.5,-75.5 473.5,-56.5 426.5,-56.5"/>
<text text-anchor="middle" x="450" y="-63.5" font-family="Helvetica,sans-Serif" font-size="10.00">limits.h</text>
</a>
</g>
</g>
<!-- Node1&#45;&gt;Node9 -->
<g id="edge8" class="edge">
<title>Node1&#45;&gt;Node9</title>
<path fill="none" stroke="midnightblue" d="M325.63,-112.4C353.34,-102.28 390.31,-88.79 416.72,-79.15"/>
<polygon fill="midnightblue" stroke="midnightblue" points="418.09,-82.37 426.28,-75.66 415.69,-75.8 418.09,-82.37"/>
</g>
<!-- Node3 -->
<g id="node3" class="node">
<title>Node3</title>
<g id="a_node3"><a xlink:title=" ">
<polygon fill="none" stroke="#bfbfbf" points="13.5,-0.5 13.5,-19.5 66.5,-19.5 66.5,-0.5 13.5,-0.5"/>
<text text-anchor="middle" x="40" y="-7.5" font-family="Helvetica,sans-Serif" font-size="10.00">gu_util.h</text>
</a>
</g>
</g>
<!-- Node2&#45;&gt;Node3 -->
<g id="edge2" class="edge">
<title>Node2&#45;&gt;Node3</title>
<path fill="none" stroke="midnightblue" d="M68.39,-56.08C63.63,-48.53 56.68,-37.49 50.85,-28.23"/>
<polygon fill="midnightblue" stroke="midnightblue" points="53.8,-26.35 45.51,-19.75 47.88,-30.08 53.8,-26.35"/>
</g>
<!-- Node4 -->
<g id="node4" class="node">
<title>Node4</title>
<g id="a_node4"><a xlink:title=" ">
<polygon fill="none" stroke="#bfbfbf" points="85,-0.5 85,-19.5 133,-19.5 133,-0.5 85,-0.5"/>
<text text-anchor="middle" x="109" y="-7.5" font-family="Helvetica,sans-Serif" font-size="10.00">stdint.h</text>
</a>
</g>
</g>
<!-- Node2&#45;&gt;Node4 -->
<g id="edge3" class="edge">
<title>Node2&#45;&gt;Node4</title>
<path fill="none" stroke="midnightblue" d="M79.78,-56.08C84.67,-48.53 91.83,-37.49 97.83,-28.23"/>
<polygon fill="midnightblue" stroke="midnightblue" points="100.83,-30.05 103.33,-19.75 94.95,-26.24 100.83,-30.05"/>
</g>
</g>
</svg>
