<?xml version="1.0" encoding="UTF-8" standalone="no"?>
<!DOCTYPE svg PUBLIC "-//W3C//DTD SVG 1.1//EN"
 "http://www.w3.org/Graphics/SVG/1.1/DTD/svg11.dtd">
<!-- Generated by graphviz version 2.49.0 (20210830.1337)
 -->
<!-- Title: typeClassDefs/wb_vision_line.c Pages: 1 -->
<svg width="426pt" height="274pt"
 viewBox="0.00 0.00 425.50 274.00" xmlns="http://www.w3.org/2000/svg" xmlns:xlink="http://www.w3.org/1999/xlink">
<g id="graph0" class="graph" transform="scale(1 1) rotate(0) translate(4 270)">
<title>typeClassDefs/wb_vision_line.c</title>
<!-- Node1 -->
<g id="node1" class="node">
<title>Node1</title>
<g id="a_node1"><a xlink:title=" ">
<polygon fill="#bfbfbf" stroke="black" points="164,-235.5 164,-265.5 290,-265.5 290,-235.5 164,-235.5"/>
<text text-anchor="start" x="172" y="-253.5" font-family="Helvetica,sans-Serif" font-size="10.00">typeClassDefs/wb_vision</text>
<text text-anchor="middle" x="227" y="-242.5" font-family="Helvetica,sans-Serif" font-size="10.00">_line.c</text>
</a>
</g>
</g>
<!-- Node2 -->
<g id="node2" class="node">
<title>Node2</title>
<g id="a_node2"><a xlink:href="wb__vision__line_8h.html" target="_top" xlink:title=" ">
<polygon fill="none" stroke="black" points="0,-179.5 0,-198.5 88,-198.5 88,-179.5 0,-179.5"/>
<text text-anchor="middle" x="44" y="-186.5" font-family="Helvetica,sans-Serif" font-size="10.00">wb_vision_line.h</text>
</a>
</g>
</g>
<!-- Node1&#45;&gt;Node2 -->
<g id="edge1" class="edge">
<title>Node1&#45;&gt;Node2</title>
<path fill="none" stroke="midnightblue" d="M183.63,-235.4C152.01,-225.12 109.67,-211.35 79.93,-201.68"/>
<polygon fill="midnightblue" stroke="midnightblue" points="80.95,-198.33 70.36,-198.57 78.79,-204.99 80.95,-198.33"/>
</g>
<!-- Node9 -->
<g id="node9" class="node">
<title>Node9</title>
<g id="a_node9"><a xlink:title=" ">
<polygon fill="none" stroke="#bfbfbf" points="106.5,-179.5 106.5,-198.5 151.5,-198.5 151.5,-179.5 106.5,-179.5"/>
<text text-anchor="middle" x="129" y="-186.5" font-family="Helvetica,sans-Serif" font-size="10.00">stdio.h</text>
</a>
</g>
</g>
<!-- Node1&#45;&gt;Node9 -->
<g id="edge14" class="edge">
<title>Node1&#45;&gt;Node9</title>
<path fill="none" stroke="midnightblue" d="M203.78,-235.4C188.21,-225.95 167.8,-213.56 152.24,-204.11"/>
<polygon fill="midnightblue" stroke="midnightblue" points="153.62,-200.86 143.26,-198.66 149.99,-206.84 153.62,-200.86"/>
</g>
<!-- Node10 -->
<g id="node10" class="node">
<title>Node10</title>
<g id="a_node10"><a xlink:title=" ">
<polygon fill="none" stroke="#bfbfbf" points="170,-179.5 170,-198.5 218,-198.5 218,-179.5 170,-179.5"/>
<text text-anchor="middle" x="194" y="-186.5" font-family="Helvetica,sans-Serif" font-size="10.00">string.h</text>
</a>
</g>
</g>
<!-- Node1&#45;&gt;Node10 -->
<g id="edge15" class="edge">
<title>Node1&#45;&gt;Node10</title>
<path fill="none" stroke="midnightblue" d="M219.18,-235.4C214.53,-227.02 208.6,-216.33 203.66,-207.42"/>
<polygon fill="midnightblue" stroke="midnightblue" points="206.71,-205.71 198.8,-198.66 200.59,-209.1 206.71,-205.71"/>
</g>
<!-- Node11 -->
<g id="node11" class="node">
<title>Node11</title>
<g id="a_node11"><a xlink:title=" ">
<polygon fill="none" stroke="#bfbfbf" points="236.5,-179.5 236.5,-198.5 283.5,-198.5 283.5,-179.5 236.5,-179.5"/>
<text text-anchor="middle" x="260" y="-186.5" font-family="Helvetica,sans-Serif" font-size="10.00">stdlib.h</text>
</a>
</g>
</g>
<!-- Node1&#45;&gt;Node11 -->
<g id="edge16" class="edge">
<title>Node1&#45;&gt;Node11</title>
<path fill="none" stroke="midnightblue" d="M234.82,-235.4C239.47,-227.02 245.4,-216.33 250.34,-207.42"/>
<polygon fill="midnightblue" stroke="midnightblue" points="253.41,-209.1 255.2,-198.66 247.29,-205.71 253.41,-209.1"/>
</g>
<!-- Node12 -->
<g id="node12" class="node">
<title>Node12</title>
<g id="a_node12"><a xlink:title=" ">
<polygon fill="none" stroke="#bfbfbf" points="301.5,-179.5 301.5,-198.5 348.5,-198.5 348.5,-179.5 301.5,-179.5"/>
<text text-anchor="middle" x="325" y="-186.5" font-family="Helvetica,sans-Serif" font-size="10.00">ctype.h</text>
</a>
</g>
</g>
<!-- Node1&#45;&gt;Node12 -->
<g id="edge17" class="edge">
<title>Node1&#45;&gt;Node12</title>
<path fill="none" stroke="midnightblue" d="M250.22,-235.4C265.79,-225.95 286.2,-213.56 301.76,-204.11"/>
<polygon fill="midnightblue" stroke="midnightblue" points="304.01,-206.84 310.74,-198.66 300.38,-200.86 304.01,-206.84"/>
</g>
<!-- Node13 -->
<g id="node13" class="node">
<title>Node13</title>
<g id="a_node13"><a xlink:title=" ">
<polygon fill="none" stroke="#bfbfbf" points="366.5,-179.5 366.5,-198.5 413.5,-198.5 413.5,-179.5 366.5,-179.5"/>
<text text-anchor="middle" x="390" y="-186.5" font-family="Helvetica,sans-Serif" font-size="10.00">limits.h</text>
</a>
</g>
</g>
<!-- Node1&#45;&gt;Node13 -->
<g id="edge18" class="edge">
<title>Node1&#45;&gt;Node13</title>
<path fill="none" stroke="midnightblue" d="M265.63,-235.4C293.34,-225.28 330.31,-211.79 356.72,-202.15"/>
<polygon fill="midnightblue" stroke="midnightblue" points="358.09,-205.37 366.28,-198.66 355.69,-198.8 358.09,-205.37"/>
</g>
<!-- Node3 -->
<g id="node3" class="node">
<title>Node3</title>
<g id="a_node3"><a xlink:title=" ">
<polygon fill="none" stroke="#bfbfbf" points="22.5,-0.5 22.5,-19.5 75.5,-19.5 75.5,-0.5 22.5,-0.5"/>
<text text-anchor="middle" x="49" y="-7.5" font-family="Helvetica,sans-Serif" font-size="10.00">gu_util.h</text>
</a>
</g>
</g>
<!-- Node2&#45;&gt;Node3 -->
<g id="edge2" class="edge">
<title>Node2&#45;&gt;Node3</title>
<path fill="none" stroke="midnightblue" d="M40.4,-179.22C36.94,-170.28 31.97,-155.94 30,-143 24.19,-104.77 22.33,-93.9 30,-56 31.89,-46.65 35.79,-36.83 39.57,-28.75"/>
<polygon fill="midnightblue" stroke="midnightblue" points="42.79,-30.14 44.12,-19.63 36.53,-27.01 42.79,-30.14"/>
</g>
<!-- Node4 -->
<g id="node4" class="node">
<title>Node4</title>
<g id="a_node4"><a xlink:title=" ">
<polygon fill="none" stroke="#bfbfbf" points="94,-0.5 94,-19.5 142,-19.5 142,-0.5 94,-0.5"/>
<text text-anchor="middle" x="118" y="-7.5" font-family="Helvetica,sans-Serif" font-size="10.00">stdint.h</text>
</a>
</g>
</g>
<!-- Node2&#45;&gt;Node4 -->
<g id="edge3" class="edge">
<title>Node2&#45;&gt;Node4</title>
<path fill="none" stroke="midnightblue" d="M47.57,-179.46C58.97,-152.19 94.68,-66.78 110.42,-29.13"/>
<polygon fill="midnightblue" stroke="midnightblue" points="113.66,-30.44 114.29,-19.87 107.21,-27.74 113.66,-30.44"/>
</g>
<!-- Node5 -->
<g id="node5" class="node">
<title>Node5</title>
<g id="a_node5"><a xlink:href="wb__pixel__coordinate__line_8h.html" target="_top" xlink:title=" ">
<polygon fill="none" stroke="black" points="112,-112.5 112,-142.5 216,-142.5 216,-112.5 112,-112.5"/>
<text text-anchor="start" x="120" y="-130.5" font-family="Helvetica,sans-Serif" font-size="10.00">wb_pixel_coordinate</text>
<text text-anchor="middle" x="164" y="-119.5" font-family="Helvetica,sans-Serif" font-size="10.00">_line.h</text>
</a>
</g>
</g>
<!-- Node2&#45;&gt;Node5 -->
<g id="edge4" class="edge">
<title>Node2&#45;&gt;Node5</title>
<path fill="none" stroke="midnightblue" d="M61.19,-179.48C78.2,-171.04 104.8,-157.86 126.67,-147.01"/>
<polygon fill="midnightblue" stroke="midnightblue" points="128.31,-150.1 135.72,-142.52 125.2,-143.83 128.31,-150.1"/>
</g>
<!-- Node5&#45;&gt;Node3 -->
<g id="edge5" class="edge">
<title>Node5&#45;&gt;Node3</title>
<path fill="none" stroke="midnightblue" d="M149.9,-112.34C128.33,-90.68 87.29,-49.45 64.76,-26.83"/>
<polygon fill="midnightblue" stroke="midnightblue" points="67.17,-24.29 57.63,-19.67 62.21,-29.23 67.17,-24.29"/>
</g>
<!-- Node5&#45;&gt;Node4 -->
<g id="edge6" class="edge">
<title>Node5&#45;&gt;Node4</title>
<path fill="none" stroke="midnightblue" d="M156.2,-112.17C150.95,-102.2 144.08,-88.51 139,-76 132.72,-60.55 127,-42.46 123.12,-29.29"/>
<polygon fill="midnightblue" stroke="midnightblue" points="126.45,-28.2 120.33,-19.56 119.72,-30.13 126.45,-28.2"/>
</g>
<!-- Node6 -->
<g id="node6" class="node">
<title>Node6</title>
<g id="a_node6"><a xlink:href="wb__pixel__coordinate_8h.html" target="_top" xlink:title=" ">
<polygon fill="none" stroke="black" points="148,-56.5 148,-75.5 260,-75.5 260,-56.5 148,-56.5"/>
<text text-anchor="middle" x="204" y="-63.5" font-family="Helvetica,sans-Serif" font-size="10.00">wb_pixel_coordinate.h</text>
</a>
</g>
</g>
<!-- Node5&#45;&gt;Node6 -->
<g id="edge7" class="edge">
<title>Node5&#45;&gt;Node6</title>
<path fill="none" stroke="midnightblue" d="M173.48,-112.4C179.17,-103.93 186.45,-93.1 192.48,-84.14"/>
<polygon fill="midnightblue" stroke="midnightblue" points="195.51,-85.91 198.18,-75.66 189.7,-82 195.51,-85.91"/>
</g>
<!-- Node7 -->
<g id="node7" class="node">
<title>Node7</title>
<g id="a_node7"><a xlink:title=" ">
<polygon fill="none" stroke="#bfbfbf" points="160,-0.5 160,-19.5 250,-19.5 250,-0.5 160,-0.5"/>
<text text-anchor="middle" x="205" y="-7.5" font-family="Helvetica,sans-Serif" font-size="10.00">guunits/guunits.h</text>
</a>
</g>
</g>
<!-- Node5&#45;&gt;Node7 -->
<g id="edge12" class="edge">
<title>Node5&#45;&gt;Node7</title>
<path fill="none" stroke="midnightblue" d="M216.22,-114.24C236.3,-106.7 257.21,-94.75 269,-76 281.89,-55.5 256.54,-36.29 234.04,-24.15"/>
<polygon fill="midnightblue" stroke="midnightblue" points="235.51,-20.97 225.01,-19.55 232.33,-27.21 235.51,-20.97"/>
</g>
<!-- Node8 -->
<g id="node8" class="node">
<title>Node8</title>
<g id="a_node8"><a xlink:title=" ">
<polygon fill="none" stroke="#bfbfbf" points="268.5,-0.5 268.5,-19.5 417.5,-19.5 417.5,-0.5 268.5,-0.5"/>
<text text-anchor="middle" x="343" y="-7.5" font-family="Helvetica,sans-Serif" font-size="10.00">gucoordinates/gucoordinates.h</text>
</a>
</g>
</g>
<!-- Node5&#45;&gt;Node8 -->
<g id="edge13" class="edge">
<title>Node5&#45;&gt;Node8</title>
<path fill="none" stroke="midnightblue" d="M210.01,-112.47C233.42,-104.05 261.59,-91.87 284,-76 302.77,-62.71 319.92,-42.49 330.83,-28.14"/>
<polygon fill="midnightblue" stroke="midnightblue" points="333.94,-29.82 337.06,-19.69 328.31,-25.67 333.94,-29.82"/>
</g>
<!-- Node6&#45;&gt;Node3 -->
<g id="edge8" class="edge">
<title>Node6&#45;&gt;Node3</title>
<path fill="none" stroke="midnightblue" d="M179.44,-56.44C153.48,-47.4 112.33,-33.06 83.2,-22.92"/>
<polygon fill="midnightblue" stroke="midnightblue" points="84.04,-19.5 73.45,-19.52 81.74,-26.11 84.04,-19.5"/>
</g>
<!-- Node6&#45;&gt;Node4 -->
<g id="edge9" class="edge">
<title>Node6&#45;&gt;Node4</title>
<path fill="none" stroke="midnightblue" d="M190.18,-56.32C176.77,-47.9 156.18,-34.97 140.41,-25.07"/>
<polygon fill="midnightblue" stroke="midnightblue" points="142.11,-22.01 131.78,-19.65 138.39,-27.94 142.11,-22.01"/>
</g>
<!-- Node6&#45;&gt;Node7 -->
<g id="edge10" class="edge">
<title>Node6&#45;&gt;Node7</title>
<path fill="none" stroke="midnightblue" d="M204.17,-56.08C204.3,-49.01 204.48,-38.86 204.65,-29.99"/>
<polygon fill="midnightblue" stroke="midnightblue" points="208.15,-29.81 204.84,-19.75 201.15,-29.68 208.15,-29.81"/>
</g>
<!-- Node6&#45;&gt;Node8 -->
<g id="edge11" class="edge">
<title>Node6&#45;&gt;Node8</title>
<path fill="none" stroke="midnightblue" d="M226.02,-56.44C249.1,-47.48 285.56,-33.31 311.64,-23.18"/>
<polygon fill="midnightblue" stroke="midnightblue" points="313.02,-26.4 321.08,-19.52 310.49,-19.88 313.02,-26.4"/>
</g>
</g>
</svg>
