<?xml version="1.0" encoding="UTF-8" standalone="no"?>
<!DOCTYPE svg PUBLIC "-//W3C//DTD SVG 1.1//EN"
 "http://www.w3.org/Graphics/SVG/1.1/DTD/svg11.dtd">
<!-- Generated by graphviz version 2.49.0 (20210830.1337)
 -->
<!-- Title: typeClassDefs/wb_ball.h Pages: 1 -->
<svg width="683pt" height="285pt"
 viewBox="0.00 0.00 683.00 285.00" xmlns="http://www.w3.org/2000/svg" xmlns:xlink="http://www.w3.org/1999/xlink">
<g id="graph0" class="graph" transform="scale(1 1) rotate(0) translate(4 281)">
<title>typeClassDefs/wb_ball.h</title>
<!-- Node1 -->
<g id="node1" class="node">
<title>Node1</title>
<g id="a_node1"><a xlink:title=" ">
<polygon fill="#bfbfbf" stroke="black" points="285,-257.5 285,-276.5 408,-276.5 408,-257.5 285,-257.5"/>
<text text-anchor="middle" x="346.5" y="-264.5" font-family="Helvetica,sans-Serif" font-size="10.00">typeClassDefs/wb_ball.h</text>
</a>
</g>
</g>
<!-- Node2 -->
<g id="node2" class="node">
<title>Node2</title>
<g id="a_node2"><a xlink:href="guwhiteboard__c__types__manual__definitions_8h.html" target="_top" xlink:title=" ">
<polygon fill="none" stroke="black" points="217,-190.5 217,-220.5 330,-220.5 330,-190.5 217,-190.5"/>
<text text-anchor="start" x="225" y="-208.5" font-family="Helvetica,sans-Serif" font-size="10.00">guwhiteboard_c_types</text>
<text text-anchor="middle" x="273.5" y="-197.5" font-family="Helvetica,sans-Serif" font-size="10.00">_manual_definitions.h</text>
</a>
</g>
</g>
<!-- Node1&#45;&gt;Node2 -->
<g id="edge1" class="edge">
<title>Node1&#45;&gt;Node2</title>
<path fill="none" stroke="midnightblue" d="M328,-250.92C316.54,-241.58 301.92,-229.66 290.7,-220.52"/>
<polygon fill="midnightblue" stroke="midnightblue" points="326.08,-253.87 336.04,-257.48 330.5,-248.44 326.08,-253.87"/>
</g>
<!-- Node6 -->
<g id="node6" class="node">
<title>Node6</title>
<g id="a_node6"><a xlink:href="_vision_ball_8hpp.html" target="_top" xlink:title=" ">
<polygon fill="none" stroke="black" points="380.5,-196 380.5,-215 524.5,-215 524.5,-196 380.5,-196"/>
<text text-anchor="middle" x="452.5" y="-203" font-family="Helvetica,sans-Serif" font-size="10.00">typeClassDefs/VisionBall.hpp</text>
</a>
</g>
</g>
<!-- Node1&#45;&gt;Node6 -->
<g id="edge5" class="edge">
<title>Node1&#45;&gt;Node6</title>
<path fill="none" stroke="midnightblue" d="M370.45,-252.56C390.96,-241.04 419.88,-224.81 437.34,-215.01"/>
<polygon fill="midnightblue" stroke="midnightblue" points="368.69,-249.53 361.69,-257.48 372.12,-255.63 368.69,-249.53"/>
</g>
<!-- Node3 -->
<g id="node3" class="node">
<title>Node3</title>
<g id="a_node3"><a xlink:href="guwhiteboard__c__types_8h.html" target="_top" xlink:title=" ">
<polygon fill="none" stroke="black" points="149,-134.5 149,-153.5 270,-153.5 270,-134.5 149,-134.5"/>
<text text-anchor="middle" x="209.5" y="-141.5" font-family="Helvetica,sans-Serif" font-size="10.00">guwhiteboard_c_types.h</text>
</a>
</g>
</g>
<!-- Node2&#45;&gt;Node3 -->
<g id="edge2" class="edge">
<title>Node2&#45;&gt;Node3</title>
<path fill="none" stroke="midnightblue" d="M250.7,-183.3C239.71,-173.09 227.15,-161.41 218.81,-153.66"/>
<polygon fill="midnightblue" stroke="midnightblue" points="248.63,-186.15 258.33,-190.4 253.39,-181.03 248.63,-186.15"/>
</g>
<!-- Node4 -->
<g id="node4" class="node">
<title>Node4</title>
<g id="a_node4"><a xlink:href="guwhiteboarddeserialiser_8c.html" target="_top" xlink:title=" ">
<polygon fill="none" stroke="black" points="0,-73 0,-92 131,-92 131,-73 0,-73"/>
<text text-anchor="middle" x="65.5" y="-80" font-family="Helvetica,sans-Serif" font-size="10.00">guwhiteboarddeserialiser.c</text>
</a>
</g>
</g>
<!-- Node3&#45;&gt;Node4 -->
<g id="edge3" class="edge">
<title>Node3&#45;&gt;Node4</title>
<path fill="none" stroke="midnightblue" d="M179.57,-130.63C151.59,-119.07 110.56,-102.12 86.09,-92.01"/>
<polygon fill="midnightblue" stroke="midnightblue" points="178.29,-133.89 188.87,-134.48 180.96,-127.42 178.29,-133.89"/>
</g>
<!-- Node5 -->
<g id="node5" class="node">
<title>Node5</title>
<g id="a_node5"><a xlink:href="guwhiteboardserialiser_8c.html" target="_top" xlink:title=" ">
<polygon fill="none" stroke="black" points="149,-73 149,-92 270,-92 270,-73 149,-73"/>
<text text-anchor="middle" x="209.5" y="-80" font-family="Helvetica,sans-Serif" font-size="10.00">guwhiteboardserialiser.c</text>
</a>
</g>
</g>
<!-- Node3&#45;&gt;Node5 -->
<g id="edge4" class="edge">
<title>Node3&#45;&gt;Node5</title>
<path fill="none" stroke="midnightblue" d="M209.5,-124.32C209.5,-113.5 209.5,-100.4 209.5,-92.01"/>
<polygon fill="midnightblue" stroke="midnightblue" points="206,-124.48 209.5,-134.48 213,-124.48 206,-124.48"/>
</g>
<!-- Node7 -->
<g id="node7" class="node">
<title>Node7</title>
<g id="a_node7"><a xlink:href="guwhiteboardposter_8h.html" target="_top" xlink:title=" ">
<polygon fill="none" stroke="black" points="398,-134.5 398,-153.5 507,-153.5 507,-134.5 398,-134.5"/>
<text text-anchor="middle" x="452.5" y="-141.5" font-family="Helvetica,sans-Serif" font-size="10.00">guwhiteboardposter.h</text>
</a>
</g>
</g>
<!-- Node6&#45;&gt;Node7 -->
<g id="edge6" class="edge">
<title>Node6&#45;&gt;Node7</title>
<path fill="none" stroke="midnightblue" d="M452.5,-185.82C452.5,-175 452.5,-161.9 452.5,-153.51"/>
<polygon fill="midnightblue" stroke="midnightblue" points="449,-185.98 452.5,-195.98 456,-185.98 449,-185.98"/>
</g>
<!-- Node13 -->
<g id="node13" class="node">
<title>Node13</title>
<g id="a_node13"><a xlink:href="_vision_ball_8h.html" target="_top" xlink:title=" ">
<polygon fill="none" stroke="black" points="525.5,-134.5 525.5,-153.5 659.5,-153.5 659.5,-134.5 525.5,-134.5"/>
<text text-anchor="middle" x="592.5" y="-141.5" font-family="Helvetica,sans-Serif" font-size="10.00">typeClassDefs/VisionBall.h</text>
</a>
</g>
</g>
<!-- Node6&#45;&gt;Node13 -->
<g id="edge12" class="edge">
<title>Node6&#45;&gt;Node13</title>
<path fill="none" stroke="midnightblue" d="M481.96,-191.98C509.15,-180.42 548.79,-163.58 572.48,-153.51"/>
<polygon fill="midnightblue" stroke="midnightblue" points="480.39,-188.84 472.56,-195.98 483.13,-195.28 480.39,-188.84"/>
</g>
<!-- Node8 -->
<g id="node8" class="node">
<title>Node8</title>
<g id="a_node8"><a xlink:href="_simple_whiteboard_test_8h.html" target="_top" xlink:title=" ">
<polygon fill="none" stroke="black" points="288,-67.5 288,-97.5 413,-97.5 413,-67.5 288,-67.5"/>
<text text-anchor="start" x="296" y="-85.5" font-family="Helvetica,sans-Serif" font-size="10.00">SimpleWhiteboardTest</text>
<text text-anchor="middle" x="350.5" y="-74.5" font-family="Helvetica,sans-Serif" font-size="10.00">/SimpleWhiteboardTest.h</text>
</a>
</g>
</g>
<!-- Node7&#45;&gt;Node8 -->
<g id="edge7" class="edge">
<title>Node7&#45;&gt;Node8</title>
<path fill="none" stroke="midnightblue" d="M428.97,-129.28C412.65,-119.75 390.97,-107.11 374.54,-97.52"/>
<polygon fill="midnightblue" stroke="midnightblue" points="427.48,-132.46 437.89,-134.48 431.01,-126.41 427.48,-132.46"/>
</g>
<!-- Node10 -->
<g id="node10" class="node">
<title>Node10</title>
<g id="a_node10"><a xlink:href="guwhiteboardgetter_8h.html" target="_top" xlink:title=" ">
<polygon fill="none" stroke="black" points="431,-73 431,-92 538,-92 538,-73 431,-73"/>
<text text-anchor="middle" x="484.5" y="-80" font-family="Helvetica,sans-Serif" font-size="10.00">guwhiteboardgetter.h</text>
</a>
</g>
</g>
<!-- Node7&#45;&gt;Node10 -->
<g id="edge9" class="edge">
<title>Node7&#45;&gt;Node10</title>
<path fill="none" stroke="midnightblue" d="M462,-125.33C467.92,-114.33 475.27,-100.66 479.92,-92.01"/>
<polygon fill="midnightblue" stroke="midnightblue" points="458.74,-124.01 457.08,-134.48 464.9,-127.33 458.74,-124.01"/>
</g>
<!-- Node12 -->
<g id="node12" class="node">
<title>Node12</title>
<g id="a_node12"><a xlink:href="guwhiteboardposter_8cpp.html" target="_top" xlink:title=" ">
<polygon fill="none" stroke="black" points="556,-73 556,-92 675,-92 675,-73 556,-73"/>
<text text-anchor="middle" x="615.5" y="-80" font-family="Helvetica,sans-Serif" font-size="10.00">guwhiteboardposter.cpp</text>
</a>
</g>
</g>
<!-- Node7&#45;&gt;Node12 -->
<g id="edge11" class="edge">
<title>Node7&#45;&gt;Node12</title>
<path fill="none" stroke="midnightblue" d="M485.56,-130.93C517.24,-119.37 564.25,-102.21 592.19,-92.01"/>
<polygon fill="midnightblue" stroke="midnightblue" points="484.05,-127.76 475.85,-134.48 486.45,-134.33 484.05,-127.76"/>
</g>
<!-- Node9 -->
<g id="node9" class="node">
<title>Node9</title>
<g id="a_node9"><a xlink:href="_simple_whiteboard_test_8mm.html" target="_top" xlink:title=" ">
<polygon fill="none" stroke="black" points="276,-0.5 276,-30.5 413,-30.5 413,-0.5 276,-0.5"/>
<text text-anchor="start" x="284" y="-18.5" font-family="Helvetica,sans-Serif" font-size="10.00">SimpleWhiteboardTest</text>
<text text-anchor="middle" x="344.5" y="-7.5" font-family="Helvetica,sans-Serif" font-size="10.00">/SimpleWhiteboardTest.mm</text>
</a>
</g>
</g>
<!-- Node8&#45;&gt;Node9 -->
<g id="edge8" class="edge">
<title>Node8&#45;&gt;Node9</title>
<path fill="none" stroke="midnightblue" d="M348.28,-57.4C347.44,-48.37 346.52,-38.41 345.8,-30.58"/>
<polygon fill="midnightblue" stroke="midnightblue" points="344.79,-57.76 349.2,-67.4 351.76,-57.12 344.79,-57.76"/>
</g>
<!-- Node11 -->
<g id="node11" class="node">
<title>Node11</title>
<g id="a_node11"><a xlink:href="guwhiteboardgetter_8cpp.html" target="_top" xlink:title=" ">
<polygon fill="none" stroke="black" points="431,-6 431,-25 548,-25 548,-6 431,-6"/>
<text text-anchor="middle" x="489.5" y="-13" font-family="Helvetica,sans-Serif" font-size="10.00">guwhiteboardgetter.cpp</text>
</a>
</g>
</g>
<!-- Node10&#45;&gt;Node11 -->
<g id="edge10" class="edge">
<title>Node10&#45;&gt;Node11</title>
<path fill="none" stroke="midnightblue" d="M485.96,-62.54C486.91,-50.17 488.11,-34.62 488.84,-25.13"/>
<polygon fill="midnightblue" stroke="midnightblue" points="482.45,-62.49 485.17,-72.73 489.43,-63.03 482.45,-62.49"/>
</g>
</g>
</svg>
