<?xml version="1.0" encoding="UTF-8" standalone="no"?>
<!DOCTYPE svg PUBLIC "-//W3C//DTD SVG 1.1//EN"
 "http://www.w3.org/Graphics/SVG/1.1/DTD/svg11.dtd">
<!-- Generated by graphviz version 2.49.0 (20210830.1337)
 -->
<!-- Title: typeClassDefs/wb_hal_headtarget.h Pages: 1 -->
<svg width="704pt" height="296pt"
 viewBox="0.00 0.00 704.00 296.00" xmlns="http://www.w3.org/2000/svg" xmlns:xlink="http://www.w3.org/1999/xlink">
<g id="graph0" class="graph" transform="scale(1 1) rotate(0) translate(4 292)">
<title>typeClassDefs/wb_hal_headtarget.h</title>
<!-- Node1 -->
<g id="node1" class="node">
<title>Node1</title>
<g id="a_node1"><a xlink:title=" ">
<polygon fill="#bfbfbf" stroke="black" points="290,-257.5 290,-287.5 403,-287.5 403,-257.5 290,-257.5"/>
<text text-anchor="start" x="298" y="-275.5" font-family="Helvetica,sans-Serif" font-size="10.00">typeClassDefs/wb_hal</text>
<text text-anchor="middle" x="346.5" y="-264.5" font-family="Helvetica,sans-Serif" font-size="10.00">_headtarget.h</text>
</a>
</g>
</g>
<!-- Node2 -->
<g id="node2" class="node">
<title>Node2</title>
<g id="a_node2"><a xlink:href="guwhiteboard__c__types__manual__definitions_8h.html" target="_top" xlink:title=" ">
<polygon fill="none" stroke="black" points="209,-190.5 209,-220.5 322,-220.5 322,-190.5 209,-190.5"/>
<text text-anchor="start" x="217" y="-208.5" font-family="Helvetica,sans-Serif" font-size="10.00">guwhiteboard_c_types</text>
<text text-anchor="middle" x="265.5" y="-197.5" font-family="Helvetica,sans-Serif" font-size="10.00">_manual_definitions.h</text>
</a>
</g>
</g>
<!-- Node1&#45;&gt;Node2 -->
<g id="edge1" class="edge">
<title>Node1&#45;&gt;Node2</title>
<path fill="none" stroke="midnightblue" d="M320.81,-250.88C308.5,-241.01 294.07,-229.43 283.04,-220.58"/>
<polygon fill="midnightblue" stroke="midnightblue" points="318.93,-253.87 328.92,-257.4 323.32,-248.41 318.93,-253.87"/>
</g>
<!-- Node6 -->
<g id="node6" class="node">
<title>Node6</title>
<g id="a_node6"><a xlink:href="_h_a_l___head_target_8hpp.html" target="_top" xlink:title=" ">
<polygon fill="none" stroke="black" points="368,-196 368,-215 545,-215 545,-196 368,-196"/>
<text text-anchor="middle" x="456.5" y="-203" font-family="Helvetica,sans-Serif" font-size="10.00">typeClassDefs/HAL_HeadTarget.hpp</text>
</a>
</g>
</g>
<!-- Node1&#45;&gt;Node6 -->
<g id="edge5" class="edge">
<title>Node1&#45;&gt;Node6</title>
<path fill="none" stroke="midnightblue" d="M378.98,-252.31C399.93,-239.93 426.16,-224.43 442.1,-215.01"/>
<polygon fill="midnightblue" stroke="midnightblue" points="377.2,-249.3 370.37,-257.4 380.76,-255.32 377.2,-249.3"/>
</g>
<!-- Node3 -->
<g id="node3" class="node">
<title>Node3</title>
<g id="a_node3"><a xlink:href="guwhiteboard__c__types_8h.html" target="_top" xlink:title=" ">
<polygon fill="none" stroke="black" points="149,-134.5 149,-153.5 270,-153.5 270,-134.5 149,-134.5"/>
<text text-anchor="middle" x="209.5" y="-141.5" font-family="Helvetica,sans-Serif" font-size="10.00">guwhiteboard_c_types.h</text>
</a>
</g>
</g>
<!-- Node2&#45;&gt;Node3 -->
<g id="edge2" class="edge">
<title>Node2&#45;&gt;Node3</title>
<path fill="none" stroke="midnightblue" d="M245.27,-183C235.72,-172.86 224.87,-161.33 217.65,-153.66"/>
<polygon fill="midnightblue" stroke="midnightblue" points="242.83,-185.52 252.23,-190.4 247.92,-180.72 242.83,-185.52"/>
</g>
<!-- Node4 -->
<g id="node4" class="node">
<title>Node4</title>
<g id="a_node4"><a xlink:href="guwhiteboarddeserialiser_8c.html" target="_top" xlink:title=" ">
<polygon fill="none" stroke="black" points="0,-73 0,-92 131,-92 131,-73 0,-73"/>
<text text-anchor="middle" x="65.5" y="-80" font-family="Helvetica,sans-Serif" font-size="10.00">guwhiteboarddeserialiser.c</text>
</a>
</g>
</g>
<!-- Node3&#45;&gt;Node4 -->
<g id="edge3" class="edge">
<title>Node3&#45;&gt;Node4</title>
<path fill="none" stroke="midnightblue" d="M179.57,-130.63C151.59,-119.07 110.56,-102.12 86.09,-92.01"/>
<polygon fill="midnightblue" stroke="midnightblue" points="178.29,-133.89 188.87,-134.48 180.96,-127.42 178.29,-133.89"/>
</g>
<!-- Node5 -->
<g id="node5" class="node">
<title>Node5</title>
<g id="a_node5"><a xlink:href="guwhiteboardserialiser_8c.html" target="_top" xlink:title=" ">
<polygon fill="none" stroke="black" points="149,-73 149,-92 270,-92 270,-73 149,-73"/>
<text text-anchor="middle" x="209.5" y="-80" font-family="Helvetica,sans-Serif" font-size="10.00">guwhiteboardserialiser.c</text>
</a>
</g>
</g>
<!-- Node3&#45;&gt;Node5 -->
<g id="edge4" class="edge">
<title>Node3&#45;&gt;Node5</title>
<path fill="none" stroke="midnightblue" d="M209.5,-124.32C209.5,-113.5 209.5,-100.4 209.5,-92.01"/>
<polygon fill="midnightblue" stroke="midnightblue" points="206,-124.48 209.5,-134.48 213,-124.48 206,-124.48"/>
</g>
<!-- Node7 -->
<g id="node7" class="node">
<title>Node7</title>
<g id="a_node7"><a xlink:href="guwhiteboardposter_8h.html" target="_top" xlink:title=" ">
<polygon fill="none" stroke="black" points="402,-134.5 402,-153.5 511,-153.5 511,-134.5 402,-134.5"/>
<text text-anchor="middle" x="456.5" y="-141.5" font-family="Helvetica,sans-Serif" font-size="10.00">guwhiteboardposter.h</text>
</a>
</g>
</g>
<!-- Node6&#45;&gt;Node7 -->
<g id="edge6" class="edge">
<title>Node6&#45;&gt;Node7</title>
<path fill="none" stroke="midnightblue" d="M456.5,-185.82C456.5,-175 456.5,-161.9 456.5,-153.51"/>
<polygon fill="midnightblue" stroke="midnightblue" points="453,-185.98 456.5,-195.98 460,-185.98 453,-185.98"/>
</g>
<!-- Node13 -->
<g id="node13" class="node">
<title>Node13</title>
<g id="a_node13"><a xlink:href="_h_a_l___head_target_8h.html" target="_top" xlink:title=" ">
<polygon fill="none" stroke="black" points="529,-134.5 529,-153.5 696,-153.5 696,-134.5 529,-134.5"/>
<text text-anchor="middle" x="612.5" y="-141.5" font-family="Helvetica,sans-Serif" font-size="10.00">typeClassDefs/HAL_HeadTarget.h</text>
</a>
</g>
</g>
<!-- Node6&#45;&gt;Node13 -->
<g id="edge12" class="edge">
<title>Node6&#45;&gt;Node13</title>
<path fill="none" stroke="midnightblue" d="M488.53,-192.28C518.85,-180.72 563.57,-163.66 590.19,-153.51"/>
<polygon fill="midnightblue" stroke="midnightblue" points="486.95,-189.14 478.85,-195.98 489.44,-195.68 486.95,-189.14"/>
</g>
<!-- Node8 -->
<g id="node8" class="node">
<title>Node8</title>
<g id="a_node8"><a xlink:href="_simple_whiteboard_test_8h.html" target="_top" xlink:title=" ">
<polygon fill="none" stroke="black" points="288,-67.5 288,-97.5 413,-97.5 413,-67.5 288,-67.5"/>
<text text-anchor="start" x="296" y="-85.5" font-family="Helvetica,sans-Serif" font-size="10.00">SimpleWhiteboardTest</text>
<text text-anchor="middle" x="350.5" y="-74.5" font-family="Helvetica,sans-Serif" font-size="10.00">/SimpleWhiteboardTest.h</text>
</a>
</g>
</g>
<!-- Node7&#45;&gt;Node8 -->
<g id="edge7" class="edge">
<title>Node7&#45;&gt;Node8</title>
<path fill="none" stroke="midnightblue" d="M432.52,-129.54C415.51,-119.99 392.72,-107.2 375.48,-97.52"/>
<polygon fill="midnightblue" stroke="midnightblue" points="430.88,-132.63 441.31,-134.48 434.31,-126.53 430.88,-132.63"/>
</g>
<!-- Node10 -->
<g id="node10" class="node">
<title>Node10</title>
<g id="a_node10"><a xlink:href="guwhiteboardgetter_8h.html" target="_top" xlink:title=" ">
<polygon fill="none" stroke="black" points="431,-73 431,-92 538,-92 538,-73 431,-73"/>
<text text-anchor="middle" x="484.5" y="-80" font-family="Helvetica,sans-Serif" font-size="10.00">guwhiteboardgetter.h</text>
</a>
</g>
</g>
<!-- Node7&#45;&gt;Node10 -->
<g id="edge9" class="edge">
<title>Node7&#45;&gt;Node10</title>
<path fill="none" stroke="midnightblue" d="M464.81,-125.33C469.99,-114.33 476.42,-100.66 480.5,-92.01"/>
<polygon fill="midnightblue" stroke="midnightblue" points="461.6,-123.94 460.51,-134.48 467.94,-126.92 461.6,-123.94"/>
</g>
<!-- Node12 -->
<g id="node12" class="node">
<title>Node12</title>
<g id="a_node12"><a xlink:href="guwhiteboardposter_8cpp.html" target="_top" xlink:title=" ">
<polygon fill="none" stroke="black" points="556,-73 556,-92 675,-92 675,-73 556,-73"/>
<text text-anchor="middle" x="615.5" y="-80" font-family="Helvetica,sans-Serif" font-size="10.00">guwhiteboardposter.cpp</text>
</a>
</g>
</g>
<!-- Node7&#45;&gt;Node12 -->
<g id="edge11" class="edge">
<title>Node7&#45;&gt;Node12</title>
<path fill="none" stroke="midnightblue" d="M488.75,-130.93C519.65,-119.37 565.51,-102.21 592.76,-92.01"/>
<polygon fill="midnightblue" stroke="midnightblue" points="487.42,-127.69 479.28,-134.48 489.87,-134.25 487.42,-127.69"/>
</g>
<!-- Node9 -->
<g id="node9" class="node">
<title>Node9</title>
<g id="a_node9"><a xlink:href="_simple_whiteboard_test_8mm.html" target="_top" xlink:title=" ">
<polygon fill="none" stroke="black" points="276,-0.5 276,-30.5 413,-30.5 413,-0.5 276,-0.5"/>
<text text-anchor="start" x="284" y="-18.5" font-family="Helvetica,sans-Serif" font-size="10.00">SimpleWhiteboardTest</text>
<text text-anchor="middle" x="344.5" y="-7.5" font-family="Helvetica,sans-Serif" font-size="10.00">/SimpleWhiteboardTest.mm</text>
</a>
</g>
</g>
<!-- Node8&#45;&gt;Node9 -->
<g id="edge8" class="edge">
<title>Node8&#45;&gt;Node9</title>
<path fill="none" stroke="midnightblue" d="M348.28,-57.4C347.44,-48.37 346.52,-38.41 345.8,-30.58"/>
<polygon fill="midnightblue" stroke="midnightblue" points="344.79,-57.76 349.2,-67.4 351.76,-57.12 344.79,-57.76"/>
</g>
<!-- Node11 -->
<g id="node11" class="node">
<title>Node11</title>
<g id="a_node11"><a xlink:href="guwhiteboardgetter_8cpp.html" target="_top" xlink:title=" ">
<polygon fill="none" stroke="black" points="431,-6 431,-25 548,-25 548,-6 431,-6"/>
<text text-anchor="middle" x="489.5" y="-13" font-family="Helvetica,sans-Serif" font-size="10.00">guwhiteboardgetter.cpp</text>
</a>
</g>
</g>
<!-- Node10&#45;&gt;Node11 -->
<g id="edge10" class="edge">
<title>Node10&#45;&gt;Node11</title>
<path fill="none" stroke="midnightblue" d="M485.96,-62.54C486.91,-50.17 488.11,-34.62 488.84,-25.13"/>
<polygon fill="midnightblue" stroke="midnightblue" points="482.45,-62.49 485.17,-72.73 489.43,-63.03 482.45,-62.49"/>
</g>
</g>
</svg>
