<?xml version="1.0" encoding="UTF-8" standalone="no"?>
<!DOCTYPE svg PUBLIC "-//W3C//DTD SVG 1.1//EN"
 "http://www.w3.org/Graphics/SVG/1.1/DTD/svg11.dtd">
<!-- Generated by graphviz version 2.49.0 (20210830.1337)
 -->
<!-- Title: typeClassDefs/wb_pixel_to_robot_relative_coord.h Pages: 1 -->
<svg width="513pt" height="229pt"
 viewBox="0.00 0.00 513.00 229.00" xmlns="http://www.w3.org/2000/svg" xmlns:xlink="http://www.w3.org/1999/xlink">
<g id="graph0" class="graph" transform="scale(1 1) rotate(0) translate(4 225)">
<title>typeClassDefs/wb_pixel_to_robot_relative_coord.h</title>
<!-- Node1 -->
<g id="node1" class="node">
<title>Node1</title>
<g id="a_node1"><a xlink:title=" ">
<polygon fill="#bfbfbf" stroke="black" points="220,-190.5 220,-220.5 351,-220.5 351,-190.5 220,-190.5"/>
<text text-anchor="start" x="228" y="-208.5" font-family="Helvetica,sans-Serif" font-size="10.00">typeClassDefs/wb_pixel</text>
<text text-anchor="middle" x="285.5" y="-197.5" font-family="Helvetica,sans-Serif" font-size="10.00">_to_robot_relative_coord.h</text>
</a>
</g>
</g>
<!-- Node2 -->
<g id="node2" class="node">
<title>Node2</title>
<g id="a_node2"><a xlink:href="guwhiteboard__c__types__manual__definitions_8h.html" target="_top" xlink:title=" ">
<polygon fill="none" stroke="black" points="83,-123.5 83,-153.5 196,-153.5 196,-123.5 83,-123.5"/>
<text text-anchor="start" x="91" y="-141.5" font-family="Helvetica,sans-Serif" font-size="10.00">guwhiteboard_c_types</text>
<text text-anchor="middle" x="139.5" y="-130.5" font-family="Helvetica,sans-Serif" font-size="10.00">_manual_definitions.h</text>
</a>
</g>
</g>
<!-- Node1&#45;&gt;Node2 -->
<g id="edge1" class="edge">
<title>Node1&#45;&gt;Node2</title>
<path fill="none" stroke="midnightblue" d="M244.55,-186.27C221.3,-175.92 192.63,-163.15 171.12,-153.58"/>
<polygon fill="midnightblue" stroke="midnightblue" points="243.26,-189.53 253.82,-190.4 246.11,-183.13 243.26,-189.53"/>
</g>
<!-- Node6 -->
<g id="node6" class="node">
<title>Node6</title>
<g id="a_node6"><a xlink:href="_pixel_to_robot_relative_coord_8hpp.html" target="_top" xlink:title=" ">
<polygon fill="none" stroke="black" points="215.5,-123.5 215.5,-153.5 355.5,-153.5 355.5,-123.5 215.5,-123.5"/>
<text text-anchor="start" x="223.5" y="-141.5" font-family="Helvetica,sans-Serif" font-size="10.00">typeClassDefs/PixelToRobot</text>
<text text-anchor="middle" x="285.5" y="-130.5" font-family="Helvetica,sans-Serif" font-size="10.00">RelativeCoord.hpp</text>
</a>
</g>
</g>
<!-- Node1&#45;&gt;Node6 -->
<g id="edge5" class="edge">
<title>Node1&#45;&gt;Node6</title>
<path fill="none" stroke="midnightblue" d="M285.5,-180.11C285.5,-171.15 285.5,-161.32 285.5,-153.58"/>
<polygon fill="midnightblue" stroke="midnightblue" points="282,-180.4 285.5,-190.4 289,-180.4 282,-180.4"/>
</g>
<!-- Node8 -->
<g id="node8" class="node">
<title>Node8</title>
<g id="a_node8"><a xlink:href="wb__pixel__to__robot__relative__coord_8c.html" target="_top" xlink:title=" ">
<polygon fill="none" stroke="black" points="374,-123.5 374,-153.5 505,-153.5 505,-123.5 374,-123.5"/>
<text text-anchor="start" x="382" y="-141.5" font-family="Helvetica,sans-Serif" font-size="10.00">typeClassDefs/wb_pixel</text>
<text text-anchor="middle" x="439.5" y="-130.5" font-family="Helvetica,sans-Serif" font-size="10.00">_to_robot_relative_coord.c</text>
</a>
</g>
</g>
<!-- Node1&#45;&gt;Node8 -->
<g id="edge7" class="edge">
<title>Node1&#45;&gt;Node8</title>
<path fill="none" stroke="midnightblue" d="M328.37,-186.41C352.95,-176.03 383.36,-163.2 406.15,-153.58"/>
<polygon fill="midnightblue" stroke="midnightblue" points="326.77,-183.28 318.92,-190.4 329.49,-189.73 326.77,-183.28"/>
</g>
<!-- Node3 -->
<g id="node3" class="node">
<title>Node3</title>
<g id="a_node3"><a xlink:href="guwhiteboard__c__types_8h.html" target="_top" xlink:title=" ">
<polygon fill="none" stroke="black" points="77,-62 77,-81 198,-81 198,-62 77,-62"/>
<text text-anchor="middle" x="137.5" y="-69" font-family="Helvetica,sans-Serif" font-size="10.00">guwhiteboard_c_types.h</text>
</a>
</g>
</g>
<!-- Node2&#45;&gt;Node3 -->
<g id="edge2" class="edge">
<title>Node2&#45;&gt;Node3</title>
<path fill="none" stroke="midnightblue" d="M138.75,-113.25C138.41,-102.02 138.02,-89.38 137.77,-81.19"/>
<polygon fill="midnightblue" stroke="midnightblue" points="135.26,-113.51 139.07,-123.4 142.26,-113.29 135.26,-113.51"/>
</g>
<!-- Node4 -->
<g id="node4" class="node">
<title>Node4</title>
<g id="a_node4"><a xlink:href="guwhiteboarddeserialiser_8c.html" target="_top" xlink:title=" ">
<polygon fill="none" stroke="black" points="0,-0.5 0,-19.5 131,-19.5 131,-0.5 0,-0.5"/>
<text text-anchor="middle" x="65.5" y="-7.5" font-family="Helvetica,sans-Serif" font-size="10.00">guwhiteboarddeserialiser.c</text>
</a>
</g>
</g>
<!-- Node3&#45;&gt;Node4 -->
<g id="edge3" class="edge">
<title>Node3&#45;&gt;Node4</title>
<path fill="none" stroke="midnightblue" d="M119.32,-55.47C105.54,-44.09 87.12,-28.87 75.8,-19.51"/>
<polygon fill="midnightblue" stroke="midnightblue" points="117.25,-58.3 127.18,-61.98 121.71,-52.91 117.25,-58.3"/>
</g>
<!-- Node5 -->
<g id="node5" class="node">
<title>Node5</title>
<g id="a_node5"><a xlink:href="guwhiteboardserialiser_8c.html" target="_top" xlink:title=" ">
<polygon fill="none" stroke="black" points="149,-0.5 149,-19.5 270,-19.5 270,-0.5 149,-0.5"/>
<text text-anchor="middle" x="209.5" y="-7.5" font-family="Helvetica,sans-Serif" font-size="10.00">guwhiteboardserialiser.c</text>
</a>
</g>
</g>
<!-- Node3&#45;&gt;Node5 -->
<g id="edge4" class="edge">
<title>Node3&#45;&gt;Node5</title>
<path fill="none" stroke="midnightblue" d="M155.68,-55.47C169.46,-44.09 187.88,-28.87 199.2,-19.51"/>
<polygon fill="midnightblue" stroke="midnightblue" points="153.29,-52.91 147.82,-61.98 157.75,-58.3 153.29,-52.91"/>
</g>
<!-- Node7 -->
<g id="node7" class="node">
<title>Node7</title>
<g id="a_node7"><a xlink:href="_pixel_to_robot_relative_coord_8h.html" target="_top" xlink:title=" ">
<polygon fill="none" stroke="black" points="216.5,-56.5 216.5,-86.5 356.5,-86.5 356.5,-56.5 216.5,-56.5"/>
<text text-anchor="start" x="224.5" y="-74.5" font-family="Helvetica,sans-Serif" font-size="10.00">typeClassDefs/PixelToRobot</text>
<text text-anchor="middle" x="286.5" y="-63.5" font-family="Helvetica,sans-Serif" font-size="10.00">RelativeCoord.h</text>
</a>
</g>
</g>
<!-- Node6&#45;&gt;Node7 -->
<g id="edge6" class="edge">
<title>Node6&#45;&gt;Node7</title>
<path fill="none" stroke="midnightblue" d="M285.88,-113.11C286.01,-104.15 286.16,-94.32 286.28,-86.58"/>
<polygon fill="midnightblue" stroke="midnightblue" points="282.37,-113.34 285.72,-123.4 289.37,-113.45 282.37,-113.34"/>
</g>
</g>
</svg>
