<?xml version="1.0" encoding="UTF-8" standalone="no"?>
<!DOCTYPE svg PUBLIC "-//W3C//DTD SVG 1.1//EN"
 "http://www.w3.org/Graphics/SVG/1.1/DTD/svg11.dtd">
<!-- Generated by graphviz version 2.49.0 (20210830.1337)
 -->
<!-- Title: typeClassDefs/wb_sensors_legjointsensors.h Pages: 1 -->
<svg width="871pt" height="307pt"
 viewBox="0.00 0.00 871.00 307.00" xmlns="http://www.w3.org/2000/svg" xmlns:xlink="http://www.w3.org/1999/xlink">
<g id="graph0" class="graph" transform="scale(1 1) rotate(0) translate(4 303)">
<title>typeClassDefs/wb_sensors_legjointsensors.h</title>
<!-- Node1 -->
<g id="node1" class="node">
<title>Node1</title>
<g id="a_node1"><a xlink:title=" ">
<polygon fill="#bfbfbf" stroke="black" points="508,-268.5 508,-298.5 643,-298.5 643,-268.5 508,-268.5"/>
<text text-anchor="start" x="516" y="-286.5" font-family="Helvetica,sans-Serif" font-size="10.00">typeClassDefs/wb_sensors</text>
<text text-anchor="middle" x="575.5" y="-275.5" font-family="Helvetica,sans-Serif" font-size="10.00">_legjointsensors.h</text>
</a>
</g>
</g>
<!-- Node2 -->
<g id="node2" class="node">
<title>Node2</title>
<g id="a_node2"><a xlink:href="_s_e_n_s_o_r_s_leg_joint_sensors_8hpp.html" target="_top" xlink:title=" ">
<polygon fill="none" stroke="black" points="277,-201.5 277,-231.5 424,-231.5 424,-201.5 277,-201.5"/>
<text text-anchor="start" x="285" y="-219.5" font-family="Helvetica,sans-Serif" font-size="10.00">typeClassDefs/SENSORSLeg</text>
<text text-anchor="middle" x="350.5" y="-208.5" font-family="Helvetica,sans-Serif" font-size="10.00">JointSensors.hpp</text>
</a>
</g>
</g>
<!-- Node1&#45;&gt;Node2 -->
<g id="edge1" class="edge">
<title>Node1&#45;&gt;Node2</title>
<path fill="none" stroke="midnightblue" d="M516.93,-265.58C480.39,-255.02 433.9,-241.59 399.35,-231.61"/>
<polygon fill="midnightblue" stroke="midnightblue" points="516.38,-269.06 526.96,-268.48 518.32,-262.34 516.38,-269.06"/>
</g>
<!-- Node10 -->
<g id="node10" class="node">
<title>Node10</title>
<g id="a_node10"><a xlink:href="wb__pixel__to__robot__relative__coord_8h.html" target="_top" xlink:title=" ">
<polygon fill="none" stroke="black" points="510,-201.5 510,-231.5 641,-231.5 641,-201.5 510,-201.5"/>
<text text-anchor="start" x="518" y="-219.5" font-family="Helvetica,sans-Serif" font-size="10.00">typeClassDefs/wb_pixel</text>
<text text-anchor="middle" x="575.5" y="-208.5" font-family="Helvetica,sans-Serif" font-size="10.00">_to_robot_relative_coord.h</text>
</a>
</g>
</g>
<!-- Node1&#45;&gt;Node10 -->
<g id="edge9" class="edge">
<title>Node1&#45;&gt;Node10</title>
<path fill="none" stroke="midnightblue" d="M575.5,-258.11C575.5,-249.15 575.5,-239.32 575.5,-231.58"/>
<polygon fill="midnightblue" stroke="midnightblue" points="572,-258.4 575.5,-268.4 579,-258.4 572,-258.4"/>
</g>
<!-- Node18 -->
<g id="node18" class="node">
<title>Node18</title>
<g id="a_node18"><a xlink:href="wb__sensors__legjointsensors_8c.html" target="_top" xlink:title=" ">
<polygon fill="none" stroke="black" points="659,-201.5 659,-231.5 794,-231.5 794,-201.5 659,-201.5"/>
<text text-anchor="start" x="667" y="-219.5" font-family="Helvetica,sans-Serif" font-size="10.00">typeClassDefs/wb_sensors</text>
<text text-anchor="middle" x="726.5" y="-208.5" font-family="Helvetica,sans-Serif" font-size="10.00">_legjointsensors.c</text>
</a>
</g>
</g>
<!-- Node1&#45;&gt;Node18 -->
<g id="edge17" class="edge">
<title>Node1&#45;&gt;Node18</title>
<path fill="none" stroke="midnightblue" d="M617.53,-264.41C641.64,-254.03 671.45,-241.2 693.8,-231.58"/>
<polygon fill="midnightblue" stroke="midnightblue" points="616.07,-261.23 608.26,-268.4 618.83,-267.66 616.07,-261.23"/>
</g>
<!-- Node3 -->
<g id="node3" class="node">
<title>Node3</title>
<g id="a_node3"><a xlink:href="guwhiteboardposter_8h.html" target="_top" xlink:title=" ">
<polygon fill="none" stroke="black" points="150,-140 150,-159 259,-159 259,-140 150,-140"/>
<text text-anchor="middle" x="204.5" y="-147" font-family="Helvetica,sans-Serif" font-size="10.00">guwhiteboardposter.h</text>
</a>
</g>
</g>
<!-- Node2&#45;&gt;Node3 -->
<g id="edge2" class="edge">
<title>Node2&#45;&gt;Node3</title>
<path fill="none" stroke="midnightblue" d="M309.61,-197.3C281.45,-184.76 245.34,-168.68 223.61,-159.01"/>
<polygon fill="midnightblue" stroke="midnightblue" points="308.26,-200.53 318.82,-201.4 311.11,-194.13 308.26,-200.53"/>
</g>
<!-- Node9 -->
<g id="node9" class="node">
<title>Node9</title>
<g id="a_node9"><a xlink:href="_s_e_n_s_o_r_s_leg_joint_sensors_8h.html" target="_top" xlink:title=" ">
<polygon fill="none" stroke="black" points="277,-134.5 277,-164.5 424,-164.5 424,-134.5 277,-134.5"/>
<text text-anchor="start" x="285" y="-152.5" font-family="Helvetica,sans-Serif" font-size="10.00">typeClassDefs/SENSORSLeg</text>
<text text-anchor="middle" x="350.5" y="-141.5" font-family="Helvetica,sans-Serif" font-size="10.00">JointSensors.h</text>
</a>
</g>
</g>
<!-- Node2&#45;&gt;Node9 -->
<g id="edge8" class="edge">
<title>Node2&#45;&gt;Node9</title>
<path fill="none" stroke="midnightblue" d="M350.5,-191.11C350.5,-182.15 350.5,-172.32 350.5,-164.58"/>
<polygon fill="midnightblue" stroke="midnightblue" points="347,-191.4 350.5,-201.4 354,-191.4 347,-191.4"/>
</g>
<!-- Node4 -->
<g id="node4" class="node">
<title>Node4</title>
<g id="a_node4"><a xlink:href="_simple_whiteboard_test_8h.html" target="_top" xlink:title=" ">
<polygon fill="none" stroke="black" points="7,-67.5 7,-97.5 132,-97.5 132,-67.5 7,-67.5"/>
<text text-anchor="start" x="15" y="-85.5" font-family="Helvetica,sans-Serif" font-size="10.00">SimpleWhiteboardTest</text>
<text text-anchor="middle" x="69.5" y="-74.5" font-family="Helvetica,sans-Serif" font-size="10.00">/SimpleWhiteboardTest.h</text>
</a>
</g>
</g>
<!-- Node3&#45;&gt;Node4 -->
<g id="edge3" class="edge">
<title>Node3&#45;&gt;Node4</title>
<path fill="none" stroke="midnightblue" d="M177.45,-135.47C154.62,-124.49 122.03,-108.79 98.64,-97.53"/>
<polygon fill="midnightblue" stroke="midnightblue" points="176.04,-138.68 186.57,-139.87 179.08,-132.38 176.04,-138.68"/>
</g>
<!-- Node6 -->
<g id="node6" class="node">
<title>Node6</title>
<g id="a_node6"><a xlink:href="guwhiteboardgetter_8h.html" target="_top" xlink:title=" ">
<polygon fill="none" stroke="black" points="151,-73 151,-92 258,-92 258,-73 151,-73"/>
<text text-anchor="middle" x="204.5" y="-80" font-family="Helvetica,sans-Serif" font-size="10.00">guwhiteboardgetter.h</text>
</a>
</g>
</g>
<!-- Node3&#45;&gt;Node6 -->
<g id="edge5" class="edge">
<title>Node3&#45;&gt;Node6</title>
<path fill="none" stroke="midnightblue" d="M204.5,-129.54C204.5,-117.17 204.5,-101.62 204.5,-92.13"/>
<polygon fill="midnightblue" stroke="midnightblue" points="201,-129.73 204.5,-139.73 208,-129.73 201,-129.73"/>
</g>
<!-- Node8 -->
<g id="node8" class="node">
<title>Node8</title>
<g id="a_node8"><a xlink:href="guwhiteboardposter_8cpp.html" target="_top" xlink:title=" ">
<polygon fill="none" stroke="black" points="276,-73 276,-92 395,-92 395,-73 276,-73"/>
<text text-anchor="middle" x="335.5" y="-80" font-family="Helvetica,sans-Serif" font-size="10.00">guwhiteboardposter.cpp</text>
</a>
</g>
</g>
<!-- Node3&#45;&gt;Node8 -->
<g id="edge7" class="edge">
<title>Node3&#45;&gt;Node8</title>
<path fill="none" stroke="midnightblue" d="M231.16,-135.27C257.1,-122.4 295.78,-103.21 318.03,-92.17"/>
<polygon fill="midnightblue" stroke="midnightblue" points="229.3,-132.29 221.9,-139.87 232.41,-138.56 229.3,-132.29"/>
</g>
<!-- Node5 -->
<g id="node5" class="node">
<title>Node5</title>
<g id="a_node5"><a xlink:href="_simple_whiteboard_test_8mm.html" target="_top" xlink:title=" ">
<polygon fill="none" stroke="black" points="0,-0.5 0,-30.5 137,-30.5 137,-0.5 0,-0.5"/>
<text text-anchor="start" x="8" y="-18.5" font-family="Helvetica,sans-Serif" font-size="10.00">SimpleWhiteboardTest</text>
<text text-anchor="middle" x="68.5" y="-7.5" font-family="Helvetica,sans-Serif" font-size="10.00">/SimpleWhiteboardTest.mm</text>
</a>
</g>
</g>
<!-- Node4&#45;&gt;Node5 -->
<g id="edge4" class="edge">
<title>Node4&#45;&gt;Node5</title>
<path fill="none" stroke="midnightblue" d="M69.12,-57.11C68.99,-48.15 68.84,-38.32 68.72,-30.58"/>
<polygon fill="midnightblue" stroke="midnightblue" points="65.63,-57.45 69.28,-67.4 72.63,-57.34 65.63,-57.45"/>
</g>
<!-- Node7 -->
<g id="node7" class="node">
<title>Node7</title>
<g id="a_node7"><a xlink:href="guwhiteboardgetter_8cpp.html" target="_top" xlink:title=" ">
<polygon fill="none" stroke="black" points="155,-6 155,-25 272,-25 272,-6 155,-6"/>
<text text-anchor="middle" x="213.5" y="-13" font-family="Helvetica,sans-Serif" font-size="10.00">guwhiteboardgetter.cpp</text>
</a>
</g>
</g>
<!-- Node6&#45;&gt;Node7 -->
<g id="edge6" class="edge">
<title>Node6&#45;&gt;Node7</title>
<path fill="none" stroke="midnightblue" d="M207.13,-62.54C208.84,-50.17 210.99,-34.62 212.31,-25.13"/>
<polygon fill="midnightblue" stroke="midnightblue" points="203.62,-62.35 205.71,-72.73 210.55,-63.31 203.62,-62.35"/>
</g>
<!-- Node11 -->
<g id="node11" class="node">
<title>Node11</title>
<g id="a_node11"><a xlink:href="guwhiteboard__c__types__manual__definitions_8h.html" target="_top" xlink:title=" ">
<polygon fill="none" stroke="black" points="442,-134.5 442,-164.5 555,-164.5 555,-134.5 442,-134.5"/>
<text text-anchor="start" x="450" y="-152.5" font-family="Helvetica,sans-Serif" font-size="10.00">guwhiteboard_c_types</text>
<text text-anchor="middle" x="498.5" y="-141.5" font-family="Helvetica,sans-Serif" font-size="10.00">_manual_definitions.h</text>
</a>
</g>
</g>
<!-- Node10&#45;&gt;Node11 -->
<g id="edge10" class="edge">
<title>Node10&#45;&gt;Node11</title>
<path fill="none" stroke="midnightblue" d="M551.08,-194.88C539.38,-185.01 525.66,-173.43 515.18,-164.58"/>
<polygon fill="midnightblue" stroke="midnightblue" points="548.89,-197.62 558.79,-201.4 553.41,-192.27 548.89,-197.62"/>
</g>
<!-- Node15 -->
<g id="node15" class="node">
<title>Node15</title>
<g id="a_node15"><a xlink:href="_pixel_to_robot_relative_coord_8hpp.html" target="_top" xlink:title=" ">
<polygon fill="none" stroke="black" points="573.5,-134.5 573.5,-164.5 713.5,-164.5 713.5,-134.5 573.5,-134.5"/>
<text text-anchor="start" x="581.5" y="-152.5" font-family="Helvetica,sans-Serif" font-size="10.00">typeClassDefs/PixelToRobot</text>
<text text-anchor="middle" x="643.5" y="-141.5" font-family="Helvetica,sans-Serif" font-size="10.00">RelativeCoord.hpp</text>
</a>
</g>
</g>
<!-- Node10&#45;&gt;Node15 -->
<g id="edge14" class="edge">
<title>Node10&#45;&gt;Node15</title>
<path fill="none" stroke="midnightblue" d="M597.67,-194.31C607.87,-184.56 619.69,-173.26 628.77,-164.58"/>
<polygon fill="midnightblue" stroke="midnightblue" points="595.07,-191.96 590.25,-201.4 599.9,-197.02 595.07,-191.96"/>
</g>
<!-- Node17 -->
<g id="node17" class="node">
<title>Node17</title>
<g id="a_node17"><a xlink:href="wb__pixel__to__robot__relative__coord_8c.html" target="_top" xlink:title=" ">
<polygon fill="none" stroke="black" points="732,-134.5 732,-164.5 863,-164.5 863,-134.5 732,-134.5"/>
<text text-anchor="start" x="740" y="-152.5" font-family="Helvetica,sans-Serif" font-size="10.00">typeClassDefs/wb_pixel</text>
<text text-anchor="middle" x="797.5" y="-141.5" font-family="Helvetica,sans-Serif" font-size="10.00">_to_robot_relative_coord.c</text>
</a>
</g>
</g>
<!-- Node10&#45;&gt;Node17 -->
<g id="edge16" class="edge">
<title>Node10&#45;&gt;Node17</title>
<path fill="none" stroke="midnightblue" d="M633.29,-198.58C669.35,-188.02 715.22,-174.59 749.31,-164.61"/>
<polygon fill="midnightblue" stroke="midnightblue" points="632.01,-195.31 623.4,-201.48 633.98,-202.02 632.01,-195.31"/>
</g>
<!-- Node12 -->
<g id="node12" class="node">
<title>Node12</title>
<g id="a_node12"><a xlink:href="guwhiteboard__c__types_8h.html" target="_top" xlink:title=" ">
<polygon fill="none" stroke="black" points="436,-73 436,-92 557,-92 557,-73 436,-73"/>
<text text-anchor="middle" x="496.5" y="-80" font-family="Helvetica,sans-Serif" font-size="10.00">guwhiteboard_c_types.h</text>
</a>
</g>
</g>
<!-- Node11&#45;&gt;Node12 -->
<g id="edge11" class="edge">
<title>Node11&#45;&gt;Node12</title>
<path fill="none" stroke="midnightblue" d="M497.75,-124.25C497.41,-113.02 497.02,-100.38 496.77,-92.19"/>
<polygon fill="midnightblue" stroke="midnightblue" points="494.26,-124.51 498.07,-134.4 501.26,-124.29 494.26,-124.51"/>
</g>
<!-- Node13 -->
<g id="node13" class="node">
<title>Node13</title>
<g id="a_node13"><a xlink:href="guwhiteboarddeserialiser_8c.html" target="_top" xlink:title=" ">
<polygon fill="none" stroke="black" points="361,-6 361,-25 492,-25 492,-6 361,-6"/>
<text text-anchor="middle" x="426.5" y="-13" font-family="Helvetica,sans-Serif" font-size="10.00">guwhiteboarddeserialiser.c</text>
</a>
</g>
</g>
<!-- Node12&#45;&gt;Node13 -->
<g id="edge12" class="edge">
<title>Node12&#45;&gt;Node13</title>
<path fill="none" stroke="midnightblue" d="M479.65,-65.86C465.89,-53.08 446.95,-35.49 435.79,-25.13"/>
<polygon fill="midnightblue" stroke="midnightblue" points="477.35,-68.49 487.06,-72.73 482.11,-63.36 477.35,-68.49"/>
</g>
<!-- Node14 -->
<g id="node14" class="node">
<title>Node14</title>
<g id="a_node14"><a xlink:href="guwhiteboardserialiser_8c.html" target="_top" xlink:title=" ">
<polygon fill="none" stroke="black" points="510,-6 510,-25 631,-25 631,-6 510,-6"/>
<text text-anchor="middle" x="570.5" y="-13" font-family="Helvetica,sans-Serif" font-size="10.00">guwhiteboardserialiser.c</text>
</a>
</g>
</g>
<!-- Node12&#45;&gt;Node14 -->
<g id="edge13" class="edge">
<title>Node12&#45;&gt;Node14</title>
<path fill="none" stroke="midnightblue" d="M514.31,-65.86C528.86,-53.08 548.88,-35.49 560.68,-25.13"/>
<polygon fill="midnightblue" stroke="midnightblue" points="511.68,-63.5 506.48,-72.73 516.3,-68.76 511.68,-63.5"/>
</g>
<!-- Node16 -->
<g id="node16" class="node">
<title>Node16</title>
<g id="a_node16"><a xlink:href="_pixel_to_robot_relative_coord_8h.html" target="_top" xlink:title=" ">
<polygon fill="none" stroke="black" points="575.5,-67.5 575.5,-97.5 715.5,-97.5 715.5,-67.5 575.5,-67.5"/>
<text text-anchor="start" x="583.5" y="-85.5" font-family="Helvetica,sans-Serif" font-size="10.00">typeClassDefs/PixelToRobot</text>
<text text-anchor="middle" x="645.5" y="-74.5" font-family="Helvetica,sans-Serif" font-size="10.00">RelativeCoord.h</text>
</a>
</g>
</g>
<!-- Node15&#45;&gt;Node16 -->
<g id="edge15" class="edge">
<title>Node15&#45;&gt;Node16</title>
<path fill="none" stroke="midnightblue" d="M644.25,-124.11C644.53,-115.15 644.83,-105.32 645.07,-97.58"/>
<polygon fill="midnightblue" stroke="midnightblue" points="640.74,-124.29 643.93,-134.4 647.74,-124.51 640.74,-124.29"/>
</g>
</g>
</svg>
