<?xml version="1.0" encoding="UTF-8" standalone="no"?>
<!DOCTYPE svg PUBLIC "-//W3C//DTD SVG 1.1//EN"
 "http://www.w3.org/Graphics/SVG/1.1/DTD/svg11.dtd">
<!-- Generated by graphviz version 2.49.0 (20210830.1337)
 -->
<!-- Title: typeClassDefs/wb_data_logger.c Pages: 1 -->
<svg width="440pt" height="151pt"
 viewBox="0.00 0.00 440.00 151.00" xmlns="http://www.w3.org/2000/svg" xmlns:xlink="http://www.w3.org/1999/xlink">
<g id="graph0" class="graph" transform="scale(1 1) rotate(0) translate(4 147)">
<title>typeClassDefs/wb_data_logger.c</title>
<!-- Node1 -->
<g id="node1" class="node">
<title>Node1</title>
<g id="a_node1"><a xlink:title=" ">
<polygon fill="#bfbfbf" stroke="black" points="186,-112.5 186,-142.5 305,-142.5 305,-112.5 186,-112.5"/>
<text text-anchor="start" x="194" y="-130.5" font-family="Helvetica,sans-Serif" font-size="10.00">typeClassDefs/wb_data</text>
<text text-anchor="middle" x="245.5" y="-119.5" font-family="Helvetica,sans-Serif" font-size="10.00">_logger.c</text>
</a>
</g>
</g>
<!-- Node2 -->
<g id="node2" class="node">
<title>Node2</title>
<g id="a_node2"><a xlink:href="wb__data__logger_8h.html" target="_top" xlink:title=" ">
<polygon fill="none" stroke="black" points="14.5,-56.5 14.5,-75.5 106.5,-75.5 106.5,-56.5 14.5,-56.5"/>
<text text-anchor="middle" x="60.5" y="-63.5" font-family="Helvetica,sans-Serif" font-size="10.00">wb_data_logger.h</text>
</a>
</g>
</g>
<!-- Node1&#45;&gt;Node2 -->
<g id="edge1" class="edge">
<title>Node1&#45;&gt;Node2</title>
<path fill="none" stroke="midnightblue" d="M201.66,-112.4C169.69,-102.12 126.88,-88.35 96.82,-78.68"/>
<polygon fill="midnightblue" stroke="midnightblue" points="97.74,-75.3 87.15,-75.57 95.6,-81.96 97.74,-75.3"/>
</g>
<!-- Node5 -->
<g id="node5" class="node">
<title>Node5</title>
<g id="a_node5"><a xlink:title=" ">
<polygon fill="none" stroke="#bfbfbf" points="125,-56.5 125,-75.5 170,-75.5 170,-56.5 125,-56.5"/>
<text text-anchor="middle" x="147.5" y="-63.5" font-family="Helvetica,sans-Serif" font-size="10.00">stdio.h</text>
</a>
</g>
</g>
<!-- Node1&#45;&gt;Node5 -->
<g id="edge4" class="edge">
<title>Node1&#45;&gt;Node5</title>
<path fill="none" stroke="midnightblue" d="M222.28,-112.4C206.71,-102.95 186.3,-90.56 170.74,-81.11"/>
<polygon fill="midnightblue" stroke="midnightblue" points="172.12,-77.86 161.76,-75.66 168.49,-83.84 172.12,-77.86"/>
</g>
<!-- Node6 -->
<g id="node6" class="node">
<title>Node6</title>
<g id="a_node6"><a xlink:title=" ">
<polygon fill="none" stroke="#bfbfbf" points="188.5,-56.5 188.5,-75.5 236.5,-75.5 236.5,-56.5 188.5,-56.5"/>
<text text-anchor="middle" x="212.5" y="-63.5" font-family="Helvetica,sans-Serif" font-size="10.00">string.h</text>
</a>
</g>
</g>
<!-- Node1&#45;&gt;Node6 -->
<g id="edge5" class="edge">
<title>Node1&#45;&gt;Node6</title>
<path fill="none" stroke="midnightblue" d="M237.68,-112.4C233.03,-104.02 227.1,-93.33 222.16,-84.42"/>
<polygon fill="midnightblue" stroke="midnightblue" points="225.21,-82.71 217.3,-75.66 219.09,-86.1 225.21,-82.71"/>
</g>
<!-- Node7 -->
<g id="node7" class="node">
<title>Node7</title>
<g id="a_node7"><a xlink:title=" ">
<polygon fill="none" stroke="#bfbfbf" points="255,-56.5 255,-75.5 302,-75.5 302,-56.5 255,-56.5"/>
<text text-anchor="middle" x="278.5" y="-63.5" font-family="Helvetica,sans-Serif" font-size="10.00">stdlib.h</text>
</a>
</g>
</g>
<!-- Node1&#45;&gt;Node7 -->
<g id="edge6" class="edge">
<title>Node1&#45;&gt;Node7</title>
<path fill="none" stroke="midnightblue" d="M253.32,-112.4C257.97,-104.02 263.9,-93.33 268.84,-84.42"/>
<polygon fill="midnightblue" stroke="midnightblue" points="271.91,-86.1 273.7,-75.66 265.79,-82.71 271.91,-86.1"/>
</g>
<!-- Node8 -->
<g id="node8" class="node">
<title>Node8</title>
<g id="a_node8"><a xlink:title=" ">
<polygon fill="none" stroke="#bfbfbf" points="320,-56.5 320,-75.5 367,-75.5 367,-56.5 320,-56.5"/>
<text text-anchor="middle" x="343.5" y="-63.5" font-family="Helvetica,sans-Serif" font-size="10.00">ctype.h</text>
</a>
</g>
</g>
<!-- Node1&#45;&gt;Node8 -->
<g id="edge7" class="edge">
<title>Node1&#45;&gt;Node8</title>
<path fill="none" stroke="midnightblue" d="M268.72,-112.4C284.29,-102.95 304.7,-90.56 320.26,-81.11"/>
<polygon fill="midnightblue" stroke="midnightblue" points="322.51,-83.84 329.24,-75.66 318.88,-77.86 322.51,-83.84"/>
</g>
<!-- Node9 -->
<g id="node9" class="node">
<title>Node9</title>
<g id="a_node9"><a xlink:title=" ">
<polygon fill="none" stroke="#bfbfbf" points="385,-56.5 385,-75.5 432,-75.5 432,-56.5 385,-56.5"/>
<text text-anchor="middle" x="408.5" y="-63.5" font-family="Helvetica,sans-Serif" font-size="10.00">limits.h</text>
</a>
</g>
</g>
<!-- Node1&#45;&gt;Node9 -->
<g id="edge8" class="edge">
<title>Node1&#45;&gt;Node9</title>
<path fill="none" stroke="midnightblue" d="M284.13,-112.4C311.84,-102.28 348.81,-88.79 375.22,-79.15"/>
<polygon fill="midnightblue" stroke="midnightblue" points="376.59,-82.37 384.78,-75.66 374.19,-75.8 376.59,-82.37"/>
</g>
<!-- Node3 -->
<g id="node3" class="node">
<title>Node3</title>
<g id="a_node3"><a xlink:title=" ">
<polygon fill="none" stroke="#bfbfbf" points="0,-0.5 0,-19.5 53,-19.5 53,-0.5 0,-0.5"/>
<text text-anchor="middle" x="26.5" y="-7.5" font-family="Helvetica,sans-Serif" font-size="10.00">gu_util.h</text>
</a>
</g>
</g>
<!-- Node2&#45;&gt;Node3 -->
<g id="edge2" class="edge">
<title>Node2&#45;&gt;Node3</title>
<path fill="none" stroke="midnightblue" d="M54.89,-56.08C50.13,-48.53 43.18,-37.49 37.35,-28.23"/>
<polygon fill="midnightblue" stroke="midnightblue" points="40.3,-26.35 32.01,-19.75 34.38,-30.08 40.3,-26.35"/>
</g>
<!-- Node4 -->
<g id="node4" class="node">
<title>Node4</title>
<g id="a_node4"><a xlink:title=" ">
<polygon fill="none" stroke="#bfbfbf" points="71.5,-0.5 71.5,-19.5 119.5,-19.5 119.5,-0.5 71.5,-0.5"/>
<text text-anchor="middle" x="95.5" y="-7.5" font-family="Helvetica,sans-Serif" font-size="10.00">stdint.h</text>
</a>
</g>
</g>
<!-- Node2&#45;&gt;Node4 -->
<g id="edge3" class="edge">
<title>Node2&#45;&gt;Node4</title>
<path fill="none" stroke="midnightblue" d="M66.28,-56.08C71.17,-48.53 78.33,-37.49 84.33,-28.23"/>
<polygon fill="midnightblue" stroke="midnightblue" points="87.33,-30.05 89.83,-19.75 81.45,-26.24 87.33,-30.05"/>
</g>
</g>
</svg>
