<?xml version="1.0" encoding="UTF-8" standalone="no"?>
<!DOCTYPE svg PUBLIC "-//W3C//DTD SVG 1.1//EN"
 "http://www.w3.org/Graphics/SVG/1.1/DTD/svg11.dtd">
<!-- Generated by graphviz version 2.49.0 (20210830.1337)
 -->
<!-- Title: typeClassDefs/wb_memory_image_control_status.c Pages: 1 -->
<svg width="468pt" height="162pt"
 viewBox="0.00 0.00 468.00 162.00" xmlns="http://www.w3.org/2000/svg" xmlns:xlink="http://www.w3.org/1999/xlink">
<g id="graph0" class="graph" transform="scale(1 1) rotate(0) translate(4 158)">
<title>typeClassDefs/wb_memory_image_control_status.c</title>
<!-- Node1 -->
<g id="node1" class="node">
<title>Node1</title>
<g id="a_node1"><a xlink:title=" ">
<polygon fill="#bfbfbf" stroke="black" points="206,-123.5 206,-153.5 341,-153.5 341,-123.5 206,-123.5"/>
<text text-anchor="start" x="214" y="-141.5" font-family="Helvetica,sans-Serif" font-size="10.00">typeClassDefs/wb_memory</text>
<text text-anchor="middle" x="273.5" y="-130.5" font-family="Helvetica,sans-Serif" font-size="10.00">_image_control_status.c</text>
</a>
</g>
</g>
<!-- Node2 -->
<g id="node2" class="node">
<title>Node2</title>
<g id="a_node2"><a xlink:href="wb__memory__image__control__status_8h.html" target="_top" xlink:title=" ">
<polygon fill="none" stroke="black" points="0,-56.5 0,-86.5 135,-86.5 135,-56.5 0,-56.5"/>
<text text-anchor="start" x="8" y="-74.5" font-family="Helvetica,sans-Serif" font-size="10.00">wb_memory_image_control</text>
<text text-anchor="middle" x="67.5" y="-63.5" font-family="Helvetica,sans-Serif" font-size="10.00">_status.h</text>
</a>
</g>
</g>
<!-- Node1&#45;&gt;Node2 -->
<g id="edge1" class="edge">
<title>Node1&#45;&gt;Node2</title>
<path fill="none" stroke="midnightblue" d="M229.05,-123.48C197.62,-113.56 155.29,-100.2 121.85,-89.65"/>
<polygon fill="midnightblue" stroke="midnightblue" points="122.81,-86.28 112.22,-86.61 120.7,-92.96 122.81,-86.28"/>
</g>
<!-- Node5 -->
<g id="node5" class="node">
<title>Node5</title>
<g id="a_node5"><a xlink:title=" ">
<polygon fill="none" stroke="#bfbfbf" points="153,-62 153,-81 198,-81 198,-62 153,-62"/>
<text text-anchor="middle" x="175.5" y="-69" font-family="Helvetica,sans-Serif" font-size="10.00">stdio.h</text>
</a>
</g>
</g>
<!-- Node1&#45;&gt;Node5 -->
<g id="edge4" class="edge">
<title>Node1&#45;&gt;Node5</title>
<path fill="none" stroke="midnightblue" d="M252.24,-123.4C235.8,-112.5 213.16,-97.48 196.73,-86.58"/>
<polygon fill="midnightblue" stroke="midnightblue" points="198.59,-83.62 188.33,-81.01 194.72,-89.45 198.59,-83.62"/>
</g>
<!-- Node6 -->
<g id="node6" class="node">
<title>Node6</title>
<g id="a_node6"><a xlink:title=" ">
<polygon fill="none" stroke="#bfbfbf" points="216.5,-62 216.5,-81 264.5,-81 264.5,-62 216.5,-62"/>
<text text-anchor="middle" x="240.5" y="-69" font-family="Helvetica,sans-Serif" font-size="10.00">string.h</text>
</a>
</g>
</g>
<!-- Node1&#45;&gt;Node6 -->
<g id="edge5" class="edge">
<title>Node1&#45;&gt;Node6</title>
<path fill="none" stroke="midnightblue" d="M266.34,-123.4C261.4,-113.66 254.79,-100.65 249.49,-90.21"/>
<polygon fill="midnightblue" stroke="midnightblue" points="252.56,-88.53 244.91,-81.19 246.32,-91.7 252.56,-88.53"/>
</g>
<!-- Node7 -->
<g id="node7" class="node">
<title>Node7</title>
<g id="a_node7"><a xlink:title=" ">
<polygon fill="none" stroke="#bfbfbf" points="283,-62 283,-81 330,-81 330,-62 283,-62"/>
<text text-anchor="middle" x="306.5" y="-69" font-family="Helvetica,sans-Serif" font-size="10.00">stdlib.h</text>
</a>
</g>
</g>
<!-- Node1&#45;&gt;Node7 -->
<g id="edge6" class="edge">
<title>Node1&#45;&gt;Node7</title>
<path fill="none" stroke="midnightblue" d="M280.66,-123.4C285.6,-113.66 292.21,-100.65 297.51,-90.21"/>
<polygon fill="midnightblue" stroke="midnightblue" points="300.68,-91.7 302.09,-81.19 294.44,-88.53 300.68,-91.7"/>
</g>
<!-- Node8 -->
<g id="node8" class="node">
<title>Node8</title>
<g id="a_node8"><a xlink:title=" ">
<polygon fill="none" stroke="#bfbfbf" points="348,-62 348,-81 395,-81 395,-62 348,-62"/>
<text text-anchor="middle" x="371.5" y="-69" font-family="Helvetica,sans-Serif" font-size="10.00">ctype.h</text>
</a>
</g>
</g>
<!-- Node1&#45;&gt;Node8 -->
<g id="edge7" class="edge">
<title>Node1&#45;&gt;Node8</title>
<path fill="none" stroke="midnightblue" d="M294.76,-123.4C311.2,-112.5 333.84,-97.48 350.27,-86.58"/>
<polygon fill="midnightblue" stroke="midnightblue" points="352.28,-89.45 358.67,-81.01 348.41,-83.62 352.28,-89.45"/>
</g>
<!-- Node9 -->
<g id="node9" class="node">
<title>Node9</title>
<g id="a_node9"><a xlink:title=" ">
<polygon fill="none" stroke="#bfbfbf" points="413,-62 413,-81 460,-81 460,-62 413,-62"/>
<text text-anchor="middle" x="436.5" y="-69" font-family="Helvetica,sans-Serif" font-size="10.00">limits.h</text>
</a>
</g>
</g>
<!-- Node1&#45;&gt;Node9 -->
<g id="edge8" class="edge">
<title>Node1&#45;&gt;Node9</title>
<path fill="none" stroke="midnightblue" d="M311.57,-123.49C337.83,-113.66 373.48,-100 404.5,-87 405.87,-86.43 407.27,-85.83 408.68,-85.22"/>
<polygon fill="midnightblue" stroke="midnightblue" points="410.24,-88.36 417.97,-81.12 407.4,-81.96 410.24,-88.36"/>
</g>
<!-- Node3 -->
<g id="node3" class="node">
<title>Node3</title>
<g id="a_node3"><a xlink:title=" ">
<polygon fill="none" stroke="#bfbfbf" points="7,-0.5 7,-19.5 60,-19.5 60,-0.5 7,-0.5"/>
<text text-anchor="middle" x="33.5" y="-7.5" font-family="Helvetica,sans-Serif" font-size="10.00">gu_util.h</text>
</a>
</g>
</g>
<!-- Node2&#45;&gt;Node3 -->
<g id="edge2" class="edge">
<title>Node2&#45;&gt;Node3</title>
<path fill="none" stroke="midnightblue" d="M59.44,-56.4C54.65,-48.02 48.54,-37.33 43.46,-28.42"/>
<polygon fill="midnightblue" stroke="midnightblue" points="46.45,-26.6 38.45,-19.66 40.37,-30.08 46.45,-26.6"/>
</g>
<!-- Node4 -->
<g id="node4" class="node">
<title>Node4</title>
<g id="a_node4"><a xlink:title=" ">
<polygon fill="none" stroke="#bfbfbf" points="78.5,-0.5 78.5,-19.5 126.5,-19.5 126.5,-0.5 78.5,-0.5"/>
<text text-anchor="middle" x="102.5" y="-7.5" font-family="Helvetica,sans-Serif" font-size="10.00">stdint.h</text>
</a>
</g>
</g>
<!-- Node2&#45;&gt;Node4 -->
<g id="edge3" class="edge">
<title>Node2&#45;&gt;Node4</title>
<path fill="none" stroke="midnightblue" d="M75.79,-56.4C80.72,-48.02 87.01,-37.33 92.25,-28.42"/>
<polygon fill="midnightblue" stroke="midnightblue" points="95.35,-30.05 97.41,-19.66 89.32,-26.5 95.35,-30.05"/>
</g>
</g>
</svg>
