<?xml version="1.0" encoding="UTF-8" standalone="no"?>
<!DOCTYPE svg PUBLIC "-//W3C//DTD SVG 1.1//EN"
 "http://www.w3.org/Graphics/SVG/1.1/DTD/svg11.dtd">
<!-- Generated by graphviz version 2.49.0 (20210830.1337)
 -->
<!-- Title: typeClassDefs/wb_count.h Pages: 1 -->
<svg width="570pt" height="274pt"
 viewBox="0.00 0.00 569.50 274.00" xmlns="http://www.w3.org/2000/svg" xmlns:xlink="http://www.w3.org/1999/xlink">
<g id="graph0" class="graph" transform="scale(1 1) rotate(0) translate(4 270)">
<title>typeClassDefs/wb_count.h</title>
<!-- Node1 -->
<g id="node1" class="node">
<title>Node1</title>
<g id="a_node1"><a xlink:title=" ">
<polygon fill="#bfbfbf" stroke="black" points="282.5,-246.5 282.5,-265.5 414.5,-265.5 414.5,-246.5 282.5,-246.5"/>
<text text-anchor="middle" x="348.5" y="-253.5" font-family="Helvetica,sans-Serif" font-size="10.00">typeClassDefs/wb_count.h</text>
</a>
</g>
</g>
<!-- Node2 -->
<g id="node2" class="node">
<title>Node2</title>
<g id="a_node2"><a xlink:href="guwhiteboard__c__types_8h.html" target="_top" xlink:title=" ">
<polygon fill="none" stroke="black" points="146,-190.5 146,-209.5 267,-209.5 267,-190.5 146,-190.5"/>
<text text-anchor="middle" x="206.5" y="-197.5" font-family="Helvetica,sans-Serif" font-size="10.00">guwhiteboard_c_types.h</text>
</a>
</g>
</g>
<!-- Node1&#45;&gt;Node2 -->
<g id="edge1" class="edge">
<title>Node1&#45;&gt;Node2</title>
<path fill="none" stroke="midnightblue" d="M316.34,-242.77C289.67,-232.63 252.43,-218.47 228.9,-209.52"/>
<polygon fill="midnightblue" stroke="midnightblue" points="315.41,-246.16 326,-246.44 317.9,-239.62 315.41,-246.16"/>
</g>
<!-- Node5 -->
<g id="node5" class="node">
<title>Node5</title>
<g id="a_node5"><a xlink:href="_count_8hpp.html" target="_top" xlink:title=" ">
<polygon fill="none" stroke="black" points="285.5,-190.5 285.5,-209.5 411.5,-209.5 411.5,-190.5 285.5,-190.5"/>
<text text-anchor="middle" x="348.5" y="-197.5" font-family="Helvetica,sans-Serif" font-size="10.00">typeClassDefs/Count.hpp</text>
</a>
</g>
</g>
<!-- Node1&#45;&gt;Node5 -->
<g id="edge4" class="edge">
<title>Node1&#45;&gt;Node5</title>
<path fill="none" stroke="midnightblue" d="M348.5,-235.8C348.5,-226.91 348.5,-216.78 348.5,-209.75"/>
<polygon fill="midnightblue" stroke="midnightblue" points="345,-236.08 348.5,-246.08 352,-236.08 345,-236.08"/>
</g>
<!-- Node13 -->
<g id="node13" class="node">
<title>Node13</title>
<g id="a_node13"><a xlink:href="wb__count_8c.html" target="_top" xlink:title=" ">
<polygon fill="none" stroke="black" points="429.5,-190.5 429.5,-209.5 561.5,-209.5 561.5,-190.5 429.5,-190.5"/>
<text text-anchor="middle" x="495.5" y="-197.5" font-family="Helvetica,sans-Serif" font-size="10.00">typeClassDefs/wb_count.c</text>
</a>
</g>
</g>
<!-- Node1&#45;&gt;Node13 -->
<g id="edge12" class="edge">
<title>Node1&#45;&gt;Node13</title>
<path fill="none" stroke="midnightblue" d="M381.42,-242.91C409.06,-232.75 447.84,-218.51 472.32,-209.52"/>
<polygon fill="midnightblue" stroke="midnightblue" points="379.97,-239.71 371.79,-246.44 382.39,-246.28 379.97,-239.71"/>
</g>
<!-- Node3 -->
<g id="node3" class="node">
<title>Node3</title>
<g id="a_node3"><a xlink:href="guwhiteboarddeserialiser_8c.html" target="_top" xlink:title=" ">
<polygon fill="none" stroke="black" points="0,-134.5 0,-153.5 131,-153.5 131,-134.5 0,-134.5"/>
<text text-anchor="middle" x="65.5" y="-141.5" font-family="Helvetica,sans-Serif" font-size="10.00">guwhiteboarddeserialiser.c</text>
</a>
</g>
</g>
<!-- Node2&#45;&gt;Node3 -->
<g id="edge2" class="edge">
<title>Node2&#45;&gt;Node3</title>
<path fill="none" stroke="midnightblue" d="M174.57,-186.77C148.09,-176.63 111.11,-162.47 87.74,-153.52"/>
<polygon fill="midnightblue" stroke="midnightblue" points="173.57,-190.14 184.16,-190.44 176.07,-183.6 173.57,-190.14"/>
</g>
<!-- Node4 -->
<g id="node4" class="node">
<title>Node4</title>
<g id="a_node4"><a xlink:href="guwhiteboardserialiser_8c.html" target="_top" xlink:title=" ">
<polygon fill="none" stroke="black" points="149,-134.5 149,-153.5 270,-153.5 270,-134.5 149,-134.5"/>
<text text-anchor="middle" x="209.5" y="-141.5" font-family="Helvetica,sans-Serif" font-size="10.00">guwhiteboardserialiser.c</text>
</a>
</g>
</g>
<!-- Node2&#45;&gt;Node4 -->
<g id="edge3" class="edge">
<title>Node2&#45;&gt;Node4</title>
<path fill="none" stroke="midnightblue" d="M207.57,-179.8C208.06,-170.91 208.62,-160.78 209.01,-153.75"/>
<polygon fill="midnightblue" stroke="midnightblue" points="204.06,-179.9 207,-190.08 211.04,-180.29 204.06,-179.9"/>
</g>
<!-- Node6 -->
<g id="node6" class="node">
<title>Node6</title>
<g id="a_node6"><a xlink:href="guwhiteboardposter_8h.html" target="_top" xlink:title=" ">
<polygon fill="none" stroke="black" points="292,-134.5 292,-153.5 401,-153.5 401,-134.5 292,-134.5"/>
<text text-anchor="middle" x="346.5" y="-141.5" font-family="Helvetica,sans-Serif" font-size="10.00">guwhiteboardposter.h</text>
</a>
</g>
</g>
<!-- Node5&#45;&gt;Node6 -->
<g id="edge5" class="edge">
<title>Node5&#45;&gt;Node6</title>
<path fill="none" stroke="midnightblue" d="M347.79,-179.8C347.46,-170.91 347.08,-160.78 346.82,-153.75"/>
<polygon fill="midnightblue" stroke="midnightblue" points="344.3,-180.22 348.17,-190.08 351.3,-179.96 344.3,-180.22"/>
</g>
<!-- Node12 -->
<g id="node12" class="node">
<title>Node12</title>
<g id="a_node12"><a xlink:href="_count_8h.html" target="_top" xlink:title=" ">
<polygon fill="none" stroke="black" points="419.5,-134.5 419.5,-153.5 535.5,-153.5 535.5,-134.5 419.5,-134.5"/>
<text text-anchor="middle" x="477.5" y="-141.5" font-family="Helvetica,sans-Serif" font-size="10.00">typeClassDefs/Count.h</text>
</a>
</g>
</g>
<!-- Node5&#45;&gt;Node12 -->
<g id="edge11" class="edge">
<title>Node5&#45;&gt;Node12</title>
<path fill="none" stroke="midnightblue" d="M378.35,-186.5C402.54,-176.38 435.96,-162.39 457.16,-153.52"/>
<polygon fill="midnightblue" stroke="midnightblue" points="376.81,-183.35 368.94,-190.44 379.52,-189.81 376.81,-183.35"/>
</g>
<!-- Node7 -->
<g id="node7" class="node">
<title>Node7</title>
<g id="a_node7"><a xlink:href="_simple_whiteboard_test_8h.html" target="_top" xlink:title=" ">
<polygon fill="none" stroke="black" points="147,-67.5 147,-97.5 272,-97.5 272,-67.5 147,-67.5"/>
<text text-anchor="start" x="155" y="-85.5" font-family="Helvetica,sans-Serif" font-size="10.00">SimpleWhiteboardTest</text>
<text text-anchor="middle" x="209.5" y="-74.5" font-family="Helvetica,sans-Serif" font-size="10.00">/SimpleWhiteboardTest.h</text>
</a>
</g>
</g>
<!-- Node6&#45;&gt;Node7 -->
<g id="edge6" class="edge">
<title>Node6&#45;&gt;Node7</title>
<path fill="none" stroke="midnightblue" d="M317.63,-130.46C295.44,-120.82 264.79,-107.51 241.79,-97.52"/>
<polygon fill="midnightblue" stroke="midnightblue" points="316.3,-133.7 326.87,-134.48 319.09,-127.28 316.3,-133.7"/>
</g>
<!-- Node9 -->
<g id="node9" class="node">
<title>Node9</title>
<g id="a_node9"><a xlink:href="guwhiteboardgetter_8h.html" target="_top" xlink:title=" ">
<polygon fill="none" stroke="black" points="293,-73 293,-92 400,-92 400,-73 293,-73"/>
<text text-anchor="middle" x="346.5" y="-80" font-family="Helvetica,sans-Serif" font-size="10.00">guwhiteboardgetter.h</text>
</a>
</g>
</g>
<!-- Node6&#45;&gt;Node9 -->
<g id="edge8" class="edge">
<title>Node6&#45;&gt;Node9</title>
<path fill="none" stroke="midnightblue" d="M346.5,-124.32C346.5,-113.5 346.5,-100.4 346.5,-92.01"/>
<polygon fill="midnightblue" stroke="midnightblue" points="343,-124.48 346.5,-134.48 350,-124.48 343,-124.48"/>
</g>
<!-- Node11 -->
<g id="node11" class="node">
<title>Node11</title>
<g id="a_node11"><a xlink:href="guwhiteboardposter_8cpp.html" target="_top" xlink:title=" ">
<polygon fill="none" stroke="black" points="418,-73 418,-92 537,-92 537,-73 418,-73"/>
<text text-anchor="middle" x="477.5" y="-80" font-family="Helvetica,sans-Serif" font-size="10.00">guwhiteboardposter.cpp</text>
</a>
</g>
</g>
<!-- Node6&#45;&gt;Node11 -->
<g id="edge10" class="edge">
<title>Node6&#45;&gt;Node11</title>
<path fill="none" stroke="midnightblue" d="M374.4,-130.33C399.83,-118.78 436.7,-102.03 458.77,-92.01"/>
<polygon fill="midnightblue" stroke="midnightblue" points="372.93,-127.15 365.27,-134.48 375.82,-133.53 372.93,-127.15"/>
</g>
<!-- Node8 -->
<g id="node8" class="node">
<title>Node8</title>
<g id="a_node8"><a xlink:href="_simple_whiteboard_test_8mm.html" target="_top" xlink:title=" ">
<polygon fill="none" stroke="black" points="136,-0.5 136,-30.5 273,-30.5 273,-0.5 136,-0.5"/>
<text text-anchor="start" x="144" y="-18.5" font-family="Helvetica,sans-Serif" font-size="10.00">SimpleWhiteboardTest</text>
<text text-anchor="middle" x="204.5" y="-7.5" font-family="Helvetica,sans-Serif" font-size="10.00">/SimpleWhiteboardTest.mm</text>
</a>
</g>
</g>
<!-- Node7&#45;&gt;Node8 -->
<g id="edge7" class="edge">
<title>Node7&#45;&gt;Node8</title>
<path fill="none" stroke="midnightblue" d="M207.65,-57.4C206.95,-48.37 206.19,-38.41 205.58,-30.58"/>
<polygon fill="midnightblue" stroke="midnightblue" points="204.16,-57.69 208.42,-67.4 211.14,-57.16 204.16,-57.69"/>
</g>
<!-- Node10 -->
<g id="node10" class="node">
<title>Node10</title>
<g id="a_node10"><a xlink:href="guwhiteboardgetter_8cpp.html" target="_top" xlink:title=" ">
<polygon fill="none" stroke="black" points="291,-6 291,-25 408,-25 408,-6 291,-6"/>
<text text-anchor="middle" x="349.5" y="-13" font-family="Helvetica,sans-Serif" font-size="10.00">guwhiteboardgetter.cpp</text>
</a>
</g>
</g>
<!-- Node9&#45;&gt;Node10 -->
<g id="edge9" class="edge">
<title>Node9&#45;&gt;Node10</title>
<path fill="none" stroke="midnightblue" d="M347.38,-62.54C347.95,-50.17 348.66,-34.62 349.1,-25.13"/>
<polygon fill="midnightblue" stroke="midnightblue" points="343.87,-62.58 346.9,-72.73 350.86,-62.91 343.87,-62.58"/>
</g>
</g>
</svg>
