<?xml version="1.0" encoding="UTF-8" standalone="no"?>
<!DOCTYPE svg PUBLIC "-//W3C//DTD SVG 1.1//EN"
 "http://www.w3.org/Graphics/SVG/1.1/DTD/svg11.dtd">
<!-- Generated by graphviz version 2.49.0 (20210830.1337)
 -->
<!-- Title: typeClassDefs/wb_sensors_foot_sensors.c Pages: 1 -->
<svg width="472pt" height="151pt"
 viewBox="0.00 0.00 471.50 151.00" xmlns="http://www.w3.org/2000/svg" xmlns:xlink="http://www.w3.org/1999/xlink">
<g id="graph0" class="graph" transform="scale(1 1) rotate(0) translate(4 147)">
<title>typeClassDefs/wb_sensors_foot_sensors.c</title>
<!-- Node1 -->
<g id="node1" class="node">
<title>Node1</title>
<g id="a_node1"><a xlink:title=" ">
<polygon fill="#bfbfbf" stroke="black" points="209.5,-112.5 209.5,-142.5 344.5,-142.5 344.5,-112.5 209.5,-112.5"/>
<text text-anchor="start" x="217.5" y="-130.5" font-family="Helvetica,sans-Serif" font-size="10.00">typeClassDefs/wb_sensors</text>
<text text-anchor="middle" x="277" y="-119.5" font-family="Helvetica,sans-Serif" font-size="10.00">_foot_sensors.c</text>
</a>
</g>
</g>
<!-- Node2 -->
<g id="node2" class="node">
<title>Node2</title>
<g id="a_node2"><a xlink:href="wb__sensors__foot__sensors_8h.html" target="_top" xlink:title=" ">
<polygon fill="none" stroke="black" points="0,-56.5 0,-75.5 138,-75.5 138,-56.5 0,-56.5"/>
<text text-anchor="middle" x="69" y="-63.5" font-family="Helvetica,sans-Serif" font-size="10.00">wb_sensors_foot_sensors.h</text>
</a>
</g>
</g>
<!-- Node1&#45;&gt;Node2 -->
<g id="edge1" class="edge">
<title>Node1&#45;&gt;Node2</title>
<path fill="none" stroke="midnightblue" d="M227.97,-112.47C191.62,-102.08 142.69,-88.08 108.75,-78.37"/>
<polygon fill="midnightblue" stroke="midnightblue" points="109.31,-74.89 98.74,-75.51 107.39,-81.62 109.31,-74.89"/>
</g>
<!-- Node5 -->
<g id="node5" class="node">
<title>Node5</title>
<g id="a_node5"><a xlink:title=" ">
<polygon fill="none" stroke="#bfbfbf" points="156.5,-56.5 156.5,-75.5 201.5,-75.5 201.5,-56.5 156.5,-56.5"/>
<text text-anchor="middle" x="179" y="-63.5" font-family="Helvetica,sans-Serif" font-size="10.00">stdio.h</text>
</a>
</g>
</g>
<!-- Node1&#45;&gt;Node5 -->
<g id="edge4" class="edge">
<title>Node1&#45;&gt;Node5</title>
<path fill="none" stroke="midnightblue" d="M253.78,-112.4C238.21,-102.95 217.8,-90.56 202.24,-81.11"/>
<polygon fill="midnightblue" stroke="midnightblue" points="203.62,-77.86 193.26,-75.66 199.99,-83.84 203.62,-77.86"/>
</g>
<!-- Node6 -->
<g id="node6" class="node">
<title>Node6</title>
<g id="a_node6"><a xlink:title=" ">
<polygon fill="none" stroke="#bfbfbf" points="220,-56.5 220,-75.5 268,-75.5 268,-56.5 220,-56.5"/>
<text text-anchor="middle" x="244" y="-63.5" font-family="Helvetica,sans-Serif" font-size="10.00">string.h</text>
</a>
</g>
</g>
<!-- Node1&#45;&gt;Node6 -->
<g id="edge5" class="edge">
<title>Node1&#45;&gt;Node6</title>
<path fill="none" stroke="midnightblue" d="M269.18,-112.4C264.53,-104.02 258.6,-93.33 253.66,-84.42"/>
<polygon fill="midnightblue" stroke="midnightblue" points="256.71,-82.71 248.8,-75.66 250.59,-86.1 256.71,-82.71"/>
</g>
<!-- Node7 -->
<g id="node7" class="node">
<title>Node7</title>
<g id="a_node7"><a xlink:title=" ">
<polygon fill="none" stroke="#bfbfbf" points="286.5,-56.5 286.5,-75.5 333.5,-75.5 333.5,-56.5 286.5,-56.5"/>
<text text-anchor="middle" x="310" y="-63.5" font-family="Helvetica,sans-Serif" font-size="10.00">stdlib.h</text>
</a>
</g>
</g>
<!-- Node1&#45;&gt;Node7 -->
<g id="edge6" class="edge">
<title>Node1&#45;&gt;Node7</title>
<path fill="none" stroke="midnightblue" d="M284.82,-112.4C289.47,-104.02 295.4,-93.33 300.34,-84.42"/>
<polygon fill="midnightblue" stroke="midnightblue" points="303.41,-86.1 305.2,-75.66 297.29,-82.71 303.41,-86.1"/>
</g>
<!-- Node8 -->
<g id="node8" class="node">
<title>Node8</title>
<g id="a_node8"><a xlink:title=" ">
<polygon fill="none" stroke="#bfbfbf" points="351.5,-56.5 351.5,-75.5 398.5,-75.5 398.5,-56.5 351.5,-56.5"/>
<text text-anchor="middle" x="375" y="-63.5" font-family="Helvetica,sans-Serif" font-size="10.00">ctype.h</text>
</a>
</g>
</g>
<!-- Node1&#45;&gt;Node8 -->
<g id="edge7" class="edge">
<title>Node1&#45;&gt;Node8</title>
<path fill="none" stroke="midnightblue" d="M300.22,-112.4C315.79,-102.95 336.2,-90.56 351.76,-81.11"/>
<polygon fill="midnightblue" stroke="midnightblue" points="354.01,-83.84 360.74,-75.66 350.38,-77.86 354.01,-83.84"/>
</g>
<!-- Node9 -->
<g id="node9" class="node">
<title>Node9</title>
<g id="a_node9"><a xlink:title=" ">
<polygon fill="none" stroke="#bfbfbf" points="416.5,-56.5 416.5,-75.5 463.5,-75.5 463.5,-56.5 416.5,-56.5"/>
<text text-anchor="middle" x="440" y="-63.5" font-family="Helvetica,sans-Serif" font-size="10.00">limits.h</text>
</a>
</g>
</g>
<!-- Node1&#45;&gt;Node9 -->
<g id="edge8" class="edge">
<title>Node1&#45;&gt;Node9</title>
<path fill="none" stroke="midnightblue" d="M315.63,-112.4C343.34,-102.28 380.31,-88.79 406.72,-79.15"/>
<polygon fill="midnightblue" stroke="midnightblue" points="408.09,-82.37 416.28,-75.66 405.69,-75.8 408.09,-82.37"/>
</g>
<!-- Node3 -->
<g id="node3" class="node">
<title>Node3</title>
<g id="a_node3"><a xlink:title=" ">
<polygon fill="none" stroke="#bfbfbf" points="8.5,-0.5 8.5,-19.5 61.5,-19.5 61.5,-0.5 8.5,-0.5"/>
<text text-anchor="middle" x="35" y="-7.5" font-family="Helvetica,sans-Serif" font-size="10.00">gu_util.h</text>
</a>
</g>
</g>
<!-- Node2&#45;&gt;Node3 -->
<g id="edge2" class="edge">
<title>Node2&#45;&gt;Node3</title>
<path fill="none" stroke="midnightblue" d="M63.39,-56.08C58.63,-48.53 51.68,-37.49 45.85,-28.23"/>
<polygon fill="midnightblue" stroke="midnightblue" points="48.8,-26.35 40.51,-19.75 42.88,-30.08 48.8,-26.35"/>
</g>
<!-- Node4 -->
<g id="node4" class="node">
<title>Node4</title>
<g id="a_node4"><a xlink:title=" ">
<polygon fill="none" stroke="#bfbfbf" points="80,-0.5 80,-19.5 128,-19.5 128,-0.5 80,-0.5"/>
<text text-anchor="middle" x="104" y="-7.5" font-family="Helvetica,sans-Serif" font-size="10.00">stdint.h</text>
</a>
</g>
</g>
<!-- Node2&#45;&gt;Node4 -->
<g id="edge3" class="edge">
<title>Node2&#45;&gt;Node4</title>
<path fill="none" stroke="midnightblue" d="M74.78,-56.08C79.67,-48.53 86.83,-37.49 92.83,-28.23"/>
<polygon fill="midnightblue" stroke="midnightblue" points="95.83,-30.05 98.33,-19.75 89.95,-26.24 95.83,-30.05"/>
</g>
</g>
</svg>
