<?xml version="1.0" encoding="UTF-8" standalone="no"?>
<!DOCTYPE svg PUBLIC "-//W3C//DTD SVG 1.1//EN"
 "http://www.w3.org/Graphics/SVG/1.1/DTD/svg11.dtd">
<!-- Generated by graphviz version 2.49.0 (20210830.1337)
 -->
<!-- Title: typeClassDefs/wb_head_joint_sensors.h Pages: 1 -->
<svg width="612pt" height="296pt"
 viewBox="0.00 0.00 611.50 296.00" xmlns="http://www.w3.org/2000/svg" xmlns:xlink="http://www.w3.org/1999/xlink">
<g id="graph0" class="graph" transform="scale(1 1) rotate(0) translate(4 292)">
<title>typeClassDefs/wb_head_joint_sensors.h</title>
<!-- Node1 -->
<g id="node1" class="node">
<title>Node1</title>
<g id="a_node1"><a xlink:title=" ">
<polygon fill="#bfbfbf" stroke="black" points="308.5,-257.5 308.5,-287.5 430.5,-287.5 430.5,-257.5 308.5,-257.5"/>
<text text-anchor="start" x="316.5" y="-275.5" font-family="Helvetica,sans-Serif" font-size="10.00">typeClassDefs/wb_head</text>
<text text-anchor="middle" x="369.5" y="-264.5" font-family="Helvetica,sans-Serif" font-size="10.00">_joint_sensors.h</text>
</a>
</g>
</g>
<!-- Node2 -->
<g id="node2" class="node">
<title>Node2</title>
<g id="a_node2"><a xlink:href="guwhiteboard__c__types_8h.html" target="_top" xlink:title=" ">
<polygon fill="none" stroke="black" points="140,-196 140,-215 261,-215 261,-196 140,-196"/>
<text text-anchor="middle" x="200.5" y="-203" font-family="Helvetica,sans-Serif" font-size="10.00">guwhiteboard_c_types.h</text>
</a>
</g>
</g>
<!-- Node1&#45;&gt;Node2 -->
<g id="edge1" class="edge">
<title>Node1&#45;&gt;Node2</title>
<path fill="none" stroke="midnightblue" d="M323.44,-253.78C290.67,-241.18 248.1,-224.81 222.62,-215.01"/>
<polygon fill="midnightblue" stroke="midnightblue" points="322.24,-257.07 332.83,-257.4 324.75,-250.54 322.24,-257.07"/>
</g>
<!-- Node5 -->
<g id="node5" class="node">
<title>Node5</title>
<g id="a_node5"><a xlink:href="_head_joint_sensors_8hpp.html" target="_top" xlink:title=" ">
<polygon fill="none" stroke="black" points="279,-196 279,-215 460,-215 460,-196 279,-196"/>
<text text-anchor="middle" x="369.5" y="-203" font-family="Helvetica,sans-Serif" font-size="10.00">typeClassDefs/HeadJointSensors.hpp</text>
</a>
</g>
</g>
<!-- Node1&#45;&gt;Node5 -->
<g id="edge4" class="edge">
<title>Node1&#45;&gt;Node5</title>
<path fill="none" stroke="midnightblue" d="M369.5,-247.25C369.5,-236.02 369.5,-223.38 369.5,-215.19"/>
<polygon fill="midnightblue" stroke="midnightblue" points="366,-247.4 369.5,-257.4 373,-247.4 366,-247.4"/>
</g>
<!-- Node13 -->
<g id="node13" class="node">
<title>Node13</title>
<g id="a_node13"><a xlink:href="wb__head__joint__sensors_8c.html" target="_top" xlink:title=" ">
<polygon fill="none" stroke="black" points="478.5,-190.5 478.5,-220.5 600.5,-220.5 600.5,-190.5 478.5,-190.5"/>
<text text-anchor="start" x="486.5" y="-208.5" font-family="Helvetica,sans-Serif" font-size="10.00">typeClassDefs/wb_head</text>
<text text-anchor="middle" x="539.5" y="-197.5" font-family="Helvetica,sans-Serif" font-size="10.00">_joint_sensors.c</text>
</a>
</g>
</g>
<!-- Node1&#45;&gt;Node13 -->
<g id="edge12" class="edge">
<title>Node1&#45;&gt;Node13</title>
<path fill="none" stroke="midnightblue" d="M415.74,-253.82C443.07,-243.37 477.19,-230.32 502.68,-220.58"/>
<polygon fill="midnightblue" stroke="midnightblue" points="414.48,-250.56 406.39,-257.4 416.98,-257.09 414.48,-250.56"/>
</g>
<!-- Node3 -->
<g id="node3" class="node">
<title>Node3</title>
<g id="a_node3"><a xlink:href="guwhiteboarddeserialiser_8c.html" target="_top" xlink:title=" ">
<polygon fill="none" stroke="black" points="0,-134.5 0,-153.5 131,-153.5 131,-134.5 0,-134.5"/>
<text text-anchor="middle" x="65.5" y="-141.5" font-family="Helvetica,sans-Serif" font-size="10.00">guwhiteboarddeserialiser.c</text>
</a>
</g>
</g>
<!-- Node2&#45;&gt;Node3 -->
<g id="edge2" class="edge">
<title>Node2&#45;&gt;Node3</title>
<path fill="none" stroke="midnightblue" d="M171.75,-191.83C145.54,-180.28 107.55,-163.53 84.81,-153.51"/>
<polygon fill="midnightblue" stroke="midnightblue" points="170.6,-195.14 181.16,-195.98 173.42,-188.74 170.6,-195.14"/>
</g>
<!-- Node4 -->
<g id="node4" class="node">
<title>Node4</title>
<g id="a_node4"><a xlink:href="guwhiteboardserialiser_8c.html" target="_top" xlink:title=" ">
<polygon fill="none" stroke="black" points="149,-134.5 149,-153.5 270,-153.5 270,-134.5 149,-134.5"/>
<text text-anchor="middle" x="209.5" y="-141.5" font-family="Helvetica,sans-Serif" font-size="10.00">guwhiteboardserialiser.c</text>
</a>
</g>
</g>
<!-- Node2&#45;&gt;Node4 -->
<g id="edge3" class="edge">
<title>Node2&#45;&gt;Node4</title>
<path fill="none" stroke="midnightblue" d="M203.33,-185.82C204.96,-175 206.94,-161.9 208.21,-153.51"/>
<polygon fill="midnightblue" stroke="midnightblue" points="199.82,-185.56 201.79,-195.98 206.75,-186.61 199.82,-185.56"/>
</g>
<!-- Node6 -->
<g id="node6" class="node">
<title>Node6</title>
<g id="a_node6"><a xlink:href="guwhiteboardposter_8h.html" target="_top" xlink:title=" ">
<polygon fill="none" stroke="black" points="306,-134.5 306,-153.5 415,-153.5 415,-134.5 306,-134.5"/>
<text text-anchor="middle" x="360.5" y="-141.5" font-family="Helvetica,sans-Serif" font-size="10.00">guwhiteboardposter.h</text>
</a>
</g>
</g>
<!-- Node5&#45;&gt;Node6 -->
<g id="edge5" class="edge">
<title>Node5&#45;&gt;Node6</title>
<path fill="none" stroke="midnightblue" d="M366.67,-185.82C365.04,-175 363.06,-161.9 361.79,-153.51"/>
<polygon fill="midnightblue" stroke="midnightblue" points="363.25,-186.61 368.21,-195.98 370.18,-185.56 363.25,-186.61"/>
</g>
<!-- Node12 -->
<g id="node12" class="node">
<title>Node12</title>
<g id="a_node12"><a xlink:href="_head_joint_sensors_8h.html" target="_top" xlink:title=" ">
<polygon fill="none" stroke="black" points="433.5,-134.5 433.5,-153.5 603.5,-153.5 603.5,-134.5 433.5,-134.5"/>
<text text-anchor="middle" x="518.5" y="-141.5" font-family="Helvetica,sans-Serif" font-size="10.00">typeClassDefs/HeadJointSensors.h</text>
</a>
</g>
</g>
<!-- Node5&#45;&gt;Node12 -->
<g id="edge11" class="edge">
<title>Node5&#45;&gt;Node12</title>
<path fill="none" stroke="midnightblue" d="M400.47,-192.13C429.42,-180.57 471.87,-163.62 497.19,-153.51"/>
<polygon fill="midnightblue" stroke="midnightblue" points="398.84,-189.02 390.85,-195.98 401.43,-195.52 398.84,-189.02"/>
</g>
<!-- Node7 -->
<g id="node7" class="node">
<title>Node7</title>
<g id="a_node7"><a xlink:href="_simple_whiteboard_test_8h.html" target="_top" xlink:title=" ">
<polygon fill="none" stroke="black" points="161,-67.5 161,-97.5 286,-97.5 286,-67.5 161,-67.5"/>
<text text-anchor="start" x="169" y="-85.5" font-family="Helvetica,sans-Serif" font-size="10.00">SimpleWhiteboardTest</text>
<text text-anchor="middle" x="223.5" y="-74.5" font-family="Helvetica,sans-Serif" font-size="10.00">/SimpleWhiteboardTest.h</text>
</a>
</g>
</g>
<!-- Node6&#45;&gt;Node7 -->
<g id="edge6" class="edge">
<title>Node6&#45;&gt;Node7</title>
<path fill="none" stroke="midnightblue" d="M331.63,-130.46C309.44,-120.82 278.79,-107.51 255.79,-97.52"/>
<polygon fill="midnightblue" stroke="midnightblue" points="330.3,-133.7 340.87,-134.48 333.09,-127.28 330.3,-133.7"/>
</g>
<!-- Node9 -->
<g id="node9" class="node">
<title>Node9</title>
<g id="a_node9"><a xlink:href="guwhiteboardgetter_8h.html" target="_top" xlink:title=" ">
<polygon fill="none" stroke="black" points="307,-73 307,-92 414,-92 414,-73 307,-73"/>
<text text-anchor="middle" x="360.5" y="-80" font-family="Helvetica,sans-Serif" font-size="10.00">guwhiteboardgetter.h</text>
</a>
</g>
</g>
<!-- Node6&#45;&gt;Node9 -->
<g id="edge8" class="edge">
<title>Node6&#45;&gt;Node9</title>
<path fill="none" stroke="midnightblue" d="M360.5,-124.32C360.5,-113.5 360.5,-100.4 360.5,-92.01"/>
<polygon fill="midnightblue" stroke="midnightblue" points="357,-124.48 360.5,-134.48 364,-124.48 357,-124.48"/>
</g>
<!-- Node11 -->
<g id="node11" class="node">
<title>Node11</title>
<g id="a_node11"><a xlink:href="guwhiteboardposter_8cpp.html" target="_top" xlink:title=" ">
<polygon fill="none" stroke="black" points="432,-73 432,-92 551,-92 551,-73 432,-73"/>
<text text-anchor="middle" x="491.5" y="-80" font-family="Helvetica,sans-Serif" font-size="10.00">guwhiteboardposter.cpp</text>
</a>
</g>
</g>
<!-- Node6&#45;&gt;Node11 -->
<g id="edge10" class="edge">
<title>Node6&#45;&gt;Node11</title>
<path fill="none" stroke="midnightblue" d="M388.4,-130.33C413.83,-118.78 450.7,-102.03 472.77,-92.01"/>
<polygon fill="midnightblue" stroke="midnightblue" points="386.93,-127.15 379.27,-134.48 389.82,-133.53 386.93,-127.15"/>
</g>
<!-- Node8 -->
<g id="node8" class="node">
<title>Node8</title>
<g id="a_node8"><a xlink:href="_simple_whiteboard_test_8mm.html" target="_top" xlink:title=" ">
<polygon fill="none" stroke="black" points="150,-0.5 150,-30.5 287,-30.5 287,-0.5 150,-0.5"/>
<text text-anchor="start" x="158" y="-18.5" font-family="Helvetica,sans-Serif" font-size="10.00">SimpleWhiteboardTest</text>
<text text-anchor="middle" x="218.5" y="-7.5" font-family="Helvetica,sans-Serif" font-size="10.00">/SimpleWhiteboardTest.mm</text>
</a>
</g>
</g>
<!-- Node7&#45;&gt;Node8 -->
<g id="edge7" class="edge">
<title>Node7&#45;&gt;Node8</title>
<path fill="none" stroke="midnightblue" d="M221.65,-57.4C220.95,-48.37 220.19,-38.41 219.58,-30.58"/>
<polygon fill="midnightblue" stroke="midnightblue" points="218.16,-57.69 222.42,-67.4 225.14,-57.16 218.16,-57.69"/>
</g>
<!-- Node10 -->
<g id="node10" class="node">
<title>Node10</title>
<g id="a_node10"><a xlink:href="guwhiteboardgetter_8cpp.html" target="_top" xlink:title=" ">
<polygon fill="none" stroke="black" points="305,-6 305,-25 422,-25 422,-6 305,-6"/>
<text text-anchor="middle" x="363.5" y="-13" font-family="Helvetica,sans-Serif" font-size="10.00">guwhiteboardgetter.cpp</text>
</a>
</g>
</g>
<!-- Node9&#45;&gt;Node10 -->
<g id="edge9" class="edge">
<title>Node9&#45;&gt;Node10</title>
<path fill="none" stroke="midnightblue" d="M361.38,-62.54C361.95,-50.17 362.66,-34.62 363.1,-25.13"/>
<polygon fill="midnightblue" stroke="midnightblue" points="357.87,-62.58 360.9,-72.73 364.86,-62.91 357.87,-62.58"/>
</g>
</g>
</svg>
