<?xml version="1.0" encoding="UTF-8" standalone="no"?>
<!DOCTYPE svg PUBLIC "-//W3C//DTD SVG 1.1//EN"
 "http://www.w3.org/Graphics/SVG/1.1/DTD/svg11.dtd">
<!-- Generated by graphviz version 2.49.0 (20210830.1337)
 -->
<!-- Title: typeClassDefs/wb_vision_lines.h Pages: 1 -->
<svg width="403pt" height="274pt"
 viewBox="0.00 0.00 402.50 274.00" xmlns="http://www.w3.org/2000/svg" xmlns:xlink="http://www.w3.org/1999/xlink">
<g id="graph0" class="graph" transform="scale(1 1) rotate(0) translate(4 270)">
<title>typeClassDefs/wb_vision_lines.h</title>
<!-- Node1 -->
<g id="node1" class="node">
<title>Node1</title>
<g id="a_node1"><a xlink:title=" ">
<polygon fill="#bfbfbf" stroke="black" points="130.5,-235.5 130.5,-265.5 256.5,-265.5 256.5,-235.5 130.5,-235.5"/>
<text text-anchor="start" x="138.5" y="-253.5" font-family="Helvetica,sans-Serif" font-size="10.00">typeClassDefs/wb_vision</text>
<text text-anchor="middle" x="193.5" y="-242.5" font-family="Helvetica,sans-Serif" font-size="10.00">_lines.h</text>
</a>
</g>
</g>
<!-- Node2 -->
<g id="node2" class="node">
<title>Node2</title>
<g id="a_node2"><a xlink:title=" ">
<polygon fill="none" stroke="#bfbfbf" points="0,-0.5 0,-19.5 53,-19.5 53,-0.5 0,-0.5"/>
<text text-anchor="middle" x="26.5" y="-7.5" font-family="Helvetica,sans-Serif" font-size="10.00">gu_util.h</text>
</a>
</g>
</g>
<!-- Node1&#45;&gt;Node2 -->
<g id="edge1" class="edge">
<title>Node1&#45;&gt;Node2</title>
<path fill="none" stroke="midnightblue" d="M176.9,-235.26C166.01,-225.55 151.75,-212.12 140.5,-199 134.51,-192.02 56.38,-77.57 55.5,-76 46.92,-60.69 38.94,-42.36 33.53,-29.07"/>
<polygon fill="midnightblue" stroke="midnightblue" points="36.73,-27.65 29.78,-19.65 30.22,-30.24 36.73,-27.65"/>
</g>
<!-- Node3 -->
<g id="node3" class="node">
<title>Node3</title>
<g id="a_node3"><a xlink:title=" ">
<polygon fill="none" stroke="#bfbfbf" points="346.5,-0.5 346.5,-19.5 394.5,-19.5 394.5,-0.5 346.5,-0.5"/>
<text text-anchor="middle" x="370.5" y="-7.5" font-family="Helvetica,sans-Serif" font-size="10.00">stdint.h</text>
</a>
</g>
</g>
<!-- Node1&#45;&gt;Node3 -->
<g id="edge2" class="edge">
<title>Node1&#45;&gt;Node3</title>
<path fill="none" stroke="midnightblue" d="M209.91,-235.1C220.72,-225.32 234.96,-211.87 246.5,-199 292.44,-147.78 304.98,-134.92 340.5,-76 349.61,-60.88 357.85,-42.53 363.38,-29.19"/>
<polygon fill="midnightblue" stroke="midnightblue" points="366.7,-30.3 367.19,-19.72 360.21,-27.69 366.7,-30.3"/>
</g>
<!-- Node4 -->
<g id="node4" class="node">
<title>Node4</title>
<g id="a_node4"><a xlink:href="wb__vision__line_8h.html" target="_top" xlink:title=" ">
<polygon fill="none" stroke="black" points="149.5,-179.5 149.5,-198.5 237.5,-198.5 237.5,-179.5 149.5,-179.5"/>
<text text-anchor="middle" x="193.5" y="-186.5" font-family="Helvetica,sans-Serif" font-size="10.00">wb_vision_line.h</text>
</a>
</g>
</g>
<!-- Node1&#45;&gt;Node4 -->
<g id="edge3" class="edge">
<title>Node1&#45;&gt;Node4</title>
<path fill="none" stroke="midnightblue" d="M193.5,-235.4C193.5,-227.47 193.5,-217.46 193.5,-208.86"/>
<polygon fill="midnightblue" stroke="midnightblue" points="197,-208.66 193.5,-198.66 190,-208.66 197,-208.66"/>
</g>
<!-- Node4&#45;&gt;Node2 -->
<g id="edge4" class="edge">
<title>Node4&#45;&gt;Node2</title>
<path fill="none" stroke="midnightblue" d="M179.63,-179.27C166.72,-170.82 147.31,-157.22 132.5,-143 93.79,-105.84 56.38,-54.54 38.1,-28.18"/>
<polygon fill="midnightblue" stroke="midnightblue" points="40.81,-25.93 32.27,-19.66 35.03,-29.89 40.81,-25.93"/>
</g>
<!-- Node4&#45;&gt;Node3 -->
<g id="edge5" class="edge">
<title>Node4&#45;&gt;Node3</title>
<path fill="none" stroke="midnightblue" d="M206.74,-179.45C219.54,-170.91 239.18,-157.06 254.5,-143 295.71,-105.16 337.4,-53.8 357.74,-27.71"/>
<polygon fill="midnightblue" stroke="midnightblue" points="360.66,-29.65 364.01,-19.59 355.13,-25.37 360.66,-29.65"/>
</g>
<!-- Node5 -->
<g id="node5" class="node">
<title>Node5</title>
<g id="a_node5"><a xlink:href="wb__pixel__coordinate__line_8h.html" target="_top" xlink:title=" ">
<polygon fill="none" stroke="black" points="141.5,-112.5 141.5,-142.5 245.5,-142.5 245.5,-112.5 141.5,-112.5"/>
<text text-anchor="start" x="149.5" y="-130.5" font-family="Helvetica,sans-Serif" font-size="10.00">wb_pixel_coordinate</text>
<text text-anchor="middle" x="193.5" y="-119.5" font-family="Helvetica,sans-Serif" font-size="10.00">_line.h</text>
</a>
</g>
</g>
<!-- Node4&#45;&gt;Node5 -->
<g id="edge6" class="edge">
<title>Node4&#45;&gt;Node5</title>
<path fill="none" stroke="midnightblue" d="M193.5,-179.48C193.5,-172.47 193.5,-162.19 193.5,-152.7"/>
<polygon fill="midnightblue" stroke="midnightblue" points="197,-152.52 193.5,-142.52 190,-152.52 197,-152.52"/>
</g>
<!-- Node5&#45;&gt;Node2 -->
<g id="edge7" class="edge">
<title>Node5&#45;&gt;Node2</title>
<path fill="none" stroke="midnightblue" d="M171.09,-112.46C155.38,-102.51 133.97,-88.71 115.5,-76 91.34,-59.38 64.2,-39.36 46.32,-25.97"/>
<polygon fill="midnightblue" stroke="midnightblue" points="47.97,-22.83 37.87,-19.62 43.77,-28.43 47.97,-22.83"/>
</g>
<!-- Node5&#45;&gt;Node3 -->
<g id="edge8" class="edge">
<title>Node5&#45;&gt;Node3</title>
<path fill="none" stroke="midnightblue" d="M216.69,-112.36C232.97,-102.36 255.19,-88.55 274.5,-76 300.72,-58.96 330.48,-38.65 349.82,-25.33"/>
<polygon fill="midnightblue" stroke="midnightblue" points="351.93,-28.13 358.17,-19.56 347.96,-22.37 351.93,-28.13"/>
</g>
<!-- Node6 -->
<g id="node6" class="node">
<title>Node6</title>
<g id="a_node6"><a xlink:href="wb__pixel__coordinate_8h.html" target="_top" xlink:title=" ">
<polygon fill="none" stroke="black" points="137.5,-56.5 137.5,-75.5 249.5,-75.5 249.5,-56.5 137.5,-56.5"/>
<text text-anchor="middle" x="193.5" y="-63.5" font-family="Helvetica,sans-Serif" font-size="10.00">wb_pixel_coordinate.h</text>
</a>
</g>
</g>
<!-- Node5&#45;&gt;Node6 -->
<g id="edge9" class="edge">
<title>Node5&#45;&gt;Node6</title>
<path fill="none" stroke="midnightblue" d="M193.5,-112.4C193.5,-104.47 193.5,-94.46 193.5,-85.86"/>
<polygon fill="midnightblue" stroke="midnightblue" points="197,-85.66 193.5,-75.66 190,-85.66 197,-85.66"/>
</g>
<!-- Node7 -->
<g id="node7" class="node">
<title>Node7</title>
<g id="a_node7"><a xlink:title=" ">
<polygon fill="none" stroke="#bfbfbf" points="71.5,-0.5 71.5,-19.5 161.5,-19.5 161.5,-0.5 71.5,-0.5"/>
<text text-anchor="middle" x="116.5" y="-7.5" font-family="Helvetica,sans-Serif" font-size="10.00">guunits/guunits.h</text>
</a>
</g>
</g>
<!-- Node5&#45;&gt;Node7 -->
<g id="edge14" class="edge">
<title>Node5&#45;&gt;Node7</title>
<path fill="none" stroke="midnightblue" d="M167.15,-112.35C153.5,-103.66 137.78,-91.26 128.5,-76 120.02,-62.06 117.26,-43.55 116.48,-29.85"/>
<polygon fill="midnightblue" stroke="midnightblue" points="119.97,-29.58 116.21,-19.68 112.98,-29.77 119.97,-29.58"/>
</g>
<!-- Node8 -->
<g id="node8" class="node">
<title>Node8</title>
<g id="a_node8"><a xlink:title=" ">
<polygon fill="none" stroke="#bfbfbf" points="180,-0.5 180,-19.5 329,-19.5 329,-0.5 180,-0.5"/>
<text text-anchor="middle" x="254.5" y="-7.5" font-family="Helvetica,sans-Serif" font-size="10.00">gucoordinates/gucoordinates.h</text>
</a>
</g>
</g>
<!-- Node5&#45;&gt;Node8 -->
<g id="edge15" class="edge">
<title>Node5&#45;&gt;Node8</title>
<path fill="none" stroke="midnightblue" d="M221.98,-112.35C235.71,-103.86 250.84,-91.66 258.5,-76 265.57,-61.56 263.55,-43.11 260.36,-29.56"/>
<polygon fill="midnightblue" stroke="midnightblue" points="263.62,-28.22 257.58,-19.52 256.88,-30.09 263.62,-28.22"/>
</g>
<!-- Node6&#45;&gt;Node2 -->
<g id="edge10" class="edge">
<title>Node6&#45;&gt;Node2</title>
<path fill="none" stroke="midnightblue" d="M167.04,-56.44C138.82,-47.32 93.96,-32.81 62.53,-22.65"/>
<polygon fill="midnightblue" stroke="midnightblue" points="63.43,-19.26 52.84,-19.52 61.28,-25.92 63.43,-19.26"/>
</g>
<!-- Node6&#45;&gt;Node3 -->
<g id="edge11" class="edge">
<title>Node6&#45;&gt;Node3</title>
<path fill="none" stroke="midnightblue" d="M221.55,-56.44C252.73,-46.93 303.1,-31.56 336.5,-21.37"/>
<polygon fill="midnightblue" stroke="midnightblue" points="337.74,-24.65 346.28,-18.39 335.7,-17.96 337.74,-24.65"/>
</g>
<!-- Node6&#45;&gt;Node7 -->
<g id="edge12" class="edge">
<title>Node6&#45;&gt;Node7</title>
<path fill="none" stroke="midnightblue" d="M181.13,-56.32C169.34,-48.06 151.37,-35.45 137.36,-25.63"/>
<polygon fill="midnightblue" stroke="midnightblue" points="139.04,-22.53 128.84,-19.65 135.02,-28.26 139.04,-22.53"/>
</g>
<!-- Node6&#45;&gt;Node8 -->
<g id="edge13" class="edge">
<title>Node6&#45;&gt;Node8</title>
<path fill="none" stroke="midnightblue" d="M203.3,-56.32C212.32,-48.34 225.91,-36.31 236.82,-26.65"/>
<polygon fill="midnightblue" stroke="midnightblue" points="239.35,-29.08 244.52,-19.83 234.71,-23.84 239.35,-29.08"/>
</g>
</g>
</svg>
