<?xml version="1.0" encoding="UTF-8" standalone="no"?>
<!DOCTYPE svg PUBLIC "-//W3C//DTD SVG 1.1//EN"
 "http://www.w3.org/Graphics/SVG/1.1/DTD/svg11.dtd">
<!-- Generated by graphviz version 2.49.0 (20210830.1337)
 -->
<!-- Title: typeClassDefs/wb_machine_filtered_vision.c Pages: 1 -->
<svg width="446pt" height="162pt"
 viewBox="0.00 0.00 446.00 162.00" xmlns="http://www.w3.org/2000/svg" xmlns:xlink="http://www.w3.org/1999/xlink">
<g id="graph0" class="graph" transform="scale(1 1) rotate(0) translate(4 158)">
<title>typeClassDefs/wb_machine_filtered_vision.c</title>
<!-- Node1 -->
<g id="node1" class="node">
<title>Node1</title>
<g id="a_node1"><a xlink:title=" ">
<polygon fill="#bfbfbf" stroke="black" points="183,-123.5 183,-153.5 320,-153.5 320,-123.5 183,-123.5"/>
<text text-anchor="start" x="191" y="-141.5" font-family="Helvetica,sans-Serif" font-size="10.00">typeClassDefs/wb_machine</text>
<text text-anchor="middle" x="251.5" y="-130.5" font-family="Helvetica,sans-Serif" font-size="10.00">_filtered_vision.c</text>
</a>
</g>
</g>
<!-- Node2 -->
<g id="node2" class="node">
<title>Node2</title>
<g id="a_node2"><a xlink:href="wb__machine__filtered__vision_8h.html" target="_top" xlink:title=" ">
<polygon fill="none" stroke="black" points="8,-56.5 8,-86.5 113,-86.5 113,-56.5 8,-56.5"/>
<text text-anchor="start" x="16" y="-74.5" font-family="Helvetica,sans-Serif" font-size="10.00">wb_machine_filtered</text>
<text text-anchor="middle" x="60.5" y="-63.5" font-family="Helvetica,sans-Serif" font-size="10.00">_vision.h</text>
</a>
</g>
</g>
<!-- Node1&#45;&gt;Node2 -->
<g id="edge1" class="edge">
<title>Node1&#45;&gt;Node2</title>
<path fill="none" stroke="midnightblue" d="M210.06,-123.4C181.15,-113.56 142.39,-100.37 111.57,-89.88"/>
<polygon fill="midnightblue" stroke="midnightblue" points="112.46,-86.48 101.86,-86.58 110.2,-93.11 112.46,-86.48"/>
</g>
<!-- Node5 -->
<g id="node5" class="node">
<title>Node5</title>
<g id="a_node5"><a xlink:title=" ">
<polygon fill="none" stroke="#bfbfbf" points="131,-62 131,-81 176,-81 176,-62 131,-62"/>
<text text-anchor="middle" x="153.5" y="-69" font-family="Helvetica,sans-Serif" font-size="10.00">stdio.h</text>
</a>
</g>
</g>
<!-- Node1&#45;&gt;Node5 -->
<g id="edge4" class="edge">
<title>Node1&#45;&gt;Node5</title>
<path fill="none" stroke="midnightblue" d="M230.24,-123.4C213.8,-112.5 191.16,-97.48 174.73,-86.58"/>
<polygon fill="midnightblue" stroke="midnightblue" points="176.59,-83.62 166.33,-81.01 172.72,-89.45 176.59,-83.62"/>
</g>
<!-- Node6 -->
<g id="node6" class="node">
<title>Node6</title>
<g id="a_node6"><a xlink:title=" ">
<polygon fill="none" stroke="#bfbfbf" points="194.5,-62 194.5,-81 242.5,-81 242.5,-62 194.5,-62"/>
<text text-anchor="middle" x="218.5" y="-69" font-family="Helvetica,sans-Serif" font-size="10.00">string.h</text>
</a>
</g>
</g>
<!-- Node1&#45;&gt;Node6 -->
<g id="edge5" class="edge">
<title>Node1&#45;&gt;Node6</title>
<path fill="none" stroke="midnightblue" d="M244.34,-123.4C239.4,-113.66 232.79,-100.65 227.49,-90.21"/>
<polygon fill="midnightblue" stroke="midnightblue" points="230.56,-88.53 222.91,-81.19 224.32,-91.7 230.56,-88.53"/>
</g>
<!-- Node7 -->
<g id="node7" class="node">
<title>Node7</title>
<g id="a_node7"><a xlink:title=" ">
<polygon fill="none" stroke="#bfbfbf" points="261,-62 261,-81 308,-81 308,-62 261,-62"/>
<text text-anchor="middle" x="284.5" y="-69" font-family="Helvetica,sans-Serif" font-size="10.00">stdlib.h</text>
</a>
</g>
</g>
<!-- Node1&#45;&gt;Node7 -->
<g id="edge6" class="edge">
<title>Node1&#45;&gt;Node7</title>
<path fill="none" stroke="midnightblue" d="M258.66,-123.4C263.6,-113.66 270.21,-100.65 275.51,-90.21"/>
<polygon fill="midnightblue" stroke="midnightblue" points="278.68,-91.7 280.09,-81.19 272.44,-88.53 278.68,-91.7"/>
</g>
<!-- Node8 -->
<g id="node8" class="node">
<title>Node8</title>
<g id="a_node8"><a xlink:title=" ">
<polygon fill="none" stroke="#bfbfbf" points="326,-62 326,-81 373,-81 373,-62 326,-62"/>
<text text-anchor="middle" x="349.5" y="-69" font-family="Helvetica,sans-Serif" font-size="10.00">ctype.h</text>
</a>
</g>
</g>
<!-- Node1&#45;&gt;Node8 -->
<g id="edge7" class="edge">
<title>Node1&#45;&gt;Node8</title>
<path fill="none" stroke="midnightblue" d="M272.76,-123.4C289.2,-112.5 311.84,-97.48 328.27,-86.58"/>
<polygon fill="midnightblue" stroke="midnightblue" points="330.28,-89.45 336.67,-81.01 326.41,-83.62 330.28,-89.45"/>
</g>
<!-- Node9 -->
<g id="node9" class="node">
<title>Node9</title>
<g id="a_node9"><a xlink:title=" ">
<polygon fill="none" stroke="#bfbfbf" points="391,-62 391,-81 438,-81 438,-62 391,-62"/>
<text text-anchor="middle" x="414.5" y="-69" font-family="Helvetica,sans-Serif" font-size="10.00">limits.h</text>
</a>
</g>
</g>
<!-- Node1&#45;&gt;Node9 -->
<g id="edge8" class="edge">
<title>Node1&#45;&gt;Node9</title>
<path fill="none" stroke="midnightblue" d="M289.57,-123.49C315.83,-113.66 351.48,-100 382.5,-87 383.87,-86.43 385.27,-85.83 386.68,-85.22"/>
<polygon fill="midnightblue" stroke="midnightblue" points="388.24,-88.36 395.97,-81.12 385.4,-81.96 388.24,-88.36"/>
</g>
<!-- Node3 -->
<g id="node3" class="node">
<title>Node3</title>
<g id="a_node3"><a xlink:title=" ">
<polygon fill="none" stroke="#bfbfbf" points="0,-0.5 0,-19.5 53,-19.5 53,-0.5 0,-0.5"/>
<text text-anchor="middle" x="26.5" y="-7.5" font-family="Helvetica,sans-Serif" font-size="10.00">gu_util.h</text>
</a>
</g>
</g>
<!-- Node2&#45;&gt;Node3 -->
<g id="edge2" class="edge">
<title>Node2&#45;&gt;Node3</title>
<path fill="none" stroke="midnightblue" d="M52.44,-56.4C47.65,-48.02 41.54,-37.33 36.46,-28.42"/>
<polygon fill="midnightblue" stroke="midnightblue" points="39.45,-26.6 31.45,-19.66 33.37,-30.08 39.45,-26.6"/>
</g>
<!-- Node4 -->
<g id="node4" class="node">
<title>Node4</title>
<g id="a_node4"><a xlink:title=" ">
<polygon fill="none" stroke="#bfbfbf" points="71.5,-0.5 71.5,-19.5 119.5,-19.5 119.5,-0.5 71.5,-0.5"/>
<text text-anchor="middle" x="95.5" y="-7.5" font-family="Helvetica,sans-Serif" font-size="10.00">stdint.h</text>
</a>
</g>
</g>
<!-- Node2&#45;&gt;Node4 -->
<g id="edge3" class="edge">
<title>Node2&#45;&gt;Node4</title>
<path fill="none" stroke="midnightblue" d="M68.79,-56.4C73.72,-48.02 80.01,-37.33 85.25,-28.42"/>
<polygon fill="midnightblue" stroke="midnightblue" points="88.35,-30.05 90.41,-19.66 82.32,-26.5 88.35,-30.05"/>
</g>
</g>
</svg>
