<?xml version="1.0" encoding="UTF-8" standalone="no"?>
<!DOCTYPE svg PUBLIC "-//W3C//DTD SVG 1.1//EN"
 "http://www.w3.org/Graphics/SVG/1.1/DTD/svg11.dtd">
<!-- Generated by graphviz version 2.49.0 (20210830.1337)
 -->
<!-- Title: typeClassDefs/wb_vision_field_features.c Pages: 1 -->
<svg width="464pt" height="263pt"
 viewBox="0.00 0.00 464.00 263.00" xmlns="http://www.w3.org/2000/svg" xmlns:xlink="http://www.w3.org/1999/xlink">
<g id="graph0" class="graph" transform="scale(1 1) rotate(0) translate(4 259)">
<title>typeClassDefs/wb_vision_field_features.c</title>
<!-- Node1 -->
<g id="node1" class="node">
<title>Node1</title>
<g id="a_node1"><a xlink:title=" ">
<polygon fill="#bfbfbf" stroke="black" points="206.5,-224.5 206.5,-254.5 332.5,-254.5 332.5,-224.5 206.5,-224.5"/>
<text text-anchor="start" x="214.5" y="-242.5" font-family="Helvetica,sans-Serif" font-size="10.00">typeClassDefs/wb_vision</text>
<text text-anchor="middle" x="269.5" y="-231.5" font-family="Helvetica,sans-Serif" font-size="10.00">_field_features.c</text>
</a>
</g>
</g>
<!-- Node2 -->
<g id="node2" class="node">
<title>Node2</title>
<g id="a_node2"><a xlink:href="wb__vision__field__features_8h.html" target="_top" xlink:title=" ">
<polygon fill="none" stroke="black" points="0,-168.5 0,-187.5 131,-187.5 131,-168.5 0,-168.5"/>
<text text-anchor="middle" x="65.5" y="-175.5" font-family="Helvetica,sans-Serif" font-size="10.00">wb_vision_field_features.h</text>
</a>
</g>
</g>
<!-- Node1&#45;&gt;Node2 -->
<g id="edge1" class="edge">
<title>Node1&#45;&gt;Node2</title>
<path fill="none" stroke="midnightblue" d="M221.41,-224.47C185.76,-214.08 137.77,-200.08 104.49,-190.37"/>
<polygon fill="midnightblue" stroke="midnightblue" points="105.24,-186.95 94.66,-187.51 103.28,-193.67 105.24,-186.95"/>
</g>
<!-- Node9 -->
<g id="node9" class="node">
<title>Node9</title>
<g id="a_node9"><a xlink:title=" ">
<polygon fill="none" stroke="#bfbfbf" points="149,-168.5 149,-187.5 194,-187.5 194,-168.5 149,-168.5"/>
<text text-anchor="middle" x="171.5" y="-175.5" font-family="Helvetica,sans-Serif" font-size="10.00">stdio.h</text>
</a>
</g>
</g>
<!-- Node1&#45;&gt;Node9 -->
<g id="edge14" class="edge">
<title>Node1&#45;&gt;Node9</title>
<path fill="none" stroke="midnightblue" d="M246.28,-224.4C230.71,-214.95 210.3,-202.56 194.74,-193.11"/>
<polygon fill="midnightblue" stroke="midnightblue" points="196.12,-189.86 185.76,-187.66 192.49,-195.84 196.12,-189.86"/>
</g>
<!-- Node10 -->
<g id="node10" class="node">
<title>Node10</title>
<g id="a_node10"><a xlink:title=" ">
<polygon fill="none" stroke="#bfbfbf" points="212.5,-168.5 212.5,-187.5 260.5,-187.5 260.5,-168.5 212.5,-168.5"/>
<text text-anchor="middle" x="236.5" y="-175.5" font-family="Helvetica,sans-Serif" font-size="10.00">string.h</text>
</a>
</g>
</g>
<!-- Node1&#45;&gt;Node10 -->
<g id="edge15" class="edge">
<title>Node1&#45;&gt;Node10</title>
<path fill="none" stroke="midnightblue" d="M261.68,-224.4C257.03,-216.02 251.1,-205.33 246.16,-196.42"/>
<polygon fill="midnightblue" stroke="midnightblue" points="249.21,-194.71 241.3,-187.66 243.09,-198.1 249.21,-194.71"/>
</g>
<!-- Node11 -->
<g id="node11" class="node">
<title>Node11</title>
<g id="a_node11"><a xlink:title=" ">
<polygon fill="none" stroke="#bfbfbf" points="279,-168.5 279,-187.5 326,-187.5 326,-168.5 279,-168.5"/>
<text text-anchor="middle" x="302.5" y="-175.5" font-family="Helvetica,sans-Serif" font-size="10.00">stdlib.h</text>
</a>
</g>
</g>
<!-- Node1&#45;&gt;Node11 -->
<g id="edge16" class="edge">
<title>Node1&#45;&gt;Node11</title>
<path fill="none" stroke="midnightblue" d="M277.32,-224.4C281.97,-216.02 287.9,-205.33 292.84,-196.42"/>
<polygon fill="midnightblue" stroke="midnightblue" points="295.91,-198.1 297.7,-187.66 289.79,-194.71 295.91,-198.1"/>
</g>
<!-- Node12 -->
<g id="node12" class="node">
<title>Node12</title>
<g id="a_node12"><a xlink:title=" ">
<polygon fill="none" stroke="#bfbfbf" points="344,-168.5 344,-187.5 391,-187.5 391,-168.5 344,-168.5"/>
<text text-anchor="middle" x="367.5" y="-175.5" font-family="Helvetica,sans-Serif" font-size="10.00">ctype.h</text>
</a>
</g>
</g>
<!-- Node1&#45;&gt;Node12 -->
<g id="edge17" class="edge">
<title>Node1&#45;&gt;Node12</title>
<path fill="none" stroke="midnightblue" d="M292.72,-224.4C308.29,-214.95 328.7,-202.56 344.26,-193.11"/>
<polygon fill="midnightblue" stroke="midnightblue" points="346.51,-195.84 353.24,-187.66 342.88,-189.86 346.51,-195.84"/>
</g>
<!-- Node13 -->
<g id="node13" class="node">
<title>Node13</title>
<g id="a_node13"><a xlink:title=" ">
<polygon fill="none" stroke="#bfbfbf" points="409,-168.5 409,-187.5 456,-187.5 456,-168.5 409,-168.5"/>
<text text-anchor="middle" x="432.5" y="-175.5" font-family="Helvetica,sans-Serif" font-size="10.00">limits.h</text>
</a>
</g>
</g>
<!-- Node1&#45;&gt;Node13 -->
<g id="edge18" class="edge">
<title>Node1&#45;&gt;Node13</title>
<path fill="none" stroke="midnightblue" d="M308.13,-224.4C335.84,-214.28 372.81,-200.79 399.22,-191.15"/>
<polygon fill="midnightblue" stroke="midnightblue" points="400.59,-194.37 408.78,-187.66 398.19,-187.8 400.59,-194.37"/>
</g>
<!-- Node3 -->
<g id="node3" class="node">
<title>Node3</title>
<g id="a_node3"><a xlink:title=" ">
<polygon fill="none" stroke="#bfbfbf" points="44,-0.5 44,-19.5 97,-19.5 97,-0.5 44,-0.5"/>
<text text-anchor="middle" x="70.5" y="-7.5" font-family="Helvetica,sans-Serif" font-size="10.00">gu_util.h</text>
</a>
</g>
</g>
<!-- Node2&#45;&gt;Node3 -->
<g id="edge2" class="edge">
<title>Node2&#45;&gt;Node3</title>
<path fill="none" stroke="midnightblue" d="M61.9,-168.22C58.44,-159.28 53.47,-144.94 51.5,-132 46.43,-98.61 44.8,-89.11 51.5,-56 53.39,-46.65 57.29,-36.83 61.07,-28.75"/>
<polygon fill="midnightblue" stroke="midnightblue" points="64.29,-30.14 65.62,-19.63 58.03,-27.01 64.29,-30.14"/>
</g>
<!-- Node4 -->
<g id="node4" class="node">
<title>Node4</title>
<g id="a_node4"><a xlink:title=" ">
<polygon fill="none" stroke="#bfbfbf" points="115.5,-0.5 115.5,-19.5 163.5,-19.5 163.5,-0.5 115.5,-0.5"/>
<text text-anchor="middle" x="139.5" y="-7.5" font-family="Helvetica,sans-Serif" font-size="10.00">stdint.h</text>
</a>
</g>
</g>
<!-- Node2&#45;&gt;Node4 -->
<g id="edge3" class="edge">
<title>Node2&#45;&gt;Node4</title>
<path fill="none" stroke="midnightblue" d="M69.48,-168.08C81.18,-141.83 115.63,-64.55 131.42,-29.12"/>
<polygon fill="midnightblue" stroke="midnightblue" points="134.81,-30.13 135.68,-19.57 128.41,-27.28 134.81,-30.13"/>
</g>
<!-- Node5 -->
<g id="node5" class="node">
<title>Node5</title>
<g id="a_node5"><a xlink:href="wb__vision__field__feature_8h.html" target="_top" xlink:title=" ">
<polygon fill="none" stroke="black" points="128,-112.5 128,-131.5 253,-131.5 253,-112.5 128,-112.5"/>
<text text-anchor="middle" x="190.5" y="-119.5" font-family="Helvetica,sans-Serif" font-size="10.00">wb_vision_field_feature.h</text>
</a>
</g>
</g>
<!-- Node2&#45;&gt;Node5 -->
<g id="edge4" class="edge">
<title>Node2&#45;&gt;Node5</title>
<path fill="none" stroke="midnightblue" d="M85.31,-168.44C105.79,-159.6 137.98,-145.69 161.36,-135.59"/>
<polygon fill="midnightblue" stroke="midnightblue" points="162.99,-138.7 170.79,-131.52 160.22,-132.27 162.99,-138.7"/>
</g>
<!-- Node5&#45;&gt;Node3 -->
<g id="edge5" class="edge">
<title>Node5&#45;&gt;Node3</title>
<path fill="none" stroke="midnightblue" d="M181.08,-112.37C160.84,-93.81 112.95,-49.91 87.34,-26.44"/>
<polygon fill="midnightblue" stroke="midnightblue" points="89.61,-23.77 79.87,-19.59 84.88,-28.93 89.61,-23.77"/>
</g>
<!-- Node5&#45;&gt;Node4 -->
<g id="edge6" class="edge">
<title>Node5&#45;&gt;Node4</title>
<path fill="none" stroke="midnightblue" d="M183.77,-112.47C177.12,-103.72 167.04,-89.53 160.5,-76 153.24,-60.99 147.62,-42.85 144.03,-29.56"/>
<polygon fill="midnightblue" stroke="midnightblue" points="147.38,-28.52 141.5,-19.7 140.6,-30.26 147.38,-28.52"/>
</g>
<!-- Node6 -->
<g id="node6" class="node">
<title>Node6</title>
<g id="a_node6"><a xlink:href="wb__pixel__coordinate_8h.html" target="_top" xlink:title=" ">
<polygon fill="none" stroke="black" points="169.5,-56.5 169.5,-75.5 281.5,-75.5 281.5,-56.5 169.5,-56.5"/>
<text text-anchor="middle" x="225.5" y="-63.5" font-family="Helvetica,sans-Serif" font-size="10.00">wb_pixel_coordinate.h</text>
</a>
</g>
</g>
<!-- Node5&#45;&gt;Node6 -->
<g id="edge7" class="edge">
<title>Node5&#45;&gt;Node6</title>
<path fill="none" stroke="midnightblue" d="M196.28,-112.08C201.17,-104.53 208.33,-93.49 214.33,-84.23"/>
<polygon fill="midnightblue" stroke="midnightblue" points="217.33,-86.05 219.83,-75.75 211.45,-82.24 217.33,-86.05"/>
</g>
<!-- Node7 -->
<g id="node7" class="node">
<title>Node7</title>
<g id="a_node7"><a xlink:title=" ">
<polygon fill="none" stroke="#bfbfbf" points="181.5,-0.5 181.5,-19.5 271.5,-19.5 271.5,-0.5 181.5,-0.5"/>
<text text-anchor="middle" x="226.5" y="-7.5" font-family="Helvetica,sans-Serif" font-size="10.00">guunits/guunits.h</text>
</a>
</g>
</g>
<!-- Node5&#45;&gt;Node7 -->
<g id="edge12" class="edge">
<title>Node5&#45;&gt;Node7</title>
<path fill="none" stroke="midnightblue" d="M235.2,-112.48C255.73,-106.09 278.2,-95.02 290.5,-76 303.65,-55.66 278.25,-36.43 255.66,-24.23"/>
<polygon fill="midnightblue" stroke="midnightblue" points="257.1,-21.04 246.6,-19.61 253.92,-27.27 257.1,-21.04"/>
</g>
<!-- Node8 -->
<g id="node8" class="node">
<title>Node8</title>
<g id="a_node8"><a xlink:title=" ">
<polygon fill="none" stroke="#bfbfbf" points="290,-0.5 290,-19.5 439,-19.5 439,-0.5 290,-0.5"/>
<text text-anchor="middle" x="364.5" y="-7.5" font-family="Helvetica,sans-Serif" font-size="10.00">gucoordinates/gucoordinates.h</text>
</a>
</g>
</g>
<!-- Node5&#45;&gt;Node8 -->
<g id="edge13" class="edge">
<title>Node5&#45;&gt;Node8</title>
<path fill="none" stroke="midnightblue" d="M223.69,-112.45C247.79,-105.23 280.43,-93.27 305.5,-76 324.62,-62.82 341.88,-42.3 352.72,-27.85"/>
<polygon fill="midnightblue" stroke="midnightblue" points="355.56,-29.9 358.6,-19.76 349.9,-25.79 355.56,-29.9"/>
</g>
<!-- Node6&#45;&gt;Node3 -->
<g id="edge8" class="edge">
<title>Node6&#45;&gt;Node3</title>
<path fill="none" stroke="midnightblue" d="M200.94,-56.44C174.98,-47.4 133.83,-33.06 104.7,-22.92"/>
<polygon fill="midnightblue" stroke="midnightblue" points="105.54,-19.5 94.95,-19.52 103.24,-26.11 105.54,-19.5"/>
</g>
<!-- Node6&#45;&gt;Node4 -->
<g id="edge9" class="edge">
<title>Node6&#45;&gt;Node4</title>
<path fill="none" stroke="midnightblue" d="M211.68,-56.32C198.27,-47.9 177.68,-34.97 161.91,-25.07"/>
<polygon fill="midnightblue" stroke="midnightblue" points="163.61,-22.01 153.28,-19.65 159.89,-27.94 163.61,-22.01"/>
</g>
<!-- Node6&#45;&gt;Node7 -->
<g id="edge10" class="edge">
<title>Node6&#45;&gt;Node7</title>
<path fill="none" stroke="midnightblue" d="M225.67,-56.08C225.8,-49.01 225.98,-38.86 226.15,-29.99"/>
<polygon fill="midnightblue" stroke="midnightblue" points="229.65,-29.81 226.34,-19.75 222.65,-29.68 229.65,-29.81"/>
</g>
<!-- Node6&#45;&gt;Node8 -->
<g id="edge11" class="edge">
<title>Node6&#45;&gt;Node8</title>
<path fill="none" stroke="midnightblue" d="M247.52,-56.44C270.6,-47.48 307.06,-33.31 333.14,-23.18"/>
<polygon fill="midnightblue" stroke="midnightblue" points="334.52,-26.4 342.58,-19.52 331.99,-19.88 334.52,-26.4"/>
</g>
</g>
</svg>
