<?xml version="1.0" encoding="UTF-8" standalone="no"?>
<!DOCTYPE svg PUBLIC "-//W3C//DTD SVG 1.1//EN"
 "http://www.w3.org/Graphics/SVG/1.1/DTD/svg11.dtd">
<!-- Generated by graphviz version 2.49.0 (20210830.1337)
 -->
<!-- Title: typeClassDefs/wb_temperature_sensors.c Pages: 1 -->
<svg width="496pt" height="151pt"
 viewBox="0.00 0.00 496.00 151.00" xmlns="http://www.w3.org/2000/svg" xmlns:xlink="http://www.w3.org/1999/xlink">
<g id="graph0" class="graph" transform="scale(1 1) rotate(0) translate(4 147)">
<title>typeClassDefs/wb_temperature_sensors.c</title>
<!-- Node1 -->
<g id="node1" class="node">
<title>Node1</title>
<g id="a_node1"><a xlink:title=" ">
<polygon fill="#bfbfbf" stroke="black" points="225.5,-112.5 225.5,-142.5 377.5,-142.5 377.5,-112.5 225.5,-112.5"/>
<text text-anchor="start" x="233.5" y="-130.5" font-family="Helvetica,sans-Serif" font-size="10.00">typeClassDefs/wb_temperature</text>
<text text-anchor="middle" x="301.5" y="-119.5" font-family="Helvetica,sans-Serif" font-size="10.00">_sensors.c</text>
</a>
</g>
</g>
<!-- Node2 -->
<g id="node2" class="node">
<title>Node2</title>
<g id="a_node2"><a xlink:href="wb__temperature__sensors_8h.html" target="_top" xlink:title=" ">
<polygon fill="none" stroke="black" points="28.5,-56.5 28.5,-75.5 162.5,-75.5 162.5,-56.5 28.5,-56.5"/>
<text text-anchor="middle" x="95.5" y="-63.5" font-family="Helvetica,sans-Serif" font-size="10.00">wb_temperature_sensors.h</text>
</a>
</g>
</g>
<!-- Node1&#45;&gt;Node2 -->
<g id="edge1" class="edge">
<title>Node1&#45;&gt;Node2</title>
<path fill="none" stroke="midnightblue" d="M252.94,-112.47C216.94,-102.08 168.48,-88.08 134.87,-78.37"/>
<polygon fill="midnightblue" stroke="midnightblue" points="135.53,-74.92 124.95,-75.51 133.59,-81.64 135.53,-74.92"/>
</g>
<!-- Node6 -->
<g id="node6" class="node">
<title>Node6</title>
<g id="a_node6"><a xlink:title=" ">
<polygon fill="none" stroke="#bfbfbf" points="181,-56.5 181,-75.5 226,-75.5 226,-56.5 181,-56.5"/>
<text text-anchor="middle" x="203.5" y="-63.5" font-family="Helvetica,sans-Serif" font-size="10.00">stdio.h</text>
</a>
</g>
</g>
<!-- Node1&#45;&gt;Node6 -->
<g id="edge5" class="edge">
<title>Node1&#45;&gt;Node6</title>
<path fill="none" stroke="midnightblue" d="M278.28,-112.4C262.71,-102.95 242.3,-90.56 226.74,-81.11"/>
<polygon fill="midnightblue" stroke="midnightblue" points="228.12,-77.86 217.76,-75.66 224.49,-83.84 228.12,-77.86"/>
</g>
<!-- Node7 -->
<g id="node7" class="node">
<title>Node7</title>
<g id="a_node7"><a xlink:title=" ">
<polygon fill="none" stroke="#bfbfbf" points="244.5,-56.5 244.5,-75.5 292.5,-75.5 292.5,-56.5 244.5,-56.5"/>
<text text-anchor="middle" x="268.5" y="-63.5" font-family="Helvetica,sans-Serif" font-size="10.00">string.h</text>
</a>
</g>
</g>
<!-- Node1&#45;&gt;Node7 -->
<g id="edge6" class="edge">
<title>Node1&#45;&gt;Node7</title>
<path fill="none" stroke="midnightblue" d="M293.68,-112.4C289.03,-104.02 283.1,-93.33 278.16,-84.42"/>
<polygon fill="midnightblue" stroke="midnightblue" points="281.21,-82.71 273.3,-75.66 275.09,-86.1 281.21,-82.71"/>
</g>
<!-- Node8 -->
<g id="node8" class="node">
<title>Node8</title>
<g id="a_node8"><a xlink:title=" ">
<polygon fill="none" stroke="#bfbfbf" points="311,-56.5 311,-75.5 358,-75.5 358,-56.5 311,-56.5"/>
<text text-anchor="middle" x="334.5" y="-63.5" font-family="Helvetica,sans-Serif" font-size="10.00">stdlib.h</text>
</a>
</g>
</g>
<!-- Node1&#45;&gt;Node8 -->
<g id="edge7" class="edge">
<title>Node1&#45;&gt;Node8</title>
<path fill="none" stroke="midnightblue" d="M309.32,-112.4C313.97,-104.02 319.9,-93.33 324.84,-84.42"/>
<polygon fill="midnightblue" stroke="midnightblue" points="327.91,-86.1 329.7,-75.66 321.79,-82.71 327.91,-86.1"/>
</g>
<!-- Node9 -->
<g id="node9" class="node">
<title>Node9</title>
<g id="a_node9"><a xlink:title=" ">
<polygon fill="none" stroke="#bfbfbf" points="376,-56.5 376,-75.5 423,-75.5 423,-56.5 376,-56.5"/>
<text text-anchor="middle" x="399.5" y="-63.5" font-family="Helvetica,sans-Serif" font-size="10.00">ctype.h</text>
</a>
</g>
</g>
<!-- Node1&#45;&gt;Node9 -->
<g id="edge8" class="edge">
<title>Node1&#45;&gt;Node9</title>
<path fill="none" stroke="midnightblue" d="M324.72,-112.4C340.29,-102.95 360.7,-90.56 376.26,-81.11"/>
<polygon fill="midnightblue" stroke="midnightblue" points="378.51,-83.84 385.24,-75.66 374.88,-77.86 378.51,-83.84"/>
</g>
<!-- Node10 -->
<g id="node10" class="node">
<title>Node10</title>
<g id="a_node10"><a xlink:title=" ">
<polygon fill="none" stroke="#bfbfbf" points="441,-56.5 441,-75.5 488,-75.5 488,-56.5 441,-56.5"/>
<text text-anchor="middle" x="464.5" y="-63.5" font-family="Helvetica,sans-Serif" font-size="10.00">limits.h</text>
</a>
</g>
</g>
<!-- Node1&#45;&gt;Node10 -->
<g id="edge9" class="edge">
<title>Node1&#45;&gt;Node10</title>
<path fill="none" stroke="midnightblue" d="M340.13,-112.4C367.84,-102.28 404.81,-88.79 431.22,-79.15"/>
<polygon fill="midnightblue" stroke="midnightblue" points="432.59,-82.37 440.78,-75.66 430.19,-75.8 432.59,-82.37"/>
</g>
<!-- Node3 -->
<g id="node3" class="node">
<title>Node3</title>
<g id="a_node3"><a xlink:title=" ">
<polygon fill="none" stroke="#bfbfbf" points="0,-0.5 0,-19.5 53,-19.5 53,-0.5 0,-0.5"/>
<text text-anchor="middle" x="26.5" y="-7.5" font-family="Helvetica,sans-Serif" font-size="10.00">gu_util.h</text>
</a>
</g>
</g>
<!-- Node2&#45;&gt;Node3 -->
<g id="edge2" class="edge">
<title>Node2&#45;&gt;Node3</title>
<path fill="none" stroke="midnightblue" d="M84.41,-56.32C74.01,-48.18 58.24,-35.84 45.78,-26.09"/>
<polygon fill="midnightblue" stroke="midnightblue" points="47.82,-23.24 37.79,-19.83 43.51,-28.75 47.82,-23.24"/>
</g>
<!-- Node4 -->
<g id="node4" class="node">
<title>Node4</title>
<g id="a_node4"><a xlink:title=" ">
<polygon fill="none" stroke="#bfbfbf" points="71.5,-0.5 71.5,-19.5 119.5,-19.5 119.5,-0.5 71.5,-0.5"/>
<text text-anchor="middle" x="95.5" y="-7.5" font-family="Helvetica,sans-Serif" font-size="10.00">stdint.h</text>
</a>
</g>
</g>
<!-- Node2&#45;&gt;Node4 -->
<g id="edge3" class="edge">
<title>Node2&#45;&gt;Node4</title>
<path fill="none" stroke="midnightblue" d="M95.5,-56.08C95.5,-49.01 95.5,-38.86 95.5,-29.99"/>
<polygon fill="midnightblue" stroke="midnightblue" points="99,-29.75 95.5,-19.75 92,-29.75 99,-29.75"/>
</g>
<!-- Node5 -->
<g id="node5" class="node">
<title>Node5</title>
<g id="a_node5"><a xlink:title=" ">
<polygon fill="none" stroke="#bfbfbf" points="137.5,-0.5 137.5,-19.5 193.5,-19.5 193.5,-0.5 137.5,-0.5"/>
<text text-anchor="middle" x="165.5" y="-7.5" font-family="Helvetica,sans-Serif" font-size="10.00">stdbool.h</text>
</a>
</g>
</g>
<!-- Node2&#45;&gt;Node5 -->
<g id="edge4" class="edge">
<title>Node2&#45;&gt;Node5</title>
<path fill="none" stroke="midnightblue" d="M106.75,-56.32C117.3,-48.18 133.3,-35.84 145.94,-26.09"/>
<polygon fill="midnightblue" stroke="midnightblue" points="148.27,-28.71 154.05,-19.83 143.99,-23.17 148.27,-28.71"/>
</g>
</g>
</svg>
