<?xml version="1.0" encoding="UTF-8" standalone="no"?>
<!DOCTYPE svg PUBLIC "-//W3C//DTD SVG 1.1//EN"
 "http://www.w3.org/Graphics/SVG/1.1/DTD/svg11.dtd">
<!-- Generated by graphviz version 2.49.0 (20210830.1337)
 -->
<!-- Title: typeClassDefs/wb_top_particles.c Pages: 1 -->
<svg width="472pt" height="263pt"
 viewBox="0.00 0.00 471.50 263.00" xmlns="http://www.w3.org/2000/svg" xmlns:xlink="http://www.w3.org/1999/xlink">
<g id="graph0" class="graph" transform="scale(1 1) rotate(0) translate(4 259)">
<title>typeClassDefs/wb_top_particles.c</title>
<!-- Node1 -->
<g id="node1" class="node">
<title>Node1</title>
<g id="a_node1"><a xlink:title=" ">
<polygon fill="#bfbfbf" stroke="black" points="220,-224.5 220,-254.5 334,-254.5 334,-224.5 220,-224.5"/>
<text text-anchor="start" x="228" y="-242.5" font-family="Helvetica,sans-Serif" font-size="10.00">typeClassDefs/wb_top</text>
<text text-anchor="middle" x="277" y="-231.5" font-family="Helvetica,sans-Serif" font-size="10.00">_particles.c</text>
</a>
</g>
</g>
<!-- Node2 -->
<g id="node2" class="node">
<title>Node2</title>
<g id="a_node2"><a xlink:href="wb__top__particles_8h.html" target="_top" xlink:title=" ">
<polygon fill="none" stroke="black" points="40,-168.5 40,-187.5 138,-187.5 138,-168.5 40,-168.5"/>
<text text-anchor="middle" x="89" y="-175.5" font-family="Helvetica,sans-Serif" font-size="10.00">wb_top_particles.h</text>
</a>
</g>
</g>
<!-- Node1&#45;&gt;Node2 -->
<g id="edge1" class="edge">
<title>Node1&#45;&gt;Node2</title>
<path fill="none" stroke="midnightblue" d="M232.45,-224.4C199.96,-214.12 156.46,-200.35 125.91,-190.68"/>
<polygon fill="midnightblue" stroke="midnightblue" points="126.67,-187.25 116.08,-187.57 124.56,-193.93 126.67,-187.25"/>
</g>
<!-- Node7 -->
<g id="node7" class="node">
<title>Node7</title>
<g id="a_node7"><a xlink:title=" ">
<polygon fill="none" stroke="#bfbfbf" points="156.5,-168.5 156.5,-187.5 201.5,-187.5 201.5,-168.5 156.5,-168.5"/>
<text text-anchor="middle" x="179" y="-175.5" font-family="Helvetica,sans-Serif" font-size="10.00">stdio.h</text>
</a>
</g>
</g>
<!-- Node1&#45;&gt;Node7 -->
<g id="edge10" class="edge">
<title>Node1&#45;&gt;Node7</title>
<path fill="none" stroke="midnightblue" d="M253.78,-224.4C238.21,-214.95 217.8,-202.56 202.24,-193.11"/>
<polygon fill="midnightblue" stroke="midnightblue" points="203.62,-189.86 193.26,-187.66 199.99,-195.84 203.62,-189.86"/>
</g>
<!-- Node8 -->
<g id="node8" class="node">
<title>Node8</title>
<g id="a_node8"><a xlink:title=" ">
<polygon fill="none" stroke="#bfbfbf" points="220,-168.5 220,-187.5 268,-187.5 268,-168.5 220,-168.5"/>
<text text-anchor="middle" x="244" y="-175.5" font-family="Helvetica,sans-Serif" font-size="10.00">string.h</text>
</a>
</g>
</g>
<!-- Node1&#45;&gt;Node8 -->
<g id="edge11" class="edge">
<title>Node1&#45;&gt;Node8</title>
<path fill="none" stroke="midnightblue" d="M269.18,-224.4C264.53,-216.02 258.6,-205.33 253.66,-196.42"/>
<polygon fill="midnightblue" stroke="midnightblue" points="256.71,-194.71 248.8,-187.66 250.59,-198.1 256.71,-194.71"/>
</g>
<!-- Node9 -->
<g id="node9" class="node">
<title>Node9</title>
<g id="a_node9"><a xlink:title=" ">
<polygon fill="none" stroke="#bfbfbf" points="286.5,-168.5 286.5,-187.5 333.5,-187.5 333.5,-168.5 286.5,-168.5"/>
<text text-anchor="middle" x="310" y="-175.5" font-family="Helvetica,sans-Serif" font-size="10.00">stdlib.h</text>
</a>
</g>
</g>
<!-- Node1&#45;&gt;Node9 -->
<g id="edge12" class="edge">
<title>Node1&#45;&gt;Node9</title>
<path fill="none" stroke="midnightblue" d="M284.82,-224.4C289.47,-216.02 295.4,-205.33 300.34,-196.42"/>
<polygon fill="midnightblue" stroke="midnightblue" points="303.41,-198.1 305.2,-187.66 297.29,-194.71 303.41,-198.1"/>
</g>
<!-- Node10 -->
<g id="node10" class="node">
<title>Node10</title>
<g id="a_node10"><a xlink:title=" ">
<polygon fill="none" stroke="#bfbfbf" points="351.5,-168.5 351.5,-187.5 398.5,-187.5 398.5,-168.5 351.5,-168.5"/>
<text text-anchor="middle" x="375" y="-175.5" font-family="Helvetica,sans-Serif" font-size="10.00">ctype.h</text>
</a>
</g>
</g>
<!-- Node1&#45;&gt;Node10 -->
<g id="edge13" class="edge">
<title>Node1&#45;&gt;Node10</title>
<path fill="none" stroke="midnightblue" d="M300.22,-224.4C315.79,-214.95 336.2,-202.56 351.76,-193.11"/>
<polygon fill="midnightblue" stroke="midnightblue" points="354.01,-195.84 360.74,-187.66 350.38,-189.86 354.01,-195.84"/>
</g>
<!-- Node11 -->
<g id="node11" class="node">
<title>Node11</title>
<g id="a_node11"><a xlink:title=" ">
<polygon fill="none" stroke="#bfbfbf" points="416.5,-168.5 416.5,-187.5 463.5,-187.5 463.5,-168.5 416.5,-168.5"/>
<text text-anchor="middle" x="440" y="-175.5" font-family="Helvetica,sans-Serif" font-size="10.00">limits.h</text>
</a>
</g>
</g>
<!-- Node1&#45;&gt;Node11 -->
<g id="edge14" class="edge">
<title>Node1&#45;&gt;Node11</title>
<path fill="none" stroke="midnightblue" d="M315.63,-224.4C343.34,-214.28 380.31,-200.79 406.72,-191.15"/>
<polygon fill="midnightblue" stroke="midnightblue" points="408.09,-194.37 416.28,-187.66 405.69,-187.8 408.09,-194.37"/>
</g>
<!-- Node3 -->
<g id="node3" class="node">
<title>Node3</title>
<g id="a_node3"><a xlink:title=" ">
<polygon fill="none" stroke="#bfbfbf" points="127.5,-0.5 127.5,-19.5 180.5,-19.5 180.5,-0.5 127.5,-0.5"/>
<text text-anchor="middle" x="154" y="-7.5" font-family="Helvetica,sans-Serif" font-size="10.00">gu_util.h</text>
</a>
</g>
</g>
<!-- Node2&#45;&gt;Node3 -->
<g id="edge2" class="edge">
<title>Node2&#45;&gt;Node3</title>
<path fill="none" stroke="midnightblue" d="M111.46,-168.38C126.77,-161.18 145.86,-149.29 155,-132 172.28,-99.3 165.32,-54.36 159.29,-29.47"/>
<polygon fill="midnightblue" stroke="midnightblue" points="162.61,-28.34 156.67,-19.56 155.84,-30.13 162.61,-28.34"/>
</g>
<!-- Node4 -->
<g id="node4" class="node">
<title>Node4</title>
<g id="a_node4"><a xlink:title=" ">
<polygon fill="none" stroke="#bfbfbf" points="0,-0.5 0,-19.5 48,-19.5 48,-0.5 0,-0.5"/>
<text text-anchor="middle" x="24" y="-7.5" font-family="Helvetica,sans-Serif" font-size="10.00">stdint.h</text>
</a>
</g>
</g>
<!-- Node2&#45;&gt;Node4 -->
<g id="edge3" class="edge">
<title>Node2&#45;&gt;Node4</title>
<path fill="none" stroke="midnightblue" d="M66.54,-168.38C51.23,-161.18 32.14,-149.29 23,-132 5.72,-99.3 12.68,-54.36 18.71,-29.47"/>
<polygon fill="midnightblue" stroke="midnightblue" points="22.16,-30.13 21.33,-19.56 15.39,-28.34 22.16,-30.13"/>
</g>
<!-- Node5 -->
<g id="node5" class="node">
<title>Node5</title>
<g id="a_node5"><a xlink:href="wb__particle__position_8h.html" target="_top" xlink:title=" ">
<polygon fill="none" stroke="black" points="32.5,-112.5 32.5,-131.5 145.5,-131.5 145.5,-112.5 32.5,-112.5"/>
<text text-anchor="middle" x="89" y="-119.5" font-family="Helvetica,sans-Serif" font-size="10.00">wb_particle_position.h</text>
</a>
</g>
</g>
<!-- Node2&#45;&gt;Node5 -->
<g id="edge4" class="edge">
<title>Node2&#45;&gt;Node5</title>
<path fill="none" stroke="midnightblue" d="M89,-168.08C89,-161.01 89,-150.86 89,-141.99"/>
<polygon fill="midnightblue" stroke="midnightblue" points="92.5,-141.75 89,-131.75 85.5,-141.75 92.5,-141.75"/>
</g>
<!-- Node5&#45;&gt;Node3 -->
<g id="edge5" class="edge">
<title>Node5&#45;&gt;Node3</title>
<path fill="none" stroke="midnightblue" d="M100.87,-112.29C111.3,-104.04 126.15,-90.75 135,-76 143.6,-61.67 148.51,-43.2 151.17,-29.62"/>
<polygon fill="midnightblue" stroke="midnightblue" points="154.66,-30 152.91,-19.55 147.76,-28.81 154.66,-30"/>
</g>
<!-- Node5&#45;&gt;Node4 -->
<g id="edge6" class="edge">
<title>Node5&#45;&gt;Node4</title>
<path fill="none" stroke="midnightblue" d="M77.13,-112.29C66.7,-104.04 51.85,-90.75 43,-76 34.4,-61.67 29.49,-43.2 26.83,-29.62"/>
<polygon fill="midnightblue" stroke="midnightblue" points="30.24,-28.81 25.09,-19.55 23.34,-30 30.24,-28.81"/>
</g>
<!-- Node6 -->
<g id="node6" class="node">
<title>Node6</title>
<g id="a_node6"><a xlink:href="wb__point2d_8h.html" target="_top" xlink:title=" ">
<polygon fill="none" stroke="black" points="52,-56.5 52,-75.5 126,-75.5 126,-56.5 52,-56.5"/>
<text text-anchor="middle" x="89" y="-63.5" font-family="Helvetica,sans-Serif" font-size="10.00">wb_point2d.h</text>
</a>
</g>
</g>
<!-- Node5&#45;&gt;Node6 -->
<g id="edge7" class="edge">
<title>Node5&#45;&gt;Node6</title>
<path fill="none" stroke="midnightblue" d="M89,-112.08C89,-105.01 89,-94.86 89,-85.99"/>
<polygon fill="midnightblue" stroke="midnightblue" points="92.5,-85.75 89,-75.75 85.5,-85.75 92.5,-85.75"/>
</g>
<!-- Node6&#45;&gt;Node3 -->
<g id="edge8" class="edge">
<title>Node6&#45;&gt;Node3</title>
<path fill="none" stroke="midnightblue" d="M99.44,-56.32C109.15,-48.26 123.82,-36.08 135.5,-26.37"/>
<polygon fill="midnightblue" stroke="midnightblue" points="137.91,-28.92 143.37,-19.83 133.44,-23.53 137.91,-28.92"/>
</g>
<!-- Node6&#45;&gt;Node4 -->
<g id="edge9" class="edge">
<title>Node6&#45;&gt;Node4</title>
<path fill="none" stroke="midnightblue" d="M78.56,-56.32C68.85,-48.26 54.18,-36.08 42.5,-26.37"/>
<polygon fill="midnightblue" stroke="midnightblue" points="44.56,-23.53 34.63,-19.83 40.09,-28.92 44.56,-23.53"/>
</g>
</g>
</svg>
