<?xml version="1.0" encoding="UTF-8" standalone="no"?>
<!DOCTYPE svg PUBLIC "-//W3C//DTD SVG 1.1//EN"
 "http://www.w3.org/Graphics/SVG/1.1/DTD/svg11.dtd">
<!-- Generated by graphviz version 2.49.0 (20210830.1337)
 -->
<!-- Title: typeClassDefs/wb_filtered_vision_object_type.h Pages: 1 -->
<svg width="752pt" height="374pt"
 viewBox="0.00 0.00 752.00 374.00" xmlns="http://www.w3.org/2000/svg" xmlns:xlink="http://www.w3.org/1999/xlink">
<g id="graph0" class="graph" transform="scale(1 1) rotate(0) translate(4 370)">
<title>typeClassDefs/wb_filtered_vision_object_type.h</title>
<!-- Node1 -->
<g id="node1" class="node">
<title>Node1</title>
<g id="a_node1"><a xlink:title=" ">
<polygon fill="#bfbfbf" stroke="black" points="169,-335.5 169,-365.5 298,-365.5 298,-335.5 169,-335.5"/>
<text text-anchor="start" x="177" y="-353.5" font-family="Helvetica,sans-Serif" font-size="10.00">typeClassDefs/wb_filtered</text>
<text text-anchor="middle" x="233.5" y="-342.5" font-family="Helvetica,sans-Serif" font-size="10.00">_vision_object_type.h</text>
</a>
</g>
</g>
<!-- Node2 -->
<g id="node2" class="node">
<title>Node2</title>
<g id="a_node2"><a xlink:href="guwhiteboard__c__types__manual__definitions_8h.html" target="_top" xlink:title=" ">
<polygon fill="none" stroke="black" points="108,-201.5 108,-231.5 221,-231.5 221,-201.5 108,-201.5"/>
<text text-anchor="start" x="116" y="-219.5" font-family="Helvetica,sans-Serif" font-size="10.00">guwhiteboard_c_types</text>
<text text-anchor="middle" x="164.5" y="-208.5" font-family="Helvetica,sans-Serif" font-size="10.00">_manual_definitions.h</text>
</a>
</g>
</g>
<!-- Node1&#45;&gt;Node2 -->
<g id="edge1" class="edge">
<title>Node1&#45;&gt;Node2</title>
<path fill="none" stroke="midnightblue" d="M221.46,-326.48C207.14,-299.07 183.68,-254.19 171.83,-231.52"/>
<polygon fill="midnightblue" stroke="midnightblue" points="218.38,-328.13 226.12,-335.37 224.58,-324.89 218.38,-328.13"/>
</g>
<!-- Node6 -->
<g id="node6" class="node">
<title>Node6</title>
<g id="a_node6"><a xlink:href="wb__filtered__arrayonedimobjects_8h.html" target="_top" xlink:title=" ">
<polygon fill="none" stroke="black" points="227,-268.5 227,-298.5 356,-298.5 356,-268.5 227,-268.5"/>
<text text-anchor="start" x="235" y="-286.5" font-family="Helvetica,sans-Serif" font-size="10.00">typeClassDefs/wb_filtered</text>
<text text-anchor="middle" x="291.5" y="-275.5" font-family="Helvetica,sans-Serif" font-size="10.00">_arrayonedimobjects.h</text>
</a>
</g>
</g>
<!-- Node1&#45;&gt;Node6 -->
<g id="edge5" class="edge">
<title>Node1&#45;&gt;Node6</title>
<path fill="none" stroke="midnightblue" d="M252.92,-327.74C261.5,-318.12 271.34,-307.09 278.94,-298.58"/>
<polygon fill="midnightblue" stroke="midnightblue" points="250.13,-325.6 246.09,-335.4 255.35,-330.26 250.13,-325.6"/>
</g>
<!-- Node3 -->
<g id="node3" class="node">
<title>Node3</title>
<g id="a_node3"><a xlink:href="guwhiteboard__c__types_8h.html" target="_top" xlink:title=" ">
<polygon fill="none" stroke="black" points="104,-140 104,-159 225,-159 225,-140 104,-140"/>
<text text-anchor="middle" x="164.5" y="-147" font-family="Helvetica,sans-Serif" font-size="10.00">guwhiteboard_c_types.h</text>
</a>
</g>
</g>
<!-- Node2&#45;&gt;Node3 -->
<g id="edge2" class="edge">
<title>Node2&#45;&gt;Node3</title>
<path fill="none" stroke="midnightblue" d="M164.5,-191.25C164.5,-180.02 164.5,-167.38 164.5,-159.19"/>
<polygon fill="midnightblue" stroke="midnightblue" points="161,-191.4 164.5,-201.4 168,-191.4 161,-191.4"/>
</g>
<!-- Node4 -->
<g id="node4" class="node">
<title>Node4</title>
<g id="a_node4"><a xlink:href="guwhiteboarddeserialiser_8c.html" target="_top" xlink:title=" ">
<polygon fill="none" stroke="black" points="0,-73 0,-92 131,-92 131,-73 0,-73"/>
<text text-anchor="middle" x="65.5" y="-80" font-family="Helvetica,sans-Serif" font-size="10.00">guwhiteboarddeserialiser.c</text>
</a>
</g>
</g>
<!-- Node3&#45;&gt;Node4 -->
<g id="edge3" class="edge">
<title>Node3&#45;&gt;Node4</title>
<path fill="none" stroke="midnightblue" d="M142.56,-134.09C122.97,-121.24 94.94,-102.83 78.64,-92.13"/>
<polygon fill="midnightblue" stroke="midnightblue" points="140.87,-137.17 151.15,-139.73 144.71,-131.32 140.87,-137.17"/>
</g>
<!-- Node5 -->
<g id="node5" class="node">
<title>Node5</title>
<g id="a_node5"><a xlink:href="guwhiteboardserialiser_8c.html" target="_top" xlink:title=" ">
<polygon fill="none" stroke="black" points="149,-73 149,-92 270,-92 270,-73 149,-73"/>
<text text-anchor="middle" x="209.5" y="-80" font-family="Helvetica,sans-Serif" font-size="10.00">guwhiteboardserialiser.c</text>
</a>
</g>
</g>
<!-- Node3&#45;&gt;Node5 -->
<g id="edge4" class="edge">
<title>Node3&#45;&gt;Node5</title>
<path fill="none" stroke="midnightblue" d="M176.34,-131.4C185.08,-118.77 196.62,-102.1 203.53,-92.13"/>
<polygon fill="midnightblue" stroke="midnightblue" points="173.38,-129.52 170.57,-139.73 179.14,-133.5 173.38,-129.52"/>
</g>
<!-- Node6&#45;&gt;Node2 -->
<g id="edge6" class="edge">
<title>Node6&#45;&gt;Node2</title>
<path fill="none" stroke="midnightblue" d="M254.8,-263.71C234.77,-253.46 210.38,-240.98 192,-231.58"/>
<polygon fill="midnightblue" stroke="midnightblue" points="253.45,-266.96 263.94,-268.4 256.64,-260.72 253.45,-266.96"/>
</g>
<!-- Node7 -->
<g id="node7" class="node">
<title>Node7</title>
<g id="a_node7"><a xlink:href="_filtered_array_one_dim_objects_8hpp.html" target="_top" xlink:title=" ">
<polygon fill="none" stroke="black" points="386,-201.5 386,-231.5 523,-231.5 523,-201.5 386,-201.5"/>
<text text-anchor="start" x="394" y="-219.5" font-family="Helvetica,sans-Serif" font-size="10.00">typeClassDefs/FilteredArray</text>
<text text-anchor="middle" x="454.5" y="-208.5" font-family="Helvetica,sans-Serif" font-size="10.00">OneDimObjects.hpp</text>
</a>
</g>
</g>
<!-- Node6&#45;&gt;Node7 -->
<g id="edge7" class="edge">
<title>Node6&#45;&gt;Node7</title>
<path fill="none" stroke="midnightblue" d="M336.18,-264.68C362.33,-254.26 394.87,-241.28 419.2,-231.58"/>
<polygon fill="midnightblue" stroke="midnightblue" points="334.86,-261.44 326.87,-268.4 337.45,-267.94 334.86,-261.44"/>
</g>
<!-- Node15 -->
<g id="node15" class="node">
<title>Node15</title>
<g id="a_node15"><a xlink:href="wb__filtered__arrayonedimobjects_8c.html" target="_top" xlink:title=" ">
<polygon fill="none" stroke="black" points="239,-201.5 239,-231.5 368,-231.5 368,-201.5 239,-201.5"/>
<text text-anchor="start" x="247" y="-219.5" font-family="Helvetica,sans-Serif" font-size="10.00">typeClassDefs/wb_filtered</text>
<text text-anchor="middle" x="303.5" y="-208.5" font-family="Helvetica,sans-Serif" font-size="10.00">_arrayonedimobjects.c</text>
</a>
</g>
</g>
<!-- Node6&#45;&gt;Node15 -->
<g id="edge16" class="edge">
<title>Node6&#45;&gt;Node15</title>
<path fill="none" stroke="midnightblue" d="M295.95,-258.4C297.62,-249.37 299.46,-239.41 300.9,-231.58"/>
<polygon fill="midnightblue" stroke="midnightblue" points="292.48,-257.93 294.1,-268.4 299.36,-259.2 292.48,-257.93"/>
</g>
<!-- Node8 -->
<g id="node8" class="node">
<title>Node8</title>
<g id="a_node8"><a xlink:href="guwhiteboardposter_8h.html" target="_top" xlink:title=" ">
<polygon fill="none" stroke="black" points="457,-140 457,-159 566,-159 566,-140 457,-140"/>
<text text-anchor="middle" x="511.5" y="-147" font-family="Helvetica,sans-Serif" font-size="10.00">guwhiteboardposter.h</text>
</a>
</g>
</g>
<!-- Node7&#45;&gt;Node8 -->
<g id="edge8" class="edge">
<title>Node7&#45;&gt;Node8</title>
<path fill="none" stroke="midnightblue" d="M473.65,-193.66C484,-181.86 496.18,-167.97 503.88,-159.19"/>
<polygon fill="midnightblue" stroke="midnightblue" points="470.83,-191.57 466.87,-201.4 476.09,-196.18 470.83,-191.57"/>
</g>
<!-- Node14 -->
<g id="node14" class="node">
<title>Node14</title>
<g id="a_node14"><a xlink:href="_filtered_array_one_dim_objects_8h.html" target="_top" xlink:title=" ">
<polygon fill="none" stroke="black" points="301,-134.5 301,-164.5 438,-164.5 438,-134.5 301,-134.5"/>
<text text-anchor="start" x="309" y="-152.5" font-family="Helvetica,sans-Serif" font-size="10.00">typeClassDefs/FilteredArray</text>
<text text-anchor="middle" x="369.5" y="-141.5" font-family="Helvetica,sans-Serif" font-size="10.00">OneDimObjects.h</text>
</a>
</g>
</g>
<!-- Node7&#45;&gt;Node14 -->
<g id="edge14" class="edge">
<title>Node7&#45;&gt;Node14</title>
<path fill="none" stroke="midnightblue" d="M427.91,-195.17C414.91,-185.23 399.6,-173.51 387.91,-164.58"/>
<polygon fill="midnightblue" stroke="midnightblue" points="425.99,-198.1 436.06,-201.4 430.24,-192.54 425.99,-198.1"/>
</g>
<!-- Node9 -->
<g id="node9" class="node">
<title>Node9</title>
<g id="a_node9"><a xlink:href="_simple_whiteboard_test_8h.html" target="_top" xlink:title=" ">
<polygon fill="none" stroke="black" points="357,-67.5 357,-97.5 482,-97.5 482,-67.5 357,-67.5"/>
<text text-anchor="start" x="365" y="-85.5" font-family="Helvetica,sans-Serif" font-size="10.00">SimpleWhiteboardTest</text>
<text text-anchor="middle" x="419.5" y="-74.5" font-family="Helvetica,sans-Serif" font-size="10.00">/SimpleWhiteboardTest.h</text>
</a>
</g>
</g>
<!-- Node8&#45;&gt;Node9 -->
<g id="edge9" class="edge">
<title>Node8&#45;&gt;Node9</title>
<path fill="none" stroke="midnightblue" d="M490.76,-133.85C475.41,-123 454.61,-108.3 439.44,-97.59"/>
<polygon fill="midnightblue" stroke="midnightblue" points="488.91,-136.82 499.09,-139.73 492.94,-131.1 488.91,-136.82"/>
</g>
<!-- Node11 -->
<g id="node11" class="node">
<title>Node11</title>
<g id="a_node11"><a xlink:href="guwhiteboardgetter_8h.html" target="_top" xlink:title=" ">
<polygon fill="none" stroke="black" points="500,-73 500,-92 607,-92 607,-73 500,-73"/>
<text text-anchor="middle" x="553.5" y="-80" font-family="Helvetica,sans-Serif" font-size="10.00">guwhiteboardgetter.h</text>
</a>
</g>
</g>
<!-- Node8&#45;&gt;Node11 -->
<g id="edge11" class="edge">
<title>Node8&#45;&gt;Node11</title>
<path fill="none" stroke="midnightblue" d="M522.79,-131.03C530.92,-118.45 541.54,-102.01 547.93,-92.13"/>
<polygon fill="midnightblue" stroke="midnightblue" points="519.65,-129.44 517.16,-139.73 525.53,-133.23 519.65,-129.44"/>
</g>
<!-- Node13 -->
<g id="node13" class="node">
<title>Node13</title>
<g id="a_node13"><a xlink:href="guwhiteboardposter_8cpp.html" target="_top" xlink:title=" ">
<polygon fill="none" stroke="black" points="625,-73 625,-92 744,-92 744,-73 625,-73"/>
<text text-anchor="middle" x="684.5" y="-80" font-family="Helvetica,sans-Serif" font-size="10.00">guwhiteboardposter.cpp</text>
</a>
</g>
</g>
<!-- Node8&#45;&gt;Node13 -->
<g id="edge13" class="edge">
<title>Node8&#45;&gt;Node13</title>
<path fill="none" stroke="midnightblue" d="M544.05,-136.27C578.38,-123.37 631.6,-103.38 661.71,-92.06"/>
<polygon fill="midnightblue" stroke="midnightblue" points="542.6,-133.07 534.47,-139.87 545.07,-139.63 542.6,-133.07"/>
</g>
<!-- Node10 -->
<g id="node10" class="node">
<title>Node10</title>
<g id="a_node10"><a xlink:href="_simple_whiteboard_test_8mm.html" target="_top" xlink:title=" ">
<polygon fill="none" stroke="black" points="300,-0.5 300,-30.5 437,-30.5 437,-0.5 300,-0.5"/>
<text text-anchor="start" x="308" y="-18.5" font-family="Helvetica,sans-Serif" font-size="10.00">SimpleWhiteboardTest</text>
<text text-anchor="middle" x="368.5" y="-7.5" font-family="Helvetica,sans-Serif" font-size="10.00">/SimpleWhiteboardTest.mm</text>
</a>
</g>
</g>
<!-- Node9&#45;&gt;Node10 -->
<g id="edge10" class="edge">
<title>Node9&#45;&gt;Node10</title>
<path fill="none" stroke="midnightblue" d="M402.2,-59.45C394.71,-49.9 386.16,-39 379.54,-30.58"/>
<polygon fill="midnightblue" stroke="midnightblue" points="399.51,-61.69 408.43,-67.4 405.01,-57.37 399.51,-61.69"/>
</g>
<!-- Node12 -->
<g id="node12" class="node">
<title>Node12</title>
<g id="a_node12"><a xlink:href="guwhiteboardgetter_8cpp.html" target="_top" xlink:title=" ">
<polygon fill="none" stroke="black" points="495,-6 495,-25 612,-25 612,-6 495,-6"/>
<text text-anchor="middle" x="553.5" y="-13" font-family="Helvetica,sans-Serif" font-size="10.00">guwhiteboardgetter.cpp</text>
</a>
</g>
</g>
<!-- Node11&#45;&gt;Node12 -->
<g id="edge12" class="edge">
<title>Node11&#45;&gt;Node12</title>
<path fill="none" stroke="midnightblue" d="M553.5,-62.54C553.5,-50.17 553.5,-34.62 553.5,-25.13"/>
<polygon fill="midnightblue" stroke="midnightblue" points="550,-62.73 553.5,-72.73 557,-62.73 550,-62.73"/>
</g>
<!-- Node14&#45;&gt;Node10 -->
<g id="edge15" class="edge">
<title>Node14&#45;&gt;Node10</title>
<path fill="none" stroke="midnightblue" d="M357.59,-125.26C353.91,-116.9 350.34,-107.24 348.5,-98 345.8,-84.49 345.92,-80.53 348.5,-67 350.94,-54.22 356.56,-40.54 361.22,-30.65"/>
<polygon fill="midnightblue" stroke="midnightblue" points="354.45,-126.82 361.86,-134.39 360.79,-123.85 354.45,-126.82"/>
</g>
</g>
</svg>
