<?xml version="1.0" encoding="UTF-8" standalone="no"?>
<!DOCTYPE svg PUBLIC "-//W3C//DTD SVG 1.1//EN"
 "http://www.w3.org/Graphics/SVG/1.1/DTD/svg11.dtd">
<!-- Generated by graphviz version 2.49.0 (20210830.1337)
 -->
<!-- Title: typeClassDefs/wb_vision_detection_goal.h Pages: 1 -->
<svg width="445pt" height="218pt"
 viewBox="0.00 0.00 444.50 218.00" xmlns="http://www.w3.org/2000/svg" xmlns:xlink="http://www.w3.org/1999/xlink">
<g id="graph0" class="graph" transform="scale(1 1) rotate(0) translate(4 214)">
<title>typeClassDefs/wb_vision_detection_goal.h</title>
<!-- Node1 -->
<g id="node1" class="node">
<title>Node1</title>
<g id="a_node1"><a xlink:title=" ">
<polygon fill="#bfbfbf" stroke="black" points="0,-179.5 0,-209.5 126,-209.5 126,-179.5 0,-179.5"/>
<text text-anchor="start" x="8" y="-197.5" font-family="Helvetica,sans-Serif" font-size="10.00">typeClassDefs/wb_vision</text>
<text text-anchor="middle" x="63" y="-186.5" font-family="Helvetica,sans-Serif" font-size="10.00">_detection_goal.h</text>
</a>
</g>
</g>
<!-- Node2 -->
<g id="node2" class="node">
<title>Node2</title>
<g id="a_node2"><a xlink:title=" ">
<polygon fill="none" stroke="#bfbfbf" points="41.5,-0.5 41.5,-19.5 94.5,-19.5 94.5,-0.5 41.5,-0.5"/>
<text text-anchor="middle" x="68" y="-7.5" font-family="Helvetica,sans-Serif" font-size="10.00">gu_util.h</text>
</a>
</g>
</g>
<!-- Node1&#45;&gt;Node2 -->
<g id="edge1" class="edge">
<title>Node1&#45;&gt;Node2</title>
<path fill="none" stroke="midnightblue" d="M57.9,-179.13C54.63,-169.14 50.69,-155.44 49,-143 43.79,-104.69 41.33,-93.9 49,-56 50.89,-46.65 54.79,-36.83 58.57,-28.75"/>
<polygon fill="midnightblue" stroke="midnightblue" points="61.79,-30.14 63.12,-19.63 55.53,-27.01 61.79,-30.14"/>
</g>
<!-- Node3 -->
<g id="node3" class="node">
<title>Node3</title>
<g id="a_node3"><a xlink:title=" ">
<polygon fill="none" stroke="#bfbfbf" points="113,-0.5 113,-19.5 161,-19.5 161,-0.5 113,-0.5"/>
<text text-anchor="middle" x="137" y="-7.5" font-family="Helvetica,sans-Serif" font-size="10.00">stdint.h</text>
</a>
</g>
</g>
<!-- Node1&#45;&gt;Node3 -->
<g id="edge2" class="edge">
<title>Node1&#45;&gt;Node3</title>
<path fill="none" stroke="midnightblue" d="M68.68,-179.48C81.93,-146.82 114.84,-65.65 129.62,-29.21"/>
<polygon fill="midnightblue" stroke="midnightblue" points="132.91,-30.4 133.42,-19.82 126.42,-27.77 132.91,-30.4"/>
</g>
<!-- Node4 -->
<g id="node4" class="node">
<title>Node4</title>
<g id="a_node4"><a xlink:href="wb__vision__detection__goal__post_8h.html" target="_top" xlink:title=" ">
<polygon fill="none" stroke="black" points="130.5,-112.5 130.5,-142.5 235.5,-142.5 235.5,-112.5 130.5,-112.5"/>
<text text-anchor="start" x="138.5" y="-130.5" font-family="Helvetica,sans-Serif" font-size="10.00">wb_vision_detection</text>
<text text-anchor="middle" x="183" y="-119.5" font-family="Helvetica,sans-Serif" font-size="10.00">_goal_post.h</text>
</a>
</g>
</g>
<!-- Node1&#45;&gt;Node4 -->
<g id="edge3" class="edge">
<title>Node1&#45;&gt;Node4</title>
<path fill="none" stroke="midnightblue" d="M89.04,-179.4C106.34,-170.03 129.25,-157.62 148.12,-147.39"/>
<polygon fill="midnightblue" stroke="midnightblue" points="149.89,-150.42 157.01,-142.58 146.55,-144.26 149.89,-150.42"/>
</g>
<!-- Node4&#45;&gt;Node2 -->
<g id="edge4" class="edge">
<title>Node4&#45;&gt;Node2</title>
<path fill="none" stroke="midnightblue" d="M168.9,-112.34C147.33,-90.68 106.29,-49.45 83.76,-26.83"/>
<polygon fill="midnightblue" stroke="midnightblue" points="86.17,-24.29 76.63,-19.67 81.21,-29.23 86.17,-24.29"/>
</g>
<!-- Node4&#45;&gt;Node3 -->
<g id="edge5" class="edge">
<title>Node4&#45;&gt;Node3</title>
<path fill="none" stroke="midnightblue" d="M175.2,-112.17C169.95,-102.2 163.08,-88.51 158,-76 151.72,-60.55 146,-42.46 142.12,-29.29"/>
<polygon fill="midnightblue" stroke="midnightblue" points="145.45,-28.2 139.33,-19.56 138.72,-30.13 145.45,-28.2"/>
</g>
<!-- Node5 -->
<g id="node5" class="node">
<title>Node5</title>
<g id="a_node5"><a xlink:href="wb__pixel__coordinate_8h.html" target="_top" xlink:title=" ">
<polygon fill="none" stroke="black" points="167,-56.5 167,-75.5 279,-75.5 279,-56.5 167,-56.5"/>
<text text-anchor="middle" x="223" y="-63.5" font-family="Helvetica,sans-Serif" font-size="10.00">wb_pixel_coordinate.h</text>
</a>
</g>
</g>
<!-- Node4&#45;&gt;Node5 -->
<g id="edge6" class="edge">
<title>Node4&#45;&gt;Node5</title>
<path fill="none" stroke="midnightblue" d="M192.48,-112.4C198.17,-103.93 205.45,-93.1 211.48,-84.14"/>
<polygon fill="midnightblue" stroke="midnightblue" points="214.51,-85.91 217.18,-75.66 208.7,-82 214.51,-85.91"/>
</g>
<!-- Node6 -->
<g id="node6" class="node">
<title>Node6</title>
<g id="a_node6"><a xlink:title=" ">
<polygon fill="none" stroke="#bfbfbf" points="179,-0.5 179,-19.5 269,-19.5 269,-0.5 179,-0.5"/>
<text text-anchor="middle" x="224" y="-7.5" font-family="Helvetica,sans-Serif" font-size="10.00">guunits/guunits.h</text>
</a>
</g>
</g>
<!-- Node4&#45;&gt;Node6 -->
<g id="edge11" class="edge">
<title>Node4&#45;&gt;Node6</title>
<path fill="none" stroke="midnightblue" d="M235.77,-114.03C255.68,-106.48 276.32,-94.58 288,-76 300.89,-55.5 275.54,-36.29 253.04,-24.15"/>
<polygon fill="midnightblue" stroke="midnightblue" points="254.51,-20.97 244.01,-19.55 251.33,-27.21 254.51,-20.97"/>
</g>
<!-- Node7 -->
<g id="node7" class="node">
<title>Node7</title>
<g id="a_node7"><a xlink:title=" ">
<polygon fill="none" stroke="#bfbfbf" points="287.5,-0.5 287.5,-19.5 436.5,-19.5 436.5,-0.5 287.5,-0.5"/>
<text text-anchor="middle" x="362" y="-7.5" font-family="Helvetica,sans-Serif" font-size="10.00">gucoordinates/gucoordinates.h</text>
</a>
</g>
</g>
<!-- Node4&#45;&gt;Node7 -->
<g id="edge12" class="edge">
<title>Node4&#45;&gt;Node7</title>
<path fill="none" stroke="midnightblue" d="M229.01,-112.47C252.42,-104.05 280.59,-91.87 303,-76 321.77,-62.71 338.92,-42.49 349.83,-28.14"/>
<polygon fill="midnightblue" stroke="midnightblue" points="352.94,-29.82 356.06,-19.69 347.31,-25.67 352.94,-29.82"/>
</g>
<!-- Node5&#45;&gt;Node2 -->
<g id="edge7" class="edge">
<title>Node5&#45;&gt;Node2</title>
<path fill="none" stroke="midnightblue" d="M198.44,-56.44C172.48,-47.4 131.33,-33.06 102.2,-22.92"/>
<polygon fill="midnightblue" stroke="midnightblue" points="103.04,-19.5 92.45,-19.52 100.74,-26.11 103.04,-19.5"/>
</g>
<!-- Node5&#45;&gt;Node3 -->
<g id="edge8" class="edge">
<title>Node5&#45;&gt;Node3</title>
<path fill="none" stroke="midnightblue" d="M209.18,-56.32C195.77,-47.9 175.18,-34.97 159.41,-25.07"/>
<polygon fill="midnightblue" stroke="midnightblue" points="161.11,-22.01 150.78,-19.65 157.39,-27.94 161.11,-22.01"/>
</g>
<!-- Node5&#45;&gt;Node6 -->
<g id="edge9" class="edge">
<title>Node5&#45;&gt;Node6</title>
<path fill="none" stroke="midnightblue" d="M223.17,-56.08C223.3,-49.01 223.48,-38.86 223.65,-29.99"/>
<polygon fill="midnightblue" stroke="midnightblue" points="227.15,-29.81 223.84,-19.75 220.15,-29.68 227.15,-29.81"/>
</g>
<!-- Node5&#45;&gt;Node7 -->
<g id="edge10" class="edge">
<title>Node5&#45;&gt;Node7</title>
<path fill="none" stroke="midnightblue" d="M245.02,-56.44C268.1,-47.48 304.56,-33.31 330.64,-23.18"/>
<polygon fill="midnightblue" stroke="midnightblue" points="332.02,-26.4 340.08,-19.52 329.49,-19.88 332.02,-26.4"/>
</g>
</g>
</svg>
