<?xml version="1.0" encoding="UTF-8" standalone="no"?>
<!DOCTYPE svg PUBLIC "-//W3C//DTD SVG 1.1//EN"
 "http://www.w3.org/Graphics/SVG/1.1/DTD/svg11.dtd">
<!-- Generated by graphviz version 2.49.0 (20210830.1337)
 -->
<!-- Title: typeClassDefs/wb_landmark_sighting.c Pages: 1 -->
<svg width="454pt" height="151pt"
 viewBox="0.00 0.00 454.00 151.00" xmlns="http://www.w3.org/2000/svg" xmlns:xlink="http://www.w3.org/1999/xlink">
<g id="graph0" class="graph" transform="scale(1 1) rotate(0) translate(4 147)">
<title>typeClassDefs/wb_landmark_sighting.c</title>
<!-- Node1 -->
<g id="node1" class="node">
<title>Node1</title>
<g id="a_node1"><a xlink:title=" ">
<polygon fill="#bfbfbf" stroke="black" points="189.5,-112.5 189.5,-142.5 329.5,-142.5 329.5,-112.5 189.5,-112.5"/>
<text text-anchor="start" x="197.5" y="-130.5" font-family="Helvetica,sans-Serif" font-size="10.00">typeClassDefs/wb_landmark</text>
<text text-anchor="middle" x="259.5" y="-119.5" font-family="Helvetica,sans-Serif" font-size="10.00">_sighting.c</text>
</a>
</g>
</g>
<!-- Node2 -->
<g id="node2" class="node">
<title>Node2</title>
<g id="a_node2"><a xlink:href="wb__landmark__sighting_8h.html" target="_top" xlink:title=" ">
<polygon fill="none" stroke="black" points="0,-56.5 0,-75.5 121,-75.5 121,-56.5 0,-56.5"/>
<text text-anchor="middle" x="60.5" y="-63.5" font-family="Helvetica,sans-Serif" font-size="10.00">wb_landmark_sighting.h</text>
</a>
</g>
</g>
<!-- Node1&#45;&gt;Node2 -->
<g id="edge1" class="edge">
<title>Node1&#45;&gt;Node2</title>
<path fill="none" stroke="midnightblue" d="M212.59,-112.47C177.81,-102.08 131,-88.08 98.53,-78.37"/>
<polygon fill="midnightblue" stroke="midnightblue" points="99.53,-75.02 88.95,-75.51 97.53,-81.72 99.53,-75.02"/>
</g>
<!-- Node5 -->
<g id="node5" class="node">
<title>Node5</title>
<g id="a_node5"><a xlink:title=" ">
<polygon fill="none" stroke="#bfbfbf" points="139,-56.5 139,-75.5 184,-75.5 184,-56.5 139,-56.5"/>
<text text-anchor="middle" x="161.5" y="-63.5" font-family="Helvetica,sans-Serif" font-size="10.00">stdio.h</text>
</a>
</g>
</g>
<!-- Node1&#45;&gt;Node5 -->
<g id="edge4" class="edge">
<title>Node1&#45;&gt;Node5</title>
<path fill="none" stroke="midnightblue" d="M236.28,-112.4C220.71,-102.95 200.3,-90.56 184.74,-81.11"/>
<polygon fill="midnightblue" stroke="midnightblue" points="186.12,-77.86 175.76,-75.66 182.49,-83.84 186.12,-77.86"/>
</g>
<!-- Node6 -->
<g id="node6" class="node">
<title>Node6</title>
<g id="a_node6"><a xlink:title=" ">
<polygon fill="none" stroke="#bfbfbf" points="202.5,-56.5 202.5,-75.5 250.5,-75.5 250.5,-56.5 202.5,-56.5"/>
<text text-anchor="middle" x="226.5" y="-63.5" font-family="Helvetica,sans-Serif" font-size="10.00">string.h</text>
</a>
</g>
</g>
<!-- Node1&#45;&gt;Node6 -->
<g id="edge5" class="edge">
<title>Node1&#45;&gt;Node6</title>
<path fill="none" stroke="midnightblue" d="M251.68,-112.4C247.03,-104.02 241.1,-93.33 236.16,-84.42"/>
<polygon fill="midnightblue" stroke="midnightblue" points="239.21,-82.71 231.3,-75.66 233.09,-86.1 239.21,-82.71"/>
</g>
<!-- Node7 -->
<g id="node7" class="node">
<title>Node7</title>
<g id="a_node7"><a xlink:title=" ">
<polygon fill="none" stroke="#bfbfbf" points="269,-56.5 269,-75.5 316,-75.5 316,-56.5 269,-56.5"/>
<text text-anchor="middle" x="292.5" y="-63.5" font-family="Helvetica,sans-Serif" font-size="10.00">stdlib.h</text>
</a>
</g>
</g>
<!-- Node1&#45;&gt;Node7 -->
<g id="edge6" class="edge">
<title>Node1&#45;&gt;Node7</title>
<path fill="none" stroke="midnightblue" d="M267.32,-112.4C271.97,-104.02 277.9,-93.33 282.84,-84.42"/>
<polygon fill="midnightblue" stroke="midnightblue" points="285.91,-86.1 287.7,-75.66 279.79,-82.71 285.91,-86.1"/>
</g>
<!-- Node8 -->
<g id="node8" class="node">
<title>Node8</title>
<g id="a_node8"><a xlink:title=" ">
<polygon fill="none" stroke="#bfbfbf" points="334,-56.5 334,-75.5 381,-75.5 381,-56.5 334,-56.5"/>
<text text-anchor="middle" x="357.5" y="-63.5" font-family="Helvetica,sans-Serif" font-size="10.00">ctype.h</text>
</a>
</g>
</g>
<!-- Node1&#45;&gt;Node8 -->
<g id="edge7" class="edge">
<title>Node1&#45;&gt;Node8</title>
<path fill="none" stroke="midnightblue" d="M282.72,-112.4C298.29,-102.95 318.7,-90.56 334.26,-81.11"/>
<polygon fill="midnightblue" stroke="midnightblue" points="336.51,-83.84 343.24,-75.66 332.88,-77.86 336.51,-83.84"/>
</g>
<!-- Node9 -->
<g id="node9" class="node">
<title>Node9</title>
<g id="a_node9"><a xlink:title=" ">
<polygon fill="none" stroke="#bfbfbf" points="399,-56.5 399,-75.5 446,-75.5 446,-56.5 399,-56.5"/>
<text text-anchor="middle" x="422.5" y="-63.5" font-family="Helvetica,sans-Serif" font-size="10.00">limits.h</text>
</a>
</g>
</g>
<!-- Node1&#45;&gt;Node9 -->
<g id="edge8" class="edge">
<title>Node1&#45;&gt;Node9</title>
<path fill="none" stroke="midnightblue" d="M298.13,-112.4C325.84,-102.28 362.81,-88.79 389.22,-79.15"/>
<polygon fill="midnightblue" stroke="midnightblue" points="390.59,-82.37 398.78,-75.66 388.19,-75.8 390.59,-82.37"/>
</g>
<!-- Node3 -->
<g id="node3" class="node">
<title>Node3</title>
<g id="a_node3"><a xlink:title=" ">
<polygon fill="none" stroke="#bfbfbf" points="0,-0.5 0,-19.5 53,-19.5 53,-0.5 0,-0.5"/>
<text text-anchor="middle" x="26.5" y="-7.5" font-family="Helvetica,sans-Serif" font-size="10.00">gu_util.h</text>
</a>
</g>
</g>
<!-- Node2&#45;&gt;Node3 -->
<g id="edge2" class="edge">
<title>Node2&#45;&gt;Node3</title>
<path fill="none" stroke="midnightblue" d="M54.89,-56.08C50.13,-48.53 43.18,-37.49 37.35,-28.23"/>
<polygon fill="midnightblue" stroke="midnightblue" points="40.3,-26.35 32.01,-19.75 34.38,-30.08 40.3,-26.35"/>
</g>
<!-- Node4 -->
<g id="node4" class="node">
<title>Node4</title>
<g id="a_node4"><a xlink:title=" ">
<polygon fill="none" stroke="#bfbfbf" points="71.5,-0.5 71.5,-19.5 119.5,-19.5 119.5,-0.5 71.5,-0.5"/>
<text text-anchor="middle" x="95.5" y="-7.5" font-family="Helvetica,sans-Serif" font-size="10.00">stdint.h</text>
</a>
</g>
</g>
<!-- Node2&#45;&gt;Node4 -->
<g id="edge3" class="edge">
<title>Node2&#45;&gt;Node4</title>
<path fill="none" stroke="midnightblue" d="M66.28,-56.08C71.17,-48.53 78.33,-37.49 84.33,-28.23"/>
<polygon fill="midnightblue" stroke="midnightblue" points="87.33,-30.05 89.83,-19.75 81.45,-26.24 87.33,-30.05"/>
</g>
</g>
</svg>
