<?xml version="1.0" encoding="UTF-8" standalone="no"?>
<!DOCTYPE svg PUBLIC "-//W3C//DTD SVG 1.1//EN"
 "http://www.w3.org/Graphics/SVG/1.1/DTD/svg11.dtd">
<!-- Generated by graphviz version 2.49.0 (20210830.1337)
 -->
<!-- Title: typeClassDefs/wb_filtered_vision_ball_type.h Pages: 1 -->
<svg width="838pt" height="374pt"
 viewBox="0.00 0.00 838.00 374.00" xmlns="http://www.w3.org/2000/svg" xmlns:xlink="http://www.w3.org/1999/xlink">
<g id="graph0" class="graph" transform="scale(1 1) rotate(0) translate(4 370)">
<title>typeClassDefs/wb_filtered_vision_ball_type.h</title>
<!-- Node1 -->
<g id="node1" class="node">
<title>Node1</title>
<g id="a_node1"><a xlink:title=" ">
<polygon fill="#bfbfbf" stroke="black" points="420,-335.5 420,-365.5 549,-365.5 549,-335.5 420,-335.5"/>
<text text-anchor="start" x="428" y="-353.5" font-family="Helvetica,sans-Serif" font-size="10.00">typeClassDefs/wb_filtered</text>
<text text-anchor="middle" x="484.5" y="-342.5" font-family="Helvetica,sans-Serif" font-size="10.00">_vision_ball_type.h</text>
</a>
</g>
</g>
<!-- Node2 -->
<g id="node2" class="node">
<title>Node2</title>
<g id="a_node2"><a xlink:href="wb__filtered__arrayballsightings_8h.html" target="_top" xlink:title=" ">
<polygon fill="none" stroke="black" points="420,-268.5 420,-298.5 549,-298.5 549,-268.5 420,-268.5"/>
<text text-anchor="start" x="428" y="-286.5" font-family="Helvetica,sans-Serif" font-size="10.00">typeClassDefs/wb_filtered</text>
<text text-anchor="middle" x="484.5" y="-275.5" font-family="Helvetica,sans-Serif" font-size="10.00">_arrayballsightings.h</text>
</a>
</g>
</g>
<!-- Node1&#45;&gt;Node2 -->
<g id="edge1" class="edge">
<title>Node1&#45;&gt;Node2</title>
<path fill="none" stroke="midnightblue" d="M484.5,-325.11C484.5,-316.15 484.5,-306.32 484.5,-298.58"/>
<polygon fill="midnightblue" stroke="midnightblue" points="481,-325.4 484.5,-335.4 488,-325.4 481,-325.4"/>
</g>
<!-- Node3 -->
<g id="node3" class="node">
<title>Node3</title>
<g id="a_node3"><a xlink:href="guwhiteboard__c__types__manual__definitions_8h.html" target="_top" xlink:title=" ">
<polygon fill="none" stroke="black" points="219,-201.5 219,-231.5 332,-231.5 332,-201.5 219,-201.5"/>
<text text-anchor="start" x="227" y="-219.5" font-family="Helvetica,sans-Serif" font-size="10.00">guwhiteboard_c_types</text>
<text text-anchor="middle" x="275.5" y="-208.5" font-family="Helvetica,sans-Serif" font-size="10.00">_manual_definitions.h</text>
</a>
</g>
</g>
<!-- Node2&#45;&gt;Node3 -->
<g id="edge2" class="edge">
<title>Node2&#45;&gt;Node3</title>
<path fill="none" stroke="midnightblue" d="M429.66,-265.44C395.78,-254.91 352.83,-241.55 320.87,-231.61"/>
<polygon fill="midnightblue" stroke="midnightblue" points="428.82,-268.85 439.41,-268.48 430.9,-262.16 428.82,-268.85"/>
</g>
<!-- Node7 -->
<g id="node7" class="node">
<title>Node7</title>
<g id="a_node7"><a xlink:href="_filtered_array_ball_sightings_8hpp.html" target="_top" xlink:title=" ">
<polygon fill="none" stroke="black" points="416,-201.5 416,-231.5 553,-231.5 553,-201.5 416,-201.5"/>
<text text-anchor="start" x="424" y="-219.5" font-family="Helvetica,sans-Serif" font-size="10.00">typeClassDefs/FilteredArray</text>
<text text-anchor="middle" x="484.5" y="-208.5" font-family="Helvetica,sans-Serif" font-size="10.00">BallSightings.hpp</text>
</a>
</g>
</g>
<!-- Node2&#45;&gt;Node7 -->
<g id="edge6" class="edge">
<title>Node2&#45;&gt;Node7</title>
<path fill="none" stroke="midnightblue" d="M484.5,-258.11C484.5,-249.15 484.5,-239.32 484.5,-231.58"/>
<polygon fill="midnightblue" stroke="midnightblue" points="481,-258.4 484.5,-268.4 488,-258.4 481,-258.4"/>
</g>
<!-- Node17 -->
<g id="node17" class="node">
<title>Node17</title>
<g id="a_node17"><a xlink:href="wb__filtered__arrayballsightings_8c.html" target="_top" xlink:title=" ">
<polygon fill="none" stroke="black" points="571,-201.5 571,-231.5 700,-231.5 700,-201.5 571,-201.5"/>
<text text-anchor="start" x="579" y="-219.5" font-family="Helvetica,sans-Serif" font-size="10.00">typeClassDefs/wb_filtered</text>
<text text-anchor="middle" x="635.5" y="-208.5" font-family="Helvetica,sans-Serif" font-size="10.00">_arrayballsightings.c</text>
</a>
</g>
</g>
<!-- Node2&#45;&gt;Node17 -->
<g id="edge16" class="edge">
<title>Node2&#45;&gt;Node17</title>
<path fill="none" stroke="midnightblue" d="M526.53,-264.41C550.64,-254.03 580.45,-241.2 602.8,-231.58"/>
<polygon fill="midnightblue" stroke="midnightblue" points="525.07,-261.23 517.26,-268.4 527.83,-267.66 525.07,-261.23"/>
</g>
<!-- Node4 -->
<g id="node4" class="node">
<title>Node4</title>
<g id="a_node4"><a xlink:href="guwhiteboard__c__types_8h.html" target="_top" xlink:title=" ">
<polygon fill="none" stroke="black" points="149,-140 149,-159 270,-159 270,-140 149,-140"/>
<text text-anchor="middle" x="209.5" y="-147" font-family="Helvetica,sans-Serif" font-size="10.00">guwhiteboard_c_types.h</text>
</a>
</g>
</g>
<!-- Node3&#45;&gt;Node4 -->
<g id="edge3" class="edge">
<title>Node3&#45;&gt;Node4</title>
<path fill="none" stroke="midnightblue" d="M254.01,-194.34C241.89,-182.4 227.41,-168.14 218.33,-159.19"/>
<polygon fill="midnightblue" stroke="midnightblue" points="251.6,-196.87 261.18,-201.4 256.51,-191.89 251.6,-196.87"/>
</g>
<!-- Node5 -->
<g id="node5" class="node">
<title>Node5</title>
<g id="a_node5"><a xlink:href="guwhiteboarddeserialiser_8c.html" target="_top" xlink:title=" ">
<polygon fill="none" stroke="black" points="0,-73 0,-92 131,-92 131,-73 0,-73"/>
<text text-anchor="middle" x="65.5" y="-80" font-family="Helvetica,sans-Serif" font-size="10.00">guwhiteboarddeserialiser.c</text>
</a>
</g>
</g>
<!-- Node4&#45;&gt;Node5 -->
<g id="edge4" class="edge">
<title>Node4&#45;&gt;Node5</title>
<path fill="none" stroke="midnightblue" d="M180.95,-135.61C152.43,-122.74 109.38,-103.31 84.7,-92.17"/>
<polygon fill="midnightblue" stroke="midnightblue" points="179.82,-138.94 190.38,-139.87 182.7,-132.56 179.82,-138.94"/>
</g>
<!-- Node6 -->
<g id="node6" class="node">
<title>Node6</title>
<g id="a_node6"><a xlink:href="guwhiteboardserialiser_8c.html" target="_top" xlink:title=" ">
<polygon fill="none" stroke="black" points="149,-73 149,-92 270,-92 270,-73 149,-73"/>
<text text-anchor="middle" x="209.5" y="-80" font-family="Helvetica,sans-Serif" font-size="10.00">guwhiteboardserialiser.c</text>
</a>
</g>
</g>
<!-- Node4&#45;&gt;Node6 -->
<g id="edge5" class="edge">
<title>Node4&#45;&gt;Node6</title>
<path fill="none" stroke="midnightblue" d="M209.5,-129.54C209.5,-117.17 209.5,-101.62 209.5,-92.13"/>
<polygon fill="midnightblue" stroke="midnightblue" points="206,-129.73 209.5,-139.73 213,-129.73 206,-129.73"/>
</g>
<!-- Node8 -->
<g id="node8" class="node">
<title>Node8</title>
<g id="a_node8"><a xlink:href="guwhiteboardposter_8h.html" target="_top" xlink:title=" ">
<polygon fill="none" stroke="black" points="430,-140 430,-159 539,-159 539,-140 430,-140"/>
<text text-anchor="middle" x="484.5" y="-147" font-family="Helvetica,sans-Serif" font-size="10.00">guwhiteboardposter.h</text>
</a>
</g>
</g>
<!-- Node7&#45;&gt;Node8 -->
<g id="edge7" class="edge">
<title>Node7&#45;&gt;Node8</title>
<path fill="none" stroke="midnightblue" d="M484.5,-191.25C484.5,-180.02 484.5,-167.38 484.5,-159.19"/>
<polygon fill="midnightblue" stroke="midnightblue" points="481,-191.4 484.5,-201.4 488,-191.4 481,-191.4"/>
</g>
<!-- Node14 -->
<g id="node14" class="node">
<title>Node14</title>
<g id="a_node14"><a xlink:href="_filtered_array_ball_sightings_8h.html" target="_top" xlink:title=" ">
<polygon fill="none" stroke="black" points="625,-134.5 625,-164.5 762,-164.5 762,-134.5 625,-134.5"/>
<text text-anchor="start" x="633" y="-152.5" font-family="Helvetica,sans-Serif" font-size="10.00">typeClassDefs/FilteredArray</text>
<text text-anchor="middle" x="693.5" y="-141.5" font-family="Helvetica,sans-Serif" font-size="10.00">BallSightings.h</text>
</a>
</g>
</g>
<!-- Node7&#45;&gt;Node14 -->
<g id="edge13" class="edge">
<title>Node7&#45;&gt;Node14</title>
<path fill="none" stroke="midnightblue" d="M539.34,-198.44C573.22,-187.91 616.17,-174.55 648.13,-164.61"/>
<polygon fill="midnightblue" stroke="midnightblue" points="538.1,-195.16 529.59,-201.48 540.18,-201.85 538.1,-195.16"/>
</g>
<!-- Node9 -->
<g id="node9" class="node">
<title>Node9</title>
<g id="a_node9"><a xlink:href="_simple_whiteboard_test_8h.html" target="_top" xlink:title=" ">
<polygon fill="none" stroke="black" points="288,-67.5 288,-97.5 413,-97.5 413,-67.5 288,-67.5"/>
<text text-anchor="start" x="296" y="-85.5" font-family="Helvetica,sans-Serif" font-size="10.00">SimpleWhiteboardTest</text>
<text text-anchor="middle" x="350.5" y="-74.5" font-family="Helvetica,sans-Serif" font-size="10.00">/SimpleWhiteboardTest.h</text>
</a>
</g>
</g>
<!-- Node8&#45;&gt;Node9 -->
<g id="edge8" class="edge">
<title>Node8&#45;&gt;Node9</title>
<path fill="none" stroke="midnightblue" d="M457.65,-135.47C434.99,-124.49 402.64,-108.79 379.42,-97.53"/>
<polygon fill="midnightblue" stroke="midnightblue" points="456.18,-138.65 466.71,-139.87 459.24,-132.35 456.18,-138.65"/>
</g>
<!-- Node11 -->
<g id="node11" class="node">
<title>Node11</title>
<g id="a_node11"><a xlink:href="guwhiteboardgetter_8h.html" target="_top" xlink:title=" ">
<polygon fill="none" stroke="black" points="431,-73 431,-92 538,-92 538,-73 431,-73"/>
<text text-anchor="middle" x="484.5" y="-80" font-family="Helvetica,sans-Serif" font-size="10.00">guwhiteboardgetter.h</text>
</a>
</g>
</g>
<!-- Node8&#45;&gt;Node11 -->
<g id="edge10" class="edge">
<title>Node8&#45;&gt;Node11</title>
<path fill="none" stroke="midnightblue" d="M484.5,-129.54C484.5,-117.17 484.5,-101.62 484.5,-92.13"/>
<polygon fill="midnightblue" stroke="midnightblue" points="481,-129.73 484.5,-139.73 488,-129.73 481,-129.73"/>
</g>
<!-- Node13 -->
<g id="node13" class="node">
<title>Node13</title>
<g id="a_node13"><a xlink:href="guwhiteboardposter_8cpp.html" target="_top" xlink:title=" ">
<polygon fill="none" stroke="black" points="556,-73 556,-92 675,-92 675,-73 556,-73"/>
<text text-anchor="middle" x="615.5" y="-80" font-family="Helvetica,sans-Serif" font-size="10.00">guwhiteboardposter.cpp</text>
</a>
</g>
</g>
<!-- Node8&#45;&gt;Node13 -->
<g id="edge12" class="edge">
<title>Node8&#45;&gt;Node13</title>
<path fill="none" stroke="midnightblue" d="M511.16,-135.27C537.1,-122.4 575.78,-103.21 598.03,-92.17"/>
<polygon fill="midnightblue" stroke="midnightblue" points="509.3,-132.29 501.9,-139.87 512.41,-138.56 509.3,-132.29"/>
</g>
<!-- Node10 -->
<g id="node10" class="node">
<title>Node10</title>
<g id="a_node10"><a xlink:href="_simple_whiteboard_test_8mm.html" target="_top" xlink:title=" ">
<polygon fill="none" stroke="black" points="276,-0.5 276,-30.5 413,-30.5 413,-0.5 276,-0.5"/>
<text text-anchor="start" x="284" y="-18.5" font-family="Helvetica,sans-Serif" font-size="10.00">SimpleWhiteboardTest</text>
<text text-anchor="middle" x="344.5" y="-7.5" font-family="Helvetica,sans-Serif" font-size="10.00">/SimpleWhiteboardTest.mm</text>
</a>
</g>
</g>
<!-- Node9&#45;&gt;Node10 -->
<g id="edge9" class="edge">
<title>Node9&#45;&gt;Node10</title>
<path fill="none" stroke="midnightblue" d="M348.28,-57.4C347.44,-48.37 346.52,-38.41 345.8,-30.58"/>
<polygon fill="midnightblue" stroke="midnightblue" points="344.79,-57.76 349.2,-67.4 351.76,-57.12 344.79,-57.76"/>
</g>
<!-- Node12 -->
<g id="node12" class="node">
<title>Node12</title>
<g id="a_node12"><a xlink:href="guwhiteboardgetter_8cpp.html" target="_top" xlink:title=" ">
<polygon fill="none" stroke="black" points="431,-6 431,-25 548,-25 548,-6 431,-6"/>
<text text-anchor="middle" x="489.5" y="-13" font-family="Helvetica,sans-Serif" font-size="10.00">guwhiteboardgetter.cpp</text>
</a>
</g>
</g>
<!-- Node11&#45;&gt;Node12 -->
<g id="edge11" class="edge">
<title>Node11&#45;&gt;Node12</title>
<path fill="none" stroke="midnightblue" d="M485.96,-62.54C486.91,-50.17 488.11,-34.62 488.84,-25.13"/>
<polygon fill="midnightblue" stroke="midnightblue" points="482.45,-62.49 485.17,-72.73 489.43,-63.03 482.45,-62.49"/>
</g>
<!-- Node15 -->
<g id="node15" class="node">
<title>Node15</title>
<g id="a_node15"><a xlink:href="_filtered_array_one_dim_ball_8hpp.html" target="_top" xlink:title=" ">
<polygon fill="none" stroke="black" points="693,-67.5 693,-97.5 830,-97.5 830,-67.5 693,-67.5"/>
<text text-anchor="start" x="701" y="-85.5" font-family="Helvetica,sans-Serif" font-size="10.00">typeClassDefs/FilteredArray</text>
<text text-anchor="middle" x="761.5" y="-74.5" font-family="Helvetica,sans-Serif" font-size="10.00">OneDimBall.hpp</text>
</a>
</g>
</g>
<!-- Node14&#45;&gt;Node15 -->
<g id="edge14" class="edge">
<title>Node14&#45;&gt;Node15</title>
<path fill="none" stroke="midnightblue" d="M715.67,-127.31C725.87,-117.56 737.69,-106.26 746.77,-97.58"/>
<polygon fill="midnightblue" stroke="midnightblue" points="713.07,-124.96 708.25,-134.4 717.9,-130.02 713.07,-124.96"/>
</g>
<!-- Node16 -->
<g id="node16" class="node">
<title>Node16</title>
<g id="a_node16"><a xlink:href="_filtered_array_one_dim_ball_8h.html" target="_top" xlink:title=" ">
<polygon fill="none" stroke="black" points="693,-0.5 693,-30.5 830,-30.5 830,-0.5 693,-0.5"/>
<text text-anchor="start" x="701" y="-18.5" font-family="Helvetica,sans-Serif" font-size="10.00">typeClassDefs/FilteredArray</text>
<text text-anchor="middle" x="761.5" y="-7.5" font-family="Helvetica,sans-Serif" font-size="10.00">OneDimBall.h</text>
</a>
</g>
</g>
<!-- Node15&#45;&gt;Node16 -->
<g id="edge15" class="edge">
<title>Node15&#45;&gt;Node16</title>
<path fill="none" stroke="midnightblue" d="M761.5,-57.11C761.5,-48.15 761.5,-38.32 761.5,-30.58"/>
<polygon fill="midnightblue" stroke="midnightblue" points="758,-57.4 761.5,-67.4 765,-57.4 758,-57.4"/>
</g>
</g>
</svg>
