<?xml version="1.0" encoding="UTF-8" standalone="no"?>
<!DOCTYPE svg PUBLIC "-//W3C//DTD SVG 1.1//EN"
 "http://www.w3.org/Graphics/SVG/1.1/DTD/svg11.dtd">
<!-- Generated by graphviz version 2.49.0 (20210830.1337)
 -->
<!-- Title: typeClassDefs/wb_teleoperation_status.c Pages: 1 -->
<svg width="464pt" height="151pt"
 viewBox="0.00 0.00 463.50 151.00" xmlns="http://www.w3.org/2000/svg" xmlns:xlink="http://www.w3.org/1999/xlink">
<g id="graph0" class="graph" transform="scale(1 1) rotate(0) translate(4 147)">
<title>typeClassDefs/wb_teleoperation_status.c</title>
<!-- Node1 -->
<g id="node1" class="node">
<title>Node1</title>
<g id="a_node1"><a xlink:title=" ">
<polygon fill="#bfbfbf" stroke="black" points="191,-112.5 191,-142.5 347,-142.5 347,-112.5 191,-112.5"/>
<text text-anchor="start" x="199" y="-130.5" font-family="Helvetica,sans-Serif" font-size="10.00">typeClassDefs/wb_teleoperation</text>
<text text-anchor="middle" x="269" y="-119.5" font-family="Helvetica,sans-Serif" font-size="10.00">_status.c</text>
</a>
</g>
</g>
<!-- Node2 -->
<g id="node2" class="node">
<title>Node2</title>
<g id="a_node2"><a xlink:href="wb__teleoperation__status_8h.html" target="_top" xlink:title=" ">
<polygon fill="none" stroke="black" points="0,-56.5 0,-75.5 130,-75.5 130,-56.5 0,-56.5"/>
<text text-anchor="middle" x="65" y="-63.5" font-family="Helvetica,sans-Serif" font-size="10.00">wb_teleoperation_status.h</text>
</a>
</g>
</g>
<!-- Node1&#45;&gt;Node2 -->
<g id="edge1" class="edge">
<title>Node1&#45;&gt;Node2</title>
<path fill="none" stroke="midnightblue" d="M220.91,-112.47C185.26,-102.08 137.27,-88.08 103.99,-78.37"/>
<polygon fill="midnightblue" stroke="midnightblue" points="104.74,-74.95 94.16,-75.51 102.78,-81.67 104.74,-74.95"/>
</g>
<!-- Node5 -->
<g id="node5" class="node">
<title>Node5</title>
<g id="a_node5"><a xlink:title=" ">
<polygon fill="none" stroke="#bfbfbf" points="148.5,-56.5 148.5,-75.5 193.5,-75.5 193.5,-56.5 148.5,-56.5"/>
<text text-anchor="middle" x="171" y="-63.5" font-family="Helvetica,sans-Serif" font-size="10.00">stdio.h</text>
</a>
</g>
</g>
<!-- Node1&#45;&gt;Node5 -->
<g id="edge4" class="edge">
<title>Node1&#45;&gt;Node5</title>
<path fill="none" stroke="midnightblue" d="M245.78,-112.4C230.21,-102.95 209.8,-90.56 194.24,-81.11"/>
<polygon fill="midnightblue" stroke="midnightblue" points="195.62,-77.86 185.26,-75.66 191.99,-83.84 195.62,-77.86"/>
</g>
<!-- Node6 -->
<g id="node6" class="node">
<title>Node6</title>
<g id="a_node6"><a xlink:title=" ">
<polygon fill="none" stroke="#bfbfbf" points="212,-56.5 212,-75.5 260,-75.5 260,-56.5 212,-56.5"/>
<text text-anchor="middle" x="236" y="-63.5" font-family="Helvetica,sans-Serif" font-size="10.00">string.h</text>
</a>
</g>
</g>
<!-- Node1&#45;&gt;Node6 -->
<g id="edge5" class="edge">
<title>Node1&#45;&gt;Node6</title>
<path fill="none" stroke="midnightblue" d="M261.18,-112.4C256.53,-104.02 250.6,-93.33 245.66,-84.42"/>
<polygon fill="midnightblue" stroke="midnightblue" points="248.71,-82.71 240.8,-75.66 242.59,-86.1 248.71,-82.71"/>
</g>
<!-- Node7 -->
<g id="node7" class="node">
<title>Node7</title>
<g id="a_node7"><a xlink:title=" ">
<polygon fill="none" stroke="#bfbfbf" points="278.5,-56.5 278.5,-75.5 325.5,-75.5 325.5,-56.5 278.5,-56.5"/>
<text text-anchor="middle" x="302" y="-63.5" font-family="Helvetica,sans-Serif" font-size="10.00">stdlib.h</text>
</a>
</g>
</g>
<!-- Node1&#45;&gt;Node7 -->
<g id="edge6" class="edge">
<title>Node1&#45;&gt;Node7</title>
<path fill="none" stroke="midnightblue" d="M276.82,-112.4C281.47,-104.02 287.4,-93.33 292.34,-84.42"/>
<polygon fill="midnightblue" stroke="midnightblue" points="295.41,-86.1 297.2,-75.66 289.29,-82.71 295.41,-86.1"/>
</g>
<!-- Node8 -->
<g id="node8" class="node">
<title>Node8</title>
<g id="a_node8"><a xlink:title=" ">
<polygon fill="none" stroke="#bfbfbf" points="343.5,-56.5 343.5,-75.5 390.5,-75.5 390.5,-56.5 343.5,-56.5"/>
<text text-anchor="middle" x="367" y="-63.5" font-family="Helvetica,sans-Serif" font-size="10.00">ctype.h</text>
</a>
</g>
</g>
<!-- Node1&#45;&gt;Node8 -->
<g id="edge7" class="edge">
<title>Node1&#45;&gt;Node8</title>
<path fill="none" stroke="midnightblue" d="M292.22,-112.4C307.79,-102.95 328.2,-90.56 343.76,-81.11"/>
<polygon fill="midnightblue" stroke="midnightblue" points="346.01,-83.84 352.74,-75.66 342.38,-77.86 346.01,-83.84"/>
</g>
<!-- Node9 -->
<g id="node9" class="node">
<title>Node9</title>
<g id="a_node9"><a xlink:title=" ">
<polygon fill="none" stroke="#bfbfbf" points="408.5,-56.5 408.5,-75.5 455.5,-75.5 455.5,-56.5 408.5,-56.5"/>
<text text-anchor="middle" x="432" y="-63.5" font-family="Helvetica,sans-Serif" font-size="10.00">limits.h</text>
</a>
</g>
</g>
<!-- Node1&#45;&gt;Node9 -->
<g id="edge8" class="edge">
<title>Node1&#45;&gt;Node9</title>
<path fill="none" stroke="midnightblue" d="M307.63,-112.4C335.34,-102.28 372.31,-88.79 398.72,-79.15"/>
<polygon fill="midnightblue" stroke="midnightblue" points="400.09,-82.37 408.28,-75.66 397.69,-75.8 400.09,-82.37"/>
</g>
<!-- Node3 -->
<g id="node3" class="node">
<title>Node3</title>
<g id="a_node3"><a xlink:title=" ">
<polygon fill="none" stroke="#bfbfbf" points="4.5,-0.5 4.5,-19.5 57.5,-19.5 57.5,-0.5 4.5,-0.5"/>
<text text-anchor="middle" x="31" y="-7.5" font-family="Helvetica,sans-Serif" font-size="10.00">gu_util.h</text>
</a>
</g>
</g>
<!-- Node2&#45;&gt;Node3 -->
<g id="edge2" class="edge">
<title>Node2&#45;&gt;Node3</title>
<path fill="none" stroke="midnightblue" d="M59.39,-56.08C54.63,-48.53 47.68,-37.49 41.85,-28.23"/>
<polygon fill="midnightblue" stroke="midnightblue" points="44.8,-26.35 36.51,-19.75 38.88,-30.08 44.8,-26.35"/>
</g>
<!-- Node4 -->
<g id="node4" class="node">
<title>Node4</title>
<g id="a_node4"><a xlink:title=" ">
<polygon fill="none" stroke="#bfbfbf" points="76,-0.5 76,-19.5 124,-19.5 124,-0.5 76,-0.5"/>
<text text-anchor="middle" x="100" y="-7.5" font-family="Helvetica,sans-Serif" font-size="10.00">stdint.h</text>
</a>
</g>
</g>
<!-- Node2&#45;&gt;Node4 -->
<g id="edge3" class="edge">
<title>Node2&#45;&gt;Node4</title>
<path fill="none" stroke="midnightblue" d="M70.78,-56.08C75.67,-48.53 82.83,-37.49 88.83,-28.23"/>
<polygon fill="midnightblue" stroke="midnightblue" points="91.83,-30.05 94.33,-19.75 85.95,-26.24 91.83,-30.05"/>
</g>
</g>
</svg>
