<?xml version="1.0" encoding="UTF-8" standalone="no"?>
<!DOCTYPE svg PUBLIC "-//W3C//DTD SVG 1.1//EN"
 "http://www.w3.org/Graphics/SVG/1.1/DTD/svg11.dtd">
<!-- Generated by graphviz version 2.49.0 (20210830.1337)
 -->
<!-- Title: typeClassDefs/wb_hal_arm_target.c Pages: 1 -->
<svg width="447pt" height="151pt"
 viewBox="0.00 0.00 447.00 151.00" xmlns="http://www.w3.org/2000/svg" xmlns:xlink="http://www.w3.org/1999/xlink">
<g id="graph0" class="graph" transform="scale(1 1) rotate(0) translate(4 147)">
<title>typeClassDefs/wb_hal_arm_target.c</title>
<!-- Node1 -->
<g id="node1" class="node">
<title>Node1</title>
<g id="a_node1"><a xlink:title=" ">
<polygon fill="#bfbfbf" stroke="black" points="196,-112.5 196,-142.5 309,-142.5 309,-112.5 196,-112.5"/>
<text text-anchor="start" x="204" y="-130.5" font-family="Helvetica,sans-Serif" font-size="10.00">typeClassDefs/wb_hal</text>
<text text-anchor="middle" x="252.5" y="-119.5" font-family="Helvetica,sans-Serif" font-size="10.00">_arm_target.c</text>
</a>
</g>
</g>
<!-- Node2 -->
<g id="node2" class="node">
<title>Node2</title>
<g id="a_node2"><a xlink:href="wb__hal__arm__target_8h.html" target="_top" xlink:title=" ">
<polygon fill="none" stroke="black" points="7,-56.5 7,-75.5 114,-75.5 114,-56.5 7,-56.5"/>
<text text-anchor="middle" x="60.5" y="-63.5" font-family="Helvetica,sans-Serif" font-size="10.00">wb_hal_arm_target.h</text>
</a>
</g>
</g>
<!-- Node1&#45;&gt;Node2 -->
<g id="edge1" class="edge">
<title>Node1&#45;&gt;Node2</title>
<path fill="none" stroke="midnightblue" d="M207,-112.4C173.68,-102.07 129.01,-88.23 97.79,-78.56"/>
<polygon fill="midnightblue" stroke="midnightblue" points="98.75,-75.19 88.16,-75.57 96.67,-81.87 98.75,-75.19"/>
</g>
<!-- Node5 -->
<g id="node5" class="node">
<title>Node5</title>
<g id="a_node5"><a xlink:title=" ">
<polygon fill="none" stroke="#bfbfbf" points="132,-56.5 132,-75.5 177,-75.5 177,-56.5 132,-56.5"/>
<text text-anchor="middle" x="154.5" y="-63.5" font-family="Helvetica,sans-Serif" font-size="10.00">stdio.h</text>
</a>
</g>
</g>
<!-- Node1&#45;&gt;Node5 -->
<g id="edge4" class="edge">
<title>Node1&#45;&gt;Node5</title>
<path fill="none" stroke="midnightblue" d="M229.28,-112.4C213.71,-102.95 193.3,-90.56 177.74,-81.11"/>
<polygon fill="midnightblue" stroke="midnightblue" points="179.12,-77.86 168.76,-75.66 175.49,-83.84 179.12,-77.86"/>
</g>
<!-- Node6 -->
<g id="node6" class="node">
<title>Node6</title>
<g id="a_node6"><a xlink:title=" ">
<polygon fill="none" stroke="#bfbfbf" points="195.5,-56.5 195.5,-75.5 243.5,-75.5 243.5,-56.5 195.5,-56.5"/>
<text text-anchor="middle" x="219.5" y="-63.5" font-family="Helvetica,sans-Serif" font-size="10.00">string.h</text>
</a>
</g>
</g>
<!-- Node1&#45;&gt;Node6 -->
<g id="edge5" class="edge">
<title>Node1&#45;&gt;Node6</title>
<path fill="none" stroke="midnightblue" d="M244.68,-112.4C240.03,-104.02 234.1,-93.33 229.16,-84.42"/>
<polygon fill="midnightblue" stroke="midnightblue" points="232.21,-82.71 224.3,-75.66 226.09,-86.1 232.21,-82.71"/>
</g>
<!-- Node7 -->
<g id="node7" class="node">
<title>Node7</title>
<g id="a_node7"><a xlink:title=" ">
<polygon fill="none" stroke="#bfbfbf" points="262,-56.5 262,-75.5 309,-75.5 309,-56.5 262,-56.5"/>
<text text-anchor="middle" x="285.5" y="-63.5" font-family="Helvetica,sans-Serif" font-size="10.00">stdlib.h</text>
</a>
</g>
</g>
<!-- Node1&#45;&gt;Node7 -->
<g id="edge6" class="edge">
<title>Node1&#45;&gt;Node7</title>
<path fill="none" stroke="midnightblue" d="M260.32,-112.4C264.97,-104.02 270.9,-93.33 275.84,-84.42"/>
<polygon fill="midnightblue" stroke="midnightblue" points="278.91,-86.1 280.7,-75.66 272.79,-82.71 278.91,-86.1"/>
</g>
<!-- Node8 -->
<g id="node8" class="node">
<title>Node8</title>
<g id="a_node8"><a xlink:title=" ">
<polygon fill="none" stroke="#bfbfbf" points="327,-56.5 327,-75.5 374,-75.5 374,-56.5 327,-56.5"/>
<text text-anchor="middle" x="350.5" y="-63.5" font-family="Helvetica,sans-Serif" font-size="10.00">ctype.h</text>
</a>
</g>
</g>
<!-- Node1&#45;&gt;Node8 -->
<g id="edge7" class="edge">
<title>Node1&#45;&gt;Node8</title>
<path fill="none" stroke="midnightblue" d="M275.72,-112.4C291.29,-102.95 311.7,-90.56 327.26,-81.11"/>
<polygon fill="midnightblue" stroke="midnightblue" points="329.51,-83.84 336.24,-75.66 325.88,-77.86 329.51,-83.84"/>
</g>
<!-- Node9 -->
<g id="node9" class="node">
<title>Node9</title>
<g id="a_node9"><a xlink:title=" ">
<polygon fill="none" stroke="#bfbfbf" points="392,-56.5 392,-75.5 439,-75.5 439,-56.5 392,-56.5"/>
<text text-anchor="middle" x="415.5" y="-63.5" font-family="Helvetica,sans-Serif" font-size="10.00">limits.h</text>
</a>
</g>
</g>
<!-- Node1&#45;&gt;Node9 -->
<g id="edge8" class="edge">
<title>Node1&#45;&gt;Node9</title>
<path fill="none" stroke="midnightblue" d="M291.13,-112.4C318.84,-102.28 355.81,-88.79 382.22,-79.15"/>
<polygon fill="midnightblue" stroke="midnightblue" points="383.59,-82.37 391.78,-75.66 381.19,-75.8 383.59,-82.37"/>
</g>
<!-- Node3 -->
<g id="node3" class="node">
<title>Node3</title>
<g id="a_node3"><a xlink:title=" ">
<polygon fill="none" stroke="#bfbfbf" points="0,-0.5 0,-19.5 53,-19.5 53,-0.5 0,-0.5"/>
<text text-anchor="middle" x="26.5" y="-7.5" font-family="Helvetica,sans-Serif" font-size="10.00">gu_util.h</text>
</a>
</g>
</g>
<!-- Node2&#45;&gt;Node3 -->
<g id="edge2" class="edge">
<title>Node2&#45;&gt;Node3</title>
<path fill="none" stroke="midnightblue" d="M54.89,-56.08C50.13,-48.53 43.18,-37.49 37.35,-28.23"/>
<polygon fill="midnightblue" stroke="midnightblue" points="40.3,-26.35 32.01,-19.75 34.38,-30.08 40.3,-26.35"/>
</g>
<!-- Node4 -->
<g id="node4" class="node">
<title>Node4</title>
<g id="a_node4"><a xlink:title=" ">
<polygon fill="none" stroke="#bfbfbf" points="71.5,-0.5 71.5,-19.5 119.5,-19.5 119.5,-0.5 71.5,-0.5"/>
<text text-anchor="middle" x="95.5" y="-7.5" font-family="Helvetica,sans-Serif" font-size="10.00">stdint.h</text>
</a>
</g>
</g>
<!-- Node2&#45;&gt;Node4 -->
<g id="edge3" class="edge">
<title>Node2&#45;&gt;Node4</title>
<path fill="none" stroke="midnightblue" d="M66.28,-56.08C71.17,-48.53 78.33,-37.49 84.33,-28.23"/>
<polygon fill="midnightblue" stroke="midnightblue" points="87.33,-30.05 89.83,-19.75 81.45,-26.24 87.33,-30.05"/>
</g>
</g>
</svg>
