<?xml version="1.0" encoding="UTF-8" standalone="no"?>
<!DOCTYPE svg PUBLIC "-//W3C//DTD SVG 1.1//EN"
 "http://www.w3.org/Graphics/SVG/1.1/DTD/svg11.dtd">
<!-- Generated by graphviz version 2.49.0 (20210830.1337)
 -->
<!-- Title: typeClassDefs/wb_mission_priority_for_obstacles.h Pages: 1 -->
<svg width="590pt" height="307pt"
 viewBox="0.00 0.00 589.50 307.00" xmlns="http://www.w3.org/2000/svg" xmlns:xlink="http://www.w3.org/1999/xlink">
<g id="graph0" class="graph" transform="scale(1 1) rotate(0) translate(4 303)">
<title>typeClassDefs/wb_mission_priority_for_obstacles.h</title>
<!-- Node1 -->
<g id="node1" class="node">
<title>Node1</title>
<g id="a_node1"><a xlink:title=" ">
<polygon fill="#bfbfbf" stroke="black" points="289.5,-268.5 289.5,-298.5 423.5,-298.5 423.5,-268.5 289.5,-268.5"/>
<text text-anchor="start" x="297.5" y="-286.5" font-family="Helvetica,sans-Serif" font-size="10.00">typeClassDefs/wb_mission</text>
<text text-anchor="middle" x="356.5" y="-275.5" font-family="Helvetica,sans-Serif" font-size="10.00">_priority_for_obstacles.h</text>
</a>
</g>
</g>
<!-- Node2 -->
<g id="node2" class="node">
<title>Node2</title>
<g id="a_node2"><a xlink:href="guwhiteboard__c__types_8h.html" target="_top" xlink:title=" ">
<polygon fill="none" stroke="black" points="144,-207 144,-226 265,-226 265,-207 144,-207"/>
<text text-anchor="middle" x="204.5" y="-214" font-family="Helvetica,sans-Serif" font-size="10.00">guwhiteboard_c_types.h</text>
</a>
</g>
</g>
<!-- Node1&#45;&gt;Node2 -->
<g id="edge1" class="edge">
<title>Node1&#45;&gt;Node2</title>
<path fill="none" stroke="midnightblue" d="M314.31,-264.46C284.94,-251.9 247.12,-235.72 224.39,-226.01"/>
<polygon fill="midnightblue" stroke="midnightblue" points="312.95,-267.68 323.52,-268.4 315.7,-261.25 312.95,-267.68"/>
</g>
<!-- Node5 -->
<g id="node5" class="node">
<title>Node5</title>
<g id="a_node5"><a xlink:href="_mission_priority_for_obstacles_8hpp.html" target="_top" xlink:title=" ">
<polygon fill="none" stroke="black" points="283.5,-201.5 283.5,-231.5 429.5,-231.5 429.5,-201.5 283.5,-201.5"/>
<text text-anchor="start" x="291.5" y="-219.5" font-family="Helvetica,sans-Serif" font-size="10.00">typeClassDefs/MissionPriority</text>
<text text-anchor="middle" x="356.5" y="-208.5" font-family="Helvetica,sans-Serif" font-size="10.00">ForObstacles.hpp</text>
</a>
</g>
</g>
<!-- Node1&#45;&gt;Node5 -->
<g id="edge4" class="edge">
<title>Node1&#45;&gt;Node5</title>
<path fill="none" stroke="midnightblue" d="M356.5,-258.11C356.5,-249.15 356.5,-239.32 356.5,-231.58"/>
<polygon fill="midnightblue" stroke="midnightblue" points="353,-258.4 356.5,-268.4 360,-258.4 353,-258.4"/>
</g>
<!-- Node13 -->
<g id="node13" class="node">
<title>Node13</title>
<g id="a_node13"><a xlink:href="wb__mission__priority__for__obstacles_8c.html" target="_top" xlink:title=" ">
<polygon fill="none" stroke="black" points="447.5,-201.5 447.5,-231.5 581.5,-231.5 581.5,-201.5 447.5,-201.5"/>
<text text-anchor="start" x="455.5" y="-219.5" font-family="Helvetica,sans-Serif" font-size="10.00">typeClassDefs/wb_mission</text>
<text text-anchor="middle" x="514.5" y="-208.5" font-family="Helvetica,sans-Serif" font-size="10.00">_priority_for_obstacles.c</text>
</a>
</g>
</g>
<!-- Node1&#45;&gt;Node13 -->
<g id="edge12" class="edge">
<title>Node1&#45;&gt;Node13</title>
<path fill="none" stroke="midnightblue" d="M400.15,-264.54C425.43,-254.14 456.8,-241.24 480.28,-231.58"/>
<polygon fill="midnightblue" stroke="midnightblue" points="398.7,-261.35 390.78,-268.4 401.36,-267.83 398.7,-261.35"/>
</g>
<!-- Node3 -->
<g id="node3" class="node">
<title>Node3</title>
<g id="a_node3"><a xlink:href="guwhiteboarddeserialiser_8c.html" target="_top" xlink:title=" ">
<polygon fill="none" stroke="black" points="0,-140 0,-159 131,-159 131,-140 0,-140"/>
<text text-anchor="middle" x="65.5" y="-147" font-family="Helvetica,sans-Serif" font-size="10.00">guwhiteboarddeserialiser.c</text>
</a>
</g>
</g>
<!-- Node2&#45;&gt;Node3 -->
<g id="edge2" class="edge">
<title>Node2&#45;&gt;Node3</title>
<path fill="none" stroke="midnightblue" d="M176.94,-202.61C149.41,-189.74 107.85,-170.31 84.03,-159.17"/>
<polygon fill="midnightblue" stroke="midnightblue" points="175.5,-205.8 186.04,-206.87 178.47,-199.46 175.5,-205.8"/>
</g>
<!-- Node4 -->
<g id="node4" class="node">
<title>Node4</title>
<g id="a_node4"><a xlink:href="guwhiteboardserialiser_8c.html" target="_top" xlink:title=" ">
<polygon fill="none" stroke="black" points="149,-140 149,-159 270,-159 270,-140 149,-140"/>
<text text-anchor="middle" x="209.5" y="-147" font-family="Helvetica,sans-Serif" font-size="10.00">guwhiteboardserialiser.c</text>
</a>
</g>
</g>
<!-- Node2&#45;&gt;Node4 -->
<g id="edge3" class="edge">
<title>Node2&#45;&gt;Node4</title>
<path fill="none" stroke="midnightblue" d="M205.96,-196.54C206.91,-184.17 208.11,-168.62 208.84,-159.13"/>
<polygon fill="midnightblue" stroke="midnightblue" points="202.45,-196.49 205.17,-206.73 209.43,-197.03 202.45,-196.49"/>
</g>
<!-- Node6 -->
<g id="node6" class="node">
<title>Node6</title>
<g id="a_node6"><a xlink:href="guwhiteboardposter_8h.html" target="_top" xlink:title=" ">
<polygon fill="none" stroke="black" points="297,-140 297,-159 406,-159 406,-140 297,-140"/>
<text text-anchor="middle" x="351.5" y="-147" font-family="Helvetica,sans-Serif" font-size="10.00">guwhiteboardposter.h</text>
</a>
</g>
</g>
<!-- Node5&#45;&gt;Node6 -->
<g id="edge5" class="edge">
<title>Node5&#45;&gt;Node6</title>
<path fill="none" stroke="midnightblue" d="M354.63,-191.25C353.77,-180.02 352.8,-167.38 352.17,-159.19"/>
<polygon fill="midnightblue" stroke="midnightblue" points="351.16,-191.69 355.42,-201.4 358.14,-191.16 351.16,-191.69"/>
</g>
<!-- Node12 -->
<g id="node12" class="node">
<title>Node12</title>
<g id="a_node12"><a xlink:href="_mission_priority_for_obstacles_8h.html" target="_top" xlink:title=" ">
<polygon fill="none" stroke="black" points="424.5,-134.5 424.5,-164.5 570.5,-164.5 570.5,-134.5 424.5,-134.5"/>
<text text-anchor="start" x="432.5" y="-152.5" font-family="Helvetica,sans-Serif" font-size="10.00">typeClassDefs/MissionPriority</text>
<text text-anchor="middle" x="497.5" y="-141.5" font-family="Helvetica,sans-Serif" font-size="10.00">ForObstacles.h</text>
</a>
</g>
</g>
<!-- Node5&#45;&gt;Node12 -->
<g id="edge11" class="edge">
<title>Node5&#45;&gt;Node12</title>
<path fill="none" stroke="midnightblue" d="M396.35,-197.13C418.75,-186.8 446.28,-174.11 466.96,-164.58"/>
<polygon fill="midnightblue" stroke="midnightblue" points="394.71,-194.03 387.09,-201.4 397.64,-200.39 394.71,-194.03"/>
</g>
<!-- Node7 -->
<g id="node7" class="node">
<title>Node7</title>
<g id="a_node7"><a xlink:href="_simple_whiteboard_test_8h.html" target="_top" xlink:title=" ">
<polygon fill="none" stroke="black" points="152,-67.5 152,-97.5 277,-97.5 277,-67.5 152,-67.5"/>
<text text-anchor="start" x="160" y="-85.5" font-family="Helvetica,sans-Serif" font-size="10.00">SimpleWhiteboardTest</text>
<text text-anchor="middle" x="214.5" y="-74.5" font-family="Helvetica,sans-Serif" font-size="10.00">/SimpleWhiteboardTest.h</text>
</a>
</g>
</g>
<!-- Node6&#45;&gt;Node7 -->
<g id="edge6" class="edge">
<title>Node6&#45;&gt;Node7</title>
<path fill="none" stroke="midnightblue" d="M324.04,-135.47C300.88,-124.49 267.81,-108.79 244.07,-97.53"/>
<polygon fill="midnightblue" stroke="midnightblue" points="322.77,-138.74 333.31,-139.87 325.77,-132.42 322.77,-138.74"/>
</g>
<!-- Node9 -->
<g id="node9" class="node">
<title>Node9</title>
<g id="a_node9"><a xlink:href="guwhiteboardgetter_8h.html" target="_top" xlink:title=" ">
<polygon fill="none" stroke="black" points="298,-73 298,-92 405,-92 405,-73 298,-73"/>
<text text-anchor="middle" x="351.5" y="-80" font-family="Helvetica,sans-Serif" font-size="10.00">guwhiteboardgetter.h</text>
</a>
</g>
</g>
<!-- Node6&#45;&gt;Node9 -->
<g id="edge8" class="edge">
<title>Node6&#45;&gt;Node9</title>
<path fill="none" stroke="midnightblue" d="M351.5,-129.54C351.5,-117.17 351.5,-101.62 351.5,-92.13"/>
<polygon fill="midnightblue" stroke="midnightblue" points="348,-129.73 351.5,-139.73 355,-129.73 348,-129.73"/>
</g>
<!-- Node11 -->
<g id="node11" class="node">
<title>Node11</title>
<g id="a_node11"><a xlink:href="guwhiteboardposter_8cpp.html" target="_top" xlink:title=" ">
<polygon fill="none" stroke="black" points="423,-73 423,-92 542,-92 542,-73 423,-73"/>
<text text-anchor="middle" x="482.5" y="-80" font-family="Helvetica,sans-Serif" font-size="10.00">guwhiteboardposter.cpp</text>
</a>
</g>
</g>
<!-- Node6&#45;&gt;Node11 -->
<g id="edge10" class="edge">
<title>Node6&#45;&gt;Node11</title>
<path fill="none" stroke="midnightblue" d="M378.16,-135.27C404.1,-122.4 442.78,-103.21 465.03,-92.17"/>
<polygon fill="midnightblue" stroke="midnightblue" points="376.3,-132.29 368.9,-139.87 379.41,-138.56 376.3,-132.29"/>
</g>
<!-- Node8 -->
<g id="node8" class="node">
<title>Node8</title>
<g id="a_node8"><a xlink:href="_simple_whiteboard_test_8mm.html" target="_top" xlink:title=" ">
<polygon fill="none" stroke="black" points="141,-0.5 141,-30.5 278,-30.5 278,-0.5 141,-0.5"/>
<text text-anchor="start" x="149" y="-18.5" font-family="Helvetica,sans-Serif" font-size="10.00">SimpleWhiteboardTest</text>
<text text-anchor="middle" x="209.5" y="-7.5" font-family="Helvetica,sans-Serif" font-size="10.00">/SimpleWhiteboardTest.mm</text>
</a>
</g>
</g>
<!-- Node7&#45;&gt;Node8 -->
<g id="edge7" class="edge">
<title>Node7&#45;&gt;Node8</title>
<path fill="none" stroke="midnightblue" d="M212.65,-57.4C211.95,-48.37 211.19,-38.41 210.58,-30.58"/>
<polygon fill="midnightblue" stroke="midnightblue" points="209.16,-57.69 213.42,-67.4 216.14,-57.16 209.16,-57.69"/>
</g>
<!-- Node10 -->
<g id="node10" class="node">
<title>Node10</title>
<g id="a_node10"><a xlink:href="guwhiteboardgetter_8cpp.html" target="_top" xlink:title=" ">
<polygon fill="none" stroke="black" points="296,-6 296,-25 413,-25 413,-6 296,-6"/>
<text text-anchor="middle" x="354.5" y="-13" font-family="Helvetica,sans-Serif" font-size="10.00">guwhiteboardgetter.cpp</text>
</a>
</g>
</g>
<!-- Node9&#45;&gt;Node10 -->
<g id="edge9" class="edge">
<title>Node9&#45;&gt;Node10</title>
<path fill="none" stroke="midnightblue" d="M352.38,-62.54C352.95,-50.17 353.66,-34.62 354.1,-25.13"/>
<polygon fill="midnightblue" stroke="midnightblue" points="348.87,-62.58 351.9,-72.73 355.86,-62.91 348.87,-62.58"/>
</g>
</g>
</svg>
