<?xml version="1.0" encoding="UTF-8" standalone="no"?>
<!DOCTYPE svg PUBLIC "-//W3C//DTD SVG 1.1//EN"
 "http://www.w3.org/Graphics/SVG/1.1/DTD/svg11.dtd">
<!-- Generated by graphviz version 2.49.0 (20210830.1337)
 -->
<!-- Title: typeClassDefs/wb_pixel_coordinate.c Pages: 1 -->
<svg width="528pt" height="151pt"
 viewBox="0.00 0.00 528.00 151.00" xmlns="http://www.w3.org/2000/svg" xmlns:xlink="http://www.w3.org/1999/xlink">
<g id="graph0" class="graph" transform="scale(1 1) rotate(0) translate(4 147)">
<title>typeClassDefs/wb_pixel_coordinate.c</title>
<!-- Node1 -->
<g id="node1" class="node">
<title>Node1</title>
<g id="a_node1"><a xlink:title=" ">
<polygon fill="#bfbfbf" stroke="black" points="273.5,-112.5 273.5,-142.5 393.5,-142.5 393.5,-112.5 273.5,-112.5"/>
<text text-anchor="start" x="281.5" y="-130.5" font-family="Helvetica,sans-Serif" font-size="10.00">typeClassDefs/wb_pixel</text>
<text text-anchor="middle" x="333.5" y="-119.5" font-family="Helvetica,sans-Serif" font-size="10.00">_coordinate.c</text>
</a>
</g>
</g>
<!-- Node2 -->
<g id="node2" class="node">
<title>Node2</title>
<g id="a_node2"><a xlink:href="wb__pixel__coordinate_8h.html" target="_top" xlink:title=" ">
<polygon fill="none" stroke="black" points="82.5,-56.5 82.5,-75.5 194.5,-75.5 194.5,-56.5 82.5,-56.5"/>
<text text-anchor="middle" x="138.5" y="-63.5" font-family="Helvetica,sans-Serif" font-size="10.00">wb_pixel_coordinate.h</text>
</a>
</g>
</g>
<!-- Node1&#45;&gt;Node2 -->
<g id="edge1" class="edge">
<title>Node1&#45;&gt;Node2</title>
<path fill="none" stroke="midnightblue" d="M287.29,-112.4C253.45,-102.07 208.08,-88.23 176.37,-78.56"/>
<polygon fill="midnightblue" stroke="midnightblue" points="177.18,-75.14 166.59,-75.57 175.13,-81.84 177.18,-75.14"/>
</g>
<!-- Node7 -->
<g id="node7" class="node">
<title>Node7</title>
<g id="a_node7"><a xlink:title=" ">
<polygon fill="none" stroke="#bfbfbf" points="213,-56.5 213,-75.5 258,-75.5 258,-56.5 213,-56.5"/>
<text text-anchor="middle" x="235.5" y="-63.5" font-family="Helvetica,sans-Serif" font-size="10.00">stdio.h</text>
</a>
</g>
</g>
<!-- Node1&#45;&gt;Node7 -->
<g id="edge6" class="edge">
<title>Node1&#45;&gt;Node7</title>
<path fill="none" stroke="midnightblue" d="M310.28,-112.4C294.71,-102.95 274.3,-90.56 258.74,-81.11"/>
<polygon fill="midnightblue" stroke="midnightblue" points="260.12,-77.86 249.76,-75.66 256.49,-83.84 260.12,-77.86"/>
</g>
<!-- Node8 -->
<g id="node8" class="node">
<title>Node8</title>
<g id="a_node8"><a xlink:title=" ">
<polygon fill="none" stroke="#bfbfbf" points="276.5,-56.5 276.5,-75.5 324.5,-75.5 324.5,-56.5 276.5,-56.5"/>
<text text-anchor="middle" x="300.5" y="-63.5" font-family="Helvetica,sans-Serif" font-size="10.00">string.h</text>
</a>
</g>
</g>
<!-- Node1&#45;&gt;Node8 -->
<g id="edge7" class="edge">
<title>Node1&#45;&gt;Node8</title>
<path fill="none" stroke="midnightblue" d="M325.68,-112.4C321.03,-104.02 315.1,-93.33 310.16,-84.42"/>
<polygon fill="midnightblue" stroke="midnightblue" points="313.21,-82.71 305.3,-75.66 307.09,-86.1 313.21,-82.71"/>
</g>
<!-- Node9 -->
<g id="node9" class="node">
<title>Node9</title>
<g id="a_node9"><a xlink:title=" ">
<polygon fill="none" stroke="#bfbfbf" points="343,-56.5 343,-75.5 390,-75.5 390,-56.5 343,-56.5"/>
<text text-anchor="middle" x="366.5" y="-63.5" font-family="Helvetica,sans-Serif" font-size="10.00">stdlib.h</text>
</a>
</g>
</g>
<!-- Node1&#45;&gt;Node9 -->
<g id="edge8" class="edge">
<title>Node1&#45;&gt;Node9</title>
<path fill="none" stroke="midnightblue" d="M341.32,-112.4C345.97,-104.02 351.9,-93.33 356.84,-84.42"/>
<polygon fill="midnightblue" stroke="midnightblue" points="359.91,-86.1 361.7,-75.66 353.79,-82.71 359.91,-86.1"/>
</g>
<!-- Node10 -->
<g id="node10" class="node">
<title>Node10</title>
<g id="a_node10"><a xlink:title=" ">
<polygon fill="none" stroke="#bfbfbf" points="408,-56.5 408,-75.5 455,-75.5 455,-56.5 408,-56.5"/>
<text text-anchor="middle" x="431.5" y="-63.5" font-family="Helvetica,sans-Serif" font-size="10.00">ctype.h</text>
</a>
</g>
</g>
<!-- Node1&#45;&gt;Node10 -->
<g id="edge9" class="edge">
<title>Node1&#45;&gt;Node10</title>
<path fill="none" stroke="midnightblue" d="M356.72,-112.4C372.29,-102.95 392.7,-90.56 408.26,-81.11"/>
<polygon fill="midnightblue" stroke="midnightblue" points="410.51,-83.84 417.24,-75.66 406.88,-77.86 410.51,-83.84"/>
</g>
<!-- Node11 -->
<g id="node11" class="node">
<title>Node11</title>
<g id="a_node11"><a xlink:title=" ">
<polygon fill="none" stroke="#bfbfbf" points="473,-56.5 473,-75.5 520,-75.5 520,-56.5 473,-56.5"/>
<text text-anchor="middle" x="496.5" y="-63.5" font-family="Helvetica,sans-Serif" font-size="10.00">limits.h</text>
</a>
</g>
</g>
<!-- Node1&#45;&gt;Node11 -->
<g id="edge10" class="edge">
<title>Node1&#45;&gt;Node11</title>
<path fill="none" stroke="midnightblue" d="M372.13,-112.4C399.84,-102.28 436.81,-88.79 463.22,-79.15"/>
<polygon fill="midnightblue" stroke="midnightblue" points="464.59,-82.37 472.78,-75.66 462.19,-75.8 464.59,-82.37"/>
</g>
<!-- Node3 -->
<g id="node3" class="node">
<title>Node3</title>
<g id="a_node3"><a xlink:title=" ">
<polygon fill="none" stroke="#bfbfbf" points="0,-0.5 0,-19.5 53,-19.5 53,-0.5 0,-0.5"/>
<text text-anchor="middle" x="26.5" y="-7.5" font-family="Helvetica,sans-Serif" font-size="10.00">gu_util.h</text>
</a>
</g>
</g>
<!-- Node2&#45;&gt;Node3 -->
<g id="edge2" class="edge">
<title>Node2&#45;&gt;Node3</title>
<path fill="none" stroke="midnightblue" d="M120.51,-56.32C102.46,-47.62 74.45,-34.12 53.7,-24.11"/>
<polygon fill="midnightblue" stroke="midnightblue" points="54.98,-20.84 44.45,-19.65 51.94,-27.15 54.98,-20.84"/>
</g>
<!-- Node4 -->
<g id="node4" class="node">
<title>Node4</title>
<g id="a_node4"><a xlink:title=" ">
<polygon fill="none" stroke="#bfbfbf" points="71.5,-0.5 71.5,-19.5 119.5,-19.5 119.5,-0.5 71.5,-0.5"/>
<text text-anchor="middle" x="95.5" y="-7.5" font-family="Helvetica,sans-Serif" font-size="10.00">stdint.h</text>
</a>
</g>
</g>
<!-- Node2&#45;&gt;Node4 -->
<g id="edge3" class="edge">
<title>Node2&#45;&gt;Node4</title>
<path fill="none" stroke="midnightblue" d="M131.4,-56.08C125.26,-48.38 116.23,-37.03 108.76,-27.65"/>
<polygon fill="midnightblue" stroke="midnightblue" points="111.44,-25.39 102.47,-19.75 105.96,-29.75 111.44,-25.39"/>
</g>
<!-- Node5 -->
<g id="node5" class="node">
<title>Node5</title>
<g id="a_node5"><a xlink:title=" ">
<polygon fill="none" stroke="#bfbfbf" points="137.5,-0.5 137.5,-19.5 227.5,-19.5 227.5,-0.5 137.5,-0.5"/>
<text text-anchor="middle" x="182.5" y="-7.5" font-family="Helvetica,sans-Serif" font-size="10.00">guunits/guunits.h</text>
</a>
</g>
</g>
<!-- Node2&#45;&gt;Node5 -->
<g id="edge4" class="edge">
<title>Node2&#45;&gt;Node5</title>
<path fill="none" stroke="midnightblue" d="M145.77,-56.08C152.04,-48.38 161.29,-37.03 168.93,-27.65"/>
<polygon fill="midnightblue" stroke="midnightblue" points="171.77,-29.71 175.37,-19.75 166.34,-25.29 171.77,-29.71"/>
</g>
<!-- Node6 -->
<g id="node6" class="node">
<title>Node6</title>
<g id="a_node6"><a xlink:title=" ">
<polygon fill="none" stroke="#bfbfbf" points="246,-0.5 246,-19.5 395,-19.5 395,-0.5 246,-0.5"/>
<text text-anchor="middle" x="320.5" y="-7.5" font-family="Helvetica,sans-Serif" font-size="10.00">gucoordinates/gucoordinates.h</text>
</a>
</g>
</g>
<!-- Node2&#45;&gt;Node6 -->
<g id="edge5" class="edge">
<title>Node2&#45;&gt;Node6</title>
<path fill="none" stroke="midnightblue" d="M167.34,-56.44C198.36,-47.24 247.83,-32.56 282.12,-22.39"/>
<polygon fill="midnightblue" stroke="midnightblue" points="283.21,-25.72 291.8,-19.52 281.21,-19.01 283.21,-25.72"/>
</g>
</g>
</svg>
