<?xml version="1.0" encoding="UTF-8" standalone="no"?>
<!DOCTYPE svg PUBLIC "-//W3C//DTD SVG 1.1//EN"
 "http://www.w3.org/Graphics/SVG/1.1/DTD/svg11.dtd">
<!-- Generated by graphviz version 2.49.0 (20210830.1337)
 -->
<!-- Title: typeClassDefs/wb_fsm_control_status.h Pages: 1 -->
<svg width="696pt" height="419pt"
 viewBox="0.00 0.00 696.36 419.00" xmlns="http://www.w3.org/2000/svg" xmlns:xlink="http://www.w3.org/1999/xlink">
<g id="graph0" class="graph" transform="scale(1 1) rotate(0) translate(4 415)">
<title>typeClassDefs/wb_fsm_control_status.h</title>
<!-- Node1 -->
<g id="node1" class="node">
<title>Node1</title>
<g id="a_node1"><a xlink:title=" ">
<polygon fill="#bfbfbf" stroke="black" points="102,-380.5 102,-410.5 219,-410.5 219,-380.5 102,-380.5"/>
<text text-anchor="start" x="110" y="-398.5" font-family="Helvetica,sans-Serif" font-size="10.00">typeClassDefs/wb_fsm</text>
<text text-anchor="middle" x="160.5" y="-387.5" font-family="Helvetica,sans-Serif" font-size="10.00">_control_status.h</text>
</a>
</g>
</g>
<!-- Node2 -->
<g id="node2" class="node">
<title>Node2</title>
<g id="a_node2"><a xlink:href="_simple_whiteboard_test_plain_c_8m.html" target="_top" xlink:title=" ">
<polygon fill="none" stroke="black" points="0,-313.5 0,-343.5 157,-343.5 157,-313.5 0,-313.5"/>
<text text-anchor="start" x="8" y="-331.5" font-family="Helvetica,sans-Serif" font-size="10.00">SimpleWhiteboardTest</text>
<text text-anchor="middle" x="78.5" y="-320.5" font-family="Helvetica,sans-Serif" font-size="10.00">/SimpleWhiteboardTestPlainC.m</text>
</a>
</g>
</g>
<!-- Node1&#45;&gt;Node2 -->
<g id="edge1" class="edge">
<title>Node1&#45;&gt;Node2</title>
<path fill="none" stroke="midnightblue" d="M134.85,-374.17C122.31,-364.23 107.53,-352.51 96.26,-343.58"/>
<polygon fill="midnightblue" stroke="midnightblue" points="132.7,-376.93 142.71,-380.4 137.04,-371.44 132.7,-376.93"/>
</g>
<!-- Node3 -->
<g id="node3" class="node">
<title>Node3</title>
<g id="a_node3"><a xlink:href="_f_s_m_control_status_8hpp.html" target="_top" xlink:title=" ">
<polygon fill="none" stroke="black" points="175.5,-313.5 175.5,-343.5 309.5,-343.5 309.5,-313.5 175.5,-313.5"/>
<text text-anchor="start" x="183.5" y="-331.5" font-family="Helvetica,sans-Serif" font-size="10.00">typeClassDefs/FSMControl</text>
<text text-anchor="middle" x="242.5" y="-320.5" font-family="Helvetica,sans-Serif" font-size="10.00">Status.hpp</text>
</a>
</g>
</g>
<!-- Node1&#45;&gt;Node3 -->
<g id="edge2" class="edge">
<title>Node1&#45;&gt;Node3</title>
<path fill="none" stroke="midnightblue" d="M186.15,-374.17C198.69,-364.23 213.47,-352.51 224.74,-343.58"/>
<polygon fill="midnightblue" stroke="midnightblue" points="183.96,-371.44 178.29,-380.4 188.3,-376.93 183.96,-371.44"/>
</g>
<!-- Node4 -->
<g id="node4" class="node">
<title>Node4</title>
<g id="a_node4"><a xlink:href="guwhiteboardposter_8h.html" target="_top" xlink:title=" ">
<polygon fill="none" stroke="black" points="62,-134.5 62,-153.5 171,-153.5 171,-134.5 62,-134.5"/>
<text text-anchor="middle" x="116.5" y="-141.5" font-family="Helvetica,sans-Serif" font-size="10.00">guwhiteboardposter.h</text>
</a>
</g>
</g>
<!-- Node3&#45;&gt;Node4 -->
<g id="edge3" class="edge">
<title>Node3&#45;&gt;Node4</title>
<path fill="none" stroke="midnightblue" d="M214.26,-307.02C187.38,-285.89 148.08,-250.39 127.5,-210 118.05,-191.44 116.47,-166.42 116.36,-153.5"/>
<polygon fill="midnightblue" stroke="midnightblue" points="212.45,-310.04 222.51,-313.36 216.71,-304.49 212.45,-310.04"/>
</g>
<!-- Node10 -->
<g id="node10" class="node">
<title>Node10</title>
<g id="a_node10"><a xlink:href="_f_s_m_control_status_8h.html" target="_top" xlink:title=" ">
<polygon fill="none" stroke="black" points="309.5,-246.5 309.5,-276.5 443.5,-276.5 443.5,-246.5 309.5,-246.5"/>
<text text-anchor="start" x="317.5" y="-264.5" font-family="Helvetica,sans-Serif" font-size="10.00">typeClassDefs/FSMControl</text>
<text text-anchor="middle" x="376.5" y="-253.5" font-family="Helvetica,sans-Serif" font-size="10.00">Status.h</text>
</a>
</g>
</g>
<!-- Node3&#45;&gt;Node10 -->
<g id="edge9" class="edge">
<title>Node3&#45;&gt;Node10</title>
<path fill="none" stroke="midnightblue" d="M280.65,-308.99C301.89,-298.69 327.91,-286.07 347.48,-276.58"/>
<polygon fill="midnightblue" stroke="midnightblue" points="279.05,-305.88 271.58,-313.4 282.1,-312.18 279.05,-305.88"/>
</g>
<!-- Node5 -->
<g id="node5" class="node">
<title>Node5</title>
<g id="a_node5"><a xlink:href="_simple_whiteboard_test_8h.html" target="_top" xlink:title=" ">
<polygon fill="none" stroke="black" points="326,-67.5 326,-97.5 451,-97.5 451,-67.5 326,-67.5"/>
<text text-anchor="start" x="334" y="-85.5" font-family="Helvetica,sans-Serif" font-size="10.00">SimpleWhiteboardTest</text>
<text text-anchor="middle" x="388.5" y="-74.5" font-family="Helvetica,sans-Serif" font-size="10.00">/SimpleWhiteboardTest.h</text>
</a>
</g>
</g>
<!-- Node4&#45;&gt;Node5 -->
<g id="edge4" class="edge">
<title>Node4&#45;&gt;Node5</title>
<path fill="none" stroke="midnightblue" d="M165.27,-132.33C210.2,-122.5 277.12,-107.87 325.96,-97.18"/>
<polygon fill="midnightblue" stroke="midnightblue" points="164.49,-128.92 155.47,-134.48 165.99,-135.76 164.49,-128.92"/>
</g>
<!-- Node7 -->
<g id="node7" class="node">
<title>Node7</title>
<g id="a_node7"><a xlink:href="guwhiteboardgetter_8h.html" target="_top" xlink:title=" ">
<polygon fill="none" stroke="black" points="49,-73 49,-92 156,-92 156,-73 49,-73"/>
<text text-anchor="middle" x="102.5" y="-80" font-family="Helvetica,sans-Serif" font-size="10.00">guwhiteboardgetter.h</text>
</a>
</g>
</g>
<!-- Node4&#45;&gt;Node7 -->
<g id="edge6" class="edge">
<title>Node4&#45;&gt;Node7</title>
<path fill="none" stroke="midnightblue" d="M112.18,-124.66C109.62,-113.77 106.5,-100.49 104.5,-92.01"/>
<polygon fill="midnightblue" stroke="midnightblue" points="108.8,-125.54 114.49,-134.48 115.61,-123.94 108.8,-125.54"/>
</g>
<!-- Node9 -->
<g id="node9" class="node">
<title>Node9</title>
<g id="a_node9"><a xlink:href="guwhiteboardposter_8cpp.html" target="_top" xlink:title=" ">
<polygon fill="none" stroke="black" points="174,-73 174,-92 293,-92 293,-73 174,-73"/>
<text text-anchor="middle" x="233.5" y="-80" font-family="Helvetica,sans-Serif" font-size="10.00">guwhiteboardposter.cpp</text>
</a>
</g>
</g>
<!-- Node4&#45;&gt;Node9 -->
<g id="edge8" class="edge">
<title>Node4&#45;&gt;Node9</title>
<path fill="none" stroke="midnightblue" d="M142.33,-129.87C165,-118.33 197.32,-101.9 216.77,-92.01"/>
<polygon fill="midnightblue" stroke="midnightblue" points="140.59,-126.82 133.26,-134.48 143.76,-133.06 140.59,-126.82"/>
</g>
<!-- Node6 -->
<g id="node6" class="node">
<title>Node6</title>
<g id="a_node6"><a xlink:href="_simple_whiteboard_test_8mm.html" target="_top" xlink:title=" ">
<polygon fill="none" stroke="black" points="482,-0.5 482,-30.5 619,-30.5 619,-0.5 482,-0.5"/>
<text text-anchor="start" x="490" y="-18.5" font-family="Helvetica,sans-Serif" font-size="10.00">SimpleWhiteboardTest</text>
<text text-anchor="middle" x="550.5" y="-7.5" font-family="Helvetica,sans-Serif" font-size="10.00">/SimpleWhiteboardTest.mm</text>
</a>
</g>
</g>
<!-- Node5&#45;&gt;Node6 -->
<g id="edge5" class="edge">
<title>Node5&#45;&gt;Node6</title>
<path fill="none" stroke="midnightblue" d="M433.25,-63.54C459.17,-53.14 491.34,-40.24 515.42,-30.58"/>
<polygon fill="midnightblue" stroke="midnightblue" points="431.63,-60.42 423.65,-67.4 434.24,-66.92 431.63,-60.42"/>
</g>
<!-- Node8 -->
<g id="node8" class="node">
<title>Node8</title>
<g id="a_node8"><a xlink:href="guwhiteboardgetter_8cpp.html" target="_top" xlink:title=" ">
<polygon fill="none" stroke="black" points="44,-6 44,-25 161,-25 161,-6 44,-6"/>
<text text-anchor="middle" x="102.5" y="-13" font-family="Helvetica,sans-Serif" font-size="10.00">guwhiteboardgetter.cpp</text>
</a>
</g>
</g>
<!-- Node7&#45;&gt;Node8 -->
<g id="edge7" class="edge">
<title>Node7&#45;&gt;Node8</title>
<path fill="none" stroke="midnightblue" d="M102.5,-62.54C102.5,-50.17 102.5,-34.62 102.5,-25.13"/>
<polygon fill="midnightblue" stroke="midnightblue" points="99,-62.73 102.5,-72.73 106,-62.73 99,-62.73"/>
</g>
<!-- Node10&#45;&gt;Node6 -->
<g id="edge10" class="edge">
<title>Node10&#45;&gt;Node6</title>
<path fill="none" stroke="midnightblue" d="M454.05,-256.21C522.68,-250.6 615.43,-237.95 638.5,-210 657.49,-187 743.35,-253.45 633.5,-67 623.74,-50.43 606.21,-38.61 589.77,-30.58"/>
<polygon fill="midnightblue" stroke="midnightblue" points="453.39,-252.75 443.69,-257.02 453.93,-259.73 453.39,-252.75"/>
</g>
<!-- Node11 -->
<g id="node11" class="node">
<title>Node11</title>
<g id="a_node11"><a xlink:href="_f_s_m_names_8hpp.html" target="_top" xlink:title=" ">
<polygon fill="none" stroke="black" points="300,-190.5 300,-209.5 453,-209.5 453,-190.5 300,-190.5"/>
<text text-anchor="middle" x="376.5" y="-197.5" font-family="Helvetica,sans-Serif" font-size="10.00">typeClassDefs/FSMNames.hpp</text>
</a>
</g>
</g>
<!-- Node10&#45;&gt;Node11 -->
<g id="edge11" class="edge">
<title>Node10&#45;&gt;Node11</title>
<path fill="none" stroke="midnightblue" d="M376.5,-236.29C376.5,-226.86 376.5,-216.65 376.5,-209.66"/>
<polygon fill="midnightblue" stroke="midnightblue" points="373,-236.4 376.5,-246.4 380,-236.4 373,-236.4"/>
</g>
<!-- Node13 -->
<g id="node13" class="node">
<title>Node13</title>
<g id="a_node13"><a xlink:href="_f_s_m_state_8hpp.html" target="_top" xlink:title=" ">
<polygon fill="none" stroke="black" points="137,-190.5 137,-209.5 282,-209.5 282,-190.5 137,-190.5"/>
<text text-anchor="middle" x="209.5" y="-197.5" font-family="Helvetica,sans-Serif" font-size="10.00">typeClassDefs/FSMState.hpp</text>
</a>
</g>
</g>
<!-- Node10&#45;&gt;Node13 -->
<g id="edge14" class="edge">
<title>Node10&#45;&gt;Node13</title>
<path fill="none" stroke="midnightblue" d="M327.22,-242.94C296.46,-231.98 258.19,-218.35 233.8,-209.66"/>
<polygon fill="midnightblue" stroke="midnightblue" points="326.33,-246.34 336.92,-246.4 328.68,-239.75 326.33,-246.34"/>
</g>
<!-- Node15 -->
<g id="node15" class="node">
<title>Node15</title>
<g id="a_node15"><a xlink:href="_f_s_m___control_8hpp.html" target="_top" xlink:title=" ">
<polygon fill="none" stroke="black" points="471.5,-190.5 471.5,-209.5 629.5,-209.5 629.5,-190.5 471.5,-190.5"/>
<text text-anchor="middle" x="550.5" y="-197.5" font-family="Helvetica,sans-Serif" font-size="10.00">typeClassDefs/FSM_Control.hpp</text>
</a>
</g>
</g>
<!-- Node10&#45;&gt;Node15 -->
<g id="edge17" class="edge">
<title>Node10&#45;&gt;Node15</title>
<path fill="none" stroke="midnightblue" d="M427.46,-243.08C459.69,-232.05 499.93,-218.29 525.44,-209.57"/>
<polygon fill="midnightblue" stroke="midnightblue" points="426.07,-239.85 417.74,-246.4 428.33,-246.48 426.07,-239.85"/>
</g>
<!-- Node11&#45;&gt;Node4 -->
<g id="edge12" class="edge">
<title>Node11&#45;&gt;Node4</title>
<path fill="none" stroke="midnightblue" d="M325.51,-188.41C276.37,-178.2 202.97,-162.96 157.51,-153.52"/>
<polygon fill="midnightblue" stroke="midnightblue" points="324.8,-191.84 335.3,-190.44 326.22,-184.98 324.8,-191.84"/>
</g>
<!-- Node12 -->
<g id="node12" class="node">
<title>Node12</title>
<g id="a_node12"><a xlink:href="_f_s_m_names_8h.html" target="_top" xlink:title=" ">
<polygon fill="none" stroke="black" points="342,-134.5 342,-153.5 485,-153.5 485,-134.5 342,-134.5"/>
<text text-anchor="middle" x="413.5" y="-141.5" font-family="Helvetica,sans-Serif" font-size="10.00">typeClassDefs/FSMNames.h</text>
</a>
</g>
</g>
<!-- Node11&#45;&gt;Node12 -->
<g id="edge13" class="edge">
<title>Node11&#45;&gt;Node12</title>
<path fill="none" stroke="midnightblue" d="M388.45,-181.57C394.81,-172.27 402.37,-161.25 407.5,-153.75"/>
<polygon fill="midnightblue" stroke="midnightblue" points="385.37,-179.86 382.61,-190.08 391.15,-183.81 385.37,-179.86"/>
</g>
<!-- Node13&#45;&gt;Node4 -->
<g id="edge15" class="edge">
<title>Node13&#45;&gt;Node4</title>
<path fill="none" stroke="midnightblue" d="M185.69,-185.18C168.58,-175.24 146.03,-162.15 131.4,-153.65"/>
<polygon fill="midnightblue" stroke="midnightblue" points="184.15,-188.33 194.56,-190.32 187.67,-182.28 184.15,-188.33"/>
</g>
<!-- Node14 -->
<g id="node14" class="node">
<title>Node14</title>
<g id="a_node14"><a xlink:href="_f_s_m_state_8h.html" target="_top" xlink:title=" ">
<polygon fill="none" stroke="black" points="189.5,-134.5 189.5,-153.5 323.5,-153.5 323.5,-134.5 189.5,-134.5"/>
<text text-anchor="middle" x="256.5" y="-141.5" font-family="Helvetica,sans-Serif" font-size="10.00">typeClassDefs/FSMState.h</text>
</a>
</g>
</g>
<!-- Node13&#45;&gt;Node14 -->
<g id="edge16" class="edge">
<title>Node13&#45;&gt;Node14</title>
<path fill="none" stroke="midnightblue" d="M223.92,-182.43C232.16,-172.97 242.15,-161.48 248.88,-153.75"/>
<polygon fill="midnightblue" stroke="midnightblue" points="221.19,-180.24 217.26,-190.08 226.47,-184.84 221.19,-180.24"/>
</g>
<!-- Node16 -->
<g id="node16" class="node">
<title>Node16</title>
<g id="a_node16"><a xlink:href="_f_s_m___control_8h.html" target="_top" xlink:title=" ">
<polygon fill="none" stroke="black" points="477,-73 477,-92 624,-92 624,-73 477,-73"/>
<text text-anchor="middle" x="550.5" y="-80" font-family="Helvetica,sans-Serif" font-size="10.00">typeClassDefs/FSM_Control.h</text>
</a>
</g>
</g>
<!-- Node15&#45;&gt;Node16 -->
<g id="edge18" class="edge">
<title>Node15&#45;&gt;Node16</title>
<path fill="none" stroke="midnightblue" d="M550.5,-180.16C550.5,-154.87 550.5,-110.94 550.5,-92.28"/>
<polygon fill="midnightblue" stroke="midnightblue" points="547,-180.32 550.5,-190.32 554,-180.32 547,-180.32"/>
</g>
<!-- Node16&#45;&gt;Node6 -->
<g id="edge19" class="edge">
<title>Node16&#45;&gt;Node6</title>
<path fill="none" stroke="midnightblue" d="M550.5,-62.41C550.5,-52.22 550.5,-39.9 550.5,-30.59"/>
<polygon fill="midnightblue" stroke="midnightblue" points="547,-62.73 550.5,-72.73 554,-62.73 547,-62.73"/>
</g>
</g>
</svg>
