<?xml version="1.0" encoding="UTF-8" standalone="no"?>
<!DOCTYPE svg PUBLIC "-//W3C//DTD SVG 1.1//EN"
 "http://www.w3.org/Graphics/SVG/1.1/DTD/svg11.dtd">
<!-- Generated by graphviz version 2.49.0 (20210830.1337)
 -->
<!-- Title: typeClassDefs/wb_top_particles.h Pages: 1 -->
<svg width="747pt" height="307pt"
 viewBox="0.00 0.00 746.50 307.00" xmlns="http://www.w3.org/2000/svg" xmlns:xlink="http://www.w3.org/1999/xlink">
<g id="graph0" class="graph" transform="scale(1 1) rotate(0) translate(4 303)">
<title>typeClassDefs/wb_top_particles.h</title>
<!-- Node1 -->
<g id="node1" class="node">
<title>Node1</title>
<g id="a_node1"><a xlink:title=" ">
<polygon fill="#bfbfbf" stroke="black" points="307.5,-268.5 307.5,-298.5 421.5,-298.5 421.5,-268.5 307.5,-268.5"/>
<text text-anchor="start" x="315.5" y="-286.5" font-family="Helvetica,sans-Serif" font-size="10.00">typeClassDefs/wb_top</text>
<text text-anchor="middle" x="364.5" y="-275.5" font-family="Helvetica,sans-Serif" font-size="10.00">_particles.h</text>
</a>
</g>
</g>
<!-- Node2 -->
<g id="node2" class="node">
<title>Node2</title>
<g id="a_node2"><a xlink:href="guwhiteboard__c__types_8h.html" target="_top" xlink:title=" ">
<polygon fill="none" stroke="black" points="116,-140 116,-159 237,-159 237,-140 116,-140"/>
<text text-anchor="middle" x="176.5" y="-147" font-family="Helvetica,sans-Serif" font-size="10.00">guwhiteboard_c_types.h</text>
</a>
</g>
</g>
<!-- Node1&#45;&gt;Node2 -->
<g id="edge1" class="edge">
<title>Node1&#45;&gt;Node2</title>
<path fill="none" stroke="midnightblue" d="M297.52,-275.28C243.25,-267.88 173.02,-254.26 155.5,-232 138.15,-209.96 158.64,-175.13 169.97,-159.1"/>
<polygon fill="midnightblue" stroke="midnightblue" points="297.08,-278.75 307.45,-276.59 298,-271.81 297.08,-278.75"/>
</g>
<!-- Node5 -->
<g id="node5" class="node">
<title>Node5</title>
<g id="a_node5"><a xlink:href="guwhiteboard__c__types__manual__definitions_8h.html" target="_top" xlink:title=" ">
<polygon fill="none" stroke="black" points="165,-201.5 165,-231.5 278,-231.5 278,-201.5 165,-201.5"/>
<text text-anchor="start" x="173" y="-219.5" font-family="Helvetica,sans-Serif" font-size="10.00">guwhiteboard_c_types</text>
<text text-anchor="middle" x="221.5" y="-208.5" font-family="Helvetica,sans-Serif" font-size="10.00">_manual_definitions.h</text>
</a>
</g>
</g>
<!-- Node1&#45;&gt;Node5 -->
<g id="edge4" class="edge">
<title>Node1&#45;&gt;Node5</title>
<path fill="none" stroke="midnightblue" d="M324.09,-264.13C301.37,-253.8 273.44,-241.11 252.47,-231.58"/>
<polygon fill="midnightblue" stroke="midnightblue" points="322.92,-267.44 333.47,-268.4 325.82,-261.07 322.92,-267.44"/>
</g>
<!-- Node6 -->
<g id="node6" class="node">
<title>Node6</title>
<g id="a_node6"><a xlink:href="_top_particles-_bridging-_header_8hpp.html" target="_top" xlink:title=" ">
<polygon fill="none" stroke="black" points="296,-201.5 296,-231.5 433,-231.5 433,-201.5 296,-201.5"/>
<text text-anchor="start" x="304" y="-219.5" font-family="Helvetica,sans-Serif" font-size="10.00">typeClassDefs/TopParticles</text>
<text text-anchor="middle" x="364.5" y="-208.5" font-family="Helvetica,sans-Serif" font-size="10.00">&#45;Bridging&#45;Header.hpp</text>
</a>
</g>
</g>
<!-- Node1&#45;&gt;Node6 -->
<g id="edge6" class="edge">
<title>Node1&#45;&gt;Node6</title>
<path fill="none" stroke="midnightblue" d="M364.5,-258.11C364.5,-249.15 364.5,-239.32 364.5,-231.58"/>
<polygon fill="midnightblue" stroke="midnightblue" points="361,-258.4 364.5,-268.4 368,-258.4 361,-258.4"/>
</g>
<!-- Node8 -->
<g id="node8" class="node">
<title>Node8</title>
<g id="a_node8"><a xlink:href="_top_particles_8hpp.html" target="_top" xlink:title=" ">
<polygon fill="none" stroke="black" points="451,-207 451,-226 606,-226 606,-207 451,-207"/>
<text text-anchor="middle" x="528.5" y="-214" font-family="Helvetica,sans-Serif" font-size="10.00">typeClassDefs/TopParticles.hpp</text>
</a>
</g>
</g>
<!-- Node1&#45;&gt;Node8 -->
<g id="edge8" class="edge">
<title>Node1&#45;&gt;Node8</title>
<path fill="none" stroke="midnightblue" d="M409.61,-264.62C441.35,-252.04 482.41,-235.77 507.04,-226.01"/>
<polygon fill="midnightblue" stroke="midnightblue" points="408.09,-261.46 400.09,-268.4 410.67,-267.97 408.09,-261.46"/>
</g>
<!-- Node16 -->
<g id="node16" class="node">
<title>Node16</title>
<g id="a_node16"><a xlink:href="wb__top__particles_8c.html" target="_top" xlink:title=" ">
<polygon fill="none" stroke="black" points="624.5,-201.5 624.5,-231.5 738.5,-231.5 738.5,-201.5 624.5,-201.5"/>
<text text-anchor="start" x="632.5" y="-219.5" font-family="Helvetica,sans-Serif" font-size="10.00">typeClassDefs/wb_top</text>
<text text-anchor="middle" x="681.5" y="-208.5" font-family="Helvetica,sans-Serif" font-size="10.00">_particles.c</text>
</a>
</g>
</g>
<!-- Node1&#45;&gt;Node16 -->
<g id="edge16" class="edge">
<title>Node1&#45;&gt;Node16</title>
<path fill="none" stroke="midnightblue" d="M431.72,-269.31C482.3,-259.31 553.31,-245.09 615.5,-232 618.37,-231.4 621.31,-230.77 624.28,-230.14"/>
<polygon fill="midnightblue" stroke="midnightblue" points="431.01,-265.88 421.88,-271.26 432.37,-272.75 431.01,-265.88"/>
</g>
<!-- Node3 -->
<g id="node3" class="node">
<title>Node3</title>
<g id="a_node3"><a xlink:href="guwhiteboarddeserialiser_8c.html" target="_top" xlink:title=" ">
<polygon fill="none" stroke="black" points="0,-73 0,-92 131,-92 131,-73 0,-73"/>
<text text-anchor="middle" x="65.5" y="-80" font-family="Helvetica,sans-Serif" font-size="10.00">guwhiteboarddeserialiser.c</text>
</a>
</g>
</g>
<!-- Node2&#45;&gt;Node3 -->
<g id="edge2" class="edge">
<title>Node2&#45;&gt;Node3</title>
<path fill="none" stroke="midnightblue" d="M152.79,-134.62C130.8,-121.74 98.76,-102.98 80.23,-92.13"/>
<polygon fill="midnightblue" stroke="midnightblue" points="151.13,-137.7 161.53,-139.73 154.67,-131.66 151.13,-137.7"/>
</g>
<!-- Node4 -->
<g id="node4" class="node">
<title>Node4</title>
<g id="a_node4"><a xlink:href="guwhiteboardserialiser_8c.html" target="_top" xlink:title=" ">
<polygon fill="none" stroke="black" points="149,-73 149,-92 270,-92 270,-73 149,-73"/>
<text text-anchor="middle" x="209.5" y="-80" font-family="Helvetica,sans-Serif" font-size="10.00">guwhiteboardserialiser.c</text>
</a>
</g>
</g>
<!-- Node2&#45;&gt;Node4 -->
<g id="edge3" class="edge">
<title>Node2&#45;&gt;Node4</title>
<path fill="none" stroke="midnightblue" d="M185.56,-130.66C191.92,-118.13 200.15,-101.91 205.12,-92.13"/>
<polygon fill="midnightblue" stroke="midnightblue" points="182.36,-129.23 180.95,-139.73 188.6,-132.4 182.36,-129.23"/>
</g>
<!-- Node5&#45;&gt;Node2 -->
<g id="edge5" class="edge">
<title>Node5&#45;&gt;Node2</title>
<path fill="none" stroke="midnightblue" d="M205.91,-192.97C197.85,-181.33 188.48,-167.8 182.52,-159.19"/>
<polygon fill="midnightblue" stroke="midnightblue" points="203.17,-195.17 211.74,-201.4 208.92,-191.18 203.17,-195.17"/>
</g>
<!-- Node7 -->
<g id="node7" class="node">
<title>Node7</title>
<g id="a_node7"><a xlink:href="_top_particles-_bridging-_header_8h.html" target="_top" xlink:title=" ">
<polygon fill="none" stroke="black" points="296,-134.5 296,-164.5 433,-164.5 433,-134.5 296,-134.5"/>
<text text-anchor="start" x="304" y="-152.5" font-family="Helvetica,sans-Serif" font-size="10.00">typeClassDefs/TopParticles</text>
<text text-anchor="middle" x="364.5" y="-141.5" font-family="Helvetica,sans-Serif" font-size="10.00">&#45;Bridging&#45;Header.h</text>
</a>
</g>
</g>
<!-- Node6&#45;&gt;Node7 -->
<g id="edge7" class="edge">
<title>Node6&#45;&gt;Node7</title>
<path fill="none" stroke="midnightblue" d="M364.5,-191.11C364.5,-182.15 364.5,-172.32 364.5,-164.58"/>
<polygon fill="midnightblue" stroke="midnightblue" points="361,-191.4 364.5,-201.4 368,-191.4 361,-191.4"/>
</g>
<!-- Node9 -->
<g id="node9" class="node">
<title>Node9</title>
<g id="a_node9"><a xlink:href="guwhiteboardposter_8h.html" target="_top" xlink:title=" ">
<polygon fill="none" stroke="black" points="462,-140 462,-159 571,-159 571,-140 462,-140"/>
<text text-anchor="middle" x="516.5" y="-147" font-family="Helvetica,sans-Serif" font-size="10.00">guwhiteboardposter.h</text>
</a>
</g>
</g>
<!-- Node8&#45;&gt;Node9 -->
<g id="edge9" class="edge">
<title>Node8&#45;&gt;Node9</title>
<path fill="none" stroke="midnightblue" d="M525,-196.54C522.72,-184.17 519.85,-168.62 518.09,-159.13"/>
<polygon fill="midnightblue" stroke="midnightblue" points="521.62,-197.54 526.88,-206.73 528.51,-196.26 521.62,-197.54"/>
</g>
<!-- Node15 -->
<g id="node15" class="node">
<title>Node15</title>
<g id="a_node15"><a xlink:href="_top_particles_8h.html" target="_top" xlink:title=" ">
<polygon fill="none" stroke="black" points="589,-140 589,-159 734,-159 734,-140 589,-140"/>
<text text-anchor="middle" x="661.5" y="-147" font-family="Helvetica,sans-Serif" font-size="10.00">typeClassDefs/TopParticles.h</text>
</a>
</g>
</g>
<!-- Node8&#45;&gt;Node15 -->
<g id="edge15" class="edge">
<title>Node8&#45;&gt;Node15</title>
<path fill="none" stroke="midnightblue" d="M555.22,-202.44C581.56,-189.57 621.07,-170.26 643.77,-159.17"/>
<polygon fill="midnightblue" stroke="midnightblue" points="553.61,-199.33 546.16,-206.87 556.68,-205.62 553.61,-199.33"/>
</g>
<!-- Node10 -->
<g id="node10" class="node">
<title>Node10</title>
<g id="a_node10"><a xlink:href="_simple_whiteboard_test_8h.html" target="_top" xlink:title=" ">
<polygon fill="none" stroke="black" points="315,-67.5 315,-97.5 440,-97.5 440,-67.5 315,-67.5"/>
<text text-anchor="start" x="323" y="-85.5" font-family="Helvetica,sans-Serif" font-size="10.00">SimpleWhiteboardTest</text>
<text text-anchor="middle" x="377.5" y="-74.5" font-family="Helvetica,sans-Serif" font-size="10.00">/SimpleWhiteboardTest.h</text>
</a>
</g>
</g>
<!-- Node9&#45;&gt;Node10 -->
<g id="edge10" class="edge">
<title>Node9&#45;&gt;Node10</title>
<path fill="none" stroke="midnightblue" d="M488.96,-135.62C465.44,-124.63 431.69,-108.84 407.5,-97.53"/>
<polygon fill="midnightblue" stroke="midnightblue" points="487.5,-138.8 498.04,-139.87 490.47,-132.46 487.5,-138.8"/>
</g>
<!-- Node12 -->
<g id="node12" class="node">
<title>Node12</title>
<g id="a_node12"><a xlink:href="guwhiteboardgetter_8h.html" target="_top" xlink:title=" ">
<polygon fill="none" stroke="black" points="463,-73 463,-92 570,-92 570,-73 463,-73"/>
<text text-anchor="middle" x="516.5" y="-80" font-family="Helvetica,sans-Serif" font-size="10.00">guwhiteboardgetter.h</text>
</a>
</g>
</g>
<!-- Node9&#45;&gt;Node12 -->
<g id="edge12" class="edge">
<title>Node9&#45;&gt;Node12</title>
<path fill="none" stroke="midnightblue" d="M516.5,-129.54C516.5,-117.17 516.5,-101.62 516.5,-92.13"/>
<polygon fill="midnightblue" stroke="midnightblue" points="513,-129.73 516.5,-139.73 520,-129.73 513,-129.73"/>
</g>
<!-- Node14 -->
<g id="node14" class="node">
<title>Node14</title>
<g id="a_node14"><a xlink:href="guwhiteboardposter_8cpp.html" target="_top" xlink:title=" ">
<polygon fill="none" stroke="black" points="588,-73 588,-92 707,-92 707,-73 588,-73"/>
<text text-anchor="middle" x="647.5" y="-80" font-family="Helvetica,sans-Serif" font-size="10.00">guwhiteboardposter.cpp</text>
</a>
</g>
</g>
<!-- Node9&#45;&gt;Node14 -->
<g id="edge14" class="edge">
<title>Node9&#45;&gt;Node14</title>
<path fill="none" stroke="midnightblue" d="M543.16,-135.27C569.1,-122.4 607.78,-103.21 630.03,-92.17"/>
<polygon fill="midnightblue" stroke="midnightblue" points="541.3,-132.29 533.9,-139.87 544.41,-138.56 541.3,-132.29"/>
</g>
<!-- Node11 -->
<g id="node11" class="node">
<title>Node11</title>
<g id="a_node11"><a xlink:href="_simple_whiteboard_test_8mm.html" target="_top" xlink:title=" ">
<polygon fill="none" stroke="black" points="306,-0.5 306,-30.5 443,-30.5 443,-0.5 306,-0.5"/>
<text text-anchor="start" x="314" y="-18.5" font-family="Helvetica,sans-Serif" font-size="10.00">SimpleWhiteboardTest</text>
<text text-anchor="middle" x="374.5" y="-7.5" font-family="Helvetica,sans-Serif" font-size="10.00">/SimpleWhiteboardTest.mm</text>
</a>
</g>
</g>
<!-- Node10&#45;&gt;Node11 -->
<g id="edge11" class="edge">
<title>Node10&#45;&gt;Node11</title>
<path fill="none" stroke="midnightblue" d="M376.39,-57.4C375.97,-48.37 375.51,-38.41 375.15,-30.58"/>
<polygon fill="midnightblue" stroke="midnightblue" points="372.89,-57.57 376.85,-67.4 379.88,-57.25 372.89,-57.57"/>
</g>
<!-- Node13 -->
<g id="node13" class="node">
<title>Node13</title>
<g id="a_node13"><a xlink:href="guwhiteboardgetter_8cpp.html" target="_top" xlink:title=" ">
<polygon fill="none" stroke="black" points="461,-6 461,-25 578,-25 578,-6 461,-6"/>
<text text-anchor="middle" x="519.5" y="-13" font-family="Helvetica,sans-Serif" font-size="10.00">guwhiteboardgetter.cpp</text>
</a>
</g>
</g>
<!-- Node12&#45;&gt;Node13 -->
<g id="edge13" class="edge">
<title>Node12&#45;&gt;Node13</title>
<path fill="none" stroke="midnightblue" d="M517.38,-62.54C517.95,-50.17 518.66,-34.62 519.1,-25.13"/>
<polygon fill="midnightblue" stroke="midnightblue" points="513.87,-62.58 516.9,-72.73 520.86,-62.91 513.87,-62.58"/>
</g>
</g>
</svg>
