<?xml version="1.0" encoding="UTF-8" standalone="no"?>
<!DOCTYPE svg PUBLIC "-//W3C//DTD SVG 1.1//EN"
 "http://www.w3.org/Graphics/SVG/1.1/DTD/svg11.dtd">
<!-- Generated by graphviz version 2.49.0 (20210830.1337)
 -->
<!-- Title: typeClassDefs/wb_polar_coordinate.h Pages: 1 -->
<svg width="1014pt" height="709pt"
 viewBox="0.00 0.00 1014.00 709.00" xmlns="http://www.w3.org/2000/svg" xmlns:xlink="http://www.w3.org/1999/xlink">
<g id="graph0" class="graph" transform="scale(1 1) rotate(0) translate(4 705)">
<title>typeClassDefs/wb_polar_coordinate.h</title>
<!-- Node1 -->
<g id="node1" class="node">
<title>Node1</title>
<g id="a_node1"><a xlink:title=" ">
<polygon fill="#bfbfbf" stroke="black" points="523.5,-670.5 523.5,-700.5 645.5,-700.5 645.5,-670.5 523.5,-670.5"/>
<text text-anchor="start" x="531.5" y="-688.5" font-family="Helvetica,sans-Serif" font-size="10.00">typeClassDefs/wb_polar</text>
<text text-anchor="middle" x="584.5" y="-677.5" font-family="Helvetica,sans-Serif" font-size="10.00">_coordinate.h</text>
</a>
</g>
</g>
<!-- Node2 -->
<g id="node2" class="node">
<title>Node2</title>
<g id="a_node2"><a xlink:href="_polar_coordinate_8hpp.html" target="_top" xlink:title=" ">
<polygon fill="none" stroke="black" points="443.5,-609 443.5,-628 613.5,-628 613.5,-609 443.5,-609"/>
<text text-anchor="middle" x="528.5" y="-616" font-family="Helvetica,sans-Serif" font-size="10.00">typeClassDefs/PolarCoordinate.hpp</text>
</a>
</g>
</g>
<!-- Node1&#45;&gt;Node2 -->
<g id="edge1" class="edge">
<title>Node1&#45;&gt;Node2</title>
<path fill="none" stroke="midnightblue" d="M565.68,-662.66C555.52,-650.86 543.55,-636.97 535.99,-628.19"/>
<polygon fill="midnightblue" stroke="midnightblue" points="563.17,-665.1 572.35,-670.4 568.47,-660.54 563.17,-665.1"/>
</g>
<!-- Node20 -->
<g id="node20" class="node">
<title>Node20</title>
<g id="a_node20"><a xlink:href="wb__line__sighting_8h.html" target="_top" xlink:title=" ">
<polygon fill="none" stroke="black" points="311.5,-536.5 311.5,-566.5 427.5,-566.5 427.5,-536.5 311.5,-536.5"/>
<text text-anchor="start" x="319.5" y="-554.5" font-family="Helvetica,sans-Serif" font-size="10.00">typeClassDefs/wb_line</text>
<text text-anchor="middle" x="369.5" y="-543.5" font-family="Helvetica,sans-Serif" font-size="10.00">_sighting.h</text>
</a>
</g>
</g>
<!-- Node1&#45;&gt;Node20 -->
<g id="edge20" class="edge">
<title>Node1&#45;&gt;Node20</title>
<path fill="none" stroke="midnightblue" d="M513.21,-669.52C486.91,-661.75 457.85,-650.36 434.5,-634 408.71,-615.93 387.95,-584.77 377.3,-566.67"/>
<polygon fill="midnightblue" stroke="midnightblue" points="512.57,-672.97 523.14,-672.32 514.47,-666.23 512.57,-672.97"/>
</g>
<!-- Node27 -->
<g id="node27" class="node">
<title>Node27</title>
<g id="a_node27"><a xlink:href="wb__polar__coordinate_8c.html" target="_top" xlink:title=" ">
<polygon fill="none" stroke="black" points="669.5,-603.5 669.5,-633.5 791.5,-633.5 791.5,-603.5 669.5,-603.5"/>
<text text-anchor="start" x="677.5" y="-621.5" font-family="Helvetica,sans-Serif" font-size="10.00">typeClassDefs/wb_polar</text>
<text text-anchor="middle" x="730.5" y="-610.5" font-family="Helvetica,sans-Serif" font-size="10.00">_coordinate.c</text>
</a>
</g>
</g>
<!-- Node1&#45;&gt;Node27 -->
<g id="edge29" class="edge">
<title>Node1&#45;&gt;Node27</title>
<path fill="none" stroke="midnightblue" d="M625.45,-666.27C648.7,-655.92 677.37,-643.15 698.88,-633.58"/>
<polygon fill="midnightblue" stroke="midnightblue" points="623.89,-663.13 616.18,-670.4 626.74,-669.53 623.89,-663.13"/>
</g>
<!-- Node28 -->
<g id="node28" class="node">
<title>Node28</title>
<g id="a_node28"><a xlink:href="wb__vision__detection__feature_8h.html" target="_top" xlink:title=" ">
<polygon fill="none" stroke="black" points="628.5,-536.5 628.5,-566.5 754.5,-566.5 754.5,-536.5 628.5,-536.5"/>
<text text-anchor="start" x="636.5" y="-554.5" font-family="Helvetica,sans-Serif" font-size="10.00">typeClassDefs/wb_vision</text>
<text text-anchor="middle" x="691.5" y="-543.5" font-family="Helvetica,sans-Serif" font-size="10.00">_detection_feature.h</text>
</a>
</g>
</g>
<!-- Node1&#45;&gt;Node28 -->
<g id="edge30" class="edge">
<title>Node1&#45;&gt;Node28</title>
<path fill="none" stroke="midnightblue" d="M602.3,-662.54C624.42,-635.25 661.52,-589.48 680.13,-566.52"/>
<polygon fill="midnightblue" stroke="midnightblue" points="599.53,-660.4 595.95,-670.37 604.97,-664.81 599.53,-660.4"/>
</g>
<!-- Node3 -->
<g id="node3" class="node">
<title>Node3</title>
<g id="a_node3"><a xlink:href="_polar_coordinate_8h.html" target="_top" xlink:title=" ">
<polygon fill="none" stroke="black" points="449,-542 449,-561 608,-561 608,-542 449,-542"/>
<text text-anchor="middle" x="528.5" y="-549" font-family="Helvetica,sans-Serif" font-size="10.00">typeClassDefs/PolarCoordinate.h</text>
</a>
</g>
</g>
<!-- Node2&#45;&gt;Node3 -->
<g id="edge2" class="edge">
<title>Node2&#45;&gt;Node3</title>
<path fill="none" stroke="midnightblue" d="M528.5,-598.54C528.5,-586.17 528.5,-570.62 528.5,-561.13"/>
<polygon fill="midnightblue" stroke="midnightblue" points="525,-598.73 528.5,-608.73 532,-598.73 525,-598.73"/>
</g>
<!-- Node4 -->
<g id="node4" class="node">
<title>Node4</title>
<g id="a_node4"><a xlink:href="_line_sighting_8hpp.html" target="_top" xlink:title=" ">
<polygon fill="none" stroke="black" points="368,-475 368,-494 523,-494 523,-475 368,-475"/>
<text text-anchor="middle" x="445.5" y="-482" font-family="Helvetica,sans-Serif" font-size="10.00">typeClassDefs/LineSighting.hpp</text>
</a>
</g>
</g>
<!-- Node3&#45;&gt;Node4 -->
<g id="edge3" class="edge">
<title>Node3&#45;&gt;Node4</title>
<path fill="none" stroke="midnightblue" d="M509.43,-535.57C493.05,-522.74 470,-504.69 456.52,-494.13"/>
<polygon fill="midnightblue" stroke="midnightblue" points="507.28,-538.32 517.31,-541.73 511.59,-532.81 507.28,-538.32"/>
</g>
<!-- Node14 -->
<g id="node14" class="node">
<title>Node14</title>
<g id="a_node14"><a xlink:href="_vision_detection_feature_8hpp.html" target="_top" xlink:title=" ">
<polygon fill="none" stroke="black" points="541,-469.5 541,-499.5 692,-499.5 692,-469.5 541,-469.5"/>
<text text-anchor="start" x="549" y="-487.5" font-family="Helvetica,sans-Serif" font-size="10.00">typeClassDefs/VisionDetection</text>
<text text-anchor="middle" x="616.5" y="-476.5" font-family="Helvetica,sans-Serif" font-size="10.00">Feature.hpp</text>
</a>
</g>
</g>
<!-- Node3&#45;&gt;Node14 -->
<g id="edge13" class="edge">
<title>Node3&#45;&gt;Node14</title>
<path fill="none" stroke="midnightblue" d="M548.75,-535.54C563.39,-524.73 583.06,-510.2 597.43,-499.59"/>
<polygon fill="midnightblue" stroke="midnightblue" points="546.33,-532.98 540.37,-541.73 550.49,-538.61 546.33,-532.98"/>
</g>
<!-- Node5 -->
<g id="node5" class="node">
<title>Node5</title>
<g id="a_node5"><a xlink:href="_line_sighting_8h.html" target="_top" xlink:title=" ">
<polygon fill="none" stroke="black" points="319.5,-408 319.5,-427 463.5,-427 463.5,-408 319.5,-408"/>
<text text-anchor="middle" x="391.5" y="-415" font-family="Helvetica,sans-Serif" font-size="10.00">typeClassDefs/LineSighting.h</text>
</a>
</g>
</g>
<!-- Node4&#45;&gt;Node5 -->
<g id="edge4" class="edge">
<title>Node4&#45;&gt;Node5</title>
<path fill="none" stroke="midnightblue" d="M431.6,-466.77C421.07,-454.1 407.04,-437.2 398.67,-427.13"/>
<polygon fill="midnightblue" stroke="midnightblue" points="429.13,-469.28 438.22,-474.73 434.52,-464.81 429.13,-469.28"/>
</g>
<!-- Node6 -->
<g id="node6" class="node">
<title>Node6</title>
<g id="a_node6"><a xlink:href="_machine_filtered_lines_8hpp.html" target="_top" xlink:title=" ">
<polygon fill="none" stroke="black" points="155.5,-335.5 155.5,-365.5 307.5,-365.5 307.5,-335.5 155.5,-335.5"/>
<text text-anchor="start" x="163.5" y="-353.5" font-family="Helvetica,sans-Serif" font-size="10.00">typeClassDefs/MachineFiltered</text>
<text text-anchor="middle" x="231.5" y="-342.5" font-family="Helvetica,sans-Serif" font-size="10.00">Lines.hpp</text>
</a>
</g>
</g>
<!-- Node5&#45;&gt;Node6 -->
<g id="edge5" class="edge">
<title>Node5&#45;&gt;Node6</title>
<path fill="none" stroke="midnightblue" d="M360.87,-404.06C333.77,-393.05 294.25,-376.99 266.03,-365.53"/>
<polygon fill="midnightblue" stroke="midnightblue" points="359.67,-407.35 370.25,-407.87 362.31,-400.86 359.67,-407.35"/>
</g>
<!-- Node7 -->
<g id="node7" class="node">
<title>Node7</title>
<g id="a_node7"><a xlink:href="guwhiteboardposter_8h.html" target="_top" xlink:title=" ">
<polygon fill="none" stroke="black" points="280,-140 280,-159 389,-159 389,-140 280,-140"/>
<text text-anchor="middle" x="334.5" y="-147" font-family="Helvetica,sans-Serif" font-size="10.00">guwhiteboardposter.h</text>
</a>
</g>
</g>
<!-- Node6&#45;&gt;Node7 -->
<g id="edge6" class="edge">
<title>Node6&#45;&gt;Node7</title>
<path fill="none" stroke="midnightblue" d="M181.1,-330.75C167.45,-323.08 154.3,-312.71 146.5,-299 139.69,-287.03 139.82,-280.05 146.5,-268 180.37,-206.9 260.71,-173.37 304.61,-159.04"/>
<polygon fill="midnightblue" stroke="midnightblue" points="179.61,-333.91 190.1,-335.4 182.83,-327.7 179.61,-333.91"/>
</g>
<!-- Node13 -->
<g id="node13" class="node">
<title>Node13</title>
<g id="a_node13"><a xlink:href="_machine_filtered_lines_8h.html" target="_top" xlink:title=" ">
<polygon fill="none" stroke="black" points="155.5,-268.5 155.5,-298.5 307.5,-298.5 307.5,-268.5 155.5,-268.5"/>
<text text-anchor="start" x="163.5" y="-286.5" font-family="Helvetica,sans-Serif" font-size="10.00">typeClassDefs/MachineFiltered</text>
<text text-anchor="middle" x="231.5" y="-275.5" font-family="Helvetica,sans-Serif" font-size="10.00">Lines.h</text>
</a>
</g>
</g>
<!-- Node6&#45;&gt;Node13 -->
<g id="edge12" class="edge">
<title>Node6&#45;&gt;Node13</title>
<path fill="none" stroke="midnightblue" d="M231.5,-325.11C231.5,-316.15 231.5,-306.32 231.5,-298.58"/>
<polygon fill="midnightblue" stroke="midnightblue" points="228,-325.4 231.5,-335.4 235,-325.4 228,-325.4"/>
</g>
<!-- Node8 -->
<g id="node8" class="node">
<title>Node8</title>
<g id="a_node8"><a xlink:href="_simple_whiteboard_test_8h.html" target="_top" xlink:title=" ">
<polygon fill="none" stroke="black" points="135,-67.5 135,-97.5 260,-97.5 260,-67.5 135,-67.5"/>
<text text-anchor="start" x="143" y="-85.5" font-family="Helvetica,sans-Serif" font-size="10.00">SimpleWhiteboardTest</text>
<text text-anchor="middle" x="197.5" y="-74.5" font-family="Helvetica,sans-Serif" font-size="10.00">/SimpleWhiteboardTest.h</text>
</a>
</g>
</g>
<!-- Node7&#45;&gt;Node8 -->
<g id="edge7" class="edge">
<title>Node7&#45;&gt;Node8</title>
<path fill="none" stroke="midnightblue" d="M307.04,-135.47C283.88,-124.49 250.81,-108.79 227.07,-97.53"/>
<polygon fill="midnightblue" stroke="midnightblue" points="305.77,-138.74 316.31,-139.87 308.77,-132.42 305.77,-138.74"/>
</g>
<!-- Node10 -->
<g id="node10" class="node">
<title>Node10</title>
<g id="a_node10"><a xlink:href="guwhiteboardgetter_8h.html" target="_top" xlink:title=" ">
<polygon fill="none" stroke="black" points="281,-73 281,-92 388,-92 388,-73 281,-73"/>
<text text-anchor="middle" x="334.5" y="-80" font-family="Helvetica,sans-Serif" font-size="10.00">guwhiteboardgetter.h</text>
</a>
</g>
</g>
<!-- Node7&#45;&gt;Node10 -->
<g id="edge9" class="edge">
<title>Node7&#45;&gt;Node10</title>
<path fill="none" stroke="midnightblue" d="M334.5,-129.54C334.5,-117.17 334.5,-101.62 334.5,-92.13"/>
<polygon fill="midnightblue" stroke="midnightblue" points="331,-129.73 334.5,-139.73 338,-129.73 331,-129.73"/>
</g>
<!-- Node12 -->
<g id="node12" class="node">
<title>Node12</title>
<g id="a_node12"><a xlink:href="guwhiteboardposter_8cpp.html" target="_top" xlink:title=" ">
<polygon fill="none" stroke="black" points="406,-73 406,-92 525,-92 525,-73 406,-73"/>
<text text-anchor="middle" x="465.5" y="-80" font-family="Helvetica,sans-Serif" font-size="10.00">guwhiteboardposter.cpp</text>
</a>
</g>
</g>
<!-- Node7&#45;&gt;Node12 -->
<g id="edge11" class="edge">
<title>Node7&#45;&gt;Node12</title>
<path fill="none" stroke="midnightblue" d="M361.16,-135.27C387.1,-122.4 425.78,-103.21 448.03,-92.17"/>
<polygon fill="midnightblue" stroke="midnightblue" points="359.3,-132.29 351.9,-139.87 362.41,-138.56 359.3,-132.29"/>
</g>
<!-- Node9 -->
<g id="node9" class="node">
<title>Node9</title>
<g id="a_node9"><a xlink:href="_simple_whiteboard_test_8mm.html" target="_top" xlink:title=" ">
<polygon fill="none" stroke="black" points="124,-0.5 124,-30.5 261,-30.5 261,-0.5 124,-0.5"/>
<text text-anchor="start" x="132" y="-18.5" font-family="Helvetica,sans-Serif" font-size="10.00">SimpleWhiteboardTest</text>
<text text-anchor="middle" x="192.5" y="-7.5" font-family="Helvetica,sans-Serif" font-size="10.00">/SimpleWhiteboardTest.mm</text>
</a>
</g>
</g>
<!-- Node8&#45;&gt;Node9 -->
<g id="edge8" class="edge">
<title>Node8&#45;&gt;Node9</title>
<path fill="none" stroke="midnightblue" d="M195.65,-57.4C194.95,-48.37 194.19,-38.41 193.58,-30.58"/>
<polygon fill="midnightblue" stroke="midnightblue" points="192.16,-57.69 196.42,-67.4 199.14,-57.16 192.16,-57.69"/>
</g>
<!-- Node11 -->
<g id="node11" class="node">
<title>Node11</title>
<g id="a_node11"><a xlink:href="guwhiteboardgetter_8cpp.html" target="_top" xlink:title=" ">
<polygon fill="none" stroke="black" points="279,-6 279,-25 396,-25 396,-6 279,-6"/>
<text text-anchor="middle" x="337.5" y="-13" font-family="Helvetica,sans-Serif" font-size="10.00">guwhiteboardgetter.cpp</text>
</a>
</g>
</g>
<!-- Node10&#45;&gt;Node11 -->
<g id="edge10" class="edge">
<title>Node10&#45;&gt;Node11</title>
<path fill="none" stroke="midnightblue" d="M335.38,-62.54C335.95,-50.17 336.66,-34.62 337.1,-25.13"/>
<polygon fill="midnightblue" stroke="midnightblue" points="331.87,-62.58 334.9,-72.73 338.86,-62.91 331.87,-62.58"/>
</g>
<!-- Node15 -->
<g id="node15" class="node">
<title>Node15</title>
<g id="a_node15"><a xlink:href="_vision_detection_feature_8h.html" target="_top" xlink:title=" ">
<polygon fill="none" stroke="black" points="523,-402.5 523,-432.5 674,-432.5 674,-402.5 523,-402.5"/>
<text text-anchor="start" x="531" y="-420.5" font-family="Helvetica,sans-Serif" font-size="10.00">typeClassDefs/VisionDetection</text>
<text text-anchor="middle" x="598.5" y="-409.5" font-family="Helvetica,sans-Serif" font-size="10.00">Feature.h</text>
</a>
</g>
</g>
<!-- Node14&#45;&gt;Node15 -->
<g id="edge14" class="edge">
<title>Node14&#45;&gt;Node15</title>
<path fill="none" stroke="midnightblue" d="M609.91,-459.7C607.39,-450.59 604.59,-440.49 602.4,-432.58"/>
<polygon fill="midnightblue" stroke="midnightblue" points="606.55,-460.69 612.59,-469.4 613.3,-458.82 606.55,-460.69"/>
</g>
<!-- Node16 -->
<g id="node16" class="node">
<title>Node16</title>
<g id="a_node16"><a xlink:href="_vision_detection_feature_array_8hpp.html" target="_top" xlink:title=" ">
<polygon fill="none" stroke="black" points="614,-335.5 614,-365.5 765,-365.5 765,-335.5 614,-335.5"/>
<text text-anchor="start" x="622" y="-353.5" font-family="Helvetica,sans-Serif" font-size="10.00">typeClassDefs/VisionDetection</text>
<text text-anchor="middle" x="689.5" y="-342.5" font-family="Helvetica,sans-Serif" font-size="10.00">FeatureArray.hpp</text>
</a>
</g>
</g>
<!-- Node15&#45;&gt;Node16 -->
<g id="edge15" class="edge">
<title>Node15&#45;&gt;Node16</title>
<path fill="none" stroke="midnightblue" d="M626.57,-396.45C640.57,-386.45 657.16,-374.6 669.79,-365.58"/>
<polygon fill="midnightblue" stroke="midnightblue" points="624.35,-393.74 618.25,-402.4 628.42,-399.43 624.35,-393.74"/>
</g>
<!-- Node17 -->
<g id="node17" class="node">
<title>Node17</title>
<g id="a_node17"><a xlink:href="_vision_detection_feature_array_8h.html" target="_top" xlink:title=" ">
<polygon fill="none" stroke="black" points="614,-268.5 614,-298.5 765,-298.5 765,-268.5 614,-268.5"/>
<text text-anchor="start" x="622" y="-286.5" font-family="Helvetica,sans-Serif" font-size="10.00">typeClassDefs/VisionDetection</text>
<text text-anchor="middle" x="689.5" y="-275.5" font-family="Helvetica,sans-Serif" font-size="10.00">FeatureArray.h</text>
</a>
</g>
</g>
<!-- Node16&#45;&gt;Node17 -->
<g id="edge16" class="edge">
<title>Node16&#45;&gt;Node17</title>
<path fill="none" stroke="midnightblue" d="M689.5,-325.11C689.5,-316.15 689.5,-306.32 689.5,-298.58"/>
<polygon fill="midnightblue" stroke="midnightblue" points="686,-325.4 689.5,-335.4 693,-325.4 686,-325.4"/>
</g>
<!-- Node18 -->
<g id="node18" class="node">
<title>Node18</title>
<g id="a_node18"><a xlink:href="_vision_detection_features_8hpp.html" target="_top" xlink:title=" ">
<polygon fill="none" stroke="black" points="614,-201.5 614,-231.5 765,-231.5 765,-201.5 614,-201.5"/>
<text text-anchor="start" x="622" y="-219.5" font-family="Helvetica,sans-Serif" font-size="10.00">typeClassDefs/VisionDetection</text>
<text text-anchor="middle" x="689.5" y="-208.5" font-family="Helvetica,sans-Serif" font-size="10.00">Features.hpp</text>
</a>
</g>
</g>
<!-- Node17&#45;&gt;Node18 -->
<g id="edge17" class="edge">
<title>Node17&#45;&gt;Node18</title>
<path fill="none" stroke="midnightblue" d="M689.5,-258.11C689.5,-249.15 689.5,-239.32 689.5,-231.58"/>
<polygon fill="midnightblue" stroke="midnightblue" points="686,-258.4 689.5,-268.4 693,-258.4 686,-258.4"/>
</g>
<!-- Node18&#45;&gt;Node7 -->
<g id="edge18" class="edge">
<title>Node18&#45;&gt;Node7</title>
<path fill="none" stroke="midnightblue" d="M603.65,-199.78C533.66,-186.97 437.48,-169.36 381.06,-159.03"/>
<polygon fill="midnightblue" stroke="midnightblue" points="603.31,-203.28 613.78,-201.64 604.57,-196.39 603.31,-203.28"/>
</g>
<!-- Node19 -->
<g id="node19" class="node">
<title>Node19</title>
<g id="a_node19"><a xlink:href="_vision_detection_features_8h.html" target="_top" xlink:title=" ">
<polygon fill="none" stroke="black" points="614,-134.5 614,-164.5 765,-164.5 765,-134.5 614,-134.5"/>
<text text-anchor="start" x="622" y="-152.5" font-family="Helvetica,sans-Serif" font-size="10.00">typeClassDefs/VisionDetection</text>
<text text-anchor="middle" x="689.5" y="-141.5" font-family="Helvetica,sans-Serif" font-size="10.00">Features.h</text>
</a>
</g>
</g>
<!-- Node18&#45;&gt;Node19 -->
<g id="edge19" class="edge">
<title>Node18&#45;&gt;Node19</title>
<path fill="none" stroke="midnightblue" d="M689.5,-191.11C689.5,-182.15 689.5,-172.32 689.5,-164.58"/>
<polygon fill="midnightblue" stroke="midnightblue" points="686,-191.4 689.5,-201.4 693,-191.4 686,-191.4"/>
</g>
<!-- Node20&#45;&gt;Node4 -->
<g id="edge21" class="edge">
<title>Node20&#45;&gt;Node4</title>
<path fill="none" stroke="midnightblue" d="M393.85,-529.67C407.89,-517.67 424.78,-503.22 435.33,-494.19"/>
<polygon fill="midnightblue" stroke="midnightblue" points="391.32,-527.24 385.99,-536.4 395.87,-532.56 391.32,-527.24"/>
</g>
<!-- Node21 -->
<g id="node21" class="node">
<title>Node21</title>
<g id="a_node21"><a xlink:href="wb__line__sighting_8c.html" target="_top" xlink:title=" ">
<polygon fill="none" stroke="black" points="233.5,-469.5 233.5,-499.5 349.5,-499.5 349.5,-469.5 233.5,-469.5"/>
<text text-anchor="start" x="241.5" y="-487.5" font-family="Helvetica,sans-Serif" font-size="10.00">typeClassDefs/wb_line</text>
<text text-anchor="middle" x="291.5" y="-476.5" font-family="Helvetica,sans-Serif" font-size="10.00">_sighting.c</text>
</a>
</g>
</g>
<!-- Node20&#45;&gt;Node21 -->
<g id="edge22" class="edge">
<title>Node20&#45;&gt;Node21</title>
<path fill="none" stroke="midnightblue" d="M344.76,-529.88C332.91,-520.01 319.02,-508.43 308.39,-499.58"/>
<polygon fill="midnightblue" stroke="midnightblue" points="342.65,-532.68 352.58,-536.4 347.13,-527.31 342.65,-532.68"/>
</g>
<!-- Node22 -->
<g id="node22" class="node">
<title>Node22</title>
<g id="a_node22"><a xlink:href="wb__machine__filtered__lines_8h.html" target="_top" xlink:title=" ">
<polygon fill="none" stroke="black" points="141,-402.5 141,-432.5 278,-432.5 278,-402.5 141,-402.5"/>
<text text-anchor="start" x="149" y="-420.5" font-family="Helvetica,sans-Serif" font-size="10.00">typeClassDefs/wb_machine</text>
<text text-anchor="middle" x="209.5" y="-409.5" font-family="Helvetica,sans-Serif" font-size="10.00">_filtered_lines.h</text>
</a>
</g>
</g>
<!-- Node20&#45;&gt;Node22 -->
<g id="edge23" class="edge">
<title>Node20&#45;&gt;Node22</title>
<path fill="none" stroke="midnightblue" d="M301.42,-541.93C273.76,-535.01 243.82,-522.53 224.5,-500 208.3,-481.11 207.14,-450.53 208.1,-432.69"/>
<polygon fill="midnightblue" stroke="midnightblue" points="300.96,-545.41 311.49,-544.23 302.52,-538.59 300.96,-545.41"/>
</g>
<!-- Node22&#45;&gt;Node6 -->
<g id="edge27" class="edge">
<title>Node22&#45;&gt;Node6</title>
<path fill="none" stroke="midnightblue" d="M217.56,-392.7C220.64,-383.59 224.06,-373.49 226.74,-365.58"/>
<polygon fill="midnightblue" stroke="midnightblue" points="214.16,-391.8 214.27,-402.4 220.79,-394.05 214.16,-391.8"/>
</g>
<!-- Node23 -->
<g id="node23" class="node">
<title>Node23</title>
<g id="a_node23"><a xlink:href="guwhiteboard__c__types_8h.html" target="_top" xlink:title=" ">
<polygon fill="none" stroke="black" points="403,-341 403,-360 524,-360 524,-341 403,-341"/>
<text text-anchor="middle" x="463.5" y="-348" font-family="Helvetica,sans-Serif" font-size="10.00">guwhiteboard_c_types.h</text>
</a>
</g>
</g>
<!-- Node22&#45;&gt;Node23 -->
<g id="edge24" class="edge">
<title>Node22&#45;&gt;Node23</title>
<path fill="none" stroke="midnightblue" d="M274.02,-399.99C323.79,-387.25 390.63,-370.15 430.17,-360.03"/>
<polygon fill="midnightblue" stroke="midnightblue" points="273.12,-396.61 264.3,-402.48 274.86,-403.39 273.12,-396.61"/>
</g>
<!-- Node26 -->
<g id="node26" class="node">
<title>Node26</title>
<g id="a_node26"><a xlink:href="wb__machine__filtered__lines_8c.html" target="_top" xlink:title=" ">
<polygon fill="none" stroke="black" points="0,-335.5 0,-365.5 137,-365.5 137,-335.5 0,-335.5"/>
<text text-anchor="start" x="8" y="-353.5" font-family="Helvetica,sans-Serif" font-size="10.00">typeClassDefs/wb_machine</text>
<text text-anchor="middle" x="68.5" y="-342.5" font-family="Helvetica,sans-Serif" font-size="10.00">_filtered_lines.c</text>
</a>
</g>
</g>
<!-- Node22&#45;&gt;Node26 -->
<g id="edge28" class="edge">
<title>Node22&#45;&gt;Node26</title>
<path fill="none" stroke="midnightblue" d="M169.65,-398.13C147.25,-387.8 119.72,-375.11 99.04,-365.58"/>
<polygon fill="midnightblue" stroke="midnightblue" points="168.36,-401.39 178.91,-402.4 171.29,-395.03 168.36,-401.39"/>
</g>
<!-- Node24 -->
<g id="node24" class="node">
<title>Node24</title>
<g id="a_node24"><a xlink:href="guwhiteboarddeserialiser_8c.html" target="_top" xlink:title=" ">
<polygon fill="none" stroke="black" points="326,-274 326,-293 457,-293 457,-274 326,-274"/>
<text text-anchor="middle" x="391.5" y="-281" font-family="Helvetica,sans-Serif" font-size="10.00">guwhiteboarddeserialiser.c</text>
</a>
</g>
</g>
<!-- Node23&#45;&gt;Node24 -->
<g id="edge25" class="edge">
<title>Node23&#45;&gt;Node24</title>
<path fill="none" stroke="midnightblue" d="M446.17,-333.86C432.02,-321.08 412.54,-303.49 401.06,-293.13"/>
<polygon fill="midnightblue" stroke="midnightblue" points="444.02,-336.63 453.79,-340.73 448.71,-331.43 444.02,-336.63"/>
</g>
<!-- Node25 -->
<g id="node25" class="node">
<title>Node25</title>
<g id="a_node25"><a xlink:href="guwhiteboardserialiser_8c.html" target="_top" xlink:title=" ">
<polygon fill="none" stroke="black" points="475,-274 475,-293 596,-293 596,-274 475,-274"/>
<text text-anchor="middle" x="535.5" y="-281" font-family="Helvetica,sans-Serif" font-size="10.00">guwhiteboardserialiser.c</text>
</a>
</g>
</g>
<!-- Node23&#45;&gt;Node25 -->
<g id="edge26" class="edge">
<title>Node23&#45;&gt;Node25</title>
<path fill="none" stroke="midnightblue" d="M480.83,-333.86C494.98,-321.08 514.46,-303.49 525.94,-293.13"/>
<polygon fill="midnightblue" stroke="midnightblue" points="478.29,-331.43 473.21,-340.73 482.98,-336.63 478.29,-331.43"/>
</g>
<!-- Node28&#45;&gt;Node14 -->
<g id="edge31" class="edge">
<title>Node28&#45;&gt;Node14</title>
<path fill="none" stroke="midnightblue" d="M667.38,-529.6C656.06,-519.78 642.86,-508.34 632.74,-499.58"/>
<polygon fill="midnightblue" stroke="midnightblue" points="665.38,-532.49 675.23,-536.4 669.96,-527.2 665.38,-532.49"/>
</g>
<!-- Node29 -->
<g id="node29" class="node">
<title>Node29</title>
<g id="a_node29"><a xlink:href="wb__vision__detection__feature_8c.html" target="_top" xlink:title=" ">
<polygon fill="none" stroke="black" points="859.5,-469.5 859.5,-499.5 985.5,-499.5 985.5,-469.5 859.5,-469.5"/>
<text text-anchor="start" x="867.5" y="-487.5" font-family="Helvetica,sans-Serif" font-size="10.00">typeClassDefs/wb_vision</text>
<text text-anchor="middle" x="922.5" y="-476.5" font-family="Helvetica,sans-Serif" font-size="10.00">_detection_feature.c</text>
</a>
</g>
</g>
<!-- Node28&#45;&gt;Node29 -->
<g id="edge32" class="edge">
<title>Node28&#45;&gt;Node29</title>
<path fill="none" stroke="midnightblue" d="M751.15,-533.71C788.74,-523.14 836.73,-509.63 872.35,-499.61"/>
<polygon fill="midnightblue" stroke="midnightblue" points="750.02,-530.4 741.34,-536.48 751.91,-537.14 750.02,-530.4"/>
</g>
<!-- Node30 -->
<g id="node30" class="node">
<title>Node30</title>
<g id="a_node30"><a xlink:href="wb__vision__detection__feature__array_8h.html" target="_top" xlink:title=" ">
<polygon fill="none" stroke="black" points="710,-469.5 710,-499.5 841,-499.5 841,-469.5 710,-469.5"/>
<text text-anchor="start" x="718" y="-487.5" font-family="Helvetica,sans-Serif" font-size="10.00">typeClassDefs/wb_vision</text>
<text text-anchor="middle" x="775.5" y="-476.5" font-family="Helvetica,sans-Serif" font-size="10.00">_detection_feature_array.h</text>
</a>
</g>
</g>
<!-- Node28&#45;&gt;Node30 -->
<g id="edge33" class="edge">
<title>Node28&#45;&gt;Node30</title>
<path fill="none" stroke="midnightblue" d="M717.78,-530.17C730.62,-520.23 745.76,-508.51 757.31,-499.58"/>
<polygon fill="midnightblue" stroke="midnightblue" points="715.49,-527.51 709.73,-536.4 719.78,-533.04 715.49,-527.51"/>
</g>
<!-- Node30&#45;&gt;Node16 -->
<g id="edge34" class="edge">
<title>Node30&#45;&gt;Node16</title>
<path fill="none" stroke="midnightblue" d="M748.68,-462.7C739.14,-454.27 728.94,-443.95 721.5,-433 706.98,-411.62 697.64,-382.7 692.99,-365.68"/>
<polygon fill="midnightblue" stroke="midnightblue" points="746.57,-465.5 756.46,-469.3 751.1,-460.16 746.57,-465.5"/>
</g>
<!-- Node31 -->
<g id="node31" class="node">
<title>Node31</title>
<g id="a_node31"><a xlink:href="wb__vision__detection__feature__array_8c.html" target="_top" xlink:title=" ">
<polygon fill="none" stroke="black" points="875,-402.5 875,-432.5 1006,-432.5 1006,-402.5 875,-402.5"/>
<text text-anchor="start" x="883" y="-420.5" font-family="Helvetica,sans-Serif" font-size="10.00">typeClassDefs/wb_vision</text>
<text text-anchor="middle" x="940.5" y="-409.5" font-family="Helvetica,sans-Serif" font-size="10.00">_detection_feature_array.c</text>
</a>
</g>
</g>
<!-- Node30&#45;&gt;Node31 -->
<g id="edge35" class="edge">
<title>Node30&#45;&gt;Node31</title>
<path fill="none" stroke="midnightblue" d="M820.73,-465.68C847.19,-455.26 880.13,-442.28 904.77,-432.58"/>
<polygon fill="midnightblue" stroke="midnightblue" points="819.32,-462.47 811.3,-469.4 821.89,-468.99 819.32,-462.47"/>
</g>
<!-- Node32 -->
<g id="node32" class="node">
<title>Node32</title>
<g id="a_node32"><a xlink:href="wb__vision__detection__features_8h.html" target="_top" xlink:title=" ">
<polygon fill="none" stroke="black" points="730.5,-402.5 730.5,-432.5 856.5,-432.5 856.5,-402.5 730.5,-402.5"/>
<text text-anchor="start" x="738.5" y="-420.5" font-family="Helvetica,sans-Serif" font-size="10.00">typeClassDefs/wb_vision</text>
<text text-anchor="middle" x="793.5" y="-409.5" font-family="Helvetica,sans-Serif" font-size="10.00">_detection_features.h</text>
</a>
</g>
</g>
<!-- Node30&#45;&gt;Node32 -->
<g id="edge36" class="edge">
<title>Node30&#45;&gt;Node32</title>
<path fill="none" stroke="midnightblue" d="M782.09,-459.7C784.61,-450.59 787.41,-440.49 789.6,-432.58"/>
<polygon fill="midnightblue" stroke="midnightblue" points="778.7,-458.82 779.41,-469.4 785.45,-460.69 778.7,-458.82"/>
</g>
<!-- Node32&#45;&gt;Node18 -->
<g id="edge38" class="edge">
<title>Node32&#45;&gt;Node18</title>
<path fill="none" stroke="midnightblue" d="M796.52,-392.42C799.18,-361.1 799.38,-305.9 774.5,-268 763.67,-251.5 745.41,-239.63 728.59,-231.57"/>
<polygon fill="midnightblue" stroke="midnightblue" points="793.03,-392.14 795.52,-402.44 800,-392.84 793.03,-392.14"/>
</g>
<!-- Node32&#45;&gt;Node23 -->
<g id="edge37" class="edge">
<title>Node32&#45;&gt;Node23</title>
<path fill="none" stroke="midnightblue" d="M720.43,-402.11C655.04,-389.23 561.37,-370.78 507.05,-360.08"/>
<polygon fill="midnightblue" stroke="midnightblue" points="719.78,-405.55 730.26,-404.04 721.13,-398.68 719.78,-405.55"/>
</g>
<!-- Node33 -->
<g id="node33" class="node">
<title>Node33</title>
<g id="a_node33"><a xlink:href="wb__vision__detection__features_8c.html" target="_top" xlink:title=" ">
<polygon fill="none" stroke="black" points="821.5,-335.5 821.5,-365.5 947.5,-365.5 947.5,-335.5 821.5,-335.5"/>
<text text-anchor="start" x="829.5" y="-353.5" font-family="Helvetica,sans-Serif" font-size="10.00">typeClassDefs/wb_vision</text>
<text text-anchor="middle" x="884.5" y="-342.5" font-family="Helvetica,sans-Serif" font-size="10.00">_detection_features.c</text>
</a>
</g>
</g>
<!-- Node32&#45;&gt;Node33 -->
<g id="edge39" class="edge">
<title>Node32&#45;&gt;Node33</title>
<path fill="none" stroke="midnightblue" d="M821.57,-396.45C835.57,-386.45 852.16,-374.6 864.79,-365.58"/>
<polygon fill="midnightblue" stroke="midnightblue" points="819.35,-393.74 813.25,-402.4 823.42,-399.43 819.35,-393.74"/>
</g>
</g>
</svg>
