<?xml version="1.0" encoding="UTF-8" standalone="no"?>
<!DOCTYPE svg PUBLIC "-//W3C//DTD SVG 1.1//EN"
 "http://www.w3.org/Graphics/SVG/1.1/DTD/svg11.dtd">
<!-- Generated by graphviz version 2.49.0 (20210830.1337)
 -->
<!-- Title: typeClassDefs/wb_filtered_arrayonedimobjects.h Pages: 1 -->
<svg width="751pt" height="307pt"
 viewBox="0.00 0.00 751.00 307.00" xmlns="http://www.w3.org/2000/svg" xmlns:xlink="http://www.w3.org/1999/xlink">
<g id="graph0" class="graph" transform="scale(1 1) rotate(0) translate(4 303)">
<title>typeClassDefs/wb_filtered_arrayonedimobjects.h</title>
<!-- Node1 -->
<g id="node1" class="node">
<title>Node1</title>
<g id="a_node1"><a xlink:title=" ">
<polygon fill="#bfbfbf" stroke="black" points="277,-268.5 277,-298.5 406,-298.5 406,-268.5 277,-268.5"/>
<text text-anchor="start" x="285" y="-286.5" font-family="Helvetica,sans-Serif" font-size="10.00">typeClassDefs/wb_filtered</text>
<text text-anchor="middle" x="341.5" y="-275.5" font-family="Helvetica,sans-Serif" font-size="10.00">_arrayonedimobjects.h</text>
</a>
</g>
</g>
<!-- Node2 -->
<g id="node2" class="node">
<title>Node2</title>
<g id="a_node2"><a xlink:href="guwhiteboard__c__types__manual__definitions_8h.html" target="_top" xlink:title=" ">
<polygon fill="none" stroke="black" points="140,-201.5 140,-231.5 253,-231.5 253,-201.5 140,-201.5"/>
<text text-anchor="start" x="148" y="-219.5" font-family="Helvetica,sans-Serif" font-size="10.00">guwhiteboard_c_types</text>
<text text-anchor="middle" x="196.5" y="-208.5" font-family="Helvetica,sans-Serif" font-size="10.00">_manual_definitions.h</text>
</a>
</g>
</g>
<!-- Node1&#45;&gt;Node2 -->
<g id="edge1" class="edge">
<title>Node1&#45;&gt;Node2</title>
<path fill="none" stroke="midnightblue" d="M300.83,-264.27C277.74,-253.92 249.26,-241.15 227.9,-231.58"/>
<polygon fill="midnightblue" stroke="midnightblue" points="299.48,-267.5 310.04,-268.4 302.34,-261.11 299.48,-267.5"/>
</g>
<!-- Node6 -->
<g id="node6" class="node">
<title>Node6</title>
<g id="a_node6"><a xlink:href="_filtered_array_one_dim_objects_8hpp.html" target="_top" xlink:title=" ">
<polygon fill="none" stroke="black" points="273,-201.5 273,-231.5 410,-231.5 410,-201.5 273,-201.5"/>
<text text-anchor="start" x="281" y="-219.5" font-family="Helvetica,sans-Serif" font-size="10.00">typeClassDefs/FilteredArray</text>
<text text-anchor="middle" x="341.5" y="-208.5" font-family="Helvetica,sans-Serif" font-size="10.00">OneDimObjects.hpp</text>
</a>
</g>
</g>
<!-- Node1&#45;&gt;Node6 -->
<g id="edge5" class="edge">
<title>Node1&#45;&gt;Node6</title>
<path fill="none" stroke="midnightblue" d="M341.5,-258.11C341.5,-249.15 341.5,-239.32 341.5,-231.58"/>
<polygon fill="midnightblue" stroke="midnightblue" points="338,-258.4 341.5,-268.4 345,-258.4 338,-258.4"/>
</g>
<!-- Node14 -->
<g id="node14" class="node">
<title>Node14</title>
<g id="a_node14"><a xlink:href="wb__filtered__arrayonedimobjects_8c.html" target="_top" xlink:title=" ">
<polygon fill="none" stroke="black" points="428,-201.5 428,-231.5 557,-231.5 557,-201.5 428,-201.5"/>
<text text-anchor="start" x="436" y="-219.5" font-family="Helvetica,sans-Serif" font-size="10.00">typeClassDefs/wb_filtered</text>
<text text-anchor="middle" x="492.5" y="-208.5" font-family="Helvetica,sans-Serif" font-size="10.00">_arrayonedimobjects.c</text>
</a>
</g>
</g>
<!-- Node1&#45;&gt;Node14 -->
<g id="edge14" class="edge">
<title>Node1&#45;&gt;Node14</title>
<path fill="none" stroke="midnightblue" d="M383.53,-264.41C407.64,-254.03 437.45,-241.2 459.8,-231.58"/>
<polygon fill="midnightblue" stroke="midnightblue" points="382.07,-261.23 374.26,-268.4 384.83,-267.66 382.07,-261.23"/>
</g>
<!-- Node3 -->
<g id="node3" class="node">
<title>Node3</title>
<g id="a_node3"><a xlink:href="guwhiteboard__c__types_8h.html" target="_top" xlink:title=" ">
<polygon fill="none" stroke="black" points="134,-140 134,-159 255,-159 255,-140 134,-140"/>
<text text-anchor="middle" x="194.5" y="-147" font-family="Helvetica,sans-Serif" font-size="10.00">guwhiteboard_c_types.h</text>
</a>
</g>
</g>
<!-- Node2&#45;&gt;Node3 -->
<g id="edge2" class="edge">
<title>Node2&#45;&gt;Node3</title>
<path fill="none" stroke="midnightblue" d="M195.75,-191.25C195.41,-180.02 195.02,-167.38 194.77,-159.19"/>
<polygon fill="midnightblue" stroke="midnightblue" points="192.26,-191.51 196.07,-201.4 199.26,-191.29 192.26,-191.51"/>
</g>
<!-- Node4 -->
<g id="node4" class="node">
<title>Node4</title>
<g id="a_node4"><a xlink:href="guwhiteboarddeserialiser_8c.html" target="_top" xlink:title=" ">
<polygon fill="none" stroke="black" points="0,-73 0,-92 131,-92 131,-73 0,-73"/>
<text text-anchor="middle" x="65.5" y="-80" font-family="Helvetica,sans-Serif" font-size="10.00">guwhiteboarddeserialiser.c</text>
</a>
</g>
</g>
<!-- Node3&#45;&gt;Node4 -->
<g id="edge3" class="edge">
<title>Node3&#45;&gt;Node4</title>
<path fill="none" stroke="midnightblue" d="M168.25,-135.27C142.7,-122.4 104.61,-103.21 82.7,-92.17"/>
<polygon fill="midnightblue" stroke="midnightblue" points="166.86,-138.49 177.37,-139.87 170.01,-132.24 166.86,-138.49"/>
</g>
<!-- Node5 -->
<g id="node5" class="node">
<title>Node5</title>
<g id="a_node5"><a xlink:href="guwhiteboardserialiser_8c.html" target="_top" xlink:title=" ">
<polygon fill="none" stroke="black" points="149,-73 149,-92 270,-92 270,-73 149,-73"/>
<text text-anchor="middle" x="209.5" y="-80" font-family="Helvetica,sans-Serif" font-size="10.00">guwhiteboardserialiser.c</text>
</a>
</g>
</g>
<!-- Node3&#45;&gt;Node5 -->
<g id="edge4" class="edge">
<title>Node3&#45;&gt;Node5</title>
<path fill="none" stroke="midnightblue" d="M198.79,-129.91C201.66,-117.49 205.3,-101.72 207.51,-92.13"/>
<polygon fill="midnightblue" stroke="midnightblue" points="195.36,-129.2 196.52,-139.73 202.18,-130.78 195.36,-129.2"/>
</g>
<!-- Node7 -->
<g id="node7" class="node">
<title>Node7</title>
<g id="a_node7"><a xlink:href="guwhiteboardposter_8h.html" target="_top" xlink:title=" ">
<polygon fill="none" stroke="black" points="470,-140 470,-159 579,-159 579,-140 470,-140"/>
<text text-anchor="middle" x="524.5" y="-147" font-family="Helvetica,sans-Serif" font-size="10.00">guwhiteboardposter.h</text>
</a>
</g>
</g>
<!-- Node6&#45;&gt;Node7 -->
<g id="edge6" class="edge">
<title>Node6&#45;&gt;Node7</title>
<path fill="none" stroke="midnightblue" d="M390.92,-197.95C426.46,-185.32 472.84,-168.85 500.55,-159.01"/>
<polygon fill="midnightblue" stroke="midnightblue" points="389.46,-194.75 381.21,-201.4 391.8,-201.35 389.46,-194.75"/>
</g>
<!-- Node13 -->
<g id="node13" class="node">
<title>Node13</title>
<g id="a_node13"><a xlink:href="_filtered_array_one_dim_objects_8h.html" target="_top" xlink:title=" ">
<polygon fill="none" stroke="black" points="273,-134.5 273,-164.5 410,-164.5 410,-134.5 273,-134.5"/>
<text text-anchor="start" x="281" y="-152.5" font-family="Helvetica,sans-Serif" font-size="10.00">typeClassDefs/FilteredArray</text>
<text text-anchor="middle" x="341.5" y="-141.5" font-family="Helvetica,sans-Serif" font-size="10.00">OneDimObjects.h</text>
</a>
</g>
</g>
<!-- Node6&#45;&gt;Node13 -->
<g id="edge12" class="edge">
<title>Node6&#45;&gt;Node13</title>
<path fill="none" stroke="midnightblue" d="M341.5,-191.11C341.5,-182.15 341.5,-172.32 341.5,-164.58"/>
<polygon fill="midnightblue" stroke="midnightblue" points="338,-191.4 341.5,-201.4 345,-191.4 338,-191.4"/>
</g>
<!-- Node8 -->
<g id="node8" class="node">
<title>Node8</title>
<g id="a_node8"><a xlink:href="_simple_whiteboard_test_8h.html" target="_top" xlink:title=" ">
<polygon fill="none" stroke="black" points="356,-67.5 356,-97.5 481,-97.5 481,-67.5 356,-67.5"/>
<text text-anchor="start" x="364" y="-85.5" font-family="Helvetica,sans-Serif" font-size="10.00">SimpleWhiteboardTest</text>
<text text-anchor="middle" x="418.5" y="-74.5" font-family="Helvetica,sans-Serif" font-size="10.00">/SimpleWhiteboardTest.h</text>
</a>
</g>
</g>
<!-- Node7&#45;&gt;Node8 -->
<g id="edge7" class="edge">
<title>Node7&#45;&gt;Node8</title>
<path fill="none" stroke="midnightblue" d="M501.59,-134.45C483.81,-123.55 459.27,-108.5 441.48,-97.59"/>
<polygon fill="midnightblue" stroke="midnightblue" points="499.85,-137.49 510.2,-139.73 503.51,-131.52 499.85,-137.49"/>
</g>
<!-- Node10 -->
<g id="node10" class="node">
<title>Node10</title>
<g id="a_node10"><a xlink:href="guwhiteboardgetter_8h.html" target="_top" xlink:title=" ">
<polygon fill="none" stroke="black" points="499,-73 499,-92 606,-92 606,-73 499,-73"/>
<text text-anchor="middle" x="552.5" y="-80" font-family="Helvetica,sans-Serif" font-size="10.00">guwhiteboardgetter.h</text>
</a>
</g>
</g>
<!-- Node7&#45;&gt;Node10 -->
<g id="edge9" class="edge">
<title>Node7&#45;&gt;Node10</title>
<path fill="none" stroke="midnightblue" d="M532.34,-130.29C537.72,-117.81 544.61,-101.81 548.78,-92.13"/>
<polygon fill="midnightblue" stroke="midnightblue" points="529.02,-129.16 528.28,-139.73 535.45,-131.93 529.02,-129.16"/>
</g>
<!-- Node12 -->
<g id="node12" class="node">
<title>Node12</title>
<g id="a_node12"><a xlink:href="guwhiteboardposter_8cpp.html" target="_top" xlink:title=" ">
<polygon fill="none" stroke="black" points="624,-73 624,-92 743,-92 743,-73 624,-73"/>
<text text-anchor="middle" x="683.5" y="-80" font-family="Helvetica,sans-Serif" font-size="10.00">guwhiteboardposter.cpp</text>
</a>
</g>
</g>
<!-- Node7&#45;&gt;Node12 -->
<g id="edge11" class="edge">
<title>Node7&#45;&gt;Node12</title>
<path fill="none" stroke="midnightblue" d="M555.23,-135.94C586.81,-123.03 635.12,-103.28 662.55,-92.06"/>
<polygon fill="midnightblue" stroke="midnightblue" points="553.55,-132.84 545.61,-139.87 556.19,-139.32 553.55,-132.84"/>
</g>
<!-- Node9 -->
<g id="node9" class="node">
<title>Node9</title>
<g id="a_node9"><a xlink:href="_simple_whiteboard_test_8mm.html" target="_top" xlink:title=" ">
<polygon fill="none" stroke="black" points="299,-0.5 299,-30.5 436,-30.5 436,-0.5 299,-0.5"/>
<text text-anchor="start" x="307" y="-18.5" font-family="Helvetica,sans-Serif" font-size="10.00">SimpleWhiteboardTest</text>
<text text-anchor="middle" x="367.5" y="-7.5" font-family="Helvetica,sans-Serif" font-size="10.00">/SimpleWhiteboardTest.mm</text>
</a>
</g>
</g>
<!-- Node8&#45;&gt;Node9 -->
<g id="edge8" class="edge">
<title>Node8&#45;&gt;Node9</title>
<path fill="none" stroke="midnightblue" d="M401.2,-59.45C393.71,-49.9 385.16,-39 378.54,-30.58"/>
<polygon fill="midnightblue" stroke="midnightblue" points="398.51,-61.69 407.43,-67.4 404.01,-57.37 398.51,-61.69"/>
</g>
<!-- Node11 -->
<g id="node11" class="node">
<title>Node11</title>
<g id="a_node11"><a xlink:href="guwhiteboardgetter_8cpp.html" target="_top" xlink:title=" ">
<polygon fill="none" stroke="black" points="494,-6 494,-25 611,-25 611,-6 494,-6"/>
<text text-anchor="middle" x="552.5" y="-13" font-family="Helvetica,sans-Serif" font-size="10.00">guwhiteboardgetter.cpp</text>
</a>
</g>
</g>
<!-- Node10&#45;&gt;Node11 -->
<g id="edge10" class="edge">
<title>Node10&#45;&gt;Node11</title>
<path fill="none" stroke="midnightblue" d="M552.5,-62.54C552.5,-50.17 552.5,-34.62 552.5,-25.13"/>
<polygon fill="midnightblue" stroke="midnightblue" points="549,-62.73 552.5,-72.73 556,-62.73 549,-62.73"/>
</g>
<!-- Node13&#45;&gt;Node9 -->
<g id="edge13" class="edge">
<title>Node13&#45;&gt;Node9</title>
<path fill="none" stroke="midnightblue" d="M341.37,-124.14C341.76,-107.79 343.17,-85.88 347.5,-67 350.41,-54.32 355.99,-40.63 360.52,-30.71"/>
<polygon fill="midnightblue" stroke="midnightblue" points="337.87,-124.43 341.25,-134.47 344.87,-124.51 337.87,-124.43"/>
</g>
</g>
</svg>
