<?xml version="1.0" encoding="UTF-8" standalone="no"?>
<!DOCTYPE svg PUBLIC "-//W3C//DTD SVG 1.1//EN"
 "http://www.w3.org/Graphics/SVG/1.1/DTD/svg11.dtd">
<!-- Generated by graphviz version 2.49.0 (20210830.1337)
 -->
<!-- Title: typeClassDefs/wb_nao_walk_status.c Pages: 1 -->
<svg width="485pt" height="207pt"
 viewBox="0.00 0.00 485.00 207.00" xmlns="http://www.w3.org/2000/svg" xmlns:xlink="http://www.w3.org/1999/xlink">
<g id="graph0" class="graph" transform="scale(1 1) rotate(0) translate(4 203)">
<title>typeClassDefs/wb_nao_walk_status.c</title>
<!-- Node1 -->
<g id="node1" class="node">
<title>Node1</title>
<g id="a_node1"><a xlink:title=" ">
<polygon fill="#bfbfbf" stroke="black" points="232.5,-168.5 232.5,-198.5 348.5,-198.5 348.5,-168.5 232.5,-168.5"/>
<text text-anchor="start" x="240.5" y="-186.5" font-family="Helvetica,sans-Serif" font-size="10.00">typeClassDefs/wb_nao</text>
<text text-anchor="middle" x="290.5" y="-175.5" font-family="Helvetica,sans-Serif" font-size="10.00">_walk_status.c</text>
</a>
</g>
</g>
<!-- Node2 -->
<g id="node2" class="node">
<title>Node2</title>
<g id="a_node2"><a xlink:href="wb__nao__walk__status_8h.html" target="_top" xlink:title=" ">
<polygon fill="none" stroke="black" points="35.5,-112.5 35.5,-131.5 151.5,-131.5 151.5,-112.5 35.5,-112.5"/>
<text text-anchor="middle" x="93.5" y="-119.5" font-family="Helvetica,sans-Serif" font-size="10.00">wb_nao_walk_status.h</text>
</a>
</g>
</g>
<!-- Node1&#45;&gt;Node2 -->
<g id="edge1" class="edge">
<title>Node1&#45;&gt;Node2</title>
<path fill="none" stroke="midnightblue" d="M243.81,-168.4C209.62,-158.07 163.79,-144.23 131.76,-134.56"/>
<polygon fill="midnightblue" stroke="midnightblue" points="132.46,-131.11 121.88,-131.57 130.44,-137.81 132.46,-131.11"/>
</g>
<!-- Node7 -->
<g id="node7" class="node">
<title>Node7</title>
<g id="a_node7"><a xlink:title=" ">
<polygon fill="none" stroke="#bfbfbf" points="170,-112.5 170,-131.5 215,-131.5 215,-112.5 170,-112.5"/>
<text text-anchor="middle" x="192.5" y="-119.5" font-family="Helvetica,sans-Serif" font-size="10.00">stdio.h</text>
</a>
</g>
</g>
<!-- Node1&#45;&gt;Node7 -->
<g id="edge8" class="edge">
<title>Node1&#45;&gt;Node7</title>
<path fill="none" stroke="midnightblue" d="M267.28,-168.4C251.71,-158.95 231.3,-146.56 215.74,-137.11"/>
<polygon fill="midnightblue" stroke="midnightblue" points="217.12,-133.86 206.76,-131.66 213.49,-139.84 217.12,-133.86"/>
</g>
<!-- Node8 -->
<g id="node8" class="node">
<title>Node8</title>
<g id="a_node8"><a xlink:title=" ">
<polygon fill="none" stroke="#bfbfbf" points="233.5,-112.5 233.5,-131.5 281.5,-131.5 281.5,-112.5 233.5,-112.5"/>
<text text-anchor="middle" x="257.5" y="-119.5" font-family="Helvetica,sans-Serif" font-size="10.00">string.h</text>
</a>
</g>
</g>
<!-- Node1&#45;&gt;Node8 -->
<g id="edge9" class="edge">
<title>Node1&#45;&gt;Node8</title>
<path fill="none" stroke="midnightblue" d="M282.68,-168.4C278.03,-160.02 272.1,-149.33 267.16,-140.42"/>
<polygon fill="midnightblue" stroke="midnightblue" points="270.21,-138.71 262.3,-131.66 264.09,-142.1 270.21,-138.71"/>
</g>
<!-- Node9 -->
<g id="node9" class="node">
<title>Node9</title>
<g id="a_node9"><a xlink:title=" ">
<polygon fill="none" stroke="#bfbfbf" points="300,-112.5 300,-131.5 347,-131.5 347,-112.5 300,-112.5"/>
<text text-anchor="middle" x="323.5" y="-119.5" font-family="Helvetica,sans-Serif" font-size="10.00">stdlib.h</text>
</a>
</g>
</g>
<!-- Node1&#45;&gt;Node9 -->
<g id="edge10" class="edge">
<title>Node1&#45;&gt;Node9</title>
<path fill="none" stroke="midnightblue" d="M298.32,-168.4C302.97,-160.02 308.9,-149.33 313.84,-140.42"/>
<polygon fill="midnightblue" stroke="midnightblue" points="316.91,-142.1 318.7,-131.66 310.79,-138.71 316.91,-142.1"/>
</g>
<!-- Node10 -->
<g id="node10" class="node">
<title>Node10</title>
<g id="a_node10"><a xlink:title=" ">
<polygon fill="none" stroke="#bfbfbf" points="365,-112.5 365,-131.5 412,-131.5 412,-112.5 365,-112.5"/>
<text text-anchor="middle" x="388.5" y="-119.5" font-family="Helvetica,sans-Serif" font-size="10.00">ctype.h</text>
</a>
</g>
</g>
<!-- Node1&#45;&gt;Node10 -->
<g id="edge11" class="edge">
<title>Node1&#45;&gt;Node10</title>
<path fill="none" stroke="midnightblue" d="M313.72,-168.4C329.29,-158.95 349.7,-146.56 365.26,-137.11"/>
<polygon fill="midnightblue" stroke="midnightblue" points="367.51,-139.84 374.24,-131.66 363.88,-133.86 367.51,-139.84"/>
</g>
<!-- Node11 -->
<g id="node11" class="node">
<title>Node11</title>
<g id="a_node11"><a xlink:title=" ">
<polygon fill="none" stroke="#bfbfbf" points="430,-112.5 430,-131.5 477,-131.5 477,-112.5 430,-112.5"/>
<text text-anchor="middle" x="453.5" y="-119.5" font-family="Helvetica,sans-Serif" font-size="10.00">limits.h</text>
</a>
</g>
</g>
<!-- Node1&#45;&gt;Node11 -->
<g id="edge12" class="edge">
<title>Node1&#45;&gt;Node11</title>
<path fill="none" stroke="midnightblue" d="M329.13,-168.4C356.84,-158.28 393.81,-144.79 420.22,-135.15"/>
<polygon fill="midnightblue" stroke="midnightblue" points="421.59,-138.37 429.78,-131.66 419.19,-131.8 421.59,-138.37"/>
</g>
<!-- Node3 -->
<g id="node3" class="node">
<title>Node3</title>
<g id="a_node3"><a xlink:title=" ">
<polygon fill="none" stroke="#bfbfbf" points="0,-0.5 0,-19.5 53,-19.5 53,-0.5 0,-0.5"/>
<text text-anchor="middle" x="26.5" y="-7.5" font-family="Helvetica,sans-Serif" font-size="10.00">gu_util.h</text>
</a>
</g>
</g>
<!-- Node2&#45;&gt;Node3 -->
<g id="edge2" class="edge">
<title>Node2&#45;&gt;Node3</title>
<path fill="none" stroke="midnightblue" d="M80.02,-112.26C68.63,-104.18 52.73,-91.16 43.5,-76 34.88,-61.83 30.59,-43.35 28.48,-29.72"/>
<polygon fill="midnightblue" stroke="midnightblue" points="31.92,-29.08 27.17,-19.61 24.98,-29.97 31.92,-29.08"/>
</g>
<!-- Node4 -->
<g id="node4" class="node">
<title>Node4</title>
<g id="a_node4"><a xlink:title=" ">
<polygon fill="none" stroke="#bfbfbf" points="135.5,-0.5 135.5,-19.5 183.5,-19.5 183.5,-0.5 135.5,-0.5"/>
<text text-anchor="middle" x="159.5" y="-7.5" font-family="Helvetica,sans-Serif" font-size="10.00">stdint.h</text>
</a>
</g>
</g>
<!-- Node2&#45;&gt;Node4 -->
<g id="edge3" class="edge">
<title>Node2&#45;&gt;Node4</title>
<path fill="none" stroke="midnightblue" d="M107.03,-112.29C118.46,-104.24 134.38,-91.23 143.5,-76 151.99,-61.82 155.99,-43.34 157.86,-29.71"/>
<polygon fill="midnightblue" stroke="midnightblue" points="161.36,-29.93 158.99,-19.61 154.4,-29.16 161.36,-29.93"/>
</g>
<!-- Node5 -->
<g id="node5" class="node">
<title>Node5</title>
<g id="a_node5"><a xlink:href="wb__odometry_8h.html" target="_top" xlink:title=" ">
<polygon fill="none" stroke="black" points="52.5,-56.5 52.5,-75.5 134.5,-75.5 134.5,-56.5 52.5,-56.5"/>
<text text-anchor="middle" x="93.5" y="-63.5" font-family="Helvetica,sans-Serif" font-size="10.00">wb_odometry.h</text>
</a>
</g>
</g>
<!-- Node2&#45;&gt;Node5 -->
<g id="edge4" class="edge">
<title>Node2&#45;&gt;Node5</title>
<path fill="none" stroke="midnightblue" d="M93.5,-112.08C93.5,-105.01 93.5,-94.86 93.5,-85.99"/>
<polygon fill="midnightblue" stroke="midnightblue" points="97,-85.75 93.5,-75.75 90,-85.75 97,-85.75"/>
</g>
<!-- Node5&#45;&gt;Node3 -->
<g id="edge5" class="edge">
<title>Node5&#45;&gt;Node3</title>
<path fill="none" stroke="midnightblue" d="M82.74,-56.32C72.73,-48.26 57.61,-36.08 45.57,-26.37"/>
<polygon fill="midnightblue" stroke="midnightblue" points="47.44,-23.38 37.46,-19.83 43.05,-28.83 47.44,-23.38"/>
</g>
<!-- Node5&#45;&gt;Node4 -->
<g id="edge6" class="edge">
<title>Node5&#45;&gt;Node4</title>
<path fill="none" stroke="midnightblue" d="M104.1,-56.32C113.96,-48.26 128.85,-36.08 140.72,-26.37"/>
<polygon fill="midnightblue" stroke="midnightblue" points="143.18,-28.88 148.7,-19.83 138.75,-23.46 143.18,-28.88"/>
</g>
<!-- Node6 -->
<g id="node6" class="node">
<title>Node6</title>
<g id="a_node6"><a xlink:title=" ">
<polygon fill="none" stroke="#bfbfbf" points="72.5,-0.5 72.5,-19.5 114.5,-19.5 114.5,-0.5 72.5,-0.5"/>
<text text-anchor="middle" x="93.5" y="-7.5" font-family="Helvetica,sans-Serif" font-size="10.00">float.h</text>
</a>
</g>
</g>
<!-- Node5&#45;&gt;Node6 -->
<g id="edge7" class="edge">
<title>Node5&#45;&gt;Node6</title>
<path fill="none" stroke="midnightblue" d="M93.5,-56.08C93.5,-49.01 93.5,-38.86 93.5,-29.99"/>
<polygon fill="midnightblue" stroke="midnightblue" points="97,-29.75 93.5,-19.75 90,-29.75 97,-29.75"/>
</g>
</g>
</svg>
