<?xml version="1.0" encoding="UTF-8" standalone="no"?>
<!DOCTYPE svg PUBLIC "-//W3C//DTD SVG 1.1//EN"
 "http://www.w3.org/Graphics/SVG/1.1/DTD/svg11.dtd">
<!-- Generated by graphviz version 2.49.0 (20210830.1337)
 -->
<!-- Title: typeClassDefs/wb_temperature_sensors.h Pages: 1 -->
<svg width="600pt" height="307pt"
 viewBox="0.00 0.00 599.50 307.00" xmlns="http://www.w3.org/2000/svg" xmlns:xlink="http://www.w3.org/1999/xlink">
<g id="graph0" class="graph" transform="scale(1 1) rotate(0) translate(4 303)">
<title>typeClassDefs/wb_temperature_sensors.h</title>
<!-- Node1 -->
<g id="node1" class="node">
<title>Node1</title>
<g id="a_node1"><a xlink:title=" ">
<polygon fill="#bfbfbf" stroke="black" points="276.5,-268.5 276.5,-298.5 428.5,-298.5 428.5,-268.5 276.5,-268.5"/>
<text text-anchor="start" x="284.5" y="-286.5" font-family="Helvetica,sans-Serif" font-size="10.00">typeClassDefs/wb_temperature</text>
<text text-anchor="middle" x="352.5" y="-275.5" font-family="Helvetica,sans-Serif" font-size="10.00">_sensors.h</text>
</a>
</g>
</g>
<!-- Node2 -->
<g id="node2" class="node">
<title>Node2</title>
<g id="a_node2"><a xlink:href="guwhiteboard__c__types_8h.html" target="_top" xlink:title=" ">
<polygon fill="none" stroke="black" points="145,-207 145,-226 266,-226 266,-207 145,-207"/>
<text text-anchor="middle" x="205.5" y="-214" font-family="Helvetica,sans-Serif" font-size="10.00">guwhiteboard_c_types.h</text>
</a>
</g>
</g>
<!-- Node1&#45;&gt;Node2 -->
<g id="edge1" class="edge">
<title>Node1&#45;&gt;Node2</title>
<path fill="none" stroke="midnightblue" d="M311.33,-264.3C282.98,-251.76 246.62,-235.68 224.74,-226.01"/>
<polygon fill="midnightblue" stroke="midnightblue" points="310.04,-267.55 320.6,-268.4 312.87,-261.15 310.04,-267.55"/>
</g>
<!-- Node5 -->
<g id="node5" class="node">
<title>Node5</title>
<g id="a_node5"><a xlink:href="_temperature_sensors_8hpp.html" target="_top" xlink:title=" ">
<polygon fill="none" stroke="black" points="284,-201.5 284,-231.5 421,-231.5 421,-201.5 284,-201.5"/>
<text text-anchor="start" x="292" y="-219.5" font-family="Helvetica,sans-Serif" font-size="10.00">typeClassDefs/Temperature</text>
<text text-anchor="middle" x="352.5" y="-208.5" font-family="Helvetica,sans-Serif" font-size="10.00">Sensors.hpp</text>
</a>
</g>
</g>
<!-- Node1&#45;&gt;Node5 -->
<g id="edge4" class="edge">
<title>Node1&#45;&gt;Node5</title>
<path fill="none" stroke="midnightblue" d="M352.5,-258.11C352.5,-249.15 352.5,-239.32 352.5,-231.58"/>
<polygon fill="midnightblue" stroke="midnightblue" points="349,-258.4 352.5,-268.4 356,-258.4 349,-258.4"/>
</g>
<!-- Node13 -->
<g id="node13" class="node">
<title>Node13</title>
<g id="a_node13"><a xlink:href="wb__temperature__sensors_8c.html" target="_top" xlink:title=" ">
<polygon fill="none" stroke="black" points="439.5,-201.5 439.5,-231.5 591.5,-231.5 591.5,-201.5 439.5,-201.5"/>
<text text-anchor="start" x="447.5" y="-219.5" font-family="Helvetica,sans-Serif" font-size="10.00">typeClassDefs/wb_temperature</text>
<text text-anchor="middle" x="515.5" y="-208.5" font-family="Helvetica,sans-Serif" font-size="10.00">_sensors.c</text>
</a>
</g>
</g>
<!-- Node1&#45;&gt;Node13 -->
<g id="edge12" class="edge">
<title>Node1&#45;&gt;Node13</title>
<path fill="none" stroke="midnightblue" d="M397.18,-264.68C423.33,-254.26 455.87,-241.28 480.2,-231.58"/>
<polygon fill="midnightblue" stroke="midnightblue" points="395.86,-261.44 387.87,-268.4 398.45,-267.94 395.86,-261.44"/>
</g>
<!-- Node3 -->
<g id="node3" class="node">
<title>Node3</title>
<g id="a_node3"><a xlink:href="guwhiteboarddeserialiser_8c.html" target="_top" xlink:title=" ">
<polygon fill="none" stroke="black" points="0,-140 0,-159 131,-159 131,-140 0,-140"/>
<text text-anchor="middle" x="65.5" y="-147" font-family="Helvetica,sans-Serif" font-size="10.00">guwhiteboarddeserialiser.c</text>
</a>
</g>
</g>
<!-- Node2&#45;&gt;Node3 -->
<g id="edge2" class="edge">
<title>Node2&#45;&gt;Node3</title>
<path fill="none" stroke="midnightblue" d="M177.74,-202.61C150.01,-189.74 108.16,-170.31 84.17,-159.17"/>
<polygon fill="midnightblue" stroke="midnightblue" points="176.37,-205.83 186.91,-206.87 179.31,-199.48 176.37,-205.83"/>
</g>
<!-- Node4 -->
<g id="node4" class="node">
<title>Node4</title>
<g id="a_node4"><a xlink:href="guwhiteboardserialiser_8c.html" target="_top" xlink:title=" ">
<polygon fill="none" stroke="black" points="149,-140 149,-159 270,-159 270,-140 149,-140"/>
<text text-anchor="middle" x="209.5" y="-147" font-family="Helvetica,sans-Serif" font-size="10.00">guwhiteboardserialiser.c</text>
</a>
</g>
</g>
<!-- Node2&#45;&gt;Node4 -->
<g id="edge3" class="edge">
<title>Node2&#45;&gt;Node4</title>
<path fill="none" stroke="midnightblue" d="M206.67,-196.54C207.43,-184.17 208.38,-168.62 208.97,-159.13"/>
<polygon fill="midnightblue" stroke="midnightblue" points="203.16,-196.54 206.04,-206.73 210.15,-196.97 203.16,-196.54"/>
</g>
<!-- Node6 -->
<g id="node6" class="node">
<title>Node6</title>
<g id="a_node6"><a xlink:href="guwhiteboardposter_8h.html" target="_top" xlink:title=" ">
<polygon fill="none" stroke="black" points="295,-140 295,-159 404,-159 404,-140 295,-140"/>
<text text-anchor="middle" x="349.5" y="-147" font-family="Helvetica,sans-Serif" font-size="10.00">guwhiteboardposter.h</text>
</a>
</g>
</g>
<!-- Node5&#45;&gt;Node6 -->
<g id="edge5" class="edge">
<title>Node5&#45;&gt;Node6</title>
<path fill="none" stroke="midnightblue" d="M351.38,-191.25C350.86,-180.02 350.28,-167.38 349.9,-159.19"/>
<polygon fill="midnightblue" stroke="midnightblue" points="347.89,-191.57 351.85,-201.4 354.88,-191.25 347.89,-191.57"/>
</g>
<!-- Node12 -->
<g id="node12" class="node">
<title>Node12</title>
<g id="a_node12"><a xlink:href="_temperature_sensors_8h.html" target="_top" xlink:title=" ">
<polygon fill="none" stroke="black" points="422,-134.5 422,-164.5 559,-164.5 559,-134.5 422,-134.5"/>
<text text-anchor="start" x="430" y="-152.5" font-family="Helvetica,sans-Serif" font-size="10.00">typeClassDefs/Temperature</text>
<text text-anchor="middle" x="490.5" y="-141.5" font-family="Helvetica,sans-Serif" font-size="10.00">Sensors.h</text>
</a>
</g>
</g>
<!-- Node5&#45;&gt;Node12 -->
<g id="edge11" class="edge">
<title>Node5&#45;&gt;Node12</title>
<path fill="none" stroke="midnightblue" d="M391.5,-197.13C413.43,-186.8 440.37,-174.11 460.61,-164.58"/>
<polygon fill="midnightblue" stroke="midnightblue" points="390,-193.97 382.44,-201.4 392.98,-200.3 390,-193.97"/>
</g>
<!-- Node7 -->
<g id="node7" class="node">
<title>Node7</title>
<g id="a_node7"><a xlink:href="_simple_whiteboard_test_8h.html" target="_top" xlink:title=" ">
<polygon fill="none" stroke="black" points="150,-67.5 150,-97.5 275,-97.5 275,-67.5 150,-67.5"/>
<text text-anchor="start" x="158" y="-85.5" font-family="Helvetica,sans-Serif" font-size="10.00">SimpleWhiteboardTest</text>
<text text-anchor="middle" x="212.5" y="-74.5" font-family="Helvetica,sans-Serif" font-size="10.00">/SimpleWhiteboardTest.h</text>
</a>
</g>
</g>
<!-- Node6&#45;&gt;Node7 -->
<g id="edge6" class="edge">
<title>Node6&#45;&gt;Node7</title>
<path fill="none" stroke="midnightblue" d="M322.04,-135.47C298.88,-124.49 265.81,-108.79 242.07,-97.53"/>
<polygon fill="midnightblue" stroke="midnightblue" points="320.77,-138.74 331.31,-139.87 323.77,-132.42 320.77,-138.74"/>
</g>
<!-- Node9 -->
<g id="node9" class="node">
<title>Node9</title>
<g id="a_node9"><a xlink:href="guwhiteboardgetter_8h.html" target="_top" xlink:title=" ">
<polygon fill="none" stroke="black" points="296,-73 296,-92 403,-92 403,-73 296,-73"/>
<text text-anchor="middle" x="349.5" y="-80" font-family="Helvetica,sans-Serif" font-size="10.00">guwhiteboardgetter.h</text>
</a>
</g>
</g>
<!-- Node6&#45;&gt;Node9 -->
<g id="edge8" class="edge">
<title>Node6&#45;&gt;Node9</title>
<path fill="none" stroke="midnightblue" d="M349.5,-129.54C349.5,-117.17 349.5,-101.62 349.5,-92.13"/>
<polygon fill="midnightblue" stroke="midnightblue" points="346,-129.73 349.5,-139.73 353,-129.73 346,-129.73"/>
</g>
<!-- Node11 -->
<g id="node11" class="node">
<title>Node11</title>
<g id="a_node11"><a xlink:href="guwhiteboardposter_8cpp.html" target="_top" xlink:title=" ">
<polygon fill="none" stroke="black" points="421,-73 421,-92 540,-92 540,-73 421,-73"/>
<text text-anchor="middle" x="480.5" y="-80" font-family="Helvetica,sans-Serif" font-size="10.00">guwhiteboardposter.cpp</text>
</a>
</g>
</g>
<!-- Node6&#45;&gt;Node11 -->
<g id="edge10" class="edge">
<title>Node6&#45;&gt;Node11</title>
<path fill="none" stroke="midnightblue" d="M376.16,-135.27C402.1,-122.4 440.78,-103.21 463.03,-92.17"/>
<polygon fill="midnightblue" stroke="midnightblue" points="374.3,-132.29 366.9,-139.87 377.41,-138.56 374.3,-132.29"/>
</g>
<!-- Node8 -->
<g id="node8" class="node">
<title>Node8</title>
<g id="a_node8"><a xlink:href="_simple_whiteboard_test_8mm.html" target="_top" xlink:title=" ">
<polygon fill="none" stroke="black" points="139,-0.5 139,-30.5 276,-30.5 276,-0.5 139,-0.5"/>
<text text-anchor="start" x="147" y="-18.5" font-family="Helvetica,sans-Serif" font-size="10.00">SimpleWhiteboardTest</text>
<text text-anchor="middle" x="207.5" y="-7.5" font-family="Helvetica,sans-Serif" font-size="10.00">/SimpleWhiteboardTest.mm</text>
</a>
</g>
</g>
<!-- Node7&#45;&gt;Node8 -->
<g id="edge7" class="edge">
<title>Node7&#45;&gt;Node8</title>
<path fill="none" stroke="midnightblue" d="M210.65,-57.4C209.95,-48.37 209.19,-38.41 208.58,-30.58"/>
<polygon fill="midnightblue" stroke="midnightblue" points="207.16,-57.69 211.42,-67.4 214.14,-57.16 207.16,-57.69"/>
</g>
<!-- Node10 -->
<g id="node10" class="node">
<title>Node10</title>
<g id="a_node10"><a xlink:href="guwhiteboardgetter_8cpp.html" target="_top" xlink:title=" ">
<polygon fill="none" stroke="black" points="294,-6 294,-25 411,-25 411,-6 294,-6"/>
<text text-anchor="middle" x="352.5" y="-13" font-family="Helvetica,sans-Serif" font-size="10.00">guwhiteboardgetter.cpp</text>
</a>
</g>
</g>
<!-- Node9&#45;&gt;Node10 -->
<g id="edge9" class="edge">
<title>Node9&#45;&gt;Node10</title>
<path fill="none" stroke="midnightblue" d="M350.38,-62.54C350.95,-50.17 351.66,-34.62 352.1,-25.13"/>
<polygon fill="midnightblue" stroke="midnightblue" points="346.87,-62.58 349.9,-72.73 353.86,-62.91 346.87,-62.58"/>
</g>
</g>
</svg>
