<?xml version="1.0" encoding="UTF-8" standalone="no"?>
<!DOCTYPE svg PUBLIC "-//W3C//DTD SVG 1.1//EN"
 "http://www.w3.org/Graphics/SVG/1.1/DTD/svg11.dtd">
<!-- Generated by graphviz version 2.49.0 (20210830.1337)
 -->
<!-- Title: typeClassDefs/wb_pixel_to_robot_relative_coord.c Pages: 1 -->
<svg width="823pt" height="218pt"
 viewBox="0.00 0.00 823.41 218.00" xmlns="http://www.w3.org/2000/svg" xmlns:xlink="http://www.w3.org/1999/xlink">
<g id="graph0" class="graph" transform="scale(1 1) rotate(0) translate(4 214)">
<title>typeClassDefs/wb_pixel_to_robot_relative_coord.c</title>
<!-- Node1 -->
<g id="node1" class="node">
<title>Node1</title>
<g id="a_node1"><a xlink:title=" ">
<polygon fill="#bfbfbf" stroke="black" points="562.41,-179.5 562.41,-209.5 693.41,-209.5 693.41,-179.5 562.41,-179.5"/>
<text text-anchor="start" x="570.41" y="-197.5" font-family="Helvetica,sans-Serif" font-size="10.00">typeClassDefs/wb_pixel</text>
<text text-anchor="middle" x="627.91" y="-186.5" font-family="Helvetica,sans-Serif" font-size="10.00">_to_robot_relative_coord.c</text>
</a>
</g>
</g>
<!-- Node2 -->
<g id="node2" class="node">
<title>Node2</title>
<g id="a_node2"><a xlink:href="wb__pixel__to__robot__relative__coord_8h.html" target="_top" xlink:title=" ">
<polygon fill="none" stroke="black" points="359.41,-112.5 359.41,-142.5 490.41,-142.5 490.41,-112.5 359.41,-112.5"/>
<text text-anchor="start" x="367.41" y="-130.5" font-family="Helvetica,sans-Serif" font-size="10.00">wb_pixel_to_robot_relative</text>
<text text-anchor="middle" x="424.91" y="-119.5" font-family="Helvetica,sans-Serif" font-size="10.00">_coord.h</text>
</a>
</g>
</g>
<!-- Node1&#45;&gt;Node2 -->
<g id="edge1" class="edge">
<title>Node1&#45;&gt;Node2</title>
<path fill="none" stroke="midnightblue" d="M583.86,-179.4C553,-169.52 511.58,-156.25 478.76,-145.74"/>
<polygon fill="midnightblue" stroke="midnightblue" points="479.46,-142.29 468.87,-142.58 477.33,-148.96 479.46,-142.29"/>
</g>
<!-- Node9 -->
<g id="node9" class="node">
<title>Node9</title>
<g id="a_node9"><a xlink:title=" ">
<polygon fill="none" stroke="#bfbfbf" points="548.41,-56.5 548.41,-75.5 595.41,-75.5 595.41,-56.5 548.41,-56.5"/>
<text text-anchor="middle" x="571.91" y="-63.5" font-family="Helvetica,sans-Serif" font-size="10.00">stdlib.h</text>
</a>
</g>
</g>
<!-- Node1&#45;&gt;Node9 -->
<g id="edge17" class="edge">
<title>Node1&#45;&gt;Node9</title>
<path fill="none" stroke="midnightblue" d="M600.18,-179.46C586.57,-170.94 571.5,-158.67 563.91,-143 555.16,-124.96 559.53,-101.73 564.58,-85.73"/>
<polygon fill="midnightblue" stroke="midnightblue" points="568,-86.55 568.03,-75.96 561.4,-84.22 568,-86.55"/>
</g>
<!-- Node10 -->
<g id="node10" class="node">
<title>Node10</title>
<g id="a_node10"><a xlink:title=" ">
<polygon fill="none" stroke="#bfbfbf" points="573.41,-118 573.41,-137 618.41,-137 618.41,-118 573.41,-118"/>
<text text-anchor="middle" x="595.91" y="-125" font-family="Helvetica,sans-Serif" font-size="10.00">stdio.h</text>
</a>
</g>
</g>
<!-- Node1&#45;&gt;Node10 -->
<g id="edge15" class="edge">
<title>Node1&#45;&gt;Node10</title>
<path fill="none" stroke="midnightblue" d="M620.96,-179.4C616.17,-169.66 609.76,-156.65 604.63,-146.21"/>
<polygon fill="midnightblue" stroke="midnightblue" points="607.75,-144.62 600.19,-137.19 601.46,-147.71 607.75,-144.62"/>
</g>
<!-- Node11 -->
<g id="node11" class="node">
<title>Node11</title>
<g id="a_node11"><a xlink:title=" ">
<polygon fill="none" stroke="#bfbfbf" points="636.91,-118 636.91,-137 684.91,-137 684.91,-118 636.91,-118"/>
<text text-anchor="middle" x="660.91" y="-125" font-family="Helvetica,sans-Serif" font-size="10.00">string.h</text>
</a>
</g>
</g>
<!-- Node1&#45;&gt;Node11 -->
<g id="edge16" class="edge">
<title>Node1&#45;&gt;Node11</title>
<path fill="none" stroke="midnightblue" d="M635.07,-179.4C640.01,-169.66 646.62,-156.65 651.91,-146.21"/>
<polygon fill="midnightblue" stroke="midnightblue" points="655.09,-147.7 656.49,-137.19 648.85,-144.53 655.09,-147.7"/>
</g>
<!-- Node12 -->
<g id="node12" class="node">
<title>Node12</title>
<g id="a_node12"><a xlink:title=" ">
<polygon fill="none" stroke="#bfbfbf" points="703.41,-118 703.41,-137 750.41,-137 750.41,-118 703.41,-118"/>
<text text-anchor="middle" x="726.91" y="-125" font-family="Helvetica,sans-Serif" font-size="10.00">ctype.h</text>
</a>
</g>
</g>
<!-- Node1&#45;&gt;Node12 -->
<g id="edge18" class="edge">
<title>Node1&#45;&gt;Node12</title>
<path fill="none" stroke="midnightblue" d="M649.39,-179.4C665.99,-168.5 688.86,-153.48 705.46,-142.58"/>
<polygon fill="midnightblue" stroke="midnightblue" points="707.51,-145.42 713.95,-137.01 703.67,-139.57 707.51,-145.42"/>
</g>
<!-- Node13 -->
<g id="node13" class="node">
<title>Node13</title>
<g id="a_node13"><a xlink:title=" ">
<polygon fill="none" stroke="#bfbfbf" points="768.41,-118 768.41,-137 815.41,-137 815.41,-118 768.41,-118"/>
<text text-anchor="middle" x="791.91" y="-125" font-family="Helvetica,sans-Serif" font-size="10.00">limits.h</text>
</a>
</g>
</g>
<!-- Node1&#45;&gt;Node13 -->
<g id="edge19" class="edge">
<title>Node1&#45;&gt;Node13</title>
<path fill="none" stroke="midnightblue" d="M666.56,-179.41C693,-169.6 728.77,-156 759.91,-143 761.28,-142.43 762.68,-141.83 764.09,-141.22"/>
<polygon fill="midnightblue" stroke="midnightblue" points="765.64,-144.37 773.38,-137.12 762.82,-137.96 765.64,-144.37"/>
</g>
<!-- Node3 -->
<g id="node3" class="node">
<title>Node3</title>
<g id="a_node3"><a xlink:title=" ">
<polygon fill="none" stroke="#bfbfbf" points="163.41,-0.5 163.41,-19.5 216.41,-19.5 216.41,-0.5 163.41,-0.5"/>
<text text-anchor="middle" x="189.91" y="-7.5" font-family="Helvetica,sans-Serif" font-size="10.00">gu_util.h</text>
</a>
</g>
</g>
<!-- Node2&#45;&gt;Node3 -->
<g id="edge2" class="edge">
<title>Node2&#45;&gt;Node3</title>
<path fill="none" stroke="midnightblue" d="M359.02,-123.22C247.58,-116.99 31.7,-101.73 8.91,-76 -33.46,-28.18 88.63,-15.53 153,-12.19"/>
<polygon fill="midnightblue" stroke="midnightblue" points="153.35,-15.68 163.17,-11.72 153.02,-8.69 153.35,-15.68"/>
</g>
<!-- Node4 -->
<g id="node4" class="node">
<title>Node4</title>
<g id="a_node4"><a xlink:title=" ">
<polygon fill="none" stroke="#bfbfbf" points="284.91,-0.5 284.91,-19.5 332.91,-19.5 332.91,-0.5 284.91,-0.5"/>
<text text-anchor="middle" x="308.91" y="-7.5" font-family="Helvetica,sans-Serif" font-size="10.00">stdint.h</text>
</a>
</g>
</g>
<!-- Node2&#45;&gt;Node4 -->
<g id="edge3" class="edge">
<title>Node2&#45;&gt;Node4</title>
<path fill="none" stroke="midnightblue" d="M459.15,-112.45C486.72,-99.09 518.24,-77.86 500.91,-56 491.09,-43.61 395.51,-25.68 343.02,-16.65"/>
<polygon fill="midnightblue" stroke="midnightblue" points="343.58,-13.19 333.13,-14.96 342.4,-20.09 343.58,-13.19"/>
</g>
<!-- Node5 -->
<g id="node5" class="node">
<title>Node5</title>
<g id="a_node5"><a xlink:href="wb__sensors__torsojointsensors_8h.html" target="_top" xlink:title=" ">
<polygon fill="none" stroke="black" points="17.91,-56.5 17.91,-75.5 173.91,-75.5 173.91,-56.5 17.91,-56.5"/>
<text text-anchor="middle" x="95.91" y="-63.5" font-family="Helvetica,sans-Serif" font-size="10.00">wb_sensors_torsojointsensors.h</text>
</a>
</g>
</g>
<!-- Node2&#45;&gt;Node5 -->
<g id="edge4" class="edge">
<title>Node2&#45;&gt;Node5</title>
<path fill="none" stroke="midnightblue" d="M359.12,-114.6C298.8,-103.69 210.37,-87.7 152.97,-77.32"/>
<polygon fill="midnightblue" stroke="midnightblue" points="153.44,-73.85 142.98,-75.51 152.2,-80.74 153.44,-73.85"/>
</g>
<!-- Node6 -->
<g id="node6" class="node">
<title>Node6</title>
<g id="a_node6"><a xlink:href="wb__sensors__legjointsensors_8h.html" target="_top" xlink:title=" ">
<polygon fill="none" stroke="black" points="192.41,-56.5 192.41,-75.5 339.41,-75.5 339.41,-56.5 192.41,-56.5"/>
<text text-anchor="middle" x="265.91" y="-63.5" font-family="Helvetica,sans-Serif" font-size="10.00">wb_sensors_legjointsensors.h</text>
</a>
</g>
</g>
<!-- Node2&#45;&gt;Node6 -->
<g id="edge7" class="edge">
<title>Node2&#45;&gt;Node6</title>
<path fill="none" stroke="midnightblue" d="M387.23,-112.4C360.31,-102.33 324.46,-88.91 298.71,-79.28"/>
<polygon fill="midnightblue" stroke="midnightblue" points="299.64,-75.88 289.04,-75.66 297.18,-82.44 299.64,-75.88"/>
</g>
<!-- Node7 -->
<g id="node7" class="node">
<title>Node7</title>
<g id="a_node7"><a xlink:href="wb__vision__control__status_8h.html" target="_top" xlink:title=" ">
<polygon fill="none" stroke="black" points="357.91,-56.5 357.91,-75.5 491.91,-75.5 491.91,-56.5 357.91,-56.5"/>
<text text-anchor="middle" x="424.91" y="-63.5" font-family="Helvetica,sans-Serif" font-size="10.00">wb_vision_control_status.h</text>
</a>
</g>
</g>
<!-- Node2&#45;&gt;Node7 -->
<g id="edge10" class="edge">
<title>Node2&#45;&gt;Node7</title>
<path fill="none" stroke="midnightblue" d="M424.91,-112.4C424.91,-104.47 424.91,-94.46 424.91,-85.86"/>
<polygon fill="midnightblue" stroke="midnightblue" points="428.41,-85.66 424.91,-75.66 421.41,-85.66 428.41,-85.66"/>
</g>
<!-- Node2&#45;&gt;Node9 -->
<g id="edge14" class="edge">
<title>Node2&#45;&gt;Node9</title>
<path fill="none" stroke="midnightblue" d="M459.74,-112.4C484.41,-102.42 517.19,-89.15 540.94,-79.53"/>
<polygon fill="midnightblue" stroke="midnightblue" points="542.56,-82.65 550.52,-75.66 539.94,-76.17 542.56,-82.65"/>
</g>
<!-- Node5&#45;&gt;Node3 -->
<g id="edge5" class="edge">
<title>Node5&#45;&gt;Node3</title>
<path fill="none" stroke="midnightblue" d="M111.01,-56.32C125.81,-47.82 148.6,-34.73 165.89,-24.8"/>
<polygon fill="midnightblue" stroke="midnightblue" points="167.91,-27.67 174.84,-19.65 164.43,-21.6 167.91,-27.67"/>
</g>
<!-- Node5&#45;&gt;Node4 -->
<g id="edge6" class="edge">
<title>Node5&#45;&gt;Node4</title>
<path fill="none" stroke="midnightblue" d="M129.66,-56.44C169.48,-46.35 235.29,-29.66 275.12,-19.57"/>
<polygon fill="midnightblue" stroke="midnightblue" points="276.07,-22.94 284.9,-17.09 274.35,-16.15 276.07,-22.94"/>
</g>
<!-- Node6&#45;&gt;Node3 -->
<g id="edge8" class="edge">
<title>Node6&#45;&gt;Node3</title>
<path fill="none" stroke="midnightblue" d="M253.7,-56.32C242.13,-48.11 224.53,-35.6 210.75,-25.81"/>
<polygon fill="midnightblue" stroke="midnightblue" points="212.52,-22.77 202.34,-19.83 208.47,-28.48 212.52,-22.77"/>
</g>
<!-- Node6&#45;&gt;Node4 -->
<g id="edge9" class="edge">
<title>Node6&#45;&gt;Node4</title>
<path fill="none" stroke="midnightblue" d="M273.01,-56.08C279.14,-48.38 288.18,-37.03 295.65,-27.65"/>
<polygon fill="midnightblue" stroke="midnightblue" points="298.45,-29.75 301.94,-19.75 292.97,-25.39 298.45,-29.75"/>
</g>
<!-- Node7&#45;&gt;Node3 -->
<g id="edge11" class="edge">
<title>Node7&#45;&gt;Node3</title>
<path fill="none" stroke="midnightblue" d="M387.67,-56.44C343.58,-46.31 270.6,-29.54 226.7,-19.46"/>
<polygon fill="midnightblue" stroke="midnightblue" points="227.27,-15.99 216.74,-17.16 225.7,-22.82 227.27,-15.99"/>
</g>
<!-- Node7&#45;&gt;Node4 -->
<g id="edge12" class="edge">
<title>Node7&#45;&gt;Node4</title>
<path fill="none" stroke="midnightblue" d="M406.53,-56.44C387.69,-47.68 358.18,-33.94 336.53,-23.86"/>
<polygon fill="midnightblue" stroke="midnightblue" points="337.75,-20.56 327.2,-19.52 334.79,-26.91 337.75,-20.56"/>
</g>
<!-- Node8 -->
<g id="node8" class="node">
<title>Node8</title>
<g id="a_node8"><a xlink:title=" ">
<polygon fill="none" stroke="#bfbfbf" points="394.41,-0.5 394.41,-19.5 455.41,-19.5 455.41,-0.5 394.41,-0.5"/>
<text text-anchor="middle" x="424.91" y="-7.5" font-family="Helvetica,sans-Serif" font-size="10.00">sys/time.h</text>
</a>
</g>
</g>
<!-- Node7&#45;&gt;Node8 -->
<g id="edge13" class="edge">
<title>Node7&#45;&gt;Node8</title>
<path fill="none" stroke="midnightblue" d="M424.91,-56.08C424.91,-49.01 424.91,-38.86 424.91,-29.99"/>
<polygon fill="midnightblue" stroke="midnightblue" points="428.41,-29.75 424.91,-19.75 421.41,-29.75 428.41,-29.75"/>
</g>
</g>
</svg>
