<?xml version="1.0" encoding="UTF-8" standalone="no"?>
<!DOCTYPE svg PUBLIC "-//W3C//DTD SVG 1.1//EN"
 "http://www.w3.org/Graphics/SVG/1.1/DTD/svg11.dtd">
<!-- Generated by graphviz version 2.49.0 (20210830.1337)
 -->
<!-- Title: typeClassDefs/wb_machine_filtered_lines.h Pages: 1 -->
<svg width="598pt" height="307pt"
 viewBox="0.00 0.00 598.00 307.00" xmlns="http://www.w3.org/2000/svg" xmlns:xlink="http://www.w3.org/1999/xlink">
<g id="graph0" class="graph" transform="scale(1 1) rotate(0) translate(4 303)">
<title>typeClassDefs/wb_machine_filtered_lines.h</title>
<!-- Node1 -->
<g id="node1" class="node">
<title>Node1</title>
<g id="a_node1"><a xlink:title=" ">
<polygon fill="#bfbfbf" stroke="black" points="290,-268.5 290,-298.5 427,-298.5 427,-268.5 290,-268.5"/>
<text text-anchor="start" x="298" y="-286.5" font-family="Helvetica,sans-Serif" font-size="10.00">typeClassDefs/wb_machine</text>
<text text-anchor="middle" x="358.5" y="-275.5" font-family="Helvetica,sans-Serif" font-size="10.00">_filtered_lines.h</text>
</a>
</g>
</g>
<!-- Node2 -->
<g id="node2" class="node">
<title>Node2</title>
<g id="a_node2"><a xlink:href="guwhiteboard__c__types_8h.html" target="_top" xlink:title=" ">
<polygon fill="none" stroke="black" points="143,-207 143,-226 264,-226 264,-207 143,-207"/>
<text text-anchor="middle" x="203.5" y="-214" font-family="Helvetica,sans-Serif" font-size="10.00">guwhiteboard_c_types.h</text>
</a>
</g>
</g>
<!-- Node1&#45;&gt;Node2 -->
<g id="edge1" class="edge">
<title>Node1&#45;&gt;Node2</title>
<path fill="none" stroke="midnightblue" d="M315.48,-264.46C285.53,-251.9 246.96,-235.72 223.79,-226.01"/>
<polygon fill="midnightblue" stroke="midnightblue" points="314.29,-267.76 324.87,-268.4 317,-261.3 314.29,-267.76"/>
</g>
<!-- Node5 -->
<g id="node5" class="node">
<title>Node5</title>
<g id="a_node5"><a xlink:href="_machine_filtered_lines_8hpp.html" target="_top" xlink:title=" ">
<polygon fill="none" stroke="black" points="282.5,-201.5 282.5,-231.5 434.5,-231.5 434.5,-201.5 282.5,-201.5"/>
<text text-anchor="start" x="290.5" y="-219.5" font-family="Helvetica,sans-Serif" font-size="10.00">typeClassDefs/MachineFiltered</text>
<text text-anchor="middle" x="358.5" y="-208.5" font-family="Helvetica,sans-Serif" font-size="10.00">Lines.hpp</text>
</a>
</g>
</g>
<!-- Node1&#45;&gt;Node5 -->
<g id="edge4" class="edge">
<title>Node1&#45;&gt;Node5</title>
<path fill="none" stroke="midnightblue" d="M358.5,-258.11C358.5,-249.15 358.5,-239.32 358.5,-231.58"/>
<polygon fill="midnightblue" stroke="midnightblue" points="355,-258.4 358.5,-268.4 362,-258.4 355,-258.4"/>
</g>
<!-- Node13 -->
<g id="node13" class="node">
<title>Node13</title>
<g id="a_node13"><a xlink:href="wb__machine__filtered__lines_8c.html" target="_top" xlink:title=" ">
<polygon fill="none" stroke="black" points="453,-201.5 453,-231.5 590,-231.5 590,-201.5 453,-201.5"/>
<text text-anchor="start" x="461" y="-219.5" font-family="Helvetica,sans-Serif" font-size="10.00">typeClassDefs/wb_machine</text>
<text text-anchor="middle" x="521.5" y="-208.5" font-family="Helvetica,sans-Serif" font-size="10.00">_filtered_lines.c</text>
</a>
</g>
</g>
<!-- Node1&#45;&gt;Node13 -->
<g id="edge12" class="edge">
<title>Node1&#45;&gt;Node13</title>
<path fill="none" stroke="midnightblue" d="M403.18,-264.68C429.33,-254.26 461.87,-241.28 486.2,-231.58"/>
<polygon fill="midnightblue" stroke="midnightblue" points="401.86,-261.44 393.87,-268.4 404.45,-267.94 401.86,-261.44"/>
</g>
<!-- Node3 -->
<g id="node3" class="node">
<title>Node3</title>
<g id="a_node3"><a xlink:href="guwhiteboarddeserialiser_8c.html" target="_top" xlink:title=" ">
<polygon fill="none" stroke="black" points="0,-140 0,-159 131,-159 131,-140 0,-140"/>
<text text-anchor="middle" x="65.5" y="-147" font-family="Helvetica,sans-Serif" font-size="10.00">guwhiteboarddeserialiser.c</text>
</a>
</g>
</g>
<!-- Node2&#45;&gt;Node3 -->
<g id="edge2" class="edge">
<title>Node2&#45;&gt;Node3</title>
<path fill="none" stroke="midnightblue" d="M175.78,-202.44C148.45,-189.57 107.45,-170.26 83.9,-159.17"/>
<polygon fill="midnightblue" stroke="midnightblue" points="174.64,-205.77 185.17,-206.87 177.62,-199.44 174.64,-205.77"/>
</g>
<!-- Node4 -->
<g id="node4" class="node">
<title>Node4</title>
<g id="a_node4"><a xlink:href="guwhiteboardserialiser_8c.html" target="_top" xlink:title=" ">
<polygon fill="none" stroke="black" points="149,-140 149,-159 270,-159 270,-140 149,-140"/>
<text text-anchor="middle" x="209.5" y="-147" font-family="Helvetica,sans-Serif" font-size="10.00">guwhiteboardserialiser.c</text>
</a>
</g>
</g>
<!-- Node2&#45;&gt;Node4 -->
<g id="edge3" class="edge">
<title>Node2&#45;&gt;Node4</title>
<path fill="none" stroke="midnightblue" d="M205.25,-196.54C206.39,-184.17 207.83,-168.62 208.7,-159.13"/>
<polygon fill="midnightblue" stroke="midnightblue" points="201.74,-196.45 204.31,-206.73 208.71,-197.1 201.74,-196.45"/>
</g>
<!-- Node6 -->
<g id="node6" class="node">
<title>Node6</title>
<g id="a_node6"><a xlink:href="guwhiteboardposter_8h.html" target="_top" xlink:title=" ">
<polygon fill="none" stroke="black" points="299,-140 299,-159 408,-159 408,-140 299,-140"/>
<text text-anchor="middle" x="353.5" y="-147" font-family="Helvetica,sans-Serif" font-size="10.00">guwhiteboardposter.h</text>
</a>
</g>
</g>
<!-- Node5&#45;&gt;Node6 -->
<g id="edge5" class="edge">
<title>Node5&#45;&gt;Node6</title>
<path fill="none" stroke="midnightblue" d="M356.63,-191.25C355.77,-180.02 354.8,-167.38 354.17,-159.19"/>
<polygon fill="midnightblue" stroke="midnightblue" points="353.16,-191.69 357.42,-201.4 360.14,-191.16 353.16,-191.69"/>
</g>
<!-- Node12 -->
<g id="node12" class="node">
<title>Node12</title>
<g id="a_node12"><a xlink:href="_machine_filtered_lines_8h.html" target="_top" xlink:title=" ">
<polygon fill="none" stroke="black" points="426.5,-134.5 426.5,-164.5 578.5,-164.5 578.5,-134.5 426.5,-134.5"/>
<text text-anchor="start" x="434.5" y="-152.5" font-family="Helvetica,sans-Serif" font-size="10.00">typeClassDefs/MachineFiltered</text>
<text text-anchor="middle" x="502.5" y="-141.5" font-family="Helvetica,sans-Serif" font-size="10.00">Lines.h</text>
</a>
</g>
</g>
<!-- Node5&#45;&gt;Node12 -->
<g id="edge11" class="edge">
<title>Node5&#45;&gt;Node12</title>
<path fill="none" stroke="midnightblue" d="M398.89,-197.27C421.82,-186.92 450.1,-174.15 471.32,-164.58"/>
<polygon fill="midnightblue" stroke="midnightblue" points="397.42,-194.09 389.75,-201.4 400.3,-200.47 397.42,-194.09"/>
</g>
<!-- Node7 -->
<g id="node7" class="node">
<title>Node7</title>
<g id="a_node7"><a xlink:href="_simple_whiteboard_test_8h.html" target="_top" xlink:title=" ">
<polygon fill="none" stroke="black" points="154,-67.5 154,-97.5 279,-97.5 279,-67.5 154,-67.5"/>
<text text-anchor="start" x="162" y="-85.5" font-family="Helvetica,sans-Serif" font-size="10.00">SimpleWhiteboardTest</text>
<text text-anchor="middle" x="216.5" y="-74.5" font-family="Helvetica,sans-Serif" font-size="10.00">/SimpleWhiteboardTest.h</text>
</a>
</g>
</g>
<!-- Node6&#45;&gt;Node7 -->
<g id="edge6" class="edge">
<title>Node6&#45;&gt;Node7</title>
<path fill="none" stroke="midnightblue" d="M326.04,-135.47C302.88,-124.49 269.81,-108.79 246.07,-97.53"/>
<polygon fill="midnightblue" stroke="midnightblue" points="324.77,-138.74 335.31,-139.87 327.77,-132.42 324.77,-138.74"/>
</g>
<!-- Node9 -->
<g id="node9" class="node">
<title>Node9</title>
<g id="a_node9"><a xlink:href="guwhiteboardgetter_8h.html" target="_top" xlink:title=" ">
<polygon fill="none" stroke="black" points="300,-73 300,-92 407,-92 407,-73 300,-73"/>
<text text-anchor="middle" x="353.5" y="-80" font-family="Helvetica,sans-Serif" font-size="10.00">guwhiteboardgetter.h</text>
</a>
</g>
</g>
<!-- Node6&#45;&gt;Node9 -->
<g id="edge8" class="edge">
<title>Node6&#45;&gt;Node9</title>
<path fill="none" stroke="midnightblue" d="M353.5,-129.54C353.5,-117.17 353.5,-101.62 353.5,-92.13"/>
<polygon fill="midnightblue" stroke="midnightblue" points="350,-129.73 353.5,-139.73 357,-129.73 350,-129.73"/>
</g>
<!-- Node11 -->
<g id="node11" class="node">
<title>Node11</title>
<g id="a_node11"><a xlink:href="guwhiteboardposter_8cpp.html" target="_top" xlink:title=" ">
<polygon fill="none" stroke="black" points="425,-73 425,-92 544,-92 544,-73 425,-73"/>
<text text-anchor="middle" x="484.5" y="-80" font-family="Helvetica,sans-Serif" font-size="10.00">guwhiteboardposter.cpp</text>
</a>
</g>
</g>
<!-- Node6&#45;&gt;Node11 -->
<g id="edge10" class="edge">
<title>Node6&#45;&gt;Node11</title>
<path fill="none" stroke="midnightblue" d="M380.16,-135.27C406.1,-122.4 444.78,-103.21 467.03,-92.17"/>
<polygon fill="midnightblue" stroke="midnightblue" points="378.3,-132.29 370.9,-139.87 381.41,-138.56 378.3,-132.29"/>
</g>
<!-- Node8 -->
<g id="node8" class="node">
<title>Node8</title>
<g id="a_node8"><a xlink:href="_simple_whiteboard_test_8mm.html" target="_top" xlink:title=" ">
<polygon fill="none" stroke="black" points="143,-0.5 143,-30.5 280,-30.5 280,-0.5 143,-0.5"/>
<text text-anchor="start" x="151" y="-18.5" font-family="Helvetica,sans-Serif" font-size="10.00">SimpleWhiteboardTest</text>
<text text-anchor="middle" x="211.5" y="-7.5" font-family="Helvetica,sans-Serif" font-size="10.00">/SimpleWhiteboardTest.mm</text>
</a>
</g>
</g>
<!-- Node7&#45;&gt;Node8 -->
<g id="edge7" class="edge">
<title>Node7&#45;&gt;Node8</title>
<path fill="none" stroke="midnightblue" d="M214.65,-57.4C213.95,-48.37 213.19,-38.41 212.58,-30.58"/>
<polygon fill="midnightblue" stroke="midnightblue" points="211.16,-57.69 215.42,-67.4 218.14,-57.16 211.16,-57.69"/>
</g>
<!-- Node10 -->
<g id="node10" class="node">
<title>Node10</title>
<g id="a_node10"><a xlink:href="guwhiteboardgetter_8cpp.html" target="_top" xlink:title=" ">
<polygon fill="none" stroke="black" points="298,-6 298,-25 415,-25 415,-6 298,-6"/>
<text text-anchor="middle" x="356.5" y="-13" font-family="Helvetica,sans-Serif" font-size="10.00">guwhiteboardgetter.cpp</text>
</a>
</g>
</g>
<!-- Node9&#45;&gt;Node10 -->
<g id="edge9" class="edge">
<title>Node9&#45;&gt;Node10</title>
<path fill="none" stroke="midnightblue" d="M354.38,-62.54C354.95,-50.17 355.66,-34.62 356.1,-25.13"/>
<polygon fill="midnightblue" stroke="midnightblue" points="350.87,-62.58 353.9,-72.73 357.86,-62.91 350.87,-62.58"/>
</g>
</g>
</svg>
