<?xml version="1.0" encoding="UTF-8" standalone="no"?>
<!DOCTYPE svg PUBLIC "-//W3C//DTD SVG 1.1//EN"
 "http://www.w3.org/Graphics/SVG/1.1/DTD/svg11.dtd">
<!-- Generated by graphviz version 2.49.0 (20210830.1337)
 -->
<!-- Title: typeClassDefs/wb_teleoperation_control_v_r.c Pages: 1 -->
<svg width="458pt" height="162pt"
 viewBox="0.00 0.00 458.00 162.00" xmlns="http://www.w3.org/2000/svg" xmlns:xlink="http://www.w3.org/1999/xlink">
<g id="graph0" class="graph" transform="scale(1 1) rotate(0) translate(4 158)">
<title>typeClassDefs/wb_teleoperation_control_v_r.c</title>
<!-- Node1 -->
<g id="node1" class="node">
<title>Node1</title>
<g id="a_node1"><a xlink:title=" ">
<polygon fill="#bfbfbf" stroke="black" points="185.5,-123.5 185.5,-153.5 341.5,-153.5 341.5,-123.5 185.5,-123.5"/>
<text text-anchor="start" x="193.5" y="-141.5" font-family="Helvetica,sans-Serif" font-size="10.00">typeClassDefs/wb_teleoperation</text>
<text text-anchor="middle" x="263.5" y="-130.5" font-family="Helvetica,sans-Serif" font-size="10.00">_control_v_r.c</text>
</a>
</g>
</g>
<!-- Node2 -->
<g id="node2" class="node">
<title>Node2</title>
<g id="a_node2"><a xlink:href="wb__teleoperation__control__v__r_8h.html" target="_top" xlink:title=" ">
<polygon fill="none" stroke="black" points="0,-56.5 0,-86.5 125,-86.5 125,-56.5 0,-56.5"/>
<text text-anchor="start" x="8" y="-74.5" font-family="Helvetica,sans-Serif" font-size="10.00">wb_teleoperation_control</text>
<text text-anchor="middle" x="62.5" y="-63.5" font-family="Helvetica,sans-Serif" font-size="10.00">_v_r.h</text>
</a>
</g>
</g>
<!-- Node1&#45;&gt;Node2 -->
<g id="edge1" class="edge">
<title>Node1&#45;&gt;Node2</title>
<path fill="none" stroke="midnightblue" d="M219.89,-123.4C189.33,-113.52 148.32,-100.25 115.82,-89.74"/>
<polygon fill="midnightblue" stroke="midnightblue" points="116.62,-86.32 106.03,-86.58 114.47,-92.98 116.62,-86.32"/>
</g>
<!-- Node5 -->
<g id="node5" class="node">
<title>Node5</title>
<g id="a_node5"><a xlink:title=" ">
<polygon fill="none" stroke="#bfbfbf" points="143,-62 143,-81 188,-81 188,-62 143,-62"/>
<text text-anchor="middle" x="165.5" y="-69" font-family="Helvetica,sans-Serif" font-size="10.00">stdio.h</text>
</a>
</g>
</g>
<!-- Node1&#45;&gt;Node5 -->
<g id="edge4" class="edge">
<title>Node1&#45;&gt;Node5</title>
<path fill="none" stroke="midnightblue" d="M242.24,-123.4C225.8,-112.5 203.16,-97.48 186.73,-86.58"/>
<polygon fill="midnightblue" stroke="midnightblue" points="188.59,-83.62 178.33,-81.01 184.72,-89.45 188.59,-83.62"/>
</g>
<!-- Node6 -->
<g id="node6" class="node">
<title>Node6</title>
<g id="a_node6"><a xlink:title=" ">
<polygon fill="none" stroke="#bfbfbf" points="206.5,-62 206.5,-81 254.5,-81 254.5,-62 206.5,-62"/>
<text text-anchor="middle" x="230.5" y="-69" font-family="Helvetica,sans-Serif" font-size="10.00">string.h</text>
</a>
</g>
</g>
<!-- Node1&#45;&gt;Node6 -->
<g id="edge5" class="edge">
<title>Node1&#45;&gt;Node6</title>
<path fill="none" stroke="midnightblue" d="M256.34,-123.4C251.4,-113.66 244.79,-100.65 239.49,-90.21"/>
<polygon fill="midnightblue" stroke="midnightblue" points="242.56,-88.53 234.91,-81.19 236.32,-91.7 242.56,-88.53"/>
</g>
<!-- Node7 -->
<g id="node7" class="node">
<title>Node7</title>
<g id="a_node7"><a xlink:title=" ">
<polygon fill="none" stroke="#bfbfbf" points="273,-62 273,-81 320,-81 320,-62 273,-62"/>
<text text-anchor="middle" x="296.5" y="-69" font-family="Helvetica,sans-Serif" font-size="10.00">stdlib.h</text>
</a>
</g>
</g>
<!-- Node1&#45;&gt;Node7 -->
<g id="edge6" class="edge">
<title>Node1&#45;&gt;Node7</title>
<path fill="none" stroke="midnightblue" d="M270.66,-123.4C275.6,-113.66 282.21,-100.65 287.51,-90.21"/>
<polygon fill="midnightblue" stroke="midnightblue" points="290.68,-91.7 292.09,-81.19 284.44,-88.53 290.68,-91.7"/>
</g>
<!-- Node8 -->
<g id="node8" class="node">
<title>Node8</title>
<g id="a_node8"><a xlink:title=" ">
<polygon fill="none" stroke="#bfbfbf" points="338,-62 338,-81 385,-81 385,-62 338,-62"/>
<text text-anchor="middle" x="361.5" y="-69" font-family="Helvetica,sans-Serif" font-size="10.00">ctype.h</text>
</a>
</g>
</g>
<!-- Node1&#45;&gt;Node8 -->
<g id="edge7" class="edge">
<title>Node1&#45;&gt;Node8</title>
<path fill="none" stroke="midnightblue" d="M284.76,-123.4C301.2,-112.5 323.84,-97.48 340.27,-86.58"/>
<polygon fill="midnightblue" stroke="midnightblue" points="342.28,-89.45 348.67,-81.01 338.41,-83.62 342.28,-89.45"/>
</g>
<!-- Node9 -->
<g id="node9" class="node">
<title>Node9</title>
<g id="a_node9"><a xlink:title=" ">
<polygon fill="none" stroke="#bfbfbf" points="403,-62 403,-81 450,-81 450,-62 403,-62"/>
<text text-anchor="middle" x="426.5" y="-69" font-family="Helvetica,sans-Serif" font-size="10.00">limits.h</text>
</a>
</g>
</g>
<!-- Node1&#45;&gt;Node9 -->
<g id="edge8" class="edge">
<title>Node1&#45;&gt;Node9</title>
<path fill="none" stroke="midnightblue" d="M301.57,-123.49C327.83,-113.66 363.48,-100 394.5,-87 395.87,-86.43 397.27,-85.83 398.68,-85.22"/>
<polygon fill="midnightblue" stroke="midnightblue" points="400.24,-88.36 407.97,-81.12 397.4,-81.96 400.24,-88.36"/>
</g>
<!-- Node3 -->
<g id="node3" class="node">
<title>Node3</title>
<g id="a_node3"><a xlink:title=" ">
<polygon fill="none" stroke="#bfbfbf" points="2,-0.5 2,-19.5 55,-19.5 55,-0.5 2,-0.5"/>
<text text-anchor="middle" x="28.5" y="-7.5" font-family="Helvetica,sans-Serif" font-size="10.00">gu_util.h</text>
</a>
</g>
</g>
<!-- Node2&#45;&gt;Node3 -->
<g id="edge2" class="edge">
<title>Node2&#45;&gt;Node3</title>
<path fill="none" stroke="midnightblue" d="M54.44,-56.4C49.65,-48.02 43.54,-37.33 38.46,-28.42"/>
<polygon fill="midnightblue" stroke="midnightblue" points="41.45,-26.6 33.45,-19.66 35.37,-30.08 41.45,-26.6"/>
</g>
<!-- Node4 -->
<g id="node4" class="node">
<title>Node4</title>
<g id="a_node4"><a xlink:title=" ">
<polygon fill="none" stroke="#bfbfbf" points="73.5,-0.5 73.5,-19.5 121.5,-19.5 121.5,-0.5 73.5,-0.5"/>
<text text-anchor="middle" x="97.5" y="-7.5" font-family="Helvetica,sans-Serif" font-size="10.00">stdint.h</text>
</a>
</g>
</g>
<!-- Node2&#45;&gt;Node4 -->
<g id="edge3" class="edge">
<title>Node2&#45;&gt;Node4</title>
<path fill="none" stroke="midnightblue" d="M70.79,-56.4C75.72,-48.02 82.01,-37.33 87.25,-28.42"/>
<polygon fill="midnightblue" stroke="midnightblue" points="90.35,-30.05 92.41,-19.66 84.32,-26.5 90.35,-30.05"/>
</g>
</g>
</svg>
