<?xml version="1.0" encoding="UTF-8" standalone="no"?>
<!DOCTYPE svg PUBLIC "-//W3C//DTD SVG 1.1//EN"
 "http://www.w3.org/Graphics/SVG/1.1/DTD/svg11.dtd">
<!-- Generated by graphviz version 2.49.0 (20210830.1337)
 -->
<!-- Title: typeClassDefs/wb_data_logger.h Pages: 1 -->
<svg width="578pt" height="296pt"
 viewBox="0.00 0.00 578.00 296.00" xmlns="http://www.w3.org/2000/svg" xmlns:xlink="http://www.w3.org/1999/xlink">
<g id="graph0" class="graph" transform="scale(1 1) rotate(0) translate(4 292)">
<title>typeClassDefs/wb_data_logger.h</title>
<!-- Node1 -->
<g id="node1" class="node">
<title>Node1</title>
<g id="a_node1"><a xlink:title=" ">
<polygon fill="#bfbfbf" stroke="black" points="298,-257.5 298,-287.5 417,-287.5 417,-257.5 298,-257.5"/>
<text text-anchor="start" x="306" y="-275.5" font-family="Helvetica,sans-Serif" font-size="10.00">typeClassDefs/wb_data</text>
<text text-anchor="middle" x="357.5" y="-264.5" font-family="Helvetica,sans-Serif" font-size="10.00">_logger.h</text>
</a>
</g>
</g>
<!-- Node2 -->
<g id="node2" class="node">
<title>Node2</title>
<g id="a_node2"><a xlink:href="guwhiteboard__c__types_8h.html" target="_top" xlink:title=" ">
<polygon fill="none" stroke="black" points="143,-196 143,-215 264,-215 264,-196 143,-196"/>
<text text-anchor="middle" x="203.5" y="-203" font-family="Helvetica,sans-Serif" font-size="10.00">guwhiteboard_c_types.h</text>
</a>
</g>
</g>
<!-- Node1&#45;&gt;Node2 -->
<g id="edge1" class="edge">
<title>Node1&#45;&gt;Node2</title>
<path fill="none" stroke="midnightblue" d="M314.76,-253.46C285,-240.9 246.68,-224.72 223.66,-215.01"/>
<polygon fill="midnightblue" stroke="midnightblue" points="313.51,-256.73 324.08,-257.4 316.23,-250.28 313.51,-256.73"/>
</g>
<!-- Node5 -->
<g id="node5" class="node">
<title>Node5</title>
<g id="a_node5"><a xlink:href="_data_logger_8hpp.html" target="_top" xlink:title=" ">
<polygon fill="none" stroke="black" points="282,-196 282,-215 433,-215 433,-196 282,-196"/>
<text text-anchor="middle" x="357.5" y="-203" font-family="Helvetica,sans-Serif" font-size="10.00">typeClassDefs/DataLogger.hpp</text>
</a>
</g>
</g>
<!-- Node1&#45;&gt;Node5 -->
<g id="edge4" class="edge">
<title>Node1&#45;&gt;Node5</title>
<path fill="none" stroke="midnightblue" d="M357.5,-247.25C357.5,-236.02 357.5,-223.38 357.5,-215.19"/>
<polygon fill="midnightblue" stroke="midnightblue" points="354,-247.4 357.5,-257.4 361,-247.4 354,-247.4"/>
</g>
<!-- Node13 -->
<g id="node13" class="node">
<title>Node13</title>
<g id="a_node13"><a xlink:href="wb__data__logger_8c.html" target="_top" xlink:title=" ">
<polygon fill="none" stroke="black" points="451,-190.5 451,-220.5 570,-220.5 570,-190.5 451,-190.5"/>
<text text-anchor="start" x="459" y="-208.5" font-family="Helvetica,sans-Serif" font-size="10.00">typeClassDefs/wb_data</text>
<text text-anchor="middle" x="510.5" y="-197.5" font-family="Helvetica,sans-Serif" font-size="10.00">_logger.c</text>
</a>
</g>
</g>
<!-- Node1&#45;&gt;Node13 -->
<g id="edge12" class="edge">
<title>Node1&#45;&gt;Node13</title>
<path fill="none" stroke="midnightblue" d="M400.09,-253.41C424.52,-243.03 454.72,-230.2 477.37,-220.58"/>
<polygon fill="midnightblue" stroke="midnightblue" points="398.53,-250.26 390.7,-257.4 401.27,-256.71 398.53,-250.26"/>
</g>
<!-- Node3 -->
<g id="node3" class="node">
<title>Node3</title>
<g id="a_node3"><a xlink:href="guwhiteboarddeserialiser_8c.html" target="_top" xlink:title=" ">
<polygon fill="none" stroke="black" points="0,-134.5 0,-153.5 131,-153.5 131,-134.5 0,-134.5"/>
<text text-anchor="middle" x="65.5" y="-141.5" font-family="Helvetica,sans-Serif" font-size="10.00">guwhiteboarddeserialiser.c</text>
</a>
</g>
</g>
<!-- Node2&#45;&gt;Node3 -->
<g id="edge2" class="edge">
<title>Node2&#45;&gt;Node3</title>
<path fill="none" stroke="midnightblue" d="M174.46,-191.98C147.66,-180.42 108.58,-163.58 85.24,-153.51"/>
<polygon fill="midnightblue" stroke="midnightblue" points="173.16,-195.23 183.73,-195.98 175.93,-188.8 173.16,-195.23"/>
</g>
<!-- Node4 -->
<g id="node4" class="node">
<title>Node4</title>
<g id="a_node4"><a xlink:href="guwhiteboardserialiser_8c.html" target="_top" xlink:title=" ">
<polygon fill="none" stroke="black" points="149,-134.5 149,-153.5 270,-153.5 270,-134.5 149,-134.5"/>
<text text-anchor="middle" x="209.5" y="-141.5" font-family="Helvetica,sans-Serif" font-size="10.00">guwhiteboardserialiser.c</text>
</a>
</g>
</g>
<!-- Node2&#45;&gt;Node4 -->
<g id="edge3" class="edge">
<title>Node2&#45;&gt;Node4</title>
<path fill="none" stroke="midnightblue" d="M205.38,-185.82C206.48,-175 207.8,-161.9 208.64,-153.51"/>
<polygon fill="midnightblue" stroke="midnightblue" points="201.88,-185.67 204.36,-195.98 208.85,-186.38 201.88,-185.67"/>
</g>
<!-- Node6 -->
<g id="node6" class="node">
<title>Node6</title>
<g id="a_node6"><a xlink:href="guwhiteboardposter_8h.html" target="_top" xlink:title=" ">
<polygon fill="none" stroke="black" points="298,-134.5 298,-153.5 407,-153.5 407,-134.5 298,-134.5"/>
<text text-anchor="middle" x="352.5" y="-141.5" font-family="Helvetica,sans-Serif" font-size="10.00">guwhiteboardposter.h</text>
</a>
</g>
</g>
<!-- Node5&#45;&gt;Node6 -->
<g id="edge5" class="edge">
<title>Node5&#45;&gt;Node6</title>
<path fill="none" stroke="midnightblue" d="M355.93,-185.82C355.02,-175 353.92,-161.9 353.22,-153.51"/>
<polygon fill="midnightblue" stroke="midnightblue" points="352.46,-186.3 356.78,-195.98 359.43,-185.72 352.46,-186.3"/>
</g>
<!-- Node12 -->
<g id="node12" class="node">
<title>Node12</title>
<g id="a_node12"><a xlink:href="_data_logger_8h.html" target="_top" xlink:title=" ">
<polygon fill="none" stroke="black" points="425.5,-134.5 425.5,-153.5 565.5,-153.5 565.5,-134.5 425.5,-134.5"/>
<text text-anchor="middle" x="495.5" y="-141.5" font-family="Helvetica,sans-Serif" font-size="10.00">typeClassDefs/DataLogger.h</text>
</a>
</g>
</g>
<!-- Node5&#45;&gt;Node12 -->
<g id="edge11" class="edge">
<title>Node5&#45;&gt;Node12</title>
<path fill="none" stroke="midnightblue" d="M386.54,-191.98C413.34,-180.42 452.42,-163.58 475.76,-153.51"/>
<polygon fill="midnightblue" stroke="midnightblue" points="385.07,-188.8 377.27,-195.98 387.84,-195.23 385.07,-188.8"/>
</g>
<!-- Node7 -->
<g id="node7" class="node">
<title>Node7</title>
<g id="a_node7"><a xlink:href="_simple_whiteboard_test_8h.html" target="_top" xlink:title=" ">
<polygon fill="none" stroke="black" points="153,-67.5 153,-97.5 278,-97.5 278,-67.5 153,-67.5"/>
<text text-anchor="start" x="161" y="-85.5" font-family="Helvetica,sans-Serif" font-size="10.00">SimpleWhiteboardTest</text>
<text text-anchor="middle" x="215.5" y="-74.5" font-family="Helvetica,sans-Serif" font-size="10.00">/SimpleWhiteboardTest.h</text>
</a>
</g>
</g>
<!-- Node6&#45;&gt;Node7 -->
<g id="edge6" class="edge">
<title>Node6&#45;&gt;Node7</title>
<path fill="none" stroke="midnightblue" d="M323.63,-130.46C301.44,-120.82 270.79,-107.51 247.79,-97.52"/>
<polygon fill="midnightblue" stroke="midnightblue" points="322.3,-133.7 332.87,-134.48 325.09,-127.28 322.3,-133.7"/>
</g>
<!-- Node9 -->
<g id="node9" class="node">
<title>Node9</title>
<g id="a_node9"><a xlink:href="guwhiteboardgetter_8h.html" target="_top" xlink:title=" ">
<polygon fill="none" stroke="black" points="299,-73 299,-92 406,-92 406,-73 299,-73"/>
<text text-anchor="middle" x="352.5" y="-80" font-family="Helvetica,sans-Serif" font-size="10.00">guwhiteboardgetter.h</text>
</a>
</g>
</g>
<!-- Node6&#45;&gt;Node9 -->
<g id="edge8" class="edge">
<title>Node6&#45;&gt;Node9</title>
<path fill="none" stroke="midnightblue" d="M352.5,-124.32C352.5,-113.5 352.5,-100.4 352.5,-92.01"/>
<polygon fill="midnightblue" stroke="midnightblue" points="349,-124.48 352.5,-134.48 356,-124.48 349,-124.48"/>
</g>
<!-- Node11 -->
<g id="node11" class="node">
<title>Node11</title>
<g id="a_node11"><a xlink:href="guwhiteboardposter_8cpp.html" target="_top" xlink:title=" ">
<polygon fill="none" stroke="black" points="424,-73 424,-92 543,-92 543,-73 424,-73"/>
<text text-anchor="middle" x="483.5" y="-80" font-family="Helvetica,sans-Serif" font-size="10.00">guwhiteboardposter.cpp</text>
</a>
</g>
</g>
<!-- Node6&#45;&gt;Node11 -->
<g id="edge10" class="edge">
<title>Node6&#45;&gt;Node11</title>
<path fill="none" stroke="midnightblue" d="M380.4,-130.33C405.83,-118.78 442.7,-102.03 464.77,-92.01"/>
<polygon fill="midnightblue" stroke="midnightblue" points="378.93,-127.15 371.27,-134.48 381.82,-133.53 378.93,-127.15"/>
</g>
<!-- Node8 -->
<g id="node8" class="node">
<title>Node8</title>
<g id="a_node8"><a xlink:href="_simple_whiteboard_test_8mm.html" target="_top" xlink:title=" ">
<polygon fill="none" stroke="black" points="142,-0.5 142,-30.5 279,-30.5 279,-0.5 142,-0.5"/>
<text text-anchor="start" x="150" y="-18.5" font-family="Helvetica,sans-Serif" font-size="10.00">SimpleWhiteboardTest</text>
<text text-anchor="middle" x="210.5" y="-7.5" font-family="Helvetica,sans-Serif" font-size="10.00">/SimpleWhiteboardTest.mm</text>
</a>
</g>
</g>
<!-- Node7&#45;&gt;Node8 -->
<g id="edge7" class="edge">
<title>Node7&#45;&gt;Node8</title>
<path fill="none" stroke="midnightblue" d="M213.65,-57.4C212.95,-48.37 212.19,-38.41 211.58,-30.58"/>
<polygon fill="midnightblue" stroke="midnightblue" points="210.16,-57.69 214.42,-67.4 217.14,-57.16 210.16,-57.69"/>
</g>
<!-- Node10 -->
<g id="node10" class="node">
<title>Node10</title>
<g id="a_node10"><a xlink:href="guwhiteboardgetter_8cpp.html" target="_top" xlink:title=" ">
<polygon fill="none" stroke="black" points="297,-6 297,-25 414,-25 414,-6 297,-6"/>
<text text-anchor="middle" x="355.5" y="-13" font-family="Helvetica,sans-Serif" font-size="10.00">guwhiteboardgetter.cpp</text>
</a>
</g>
</g>
<!-- Node9&#45;&gt;Node10 -->
<g id="edge9" class="edge">
<title>Node9&#45;&gt;Node10</title>
<path fill="none" stroke="midnightblue" d="M353.38,-62.54C353.95,-50.17 354.66,-34.62 355.1,-25.13"/>
<polygon fill="midnightblue" stroke="midnightblue" points="349.87,-62.58 352.9,-72.73 356.86,-62.91 349.87,-62.58"/>
</g>
</g>
</svg>
