<?xml version="1.0" encoding="UTF-8" standalone="no"?>
<!DOCTYPE svg PUBLIC "-//W3C//DTD SVG 1.1//EN"
 "http://www.w3.org/Graphics/SVG/1.1/DTD/svg11.dtd">
<!-- Generated by graphviz version 2.49.0 (20210830.1337)
 -->
<!-- Title: typeClassDefs/wb_machine_filtered_localisation_vision.h Pages: 1 -->
<svg width="152pt" height="162pt"
 viewBox="0.00 0.00 152.50 162.00" xmlns="http://www.w3.org/2000/svg" xmlns:xlink="http://www.w3.org/1999/xlink">
<g id="graph0" class="graph" transform="scale(1 1) rotate(0) translate(4 158)">
<title>typeClassDefs/wb_machine_filtered_localisation_vision.h</title>
<!-- Node1 -->
<g id="node1" class="node">
<title>Node1</title>
<g id="a_node1"><a xlink:title=" ">
<polygon fill="#bfbfbf" stroke="black" points="4.26,-112.5 4.26,-153.5 141.26,-153.5 141.26,-112.5 4.26,-112.5"/>
<text text-anchor="start" x="12.26" y="-141.5" font-family="Helvetica,sans-Serif" font-size="10.00">typeClassDefs/wb_machine</text>
<text text-anchor="start" x="12.26" y="-130.5" font-family="Helvetica,sans-Serif" font-size="10.00">_filtered_localisation</text>
<text text-anchor="middle" x="72.76" y="-119.5" font-family="Helvetica,sans-Serif" font-size="10.00">_vision.h</text>
</a>
</g>
</g>
<!-- Node2 -->
<g id="node2" class="node">
<title>Node2</title>
<g id="a_node2"><a xlink:title=" ">
<polygon fill="none" stroke="#bfbfbf" points="6.26,-0.5 6.26,-19.5 59.26,-19.5 59.26,-0.5 6.26,-0.5"/>
<text text-anchor="middle" x="32.76" y="-7.5" font-family="Helvetica,sans-Serif" font-size="10.00">gu_util.h</text>
</a>
</g>
</g>
<!-- Node1&#45;&gt;Node2 -->
<g id="edge1" class="edge">
<title>Node1&#45;&gt;Node2</title>
<path fill="none" stroke="midnightblue" d="M36.56,-112.42C23.39,-103.25 9.97,-91.01 2.76,-76 -5.1,-59.64 5.77,-40.8 16.55,-27.63"/>
<polygon fill="midnightblue" stroke="midnightblue" points="19.41,-29.68 23.43,-19.87 14.18,-25.03 19.41,-29.68"/>
</g>
<!-- Node3 -->
<g id="node3" class="node">
<title>Node3</title>
<g id="a_node3"><a xlink:title=" ">
<polygon fill="none" stroke="#bfbfbf" points="87.76,-0.5 87.76,-19.5 135.76,-19.5 135.76,-0.5 87.76,-0.5"/>
<text text-anchor="middle" x="111.76" y="-7.5" font-family="Helvetica,sans-Serif" font-size="10.00">stdint.h</text>
</a>
</g>
</g>
<!-- Node1&#45;&gt;Node3 -->
<g id="edge2" class="edge">
<title>Node1&#45;&gt;Node3</title>
<path fill="none" stroke="midnightblue" d="M108.46,-112.32C121.44,-103.13 134.66,-90.9 141.76,-76 149.56,-59.62 138.71,-40.78 127.94,-27.61"/>
<polygon fill="midnightblue" stroke="midnightblue" points="130.32,-25.02 121.07,-19.86 125.08,-29.67 130.32,-25.02"/>
</g>
<!-- Node4 -->
<g id="node4" class="node">
<title>Node4</title>
<g id="a_node4"><a xlink:href="wb__landmark__sighting_8h.html" target="_top" xlink:title=" ">
<polygon fill="none" stroke="black" points="12.26,-56.5 12.26,-75.5 133.26,-75.5 133.26,-56.5 12.26,-56.5"/>
<text text-anchor="middle" x="72.76" y="-63.5" font-family="Helvetica,sans-Serif" font-size="10.00">wb_landmark_sighting.h</text>
</a>
</g>
</g>
<!-- Node1&#45;&gt;Node4 -->
<g id="edge3" class="edge">
<title>Node1&#45;&gt;Node4</title>
<path fill="none" stroke="midnightblue" d="M72.76,-112.5C72.76,-104.07 72.76,-94.24 72.76,-85.87"/>
<polygon fill="midnightblue" stroke="midnightblue" points="76.26,-85.65 72.76,-75.65 69.26,-85.65 76.26,-85.65"/>
</g>
<!-- Node4&#45;&gt;Node2 -->
<g id="edge4" class="edge">
<title>Node4&#45;&gt;Node2</title>
<path fill="none" stroke="midnightblue" d="M66.16,-56.08C60.5,-48.46 52.22,-37.26 45.31,-27.94"/>
<polygon fill="midnightblue" stroke="midnightblue" points="48.01,-25.7 39.24,-19.75 42.38,-29.87 48.01,-25.7"/>
</g>
<!-- Node4&#45;&gt;Node3 -->
<g id="edge5" class="edge">
<title>Node4&#45;&gt;Node3</title>
<path fill="none" stroke="midnightblue" d="M79.2,-56.08C84.71,-48.46 92.79,-37.26 99.53,-27.94"/>
<polygon fill="midnightblue" stroke="midnightblue" points="102.42,-29.91 105.44,-19.75 96.75,-25.81 102.42,-29.91"/>
</g>
</g>
</svg>
