<?xml version="1.0" encoding="UTF-8" standalone="no"?>
<!DOCTYPE svg PUBLIC "-//W3C//DTD SVG 1.1//EN"
 "http://www.w3.org/Graphics/SVG/1.1/DTD/svg11.dtd">
<!-- Generated by graphviz version 2.49.0 (20210830.1337)
 -->
<!-- Title: typeClassDefs/wb_nao_sonar_protected_walk_command.h Pages: 1 -->
<svg width="606pt" height="329pt"
 viewBox="0.00 0.00 605.50 329.00" xmlns="http://www.w3.org/2000/svg" xmlns:xlink="http://www.w3.org/1999/xlink">
<g id="graph0" class="graph" transform="scale(1 1) rotate(0) translate(4 325)">
<title>typeClassDefs/wb_nao_sonar_protected_walk_command.h</title>
<!-- Node1 -->
<g id="node1" class="node">
<title>Node1</title>
<g id="a_node1"><a xlink:title=" ">
<polygon fill="#bfbfbf" stroke="black" points="305,-279.5 305,-320.5 422,-320.5 422,-279.5 305,-279.5"/>
<text text-anchor="start" x="313" y="-308.5" font-family="Helvetica,sans-Serif" font-size="10.00">typeClassDefs/wb_nao</text>
<text text-anchor="start" x="313" y="-297.5" font-family="Helvetica,sans-Serif" font-size="10.00">_sonar_protected_walk</text>
<text text-anchor="middle" x="363.5" y="-286.5" font-family="Helvetica,sans-Serif" font-size="10.00">_command.h</text>
</a>
</g>
</g>
<!-- Node2 -->
<g id="node2" class="node">
<title>Node2</title>
<g id="a_node2"><a xlink:href="guwhiteboard__c__types_8h.html" target="_top" xlink:title=" ">
<polygon fill="none" stroke="black" points="141,-212.5 141,-231.5 262,-231.5 262,-212.5 141,-212.5"/>
<text text-anchor="middle" x="201.5" y="-219.5" font-family="Helvetica,sans-Serif" font-size="10.00">guwhiteboard_c_types.h</text>
</a>
</g>
</g>
<!-- Node1&#45;&gt;Node2 -->
<g id="edge1" class="edge">
<title>Node1&#45;&gt;Node2</title>
<path fill="none" stroke="midnightblue" d="M312.63,-275.14C280.95,-260.27 242.1,-242.05 219.73,-231.55"/>
<polygon fill="midnightblue" stroke="midnightblue" points="311.24,-278.35 321.78,-279.43 314.21,-272.01 311.24,-278.35"/>
</g>
<!-- Node5 -->
<g id="node5" class="node">
<title>Node5</title>
<g id="a_node5"><a xlink:href="_nao_sonar_protected_walk_command_8hpp.html" target="_top" xlink:title=" ">
<polygon fill="none" stroke="black" points="279.5,-207 279.5,-237 447.5,-237 447.5,-207 279.5,-207"/>
<text text-anchor="start" x="287.5" y="-225" font-family="Helvetica,sans-Serif" font-size="10.00">typeClassDefs/NaoSonarProtected</text>
<text text-anchor="middle" x="363.5" y="-214" font-family="Helvetica,sans-Serif" font-size="10.00">WalkCommand.hpp</text>
</a>
</g>
</g>
<!-- Node1&#45;&gt;Node5 -->
<g id="edge4" class="edge">
<title>Node1&#45;&gt;Node5</title>
<path fill="none" stroke="midnightblue" d="M363.5,-269.28C363.5,-258.25 363.5,-246.25 363.5,-237.23"/>
<polygon fill="midnightblue" stroke="midnightblue" points="360,-269.43 363.5,-279.43 367,-269.43 360,-269.43"/>
</g>
<!-- Node13 -->
<g id="node13" class="node">
<title>Node13</title>
<g id="a_node13"><a xlink:href="wb__nao__sonar__protected__walk__command_8c.html" target="_top" xlink:title=" ">
<polygon fill="none" stroke="black" points="466,-201.5 466,-242.5 583,-242.5 583,-201.5 466,-201.5"/>
<text text-anchor="start" x="474" y="-230.5" font-family="Helvetica,sans-Serif" font-size="10.00">typeClassDefs/wb_nao</text>
<text text-anchor="start" x="474" y="-219.5" font-family="Helvetica,sans-Serif" font-size="10.00">_sonar_protected_walk</text>
<text text-anchor="middle" x="524.5" y="-208.5" font-family="Helvetica,sans-Serif" font-size="10.00">_command.c</text>
</a>
</g>
</g>
<!-- Node1&#45;&gt;Node13 -->
<g id="edge12" class="edge">
<title>Node1&#45;&gt;Node13</title>
<path fill="none" stroke="midnightblue" d="M414.24,-275.05C436.44,-264.57 462.17,-252.42 483.18,-242.51"/>
<polygon fill="midnightblue" stroke="midnightblue" points="412.51,-271.99 404.96,-279.43 415.5,-278.32 412.51,-271.99"/>
</g>
<!-- Node3 -->
<g id="node3" class="node">
<title>Node3</title>
<g id="a_node3"><a xlink:href="guwhiteboarddeserialiser_8c.html" target="_top" xlink:title=" ">
<polygon fill="none" stroke="black" points="0,-140 0,-159 131,-159 131,-140 0,-140"/>
<text text-anchor="middle" x="65.5" y="-147" font-family="Helvetica,sans-Serif" font-size="10.00">guwhiteboarddeserialiser.c</text>
</a>
</g>
</g>
<!-- Node2&#45;&gt;Node3 -->
<g id="edge2" class="edge">
<title>Node2&#45;&gt;Node3</title>
<path fill="none" stroke="midnightblue" d="M176.06,-207.81C148.51,-193.53 105.38,-171.17 81.96,-159.03"/>
<polygon fill="midnightblue" stroke="midnightblue" points="174.61,-211 185.1,-212.5 177.83,-204.79 174.61,-211"/>
</g>
<!-- Node4 -->
<g id="node4" class="node">
<title>Node4</title>
<g id="a_node4"><a xlink:href="guwhiteboardserialiser_8c.html" target="_top" xlink:title=" ">
<polygon fill="none" stroke="black" points="149,-140 149,-159 270,-159 270,-140 149,-140"/>
<text text-anchor="middle" x="209.5" y="-147" font-family="Helvetica,sans-Serif" font-size="10.00">guwhiteboardserialiser.c</text>
</a>
</g>
</g>
<!-- Node2&#45;&gt;Node4 -->
<g id="edge3" class="edge">
<title>Node2&#45;&gt;Node4</title>
<path fill="none" stroke="midnightblue" d="M203.62,-202.36C205.2,-188.4 207.3,-169.93 208.51,-159.22"/>
<polygon fill="midnightblue" stroke="midnightblue" points="200.13,-202.02 202.48,-212.36 207.09,-202.81 200.13,-202.02"/>
</g>
<!-- Node6 -->
<g id="node6" class="node">
<title>Node6</title>
<g id="a_node6"><a xlink:href="guwhiteboardposter_8h.html" target="_top" xlink:title=" ">
<polygon fill="none" stroke="black" points="302,-140 302,-159 411,-159 411,-140 302,-140"/>
<text text-anchor="middle" x="356.5" y="-147" font-family="Helvetica,sans-Serif" font-size="10.00">guwhiteboardposter.h</text>
</a>
</g>
</g>
<!-- Node5&#45;&gt;Node6 -->
<g id="edge5" class="edge">
<title>Node5&#45;&gt;Node6</title>
<path fill="none" stroke="midnightblue" d="M361.08,-196.59C359.8,-183.71 358.31,-168.7 357.38,-159.39"/>
<polygon fill="midnightblue" stroke="midnightblue" points="357.61,-197.13 362.08,-206.73 364.58,-196.44 357.61,-197.13"/>
</g>
<!-- Node12 -->
<g id="node12" class="node">
<title>Node12</title>
<g id="a_node12"><a xlink:href="_nao_sonar_protected_walk_command_8h.html" target="_top" xlink:title=" ">
<polygon fill="none" stroke="black" points="429.5,-134.5 429.5,-164.5 597.5,-164.5 597.5,-134.5 429.5,-134.5"/>
<text text-anchor="start" x="437.5" y="-152.5" font-family="Helvetica,sans-Serif" font-size="10.00">typeClassDefs/NaoSonarProtected</text>
<text text-anchor="middle" x="513.5" y="-141.5" font-family="Helvetica,sans-Serif" font-size="10.00">WalkCommand.h</text>
</a>
</g>
</g>
<!-- Node5&#45;&gt;Node12 -->
<g id="edge11" class="edge">
<title>Node5&#45;&gt;Node12</title>
<path fill="none" stroke="midnightblue" d="M402.8,-202.53C428.06,-190.66 460.37,-175.47 483.56,-164.57"/>
<polygon fill="midnightblue" stroke="midnightblue" points="401.06,-199.48 393.49,-206.9 404.03,-205.82 401.06,-199.48"/>
</g>
<!-- Node7 -->
<g id="node7" class="node">
<title>Node7</title>
<g id="a_node7"><a xlink:href="_simple_whiteboard_test_8h.html" target="_top" xlink:title=" ">
<polygon fill="none" stroke="black" points="157,-67.5 157,-97.5 282,-97.5 282,-67.5 157,-67.5"/>
<text text-anchor="start" x="165" y="-85.5" font-family="Helvetica,sans-Serif" font-size="10.00">SimpleWhiteboardTest</text>
<text text-anchor="middle" x="219.5" y="-74.5" font-family="Helvetica,sans-Serif" font-size="10.00">/SimpleWhiteboardTest.h</text>
</a>
</g>
</g>
<!-- Node6&#45;&gt;Node7 -->
<g id="edge6" class="edge">
<title>Node6&#45;&gt;Node7</title>
<path fill="none" stroke="midnightblue" d="M329.04,-135.47C305.88,-124.49 272.81,-108.79 249.07,-97.53"/>
<polygon fill="midnightblue" stroke="midnightblue" points="327.77,-138.74 338.31,-139.87 330.77,-132.42 327.77,-138.74"/>
</g>
<!-- Node9 -->
<g id="node9" class="node">
<title>Node9</title>
<g id="a_node9"><a xlink:href="guwhiteboardgetter_8h.html" target="_top" xlink:title=" ">
<polygon fill="none" stroke="black" points="303,-73 303,-92 410,-92 410,-73 303,-73"/>
<text text-anchor="middle" x="356.5" y="-80" font-family="Helvetica,sans-Serif" font-size="10.00">guwhiteboardgetter.h</text>
</a>
</g>
</g>
<!-- Node6&#45;&gt;Node9 -->
<g id="edge8" class="edge">
<title>Node6&#45;&gt;Node9</title>
<path fill="none" stroke="midnightblue" d="M356.5,-129.54C356.5,-117.17 356.5,-101.62 356.5,-92.13"/>
<polygon fill="midnightblue" stroke="midnightblue" points="353,-129.73 356.5,-139.73 360,-129.73 353,-129.73"/>
</g>
<!-- Node11 -->
<g id="node11" class="node">
<title>Node11</title>
<g id="a_node11"><a xlink:href="guwhiteboardposter_8cpp.html" target="_top" xlink:title=" ">
<polygon fill="none" stroke="black" points="428,-73 428,-92 547,-92 547,-73 428,-73"/>
<text text-anchor="middle" x="487.5" y="-80" font-family="Helvetica,sans-Serif" font-size="10.00">guwhiteboardposter.cpp</text>
</a>
</g>
</g>
<!-- Node6&#45;&gt;Node11 -->
<g id="edge10" class="edge">
<title>Node6&#45;&gt;Node11</title>
<path fill="none" stroke="midnightblue" d="M383.16,-135.27C409.1,-122.4 447.78,-103.21 470.03,-92.17"/>
<polygon fill="midnightblue" stroke="midnightblue" points="381.3,-132.29 373.9,-139.87 384.41,-138.56 381.3,-132.29"/>
</g>
<!-- Node8 -->
<g id="node8" class="node">
<title>Node8</title>
<g id="a_node8"><a xlink:href="_simple_whiteboard_test_8mm.html" target="_top" xlink:title=" ">
<polygon fill="none" stroke="black" points="146,-0.5 146,-30.5 283,-30.5 283,-0.5 146,-0.5"/>
<text text-anchor="start" x="154" y="-18.5" font-family="Helvetica,sans-Serif" font-size="10.00">SimpleWhiteboardTest</text>
<text text-anchor="middle" x="214.5" y="-7.5" font-family="Helvetica,sans-Serif" font-size="10.00">/SimpleWhiteboardTest.mm</text>
</a>
</g>
</g>
<!-- Node7&#45;&gt;Node8 -->
<g id="edge7" class="edge">
<title>Node7&#45;&gt;Node8</title>
<path fill="none" stroke="midnightblue" d="M217.65,-57.4C216.95,-48.37 216.19,-38.41 215.58,-30.58"/>
<polygon fill="midnightblue" stroke="midnightblue" points="214.16,-57.69 218.42,-67.4 221.14,-57.16 214.16,-57.69"/>
</g>
<!-- Node10 -->
<g id="node10" class="node">
<title>Node10</title>
<g id="a_node10"><a xlink:href="guwhiteboardgetter_8cpp.html" target="_top" xlink:title=" ">
<polygon fill="none" stroke="black" points="301,-6 301,-25 418,-25 418,-6 301,-6"/>
<text text-anchor="middle" x="359.5" y="-13" font-family="Helvetica,sans-Serif" font-size="10.00">guwhiteboardgetter.cpp</text>
</a>
</g>
</g>
<!-- Node9&#45;&gt;Node10 -->
<g id="edge9" class="edge">
<title>Node9&#45;&gt;Node10</title>
<path fill="none" stroke="midnightblue" d="M357.38,-62.54C357.95,-50.17 358.66,-34.62 359.1,-25.13"/>
<polygon fill="midnightblue" stroke="midnightblue" points="353.87,-62.58 356.9,-72.73 360.86,-62.91 353.87,-62.58"/>
</g>
</g>
</svg>
