<?xml version="1.0" encoding="UTF-8" standalone="no"?>
<!DOCTYPE svg PUBLIC "-//W3C//DTD SVG 1.1//EN"
 "http://www.w3.org/Graphics/SVG/1.1/DTD/svg11.dtd">
<!-- Generated by graphviz version 2.49.0 (20210830.1337)
 -->
<!-- Title: typeClassDefs/wb_particle_output_map.h Pages: 1 -->
<svg width="304pt" height="173pt"
 viewBox="0.00 0.00 303.50 173.00" xmlns="http://www.w3.org/2000/svg" xmlns:xlink="http://www.w3.org/1999/xlink">
<g id="graph0" class="graph" transform="scale(1 1) rotate(0) translate(4 169)">
<title>typeClassDefs/wb_particle_output_map.h</title>
<!-- Node1 -->
<g id="node1" class="node">
<title>Node1</title>
<g id="a_node1"><a xlink:title=" ">
<polygon fill="#bfbfbf" stroke="black" points="84.5,-134.5 84.5,-164.5 216.5,-164.5 216.5,-134.5 84.5,-134.5"/>
<text text-anchor="start" x="92.5" y="-152.5" font-family="Helvetica,sans-Serif" font-size="10.00">typeClassDefs/wb_particle</text>
<text text-anchor="middle" x="150.5" y="-141.5" font-family="Helvetica,sans-Serif" font-size="10.00">_output_map.h</text>
</a>
</g>
</g>
<!-- Node2 -->
<g id="node2" class="node">
<title>Node2</title>
<g id="a_node2"><a xlink:href="_particle_output_map_8hpp.html" target="_top" xlink:title=" ">
<polygon fill="none" stroke="black" points="0,-67.5 0,-97.5 145,-97.5 145,-67.5 0,-67.5"/>
<text text-anchor="start" x="8" y="-85.5" font-family="Helvetica,sans-Serif" font-size="10.00">typeClassDefs/ParticleOutput</text>
<text text-anchor="middle" x="72.5" y="-74.5" font-family="Helvetica,sans-Serif" font-size="10.00">Map.hpp</text>
</a>
</g>
</g>
<!-- Node1&#45;&gt;Node2 -->
<g id="edge1" class="edge">
<title>Node1&#45;&gt;Node2</title>
<path fill="none" stroke="midnightblue" d="M125.76,-127.88C113.91,-118.01 100.02,-106.43 89.39,-97.58"/>
<polygon fill="midnightblue" stroke="midnightblue" points="123.65,-130.68 133.58,-134.4 128.13,-125.31 123.65,-130.68"/>
</g>
<!-- Node4 -->
<g id="node4" class="node">
<title>Node4</title>
<g id="a_node4"><a xlink:href="wb__particle__output__map_8c.html" target="_top" xlink:title=" ">
<polygon fill="none" stroke="black" points="163.5,-67.5 163.5,-97.5 295.5,-97.5 295.5,-67.5 163.5,-67.5"/>
<text text-anchor="start" x="171.5" y="-85.5" font-family="Helvetica,sans-Serif" font-size="10.00">typeClassDefs/wb_particle</text>
<text text-anchor="middle" x="229.5" y="-74.5" font-family="Helvetica,sans-Serif" font-size="10.00">_output_map.c</text>
</a>
</g>
</g>
<!-- Node1&#45;&gt;Node4 -->
<g id="edge3" class="edge">
<title>Node1&#45;&gt;Node4</title>
<path fill="none" stroke="midnightblue" d="M175.56,-127.88C187.56,-118.01 201.63,-106.43 212.39,-97.58"/>
<polygon fill="midnightblue" stroke="midnightblue" points="173.14,-125.34 167.64,-134.4 177.59,-130.75 173.14,-125.34"/>
</g>
<!-- Node3 -->
<g id="node3" class="node">
<title>Node3</title>
<g id="a_node3"><a xlink:href="_particle_output_map_8h.html" target="_top" xlink:title=" ">
<polygon fill="none" stroke="black" points="0,-0.5 0,-30.5 145,-30.5 145,-0.5 0,-0.5"/>
<text text-anchor="start" x="8" y="-18.5" font-family="Helvetica,sans-Serif" font-size="10.00">typeClassDefs/ParticleOutput</text>
<text text-anchor="middle" x="72.5" y="-7.5" font-family="Helvetica,sans-Serif" font-size="10.00">Map.h</text>
</a>
</g>
</g>
<!-- Node2&#45;&gt;Node3 -->
<g id="edge2" class="edge">
<title>Node2&#45;&gt;Node3</title>
<path fill="none" stroke="midnightblue" d="M72.5,-57.11C72.5,-48.15 72.5,-38.32 72.5,-30.58"/>
<polygon fill="midnightblue" stroke="midnightblue" points="69,-57.4 72.5,-67.4 76,-57.4 69,-57.4"/>
</g>
</g>
</svg>
