<?xml version="1.0" encoding="UTF-8" standalone="no"?>
<!DOCTYPE svg PUBLIC "-//W3C//DTD SVG 1.1//EN"
 "http://www.w3.org/Graphics/SVG/1.1/DTD/svg11.dtd">
<!-- Generated by graphviz version 2.49.0 (20210830.1337)
 -->
<!-- Title: typeClassDefs/wb_vision_field_features.h Pages: 1 -->
<svg width="445pt" height="207pt"
 viewBox="0.00 0.00 444.50 207.00" xmlns="http://www.w3.org/2000/svg" xmlns:xlink="http://www.w3.org/1999/xlink">
<g id="graph0" class="graph" transform="scale(1 1) rotate(0) translate(4 203)">
<title>typeClassDefs/wb_vision_field_features.h</title>
<!-- Node1 -->
<g id="node1" class="node">
<title>Node1</title>
<g id="a_node1"><a xlink:title=" ">
<polygon fill="#bfbfbf" stroke="black" points="0,-168.5 0,-198.5 126,-198.5 126,-168.5 0,-168.5"/>
<text text-anchor="start" x="8" y="-186.5" font-family="Helvetica,sans-Serif" font-size="10.00">typeClassDefs/wb_vision</text>
<text text-anchor="middle" x="63" y="-175.5" font-family="Helvetica,sans-Serif" font-size="10.00">_field_features.h</text>
</a>
</g>
</g>
<!-- Node2 -->
<g id="node2" class="node">
<title>Node2</title>
<g id="a_node2"><a xlink:title=" ">
<polygon fill="none" stroke="#bfbfbf" points="41.5,-0.5 41.5,-19.5 94.5,-19.5 94.5,-0.5 41.5,-0.5"/>
<text text-anchor="middle" x="68" y="-7.5" font-family="Helvetica,sans-Serif" font-size="10.00">gu_util.h</text>
</a>
</g>
</g>
<!-- Node1&#45;&gt;Node2 -->
<g id="edge1" class="edge">
<title>Node1&#45;&gt;Node2</title>
<path fill="none" stroke="midnightblue" d="M57.9,-168.13C54.63,-158.14 50.69,-144.44 49,-132 44.45,-98.53 42.3,-89.11 49,-56 50.89,-46.65 54.79,-36.83 58.57,-28.75"/>
<polygon fill="midnightblue" stroke="midnightblue" points="61.79,-30.14 63.12,-19.63 55.53,-27.01 61.79,-30.14"/>
</g>
<!-- Node3 -->
<g id="node3" class="node">
<title>Node3</title>
<g id="a_node3"><a xlink:title=" ">
<polygon fill="none" stroke="#bfbfbf" points="113,-0.5 113,-19.5 161,-19.5 161,-0.5 113,-0.5"/>
<text text-anchor="middle" x="137" y="-7.5" font-family="Helvetica,sans-Serif" font-size="10.00">stdint.h</text>
</a>
</g>
</g>
<!-- Node1&#45;&gt;Node3 -->
<g id="edge2" class="edge">
<title>Node1&#45;&gt;Node3</title>
<path fill="none" stroke="midnightblue" d="M69.06,-168.47C82.44,-137.44 114.54,-63.05 129.32,-28.81"/>
<polygon fill="midnightblue" stroke="midnightblue" points="132.56,-30.13 133.31,-19.56 126.13,-27.35 132.56,-30.13"/>
</g>
<!-- Node4 -->
<g id="node4" class="node">
<title>Node4</title>
<g id="a_node4"><a xlink:href="wb__vision__field__feature_8h.html" target="_top" xlink:title=" ">
<polygon fill="none" stroke="black" points="125.5,-112.5 125.5,-131.5 250.5,-131.5 250.5,-112.5 125.5,-112.5"/>
<text text-anchor="middle" x="188" y="-119.5" font-family="Helvetica,sans-Serif" font-size="10.00">wb_vision_field_feature.h</text>
</a>
</g>
</g>
<!-- Node1&#45;&gt;Node4 -->
<g id="edge3" class="edge">
<title>Node1&#45;&gt;Node4</title>
<path fill="none" stroke="midnightblue" d="M92.62,-168.4C113.22,-158.59 140.48,-145.62 160.58,-136.05"/>
<polygon fill="midnightblue" stroke="midnightblue" points="162.29,-139.12 169.81,-131.66 159.28,-132.8 162.29,-139.12"/>
</g>
<!-- Node4&#45;&gt;Node2 -->
<g id="edge4" class="edge">
<title>Node4&#45;&gt;Node2</title>
<path fill="none" stroke="midnightblue" d="M178.58,-112.37C158.34,-93.81 110.45,-49.91 84.84,-26.44"/>
<polygon fill="midnightblue" stroke="midnightblue" points="87.11,-23.77 77.37,-19.59 82.38,-28.93 87.11,-23.77"/>
</g>
<!-- Node4&#45;&gt;Node3 -->
<g id="edge5" class="edge">
<title>Node4&#45;&gt;Node3</title>
<path fill="none" stroke="midnightblue" d="M181.27,-112.47C174.62,-103.72 164.54,-89.53 158,-76 150.74,-60.99 145.12,-42.85 141.53,-29.56"/>
<polygon fill="midnightblue" stroke="midnightblue" points="144.88,-28.52 139,-19.7 138.1,-30.26 144.88,-28.52"/>
</g>
<!-- Node5 -->
<g id="node5" class="node">
<title>Node5</title>
<g id="a_node5"><a xlink:href="wb__pixel__coordinate_8h.html" target="_top" xlink:title=" ">
<polygon fill="none" stroke="black" points="167,-56.5 167,-75.5 279,-75.5 279,-56.5 167,-56.5"/>
<text text-anchor="middle" x="223" y="-63.5" font-family="Helvetica,sans-Serif" font-size="10.00">wb_pixel_coordinate.h</text>
</a>
</g>
</g>
<!-- Node4&#45;&gt;Node5 -->
<g id="edge6" class="edge">
<title>Node4&#45;&gt;Node5</title>
<path fill="none" stroke="midnightblue" d="M193.78,-112.08C198.67,-104.53 205.83,-93.49 211.83,-84.23"/>
<polygon fill="midnightblue" stroke="midnightblue" points="214.83,-86.05 217.33,-75.75 208.95,-82.24 214.83,-86.05"/>
</g>
<!-- Node6 -->
<g id="node6" class="node">
<title>Node6</title>
<g id="a_node6"><a xlink:title=" ">
<polygon fill="none" stroke="#bfbfbf" points="179,-0.5 179,-19.5 269,-19.5 269,-0.5 179,-0.5"/>
<text text-anchor="middle" x="224" y="-7.5" font-family="Helvetica,sans-Serif" font-size="10.00">guunits/guunits.h</text>
</a>
</g>
</g>
<!-- Node4&#45;&gt;Node6 -->
<g id="edge11" class="edge">
<title>Node4&#45;&gt;Node6</title>
<path fill="none" stroke="midnightblue" d="M232.7,-112.48C253.23,-106.09 275.7,-95.02 288,-76 301.15,-55.66 275.75,-36.43 253.16,-24.23"/>
<polygon fill="midnightblue" stroke="midnightblue" points="254.6,-21.04 244.1,-19.61 251.42,-27.27 254.6,-21.04"/>
</g>
<!-- Node7 -->
<g id="node7" class="node">
<title>Node7</title>
<g id="a_node7"><a xlink:title=" ">
<polygon fill="none" stroke="#bfbfbf" points="287.5,-0.5 287.5,-19.5 436.5,-19.5 436.5,-0.5 287.5,-0.5"/>
<text text-anchor="middle" x="362" y="-7.5" font-family="Helvetica,sans-Serif" font-size="10.00">gucoordinates/gucoordinates.h</text>
</a>
</g>
</g>
<!-- Node4&#45;&gt;Node7 -->
<g id="edge12" class="edge">
<title>Node4&#45;&gt;Node7</title>
<path fill="none" stroke="midnightblue" d="M221.19,-112.45C245.29,-105.23 277.93,-93.27 303,-76 322.12,-62.82 339.38,-42.3 350.22,-27.85"/>
<polygon fill="midnightblue" stroke="midnightblue" points="353.06,-29.9 356.1,-19.76 347.4,-25.79 353.06,-29.9"/>
</g>
<!-- Node5&#45;&gt;Node2 -->
<g id="edge7" class="edge">
<title>Node5&#45;&gt;Node2</title>
<path fill="none" stroke="midnightblue" d="M198.44,-56.44C172.48,-47.4 131.33,-33.06 102.2,-22.92"/>
<polygon fill="midnightblue" stroke="midnightblue" points="103.04,-19.5 92.45,-19.52 100.74,-26.11 103.04,-19.5"/>
</g>
<!-- Node5&#45;&gt;Node3 -->
<g id="edge8" class="edge">
<title>Node5&#45;&gt;Node3</title>
<path fill="none" stroke="midnightblue" d="M209.18,-56.32C195.77,-47.9 175.18,-34.97 159.41,-25.07"/>
<polygon fill="midnightblue" stroke="midnightblue" points="161.11,-22.01 150.78,-19.65 157.39,-27.94 161.11,-22.01"/>
</g>
<!-- Node5&#45;&gt;Node6 -->
<g id="edge9" class="edge">
<title>Node5&#45;&gt;Node6</title>
<path fill="none" stroke="midnightblue" d="M223.17,-56.08C223.3,-49.01 223.48,-38.86 223.65,-29.99"/>
<polygon fill="midnightblue" stroke="midnightblue" points="227.15,-29.81 223.84,-19.75 220.15,-29.68 227.15,-29.81"/>
</g>
<!-- Node5&#45;&gt;Node7 -->
<g id="edge10" class="edge">
<title>Node5&#45;&gt;Node7</title>
<path fill="none" stroke="midnightblue" d="M245.02,-56.44C268.1,-47.48 304.56,-33.31 330.64,-23.18"/>
<polygon fill="midnightblue" stroke="midnightblue" points="332.02,-26.4 340.08,-19.52 329.49,-19.88 332.02,-26.4"/>
</g>
</g>
</svg>
