<?xml version="1.0" encoding="UTF-8" standalone="no"?>
<!DOCTYPE svg PUBLIC "-//W3C//DTD SVG 1.1//EN"
 "http://www.w3.org/Graphics/SVG/1.1/DTD/svg11.dtd">
<!-- Generated by graphviz version 2.49.0 (20210830.1337)
 -->
<!-- Title: typeClassDefs/wb_gu_vr_teleop_vulkan_control.c Pages: 1 -->
<svg width="458pt" height="162pt"
 viewBox="0.00 0.00 457.50 162.00" xmlns="http://www.w3.org/2000/svg" xmlns:xlink="http://www.w3.org/1999/xlink">
<g id="graph0" class="graph" transform="scale(1 1) rotate(0) translate(4 158)">
<title>typeClassDefs/wb_gu_vr_teleop_vulkan_control.c</title>
<!-- Node1 -->
<g id="node1" class="node">
<title>Node1</title>
<g id="a_node1"><a xlink:title=" ">
<polygon fill="#bfbfbf" stroke="black" points="194.5,-123.5 194.5,-153.5 331.5,-153.5 331.5,-123.5 194.5,-123.5"/>
<text text-anchor="start" x="202.5" y="-141.5" font-family="Helvetica,sans-Serif" font-size="10.00">typeClassDefs/wb_gu</text>
<text text-anchor="middle" x="263" y="-130.5" font-family="Helvetica,sans-Serif" font-size="10.00">_vr_teleop_vulkan_control.c</text>
</a>
</g>
</g>
<!-- Node2 -->
<g id="node2" class="node">
<title>Node2</title>
<g id="a_node2"><a xlink:href="wb__gu__vr__teleop__vulkan__control_8h.html" target="_top" xlink:title=" ">
<polygon fill="none" stroke="black" points="0,-56.5 0,-86.5 124,-86.5 124,-56.5 0,-56.5"/>
<text text-anchor="start" x="8" y="-74.5" font-family="Helvetica,sans-Serif" font-size="10.00">wb_gu_vr_teleop_vulkan</text>
<text text-anchor="middle" x="62" y="-63.5" font-family="Helvetica,sans-Serif" font-size="10.00">_control.h</text>
</a>
</g>
</g>
<!-- Node1&#45;&gt;Node2 -->
<g id="edge1" class="edge">
<title>Node1&#45;&gt;Node2</title>
<path fill="none" stroke="midnightblue" d="M219.39,-123.4C188.83,-113.52 147.82,-100.25 115.32,-89.74"/>
<polygon fill="midnightblue" stroke="midnightblue" points="116.12,-86.32 105.53,-86.58 113.97,-92.98 116.12,-86.32"/>
</g>
<!-- Node5 -->
<g id="node5" class="node">
<title>Node5</title>
<g id="a_node5"><a xlink:title=" ">
<polygon fill="none" stroke="#bfbfbf" points="142.5,-62 142.5,-81 187.5,-81 187.5,-62 142.5,-62"/>
<text text-anchor="middle" x="165" y="-69" font-family="Helvetica,sans-Serif" font-size="10.00">stdio.h</text>
</a>
</g>
</g>
<!-- Node1&#45;&gt;Node5 -->
<g id="edge4" class="edge">
<title>Node1&#45;&gt;Node5</title>
<path fill="none" stroke="midnightblue" d="M241.74,-123.4C225.3,-112.5 202.66,-97.48 186.23,-86.58"/>
<polygon fill="midnightblue" stroke="midnightblue" points="188.09,-83.62 177.83,-81.01 184.22,-89.45 188.09,-83.62"/>
</g>
<!-- Node6 -->
<g id="node6" class="node">
<title>Node6</title>
<g id="a_node6"><a xlink:title=" ">
<polygon fill="none" stroke="#bfbfbf" points="206,-62 206,-81 254,-81 254,-62 206,-62"/>
<text text-anchor="middle" x="230" y="-69" font-family="Helvetica,sans-Serif" font-size="10.00">string.h</text>
</a>
</g>
</g>
<!-- Node1&#45;&gt;Node6 -->
<g id="edge5" class="edge">
<title>Node1&#45;&gt;Node6</title>
<path fill="none" stroke="midnightblue" d="M255.84,-123.4C250.9,-113.66 244.29,-100.65 238.99,-90.21"/>
<polygon fill="midnightblue" stroke="midnightblue" points="242.06,-88.53 234.41,-81.19 235.82,-91.7 242.06,-88.53"/>
</g>
<!-- Node7 -->
<g id="node7" class="node">
<title>Node7</title>
<g id="a_node7"><a xlink:title=" ">
<polygon fill="none" stroke="#bfbfbf" points="272.5,-62 272.5,-81 319.5,-81 319.5,-62 272.5,-62"/>
<text text-anchor="middle" x="296" y="-69" font-family="Helvetica,sans-Serif" font-size="10.00">stdlib.h</text>
</a>
</g>
</g>
<!-- Node1&#45;&gt;Node7 -->
<g id="edge6" class="edge">
<title>Node1&#45;&gt;Node7</title>
<path fill="none" stroke="midnightblue" d="M270.16,-123.4C275.1,-113.66 281.71,-100.65 287.01,-90.21"/>
<polygon fill="midnightblue" stroke="midnightblue" points="290.18,-91.7 291.59,-81.19 283.94,-88.53 290.18,-91.7"/>
</g>
<!-- Node8 -->
<g id="node8" class="node">
<title>Node8</title>
<g id="a_node8"><a xlink:title=" ">
<polygon fill="none" stroke="#bfbfbf" points="337.5,-62 337.5,-81 384.5,-81 384.5,-62 337.5,-62"/>
<text text-anchor="middle" x="361" y="-69" font-family="Helvetica,sans-Serif" font-size="10.00">ctype.h</text>
</a>
</g>
</g>
<!-- Node1&#45;&gt;Node8 -->
<g id="edge7" class="edge">
<title>Node1&#45;&gt;Node8</title>
<path fill="none" stroke="midnightblue" d="M284.26,-123.4C300.7,-112.5 323.34,-97.48 339.77,-86.58"/>
<polygon fill="midnightblue" stroke="midnightblue" points="341.78,-89.45 348.17,-81.01 337.91,-83.62 341.78,-89.45"/>
</g>
<!-- Node9 -->
<g id="node9" class="node">
<title>Node9</title>
<g id="a_node9"><a xlink:title=" ">
<polygon fill="none" stroke="#bfbfbf" points="402.5,-62 402.5,-81 449.5,-81 449.5,-62 402.5,-62"/>
<text text-anchor="middle" x="426" y="-69" font-family="Helvetica,sans-Serif" font-size="10.00">limits.h</text>
</a>
</g>
</g>
<!-- Node1&#45;&gt;Node9 -->
<g id="edge8" class="edge">
<title>Node1&#45;&gt;Node9</title>
<path fill="none" stroke="midnightblue" d="M301.07,-123.49C327.33,-113.66 362.98,-100 394,-87 395.37,-86.43 396.77,-85.83 398.18,-85.22"/>
<polygon fill="midnightblue" stroke="midnightblue" points="399.74,-88.36 407.47,-81.12 396.9,-81.96 399.74,-88.36"/>
</g>
<!-- Node3 -->
<g id="node3" class="node">
<title>Node3</title>
<g id="a_node3"><a xlink:title=" ">
<polygon fill="none" stroke="#bfbfbf" points="1.5,-0.5 1.5,-19.5 54.5,-19.5 54.5,-0.5 1.5,-0.5"/>
<text text-anchor="middle" x="28" y="-7.5" font-family="Helvetica,sans-Serif" font-size="10.00">gu_util.h</text>
</a>
</g>
</g>
<!-- Node2&#45;&gt;Node3 -->
<g id="edge2" class="edge">
<title>Node2&#45;&gt;Node3</title>
<path fill="none" stroke="midnightblue" d="M53.94,-56.4C49.15,-48.02 43.04,-37.33 37.96,-28.42"/>
<polygon fill="midnightblue" stroke="midnightblue" points="40.95,-26.6 32.95,-19.66 34.87,-30.08 40.95,-26.6"/>
</g>
<!-- Node4 -->
<g id="node4" class="node">
<title>Node4</title>
<g id="a_node4"><a xlink:title=" ">
<polygon fill="none" stroke="#bfbfbf" points="73,-0.5 73,-19.5 121,-19.5 121,-0.5 73,-0.5"/>
<text text-anchor="middle" x="97" y="-7.5" font-family="Helvetica,sans-Serif" font-size="10.00">stdint.h</text>
</a>
</g>
</g>
<!-- Node2&#45;&gt;Node4 -->
<g id="edge3" class="edge">
<title>Node2&#45;&gt;Node4</title>
<path fill="none" stroke="midnightblue" d="M70.29,-56.4C75.22,-48.02 81.51,-37.33 86.75,-28.42"/>
<polygon fill="midnightblue" stroke="midnightblue" points="89.85,-30.05 91.91,-19.66 83.82,-26.5 89.85,-30.05"/>
</g>
</g>
</svg>
