<?xml version="1.0" encoding="UTF-8" standalone="no"?>
<!DOCTYPE svg PUBLIC "-//W3C//DTD SVG 1.1//EN"
 "http://www.w3.org/Graphics/SVG/1.1/DTD/svg11.dtd">
<!-- Generated by graphviz version 2.49.0 (20210830.1337)
 -->
<!-- Title: typeClassDefs/wb_filtered_vision_object.h Pages: 1 -->
<svg width="1032pt" height="441pt"
 viewBox="0.00 0.00 1032.00 441.00" xmlns="http://www.w3.org/2000/svg" xmlns:xlink="http://www.w3.org/1999/xlink">
<g id="graph0" class="graph" transform="scale(1 1) rotate(0) translate(4 437)">
<title>typeClassDefs/wb_filtered_vision_object.h</title>
<!-- Node1 -->
<g id="node1" class="node">
<title>Node1</title>
<g id="a_node1"><a xlink:title=" ">
<polygon fill="#bfbfbf" stroke="black" points="429,-402.5 429,-432.5 558,-432.5 558,-402.5 429,-402.5"/>
<text text-anchor="start" x="437" y="-420.5" font-family="Helvetica,sans-Serif" font-size="10.00">typeClassDefs/wb_filtered</text>
<text text-anchor="middle" x="493.5" y="-409.5" font-family="Helvetica,sans-Serif" font-size="10.00">_vision_object.h</text>
</a>
</g>
</g>
<!-- Node2 -->
<g id="node2" class="node">
<title>Node2</title>
<g id="a_node2"><a xlink:href="guwhiteboard__c__types__manual__definitions_8h.html" target="_top" xlink:title=" ">
<polygon fill="none" stroke="black" points="164,-268.5 164,-298.5 277,-298.5 277,-268.5 164,-268.5"/>
<text text-anchor="start" x="172" y="-286.5" font-family="Helvetica,sans-Serif" font-size="10.00">guwhiteboard_c_types</text>
<text text-anchor="middle" x="220.5" y="-275.5" font-family="Helvetica,sans-Serif" font-size="10.00">_manual_definitions.h</text>
</a>
</g>
</g>
<!-- Node1&#45;&gt;Node2 -->
<g id="edge1" class="edge">
<title>Node1&#45;&gt;Node2</title>
<path fill="none" stroke="midnightblue" d="M418.93,-407.33C360.74,-398.9 285.83,-384.86 261.5,-366 239.59,-349.02 228.48,-317.17 223.64,-298.71"/>
<polygon fill="midnightblue" stroke="midnightblue" points="418.46,-410.8 428.85,-408.74 419.44,-403.87 418.46,-410.8"/>
</g>
<!-- Node6 -->
<g id="node6" class="node">
<title>Node6</title>
<g id="a_node6"><a xlink:href="_filtered_vision_object_8hpp.html" target="_top" xlink:title=" ">
<polygon fill="none" stroke="black" points="422.5,-335.5 422.5,-365.5 564.5,-365.5 564.5,-335.5 422.5,-335.5"/>
<text text-anchor="start" x="430.5" y="-353.5" font-family="Helvetica,sans-Serif" font-size="10.00">typeClassDefs/FilteredVision</text>
<text text-anchor="middle" x="493.5" y="-342.5" font-family="Helvetica,sans-Serif" font-size="10.00">Object.hpp</text>
</a>
</g>
</g>
<!-- Node1&#45;&gt;Node6 -->
<g id="edge5" class="edge">
<title>Node1&#45;&gt;Node6</title>
<path fill="none" stroke="midnightblue" d="M493.5,-392.11C493.5,-383.15 493.5,-373.32 493.5,-365.58"/>
<polygon fill="midnightblue" stroke="midnightblue" points="490,-392.4 493.5,-402.4 497,-392.4 490,-392.4"/>
</g>
<!-- Node22 -->
<g id="node22" class="node">
<title>Node22</title>
<g id="a_node22"><a xlink:href="wb__filtered__arrayballsightings_8h.html" target="_top" xlink:title=" ">
<polygon fill="none" stroke="black" points="271,-335.5 271,-365.5 400,-365.5 400,-335.5 271,-335.5"/>
<text text-anchor="start" x="279" y="-353.5" font-family="Helvetica,sans-Serif" font-size="10.00">typeClassDefs/wb_filtered</text>
<text text-anchor="middle" x="335.5" y="-342.5" font-family="Helvetica,sans-Serif" font-size="10.00">_arrayballsightings.h</text>
</a>
</g>
</g>
<!-- Node1&#45;&gt;Node22 -->
<g id="edge25" class="edge">
<title>Node1&#45;&gt;Node22</title>
<path fill="none" stroke="midnightblue" d="M449.85,-398.54C424.57,-388.14 393.2,-375.24 369.72,-365.58"/>
<polygon fill="midnightblue" stroke="midnightblue" points="448.64,-401.83 459.22,-402.4 451.3,-395.35 448.64,-401.83"/>
</g>
<!-- Node24 -->
<g id="node24" class="node">
<title>Node24</title>
<g id="a_node24"><a xlink:href="wb__filtered__arrayonedimobjects_8h.html" target="_top" xlink:title=" ">
<polygon fill="none" stroke="black" points="583,-335.5 583,-365.5 712,-365.5 712,-335.5 583,-335.5"/>
<text text-anchor="start" x="591" y="-353.5" font-family="Helvetica,sans-Serif" font-size="10.00">typeClassDefs/wb_filtered</text>
<text text-anchor="middle" x="647.5" y="-342.5" font-family="Helvetica,sans-Serif" font-size="10.00">_arrayonedimobjects.h</text>
</a>
</g>
</g>
<!-- Node1&#45;&gt;Node24 -->
<g id="edge29" class="edge">
<title>Node1&#45;&gt;Node24</title>
<path fill="none" stroke="midnightblue" d="M536.37,-398.41C560.95,-388.03 591.36,-375.2 614.15,-365.58"/>
<polygon fill="midnightblue" stroke="midnightblue" points="534.77,-395.28 526.92,-402.4 537.49,-401.73 534.77,-395.28"/>
</g>
<!-- Node26 -->
<g id="node26" class="node">
<title>Node26</title>
<g id="a_node26"><a xlink:href="wb__filtered__vision__object_8c.html" target="_top" xlink:title=" ">
<polygon fill="none" stroke="black" points="730,-335.5 730,-365.5 859,-365.5 859,-335.5 730,-335.5"/>
<text text-anchor="start" x="738" y="-353.5" font-family="Helvetica,sans-Serif" font-size="10.00">typeClassDefs/wb_filtered</text>
<text text-anchor="middle" x="794.5" y="-342.5" font-family="Helvetica,sans-Serif" font-size="10.00">_vision_object.c</text>
</a>
</g>
</g>
<!-- Node1&#45;&gt;Node26 -->
<g id="edge33" class="edge">
<title>Node1&#45;&gt;Node26</title>
<path fill="none" stroke="midnightblue" d="M568.11,-400.39C617.75,-389.67 682.31,-375.73 729.78,-365.48"/>
<polygon fill="midnightblue" stroke="midnightblue" points="567.11,-397.02 558.07,-402.56 568.59,-403.87 567.11,-397.02"/>
</g>
<!-- Node3 -->
<g id="node3" class="node">
<title>Node3</title>
<g id="a_node3"><a xlink:href="guwhiteboard__c__types_8h.html" target="_top" xlink:title=" ">
<polygon fill="none" stroke="black" points="149,-207 149,-226 270,-226 270,-207 149,-207"/>
<text text-anchor="middle" x="209.5" y="-214" font-family="Helvetica,sans-Serif" font-size="10.00">guwhiteboard_c_types.h</text>
</a>
</g>
</g>
<!-- Node2&#45;&gt;Node3 -->
<g id="edge2" class="edge">
<title>Node2&#45;&gt;Node3</title>
<path fill="none" stroke="midnightblue" d="M216.4,-258.25C214.5,-247.02 212.36,-234.38 210.97,-226.19"/>
<polygon fill="midnightblue" stroke="midnightblue" points="212.99,-259.12 218.11,-268.4 219.9,-257.95 212.99,-259.12"/>
</g>
<!-- Node4 -->
<g id="node4" class="node">
<title>Node4</title>
<g id="a_node4"><a xlink:href="guwhiteboarddeserialiser_8c.html" target="_top" xlink:title=" ">
<polygon fill="none" stroke="black" points="0,-140 0,-159 131,-159 131,-140 0,-140"/>
<text text-anchor="middle" x="65.5" y="-147" font-family="Helvetica,sans-Serif" font-size="10.00">guwhiteboarddeserialiser.c</text>
</a>
</g>
</g>
<!-- Node3&#45;&gt;Node4 -->
<g id="edge3" class="edge">
<title>Node3&#45;&gt;Node4</title>
<path fill="none" stroke="midnightblue" d="M180.95,-202.61C152.43,-189.74 109.38,-170.31 84.7,-159.17"/>
<polygon fill="midnightblue" stroke="midnightblue" points="179.82,-205.94 190.38,-206.87 182.7,-199.56 179.82,-205.94"/>
</g>
<!-- Node5 -->
<g id="node5" class="node">
<title>Node5</title>
<g id="a_node5"><a xlink:href="guwhiteboardserialiser_8c.html" target="_top" xlink:title=" ">
<polygon fill="none" stroke="black" points="149,-140 149,-159 270,-159 270,-140 149,-140"/>
<text text-anchor="middle" x="209.5" y="-147" font-family="Helvetica,sans-Serif" font-size="10.00">guwhiteboardserialiser.c</text>
</a>
</g>
</g>
<!-- Node3&#45;&gt;Node5 -->
<g id="edge4" class="edge">
<title>Node3&#45;&gt;Node5</title>
<path fill="none" stroke="midnightblue" d="M209.5,-196.54C209.5,-184.17 209.5,-168.62 209.5,-159.13"/>
<polygon fill="midnightblue" stroke="midnightblue" points="206,-196.73 209.5,-206.73 213,-196.73 206,-196.73"/>
</g>
<!-- Node7 -->
<g id="node7" class="node">
<title>Node7</title>
<g id="a_node7"><a xlink:href="_filtered_vision_object_8h.html" target="_top" xlink:title=" ">
<polygon fill="none" stroke="black" points="481.5,-268.5 481.5,-298.5 623.5,-298.5 623.5,-268.5 481.5,-268.5"/>
<text text-anchor="start" x="489.5" y="-286.5" font-family="Helvetica,sans-Serif" font-size="10.00">typeClassDefs/FilteredVision</text>
<text text-anchor="middle" x="552.5" y="-275.5" font-family="Helvetica,sans-Serif" font-size="10.00">Object.h</text>
</a>
</g>
</g>
<!-- Node6&#45;&gt;Node7 -->
<g id="edge6" class="edge">
<title>Node6&#45;&gt;Node7</title>
<path fill="none" stroke="midnightblue" d="M513.25,-327.74C521.98,-318.12 532,-307.09 539.72,-298.58"/>
<polygon fill="midnightblue" stroke="midnightblue" points="510.43,-325.64 506.3,-335.4 515.61,-330.34 510.43,-325.64"/>
</g>
<!-- Node8 -->
<g id="node8" class="node">
<title>Node8</title>
<g id="a_node8"><a xlink:href="_filtered_array_ball_sightings_8hpp.html" target="_top" xlink:title=" ">
<polygon fill="none" stroke="black" points="288,-201.5 288,-231.5 425,-231.5 425,-201.5 288,-201.5"/>
<text text-anchor="start" x="296" y="-219.5" font-family="Helvetica,sans-Serif" font-size="10.00">typeClassDefs/FilteredArray</text>
<text text-anchor="middle" x="356.5" y="-208.5" font-family="Helvetica,sans-Serif" font-size="10.00">BallSightings.hpp</text>
</a>
</g>
</g>
<!-- Node7&#45;&gt;Node8 -->
<g id="edge7" class="edge">
<title>Node7&#45;&gt;Node8</title>
<path fill="none" stroke="midnightblue" d="M500.42,-265.23C468.71,-254.71 428.72,-241.45 398.95,-231.58"/>
<polygon fill="midnightblue" stroke="midnightblue" points="499.38,-268.57 509.97,-268.4 501.58,-261.93 499.38,-268.57"/>
</g>
<!-- Node18 -->
<g id="node18" class="node">
<title>Node18</title>
<g id="a_node18"><a xlink:href="_filtered_array_one_dim_objects_8hpp.html" target="_top" xlink:title=" ">
<polygon fill="none" stroke="black" points="594,-201.5 594,-231.5 731,-231.5 731,-201.5 594,-201.5"/>
<text text-anchor="start" x="602" y="-219.5" font-family="Helvetica,sans-Serif" font-size="10.00">typeClassDefs/FilteredArray</text>
<text text-anchor="middle" x="662.5" y="-208.5" font-family="Helvetica,sans-Serif" font-size="10.00">OneDimObjects.hpp</text>
</a>
</g>
</g>
<!-- Node7&#45;&gt;Node18 -->
<g id="edge17" class="edge">
<title>Node7&#45;&gt;Node18</title>
<path fill="none" stroke="midnightblue" d="M585,-263.3C602.21,-253.12 622.98,-240.85 638.68,-231.58"/>
<polygon fill="midnightblue" stroke="midnightblue" points="583.2,-260.3 576.37,-268.4 586.76,-266.32 583.2,-260.3"/>
</g>
<!-- Node20 -->
<g id="node20" class="node">
<title>Node20</title>
<g id="a_node20"><a xlink:href="_filtered_one_dim_object_8hpp.html" target="_top" xlink:title=" ">
<polygon fill="none" stroke="black" points="443,-201.5 443,-231.5 576,-231.5 576,-201.5 443,-201.5"/>
<text text-anchor="start" x="451" y="-219.5" font-family="Helvetica,sans-Serif" font-size="10.00">typeClassDefs/FilteredOne</text>
<text text-anchor="middle" x="509.5" y="-208.5" font-family="Helvetica,sans-Serif" font-size="10.00">DimObject.hpp</text>
</a>
</g>
</g>
<!-- Node7&#45;&gt;Node20 -->
<g id="edge21" class="edge">
<title>Node7&#45;&gt;Node20</title>
<path fill="none" stroke="midnightblue" d="M537.53,-259.87C531.3,-250.46 524.27,-239.83 518.81,-231.58"/>
<polygon fill="midnightblue" stroke="midnightblue" points="534.73,-261.99 543.17,-268.4 540.57,-258.12 534.73,-261.99"/>
</g>
<!-- Node9 -->
<g id="node9" class="node">
<title>Node9</title>
<g id="a_node9"><a xlink:href="guwhiteboardposter_8h.html" target="_top" xlink:title=" ">
<polygon fill="none" stroke="black" points="608,-140 608,-159 717,-159 717,-140 608,-140"/>
<text text-anchor="middle" x="662.5" y="-147" font-family="Helvetica,sans-Serif" font-size="10.00">guwhiteboardposter.h</text>
</a>
</g>
</g>
<!-- Node8&#45;&gt;Node9 -->
<g id="edge8" class="edge">
<title>Node8&#45;&gt;Node9</title>
<path fill="none" stroke="midnightblue" d="M432.36,-199.39C492.51,-186.61 574.21,-169.25 622.35,-159.03"/>
<polygon fill="midnightblue" stroke="midnightblue" points="431.58,-195.97 422.52,-201.48 433.03,-202.82 431.58,-195.97"/>
</g>
<!-- Node15 -->
<g id="node15" class="node">
<title>Node15</title>
<g id="a_node15"><a xlink:href="_filtered_array_ball_sightings_8h.html" target="_top" xlink:title=" ">
<polygon fill="none" stroke="black" points="288,-134.5 288,-164.5 425,-164.5 425,-134.5 288,-134.5"/>
<text text-anchor="start" x="296" y="-152.5" font-family="Helvetica,sans-Serif" font-size="10.00">typeClassDefs/FilteredArray</text>
<text text-anchor="middle" x="356.5" y="-141.5" font-family="Helvetica,sans-Serif" font-size="10.00">BallSightings.h</text>
</a>
</g>
</g>
<!-- Node8&#45;&gt;Node15 -->
<g id="edge14" class="edge">
<title>Node8&#45;&gt;Node15</title>
<path fill="none" stroke="midnightblue" d="M356.5,-191.11C356.5,-182.15 356.5,-172.32 356.5,-164.58"/>
<polygon fill="midnightblue" stroke="midnightblue" points="353,-191.4 356.5,-201.4 360,-191.4 353,-191.4"/>
</g>
<!-- Node10 -->
<g id="node10" class="node">
<title>Node10</title>
<g id="a_node10"><a xlink:href="_simple_whiteboard_test_8h.html" target="_top" xlink:title=" ">
<polygon fill="none" stroke="black" points="619,-67.5 619,-97.5 744,-97.5 744,-67.5 619,-67.5"/>
<text text-anchor="start" x="627" y="-85.5" font-family="Helvetica,sans-Serif" font-size="10.00">SimpleWhiteboardTest</text>
<text text-anchor="middle" x="681.5" y="-74.5" font-family="Helvetica,sans-Serif" font-size="10.00">/SimpleWhiteboardTest.h</text>
</a>
</g>
</g>
<!-- Node9&#45;&gt;Node10 -->
<g id="edge9" class="edge">
<title>Node9&#45;&gt;Node10</title>
<path fill="none" stroke="midnightblue" d="M667.89,-130.06C670.9,-119.75 674.6,-107.1 677.38,-97.59"/>
<polygon fill="midnightblue" stroke="midnightblue" points="664.51,-129.15 665.06,-139.73 671.23,-131.12 664.51,-129.15"/>
</g>
<!-- Node12 -->
<g id="node12" class="node">
<title>Node12</title>
<g id="a_node12"><a xlink:href="guwhiteboardgetter_8h.html" target="_top" xlink:title=" ">
<polygon fill="none" stroke="black" points="762,-73 762,-92 869,-92 869,-73 762,-73"/>
<text text-anchor="middle" x="815.5" y="-80" font-family="Helvetica,sans-Serif" font-size="10.00">guwhiteboardgetter.h</text>
</a>
</g>
</g>
<!-- Node9&#45;&gt;Node12 -->
<g id="edge11" class="edge">
<title>Node9&#45;&gt;Node12</title>
<path fill="none" stroke="midnightblue" d="M692.04,-135.95C722.34,-123.08 768.65,-103.4 795.1,-92.17"/>
<polygon fill="midnightblue" stroke="midnightblue" points="690.65,-132.74 682.82,-139.87 693.39,-139.18 690.65,-132.74"/>
</g>
<!-- Node14 -->
<g id="node14" class="node">
<title>Node14</title>
<g id="a_node14"><a xlink:href="guwhiteboardposter_8cpp.html" target="_top" xlink:title=" ">
<polygon fill="none" stroke="black" points="482,-73 482,-92 601,-92 601,-73 482,-73"/>
<text text-anchor="middle" x="541.5" y="-80" font-family="Helvetica,sans-Serif" font-size="10.00">guwhiteboardposter.cpp</text>
</a>
</g>
</g>
<!-- Node9&#45;&gt;Node14 -->
<g id="edge13" class="edge">
<title>Node9&#45;&gt;Node14</title>
<path fill="none" stroke="midnightblue" d="M637.29,-134.96C613.3,-122.07 577.94,-103.07 557.56,-92.13"/>
<polygon fill="midnightblue" stroke="midnightblue" points="635.72,-138.08 646.18,-139.73 639.03,-131.92 635.72,-138.08"/>
</g>
<!-- Node11 -->
<g id="node11" class="node">
<title>Node11</title>
<g id="a_node11"><a xlink:href="_simple_whiteboard_test_8mm.html" target="_top" xlink:title=" ">
<polygon fill="none" stroke="black" points="607,-0.5 607,-30.5 744,-30.5 744,-0.5 607,-0.5"/>
<text text-anchor="start" x="615" y="-18.5" font-family="Helvetica,sans-Serif" font-size="10.00">SimpleWhiteboardTest</text>
<text text-anchor="middle" x="675.5" y="-7.5" font-family="Helvetica,sans-Serif" font-size="10.00">/SimpleWhiteboardTest.mm</text>
</a>
</g>
</g>
<!-- Node10&#45;&gt;Node11 -->
<g id="edge10" class="edge">
<title>Node10&#45;&gt;Node11</title>
<path fill="none" stroke="midnightblue" d="M679.28,-57.4C678.44,-48.37 677.52,-38.41 676.8,-30.58"/>
<polygon fill="midnightblue" stroke="midnightblue" points="675.79,-57.76 680.2,-67.4 682.76,-57.12 675.79,-57.76"/>
</g>
<!-- Node13 -->
<g id="node13" class="node">
<title>Node13</title>
<g id="a_node13"><a xlink:href="guwhiteboardgetter_8cpp.html" target="_top" xlink:title=" ">
<polygon fill="none" stroke="black" points="762,-6 762,-25 879,-25 879,-6 762,-6"/>
<text text-anchor="middle" x="820.5" y="-13" font-family="Helvetica,sans-Serif" font-size="10.00">guwhiteboardgetter.cpp</text>
</a>
</g>
</g>
<!-- Node12&#45;&gt;Node13 -->
<g id="edge12" class="edge">
<title>Node12&#45;&gt;Node13</title>
<path fill="none" stroke="midnightblue" d="M816.96,-62.54C817.91,-50.17 819.11,-34.62 819.84,-25.13"/>
<polygon fill="midnightblue" stroke="midnightblue" points="813.45,-62.49 816.17,-72.73 820.43,-63.03 813.45,-62.49"/>
</g>
<!-- Node16 -->
<g id="node16" class="node">
<title>Node16</title>
<g id="a_node16"><a xlink:href="_filtered_array_one_dim_ball_8hpp.html" target="_top" xlink:title=" ">
<polygon fill="none" stroke="black" points="288,-67.5 288,-97.5 425,-97.5 425,-67.5 288,-67.5"/>
<text text-anchor="start" x="296" y="-85.5" font-family="Helvetica,sans-Serif" font-size="10.00">typeClassDefs/FilteredArray</text>
<text text-anchor="middle" x="356.5" y="-74.5" font-family="Helvetica,sans-Serif" font-size="10.00">OneDimBall.hpp</text>
</a>
</g>
</g>
<!-- Node15&#45;&gt;Node16 -->
<g id="edge15" class="edge">
<title>Node15&#45;&gt;Node16</title>
<path fill="none" stroke="midnightblue" d="M356.5,-124.11C356.5,-115.15 356.5,-105.32 356.5,-97.58"/>
<polygon fill="midnightblue" stroke="midnightblue" points="353,-124.4 356.5,-134.4 360,-124.4 353,-124.4"/>
</g>
<!-- Node17 -->
<g id="node17" class="node">
<title>Node17</title>
<g id="a_node17"><a xlink:href="_filtered_array_one_dim_ball_8h.html" target="_top" xlink:title=" ">
<polygon fill="none" stroke="black" points="288,-0.5 288,-30.5 425,-30.5 425,-0.5 288,-0.5"/>
<text text-anchor="start" x="296" y="-18.5" font-family="Helvetica,sans-Serif" font-size="10.00">typeClassDefs/FilteredArray</text>
<text text-anchor="middle" x="356.5" y="-7.5" font-family="Helvetica,sans-Serif" font-size="10.00">OneDimBall.h</text>
</a>
</g>
</g>
<!-- Node16&#45;&gt;Node17 -->
<g id="edge16" class="edge">
<title>Node16&#45;&gt;Node17</title>
<path fill="none" stroke="midnightblue" d="M356.5,-57.11C356.5,-48.15 356.5,-38.32 356.5,-30.58"/>
<polygon fill="midnightblue" stroke="midnightblue" points="353,-57.4 356.5,-67.4 360,-57.4 353,-57.4"/>
</g>
<!-- Node18&#45;&gt;Node9 -->
<g id="edge18" class="edge">
<title>Node18&#45;&gt;Node9</title>
<path fill="none" stroke="midnightblue" d="M662.5,-191.25C662.5,-180.02 662.5,-167.38 662.5,-159.19"/>
<polygon fill="midnightblue" stroke="midnightblue" points="659,-191.4 662.5,-201.4 666,-191.4 659,-191.4"/>
</g>
<!-- Node19 -->
<g id="node19" class="node">
<title>Node19</title>
<g id="a_node19"><a xlink:href="_filtered_array_one_dim_objects_8h.html" target="_top" xlink:title=" ">
<polygon fill="none" stroke="black" points="887,-67.5 887,-97.5 1024,-97.5 1024,-67.5 887,-67.5"/>
<text text-anchor="start" x="895" y="-85.5" font-family="Helvetica,sans-Serif" font-size="10.00">typeClassDefs/FilteredArray</text>
<text text-anchor="middle" x="955.5" y="-74.5" font-family="Helvetica,sans-Serif" font-size="10.00">OneDimObjects.h</text>
</a>
</g>
</g>
<!-- Node18&#45;&gt;Node19 -->
<g id="edge19" class="edge">
<title>Node18&#45;&gt;Node19</title>
<path fill="none" stroke="midnightblue" d="M702.98,-197.26C762.12,-170.62 870.92,-121.6 924.3,-97.56"/>
<polygon fill="midnightblue" stroke="midnightblue" points="701.26,-194.2 693.58,-201.5 704.13,-200.58 701.26,-194.2"/>
</g>
<!-- Node19&#45;&gt;Node11 -->
<g id="edge20" class="edge">
<title>Node19&#45;&gt;Node11</title>
<path fill="none" stroke="midnightblue" d="M885.22,-65.19C839.37,-54.54 780.11,-40.78 736.29,-30.61"/>
<polygon fill="midnightblue" stroke="midnightblue" points="884.56,-68.62 895.09,-67.48 886.14,-61.81 884.56,-68.62"/>
</g>
<!-- Node21 -->
<g id="node21" class="node">
<title>Node21</title>
<g id="a_node21"><a xlink:href="_filtered_one_dim_object_8h.html" target="_top" xlink:title=" ">
<polygon fill="none" stroke="black" points="443,-134.5 443,-164.5 576,-164.5 576,-134.5 443,-134.5"/>
<text text-anchor="start" x="451" y="-152.5" font-family="Helvetica,sans-Serif" font-size="10.00">typeClassDefs/FilteredOne</text>
<text text-anchor="middle" x="509.5" y="-141.5" font-family="Helvetica,sans-Serif" font-size="10.00">DimObject.h</text>
</a>
</g>
</g>
<!-- Node20&#45;&gt;Node21 -->
<g id="edge22" class="edge">
<title>Node20&#45;&gt;Node21</title>
<path fill="none" stroke="midnightblue" d="M509.5,-191.11C509.5,-182.15 509.5,-172.32 509.5,-164.58"/>
<polygon fill="midnightblue" stroke="midnightblue" points="506,-191.4 509.5,-201.4 513,-191.4 506,-191.4"/>
</g>
<!-- Node21&#45;&gt;Node11 -->
<g id="edge23" class="edge">
<title>Node21&#45;&gt;Node11</title>
<path fill="none" stroke="midnightblue" d="M487.82,-127C472.97,-109.62 458.31,-85.15 472.5,-67 489.11,-45.76 554.76,-32.16 606.96,-24.5"/>
<polygon fill="midnightblue" stroke="midnightblue" points="485.25,-129.37 494.56,-134.44 490.44,-124.67 485.25,-129.37"/>
</g>
<!-- Node21&#45;&gt;Node16 -->
<g id="edge24" class="edge">
<title>Node21&#45;&gt;Node16</title>
<path fill="none" stroke="midnightblue" d="M466.91,-130.41C442.48,-120.03 412.28,-107.2 389.63,-97.58"/>
<polygon fill="midnightblue" stroke="midnightblue" points="465.73,-133.71 476.3,-134.4 468.47,-127.26 465.73,-133.71"/>
</g>
<!-- Node22&#45;&gt;Node2 -->
<g id="edge26" class="edge">
<title>Node22&#45;&gt;Node2</title>
<path fill="none" stroke="midnightblue" d="M301.52,-330.3C283.53,-320.12 261.82,-307.85 245.4,-298.58"/>
<polygon fill="midnightblue" stroke="midnightblue" points="300.12,-333.52 310.55,-335.4 303.56,-327.43 300.12,-333.52"/>
</g>
<!-- Node22&#45;&gt;Node8 -->
<g id="edge27" class="edge">
<title>Node22&#45;&gt;Node8</title>
<path fill="none" stroke="midnightblue" d="M327.13,-325.51C322.63,-309.07 319.02,-286.9 324.5,-268 328.38,-254.64 336.96,-241.43 344.26,-231.88"/>
<polygon fill="midnightblue" stroke="midnightblue" points="323.87,-326.84 330.12,-335.4 330.57,-324.81 323.87,-326.84"/>
</g>
<!-- Node23 -->
<g id="node23" class="node">
<title>Node23</title>
<g id="a_node23"><a xlink:href="wb__filtered__arrayballsightings_8c.html" target="_top" xlink:title=" ">
<polygon fill="none" stroke="black" points="334,-268.5 334,-298.5 463,-298.5 463,-268.5 334,-268.5"/>
<text text-anchor="start" x="342" y="-286.5" font-family="Helvetica,sans-Serif" font-size="10.00">typeClassDefs/wb_filtered</text>
<text text-anchor="middle" x="398.5" y="-275.5" font-family="Helvetica,sans-Serif" font-size="10.00">_arrayballsightings.c</text>
</a>
</g>
</g>
<!-- Node22&#45;&gt;Node23 -->
<g id="edge28" class="edge">
<title>Node22&#45;&gt;Node23</title>
<path fill="none" stroke="midnightblue" d="M356.31,-328.02C365.7,-318.34 376.52,-307.17 384.86,-298.58"/>
<polygon fill="midnightblue" stroke="midnightblue" points="353.62,-325.78 349.17,-335.4 358.64,-330.65 353.62,-325.78"/>
</g>
<!-- Node24&#45;&gt;Node2 -->
<g id="edge30" class="edge">
<title>Node24&#45;&gt;Node2</title>
<path fill="none" stroke="midnightblue" d="M572.97,-335.02C520.64,-326.73 362.81,-304.47 277.02,-292.42"/>
<polygon fill="midnightblue" stroke="midnightblue" points="572.53,-338.49 582.96,-336.65 573.66,-331.59 572.53,-338.49"/>
</g>
<!-- Node24&#45;&gt;Node18 -->
<g id="edge31" class="edge">
<title>Node24&#45;&gt;Node18</title>
<path fill="none" stroke="midnightblue" d="M650.24,-325.39C653.36,-297.9 658.36,-253.89 660.91,-231.52"/>
<polygon fill="midnightblue" stroke="midnightblue" points="646.76,-325.04 649.11,-335.37 653.71,-325.83 646.76,-325.04"/>
</g>
<!-- Node25 -->
<g id="node25" class="node">
<title>Node25</title>
<g id="a_node25"><a xlink:href="wb__filtered__arrayonedimobjects_8c.html" target="_top" xlink:title=" ">
<polygon fill="none" stroke="black" points="680,-268.5 680,-298.5 809,-298.5 809,-268.5 680,-268.5"/>
<text text-anchor="start" x="688" y="-286.5" font-family="Helvetica,sans-Serif" font-size="10.00">typeClassDefs/wb_filtered</text>
<text text-anchor="middle" x="744.5" y="-275.5" font-family="Helvetica,sans-Serif" font-size="10.00">_arrayonedimobjects.c</text>
</a>
</g>
</g>
<!-- Node24&#45;&gt;Node25 -->
<g id="edge32" class="edge">
<title>Node24&#45;&gt;Node25</title>
<path fill="none" stroke="midnightblue" d="M677,-329.73C692.01,-319.68 709.9,-307.68 723.49,-298.58"/>
<polygon fill="midnightblue" stroke="midnightblue" points="674.91,-326.92 668.55,-335.4 678.8,-332.74 674.91,-326.92"/>
</g>
</g>
</svg>
