<?xml version="1.0" encoding="UTF-8" standalone="no"?>
<!DOCTYPE svg PUBLIC "-//W3C//DTD SVG 1.1//EN"
 "http://www.w3.org/Graphics/SVG/1.1/DTD/svg11.dtd">
<!-- Generated by graphviz version 2.49.0 (20210830.1337)
 -->
<!-- Title: typeClassDefs/wb_machine_filtered_lines.c Pages: 1 -->
<svg width="495pt" height="274pt"
 viewBox="0.00 0.00 494.50 274.00" xmlns="http://www.w3.org/2000/svg" xmlns:xlink="http://www.w3.org/1999/xlink">
<g id="graph0" class="graph" transform="scale(1 1) rotate(0) translate(4 270)">
<title>typeClassDefs/wb_machine_filtered_lines.c</title>
<!-- Node1 -->
<g id="node1" class="node">
<title>Node1</title>
<g id="a_node1"><a xlink:title=" ">
<polygon fill="#bfbfbf" stroke="black" points="231.5,-235.5 231.5,-265.5 368.5,-265.5 368.5,-235.5 231.5,-235.5"/>
<text text-anchor="start" x="239.5" y="-253.5" font-family="Helvetica,sans-Serif" font-size="10.00">typeClassDefs/wb_machine</text>
<text text-anchor="middle" x="300" y="-242.5" font-family="Helvetica,sans-Serif" font-size="10.00">_filtered_lines.c</text>
</a>
</g>
</g>
<!-- Node2 -->
<g id="node2" class="node">
<title>Node2</title>
<g id="a_node2"><a xlink:href="wb__machine__filtered__lines_8h.html" target="_top" xlink:title=" ">
<polygon fill="none" stroke="black" points="56.5,-168.5 56.5,-198.5 161.5,-198.5 161.5,-168.5 56.5,-168.5"/>
<text text-anchor="start" x="64.5" y="-186.5" font-family="Helvetica,sans-Serif" font-size="10.00">wb_machine_filtered</text>
<text text-anchor="middle" x="109" y="-175.5" font-family="Helvetica,sans-Serif" font-size="10.00">_lines.h</text>
</a>
</g>
</g>
<!-- Node1&#45;&gt;Node2 -->
<g id="edge1" class="edge">
<title>Node1&#45;&gt;Node2</title>
<path fill="none" stroke="midnightblue" d="M258.56,-235.4C229.65,-225.56 190.89,-212.37 160.07,-201.88"/>
<polygon fill="midnightblue" stroke="midnightblue" points="160.96,-198.48 150.36,-198.58 158.7,-205.11 160.96,-198.48"/>
</g>
<!-- Node7 -->
<g id="node7" class="node">
<title>Node7</title>
<g id="a_node7"><a xlink:title=" ">
<polygon fill="none" stroke="#bfbfbf" points="179.5,-174 179.5,-193 224.5,-193 224.5,-174 179.5,-174"/>
<text text-anchor="middle" x="202" y="-181" font-family="Helvetica,sans-Serif" font-size="10.00">stdio.h</text>
</a>
</g>
</g>
<!-- Node1&#45;&gt;Node7 -->
<g id="edge10" class="edge">
<title>Node1&#45;&gt;Node7</title>
<path fill="none" stroke="midnightblue" d="M278.74,-235.4C262.3,-224.5 239.66,-209.48 223.23,-198.58"/>
<polygon fill="midnightblue" stroke="midnightblue" points="225.09,-195.62 214.83,-193.01 221.22,-201.45 225.09,-195.62"/>
</g>
<!-- Node8 -->
<g id="node8" class="node">
<title>Node8</title>
<g id="a_node8"><a xlink:title=" ">
<polygon fill="none" stroke="#bfbfbf" points="243,-174 243,-193 291,-193 291,-174 243,-174"/>
<text text-anchor="middle" x="267" y="-181" font-family="Helvetica,sans-Serif" font-size="10.00">string.h</text>
</a>
</g>
</g>
<!-- Node1&#45;&gt;Node8 -->
<g id="edge11" class="edge">
<title>Node1&#45;&gt;Node8</title>
<path fill="none" stroke="midnightblue" d="M292.84,-235.4C287.9,-225.66 281.29,-212.65 275.99,-202.21"/>
<polygon fill="midnightblue" stroke="midnightblue" points="279.06,-200.53 271.41,-193.19 272.82,-203.7 279.06,-200.53"/>
</g>
<!-- Node9 -->
<g id="node9" class="node">
<title>Node9</title>
<g id="a_node9"><a xlink:title=" ">
<polygon fill="none" stroke="#bfbfbf" points="309.5,-174 309.5,-193 356.5,-193 356.5,-174 309.5,-174"/>
<text text-anchor="middle" x="333" y="-181" font-family="Helvetica,sans-Serif" font-size="10.00">stdlib.h</text>
</a>
</g>
</g>
<!-- Node1&#45;&gt;Node9 -->
<g id="edge12" class="edge">
<title>Node1&#45;&gt;Node9</title>
<path fill="none" stroke="midnightblue" d="M307.16,-235.4C312.1,-225.66 318.71,-212.65 324.01,-202.21"/>
<polygon fill="midnightblue" stroke="midnightblue" points="327.18,-203.7 328.59,-193.19 320.94,-200.53 327.18,-203.7"/>
</g>
<!-- Node10 -->
<g id="node10" class="node">
<title>Node10</title>
<g id="a_node10"><a xlink:title=" ">
<polygon fill="none" stroke="#bfbfbf" points="374.5,-174 374.5,-193 421.5,-193 421.5,-174 374.5,-174"/>
<text text-anchor="middle" x="398" y="-181" font-family="Helvetica,sans-Serif" font-size="10.00">ctype.h</text>
</a>
</g>
</g>
<!-- Node1&#45;&gt;Node10 -->
<g id="edge13" class="edge">
<title>Node1&#45;&gt;Node10</title>
<path fill="none" stroke="midnightblue" d="M321.26,-235.4C337.7,-224.5 360.34,-209.48 376.77,-198.58"/>
<polygon fill="midnightblue" stroke="midnightblue" points="378.78,-201.45 385.17,-193.01 374.91,-195.62 378.78,-201.45"/>
</g>
<!-- Node11 -->
<g id="node11" class="node">
<title>Node11</title>
<g id="a_node11"><a xlink:title=" ">
<polygon fill="none" stroke="#bfbfbf" points="439.5,-174 439.5,-193 486.5,-193 486.5,-174 439.5,-174"/>
<text text-anchor="middle" x="463" y="-181" font-family="Helvetica,sans-Serif" font-size="10.00">limits.h</text>
</a>
</g>
</g>
<!-- Node1&#45;&gt;Node11 -->
<g id="edge14" class="edge">
<title>Node1&#45;&gt;Node11</title>
<path fill="none" stroke="midnightblue" d="M338.07,-235.49C364.33,-225.66 399.98,-212 431,-199 432.37,-198.43 433.77,-197.83 435.18,-197.22"/>
<polygon fill="midnightblue" stroke="midnightblue" points="436.74,-200.36 444.47,-193.12 433.9,-193.96 436.74,-200.36"/>
</g>
<!-- Node3 -->
<g id="node3" class="node">
<title>Node3</title>
<g id="a_node3"><a xlink:title=" ">
<polygon fill="none" stroke="#bfbfbf" points="167.5,-0.5 167.5,-19.5 220.5,-19.5 220.5,-0.5 167.5,-0.5"/>
<text text-anchor="middle" x="194" y="-7.5" font-family="Helvetica,sans-Serif" font-size="10.00">gu_util.h</text>
</a>
</g>
</g>
<!-- Node2&#45;&gt;Node3 -->
<g id="edge2" class="edge">
<title>Node2&#45;&gt;Node3</title>
<path fill="none" stroke="midnightblue" d="M128.42,-168.39C140.33,-159.03 155.29,-145.95 166,-132 182.94,-109.93 187.61,-103.08 194,-76 197.61,-60.71 197.29,-42.83 196.25,-29.69"/>
<polygon fill="midnightblue" stroke="midnightblue" points="199.72,-29.16 195.23,-19.56 192.75,-29.86 199.72,-29.16"/>
</g>
<!-- Node4 -->
<g id="node4" class="node">
<title>Node4</title>
<g id="a_node4"><a xlink:title=" ">
<polygon fill="none" stroke="#bfbfbf" points="0,-0.5 0,-19.5 48,-19.5 48,-0.5 0,-0.5"/>
<text text-anchor="middle" x="24" y="-7.5" font-family="Helvetica,sans-Serif" font-size="10.00">stdint.h</text>
</a>
</g>
</g>
<!-- Node2&#45;&gt;Node4 -->
<g id="edge3" class="edge">
<title>Node2&#45;&gt;Node4</title>
<path fill="none" stroke="midnightblue" d="M88.95,-168.45C76.95,-159.21 62.11,-146.23 52,-132 36.42,-110.07 35.22,-102.18 29,-76 25.36,-60.67 24.2,-42.79 23.9,-29.67"/>
<polygon fill="midnightblue" stroke="midnightblue" points="27.4,-29.51 23.82,-19.54 20.4,-29.57 27.4,-29.51"/>
</g>
<!-- Node5 -->
<g id="node5" class="node">
<title>Node5</title>
<g id="a_node5"><a xlink:href="wb__line__sighting_8h.html" target="_top" xlink:title=" ">
<polygon fill="none" stroke="black" points="61,-112.5 61,-131.5 157,-131.5 157,-112.5 61,-112.5"/>
<text text-anchor="middle" x="109" y="-119.5" font-family="Helvetica,sans-Serif" font-size="10.00">wb_line_sighting.h</text>
</a>
</g>
</g>
<!-- Node2&#45;&gt;Node5 -->
<g id="edge4" class="edge">
<title>Node2&#45;&gt;Node5</title>
<path fill="none" stroke="midnightblue" d="M109,-168.4C109,-160.47 109,-150.46 109,-141.86"/>
<polygon fill="midnightblue" stroke="midnightblue" points="112.5,-141.66 109,-131.66 105.5,-141.66 112.5,-141.66"/>
</g>
<!-- Node5&#45;&gt;Node3 -->
<g id="edge5" class="edge">
<title>Node5&#45;&gt;Node3</title>
<path fill="none" stroke="midnightblue" d="M128.19,-112.44C143.03,-104.88 163.02,-92.49 175,-76 184.83,-62.48 189.6,-43.92 191.9,-30.1"/>
<polygon fill="midnightblue" stroke="midnightblue" points="195.42,-30.2 193.31,-19.81 188.48,-29.25 195.42,-30.2"/>
</g>
<!-- Node5&#45;&gt;Node4 -->
<g id="edge6" class="edge">
<title>Node5&#45;&gt;Node4</title>
<path fill="none" stroke="midnightblue" d="M89.81,-112.44C74.97,-104.88 54.98,-92.49 43,-76 33.17,-62.48 28.4,-43.92 26.1,-30.1"/>
<polygon fill="midnightblue" stroke="midnightblue" points="29.52,-29.25 24.69,-19.81 22.58,-30.2 29.52,-29.25"/>
</g>
<!-- Node6 -->
<g id="node6" class="node">
<title>Node6</title>
<g id="a_node6"><a xlink:href="wb__polar__coordinate_8h.html" target="_top" xlink:title=" ">
<polygon fill="none" stroke="black" points="52.5,-56.5 52.5,-75.5 165.5,-75.5 165.5,-56.5 52.5,-56.5"/>
<text text-anchor="middle" x="109" y="-63.5" font-family="Helvetica,sans-Serif" font-size="10.00">wb_polar_coordinate.h</text>
</a>
</g>
</g>
<!-- Node5&#45;&gt;Node6 -->
<g id="edge7" class="edge">
<title>Node5&#45;&gt;Node6</title>
<path fill="none" stroke="midnightblue" d="M109,-112.08C109,-105.01 109,-94.86 109,-85.99"/>
<polygon fill="midnightblue" stroke="midnightblue" points="112.5,-85.75 109,-75.75 105.5,-85.75 112.5,-85.75"/>
</g>
<!-- Node6&#45;&gt;Node3 -->
<g id="edge8" class="edge">
<title>Node6&#45;&gt;Node3</title>
<path fill="none" stroke="midnightblue" d="M122.66,-56.32C135.92,-47.9 156.27,-34.97 171.85,-25.07"/>
<polygon fill="midnightblue" stroke="midnightblue" points="173.81,-27.97 180.38,-19.65 170.06,-22.06 173.81,-27.97"/>
</g>
<!-- Node6&#45;&gt;Node4 -->
<g id="edge9" class="edge">
<title>Node6&#45;&gt;Node4</title>
<path fill="none" stroke="midnightblue" d="M95.34,-56.32C82.08,-47.9 61.73,-34.97 46.15,-25.07"/>
<polygon fill="midnightblue" stroke="midnightblue" points="47.94,-22.06 37.62,-19.65 44.19,-27.97 47.94,-22.06"/>
</g>
</g>
</svg>
