<?xml version="1.0" encoding="UTF-8" standalone="no"?>
<!DOCTYPE svg PUBLIC "-//W3C//DTD SVG 1.1//EN"
 "http://www.w3.org/Graphics/SVG/1.1/DTD/svg11.dtd">
<!-- Generated by graphviz version 2.49.0 (20210830.1337)
 -->
<!-- Title: typeClassDefs/wb_vision_control_status.h Pages: 1 -->
<svg width="1081pt" height="441pt"
 viewBox="0.00 0.00 1080.51 441.00" xmlns="http://www.w3.org/2000/svg" xmlns:xlink="http://www.w3.org/1999/xlink">
<g id="graph0" class="graph" transform="scale(1 1) rotate(0) translate(4 437)">
<title>typeClassDefs/wb_vision_control_status.h</title>
<!-- Node1 -->
<g id="node1" class="node">
<title>Node1</title>
<g id="a_node1"><a xlink:title=" ">
<polygon fill="#bfbfbf" stroke="black" points="560.01,-402.5 560.01,-432.5 686.01,-432.5 686.01,-402.5 560.01,-402.5"/>
<text text-anchor="start" x="568.01" y="-420.5" font-family="Helvetica,sans-Serif" font-size="10.00">typeClassDefs/wb_vision</text>
<text text-anchor="middle" x="623.01" y="-409.5" font-family="Helvetica,sans-Serif" font-size="10.00">_control_status.h</text>
</a>
</g>
</g>
<!-- Node2 -->
<g id="node2" class="node">
<title>Node2</title>
<g id="a_node2"><a xlink:href="_simple_whiteboard_test_plain_c_8m.html" target="_top" xlink:title=" ">
<polygon fill="none" stroke="black" points="279.51,-335.5 279.51,-365.5 436.51,-365.5 436.51,-335.5 279.51,-335.5"/>
<text text-anchor="start" x="287.51" y="-353.5" font-family="Helvetica,sans-Serif" font-size="10.00">SimpleWhiteboardTest</text>
<text text-anchor="middle" x="358.01" y="-342.5" font-family="Helvetica,sans-Serif" font-size="10.00">/SimpleWhiteboardTestPlainC.m</text>
</a>
</g>
</g>
<!-- Node1&#45;&gt;Node2 -->
<g id="edge1" class="edge">
<title>Node1&#45;&gt;Node2</title>
<path fill="none" stroke="midnightblue" d="M555.95,-400.05C512.62,-389.43 456.84,-375.74 415.53,-365.61"/>
<polygon fill="midnightblue" stroke="midnightblue" points="555.29,-403.49 565.83,-402.48 556.95,-396.69 555.29,-403.49"/>
</g>
<!-- Node3 -->
<g id="node3" class="node">
<title>Node3</title>
<g id="a_node3"><a xlink:href="guwhiteboard__c__types_8h.html" target="_top" xlink:title=" ">
<polygon fill="none" stroke="black" points="638.51,-207 638.51,-226 759.51,-226 759.51,-207 638.51,-207"/>
<text text-anchor="middle" x="699.01" y="-214" font-family="Helvetica,sans-Serif" font-size="10.00">guwhiteboard_c_types.h</text>
</a>
</g>
</g>
<!-- Node1&#45;&gt;Node3 -->
<g id="edge2" class="edge">
<title>Node1&#45;&gt;Node3</title>
<path fill="none" stroke="midnightblue" d="M621.32,-392.23C620.26,-361.49 622.03,-307.75 643.01,-268 652.6,-249.82 671.49,-234.95 684.66,-226.16"/>
<polygon fill="midnightblue" stroke="midnightblue" points="617.84,-392.62 621.81,-402.44 624.83,-392.29 617.84,-392.62"/>
</g>
<!-- Node6 -->
<g id="node6" class="node">
<title>Node6</title>
<g id="a_node6"><a xlink:href="_vision_control_status_8hpp.html" target="_top" xlink:title=" ">
<polygon fill="none" stroke="black" points="455.01,-335.5 455.01,-365.5 595.01,-365.5 595.01,-335.5 455.01,-335.5"/>
<text text-anchor="start" x="463.01" y="-353.5" font-family="Helvetica,sans-Serif" font-size="10.00">typeClassDefs/VisionControl</text>
<text text-anchor="middle" x="525.01" y="-342.5" font-family="Helvetica,sans-Serif" font-size="10.00">Status.hpp</text>
</a>
</g>
</g>
<!-- Node1&#45;&gt;Node6 -->
<g id="edge5" class="edge">
<title>Node1&#45;&gt;Node6</title>
<path fill="none" stroke="midnightblue" d="M593.2,-396.73C578.04,-386.68 559.96,-374.68 546.23,-365.58"/>
<polygon fill="midnightblue" stroke="midnightblue" points="591.47,-399.79 601.74,-402.4 595.34,-393.95 591.47,-399.79"/>
</g>
<!-- Node20 -->
<g id="node20" class="node">
<title>Node20</title>
<g id="a_node20"><a xlink:href="wb__pixel__to__robot__relative__coord_8h.html" target="_top" xlink:title=" ">
<polygon fill="none" stroke="black" points="651.51,-335.5 651.51,-365.5 782.51,-365.5 782.51,-335.5 651.51,-335.5"/>
<text text-anchor="start" x="659.51" y="-353.5" font-family="Helvetica,sans-Serif" font-size="10.00">typeClassDefs/wb_pixel</text>
<text text-anchor="middle" x="717.01" y="-342.5" font-family="Helvetica,sans-Serif" font-size="10.00">_to_robot_relative_coord.h</text>
</a>
</g>
</g>
<!-- Node1&#45;&gt;Node20 -->
<g id="edge23" class="edge">
<title>Node1&#45;&gt;Node20</title>
<path fill="none" stroke="midnightblue" d="M652,-396.45C666.46,-386.45 683.6,-374.6 696.65,-365.58"/>
<polygon fill="midnightblue" stroke="midnightblue" points="649.64,-393.83 643.4,-402.4 653.62,-399.59 649.64,-393.83"/>
</g>
<!-- Node25 -->
<g id="node25" class="node">
<title>Node25</title>
<g id="a_node25"><a xlink:href="wb__vision__control__status_8c.html" target="_top" xlink:title=" ">
<polygon fill="none" stroke="black" points="801.01,-335.5 801.01,-365.5 927.01,-365.5 927.01,-335.5 801.01,-335.5"/>
<text text-anchor="start" x="809.01" y="-353.5" font-family="Helvetica,sans-Serif" font-size="10.00">typeClassDefs/wb_vision</text>
<text text-anchor="middle" x="864.01" y="-342.5" font-family="Helvetica,sans-Serif" font-size="10.00">_control_status.c</text>
</a>
</g>
</g>
<!-- Node1&#45;&gt;Node25 -->
<g id="edge29" class="edge">
<title>Node1&#45;&gt;Node25</title>
<path fill="none" stroke="midnightblue" d="M684.74,-399.85C724.03,-389.25 774.36,-375.68 811.69,-365.61"/>
<polygon fill="midnightblue" stroke="midnightblue" points="683.75,-396.49 675,-402.48 685.57,-403.25 683.75,-396.49"/>
</g>
<!-- Node4 -->
<g id="node4" class="node">
<title>Node4</title>
<g id="a_node4"><a xlink:href="guwhiteboarddeserialiser_8c.html" target="_top" xlink:title=" ">
<polygon fill="none" stroke="black" points="775.51,-140 775.51,-159 906.51,-159 906.51,-140 775.51,-140"/>
<text text-anchor="middle" x="841.01" y="-147" font-family="Helvetica,sans-Serif" font-size="10.00">guwhiteboarddeserialiser.c</text>
</a>
</g>
</g>
<!-- Node3&#45;&gt;Node4 -->
<g id="edge3" class="edge">
<title>Node3&#45;&gt;Node4</title>
<path fill="none" stroke="midnightblue" d="M727.16,-202.61C755.28,-189.74 797.74,-170.31 822.07,-159.17"/>
<polygon fill="midnightblue" stroke="midnightblue" points="725.5,-199.52 717.86,-206.87 728.41,-205.89 725.5,-199.52"/>
</g>
<!-- Node5 -->
<g id="node5" class="node">
<title>Node5</title>
<g id="a_node5"><a xlink:href="guwhiteboardserialiser_8c.html" target="_top" xlink:title=" ">
<polygon fill="none" stroke="black" points="636.51,-140 636.51,-159 757.51,-159 757.51,-140 636.51,-140"/>
<text text-anchor="middle" x="697.01" y="-147" font-family="Helvetica,sans-Serif" font-size="10.00">guwhiteboardserialiser.c</text>
</a>
</g>
</g>
<!-- Node3&#45;&gt;Node5 -->
<g id="edge4" class="edge">
<title>Node3&#45;&gt;Node5</title>
<path fill="none" stroke="midnightblue" d="M698.42,-196.54C698.04,-184.17 697.56,-168.62 697.27,-159.13"/>
<polygon fill="midnightblue" stroke="midnightblue" points="694.93,-196.85 698.74,-206.73 701.93,-196.63 694.93,-196.85"/>
</g>
<!-- Node7 -->
<g id="node7" class="node">
<title>Node7</title>
<g id="a_node7"><a xlink:href="guwhiteboardposter_8h.html" target="_top" xlink:title=" ">
<polygon fill="none" stroke="black" points="347.51,-140 347.51,-159 456.51,-159 456.51,-140 347.51,-140"/>
<text text-anchor="middle" x="402.01" y="-147" font-family="Helvetica,sans-Serif" font-size="10.00">guwhiteboardposter.h</text>
</a>
</g>
</g>
<!-- Node6&#45;&gt;Node7 -->
<g id="edge6" class="edge">
<title>Node6&#45;&gt;Node7</title>
<path fill="none" stroke="midnightblue" d="M529.16,-325.1C533.15,-293.43 535.23,-237.85 509.01,-201 493.28,-178.91 465.33,-166.17 441.93,-159.02"/>
<polygon fill="midnightblue" stroke="midnightblue" points="525.66,-324.85 527.71,-335.24 532.59,-325.84 525.66,-324.85"/>
</g>
<!-- Node13 -->
<g id="node13" class="node">
<title>Node13</title>
<g id="a_node13"><a xlink:href="_vision_control_status_8h.html" target="_top" xlink:title=" ">
<polygon fill="none" stroke="black" points="197.01,-268.5 197.01,-298.5 337.01,-298.5 337.01,-268.5 197.01,-268.5"/>
<text text-anchor="start" x="205.01" y="-286.5" font-family="Helvetica,sans-Serif" font-size="10.00">typeClassDefs/VisionControl</text>
<text text-anchor="middle" x="267.01" y="-275.5" font-family="Helvetica,sans-Serif" font-size="10.00">Status.h</text>
</a>
</g>
</g>
<!-- Node6&#45;&gt;Node13 -->
<g id="edge12" class="edge">
<title>Node6&#45;&gt;Node13</title>
<path fill="none" stroke="midnightblue" d="M459.45,-332.98C417.31,-322.37 363.14,-308.72 323.02,-298.61"/>
<polygon fill="midnightblue" stroke="midnightblue" points="458.79,-336.43 469.34,-335.48 460.5,-329.64 458.79,-336.43"/>
</g>
<!-- Node8 -->
<g id="node8" class="node">
<title>Node8</title>
<g id="a_node8"><a xlink:href="_simple_whiteboard_test_8h.html" target="_top" xlink:title=" ">
<polygon fill="none" stroke="black" points="116.51,-67.5 116.51,-97.5 241.51,-97.5 241.51,-67.5 116.51,-67.5"/>
<text text-anchor="start" x="124.51" y="-85.5" font-family="Helvetica,sans-Serif" font-size="10.00">SimpleWhiteboardTest</text>
<text text-anchor="middle" x="179.01" y="-74.5" font-family="Helvetica,sans-Serif" font-size="10.00">/SimpleWhiteboardTest.h</text>
</a>
</g>
</g>
<!-- Node7&#45;&gt;Node8 -->
<g id="edge7" class="edge">
<title>Node7&#45;&gt;Node8</title>
<path fill="none" stroke="midnightblue" d="M362.75,-137.06C324.94,-126.04 267.67,-109.34 227.13,-97.53"/>
<polygon fill="midnightblue" stroke="midnightblue" points="361.81,-140.43 372.39,-139.87 363.77,-133.71 361.81,-140.43"/>
</g>
<!-- Node10 -->
<g id="node10" class="node">
<title>Node10</title>
<g id="a_node10"><a xlink:href="guwhiteboardgetter_8h.html" target="_top" xlink:title=" ">
<polygon fill="none" stroke="black" points="282.51,-73 282.51,-92 389.51,-92 389.51,-73 282.51,-73"/>
<text text-anchor="middle" x="336.01" y="-80" font-family="Helvetica,sans-Serif" font-size="10.00">guwhiteboardgetter.h</text>
</a>
</g>
</g>
<!-- Node7&#45;&gt;Node10 -->
<g id="edge9" class="edge">
<title>Node7&#45;&gt;Node10</title>
<path fill="none" stroke="midnightblue" d="M385.76,-132.5C372.81,-119.75 355.19,-102.39 344.77,-92.13"/>
<polygon fill="midnightblue" stroke="midnightblue" points="383.52,-135.21 393.1,-139.73 388.44,-130.22 383.52,-135.21"/>
</g>
<!-- Node12 -->
<g id="node12" class="node">
<title>Node12</title>
<g id="a_node12"><a xlink:href="guwhiteboardposter_8cpp.html" target="_top" xlink:title=" ">
<polygon fill="none" stroke="black" points="407.51,-73 407.51,-92 526.51,-92 526.51,-73 407.51,-73"/>
<text text-anchor="middle" x="467.01" y="-80" font-family="Helvetica,sans-Serif" font-size="10.00">guwhiteboardposter.cpp</text>
</a>
</g>
</g>
<!-- Node7&#45;&gt;Node12 -->
<g id="edge11" class="edge">
<title>Node7&#45;&gt;Node12</title>
<path fill="none" stroke="midnightblue" d="M418.01,-132.5C430.76,-119.75 448.11,-102.39 458.38,-92.13"/>
<polygon fill="midnightblue" stroke="midnightblue" points="415.37,-130.19 410.77,-139.73 420.32,-135.14 415.37,-130.19"/>
</g>
<!-- Node9 -->
<g id="node9" class="node">
<title>Node9</title>
<g id="a_node9"><a xlink:href="_simple_whiteboard_test_8mm.html" target="_top" xlink:title=" ">
<polygon fill="none" stroke="black" points="59.51,-0.5 59.51,-30.5 196.51,-30.5 196.51,-0.5 59.51,-0.5"/>
<text text-anchor="start" x="67.51" y="-18.5" font-family="Helvetica,sans-Serif" font-size="10.00">SimpleWhiteboardTest</text>
<text text-anchor="middle" x="128.01" y="-7.5" font-family="Helvetica,sans-Serif" font-size="10.00">/SimpleWhiteboardTest.mm</text>
</a>
</g>
</g>
<!-- Node8&#45;&gt;Node9 -->
<g id="edge8" class="edge">
<title>Node8&#45;&gt;Node9</title>
<path fill="none" stroke="midnightblue" d="M161.7,-59.45C154.21,-49.9 145.66,-39 139.05,-30.58"/>
<polygon fill="midnightblue" stroke="midnightblue" points="159.01,-61.69 167.94,-67.4 164.52,-57.37 159.01,-61.69"/>
</g>
<!-- Node11 -->
<g id="node11" class="node">
<title>Node11</title>
<g id="a_node11"><a xlink:href="guwhiteboardgetter_8cpp.html" target="_top" xlink:title=" ">
<polygon fill="none" stroke="black" points="277.51,-6 277.51,-25 394.51,-25 394.51,-6 277.51,-6"/>
<text text-anchor="middle" x="336.01" y="-13" font-family="Helvetica,sans-Serif" font-size="10.00">guwhiteboardgetter.cpp</text>
</a>
</g>
</g>
<!-- Node10&#45;&gt;Node11 -->
<g id="edge10" class="edge">
<title>Node10&#45;&gt;Node11</title>
<path fill="none" stroke="midnightblue" d="M336.01,-62.54C336.01,-50.17 336.01,-34.62 336.01,-25.13"/>
<polygon fill="midnightblue" stroke="midnightblue" points="332.51,-62.73 336.01,-72.73 339.51,-62.73 332.51,-62.73"/>
</g>
<!-- Node13&#45;&gt;Node9 -->
<g id="edge13" class="edge">
<title>Node13&#45;&gt;Node9</title>
<path fill="none" stroke="midnightblue" d="M186.52,-277.17C121.48,-270.98 37.36,-258.07 16.01,-232 -38.89,-164.96 66.52,-66.69 110.24,-30.52"/>
<polygon fill="midnightblue" stroke="midnightblue" points="186.51,-280.68 196.78,-278.1 187.14,-273.71 186.51,-280.68"/>
</g>
<!-- Node14 -->
<g id="node14" class="node">
<title>Node14</title>
<g id="a_node14"><a xlink:href="_teleoperation_control_status_8hpp.html" target="_top" xlink:title=" ">
<polygon fill="none" stroke="black" points="196.51,-201.5 196.51,-231.5 337.51,-231.5 337.51,-201.5 196.51,-201.5"/>
<text text-anchor="start" x="204.51" y="-219.5" font-family="Helvetica,sans-Serif" font-size="10.00">typeClassDefs/Teleoperation</text>
<text text-anchor="middle" x="267.01" y="-208.5" font-family="Helvetica,sans-Serif" font-size="10.00">ControlStatus.hpp</text>
</a>
</g>
</g>
<!-- Node13&#45;&gt;Node14 -->
<g id="edge14" class="edge">
<title>Node13&#45;&gt;Node14</title>
<path fill="none" stroke="midnightblue" d="M267.01,-258.11C267.01,-249.15 267.01,-239.32 267.01,-231.58"/>
<polygon fill="midnightblue" stroke="midnightblue" points="263.51,-258.4 267.01,-268.4 270.51,-258.4 263.51,-258.4"/>
</g>
<!-- Node16 -->
<g id="node16" class="node">
<title>Node16</title>
<g id="a_node16"><a xlink:href="_vision_ball_8hpp.html" target="_top" xlink:title=" ">
<polygon fill="none" stroke="black" points="356.01,-207 356.01,-226 500.01,-226 500.01,-207 356.01,-207"/>
<text text-anchor="middle" x="428.01" y="-214" font-family="Helvetica,sans-Serif" font-size="10.00">typeClassDefs/VisionBall.hpp</text>
</a>
</g>
</g>
<!-- Node13&#45;&gt;Node16 -->
<g id="edge17" class="edge">
<title>Node13&#45;&gt;Node16</title>
<path fill="none" stroke="midnightblue" d="M311.29,-264.62C342.45,-252.04 382.76,-235.77 406.93,-226.01"/>
<polygon fill="midnightblue" stroke="midnightblue" points="309.9,-261.41 301.94,-268.4 312.52,-267.9 309.9,-261.41"/>
</g>
<!-- Node18 -->
<g id="node18" class="node">
<title>Node18</title>
<g id="a_node18"><a xlink:href="_vision_goals_8hpp.html" target="_top" xlink:title=" ">
<polygon fill="none" stroke="black" points="25.51,-207 25.51,-226 178.51,-226 178.51,-207 25.51,-207"/>
<text text-anchor="middle" x="102.01" y="-214" font-family="Helvetica,sans-Serif" font-size="10.00">typeClassDefs/VisionGoals.hpp</text>
</a>
</g>
</g>
<!-- Node13&#45;&gt;Node18 -->
<g id="edge20" class="edge">
<title>Node13&#45;&gt;Node18</title>
<path fill="none" stroke="midnightblue" d="M221.62,-264.62C189.68,-252.04 148.37,-235.77 123.6,-226.01"/>
<polygon fill="midnightblue" stroke="midnightblue" points="220.62,-267.99 231.2,-268.4 223.18,-261.47 220.62,-267.99"/>
</g>
<!-- Node14&#45;&gt;Node7 -->
<g id="edge15" class="edge">
<title>Node14&#45;&gt;Node7</title>
<path fill="none" stroke="midnightblue" d="M305.5,-196.97C331.43,-184.48 364.42,-168.6 384.34,-159.01"/>
<polygon fill="midnightblue" stroke="midnightblue" points="303.79,-193.9 296.3,-201.4 306.83,-200.21 303.79,-193.9"/>
</g>
<!-- Node15 -->
<g id="node15" class="node">
<title>Node15</title>
<g id="a_node15"><a xlink:href="_teleoperation_control_status_8h.html" target="_top" xlink:title=" ">
<polygon fill="none" stroke="black" points="188.51,-134.5 188.51,-164.5 329.51,-164.5 329.51,-134.5 188.51,-134.5"/>
<text text-anchor="start" x="196.51" y="-152.5" font-family="Helvetica,sans-Serif" font-size="10.00">typeClassDefs/Teleoperation</text>
<text text-anchor="middle" x="259.01" y="-141.5" font-family="Helvetica,sans-Serif" font-size="10.00">ControlStatus.h</text>
</a>
</g>
</g>
<!-- Node14&#45;&gt;Node15 -->
<g id="edge16" class="edge">
<title>Node14&#45;&gt;Node15</title>
<path fill="none" stroke="midnightblue" d="M264.04,-191.4C262.93,-182.37 261.7,-172.41 260.74,-164.58"/>
<polygon fill="midnightblue" stroke="midnightblue" points="260.57,-191.9 265.27,-201.4 267.52,-191.04 260.57,-191.9"/>
</g>
<!-- Node16&#45;&gt;Node7 -->
<g id="edge18" class="edge">
<title>Node16&#45;&gt;Node7</title>
<path fill="none" stroke="midnightblue" d="M420.72,-197.29C415.73,-184.81 409.33,-168.81 405.46,-159.13"/>
<polygon fill="midnightblue" stroke="midnightblue" points="417.54,-198.75 424.5,-206.73 424.04,-196.15 417.54,-198.75"/>
</g>
<!-- Node17 -->
<g id="node17" class="node">
<title>Node17</title>
<g id="a_node17"><a xlink:href="_vision_ball_8h.html" target="_top" xlink:title=" ">
<polygon fill="none" stroke="black" points="475.01,-140 475.01,-159 609.01,-159 609.01,-140 475.01,-140"/>
<text text-anchor="middle" x="542.01" y="-147" font-family="Helvetica,sans-Serif" font-size="10.00">typeClassDefs/VisionBall.h</text>
</a>
</g>
</g>
<!-- Node16&#45;&gt;Node17 -->
<g id="edge19" class="edge">
<title>Node16&#45;&gt;Node17</title>
<path fill="none" stroke="midnightblue" d="M452.36,-201.62C474.94,-188.74 507.85,-169.98 526.87,-159.13"/>
<polygon fill="midnightblue" stroke="midnightblue" points="450.33,-198.74 443.38,-206.73 453.8,-204.82 450.33,-198.74"/>
</g>
<!-- Node18&#45;&gt;Node7 -->
<g id="edge21" class="edge">
<title>Node18&#45;&gt;Node7</title>
<path fill="none" stroke="midnightblue" d="M153,-204.89C201.03,-194.83 274.97,-179.19 339.01,-165 347.55,-163.11 356.74,-161.02 365.38,-159.03"/>
<polygon fill="midnightblue" stroke="midnightblue" points="152.22,-201.47 143.15,-206.94 153.66,-208.32 152.22,-201.47"/>
</g>
<!-- Node19 -->
<g id="node19" class="node">
<title>Node19</title>
<g id="a_node19"><a xlink:href="_vision_goals_8h.html" target="_top" xlink:title=" ">
<polygon fill="none" stroke="black" points="27.51,-140 27.51,-159 170.51,-159 170.51,-140 27.51,-140"/>
<text text-anchor="middle" x="99.01" y="-147" font-family="Helvetica,sans-Serif" font-size="10.00">typeClassDefs/VisionGoals.h</text>
</a>
</g>
</g>
<!-- Node18&#45;&gt;Node19 -->
<g id="edge22" class="edge">
<title>Node18&#45;&gt;Node19</title>
<path fill="none" stroke="midnightblue" d="M101.13,-196.54C100.56,-184.17 99.84,-168.62 99.4,-159.13"/>
<polygon fill="midnightblue" stroke="midnightblue" points="97.64,-196.91 101.6,-206.73 104.64,-196.58 97.64,-196.91"/>
</g>
<!-- Node21 -->
<g id="node21" class="node">
<title>Node21</title>
<g id="a_node21"><a xlink:href="guwhiteboard__c__types__manual__definitions_8h.html" target="_top" xlink:title=" ">
<polygon fill="none" stroke="black" points="651.51,-268.5 651.51,-298.5 764.51,-298.5 764.51,-268.5 651.51,-268.5"/>
<text text-anchor="start" x="659.51" y="-286.5" font-family="Helvetica,sans-Serif" font-size="10.00">guwhiteboard_c_types</text>
<text text-anchor="middle" x="708.01" y="-275.5" font-family="Helvetica,sans-Serif" font-size="10.00">_manual_definitions.h</text>
</a>
</g>
</g>
<!-- Node20&#45;&gt;Node21 -->
<g id="edge24" class="edge">
<title>Node20&#45;&gt;Node21</title>
<path fill="none" stroke="midnightblue" d="M713.67,-325.4C712.42,-316.37 711.04,-306.41 709.95,-298.58"/>
<polygon fill="midnightblue" stroke="midnightblue" points="710.21,-325.97 715.05,-335.4 717.15,-325.01 710.21,-325.97"/>
</g>
<!-- Node22 -->
<g id="node22" class="node">
<title>Node22</title>
<g id="a_node22"><a xlink:href="_pixel_to_robot_relative_coord_8hpp.html" target="_top" xlink:title=" ">
<polygon fill="none" stroke="black" points="783.01,-268.5 783.01,-298.5 923.01,-298.5 923.01,-268.5 783.01,-268.5"/>
<text text-anchor="start" x="791.01" y="-286.5" font-family="Helvetica,sans-Serif" font-size="10.00">typeClassDefs/PixelToRobot</text>
<text text-anchor="middle" x="853.01" y="-275.5" font-family="Helvetica,sans-Serif" font-size="10.00">RelativeCoord.hpp</text>
</a>
</g>
</g>
<!-- Node20&#45;&gt;Node22 -->
<g id="edge26" class="edge">
<title>Node20&#45;&gt;Node22</title>
<path fill="none" stroke="midnightblue" d="M755.73,-330.99C777.29,-320.69 803.69,-308.07 823.55,-298.58"/>
<polygon fill="midnightblue" stroke="midnightblue" points="754.03,-327.93 746.52,-335.4 757.05,-334.24 754.03,-327.93"/>
</g>
<!-- Node24 -->
<g id="node24" class="node">
<title>Node24</title>
<g id="a_node24"><a xlink:href="wb__pixel__to__robot__relative__coord_8c.html" target="_top" xlink:title=" ">
<polygon fill="none" stroke="black" points="941.51,-268.5 941.51,-298.5 1072.51,-298.5 1072.51,-268.5 941.51,-268.5"/>
<text text-anchor="start" x="949.51" y="-286.5" font-family="Helvetica,sans-Serif" font-size="10.00">typeClassDefs/wb_pixel</text>
<text text-anchor="middle" x="1007.01" y="-275.5" font-family="Helvetica,sans-Serif" font-size="10.00">_to_robot_relative_coord.c</text>
</a>
</g>
</g>
<!-- Node20&#45;&gt;Node24 -->
<g id="edge28" class="edge">
<title>Node20&#45;&gt;Node24</title>
<path fill="none" stroke="midnightblue" d="M789.49,-333.25C837.03,-322.6 898.57,-308.81 944.05,-298.61"/>
<polygon fill="midnightblue" stroke="midnightblue" points="788.57,-329.87 779.57,-335.48 790.1,-336.7 788.57,-329.87"/>
</g>
<!-- Node21&#45;&gt;Node3 -->
<g id="edge25" class="edge">
<title>Node21&#45;&gt;Node3</title>
<path fill="none" stroke="midnightblue" d="M704.65,-258.25C703.09,-247.02 701.34,-234.38 700.21,-226.19"/>
<polygon fill="midnightblue" stroke="midnightblue" points="701.21,-258.97 706.05,-268.4 708.15,-258.01 701.21,-258.97"/>
</g>
<!-- Node23 -->
<g id="node23" class="node">
<title>Node23</title>
<g id="a_node23"><a xlink:href="_pixel_to_robot_relative_coord_8h.html" target="_top" xlink:title=" ">
<polygon fill="none" stroke="black" points="783.01,-201.5 783.01,-231.5 923.01,-231.5 923.01,-201.5 783.01,-201.5"/>
<text text-anchor="start" x="791.01" y="-219.5" font-family="Helvetica,sans-Serif" font-size="10.00">typeClassDefs/PixelToRobot</text>
<text text-anchor="middle" x="853.01" y="-208.5" font-family="Helvetica,sans-Serif" font-size="10.00">RelativeCoord.h</text>
</a>
</g>
</g>
<!-- Node22&#45;&gt;Node23 -->
<g id="edge27" class="edge">
<title>Node22&#45;&gt;Node23</title>
<path fill="none" stroke="midnightblue" d="M853.01,-258.11C853.01,-249.15 853.01,-239.32 853.01,-231.58"/>
<polygon fill="midnightblue" stroke="midnightblue" points="849.51,-258.4 853.01,-268.4 856.51,-258.4 849.51,-258.4"/>
</g>
</g>
</svg>
