<?xml version="1.0" encoding="UTF-8" standalone="no"?>
<!DOCTYPE svg PUBLIC "-//W3C//DTD SVG 1.1//EN"
 "http://www.w3.org/Graphics/SVG/1.1/DTD/svg11.dtd">
<!-- Generated by graphviz version 2.49.0 (20210830.1337)
 -->
<!-- Title: typeClassDefs/wb_odometry.h Pages: 1 -->
<svg width="686pt" height="408pt"
 viewBox="0.00 0.00 685.50 408.00" xmlns="http://www.w3.org/2000/svg" xmlns:xlink="http://www.w3.org/1999/xlink">
<g id="graph0" class="graph" transform="scale(1 1) rotate(0) translate(4 404)">
<title>typeClassDefs/wb_odometry.h</title>
<!-- Node1 -->
<g id="node1" class="node">
<title>Node1</title>
<g id="a_node1"><a xlink:title=" ">
<polygon fill="#bfbfbf" stroke="black" points="379.5,-380.5 379.5,-399.5 527.5,-399.5 527.5,-380.5 379.5,-380.5"/>
<text text-anchor="middle" x="453.5" y="-387.5" font-family="Helvetica,sans-Serif" font-size="10.00">typeClassDefs/wb_odometry.h</text>
</a>
</g>
</g>
<!-- Node2 -->
<g id="node2" class="node">
<title>Node2</title>
<g id="a_node2"><a xlink:href="_odometry_8hpp.html" target="_top" xlink:title=" ">
<polygon fill="none" stroke="black" points="225,-319 225,-338 368,-338 368,-319 225,-319"/>
<text text-anchor="middle" x="296.5" y="-326" font-family="Helvetica,sans-Serif" font-size="10.00">typeClassDefs/Odometry.hpp</text>
</a>
</g>
</g>
<!-- Node1&#45;&gt;Node2 -->
<g id="edge1" class="edge">
<title>Node1&#45;&gt;Node2</title>
<path fill="none" stroke="midnightblue" d="M421.26,-376.78C390.75,-365.22 345.75,-348.16 318.95,-338.01"/>
<polygon fill="midnightblue" stroke="midnightblue" points="420.41,-380.2 431.01,-380.48 422.9,-373.66 420.41,-380.2"/>
</g>
<!-- Node12 -->
<g id="node12" class="node">
<title>Node12</title>
<g id="a_node12"><a xlink:href="wb__nao__walk__status_8h.html" target="_top" xlink:title=" ">
<polygon fill="none" stroke="black" points="395.5,-313.5 395.5,-343.5 511.5,-343.5 511.5,-313.5 395.5,-313.5"/>
<text text-anchor="start" x="403.5" y="-331.5" font-family="Helvetica,sans-Serif" font-size="10.00">typeClassDefs/wb_nao</text>
<text text-anchor="middle" x="453.5" y="-320.5" font-family="Helvetica,sans-Serif" font-size="10.00">_walk_status.h</text>
</a>
</g>
</g>
<!-- Node1&#45;&gt;Node12 -->
<g id="edge11" class="edge">
<title>Node1&#45;&gt;Node12</title>
<path fill="none" stroke="midnightblue" d="M453.5,-370.23C453.5,-361.59 453.5,-351.5 453.5,-343.52"/>
<polygon fill="midnightblue" stroke="midnightblue" points="450,-370.48 453.5,-380.48 457,-370.48 450,-370.48"/>
</g>
<!-- Node17 -->
<g id="node17" class="node">
<title>Node17</title>
<g id="a_node17"><a xlink:href="wb__odometry_8c.html" target="_top" xlink:title=" ">
<polygon fill="none" stroke="black" points="529.5,-319 529.5,-338 677.5,-338 677.5,-319 529.5,-319"/>
<text text-anchor="middle" x="603.5" y="-326" font-family="Helvetica,sans-Serif" font-size="10.00">typeClassDefs/wb_odometry.c</text>
</a>
</g>
</g>
<!-- Node1&#45;&gt;Node17 -->
<g id="edge17" class="edge">
<title>Node1&#45;&gt;Node17</title>
<path fill="none" stroke="midnightblue" d="M484.3,-376.78C513.45,-365.22 556.45,-348.16 582.05,-338.01"/>
<polygon fill="midnightblue" stroke="midnightblue" points="483,-373.53 474.99,-380.48 485.58,-380.04 483,-373.53"/>
</g>
<!-- Node3 -->
<g id="node3" class="node">
<title>Node3</title>
<g id="a_node3"><a xlink:href="_odometry_8h.html" target="_top" xlink:title=" ">
<polygon fill="none" stroke="black" points="213.5,-252 213.5,-271 345.5,-271 345.5,-252 213.5,-252"/>
<text text-anchor="middle" x="279.5" y="-259" font-family="Helvetica,sans-Serif" font-size="10.00">typeClassDefs/Odometry.h</text>
</a>
</g>
</g>
<!-- Node2&#45;&gt;Node3 -->
<g id="edge2" class="edge">
<title>Node2&#45;&gt;Node3</title>
<path fill="none" stroke="midnightblue" d="M291.64,-308.91C288.39,-296.49 284.26,-280.72 281.76,-271.13"/>
<polygon fill="midnightblue" stroke="midnightblue" points="288.29,-309.94 294.21,-318.73 295.06,-308.17 288.29,-309.94"/>
</g>
<!-- Node4 -->
<g id="node4" class="node">
<title>Node4</title>
<g id="a_node4"><a xlink:href="_nao_walk_status_8hpp.html" target="_top" xlink:title=" ">
<polygon fill="none" stroke="black" points="202,-190.5 202,-209.5 371,-209.5 371,-190.5 202,-190.5"/>
<text text-anchor="middle" x="286.5" y="-197.5" font-family="Helvetica,sans-Serif" font-size="10.00">typeClassDefs/NaoWalkStatus.hpp</text>
</a>
</g>
</g>
<!-- Node3&#45;&gt;Node4 -->
<g id="edge3" class="edge">
<title>Node3&#45;&gt;Node4</title>
<path fill="none" stroke="midnightblue" d="M281.7,-241.82C282.97,-231 284.51,-217.9 285.5,-209.51"/>
<polygon fill="midnightblue" stroke="midnightblue" points="278.2,-241.63 280.5,-251.98 285.15,-242.45 278.2,-241.63"/>
</g>
<!-- Node5 -->
<g id="node5" class="node">
<title>Node5</title>
<g id="a_node5"><a xlink:href="guwhiteboardposter_8h.html" target="_top" xlink:title=" ">
<polygon fill="none" stroke="black" points="156,-134.5 156,-153.5 265,-153.5 265,-134.5 156,-134.5"/>
<text text-anchor="middle" x="210.5" y="-141.5" font-family="Helvetica,sans-Serif" font-size="10.00">guwhiteboardposter.h</text>
</a>
</g>
</g>
<!-- Node4&#45;&gt;Node5 -->
<g id="edge4" class="edge">
<title>Node4&#45;&gt;Node5</title>
<path fill="none" stroke="midnightblue" d="M265.92,-184.38C252.19,-174.62 234.57,-162.11 222.93,-153.83"/>
<polygon fill="midnightblue" stroke="midnightblue" points="264.11,-187.38 274.29,-190.32 268.16,-181.68 264.11,-187.38"/>
</g>
<!-- Node11 -->
<g id="node11" class="node">
<title>Node11</title>
<g id="a_node11"><a xlink:href="_nao_walk_status_8h.html" target="_top" xlink:title=" ">
<polygon fill="none" stroke="black" points="283.5,-134.5 283.5,-153.5 441.5,-153.5 441.5,-134.5 283.5,-134.5"/>
<text text-anchor="middle" x="362.5" y="-141.5" font-family="Helvetica,sans-Serif" font-size="10.00">typeClassDefs/NaoWalkStatus.h</text>
</a>
</g>
</g>
<!-- Node4&#45;&gt;Node11 -->
<g id="edge10" class="edge">
<title>Node4&#45;&gt;Node11</title>
<path fill="none" stroke="midnightblue" d="M307.08,-184.38C320.81,-174.62 338.43,-162.11 350.07,-153.83"/>
<polygon fill="midnightblue" stroke="midnightblue" points="304.84,-181.68 298.71,-190.32 308.89,-187.38 304.84,-181.68"/>
</g>
<!-- Node6 -->
<g id="node6" class="node">
<title>Node6</title>
<g id="a_node6"><a xlink:href="_simple_whiteboard_test_8h.html" target="_top" xlink:title=" ">
<polygon fill="none" stroke="black" points="11,-67.5 11,-97.5 136,-97.5 136,-67.5 11,-67.5"/>
<text text-anchor="start" x="19" y="-85.5" font-family="Helvetica,sans-Serif" font-size="10.00">SimpleWhiteboardTest</text>
<text text-anchor="middle" x="73.5" y="-74.5" font-family="Helvetica,sans-Serif" font-size="10.00">/SimpleWhiteboardTest.h</text>
</a>
</g>
</g>
<!-- Node5&#45;&gt;Node6 -->
<g id="edge5" class="edge">
<title>Node5&#45;&gt;Node6</title>
<path fill="none" stroke="midnightblue" d="M181.63,-130.46C159.44,-120.82 128.79,-107.51 105.79,-97.52"/>
<polygon fill="midnightblue" stroke="midnightblue" points="180.3,-133.7 190.87,-134.48 183.09,-127.28 180.3,-133.7"/>
</g>
<!-- Node8 -->
<g id="node8" class="node">
<title>Node8</title>
<g id="a_node8"><a xlink:href="guwhiteboardgetter_8h.html" target="_top" xlink:title=" ">
<polygon fill="none" stroke="black" points="157,-73 157,-92 264,-92 264,-73 157,-73"/>
<text text-anchor="middle" x="210.5" y="-80" font-family="Helvetica,sans-Serif" font-size="10.00">guwhiteboardgetter.h</text>
</a>
</g>
</g>
<!-- Node5&#45;&gt;Node8 -->
<g id="edge7" class="edge">
<title>Node5&#45;&gt;Node8</title>
<path fill="none" stroke="midnightblue" d="M210.5,-124.32C210.5,-113.5 210.5,-100.4 210.5,-92.01"/>
<polygon fill="midnightblue" stroke="midnightblue" points="207,-124.48 210.5,-134.48 214,-124.48 207,-124.48"/>
</g>
<!-- Node10 -->
<g id="node10" class="node">
<title>Node10</title>
<g id="a_node10"><a xlink:href="guwhiteboardposter_8cpp.html" target="_top" xlink:title=" ">
<polygon fill="none" stroke="black" points="282,-73 282,-92 401,-92 401,-73 282,-73"/>
<text text-anchor="middle" x="341.5" y="-80" font-family="Helvetica,sans-Serif" font-size="10.00">guwhiteboardposter.cpp</text>
</a>
</g>
</g>
<!-- Node5&#45;&gt;Node10 -->
<g id="edge9" class="edge">
<title>Node5&#45;&gt;Node10</title>
<path fill="none" stroke="midnightblue" d="M238.4,-130.33C263.83,-118.78 300.7,-102.03 322.77,-92.01"/>
<polygon fill="midnightblue" stroke="midnightblue" points="236.93,-127.15 229.27,-134.48 239.82,-133.53 236.93,-127.15"/>
</g>
<!-- Node7 -->
<g id="node7" class="node">
<title>Node7</title>
<g id="a_node7"><a xlink:href="_simple_whiteboard_test_8mm.html" target="_top" xlink:title=" ">
<polygon fill="none" stroke="black" points="0,-0.5 0,-30.5 137,-30.5 137,-0.5 0,-0.5"/>
<text text-anchor="start" x="8" y="-18.5" font-family="Helvetica,sans-Serif" font-size="10.00">SimpleWhiteboardTest</text>
<text text-anchor="middle" x="68.5" y="-7.5" font-family="Helvetica,sans-Serif" font-size="10.00">/SimpleWhiteboardTest.mm</text>
</a>
</g>
</g>
<!-- Node6&#45;&gt;Node7 -->
<g id="edge6" class="edge">
<title>Node6&#45;&gt;Node7</title>
<path fill="none" stroke="midnightblue" d="M71.65,-57.4C70.95,-48.37 70.19,-38.41 69.58,-30.58"/>
<polygon fill="midnightblue" stroke="midnightblue" points="68.16,-57.69 72.42,-67.4 75.14,-57.16 68.16,-57.69"/>
</g>
<!-- Node9 -->
<g id="node9" class="node">
<title>Node9</title>
<g id="a_node9"><a xlink:href="guwhiteboardgetter_8cpp.html" target="_top" xlink:title=" ">
<polygon fill="none" stroke="black" points="155,-6 155,-25 272,-25 272,-6 155,-6"/>
<text text-anchor="middle" x="213.5" y="-13" font-family="Helvetica,sans-Serif" font-size="10.00">guwhiteboardgetter.cpp</text>
</a>
</g>
</g>
<!-- Node8&#45;&gt;Node9 -->
<g id="edge8" class="edge">
<title>Node8&#45;&gt;Node9</title>
<path fill="none" stroke="midnightblue" d="M211.38,-62.54C211.95,-50.17 212.66,-34.62 213.1,-25.13"/>
<polygon fill="midnightblue" stroke="midnightblue" points="207.87,-62.58 210.9,-72.73 214.86,-62.91 207.87,-62.58"/>
</g>
<!-- Node12&#45;&gt;Node4 -->
<g id="edge15" class="edge">
<title>Node12&#45;&gt;Node4</title>
<path fill="none" stroke="midnightblue" d="M429,-306.83C404.67,-286.41 368.97,-256.7 354.5,-246 336.29,-232.53 314.28,-218.32 300.33,-209.56"/>
<polygon fill="midnightblue" stroke="midnightblue" points="426.86,-309.61 436.76,-313.37 431.36,-304.25 426.86,-309.61"/>
</g>
<!-- Node13 -->
<g id="node13" class="node">
<title>Node13</title>
<g id="a_node13"><a xlink:href="guwhiteboard__c__types_8h.html" target="_top" xlink:title=" ">
<polygon fill="none" stroke="black" points="402,-252 402,-271 523,-271 523,-252 402,-252"/>
<text text-anchor="middle" x="462.5" y="-259" font-family="Helvetica,sans-Serif" font-size="10.00">guwhiteboard_c_types.h</text>
</a>
</g>
</g>
<!-- Node12&#45;&gt;Node13 -->
<g id="edge12" class="edge">
<title>Node12&#45;&gt;Node13</title>
<path fill="none" stroke="midnightblue" d="M456.86,-303.25C458.41,-292.02 460.16,-279.38 461.3,-271.19"/>
<polygon fill="midnightblue" stroke="midnightblue" points="453.36,-303.01 455.45,-313.4 460.29,-303.97 453.36,-303.01"/>
</g>
<!-- Node16 -->
<g id="node16" class="node">
<title>Node16</title>
<g id="a_node16"><a xlink:href="wb__nao__walk__status_8c.html" target="_top" xlink:title=" ">
<polygon fill="none" stroke="black" points="541.5,-246.5 541.5,-276.5 657.5,-276.5 657.5,-246.5 541.5,-246.5"/>
<text text-anchor="start" x="549.5" y="-264.5" font-family="Helvetica,sans-Serif" font-size="10.00">typeClassDefs/wb_nao</text>
<text text-anchor="middle" x="599.5" y="-253.5" font-family="Helvetica,sans-Serif" font-size="10.00">_walk_status.c</text>
</a>
</g>
</g>
<!-- Node12&#45;&gt;Node16 -->
<g id="edge16" class="edge">
<title>Node12&#45;&gt;Node16</title>
<path fill="none" stroke="midnightblue" d="M494.45,-309.27C517.7,-298.92 546.37,-286.15 567.88,-276.58"/>
<polygon fill="midnightblue" stroke="midnightblue" points="492.89,-306.13 485.18,-313.4 495.74,-312.53 492.89,-306.13"/>
</g>
<!-- Node14 -->
<g id="node14" class="node">
<title>Node14</title>
<g id="a_node14"><a xlink:href="guwhiteboarddeserialiser_8c.html" target="_top" xlink:title=" ">
<polygon fill="none" stroke="black" points="393,-190.5 393,-209.5 524,-209.5 524,-190.5 393,-190.5"/>
<text text-anchor="middle" x="458.5" y="-197.5" font-family="Helvetica,sans-Serif" font-size="10.00">guwhiteboarddeserialiser.c</text>
</a>
</g>
</g>
<!-- Node13&#45;&gt;Node14 -->
<g id="edge13" class="edge">
<title>Node13&#45;&gt;Node14</title>
<path fill="none" stroke="midnightblue" d="M461.24,-241.82C460.52,-231 459.64,-217.9 459.07,-209.51"/>
<polygon fill="midnightblue" stroke="midnightblue" points="457.76,-242.23 461.93,-251.98 464.75,-241.76 457.76,-242.23"/>
</g>
<!-- Node15 -->
<g id="node15" class="node">
<title>Node15</title>
<g id="a_node15"><a xlink:href="guwhiteboardserialiser_8c.html" target="_top" xlink:title=" ">
<polygon fill="none" stroke="black" points="542,-190.5 542,-209.5 663,-209.5 663,-190.5 542,-190.5"/>
<text text-anchor="middle" x="602.5" y="-197.5" font-family="Helvetica,sans-Serif" font-size="10.00">guwhiteboardserialiser.c</text>
</a>
</g>
</g>
<!-- Node13&#45;&gt;Node15 -->
<g id="edge14" class="edge">
<title>Node13&#45;&gt;Node15</title>
<path fill="none" stroke="midnightblue" d="M491.96,-247.98C519.15,-236.42 558.79,-219.58 582.48,-209.51"/>
<polygon fill="midnightblue" stroke="midnightblue" points="490.39,-244.84 482.56,-251.98 493.13,-251.28 490.39,-244.84"/>
</g>
</g>
</svg>
