<?xml version="1.0" encoding="UTF-8" standalone="no"?>
<!DOCTYPE svg PUBLIC "-//W3C//DTD SVG 1.1//EN"
 "http://www.w3.org/Graphics/SVG/1.1/DTD/svg11.dtd">
<!-- Generated by graphviz version 2.49.0 (20210830.1337)
 -->
<!-- Title: typeClassDefs/wb_particle_position.h Pages: 1 -->
<svg width="928pt" height="430pt"
 viewBox="0.00 0.00 927.50 430.00" xmlns="http://www.w3.org/2000/svg" xmlns:xlink="http://www.w3.org/1999/xlink">
<g id="graph0" class="graph" transform="scale(1 1) rotate(0) translate(4 426)">
<title>typeClassDefs/wb_particle_position.h</title>
<!-- Node1 -->
<g id="node1" class="node">
<title>Node1</title>
<g id="a_node1"><a xlink:title=" ">
<polygon fill="#bfbfbf" stroke="black" points="293.5,-391.5 293.5,-421.5 425.5,-421.5 425.5,-391.5 293.5,-391.5"/>
<text text-anchor="start" x="301.5" y="-409.5" font-family="Helvetica,sans-Serif" font-size="10.00">typeClassDefs/wb_particle</text>
<text text-anchor="middle" x="359.5" y="-398.5" font-family="Helvetica,sans-Serif" font-size="10.00">_position.h</text>
</a>
</g>
</g>
<!-- Node2 -->
<g id="node2" class="node">
<title>Node2</title>
<g id="a_node2"><a xlink:href="_particle_position-_bridging-_header_8hpp.html" target="_top" xlink:title=" ">
<polygon fill="none" stroke="black" points="22,-324.5 22,-354.5 173,-354.5 173,-324.5 22,-324.5"/>
<text text-anchor="start" x="30" y="-342.5" font-family="Helvetica,sans-Serif" font-size="10.00">typeClassDefs/ParticlePosition</text>
<text text-anchor="middle" x="97.5" y="-331.5" font-family="Helvetica,sans-Serif" font-size="10.00">&#45;Bridging&#45;Header.hpp</text>
</a>
</g>
</g>
<!-- Node1&#45;&gt;Node2 -->
<g id="edge1" class="edge">
<title>Node1&#45;&gt;Node2</title>
<path fill="none" stroke="midnightblue" d="M293.2,-389.05C250.37,-378.43 195.21,-364.74 154.38,-354.61"/>
<polygon fill="midnightblue" stroke="midnightblue" points="292.42,-392.47 302.97,-391.48 294.11,-385.67 292.42,-392.47"/>
</g>
<!-- Node4 -->
<g id="node4" class="node">
<title>Node4</title>
<g id="a_node4"><a xlink:href="_particle_position_8hpp.html" target="_top" xlink:title=" ">
<polygon fill="none" stroke="black" points="191,-330 191,-349 360,-349 360,-330 191,-330"/>
<text text-anchor="middle" x="275.5" y="-337" font-family="Helvetica,sans-Serif" font-size="10.00">typeClassDefs/ParticlePosition.hpp</text>
</a>
</g>
</g>
<!-- Node1&#45;&gt;Node4 -->
<g id="edge3" class="edge">
<title>Node1&#45;&gt;Node4</title>
<path fill="none" stroke="midnightblue" d="M333.02,-385.01C317.42,-372.94 298.51,-358.3 286.74,-349.19"/>
<polygon fill="midnightblue" stroke="midnightblue" points="331.22,-388.04 341.27,-391.4 335.51,-382.51 331.22,-388.04"/>
</g>
<!-- Node14 -->
<g id="node14" class="node">
<title>Node14</title>
<g id="a_node14"><a xlink:href="wb__particle__position_8c.html" target="_top" xlink:title=" ">
<polygon fill="none" stroke="black" points="378.5,-324.5 378.5,-354.5 510.5,-354.5 510.5,-324.5 378.5,-324.5"/>
<text text-anchor="start" x="386.5" y="-342.5" font-family="Helvetica,sans-Serif" font-size="10.00">typeClassDefs/wb_particle</text>
<text text-anchor="middle" x="444.5" y="-331.5" font-family="Helvetica,sans-Serif" font-size="10.00">_position.c</text>
</a>
</g>
</g>
<!-- Node1&#45;&gt;Node14 -->
<g id="edge13" class="edge">
<title>Node1&#45;&gt;Node14</title>
<path fill="none" stroke="midnightblue" d="M386.09,-385.17C399.09,-375.23 414.4,-363.51 426.09,-354.58"/>
<polygon fill="midnightblue" stroke="midnightblue" points="383.76,-382.54 377.94,-391.4 388.01,-388.1 383.76,-382.54"/>
</g>
<!-- Node15 -->
<g id="node15" class="node">
<title>Node15</title>
<g id="a_node15"><a xlink:href="wb__top__particles_8h.html" target="_top" xlink:title=" ">
<polygon fill="none" stroke="black" points="528.5,-324.5 528.5,-354.5 642.5,-354.5 642.5,-324.5 528.5,-324.5"/>
<text text-anchor="start" x="536.5" y="-342.5" font-family="Helvetica,sans-Serif" font-size="10.00">typeClassDefs/wb_top</text>
<text text-anchor="middle" x="585.5" y="-331.5" font-family="Helvetica,sans-Serif" font-size="10.00">_particles.h</text>
</a>
</g>
</g>
<!-- Node1&#45;&gt;Node15 -->
<g id="edge14" class="edge">
<title>Node1&#45;&gt;Node15</title>
<path fill="none" stroke="midnightblue" d="M418.33,-388.58C455.04,-378.02 501.73,-364.59 536.44,-354.61"/>
<polygon fill="midnightblue" stroke="midnightblue" points="416.9,-385.35 408.26,-391.48 418.84,-392.08 416.9,-385.35"/>
</g>
<!-- Node3 -->
<g id="node3" class="node">
<title>Node3</title>
<g id="a_node3"><a xlink:href="_particle_position-_bridging-_header_8h.html" target="_top" xlink:title=" ">
<polygon fill="none" stroke="black" points="22,-257.5 22,-287.5 173,-287.5 173,-257.5 22,-257.5"/>
<text text-anchor="start" x="30" y="-275.5" font-family="Helvetica,sans-Serif" font-size="10.00">typeClassDefs/ParticlePosition</text>
<text text-anchor="middle" x="97.5" y="-264.5" font-family="Helvetica,sans-Serif" font-size="10.00">&#45;Bridging&#45;Header.h</text>
</a>
</g>
</g>
<!-- Node2&#45;&gt;Node3 -->
<g id="edge2" class="edge">
<title>Node2&#45;&gt;Node3</title>
<path fill="none" stroke="midnightblue" d="M97.5,-314.11C97.5,-305.15 97.5,-295.32 97.5,-287.58"/>
<polygon fill="midnightblue" stroke="midnightblue" points="94,-314.4 97.5,-324.4 101,-314.4 94,-314.4"/>
</g>
<!-- Node5 -->
<g id="node5" class="node">
<title>Node5</title>
<g id="a_node5"><a xlink:href="_particle_position_8h.html" target="_top" xlink:title=" ">
<polygon fill="none" stroke="black" points="206.5,-263 206.5,-282 364.5,-282 364.5,-263 206.5,-263"/>
<text text-anchor="middle" x="285.5" y="-270" font-family="Helvetica,sans-Serif" font-size="10.00">typeClassDefs/ParticlePosition.h</text>
</a>
</g>
</g>
<!-- Node4&#45;&gt;Node5 -->
<g id="edge4" class="edge">
<title>Node4&#45;&gt;Node5</title>
<path fill="none" stroke="midnightblue" d="M278.42,-319.54C280.32,-307.17 282.71,-291.62 284.17,-282.13"/>
<polygon fill="midnightblue" stroke="midnightblue" points="274.91,-319.32 276.85,-329.73 281.83,-320.38 274.91,-319.32"/>
</g>
<!-- Node6 -->
<g id="node6" class="node">
<title>Node6</title>
<g id="a_node6"><a xlink:href="_top_particles_8hpp.html" target="_top" xlink:title=" ">
<polygon fill="none" stroke="black" points="243,-196 243,-215 398,-215 398,-196 243,-196"/>
<text text-anchor="middle" x="320.5" y="-203" font-family="Helvetica,sans-Serif" font-size="10.00">typeClassDefs/TopParticles.hpp</text>
</a>
</g>
</g>
<!-- Node5&#45;&gt;Node6 -->
<g id="edge5" class="edge">
<title>Node5&#45;&gt;Node6</title>
<path fill="none" stroke="midnightblue" d="M295.1,-253.66C301.85,-241.13 310.59,-224.91 315.85,-215.13"/>
<polygon fill="midnightblue" stroke="midnightblue" points="291.88,-252.27 290.22,-262.73 298.04,-255.59 291.88,-252.27"/>
</g>
<!-- Node7 -->
<g id="node7" class="node">
<title>Node7</title>
<g id="a_node7"><a xlink:href="guwhiteboardposter_8h.html" target="_top" xlink:title=" ">
<polygon fill="none" stroke="black" points="156,-134.5 156,-153.5 265,-153.5 265,-134.5 156,-134.5"/>
<text text-anchor="middle" x="210.5" y="-141.5" font-family="Helvetica,sans-Serif" font-size="10.00">guwhiteboardposter.h</text>
</a>
</g>
</g>
<!-- Node6&#45;&gt;Node7 -->
<g id="edge6" class="edge">
<title>Node6&#45;&gt;Node7</title>
<path fill="none" stroke="midnightblue" d="M295.93,-191.21C274.63,-179.69 244.43,-163.36 226.23,-153.51"/>
<polygon fill="midnightblue" stroke="midnightblue" points="294.28,-194.3 304.74,-195.98 297.61,-188.14 294.28,-194.3"/>
</g>
<!-- Node13 -->
<g id="node13" class="node">
<title>Node13</title>
<g id="a_node13"><a xlink:href="_top_particles_8h.html" target="_top" xlink:title=" ">
<polygon fill="none" stroke="black" points="283,-134.5 283,-153.5 428,-153.5 428,-134.5 283,-134.5"/>
<text text-anchor="middle" x="355.5" y="-141.5" font-family="Helvetica,sans-Serif" font-size="10.00">typeClassDefs/TopParticles.h</text>
</a>
</g>
</g>
<!-- Node6&#45;&gt;Node13 -->
<g id="edge12" class="edge">
<title>Node6&#45;&gt;Node13</title>
<path fill="none" stroke="midnightblue" d="M330.69,-187.17C337.2,-176.11 345.35,-162.25 350.49,-153.51"/>
<polygon fill="midnightblue" stroke="midnightblue" points="327.57,-185.58 325.51,-195.98 333.6,-189.13 327.57,-185.58"/>
</g>
<!-- Node8 -->
<g id="node8" class="node">
<title>Node8</title>
<g id="a_node8"><a xlink:href="_simple_whiteboard_test_8h.html" target="_top" xlink:title=" ">
<polygon fill="none" stroke="black" points="11,-67.5 11,-97.5 136,-97.5 136,-67.5 11,-67.5"/>
<text text-anchor="start" x="19" y="-85.5" font-family="Helvetica,sans-Serif" font-size="10.00">SimpleWhiteboardTest</text>
<text text-anchor="middle" x="73.5" y="-74.5" font-family="Helvetica,sans-Serif" font-size="10.00">/SimpleWhiteboardTest.h</text>
</a>
</g>
</g>
<!-- Node7&#45;&gt;Node8 -->
<g id="edge7" class="edge">
<title>Node7&#45;&gt;Node8</title>
<path fill="none" stroke="midnightblue" d="M181.63,-130.46C159.44,-120.82 128.79,-107.51 105.79,-97.52"/>
<polygon fill="midnightblue" stroke="midnightblue" points="180.3,-133.7 190.87,-134.48 183.09,-127.28 180.3,-133.7"/>
</g>
<!-- Node10 -->
<g id="node10" class="node">
<title>Node10</title>
<g id="a_node10"><a xlink:href="guwhiteboardgetter_8h.html" target="_top" xlink:title=" ">
<polygon fill="none" stroke="black" points="157,-73 157,-92 264,-92 264,-73 157,-73"/>
<text text-anchor="middle" x="210.5" y="-80" font-family="Helvetica,sans-Serif" font-size="10.00">guwhiteboardgetter.h</text>
</a>
</g>
</g>
<!-- Node7&#45;&gt;Node10 -->
<g id="edge9" class="edge">
<title>Node7&#45;&gt;Node10</title>
<path fill="none" stroke="midnightblue" d="M210.5,-124.32C210.5,-113.5 210.5,-100.4 210.5,-92.01"/>
<polygon fill="midnightblue" stroke="midnightblue" points="207,-124.48 210.5,-134.48 214,-124.48 207,-124.48"/>
</g>
<!-- Node12 -->
<g id="node12" class="node">
<title>Node12</title>
<g id="a_node12"><a xlink:href="guwhiteboardposter_8cpp.html" target="_top" xlink:title=" ">
<polygon fill="none" stroke="black" points="282,-73 282,-92 401,-92 401,-73 282,-73"/>
<text text-anchor="middle" x="341.5" y="-80" font-family="Helvetica,sans-Serif" font-size="10.00">guwhiteboardposter.cpp</text>
</a>
</g>
</g>
<!-- Node7&#45;&gt;Node12 -->
<g id="edge11" class="edge">
<title>Node7&#45;&gt;Node12</title>
<path fill="none" stroke="midnightblue" d="M238.4,-130.33C263.83,-118.78 300.7,-102.03 322.77,-92.01"/>
<polygon fill="midnightblue" stroke="midnightblue" points="236.93,-127.15 229.27,-134.48 239.82,-133.53 236.93,-127.15"/>
</g>
<!-- Node9 -->
<g id="node9" class="node">
<title>Node9</title>
<g id="a_node9"><a xlink:href="_simple_whiteboard_test_8mm.html" target="_top" xlink:title=" ">
<polygon fill="none" stroke="black" points="0,-0.5 0,-30.5 137,-30.5 137,-0.5 0,-0.5"/>
<text text-anchor="start" x="8" y="-18.5" font-family="Helvetica,sans-Serif" font-size="10.00">SimpleWhiteboardTest</text>
<text text-anchor="middle" x="68.5" y="-7.5" font-family="Helvetica,sans-Serif" font-size="10.00">/SimpleWhiteboardTest.mm</text>
</a>
</g>
</g>
<!-- Node8&#45;&gt;Node9 -->
<g id="edge8" class="edge">
<title>Node8&#45;&gt;Node9</title>
<path fill="none" stroke="midnightblue" d="M71.65,-57.4C70.95,-48.37 70.19,-38.41 69.58,-30.58"/>
<polygon fill="midnightblue" stroke="midnightblue" points="68.16,-57.69 72.42,-67.4 75.14,-57.16 68.16,-57.69"/>
</g>
<!-- Node11 -->
<g id="node11" class="node">
<title>Node11</title>
<g id="a_node11"><a xlink:href="guwhiteboardgetter_8cpp.html" target="_top" xlink:title=" ">
<polygon fill="none" stroke="black" points="155,-6 155,-25 272,-25 272,-6 155,-6"/>
<text text-anchor="middle" x="213.5" y="-13" font-family="Helvetica,sans-Serif" font-size="10.00">guwhiteboardgetter.cpp</text>
</a>
</g>
</g>
<!-- Node10&#45;&gt;Node11 -->
<g id="edge10" class="edge">
<title>Node10&#45;&gt;Node11</title>
<path fill="none" stroke="midnightblue" d="M211.38,-62.54C211.95,-50.17 212.66,-34.62 213.1,-25.13"/>
<polygon fill="midnightblue" stroke="midnightblue" points="207.87,-62.58 210.9,-72.73 214.86,-62.91 207.87,-62.58"/>
</g>
<!-- Node15&#45;&gt;Node6 -->
<g id="edge22" class="edge">
<title>Node15&#45;&gt;Node6</title>
<path fill="none" stroke="midnightblue" d="M547.92,-319.78C489.71,-290.79 380.07,-236.17 337.76,-215.1"/>
<polygon fill="midnightblue" stroke="midnightblue" points="546.63,-323.05 557.14,-324.37 549.75,-316.78 546.63,-323.05"/>
</g>
<!-- Node16 -->
<g id="node16" class="node">
<title>Node16</title>
<g id="a_node16"><a xlink:href="guwhiteboard__c__types_8h.html" target="_top" xlink:title=" ">
<polygon fill="none" stroke="black" points="502,-196 502,-215 623,-215 623,-196 502,-196"/>
<text text-anchor="middle" x="562.5" y="-203" font-family="Helvetica,sans-Serif" font-size="10.00">guwhiteboard_c_types.h</text>
</a>
</g>
</g>
<!-- Node15&#45;&gt;Node16 -->
<g id="edge15" class="edge">
<title>Node15&#45;&gt;Node16</title>
<path fill="none" stroke="midnightblue" d="M541.59,-319.46C528.93,-311.65 516.62,-301.27 509.5,-288 502.99,-275.86 504.07,-269.66 509.5,-257 517.31,-238.78 535.28,-224.01 548.13,-215.25"/>
<polygon fill="midnightblue" stroke="midnightblue" points="539.94,-322.54 550.36,-324.45 543.4,-316.46 539.94,-322.54"/>
</g>
<!-- Node19 -->
<g id="node19" class="node">
<title>Node19</title>
<g id="a_node19"><a xlink:href="guwhiteboard__c__types__manual__definitions_8h.html" target="_top" xlink:title=" ">
<polygon fill="none" stroke="black" points="519,-257.5 519,-287.5 632,-287.5 632,-257.5 519,-257.5"/>
<text text-anchor="start" x="527" y="-275.5" font-family="Helvetica,sans-Serif" font-size="10.00">guwhiteboard_c_types</text>
<text text-anchor="middle" x="575.5" y="-264.5" font-family="Helvetica,sans-Serif" font-size="10.00">_manual_definitions.h</text>
</a>
</g>
</g>
<!-- Node15&#45;&gt;Node19 -->
<g id="edge18" class="edge">
<title>Node15&#45;&gt;Node19</title>
<path fill="none" stroke="midnightblue" d="M581.79,-314.4C580.4,-305.37 578.87,-295.41 577.67,-287.58"/>
<polygon fill="midnightblue" stroke="midnightblue" points="578.35,-315.04 583.33,-324.4 585.27,-313.98 578.35,-315.04"/>
</g>
<!-- Node20 -->
<g id="node20" class="node">
<title>Node20</title>
<g id="a_node20"><a xlink:href="_top_particles-_bridging-_header_8hpp.html" target="_top" xlink:title=" ">
<polygon fill="none" stroke="black" points="650,-257.5 650,-287.5 787,-287.5 787,-257.5 650,-257.5"/>
<text text-anchor="start" x="658" y="-275.5" font-family="Helvetica,sans-Serif" font-size="10.00">typeClassDefs/TopParticles</text>
<text text-anchor="middle" x="718.5" y="-264.5" font-family="Helvetica,sans-Serif" font-size="10.00">&#45;Bridging&#45;Header.hpp</text>
</a>
</g>
</g>
<!-- Node15&#45;&gt;Node20 -->
<g id="edge20" class="edge">
<title>Node15&#45;&gt;Node20</title>
<path fill="none" stroke="midnightblue" d="M623.37,-319.99C644.45,-309.69 670.28,-297.07 689.7,-287.58"/>
<polygon fill="midnightblue" stroke="midnightblue" points="621.81,-316.86 614.36,-324.4 624.88,-323.15 621.81,-316.86"/>
</g>
<!-- Node22 -->
<g id="node22" class="node">
<title>Node22</title>
<g id="a_node22"><a xlink:href="wb__top__particles_8c.html" target="_top" xlink:title=" ">
<polygon fill="none" stroke="black" points="805.5,-257.5 805.5,-287.5 919.5,-287.5 919.5,-257.5 805.5,-257.5"/>
<text text-anchor="start" x="813.5" y="-275.5" font-family="Helvetica,sans-Serif" font-size="10.00">typeClassDefs/wb_top</text>
<text text-anchor="middle" x="862.5" y="-264.5" font-family="Helvetica,sans-Serif" font-size="10.00">_particles.c</text>
</a>
</g>
</g>
<!-- Node15&#45;&gt;Node22 -->
<g id="edge23" class="edge">
<title>Node15&#45;&gt;Node22</title>
<path fill="none" stroke="midnightblue" d="M652.57,-322.76C699.19,-311.82 760.67,-297.39 805.04,-286.98"/>
<polygon fill="midnightblue" stroke="midnightblue" points="651.49,-319.42 642.56,-325.11 653.09,-326.23 651.49,-319.42"/>
</g>
<!-- Node17 -->
<g id="node17" class="node">
<title>Node17</title>
<g id="a_node17"><a xlink:href="guwhiteboarddeserialiser_8c.html" target="_top" xlink:title=" ">
<polygon fill="none" stroke="black" points="463,-134.5 463,-153.5 594,-153.5 594,-134.5 463,-134.5"/>
<text text-anchor="middle" x="528.5" y="-141.5" font-family="Helvetica,sans-Serif" font-size="10.00">guwhiteboarddeserialiser.c</text>
</a>
</g>
</g>
<!-- Node16&#45;&gt;Node17 -->
<g id="edge16" class="edge">
<title>Node16&#45;&gt;Node17</title>
<path fill="none" stroke="midnightblue" d="M552.6,-187.17C546.28,-176.11 538.36,-162.25 533.36,-153.51"/>
<polygon fill="midnightblue" stroke="midnightblue" points="549.63,-189.03 557.63,-195.98 555.71,-185.56 549.63,-189.03"/>
</g>
<!-- Node18 -->
<g id="node18" class="node">
<title>Node18</title>
<g id="a_node18"><a xlink:href="guwhiteboardserialiser_8c.html" target="_top" xlink:title=" ">
<polygon fill="none" stroke="black" points="612,-134.5 612,-153.5 733,-153.5 733,-134.5 612,-134.5"/>
<text text-anchor="middle" x="672.5" y="-141.5" font-family="Helvetica,sans-Serif" font-size="10.00">guwhiteboardserialiser.c</text>
</a>
</g>
</g>
<!-- Node16&#45;&gt;Node18 -->
<g id="edge17" class="edge">
<title>Node16&#45;&gt;Node18</title>
<path fill="none" stroke="midnightblue" d="M587.07,-191.21C608.37,-179.69 638.57,-163.36 656.77,-153.51"/>
<polygon fill="midnightblue" stroke="midnightblue" points="585.39,-188.14 578.26,-195.98 588.72,-194.3 585.39,-188.14"/>
</g>
<!-- Node19&#45;&gt;Node16 -->
<g id="edge19" class="edge">
<title>Node19&#45;&gt;Node16</title>
<path fill="none" stroke="midnightblue" d="M570.65,-247.25C568.4,-236.02 565.88,-223.38 564.24,-215.19"/>
<polygon fill="midnightblue" stroke="midnightblue" points="567.29,-248.28 572.68,-257.4 574.15,-246.9 567.29,-248.28"/>
</g>
<!-- Node21 -->
<g id="node21" class="node">
<title>Node21</title>
<g id="a_node21"><a xlink:href="_top_particles-_bridging-_header_8h.html" target="_top" xlink:title=" ">
<polygon fill="none" stroke="black" points="650,-190.5 650,-220.5 787,-220.5 787,-190.5 650,-190.5"/>
<text text-anchor="start" x="658" y="-208.5" font-family="Helvetica,sans-Serif" font-size="10.00">typeClassDefs/TopParticles</text>
<text text-anchor="middle" x="718.5" y="-197.5" font-family="Helvetica,sans-Serif" font-size="10.00">&#45;Bridging&#45;Header.h</text>
</a>
</g>
</g>
<!-- Node20&#45;&gt;Node21 -->
<g id="edge21" class="edge">
<title>Node20&#45;&gt;Node21</title>
<path fill="none" stroke="midnightblue" d="M718.5,-247.11C718.5,-238.15 718.5,-228.32 718.5,-220.58"/>
<polygon fill="midnightblue" stroke="midnightblue" points="715,-247.4 718.5,-257.4 722,-247.4 715,-247.4"/>
</g>
</g>
</svg>
