<?xml version="1.0" encoding="UTF-8" standalone="no"?>
<!DOCTYPE svg PUBLIC "-//W3C//DTD SVG 1.1//EN"
 "http://www.w3.org/Graphics/SVG/1.1/DTD/svg11.dtd">
<!-- Generated by graphviz version 2.49.0 (20210830.1337)
 -->
<!-- Title: typeClassDefs/wb_particle_position.c Pages: 1 -->
<svg width="451pt" height="207pt"
 viewBox="0.00 0.00 451.00 207.00" xmlns="http://www.w3.org/2000/svg" xmlns:xlink="http://www.w3.org/1999/xlink">
<g id="graph0" class="graph" transform="scale(1 1) rotate(0) translate(4 203)">
<title>typeClassDefs/wb_particle_position.c</title>
<!-- Node1 -->
<g id="node1" class="node">
<title>Node1</title>
<g id="a_node1"><a xlink:title=" ">
<polygon fill="#bfbfbf" stroke="black" points="190.5,-168.5 190.5,-198.5 322.5,-198.5 322.5,-168.5 190.5,-168.5"/>
<text text-anchor="start" x="198.5" y="-186.5" font-family="Helvetica,sans-Serif" font-size="10.00">typeClassDefs/wb_particle</text>
<text text-anchor="middle" x="256.5" y="-175.5" font-family="Helvetica,sans-Serif" font-size="10.00">_position.c</text>
</a>
</g>
</g>
<!-- Node2 -->
<g id="node2" class="node">
<title>Node2</title>
<g id="a_node2"><a xlink:href="wb__particle__position_8h.html" target="_top" xlink:title=" ">
<polygon fill="none" stroke="black" points="5,-112.5 5,-131.5 118,-131.5 118,-112.5 5,-112.5"/>
<text text-anchor="middle" x="61.5" y="-119.5" font-family="Helvetica,sans-Serif" font-size="10.00">wb_particle_position.h</text>
</a>
</g>
</g>
<!-- Node1&#45;&gt;Node2 -->
<g id="edge1" class="edge">
<title>Node1&#45;&gt;Node2</title>
<path fill="none" stroke="midnightblue" d="M210.29,-168.4C176.45,-158.07 131.08,-144.23 99.37,-134.56"/>
<polygon fill="midnightblue" stroke="midnightblue" points="100.18,-131.14 89.59,-131.57 98.13,-137.84 100.18,-131.14"/>
</g>
<!-- Node6 -->
<g id="node6" class="node">
<title>Node6</title>
<g id="a_node6"><a xlink:title=" ">
<polygon fill="none" stroke="#bfbfbf" points="136,-112.5 136,-131.5 181,-131.5 181,-112.5 136,-112.5"/>
<text text-anchor="middle" x="158.5" y="-119.5" font-family="Helvetica,sans-Serif" font-size="10.00">stdio.h</text>
</a>
</g>
</g>
<!-- Node1&#45;&gt;Node6 -->
<g id="edge7" class="edge">
<title>Node1&#45;&gt;Node6</title>
<path fill="none" stroke="midnightblue" d="M233.28,-168.4C217.71,-158.95 197.3,-146.56 181.74,-137.11"/>
<polygon fill="midnightblue" stroke="midnightblue" points="183.12,-133.86 172.76,-131.66 179.49,-139.84 183.12,-133.86"/>
</g>
<!-- Node7 -->
<g id="node7" class="node">
<title>Node7</title>
<g id="a_node7"><a xlink:title=" ">
<polygon fill="none" stroke="#bfbfbf" points="199.5,-112.5 199.5,-131.5 247.5,-131.5 247.5,-112.5 199.5,-112.5"/>
<text text-anchor="middle" x="223.5" y="-119.5" font-family="Helvetica,sans-Serif" font-size="10.00">string.h</text>
</a>
</g>
</g>
<!-- Node1&#45;&gt;Node7 -->
<g id="edge8" class="edge">
<title>Node1&#45;&gt;Node7</title>
<path fill="none" stroke="midnightblue" d="M248.68,-168.4C244.03,-160.02 238.1,-149.33 233.16,-140.42"/>
<polygon fill="midnightblue" stroke="midnightblue" points="236.21,-138.71 228.3,-131.66 230.09,-142.1 236.21,-138.71"/>
</g>
<!-- Node8 -->
<g id="node8" class="node">
<title>Node8</title>
<g id="a_node8"><a xlink:title=" ">
<polygon fill="none" stroke="#bfbfbf" points="266,-112.5 266,-131.5 313,-131.5 313,-112.5 266,-112.5"/>
<text text-anchor="middle" x="289.5" y="-119.5" font-family="Helvetica,sans-Serif" font-size="10.00">stdlib.h</text>
</a>
</g>
</g>
<!-- Node1&#45;&gt;Node8 -->
<g id="edge9" class="edge">
<title>Node1&#45;&gt;Node8</title>
<path fill="none" stroke="midnightblue" d="M264.32,-168.4C268.97,-160.02 274.9,-149.33 279.84,-140.42"/>
<polygon fill="midnightblue" stroke="midnightblue" points="282.91,-142.1 284.7,-131.66 276.79,-138.71 282.91,-142.1"/>
</g>
<!-- Node9 -->
<g id="node9" class="node">
<title>Node9</title>
<g id="a_node9"><a xlink:title=" ">
<polygon fill="none" stroke="#bfbfbf" points="331,-112.5 331,-131.5 378,-131.5 378,-112.5 331,-112.5"/>
<text text-anchor="middle" x="354.5" y="-119.5" font-family="Helvetica,sans-Serif" font-size="10.00">ctype.h</text>
</a>
</g>
</g>
<!-- Node1&#45;&gt;Node9 -->
<g id="edge10" class="edge">
<title>Node1&#45;&gt;Node9</title>
<path fill="none" stroke="midnightblue" d="M279.72,-168.4C295.29,-158.95 315.7,-146.56 331.26,-137.11"/>
<polygon fill="midnightblue" stroke="midnightblue" points="333.51,-139.84 340.24,-131.66 329.88,-133.86 333.51,-139.84"/>
</g>
<!-- Node10 -->
<g id="node10" class="node">
<title>Node10</title>
<g id="a_node10"><a xlink:title=" ">
<polygon fill="none" stroke="#bfbfbf" points="396,-112.5 396,-131.5 443,-131.5 443,-112.5 396,-112.5"/>
<text text-anchor="middle" x="419.5" y="-119.5" font-family="Helvetica,sans-Serif" font-size="10.00">limits.h</text>
</a>
</g>
</g>
<!-- Node1&#45;&gt;Node10 -->
<g id="edge11" class="edge">
<title>Node1&#45;&gt;Node10</title>
<path fill="none" stroke="midnightblue" d="M295.13,-168.4C322.84,-158.28 359.81,-144.79 386.22,-135.15"/>
<polygon fill="midnightblue" stroke="midnightblue" points="387.59,-138.37 395.78,-131.66 385.19,-131.8 387.59,-138.37"/>
</g>
<!-- Node3 -->
<g id="node3" class="node">
<title>Node3</title>
<g id="a_node3"><a xlink:title=" ">
<polygon fill="none" stroke="#bfbfbf" points="0,-0.5 0,-19.5 53,-19.5 53,-0.5 0,-0.5"/>
<text text-anchor="middle" x="26.5" y="-7.5" font-family="Helvetica,sans-Serif" font-size="10.00">gu_util.h</text>
</a>
</g>
</g>
<!-- Node2&#45;&gt;Node3 -->
<g id="edge2" class="edge">
<title>Node2&#45;&gt;Node3</title>
<path fill="none" stroke="midnightblue" d="M47.71,-112.19C36.67,-104.24 22,-91.45 15.5,-76 9.2,-61.02 13.27,-42.65 18.15,-29.27"/>
<polygon fill="midnightblue" stroke="midnightblue" points="21.49,-30.34 22.06,-19.76 15.02,-27.69 21.49,-30.34"/>
</g>
<!-- Node4 -->
<g id="node4" class="node">
<title>Node4</title>
<g id="a_node4"><a xlink:title=" ">
<polygon fill="none" stroke="#bfbfbf" points="86.5,-0.5 86.5,-19.5 134.5,-19.5 134.5,-0.5 86.5,-0.5"/>
<text text-anchor="middle" x="110.5" y="-7.5" font-family="Helvetica,sans-Serif" font-size="10.00">stdint.h</text>
</a>
</g>
</g>
<!-- Node2&#45;&gt;Node4 -->
<g id="edge3" class="edge">
<title>Node2&#45;&gt;Node4</title>
<path fill="none" stroke="midnightblue" d="M74.67,-112.43C85.64,-104.46 100.56,-91.5 107.5,-76 114,-61.5 114.26,-43.32 113.18,-29.87"/>
<polygon fill="midnightblue" stroke="midnightblue" points="116.65,-29.43 112.06,-19.88 109.69,-30.21 116.65,-29.43"/>
</g>
<!-- Node5 -->
<g id="node5" class="node">
<title>Node5</title>
<g id="a_node5"><a xlink:href="wb__point2d_8h.html" target="_top" xlink:title=" ">
<polygon fill="none" stroke="black" points="24.5,-56.5 24.5,-75.5 98.5,-75.5 98.5,-56.5 24.5,-56.5"/>
<text text-anchor="middle" x="61.5" y="-63.5" font-family="Helvetica,sans-Serif" font-size="10.00">wb_point2d.h</text>
</a>
</g>
</g>
<!-- Node2&#45;&gt;Node5 -->
<g id="edge4" class="edge">
<title>Node2&#45;&gt;Node5</title>
<path fill="none" stroke="midnightblue" d="M61.5,-112.08C61.5,-105.01 61.5,-94.86 61.5,-85.99"/>
<polygon fill="midnightblue" stroke="midnightblue" points="65,-85.75 61.5,-75.75 58,-85.75 65,-85.75"/>
</g>
<!-- Node5&#45;&gt;Node3 -->
<g id="edge5" class="edge">
<title>Node5&#45;&gt;Node3</title>
<path fill="none" stroke="midnightblue" d="M55.72,-56.08C50.83,-48.53 43.67,-37.49 37.67,-28.23"/>
<polygon fill="midnightblue" stroke="midnightblue" points="40.55,-26.24 32.17,-19.75 34.67,-30.05 40.55,-26.24"/>
</g>
<!-- Node5&#45;&gt;Node4 -->
<g id="edge6" class="edge">
<title>Node5&#45;&gt;Node4</title>
<path fill="none" stroke="midnightblue" d="M69.59,-56.08C76.66,-48.3 87.09,-36.8 95.65,-27.37"/>
<polygon fill="midnightblue" stroke="midnightblue" points="98.43,-29.51 102.56,-19.75 93.25,-24.8 98.43,-29.51"/>
</g>
</g>
</svg>
