<?xml version="1.0" encoding="UTF-8" standalone="no"?>
<!DOCTYPE svg PUBLIC "-//W3C//DTD SVG 1.1//EN"
 "http://www.w3.org/Graphics/SVG/1.1/DTD/svg11.dtd">
<!-- Generated by graphviz version 2.49.0 (20210830.1337)
 -->
<!-- Title: typeClassDefs/wb_vision_detection_feature_array.h Pages: 1 -->
<svg width="229pt" height="218pt"
 viewBox="0.00 0.00 228.50 218.00" xmlns="http://www.w3.org/2000/svg" xmlns:xlink="http://www.w3.org/1999/xlink">
<g id="graph0" class="graph" transform="scale(1 1) rotate(0) translate(4 214)">
<title>typeClassDefs/wb_vision_detection_feature_array.h</title>
<!-- Node1 -->
<g id="node1" class="node">
<title>Node1</title>
<g id="a_node1"><a xlink:title=" ">
<polygon fill="#bfbfbf" stroke="black" points="43.5,-179.5 43.5,-209.5 174.5,-209.5 174.5,-179.5 43.5,-179.5"/>
<text text-anchor="start" x="51.5" y="-197.5" font-family="Helvetica,sans-Serif" font-size="10.00">typeClassDefs/wb_vision</text>
<text text-anchor="middle" x="109" y="-186.5" font-family="Helvetica,sans-Serif" font-size="10.00">_detection_feature_array.h</text>
</a>
</g>
</g>
<!-- Node2 -->
<g id="node2" class="node">
<title>Node2</title>
<g id="a_node2"><a xlink:title=" ">
<polygon fill="none" stroke="#bfbfbf" points="167.5,-0.5 167.5,-19.5 220.5,-19.5 220.5,-0.5 167.5,-0.5"/>
<text text-anchor="middle" x="194" y="-7.5" font-family="Helvetica,sans-Serif" font-size="10.00">gu_util.h</text>
</a>
</g>
</g>
<!-- Node1&#45;&gt;Node2 -->
<g id="edge1" class="edge">
<title>Node1&#45;&gt;Node2</title>
<path fill="none" stroke="midnightblue" d="M132.15,-179.44C145.19,-170.47 160.85,-157.76 171,-143 194.75,-108.45 196.46,-57.11 195.39,-29.76"/>
<polygon fill="midnightblue" stroke="midnightblue" points="198.88,-29.41 194.82,-19.62 191.89,-29.8 198.88,-29.41"/>
</g>
<!-- Node3 -->
<g id="node3" class="node">
<title>Node3</title>
<g id="a_node3"><a xlink:title=" ">
<polygon fill="none" stroke="#bfbfbf" points="0,-0.5 0,-19.5 48,-19.5 48,-0.5 0,-0.5"/>
<text text-anchor="middle" x="24" y="-7.5" font-family="Helvetica,sans-Serif" font-size="10.00">stdint.h</text>
</a>
</g>
</g>
<!-- Node1&#45;&gt;Node3 -->
<g id="edge2" class="edge">
<title>Node1&#45;&gt;Node3</title>
<path fill="none" stroke="midnightblue" d="M85.17,-179.49C72.06,-170.61 56.56,-157.98 47,-143 24.45,-107.65 22.25,-56.64 22.93,-29.55"/>
<polygon fill="midnightblue" stroke="midnightblue" points="26.42,-29.65 23.34,-19.52 19.43,-29.36 26.42,-29.65"/>
</g>
<!-- Node4 -->
<g id="node4" class="node">
<title>Node4</title>
<g id="a_node4"><a xlink:href="wb__vision__detection__feature_8h.html" target="_top" xlink:title=" ">
<polygon fill="none" stroke="black" points="56.5,-112.5 56.5,-142.5 161.5,-142.5 161.5,-112.5 56.5,-112.5"/>
<text text-anchor="start" x="64.5" y="-130.5" font-family="Helvetica,sans-Serif" font-size="10.00">wb_vision_detection</text>
<text text-anchor="middle" x="109" y="-119.5" font-family="Helvetica,sans-Serif" font-size="10.00">_feature.h</text>
</a>
</g>
</g>
<!-- Node1&#45;&gt;Node4 -->
<g id="edge3" class="edge">
<title>Node1&#45;&gt;Node4</title>
<path fill="none" stroke="midnightblue" d="M109,-179.4C109,-171.64 109,-161.81 109,-152.86"/>
<polygon fill="midnightblue" stroke="midnightblue" points="112.5,-152.58 109,-142.58 105.5,-152.58 112.5,-152.58"/>
</g>
<!-- Node4&#45;&gt;Node2 -->
<g id="edge4" class="edge">
<title>Node4&#45;&gt;Node2</title>
<path fill="none" stroke="midnightblue" d="M134.49,-112.47C148.31,-103.66 164.64,-91.11 175,-76 184.45,-62.21 189.27,-43.69 191.68,-29.94"/>
<polygon fill="midnightblue" stroke="midnightblue" points="195.19,-30.13 193.19,-19.73 188.26,-29.11 195.19,-30.13"/>
</g>
<!-- Node4&#45;&gt;Node3 -->
<g id="edge5" class="edge">
<title>Node4&#45;&gt;Node3</title>
<path fill="none" stroke="midnightblue" d="M83.51,-112.47C69.69,-103.66 53.36,-91.11 43,-76 33.55,-62.21 28.73,-43.69 26.32,-29.94"/>
<polygon fill="midnightblue" stroke="midnightblue" points="29.74,-29.11 24.81,-19.73 22.81,-30.13 29.74,-29.11"/>
</g>
<!-- Node5 -->
<g id="node5" class="node">
<title>Node5</title>
<g id="a_node5"><a xlink:href="wb__polar__coordinate_8h.html" target="_top" xlink:title=" ">
<polygon fill="none" stroke="black" points="52.5,-56.5 52.5,-75.5 165.5,-75.5 165.5,-56.5 52.5,-56.5"/>
<text text-anchor="middle" x="109" y="-63.5" font-family="Helvetica,sans-Serif" font-size="10.00">wb_polar_coordinate.h</text>
</a>
</g>
</g>
<!-- Node4&#45;&gt;Node5 -->
<g id="edge6" class="edge">
<title>Node4&#45;&gt;Node5</title>
<path fill="none" stroke="midnightblue" d="M109,-112.4C109,-104.47 109,-94.46 109,-85.86"/>
<polygon fill="midnightblue" stroke="midnightblue" points="112.5,-85.66 109,-75.66 105.5,-85.66 112.5,-85.66"/>
</g>
<!-- Node5&#45;&gt;Node2 -->
<g id="edge7" class="edge">
<title>Node5&#45;&gt;Node2</title>
<path fill="none" stroke="midnightblue" d="M122.66,-56.32C135.92,-47.9 156.27,-34.97 171.85,-25.07"/>
<polygon fill="midnightblue" stroke="midnightblue" points="173.81,-27.97 180.38,-19.65 170.06,-22.06 173.81,-27.97"/>
</g>
<!-- Node5&#45;&gt;Node3 -->
<g id="edge8" class="edge">
<title>Node5&#45;&gt;Node3</title>
<path fill="none" stroke="midnightblue" d="M95.34,-56.32C82.08,-47.9 61.73,-34.97 46.15,-25.07"/>
<polygon fill="midnightblue" stroke="midnightblue" points="47.94,-22.06 37.62,-19.65 44.19,-27.97 47.94,-22.06"/>
</g>
</g>
</svg>
