<?xml version="1.0" encoding="UTF-8" standalone="no"?>
<!DOCTYPE svg PUBLIC "-//W3C//DTD SVG 1.1//EN"
 "http://www.w3.org/Graphics/SVG/1.1/DTD/svg11.dtd">
<!-- Generated by graphviz version 2.49.0 (20210830.1337)
 -->
<!-- Title: typeClassDefs/wb_particle_output_map.c Pages: 1 -->
<svg width="443pt" height="162pt"
 viewBox="0.00 0.00 443.00 162.00" xmlns="http://www.w3.org/2000/svg" xmlns:xlink="http://www.w3.org/1999/xlink">
<g id="graph0" class="graph" transform="scale(1 1) rotate(0) translate(4 158)">
<title>typeClassDefs/wb_particle_output_map.c</title>
<!-- Node1 -->
<g id="node1" class="node">
<title>Node1</title>
<g id="a_node1"><a xlink:title=" ">
<polygon fill="#bfbfbf" stroke="black" points="182.5,-123.5 182.5,-153.5 314.5,-153.5 314.5,-123.5 182.5,-123.5"/>
<text text-anchor="start" x="190.5" y="-141.5" font-family="Helvetica,sans-Serif" font-size="10.00">typeClassDefs/wb_particle</text>
<text text-anchor="middle" x="248.5" y="-130.5" font-family="Helvetica,sans-Serif" font-size="10.00">_output_map.c</text>
</a>
</g>
</g>
<!-- Node2 -->
<g id="node2" class="node">
<title>Node2</title>
<g id="a_node2"><a xlink:href="wb__particle__output__map_8h.html" target="_top" xlink:title=" ">
<polygon fill="none" stroke="black" points="11.5,-56.5 11.5,-86.5 109.5,-86.5 109.5,-56.5 11.5,-56.5"/>
<text text-anchor="start" x="19.5" y="-74.5" font-family="Helvetica,sans-Serif" font-size="10.00">wb_particle_output</text>
<text text-anchor="middle" x="60.5" y="-63.5" font-family="Helvetica,sans-Serif" font-size="10.00">_map.h</text>
</a>
</g>
</g>
<!-- Node1&#45;&gt;Node2 -->
<g id="edge1" class="edge">
<title>Node1&#45;&gt;Node2</title>
<path fill="none" stroke="midnightblue" d="M207.71,-123.4C179.25,-113.56 141.1,-100.37 110.77,-89.88"/>
<polygon fill="midnightblue" stroke="midnightblue" points="111.81,-86.54 101.21,-86.58 109.52,-93.15 111.81,-86.54"/>
</g>
<!-- Node5 -->
<g id="node5" class="node">
<title>Node5</title>
<g id="a_node5"><a xlink:title=" ">
<polygon fill="none" stroke="#bfbfbf" points="128,-62 128,-81 173,-81 173,-62 128,-62"/>
<text text-anchor="middle" x="150.5" y="-69" font-family="Helvetica,sans-Serif" font-size="10.00">stdio.h</text>
</a>
</g>
</g>
<!-- Node1&#45;&gt;Node5 -->
<g id="edge4" class="edge">
<title>Node1&#45;&gt;Node5</title>
<path fill="none" stroke="midnightblue" d="M227.24,-123.4C210.8,-112.5 188.16,-97.48 171.73,-86.58"/>
<polygon fill="midnightblue" stroke="midnightblue" points="173.59,-83.62 163.33,-81.01 169.72,-89.45 173.59,-83.62"/>
</g>
<!-- Node6 -->
<g id="node6" class="node">
<title>Node6</title>
<g id="a_node6"><a xlink:title=" ">
<polygon fill="none" stroke="#bfbfbf" points="191.5,-62 191.5,-81 239.5,-81 239.5,-62 191.5,-62"/>
<text text-anchor="middle" x="215.5" y="-69" font-family="Helvetica,sans-Serif" font-size="10.00">string.h</text>
</a>
</g>
</g>
<!-- Node1&#45;&gt;Node6 -->
<g id="edge5" class="edge">
<title>Node1&#45;&gt;Node6</title>
<path fill="none" stroke="midnightblue" d="M241.34,-123.4C236.4,-113.66 229.79,-100.65 224.49,-90.21"/>
<polygon fill="midnightblue" stroke="midnightblue" points="227.56,-88.53 219.91,-81.19 221.32,-91.7 227.56,-88.53"/>
</g>
<!-- Node7 -->
<g id="node7" class="node">
<title>Node7</title>
<g id="a_node7"><a xlink:title=" ">
<polygon fill="none" stroke="#bfbfbf" points="258,-62 258,-81 305,-81 305,-62 258,-62"/>
<text text-anchor="middle" x="281.5" y="-69" font-family="Helvetica,sans-Serif" font-size="10.00">stdlib.h</text>
</a>
</g>
</g>
<!-- Node1&#45;&gt;Node7 -->
<g id="edge6" class="edge">
<title>Node1&#45;&gt;Node7</title>
<path fill="none" stroke="midnightblue" d="M255.66,-123.4C260.6,-113.66 267.21,-100.65 272.51,-90.21"/>
<polygon fill="midnightblue" stroke="midnightblue" points="275.68,-91.7 277.09,-81.19 269.44,-88.53 275.68,-91.7"/>
</g>
<!-- Node8 -->
<g id="node8" class="node">
<title>Node8</title>
<g id="a_node8"><a xlink:title=" ">
<polygon fill="none" stroke="#bfbfbf" points="323,-62 323,-81 370,-81 370,-62 323,-62"/>
<text text-anchor="middle" x="346.5" y="-69" font-family="Helvetica,sans-Serif" font-size="10.00">ctype.h</text>
</a>
</g>
</g>
<!-- Node1&#45;&gt;Node8 -->
<g id="edge7" class="edge">
<title>Node1&#45;&gt;Node8</title>
<path fill="none" stroke="midnightblue" d="M269.76,-123.4C286.2,-112.5 308.84,-97.48 325.27,-86.58"/>
<polygon fill="midnightblue" stroke="midnightblue" points="327.28,-89.45 333.67,-81.01 323.41,-83.62 327.28,-89.45"/>
</g>
<!-- Node9 -->
<g id="node9" class="node">
<title>Node9</title>
<g id="a_node9"><a xlink:title=" ">
<polygon fill="none" stroke="#bfbfbf" points="388,-62 388,-81 435,-81 435,-62 388,-62"/>
<text text-anchor="middle" x="411.5" y="-69" font-family="Helvetica,sans-Serif" font-size="10.00">limits.h</text>
</a>
</g>
</g>
<!-- Node1&#45;&gt;Node9 -->
<g id="edge8" class="edge">
<title>Node1&#45;&gt;Node9</title>
<path fill="none" stroke="midnightblue" d="M286.57,-123.49C312.83,-113.66 348.48,-100 379.5,-87 380.87,-86.43 382.27,-85.83 383.68,-85.22"/>
<polygon fill="midnightblue" stroke="midnightblue" points="385.24,-88.36 392.97,-81.12 382.4,-81.96 385.24,-88.36"/>
</g>
<!-- Node3 -->
<g id="node3" class="node">
<title>Node3</title>
<g id="a_node3"><a xlink:title=" ">
<polygon fill="none" stroke="#bfbfbf" points="0,-0.5 0,-19.5 53,-19.5 53,-0.5 0,-0.5"/>
<text text-anchor="middle" x="26.5" y="-7.5" font-family="Helvetica,sans-Serif" font-size="10.00">gu_util.h</text>
</a>
</g>
</g>
<!-- Node2&#45;&gt;Node3 -->
<g id="edge2" class="edge">
<title>Node2&#45;&gt;Node3</title>
<path fill="none" stroke="midnightblue" d="M52.44,-56.4C47.65,-48.02 41.54,-37.33 36.46,-28.42"/>
<polygon fill="midnightblue" stroke="midnightblue" points="39.45,-26.6 31.45,-19.66 33.37,-30.08 39.45,-26.6"/>
</g>
<!-- Node4 -->
<g id="node4" class="node">
<title>Node4</title>
<g id="a_node4"><a xlink:title=" ">
<polygon fill="none" stroke="#bfbfbf" points="71.5,-0.5 71.5,-19.5 119.5,-19.5 119.5,-0.5 71.5,-0.5"/>
<text text-anchor="middle" x="95.5" y="-7.5" font-family="Helvetica,sans-Serif" font-size="10.00">stdint.h</text>
</a>
</g>
</g>
<!-- Node2&#45;&gt;Node4 -->
<g id="edge3" class="edge">
<title>Node2&#45;&gt;Node4</title>
<path fill="none" stroke="midnightblue" d="M68.79,-56.4C73.72,-48.02 80.01,-37.33 85.25,-28.42"/>
<polygon fill="midnightblue" stroke="midnightblue" points="88.35,-30.05 90.41,-19.66 82.32,-26.5 88.35,-30.05"/>
</g>
</g>
</svg>
