<?xml version="1.0" encoding="UTF-8" standalone="no"?>
<!DOCTYPE svg PUBLIC "-//W3C//DTD SVG 1.1//EN"
 "http://www.w3.org/Graphics/SVG/1.1/DTD/svg11.dtd">
<!-- Generated by graphviz version 2.49.0 (20210830.1337)
 -->
<!-- Title: typeClassDefs/wb_fsm_state_status.h Pages: 1 -->
<svg width="652pt" height="419pt"
 viewBox="0.00 0.00 652.36 419.00" xmlns="http://www.w3.org/2000/svg" xmlns:xlink="http://www.w3.org/1999/xlink">
<g id="graph0" class="graph" transform="scale(1 1) rotate(0) translate(4 415)">
<title>typeClassDefs/wb_fsm_state_status.h</title>
<!-- Node1 -->
<g id="node1" class="node">
<title>Node1</title>
<g id="a_node1"><a xlink:title=" ">
<polygon fill="#bfbfbf" stroke="black" points="140,-380.5 140,-410.5 257,-410.5 257,-380.5 140,-380.5"/>
<text text-anchor="start" x="148" y="-398.5" font-family="Helvetica,sans-Serif" font-size="10.00">typeClassDefs/wb_fsm</text>
<text text-anchor="middle" x="198.5" y="-387.5" font-family="Helvetica,sans-Serif" font-size="10.00">_state_status.h</text>
</a>
</g>
</g>
<!-- Node2 -->
<g id="node2" class="node">
<title>Node2</title>
<g id="a_node2"><a xlink:href="_f_s_m_control_status_8hpp.html" target="_top" xlink:title=" ">
<polygon fill="none" stroke="black" points="131.5,-313.5 131.5,-343.5 265.5,-343.5 265.5,-313.5 131.5,-313.5"/>
<text text-anchor="start" x="139.5" y="-331.5" font-family="Helvetica,sans-Serif" font-size="10.00">typeClassDefs/FSMControl</text>
<text text-anchor="middle" x="198.5" y="-320.5" font-family="Helvetica,sans-Serif" font-size="10.00">Status.hpp</text>
</a>
</g>
</g>
<!-- Node1&#45;&gt;Node2 -->
<g id="edge1" class="edge">
<title>Node1&#45;&gt;Node2</title>
<path fill="none" stroke="midnightblue" d="M198.5,-370.11C198.5,-361.15 198.5,-351.32 198.5,-343.58"/>
<polygon fill="midnightblue" stroke="midnightblue" points="195,-370.4 198.5,-380.4 202,-370.4 195,-370.4"/>
</g>
<!-- Node3 -->
<g id="node3" class="node">
<title>Node3</title>
<g id="a_node3"><a xlink:href="guwhiteboardposter_8h.html" target="_top" xlink:title=" ">
<polygon fill="none" stroke="black" points="18,-134.5 18,-153.5 127,-153.5 127,-134.5 18,-134.5"/>
<text text-anchor="middle" x="72.5" y="-141.5" font-family="Helvetica,sans-Serif" font-size="10.00">guwhiteboardposter.h</text>
</a>
</g>
</g>
<!-- Node2&#45;&gt;Node3 -->
<g id="edge2" class="edge">
<title>Node2&#45;&gt;Node3</title>
<path fill="none" stroke="midnightblue" d="M170.26,-307.02C143.38,-285.89 104.08,-250.39 83.5,-210 74.05,-191.44 72.47,-166.42 72.36,-153.5"/>
<polygon fill="midnightblue" stroke="midnightblue" points="168.45,-310.04 178.51,-313.36 172.71,-304.49 168.45,-310.04"/>
</g>
<!-- Node9 -->
<g id="node9" class="node">
<title>Node9</title>
<g id="a_node9"><a xlink:href="_f_s_m_control_status_8h.html" target="_top" xlink:title=" ">
<polygon fill="none" stroke="black" points="265.5,-246.5 265.5,-276.5 399.5,-276.5 399.5,-246.5 265.5,-246.5"/>
<text text-anchor="start" x="273.5" y="-264.5" font-family="Helvetica,sans-Serif" font-size="10.00">typeClassDefs/FSMControl</text>
<text text-anchor="middle" x="332.5" y="-253.5" font-family="Helvetica,sans-Serif" font-size="10.00">Status.h</text>
</a>
</g>
</g>
<!-- Node2&#45;&gt;Node9 -->
<g id="edge8" class="edge">
<title>Node2&#45;&gt;Node9</title>
<path fill="none" stroke="midnightblue" d="M236.65,-308.99C257.89,-298.69 283.91,-286.07 303.48,-276.58"/>
<polygon fill="midnightblue" stroke="midnightblue" points="235.05,-305.88 227.58,-313.4 238.1,-312.18 235.05,-305.88"/>
</g>
<!-- Node4 -->
<g id="node4" class="node">
<title>Node4</title>
<g id="a_node4"><a xlink:href="_simple_whiteboard_test_8h.html" target="_top" xlink:title=" ">
<polygon fill="none" stroke="black" points="282,-67.5 282,-97.5 407,-97.5 407,-67.5 282,-67.5"/>
<text text-anchor="start" x="290" y="-85.5" font-family="Helvetica,sans-Serif" font-size="10.00">SimpleWhiteboardTest</text>
<text text-anchor="middle" x="344.5" y="-74.5" font-family="Helvetica,sans-Serif" font-size="10.00">/SimpleWhiteboardTest.h</text>
</a>
</g>
</g>
<!-- Node3&#45;&gt;Node4 -->
<g id="edge3" class="edge">
<title>Node3&#45;&gt;Node4</title>
<path fill="none" stroke="midnightblue" d="M121.27,-132.33C166.2,-122.5 233.12,-107.87 281.96,-97.18"/>
<polygon fill="midnightblue" stroke="midnightblue" points="120.49,-128.92 111.47,-134.48 121.99,-135.76 120.49,-128.92"/>
</g>
<!-- Node6 -->
<g id="node6" class="node">
<title>Node6</title>
<g id="a_node6"><a xlink:href="guwhiteboardgetter_8h.html" target="_top" xlink:title=" ">
<polygon fill="none" stroke="black" points="5,-73 5,-92 112,-92 112,-73 5,-73"/>
<text text-anchor="middle" x="58.5" y="-80" font-family="Helvetica,sans-Serif" font-size="10.00">guwhiteboardgetter.h</text>
</a>
</g>
</g>
<!-- Node3&#45;&gt;Node6 -->
<g id="edge5" class="edge">
<title>Node3&#45;&gt;Node6</title>
<path fill="none" stroke="midnightblue" d="M68.18,-124.66C65.62,-113.77 62.5,-100.49 60.5,-92.01"/>
<polygon fill="midnightblue" stroke="midnightblue" points="64.8,-125.54 70.49,-134.48 71.61,-123.94 64.8,-125.54"/>
</g>
<!-- Node8 -->
<g id="node8" class="node">
<title>Node8</title>
<g id="a_node8"><a xlink:href="guwhiteboardposter_8cpp.html" target="_top" xlink:title=" ">
<polygon fill="none" stroke="black" points="130,-73 130,-92 249,-92 249,-73 130,-73"/>
<text text-anchor="middle" x="189.5" y="-80" font-family="Helvetica,sans-Serif" font-size="10.00">guwhiteboardposter.cpp</text>
</a>
</g>
</g>
<!-- Node3&#45;&gt;Node8 -->
<g id="edge7" class="edge">
<title>Node3&#45;&gt;Node8</title>
<path fill="none" stroke="midnightblue" d="M98.33,-129.87C121,-118.33 153.32,-101.9 172.77,-92.01"/>
<polygon fill="midnightblue" stroke="midnightblue" points="96.59,-126.82 89.26,-134.48 99.76,-133.06 96.59,-126.82"/>
</g>
<!-- Node5 -->
<g id="node5" class="node">
<title>Node5</title>
<g id="a_node5"><a xlink:href="_simple_whiteboard_test_8mm.html" target="_top" xlink:title=" ">
<polygon fill="none" stroke="black" points="438,-0.5 438,-30.5 575,-30.5 575,-0.5 438,-0.5"/>
<text text-anchor="start" x="446" y="-18.5" font-family="Helvetica,sans-Serif" font-size="10.00">SimpleWhiteboardTest</text>
<text text-anchor="middle" x="506.5" y="-7.5" font-family="Helvetica,sans-Serif" font-size="10.00">/SimpleWhiteboardTest.mm</text>
</a>
</g>
</g>
<!-- Node4&#45;&gt;Node5 -->
<g id="edge4" class="edge">
<title>Node4&#45;&gt;Node5</title>
<path fill="none" stroke="midnightblue" d="M389.25,-63.54C415.17,-53.14 447.34,-40.24 471.42,-30.58"/>
<polygon fill="midnightblue" stroke="midnightblue" points="387.63,-60.42 379.65,-67.4 390.24,-66.92 387.63,-60.42"/>
</g>
<!-- Node7 -->
<g id="node7" class="node">
<title>Node7</title>
<g id="a_node7"><a xlink:href="guwhiteboardgetter_8cpp.html" target="_top" xlink:title=" ">
<polygon fill="none" stroke="black" points="0,-6 0,-25 117,-25 117,-6 0,-6"/>
<text text-anchor="middle" x="58.5" y="-13" font-family="Helvetica,sans-Serif" font-size="10.00">guwhiteboardgetter.cpp</text>
</a>
</g>
</g>
<!-- Node6&#45;&gt;Node7 -->
<g id="edge6" class="edge">
<title>Node6&#45;&gt;Node7</title>
<path fill="none" stroke="midnightblue" d="M58.5,-62.54C58.5,-50.17 58.5,-34.62 58.5,-25.13"/>
<polygon fill="midnightblue" stroke="midnightblue" points="55,-62.73 58.5,-72.73 62,-62.73 55,-62.73"/>
</g>
<!-- Node9&#45;&gt;Node5 -->
<g id="edge9" class="edge">
<title>Node9&#45;&gt;Node5</title>
<path fill="none" stroke="midnightblue" d="M410.05,-256.21C478.68,-250.6 571.43,-237.95 594.5,-210 613.49,-187 699.35,-253.45 589.5,-67 579.74,-50.43 562.21,-38.61 545.77,-30.58"/>
<polygon fill="midnightblue" stroke="midnightblue" points="409.39,-252.75 399.69,-257.02 409.93,-259.73 409.39,-252.75"/>
</g>
<!-- Node10 -->
<g id="node10" class="node">
<title>Node10</title>
<g id="a_node10"><a xlink:href="_f_s_m_names_8hpp.html" target="_top" xlink:title=" ">
<polygon fill="none" stroke="black" points="256,-190.5 256,-209.5 409,-209.5 409,-190.5 256,-190.5"/>
<text text-anchor="middle" x="332.5" y="-197.5" font-family="Helvetica,sans-Serif" font-size="10.00">typeClassDefs/FSMNames.hpp</text>
</a>
</g>
</g>
<!-- Node9&#45;&gt;Node10 -->
<g id="edge10" class="edge">
<title>Node9&#45;&gt;Node10</title>
<path fill="none" stroke="midnightblue" d="M332.5,-236.29C332.5,-226.86 332.5,-216.65 332.5,-209.66"/>
<polygon fill="midnightblue" stroke="midnightblue" points="329,-236.4 332.5,-246.4 336,-236.4 329,-236.4"/>
</g>
<!-- Node12 -->
<g id="node12" class="node">
<title>Node12</title>
<g id="a_node12"><a xlink:href="_f_s_m_state_8hpp.html" target="_top" xlink:title=" ">
<polygon fill="none" stroke="black" points="93,-190.5 93,-209.5 238,-209.5 238,-190.5 93,-190.5"/>
<text text-anchor="middle" x="165.5" y="-197.5" font-family="Helvetica,sans-Serif" font-size="10.00">typeClassDefs/FSMState.hpp</text>
</a>
</g>
</g>
<!-- Node9&#45;&gt;Node12 -->
<g id="edge13" class="edge">
<title>Node9&#45;&gt;Node12</title>
<path fill="none" stroke="midnightblue" d="M283.22,-242.94C252.46,-231.98 214.19,-218.35 189.8,-209.66"/>
<polygon fill="midnightblue" stroke="midnightblue" points="282.33,-246.34 292.92,-246.4 284.68,-239.75 282.33,-246.34"/>
</g>
<!-- Node14 -->
<g id="node14" class="node">
<title>Node14</title>
<g id="a_node14"><a xlink:href="_f_s_m___control_8hpp.html" target="_top" xlink:title=" ">
<polygon fill="none" stroke="black" points="427.5,-190.5 427.5,-209.5 585.5,-209.5 585.5,-190.5 427.5,-190.5"/>
<text text-anchor="middle" x="506.5" y="-197.5" font-family="Helvetica,sans-Serif" font-size="10.00">typeClassDefs/FSM_Control.hpp</text>
</a>
</g>
</g>
<!-- Node9&#45;&gt;Node14 -->
<g id="edge16" class="edge">
<title>Node9&#45;&gt;Node14</title>
<path fill="none" stroke="midnightblue" d="M383.46,-243.08C415.69,-232.05 455.93,-218.29 481.44,-209.57"/>
<polygon fill="midnightblue" stroke="midnightblue" points="382.07,-239.85 373.74,-246.4 384.33,-246.48 382.07,-239.85"/>
</g>
<!-- Node10&#45;&gt;Node3 -->
<g id="edge11" class="edge">
<title>Node10&#45;&gt;Node3</title>
<path fill="none" stroke="midnightblue" d="M281.51,-188.41C232.37,-178.2 158.97,-162.96 113.51,-153.52"/>
<polygon fill="midnightblue" stroke="midnightblue" points="280.8,-191.84 291.3,-190.44 282.22,-184.98 280.8,-191.84"/>
</g>
<!-- Node11 -->
<g id="node11" class="node">
<title>Node11</title>
<g id="a_node11"><a xlink:href="_f_s_m_names_8h.html" target="_top" xlink:title=" ">
<polygon fill="none" stroke="black" points="298,-134.5 298,-153.5 441,-153.5 441,-134.5 298,-134.5"/>
<text text-anchor="middle" x="369.5" y="-141.5" font-family="Helvetica,sans-Serif" font-size="10.00">typeClassDefs/FSMNames.h</text>
</a>
</g>
</g>
<!-- Node10&#45;&gt;Node11 -->
<g id="edge12" class="edge">
<title>Node10&#45;&gt;Node11</title>
<path fill="none" stroke="midnightblue" d="M344.45,-181.57C350.81,-172.27 358.37,-161.25 363.5,-153.75"/>
<polygon fill="midnightblue" stroke="midnightblue" points="341.37,-179.86 338.61,-190.08 347.15,-183.81 341.37,-179.86"/>
</g>
<!-- Node12&#45;&gt;Node3 -->
<g id="edge14" class="edge">
<title>Node12&#45;&gt;Node3</title>
<path fill="none" stroke="midnightblue" d="M141.69,-185.18C124.58,-175.24 102.03,-162.15 87.4,-153.65"/>
<polygon fill="midnightblue" stroke="midnightblue" points="140.15,-188.33 150.56,-190.32 143.67,-182.28 140.15,-188.33"/>
</g>
<!-- Node13 -->
<g id="node13" class="node">
<title>Node13</title>
<g id="a_node13"><a xlink:href="_f_s_m_state_8h.html" target="_top" xlink:title=" ">
<polygon fill="none" stroke="black" points="145.5,-134.5 145.5,-153.5 279.5,-153.5 279.5,-134.5 145.5,-134.5"/>
<text text-anchor="middle" x="212.5" y="-141.5" font-family="Helvetica,sans-Serif" font-size="10.00">typeClassDefs/FSMState.h</text>
</a>
</g>
</g>
<!-- Node12&#45;&gt;Node13 -->
<g id="edge15" class="edge">
<title>Node12&#45;&gt;Node13</title>
<path fill="none" stroke="midnightblue" d="M179.92,-182.43C188.16,-172.97 198.15,-161.48 204.88,-153.75"/>
<polygon fill="midnightblue" stroke="midnightblue" points="177.19,-180.24 173.26,-190.08 182.47,-184.84 177.19,-180.24"/>
</g>
<!-- Node15 -->
<g id="node15" class="node">
<title>Node15</title>
<g id="a_node15"><a xlink:href="_f_s_m___control_8h.html" target="_top" xlink:title=" ">
<polygon fill="none" stroke="black" points="433,-73 433,-92 580,-92 580,-73 433,-73"/>
<text text-anchor="middle" x="506.5" y="-80" font-family="Helvetica,sans-Serif" font-size="10.00">typeClassDefs/FSM_Control.h</text>
</a>
</g>
</g>
<!-- Node14&#45;&gt;Node15 -->
<g id="edge17" class="edge">
<title>Node14&#45;&gt;Node15</title>
<path fill="none" stroke="midnightblue" d="M506.5,-180.16C506.5,-154.87 506.5,-110.94 506.5,-92.28"/>
<polygon fill="midnightblue" stroke="midnightblue" points="503,-180.32 506.5,-190.32 510,-180.32 503,-180.32"/>
</g>
<!-- Node15&#45;&gt;Node5 -->
<g id="edge18" class="edge">
<title>Node15&#45;&gt;Node5</title>
<path fill="none" stroke="midnightblue" d="M506.5,-62.41C506.5,-52.22 506.5,-39.9 506.5,-30.59"/>
<polygon fill="midnightblue" stroke="midnightblue" points="503,-62.73 506.5,-72.73 510,-62.73 503,-62.73"/>
</g>
</g>
</svg>
