<?xml version="1.0" encoding="UTF-8" standalone="no"?>
<!DOCTYPE svg PUBLIC "-//W3C//DTD SVG 1.1//EN"
 "http://www.w3.org/Graphics/SVG/1.1/DTD/svg11.dtd">
<!-- Generated by graphviz version 2.49.0 (20210830.1337)
 -->
<!-- Title: typeClassDefs/wb_vision_detection_feature_array.c Pages: 1 -->
<svg width="495pt" height="285pt"
 viewBox="0.00 0.00 494.50 285.00" xmlns="http://www.w3.org/2000/svg" xmlns:xlink="http://www.w3.org/1999/xlink">
<g id="graph0" class="graph" transform="scale(1 1) rotate(0) translate(4 281)">
<title>typeClassDefs/wb_vision_detection_feature_array.c</title>
<!-- Node1 -->
<g id="node1" class="node">
<title>Node1</title>
<g id="a_node1"><a xlink:title=" ">
<polygon fill="#bfbfbf" stroke="black" points="234.5,-246.5 234.5,-276.5 365.5,-276.5 365.5,-246.5 234.5,-246.5"/>
<text text-anchor="start" x="242.5" y="-264.5" font-family="Helvetica,sans-Serif" font-size="10.00">typeClassDefs/wb_vision</text>
<text text-anchor="middle" x="300" y="-253.5" font-family="Helvetica,sans-Serif" font-size="10.00">_detection_feature_array.c</text>
</a>
</g>
</g>
<!-- Node2 -->
<g id="node2" class="node">
<title>Node2</title>
<g id="a_node2"><a xlink:href="wb__vision__detection__feature__array_8h.html" target="_top" xlink:title=" ">
<polygon fill="none" stroke="black" points="56.5,-179.5 56.5,-209.5 161.5,-209.5 161.5,-179.5 56.5,-179.5"/>
<text text-anchor="start" x="64.5" y="-197.5" font-family="Helvetica,sans-Serif" font-size="10.00">wb_vision_detection</text>
<text text-anchor="middle" x="109" y="-186.5" font-family="Helvetica,sans-Serif" font-size="10.00">_feature_array.h</text>
</a>
</g>
</g>
<!-- Node1&#45;&gt;Node2 -->
<g id="edge1" class="edge">
<title>Node1&#45;&gt;Node2</title>
<path fill="none" stroke="midnightblue" d="M258.56,-246.4C229.65,-236.56 190.89,-223.37 160.07,-212.88"/>
<polygon fill="midnightblue" stroke="midnightblue" points="160.96,-209.48 150.36,-209.58 158.7,-216.11 160.96,-209.48"/>
</g>
<!-- Node7 -->
<g id="node7" class="node">
<title>Node7</title>
<g id="a_node7"><a xlink:title=" ">
<polygon fill="none" stroke="#bfbfbf" points="179.5,-185 179.5,-204 224.5,-204 224.5,-185 179.5,-185"/>
<text text-anchor="middle" x="202" y="-192" font-family="Helvetica,sans-Serif" font-size="10.00">stdio.h</text>
</a>
</g>
</g>
<!-- Node1&#45;&gt;Node7 -->
<g id="edge10" class="edge">
<title>Node1&#45;&gt;Node7</title>
<path fill="none" stroke="midnightblue" d="M278.74,-246.4C262.3,-235.5 239.66,-220.48 223.23,-209.58"/>
<polygon fill="midnightblue" stroke="midnightblue" points="225.09,-206.62 214.83,-204.01 221.22,-212.45 225.09,-206.62"/>
</g>
<!-- Node8 -->
<g id="node8" class="node">
<title>Node8</title>
<g id="a_node8"><a xlink:title=" ">
<polygon fill="none" stroke="#bfbfbf" points="243,-185 243,-204 291,-204 291,-185 243,-185"/>
<text text-anchor="middle" x="267" y="-192" font-family="Helvetica,sans-Serif" font-size="10.00">string.h</text>
</a>
</g>
</g>
<!-- Node1&#45;&gt;Node8 -->
<g id="edge11" class="edge">
<title>Node1&#45;&gt;Node8</title>
<path fill="none" stroke="midnightblue" d="M292.84,-246.4C287.9,-236.66 281.29,-223.65 275.99,-213.21"/>
<polygon fill="midnightblue" stroke="midnightblue" points="279.06,-211.53 271.41,-204.19 272.82,-214.7 279.06,-211.53"/>
</g>
<!-- Node9 -->
<g id="node9" class="node">
<title>Node9</title>
<g id="a_node9"><a xlink:title=" ">
<polygon fill="none" stroke="#bfbfbf" points="309.5,-185 309.5,-204 356.5,-204 356.5,-185 309.5,-185"/>
<text text-anchor="middle" x="333" y="-192" font-family="Helvetica,sans-Serif" font-size="10.00">stdlib.h</text>
</a>
</g>
</g>
<!-- Node1&#45;&gt;Node9 -->
<g id="edge12" class="edge">
<title>Node1&#45;&gt;Node9</title>
<path fill="none" stroke="midnightblue" d="M307.16,-246.4C312.1,-236.66 318.71,-223.65 324.01,-213.21"/>
<polygon fill="midnightblue" stroke="midnightblue" points="327.18,-214.7 328.59,-204.19 320.94,-211.53 327.18,-214.7"/>
</g>
<!-- Node10 -->
<g id="node10" class="node">
<title>Node10</title>
<g id="a_node10"><a xlink:title=" ">
<polygon fill="none" stroke="#bfbfbf" points="374.5,-185 374.5,-204 421.5,-204 421.5,-185 374.5,-185"/>
<text text-anchor="middle" x="398" y="-192" font-family="Helvetica,sans-Serif" font-size="10.00">ctype.h</text>
</a>
</g>
</g>
<!-- Node1&#45;&gt;Node10 -->
<g id="edge13" class="edge">
<title>Node1&#45;&gt;Node10</title>
<path fill="none" stroke="midnightblue" d="M321.26,-246.4C337.7,-235.5 360.34,-220.48 376.77,-209.58"/>
<polygon fill="midnightblue" stroke="midnightblue" points="378.78,-212.45 385.17,-204.01 374.91,-206.62 378.78,-212.45"/>
</g>
<!-- Node11 -->
<g id="node11" class="node">
<title>Node11</title>
<g id="a_node11"><a xlink:title=" ">
<polygon fill="none" stroke="#bfbfbf" points="439.5,-185 439.5,-204 486.5,-204 486.5,-185 439.5,-185"/>
<text text-anchor="middle" x="463" y="-192" font-family="Helvetica,sans-Serif" font-size="10.00">limits.h</text>
</a>
</g>
</g>
<!-- Node1&#45;&gt;Node11 -->
<g id="edge14" class="edge">
<title>Node1&#45;&gt;Node11</title>
<path fill="none" stroke="midnightblue" d="M338.07,-246.49C364.33,-236.66 399.98,-223 431,-210 432.37,-209.43 433.77,-208.83 435.18,-208.22"/>
<polygon fill="midnightblue" stroke="midnightblue" points="436.74,-211.36 444.47,-204.12 433.9,-204.96 436.74,-211.36"/>
</g>
<!-- Node3 -->
<g id="node3" class="node">
<title>Node3</title>
<g id="a_node3"><a xlink:title=" ">
<polygon fill="none" stroke="#bfbfbf" points="167.5,-0.5 167.5,-19.5 220.5,-19.5 220.5,-0.5 167.5,-0.5"/>
<text text-anchor="middle" x="194" y="-7.5" font-family="Helvetica,sans-Serif" font-size="10.00">gu_util.h</text>
</a>
</g>
</g>
<!-- Node2&#45;&gt;Node3 -->
<g id="edge2" class="edge">
<title>Node2&#45;&gt;Node3</title>
<path fill="none" stroke="midnightblue" d="M132.15,-179.44C145.19,-170.47 160.85,-157.76 171,-143 194.75,-108.45 196.46,-57.11 195.39,-29.76"/>
<polygon fill="midnightblue" stroke="midnightblue" points="198.88,-29.41 194.82,-19.62 191.89,-29.8 198.88,-29.41"/>
</g>
<!-- Node4 -->
<g id="node4" class="node">
<title>Node4</title>
<g id="a_node4"><a xlink:title=" ">
<polygon fill="none" stroke="#bfbfbf" points="0,-0.5 0,-19.5 48,-19.5 48,-0.5 0,-0.5"/>
<text text-anchor="middle" x="24" y="-7.5" font-family="Helvetica,sans-Serif" font-size="10.00">stdint.h</text>
</a>
</g>
</g>
<!-- Node2&#45;&gt;Node4 -->
<g id="edge3" class="edge">
<title>Node2&#45;&gt;Node4</title>
<path fill="none" stroke="midnightblue" d="M85.17,-179.49C72.06,-170.61 56.56,-157.98 47,-143 24.45,-107.65 22.25,-56.64 22.93,-29.55"/>
<polygon fill="midnightblue" stroke="midnightblue" points="26.42,-29.65 23.34,-19.52 19.43,-29.36 26.42,-29.65"/>
</g>
<!-- Node5 -->
<g id="node5" class="node">
<title>Node5</title>
<g id="a_node5"><a xlink:href="wb__vision__detection__feature_8h.html" target="_top" xlink:title=" ">
<polygon fill="none" stroke="black" points="56.5,-112.5 56.5,-142.5 161.5,-142.5 161.5,-112.5 56.5,-112.5"/>
<text text-anchor="start" x="64.5" y="-130.5" font-family="Helvetica,sans-Serif" font-size="10.00">wb_vision_detection</text>
<text text-anchor="middle" x="109" y="-119.5" font-family="Helvetica,sans-Serif" font-size="10.00">_feature.h</text>
</a>
</g>
</g>
<!-- Node2&#45;&gt;Node5 -->
<g id="edge4" class="edge">
<title>Node2&#45;&gt;Node5</title>
<path fill="none" stroke="midnightblue" d="M109,-179.4C109,-171.64 109,-161.81 109,-152.86"/>
<polygon fill="midnightblue" stroke="midnightblue" points="112.5,-152.58 109,-142.58 105.5,-152.58 112.5,-152.58"/>
</g>
<!-- Node5&#45;&gt;Node3 -->
<g id="edge5" class="edge">
<title>Node5&#45;&gt;Node3</title>
<path fill="none" stroke="midnightblue" d="M134.49,-112.47C148.31,-103.66 164.64,-91.11 175,-76 184.45,-62.21 189.27,-43.69 191.68,-29.94"/>
<polygon fill="midnightblue" stroke="midnightblue" points="195.19,-30.13 193.19,-19.73 188.26,-29.11 195.19,-30.13"/>
</g>
<!-- Node5&#45;&gt;Node4 -->
<g id="edge6" class="edge">
<title>Node5&#45;&gt;Node4</title>
<path fill="none" stroke="midnightblue" d="M83.51,-112.47C69.69,-103.66 53.36,-91.11 43,-76 33.55,-62.21 28.73,-43.69 26.32,-29.94"/>
<polygon fill="midnightblue" stroke="midnightblue" points="29.74,-29.11 24.81,-19.73 22.81,-30.13 29.74,-29.11"/>
</g>
<!-- Node6 -->
<g id="node6" class="node">
<title>Node6</title>
<g id="a_node6"><a xlink:href="wb__polar__coordinate_8h.html" target="_top" xlink:title=" ">
<polygon fill="none" stroke="black" points="52.5,-56.5 52.5,-75.5 165.5,-75.5 165.5,-56.5 52.5,-56.5"/>
<text text-anchor="middle" x="109" y="-63.5" font-family="Helvetica,sans-Serif" font-size="10.00">wb_polar_coordinate.h</text>
</a>
</g>
</g>
<!-- Node5&#45;&gt;Node6 -->
<g id="edge7" class="edge">
<title>Node5&#45;&gt;Node6</title>
<path fill="none" stroke="midnightblue" d="M109,-112.4C109,-104.47 109,-94.46 109,-85.86"/>
<polygon fill="midnightblue" stroke="midnightblue" points="112.5,-85.66 109,-75.66 105.5,-85.66 112.5,-85.66"/>
</g>
<!-- Node6&#45;&gt;Node3 -->
<g id="edge8" class="edge">
<title>Node6&#45;&gt;Node3</title>
<path fill="none" stroke="midnightblue" d="M122.66,-56.32C135.92,-47.9 156.27,-34.97 171.85,-25.07"/>
<polygon fill="midnightblue" stroke="midnightblue" points="173.81,-27.97 180.38,-19.65 170.06,-22.06 173.81,-27.97"/>
</g>
<!-- Node6&#45;&gt;Node4 -->
<g id="edge9" class="edge">
<title>Node6&#45;&gt;Node4</title>
<path fill="none" stroke="midnightblue" d="M95.34,-56.32C82.08,-47.9 61.73,-34.97 46.15,-25.07"/>
<polygon fill="midnightblue" stroke="midnightblue" points="47.94,-22.06 37.62,-19.65 44.19,-27.97 47.94,-22.06"/>
</g>
</g>
</svg>
