<?xml version="1.0" encoding="UTF-8" standalone="no"?>
<!DOCTYPE svg PUBLIC "-//W3C//DTD SVG 1.1//EN"
 "http://www.w3.org/Graphics/SVG/1.1/DTD/svg11.dtd">
<!-- Generated by graphviz version 2.49.0 (20210830.1337)
 -->
<!-- Title: typeClassDefs/wb_mission_priority_for_obstacles.c Pages: 1 -->
<svg width="445pt" height="162pt"
 viewBox="0.00 0.00 445.00 162.00" xmlns="http://www.w3.org/2000/svg" xmlns:xlink="http://www.w3.org/1999/xlink">
<g id="graph0" class="graph" transform="scale(1 1) rotate(0) translate(4 158)">
<title>typeClassDefs/wb_mission_priority_for_obstacles.c</title>
<!-- Node1 -->
<g id="node1" class="node">
<title>Node1</title>
<g id="a_node1"><a xlink:title=" ">
<polygon fill="#bfbfbf" stroke="black" points="183.5,-123.5 183.5,-153.5 317.5,-153.5 317.5,-123.5 183.5,-123.5"/>
<text text-anchor="start" x="191.5" y="-141.5" font-family="Helvetica,sans-Serif" font-size="10.00">typeClassDefs/wb_mission</text>
<text text-anchor="middle" x="250.5" y="-130.5" font-family="Helvetica,sans-Serif" font-size="10.00">_priority_for_obstacles.c</text>
</a>
</g>
</g>
<!-- Node2 -->
<g id="node2" class="node">
<title>Node2</title>
<g id="a_node2"><a xlink:href="wb__mission__priority__for__obstacles_8h.html" target="_top" xlink:title=" ">
<polygon fill="none" stroke="black" points="9.5,-56.5 9.5,-86.5 111.5,-86.5 111.5,-56.5 9.5,-56.5"/>
<text text-anchor="start" x="17.5" y="-74.5" font-family="Helvetica,sans-Serif" font-size="10.00">wb_mission_priority</text>
<text text-anchor="middle" x="60.5" y="-63.5" font-family="Helvetica,sans-Serif" font-size="10.00">_for_obstacles.h</text>
</a>
</g>
</g>
<!-- Node1&#45;&gt;Node2 -->
<g id="edge1" class="edge">
<title>Node1&#45;&gt;Node2</title>
<path fill="none" stroke="midnightblue" d="M209.27,-123.4C180.52,-113.56 141.96,-100.37 111.3,-89.88"/>
<polygon fill="midnightblue" stroke="midnightblue" points="112.24,-86.5 101.65,-86.58 109.98,-93.13 112.24,-86.5"/>
</g>
<!-- Node5 -->
<g id="node5" class="node">
<title>Node5</title>
<g id="a_node5"><a xlink:title=" ">
<polygon fill="none" stroke="#bfbfbf" points="130,-62 130,-81 175,-81 175,-62 130,-62"/>
<text text-anchor="middle" x="152.5" y="-69" font-family="Helvetica,sans-Serif" font-size="10.00">stdio.h</text>
</a>
</g>
</g>
<!-- Node1&#45;&gt;Node5 -->
<g id="edge4" class="edge">
<title>Node1&#45;&gt;Node5</title>
<path fill="none" stroke="midnightblue" d="M229.24,-123.4C212.8,-112.5 190.16,-97.48 173.73,-86.58"/>
<polygon fill="midnightblue" stroke="midnightblue" points="175.59,-83.62 165.33,-81.01 171.72,-89.45 175.59,-83.62"/>
</g>
<!-- Node6 -->
<g id="node6" class="node">
<title>Node6</title>
<g id="a_node6"><a xlink:title=" ">
<polygon fill="none" stroke="#bfbfbf" points="193.5,-62 193.5,-81 241.5,-81 241.5,-62 193.5,-62"/>
<text text-anchor="middle" x="217.5" y="-69" font-family="Helvetica,sans-Serif" font-size="10.00">string.h</text>
</a>
</g>
</g>
<!-- Node1&#45;&gt;Node6 -->
<g id="edge5" class="edge">
<title>Node1&#45;&gt;Node6</title>
<path fill="none" stroke="midnightblue" d="M243.34,-123.4C238.4,-113.66 231.79,-100.65 226.49,-90.21"/>
<polygon fill="midnightblue" stroke="midnightblue" points="229.56,-88.53 221.91,-81.19 223.32,-91.7 229.56,-88.53"/>
</g>
<!-- Node7 -->
<g id="node7" class="node">
<title>Node7</title>
<g id="a_node7"><a xlink:title=" ">
<polygon fill="none" stroke="#bfbfbf" points="260,-62 260,-81 307,-81 307,-62 260,-62"/>
<text text-anchor="middle" x="283.5" y="-69" font-family="Helvetica,sans-Serif" font-size="10.00">stdlib.h</text>
</a>
</g>
</g>
<!-- Node1&#45;&gt;Node7 -->
<g id="edge6" class="edge">
<title>Node1&#45;&gt;Node7</title>
<path fill="none" stroke="midnightblue" d="M257.66,-123.4C262.6,-113.66 269.21,-100.65 274.51,-90.21"/>
<polygon fill="midnightblue" stroke="midnightblue" points="277.68,-91.7 279.09,-81.19 271.44,-88.53 277.68,-91.7"/>
</g>
<!-- Node8 -->
<g id="node8" class="node">
<title>Node8</title>
<g id="a_node8"><a xlink:title=" ">
<polygon fill="none" stroke="#bfbfbf" points="325,-62 325,-81 372,-81 372,-62 325,-62"/>
<text text-anchor="middle" x="348.5" y="-69" font-family="Helvetica,sans-Serif" font-size="10.00">ctype.h</text>
</a>
</g>
</g>
<!-- Node1&#45;&gt;Node8 -->
<g id="edge7" class="edge">
<title>Node1&#45;&gt;Node8</title>
<path fill="none" stroke="midnightblue" d="M271.76,-123.4C288.2,-112.5 310.84,-97.48 327.27,-86.58"/>
<polygon fill="midnightblue" stroke="midnightblue" points="329.28,-89.45 335.67,-81.01 325.41,-83.62 329.28,-89.45"/>
</g>
<!-- Node9 -->
<g id="node9" class="node">
<title>Node9</title>
<g id="a_node9"><a xlink:title=" ">
<polygon fill="none" stroke="#bfbfbf" points="390,-62 390,-81 437,-81 437,-62 390,-62"/>
<text text-anchor="middle" x="413.5" y="-69" font-family="Helvetica,sans-Serif" font-size="10.00">limits.h</text>
</a>
</g>
</g>
<!-- Node1&#45;&gt;Node9 -->
<g id="edge8" class="edge">
<title>Node1&#45;&gt;Node9</title>
<path fill="none" stroke="midnightblue" d="M288.57,-123.49C314.83,-113.66 350.48,-100 381.5,-87 382.87,-86.43 384.27,-85.83 385.68,-85.22"/>
<polygon fill="midnightblue" stroke="midnightblue" points="387.24,-88.36 394.97,-81.12 384.4,-81.96 387.24,-88.36"/>
</g>
<!-- Node3 -->
<g id="node3" class="node">
<title>Node3</title>
<g id="a_node3"><a xlink:title=" ">
<polygon fill="none" stroke="#bfbfbf" points="0,-0.5 0,-19.5 53,-19.5 53,-0.5 0,-0.5"/>
<text text-anchor="middle" x="26.5" y="-7.5" font-family="Helvetica,sans-Serif" font-size="10.00">gu_util.h</text>
</a>
</g>
</g>
<!-- Node2&#45;&gt;Node3 -->
<g id="edge2" class="edge">
<title>Node2&#45;&gt;Node3</title>
<path fill="none" stroke="midnightblue" d="M52.44,-56.4C47.65,-48.02 41.54,-37.33 36.46,-28.42"/>
<polygon fill="midnightblue" stroke="midnightblue" points="39.45,-26.6 31.45,-19.66 33.37,-30.08 39.45,-26.6"/>
</g>
<!-- Node4 -->
<g id="node4" class="node">
<title>Node4</title>
<g id="a_node4"><a xlink:title=" ">
<polygon fill="none" stroke="#bfbfbf" points="71.5,-0.5 71.5,-19.5 119.5,-19.5 119.5,-0.5 71.5,-0.5"/>
<text text-anchor="middle" x="95.5" y="-7.5" font-family="Helvetica,sans-Serif" font-size="10.00">stdint.h</text>
</a>
</g>
</g>
<!-- Node2&#45;&gt;Node4 -->
<g id="edge3" class="edge">
<title>Node2&#45;&gt;Node4</title>
<path fill="none" stroke="midnightblue" d="M68.79,-56.4C73.72,-48.02 80.01,-37.33 85.25,-28.42"/>
<polygon fill="midnightblue" stroke="midnightblue" points="88.35,-30.05 90.41,-19.66 82.32,-26.5 88.35,-30.05"/>
</g>
</g>
</svg>
