<?xml version="1.0" encoding="UTF-8" standalone="no"?>
<!DOCTYPE svg PUBLIC "-//W3C//DTD SVG 1.1//EN"
 "http://www.w3.org/Graphics/SVG/1.1/DTD/svg11.dtd">
<!-- Generated by graphviz version 2.49.0 (20210830.1337)
 -->
<!-- Title: typeClassDefs/wb_sensors_sonar.h Pages: 1 -->
<svg width="691pt" height="307pt"
 viewBox="0.00 0.00 690.50 307.00" xmlns="http://www.w3.org/2000/svg" xmlns:xlink="http://www.w3.org/1999/xlink">
<g id="graph0" class="graph" transform="scale(1 1) rotate(0) translate(4 303)">
<title>typeClassDefs/wb_sensors_sonar.h</title>
<!-- Node1 -->
<g id="node1" class="node">
<title>Node1</title>
<g id="a_node1"><a xlink:title=" ">
<polygon fill="#bfbfbf" stroke="black" points="279,-268.5 279,-298.5 414,-298.5 414,-268.5 279,-268.5"/>
<text text-anchor="start" x="287" y="-286.5" font-family="Helvetica,sans-Serif" font-size="10.00">typeClassDefs/wb_sensors</text>
<text text-anchor="middle" x="346.5" y="-275.5" font-family="Helvetica,sans-Serif" font-size="10.00">_sonar.h</text>
</a>
</g>
</g>
<!-- Node2 -->
<g id="node2" class="node">
<title>Node2</title>
<g id="a_node2"><a xlink:href="guwhiteboard__c__types__manual__definitions_8h.html" target="_top" xlink:title=" ">
<polygon fill="none" stroke="black" points="214,-201.5 214,-231.5 327,-231.5 327,-201.5 214,-201.5"/>
<text text-anchor="start" x="222" y="-219.5" font-family="Helvetica,sans-Serif" font-size="10.00">guwhiteboard_c_types</text>
<text text-anchor="middle" x="270.5" y="-208.5" font-family="Helvetica,sans-Serif" font-size="10.00">_manual_definitions.h</text>
</a>
</g>
</g>
<!-- Node1&#45;&gt;Node2 -->
<g id="edge1" class="edge">
<title>Node1&#45;&gt;Node2</title>
<path fill="none" stroke="midnightblue" d="M322.39,-261.88C310.84,-252.01 297.31,-240.43 286.96,-231.58"/>
<polygon fill="midnightblue" stroke="midnightblue" points="320.13,-264.56 330.01,-268.4 324.68,-259.24 320.13,-264.56"/>
</g>
<!-- Node6 -->
<g id="node6" class="node">
<title>Node6</title>
<g id="a_node6"><a xlink:href="_s_e_n_s_o_r_s_sonar_sensors_8hpp.html" target="_top" xlink:title=" ">
<polygon fill="none" stroke="black" points="375.5,-201.5 375.5,-231.5 531.5,-231.5 531.5,-201.5 375.5,-201.5"/>
<text text-anchor="start" x="383.5" y="-219.5" font-family="Helvetica,sans-Serif" font-size="10.00">typeClassDefs/SENSORSSonar</text>
<text text-anchor="middle" x="453.5" y="-208.5" font-family="Helvetica,sans-Serif" font-size="10.00">Sensors.hpp</text>
</a>
</g>
</g>
<!-- Node1&#45;&gt;Node6 -->
<g id="edge5" class="edge">
<title>Node1&#45;&gt;Node6</title>
<path fill="none" stroke="midnightblue" d="M378.58,-263.02C395.23,-252.9 415.19,-240.77 430.33,-231.58"/>
<polygon fill="midnightblue" stroke="midnightblue" points="376.45,-260.21 369.72,-268.4 380.08,-266.2 376.45,-260.21"/>
</g>
<!-- Node3 -->
<g id="node3" class="node">
<title>Node3</title>
<g id="a_node3"><a xlink:href="guwhiteboard__c__types_8h.html" target="_top" xlink:title=" ">
<polygon fill="none" stroke="black" points="149,-140 149,-159 270,-159 270,-140 149,-140"/>
<text text-anchor="middle" x="209.5" y="-147" font-family="Helvetica,sans-Serif" font-size="10.00">guwhiteboard_c_types.h</text>
</a>
</g>
</g>
<!-- Node2&#45;&gt;Node3 -->
<g id="edge2" class="edge">
<title>Node2&#45;&gt;Node3</title>
<path fill="none" stroke="midnightblue" d="M250.32,-194C239.19,-182.13 225.97,-168.05 217.66,-159.19"/>
<polygon fill="midnightblue" stroke="midnightblue" points="247.87,-196.5 257.26,-201.4 252.97,-191.71 247.87,-196.5"/>
</g>
<!-- Node4 -->
<g id="node4" class="node">
<title>Node4</title>
<g id="a_node4"><a xlink:href="guwhiteboarddeserialiser_8c.html" target="_top" xlink:title=" ">
<polygon fill="none" stroke="black" points="0,-73 0,-92 131,-92 131,-73 0,-73"/>
<text text-anchor="middle" x="65.5" y="-80" font-family="Helvetica,sans-Serif" font-size="10.00">guwhiteboarddeserialiser.c</text>
</a>
</g>
</g>
<!-- Node3&#45;&gt;Node4 -->
<g id="edge3" class="edge">
<title>Node3&#45;&gt;Node4</title>
<path fill="none" stroke="midnightblue" d="M180.95,-135.61C152.43,-122.74 109.38,-103.31 84.7,-92.17"/>
<polygon fill="midnightblue" stroke="midnightblue" points="179.82,-138.94 190.38,-139.87 182.7,-132.56 179.82,-138.94"/>
</g>
<!-- Node5 -->
<g id="node5" class="node">
<title>Node5</title>
<g id="a_node5"><a xlink:href="guwhiteboardserialiser_8c.html" target="_top" xlink:title=" ">
<polygon fill="none" stroke="black" points="149,-73 149,-92 270,-92 270,-73 149,-73"/>
<text text-anchor="middle" x="209.5" y="-80" font-family="Helvetica,sans-Serif" font-size="10.00">guwhiteboardserialiser.c</text>
</a>
</g>
</g>
<!-- Node3&#45;&gt;Node5 -->
<g id="edge4" class="edge">
<title>Node3&#45;&gt;Node5</title>
<path fill="none" stroke="midnightblue" d="M209.5,-129.54C209.5,-117.17 209.5,-101.62 209.5,-92.13"/>
<polygon fill="midnightblue" stroke="midnightblue" points="206,-129.73 209.5,-139.73 213,-129.73 206,-129.73"/>
</g>
<!-- Node7 -->
<g id="node7" class="node">
<title>Node7</title>
<g id="a_node7"><a xlink:href="guwhiteboardposter_8h.html" target="_top" xlink:title=" ">
<polygon fill="none" stroke="black" points="399,-140 399,-159 508,-159 508,-140 399,-140"/>
<text text-anchor="middle" x="453.5" y="-147" font-family="Helvetica,sans-Serif" font-size="10.00">guwhiteboardposter.h</text>
</a>
</g>
</g>
<!-- Node6&#45;&gt;Node7 -->
<g id="edge6" class="edge">
<title>Node6&#45;&gt;Node7</title>
<path fill="none" stroke="midnightblue" d="M453.5,-191.25C453.5,-180.02 453.5,-167.38 453.5,-159.19"/>
<polygon fill="midnightblue" stroke="midnightblue" points="450,-191.4 453.5,-201.4 457,-191.4 450,-191.4"/>
</g>
<!-- Node13 -->
<g id="node13" class="node">
<title>Node13</title>
<g id="a_node13"><a xlink:href="_s_e_n_s_o_r_s_sonar_sensors_8h.html" target="_top" xlink:title=" ">
<polygon fill="none" stroke="black" points="526.5,-134.5 526.5,-164.5 682.5,-164.5 682.5,-134.5 526.5,-134.5"/>
<text text-anchor="start" x="534.5" y="-152.5" font-family="Helvetica,sans-Serif" font-size="10.00">typeClassDefs/SENSORSSonar</text>
<text text-anchor="middle" x="604.5" y="-141.5" font-family="Helvetica,sans-Serif" font-size="10.00">Sensors.h</text>
</a>
</g>
</g>
<!-- Node6&#45;&gt;Node13 -->
<g id="edge12" class="edge">
<title>Node6&#45;&gt;Node13</title>
<path fill="none" stroke="midnightblue" d="M495.53,-197.41C519.64,-187.03 549.45,-174.2 571.8,-164.58"/>
<polygon fill="midnightblue" stroke="midnightblue" points="494.07,-194.23 486.26,-201.4 496.83,-200.66 494.07,-194.23"/>
</g>
<!-- Node8 -->
<g id="node8" class="node">
<title>Node8</title>
<g id="a_node8"><a xlink:href="_simple_whiteboard_test_8h.html" target="_top" xlink:title=" ">
<polygon fill="none" stroke="black" points="288,-67.5 288,-97.5 413,-97.5 413,-67.5 288,-67.5"/>
<text text-anchor="start" x="296" y="-85.5" font-family="Helvetica,sans-Serif" font-size="10.00">SimpleWhiteboardTest</text>
<text text-anchor="middle" x="350.5" y="-74.5" font-family="Helvetica,sans-Serif" font-size="10.00">/SimpleWhiteboardTest.h</text>
</a>
</g>
</g>
<!-- Node7&#45;&gt;Node8 -->
<g id="edge7" class="edge">
<title>Node7&#45;&gt;Node8</title>
<path fill="none" stroke="midnightblue" d="M430.76,-134.15C413.53,-123.27 389.96,-108.4 372.83,-97.59"/>
<polygon fill="midnightblue" stroke="midnightblue" points="429.28,-137.36 439.61,-139.73 433.02,-131.44 429.28,-137.36"/>
</g>
<!-- Node10 -->
<g id="node10" class="node">
<title>Node10</title>
<g id="a_node10"><a xlink:href="guwhiteboardgetter_8h.html" target="_top" xlink:title=" ">
<polygon fill="none" stroke="black" points="431,-73 431,-92 538,-92 538,-73 431,-73"/>
<text text-anchor="middle" x="484.5" y="-80" font-family="Helvetica,sans-Serif" font-size="10.00">guwhiteboardgetter.h</text>
</a>
</g>
</g>
<!-- Node7&#45;&gt;Node10 -->
<g id="edge9" class="edge">
<title>Node7&#45;&gt;Node10</title>
<path fill="none" stroke="midnightblue" d="M462.01,-130.66C467.99,-118.13 475.72,-101.91 480.39,-92.13"/>
<polygon fill="midnightblue" stroke="midnightblue" points="458.83,-129.2 457.68,-139.73 465.14,-132.21 458.83,-129.2"/>
</g>
<!-- Node12 -->
<g id="node12" class="node">
<title>Node12</title>
<g id="a_node12"><a xlink:href="guwhiteboardposter_8cpp.html" target="_top" xlink:title=" ">
<polygon fill="none" stroke="black" points="556,-73 556,-92 675,-92 675,-73 556,-73"/>
<text text-anchor="middle" x="615.5" y="-80" font-family="Helvetica,sans-Serif" font-size="10.00">guwhiteboardposter.cpp</text>
</a>
</g>
</g>
<!-- Node7&#45;&gt;Node12 -->
<g id="edge11" class="edge">
<title>Node7&#45;&gt;Node12</title>
<path fill="none" stroke="midnightblue" d="M484.39,-136.1C516.56,-123.2 566.08,-103.33 594.16,-92.06"/>
<polygon fill="midnightblue" stroke="midnightblue" points="482.99,-132.9 475.01,-139.87 485.6,-139.39 482.99,-132.9"/>
</g>
<!-- Node9 -->
<g id="node9" class="node">
<title>Node9</title>
<g id="a_node9"><a xlink:href="_simple_whiteboard_test_8mm.html" target="_top" xlink:title=" ">
<polygon fill="none" stroke="black" points="276,-0.5 276,-30.5 413,-30.5 413,-0.5 276,-0.5"/>
<text text-anchor="start" x="284" y="-18.5" font-family="Helvetica,sans-Serif" font-size="10.00">SimpleWhiteboardTest</text>
<text text-anchor="middle" x="344.5" y="-7.5" font-family="Helvetica,sans-Serif" font-size="10.00">/SimpleWhiteboardTest.mm</text>
</a>
</g>
</g>
<!-- Node8&#45;&gt;Node9 -->
<g id="edge8" class="edge">
<title>Node8&#45;&gt;Node9</title>
<path fill="none" stroke="midnightblue" d="M348.28,-57.4C347.44,-48.37 346.52,-38.41 345.8,-30.58"/>
<polygon fill="midnightblue" stroke="midnightblue" points="344.79,-57.76 349.2,-67.4 351.76,-57.12 344.79,-57.76"/>
</g>
<!-- Node11 -->
<g id="node11" class="node">
<title>Node11</title>
<g id="a_node11"><a xlink:href="guwhiteboardgetter_8cpp.html" target="_top" xlink:title=" ">
<polygon fill="none" stroke="black" points="431,-6 431,-25 548,-25 548,-6 431,-6"/>
<text text-anchor="middle" x="489.5" y="-13" font-family="Helvetica,sans-Serif" font-size="10.00">guwhiteboardgetter.cpp</text>
</a>
</g>
</g>
<!-- Node10&#45;&gt;Node11 -->
<g id="edge10" class="edge">
<title>Node10&#45;&gt;Node11</title>
<path fill="none" stroke="midnightblue" d="M485.96,-62.54C486.91,-50.17 488.11,-34.62 488.84,-25.13"/>
<polygon fill="midnightblue" stroke="midnightblue" points="482.45,-62.49 485.17,-72.73 489.43,-63.03 482.45,-62.49"/>
</g>
</g>
</svg>
