<?xml version="1.0" encoding="UTF-8" standalone="no"?>
<!DOCTYPE svg PUBLIC "-//W3C//DTD SVG 1.1//EN"
 "http://www.w3.org/Graphics/SVG/1.1/DTD/svg11.dtd">
<!-- Generated by graphviz version 2.49.0 (20210830.1337)
 -->
<!-- Title: typeClassDefs/wb_vision_field_feature.c Pages: 1 -->
<svg width="567pt" height="207pt"
 viewBox="0.00 0.00 567.00 207.00" xmlns="http://www.w3.org/2000/svg" xmlns:xlink="http://www.w3.org/1999/xlink">
<g id="graph0" class="graph" transform="scale(1 1) rotate(0) translate(4 203)">
<title>typeClassDefs/wb_vision_field_feature.c</title>
<!-- Node1 -->
<g id="node1" class="node">
<title>Node1</title>
<g id="a_node1"><a xlink:title=" ">
<polygon fill="#bfbfbf" stroke="black" points="309.5,-168.5 309.5,-198.5 435.5,-198.5 435.5,-168.5 309.5,-168.5"/>
<text text-anchor="start" x="317.5" y="-186.5" font-family="Helvetica,sans-Serif" font-size="10.00">typeClassDefs/wb_vision</text>
<text text-anchor="middle" x="372.5" y="-175.5" font-family="Helvetica,sans-Serif" font-size="10.00">_field_feature.c</text>
</a>
</g>
</g>
<!-- Node2 -->
<g id="node2" class="node">
<title>Node2</title>
<g id="a_node2"><a xlink:href="wb__vision__field__feature_8h.html" target="_top" xlink:title=" ">
<polygon fill="none" stroke="black" points="109,-112.5 109,-131.5 234,-131.5 234,-112.5 109,-112.5"/>
<text text-anchor="middle" x="171.5" y="-119.5" font-family="Helvetica,sans-Serif" font-size="10.00">wb_vision_field_feature.h</text>
</a>
</g>
</g>
<!-- Node1&#45;&gt;Node2 -->
<g id="edge1" class="edge">
<title>Node1&#45;&gt;Node2</title>
<path fill="none" stroke="midnightblue" d="M325.12,-168.47C289.99,-158.08 242.71,-144.08 209.92,-134.37"/>
<polygon fill="midnightblue" stroke="midnightblue" points="210.82,-130.99 200.24,-131.51 208.83,-137.7 210.82,-130.99"/>
</g>
<!-- Node8 -->
<g id="node8" class="node">
<title>Node8</title>
<g id="a_node8"><a xlink:title=" ">
<polygon fill="none" stroke="#bfbfbf" points="252,-112.5 252,-131.5 297,-131.5 297,-112.5 252,-112.5"/>
<text text-anchor="middle" x="274.5" y="-119.5" font-family="Helvetica,sans-Serif" font-size="10.00">stdio.h</text>
</a>
</g>
</g>
<!-- Node1&#45;&gt;Node8 -->
<g id="edge11" class="edge">
<title>Node1&#45;&gt;Node8</title>
<path fill="none" stroke="midnightblue" d="M349.28,-168.4C333.71,-158.95 313.3,-146.56 297.74,-137.11"/>
<polygon fill="midnightblue" stroke="midnightblue" points="299.12,-133.86 288.76,-131.66 295.49,-139.84 299.12,-133.86"/>
</g>
<!-- Node9 -->
<g id="node9" class="node">
<title>Node9</title>
<g id="a_node9"><a xlink:title=" ">
<polygon fill="none" stroke="#bfbfbf" points="315.5,-112.5 315.5,-131.5 363.5,-131.5 363.5,-112.5 315.5,-112.5"/>
<text text-anchor="middle" x="339.5" y="-119.5" font-family="Helvetica,sans-Serif" font-size="10.00">string.h</text>
</a>
</g>
</g>
<!-- Node1&#45;&gt;Node9 -->
<g id="edge12" class="edge">
<title>Node1&#45;&gt;Node9</title>
<path fill="none" stroke="midnightblue" d="M364.68,-168.4C360.03,-160.02 354.1,-149.33 349.16,-140.42"/>
<polygon fill="midnightblue" stroke="midnightblue" points="352.21,-138.71 344.3,-131.66 346.09,-142.1 352.21,-138.71"/>
</g>
<!-- Node10 -->
<g id="node10" class="node">
<title>Node10</title>
<g id="a_node10"><a xlink:title=" ">
<polygon fill="none" stroke="#bfbfbf" points="382,-112.5 382,-131.5 429,-131.5 429,-112.5 382,-112.5"/>
<text text-anchor="middle" x="405.5" y="-119.5" font-family="Helvetica,sans-Serif" font-size="10.00">stdlib.h</text>
</a>
</g>
</g>
<!-- Node1&#45;&gt;Node10 -->
<g id="edge13" class="edge">
<title>Node1&#45;&gt;Node10</title>
<path fill="none" stroke="midnightblue" d="M380.32,-168.4C384.97,-160.02 390.9,-149.33 395.84,-140.42"/>
<polygon fill="midnightblue" stroke="midnightblue" points="398.91,-142.1 400.7,-131.66 392.79,-138.71 398.91,-142.1"/>
</g>
<!-- Node11 -->
<g id="node11" class="node">
<title>Node11</title>
<g id="a_node11"><a xlink:title=" ">
<polygon fill="none" stroke="#bfbfbf" points="447,-112.5 447,-131.5 494,-131.5 494,-112.5 447,-112.5"/>
<text text-anchor="middle" x="470.5" y="-119.5" font-family="Helvetica,sans-Serif" font-size="10.00">ctype.h</text>
</a>
</g>
</g>
<!-- Node1&#45;&gt;Node11 -->
<g id="edge14" class="edge">
<title>Node1&#45;&gt;Node11</title>
<path fill="none" stroke="midnightblue" d="M395.72,-168.4C411.29,-158.95 431.7,-146.56 447.26,-137.11"/>
<polygon fill="midnightblue" stroke="midnightblue" points="449.51,-139.84 456.24,-131.66 445.88,-133.86 449.51,-139.84"/>
</g>
<!-- Node12 -->
<g id="node12" class="node">
<title>Node12</title>
<g id="a_node12"><a xlink:title=" ">
<polygon fill="none" stroke="#bfbfbf" points="512,-112.5 512,-131.5 559,-131.5 559,-112.5 512,-112.5"/>
<text text-anchor="middle" x="535.5" y="-119.5" font-family="Helvetica,sans-Serif" font-size="10.00">limits.h</text>
</a>
</g>
</g>
<!-- Node1&#45;&gt;Node12 -->
<g id="edge15" class="edge">
<title>Node1&#45;&gt;Node12</title>
<path fill="none" stroke="midnightblue" d="M411.13,-168.4C438.84,-158.28 475.81,-144.79 502.22,-135.15"/>
<polygon fill="midnightblue" stroke="midnightblue" points="503.59,-138.37 511.78,-131.66 501.19,-131.8 503.59,-138.37"/>
</g>
<!-- Node3 -->
<g id="node3" class="node">
<title>Node3</title>
<g id="a_node3"><a xlink:title=" ">
<polygon fill="none" stroke="#bfbfbf" points="0,-0.5 0,-19.5 53,-19.5 53,-0.5 0,-0.5"/>
<text text-anchor="middle" x="26.5" y="-7.5" font-family="Helvetica,sans-Serif" font-size="10.00">gu_util.h</text>
</a>
</g>
</g>
<!-- Node2&#45;&gt;Node3 -->
<g id="edge2" class="edge">
<title>Node2&#45;&gt;Node3</title>
<path fill="none" stroke="midnightblue" d="M154.26,-112.42C138.16,-104.07 113.79,-90.54 94.5,-76 74.66,-61.05 54.38,-40.91 41.2,-27.03"/>
<polygon fill="midnightblue" stroke="midnightblue" points="43.7,-24.58 34.31,-19.67 38.59,-29.36 43.7,-24.58"/>
</g>
<!-- Node4 -->
<g id="node4" class="node">
<title>Node4</title>
<g id="a_node4"><a xlink:title=" ">
<polygon fill="none" stroke="#bfbfbf" points="71.5,-0.5 71.5,-19.5 119.5,-19.5 119.5,-0.5 71.5,-0.5"/>
<text text-anchor="middle" x="95.5" y="-7.5" font-family="Helvetica,sans-Serif" font-size="10.00">stdint.h</text>
</a>
</g>
</g>
<!-- Node2&#45;&gt;Node4 -->
<g id="edge3" class="edge">
<title>Node2&#45;&gt;Node4</title>
<path fill="none" stroke="midnightblue" d="M151.46,-112.43C136.61,-105 117.18,-92.79 106.5,-76 97.77,-62.27 95.34,-43.74 94.91,-29.98"/>
<polygon fill="midnightblue" stroke="midnightblue" points="98.41,-29.75 94.92,-19.75 91.41,-29.74 98.41,-29.75"/>
</g>
<!-- Node5 -->
<g id="node5" class="node">
<title>Node5</title>
<g id="a_node5"><a xlink:href="wb__pixel__coordinate_8h.html" target="_top" xlink:title=" ">
<polygon fill="none" stroke="black" points="115.5,-56.5 115.5,-75.5 227.5,-75.5 227.5,-56.5 115.5,-56.5"/>
<text text-anchor="middle" x="171.5" y="-63.5" font-family="Helvetica,sans-Serif" font-size="10.00">wb_pixel_coordinate.h</text>
</a>
</g>
</g>
<!-- Node2&#45;&gt;Node5 -->
<g id="edge4" class="edge">
<title>Node2&#45;&gt;Node5</title>
<path fill="none" stroke="midnightblue" d="M171.5,-112.08C171.5,-105.01 171.5,-94.86 171.5,-85.99"/>
<polygon fill="midnightblue" stroke="midnightblue" points="175,-85.75 171.5,-75.75 168,-85.75 175,-85.75"/>
</g>
<!-- Node6 -->
<g id="node6" class="node">
<title>Node6</title>
<g id="a_node6"><a xlink:title=" ">
<polygon fill="none" stroke="#bfbfbf" points="137.5,-0.5 137.5,-19.5 227.5,-19.5 227.5,-0.5 137.5,-0.5"/>
<text text-anchor="middle" x="182.5" y="-7.5" font-family="Helvetica,sans-Serif" font-size="10.00">guunits/guunits.h</text>
</a>
</g>
</g>
<!-- Node2&#45;&gt;Node6 -->
<g id="edge9" class="edge">
<title>Node2&#45;&gt;Node6</title>
<path fill="none" stroke="midnightblue" d="M193.31,-112.45C208.44,-105.22 227.45,-93.26 236.5,-76 246.79,-56.37 226.13,-37.27 207.46,-24.91"/>
<polygon fill="midnightblue" stroke="midnightblue" points="209.22,-21.88 198.88,-19.57 205.52,-27.83 209.22,-21.88"/>
</g>
<!-- Node7 -->
<g id="node7" class="node">
<title>Node7</title>
<g id="a_node7"><a xlink:title=" ">
<polygon fill="none" stroke="#bfbfbf" points="246,-0.5 246,-19.5 395,-19.5 395,-0.5 246,-0.5"/>
<text text-anchor="middle" x="320.5" y="-7.5" font-family="Helvetica,sans-Serif" font-size="10.00">gucoordinates/gucoordinates.h</text>
</a>
</g>
</g>
<!-- Node2&#45;&gt;Node7 -->
<g id="edge10" class="edge">
<title>Node2&#45;&gt;Node7</title>
<path fill="none" stroke="midnightblue" d="M189.74,-112.35C206.47,-104.04 231.6,-90.63 251.5,-76 271.67,-61.17 292.24,-41.01 305.61,-27.09"/>
<polygon fill="midnightblue" stroke="midnightblue" points="308.26,-29.38 312.59,-19.71 303.17,-24.57 308.26,-29.38"/>
</g>
<!-- Node5&#45;&gt;Node3 -->
<g id="edge5" class="edge">
<title>Node5&#45;&gt;Node3</title>
<path fill="none" stroke="midnightblue" d="M148.52,-56.44C124.34,-47.44 86.08,-33.19 58.85,-23.05"/>
<polygon fill="midnightblue" stroke="midnightblue" points="59.96,-19.73 49.37,-19.52 57.52,-26.29 59.96,-19.73"/>
</g>
<!-- Node5&#45;&gt;Node4 -->
<g id="edge6" class="edge">
<title>Node5&#45;&gt;Node4</title>
<path fill="none" stroke="midnightblue" d="M159.29,-56.32C147.72,-48.11 130.12,-35.6 116.34,-25.81"/>
<polygon fill="midnightblue" stroke="midnightblue" points="118.11,-22.77 107.93,-19.83 114.06,-28.48 118.11,-22.77"/>
</g>
<!-- Node5&#45;&gt;Node6 -->
<g id="edge7" class="edge">
<title>Node5&#45;&gt;Node6</title>
<path fill="none" stroke="midnightblue" d="M173.32,-56.08C174.77,-48.93 176.87,-38.64 178.69,-29.69"/>
<polygon fill="midnightblue" stroke="midnightblue" points="182.15,-30.25 180.72,-19.75 175.29,-28.85 182.15,-30.25"/>
</g>
<!-- Node5&#45;&gt;Node7 -->
<g id="edge8" class="edge">
<title>Node5&#45;&gt;Node7</title>
<path fill="none" stroke="midnightblue" d="M195.11,-56.44C219.96,-47.44 259.27,-33.19 287.25,-23.05"/>
<polygon fill="midnightblue" stroke="midnightblue" points="288.79,-26.21 297,-19.52 286.41,-19.63 288.79,-26.21"/>
</g>
</g>
</svg>
