<?xml version="1.0" encoding="UTF-8" standalone="no"?>
<!DOCTYPE svg PUBLIC "-//W3C//DTD SVG 1.1//EN"
 "http://www.w3.org/Graphics/SVG/1.1/DTD/svg11.dtd">
<!-- Generated by graphviz version 2.49.0 (20210830.1337)
 -->
<!-- Title: typeClassDefs/wb_sensors_torsojointsensors.h Pages: 1 -->
<svg width="812pt" height="307pt"
 viewBox="0.00 0.00 812.00 307.00" xmlns="http://www.w3.org/2000/svg" xmlns:xlink="http://www.w3.org/1999/xlink">
<g id="graph0" class="graph" transform="scale(1 1) rotate(0) translate(4 303)">
<title>typeClassDefs/wb_sensors_torsojointsensors.h</title>
<!-- Node1 -->
<g id="node1" class="node">
<title>Node1</title>
<g id="a_node1"><a xlink:title=" ">
<polygon fill="#bfbfbf" stroke="black" points="330,-268.5 330,-298.5 465,-298.5 465,-268.5 330,-268.5"/>
<text text-anchor="start" x="338" y="-286.5" font-family="Helvetica,sans-Serif" font-size="10.00">typeClassDefs/wb_sensors</text>
<text text-anchor="middle" x="397.5" y="-275.5" font-family="Helvetica,sans-Serif" font-size="10.00">_torsojointsensors.h</text>
</a>
</g>
</g>
<!-- Node2 -->
<g id="node2" class="node">
<title>Node2</title>
<g id="a_node2"><a xlink:href="guwhiteboard__c__types__manual__definitions_8h.html" target="_top" xlink:title=" ">
<polygon fill="none" stroke="black" points="83,-134.5 83,-164.5 196,-164.5 196,-134.5 83,-134.5"/>
<text text-anchor="start" x="91" y="-152.5" font-family="Helvetica,sans-Serif" font-size="10.00">guwhiteboard_c_types</text>
<text text-anchor="middle" x="139.5" y="-141.5" font-family="Helvetica,sans-Serif" font-size="10.00">_manual_definitions.h</text>
</a>
</g>
</g>
<!-- Node1&#45;&gt;Node2 -->
<g id="edge1" class="edge">
<title>Node1&#45;&gt;Node2</title>
<path fill="none" stroke="midnightblue" d="M328.13,-265.61C300.57,-257.45 269.16,-246.29 242.5,-232 207.73,-213.36 172.92,-182.69 154,-164.77"/>
<polygon fill="midnightblue" stroke="midnightblue" points="327.51,-269.07 338.09,-268.47 329.44,-262.34 327.51,-269.07"/>
</g>
<!-- Node6 -->
<g id="node6" class="node">
<title>Node6</title>
<g id="a_node6"><a xlink:href="_s_e_n_s_o_r_s_torso_joint_sensors_8hpp.html" target="_top" xlink:title=" ">
<polygon fill="none" stroke="black" points="466,-201.5 466,-231.5 621,-231.5 621,-201.5 466,-201.5"/>
<text text-anchor="start" x="474" y="-219.5" font-family="Helvetica,sans-Serif" font-size="10.00">typeClassDefs/SENSORSTorso</text>
<text text-anchor="middle" x="543.5" y="-208.5" font-family="Helvetica,sans-Serif" font-size="10.00">JointSensors.hpp</text>
</a>
</g>
</g>
<!-- Node1&#45;&gt;Node6 -->
<g id="edge5" class="edge">
<title>Node1&#45;&gt;Node6</title>
<path fill="none" stroke="midnightblue" d="M438.45,-264.27C461.7,-253.92 490.37,-241.15 511.88,-231.58"/>
<polygon fill="midnightblue" stroke="midnightblue" points="436.89,-261.13 429.18,-268.4 439.74,-267.53 436.89,-261.13"/>
</g>
<!-- Node14 -->
<g id="node14" class="node">
<title>Node14</title>
<g id="a_node14"><a xlink:href="wb__pixel__to__robot__relative__coord_8h.html" target="_top" xlink:title=" ">
<polygon fill="none" stroke="black" points="252,-201.5 252,-231.5 383,-231.5 383,-201.5 252,-201.5"/>
<text text-anchor="start" x="260" y="-219.5" font-family="Helvetica,sans-Serif" font-size="10.00">typeClassDefs/wb_pixel</text>
<text text-anchor="middle" x="317.5" y="-208.5" font-family="Helvetica,sans-Serif" font-size="10.00">_to_robot_relative_coord.h</text>
</a>
</g>
</g>
<!-- Node1&#45;&gt;Node14 -->
<g id="edge13" class="edge">
<title>Node1&#45;&gt;Node14</title>
<path fill="none" stroke="midnightblue" d="M372.13,-261.88C359.97,-252.01 345.72,-240.43 334.82,-231.58"/>
<polygon fill="midnightblue" stroke="midnightblue" points="370.17,-264.81 380.14,-268.4 374.59,-259.37 370.17,-264.81"/>
</g>
<!-- Node18 -->
<g id="node18" class="node">
<title>Node18</title>
<g id="a_node18"><a xlink:href="wb__sensors__torsojointsensors_8c.html" target="_top" xlink:title=" ">
<polygon fill="none" stroke="black" points="639,-201.5 639,-231.5 774,-231.5 774,-201.5 639,-201.5"/>
<text text-anchor="start" x="647" y="-219.5" font-family="Helvetica,sans-Serif" font-size="10.00">typeClassDefs/wb_sensors</text>
<text text-anchor="middle" x="706.5" y="-208.5" font-family="Helvetica,sans-Serif" font-size="10.00">_torsojointsensors.c</text>
</a>
</g>
</g>
<!-- Node1&#45;&gt;Node18 -->
<g id="edge18" class="edge">
<title>Node1&#45;&gt;Node18</title>
<path fill="none" stroke="midnightblue" d="M474.12,-266.38C524.95,-255.69 591,-241.8 639.69,-231.55"/>
<polygon fill="midnightblue" stroke="midnightblue" points="473.23,-262.99 464.17,-268.48 474.67,-269.84 473.23,-262.99"/>
</g>
<!-- Node3 -->
<g id="node3" class="node">
<title>Node3</title>
<g id="a_node3"><a xlink:href="guwhiteboard__c__types_8h.html" target="_top" xlink:title=" ">
<polygon fill="none" stroke="black" points="77,-73 77,-92 198,-92 198,-73 77,-73"/>
<text text-anchor="middle" x="137.5" y="-80" font-family="Helvetica,sans-Serif" font-size="10.00">guwhiteboard_c_types.h</text>
</a>
</g>
</g>
<!-- Node2&#45;&gt;Node3 -->
<g id="edge2" class="edge">
<title>Node2&#45;&gt;Node3</title>
<path fill="none" stroke="midnightblue" d="M138.75,-124.25C138.41,-113.02 138.02,-100.38 137.77,-92.19"/>
<polygon fill="midnightblue" stroke="midnightblue" points="135.26,-124.51 139.07,-134.4 142.26,-124.29 135.26,-124.51"/>
</g>
<!-- Node4 -->
<g id="node4" class="node">
<title>Node4</title>
<g id="a_node4"><a xlink:href="guwhiteboarddeserialiser_8c.html" target="_top" xlink:title=" ">
<polygon fill="none" stroke="black" points="0,-6 0,-25 131,-25 131,-6 0,-6"/>
<text text-anchor="middle" x="65.5" y="-13" font-family="Helvetica,sans-Serif" font-size="10.00">guwhiteboarddeserialiser.c</text>
</a>
</g>
</g>
<!-- Node3&#45;&gt;Node4 -->
<g id="edge3" class="edge">
<title>Node3&#45;&gt;Node4</title>
<path fill="none" stroke="midnightblue" d="M120.17,-65.86C106.02,-53.08 86.54,-35.49 75.06,-25.13"/>
<polygon fill="midnightblue" stroke="midnightblue" points="118.02,-68.63 127.79,-72.73 122.71,-63.43 118.02,-68.63"/>
</g>
<!-- Node5 -->
<g id="node5" class="node">
<title>Node5</title>
<g id="a_node5"><a xlink:href="guwhiteboardserialiser_8c.html" target="_top" xlink:title=" ">
<polygon fill="none" stroke="black" points="149,-6 149,-25 270,-25 270,-6 149,-6"/>
<text text-anchor="middle" x="209.5" y="-13" font-family="Helvetica,sans-Serif" font-size="10.00">guwhiteboardserialiser.c</text>
</a>
</g>
</g>
<!-- Node3&#45;&gt;Node5 -->
<g id="edge4" class="edge">
<title>Node3&#45;&gt;Node5</title>
<path fill="none" stroke="midnightblue" d="M154.83,-65.86C168.98,-53.08 188.46,-35.49 199.94,-25.13"/>
<polygon fill="midnightblue" stroke="midnightblue" points="152.29,-63.43 147.21,-72.73 156.98,-68.63 152.29,-63.43"/>
</g>
<!-- Node7 -->
<g id="node7" class="node">
<title>Node7</title>
<g id="a_node7"><a xlink:href="guwhiteboardposter_8h.html" target="_top" xlink:title=" ">
<polygon fill="none" stroke="black" points="522,-140 522,-159 631,-159 631,-140 522,-140"/>
<text text-anchor="middle" x="576.5" y="-147" font-family="Helvetica,sans-Serif" font-size="10.00">guwhiteboardposter.h</text>
</a>
</g>
</g>
<!-- Node6&#45;&gt;Node7 -->
<g id="edge6" class="edge">
<title>Node6&#45;&gt;Node7</title>
<path fill="none" stroke="midnightblue" d="M555.28,-192.29C561.12,-180.8 567.8,-167.63 572.09,-159.19"/>
<polygon fill="midnightblue" stroke="midnightblue" points="552.07,-190.89 550.66,-201.4 558.31,-194.06 552.07,-190.89"/>
</g>
<!-- Node13 -->
<g id="node13" class="node">
<title>Node13</title>
<g id="a_node13"><a xlink:href="_s_e_n_s_o_r_s_torso_joint_sensors_8h.html" target="_top" xlink:title=" ">
<polygon fill="none" stroke="black" points="649,-134.5 649,-164.5 804,-164.5 804,-134.5 649,-134.5"/>
<text text-anchor="start" x="657" y="-152.5" font-family="Helvetica,sans-Serif" font-size="10.00">typeClassDefs/SENSORSTorso</text>
<text text-anchor="middle" x="726.5" y="-141.5" font-family="Helvetica,sans-Serif" font-size="10.00">JointSensors.h</text>
</a>
</g>
</g>
<!-- Node6&#45;&gt;Node13 -->
<g id="edge12" class="edge">
<title>Node6&#45;&gt;Node13</title>
<path fill="none" stroke="midnightblue" d="M592.9,-197.96C622.37,-187.48 659.31,-174.37 686.87,-164.58"/>
<polygon fill="midnightblue" stroke="midnightblue" points="591.46,-194.75 583.21,-201.4 593.8,-201.35 591.46,-194.75"/>
</g>
<!-- Node8 -->
<g id="node8" class="node">
<title>Node8</title>
<g id="a_node8"><a xlink:href="_simple_whiteboard_test_8h.html" target="_top" xlink:title=" ">
<polygon fill="none" stroke="black" points="378,-67.5 378,-97.5 503,-97.5 503,-67.5 378,-67.5"/>
<text text-anchor="start" x="386" y="-85.5" font-family="Helvetica,sans-Serif" font-size="10.00">SimpleWhiteboardTest</text>
<text text-anchor="middle" x="440.5" y="-74.5" font-family="Helvetica,sans-Serif" font-size="10.00">/SimpleWhiteboardTest.h</text>
</a>
</g>
</g>
<!-- Node7&#45;&gt;Node8 -->
<g id="edge7" class="edge">
<title>Node7&#45;&gt;Node8</title>
<path fill="none" stroke="midnightblue" d="M549.25,-135.47C526.25,-124.49 493.42,-108.79 469.85,-97.53"/>
<polygon fill="midnightblue" stroke="midnightblue" points="547.91,-138.71 558.44,-139.87 550.93,-132.4 547.91,-138.71"/>
</g>
<!-- Node10 -->
<g id="node10" class="node">
<title>Node10</title>
<g id="a_node10"><a xlink:href="guwhiteboardgetter_8h.html" target="_top" xlink:title=" ">
<polygon fill="none" stroke="black" points="523,-73 523,-92 630,-92 630,-73 523,-73"/>
<text text-anchor="middle" x="576.5" y="-80" font-family="Helvetica,sans-Serif" font-size="10.00">guwhiteboardgetter.h</text>
</a>
</g>
</g>
<!-- Node7&#45;&gt;Node10 -->
<g id="edge9" class="edge">
<title>Node7&#45;&gt;Node10</title>
<path fill="none" stroke="midnightblue" d="M576.5,-129.54C576.5,-117.17 576.5,-101.62 576.5,-92.13"/>
<polygon fill="midnightblue" stroke="midnightblue" points="573,-129.73 576.5,-139.73 580,-129.73 573,-129.73"/>
</g>
<!-- Node12 -->
<g id="node12" class="node">
<title>Node12</title>
<g id="a_node12"><a xlink:href="guwhiteboardposter_8cpp.html" target="_top" xlink:title=" ">
<polygon fill="none" stroke="black" points="648,-73 648,-92 767,-92 767,-73 648,-73"/>
<text text-anchor="middle" x="707.5" y="-80" font-family="Helvetica,sans-Serif" font-size="10.00">guwhiteboardposter.cpp</text>
</a>
</g>
</g>
<!-- Node7&#45;&gt;Node12 -->
<g id="edge11" class="edge">
<title>Node7&#45;&gt;Node12</title>
<path fill="none" stroke="midnightblue" d="M603.16,-135.27C629.1,-122.4 667.78,-103.21 690.03,-92.17"/>
<polygon fill="midnightblue" stroke="midnightblue" points="601.3,-132.29 593.9,-139.87 604.41,-138.56 601.3,-132.29"/>
</g>
<!-- Node9 -->
<g id="node9" class="node">
<title>Node9</title>
<g id="a_node9"><a xlink:href="_simple_whiteboard_test_8mm.html" target="_top" xlink:title=" ">
<polygon fill="none" stroke="black" points="368,-0.5 368,-30.5 505,-30.5 505,-0.5 368,-0.5"/>
<text text-anchor="start" x="376" y="-18.5" font-family="Helvetica,sans-Serif" font-size="10.00">SimpleWhiteboardTest</text>
<text text-anchor="middle" x="436.5" y="-7.5" font-family="Helvetica,sans-Serif" font-size="10.00">/SimpleWhiteboardTest.mm</text>
</a>
</g>
</g>
<!-- Node8&#45;&gt;Node9 -->
<g id="edge8" class="edge">
<title>Node8&#45;&gt;Node9</title>
<path fill="none" stroke="midnightblue" d="M439.02,-57.4C438.46,-48.37 437.85,-38.41 437.37,-30.58"/>
<polygon fill="midnightblue" stroke="midnightblue" points="435.52,-57.63 439.63,-67.4 442.51,-57.2 435.52,-57.63"/>
</g>
<!-- Node11 -->
<g id="node11" class="node">
<title>Node11</title>
<g id="a_node11"><a xlink:href="guwhiteboardgetter_8cpp.html" target="_top" xlink:title=" ">
<polygon fill="none" stroke="black" points="523,-6 523,-25 640,-25 640,-6 523,-6"/>
<text text-anchor="middle" x="581.5" y="-13" font-family="Helvetica,sans-Serif" font-size="10.00">guwhiteboardgetter.cpp</text>
</a>
</g>
</g>
<!-- Node10&#45;&gt;Node11 -->
<g id="edge10" class="edge">
<title>Node10&#45;&gt;Node11</title>
<path fill="none" stroke="midnightblue" d="M577.96,-62.54C578.91,-50.17 580.11,-34.62 580.84,-25.13"/>
<polygon fill="midnightblue" stroke="midnightblue" points="574.45,-62.49 577.17,-72.73 581.43,-63.03 574.45,-62.49"/>
</g>
<!-- Node14&#45;&gt;Node2 -->
<g id="edge14" class="edge">
<title>Node14&#45;&gt;Node2</title>
<path fill="none" stroke="midnightblue" d="M269.45,-197.96C240.78,-187.48 204.86,-174.37 178.05,-164.58"/>
<polygon fill="midnightblue" stroke="midnightblue" points="268.28,-201.25 278.88,-201.4 270.68,-194.68 268.28,-201.25"/>
</g>
<!-- Node15 -->
<g id="node15" class="node">
<title>Node15</title>
<g id="a_node15"><a xlink:href="_pixel_to_robot_relative_coord_8hpp.html" target="_top" xlink:title=" ">
<polygon fill="none" stroke="black" points="214.5,-134.5 214.5,-164.5 354.5,-164.5 354.5,-134.5 214.5,-134.5"/>
<text text-anchor="start" x="222.5" y="-152.5" font-family="Helvetica,sans-Serif" font-size="10.00">typeClassDefs/PixelToRobot</text>
<text text-anchor="middle" x="284.5" y="-141.5" font-family="Helvetica,sans-Serif" font-size="10.00">RelativeCoord.hpp</text>
</a>
</g>
</g>
<!-- Node14&#45;&gt;Node15 -->
<g id="edge15" class="edge">
<title>Node14&#45;&gt;Node15</title>
<path fill="none" stroke="midnightblue" d="M305.71,-192.28C301.01,-183.02 295.75,-172.66 291.65,-164.58"/>
<polygon fill="midnightblue" stroke="midnightblue" points="302.69,-194.06 310.34,-201.4 308.93,-190.89 302.69,-194.06"/>
</g>
<!-- Node17 -->
<g id="node17" class="node">
<title>Node17</title>
<g id="a_node17"><a xlink:href="wb__pixel__to__robot__relative__coord_8c.html" target="_top" xlink:title=" ">
<polygon fill="none" stroke="black" points="373,-134.5 373,-164.5 504,-164.5 504,-134.5 373,-134.5"/>
<text text-anchor="start" x="381" y="-152.5" font-family="Helvetica,sans-Serif" font-size="10.00">typeClassDefs/wb_pixel</text>
<text text-anchor="middle" x="438.5" y="-141.5" font-family="Helvetica,sans-Serif" font-size="10.00">_to_robot_relative_coord.c</text>
</a>
</g>
</g>
<!-- Node14&#45;&gt;Node17 -->
<g id="edge17" class="edge">
<title>Node14&#45;&gt;Node17</title>
<path fill="none" stroke="midnightblue" d="M352.73,-196.57C371.76,-186.35 394.87,-173.94 412.3,-164.58"/>
<polygon fill="midnightblue" stroke="midnightblue" points="350.91,-193.58 343.76,-201.4 354.22,-199.75 350.91,-193.58"/>
</g>
<!-- Node16 -->
<g id="node16" class="node">
<title>Node16</title>
<g id="a_node16"><a xlink:href="_pixel_to_robot_relative_coord_8h.html" target="_top" xlink:title=" ">
<polygon fill="none" stroke="black" points="216.5,-67.5 216.5,-97.5 356.5,-97.5 356.5,-67.5 216.5,-67.5"/>
<text text-anchor="start" x="224.5" y="-85.5" font-family="Helvetica,sans-Serif" font-size="10.00">typeClassDefs/PixelToRobot</text>
<text text-anchor="middle" x="286.5" y="-74.5" font-family="Helvetica,sans-Serif" font-size="10.00">RelativeCoord.h</text>
</a>
</g>
</g>
<!-- Node15&#45;&gt;Node16 -->
<g id="edge16" class="edge">
<title>Node15&#45;&gt;Node16</title>
<path fill="none" stroke="midnightblue" d="M285.25,-124.11C285.53,-115.15 285.83,-105.32 286.07,-97.58"/>
<polygon fill="midnightblue" stroke="midnightblue" points="281.74,-124.29 284.93,-134.4 288.74,-124.51 281.74,-124.29"/>
</g>
</g>
</svg>
