<?xml version="1.0" encoding="UTF-8" standalone="no"?>
<!DOCTYPE svg PUBLIC "-//W3C//DTD SVG 1.1//EN"
 "http://www.w3.org/Graphics/SVG/1.1/DTD/svg11.dtd">
<!-- Generated by graphviz version 2.49.0 (20210830.1337)
 -->
<!-- Title: typeClassDefs/wb_nao_walk_command.c Pages: 1 -->
<svg width="464pt" height="151pt"
 viewBox="0.00 0.00 464.00 151.00" xmlns="http://www.w3.org/2000/svg" xmlns:xlink="http://www.w3.org/1999/xlink">
<g id="graph0" class="graph" transform="scale(1 1) rotate(0) translate(4 147)">
<title>typeClassDefs/wb_nao_walk_command.c</title>
<!-- Node1 -->
<g id="node1" class="node">
<title>Node1</title>
<g id="a_node1"><a xlink:title=" ">
<polygon fill="#bfbfbf" stroke="black" points="211.5,-112.5 211.5,-142.5 327.5,-142.5 327.5,-112.5 211.5,-112.5"/>
<text text-anchor="start" x="219.5" y="-130.5" font-family="Helvetica,sans-Serif" font-size="10.00">typeClassDefs/wb_nao</text>
<text text-anchor="middle" x="269.5" y="-119.5" font-family="Helvetica,sans-Serif" font-size="10.00">_walk_command.c</text>
</a>
</g>
</g>
<!-- Node2 -->
<g id="node2" class="node">
<title>Node2</title>
<g id="a_node2"><a xlink:href="wb__nao__walk__command_8h.html" target="_top" xlink:title=" ">
<polygon fill="none" stroke="black" points="0,-56.5 0,-75.5 131,-75.5 131,-56.5 0,-56.5"/>
<text text-anchor="middle" x="65.5" y="-63.5" font-family="Helvetica,sans-Serif" font-size="10.00">wb_nao_walk_command.h</text>
</a>
</g>
</g>
<!-- Node1&#45;&gt;Node2 -->
<g id="edge1" class="edge">
<title>Node1&#45;&gt;Node2</title>
<path fill="none" stroke="midnightblue" d="M221.41,-112.47C185.76,-102.08 137.77,-88.08 104.49,-78.37"/>
<polygon fill="midnightblue" stroke="midnightblue" points="105.24,-74.95 94.66,-75.51 103.28,-81.67 105.24,-74.95"/>
</g>
<!-- Node5 -->
<g id="node5" class="node">
<title>Node5</title>
<g id="a_node5"><a xlink:title=" ">
<polygon fill="none" stroke="#bfbfbf" points="149,-56.5 149,-75.5 194,-75.5 194,-56.5 149,-56.5"/>
<text text-anchor="middle" x="171.5" y="-63.5" font-family="Helvetica,sans-Serif" font-size="10.00">stdio.h</text>
</a>
</g>
</g>
<!-- Node1&#45;&gt;Node5 -->
<g id="edge4" class="edge">
<title>Node1&#45;&gt;Node5</title>
<path fill="none" stroke="midnightblue" d="M246.28,-112.4C230.71,-102.95 210.3,-90.56 194.74,-81.11"/>
<polygon fill="midnightblue" stroke="midnightblue" points="196.12,-77.86 185.76,-75.66 192.49,-83.84 196.12,-77.86"/>
</g>
<!-- Node6 -->
<g id="node6" class="node">
<title>Node6</title>
<g id="a_node6"><a xlink:title=" ">
<polygon fill="none" stroke="#bfbfbf" points="212.5,-56.5 212.5,-75.5 260.5,-75.5 260.5,-56.5 212.5,-56.5"/>
<text text-anchor="middle" x="236.5" y="-63.5" font-family="Helvetica,sans-Serif" font-size="10.00">string.h</text>
</a>
</g>
</g>
<!-- Node1&#45;&gt;Node6 -->
<g id="edge5" class="edge">
<title>Node1&#45;&gt;Node6</title>
<path fill="none" stroke="midnightblue" d="M261.68,-112.4C257.03,-104.02 251.1,-93.33 246.16,-84.42"/>
<polygon fill="midnightblue" stroke="midnightblue" points="249.21,-82.71 241.3,-75.66 243.09,-86.1 249.21,-82.71"/>
</g>
<!-- Node7 -->
<g id="node7" class="node">
<title>Node7</title>
<g id="a_node7"><a xlink:title=" ">
<polygon fill="none" stroke="#bfbfbf" points="279,-56.5 279,-75.5 326,-75.5 326,-56.5 279,-56.5"/>
<text text-anchor="middle" x="302.5" y="-63.5" font-family="Helvetica,sans-Serif" font-size="10.00">stdlib.h</text>
</a>
</g>
</g>
<!-- Node1&#45;&gt;Node7 -->
<g id="edge6" class="edge">
<title>Node1&#45;&gt;Node7</title>
<path fill="none" stroke="midnightblue" d="M277.32,-112.4C281.97,-104.02 287.9,-93.33 292.84,-84.42"/>
<polygon fill="midnightblue" stroke="midnightblue" points="295.91,-86.1 297.7,-75.66 289.79,-82.71 295.91,-86.1"/>
</g>
<!-- Node8 -->
<g id="node8" class="node">
<title>Node8</title>
<g id="a_node8"><a xlink:title=" ">
<polygon fill="none" stroke="#bfbfbf" points="344,-56.5 344,-75.5 391,-75.5 391,-56.5 344,-56.5"/>
<text text-anchor="middle" x="367.5" y="-63.5" font-family="Helvetica,sans-Serif" font-size="10.00">ctype.h</text>
</a>
</g>
</g>
<!-- Node1&#45;&gt;Node8 -->
<g id="edge7" class="edge">
<title>Node1&#45;&gt;Node8</title>
<path fill="none" stroke="midnightblue" d="M292.72,-112.4C308.29,-102.95 328.7,-90.56 344.26,-81.11"/>
<polygon fill="midnightblue" stroke="midnightblue" points="346.51,-83.84 353.24,-75.66 342.88,-77.86 346.51,-83.84"/>
</g>
<!-- Node9 -->
<g id="node9" class="node">
<title>Node9</title>
<g id="a_node9"><a xlink:title=" ">
<polygon fill="none" stroke="#bfbfbf" points="409,-56.5 409,-75.5 456,-75.5 456,-56.5 409,-56.5"/>
<text text-anchor="middle" x="432.5" y="-63.5" font-family="Helvetica,sans-Serif" font-size="10.00">limits.h</text>
</a>
</g>
</g>
<!-- Node1&#45;&gt;Node9 -->
<g id="edge8" class="edge">
<title>Node1&#45;&gt;Node9</title>
<path fill="none" stroke="midnightblue" d="M308.13,-112.4C335.84,-102.28 372.81,-88.79 399.22,-79.15"/>
<polygon fill="midnightblue" stroke="midnightblue" points="400.59,-82.37 408.78,-75.66 398.19,-75.8 400.59,-82.37"/>
</g>
<!-- Node3 -->
<g id="node3" class="node">
<title>Node3</title>
<g id="a_node3"><a xlink:title=" ">
<polygon fill="none" stroke="#bfbfbf" points="5,-0.5 5,-19.5 58,-19.5 58,-0.5 5,-0.5"/>
<text text-anchor="middle" x="31.5" y="-7.5" font-family="Helvetica,sans-Serif" font-size="10.00">gu_util.h</text>
</a>
</g>
</g>
<!-- Node2&#45;&gt;Node3 -->
<g id="edge2" class="edge">
<title>Node2&#45;&gt;Node3</title>
<path fill="none" stroke="midnightblue" d="M59.89,-56.08C55.13,-48.53 48.18,-37.49 42.35,-28.23"/>
<polygon fill="midnightblue" stroke="midnightblue" points="45.3,-26.35 37.01,-19.75 39.38,-30.08 45.3,-26.35"/>
</g>
<!-- Node4 -->
<g id="node4" class="node">
<title>Node4</title>
<g id="a_node4"><a xlink:title=" ">
<polygon fill="none" stroke="#bfbfbf" points="76.5,-0.5 76.5,-19.5 124.5,-19.5 124.5,-0.5 76.5,-0.5"/>
<text text-anchor="middle" x="100.5" y="-7.5" font-family="Helvetica,sans-Serif" font-size="10.00">stdint.h</text>
</a>
</g>
</g>
<!-- Node2&#45;&gt;Node4 -->
<g id="edge3" class="edge">
<title>Node2&#45;&gt;Node4</title>
<path fill="none" stroke="midnightblue" d="M71.28,-56.08C76.17,-48.53 83.33,-37.49 89.33,-28.23"/>
<polygon fill="midnightblue" stroke="midnightblue" points="92.33,-30.05 94.83,-19.75 86.45,-26.24 92.33,-30.05"/>
</g>
</g>
</svg>
