<?xml version="1.0" encoding="UTF-8" standalone="no"?>
<!DOCTYPE svg PUBLIC "-//W3C//DTD SVG 1.1//EN"
 "http://www.w3.org/Graphics/SVG/1.1/DTD/svg11.dtd">
<!-- Generated by graphviz version 2.49.0 (20210830.1337)
 -->
<!-- Title: typeClassDefs/wb_my_position.h Pages: 1 -->
<svg width="572pt" height="296pt"
 viewBox="0.00 0.00 571.50 296.00" xmlns="http://www.w3.org/2000/svg" xmlns:xlink="http://www.w3.org/1999/xlink">
<g id="graph0" class="graph" transform="scale(1 1) rotate(0) translate(4 292)">
<title>typeClassDefs/wb_my_position.h</title>
<!-- Node1 -->
<g id="node1" class="node">
<title>Node1</title>
<g id="a_node1"><a xlink:title=" ">
<polygon fill="#bfbfbf" stroke="black" points="301,-257.5 301,-287.5 414,-287.5 414,-257.5 301,-257.5"/>
<text text-anchor="start" x="309" y="-275.5" font-family="Helvetica,sans-Serif" font-size="10.00">typeClassDefs/wb_my</text>
<text text-anchor="middle" x="357.5" y="-264.5" font-family="Helvetica,sans-Serif" font-size="10.00">_position.h</text>
</a>
</g>
</g>
<!-- Node2 -->
<g id="node2" class="node">
<title>Node2</title>
<g id="a_node2"><a xlink:href="guwhiteboard__c__types_8h.html" target="_top" xlink:title=" ">
<polygon fill="none" stroke="black" points="144,-196 144,-215 265,-215 265,-196 144,-196"/>
<text text-anchor="middle" x="204.5" y="-203" font-family="Helvetica,sans-Serif" font-size="10.00">guwhiteboard_c_types.h</text>
</a>
</g>
</g>
<!-- Node1&#45;&gt;Node2 -->
<g id="edge1" class="edge">
<title>Node1&#45;&gt;Node2</title>
<path fill="none" stroke="midnightblue" d="M315.03,-253.46C285.47,-240.9 247.4,-224.72 224.52,-215.01"/>
<polygon fill="midnightblue" stroke="midnightblue" points="313.73,-256.71 324.3,-257.4 316.47,-250.26 313.73,-256.71"/>
</g>
<!-- Node5 -->
<g id="node5" class="node">
<title>Node5</title>
<g id="a_node5"><a xlink:href="_my_position_8hpp.html" target="_top" xlink:title=" ">
<polygon fill="none" stroke="black" points="283,-196 283,-215 432,-215 432,-196 283,-196"/>
<text text-anchor="middle" x="357.5" y="-203" font-family="Helvetica,sans-Serif" font-size="10.00">typeClassDefs/MyPosition.hpp</text>
</a>
</g>
</g>
<!-- Node1&#45;&gt;Node5 -->
<g id="edge4" class="edge">
<title>Node1&#45;&gt;Node5</title>
<path fill="none" stroke="midnightblue" d="M357.5,-247.25C357.5,-236.02 357.5,-223.38 357.5,-215.19"/>
<polygon fill="midnightblue" stroke="midnightblue" points="354,-247.4 357.5,-257.4 361,-247.4 354,-247.4"/>
</g>
<!-- Node13 -->
<g id="node13" class="node">
<title>Node13</title>
<g id="a_node13"><a xlink:href="wb__my__position_8c.html" target="_top" xlink:title=" ">
<polygon fill="none" stroke="black" points="450,-190.5 450,-220.5 563,-220.5 563,-190.5 450,-190.5"/>
<text text-anchor="start" x="458" y="-208.5" font-family="Helvetica,sans-Serif" font-size="10.00">typeClassDefs/wb_my</text>
<text text-anchor="middle" x="506.5" y="-197.5" font-family="Helvetica,sans-Serif" font-size="10.00">_position.c</text>
</a>
</g>
</g>
<!-- Node1&#45;&gt;Node13 -->
<g id="edge12" class="edge">
<title>Node1&#45;&gt;Node13</title>
<path fill="none" stroke="midnightblue" d="M399.29,-253.27C423.02,-242.92 452.28,-230.15 474.23,-220.58"/>
<polygon fill="midnightblue" stroke="midnightblue" points="397.6,-250.19 389.83,-257.4 400.4,-256.61 397.6,-250.19"/>
</g>
<!-- Node3 -->
<g id="node3" class="node">
<title>Node3</title>
<g id="a_node3"><a xlink:href="guwhiteboarddeserialiser_8c.html" target="_top" xlink:title=" ">
<polygon fill="none" stroke="black" points="0,-134.5 0,-153.5 131,-153.5 131,-134.5 0,-134.5"/>
<text text-anchor="middle" x="65.5" y="-141.5" font-family="Helvetica,sans-Serif" font-size="10.00">guwhiteboarddeserialiser.c</text>
</a>
</g>
</g>
<!-- Node2&#45;&gt;Node3 -->
<g id="edge2" class="edge">
<title>Node2&#45;&gt;Node3</title>
<path fill="none" stroke="midnightblue" d="M175.25,-191.98C148.25,-180.42 108.9,-163.58 85.38,-153.51"/>
<polygon fill="midnightblue" stroke="midnightblue" points="174.01,-195.26 184.58,-195.98 176.77,-188.82 174.01,-195.26"/>
</g>
<!-- Node4 -->
<g id="node4" class="node">
<title>Node4</title>
<g id="a_node4"><a xlink:href="guwhiteboardserialiser_8c.html" target="_top" xlink:title=" ">
<polygon fill="none" stroke="black" points="149,-134.5 149,-153.5 270,-153.5 270,-134.5 149,-134.5"/>
<text text-anchor="middle" x="209.5" y="-141.5" font-family="Helvetica,sans-Serif" font-size="10.00">guwhiteboardserialiser.c</text>
</a>
</g>
</g>
<!-- Node2&#45;&gt;Node4 -->
<g id="edge3" class="edge">
<title>Node2&#45;&gt;Node4</title>
<path fill="none" stroke="midnightblue" d="M206.07,-185.82C206.98,-175 208.08,-161.9 208.78,-153.51"/>
<polygon fill="midnightblue" stroke="midnightblue" points="202.57,-185.72 205.22,-195.98 209.54,-186.3 202.57,-185.72"/>
</g>
<!-- Node6 -->
<g id="node6" class="node">
<title>Node6</title>
<g id="a_node6"><a xlink:href="guwhiteboardposter_8h.html" target="_top" xlink:title=" ">
<polygon fill="none" stroke="black" points="298,-134.5 298,-153.5 407,-153.5 407,-134.5 298,-134.5"/>
<text text-anchor="middle" x="352.5" y="-141.5" font-family="Helvetica,sans-Serif" font-size="10.00">guwhiteboardposter.h</text>
</a>
</g>
</g>
<!-- Node5&#45;&gt;Node6 -->
<g id="edge5" class="edge">
<title>Node5&#45;&gt;Node6</title>
<path fill="none" stroke="midnightblue" d="M355.93,-185.82C355.02,-175 353.92,-161.9 353.22,-153.51"/>
<polygon fill="midnightblue" stroke="midnightblue" points="352.46,-186.3 356.78,-195.98 359.43,-185.72 352.46,-186.3"/>
</g>
<!-- Node12 -->
<g id="node12" class="node">
<title>Node12</title>
<g id="a_node12"><a xlink:href="_my_position_8h.html" target="_top" xlink:title=" ">
<polygon fill="none" stroke="black" points="425.5,-134.5 425.5,-153.5 563.5,-153.5 563.5,-134.5 425.5,-134.5"/>
<text text-anchor="middle" x="494.5" y="-141.5" font-family="Helvetica,sans-Serif" font-size="10.00">typeClassDefs/MyPosition.h</text>
</a>
</g>
</g>
<!-- Node5&#45;&gt;Node12 -->
<g id="edge11" class="edge">
<title>Node5&#45;&gt;Node12</title>
<path fill="none" stroke="midnightblue" d="M386.33,-191.98C412.94,-180.42 451.73,-163.58 474.91,-153.51"/>
<polygon fill="midnightblue" stroke="midnightblue" points="384.91,-188.78 377.13,-195.98 387.7,-195.2 384.91,-188.78"/>
</g>
<!-- Node7 -->
<g id="node7" class="node">
<title>Node7</title>
<g id="a_node7"><a xlink:href="_simple_whiteboard_test_8h.html" target="_top" xlink:title=" ">
<polygon fill="none" stroke="black" points="153,-67.5 153,-97.5 278,-97.5 278,-67.5 153,-67.5"/>
<text text-anchor="start" x="161" y="-85.5" font-family="Helvetica,sans-Serif" font-size="10.00">SimpleWhiteboardTest</text>
<text text-anchor="middle" x="215.5" y="-74.5" font-family="Helvetica,sans-Serif" font-size="10.00">/SimpleWhiteboardTest.h</text>
</a>
</g>
</g>
<!-- Node6&#45;&gt;Node7 -->
<g id="edge6" class="edge">
<title>Node6&#45;&gt;Node7</title>
<path fill="none" stroke="midnightblue" d="M323.63,-130.46C301.44,-120.82 270.79,-107.51 247.79,-97.52"/>
<polygon fill="midnightblue" stroke="midnightblue" points="322.3,-133.7 332.87,-134.48 325.09,-127.28 322.3,-133.7"/>
</g>
<!-- Node9 -->
<g id="node9" class="node">
<title>Node9</title>
<g id="a_node9"><a xlink:href="guwhiteboardgetter_8h.html" target="_top" xlink:title=" ">
<polygon fill="none" stroke="black" points="299,-73 299,-92 406,-92 406,-73 299,-73"/>
<text text-anchor="middle" x="352.5" y="-80" font-family="Helvetica,sans-Serif" font-size="10.00">guwhiteboardgetter.h</text>
</a>
</g>
</g>
<!-- Node6&#45;&gt;Node9 -->
<g id="edge8" class="edge">
<title>Node6&#45;&gt;Node9</title>
<path fill="none" stroke="midnightblue" d="M352.5,-124.32C352.5,-113.5 352.5,-100.4 352.5,-92.01"/>
<polygon fill="midnightblue" stroke="midnightblue" points="349,-124.48 352.5,-134.48 356,-124.48 349,-124.48"/>
</g>
<!-- Node11 -->
<g id="node11" class="node">
<title>Node11</title>
<g id="a_node11"><a xlink:href="guwhiteboardposter_8cpp.html" target="_top" xlink:title=" ">
<polygon fill="none" stroke="black" points="424,-73 424,-92 543,-92 543,-73 424,-73"/>
<text text-anchor="middle" x="483.5" y="-80" font-family="Helvetica,sans-Serif" font-size="10.00">guwhiteboardposter.cpp</text>
</a>
</g>
</g>
<!-- Node6&#45;&gt;Node11 -->
<g id="edge10" class="edge">
<title>Node6&#45;&gt;Node11</title>
<path fill="none" stroke="midnightblue" d="M380.4,-130.33C405.83,-118.78 442.7,-102.03 464.77,-92.01"/>
<polygon fill="midnightblue" stroke="midnightblue" points="378.93,-127.15 371.27,-134.48 381.82,-133.53 378.93,-127.15"/>
</g>
<!-- Node8 -->
<g id="node8" class="node">
<title>Node8</title>
<g id="a_node8"><a xlink:href="_simple_whiteboard_test_8mm.html" target="_top" xlink:title=" ">
<polygon fill="none" stroke="black" points="142,-0.5 142,-30.5 279,-30.5 279,-0.5 142,-0.5"/>
<text text-anchor="start" x="150" y="-18.5" font-family="Helvetica,sans-Serif" font-size="10.00">SimpleWhiteboardTest</text>
<text text-anchor="middle" x="210.5" y="-7.5" font-family="Helvetica,sans-Serif" font-size="10.00">/SimpleWhiteboardTest.mm</text>
</a>
</g>
</g>
<!-- Node7&#45;&gt;Node8 -->
<g id="edge7" class="edge">
<title>Node7&#45;&gt;Node8</title>
<path fill="none" stroke="midnightblue" d="M213.65,-57.4C212.95,-48.37 212.19,-38.41 211.58,-30.58"/>
<polygon fill="midnightblue" stroke="midnightblue" points="210.16,-57.69 214.42,-67.4 217.14,-57.16 210.16,-57.69"/>
</g>
<!-- Node10 -->
<g id="node10" class="node">
<title>Node10</title>
<g id="a_node10"><a xlink:href="guwhiteboardgetter_8cpp.html" target="_top" xlink:title=" ">
<polygon fill="none" stroke="black" points="297,-6 297,-25 414,-25 414,-6 297,-6"/>
<text text-anchor="middle" x="355.5" y="-13" font-family="Helvetica,sans-Serif" font-size="10.00">guwhiteboardgetter.cpp</text>
</a>
</g>
</g>
<!-- Node9&#45;&gt;Node10 -->
<g id="edge9" class="edge">
<title>Node9&#45;&gt;Node10</title>
<path fill="none" stroke="midnightblue" d="M353.38,-62.54C353.95,-50.17 354.66,-34.62 355.1,-25.13"/>
<polygon fill="midnightblue" stroke="midnightblue" points="349.87,-62.58 352.9,-72.73 356.86,-62.91 349.87,-62.58"/>
</g>
</g>
</svg>
