<?xml version="1.0" encoding="UTF-8" standalone="no"?>
<!DOCTYPE svg PUBLIC "-//W3C//DTD SVG 1.1//EN"
 "http://www.w3.org/Graphics/SVG/1.1/DTD/svg11.dtd">
<!-- Generated by graphviz version 2.49.0 (20210830.1337)
 -->
<!-- Title: typeClassDefs/wb_nao_sonar_protected_walk_command.c Pages: 1 -->
<svg width="458pt" height="173pt"
 viewBox="0.00 0.00 458.00 173.00" xmlns="http://www.w3.org/2000/svg" xmlns:xlink="http://www.w3.org/1999/xlink">
<g id="graph0" class="graph" transform="scale(1 1) rotate(0) translate(4 169)">
<title>typeClassDefs/wb_nao_sonar_protected_walk_command.c</title>
<!-- Node1 -->
<g id="node1" class="node">
<title>Node1</title>
<g id="a_node1"><a xlink:title=" ">
<polygon fill="#bfbfbf" stroke="black" points="205,-123.5 205,-164.5 322,-164.5 322,-123.5 205,-123.5"/>
<text text-anchor="start" x="213" y="-152.5" font-family="Helvetica,sans-Serif" font-size="10.00">typeClassDefs/wb_nao</text>
<text text-anchor="start" x="213" y="-141.5" font-family="Helvetica,sans-Serif" font-size="10.00">_sonar_protected_walk</text>
<text text-anchor="middle" x="263.5" y="-130.5" font-family="Helvetica,sans-Serif" font-size="10.00">_command.c</text>
</a>
</g>
</g>
<!-- Node2 -->
<g id="node2" class="node">
<title>Node2</title>
<g id="a_node2"><a xlink:href="wb__nao__sonar__protected__walk__command_8h.html" target="_top" xlink:title=" ">
<polygon fill="none" stroke="black" points="0,-56.5 0,-86.5 125,-86.5 125,-56.5 0,-56.5"/>
<text text-anchor="start" x="8" y="-74.5" font-family="Helvetica,sans-Serif" font-size="10.00">wb_nao_sonar_protected</text>
<text text-anchor="middle" x="62.5" y="-63.5" font-family="Helvetica,sans-Serif" font-size="10.00">_walk_command.h</text>
</a>
</g>
</g>
<!-- Node1&#45;&gt;Node2 -->
<g id="edge1" class="edge">
<title>Node1&#45;&gt;Node2</title>
<path fill="none" stroke="midnightblue" d="M207.78,-123.46C177.82,-112.95 141.19,-100.1 112.21,-89.93"/>
<polygon fill="midnightblue" stroke="midnightblue" points="113.29,-86.6 102.69,-86.6 110.97,-93.21 113.29,-86.6"/>
</g>
<!-- Node5 -->
<g id="node5" class="node">
<title>Node5</title>
<g id="a_node5"><a xlink:title=" ">
<polygon fill="none" stroke="#bfbfbf" points="143,-62 143,-81 188,-81 188,-62 143,-62"/>
<text text-anchor="middle" x="165.5" y="-69" font-family="Helvetica,sans-Serif" font-size="10.00">stdio.h</text>
</a>
</g>
</g>
<!-- Node1&#45;&gt;Node5 -->
<g id="edge4" class="edge">
<title>Node1&#45;&gt;Node5</title>
<path fill="none" stroke="midnightblue" d="M236.2,-123.36C220.26,-111.89 200.47,-97.65 185.88,-87.16"/>
<polygon fill="midnightblue" stroke="midnightblue" points="187.72,-84.17 177.56,-81.17 183.63,-89.85 187.72,-84.17"/>
</g>
<!-- Node6 -->
<g id="node6" class="node">
<title>Node6</title>
<g id="a_node6"><a xlink:title=" ">
<polygon fill="none" stroke="#bfbfbf" points="206.5,-62 206.5,-81 254.5,-81 254.5,-62 206.5,-62"/>
<text text-anchor="middle" x="230.5" y="-69" font-family="Helvetica,sans-Serif" font-size="10.00">string.h</text>
</a>
</g>
</g>
<!-- Node1&#45;&gt;Node6 -->
<g id="edge5" class="edge">
<title>Node1&#45;&gt;Node6</title>
<path fill="none" stroke="midnightblue" d="M254.31,-123.36C249.5,-113.08 243.64,-100.58 238.95,-90.54"/>
<polygon fill="midnightblue" stroke="midnightblue" points="241.97,-88.75 234.56,-81.17 235.63,-91.71 241.97,-88.75"/>
</g>
<!-- Node7 -->
<g id="node7" class="node">
<title>Node7</title>
<g id="a_node7"><a xlink:title=" ">
<polygon fill="none" stroke="#bfbfbf" points="273,-62 273,-81 320,-81 320,-62 273,-62"/>
<text text-anchor="middle" x="296.5" y="-69" font-family="Helvetica,sans-Serif" font-size="10.00">stdlib.h</text>
</a>
</g>
</g>
<!-- Node1&#45;&gt;Node7 -->
<g id="edge6" class="edge">
<title>Node1&#45;&gt;Node7</title>
<path fill="none" stroke="midnightblue" d="M272.69,-123.36C277.5,-113.08 283.36,-100.58 288.05,-90.54"/>
<polygon fill="midnightblue" stroke="midnightblue" points="291.37,-91.71 292.44,-81.17 285.03,-88.75 291.37,-91.71"/>
</g>
<!-- Node8 -->
<g id="node8" class="node">
<title>Node8</title>
<g id="a_node8"><a xlink:title=" ">
<polygon fill="none" stroke="#bfbfbf" points="338,-62 338,-81 385,-81 385,-62 338,-62"/>
<text text-anchor="middle" x="361.5" y="-69" font-family="Helvetica,sans-Serif" font-size="10.00">ctype.h</text>
</a>
</g>
</g>
<!-- Node1&#45;&gt;Node8 -->
<g id="edge7" class="edge">
<title>Node1&#45;&gt;Node8</title>
<path fill="none" stroke="midnightblue" d="M290.8,-123.36C306.74,-111.89 326.53,-97.65 341.12,-87.16"/>
<polygon fill="midnightblue" stroke="midnightblue" points="343.37,-89.85 349.44,-81.17 339.28,-84.17 343.37,-89.85"/>
</g>
<!-- Node9 -->
<g id="node9" class="node">
<title>Node9</title>
<g id="a_node9"><a xlink:title=" ">
<polygon fill="none" stroke="#bfbfbf" points="403,-62 403,-81 450,-81 450,-62 403,-62"/>
<text text-anchor="middle" x="426.5" y="-69" font-family="Helvetica,sans-Serif" font-size="10.00">limits.h</text>
</a>
</g>
</g>
<!-- Node1&#45;&gt;Node9 -->
<g id="edge8" class="edge">
<title>Node1&#45;&gt;Node9</title>
<path fill="none" stroke="midnightblue" d="M309.98,-123.42C335.07,-112.77 366.54,-99.31 394.5,-87 395.86,-86.4 397.25,-85.78 398.66,-85.16"/>
<polygon fill="midnightblue" stroke="midnightblue" points="400.23,-88.29 407.92,-81 397.36,-81.9 400.23,-88.29"/>
</g>
<!-- Node3 -->
<g id="node3" class="node">
<title>Node3</title>
<g id="a_node3"><a xlink:title=" ">
<polygon fill="none" stroke="#bfbfbf" points="2,-0.5 2,-19.5 55,-19.5 55,-0.5 2,-0.5"/>
<text text-anchor="middle" x="28.5" y="-7.5" font-family="Helvetica,sans-Serif" font-size="10.00">gu_util.h</text>
</a>
</g>
</g>
<!-- Node2&#45;&gt;Node3 -->
<g id="edge2" class="edge">
<title>Node2&#45;&gt;Node3</title>
<path fill="none" stroke="midnightblue" d="M54.44,-56.4C49.65,-48.02 43.54,-37.33 38.46,-28.42"/>
<polygon fill="midnightblue" stroke="midnightblue" points="41.45,-26.6 33.45,-19.66 35.37,-30.08 41.45,-26.6"/>
</g>
<!-- Node4 -->
<g id="node4" class="node">
<title>Node4</title>
<g id="a_node4"><a xlink:title=" ">
<polygon fill="none" stroke="#bfbfbf" points="73.5,-0.5 73.5,-19.5 121.5,-19.5 121.5,-0.5 73.5,-0.5"/>
<text text-anchor="middle" x="97.5" y="-7.5" font-family="Helvetica,sans-Serif" font-size="10.00">stdint.h</text>
</a>
</g>
</g>
<!-- Node2&#45;&gt;Node4 -->
<g id="edge3" class="edge">
<title>Node2&#45;&gt;Node4</title>
<path fill="none" stroke="midnightblue" d="M70.79,-56.4C75.72,-48.02 82.01,-37.33 87.25,-28.42"/>
<polygon fill="midnightblue" stroke="midnightblue" points="90.35,-30.05 92.41,-19.66 84.32,-26.5 90.35,-30.05"/>
</g>
</g>
</svg>
