<?xml version="1.0" encoding="UTF-8" standalone="no"?>
<!DOCTYPE svg PUBLIC "-//W3C//DTD SVG 1.1//EN"
 "http://www.w3.org/Graphics/SVG/1.1/DTD/svg11.dtd">
<!-- Generated by graphviz version 2.49.0 (20210830.1337)
 -->
<!-- Title: typeClassDefs/wb_dominant_frequencies.h Pages: 1 -->
<svg width="301pt" height="151pt"
 viewBox="0.00 0.00 300.52 151.00" xmlns="http://www.w3.org/2000/svg" xmlns:xlink="http://www.w3.org/1999/xlink">
<g id="graph0" class="graph" transform="scale(1 1) rotate(0) translate(4 147)">
<title>typeClassDefs/wb_dominant_frequencies.h</title>
<!-- Node1 -->
<g id="node1" class="node">
<title>Node1</title>
<g id="a_node1"><a xlink:title=" ">
<polygon fill="#bfbfbf" stroke="black" points="88.59,-112.5 88.59,-142.5 228.59,-142.5 228.59,-112.5 88.59,-112.5"/>
<text text-anchor="start" x="96.59" y="-130.5" font-family="Helvetica,sans-Serif" font-size="10.00">typeClassDefs/wb_dominant</text>
<text text-anchor="middle" x="158.59" y="-119.5" font-family="Helvetica,sans-Serif" font-size="10.00">_frequencies.h</text>
</a>
</g>
</g>
<!-- Node2 -->
<g id="node2" class="node">
<title>Node2</title>
<g id="a_node2"><a xlink:title=" ">
<polygon fill="none" stroke="#bfbfbf" points="61.09,-0.5 61.09,-19.5 114.09,-19.5 114.09,-0.5 61.09,-0.5"/>
<text text-anchor="middle" x="87.59" y="-7.5" font-family="Helvetica,sans-Serif" font-size="10.00">gu_util.h</text>
</a>
</g>
</g>
<!-- Node1&#45;&gt;Node2 -->
<g id="edge1" class="edge">
<title>Node1&#45;&gt;Node2</title>
<path fill="none" stroke="midnightblue" d="M88.37,-121.5C57.44,-115.39 23.82,-102.55 4.59,-76 -12.06,-53.03 21.87,-34.05 51.24,-22.65"/>
<polygon fill="midnightblue" stroke="midnightblue" points="52.77,-25.81 60.94,-19.07 50.35,-19.24 52.77,-25.81"/>
</g>
<!-- Node3 -->
<g id="node3" class="node">
<title>Node3</title>
<g id="a_node3"><a xlink:title=" ">
<polygon fill="none" stroke="#bfbfbf" points="205.59,-0.5 205.59,-19.5 253.59,-19.5 253.59,-0.5 205.59,-0.5"/>
<text text-anchor="middle" x="229.59" y="-7.5" font-family="Helvetica,sans-Serif" font-size="10.00">stdint.h</text>
</a>
</g>
</g>
<!-- Node1&#45;&gt;Node3 -->
<g id="edge2" class="edge">
<title>Node1&#45;&gt;Node3</title>
<path fill="none" stroke="midnightblue" d="M228.66,-115.57C251.63,-108.3 274.77,-96.18 288.59,-76 301.84,-56.63 277.8,-37.04 256.53,-24.51"/>
<polygon fill="midnightblue" stroke="midnightblue" points="258.15,-21.4 247.71,-19.59 254.74,-27.52 258.15,-21.4"/>
</g>
<!-- Node4 -->
<g id="node4" class="node">
<title>Node4</title>
<g id="a_node4"><a xlink:href="wb__microphone__frequencies_8h.html" target="_top" xlink:title=" ">
<polygon fill="none" stroke="black" points="13.59,-56.5 13.59,-75.5 161.59,-75.5 161.59,-56.5 13.59,-56.5"/>
<text text-anchor="middle" x="87.59" y="-63.5" font-family="Helvetica,sans-Serif" font-size="10.00">wb_microphone_frequencies.h</text>
</a>
</g>
</g>
<!-- Node1&#45;&gt;Node4 -->
<g id="edge3" class="edge">
<title>Node1&#45;&gt;Node4</title>
<path fill="none" stroke="midnightblue" d="M141.76,-112.4C130.91,-103.31 116.81,-91.49 105.71,-82.19"/>
<polygon fill="midnightblue" stroke="midnightblue" points="107.83,-79.4 97.92,-75.66 103.33,-84.76 107.83,-79.4"/>
</g>
<!-- Node5 -->
<g id="node5" class="node">
<title>Node5</title>
<g id="a_node5"><a xlink:href="wb__r__m__s__levels_8h.html" target="_top" xlink:title=" ">
<polygon fill="none" stroke="black" points="179.59,-56.5 179.59,-75.5 279.59,-75.5 279.59,-56.5 179.59,-56.5"/>
<text text-anchor="middle" x="229.59" y="-63.5" font-family="Helvetica,sans-Serif" font-size="10.00">wb_r_m_s_levels.h</text>
</a>
</g>
</g>
<!-- Node1&#45;&gt;Node5 -->
<g id="edge6" class="edge">
<title>Node1&#45;&gt;Node5</title>
<path fill="none" stroke="midnightblue" d="M175.41,-112.4C186.26,-103.31 200.36,-91.49 211.46,-82.19"/>
<polygon fill="midnightblue" stroke="midnightblue" points="213.84,-84.76 219.25,-75.66 209.34,-79.4 213.84,-84.76"/>
</g>
<!-- Node4&#45;&gt;Node2 -->
<g id="edge4" class="edge">
<title>Node4&#45;&gt;Node2</title>
<path fill="none" stroke="midnightblue" d="M87.59,-56.08C87.59,-49.01 87.59,-38.86 87.59,-29.99"/>
<polygon fill="midnightblue" stroke="midnightblue" points="91.09,-29.75 87.59,-19.75 84.09,-29.75 91.09,-29.75"/>
</g>
<!-- Node4&#45;&gt;Node3 -->
<g id="edge5" class="edge">
<title>Node4&#45;&gt;Node3</title>
<path fill="none" stroke="midnightblue" d="M110.09,-56.44C133.66,-47.48 170.91,-33.31 197.55,-23.18"/>
<polygon fill="midnightblue" stroke="midnightblue" points="199.09,-26.34 207.19,-19.52 196.6,-19.8 199.09,-26.34"/>
</g>
<!-- Node5&#45;&gt;Node2 -->
<g id="edge7" class="edge">
<title>Node5&#45;&gt;Node2</title>
<path fill="none" stroke="midnightblue" d="M207.09,-56.44C183.51,-47.48 146.26,-33.31 119.62,-23.18"/>
<polygon fill="midnightblue" stroke="midnightblue" points="120.57,-19.8 109.98,-19.52 118.08,-26.34 120.57,-19.8"/>
</g>
<!-- Node5&#45;&gt;Node3 -->
<g id="edge8" class="edge">
<title>Node5&#45;&gt;Node3</title>
<path fill="none" stroke="midnightblue" d="M229.59,-56.08C229.59,-49.01 229.59,-38.86 229.59,-29.99"/>
<polygon fill="midnightblue" stroke="midnightblue" points="233.09,-29.75 229.59,-19.75 226.09,-29.75 233.09,-29.75"/>
</g>
</g>
</svg>
