<?xml version="1.0" encoding="UTF-8" standalone="no"?>
<!DOCTYPE svg PUBLIC "-//W3C//DTD SVG 1.1//EN"
 "http://www.w3.org/Graphics/SVG/1.1/DTD/svg11.dtd">
<!-- Generated by graphviz version 2.49.0 (20210830.1337)
 -->
<!-- Title: typeClassDefs/wb_teleoperation_status.h Pages: 1 -->
<svg width="608pt" height="307pt"
 viewBox="0.00 0.00 607.50 307.00" xmlns="http://www.w3.org/2000/svg" xmlns:xlink="http://www.w3.org/1999/xlink">
<g id="graph0" class="graph" transform="scale(1 1) rotate(0) translate(4 303)">
<title>typeClassDefs/wb_teleoperation_status.h</title>
<!-- Node1 -->
<g id="node1" class="node">
<title>Node1</title>
<g id="a_node1"><a xlink:title=" ">
<polygon fill="#bfbfbf" stroke="black" points="276.5,-268.5 276.5,-298.5 432.5,-298.5 432.5,-268.5 276.5,-268.5"/>
<text text-anchor="start" x="284.5" y="-286.5" font-family="Helvetica,sans-Serif" font-size="10.00">typeClassDefs/wb_teleoperation</text>
<text text-anchor="middle" x="354.5" y="-275.5" font-family="Helvetica,sans-Serif" font-size="10.00">_status.h</text>
</a>
</g>
</g>
<!-- Node2 -->
<g id="node2" class="node">
<title>Node2</title>
<g id="a_node2"><a xlink:href="guwhiteboard__c__types_8h.html" target="_top" xlink:title=" ">
<polygon fill="none" stroke="black" points="145,-207 145,-226 266,-226 266,-207 145,-207"/>
<text text-anchor="middle" x="205.5" y="-214" font-family="Helvetica,sans-Serif" font-size="10.00">guwhiteboard_c_types.h</text>
</a>
</g>
</g>
<!-- Node1&#45;&gt;Node2 -->
<g id="edge1" class="edge">
<title>Node1&#45;&gt;Node2</title>
<path fill="none" stroke="midnightblue" d="M312.77,-264.3C284.03,-251.76 247.18,-235.68 225,-226.01"/>
<polygon fill="midnightblue" stroke="midnightblue" points="311.6,-267.61 322.17,-268.4 314.4,-261.19 311.6,-267.61"/>
</g>
<!-- Node5 -->
<g id="node5" class="node">
<title>Node5</title>
<g id="a_node5"><a xlink:href="_teleoperation_status_8hpp.html" target="_top" xlink:title=" ">
<polygon fill="none" stroke="black" points="284,-201.5 284,-231.5 425,-231.5 425,-201.5 284,-201.5"/>
<text text-anchor="start" x="292" y="-219.5" font-family="Helvetica,sans-Serif" font-size="10.00">typeClassDefs/Teleoperation</text>
<text text-anchor="middle" x="354.5" y="-208.5" font-family="Helvetica,sans-Serif" font-size="10.00">Status.hpp</text>
</a>
</g>
</g>
<!-- Node1&#45;&gt;Node5 -->
<g id="edge4" class="edge">
<title>Node1&#45;&gt;Node5</title>
<path fill="none" stroke="midnightblue" d="M354.5,-258.11C354.5,-249.15 354.5,-239.32 354.5,-231.58"/>
<polygon fill="midnightblue" stroke="midnightblue" points="351,-258.4 354.5,-268.4 358,-258.4 351,-258.4"/>
</g>
<!-- Node13 -->
<g id="node13" class="node">
<title>Node13</title>
<g id="a_node13"><a xlink:href="wb__teleoperation__status_8c.html" target="_top" xlink:title=" ">
<polygon fill="none" stroke="black" points="443.5,-201.5 443.5,-231.5 599.5,-231.5 599.5,-201.5 443.5,-201.5"/>
<text text-anchor="start" x="451.5" y="-219.5" font-family="Helvetica,sans-Serif" font-size="10.00">typeClassDefs/wb_teleoperation</text>
<text text-anchor="middle" x="521.5" y="-208.5" font-family="Helvetica,sans-Serif" font-size="10.00">_status.c</text>
</a>
</g>
</g>
<!-- Node1&#45;&gt;Node13 -->
<g id="edge12" class="edge">
<title>Node1&#45;&gt;Node13</title>
<path fill="none" stroke="midnightblue" d="M400.28,-264.68C427.06,-254.26 460.4,-241.28 485.33,-231.58"/>
<polygon fill="midnightblue" stroke="midnightblue" points="398.79,-261.51 390.74,-268.4 401.33,-268.03 398.79,-261.51"/>
</g>
<!-- Node3 -->
<g id="node3" class="node">
<title>Node3</title>
<g id="a_node3"><a xlink:href="guwhiteboarddeserialiser_8c.html" target="_top" xlink:title=" ">
<polygon fill="none" stroke="black" points="0,-140 0,-159 131,-159 131,-140 0,-140"/>
<text text-anchor="middle" x="65.5" y="-147" font-family="Helvetica,sans-Serif" font-size="10.00">guwhiteboarddeserialiser.c</text>
</a>
</g>
</g>
<!-- Node2&#45;&gt;Node3 -->
<g id="edge2" class="edge">
<title>Node2&#45;&gt;Node3</title>
<path fill="none" stroke="midnightblue" d="M177.74,-202.61C150.01,-189.74 108.16,-170.31 84.17,-159.17"/>
<polygon fill="midnightblue" stroke="midnightblue" points="176.37,-205.83 186.91,-206.87 179.31,-199.48 176.37,-205.83"/>
</g>
<!-- Node4 -->
<g id="node4" class="node">
<title>Node4</title>
<g id="a_node4"><a xlink:href="guwhiteboardserialiser_8c.html" target="_top" xlink:title=" ">
<polygon fill="none" stroke="black" points="149,-140 149,-159 270,-159 270,-140 149,-140"/>
<text text-anchor="middle" x="209.5" y="-147" font-family="Helvetica,sans-Serif" font-size="10.00">guwhiteboardserialiser.c</text>
</a>
</g>
</g>
<!-- Node2&#45;&gt;Node4 -->
<g id="edge3" class="edge">
<title>Node2&#45;&gt;Node4</title>
<path fill="none" stroke="midnightblue" d="M206.67,-196.54C207.43,-184.17 208.38,-168.62 208.97,-159.13"/>
<polygon fill="midnightblue" stroke="midnightblue" points="203.16,-196.54 206.04,-206.73 210.15,-196.97 203.16,-196.54"/>
</g>
<!-- Node6 -->
<g id="node6" class="node">
<title>Node6</title>
<g id="a_node6"><a xlink:href="guwhiteboardposter_8h.html" target="_top" xlink:title=" ">
<polygon fill="none" stroke="black" points="296,-140 296,-159 405,-159 405,-140 296,-140"/>
<text text-anchor="middle" x="350.5" y="-147" font-family="Helvetica,sans-Serif" font-size="10.00">guwhiteboardposter.h</text>
</a>
</g>
</g>
<!-- Node5&#45;&gt;Node6 -->
<g id="edge5" class="edge">
<title>Node5&#45;&gt;Node6</title>
<path fill="none" stroke="midnightblue" d="M353.01,-191.25C352.32,-180.02 351.54,-167.38 351.04,-159.19"/>
<polygon fill="midnightblue" stroke="midnightblue" points="349.52,-191.63 353.63,-201.4 356.51,-191.2 349.52,-191.63"/>
</g>
<!-- Node12 -->
<g id="node12" class="node">
<title>Node12</title>
<g id="a_node12"><a xlink:href="_teleoperation_status_8h.html" target="_top" xlink:title=" ">
<polygon fill="none" stroke="black" points="423,-134.5 423,-164.5 564,-164.5 564,-134.5 423,-134.5"/>
<text text-anchor="start" x="431" y="-152.5" font-family="Helvetica,sans-Serif" font-size="10.00">typeClassDefs/Teleoperation</text>
<text text-anchor="middle" x="493.5" y="-141.5" font-family="Helvetica,sans-Serif" font-size="10.00">Status.h</text>
</a>
</g>
</g>
<!-- Node5&#45;&gt;Node12 -->
<g id="edge11" class="edge">
<title>Node5&#45;&gt;Node12</title>
<path fill="none" stroke="midnightblue" d="M393.78,-197.13C415.87,-186.8 443.01,-174.11 463.4,-164.58"/>
<polygon fill="midnightblue" stroke="midnightblue" points="392.24,-193.99 384.66,-201.4 395.2,-200.33 392.24,-193.99"/>
</g>
<!-- Node7 -->
<g id="node7" class="node">
<title>Node7</title>
<g id="a_node7"><a xlink:href="_simple_whiteboard_test_8h.html" target="_top" xlink:title=" ">
<polygon fill="none" stroke="black" points="151,-67.5 151,-97.5 276,-97.5 276,-67.5 151,-67.5"/>
<text text-anchor="start" x="159" y="-85.5" font-family="Helvetica,sans-Serif" font-size="10.00">SimpleWhiteboardTest</text>
<text text-anchor="middle" x="213.5" y="-74.5" font-family="Helvetica,sans-Serif" font-size="10.00">/SimpleWhiteboardTest.h</text>
</a>
</g>
</g>
<!-- Node6&#45;&gt;Node7 -->
<g id="edge6" class="edge">
<title>Node6&#45;&gt;Node7</title>
<path fill="none" stroke="midnightblue" d="M323.04,-135.47C299.88,-124.49 266.81,-108.79 243.07,-97.53"/>
<polygon fill="midnightblue" stroke="midnightblue" points="321.77,-138.74 332.31,-139.87 324.77,-132.42 321.77,-138.74"/>
</g>
<!-- Node9 -->
<g id="node9" class="node">
<title>Node9</title>
<g id="a_node9"><a xlink:href="guwhiteboardgetter_8h.html" target="_top" xlink:title=" ">
<polygon fill="none" stroke="black" points="297,-73 297,-92 404,-92 404,-73 297,-73"/>
<text text-anchor="middle" x="350.5" y="-80" font-family="Helvetica,sans-Serif" font-size="10.00">guwhiteboardgetter.h</text>
</a>
</g>
</g>
<!-- Node6&#45;&gt;Node9 -->
<g id="edge8" class="edge">
<title>Node6&#45;&gt;Node9</title>
<path fill="none" stroke="midnightblue" d="M350.5,-129.54C350.5,-117.17 350.5,-101.62 350.5,-92.13"/>
<polygon fill="midnightblue" stroke="midnightblue" points="347,-129.73 350.5,-139.73 354,-129.73 347,-129.73"/>
</g>
<!-- Node11 -->
<g id="node11" class="node">
<title>Node11</title>
<g id="a_node11"><a xlink:href="guwhiteboardposter_8cpp.html" target="_top" xlink:title=" ">
<polygon fill="none" stroke="black" points="422,-73 422,-92 541,-92 541,-73 422,-73"/>
<text text-anchor="middle" x="481.5" y="-80" font-family="Helvetica,sans-Serif" font-size="10.00">guwhiteboardposter.cpp</text>
</a>
</g>
</g>
<!-- Node6&#45;&gt;Node11 -->
<g id="edge10" class="edge">
<title>Node6&#45;&gt;Node11</title>
<path fill="none" stroke="midnightblue" d="M377.16,-135.27C403.1,-122.4 441.78,-103.21 464.03,-92.17"/>
<polygon fill="midnightblue" stroke="midnightblue" points="375.3,-132.29 367.9,-139.87 378.41,-138.56 375.3,-132.29"/>
</g>
<!-- Node8 -->
<g id="node8" class="node">
<title>Node8</title>
<g id="a_node8"><a xlink:href="_simple_whiteboard_test_8mm.html" target="_top" xlink:title=" ">
<polygon fill="none" stroke="black" points="140,-0.5 140,-30.5 277,-30.5 277,-0.5 140,-0.5"/>
<text text-anchor="start" x="148" y="-18.5" font-family="Helvetica,sans-Serif" font-size="10.00">SimpleWhiteboardTest</text>
<text text-anchor="middle" x="208.5" y="-7.5" font-family="Helvetica,sans-Serif" font-size="10.00">/SimpleWhiteboardTest.mm</text>
</a>
</g>
</g>
<!-- Node7&#45;&gt;Node8 -->
<g id="edge7" class="edge">
<title>Node7&#45;&gt;Node8</title>
<path fill="none" stroke="midnightblue" d="M211.65,-57.4C210.95,-48.37 210.19,-38.41 209.58,-30.58"/>
<polygon fill="midnightblue" stroke="midnightblue" points="208.16,-57.69 212.42,-67.4 215.14,-57.16 208.16,-57.69"/>
</g>
<!-- Node10 -->
<g id="node10" class="node">
<title>Node10</title>
<g id="a_node10"><a xlink:href="guwhiteboardgetter_8cpp.html" target="_top" xlink:title=" ">
<polygon fill="none" stroke="black" points="295,-6 295,-25 412,-25 412,-6 295,-6"/>
<text text-anchor="middle" x="353.5" y="-13" font-family="Helvetica,sans-Serif" font-size="10.00">guwhiteboardgetter.cpp</text>
</a>
</g>
</g>
<!-- Node9&#45;&gt;Node10 -->
<g id="edge9" class="edge">
<title>Node9&#45;&gt;Node10</title>
<path fill="none" stroke="midnightblue" d="M351.38,-62.54C351.95,-50.17 352.66,-34.62 353.1,-25.13"/>
<polygon fill="midnightblue" stroke="midnightblue" points="347.87,-62.58 350.9,-72.73 354.86,-62.91 347.87,-62.58"/>
</g>
</g>
</svg>
