<?xml version="1.0" encoding="UTF-8" standalone="no"?>
<!DOCTYPE svg PUBLIC "-//W3C//DTD SVG 1.1//EN"
 "http://www.w3.org/Graphics/SVG/1.1/DTD/svg11.dtd">
<!-- Generated by graphviz version 2.49.0 (20210830.1337)
 -->
<!-- Title: typeClassDefs/wb_filtered_arrayballsightings.h Pages: 1 -->
<svg width="268pt" height="162pt"
 viewBox="0.00 0.00 267.50 162.00" xmlns="http://www.w3.org/2000/svg" xmlns:xlink="http://www.w3.org/1999/xlink">
<g id="graph0" class="graph" transform="scale(1 1) rotate(0) translate(4 158)">
<title>typeClassDefs/wb_filtered_arrayballsightings.h</title>
<!-- Node1 -->
<g id="node1" class="node">
<title>Node1</title>
<g id="a_node1"><a xlink:title=" ">
<polygon fill="#bfbfbf" stroke="black" points="35,-123.5 35,-153.5 164,-153.5 164,-123.5 35,-123.5"/>
<text text-anchor="start" x="43" y="-141.5" font-family="Helvetica,sans-Serif" font-size="10.00">typeClassDefs/wb_filtered</text>
<text text-anchor="middle" x="99.5" y="-130.5" font-family="Helvetica,sans-Serif" font-size="10.00">_arrayballsightings.h</text>
</a>
</g>
</g>
<!-- Node2 -->
<g id="node2" class="node">
<title>Node2</title>
<g id="a_node2"><a xlink:title=" ">
<polygon fill="none" stroke="#bfbfbf" points="0,-0.5 0,-19.5 53,-19.5 53,-0.5 0,-0.5"/>
<text text-anchor="middle" x="26.5" y="-7.5" font-family="Helvetica,sans-Serif" font-size="10.00">gu_util.h</text>
</a>
</g>
</g>
<!-- Node1&#45;&gt;Node2 -->
<g id="edge1" class="edge">
<title>Node1&#45;&gt;Node2</title>
<path fill="none" stroke="midnightblue" d="M52.36,-123.48C34.78,-115.71 16.64,-104.05 6.5,-87 -4.36,-68.74 5.39,-44.58 14.69,-28.45"/>
<polygon fill="midnightblue" stroke="midnightblue" points="17.91,-29.91 20.24,-19.57 11.97,-26.2 17.91,-29.91"/>
</g>
<!-- Node3 -->
<g id="node3" class="node">
<title>Node3</title>
<g id="a_node3"><a xlink:title=" ">
<polygon fill="none" stroke="#bfbfbf" points="74.5,-0.5 74.5,-19.5 122.5,-19.5 122.5,-0.5 74.5,-0.5"/>
<text text-anchor="middle" x="98.5" y="-7.5" font-family="Helvetica,sans-Serif" font-size="10.00">stdint.h</text>
</a>
</g>
</g>
<!-- Node1&#45;&gt;Node3 -->
<g id="edge2" class="edge">
<title>Node1&#45;&gt;Node3</title>
<path fill="none" stroke="midnightblue" d="M106.41,-123.31C110.85,-113.4 116.19,-99.72 118.5,-87 120.97,-73.44 121.36,-69.48 118.5,-56 116.5,-46.59 112.4,-36.76 108.43,-28.7"/>
<polygon fill="midnightblue" stroke="midnightblue" points="111.39,-26.81 103.63,-19.59 105.19,-30.07 111.39,-26.81"/>
</g>
<!-- Node4 -->
<g id="node4" class="node">
<title>Node4</title>
<g id="a_node4"><a xlink:href="wb__filtered__vision__object_8h.html" target="_top" xlink:title=" ">
<polygon fill="none" stroke="black" points="15.5,-56.5 15.5,-86.5 109.5,-86.5 109.5,-56.5 15.5,-56.5"/>
<text text-anchor="start" x="23.5" y="-74.5" font-family="Helvetica,sans-Serif" font-size="10.00">wb_filtered_vision</text>
<text text-anchor="middle" x="62.5" y="-63.5" font-family="Helvetica,sans-Serif" font-size="10.00">_object.h</text>
</a>
</g>
</g>
<!-- Node1&#45;&gt;Node4 -->
<g id="edge3" class="edge">
<title>Node1&#45;&gt;Node4</title>
<path fill="none" stroke="midnightblue" d="M91.47,-123.4C86.82,-115.22 80.84,-104.73 75.53,-95.39"/>
<polygon fill="midnightblue" stroke="midnightblue" points="78.5,-93.54 70.51,-86.58 72.42,-97 78.5,-93.54"/>
</g>
<!-- Node5 -->
<g id="node5" class="node">
<title>Node5</title>
<g id="a_node5"><a xlink:href="wb__filtered__vision__ball__type_8h.html" target="_top" xlink:title=" ">
<polygon fill="none" stroke="black" points="165.5,-56.5 165.5,-86.5 259.5,-86.5 259.5,-56.5 165.5,-56.5"/>
<text text-anchor="start" x="173.5" y="-74.5" font-family="Helvetica,sans-Serif" font-size="10.00">wb_filtered_vision</text>
<text text-anchor="middle" x="212.5" y="-63.5" font-family="Helvetica,sans-Serif" font-size="10.00">_ball_type.h</text>
</a>
</g>
</g>
<!-- Node1&#45;&gt;Node5 -->
<g id="edge6" class="edge">
<title>Node1&#45;&gt;Node5</title>
<path fill="none" stroke="midnightblue" d="M124.02,-123.4C140.16,-114.11 161.49,-101.84 179.17,-91.67"/>
<polygon fill="midnightblue" stroke="midnightblue" points="181.11,-94.6 188.03,-86.58 177.62,-88.53 181.11,-94.6"/>
</g>
<!-- Node4&#45;&gt;Node2 -->
<g id="edge4" class="edge">
<title>Node4&#45;&gt;Node2</title>
<path fill="none" stroke="midnightblue" d="M53.97,-56.4C48.9,-48.02 42.43,-37.33 37.04,-28.42"/>
<polygon fill="midnightblue" stroke="midnightblue" points="39.91,-26.4 31.74,-19.66 33.92,-30.03 39.91,-26.4"/>
</g>
<!-- Node4&#45;&gt;Node3 -->
<g id="edge5" class="edge">
<title>Node4&#45;&gt;Node3</title>
<path fill="none" stroke="midnightblue" d="M71.03,-56.4C76.1,-48.02 82.57,-37.33 87.96,-28.42"/>
<polygon fill="midnightblue" stroke="midnightblue" points="91.08,-30.03 93.26,-19.66 85.09,-26.4 91.08,-30.03"/>
</g>
<!-- Node6 -->
<g id="node6" class="node">
<title>Node6</title>
<g id="a_node6"><a xlink:title=" ">
<polygon fill="none" stroke="#bfbfbf" points="180,-0.5 180,-19.5 245,-19.5 245,-0.5 180,-0.5"/>
<text text-anchor="middle" x="212.5" y="-7.5" font-family="Helvetica,sans-Serif" font-size="10.00">sys/types.h</text>
</a>
</g>
</g>
<!-- Node5&#45;&gt;Node6 -->
<g id="edge7" class="edge">
<title>Node5&#45;&gt;Node6</title>
<path fill="none" stroke="midnightblue" d="M212.5,-56.4C212.5,-48.47 212.5,-38.46 212.5,-29.86"/>
<polygon fill="midnightblue" stroke="midnightblue" points="216,-29.66 212.5,-19.66 209,-29.66 216,-29.66"/>
</g>
</g>
</svg>
