<?xml version="1.0" encoding="UTF-8" standalone="no"?>
<!DOCTYPE svg PUBLIC "-//W3C//DTD SVG 1.1//EN"
 "http://www.w3.org/Graphics/SVG/1.1/DTD/svg11.dtd">
<!-- Generated by graphviz version 2.49.0 (20210830.1337)
 -->
<!-- Title: typeClassDefs/wb_sensors_legjointtemps.c Pages: 1 -->
<svg width="474pt" height="151pt"
 viewBox="0.00 0.00 473.50 151.00" xmlns="http://www.w3.org/2000/svg" xmlns:xlink="http://www.w3.org/1999/xlink">
<g id="graph0" class="graph" transform="scale(1 1) rotate(0) translate(4 147)">
<title>typeClassDefs/wb_sensors_legjointtemps.c</title>
<!-- Node1 -->
<g id="node1" class="node">
<title>Node1</title>
<g id="a_node1"><a xlink:title=" ">
<polygon fill="#bfbfbf" stroke="black" points="211.5,-112.5 211.5,-142.5 346.5,-142.5 346.5,-112.5 211.5,-112.5"/>
<text text-anchor="start" x="219.5" y="-130.5" font-family="Helvetica,sans-Serif" font-size="10.00">typeClassDefs/wb_sensors</text>
<text text-anchor="middle" x="279" y="-119.5" font-family="Helvetica,sans-Serif" font-size="10.00">_legjointtemps.c</text>
</a>
</g>
</g>
<!-- Node2 -->
<g id="node2" class="node">
<title>Node2</title>
<g id="a_node2"><a xlink:href="wb__sensors__legjointtemps_8h.html" target="_top" xlink:title=" ">
<polygon fill="none" stroke="black" points="0,-56.5 0,-75.5 140,-75.5 140,-56.5 0,-56.5"/>
<text text-anchor="middle" x="70" y="-63.5" font-family="Helvetica,sans-Serif" font-size="10.00">wb_sensors_legjointtemps.h</text>
</a>
</g>
</g>
<!-- Node1&#45;&gt;Node2 -->
<g id="edge1" class="edge">
<title>Node1&#45;&gt;Node2</title>
<path fill="none" stroke="midnightblue" d="M229.73,-112.47C193.05,-102.03 143.62,-87.96 109.51,-78.25"/>
<polygon fill="midnightblue" stroke="midnightblue" points="110.46,-74.88 99.88,-75.51 108.54,-81.61 110.46,-74.88"/>
</g>
<!-- Node5 -->
<g id="node5" class="node">
<title>Node5</title>
<g id="a_node5"><a xlink:title=" ">
<polygon fill="none" stroke="#bfbfbf" points="158.5,-56.5 158.5,-75.5 203.5,-75.5 203.5,-56.5 158.5,-56.5"/>
<text text-anchor="middle" x="181" y="-63.5" font-family="Helvetica,sans-Serif" font-size="10.00">stdio.h</text>
</a>
</g>
</g>
<!-- Node1&#45;&gt;Node5 -->
<g id="edge4" class="edge">
<title>Node1&#45;&gt;Node5</title>
<path fill="none" stroke="midnightblue" d="M255.78,-112.4C240.21,-102.95 219.8,-90.56 204.24,-81.11"/>
<polygon fill="midnightblue" stroke="midnightblue" points="205.62,-77.86 195.26,-75.66 201.99,-83.84 205.62,-77.86"/>
</g>
<!-- Node6 -->
<g id="node6" class="node">
<title>Node6</title>
<g id="a_node6"><a xlink:title=" ">
<polygon fill="none" stroke="#bfbfbf" points="222,-56.5 222,-75.5 270,-75.5 270,-56.5 222,-56.5"/>
<text text-anchor="middle" x="246" y="-63.5" font-family="Helvetica,sans-Serif" font-size="10.00">string.h</text>
</a>
</g>
</g>
<!-- Node1&#45;&gt;Node6 -->
<g id="edge5" class="edge">
<title>Node1&#45;&gt;Node6</title>
<path fill="none" stroke="midnightblue" d="M271.18,-112.4C266.53,-104.02 260.6,-93.33 255.66,-84.42"/>
<polygon fill="midnightblue" stroke="midnightblue" points="258.71,-82.71 250.8,-75.66 252.59,-86.1 258.71,-82.71"/>
</g>
<!-- Node7 -->
<g id="node7" class="node">
<title>Node7</title>
<g id="a_node7"><a xlink:title=" ">
<polygon fill="none" stroke="#bfbfbf" points="288.5,-56.5 288.5,-75.5 335.5,-75.5 335.5,-56.5 288.5,-56.5"/>
<text text-anchor="middle" x="312" y="-63.5" font-family="Helvetica,sans-Serif" font-size="10.00">stdlib.h</text>
</a>
</g>
</g>
<!-- Node1&#45;&gt;Node7 -->
<g id="edge6" class="edge">
<title>Node1&#45;&gt;Node7</title>
<path fill="none" stroke="midnightblue" d="M286.82,-112.4C291.47,-104.02 297.4,-93.33 302.34,-84.42"/>
<polygon fill="midnightblue" stroke="midnightblue" points="305.41,-86.1 307.2,-75.66 299.29,-82.71 305.41,-86.1"/>
</g>
<!-- Node8 -->
<g id="node8" class="node">
<title>Node8</title>
<g id="a_node8"><a xlink:title=" ">
<polygon fill="none" stroke="#bfbfbf" points="353.5,-56.5 353.5,-75.5 400.5,-75.5 400.5,-56.5 353.5,-56.5"/>
<text text-anchor="middle" x="377" y="-63.5" font-family="Helvetica,sans-Serif" font-size="10.00">ctype.h</text>
</a>
</g>
</g>
<!-- Node1&#45;&gt;Node8 -->
<g id="edge7" class="edge">
<title>Node1&#45;&gt;Node8</title>
<path fill="none" stroke="midnightblue" d="M302.22,-112.4C317.79,-102.95 338.2,-90.56 353.76,-81.11"/>
<polygon fill="midnightblue" stroke="midnightblue" points="356.01,-83.84 362.74,-75.66 352.38,-77.86 356.01,-83.84"/>
</g>
<!-- Node9 -->
<g id="node9" class="node">
<title>Node9</title>
<g id="a_node9"><a xlink:title=" ">
<polygon fill="none" stroke="#bfbfbf" points="418.5,-56.5 418.5,-75.5 465.5,-75.5 465.5,-56.5 418.5,-56.5"/>
<text text-anchor="middle" x="442" y="-63.5" font-family="Helvetica,sans-Serif" font-size="10.00">limits.h</text>
</a>
</g>
</g>
<!-- Node1&#45;&gt;Node9 -->
<g id="edge8" class="edge">
<title>Node1&#45;&gt;Node9</title>
<path fill="none" stroke="midnightblue" d="M317.63,-112.4C345.34,-102.28 382.31,-88.79 408.72,-79.15"/>
<polygon fill="midnightblue" stroke="midnightblue" points="410.09,-82.37 418.28,-75.66 407.69,-75.8 410.09,-82.37"/>
</g>
<!-- Node3 -->
<g id="node3" class="node">
<title>Node3</title>
<g id="a_node3"><a xlink:title=" ">
<polygon fill="none" stroke="#bfbfbf" points="9.5,-0.5 9.5,-19.5 62.5,-19.5 62.5,-0.5 9.5,-0.5"/>
<text text-anchor="middle" x="36" y="-7.5" font-family="Helvetica,sans-Serif" font-size="10.00">gu_util.h</text>
</a>
</g>
</g>
<!-- Node2&#45;&gt;Node3 -->
<g id="edge2" class="edge">
<title>Node2&#45;&gt;Node3</title>
<path fill="none" stroke="midnightblue" d="M64.39,-56.08C59.63,-48.53 52.68,-37.49 46.85,-28.23"/>
<polygon fill="midnightblue" stroke="midnightblue" points="49.8,-26.35 41.51,-19.75 43.88,-30.08 49.8,-26.35"/>
</g>
<!-- Node4 -->
<g id="node4" class="node">
<title>Node4</title>
<g id="a_node4"><a xlink:title=" ">
<polygon fill="none" stroke="#bfbfbf" points="81,-0.5 81,-19.5 129,-19.5 129,-0.5 81,-0.5"/>
<text text-anchor="middle" x="105" y="-7.5" font-family="Helvetica,sans-Serif" font-size="10.00">stdint.h</text>
</a>
</g>
</g>
<!-- Node2&#45;&gt;Node4 -->
<g id="edge3" class="edge">
<title>Node2&#45;&gt;Node4</title>
<path fill="none" stroke="midnightblue" d="M75.78,-56.08C80.67,-48.53 87.83,-37.49 93.83,-28.23"/>
<polygon fill="midnightblue" stroke="midnightblue" points="96.83,-30.05 99.33,-19.75 90.95,-26.24 96.83,-30.05"/>
</g>
</g>
</svg>
