<?xml version="1.0" encoding="UTF-8" standalone="no"?>
<!DOCTYPE svg PUBLIC "-//W3C//DTD SVG 1.1//EN"
 "http://www.w3.org/Graphics/SVG/1.1/DTD/svg11.dtd">
<!-- Generated by graphviz version 2.49.0 (20210830.1337)
 -->
<!-- Title: typeClassDefs/wb_machine_filtered_localisation_vision.h Pages: 1 -->
<svg width="598pt" height="329pt"
 viewBox="0.00 0.00 598.00 329.00" xmlns="http://www.w3.org/2000/svg" xmlns:xlink="http://www.w3.org/1999/xlink">
<g id="graph0" class="graph" transform="scale(1 1) rotate(0) translate(4 325)">
<title>typeClassDefs/wb_machine_filtered_localisation_vision.h</title>
<!-- Node1 -->
<g id="node1" class="node">
<title>Node1</title>
<g id="a_node1"><a xlink:title=" ">
<polygon fill="#bfbfbf" stroke="black" points="290,-279.5 290,-320.5 427,-320.5 427,-279.5 290,-279.5"/>
<text text-anchor="start" x="298" y="-308.5" font-family="Helvetica,sans-Serif" font-size="10.00">typeClassDefs/wb_machine</text>
<text text-anchor="start" x="298" y="-297.5" font-family="Helvetica,sans-Serif" font-size="10.00">_filtered_localisation</text>
<text text-anchor="middle" x="358.5" y="-286.5" font-family="Helvetica,sans-Serif" font-size="10.00">_vision.h</text>
</a>
</g>
</g>
<!-- Node2 -->
<g id="node2" class="node">
<title>Node2</title>
<g id="a_node2"><a xlink:href="guwhiteboard__c__types_8h.html" target="_top" xlink:title=" ">
<polygon fill="none" stroke="black" points="143,-212.5 143,-231.5 264,-231.5 264,-212.5 143,-212.5"/>
<text text-anchor="middle" x="203.5" y="-219.5" font-family="Helvetica,sans-Serif" font-size="10.00">guwhiteboard_c_types.h</text>
</a>
</g>
</g>
<!-- Node1&#45;&gt;Node2 -->
<g id="edge1" class="edge">
<title>Node1&#45;&gt;Node2</title>
<path fill="none" stroke="midnightblue" d="M309.44,-274.94C279.2,-260.12 242.25,-242 220.94,-231.55"/>
<polygon fill="midnightblue" stroke="midnightblue" points="308.06,-278.17 318.58,-279.43 311.15,-271.88 308.06,-278.17"/>
</g>
<!-- Node5 -->
<g id="node5" class="node">
<title>Node5</title>
<g id="a_node5"><a xlink:href="_machine_filtered_localisation_vision_8hpp.html" target="_top" xlink:title=" ">
<polygon fill="none" stroke="black" points="282.5,-207 282.5,-237 434.5,-237 434.5,-207 282.5,-207"/>
<text text-anchor="start" x="290.5" y="-225" font-family="Helvetica,sans-Serif" font-size="10.00">typeClassDefs/MachineFiltered</text>
<text text-anchor="middle" x="358.5" y="-214" font-family="Helvetica,sans-Serif" font-size="10.00">LocalisationVision.hpp</text>
</a>
</g>
</g>
<!-- Node1&#45;&gt;Node5 -->
<g id="edge4" class="edge">
<title>Node1&#45;&gt;Node5</title>
<path fill="none" stroke="midnightblue" d="M358.5,-269.28C358.5,-258.25 358.5,-246.25 358.5,-237.23"/>
<polygon fill="midnightblue" stroke="midnightblue" points="355,-269.43 358.5,-279.43 362,-269.43 355,-269.43"/>
</g>
<!-- Node13 -->
<g id="node13" class="node">
<title>Node13</title>
<g id="a_node13"><a xlink:href="wb__machine__filtered__localisation__vision_8c.html" target="_top" xlink:title=" ">
<polygon fill="none" stroke="black" points="453,-201.5 453,-242.5 590,-242.5 590,-201.5 453,-201.5"/>
<text text-anchor="start" x="461" y="-230.5" font-family="Helvetica,sans-Serif" font-size="10.00">typeClassDefs/wb_machine</text>
<text text-anchor="start" x="461" y="-219.5" font-family="Helvetica,sans-Serif" font-size="10.00">_filtered_localisation</text>
<text text-anchor="middle" x="521.5" y="-208.5" font-family="Helvetica,sans-Serif" font-size="10.00">_vision.c</text>
</a>
</g>
</g>
<!-- Node1&#45;&gt;Node13 -->
<g id="edge12" class="edge">
<title>Node1&#45;&gt;Node13</title>
<path fill="none" stroke="midnightblue" d="M409.57,-275.19C432.12,-264.67 458.3,-252.47 479.67,-242.51"/>
<polygon fill="midnightblue" stroke="midnightblue" points="408.06,-272.03 400.48,-279.43 411.02,-278.37 408.06,-272.03"/>
</g>
<!-- Node3 -->
<g id="node3" class="node">
<title>Node3</title>
<g id="a_node3"><a xlink:href="guwhiteboarddeserialiser_8c.html" target="_top" xlink:title=" ">
<polygon fill="none" stroke="black" points="0,-140 0,-159 131,-159 131,-140 0,-140"/>
<text text-anchor="middle" x="65.5" y="-147" font-family="Helvetica,sans-Serif" font-size="10.00">guwhiteboarddeserialiser.c</text>
</a>
</g>
</g>
<!-- Node2&#45;&gt;Node3 -->
<g id="edge2" class="edge">
<title>Node2&#45;&gt;Node3</title>
<path fill="none" stroke="midnightblue" d="M177.68,-207.81C149.73,-193.53 105.96,-171.17 82.21,-159.03"/>
<polygon fill="midnightblue" stroke="midnightblue" points="176.36,-211.06 186.85,-212.5 179.54,-204.83 176.36,-211.06"/>
</g>
<!-- Node4 -->
<g id="node4" class="node">
<title>Node4</title>
<g id="a_node4"><a xlink:href="guwhiteboardserialiser_8c.html" target="_top" xlink:title=" ">
<polygon fill="none" stroke="black" points="149,-140 149,-159 270,-159 270,-140 149,-140"/>
<text text-anchor="middle" x="209.5" y="-147" font-family="Helvetica,sans-Serif" font-size="10.00">guwhiteboardserialiser.c</text>
</a>
</g>
</g>
<!-- Node2&#45;&gt;Node4 -->
<g id="edge3" class="edge">
<title>Node2&#45;&gt;Node4</title>
<path fill="none" stroke="midnightblue" d="M205.09,-202.36C206.27,-188.4 207.85,-169.93 208.76,-159.22"/>
<polygon fill="midnightblue" stroke="midnightblue" points="201.6,-202.09 204.24,-212.36 208.57,-202.69 201.6,-202.09"/>
</g>
<!-- Node6 -->
<g id="node6" class="node">
<title>Node6</title>
<g id="a_node6"><a xlink:href="guwhiteboardposter_8h.html" target="_top" xlink:title=" ">
<polygon fill="none" stroke="black" points="299,-140 299,-159 408,-159 408,-140 299,-140"/>
<text text-anchor="middle" x="353.5" y="-147" font-family="Helvetica,sans-Serif" font-size="10.00">guwhiteboardposter.h</text>
</a>
</g>
</g>
<!-- Node5&#45;&gt;Node6 -->
<g id="edge5" class="edge">
<title>Node5&#45;&gt;Node6</title>
<path fill="none" stroke="midnightblue" d="M356.77,-196.59C355.86,-183.71 354.79,-168.7 354.13,-159.39"/>
<polygon fill="midnightblue" stroke="midnightblue" points="353.29,-197.01 357.49,-206.73 360.27,-196.51 353.29,-197.01"/>
</g>
<!-- Node12 -->
<g id="node12" class="node">
<title>Node12</title>
<g id="a_node12"><a xlink:href="_machine_filtered_localisation_vision_8h.html" target="_top" xlink:title=" ">
<polygon fill="none" stroke="black" points="426.5,-134.5 426.5,-164.5 578.5,-164.5 578.5,-134.5 426.5,-134.5"/>
<text text-anchor="start" x="434.5" y="-152.5" font-family="Helvetica,sans-Serif" font-size="10.00">typeClassDefs/MachineFiltered</text>
<text text-anchor="middle" x="502.5" y="-141.5" font-family="Helvetica,sans-Serif" font-size="10.00">LocalisationVision.h</text>
</a>
</g>
</g>
<!-- Node5&#45;&gt;Node12 -->
<g id="edge11" class="edge">
<title>Node5&#45;&gt;Node12</title>
<path fill="none" stroke="midnightblue" d="M396.55,-202.37C420.75,-190.52 451.6,-175.42 473.76,-164.57"/>
<polygon fill="midnightblue" stroke="midnightblue" points="394.74,-199.36 387.29,-206.9 397.81,-205.65 394.74,-199.36"/>
</g>
<!-- Node7 -->
<g id="node7" class="node">
<title>Node7</title>
<g id="a_node7"><a xlink:href="_simple_whiteboard_test_8h.html" target="_top" xlink:title=" ">
<polygon fill="none" stroke="black" points="154,-67.5 154,-97.5 279,-97.5 279,-67.5 154,-67.5"/>
<text text-anchor="start" x="162" y="-85.5" font-family="Helvetica,sans-Serif" font-size="10.00">SimpleWhiteboardTest</text>
<text text-anchor="middle" x="216.5" y="-74.5" font-family="Helvetica,sans-Serif" font-size="10.00">/SimpleWhiteboardTest.h</text>
</a>
</g>
</g>
<!-- Node6&#45;&gt;Node7 -->
<g id="edge6" class="edge">
<title>Node6&#45;&gt;Node7</title>
<path fill="none" stroke="midnightblue" d="M326.04,-135.47C302.88,-124.49 269.81,-108.79 246.07,-97.53"/>
<polygon fill="midnightblue" stroke="midnightblue" points="324.77,-138.74 335.31,-139.87 327.77,-132.42 324.77,-138.74"/>
</g>
<!-- Node9 -->
<g id="node9" class="node">
<title>Node9</title>
<g id="a_node9"><a xlink:href="guwhiteboardgetter_8h.html" target="_top" xlink:title=" ">
<polygon fill="none" stroke="black" points="300,-73 300,-92 407,-92 407,-73 300,-73"/>
<text text-anchor="middle" x="353.5" y="-80" font-family="Helvetica,sans-Serif" font-size="10.00">guwhiteboardgetter.h</text>
</a>
</g>
</g>
<!-- Node6&#45;&gt;Node9 -->
<g id="edge8" class="edge">
<title>Node6&#45;&gt;Node9</title>
<path fill="none" stroke="midnightblue" d="M353.5,-129.54C353.5,-117.17 353.5,-101.62 353.5,-92.13"/>
<polygon fill="midnightblue" stroke="midnightblue" points="350,-129.73 353.5,-139.73 357,-129.73 350,-129.73"/>
</g>
<!-- Node11 -->
<g id="node11" class="node">
<title>Node11</title>
<g id="a_node11"><a xlink:href="guwhiteboardposter_8cpp.html" target="_top" xlink:title=" ">
<polygon fill="none" stroke="black" points="425,-73 425,-92 544,-92 544,-73 425,-73"/>
<text text-anchor="middle" x="484.5" y="-80" font-family="Helvetica,sans-Serif" font-size="10.00">guwhiteboardposter.cpp</text>
</a>
</g>
</g>
<!-- Node6&#45;&gt;Node11 -->
<g id="edge10" class="edge">
<title>Node6&#45;&gt;Node11</title>
<path fill="none" stroke="midnightblue" d="M380.16,-135.27C406.1,-122.4 444.78,-103.21 467.03,-92.17"/>
<polygon fill="midnightblue" stroke="midnightblue" points="378.3,-132.29 370.9,-139.87 381.41,-138.56 378.3,-132.29"/>
</g>
<!-- Node8 -->
<g id="node8" class="node">
<title>Node8</title>
<g id="a_node8"><a xlink:href="_simple_whiteboard_test_8mm.html" target="_top" xlink:title=" ">
<polygon fill="none" stroke="black" points="143,-0.5 143,-30.5 280,-30.5 280,-0.5 143,-0.5"/>
<text text-anchor="start" x="151" y="-18.5" font-family="Helvetica,sans-Serif" font-size="10.00">SimpleWhiteboardTest</text>
<text text-anchor="middle" x="211.5" y="-7.5" font-family="Helvetica,sans-Serif" font-size="10.00">/SimpleWhiteboardTest.mm</text>
</a>
</g>
</g>
<!-- Node7&#45;&gt;Node8 -->
<g id="edge7" class="edge">
<title>Node7&#45;&gt;Node8</title>
<path fill="none" stroke="midnightblue" d="M214.65,-57.4C213.95,-48.37 213.19,-38.41 212.58,-30.58"/>
<polygon fill="midnightblue" stroke="midnightblue" points="211.16,-57.69 215.42,-67.4 218.14,-57.16 211.16,-57.69"/>
</g>
<!-- Node10 -->
<g id="node10" class="node">
<title>Node10</title>
<g id="a_node10"><a xlink:href="guwhiteboardgetter_8cpp.html" target="_top" xlink:title=" ">
<polygon fill="none" stroke="black" points="298,-6 298,-25 415,-25 415,-6 298,-6"/>
<text text-anchor="middle" x="356.5" y="-13" font-family="Helvetica,sans-Serif" font-size="10.00">guwhiteboardgetter.cpp</text>
</a>
</g>
</g>
<!-- Node9&#45;&gt;Node10 -->
<g id="edge9" class="edge">
<title>Node9&#45;&gt;Node10</title>
<path fill="none" stroke="midnightblue" d="M354.38,-62.54C354.95,-50.17 355.66,-34.62 356.1,-25.13"/>
<polygon fill="midnightblue" stroke="midnightblue" points="350.87,-62.58 353.9,-72.73 357.86,-62.91 350.87,-62.58"/>
</g>
</g>
</svg>
