<?xml version="1.0" encoding="UTF-8" standalone="no"?>
<!DOCTYPE svg PUBLIC "-//W3C//DTD SVG 1.1//EN"
 "http://www.w3.org/Graphics/SVG/1.1/DTD/svg11.dtd">
<!-- Generated by graphviz version 2.49.0 (20210830.1337)
 -->
<!-- Title: typeClassDefs/wb_vision_detection_horizons.h Pages: 1 -->
<svg width="586pt" height="307pt"
 viewBox="0.00 0.00 585.50 307.00" xmlns="http://www.w3.org/2000/svg" xmlns:xlink="http://www.w3.org/1999/xlink">
<g id="graph0" class="graph" transform="scale(1 1) rotate(0) translate(4 303)">
<title>typeClassDefs/wb_vision_detection_horizons.h</title>
<!-- Node1 -->
<g id="node1" class="node">
<title>Node1</title>
<g id="a_node1"><a xlink:title=" ">
<polygon fill="#bfbfbf" stroke="black" points="294.5,-268.5 294.5,-298.5 420.5,-298.5 420.5,-268.5 294.5,-268.5"/>
<text text-anchor="start" x="302.5" y="-286.5" font-family="Helvetica,sans-Serif" font-size="10.00">typeClassDefs/wb_vision</text>
<text text-anchor="middle" x="357.5" y="-275.5" font-family="Helvetica,sans-Serif" font-size="10.00">_detection_horizons.h</text>
</a>
</g>
</g>
<!-- Node2 -->
<g id="node2" class="node">
<title>Node2</title>
<g id="a_node2"><a xlink:href="guwhiteboard__c__types_8h.html" target="_top" xlink:title=" ">
<polygon fill="none" stroke="black" points="143,-207 143,-226 264,-226 264,-207 143,-207"/>
<text text-anchor="middle" x="203.5" y="-214" font-family="Helvetica,sans-Serif" font-size="10.00">guwhiteboard_c_types.h</text>
</a>
</g>
</g>
<!-- Node1&#45;&gt;Node2 -->
<g id="edge1" class="edge">
<title>Node1&#45;&gt;Node2</title>
<path fill="none" stroke="midnightblue" d="M314.76,-264.46C285,-251.9 246.68,-235.72 223.66,-226.01"/>
<polygon fill="midnightblue" stroke="midnightblue" points="313.51,-267.73 324.08,-268.4 316.23,-261.28 313.51,-267.73"/>
</g>
<!-- Node5 -->
<g id="node5" class="node">
<title>Node5</title>
<g id="a_node5"><a xlink:href="_vision_detection_horizons_8hpp.html" target="_top" xlink:title=" ">
<polygon fill="none" stroke="black" points="282,-201.5 282,-231.5 433,-231.5 433,-201.5 282,-201.5"/>
<text text-anchor="start" x="290" y="-219.5" font-family="Helvetica,sans-Serif" font-size="10.00">typeClassDefs/VisionDetection</text>
<text text-anchor="middle" x="357.5" y="-208.5" font-family="Helvetica,sans-Serif" font-size="10.00">Horizons.hpp</text>
</a>
</g>
</g>
<!-- Node1&#45;&gt;Node5 -->
<g id="edge4" class="edge">
<title>Node1&#45;&gt;Node5</title>
<path fill="none" stroke="midnightblue" d="M357.5,-258.11C357.5,-249.15 357.5,-239.32 357.5,-231.58"/>
<polygon fill="midnightblue" stroke="midnightblue" points="354,-258.4 357.5,-268.4 361,-258.4 354,-258.4"/>
</g>
<!-- Node13 -->
<g id="node13" class="node">
<title>Node13</title>
<g id="a_node13"><a xlink:href="wb__vision__detection__horizons_8c.html" target="_top" xlink:title=" ">
<polygon fill="none" stroke="black" points="451.5,-201.5 451.5,-231.5 577.5,-231.5 577.5,-201.5 451.5,-201.5"/>
<text text-anchor="start" x="459.5" y="-219.5" font-family="Helvetica,sans-Serif" font-size="10.00">typeClassDefs/wb_vision</text>
<text text-anchor="middle" x="514.5" y="-208.5" font-family="Helvetica,sans-Serif" font-size="10.00">_detection_horizons.c</text>
</a>
</g>
</g>
<!-- Node1&#45;&gt;Node13 -->
<g id="edge12" class="edge">
<title>Node1&#45;&gt;Node13</title>
<path fill="none" stroke="midnightblue" d="M400.87,-264.54C425.99,-254.14 457.16,-241.24 480.5,-231.58"/>
<polygon fill="midnightblue" stroke="midnightblue" points="399.47,-261.34 391.57,-268.4 402.14,-267.8 399.47,-261.34"/>
</g>
<!-- Node3 -->
<g id="node3" class="node">
<title>Node3</title>
<g id="a_node3"><a xlink:href="guwhiteboarddeserialiser_8c.html" target="_top" xlink:title=" ">
<polygon fill="none" stroke="black" points="0,-140 0,-159 131,-159 131,-140 0,-140"/>
<text text-anchor="middle" x="65.5" y="-147" font-family="Helvetica,sans-Serif" font-size="10.00">guwhiteboarddeserialiser.c</text>
</a>
</g>
</g>
<!-- Node2&#45;&gt;Node3 -->
<g id="edge2" class="edge">
<title>Node2&#45;&gt;Node3</title>
<path fill="none" stroke="midnightblue" d="M175.78,-202.44C148.45,-189.57 107.45,-170.26 83.9,-159.17"/>
<polygon fill="midnightblue" stroke="midnightblue" points="174.64,-205.77 185.17,-206.87 177.62,-199.44 174.64,-205.77"/>
</g>
<!-- Node4 -->
<g id="node4" class="node">
<title>Node4</title>
<g id="a_node4"><a xlink:href="guwhiteboardserialiser_8c.html" target="_top" xlink:title=" ">
<polygon fill="none" stroke="black" points="149,-140 149,-159 270,-159 270,-140 149,-140"/>
<text text-anchor="middle" x="209.5" y="-147" font-family="Helvetica,sans-Serif" font-size="10.00">guwhiteboardserialiser.c</text>
</a>
</g>
</g>
<!-- Node2&#45;&gt;Node4 -->
<g id="edge3" class="edge">
<title>Node2&#45;&gt;Node4</title>
<path fill="none" stroke="midnightblue" d="M205.25,-196.54C206.39,-184.17 207.83,-168.62 208.7,-159.13"/>
<polygon fill="midnightblue" stroke="midnightblue" points="201.74,-196.45 204.31,-206.73 208.71,-197.1 201.74,-196.45"/>
</g>
<!-- Node6 -->
<g id="node6" class="node">
<title>Node6</title>
<g id="a_node6"><a xlink:href="guwhiteboardposter_8h.html" target="_top" xlink:title=" ">
<polygon fill="none" stroke="black" points="298,-140 298,-159 407,-159 407,-140 298,-140"/>
<text text-anchor="middle" x="352.5" y="-147" font-family="Helvetica,sans-Serif" font-size="10.00">guwhiteboardposter.h</text>
</a>
</g>
</g>
<!-- Node5&#45;&gt;Node6 -->
<g id="edge5" class="edge">
<title>Node5&#45;&gt;Node6</title>
<path fill="none" stroke="midnightblue" d="M355.63,-191.25C354.77,-180.02 353.8,-167.38 353.17,-159.19"/>
<polygon fill="midnightblue" stroke="midnightblue" points="352.16,-191.69 356.42,-201.4 359.14,-191.16 352.16,-191.69"/>
</g>
<!-- Node12 -->
<g id="node12" class="node">
<title>Node12</title>
<g id="a_node12"><a xlink:href="_vision_detection_horizons_8h.html" target="_top" xlink:title=" ">
<polygon fill="none" stroke="black" points="425,-134.5 425,-164.5 576,-164.5 576,-134.5 425,-134.5"/>
<text text-anchor="start" x="433" y="-152.5" font-family="Helvetica,sans-Serif" font-size="10.00">typeClassDefs/VisionDetection</text>
<text text-anchor="middle" x="500.5" y="-141.5" font-family="Helvetica,sans-Serif" font-size="10.00">Horizons.h</text>
</a>
</g>
</g>
<!-- Node5&#45;&gt;Node12 -->
<g id="edge11" class="edge">
<title>Node5&#45;&gt;Node12</title>
<path fill="none" stroke="midnightblue" d="M397.91,-197.13C420.63,-186.8 448.56,-174.11 469.53,-164.58"/>
<polygon fill="midnightblue" stroke="midnightblue" points="396.18,-194.07 388.53,-201.4 399.08,-200.44 396.18,-194.07"/>
</g>
<!-- Node7 -->
<g id="node7" class="node">
<title>Node7</title>
<g id="a_node7"><a xlink:href="_simple_whiteboard_test_8h.html" target="_top" xlink:title=" ">
<polygon fill="none" stroke="black" points="153,-67.5 153,-97.5 278,-97.5 278,-67.5 153,-67.5"/>
<text text-anchor="start" x="161" y="-85.5" font-family="Helvetica,sans-Serif" font-size="10.00">SimpleWhiteboardTest</text>
<text text-anchor="middle" x="215.5" y="-74.5" font-family="Helvetica,sans-Serif" font-size="10.00">/SimpleWhiteboardTest.h</text>
</a>
</g>
</g>
<!-- Node6&#45;&gt;Node7 -->
<g id="edge6" class="edge">
<title>Node6&#45;&gt;Node7</title>
<path fill="none" stroke="midnightblue" d="M325.04,-135.47C301.88,-124.49 268.81,-108.79 245.07,-97.53"/>
<polygon fill="midnightblue" stroke="midnightblue" points="323.77,-138.74 334.31,-139.87 326.77,-132.42 323.77,-138.74"/>
</g>
<!-- Node9 -->
<g id="node9" class="node">
<title>Node9</title>
<g id="a_node9"><a xlink:href="guwhiteboardgetter_8h.html" target="_top" xlink:title=" ">
<polygon fill="none" stroke="black" points="299,-73 299,-92 406,-92 406,-73 299,-73"/>
<text text-anchor="middle" x="352.5" y="-80" font-family="Helvetica,sans-Serif" font-size="10.00">guwhiteboardgetter.h</text>
</a>
</g>
</g>
<!-- Node6&#45;&gt;Node9 -->
<g id="edge8" class="edge">
<title>Node6&#45;&gt;Node9</title>
<path fill="none" stroke="midnightblue" d="M352.5,-129.54C352.5,-117.17 352.5,-101.62 352.5,-92.13"/>
<polygon fill="midnightblue" stroke="midnightblue" points="349,-129.73 352.5,-139.73 356,-129.73 349,-129.73"/>
</g>
<!-- Node11 -->
<g id="node11" class="node">
<title>Node11</title>
<g id="a_node11"><a xlink:href="guwhiteboardposter_8cpp.html" target="_top" xlink:title=" ">
<polygon fill="none" stroke="black" points="424,-73 424,-92 543,-92 543,-73 424,-73"/>
<text text-anchor="middle" x="483.5" y="-80" font-family="Helvetica,sans-Serif" font-size="10.00">guwhiteboardposter.cpp</text>
</a>
</g>
</g>
<!-- Node6&#45;&gt;Node11 -->
<g id="edge10" class="edge">
<title>Node6&#45;&gt;Node11</title>
<path fill="none" stroke="midnightblue" d="M379.16,-135.27C405.1,-122.4 443.78,-103.21 466.03,-92.17"/>
<polygon fill="midnightblue" stroke="midnightblue" points="377.3,-132.29 369.9,-139.87 380.41,-138.56 377.3,-132.29"/>
</g>
<!-- Node8 -->
<g id="node8" class="node">
<title>Node8</title>
<g id="a_node8"><a xlink:href="_simple_whiteboard_test_8mm.html" target="_top" xlink:title=" ">
<polygon fill="none" stroke="black" points="142,-0.5 142,-30.5 279,-30.5 279,-0.5 142,-0.5"/>
<text text-anchor="start" x="150" y="-18.5" font-family="Helvetica,sans-Serif" font-size="10.00">SimpleWhiteboardTest</text>
<text text-anchor="middle" x="210.5" y="-7.5" font-family="Helvetica,sans-Serif" font-size="10.00">/SimpleWhiteboardTest.mm</text>
</a>
</g>
</g>
<!-- Node7&#45;&gt;Node8 -->
<g id="edge7" class="edge">
<title>Node7&#45;&gt;Node8</title>
<path fill="none" stroke="midnightblue" d="M213.65,-57.4C212.95,-48.37 212.19,-38.41 211.58,-30.58"/>
<polygon fill="midnightblue" stroke="midnightblue" points="210.16,-57.69 214.42,-67.4 217.14,-57.16 210.16,-57.69"/>
</g>
<!-- Node10 -->
<g id="node10" class="node">
<title>Node10</title>
<g id="a_node10"><a xlink:href="guwhiteboardgetter_8cpp.html" target="_top" xlink:title=" ">
<polygon fill="none" stroke="black" points="297,-6 297,-25 414,-25 414,-6 297,-6"/>
<text text-anchor="middle" x="355.5" y="-13" font-family="Helvetica,sans-Serif" font-size="10.00">guwhiteboardgetter.cpp</text>
</a>
</g>
</g>
<!-- Node9&#45;&gt;Node10 -->
<g id="edge9" class="edge">
<title>Node9&#45;&gt;Node10</title>
<path fill="none" stroke="midnightblue" d="M353.38,-62.54C353.95,-50.17 354.66,-34.62 355.1,-25.13"/>
<polygon fill="midnightblue" stroke="midnightblue" points="349.87,-62.58 352.9,-72.73 356.86,-62.91 349.87,-62.58"/>
</g>
</g>
</svg>
