<?xml version="1.0" encoding="UTF-8" standalone="no"?>
<!DOCTYPE svg PUBLIC "-//W3C//DTD SVG 1.1//EN"
 "http://www.w3.org/Graphics/SVG/1.1/DTD/svg11.dtd">
<!-- Generated by graphviz version 2.49.0 (20210830.1337)
 -->
<!-- Title: typeClassDefs/wb_adjust_position_confidence.c Pages: 1 -->
<svg width="444pt" height="162pt"
 viewBox="0.00 0.00 444.00 162.00" xmlns="http://www.w3.org/2000/svg" xmlns:xlink="http://www.w3.org/1999/xlink">
<g id="graph0" class="graph" transform="scale(1 1) rotate(0) translate(4 158)">
<title>typeClassDefs/wb_adjust_position_confidence.c</title>
<!-- Node1 -->
<g id="node1" class="node">
<title>Node1</title>
<g id="a_node1"><a xlink:title=" ">
<polygon fill="#bfbfbf" stroke="black" points="186,-123.5 186,-153.5 313,-153.5 313,-123.5 186,-123.5"/>
<text text-anchor="start" x="194" y="-141.5" font-family="Helvetica,sans-Serif" font-size="10.00">typeClassDefs/wb_adjust</text>
<text text-anchor="middle" x="249.5" y="-130.5" font-family="Helvetica,sans-Serif" font-size="10.00">_position_confidence.c</text>
</a>
</g>
</g>
<!-- Node2 -->
<g id="node2" class="node">
<title>Node2</title>
<g id="a_node2"><a xlink:href="wb__adjust__position__confidence_8h.html" target="_top" xlink:title=" ">
<polygon fill="none" stroke="black" points="10.5,-56.5 10.5,-86.5 110.5,-86.5 110.5,-56.5 10.5,-56.5"/>
<text text-anchor="start" x="18.5" y="-74.5" font-family="Helvetica,sans-Serif" font-size="10.00">wb_adjust_position</text>
<text text-anchor="middle" x="60.5" y="-63.5" font-family="Helvetica,sans-Serif" font-size="10.00">_confidence.h</text>
</a>
</g>
</g>
<!-- Node1&#45;&gt;Node2 -->
<g id="edge1" class="edge">
<title>Node1&#45;&gt;Node2</title>
<path fill="none" stroke="midnightblue" d="M208.49,-123.4C179.88,-113.56 141.53,-100.37 111.03,-89.88"/>
<polygon fill="midnightblue" stroke="midnightblue" points="112.02,-86.52 101.43,-86.58 109.75,-93.14 112.02,-86.52"/>
</g>
<!-- Node5 -->
<g id="node5" class="node">
<title>Node5</title>
<g id="a_node5"><a xlink:title=" ">
<polygon fill="none" stroke="#bfbfbf" points="129,-62 129,-81 174,-81 174,-62 129,-62"/>
<text text-anchor="middle" x="151.5" y="-69" font-family="Helvetica,sans-Serif" font-size="10.00">stdio.h</text>
</a>
</g>
</g>
<!-- Node1&#45;&gt;Node5 -->
<g id="edge4" class="edge">
<title>Node1&#45;&gt;Node5</title>
<path fill="none" stroke="midnightblue" d="M228.24,-123.4C211.8,-112.5 189.16,-97.48 172.73,-86.58"/>
<polygon fill="midnightblue" stroke="midnightblue" points="174.59,-83.62 164.33,-81.01 170.72,-89.45 174.59,-83.62"/>
</g>
<!-- Node6 -->
<g id="node6" class="node">
<title>Node6</title>
<g id="a_node6"><a xlink:title=" ">
<polygon fill="none" stroke="#bfbfbf" points="192.5,-62 192.5,-81 240.5,-81 240.5,-62 192.5,-62"/>
<text text-anchor="middle" x="216.5" y="-69" font-family="Helvetica,sans-Serif" font-size="10.00">string.h</text>
</a>
</g>
</g>
<!-- Node1&#45;&gt;Node6 -->
<g id="edge5" class="edge">
<title>Node1&#45;&gt;Node6</title>
<path fill="none" stroke="midnightblue" d="M242.34,-123.4C237.4,-113.66 230.79,-100.65 225.49,-90.21"/>
<polygon fill="midnightblue" stroke="midnightblue" points="228.56,-88.53 220.91,-81.19 222.32,-91.7 228.56,-88.53"/>
</g>
<!-- Node7 -->
<g id="node7" class="node">
<title>Node7</title>
<g id="a_node7"><a xlink:title=" ">
<polygon fill="none" stroke="#bfbfbf" points="259,-62 259,-81 306,-81 306,-62 259,-62"/>
<text text-anchor="middle" x="282.5" y="-69" font-family="Helvetica,sans-Serif" font-size="10.00">stdlib.h</text>
</a>
</g>
</g>
<!-- Node1&#45;&gt;Node7 -->
<g id="edge6" class="edge">
<title>Node1&#45;&gt;Node7</title>
<path fill="none" stroke="midnightblue" d="M256.66,-123.4C261.6,-113.66 268.21,-100.65 273.51,-90.21"/>
<polygon fill="midnightblue" stroke="midnightblue" points="276.68,-91.7 278.09,-81.19 270.44,-88.53 276.68,-91.7"/>
</g>
<!-- Node8 -->
<g id="node8" class="node">
<title>Node8</title>
<g id="a_node8"><a xlink:title=" ">
<polygon fill="none" stroke="#bfbfbf" points="324,-62 324,-81 371,-81 371,-62 324,-62"/>
<text text-anchor="middle" x="347.5" y="-69" font-family="Helvetica,sans-Serif" font-size="10.00">ctype.h</text>
</a>
</g>
</g>
<!-- Node1&#45;&gt;Node8 -->
<g id="edge7" class="edge">
<title>Node1&#45;&gt;Node8</title>
<path fill="none" stroke="midnightblue" d="M270.76,-123.4C287.2,-112.5 309.84,-97.48 326.27,-86.58"/>
<polygon fill="midnightblue" stroke="midnightblue" points="328.28,-89.45 334.67,-81.01 324.41,-83.62 328.28,-89.45"/>
</g>
<!-- Node9 -->
<g id="node9" class="node">
<title>Node9</title>
<g id="a_node9"><a xlink:title=" ">
<polygon fill="none" stroke="#bfbfbf" points="389,-62 389,-81 436,-81 436,-62 389,-62"/>
<text text-anchor="middle" x="412.5" y="-69" font-family="Helvetica,sans-Serif" font-size="10.00">limits.h</text>
</a>
</g>
</g>
<!-- Node1&#45;&gt;Node9 -->
<g id="edge8" class="edge">
<title>Node1&#45;&gt;Node9</title>
<path fill="none" stroke="midnightblue" d="M287.57,-123.49C313.83,-113.66 349.48,-100 380.5,-87 381.87,-86.43 383.27,-85.83 384.68,-85.22"/>
<polygon fill="midnightblue" stroke="midnightblue" points="386.24,-88.36 393.97,-81.12 383.4,-81.96 386.24,-88.36"/>
</g>
<!-- Node3 -->
<g id="node3" class="node">
<title>Node3</title>
<g id="a_node3"><a xlink:title=" ">
<polygon fill="none" stroke="#bfbfbf" points="0,-0.5 0,-19.5 53,-19.5 53,-0.5 0,-0.5"/>
<text text-anchor="middle" x="26.5" y="-7.5" font-family="Helvetica,sans-Serif" font-size="10.00">gu_util.h</text>
</a>
</g>
</g>
<!-- Node2&#45;&gt;Node3 -->
<g id="edge2" class="edge">
<title>Node2&#45;&gt;Node3</title>
<path fill="none" stroke="midnightblue" d="M52.44,-56.4C47.65,-48.02 41.54,-37.33 36.46,-28.42"/>
<polygon fill="midnightblue" stroke="midnightblue" points="39.45,-26.6 31.45,-19.66 33.37,-30.08 39.45,-26.6"/>
</g>
<!-- Node4 -->
<g id="node4" class="node">
<title>Node4</title>
<g id="a_node4"><a xlink:title=" ">
<polygon fill="none" stroke="#bfbfbf" points="71.5,-0.5 71.5,-19.5 119.5,-19.5 119.5,-0.5 71.5,-0.5"/>
<text text-anchor="middle" x="95.5" y="-7.5" font-family="Helvetica,sans-Serif" font-size="10.00">stdint.h</text>
</a>
</g>
</g>
<!-- Node2&#45;&gt;Node4 -->
<g id="edge3" class="edge">
<title>Node2&#45;&gt;Node4</title>
<path fill="none" stroke="midnightblue" d="M68.79,-56.4C73.72,-48.02 80.01,-37.33 85.25,-28.42"/>
<polygon fill="midnightblue" stroke="midnightblue" points="88.35,-30.05 90.41,-19.66 82.32,-26.5 88.35,-30.05"/>
</g>
</g>
</svg>
