<?xml version="1.0" encoding="UTF-8" standalone="no"?>
<!DOCTYPE svg PUBLIC "-//W3C//DTD SVG 1.1//EN"
 "http://www.w3.org/Graphics/SVG/1.1/DTD/svg11.dtd">
<!-- Generated by graphviz version 2.49.0 (20210830.1337)
 -->
<!-- Title: typeClassDefs/wb_machine_filtered_localisation_vision.c Pages: 1 -->
<svg width="460pt" height="229pt"
 viewBox="0.00 0.00 460.45 229.00" xmlns="http://www.w3.org/2000/svg" xmlns:xlink="http://www.w3.org/1999/xlink">
<g id="graph0" class="graph" transform="scale(1 1) rotate(0) translate(4 225)">
<title>typeClassDefs/wb_machine_filtered_localisation_vision.c</title>
<!-- Node1 -->
<g id="node1" class="node">
<title>Node1</title>
<g id="a_node1"><a xlink:title=" ">
<polygon fill="#bfbfbf" stroke="black" points="197.45,-179.5 197.45,-220.5 334.45,-220.5 334.45,-179.5 197.45,-179.5"/>
<text text-anchor="start" x="205.45" y="-208.5" font-family="Helvetica,sans-Serif" font-size="10.00">typeClassDefs/wb_machine</text>
<text text-anchor="start" x="205.45" y="-197.5" font-family="Helvetica,sans-Serif" font-size="10.00">_filtered_localisation</text>
<text text-anchor="middle" x="265.95" y="-186.5" font-family="Helvetica,sans-Serif" font-size="10.00">_vision.c</text>
</a>
</g>
</g>
<!-- Node2 -->
<g id="node2" class="node">
<title>Node2</title>
<g id="a_node2"><a xlink:href="wb__machine__filtered__localisation__vision_8h.html" target="_top" xlink:title=" ">
<polygon fill="none" stroke="black" points="18.45,-112.5 18.45,-142.5 127.45,-142.5 127.45,-112.5 18.45,-112.5"/>
<text text-anchor="start" x="26.45" y="-130.5" font-family="Helvetica,sans-Serif" font-size="10.00">wb_machine_filtered</text>
<text text-anchor="middle" x="72.95" y="-119.5" font-family="Helvetica,sans-Serif" font-size="10.00">_localisation_vision.h</text>
</a>
</g>
</g>
<!-- Node1&#45;&gt;Node2 -->
<g id="edge1" class="edge">
<title>Node1&#45;&gt;Node2</title>
<path fill="none" stroke="midnightblue" d="M212.45,-179.46C183.81,-168.99 148.82,-156.21 121.04,-146.07"/>
<polygon fill="midnightblue" stroke="midnightblue" points="122.14,-142.74 111.54,-142.6 119.74,-149.32 122.14,-142.74"/>
</g>
<!-- Node6 -->
<g id="node6" class="node">
<title>Node6</title>
<g id="a_node6"><a xlink:title=" ">
<polygon fill="none" stroke="#bfbfbf" points="145.45,-118 145.45,-137 190.45,-137 190.45,-118 145.45,-118"/>
<text text-anchor="middle" x="167.95" y="-125" font-family="Helvetica,sans-Serif" font-size="10.00">stdio.h</text>
</a>
</g>
</g>
<!-- Node1&#45;&gt;Node6 -->
<g id="edge7" class="edge">
<title>Node1&#45;&gt;Node6</title>
<path fill="none" stroke="midnightblue" d="M238.65,-179.36C222.71,-167.89 202.92,-153.65 188.34,-143.16"/>
<polygon fill="midnightblue" stroke="midnightblue" points="190.17,-140.17 180.01,-137.17 186.08,-145.85 190.17,-140.17"/>
</g>
<!-- Node7 -->
<g id="node7" class="node">
<title>Node7</title>
<g id="a_node7"><a xlink:title=" ">
<polygon fill="none" stroke="#bfbfbf" points="208.95,-118 208.95,-137 256.95,-137 256.95,-118 208.95,-118"/>
<text text-anchor="middle" x="232.95" y="-125" font-family="Helvetica,sans-Serif" font-size="10.00">string.h</text>
</a>
</g>
</g>
<!-- Node1&#45;&gt;Node7 -->
<g id="edge8" class="edge">
<title>Node1&#45;&gt;Node7</title>
<path fill="none" stroke="midnightblue" d="M256.76,-179.36C251.95,-169.08 246.1,-156.58 241.4,-146.54"/>
<polygon fill="midnightblue" stroke="midnightblue" points="244.42,-144.75 237.01,-137.17 238.08,-147.71 244.42,-144.75"/>
</g>
<!-- Node8 -->
<g id="node8" class="node">
<title>Node8</title>
<g id="a_node8"><a xlink:title=" ">
<polygon fill="none" stroke="#bfbfbf" points="275.45,-118 275.45,-137 322.45,-137 322.45,-118 275.45,-118"/>
<text text-anchor="middle" x="298.95" y="-125" font-family="Helvetica,sans-Serif" font-size="10.00">stdlib.h</text>
</a>
</g>
</g>
<!-- Node1&#45;&gt;Node8 -->
<g id="edge9" class="edge">
<title>Node1&#45;&gt;Node8</title>
<path fill="none" stroke="midnightblue" d="M275.15,-179.36C279.96,-169.08 285.81,-156.58 290.51,-146.54"/>
<polygon fill="midnightblue" stroke="midnightblue" points="293.82,-147.71 294.89,-137.17 287.48,-144.75 293.82,-147.71"/>
</g>
<!-- Node9 -->
<g id="node9" class="node">
<title>Node9</title>
<g id="a_node9"><a xlink:title=" ">
<polygon fill="none" stroke="#bfbfbf" points="340.45,-118 340.45,-137 387.45,-137 387.45,-118 340.45,-118"/>
<text text-anchor="middle" x="363.95" y="-125" font-family="Helvetica,sans-Serif" font-size="10.00">ctype.h</text>
</a>
</g>
</g>
<!-- Node1&#45;&gt;Node9 -->
<g id="edge10" class="edge">
<title>Node1&#45;&gt;Node9</title>
<path fill="none" stroke="midnightblue" d="M293.25,-179.36C309.2,-167.89 328.99,-153.65 343.57,-143.16"/>
<polygon fill="midnightblue" stroke="midnightblue" points="345.82,-145.85 351.9,-137.17 341.73,-140.17 345.82,-145.85"/>
</g>
<!-- Node10 -->
<g id="node10" class="node">
<title>Node10</title>
<g id="a_node10"><a xlink:title=" ">
<polygon fill="none" stroke="#bfbfbf" points="405.45,-118 405.45,-137 452.45,-137 452.45,-118 405.45,-118"/>
<text text-anchor="middle" x="428.95" y="-125" font-family="Helvetica,sans-Serif" font-size="10.00">limits.h</text>
</a>
</g>
</g>
<!-- Node1&#45;&gt;Node10 -->
<g id="edge11" class="edge">
<title>Node1&#45;&gt;Node10</title>
<path fill="none" stroke="midnightblue" d="M312.44,-179.42C337.53,-168.77 369,-155.31 396.95,-143 398.31,-142.4 399.71,-141.78 401.11,-141.16"/>
<polygon fill="midnightblue" stroke="midnightblue" points="402.68,-144.29 410.37,-137 399.81,-137.9 402.68,-144.29"/>
</g>
<!-- Node3 -->
<g id="node3" class="node">
<title>Node3</title>
<g id="a_node3"><a xlink:title=" ">
<polygon fill="none" stroke="#bfbfbf" points="6.45,-0.5 6.45,-19.5 59.45,-19.5 59.45,-0.5 6.45,-0.5"/>
<text text-anchor="middle" x="32.95" y="-7.5" font-family="Helvetica,sans-Serif" font-size="10.00">gu_util.h</text>
</a>
</g>
</g>
<!-- Node2&#45;&gt;Node3 -->
<g id="edge2" class="edge">
<title>Node2&#45;&gt;Node3</title>
<path fill="none" stroke="midnightblue" d="M41.61,-112.44C27.04,-104.11 11.14,-92.01 2.95,-76 -5.41,-59.66 5.86,-40.55 16.89,-27.29"/>
<polygon fill="midnightblue" stroke="midnightblue" points="19.8,-29.29 23.9,-19.52 14.6,-24.6 19.8,-29.29"/>
</g>
<!-- Node4 -->
<g id="node4" class="node">
<title>Node4</title>
<g id="a_node4"><a xlink:title=" ">
<polygon fill="none" stroke="#bfbfbf" points="87.95,-0.5 87.95,-19.5 135.95,-19.5 135.95,-0.5 87.95,-0.5"/>
<text text-anchor="middle" x="111.95" y="-7.5" font-family="Helvetica,sans-Serif" font-size="10.00">stdint.h</text>
</a>
</g>
</g>
<!-- Node2&#45;&gt;Node4 -->
<g id="edge3" class="edge">
<title>Node2&#45;&gt;Node4</title>
<path fill="none" stroke="midnightblue" d="M103.86,-112.34C118.23,-103.98 133.89,-91.89 141.95,-76 150.26,-59.63 139,-40.52 127.99,-27.28"/>
<polygon fill="midnightblue" stroke="midnightblue" points="130.28,-24.6 120.99,-19.51 125.08,-29.28 130.28,-24.6"/>
</g>
<!-- Node5 -->
<g id="node5" class="node">
<title>Node5</title>
<g id="a_node5"><a xlink:href="wb__landmark__sighting_8h.html" target="_top" xlink:title=" ">
<polygon fill="none" stroke="black" points="12.45,-56.5 12.45,-75.5 133.45,-75.5 133.45,-56.5 12.45,-56.5"/>
<text text-anchor="middle" x="72.95" y="-63.5" font-family="Helvetica,sans-Serif" font-size="10.00">wb_landmark_sighting.h</text>
</a>
</g>
</g>
<!-- Node2&#45;&gt;Node5 -->
<g id="edge4" class="edge">
<title>Node2&#45;&gt;Node5</title>
<path fill="none" stroke="midnightblue" d="M72.95,-112.4C72.95,-104.47 72.95,-94.46 72.95,-85.86"/>
<polygon fill="midnightblue" stroke="midnightblue" points="76.45,-85.66 72.95,-75.66 69.45,-85.66 76.45,-85.66"/>
</g>
<!-- Node5&#45;&gt;Node3 -->
<g id="edge5" class="edge">
<title>Node5&#45;&gt;Node3</title>
<path fill="none" stroke="midnightblue" d="M66.35,-56.08C60.7,-48.46 52.41,-37.26 45.5,-27.94"/>
<polygon fill="midnightblue" stroke="midnightblue" points="48.2,-25.7 39.44,-19.75 42.58,-29.87 48.2,-25.7"/>
</g>
<!-- Node5&#45;&gt;Node4 -->
<g id="edge6" class="edge">
<title>Node5&#45;&gt;Node4</title>
<path fill="none" stroke="midnightblue" d="M79.39,-56.08C84.9,-48.46 92.98,-37.26 99.72,-27.94"/>
<polygon fill="midnightblue" stroke="midnightblue" points="102.62,-29.91 105.63,-19.75 96.94,-25.81 102.62,-29.91"/>
</g>
</g>
</svg>
