<?xml version="1.0" encoding="UTF-8" standalone="no"?>
<!DOCTYPE svg PUBLIC "-//W3C//DTD SVG 1.1//EN"
 "http://www.w3.org/Graphics/SVG/1.1/DTD/svg11.dtd">
<!-- Generated by graphviz version 2.49.0 (20210830.1337)
 -->
<!-- Title: typeClassDefs/wb_r_m_s_levels.h Pages: 1 -->
<svg width="705pt" height="419pt"
 viewBox="0.00 0.00 704.50 419.00" xmlns="http://www.w3.org/2000/svg" xmlns:xlink="http://www.w3.org/1999/xlink">
<g id="graph0" class="graph" transform="scale(1 1) rotate(0) translate(4 415)">
<title>typeClassDefs/wb_r_m_s_levels.h</title>
<!-- Node1 -->
<g id="node1" class="node">
<title>Node1</title>
<g id="a_node1"><a xlink:title=" ">
<polygon fill="#bfbfbf" stroke="black" points="419.5,-380.5 419.5,-410.5 523.5,-410.5 523.5,-380.5 419.5,-380.5"/>
<text text-anchor="start" x="427.5" y="-398.5" font-family="Helvetica,sans-Serif" font-size="10.00">typeClassDefs/wb_r</text>
<text text-anchor="middle" x="471.5" y="-387.5" font-family="Helvetica,sans-Serif" font-size="10.00">_m_s_levels.h</text>
</a>
</g>
</g>
<!-- Node2 -->
<g id="node2" class="node">
<title>Node2</title>
<g id="a_node2"><a xlink:href="_r_m_s_levels_8hpp.html" target="_top" xlink:title=" ">
<polygon fill="none" stroke="black" points="225.5,-319 225.5,-338 377.5,-338 377.5,-319 225.5,-319"/>
<text text-anchor="middle" x="301.5" y="-326" font-family="Helvetica,sans-Serif" font-size="10.00">typeClassDefs/RMSLevels.hpp</text>
</a>
</g>
</g>
<!-- Node1&#45;&gt;Node2 -->
<g id="edge1" class="edge">
<title>Node1&#45;&gt;Node2</title>
<path fill="none" stroke="midnightblue" d="M425.17,-376.78C392.2,-364.18 349.38,-347.81 323.75,-338.01"/>
<polygon fill="midnightblue" stroke="midnightblue" points="424.02,-380.09 434.61,-380.4 426.52,-373.56 424.02,-380.09"/>
</g>
<!-- Node12 -->
<g id="node12" class="node">
<title>Node12</title>
<g id="a_node12"><a xlink:href="wb__dominant__frequencies_8h.html" target="_top" xlink:title=" ">
<polygon fill="none" stroke="black" points="401.5,-313.5 401.5,-343.5 541.5,-343.5 541.5,-313.5 401.5,-313.5"/>
<text text-anchor="start" x="409.5" y="-331.5" font-family="Helvetica,sans-Serif" font-size="10.00">typeClassDefs/wb_dominant</text>
<text text-anchor="middle" x="471.5" y="-320.5" font-family="Helvetica,sans-Serif" font-size="10.00">_frequencies.h</text>
</a>
</g>
</g>
<!-- Node1&#45;&gt;Node12 -->
<g id="edge11" class="edge">
<title>Node1&#45;&gt;Node12</title>
<path fill="none" stroke="midnightblue" d="M471.5,-370.11C471.5,-361.15 471.5,-351.32 471.5,-343.58"/>
<polygon fill="midnightblue" stroke="midnightblue" points="468,-370.4 471.5,-380.4 475,-370.4 468,-370.4"/>
</g>
<!-- Node17 -->
<g id="node17" class="node">
<title>Node17</title>
<g id="a_node17"><a xlink:href="wb__r__m__s__levels_8c.html" target="_top" xlink:title=" ">
<polygon fill="none" stroke="black" points="559.5,-313.5 559.5,-343.5 663.5,-343.5 663.5,-313.5 559.5,-313.5"/>
<text text-anchor="start" x="567.5" y="-331.5" font-family="Helvetica,sans-Serif" font-size="10.00">typeClassDefs/wb_r</text>
<text text-anchor="middle" x="611.5" y="-320.5" font-family="Helvetica,sans-Serif" font-size="10.00">_m_s_levels.c</text>
</a>
</g>
</g>
<!-- Node1&#45;&gt;Node17 -->
<g id="edge17" class="edge">
<title>Node1&#45;&gt;Node17</title>
<path fill="none" stroke="midnightblue" d="M511.07,-376.13C533.31,-365.8 560.65,-353.11 581.18,-343.58"/>
<polygon fill="midnightblue" stroke="midnightblue" points="509.47,-373.01 501.88,-380.4 512.42,-379.36 509.47,-373.01"/>
</g>
<!-- Node3 -->
<g id="node3" class="node">
<title>Node3</title>
<g id="a_node3"><a xlink:href="_r_m_s_levels_8h.html" target="_top" xlink:title=" ">
<polygon fill="none" stroke="black" points="219,-252 219,-271 360,-271 360,-252 219,-252"/>
<text text-anchor="middle" x="289.5" y="-259" font-family="Helvetica,sans-Serif" font-size="10.00">typeClassDefs/RMSLevels.h</text>
</a>
</g>
</g>
<!-- Node2&#45;&gt;Node3 -->
<g id="edge2" class="edge">
<title>Node2&#45;&gt;Node3</title>
<path fill="none" stroke="midnightblue" d="M298,-308.54C295.72,-296.17 292.85,-280.62 291.09,-271.13"/>
<polygon fill="midnightblue" stroke="midnightblue" points="294.62,-309.54 299.88,-318.73 301.51,-308.26 294.62,-309.54"/>
</g>
<!-- Node4 -->
<g id="node4" class="node">
<title>Node4</title>
<g id="a_node4"><a xlink:href="_dominant_frequencies_8hpp.html" target="_top" xlink:title=" ">
<polygon fill="none" stroke="black" points="195,-190.5 195,-209.5 390,-209.5 390,-190.5 195,-190.5"/>
<text text-anchor="middle" x="292.5" y="-197.5" font-family="Helvetica,sans-Serif" font-size="10.00">typeClassDefs/DominantFrequencies.hpp</text>
</a>
</g>
</g>
<!-- Node3&#45;&gt;Node4 -->
<g id="edge3" class="edge">
<title>Node3&#45;&gt;Node4</title>
<path fill="none" stroke="midnightblue" d="M290.44,-241.82C290.99,-231 291.65,-217.9 292.07,-209.51"/>
<polygon fill="midnightblue" stroke="midnightblue" points="286.94,-241.81 289.93,-251.98 293.93,-242.16 286.94,-241.81"/>
</g>
<!-- Node5 -->
<g id="node5" class="node">
<title>Node5</title>
<g id="a_node5"><a xlink:href="guwhiteboardposter_8h.html" target="_top" xlink:title=" ">
<polygon fill="none" stroke="black" points="156,-134.5 156,-153.5 265,-153.5 265,-134.5 156,-134.5"/>
<text text-anchor="middle" x="210.5" y="-141.5" font-family="Helvetica,sans-Serif" font-size="10.00">guwhiteboardposter.h</text>
</a>
</g>
</g>
<!-- Node4&#45;&gt;Node5 -->
<g id="edge4" class="edge">
<title>Node4&#45;&gt;Node5</title>
<path fill="none" stroke="midnightblue" d="M270.67,-184.62C255.69,-174.76 236.3,-161.99 223.64,-153.65"/>
<polygon fill="midnightblue" stroke="midnightblue" points="269.05,-187.75 279.33,-190.32 272.9,-181.9 269.05,-187.75"/>
</g>
<!-- Node11 -->
<g id="node11" class="node">
<title>Node11</title>
<g id="a_node11"><a xlink:href="_dominant_frequencies_8h.html" target="_top" xlink:title=" ">
<polygon fill="none" stroke="black" points="283,-134.5 283,-153.5 468,-153.5 468,-134.5 283,-134.5"/>
<text text-anchor="middle" x="375.5" y="-141.5" font-family="Helvetica,sans-Serif" font-size="10.00">typeClassDefs/DominantFrequencies.h</text>
</a>
</g>
</g>
<!-- Node4&#45;&gt;Node11 -->
<g id="edge10" class="edge">
<title>Node4&#45;&gt;Node11</title>
<path fill="none" stroke="midnightblue" d="M314.6,-184.62C329.76,-174.76 349.38,-161.99 362.2,-153.65"/>
<polygon fill="midnightblue" stroke="midnightblue" points="312.31,-181.94 305.84,-190.32 316.13,-187.8 312.31,-181.94"/>
</g>
<!-- Node6 -->
<g id="node6" class="node">
<title>Node6</title>
<g id="a_node6"><a xlink:href="_simple_whiteboard_test_8h.html" target="_top" xlink:title=" ">
<polygon fill="none" stroke="black" points="11,-67.5 11,-97.5 136,-97.5 136,-67.5 11,-67.5"/>
<text text-anchor="start" x="19" y="-85.5" font-family="Helvetica,sans-Serif" font-size="10.00">SimpleWhiteboardTest</text>
<text text-anchor="middle" x="73.5" y="-74.5" font-family="Helvetica,sans-Serif" font-size="10.00">/SimpleWhiteboardTest.h</text>
</a>
</g>
</g>
<!-- Node5&#45;&gt;Node6 -->
<g id="edge5" class="edge">
<title>Node5&#45;&gt;Node6</title>
<path fill="none" stroke="midnightblue" d="M181.63,-130.46C159.44,-120.82 128.79,-107.51 105.79,-97.52"/>
<polygon fill="midnightblue" stroke="midnightblue" points="180.3,-133.7 190.87,-134.48 183.09,-127.28 180.3,-133.7"/>
</g>
<!-- Node8 -->
<g id="node8" class="node">
<title>Node8</title>
<g id="a_node8"><a xlink:href="guwhiteboardgetter_8h.html" target="_top" xlink:title=" ">
<polygon fill="none" stroke="black" points="157,-73 157,-92 264,-92 264,-73 157,-73"/>
<text text-anchor="middle" x="210.5" y="-80" font-family="Helvetica,sans-Serif" font-size="10.00">guwhiteboardgetter.h</text>
</a>
</g>
</g>
<!-- Node5&#45;&gt;Node8 -->
<g id="edge7" class="edge">
<title>Node5&#45;&gt;Node8</title>
<path fill="none" stroke="midnightblue" d="M210.5,-124.32C210.5,-113.5 210.5,-100.4 210.5,-92.01"/>
<polygon fill="midnightblue" stroke="midnightblue" points="207,-124.48 210.5,-134.48 214,-124.48 207,-124.48"/>
</g>
<!-- Node10 -->
<g id="node10" class="node">
<title>Node10</title>
<g id="a_node10"><a xlink:href="guwhiteboardposter_8cpp.html" target="_top" xlink:title=" ">
<polygon fill="none" stroke="black" points="282,-73 282,-92 401,-92 401,-73 282,-73"/>
<text text-anchor="middle" x="341.5" y="-80" font-family="Helvetica,sans-Serif" font-size="10.00">guwhiteboardposter.cpp</text>
</a>
</g>
</g>
<!-- Node5&#45;&gt;Node10 -->
<g id="edge9" class="edge">
<title>Node5&#45;&gt;Node10</title>
<path fill="none" stroke="midnightblue" d="M238.4,-130.33C263.83,-118.78 300.7,-102.03 322.77,-92.01"/>
<polygon fill="midnightblue" stroke="midnightblue" points="236.93,-127.15 229.27,-134.48 239.82,-133.53 236.93,-127.15"/>
</g>
<!-- Node7 -->
<g id="node7" class="node">
<title>Node7</title>
<g id="a_node7"><a xlink:href="_simple_whiteboard_test_8mm.html" target="_top" xlink:title=" ">
<polygon fill="none" stroke="black" points="0,-0.5 0,-30.5 137,-30.5 137,-0.5 0,-0.5"/>
<text text-anchor="start" x="8" y="-18.5" font-family="Helvetica,sans-Serif" font-size="10.00">SimpleWhiteboardTest</text>
<text text-anchor="middle" x="68.5" y="-7.5" font-family="Helvetica,sans-Serif" font-size="10.00">/SimpleWhiteboardTest.mm</text>
</a>
</g>
</g>
<!-- Node6&#45;&gt;Node7 -->
<g id="edge6" class="edge">
<title>Node6&#45;&gt;Node7</title>
<path fill="none" stroke="midnightblue" d="M71.65,-57.4C70.95,-48.37 70.19,-38.41 69.58,-30.58"/>
<polygon fill="midnightblue" stroke="midnightblue" points="68.16,-57.69 72.42,-67.4 75.14,-57.16 68.16,-57.69"/>
</g>
<!-- Node9 -->
<g id="node9" class="node">
<title>Node9</title>
<g id="a_node9"><a xlink:href="guwhiteboardgetter_8cpp.html" target="_top" xlink:title=" ">
<polygon fill="none" stroke="black" points="155,-6 155,-25 272,-25 272,-6 155,-6"/>
<text text-anchor="middle" x="213.5" y="-13" font-family="Helvetica,sans-Serif" font-size="10.00">guwhiteboardgetter.cpp</text>
</a>
</g>
</g>
<!-- Node8&#45;&gt;Node9 -->
<g id="edge8" class="edge">
<title>Node8&#45;&gt;Node9</title>
<path fill="none" stroke="midnightblue" d="M211.38,-62.54C211.95,-50.17 212.66,-34.62 213.1,-25.13"/>
<polygon fill="midnightblue" stroke="midnightblue" points="207.87,-62.58 210.9,-72.73 214.86,-62.91 207.87,-62.58"/>
</g>
<!-- Node12&#45;&gt;Node4 -->
<g id="edge15" class="edge">
<title>Node12&#45;&gt;Node4</title>
<path fill="none" stroke="midnightblue" d="M445.89,-306.94C418.02,-284.62 376.37,-251.41 368.5,-246 348.41,-232.19 323.95,-218.18 308.31,-209.54"/>
<polygon fill="midnightblue" stroke="midnightblue" points="443.7,-309.67 453.69,-313.2 448.08,-304.21 443.7,-309.67"/>
</g>
<!-- Node13 -->
<g id="node13" class="node">
<title>Node13</title>
<g id="a_node13"><a xlink:href="guwhiteboard__c__types_8h.html" target="_top" xlink:title=" ">
<polygon fill="none" stroke="black" points="417,-252 417,-271 538,-271 538,-252 417,-252"/>
<text text-anchor="middle" x="477.5" y="-259" font-family="Helvetica,sans-Serif" font-size="10.00">guwhiteboard_c_types.h</text>
</a>
</g>
</g>
<!-- Node12&#45;&gt;Node13 -->
<g id="edge12" class="edge">
<title>Node12&#45;&gt;Node13</title>
<path fill="none" stroke="midnightblue" d="M473.74,-303.25C474.78,-292.02 475.94,-279.38 476.7,-271.19"/>
<polygon fill="midnightblue" stroke="midnightblue" points="470.24,-303.12 472.8,-313.4 477.21,-303.76 470.24,-303.12"/>
</g>
<!-- Node16 -->
<g id="node16" class="node">
<title>Node16</title>
<g id="a_node16"><a xlink:href="wb__dominant__frequencies_8c.html" target="_top" xlink:title=" ">
<polygon fill="none" stroke="black" points="556.5,-246.5 556.5,-276.5 696.5,-276.5 696.5,-246.5 556.5,-246.5"/>
<text text-anchor="start" x="564.5" y="-264.5" font-family="Helvetica,sans-Serif" font-size="10.00">typeClassDefs/wb_dominant</text>
<text text-anchor="middle" x="626.5" y="-253.5" font-family="Helvetica,sans-Serif" font-size="10.00">_frequencies.c</text>
</a>
</g>
</g>
<!-- Node12&#45;&gt;Node16 -->
<g id="edge16" class="edge">
<title>Node12&#45;&gt;Node16</title>
<path fill="none" stroke="midnightblue" d="M514.65,-309.41C539.39,-299.03 570,-286.2 592.93,-276.58"/>
<polygon fill="midnightblue" stroke="midnightblue" points="513,-306.3 505.13,-313.4 515.71,-312.76 513,-306.3"/>
</g>
<!-- Node14 -->
<g id="node14" class="node">
<title>Node14</title>
<g id="a_node14"><a xlink:href="guwhiteboarddeserialiser_8c.html" target="_top" xlink:title=" ">
<polygon fill="none" stroke="black" points="410,-190.5 410,-209.5 541,-209.5 541,-190.5 410,-190.5"/>
<text text-anchor="middle" x="475.5" y="-197.5" font-family="Helvetica,sans-Serif" font-size="10.00">guwhiteboarddeserialiser.c</text>
</a>
</g>
</g>
<!-- Node13&#45;&gt;Node14 -->
<g id="edge13" class="edge">
<title>Node13&#45;&gt;Node14</title>
<path fill="none" stroke="midnightblue" d="M476.87,-241.82C476.51,-231 476.07,-217.9 475.79,-209.51"/>
<polygon fill="midnightblue" stroke="midnightblue" points="473.38,-242.1 477.21,-251.98 480.38,-241.86 473.38,-242.1"/>
</g>
<!-- Node15 -->
<g id="node15" class="node">
<title>Node15</title>
<g id="a_node15"><a xlink:href="guwhiteboardserialiser_8c.html" target="_top" xlink:title=" ">
<polygon fill="none" stroke="black" points="559,-190.5 559,-209.5 680,-209.5 680,-190.5 559,-190.5"/>
<text text-anchor="middle" x="619.5" y="-197.5" font-family="Helvetica,sans-Serif" font-size="10.00">guwhiteboardserialiser.c</text>
</a>
</g>
</g>
<!-- Node13&#45;&gt;Node15 -->
<g id="edge14" class="edge">
<title>Node13&#45;&gt;Node15</title>
<path fill="none" stroke="midnightblue" d="M507.38,-247.98C534.96,-236.42 575.17,-219.58 599.19,-209.51"/>
<polygon fill="midnightblue" stroke="midnightblue" points="505.72,-244.88 497.85,-251.98 508.42,-251.34 505.72,-244.88"/>
</g>
</g>
</svg>
