<?xml version="1.0" encoding="UTF-8" standalone="no"?>
<!DOCTYPE svg PUBLIC "-//W3C//DTD SVG 1.1//EN"
 "http://www.w3.org/Graphics/SVG/1.1/DTD/svg11.dtd">
<!-- Generated by graphviz version 2.49.0 (20210830.1337)
 -->
<!-- Title: typeClassDefs/wb_odometry.h Pages: 1 -->
<svg width="188pt" height="84pt"
 viewBox="0.00 0.00 187.50 84.00" xmlns="http://www.w3.org/2000/svg" xmlns:xlink="http://www.w3.org/1999/xlink">
<g id="graph0" class="graph" transform="scale(1 1) rotate(0) translate(4 80)">
<title>typeClassDefs/wb_odometry.h</title>
<!-- Node1 -->
<g id="node1" class="node">
<title>Node1</title>
<g id="a_node1"><a xlink:title=" ">
<polygon fill="#bfbfbf" stroke="black" points="21.5,-56.5 21.5,-75.5 169.5,-75.5 169.5,-56.5 21.5,-56.5"/>
<text text-anchor="middle" x="95.5" y="-63.5" font-family="Helvetica,sans-Serif" font-size="10.00">typeClassDefs/wb_odometry.h</text>
</a>
</g>
</g>
<!-- Node2 -->
<g id="node2" class="node">
<title>Node2</title>
<g id="a_node2"><a xlink:title=" ">
<polygon fill="none" stroke="#bfbfbf" points="0,-0.5 0,-19.5 53,-19.5 53,-0.5 0,-0.5"/>
<text text-anchor="middle" x="26.5" y="-7.5" font-family="Helvetica,sans-Serif" font-size="10.00">gu_util.h</text>
</a>
</g>
</g>
<!-- Node1&#45;&gt;Node2 -->
<g id="edge1" class="edge">
<title>Node1&#45;&gt;Node2</title>
<path fill="none" stroke="midnightblue" d="M84.41,-56.32C74.01,-48.18 58.24,-35.84 45.78,-26.09"/>
<polygon fill="midnightblue" stroke="midnightblue" points="47.82,-23.24 37.79,-19.83 43.51,-28.75 47.82,-23.24"/>
</g>
<!-- Node3 -->
<g id="node3" class="node">
<title>Node3</title>
<g id="a_node3"><a xlink:title=" ">
<polygon fill="none" stroke="#bfbfbf" points="71.5,-0.5 71.5,-19.5 119.5,-19.5 119.5,-0.5 71.5,-0.5"/>
<text text-anchor="middle" x="95.5" y="-7.5" font-family="Helvetica,sans-Serif" font-size="10.00">stdint.h</text>
</a>
</g>
</g>
<!-- Node1&#45;&gt;Node3 -->
<g id="edge2" class="edge">
<title>Node1&#45;&gt;Node3</title>
<path fill="none" stroke="midnightblue" d="M95.5,-56.08C95.5,-49.01 95.5,-38.86 95.5,-29.99"/>
<polygon fill="midnightblue" stroke="midnightblue" points="99,-29.75 95.5,-19.75 92,-29.75 99,-29.75"/>
</g>
<!-- Node4 -->
<g id="node4" class="node">
<title>Node4</title>
<g id="a_node4"><a xlink:title=" ">
<polygon fill="none" stroke="#bfbfbf" points="137.5,-0.5 137.5,-19.5 179.5,-19.5 179.5,-0.5 137.5,-0.5"/>
<text text-anchor="middle" x="158.5" y="-7.5" font-family="Helvetica,sans-Serif" font-size="10.00">float.h</text>
</a>
</g>
</g>
<!-- Node1&#45;&gt;Node4 -->
<g id="edge3" class="edge">
<title>Node1&#45;&gt;Node4</title>
<path fill="none" stroke="midnightblue" d="M105.62,-56.32C115.03,-48.26 129.24,-36.08 140.57,-26.37"/>
<polygon fill="midnightblue" stroke="midnightblue" points="142.88,-29 148.19,-19.83 138.32,-23.68 142.88,-29"/>
</g>
</g>
</svg>
