<?xml version="1.0" encoding="UTF-8" standalone="no"?>
<!DOCTYPE svg PUBLIC "-//W3C//DTD SVG 1.1//EN"
 "http://www.w3.org/Graphics/SVG/1.1/DTD/svg11.dtd">
<!-- Generated by graphviz version 2.49.0 (20210830.1337)
 -->
<!-- Title: typeClassDefs/wb_vision_detection_features.h Pages: 1 -->
<svg width="267pt" height="285pt"
 viewBox="0.00 0.00 266.50 285.00" xmlns="http://www.w3.org/2000/svg" xmlns:xlink="http://www.w3.org/1999/xlink">
<g id="graph0" class="graph" transform="scale(1 1) rotate(0) translate(4 281)">
<title>typeClassDefs/wb_vision_detection_features.h</title>
<!-- Node1 -->
<g id="node1" class="node">
<title>Node1</title>
<g id="a_node1"><a xlink:title=" ">
<polygon fill="#bfbfbf" stroke="black" points="65,-246.5 65,-276.5 191,-276.5 191,-246.5 65,-246.5"/>
<text text-anchor="start" x="73" y="-264.5" font-family="Helvetica,sans-Serif" font-size="10.00">typeClassDefs/wb_vision</text>
<text text-anchor="middle" x="128" y="-253.5" font-family="Helvetica,sans-Serif" font-size="10.00">_detection_features.h</text>
</a>
</g>
</g>
<!-- Node2 -->
<g id="node2" class="node">
<title>Node2</title>
<g id="a_node2"><a xlink:title=" ">
<polygon fill="none" stroke="#bfbfbf" points="205.5,-0.5 205.5,-19.5 258.5,-19.5 258.5,-0.5 205.5,-0.5"/>
<text text-anchor="middle" x="232" y="-7.5" font-family="Helvetica,sans-Serif" font-size="10.00">gu_util.h</text>
</a>
</g>
</g>
<!-- Node1&#45;&gt;Node2 -->
<g id="edge1" class="edge">
<title>Node1&#45;&gt;Node2</title>
<path fill="none" stroke="midnightblue" d="M151.07,-246.39C164.09,-237.4 179.76,-224.69 190,-210 226.02,-158.35 225.64,-138.11 236,-76 238.56,-60.65 237.21,-43.01 235.42,-29.98"/>
<polygon fill="midnightblue" stroke="midnightblue" points="238.84,-29.22 233.81,-19.9 231.93,-30.32 238.84,-29.22"/>
</g>
<!-- Node3 -->
<g id="node3" class="node">
<title>Node3</title>
<g id="a_node3"><a xlink:title=" ">
<polygon fill="none" stroke="#bfbfbf" points="0,-0.5 0,-19.5 48,-19.5 48,-0.5 0,-0.5"/>
<text text-anchor="middle" x="24" y="-7.5" font-family="Helvetica,sans-Serif" font-size="10.00">stdint.h</text>
</a>
</g>
</g>
<!-- Node1&#45;&gt;Node3 -->
<g id="edge2" class="edge">
<title>Node1&#45;&gt;Node3</title>
<path fill="none" stroke="midnightblue" d="M104.4,-246.33C91.37,-237.4 75.87,-224.78 66,-210 27.8,-152.78 23.42,-67.38 23.51,-29.85"/>
<polygon fill="midnightblue" stroke="midnightblue" points="27.01,-29.87 23.64,-19.82 20.01,-29.77 27.01,-29.87"/>
</g>
<!-- Node4 -->
<g id="node4" class="node">
<title>Node4</title>
<g id="a_node4"><a xlink:href="wb__vision__detection__feature__array_8h.html" target="_top" xlink:title=" ">
<polygon fill="none" stroke="black" points="75.5,-179.5 75.5,-209.5 180.5,-209.5 180.5,-179.5 75.5,-179.5"/>
<text text-anchor="start" x="83.5" y="-197.5" font-family="Helvetica,sans-Serif" font-size="10.00">wb_vision_detection</text>
<text text-anchor="middle" x="128" y="-186.5" font-family="Helvetica,sans-Serif" font-size="10.00">_feature_array.h</text>
</a>
</g>
</g>
<!-- Node1&#45;&gt;Node4 -->
<g id="edge3" class="edge">
<title>Node1&#45;&gt;Node4</title>
<path fill="none" stroke="midnightblue" d="M128,-246.4C128,-238.64 128,-228.81 128,-219.86"/>
<polygon fill="midnightblue" stroke="midnightblue" points="131.5,-219.58 128,-209.58 124.5,-219.58 131.5,-219.58"/>
</g>
<!-- Node4&#45;&gt;Node2 -->
<g id="edge4" class="edge">
<title>Node4&#45;&gt;Node2</title>
<path fill="none" stroke="midnightblue" d="M150.63,-179.5C163.66,-170.46 179.48,-157.67 190,-143 215.26,-107.78 225.77,-56.71 229.78,-29.58"/>
<polygon fill="midnightblue" stroke="midnightblue" points="233.27,-29.91 231.12,-19.53 226.33,-28.98 233.27,-29.91"/>
</g>
<!-- Node4&#45;&gt;Node3 -->
<g id="edge5" class="edge">
<title>Node4&#45;&gt;Node3</title>
<path fill="none" stroke="midnightblue" d="M104.85,-179.44C91.81,-170.47 76.15,-157.76 66,-143 41.56,-107.45 30.75,-56.91 26.47,-29.84"/>
<polygon fill="midnightblue" stroke="midnightblue" points="29.91,-29.19 25.01,-19.79 22.98,-30.19 29.91,-29.19"/>
</g>
<!-- Node5 -->
<g id="node5" class="node">
<title>Node5</title>
<g id="a_node5"><a xlink:href="wb__vision__detection__feature_8h.html" target="_top" xlink:title=" ">
<polygon fill="none" stroke="black" points="75.5,-112.5 75.5,-142.5 180.5,-142.5 180.5,-112.5 75.5,-112.5"/>
<text text-anchor="start" x="83.5" y="-130.5" font-family="Helvetica,sans-Serif" font-size="10.00">wb_vision_detection</text>
<text text-anchor="middle" x="128" y="-119.5" font-family="Helvetica,sans-Serif" font-size="10.00">_feature.h</text>
</a>
</g>
</g>
<!-- Node4&#45;&gt;Node5 -->
<g id="edge6" class="edge">
<title>Node4&#45;&gt;Node5</title>
<path fill="none" stroke="midnightblue" d="M128,-179.4C128,-171.64 128,-161.81 128,-152.86"/>
<polygon fill="midnightblue" stroke="midnightblue" points="131.5,-152.58 128,-142.58 124.5,-152.58 131.5,-152.58"/>
</g>
<!-- Node5&#45;&gt;Node2 -->
<g id="edge7" class="edge">
<title>Node5&#45;&gt;Node2</title>
<path fill="none" stroke="midnightblue" d="M150.58,-112.48C164.24,-103.26 181.39,-90.28 194,-76 206.55,-61.79 217.07,-42.82 223.84,-29.04"/>
<polygon fill="midnightblue" stroke="midnightblue" points="227.16,-30.22 228.26,-19.68 220.83,-27.23 227.16,-30.22"/>
</g>
<!-- Node5&#45;&gt;Node3 -->
<g id="edge8" class="edge">
<title>Node5&#45;&gt;Node3</title>
<path fill="none" stroke="midnightblue" d="M105.42,-112.48C91.76,-103.26 74.61,-90.28 62,-76 49.45,-61.79 38.93,-42.82 32.16,-29.04"/>
<polygon fill="midnightblue" stroke="midnightblue" points="35.17,-27.23 27.74,-19.68 28.84,-30.22 35.17,-27.23"/>
</g>
<!-- Node6 -->
<g id="node6" class="node">
<title>Node6</title>
<g id="a_node6"><a xlink:href="wb__polar__coordinate_8h.html" target="_top" xlink:title=" ">
<polygon fill="none" stroke="black" points="71.5,-56.5 71.5,-75.5 184.5,-75.5 184.5,-56.5 71.5,-56.5"/>
<text text-anchor="middle" x="128" y="-63.5" font-family="Helvetica,sans-Serif" font-size="10.00">wb_polar_coordinate.h</text>
</a>
</g>
</g>
<!-- Node5&#45;&gt;Node6 -->
<g id="edge9" class="edge">
<title>Node5&#45;&gt;Node6</title>
<path fill="none" stroke="midnightblue" d="M128,-112.4C128,-104.47 128,-94.46 128,-85.86"/>
<polygon fill="midnightblue" stroke="midnightblue" points="131.5,-85.66 128,-75.66 124.5,-85.66 131.5,-85.66"/>
</g>
<!-- Node6&#45;&gt;Node2 -->
<g id="edge10" class="edge">
<title>Node6&#45;&gt;Node2</title>
<path fill="none" stroke="midnightblue" d="M144.71,-56.32C161.31,-47.7 187,-34.36 206.22,-24.39"/>
<polygon fill="midnightblue" stroke="midnightblue" points="208.07,-27.37 215.33,-19.65 204.84,-21.16 208.07,-27.37"/>
</g>
<!-- Node6&#45;&gt;Node3 -->
<g id="edge11" class="edge">
<title>Node6&#45;&gt;Node3</title>
<path fill="none" stroke="midnightblue" d="M111.29,-56.32C94.69,-47.7 69,-34.36 49.78,-24.39"/>
<polygon fill="midnightblue" stroke="midnightblue" points="51.16,-21.16 40.67,-19.65 47.93,-27.37 51.16,-21.16"/>
</g>
</g>
</svg>
