<?xml version="1.0" encoding="UTF-8" standalone="no"?>
<!DOCTYPE svg PUBLIC "-//W3C//DTD SVG 1.1//EN"
 "http://www.w3.org/Graphics/SVG/1.1/DTD/svg11.dtd">
<!-- Generated by graphviz version 2.49.0 (20210830.1337)
 -->
<!-- Title: typeClassDefs/wb_vision_detection_feature.h Pages: 1 -->
<svg width="716pt" height="575pt"
 viewBox="0.00 0.00 715.50 575.00" xmlns="http://www.w3.org/2000/svg" xmlns:xlink="http://www.w3.org/1999/xlink">
<g id="graph0" class="graph" transform="scale(1 1) rotate(0) translate(4 571)">
<title>typeClassDefs/wb_vision_detection_feature.h</title>
<!-- Node1 -->
<g id="node1" class="node">
<title>Node1</title>
<g id="a_node1"><a xlink:title=" ">
<polygon fill="#bfbfbf" stroke="black" points="261.5,-536.5 261.5,-566.5 387.5,-566.5 387.5,-536.5 261.5,-536.5"/>
<text text-anchor="start" x="269.5" y="-554.5" font-family="Helvetica,sans-Serif" font-size="10.00">typeClassDefs/wb_vision</text>
<text text-anchor="middle" x="324.5" y="-543.5" font-family="Helvetica,sans-Serif" font-size="10.00">_detection_feature.h</text>
</a>
</g>
</g>
<!-- Node2 -->
<g id="node2" class="node">
<title>Node2</title>
<g id="a_node2"><a xlink:href="_vision_detection_feature_8hpp.html" target="_top" xlink:title=" ">
<polygon fill="none" stroke="black" points="92,-469.5 92,-499.5 243,-499.5 243,-469.5 92,-469.5"/>
<text text-anchor="start" x="100" y="-487.5" font-family="Helvetica,sans-Serif" font-size="10.00">typeClassDefs/VisionDetection</text>
<text text-anchor="middle" x="167.5" y="-476.5" font-family="Helvetica,sans-Serif" font-size="10.00">Feature.hpp</text>
</a>
</g>
</g>
<!-- Node1&#45;&gt;Node2 -->
<g id="edge1" class="edge">
<title>Node1&#45;&gt;Node2</title>
<path fill="none" stroke="midnightblue" d="M281.13,-532.54C256.01,-522.14 224.84,-509.24 201.5,-499.58"/>
<polygon fill="midnightblue" stroke="midnightblue" points="279.86,-535.8 290.43,-536.4 282.53,-529.34 279.86,-535.8"/>
</g>
<!-- Node14 -->
<g id="node14" class="node">
<title>Node14</title>
<g id="a_node14"><a xlink:href="wb__vision__detection__feature_8c.html" target="_top" xlink:title=" ">
<polygon fill="none" stroke="black" points="261.5,-469.5 261.5,-499.5 387.5,-499.5 387.5,-469.5 261.5,-469.5"/>
<text text-anchor="start" x="269.5" y="-487.5" font-family="Helvetica,sans-Serif" font-size="10.00">typeClassDefs/wb_vision</text>
<text text-anchor="middle" x="324.5" y="-476.5" font-family="Helvetica,sans-Serif" font-size="10.00">_detection_feature.c</text>
</a>
</g>
</g>
<!-- Node1&#45;&gt;Node14 -->
<g id="edge13" class="edge">
<title>Node1&#45;&gt;Node14</title>
<path fill="none" stroke="midnightblue" d="M324.5,-526.11C324.5,-517.15 324.5,-507.32 324.5,-499.58"/>
<polygon fill="midnightblue" stroke="midnightblue" points="321,-526.4 324.5,-536.4 328,-526.4 321,-526.4"/>
</g>
<!-- Node15 -->
<g id="node15" class="node">
<title>Node15</title>
<g id="a_node15"><a xlink:href="wb__vision__detection__feature__array_8h.html" target="_top" xlink:title=" ">
<polygon fill="none" stroke="black" points="327,-402.5 327,-432.5 458,-432.5 458,-402.5 327,-402.5"/>
<text text-anchor="start" x="335" y="-420.5" font-family="Helvetica,sans-Serif" font-size="10.00">typeClassDefs/wb_vision</text>
<text text-anchor="middle" x="392.5" y="-409.5" font-family="Helvetica,sans-Serif" font-size="10.00">_detection_feature_array.h</text>
</a>
</g>
</g>
<!-- Node1&#45;&gt;Node15 -->
<g id="edge14" class="edge">
<title>Node1&#45;&gt;Node15</title>
<path fill="none" stroke="midnightblue" d="M365.89,-531.16C377.98,-523.3 389.75,-512.97 396.5,-500 407.61,-478.63 402.2,-449.7 397.31,-432.68"/>
<polygon fill="midnightblue" stroke="midnightblue" points="363.86,-528.29 357.09,-536.44 367.46,-534.29 363.86,-528.29"/>
</g>
<!-- Node3 -->
<g id="node3" class="node">
<title>Node3</title>
<g id="a_node3"><a xlink:href="_vision_detection_feature_8h.html" target="_top" xlink:title=" ">
<polygon fill="none" stroke="black" points="136,-402.5 136,-432.5 287,-432.5 287,-402.5 136,-402.5"/>
<text text-anchor="start" x="144" y="-420.5" font-family="Helvetica,sans-Serif" font-size="10.00">typeClassDefs/VisionDetection</text>
<text text-anchor="middle" x="211.5" y="-409.5" font-family="Helvetica,sans-Serif" font-size="10.00">Feature.h</text>
</a>
</g>
</g>
<!-- Node2&#45;&gt;Node3 -->
<g id="edge2" class="edge">
<title>Node2&#45;&gt;Node3</title>
<path fill="none" stroke="midnightblue" d="M182.82,-460.87C189.19,-451.46 196.38,-440.83 201.97,-432.58"/>
<polygon fill="midnightblue" stroke="midnightblue" points="179.75,-459.15 177.05,-469.4 185.55,-463.08 179.75,-459.15"/>
</g>
<!-- Node4 -->
<g id="node4" class="node">
<title>Node4</title>
<g id="a_node4"><a xlink:href="_vision_detection_feature_array_8hpp.html" target="_top" xlink:title=" ">
<polygon fill="none" stroke="black" points="136,-335.5 136,-365.5 287,-365.5 287,-335.5 136,-335.5"/>
<text text-anchor="start" x="144" y="-353.5" font-family="Helvetica,sans-Serif" font-size="10.00">typeClassDefs/VisionDetection</text>
<text text-anchor="middle" x="211.5" y="-342.5" font-family="Helvetica,sans-Serif" font-size="10.00">FeatureArray.hpp</text>
</a>
</g>
</g>
<!-- Node3&#45;&gt;Node4 -->
<g id="edge3" class="edge">
<title>Node3&#45;&gt;Node4</title>
<path fill="none" stroke="midnightblue" d="M211.5,-392.11C211.5,-383.15 211.5,-373.32 211.5,-365.58"/>
<polygon fill="midnightblue" stroke="midnightblue" points="208,-392.4 211.5,-402.4 215,-392.4 208,-392.4"/>
</g>
<!-- Node5 -->
<g id="node5" class="node">
<title>Node5</title>
<g id="a_node5"><a xlink:href="_vision_detection_feature_array_8h.html" target="_top" xlink:title=" ">
<polygon fill="none" stroke="black" points="192,-268.5 192,-298.5 343,-298.5 343,-268.5 192,-268.5"/>
<text text-anchor="start" x="200" y="-286.5" font-family="Helvetica,sans-Serif" font-size="10.00">typeClassDefs/VisionDetection</text>
<text text-anchor="middle" x="267.5" y="-275.5" font-family="Helvetica,sans-Serif" font-size="10.00">FeatureArray.h</text>
</a>
</g>
</g>
<!-- Node4&#45;&gt;Node5 -->
<g id="edge4" class="edge">
<title>Node4&#45;&gt;Node5</title>
<path fill="none" stroke="midnightblue" d="M230.25,-327.74C238.54,-318.12 248.04,-307.09 255.37,-298.58"/>
<polygon fill="midnightblue" stroke="midnightblue" points="227.53,-325.54 223.65,-335.4 232.83,-330.1 227.53,-325.54"/>
</g>
<!-- Node6 -->
<g id="node6" class="node">
<title>Node6</title>
<g id="a_node6"><a xlink:href="_vision_detection_features_8hpp.html" target="_top" xlink:title=" ">
<polygon fill="none" stroke="black" points="209,-201.5 209,-231.5 360,-231.5 360,-201.5 209,-201.5"/>
<text text-anchor="start" x="217" y="-219.5" font-family="Helvetica,sans-Serif" font-size="10.00">typeClassDefs/VisionDetection</text>
<text text-anchor="middle" x="284.5" y="-208.5" font-family="Helvetica,sans-Serif" font-size="10.00">Features.hpp</text>
</a>
</g>
</g>
<!-- Node5&#45;&gt;Node6 -->
<g id="edge5" class="edge">
<title>Node5&#45;&gt;Node6</title>
<path fill="none" stroke="midnightblue" d="M273.73,-258.7C276.11,-249.59 278.75,-239.49 280.82,-231.58"/>
<polygon fill="midnightblue" stroke="midnightblue" points="270.33,-257.84 271.19,-268.4 277.11,-259.61 270.33,-257.84"/>
</g>
<!-- Node7 -->
<g id="node7" class="node">
<title>Node7</title>
<g id="a_node7"><a xlink:href="guwhiteboardposter_8h.html" target="_top" xlink:title=" ">
<polygon fill="none" stroke="black" points="156,-140 156,-159 265,-159 265,-140 156,-140"/>
<text text-anchor="middle" x="210.5" y="-147" font-family="Helvetica,sans-Serif" font-size="10.00">guwhiteboardposter.h</text>
</a>
</g>
</g>
<!-- Node6&#45;&gt;Node7 -->
<g id="edge6" class="edge">
<title>Node6&#45;&gt;Node7</title>
<path fill="none" stroke="midnightblue" d="M260.79,-194.67C247.13,-182.67 230.67,-168.22 220.4,-159.19"/>
<polygon fill="midnightblue" stroke="midnightblue" points="258.62,-197.43 268.44,-201.4 263.24,-192.17 258.62,-197.43"/>
</g>
<!-- Node13 -->
<g id="node13" class="node">
<title>Node13</title>
<g id="a_node13"><a xlink:href="_vision_detection_features_8h.html" target="_top" xlink:title=" ">
<polygon fill="none" stroke="black" points="283,-134.5 283,-164.5 434,-164.5 434,-134.5 283,-134.5"/>
<text text-anchor="start" x="291" y="-152.5" font-family="Helvetica,sans-Serif" font-size="10.00">typeClassDefs/VisionDetection</text>
<text text-anchor="middle" x="358.5" y="-141.5" font-family="Helvetica,sans-Serif" font-size="10.00">Features.h</text>
</a>
</g>
</g>
<!-- Node6&#45;&gt;Node13 -->
<g id="edge12" class="edge">
<title>Node6&#45;&gt;Node13</title>
<path fill="none" stroke="midnightblue" d="M308.3,-194.6C319.47,-184.78 332.49,-173.34 342.47,-164.58"/>
<polygon fill="midnightblue" stroke="midnightblue" points="305.76,-192.17 300.56,-201.4 310.38,-197.43 305.76,-192.17"/>
</g>
<!-- Node8 -->
<g id="node8" class="node">
<title>Node8</title>
<g id="a_node8"><a xlink:href="_simple_whiteboard_test_8h.html" target="_top" xlink:title=" ">
<polygon fill="none" stroke="black" points="11,-67.5 11,-97.5 136,-97.5 136,-67.5 11,-67.5"/>
<text text-anchor="start" x="19" y="-85.5" font-family="Helvetica,sans-Serif" font-size="10.00">SimpleWhiteboardTest</text>
<text text-anchor="middle" x="73.5" y="-74.5" font-family="Helvetica,sans-Serif" font-size="10.00">/SimpleWhiteboardTest.h</text>
</a>
</g>
</g>
<!-- Node7&#45;&gt;Node8 -->
<g id="edge7" class="edge">
<title>Node7&#45;&gt;Node8</title>
<path fill="none" stroke="midnightblue" d="M183.04,-135.47C159.88,-124.49 126.81,-108.79 103.07,-97.53"/>
<polygon fill="midnightblue" stroke="midnightblue" points="181.77,-138.74 192.31,-139.87 184.77,-132.42 181.77,-138.74"/>
</g>
<!-- Node10 -->
<g id="node10" class="node">
<title>Node10</title>
<g id="a_node10"><a xlink:href="guwhiteboardgetter_8h.html" target="_top" xlink:title=" ">
<polygon fill="none" stroke="black" points="157,-73 157,-92 264,-92 264,-73 157,-73"/>
<text text-anchor="middle" x="210.5" y="-80" font-family="Helvetica,sans-Serif" font-size="10.00">guwhiteboardgetter.h</text>
</a>
</g>
</g>
<!-- Node7&#45;&gt;Node10 -->
<g id="edge9" class="edge">
<title>Node7&#45;&gt;Node10</title>
<path fill="none" stroke="midnightblue" d="M210.5,-129.54C210.5,-117.17 210.5,-101.62 210.5,-92.13"/>
<polygon fill="midnightblue" stroke="midnightblue" points="207,-129.73 210.5,-139.73 214,-129.73 207,-129.73"/>
</g>
<!-- Node12 -->
<g id="node12" class="node">
<title>Node12</title>
<g id="a_node12"><a xlink:href="guwhiteboardposter_8cpp.html" target="_top" xlink:title=" ">
<polygon fill="none" stroke="black" points="282,-73 282,-92 401,-92 401,-73 282,-73"/>
<text text-anchor="middle" x="341.5" y="-80" font-family="Helvetica,sans-Serif" font-size="10.00">guwhiteboardposter.cpp</text>
</a>
</g>
</g>
<!-- Node7&#45;&gt;Node12 -->
<g id="edge11" class="edge">
<title>Node7&#45;&gt;Node12</title>
<path fill="none" stroke="midnightblue" d="M237.16,-135.27C263.1,-122.4 301.78,-103.21 324.03,-92.17"/>
<polygon fill="midnightblue" stroke="midnightblue" points="235.3,-132.29 227.9,-139.87 238.41,-138.56 235.3,-132.29"/>
</g>
<!-- Node9 -->
<g id="node9" class="node">
<title>Node9</title>
<g id="a_node9"><a xlink:href="_simple_whiteboard_test_8mm.html" target="_top" xlink:title=" ">
<polygon fill="none" stroke="black" points="0,-0.5 0,-30.5 137,-30.5 137,-0.5 0,-0.5"/>
<text text-anchor="start" x="8" y="-18.5" font-family="Helvetica,sans-Serif" font-size="10.00">SimpleWhiteboardTest</text>
<text text-anchor="middle" x="68.5" y="-7.5" font-family="Helvetica,sans-Serif" font-size="10.00">/SimpleWhiteboardTest.mm</text>
</a>
</g>
</g>
<!-- Node8&#45;&gt;Node9 -->
<g id="edge8" class="edge">
<title>Node8&#45;&gt;Node9</title>
<path fill="none" stroke="midnightblue" d="M71.65,-57.4C70.95,-48.37 70.19,-38.41 69.58,-30.58"/>
<polygon fill="midnightblue" stroke="midnightblue" points="68.16,-57.69 72.42,-67.4 75.14,-57.16 68.16,-57.69"/>
</g>
<!-- Node11 -->
<g id="node11" class="node">
<title>Node11</title>
<g id="a_node11"><a xlink:href="guwhiteboardgetter_8cpp.html" target="_top" xlink:title=" ">
<polygon fill="none" stroke="black" points="155,-6 155,-25 272,-25 272,-6 155,-6"/>
<text text-anchor="middle" x="213.5" y="-13" font-family="Helvetica,sans-Serif" font-size="10.00">guwhiteboardgetter.cpp</text>
</a>
</g>
</g>
<!-- Node10&#45;&gt;Node11 -->
<g id="edge10" class="edge">
<title>Node10&#45;&gt;Node11</title>
<path fill="none" stroke="midnightblue" d="M211.38,-62.54C211.95,-50.17 212.66,-34.62 213.1,-25.13"/>
<polygon fill="midnightblue" stroke="midnightblue" points="207.87,-62.58 210.9,-72.73 214.86,-62.91 207.87,-62.58"/>
</g>
<!-- Node15&#45;&gt;Node4 -->
<g id="edge15" class="edge">
<title>Node15&#45;&gt;Node4</title>
<path fill="none" stroke="midnightblue" d="M343.64,-398.96C314.49,-388.48 277.96,-375.37 250.7,-365.58"/>
<polygon fill="midnightblue" stroke="midnightblue" points="342.63,-402.31 353.23,-402.4 345,-395.72 342.63,-402.31"/>
</g>
<!-- Node16 -->
<g id="node16" class="node">
<title>Node16</title>
<g id="a_node16"><a xlink:href="wb__vision__detection__feature__array_8c.html" target="_top" xlink:title=" ">
<polygon fill="none" stroke="black" points="305,-335.5 305,-365.5 436,-365.5 436,-335.5 305,-335.5"/>
<text text-anchor="start" x="313" y="-353.5" font-family="Helvetica,sans-Serif" font-size="10.00">typeClassDefs/wb_vision</text>
<text text-anchor="middle" x="370.5" y="-342.5" font-family="Helvetica,sans-Serif" font-size="10.00">_detection_feature_array.c</text>
</a>
</g>
</g>
<!-- Node15&#45;&gt;Node16 -->
<g id="edge16" class="edge">
<title>Node15&#45;&gt;Node16</title>
<path fill="none" stroke="midnightblue" d="M384.44,-392.7C381.36,-383.59 377.94,-373.49 375.26,-365.58"/>
<polygon fill="midnightblue" stroke="midnightblue" points="381.21,-394.05 387.73,-402.4 387.84,-391.8 381.21,-394.05"/>
</g>
<!-- Node17 -->
<g id="node17" class="node">
<title>Node17</title>
<g id="a_node17"><a xlink:href="wb__vision__detection__features_8h.html" target="_top" xlink:title=" ">
<polygon fill="none" stroke="black" points="454.5,-335.5 454.5,-365.5 580.5,-365.5 580.5,-335.5 454.5,-335.5"/>
<text text-anchor="start" x="462.5" y="-353.5" font-family="Helvetica,sans-Serif" font-size="10.00">typeClassDefs/wb_vision</text>
<text text-anchor="middle" x="517.5" y="-342.5" font-family="Helvetica,sans-Serif" font-size="10.00">_detection_features.h</text>
</a>
</g>
</g>
<!-- Node15&#45;&gt;Node17 -->
<g id="edge17" class="edge">
<title>Node15&#45;&gt;Node17</title>
<path fill="none" stroke="midnightblue" d="M428.63,-397.71C448.34,-387.46 472.34,-374.98 490.43,-365.58"/>
<polygon fill="midnightblue" stroke="midnightblue" points="426.88,-394.68 419.62,-402.4 430.11,-400.89 426.88,-394.68"/>
</g>
<!-- Node17&#45;&gt;Node6 -->
<g id="edge21" class="edge">
<title>Node17&#45;&gt;Node6</title>
<path fill="none" stroke="midnightblue" d="M483.61,-330.3C436.19,-303.44 351.18,-255.27 309.26,-231.52"/>
<polygon fill="midnightblue" stroke="midnightblue" points="482.14,-333.49 492.56,-335.37 485.59,-327.4 482.14,-333.49"/>
</g>
<!-- Node18 -->
<g id="node18" class="node">
<title>Node18</title>
<g id="a_node18"><a xlink:href="guwhiteboard__c__types_8h.html" target="_top" xlink:title=" ">
<polygon fill="none" stroke="black" points="442,-274 442,-293 563,-293 563,-274 442,-274"/>
<text text-anchor="middle" x="502.5" y="-281" font-family="Helvetica,sans-Serif" font-size="10.00">guwhiteboard_c_types.h</text>
</a>
</g>
</g>
<!-- Node17&#45;&gt;Node18 -->
<g id="edge18" class="edge">
<title>Node17&#45;&gt;Node18</title>
<path fill="none" stroke="midnightblue" d="M511.98,-325.6C509.37,-314.28 506.41,-301.46 504.51,-293.19"/>
<polygon fill="midnightblue" stroke="midnightblue" points="508.59,-326.44 514.25,-335.4 515.41,-324.87 508.59,-326.44"/>
</g>
<!-- Node21 -->
<g id="node21" class="node">
<title>Node21</title>
<g id="a_node21"><a xlink:href="wb__vision__detection__features_8c.html" target="_top" xlink:title=" ">
<polygon fill="none" stroke="black" points="581.5,-268.5 581.5,-298.5 707.5,-298.5 707.5,-268.5 581.5,-268.5"/>
<text text-anchor="start" x="589.5" y="-286.5" font-family="Helvetica,sans-Serif" font-size="10.00">typeClassDefs/wb_vision</text>
<text text-anchor="middle" x="644.5" y="-275.5" font-family="Helvetica,sans-Serif" font-size="10.00">_detection_features.c</text>
</a>
</g>
</g>
<!-- Node17&#45;&gt;Node21 -->
<g id="edge22" class="edge">
<title>Node17&#45;&gt;Node21</title>
<path fill="none" stroke="midnightblue" d="M554.2,-330.71C574.23,-320.46 598.62,-307.98 617,-298.58"/>
<polygon fill="midnightblue" stroke="midnightblue" points="552.36,-327.72 545.06,-335.4 555.55,-333.96 552.36,-327.72"/>
</g>
<!-- Node19 -->
<g id="node19" class="node">
<title>Node19</title>
<g id="a_node19"><a xlink:href="guwhiteboarddeserialiser_8c.html" target="_top" xlink:title=" ">
<polygon fill="none" stroke="black" points="386,-207 386,-226 517,-226 517,-207 386,-207"/>
<text text-anchor="middle" x="451.5" y="-214" font-family="Helvetica,sans-Serif" font-size="10.00">guwhiteboarddeserialiser.c</text>
</a>
</g>
</g>
<!-- Node18&#45;&gt;Node19 -->
<g id="edge19" class="edge">
<title>Node18&#45;&gt;Node19</title>
<path fill="none" stroke="midnightblue" d="M489.37,-265.77C479.43,-253.1 466.17,-236.2 458.27,-226.13"/>
<polygon fill="midnightblue" stroke="midnightblue" points="486.7,-268.03 495.62,-273.73 492.2,-263.71 486.7,-268.03"/>
</g>
<!-- Node20 -->
<g id="node20" class="node">
<title>Node20</title>
<g id="a_node20"><a xlink:href="guwhiteboardserialiser_8c.html" target="_top" xlink:title=" ">
<polygon fill="none" stroke="black" points="535,-207 535,-226 656,-226 656,-207 535,-207"/>
<text text-anchor="middle" x="595.5" y="-214" font-family="Helvetica,sans-Serif" font-size="10.00">guwhiteboardserialiser.c</text>
</a>
</g>
</g>
<!-- Node18&#45;&gt;Node20 -->
<g id="edge20" class="edge">
<title>Node18&#45;&gt;Node20</title>
<path fill="none" stroke="midnightblue" d="M523.36,-267.92C541.75,-255.07 567.91,-236.78 583.16,-226.13"/>
<polygon fill="midnightblue" stroke="midnightblue" points="521.23,-265.14 515.04,-273.73 525.24,-270.87 521.23,-265.14"/>
</g>
</g>
</svg>
