<?xml version="1.0" encoding="UTF-8" standalone="no"?>
<!DOCTYPE svg PUBLIC "-//W3C//DTD SVG 1.1//EN"
 "http://www.w3.org/Graphics/SVG/1.1/DTD/svg11.dtd">
<!-- Generated by graphviz version 2.49.0 (20210830.1337)
 -->
<!-- Title: typeClassDefs/wb_vision_field_features.h Pages: 1 -->
<svg width="569pt" height="307pt"
 viewBox="0.00 0.00 568.50 307.00" xmlns="http://www.w3.org/2000/svg" xmlns:xlink="http://www.w3.org/1999/xlink">
<g id="graph0" class="graph" transform="scale(1 1) rotate(0) translate(4 303)">
<title>typeClassDefs/wb_vision_field_features.h</title>
<!-- Node1 -->
<g id="node1" class="node">
<title>Node1</title>
<g id="a_node1"><a xlink:title=" ">
<polygon fill="#bfbfbf" stroke="black" points="287.5,-268.5 287.5,-298.5 413.5,-298.5 413.5,-268.5 287.5,-268.5"/>
<text text-anchor="start" x="295.5" y="-286.5" font-family="Helvetica,sans-Serif" font-size="10.00">typeClassDefs/wb_vision</text>
<text text-anchor="middle" x="350.5" y="-275.5" font-family="Helvetica,sans-Serif" font-size="10.00">_field_features.h</text>
</a>
</g>
</g>
<!-- Node2 -->
<g id="node2" class="node">
<title>Node2</title>
<g id="a_node2"><a xlink:href="guwhiteboard__c__types_8h.html" target="_top" xlink:title=" ">
<polygon fill="none" stroke="black" points="146,-207 146,-226 267,-226 267,-207 146,-207"/>
<text text-anchor="middle" x="206.5" y="-214" font-family="Helvetica,sans-Serif" font-size="10.00">guwhiteboard_c_types.h</text>
</a>
</g>
</g>
<!-- Node1&#45;&gt;Node2 -->
<g id="edge1" class="edge">
<title>Node1&#45;&gt;Node2</title>
<path fill="none" stroke="midnightblue" d="M309.81,-264.13C282.09,-251.62 246.69,-235.64 225.35,-226.01"/>
<polygon fill="midnightblue" stroke="midnightblue" points="308.7,-267.47 319.25,-268.4 311.58,-261.09 308.7,-267.47"/>
</g>
<!-- Node5 -->
<g id="node5" class="node">
<title>Node5</title>
<g id="a_node5"><a xlink:href="_vision_field_features_8hpp.html" target="_top" xlink:title=" ">
<polygon fill="none" stroke="black" points="285,-201.5 285,-231.5 416,-231.5 416,-201.5 285,-201.5"/>
<text text-anchor="start" x="293" y="-219.5" font-family="Helvetica,sans-Serif" font-size="10.00">typeClassDefs/VisionField</text>
<text text-anchor="middle" x="350.5" y="-208.5" font-family="Helvetica,sans-Serif" font-size="10.00">Features.hpp</text>
</a>
</g>
</g>
<!-- Node1&#45;&gt;Node5 -->
<g id="edge4" class="edge">
<title>Node1&#45;&gt;Node5</title>
<path fill="none" stroke="midnightblue" d="M350.5,-258.11C350.5,-249.15 350.5,-239.32 350.5,-231.58"/>
<polygon fill="midnightblue" stroke="midnightblue" points="347,-258.4 350.5,-268.4 354,-258.4 347,-258.4"/>
</g>
<!-- Node13 -->
<g id="node13" class="node">
<title>Node13</title>
<g id="a_node13"><a xlink:href="wb__vision__field__features_8c.html" target="_top" xlink:title=" ">
<polygon fill="none" stroke="black" points="434.5,-201.5 434.5,-231.5 560.5,-231.5 560.5,-201.5 434.5,-201.5"/>
<text text-anchor="start" x="442.5" y="-219.5" font-family="Helvetica,sans-Serif" font-size="10.00">typeClassDefs/wb_vision</text>
<text text-anchor="middle" x="497.5" y="-208.5" font-family="Helvetica,sans-Serif" font-size="10.00">_field_features.c</text>
</a>
</g>
</g>
<!-- Node1&#45;&gt;Node13 -->
<g id="edge12" class="edge">
<title>Node1&#45;&gt;Node13</title>
<path fill="none" stroke="midnightblue" d="M391.73,-264.27C415.14,-253.92 444.01,-241.15 465.67,-231.58"/>
<polygon fill="midnightblue" stroke="midnightblue" points="390.13,-261.15 382.4,-268.4 392.96,-267.55 390.13,-261.15"/>
</g>
<!-- Node3 -->
<g id="node3" class="node">
<title>Node3</title>
<g id="a_node3"><a xlink:href="guwhiteboarddeserialiser_8c.html" target="_top" xlink:title=" ">
<polygon fill="none" stroke="black" points="0,-140 0,-159 131,-159 131,-140 0,-140"/>
<text text-anchor="middle" x="65.5" y="-147" font-family="Helvetica,sans-Serif" font-size="10.00">guwhiteboarddeserialiser.c</text>
</a>
</g>
</g>
<!-- Node2&#45;&gt;Node3 -->
<g id="edge2" class="edge">
<title>Node2&#45;&gt;Node3</title>
<path fill="none" stroke="midnightblue" d="M178.54,-202.61C150.62,-189.74 108.46,-170.31 84.3,-159.17"/>
<polygon fill="midnightblue" stroke="midnightblue" points="177.23,-205.86 187.78,-206.87 180.16,-199.5 177.23,-205.86"/>
</g>
<!-- Node4 -->
<g id="node4" class="node">
<title>Node4</title>
<g id="a_node4"><a xlink:href="guwhiteboardserialiser_8c.html" target="_top" xlink:title=" ">
<polygon fill="none" stroke="black" points="149,-140 149,-159 270,-159 270,-140 149,-140"/>
<text text-anchor="middle" x="209.5" y="-147" font-family="Helvetica,sans-Serif" font-size="10.00">guwhiteboardserialiser.c</text>
</a>
</g>
</g>
<!-- Node2&#45;&gt;Node4 -->
<g id="edge3" class="edge">
<title>Node2&#45;&gt;Node4</title>
<path fill="none" stroke="midnightblue" d="M207.38,-196.54C207.95,-184.17 208.66,-168.62 209.1,-159.13"/>
<polygon fill="midnightblue" stroke="midnightblue" points="203.87,-196.58 206.9,-206.73 210.86,-196.91 203.87,-196.58"/>
</g>
<!-- Node6 -->
<g id="node6" class="node">
<title>Node6</title>
<g id="a_node6"><a xlink:href="guwhiteboardposter_8h.html" target="_top" xlink:title=" ">
<polygon fill="none" stroke="black" points="293,-140 293,-159 402,-159 402,-140 293,-140"/>
<text text-anchor="middle" x="347.5" y="-147" font-family="Helvetica,sans-Serif" font-size="10.00">guwhiteboardposter.h</text>
</a>
</g>
</g>
<!-- Node5&#45;&gt;Node6 -->
<g id="edge5" class="edge">
<title>Node5&#45;&gt;Node6</title>
<path fill="none" stroke="midnightblue" d="M349.38,-191.25C348.86,-180.02 348.28,-167.38 347.9,-159.19"/>
<polygon fill="midnightblue" stroke="midnightblue" points="345.89,-191.57 349.85,-201.4 352.88,-191.25 345.89,-191.57"/>
</g>
<!-- Node12 -->
<g id="node12" class="node">
<title>Node12</title>
<g id="a_node12"><a xlink:href="_vision_field_features_8h.html" target="_top" xlink:title=" ">
<polygon fill="none" stroke="black" points="420,-134.5 420,-164.5 551,-164.5 551,-134.5 420,-134.5"/>
<text text-anchor="start" x="428" y="-152.5" font-family="Helvetica,sans-Serif" font-size="10.00">typeClassDefs/VisionField</text>
<text text-anchor="middle" x="485.5" y="-141.5" font-family="Helvetica,sans-Serif" font-size="10.00">Features.h</text>
</a>
</g>
</g>
<!-- Node5&#45;&gt;Node12 -->
<g id="edge11" class="edge">
<title>Node5&#45;&gt;Node12</title>
<path fill="none" stroke="midnightblue" d="M388.94,-196.99C410.34,-186.69 436.55,-174.07 456.26,-164.58"/>
<polygon fill="midnightblue" stroke="midnightblue" points="387.28,-193.9 379.79,-201.4 390.32,-200.21 387.28,-193.9"/>
</g>
<!-- Node7 -->
<g id="node7" class="node">
<title>Node7</title>
<g id="a_node7"><a xlink:href="_simple_whiteboard_test_8h.html" target="_top" xlink:title=" ">
<polygon fill="none" stroke="black" points="148,-67.5 148,-97.5 273,-97.5 273,-67.5 148,-67.5"/>
<text text-anchor="start" x="156" y="-85.5" font-family="Helvetica,sans-Serif" font-size="10.00">SimpleWhiteboardTest</text>
<text text-anchor="middle" x="210.5" y="-74.5" font-family="Helvetica,sans-Serif" font-size="10.00">/SimpleWhiteboardTest.h</text>
</a>
</g>
</g>
<!-- Node6&#45;&gt;Node7 -->
<g id="edge6" class="edge">
<title>Node6&#45;&gt;Node7</title>
<path fill="none" stroke="midnightblue" d="M320.04,-135.47C296.88,-124.49 263.81,-108.79 240.07,-97.53"/>
<polygon fill="midnightblue" stroke="midnightblue" points="318.77,-138.74 329.31,-139.87 321.77,-132.42 318.77,-138.74"/>
</g>
<!-- Node9 -->
<g id="node9" class="node">
<title>Node9</title>
<g id="a_node9"><a xlink:href="guwhiteboardgetter_8h.html" target="_top" xlink:title=" ">
<polygon fill="none" stroke="black" points="294,-73 294,-92 401,-92 401,-73 294,-73"/>
<text text-anchor="middle" x="347.5" y="-80" font-family="Helvetica,sans-Serif" font-size="10.00">guwhiteboardgetter.h</text>
</a>
</g>
</g>
<!-- Node6&#45;&gt;Node9 -->
<g id="edge8" class="edge">
<title>Node6&#45;&gt;Node9</title>
<path fill="none" stroke="midnightblue" d="M347.5,-129.54C347.5,-117.17 347.5,-101.62 347.5,-92.13"/>
<polygon fill="midnightblue" stroke="midnightblue" points="344,-129.73 347.5,-139.73 351,-129.73 344,-129.73"/>
</g>
<!-- Node11 -->
<g id="node11" class="node">
<title>Node11</title>
<g id="a_node11"><a xlink:href="guwhiteboardposter_8cpp.html" target="_top" xlink:title=" ">
<polygon fill="none" stroke="black" points="419,-73 419,-92 538,-92 538,-73 419,-73"/>
<text text-anchor="middle" x="478.5" y="-80" font-family="Helvetica,sans-Serif" font-size="10.00">guwhiteboardposter.cpp</text>
</a>
</g>
</g>
<!-- Node6&#45;&gt;Node11 -->
<g id="edge10" class="edge">
<title>Node6&#45;&gt;Node11</title>
<path fill="none" stroke="midnightblue" d="M374.16,-135.27C400.1,-122.4 438.78,-103.21 461.03,-92.17"/>
<polygon fill="midnightblue" stroke="midnightblue" points="372.3,-132.29 364.9,-139.87 375.41,-138.56 372.3,-132.29"/>
</g>
<!-- Node8 -->
<g id="node8" class="node">
<title>Node8</title>
<g id="a_node8"><a xlink:href="_simple_whiteboard_test_8mm.html" target="_top" xlink:title=" ">
<polygon fill="none" stroke="black" points="137,-0.5 137,-30.5 274,-30.5 274,-0.5 137,-0.5"/>
<text text-anchor="start" x="145" y="-18.5" font-family="Helvetica,sans-Serif" font-size="10.00">SimpleWhiteboardTest</text>
<text text-anchor="middle" x="205.5" y="-7.5" font-family="Helvetica,sans-Serif" font-size="10.00">/SimpleWhiteboardTest.mm</text>
</a>
</g>
</g>
<!-- Node7&#45;&gt;Node8 -->
<g id="edge7" class="edge">
<title>Node7&#45;&gt;Node8</title>
<path fill="none" stroke="midnightblue" d="M208.65,-57.4C207.95,-48.37 207.19,-38.41 206.58,-30.58"/>
<polygon fill="midnightblue" stroke="midnightblue" points="205.16,-57.69 209.42,-67.4 212.14,-57.16 205.16,-57.69"/>
</g>
<!-- Node10 -->
<g id="node10" class="node">
<title>Node10</title>
<g id="a_node10"><a xlink:href="guwhiteboardgetter_8cpp.html" target="_top" xlink:title=" ">
<polygon fill="none" stroke="black" points="292,-6 292,-25 409,-25 409,-6 292,-6"/>
<text text-anchor="middle" x="350.5" y="-13" font-family="Helvetica,sans-Serif" font-size="10.00">guwhiteboardgetter.cpp</text>
</a>
</g>
</g>
<!-- Node9&#45;&gt;Node10 -->
<g id="edge9" class="edge">
<title>Node9&#45;&gt;Node10</title>
<path fill="none" stroke="midnightblue" d="M348.38,-62.54C348.95,-50.17 349.66,-34.62 350.1,-25.13"/>
<polygon fill="midnightblue" stroke="midnightblue" points="344.87,-62.58 347.9,-72.73 351.86,-62.91 344.87,-62.58"/>
</g>
</g>
</svg>
