<?xml version="1.0" encoding="UTF-8" standalone="no"?>
<!DOCTYPE svg PUBLIC "-//W3C//DTD SVG 1.1//EN"
 "http://www.w3.org/Graphics/SVG/1.1/DTD/svg11.dtd">
<!-- Generated by graphviz version 2.49.0 (20210830.1337)
 -->
<!-- Title: typeClassDefs/wb_point2d.h Pages: 1 -->
<svg width="1423pt" height="542pt"
 viewBox="0.00 0.00 1422.50 542.00" xmlns="http://www.w3.org/2000/svg" xmlns:xlink="http://www.w3.org/1999/xlink">
<g id="graph0" class="graph" transform="scale(1 1) rotate(0) translate(4 538)">
<title>typeClassDefs/wb_point2d.h</title>
<!-- Node1 -->
<g id="node1" class="node">
<title>Node1</title>
<g id="a_node1"><a xlink:title=" ">
<polygon fill="#bfbfbf" stroke="black" points="824.5,-514.5 824.5,-533.5 964.5,-533.5 964.5,-514.5 824.5,-514.5"/>
<text text-anchor="middle" x="894.5" y="-521.5" font-family="Helvetica,sans-Serif" font-size="10.00">typeClassDefs/wb_point2d.h</text>
</a>
</g>
</g>
<!-- Node2 -->
<g id="node2" class="node">
<title>Node2</title>
<g id="a_node2"><a xlink:href="_simple_whiteboard_test_plain_c_8m.html" target="_top" xlink:title=" ">
<polygon fill="none" stroke="black" points="188,-447.5 188,-477.5 345,-477.5 345,-447.5 188,-447.5"/>
<text text-anchor="start" x="196" y="-465.5" font-family="Helvetica,sans-Serif" font-size="10.00">SimpleWhiteboardTest</text>
<text text-anchor="middle" x="266.5" y="-454.5" font-family="Helvetica,sans-Serif" font-size="10.00">/SimpleWhiteboardTestPlainC.m</text>
</a>
</g>
</g>
<!-- Node1&#45;&gt;Node2 -->
<g id="edge1" class="edge">
<title>Node1&#45;&gt;Node2</title>
<path fill="none" stroke="midnightblue" d="M813.99,-518.38C708.12,-511.82 516.42,-498.32 353.5,-478 350.76,-477.66 347.98,-477.29 345.18,-476.91"/>
<polygon fill="midnightblue" stroke="midnightblue" points="814.08,-521.89 824.28,-519.01 814.51,-514.9 814.08,-521.89"/>
</g>
<!-- Node3 -->
<g id="node3" class="node">
<title>Node3</title>
<g id="a_node3"><a xlink:href="guwhiteboard__c__types_8h.html" target="_top" xlink:title=" ">
<polygon fill="none" stroke="black" points="955,-252 955,-271 1076,-271 1076,-252 955,-252"/>
<text text-anchor="middle" x="1015.5" y="-259" font-family="Helvetica,sans-Serif" font-size="10.00">guwhiteboard_c_types.h</text>
</a>
</g>
</g>
<!-- Node1&#45;&gt;Node3 -->
<g id="edge2" class="edge">
<title>Node1&#45;&gt;Node3</title>
<path fill="none" stroke="midnightblue" d="M918.61,-509.15C961.09,-483.17 1047.94,-422.58 1081.5,-344 1086.91,-331.33 1087.6,-325.35 1081.5,-313 1071.85,-293.47 1050.62,-279.41 1034.83,-271.16"/>
<polygon fill="midnightblue" stroke="midnightblue" points="916.56,-506.3 909.78,-514.44 920.15,-512.31 916.56,-506.3"/>
</g>
<!-- Node6 -->
<g id="node6" class="node">
<title>Node6</title>
<g id="a_node6"><a xlink:href="_point2_d_8hpp.html" target="_top" xlink:title=" ">
<polygon fill="none" stroke="black" points="363,-453 363,-472 498,-472 498,-453 363,-453"/>
<text text-anchor="middle" x="430.5" y="-460" font-family="Helvetica,sans-Serif" font-size="10.00">typeClassDefs/Point2D.hpp</text>
</a>
</g>
</g>
<!-- Node1&#45;&gt;Node6 -->
<g id="edge5" class="edge">
<title>Node1&#45;&gt;Node6</title>
<path fill="none" stroke="midnightblue" d="M817.93,-513.18C728.42,-501.7 581.73,-482.89 496.86,-472.01"/>
<polygon fill="midnightblue" stroke="midnightblue" points="817.66,-516.67 828.02,-514.48 818.55,-509.73 817.66,-516.67"/>
</g>
<!-- Node18 -->
<g id="node18" class="node">
<title>Node18</title>
<g id="a_node18"><a xlink:href="wb__lines_8h.html" target="_top" xlink:title=" ">
<polygon fill="none" stroke="black" points="1128.5,-453 1128.5,-472 1256.5,-472 1256.5,-453 1128.5,-453"/>
<text text-anchor="middle" x="1192.5" y="-460" font-family="Helvetica,sans-Serif" font-size="10.00">typeClassDefs/wb_lines.h</text>
</a>
</g>
</g>
<!-- Node1&#45;&gt;Node18 -->
<g id="edge18" class="edge">
<title>Node1&#45;&gt;Node18</title>
<path fill="none" stroke="midnightblue" d="M947.22,-512.47C1004.97,-500.94 1096.48,-482.67 1149.88,-472.01"/>
<polygon fill="midnightblue" stroke="midnightblue" points="946.32,-509.08 937.2,-514.48 947.69,-515.95 946.32,-509.08"/>
</g>
<!-- Node19 -->
<g id="node19" class="node">
<title>Node19</title>
<g id="a_node19"><a xlink:href="wb__particle__position_8h.html" target="_top" xlink:title=" ">
<polygon fill="none" stroke="black" points="623.5,-447.5 623.5,-477.5 755.5,-477.5 755.5,-447.5 623.5,-447.5"/>
<text text-anchor="start" x="631.5" y="-465.5" font-family="Helvetica,sans-Serif" font-size="10.00">typeClassDefs/wb_particle</text>
<text text-anchor="middle" x="689.5" y="-454.5" font-family="Helvetica,sans-Serif" font-size="10.00">_position.h</text>
</a>
</g>
</g>
<!-- Node1&#45;&gt;Node19 -->
<g id="edge19" class="edge">
<title>Node1&#45;&gt;Node19</title>
<path fill="none" stroke="midnightblue" d="M855.25,-511.61C821.81,-501.9 773.62,-487.92 737.81,-477.52"/>
<polygon fill="midnightblue" stroke="midnightblue" points="854.55,-515.05 865.13,-514.48 856.5,-508.33 854.55,-515.05"/>
</g>
<!-- Node28 -->
<g id="node28" class="node">
<title>Node28</title>
<g id="a_node28"><a xlink:href="wb__point2d_8c.html" target="_top" xlink:title=" ">
<polygon fill="none" stroke="black" points="1274.5,-453 1274.5,-472 1414.5,-472 1414.5,-453 1274.5,-453"/>
<text text-anchor="middle" x="1344.5" y="-460" font-family="Helvetica,sans-Serif" font-size="10.00">typeClassDefs/wb_point2d.c</text>
</a>
</g>
</g>
<!-- Node1&#45;&gt;Node28 -->
<g id="edge32" class="edge">
<title>Node1&#45;&gt;Node28</title>
<path fill="none" stroke="midnightblue" d="M975.11,-514.65C1050.39,-506.52 1165.8,-493.18 1265.5,-478 1276.94,-476.26 1289.27,-474.12 1300.7,-472.03"/>
<polygon fill="midnightblue" stroke="midnightblue" points="974.33,-511.22 964.76,-515.77 975.08,-518.18 974.33,-511.22"/>
</g>
<!-- Node4 -->
<g id="node4" class="node">
<title>Node4</title>
<g id="a_node4"><a xlink:href="guwhiteboarddeserialiser_8c.html" target="_top" xlink:title=" ">
<polygon fill="none" stroke="black" points="1022,-190.5 1022,-209.5 1153,-209.5 1153,-190.5 1022,-190.5"/>
<text text-anchor="middle" x="1087.5" y="-197.5" font-family="Helvetica,sans-Serif" font-size="10.00">guwhiteboarddeserialiser.c</text>
</a>
</g>
</g>
<!-- Node3&#45;&gt;Node4 -->
<g id="edge3" class="edge">
<title>Node3&#45;&gt;Node4</title>
<path fill="none" stroke="midnightblue" d="M1033.68,-245.47C1047.46,-234.09 1065.88,-218.87 1077.2,-209.51"/>
<polygon fill="midnightblue" stroke="midnightblue" points="1031.29,-242.91 1025.82,-251.98 1035.75,-248.3 1031.29,-242.91"/>
</g>
<!-- Node5 -->
<g id="node5" class="node">
<title>Node5</title>
<g id="a_node5"><a xlink:href="guwhiteboardserialiser_8c.html" target="_top" xlink:title=" ">
<polygon fill="none" stroke="black" points="883,-190.5 883,-209.5 1004,-209.5 1004,-190.5 883,-190.5"/>
<text text-anchor="middle" x="943.5" y="-197.5" font-family="Helvetica,sans-Serif" font-size="10.00">guwhiteboardserialiser.c</text>
</a>
</g>
</g>
<!-- Node3&#45;&gt;Node5 -->
<g id="edge4" class="edge">
<title>Node3&#45;&gt;Node5</title>
<path fill="none" stroke="midnightblue" d="M997.32,-245.47C983.54,-234.09 965.12,-218.87 953.8,-209.51"/>
<polygon fill="midnightblue" stroke="midnightblue" points="995.25,-248.3 1005.18,-251.98 999.71,-242.91 995.25,-248.3"/>
</g>
<!-- Node7 -->
<g id="node7" class="node">
<title>Node7</title>
<g id="a_node7"><a xlink:href="guwhiteboardposter_8h.html" target="_top" xlink:title=" ">
<polygon fill="none" stroke="black" points="156,-134.5 156,-153.5 265,-153.5 265,-134.5 156,-134.5"/>
<text text-anchor="middle" x="210.5" y="-141.5" font-family="Helvetica,sans-Serif" font-size="10.00">guwhiteboardposter.h</text>
</a>
</g>
</g>
<!-- Node6&#45;&gt;Node7 -->
<g id="edge6" class="edge">
<title>Node6&#45;&gt;Node7</title>
<path fill="none" stroke="midnightblue" d="M374.84,-450.91C329.62,-441.4 270.37,-426.57 251.5,-411 220.22,-385.2 210.5,-370.05 210.5,-329.5 210.5,-329.5 210.5,-329.5 210.5,-260.5 210.5,-220.6 210.5,-172.94 210.5,-153.69"/>
<polygon fill="midnightblue" stroke="midnightblue" points="374.33,-454.38 384.83,-452.98 375.75,-447.53 374.33,-454.38"/>
</g>
<!-- Node13 -->
<g id="node13" class="node">
<title>Node13</title>
<g id="a_node13"><a xlink:href="_point2_d_8h.html" target="_top" xlink:title=" ">
<polygon fill="none" stroke="black" points="261,-386 261,-405 386,-405 386,-386 261,-386"/>
<text text-anchor="middle" x="323.5" y="-393" font-family="Helvetica,sans-Serif" font-size="10.00">typeClassDefs/Point2D.h</text>
</a>
</g>
</g>
<!-- Node6&#45;&gt;Node13 -->
<g id="edge12" class="edge">
<title>Node6&#45;&gt;Node13</title>
<path fill="none" stroke="midnightblue" d="M407.36,-447.44C386.17,-434.57 355.48,-415.93 337.7,-405.13"/>
<polygon fill="midnightblue" stroke="midnightblue" points="405.71,-450.53 416.07,-452.73 409.34,-444.55 405.71,-450.53"/>
</g>
<!-- Node8 -->
<g id="node8" class="node">
<title>Node8</title>
<g id="a_node8"><a xlink:href="_simple_whiteboard_test_8h.html" target="_top" xlink:title=" ">
<polygon fill="none" stroke="black" points="11,-67.5 11,-97.5 136,-97.5 136,-67.5 11,-67.5"/>
<text text-anchor="start" x="19" y="-85.5" font-family="Helvetica,sans-Serif" font-size="10.00">SimpleWhiteboardTest</text>
<text text-anchor="middle" x="73.5" y="-74.5" font-family="Helvetica,sans-Serif" font-size="10.00">/SimpleWhiteboardTest.h</text>
</a>
</g>
</g>
<!-- Node7&#45;&gt;Node8 -->
<g id="edge7" class="edge">
<title>Node7&#45;&gt;Node8</title>
<path fill="none" stroke="midnightblue" d="M181.63,-130.46C159.44,-120.82 128.79,-107.51 105.79,-97.52"/>
<polygon fill="midnightblue" stroke="midnightblue" points="180.3,-133.7 190.87,-134.48 183.09,-127.28 180.3,-133.7"/>
</g>
<!-- Node10 -->
<g id="node10" class="node">
<title>Node10</title>
<g id="a_node10"><a xlink:href="guwhiteboardgetter_8h.html" target="_top" xlink:title=" ">
<polygon fill="none" stroke="black" points="157,-73 157,-92 264,-92 264,-73 157,-73"/>
<text text-anchor="middle" x="210.5" y="-80" font-family="Helvetica,sans-Serif" font-size="10.00">guwhiteboardgetter.h</text>
</a>
</g>
</g>
<!-- Node7&#45;&gt;Node10 -->
<g id="edge9" class="edge">
<title>Node7&#45;&gt;Node10</title>
<path fill="none" stroke="midnightblue" d="M210.5,-124.32C210.5,-113.5 210.5,-100.4 210.5,-92.01"/>
<polygon fill="midnightblue" stroke="midnightblue" points="207,-124.48 210.5,-134.48 214,-124.48 207,-124.48"/>
</g>
<!-- Node12 -->
<g id="node12" class="node">
<title>Node12</title>
<g id="a_node12"><a xlink:href="guwhiteboardposter_8cpp.html" target="_top" xlink:title=" ">
<polygon fill="none" stroke="black" points="282,-73 282,-92 401,-92 401,-73 282,-73"/>
<text text-anchor="middle" x="341.5" y="-80" font-family="Helvetica,sans-Serif" font-size="10.00">guwhiteboardposter.cpp</text>
</a>
</g>
</g>
<!-- Node7&#45;&gt;Node12 -->
<g id="edge11" class="edge">
<title>Node7&#45;&gt;Node12</title>
<path fill="none" stroke="midnightblue" d="M238.4,-130.33C263.83,-118.78 300.7,-102.03 322.77,-92.01"/>
<polygon fill="midnightblue" stroke="midnightblue" points="236.93,-127.15 229.27,-134.48 239.82,-133.53 236.93,-127.15"/>
</g>
<!-- Node9 -->
<g id="node9" class="node">
<title>Node9</title>
<g id="a_node9"><a xlink:href="_simple_whiteboard_test_8mm.html" target="_top" xlink:title=" ">
<polygon fill="none" stroke="black" points="0,-0.5 0,-30.5 137,-30.5 137,-0.5 0,-0.5"/>
<text text-anchor="start" x="8" y="-18.5" font-family="Helvetica,sans-Serif" font-size="10.00">SimpleWhiteboardTest</text>
<text text-anchor="middle" x="68.5" y="-7.5" font-family="Helvetica,sans-Serif" font-size="10.00">/SimpleWhiteboardTest.mm</text>
</a>
</g>
</g>
<!-- Node8&#45;&gt;Node9 -->
<g id="edge8" class="edge">
<title>Node8&#45;&gt;Node9</title>
<path fill="none" stroke="midnightblue" d="M71.65,-57.4C70.95,-48.37 70.19,-38.41 69.58,-30.58"/>
<polygon fill="midnightblue" stroke="midnightblue" points="68.16,-57.69 72.42,-67.4 75.14,-57.16 68.16,-57.69"/>
</g>
<!-- Node11 -->
<g id="node11" class="node">
<title>Node11</title>
<g id="a_node11"><a xlink:href="guwhiteboardgetter_8cpp.html" target="_top" xlink:title=" ">
<polygon fill="none" stroke="black" points="155,-6 155,-25 272,-25 272,-6 155,-6"/>
<text text-anchor="middle" x="213.5" y="-13" font-family="Helvetica,sans-Serif" font-size="10.00">guwhiteboardgetter.cpp</text>
</a>
</g>
</g>
<!-- Node10&#45;&gt;Node11 -->
<g id="edge10" class="edge">
<title>Node10&#45;&gt;Node11</title>
<path fill="none" stroke="midnightblue" d="M211.38,-62.54C211.95,-50.17 212.66,-34.62 213.1,-25.13"/>
<polygon fill="midnightblue" stroke="midnightblue" points="207.87,-62.58 210.9,-72.73 214.86,-62.91 207.87,-62.58"/>
</g>
<!-- Node14 -->
<g id="node14" class="node">
<title>Node14</title>
<g id="a_node14"><a xlink:href="_particle_position_8hpp.html" target="_top" xlink:title=" ">
<polygon fill="none" stroke="black" points="238,-319 238,-338 407,-338 407,-319 238,-319"/>
<text text-anchor="middle" x="322.5" y="-326" font-family="Helvetica,sans-Serif" font-size="10.00">typeClassDefs/ParticlePosition.hpp</text>
</a>
</g>
</g>
<!-- Node13&#45;&gt;Node14 -->
<g id="edge13" class="edge">
<title>Node13&#45;&gt;Node14</title>
<path fill="none" stroke="midnightblue" d="M323.21,-375.54C323.02,-363.17 322.78,-347.62 322.63,-338.13"/>
<polygon fill="midnightblue" stroke="midnightblue" points="319.71,-375.79 323.37,-385.73 326.71,-375.68 319.71,-375.79"/>
</g>
<!-- Node15 -->
<g id="node15" class="node">
<title>Node15</title>
<g id="a_node15"><a xlink:href="_particle_position_8h.html" target="_top" xlink:title=" ">
<polygon fill="none" stroke="black" points="251.5,-252 251.5,-271 409.5,-271 409.5,-252 251.5,-252"/>
<text text-anchor="middle" x="330.5" y="-259" font-family="Helvetica,sans-Serif" font-size="10.00">typeClassDefs/ParticlePosition.h</text>
</a>
</g>
</g>
<!-- Node14&#45;&gt;Node15 -->
<g id="edge14" class="edge">
<title>Node14&#45;&gt;Node15</title>
<path fill="none" stroke="midnightblue" d="M324.83,-308.54C326.36,-296.17 328.27,-280.62 329.44,-271.13"/>
<polygon fill="midnightblue" stroke="midnightblue" points="321.33,-308.38 323.58,-318.73 328.27,-309.24 321.33,-308.38"/>
</g>
<!-- Node16 -->
<g id="node16" class="node">
<title>Node16</title>
<g id="a_node16"><a xlink:href="_top_particles_8hpp.html" target="_top" xlink:title=" ">
<polygon fill="none" stroke="black" points="269,-190.5 269,-209.5 424,-209.5 424,-190.5 269,-190.5"/>
<text text-anchor="middle" x="346.5" y="-197.5" font-family="Helvetica,sans-Serif" font-size="10.00">typeClassDefs/TopParticles.hpp</text>
</a>
</g>
</g>
<!-- Node15&#45;&gt;Node16 -->
<g id="edge15" class="edge">
<title>Node15&#45;&gt;Node16</title>
<path fill="none" stroke="midnightblue" d="M335.43,-242.16C338.36,-231.27 341.93,-217.99 344.21,-209.51"/>
<polygon fill="midnightblue" stroke="midnightblue" points="332.01,-241.41 332.79,-251.98 338.77,-243.23 332.01,-241.41"/>
</g>
<!-- Node16&#45;&gt;Node7 -->
<g id="edge16" class="edge">
<title>Node16&#45;&gt;Node7</title>
<path fill="none" stroke="midnightblue" d="M315.37,-186.64C289.84,-176.5 254.39,-162.43 231.95,-153.52"/>
<polygon fill="midnightblue" stroke="midnightblue" points="314.36,-190.01 324.95,-190.44 316.95,-183.5 314.36,-190.01"/>
</g>
<!-- Node17 -->
<g id="node17" class="node">
<title>Node17</title>
<g id="a_node17"><a xlink:href="_top_particles_8h.html" target="_top" xlink:title=" ">
<polygon fill="none" stroke="black" points="283,-134.5 283,-153.5 428,-153.5 428,-134.5 283,-134.5"/>
<text text-anchor="middle" x="355.5" y="-141.5" font-family="Helvetica,sans-Serif" font-size="10.00">typeClassDefs/TopParticles.h</text>
</a>
</g>
</g>
<!-- Node16&#45;&gt;Node17 -->
<g id="edge17" class="edge">
<title>Node16&#45;&gt;Node17</title>
<path fill="none" stroke="midnightblue" d="M349.65,-180.1C351.14,-171.14 352.86,-160.86 354.04,-153.75"/>
<polygon fill="midnightblue" stroke="midnightblue" points="346.18,-179.64 347.99,-190.08 353.08,-180.79 346.18,-179.64"/>
</g>
<!-- Node19&#45;&gt;Node14 -->
<g id="edge22" class="edge">
<title>Node19&#45;&gt;Node14</title>
<path fill="none" stroke="midnightblue" d="M613.26,-453.96C562.97,-447.08 496.48,-434.29 441.5,-411 435.65,-408.52 364.25,-358.73 334.94,-338.21"/>
<polygon fill="midnightblue" stroke="midnightblue" points="613.04,-457.46 623.41,-455.3 613.95,-450.52 613.04,-457.46"/>
</g>
<!-- Node20 -->
<g id="node20" class="node">
<title>Node20</title>
<g id="a_node20"><a xlink:href="_particle_position-_bridging-_header_8hpp.html" target="_top" xlink:title=" ">
<polygon fill="none" stroke="black" points="451,-380.5 451,-410.5 602,-410.5 602,-380.5 451,-380.5"/>
<text text-anchor="start" x="459" y="-398.5" font-family="Helvetica,sans-Serif" font-size="10.00">typeClassDefs/ParticlePosition</text>
<text text-anchor="middle" x="526.5" y="-387.5" font-family="Helvetica,sans-Serif" font-size="10.00">&#45;Bridging&#45;Header.hpp</text>
</a>
</g>
</g>
<!-- Node19&#45;&gt;Node20 -->
<g id="edge20" class="edge">
<title>Node19&#45;&gt;Node20</title>
<path fill="none" stroke="midnightblue" d="M644.82,-443.68C618.67,-433.26 586.13,-420.28 561.8,-410.58"/>
<polygon fill="midnightblue" stroke="midnightblue" points="643.55,-446.94 654.13,-447.4 646.14,-440.44 643.55,-446.94"/>
</g>
<!-- Node22 -->
<g id="node22" class="node">
<title>Node22</title>
<g id="a_node22"><a xlink:href="wb__particle__position_8c.html" target="_top" xlink:title=" ">
<polygon fill="none" stroke="black" points="623.5,-380.5 623.5,-410.5 755.5,-410.5 755.5,-380.5 623.5,-380.5"/>
<text text-anchor="start" x="631.5" y="-398.5" font-family="Helvetica,sans-Serif" font-size="10.00">typeClassDefs/wb_particle</text>
<text text-anchor="middle" x="689.5" y="-387.5" font-family="Helvetica,sans-Serif" font-size="10.00">_position.c</text>
</a>
</g>
</g>
<!-- Node19&#45;&gt;Node22 -->
<g id="edge23" class="edge">
<title>Node19&#45;&gt;Node22</title>
<path fill="none" stroke="midnightblue" d="M689.5,-437.11C689.5,-428.15 689.5,-418.32 689.5,-410.58"/>
<polygon fill="midnightblue" stroke="midnightblue" points="686,-437.4 689.5,-447.4 693,-437.4 686,-437.4"/>
</g>
<!-- Node23 -->
<g id="node23" class="node">
<title>Node23</title>
<g id="a_node23"><a xlink:href="wb__top__particles_8h.html" target="_top" xlink:title=" ">
<polygon fill="none" stroke="black" points="775.5,-380.5 775.5,-410.5 889.5,-410.5 889.5,-380.5 775.5,-380.5"/>
<text text-anchor="start" x="783.5" y="-398.5" font-family="Helvetica,sans-Serif" font-size="10.00">typeClassDefs/wb_top</text>
<text text-anchor="middle" x="832.5" y="-387.5" font-family="Helvetica,sans-Serif" font-size="10.00">_particles.h</text>
</a>
</g>
</g>
<!-- Node19&#45;&gt;Node23 -->
<g id="edge24" class="edge">
<title>Node19&#45;&gt;Node23</title>
<path fill="none" stroke="midnightblue" d="M729.91,-443.13C752.63,-432.8 780.56,-420.11 801.53,-410.58"/>
<polygon fill="midnightblue" stroke="midnightblue" points="728.18,-440.07 720.53,-447.4 731.08,-446.44 728.18,-440.07"/>
</g>
<!-- Node21 -->
<g id="node21" class="node">
<title>Node21</title>
<g id="a_node21"><a xlink:href="_particle_position-_bridging-_header_8h.html" target="_top" xlink:title=" ">
<polygon fill="none" stroke="black" points="425,-313.5 425,-343.5 576,-343.5 576,-313.5 425,-313.5"/>
<text text-anchor="start" x="433" y="-331.5" font-family="Helvetica,sans-Serif" font-size="10.00">typeClassDefs/ParticlePosition</text>
<text text-anchor="middle" x="500.5" y="-320.5" font-family="Helvetica,sans-Serif" font-size="10.00">&#45;Bridging&#45;Header.h</text>
</a>
</g>
</g>
<!-- Node20&#45;&gt;Node21 -->
<g id="edge21" class="edge">
<title>Node20&#45;&gt;Node21</title>
<path fill="none" stroke="midnightblue" d="M517.1,-370.99C513.42,-361.8 509.33,-351.58 506.13,-343.58"/>
<polygon fill="midnightblue" stroke="midnightblue" points="513.89,-372.41 520.86,-380.4 520.39,-369.81 513.89,-372.41"/>
</g>
<!-- Node23&#45;&gt;Node3 -->
<g id="edge25" class="edge">
<title>Node23&#45;&gt;Node3</title>
<path fill="none" stroke="midnightblue" d="M864.73,-374.95C879.25,-365.87 896.47,-354.73 911.5,-344 929.52,-331.13 933.09,-326.68 950.5,-313 969.38,-298.17 991.47,-281.05 1004.43,-271.04"/>
<polygon fill="midnightblue" stroke="midnightblue" points="862.73,-372.07 856.08,-380.31 866.42,-378.02 862.73,-372.07"/>
</g>
<!-- Node23&#45;&gt;Node16 -->
<g id="edge30" class="edge">
<title>Node23&#45;&gt;Node16</title>
<path fill="none" stroke="midnightblue" d="M765.56,-379.84C709.43,-367.3 636.41,-350.31 623.5,-344 603.6,-334.28 603.31,-324.68 584.5,-313 509.63,-266.5 412.38,-226.46 369.04,-209.56"/>
<polygon fill="midnightblue" stroke="midnightblue" points="764.95,-383.29 775.47,-382.05 766.47,-376.46 764.95,-383.29"/>
</g>
<!-- Node24 -->
<g id="node24" class="node">
<title>Node24</title>
<g id="a_node24"><a xlink:href="guwhiteboard__c__types__manual__definitions_8h.html" target="_top" xlink:title=" ">
<polygon fill="none" stroke="black" points="959,-313.5 959,-343.5 1072,-343.5 1072,-313.5 959,-313.5"/>
<text text-anchor="start" x="967" y="-331.5" font-family="Helvetica,sans-Serif" font-size="10.00">guwhiteboard_c_types</text>
<text text-anchor="middle" x="1015.5" y="-320.5" font-family="Helvetica,sans-Serif" font-size="10.00">_manual_definitions.h</text>
</a>
</g>
</g>
<!-- Node23&#45;&gt;Node24 -->
<g id="edge26" class="edge">
<title>Node23&#45;&gt;Node24</title>
<path fill="none" stroke="midnightblue" d="M881.9,-376.96C911.37,-366.48 948.31,-353.37 975.87,-343.58"/>
<polygon fill="midnightblue" stroke="midnightblue" points="880.46,-373.75 872.21,-380.4 882.8,-380.35 880.46,-373.75"/>
</g>
<!-- Node25 -->
<g id="node25" class="node">
<title>Node25</title>
<g id="a_node25"><a xlink:href="_top_particles-_bridging-_header_8hpp.html" target="_top" xlink:title=" ">
<polygon fill="none" stroke="black" points="633,-313.5 633,-343.5 770,-343.5 770,-313.5 633,-313.5"/>
<text text-anchor="start" x="641" y="-331.5" font-family="Helvetica,sans-Serif" font-size="10.00">typeClassDefs/TopParticles</text>
<text text-anchor="middle" x="701.5" y="-320.5" font-family="Helvetica,sans-Serif" font-size="10.00">&#45;Bridging&#45;Header.hpp</text>
</a>
</g>
</g>
<!-- Node23&#45;&gt;Node25 -->
<g id="edge28" class="edge">
<title>Node23&#45;&gt;Node25</title>
<path fill="none" stroke="midnightblue" d="M794.92,-375.85C774.21,-365.58 748.91,-353.03 729.87,-343.58"/>
<polygon fill="midnightblue" stroke="midnightblue" points="793.56,-379.09 804.07,-380.4 796.67,-372.82 793.56,-379.09"/>
</g>
<!-- Node27 -->
<g id="node27" class="node">
<title>Node27</title>
<g id="a_node27"><a xlink:href="wb__top__particles_8c.html" target="_top" xlink:title=" ">
<polygon fill="none" stroke="black" points="788.5,-313.5 788.5,-343.5 902.5,-343.5 902.5,-313.5 788.5,-313.5"/>
<text text-anchor="start" x="796.5" y="-331.5" font-family="Helvetica,sans-Serif" font-size="10.00">typeClassDefs/wb_top</text>
<text text-anchor="middle" x="845.5" y="-320.5" font-family="Helvetica,sans-Serif" font-size="10.00">_particles.c</text>
</a>
</g>
</g>
<!-- Node23&#45;&gt;Node27 -->
<g id="edge31" class="edge">
<title>Node23&#45;&gt;Node27</title>
<path fill="none" stroke="midnightblue" d="M837.32,-370.4C839.13,-361.37 841.12,-351.41 842.68,-343.58"/>
<polygon fill="midnightblue" stroke="midnightblue" points="833.85,-369.9 835.32,-380.4 840.71,-371.28 833.85,-369.9"/>
</g>
<!-- Node24&#45;&gt;Node3 -->
<g id="edge27" class="edge">
<title>Node24&#45;&gt;Node3</title>
<path fill="none" stroke="midnightblue" d="M1015.5,-303.25C1015.5,-292.02 1015.5,-279.38 1015.5,-271.19"/>
<polygon fill="midnightblue" stroke="midnightblue" points="1012,-303.4 1015.5,-313.4 1019,-303.4 1012,-303.4"/>
</g>
<!-- Node26 -->
<g id="node26" class="node">
<title>Node26</title>
<g id="a_node26"><a xlink:href="_top_particles-_bridging-_header_8h.html" target="_top" xlink:title=" ">
<polygon fill="none" stroke="black" points="633,-246.5 633,-276.5 770,-276.5 770,-246.5 633,-246.5"/>
<text text-anchor="start" x="641" y="-264.5" font-family="Helvetica,sans-Serif" font-size="10.00">typeClassDefs/TopParticles</text>
<text text-anchor="middle" x="701.5" y="-253.5" font-family="Helvetica,sans-Serif" font-size="10.00">&#45;Bridging&#45;Header.h</text>
</a>
</g>
</g>
<!-- Node25&#45;&gt;Node26 -->
<g id="edge29" class="edge">
<title>Node25&#45;&gt;Node26</title>
<path fill="none" stroke="midnightblue" d="M701.5,-303.11C701.5,-294.15 701.5,-284.32 701.5,-276.58"/>
<polygon fill="midnightblue" stroke="midnightblue" points="698,-303.4 701.5,-313.4 705,-303.4 698,-303.4"/>
</g>
</g>
</svg>
