<?xml version="1.0" encoding="UTF-8" standalone="no"?>
<!DOCTYPE svg PUBLIC "-//W3C//DTD SVG 1.1//EN"
 "http://www.w3.org/Graphics/SVG/1.1/DTD/svg11.dtd">
<!-- Generated by graphviz version 2.49.0 (20210830.1337)
 -->
<!-- Title: typeClassDefs/wb_pixel_coordinate_line.h Pages: 1 -->
<svg width="911pt" height="575pt"
 viewBox="0.00 0.00 911.00 575.00" xmlns="http://www.w3.org/2000/svg" xmlns:xlink="http://www.w3.org/1999/xlink">
<g id="graph0" class="graph" transform="scale(1 1) rotate(0) translate(4 571)">
<title>typeClassDefs/wb_pixel_coordinate_line.h</title>
<!-- Node1 -->
<g id="node1" class="node">
<title>Node1</title>
<g id="a_node1"><a xlink:title=" ">
<polygon fill="#bfbfbf" stroke="black" points="366,-536.5 366,-566.5 486,-566.5 486,-536.5 366,-536.5"/>
<text text-anchor="start" x="374" y="-554.5" font-family="Helvetica,sans-Serif" font-size="10.00">typeClassDefs/wb_pixel</text>
<text text-anchor="middle" x="426" y="-543.5" font-family="Helvetica,sans-Serif" font-size="10.00">_coordinate_line.h</text>
</a>
</g>
</g>
<!-- Node2 -->
<g id="node2" class="node">
<title>Node2</title>
<g id="a_node2"><a xlink:href="_pixel_coordinate_line_8hpp.html" target="_top" xlink:title=" ">
<polygon fill="none" stroke="black" points="300,-469.5 300,-499.5 450,-499.5 450,-469.5 300,-469.5"/>
<text text-anchor="start" x="308" y="-487.5" font-family="Helvetica,sans-Serif" font-size="10.00">typeClassDefs/PixelCoordinate</text>
<text text-anchor="middle" x="375" y="-476.5" font-family="Helvetica,sans-Serif" font-size="10.00">Line.hpp</text>
</a>
</g>
</g>
<!-- Node1&#45;&gt;Node2 -->
<g id="edge1" class="edge">
<title>Node1&#45;&gt;Node2</title>
<path fill="none" stroke="midnightblue" d="M408.7,-528.45C401.21,-518.9 392.66,-508 386.04,-499.58"/>
<polygon fill="midnightblue" stroke="midnightblue" points="406.01,-530.69 414.93,-536.4 411.51,-526.37 406.01,-530.69"/>
</g>
<!-- Node18 -->
<g id="node18" class="node">
<title>Node18</title>
<g id="a_node18"><a xlink:href="wb__pixel__coordinate__line_8c.html" target="_top" xlink:title=" ">
<polygon fill="none" stroke="black" points="506,-469.5 506,-499.5 626,-499.5 626,-469.5 506,-469.5"/>
<text text-anchor="start" x="514" y="-487.5" font-family="Helvetica,sans-Serif" font-size="10.00">typeClassDefs/wb_pixel</text>
<text text-anchor="middle" x="566" y="-476.5" font-family="Helvetica,sans-Serif" font-size="10.00">_coordinate_line.c</text>
</a>
</g>
</g>
<!-- Node1&#45;&gt;Node18 -->
<g id="edge18" class="edge">
<title>Node1&#45;&gt;Node18</title>
<path fill="none" stroke="midnightblue" d="M465.57,-532.13C487.81,-521.8 515.15,-509.11 535.68,-499.58"/>
<polygon fill="midnightblue" stroke="midnightblue" points="463.97,-529.01 456.38,-536.4 466.92,-535.36 463.97,-529.01"/>
</g>
<!-- Node19 -->
<g id="node19" class="node">
<title>Node19</title>
<g id="a_node19"><a xlink:href="wb__vision__detection__line__array_8h.html" target="_top" xlink:title=" ">
<polygon fill="none" stroke="black" points="156,-402.5 156,-432.5 282,-432.5 282,-402.5 156,-402.5"/>
<text text-anchor="start" x="164" y="-420.5" font-family="Helvetica,sans-Serif" font-size="10.00">typeClassDefs/wb_vision</text>
<text text-anchor="middle" x="219" y="-409.5" font-family="Helvetica,sans-Serif" font-size="10.00">_detection_line_array.h</text>
</a>
</g>
</g>
<!-- Node1&#45;&gt;Node19 -->
<g id="edge19" class="edge">
<title>Node1&#45;&gt;Node19</title>
<path fill="none" stroke="midnightblue" d="M360.7,-533.25C337.48,-525.31 311.93,-514.4 291,-500 264.09,-481.49 240.67,-450.78 228.31,-432.81"/>
<polygon fill="midnightblue" stroke="midnightblue" points="359.9,-536.67 370.49,-536.47 362.09,-530.02 359.9,-536.67"/>
</g>
<!-- Node26 -->
<g id="node26" class="node">
<title>Node26</title>
<g id="a_node26"><a xlink:href="wb__vision__line_8h.html" target="_top" xlink:title=" ">
<polygon fill="none" stroke="black" points="556,-402.5 556,-432.5 682,-432.5 682,-402.5 556,-402.5"/>
<text text-anchor="start" x="564" y="-420.5" font-family="Helvetica,sans-Serif" font-size="10.00">typeClassDefs/wb_vision</text>
<text text-anchor="middle" x="619" y="-409.5" font-family="Helvetica,sans-Serif" font-size="10.00">_line.h</text>
</a>
</g>
</g>
<!-- Node1&#45;&gt;Node26 -->
<g id="edge28" class="edge">
<title>Node1&#45;&gt;Node26</title>
<path fill="none" stroke="midnightblue" d="M441.03,-528.12C454.06,-510.14 474.35,-485.29 497,-469 519.34,-452.94 547.54,-440.84 571.2,-432.52"/>
<polygon fill="midnightblue" stroke="midnightblue" points="438.14,-526.14 435.24,-536.33 443.86,-530.18 438.14,-526.14"/>
</g>
<!-- Node3 -->
<g id="node3" class="node">
<title>Node3</title>
<g id="a_node3"><a xlink:href="_pixel_coordinate_line_8h.html" target="_top" xlink:title=" ">
<polygon fill="none" stroke="black" points="300,-402.5 300,-432.5 450,-432.5 450,-402.5 300,-402.5"/>
<text text-anchor="start" x="308" y="-420.5" font-family="Helvetica,sans-Serif" font-size="10.00">typeClassDefs/PixelCoordinate</text>
<text text-anchor="middle" x="375" y="-409.5" font-family="Helvetica,sans-Serif" font-size="10.00">Line.h</text>
</a>
</g>
</g>
<!-- Node2&#45;&gt;Node3 -->
<g id="edge2" class="edge">
<title>Node2&#45;&gt;Node3</title>
<path fill="none" stroke="midnightblue" d="M375,-459.11C375,-450.15 375,-440.32 375,-432.58"/>
<polygon fill="midnightblue" stroke="midnightblue" points="371.5,-459.4 375,-469.4 378.5,-459.4 371.5,-459.4"/>
</g>
<!-- Node4 -->
<g id="node4" class="node">
<title>Node4</title>
<g id="a_node4"><a xlink:href="_vision_detection_line_array_8hpp.html" target="_top" xlink:title=" ">
<polygon fill="none" stroke="black" points="288.5,-335.5 288.5,-365.5 439.5,-365.5 439.5,-335.5 288.5,-335.5"/>
<text text-anchor="start" x="296.5" y="-353.5" font-family="Helvetica,sans-Serif" font-size="10.00">typeClassDefs/VisionDetection</text>
<text text-anchor="middle" x="364" y="-342.5" font-family="Helvetica,sans-Serif" font-size="10.00">LineArray.hpp</text>
</a>
</g>
</g>
<!-- Node3&#45;&gt;Node4 -->
<g id="edge3" class="edge">
<title>Node3&#45;&gt;Node4</title>
<path fill="none" stroke="midnightblue" d="M370.92,-392.4C369.39,-383.37 367.71,-373.41 366.38,-365.58"/>
<polygon fill="midnightblue" stroke="midnightblue" points="367.49,-393.12 372.61,-402.4 374.4,-391.95 367.49,-393.12"/>
</g>
<!-- Node14 -->
<g id="node14" class="node">
<title>Node14</title>
<g id="a_node14"><a xlink:href="_vision_line_8hpp.html" target="_top" xlink:title=" ">
<polygon fill="none" stroke="black" points="469,-341 469,-360 615,-360 615,-341 469,-341"/>
<text text-anchor="middle" x="542" y="-348" font-family="Helvetica,sans-Serif" font-size="10.00">typeClassDefs/VisionLine.hpp</text>
</a>
</g>
</g>
<!-- Node3&#45;&gt;Node14 -->
<g id="edge13" class="edge">
<title>Node3&#45;&gt;Node14</title>
<path fill="none" stroke="midnightblue" d="M420.93,-398.62C453.26,-386.04 495.07,-369.77 520.14,-360.01"/>
<polygon fill="midnightblue" stroke="midnightblue" points="419.29,-395.51 411.24,-402.4 421.83,-402.03 419.29,-395.51"/>
</g>
<!-- Node5 -->
<g id="node5" class="node">
<title>Node5</title>
<g id="a_node5"><a xlink:href="_vision_detection_line_array_8h.html" target="_top" xlink:title=" ">
<polygon fill="none" stroke="black" points="229.5,-268.5 229.5,-298.5 380.5,-298.5 380.5,-268.5 229.5,-268.5"/>
<text text-anchor="start" x="237.5" y="-286.5" font-family="Helvetica,sans-Serif" font-size="10.00">typeClassDefs/VisionDetection</text>
<text text-anchor="middle" x="305" y="-275.5" font-family="Helvetica,sans-Serif" font-size="10.00">LineArray.h</text>
</a>
</g>
</g>
<!-- Node4&#45;&gt;Node5 -->
<g id="edge4" class="edge">
<title>Node4&#45;&gt;Node5</title>
<path fill="none" stroke="midnightblue" d="M344.25,-327.74C335.52,-318.12 325.5,-307.09 317.78,-298.58"/>
<polygon fill="midnightblue" stroke="midnightblue" points="341.89,-330.34 351.2,-335.4 347.07,-325.64 341.89,-330.34"/>
</g>
<!-- Node6 -->
<g id="node6" class="node">
<title>Node6</title>
<g id="a_node6"><a xlink:href="_vision_detection_lines_8hpp.html" target="_top" xlink:title=" ">
<polygon fill="none" stroke="black" points="146.5,-201.5 146.5,-231.5 297.5,-231.5 297.5,-201.5 146.5,-201.5"/>
<text text-anchor="start" x="154.5" y="-219.5" font-family="Helvetica,sans-Serif" font-size="10.00">typeClassDefs/VisionDetection</text>
<text text-anchor="middle" x="222" y="-208.5" font-family="Helvetica,sans-Serif" font-size="10.00">Lines.hpp</text>
</a>
</g>
</g>
<!-- Node5&#45;&gt;Node6 -->
<g id="edge5" class="edge">
<title>Node5&#45;&gt;Node6</title>
<path fill="none" stroke="midnightblue" d="M279.04,-262.17C266.35,-252.23 251.39,-240.51 239.97,-231.58"/>
<polygon fill="midnightblue" stroke="midnightblue" points="276.96,-264.99 286.99,-268.4 281.28,-259.47 276.96,-264.99"/>
</g>
<!-- Node7 -->
<g id="node7" class="node">
<title>Node7</title>
<g id="a_node7"><a xlink:href="guwhiteboardposter_8h.html" target="_top" xlink:title=" ">
<polygon fill="none" stroke="black" points="399.5,-140 399.5,-159 508.5,-159 508.5,-140 399.5,-140"/>
<text text-anchor="middle" x="454" y="-147" font-family="Helvetica,sans-Serif" font-size="10.00">guwhiteboardposter.h</text>
</a>
</g>
</g>
<!-- Node6&#45;&gt;Node7 -->
<g id="edge6" class="edge">
<title>Node6&#45;&gt;Node7</title>
<path fill="none" stroke="midnightblue" d="M281.78,-198.75C327.16,-186.04 387.67,-169.09 423.56,-159.03"/>
<polygon fill="midnightblue" stroke="midnightblue" points="280.74,-195.41 272.05,-201.48 282.63,-202.15 280.74,-195.41"/>
</g>
<!-- Node13 -->
<g id="node13" class="node">
<title>Node13</title>
<g id="a_node13"><a xlink:href="_vision_detection_lines_8h.html" target="_top" xlink:title=" ">
<polygon fill="none" stroke="black" points="146.5,-134.5 146.5,-164.5 297.5,-164.5 297.5,-134.5 146.5,-134.5"/>
<text text-anchor="start" x="154.5" y="-152.5" font-family="Helvetica,sans-Serif" font-size="10.00">typeClassDefs/VisionDetection</text>
<text text-anchor="middle" x="222" y="-141.5" font-family="Helvetica,sans-Serif" font-size="10.00">Lines.h</text>
</a>
</g>
</g>
<!-- Node6&#45;&gt;Node13 -->
<g id="edge12" class="edge">
<title>Node6&#45;&gt;Node13</title>
<path fill="none" stroke="midnightblue" d="M222,-191.11C222,-182.15 222,-172.32 222,-164.58"/>
<polygon fill="midnightblue" stroke="midnightblue" points="218.5,-191.4 222,-201.4 225.5,-191.4 218.5,-191.4"/>
</g>
<!-- Node8 -->
<g id="node8" class="node">
<title>Node8</title>
<g id="a_node8"><a xlink:href="_simple_whiteboard_test_8h.html" target="_top" xlink:title=" ">
<polygon fill="none" stroke="black" points="254.5,-67.5 254.5,-97.5 379.5,-97.5 379.5,-67.5 254.5,-67.5"/>
<text text-anchor="start" x="262.5" y="-85.5" font-family="Helvetica,sans-Serif" font-size="10.00">SimpleWhiteboardTest</text>
<text text-anchor="middle" x="317" y="-74.5" font-family="Helvetica,sans-Serif" font-size="10.00">/SimpleWhiteboardTest.h</text>
</a>
</g>
</g>
<!-- Node7&#45;&gt;Node8 -->
<g id="edge7" class="edge">
<title>Node7&#45;&gt;Node8</title>
<path fill="none" stroke="midnightblue" d="M426.54,-135.47C403.38,-124.49 370.31,-108.79 346.57,-97.53"/>
<polygon fill="midnightblue" stroke="midnightblue" points="425.27,-138.74 435.81,-139.87 428.27,-132.42 425.27,-138.74"/>
</g>
<!-- Node10 -->
<g id="node10" class="node">
<title>Node10</title>
<g id="a_node10"><a xlink:href="guwhiteboardgetter_8h.html" target="_top" xlink:title=" ">
<polygon fill="none" stroke="black" points="400.5,-73 400.5,-92 507.5,-92 507.5,-73 400.5,-73"/>
<text text-anchor="middle" x="454" y="-80" font-family="Helvetica,sans-Serif" font-size="10.00">guwhiteboardgetter.h</text>
</a>
</g>
</g>
<!-- Node7&#45;&gt;Node10 -->
<g id="edge9" class="edge">
<title>Node7&#45;&gt;Node10</title>
<path fill="none" stroke="midnightblue" d="M454,-129.54C454,-117.17 454,-101.62 454,-92.13"/>
<polygon fill="midnightblue" stroke="midnightblue" points="450.5,-129.73 454,-139.73 457.5,-129.73 450.5,-129.73"/>
</g>
<!-- Node12 -->
<g id="node12" class="node">
<title>Node12</title>
<g id="a_node12"><a xlink:href="guwhiteboardposter_8cpp.html" target="_top" xlink:title=" ">
<polygon fill="none" stroke="black" points="525.5,-73 525.5,-92 644.5,-92 644.5,-73 525.5,-73"/>
<text text-anchor="middle" x="585" y="-80" font-family="Helvetica,sans-Serif" font-size="10.00">guwhiteboardposter.cpp</text>
</a>
</g>
</g>
<!-- Node7&#45;&gt;Node12 -->
<g id="edge11" class="edge">
<title>Node7&#45;&gt;Node12</title>
<path fill="none" stroke="midnightblue" d="M480.66,-135.27C506.6,-122.4 545.28,-103.21 567.53,-92.17"/>
<polygon fill="midnightblue" stroke="midnightblue" points="478.8,-132.29 471.4,-139.87 481.91,-138.56 478.8,-132.29"/>
</g>
<!-- Node9 -->
<g id="node9" class="node">
<title>Node9</title>
<g id="a_node9"><a xlink:href="_simple_whiteboard_test_8mm.html" target="_top" xlink:title=" ">
<polygon fill="none" stroke="black" points="243.5,-0.5 243.5,-30.5 380.5,-30.5 380.5,-0.5 243.5,-0.5"/>
<text text-anchor="start" x="251.5" y="-18.5" font-family="Helvetica,sans-Serif" font-size="10.00">SimpleWhiteboardTest</text>
<text text-anchor="middle" x="312" y="-7.5" font-family="Helvetica,sans-Serif" font-size="10.00">/SimpleWhiteboardTest.mm</text>
</a>
</g>
</g>
<!-- Node8&#45;&gt;Node9 -->
<g id="edge8" class="edge">
<title>Node8&#45;&gt;Node9</title>
<path fill="none" stroke="midnightblue" d="M315.15,-57.4C314.45,-48.37 313.69,-38.41 313.08,-30.58"/>
<polygon fill="midnightblue" stroke="midnightblue" points="311.66,-57.69 315.92,-67.4 318.64,-57.16 311.66,-57.69"/>
</g>
<!-- Node11 -->
<g id="node11" class="node">
<title>Node11</title>
<g id="a_node11"><a xlink:href="guwhiteboardgetter_8cpp.html" target="_top" xlink:title=" ">
<polygon fill="none" stroke="black" points="398.5,-6 398.5,-25 515.5,-25 515.5,-6 398.5,-6"/>
<text text-anchor="middle" x="457" y="-13" font-family="Helvetica,sans-Serif" font-size="10.00">guwhiteboardgetter.cpp</text>
</a>
</g>
</g>
<!-- Node10&#45;&gt;Node11 -->
<g id="edge10" class="edge">
<title>Node10&#45;&gt;Node11</title>
<path fill="none" stroke="midnightblue" d="M454.88,-62.54C455.45,-50.17 456.16,-34.62 456.6,-25.13"/>
<polygon fill="midnightblue" stroke="midnightblue" points="451.37,-62.58 454.4,-72.73 458.36,-62.91 451.37,-62.58"/>
</g>
<!-- Node15 -->
<g id="node15" class="node">
<title>Node15</title>
<g id="a_node15"><a xlink:href="_vision_line_8h.html" target="_top" xlink:title=" ">
<polygon fill="none" stroke="black" points="538,-274 538,-293 674,-293 674,-274 538,-274"/>
<text text-anchor="middle" x="606" y="-281" font-family="Helvetica,sans-Serif" font-size="10.00">typeClassDefs/VisionLine.h</text>
</a>
</g>
</g>
<!-- Node14&#45;&gt;Node15 -->
<g id="edge14" class="edge">
<title>Node14&#45;&gt;Node15</title>
<path fill="none" stroke="midnightblue" d="M557.76,-333.5C570.31,-320.75 587.4,-303.39 597.51,-293.13"/>
<polygon fill="midnightblue" stroke="midnightblue" points="555.15,-331.15 550.63,-340.73 560.14,-336.06 555.15,-331.15"/>
</g>
<!-- Node16 -->
<g id="node16" class="node">
<title>Node16</title>
<g id="a_node16"><a xlink:href="_vision_lines_8hpp.html" target="_top" xlink:title=" ">
<polygon fill="none" stroke="black" points="604,-207 604,-226 756,-226 756,-207 604,-207"/>
<text text-anchor="middle" x="680" y="-214" font-family="Helvetica,sans-Serif" font-size="10.00">typeClassDefs/VisionLines.hpp</text>
</a>
</g>
</g>
<!-- Node15&#45;&gt;Node16 -->
<g id="edge15" class="edge">
<title>Node15&#45;&gt;Node16</title>
<path fill="none" stroke="midnightblue" d="M623.81,-266.86C638.36,-254.08 658.38,-236.49 670.18,-226.13"/>
<polygon fill="midnightblue" stroke="midnightblue" points="621.18,-264.5 615.98,-273.73 625.8,-269.76 621.18,-264.5"/>
</g>
<!-- Node16&#45;&gt;Node7 -->
<g id="edge16" class="edge">
<title>Node16&#45;&gt;Node7</title>
<path fill="none" stroke="midnightblue" d="M640.33,-204.09C595.62,-191.23 523.95,-170.62 483.78,-159.06"/>
<polygon fill="midnightblue" stroke="midnightblue" points="639.41,-207.47 649.99,-206.87 641.35,-200.74 639.41,-207.47"/>
</g>
<!-- Node17 -->
<g id="node17" class="node">
<title>Node17</title>
<g id="a_node17"><a xlink:href="_vision_lines_8h.html" target="_top" xlink:title=" ">
<polygon fill="none" stroke="black" points="609.5,-140 609.5,-159 750.5,-159 750.5,-140 609.5,-140"/>
<text text-anchor="middle" x="680" y="-147" font-family="Helvetica,sans-Serif" font-size="10.00">typeClassDefs/VisionLines.h</text>
</a>
</g>
</g>
<!-- Node16&#45;&gt;Node17 -->
<g id="edge17" class="edge">
<title>Node16&#45;&gt;Node17</title>
<path fill="none" stroke="midnightblue" d="M680,-196.54C680,-184.17 680,-168.62 680,-159.13"/>
<polygon fill="midnightblue" stroke="midnightblue" points="676.5,-196.73 680,-206.73 683.5,-196.73 676.5,-196.73"/>
</g>
<!-- Node19&#45;&gt;Node4 -->
<g id="edge20" class="edge">
<title>Node19&#45;&gt;Node4</title>
<path fill="none" stroke="midnightblue" d="M259.67,-398.27C282.76,-387.92 311.24,-375.15 332.6,-365.58"/>
<polygon fill="midnightblue" stroke="midnightblue" points="258.16,-395.11 250.46,-402.4 261.02,-401.5 258.16,-395.11"/>
</g>
<!-- Node20 -->
<g id="node20" class="node">
<title>Node20</title>
<g id="a_node20"><a xlink:href="wb__vision__detection__line__array_8c.html" target="_top" xlink:title=" ">
<polygon fill="none" stroke="black" points="0,-335.5 0,-365.5 126,-365.5 126,-335.5 0,-335.5"/>
<text text-anchor="start" x="8" y="-353.5" font-family="Helvetica,sans-Serif" font-size="10.00">typeClassDefs/wb_vision</text>
<text text-anchor="middle" x="63" y="-342.5" font-family="Helvetica,sans-Serif" font-size="10.00">_detection_line_array.c</text>
</a>
</g>
</g>
<!-- Node19&#45;&gt;Node20 -->
<g id="edge21" class="edge">
<title>Node19&#45;&gt;Node20</title>
<path fill="none" stroke="midnightblue" d="M175.91,-398.54C150.94,-388.14 119.97,-375.24 96.78,-365.58"/>
<polygon fill="midnightblue" stroke="midnightblue" points="174.57,-401.78 185.15,-402.4 177.27,-395.32 174.57,-401.78"/>
</g>
<!-- Node21 -->
<g id="node21" class="node">
<title>Node21</title>
<g id="a_node21"><a xlink:href="wb__vision__detection__lines_8h.html" target="_top" xlink:title=" ">
<polygon fill="none" stroke="black" points="144,-335.5 144,-365.5 270,-365.5 270,-335.5 144,-335.5"/>
<text text-anchor="start" x="152" y="-353.5" font-family="Helvetica,sans-Serif" font-size="10.00">typeClassDefs/wb_vision</text>
<text text-anchor="middle" x="207" y="-342.5" font-family="Helvetica,sans-Serif" font-size="10.00">_detection_lines.h</text>
</a>
</g>
</g>
<!-- Node19&#45;&gt;Node21 -->
<g id="edge22" class="edge">
<title>Node19&#45;&gt;Node21</title>
<path fill="none" stroke="midnightblue" d="M214.55,-392.4C212.88,-383.37 211.04,-373.41 209.6,-365.58"/>
<polygon fill="midnightblue" stroke="midnightblue" points="211.14,-393.2 216.4,-402.4 218.02,-391.93 211.14,-393.2"/>
</g>
<!-- Node21&#45;&gt;Node6 -->
<g id="edge26" class="edge">
<title>Node21&#45;&gt;Node6</title>
<path fill="none" stroke="midnightblue" d="M209.74,-325.39C212.86,-297.9 217.86,-253.89 220.41,-231.52"/>
<polygon fill="midnightblue" stroke="midnightblue" points="206.26,-325.04 208.61,-335.37 213.21,-325.83 206.26,-325.04"/>
</g>
<!-- Node22 -->
<g id="node22" class="node">
<title>Node22</title>
<g id="a_node22"><a xlink:href="guwhiteboard__c__types_8h.html" target="_top" xlink:title=" ">
<polygon fill="none" stroke="black" points="398.5,-274 398.5,-293 519.5,-293 519.5,-274 398.5,-274"/>
<text text-anchor="middle" x="459" y="-281" font-family="Helvetica,sans-Serif" font-size="10.00">guwhiteboard_c_types.h</text>
</a>
</g>
</g>
<!-- Node21&#45;&gt;Node22 -->
<g id="edge23" class="edge">
<title>Node21&#45;&gt;Node22</title>
<path fill="none" stroke="midnightblue" d="M271.32,-332.91C320.67,-320.18 386.78,-303.13 425.94,-293.03"/>
<polygon fill="midnightblue" stroke="midnightblue" points="270.18,-329.59 261.37,-335.48 271.93,-336.37 270.18,-329.59"/>
</g>
<!-- Node25 -->
<g id="node25" class="node">
<title>Node25</title>
<g id="a_node25"><a xlink:href="wb__vision__detection__lines_8c.html" target="_top" xlink:title=" ">
<polygon fill="none" stroke="black" points="47,-268.5 47,-298.5 173,-298.5 173,-268.5 47,-268.5"/>
<text text-anchor="start" x="55" y="-286.5" font-family="Helvetica,sans-Serif" font-size="10.00">typeClassDefs/wb_vision</text>
<text text-anchor="middle" x="110" y="-275.5" font-family="Helvetica,sans-Serif" font-size="10.00">_detection_lines.c</text>
</a>
</g>
</g>
<!-- Node21&#45;&gt;Node25 -->
<g id="edge27" class="edge">
<title>Node21&#45;&gt;Node25</title>
<path fill="none" stroke="midnightblue" d="M177.5,-329.73C162.49,-319.68 144.6,-307.68 131.01,-298.58"/>
<polygon fill="midnightblue" stroke="midnightblue" points="175.7,-332.74 185.95,-335.4 179.59,-326.92 175.7,-332.74"/>
</g>
<!-- Node23 -->
<g id="node23" class="node">
<title>Node23</title>
<g id="a_node23"><a xlink:href="guwhiteboarddeserialiser_8c.html" target="_top" xlink:title=" ">
<polygon fill="none" stroke="black" points="315.5,-207 315.5,-226 446.5,-226 446.5,-207 315.5,-207"/>
<text text-anchor="middle" x="381" y="-214" font-family="Helvetica,sans-Serif" font-size="10.00">guwhiteboarddeserialiser.c</text>
</a>
</g>
</g>
<!-- Node22&#45;&gt;Node23 -->
<g id="edge24" class="edge">
<title>Node22&#45;&gt;Node23</title>
<path fill="none" stroke="midnightblue" d="M440.66,-267.21C425.29,-254.41 403.91,-236.59 391.35,-226.13"/>
<polygon fill="midnightblue" stroke="midnightblue" points="438.56,-270.02 448.48,-273.73 443.04,-264.64 438.56,-270.02"/>
</g>
<!-- Node24 -->
<g id="node24" class="node">
<title>Node24</title>
<g id="a_node24"><a xlink:href="guwhiteboardserialiser_8c.html" target="_top" xlink:title=" ">
<polygon fill="none" stroke="black" points="464.5,-207 464.5,-226 585.5,-226 585.5,-207 464.5,-207"/>
<text text-anchor="middle" x="525" y="-214" font-family="Helvetica,sans-Serif" font-size="10.00">guwhiteboardserialiser.c</text>
</a>
</g>
</g>
<!-- Node22&#45;&gt;Node24 -->
<g id="edge25" class="edge">
<title>Node22&#45;&gt;Node24</title>
<path fill="none" stroke="midnightblue" d="M475.25,-266.5C488.19,-253.75 505.81,-236.39 516.24,-226.13"/>
<polygon fill="midnightblue" stroke="midnightblue" points="472.57,-264.22 467.9,-273.73 477.48,-269.21 472.57,-264.22"/>
</g>
<!-- Node26&#45;&gt;Node14 -->
<g id="edge29" class="edge">
<title>Node26&#45;&gt;Node14</title>
<path fill="none" stroke="midnightblue" d="M594.33,-395.67C580.11,-383.67 562.99,-369.22 552.3,-360.19"/>
<polygon fill="midnightblue" stroke="midnightblue" points="592.39,-398.62 602.29,-402.4 596.91,-393.27 592.39,-398.62"/>
</g>
<!-- Node27 -->
<g id="node27" class="node">
<title>Node27</title>
<g id="a_node27"><a xlink:href="wb__vision__line_8c.html" target="_top" xlink:title=" ">
<polygon fill="none" stroke="black" points="777,-335.5 777,-365.5 903,-365.5 903,-335.5 777,-335.5"/>
<text text-anchor="start" x="785" y="-353.5" font-family="Helvetica,sans-Serif" font-size="10.00">typeClassDefs/wb_vision</text>
<text text-anchor="middle" x="840" y="-342.5" font-family="Helvetica,sans-Serif" font-size="10.00">_line.c</text>
</a>
</g>
</g>
<!-- Node26&#45;&gt;Node27 -->
<g id="edge30" class="edge">
<title>Node26&#45;&gt;Node27</title>
<path fill="none" stroke="midnightblue" d="M676.53,-399.58C712.42,-389.02 758.09,-375.59 792.02,-365.61"/>
<polygon fill="midnightblue" stroke="midnightblue" points="675.29,-396.3 666.68,-402.48 677.26,-403.01 675.29,-396.3"/>
</g>
<!-- Node28 -->
<g id="node28" class="node">
<title>Node28</title>
<g id="a_node28"><a xlink:href="wb__vision__lines_8h.html" target="_top" xlink:title=" ">
<polygon fill="none" stroke="black" points="633,-335.5 633,-365.5 759,-365.5 759,-335.5 633,-335.5"/>
<text text-anchor="start" x="641" y="-353.5" font-family="Helvetica,sans-Serif" font-size="10.00">typeClassDefs/wb_vision</text>
<text text-anchor="middle" x="696" y="-342.5" font-family="Helvetica,sans-Serif" font-size="10.00">_lines.h</text>
</a>
</g>
</g>
<!-- Node26&#45;&gt;Node28 -->
<g id="edge31" class="edge">
<title>Node26&#45;&gt;Node28</title>
<path fill="none" stroke="midnightblue" d="M643.42,-395.88C655.12,-386.01 668.84,-374.43 679.32,-365.58"/>
<polygon fill="midnightblue" stroke="midnightblue" points="641.09,-393.27 635.71,-402.4 645.61,-398.62 641.09,-393.27"/>
</g>
<!-- Node28&#45;&gt;Node16 -->
<g id="edge33" class="edge">
<title>Node28&#45;&gt;Node16</title>
<path fill="none" stroke="midnightblue" d="M693.07,-325.32C689.44,-295.38 683.44,-245.91 681.04,-226.1"/>
<polygon fill="midnightblue" stroke="midnightblue" points="689.61,-325.87 694.29,-335.37 696.56,-325.03 689.61,-325.87"/>
</g>
<!-- Node28&#45;&gt;Node22 -->
<g id="edge32" class="edge">
<title>Node28&#45;&gt;Node22</title>
<path fill="none" stroke="midnightblue" d="M635.22,-332.83C588.84,-320.11 526.84,-303.11 490.1,-293.03"/>
<polygon fill="midnightblue" stroke="midnightblue" points="634.3,-336.21 644.87,-335.48 636.15,-329.46 634.3,-336.21"/>
</g>
<!-- Node29 -->
<g id="node29" class="node">
<title>Node29</title>
<g id="a_node29"><a xlink:href="wb__vision__lines_8c.html" target="_top" xlink:title=" ">
<polygon fill="none" stroke="black" points="730,-268.5 730,-298.5 856,-298.5 856,-268.5 730,-268.5"/>
<text text-anchor="start" x="738" y="-286.5" font-family="Helvetica,sans-Serif" font-size="10.00">typeClassDefs/wb_vision</text>
<text text-anchor="middle" x="793" y="-275.5" font-family="Helvetica,sans-Serif" font-size="10.00">_lines.c</text>
</a>
</g>
</g>
<!-- Node28&#45;&gt;Node29 -->
<g id="edge34" class="edge">
<title>Node28&#45;&gt;Node29</title>
<path fill="none" stroke="midnightblue" d="M725.5,-329.73C740.51,-319.68 758.4,-307.68 771.99,-298.58"/>
<polygon fill="midnightblue" stroke="midnightblue" points="723.41,-326.92 717.05,-335.4 727.3,-332.74 723.41,-326.92"/>
</g>
</g>
</svg>
