<?xml version="1.0" encoding="UTF-8" standalone="no"?>
<!DOCTYPE svg PUBLIC "-//W3C//DTD SVG 1.1//EN"
 "http://www.w3.org/Graphics/SVG/1.1/DTD/svg11.dtd">
<!-- Generated by graphviz version 2.49.0 (20210830.1337)
 -->
<!-- Title: typeClassDefs/wb_gu_vr_teleop_vulkan_control.h Pages: 1 -->
<svg width="582pt" height="307pt"
 viewBox="0.00 0.00 582.00 307.00" xmlns="http://www.w3.org/2000/svg" xmlns:xlink="http://www.w3.org/1999/xlink">
<g id="graph0" class="graph" transform="scale(1 1) rotate(0) translate(4 303)">
<title>typeClassDefs/wb_gu_vr_teleop_vulkan_control.h</title>
<!-- Node1 -->
<g id="node1" class="node">
<title>Node1</title>
<g id="a_node1"><a xlink:title=" ">
<polygon fill="#bfbfbf" stroke="black" points="283,-268.5 283,-298.5 420,-298.5 420,-268.5 283,-268.5"/>
<text text-anchor="start" x="291" y="-286.5" font-family="Helvetica,sans-Serif" font-size="10.00">typeClassDefs/wb_gu</text>
<text text-anchor="middle" x="351.5" y="-275.5" font-family="Helvetica,sans-Serif" font-size="10.00">_vr_teleop_vulkan_control.h</text>
</a>
</g>
</g>
<!-- Node2 -->
<g id="node2" class="node">
<title>Node2</title>
<g id="a_node2"><a xlink:href="guwhiteboard__c__types_8h.html" target="_top" xlink:title=" ">
<polygon fill="none" stroke="black" points="145,-207 145,-226 266,-226 266,-207 145,-207"/>
<text text-anchor="middle" x="205.5" y="-214" font-family="Helvetica,sans-Serif" font-size="10.00">guwhiteboard_c_types.h</text>
</a>
</g>
</g>
<!-- Node1&#45;&gt;Node2 -->
<g id="edge1" class="edge">
<title>Node1&#45;&gt;Node2</title>
<path fill="none" stroke="midnightblue" d="M310.61,-264.3C282.45,-251.76 246.34,-235.68 224.61,-226.01"/>
<polygon fill="midnightblue" stroke="midnightblue" points="309.26,-267.53 319.82,-268.4 312.11,-261.13 309.26,-267.53"/>
</g>
<!-- Node5 -->
<g id="node5" class="node">
<title>Node5</title>
<g id="a_node5"><a xlink:href="_gu_vr_teleop_vulkan_control_8hpp.html" target="_top" xlink:title=" ">
<polygon fill="none" stroke="black" points="284.5,-201.5 284.5,-231.5 418.5,-231.5 418.5,-201.5 284.5,-201.5"/>
<text text-anchor="start" x="292.5" y="-219.5" font-family="Helvetica,sans-Serif" font-size="10.00">typeClassDefs/GuVrTeleop</text>
<text text-anchor="middle" x="351.5" y="-208.5" font-family="Helvetica,sans-Serif" font-size="10.00">VulkanControl.hpp</text>
</a>
</g>
</g>
<!-- Node1&#45;&gt;Node5 -->
<g id="edge4" class="edge">
<title>Node1&#45;&gt;Node5</title>
<path fill="none" stroke="midnightblue" d="M351.5,-258.11C351.5,-249.15 351.5,-239.32 351.5,-231.58"/>
<polygon fill="midnightblue" stroke="midnightblue" points="348,-258.4 351.5,-268.4 355,-258.4 348,-258.4"/>
</g>
<!-- Node13 -->
<g id="node13" class="node">
<title>Node13</title>
<g id="a_node13"><a xlink:href="wb__gu__vr__teleop__vulkan__control_8c.html" target="_top" xlink:title=" ">
<polygon fill="none" stroke="black" points="437,-201.5 437,-231.5 574,-231.5 574,-201.5 437,-201.5"/>
<text text-anchor="start" x="445" y="-219.5" font-family="Helvetica,sans-Serif" font-size="10.00">typeClassDefs/wb_gu</text>
<text text-anchor="middle" x="505.5" y="-208.5" font-family="Helvetica,sans-Serif" font-size="10.00">_vr_teleop_vulkan_control.c</text>
</a>
</g>
</g>
<!-- Node1&#45;&gt;Node13 -->
<g id="edge12" class="edge">
<title>Node1&#45;&gt;Node13</title>
<path fill="none" stroke="midnightblue" d="M394.37,-264.41C418.95,-254.03 449.36,-241.2 472.15,-231.58"/>
<polygon fill="midnightblue" stroke="midnightblue" points="392.77,-261.28 384.92,-268.4 395.49,-267.73 392.77,-261.28"/>
</g>
<!-- Node3 -->
<g id="node3" class="node">
<title>Node3</title>
<g id="a_node3"><a xlink:href="guwhiteboarddeserialiser_8c.html" target="_top" xlink:title=" ">
<polygon fill="none" stroke="black" points="0,-140 0,-159 131,-159 131,-140 0,-140"/>
<text text-anchor="middle" x="65.5" y="-147" font-family="Helvetica,sans-Serif" font-size="10.00">guwhiteboarddeserialiser.c</text>
</a>
</g>
</g>
<!-- Node2&#45;&gt;Node3 -->
<g id="edge2" class="edge">
<title>Node2&#45;&gt;Node3</title>
<path fill="none" stroke="midnightblue" d="M177.74,-202.61C150.01,-189.74 108.16,-170.31 84.17,-159.17"/>
<polygon fill="midnightblue" stroke="midnightblue" points="176.37,-205.83 186.91,-206.87 179.31,-199.48 176.37,-205.83"/>
</g>
<!-- Node4 -->
<g id="node4" class="node">
<title>Node4</title>
<g id="a_node4"><a xlink:href="guwhiteboardserialiser_8c.html" target="_top" xlink:title=" ">
<polygon fill="none" stroke="black" points="149,-140 149,-159 270,-159 270,-140 149,-140"/>
<text text-anchor="middle" x="209.5" y="-147" font-family="Helvetica,sans-Serif" font-size="10.00">guwhiteboardserialiser.c</text>
</a>
</g>
</g>
<!-- Node2&#45;&gt;Node4 -->
<g id="edge3" class="edge">
<title>Node2&#45;&gt;Node4</title>
<path fill="none" stroke="midnightblue" d="M206.67,-196.54C207.43,-184.17 208.38,-168.62 208.97,-159.13"/>
<polygon fill="midnightblue" stroke="midnightblue" points="203.16,-196.54 206.04,-206.73 210.15,-196.97 203.16,-196.54"/>
</g>
<!-- Node6 -->
<g id="node6" class="node">
<title>Node6</title>
<g id="a_node6"><a xlink:href="guwhiteboardposter_8h.html" target="_top" xlink:title=" ">
<polygon fill="none" stroke="black" points="294,-140 294,-159 403,-159 403,-140 294,-140"/>
<text text-anchor="middle" x="348.5" y="-147" font-family="Helvetica,sans-Serif" font-size="10.00">guwhiteboardposter.h</text>
</a>
</g>
</g>
<!-- Node5&#45;&gt;Node6 -->
<g id="edge5" class="edge">
<title>Node5&#45;&gt;Node6</title>
<path fill="none" stroke="midnightblue" d="M350.38,-191.25C349.86,-180.02 349.28,-167.38 348.9,-159.19"/>
<polygon fill="midnightblue" stroke="midnightblue" points="346.89,-191.57 350.85,-201.4 353.88,-191.25 346.89,-191.57"/>
</g>
<!-- Node12 -->
<g id="node12" class="node">
<title>Node12</title>
<g id="a_node12"><a xlink:href="_gu_vr_teleop_vulkan_control_8h.html" target="_top" xlink:title=" ">
<polygon fill="none" stroke="black" points="421.5,-134.5 421.5,-164.5 555.5,-164.5 555.5,-134.5 421.5,-134.5"/>
<text text-anchor="start" x="429.5" y="-152.5" font-family="Helvetica,sans-Serif" font-size="10.00">typeClassDefs/GuVrTeleop</text>
<text text-anchor="middle" x="488.5" y="-141.5" font-family="Helvetica,sans-Serif" font-size="10.00">VulkanControl.h</text>
</a>
</g>
</g>
<!-- Node5&#45;&gt;Node12 -->
<g id="edge11" class="edge">
<title>Node5&#45;&gt;Node12</title>
<path fill="none" stroke="midnightblue" d="M390.51,-196.99C412.22,-186.69 438.83,-174.07 458.83,-164.58"/>
<polygon fill="midnightblue" stroke="midnightblue" points="388.76,-193.95 381.23,-201.4 391.76,-200.27 388.76,-193.95"/>
</g>
<!-- Node7 -->
<g id="node7" class="node">
<title>Node7</title>
<g id="a_node7"><a xlink:href="_simple_whiteboard_test_8h.html" target="_top" xlink:title=" ">
<polygon fill="none" stroke="black" points="149,-67.5 149,-97.5 274,-97.5 274,-67.5 149,-67.5"/>
<text text-anchor="start" x="157" y="-85.5" font-family="Helvetica,sans-Serif" font-size="10.00">SimpleWhiteboardTest</text>
<text text-anchor="middle" x="211.5" y="-74.5" font-family="Helvetica,sans-Serif" font-size="10.00">/SimpleWhiteboardTest.h</text>
</a>
</g>
</g>
<!-- Node6&#45;&gt;Node7 -->
<g id="edge6" class="edge">
<title>Node6&#45;&gt;Node7</title>
<path fill="none" stroke="midnightblue" d="M321.04,-135.47C297.88,-124.49 264.81,-108.79 241.07,-97.53"/>
<polygon fill="midnightblue" stroke="midnightblue" points="319.77,-138.74 330.31,-139.87 322.77,-132.42 319.77,-138.74"/>
</g>
<!-- Node9 -->
<g id="node9" class="node">
<title>Node9</title>
<g id="a_node9"><a xlink:href="guwhiteboardgetter_8h.html" target="_top" xlink:title=" ">
<polygon fill="none" stroke="black" points="295,-73 295,-92 402,-92 402,-73 295,-73"/>
<text text-anchor="middle" x="348.5" y="-80" font-family="Helvetica,sans-Serif" font-size="10.00">guwhiteboardgetter.h</text>
</a>
</g>
</g>
<!-- Node6&#45;&gt;Node9 -->
<g id="edge8" class="edge">
<title>Node6&#45;&gt;Node9</title>
<path fill="none" stroke="midnightblue" d="M348.5,-129.54C348.5,-117.17 348.5,-101.62 348.5,-92.13"/>
<polygon fill="midnightblue" stroke="midnightblue" points="345,-129.73 348.5,-139.73 352,-129.73 345,-129.73"/>
</g>
<!-- Node11 -->
<g id="node11" class="node">
<title>Node11</title>
<g id="a_node11"><a xlink:href="guwhiteboardposter_8cpp.html" target="_top" xlink:title=" ">
<polygon fill="none" stroke="black" points="420,-73 420,-92 539,-92 539,-73 420,-73"/>
<text text-anchor="middle" x="479.5" y="-80" font-family="Helvetica,sans-Serif" font-size="10.00">guwhiteboardposter.cpp</text>
</a>
</g>
</g>
<!-- Node6&#45;&gt;Node11 -->
<g id="edge10" class="edge">
<title>Node6&#45;&gt;Node11</title>
<path fill="none" stroke="midnightblue" d="M375.16,-135.27C401.1,-122.4 439.78,-103.21 462.03,-92.17"/>
<polygon fill="midnightblue" stroke="midnightblue" points="373.3,-132.29 365.9,-139.87 376.41,-138.56 373.3,-132.29"/>
</g>
<!-- Node8 -->
<g id="node8" class="node">
<title>Node8</title>
<g id="a_node8"><a xlink:href="_simple_whiteboard_test_8mm.html" target="_top" xlink:title=" ">
<polygon fill="none" stroke="black" points="138,-0.5 138,-30.5 275,-30.5 275,-0.5 138,-0.5"/>
<text text-anchor="start" x="146" y="-18.5" font-family="Helvetica,sans-Serif" font-size="10.00">SimpleWhiteboardTest</text>
<text text-anchor="middle" x="206.5" y="-7.5" font-family="Helvetica,sans-Serif" font-size="10.00">/SimpleWhiteboardTest.mm</text>
</a>
</g>
</g>
<!-- Node7&#45;&gt;Node8 -->
<g id="edge7" class="edge">
<title>Node7&#45;&gt;Node8</title>
<path fill="none" stroke="midnightblue" d="M209.65,-57.4C208.95,-48.37 208.19,-38.41 207.58,-30.58"/>
<polygon fill="midnightblue" stroke="midnightblue" points="206.16,-57.69 210.42,-67.4 213.14,-57.16 206.16,-57.69"/>
</g>
<!-- Node10 -->
<g id="node10" class="node">
<title>Node10</title>
<g id="a_node10"><a xlink:href="guwhiteboardgetter_8cpp.html" target="_top" xlink:title=" ">
<polygon fill="none" stroke="black" points="293,-6 293,-25 410,-25 410,-6 293,-6"/>
<text text-anchor="middle" x="351.5" y="-13" font-family="Helvetica,sans-Serif" font-size="10.00">guwhiteboardgetter.cpp</text>
</a>
</g>
</g>
<!-- Node9&#45;&gt;Node10 -->
<g id="edge9" class="edge">
<title>Node9&#45;&gt;Node10</title>
<path fill="none" stroke="midnightblue" d="M349.38,-62.54C349.95,-50.17 350.66,-34.62 351.1,-25.13"/>
<polygon fill="midnightblue" stroke="midnightblue" points="345.87,-62.58 348.9,-72.73 352.86,-62.91 345.87,-62.58"/>
</g>
</g>
</svg>
