<?xml version="1.0" encoding="UTF-8" standalone="no"?>
<!DOCTYPE svg PUBLIC "-//W3C//DTD SVG 1.1//EN"
 "http://www.w3.org/Graphics/SVG/1.1/DTD/svg11.dtd">
<!-- Generated by graphviz version 2.49.0 (20210830.1337)
 -->
<!-- Title: typeClassDefs/wb_input3d.h Pages: 1 -->
<svg width="511pt" height="274pt"
 viewBox="0.00 0.00 510.50 274.00" xmlns="http://www.w3.org/2000/svg" xmlns:xlink="http://www.w3.org/1999/xlink">
<g id="graph0" class="graph" transform="scale(1 1) rotate(0) translate(4 270)">
<title>typeClassDefs/wb_input3d.h</title>
<!-- Node1 -->
<g id="node1" class="node">
<title>Node1</title>
<g id="a_node1"><a xlink:title=" ">
<polygon fill="#bfbfbf" stroke="black" points="284.5,-246.5 284.5,-265.5 424.5,-265.5 424.5,-246.5 284.5,-246.5"/>
<text text-anchor="middle" x="354.5" y="-253.5" font-family="Helvetica,sans-Serif" font-size="10.00">typeClassDefs/wb_input3d.h</text>
</a>
</g>
</g>
<!-- Node2 -->
<g id="node2" class="node">
<title>Node2</title>
<g id="a_node2"><a xlink:href="_input3_d_8hpp.html" target="_top" xlink:title=" ">
<polygon fill="none" stroke="black" points="210.5,-190.5 210.5,-209.5 344.5,-209.5 344.5,-190.5 210.5,-190.5"/>
<text text-anchor="middle" x="277.5" y="-197.5" font-family="Helvetica,sans-Serif" font-size="10.00">typeClassDefs/Input3D.hpp</text>
</a>
</g>
</g>
<!-- Node1&#45;&gt;Node2 -->
<g id="edge1" class="edge">
<title>Node1&#45;&gt;Node2</title>
<path fill="none" stroke="midnightblue" d="M333.6,-240.34C319.59,-230.52 301.62,-217.91 289.84,-209.65"/>
<polygon fill="midnightblue" stroke="midnightblue" points="331.93,-243.45 342.13,-246.32 335.95,-237.72 331.93,-243.45"/>
</g>
<!-- Node10 -->
<g id="node10" class="node">
<title>Node10</title>
<g id="a_node10"><a xlink:href="wb__input3d_8c.html" target="_top" xlink:title=" ">
<polygon fill="none" stroke="black" points="362.5,-190.5 362.5,-209.5 502.5,-209.5 502.5,-190.5 362.5,-190.5"/>
<text text-anchor="middle" x="432.5" y="-197.5" font-family="Helvetica,sans-Serif" font-size="10.00">typeClassDefs/wb_input3d.c</text>
</a>
</g>
</g>
<!-- Node1&#45;&gt;Node10 -->
<g id="edge9" class="edge">
<title>Node1&#45;&gt;Node10</title>
<path fill="none" stroke="midnightblue" d="M375.27,-240.62C389.52,-230.76 407.96,-217.99 420,-209.65"/>
<polygon fill="midnightblue" stroke="midnightblue" points="373.26,-237.75 367.03,-246.32 377.25,-243.51 373.26,-237.75"/>
</g>
<!-- Node3 -->
<g id="node3" class="node">
<title>Node3</title>
<g id="a_node3"><a xlink:href="guwhiteboardposter_8h.html" target="_top" xlink:title=" ">
<polygon fill="none" stroke="black" points="156,-134.5 156,-153.5 265,-153.5 265,-134.5 156,-134.5"/>
<text text-anchor="middle" x="210.5" y="-141.5" font-family="Helvetica,sans-Serif" font-size="10.00">guwhiteboardposter.h</text>
</a>
</g>
</g>
<!-- Node2&#45;&gt;Node3 -->
<g id="edge2" class="edge">
<title>Node2&#45;&gt;Node3</title>
<path fill="none" stroke="midnightblue" d="M258.67,-183.82C246.66,-174.15 231.53,-161.95 221.46,-153.83"/>
<polygon fill="midnightblue" stroke="midnightblue" points="256.75,-186.77 266.74,-190.32 261.15,-181.32 256.75,-186.77"/>
</g>
<!-- Node9 -->
<g id="node9" class="node">
<title>Node9</title>
<g id="a_node9"><a xlink:href="_input3_d_8h.html" target="_top" xlink:title=" ">
<polygon fill="none" stroke="black" points="283.5,-134.5 283.5,-153.5 407.5,-153.5 407.5,-134.5 283.5,-134.5"/>
<text text-anchor="middle" x="345.5" y="-141.5" font-family="Helvetica,sans-Serif" font-size="10.00">typeClassDefs/Input3D.h</text>
</a>
</g>
</g>
<!-- Node2&#45;&gt;Node9 -->
<g id="edge8" class="edge">
<title>Node2&#45;&gt;Node9</title>
<path fill="none" stroke="midnightblue" d="M296.26,-184.1C308.5,-174.38 324.06,-162.03 334.38,-153.83"/>
<polygon fill="midnightblue" stroke="midnightblue" points="294.08,-181.36 288.43,-190.32 298.43,-186.85 294.08,-181.36"/>
</g>
<!-- Node4 -->
<g id="node4" class="node">
<title>Node4</title>
<g id="a_node4"><a xlink:href="_simple_whiteboard_test_8h.html" target="_top" xlink:title=" ">
<polygon fill="none" stroke="black" points="11,-67.5 11,-97.5 136,-97.5 136,-67.5 11,-67.5"/>
<text text-anchor="start" x="19" y="-85.5" font-family="Helvetica,sans-Serif" font-size="10.00">SimpleWhiteboardTest</text>
<text text-anchor="middle" x="73.5" y="-74.5" font-family="Helvetica,sans-Serif" font-size="10.00">/SimpleWhiteboardTest.h</text>
</a>
</g>
</g>
<!-- Node3&#45;&gt;Node4 -->
<g id="edge3" class="edge">
<title>Node3&#45;&gt;Node4</title>
<path fill="none" stroke="midnightblue" d="M181.63,-130.46C159.44,-120.82 128.79,-107.51 105.79,-97.52"/>
<polygon fill="midnightblue" stroke="midnightblue" points="180.3,-133.7 190.87,-134.48 183.09,-127.28 180.3,-133.7"/>
</g>
<!-- Node6 -->
<g id="node6" class="node">
<title>Node6</title>
<g id="a_node6"><a xlink:href="guwhiteboardgetter_8h.html" target="_top" xlink:title=" ">
<polygon fill="none" stroke="black" points="157,-73 157,-92 264,-92 264,-73 157,-73"/>
<text text-anchor="middle" x="210.5" y="-80" font-family="Helvetica,sans-Serif" font-size="10.00">guwhiteboardgetter.h</text>
</a>
</g>
</g>
<!-- Node3&#45;&gt;Node6 -->
<g id="edge5" class="edge">
<title>Node3&#45;&gt;Node6</title>
<path fill="none" stroke="midnightblue" d="M210.5,-124.32C210.5,-113.5 210.5,-100.4 210.5,-92.01"/>
<polygon fill="midnightblue" stroke="midnightblue" points="207,-124.48 210.5,-134.48 214,-124.48 207,-124.48"/>
</g>
<!-- Node8 -->
<g id="node8" class="node">
<title>Node8</title>
<g id="a_node8"><a xlink:href="guwhiteboardposter_8cpp.html" target="_top" xlink:title=" ">
<polygon fill="none" stroke="black" points="282,-73 282,-92 401,-92 401,-73 282,-73"/>
<text text-anchor="middle" x="341.5" y="-80" font-family="Helvetica,sans-Serif" font-size="10.00">guwhiteboardposter.cpp</text>
</a>
</g>
</g>
<!-- Node3&#45;&gt;Node8 -->
<g id="edge7" class="edge">
<title>Node3&#45;&gt;Node8</title>
<path fill="none" stroke="midnightblue" d="M238.4,-130.33C263.83,-118.78 300.7,-102.03 322.77,-92.01"/>
<polygon fill="midnightblue" stroke="midnightblue" points="236.93,-127.15 229.27,-134.48 239.82,-133.53 236.93,-127.15"/>
</g>
<!-- Node5 -->
<g id="node5" class="node">
<title>Node5</title>
<g id="a_node5"><a xlink:href="_simple_whiteboard_test_8mm.html" target="_top" xlink:title=" ">
<polygon fill="none" stroke="black" points="0,-0.5 0,-30.5 137,-30.5 137,-0.5 0,-0.5"/>
<text text-anchor="start" x="8" y="-18.5" font-family="Helvetica,sans-Serif" font-size="10.00">SimpleWhiteboardTest</text>
<text text-anchor="middle" x="68.5" y="-7.5" font-family="Helvetica,sans-Serif" font-size="10.00">/SimpleWhiteboardTest.mm</text>
</a>
</g>
</g>
<!-- Node4&#45;&gt;Node5 -->
<g id="edge4" class="edge">
<title>Node4&#45;&gt;Node5</title>
<path fill="none" stroke="midnightblue" d="M71.65,-57.4C70.95,-48.37 70.19,-38.41 69.58,-30.58"/>
<polygon fill="midnightblue" stroke="midnightblue" points="68.16,-57.69 72.42,-67.4 75.14,-57.16 68.16,-57.69"/>
</g>
<!-- Node7 -->
<g id="node7" class="node">
<title>Node7</title>
<g id="a_node7"><a xlink:href="guwhiteboardgetter_8cpp.html" target="_top" xlink:title=" ">
<polygon fill="none" stroke="black" points="155,-6 155,-25 272,-25 272,-6 155,-6"/>
<text text-anchor="middle" x="213.5" y="-13" font-family="Helvetica,sans-Serif" font-size="10.00">guwhiteboardgetter.cpp</text>
</a>
</g>
</g>
<!-- Node6&#45;&gt;Node7 -->
<g id="edge6" class="edge">
<title>Node6&#45;&gt;Node7</title>
<path fill="none" stroke="midnightblue" d="M211.38,-62.54C211.95,-50.17 212.66,-34.62 213.1,-25.13"/>
<polygon fill="midnightblue" stroke="midnightblue" points="207.87,-62.58 210.9,-72.73 214.86,-62.91 207.87,-62.58"/>
</g>
</g>
</svg>
