<?xml version="1.0" encoding="UTF-8" standalone="no"?>
<!DOCTYPE svg PUBLIC "-//W3C//DTD SVG 1.1//EN"
 "http://www.w3.org/Graphics/SVG/1.1/DTD/svg11.dtd">
<!-- Generated by graphviz version 2.49.0 (20210830.1337)
 -->
<!-- Title: typeClassDefs/wb_pixel_to_robot_relative_coord.h Pages: 1 -->
<svg width="603pt" height="151pt"
 viewBox="0.00 0.00 603.17 151.00" xmlns="http://www.w3.org/2000/svg" xmlns:xlink="http://www.w3.org/1999/xlink">
<g id="graph0" class="graph" transform="scale(1 1) rotate(0) translate(4 147)">
<title>typeClassDefs/wb_pixel_to_robot_relative_coord.h</title>
<!-- Node1 -->
<g id="node1" class="node">
<title>Node1</title>
<g id="a_node1"><a xlink:title=" ">
<polygon fill="#bfbfbf" stroke="black" points="279.17,-112.5 279.17,-142.5 410.17,-142.5 410.17,-112.5 279.17,-112.5"/>
<text text-anchor="start" x="287.17" y="-130.5" font-family="Helvetica,sans-Serif" font-size="10.00">typeClassDefs/wb_pixel</text>
<text text-anchor="middle" x="344.67" y="-119.5" font-family="Helvetica,sans-Serif" font-size="10.00">_to_robot_relative_coord.h</text>
</a>
</g>
</g>
<!-- Node2 -->
<g id="node2" class="node">
<title>Node2</title>
<g id="a_node2"><a xlink:title=" ">
<polygon fill="none" stroke="#bfbfbf" points="163.17,-0.5 163.17,-19.5 216.17,-19.5 216.17,-0.5 163.17,-0.5"/>
<text text-anchor="middle" x="189.67" y="-7.5" font-family="Helvetica,sans-Serif" font-size="10.00">gu_util.h</text>
</a>
</g>
</g>
<!-- Node1&#45;&gt;Node2 -->
<g id="edge1" class="edge">
<title>Node1&#45;&gt;Node2</title>
<path fill="none" stroke="midnightblue" d="M278.9,-126.36C191.15,-124.61 42.83,-115.67 8.67,-76 -33.01,-27.58 88.74,-15.23 152.89,-12.08"/>
<polygon fill="midnightblue" stroke="midnightblue" points="153.2,-15.57 163.03,-11.63 152.89,-8.58 153.2,-15.57"/>
</g>
<!-- Node3 -->
<g id="node3" class="node">
<title>Node3</title>
<g id="a_node3"><a xlink:title=" ">
<polygon fill="none" stroke="#bfbfbf" points="284.67,-0.5 284.67,-19.5 332.67,-19.5 332.67,-0.5 284.67,-0.5"/>
<text text-anchor="middle" x="308.67" y="-7.5" font-family="Helvetica,sans-Serif" font-size="10.00">stdint.h</text>
</a>
</g>
</g>
<!-- Node1&#45;&gt;Node3 -->
<g id="edge2" class="edge">
<title>Node1&#45;&gt;Node3</title>
<path fill="none" stroke="midnightblue" d="M410.41,-119.31C465.04,-110.62 529.52,-92.39 500.67,-56 490.85,-43.61 395.27,-25.68 342.78,-16.65"/>
<polygon fill="midnightblue" stroke="midnightblue" points="343.34,-13.19 332.89,-14.96 342.16,-20.09 343.34,-13.19"/>
</g>
<!-- Node4 -->
<g id="node4" class="node">
<title>Node4</title>
<g id="a_node4"><a xlink:href="wb__sensors__torsojointsensors_8h.html" target="_top" xlink:title=" ">
<polygon fill="none" stroke="black" points="17.67,-56.5 17.67,-75.5 173.67,-75.5 173.67,-56.5 17.67,-56.5"/>
<text text-anchor="middle" x="95.67" y="-63.5" font-family="Helvetica,sans-Serif" font-size="10.00">wb_sensors_torsojointsensors.h</text>
</a>
</g>
</g>
<!-- Node1&#45;&gt;Node4 -->
<g id="edge3" class="edge">
<title>Node1&#45;&gt;Node4</title>
<path fill="none" stroke="midnightblue" d="M285.98,-112.47C241.7,-101.9 181.86,-87.59 141.18,-77.87"/>
<polygon fill="midnightblue" stroke="midnightblue" points="141.81,-74.43 131.27,-75.51 140.18,-81.23 141.81,-74.43"/>
</g>
<!-- Node5 -->
<g id="node5" class="node">
<title>Node5</title>
<g id="a_node5"><a xlink:href="wb__sensors__legjointsensors_8h.html" target="_top" xlink:title=" ">
<polygon fill="none" stroke="black" points="192.17,-56.5 192.17,-75.5 339.17,-75.5 339.17,-56.5 192.17,-56.5"/>
<text text-anchor="middle" x="265.67" y="-63.5" font-family="Helvetica,sans-Serif" font-size="10.00">wb_sensors_legjointsensors.h</text>
</a>
</g>
</g>
<!-- Node1&#45;&gt;Node5 -->
<g id="edge6" class="edge">
<title>Node1&#45;&gt;Node5</title>
<path fill="none" stroke="midnightblue" d="M325.95,-112.4C313.76,-103.22 297.88,-91.26 285.48,-81.92"/>
<polygon fill="midnightblue" stroke="midnightblue" points="287.26,-78.88 277.16,-75.66 283.05,-84.47 287.26,-78.88"/>
</g>
<!-- Node6 -->
<g id="node6" class="node">
<title>Node6</title>
<g id="a_node6"><a xlink:href="wb__vision__control__status_8h.html" target="_top" xlink:title=" ">
<polygon fill="none" stroke="black" points="357.67,-56.5 357.67,-75.5 491.67,-75.5 491.67,-56.5 357.67,-56.5"/>
<text text-anchor="middle" x="424.67" y="-63.5" font-family="Helvetica,sans-Serif" font-size="10.00">wb_vision_control_status.h</text>
</a>
</g>
</g>
<!-- Node1&#45;&gt;Node6 -->
<g id="edge9" class="edge">
<title>Node1&#45;&gt;Node6</title>
<path fill="none" stroke="midnightblue" d="M363.63,-112.4C376.09,-103.13 392.37,-91.03 404.98,-81.65"/>
<polygon fill="midnightblue" stroke="midnightblue" points="407.09,-84.43 413.03,-75.66 402.92,-78.82 407.09,-84.43"/>
</g>
<!-- Node8 -->
<g id="node8" class="node">
<title>Node8</title>
<g id="a_node8"><a xlink:title=" ">
<polygon fill="none" stroke="#bfbfbf" points="548.17,-56.5 548.17,-75.5 595.17,-75.5 595.17,-56.5 548.17,-56.5"/>
<text text-anchor="middle" x="571.67" y="-63.5" font-family="Helvetica,sans-Serif" font-size="10.00">stdlib.h</text>
</a>
</g>
</g>
<!-- Node1&#45;&gt;Node8 -->
<g id="edge13" class="edge">
<title>Node1&#45;&gt;Node8</title>
<path fill="none" stroke="midnightblue" d="M398.18,-112.47C441.55,-101.11 501.32,-85.44 538.18,-75.78"/>
<polygon fill="midnightblue" stroke="midnightblue" points="539.15,-79.14 547.94,-73.22 537.38,-72.37 539.15,-79.14"/>
</g>
<!-- Node4&#45;&gt;Node2 -->
<g id="edge4" class="edge">
<title>Node4&#45;&gt;Node2</title>
<path fill="none" stroke="midnightblue" d="M110.77,-56.32C125.57,-47.82 148.36,-34.73 165.65,-24.8"/>
<polygon fill="midnightblue" stroke="midnightblue" points="167.68,-27.67 174.6,-19.65 164.19,-21.6 167.68,-27.67"/>
</g>
<!-- Node4&#45;&gt;Node3 -->
<g id="edge5" class="edge">
<title>Node4&#45;&gt;Node3</title>
<path fill="none" stroke="midnightblue" d="M129.42,-56.44C169.24,-46.35 235.05,-29.66 274.88,-19.57"/>
<polygon fill="midnightblue" stroke="midnightblue" points="275.83,-22.94 284.66,-17.09 274.11,-16.15 275.83,-22.94"/>
</g>
<!-- Node5&#45;&gt;Node2 -->
<g id="edge7" class="edge">
<title>Node5&#45;&gt;Node2</title>
<path fill="none" stroke="midnightblue" d="M253.46,-56.32C241.89,-48.11 224.29,-35.6 210.51,-25.81"/>
<polygon fill="midnightblue" stroke="midnightblue" points="212.28,-22.77 202.1,-19.83 208.23,-28.48 212.28,-22.77"/>
</g>
<!-- Node5&#45;&gt;Node3 -->
<g id="edge8" class="edge">
<title>Node5&#45;&gt;Node3</title>
<path fill="none" stroke="midnightblue" d="M272.77,-56.08C278.91,-48.38 287.94,-37.03 295.41,-27.65"/>
<polygon fill="midnightblue" stroke="midnightblue" points="298.21,-29.75 301.7,-19.75 292.73,-25.39 298.21,-29.75"/>
</g>
<!-- Node6&#45;&gt;Node2 -->
<g id="edge10" class="edge">
<title>Node6&#45;&gt;Node2</title>
<path fill="none" stroke="midnightblue" d="M387.43,-56.44C343.34,-46.31 270.36,-29.54 226.47,-19.46"/>
<polygon fill="midnightblue" stroke="midnightblue" points="227.03,-15.99 216.5,-17.16 225.46,-22.82 227.03,-15.99"/>
</g>
<!-- Node6&#45;&gt;Node3 -->
<g id="edge11" class="edge">
<title>Node6&#45;&gt;Node3</title>
<path fill="none" stroke="midnightblue" d="M406.29,-56.44C387.45,-47.68 357.94,-33.94 336.29,-23.86"/>
<polygon fill="midnightblue" stroke="midnightblue" points="337.51,-20.56 326.96,-19.52 334.55,-26.91 337.51,-20.56"/>
</g>
<!-- Node7 -->
<g id="node7" class="node">
<title>Node7</title>
<g id="a_node7"><a xlink:title=" ">
<polygon fill="none" stroke="#bfbfbf" points="394.17,-0.5 394.17,-19.5 455.17,-19.5 455.17,-0.5 394.17,-0.5"/>
<text text-anchor="middle" x="424.67" y="-7.5" font-family="Helvetica,sans-Serif" font-size="10.00">sys/time.h</text>
</a>
</g>
</g>
<!-- Node6&#45;&gt;Node7 -->
<g id="edge12" class="edge">
<title>Node6&#45;&gt;Node7</title>
<path fill="none" stroke="midnightblue" d="M424.67,-56.08C424.67,-49.01 424.67,-38.86 424.67,-29.99"/>
<polygon fill="midnightblue" stroke="midnightblue" points="428.17,-29.75 424.67,-19.75 421.17,-29.75 428.17,-29.75"/>
</g>
</g>
</svg>
