<?xml version="1.0" encoding="UTF-8" standalone="no"?>
<!DOCTYPE svg PUBLIC "-//W3C//DTD SVG 1.1//EN"
 "http://www.w3.org/Graphics/SVG/1.1/DTD/svg11.dtd">
<!-- Generated by graphviz version 2.49.0 (20210830.1337)
 -->
<!-- Title: typeClassDefs/wb_landmark_sighting.h Pages: 1 -->
<svg width="739pt" height="463pt"
 viewBox="0.00 0.00 739.00 463.00" xmlns="http://www.w3.org/2000/svg" xmlns:xlink="http://www.w3.org/1999/xlink">
<g id="graph0" class="graph" transform="scale(1 1) rotate(0) translate(4 459)">
<title>typeClassDefs/wb_landmark_sighting.h</title>
<!-- Node1 -->
<g id="node1" class="node">
<title>Node1</title>
<g id="a_node1"><a xlink:title=" ">
<polygon fill="#bfbfbf" stroke="black" points="305.5,-424.5 305.5,-454.5 445.5,-454.5 445.5,-424.5 305.5,-424.5"/>
<text text-anchor="start" x="313.5" y="-442.5" font-family="Helvetica,sans-Serif" font-size="10.00">typeClassDefs/wb_landmark</text>
<text text-anchor="middle" x="375.5" y="-431.5" font-family="Helvetica,sans-Serif" font-size="10.00">_sighting.h</text>
</a>
</g>
</g>
<!-- Node2 -->
<g id="node2" class="node">
<title>Node2</title>
<g id="a_node2"><a xlink:href="_landmark_sighting_8hpp.html" target="_top" xlink:title=" ">
<polygon fill="none" stroke="black" points="108,-357.5 108,-376.5 287,-376.5 287,-357.5 108,-357.5"/>
<text text-anchor="middle" x="197.5" y="-364.5" font-family="Helvetica,sans-Serif" font-size="10.00">typeClassDefs/LandmarkSighting.hpp</text>
</a>
</g>
</g>
<!-- Node1&#45;&gt;Node2 -->
<g id="edge1" class="edge">
<title>Node1&#45;&gt;Node2</title>
<path fill="none" stroke="midnightblue" d="M330.21,-420.56C294.56,-406.44 246.47,-387.4 219.05,-376.53"/>
<polygon fill="midnightblue" stroke="midnightblue" points="329.32,-423.97 339.91,-424.4 331.9,-417.47 329.32,-423.97"/>
</g>
<!-- Node12 -->
<g id="node12" class="node">
<title>Node12</title>
<g id="a_node12"><a xlink:href="wb__landmark__sighting_8c.html" target="_top" xlink:title=" ">
<polygon fill="none" stroke="black" points="305.5,-352 305.5,-382 445.5,-382 445.5,-352 305.5,-352"/>
<text text-anchor="start" x="313.5" y="-370" font-family="Helvetica,sans-Serif" font-size="10.00">typeClassDefs/wb_landmark</text>
<text text-anchor="middle" x="375.5" y="-359" font-family="Helvetica,sans-Serif" font-size="10.00">_sighting.c</text>
</a>
</g>
</g>
<!-- Node1&#45;&gt;Node12 -->
<g id="edge11" class="edge">
<title>Node1&#45;&gt;Node12</title>
<path fill="none" stroke="midnightblue" d="M375.5,-414.23C375.5,-403.57 375.5,-391.41 375.5,-382.25"/>
<polygon fill="midnightblue" stroke="midnightblue" points="372,-414.23 375.5,-424.23 379,-414.23 372,-414.23"/>
</g>
<!-- Node13 -->
<g id="node13" class="node">
<title>Node13</title>
<g id="a_node13"><a xlink:href="wb__machine__filtered__localisation__vision_8h.html" target="_top" xlink:title=" ">
<polygon fill="none" stroke="black" points="464,-346.5 464,-387.5 601,-387.5 601,-346.5 464,-346.5"/>
<text text-anchor="start" x="472" y="-375.5" font-family="Helvetica,sans-Serif" font-size="10.00">typeClassDefs/wb_machine</text>
<text text-anchor="start" x="472" y="-364.5" font-family="Helvetica,sans-Serif" font-size="10.00">_filtered_localisation</text>
<text text-anchor="middle" x="532.5" y="-353.5" font-family="Helvetica,sans-Serif" font-size="10.00">_vision.h</text>
</a>
</g>
</g>
<!-- Node1&#45;&gt;Node13 -->
<g id="edge12" class="edge">
<title>Node1&#45;&gt;Node13</title>
<path fill="none" stroke="midnightblue" d="M416.11,-420.26C438.45,-410.23 466.18,-397.78 488.97,-387.55"/>
<polygon fill="midnightblue" stroke="midnightblue" points="414.58,-417.11 406.89,-424.4 417.45,-423.5 414.58,-417.11"/>
</g>
<!-- Node3 -->
<g id="node3" class="node">
<title>Node3</title>
<g id="a_node3"><a xlink:href="_landmark_sighting_8h.html" target="_top" xlink:title=" ">
<polygon fill="none" stroke="black" points="180,-279.5 180,-298.5 349,-298.5 349,-279.5 180,-279.5"/>
<text text-anchor="middle" x="264.5" y="-286.5" font-family="Helvetica,sans-Serif" font-size="10.00">typeClassDefs/LandmarkSighting.h</text>
</a>
</g>
</g>
<!-- Node2&#45;&gt;Node3 -->
<g id="edge2" class="edge">
<title>Node2&#45;&gt;Node3</title>
<path fill="none" stroke="midnightblue" d="M212.1,-349.44C225.89,-333.79 246.05,-310.93 256.9,-298.62"/>
<polygon fill="midnightblue" stroke="midnightblue" points="209.17,-347.47 205.19,-357.28 214.42,-352.1 209.17,-347.47"/>
</g>
<!-- Node4 -->
<g id="node4" class="node">
<title>Node4</title>
<g id="a_node4"><a xlink:href="_machine_filtered_localisation_vision_8hpp.html" target="_top" xlink:title=" ">
<polygon fill="none" stroke="black" points="208.5,-201.5 208.5,-231.5 360.5,-231.5 360.5,-201.5 208.5,-201.5"/>
<text text-anchor="start" x="216.5" y="-219.5" font-family="Helvetica,sans-Serif" font-size="10.00">typeClassDefs/MachineFiltered</text>
<text text-anchor="middle" x="284.5" y="-208.5" font-family="Helvetica,sans-Serif" font-size="10.00">LocalisationVision.hpp</text>
</a>
</g>
</g>
<!-- Node3&#45;&gt;Node4 -->
<g id="edge3" class="edge">
<title>Node3&#45;&gt;Node4</title>
<path fill="none" stroke="midnightblue" d="M269.72,-269.6C273.09,-257.72 277.41,-242.49 280.51,-231.58"/>
<polygon fill="midnightblue" stroke="midnightblue" points="266.31,-268.78 266.95,-279.36 273.05,-270.69 266.31,-268.78"/>
</g>
<!-- Node5 -->
<g id="node5" class="node">
<title>Node5</title>
<g id="a_node5"><a xlink:href="guwhiteboardposter_8h.html" target="_top" xlink:title=" ">
<polygon fill="none" stroke="black" points="156,-140 156,-159 265,-159 265,-140 156,-140"/>
<text text-anchor="middle" x="210.5" y="-147" font-family="Helvetica,sans-Serif" font-size="10.00">guwhiteboardposter.h</text>
</a>
</g>
</g>
<!-- Node4&#45;&gt;Node5 -->
<g id="edge4" class="edge">
<title>Node4&#45;&gt;Node5</title>
<path fill="none" stroke="midnightblue" d="M260.79,-194.67C247.13,-182.67 230.67,-168.22 220.4,-159.19"/>
<polygon fill="midnightblue" stroke="midnightblue" points="258.62,-197.43 268.44,-201.4 263.24,-192.17 258.62,-197.43"/>
</g>
<!-- Node11 -->
<g id="node11" class="node">
<title>Node11</title>
<g id="a_node11"><a xlink:href="_machine_filtered_localisation_vision_8h.html" target="_top" xlink:title=" ">
<polygon fill="none" stroke="black" points="283.5,-134.5 283.5,-164.5 435.5,-164.5 435.5,-134.5 283.5,-134.5"/>
<text text-anchor="start" x="291.5" y="-152.5" font-family="Helvetica,sans-Serif" font-size="10.00">typeClassDefs/MachineFiltered</text>
<text text-anchor="middle" x="359.5" y="-141.5" font-family="Helvetica,sans-Serif" font-size="10.00">LocalisationVision.h</text>
</a>
</g>
</g>
<!-- Node4&#45;&gt;Node11 -->
<g id="edge10" class="edge">
<title>Node4&#45;&gt;Node11</title>
<path fill="none" stroke="midnightblue" d="M308.62,-194.6C319.94,-184.78 333.14,-173.34 343.26,-164.58"/>
<polygon fill="midnightblue" stroke="midnightblue" points="306.04,-192.2 300.77,-201.4 310.62,-197.49 306.04,-192.2"/>
</g>
<!-- Node6 -->
<g id="node6" class="node">
<title>Node6</title>
<g id="a_node6"><a xlink:href="_simple_whiteboard_test_8h.html" target="_top" xlink:title=" ">
<polygon fill="none" stroke="black" points="11,-67.5 11,-97.5 136,-97.5 136,-67.5 11,-67.5"/>
<text text-anchor="start" x="19" y="-85.5" font-family="Helvetica,sans-Serif" font-size="10.00">SimpleWhiteboardTest</text>
<text text-anchor="middle" x="73.5" y="-74.5" font-family="Helvetica,sans-Serif" font-size="10.00">/SimpleWhiteboardTest.h</text>
</a>
</g>
</g>
<!-- Node5&#45;&gt;Node6 -->
<g id="edge5" class="edge">
<title>Node5&#45;&gt;Node6</title>
<path fill="none" stroke="midnightblue" d="M183.04,-135.47C159.88,-124.49 126.81,-108.79 103.07,-97.53"/>
<polygon fill="midnightblue" stroke="midnightblue" points="181.77,-138.74 192.31,-139.87 184.77,-132.42 181.77,-138.74"/>
</g>
<!-- Node8 -->
<g id="node8" class="node">
<title>Node8</title>
<g id="a_node8"><a xlink:href="guwhiteboardgetter_8h.html" target="_top" xlink:title=" ">
<polygon fill="none" stroke="black" points="157,-73 157,-92 264,-92 264,-73 157,-73"/>
<text text-anchor="middle" x="210.5" y="-80" font-family="Helvetica,sans-Serif" font-size="10.00">guwhiteboardgetter.h</text>
</a>
</g>
</g>
<!-- Node5&#45;&gt;Node8 -->
<g id="edge7" class="edge">
<title>Node5&#45;&gt;Node8</title>
<path fill="none" stroke="midnightblue" d="M210.5,-129.54C210.5,-117.17 210.5,-101.62 210.5,-92.13"/>
<polygon fill="midnightblue" stroke="midnightblue" points="207,-129.73 210.5,-139.73 214,-129.73 207,-129.73"/>
</g>
<!-- Node10 -->
<g id="node10" class="node">
<title>Node10</title>
<g id="a_node10"><a xlink:href="guwhiteboardposter_8cpp.html" target="_top" xlink:title=" ">
<polygon fill="none" stroke="black" points="282,-73 282,-92 401,-92 401,-73 282,-73"/>
<text text-anchor="middle" x="341.5" y="-80" font-family="Helvetica,sans-Serif" font-size="10.00">guwhiteboardposter.cpp</text>
</a>
</g>
</g>
<!-- Node5&#45;&gt;Node10 -->
<g id="edge9" class="edge">
<title>Node5&#45;&gt;Node10</title>
<path fill="none" stroke="midnightblue" d="M237.16,-135.27C263.1,-122.4 301.78,-103.21 324.03,-92.17"/>
<polygon fill="midnightblue" stroke="midnightblue" points="235.3,-132.29 227.9,-139.87 238.41,-138.56 235.3,-132.29"/>
</g>
<!-- Node7 -->
<g id="node7" class="node">
<title>Node7</title>
<g id="a_node7"><a xlink:href="_simple_whiteboard_test_8mm.html" target="_top" xlink:title=" ">
<polygon fill="none" stroke="black" points="0,-0.5 0,-30.5 137,-30.5 137,-0.5 0,-0.5"/>
<text text-anchor="start" x="8" y="-18.5" font-family="Helvetica,sans-Serif" font-size="10.00">SimpleWhiteboardTest</text>
<text text-anchor="middle" x="68.5" y="-7.5" font-family="Helvetica,sans-Serif" font-size="10.00">/SimpleWhiteboardTest.mm</text>
</a>
</g>
</g>
<!-- Node6&#45;&gt;Node7 -->
<g id="edge6" class="edge">
<title>Node6&#45;&gt;Node7</title>
<path fill="none" stroke="midnightblue" d="M71.65,-57.4C70.95,-48.37 70.19,-38.41 69.58,-30.58"/>
<polygon fill="midnightblue" stroke="midnightblue" points="68.16,-57.69 72.42,-67.4 75.14,-57.16 68.16,-57.69"/>
</g>
<!-- Node9 -->
<g id="node9" class="node">
<title>Node9</title>
<g id="a_node9"><a xlink:href="guwhiteboardgetter_8cpp.html" target="_top" xlink:title=" ">
<polygon fill="none" stroke="black" points="155,-6 155,-25 272,-25 272,-6 155,-6"/>
<text text-anchor="middle" x="213.5" y="-13" font-family="Helvetica,sans-Serif" font-size="10.00">guwhiteboardgetter.cpp</text>
</a>
</g>
</g>
<!-- Node8&#45;&gt;Node9 -->
<g id="edge8" class="edge">
<title>Node8&#45;&gt;Node9</title>
<path fill="none" stroke="midnightblue" d="M211.38,-62.54C211.95,-50.17 212.66,-34.62 213.1,-25.13"/>
<polygon fill="midnightblue" stroke="midnightblue" points="207.87,-62.58 210.9,-72.73 214.86,-62.91 207.87,-62.58"/>
</g>
<!-- Node13&#45;&gt;Node4 -->
<g id="edge16" class="edge">
<title>Node13&#45;&gt;Node4</title>
<path fill="none" stroke="midnightblue" d="M491.1,-341.21C438.64,-309.8 350.02,-256.73 307.98,-231.56"/>
<polygon fill="midnightblue" stroke="midnightblue" points="489.45,-344.3 499.82,-346.43 493.04,-338.29 489.45,-344.3"/>
</g>
<!-- Node14 -->
<g id="node14" class="node">
<title>Node14</title>
<g id="a_node14"><a xlink:href="guwhiteboard__c__types_8h.html" target="_top" xlink:title=" ">
<polygon fill="none" stroke="black" points="455,-279.5 455,-298.5 576,-298.5 576,-279.5 455,-279.5"/>
<text text-anchor="middle" x="515.5" y="-286.5" font-family="Helvetica,sans-Serif" font-size="10.00">guwhiteboard_c_types.h</text>
</a>
</g>
</g>
<!-- Node13&#45;&gt;Node14 -->
<g id="edge13" class="edge">
<title>Node13&#45;&gt;Node14</title>
<path fill="none" stroke="midnightblue" d="M525.89,-336.45C522.85,-322.86 519.47,-307.74 517.41,-298.55"/>
<polygon fill="midnightblue" stroke="midnightblue" points="522.52,-337.43 528.12,-346.43 529.35,-335.91 522.52,-337.43"/>
</g>
<!-- Node17 -->
<g id="node17" class="node">
<title>Node17</title>
<g id="a_node17"><a xlink:href="wb__machine__filtered__localisation__vision_8c.html" target="_top" xlink:title=" ">
<polygon fill="none" stroke="black" points="594,-268.5 594,-309.5 731,-309.5 731,-268.5 594,-268.5"/>
<text text-anchor="start" x="602" y="-297.5" font-family="Helvetica,sans-Serif" font-size="10.00">typeClassDefs/wb_machine</text>
<text text-anchor="start" x="602" y="-286.5" font-family="Helvetica,sans-Serif" font-size="10.00">_filtered_localisation</text>
<text text-anchor="middle" x="662.5" y="-275.5" font-family="Helvetica,sans-Serif" font-size="10.00">_vision.c</text>
</a>
</g>
</g>
<!-- Node13&#45;&gt;Node17 -->
<g id="edge17" class="edge">
<title>Node13&#45;&gt;Node17</title>
<path fill="none" stroke="midnightblue" d="M574.92,-341.2C592.51,-330.92 612.62,-319.16 629.14,-309.51"/>
<polygon fill="midnightblue" stroke="midnightblue" points="572.84,-338.36 565.98,-346.43 576.38,-344.4 572.84,-338.36"/>
</g>
<!-- Node15 -->
<g id="node15" class="node">
<title>Node15</title>
<g id="a_node15"><a xlink:href="guwhiteboarddeserialiser_8c.html" target="_top" xlink:title=" ">
<polygon fill="none" stroke="black" points="414,-207 414,-226 545,-226 545,-207 414,-207"/>
<text text-anchor="middle" x="479.5" y="-214" font-family="Helvetica,sans-Serif" font-size="10.00">guwhiteboarddeserialiser.c</text>
</a>
</g>
</g>
<!-- Node14&#45;&gt;Node15 -->
<g id="edge14" class="edge">
<title>Node14&#45;&gt;Node15</title>
<path fill="none" stroke="midnightblue" d="M506.4,-270.18C499.23,-256.13 489.53,-237.14 483.95,-226.22"/>
<polygon fill="midnightblue" stroke="midnightblue" points="503.42,-272.04 511.09,-279.36 509.65,-268.86 503.42,-272.04"/>
</g>
<!-- Node16 -->
<g id="node16" class="node">
<title>Node16</title>
<g id="a_node16"><a xlink:href="guwhiteboardserialiser_8c.html" target="_top" xlink:title=" ">
<polygon fill="none" stroke="black" points="563,-207 563,-226 684,-226 684,-207 563,-207"/>
<text text-anchor="middle" x="623.5" y="-214" font-family="Helvetica,sans-Serif" font-size="10.00">guwhiteboardserialiser.c</text>
</a>
</g>
</g>
<!-- Node14&#45;&gt;Node16 -->
<g id="edge15" class="edge">
<title>Node14&#45;&gt;Node16</title>
<path fill="none" stroke="midnightblue" d="M537.34,-273.74C559.14,-259.51 591.95,-238.09 610.15,-226.22"/>
<polygon fill="midnightblue" stroke="midnightblue" points="535.2,-270.96 528.74,-279.36 539.03,-276.82 535.2,-270.96"/>
</g>
</g>
</svg>
