<?xml version="1.0" encoding="UTF-8" standalone="no"?>
<!DOCTYPE svg PUBLIC "-//W3C//DTD SVG 1.1//EN"
 "http://www.w3.org/Graphics/SVG/1.1/DTD/svg11.dtd">
<!-- Generated by graphviz version 2.49.0 (20210830.1337)
 -->
<!-- Title: typeClassDefs/wb_location.h Pages: 1 -->
<svg width="591pt" height="274pt"
 viewBox="0.00 0.00 590.50 274.00" xmlns="http://www.w3.org/2000/svg" xmlns:xlink="http://www.w3.org/1999/xlink">
<g id="graph0" class="graph" transform="scale(1 1) rotate(0) translate(4 270)">
<title>typeClassDefs/wb_location.h</title>
<!-- Node1 -->
<g id="node1" class="node">
<title>Node1</title>
<g id="a_node1"><a xlink:title=" ">
<polygon fill="#bfbfbf" stroke="black" points="282.5,-246.5 282.5,-265.5 424.5,-265.5 424.5,-246.5 282.5,-246.5"/>
<text text-anchor="middle" x="353.5" y="-253.5" font-family="Helvetica,sans-Serif" font-size="10.00">typeClassDefs/wb_location.h</text>
</a>
</g>
</g>
<!-- Node2 -->
<g id="node2" class="node">
<title>Node2</title>
<g id="a_node2"><a xlink:href="guwhiteboard__c__types_8h.html" target="_top" xlink:title=" ">
<polygon fill="none" stroke="black" points="145,-190.5 145,-209.5 266,-209.5 266,-190.5 145,-190.5"/>
<text text-anchor="middle" x="205.5" y="-197.5" font-family="Helvetica,sans-Serif" font-size="10.00">guwhiteboard_c_types.h</text>
</a>
</g>
</g>
<!-- Node1&#45;&gt;Node2 -->
<g id="edge1" class="edge">
<title>Node1&#45;&gt;Node2</title>
<path fill="none" stroke="midnightblue" d="M320.35,-242.91C292.53,-232.75 253.48,-218.51 228.84,-209.52"/>
<polygon fill="midnightblue" stroke="midnightblue" points="319.46,-246.3 330.05,-246.44 321.85,-239.73 319.46,-246.3"/>
</g>
<!-- Node5 -->
<g id="node5" class="node">
<title>Node5</title>
<g id="a_node5"><a xlink:href="_location_8hpp.html" target="_top" xlink:title=" ">
<polygon fill="none" stroke="black" points="284.5,-190.5 284.5,-209.5 422.5,-209.5 422.5,-190.5 284.5,-190.5"/>
<text text-anchor="middle" x="353.5" y="-197.5" font-family="Helvetica,sans-Serif" font-size="10.00">typeClassDefs/Location.hpp</text>
</a>
</g>
</g>
<!-- Node1&#45;&gt;Node5 -->
<g id="edge4" class="edge">
<title>Node1&#45;&gt;Node5</title>
<path fill="none" stroke="midnightblue" d="M353.5,-235.8C353.5,-226.91 353.5,-216.78 353.5,-209.75"/>
<polygon fill="midnightblue" stroke="midnightblue" points="350,-236.08 353.5,-246.08 357,-236.08 350,-236.08"/>
</g>
<!-- Node13 -->
<g id="node13" class="node">
<title>Node13</title>
<g id="a_node13"><a xlink:href="wb__location_8c.html" target="_top" xlink:title=" ">
<polygon fill="none" stroke="black" points="440.5,-190.5 440.5,-209.5 582.5,-209.5 582.5,-190.5 440.5,-190.5"/>
<text text-anchor="middle" x="511.5" y="-197.5" font-family="Helvetica,sans-Serif" font-size="10.00">typeClassDefs/wb_location.c</text>
</a>
</g>
</g>
<!-- Node1&#45;&gt;Node13 -->
<g id="edge12" class="edge">
<title>Node1&#45;&gt;Node13</title>
<path fill="none" stroke="midnightblue" d="M388.11,-243.17C417.86,-233 460.05,-218.59 486.58,-209.52"/>
<polygon fill="midnightblue" stroke="midnightblue" points="386.87,-239.9 378.54,-246.44 389.13,-246.52 386.87,-239.9"/>
</g>
<!-- Node3 -->
<g id="node3" class="node">
<title>Node3</title>
<g id="a_node3"><a xlink:href="guwhiteboarddeserialiser_8c.html" target="_top" xlink:title=" ">
<polygon fill="none" stroke="black" points="0,-134.5 0,-153.5 131,-153.5 131,-134.5 0,-134.5"/>
<text text-anchor="middle" x="65.5" y="-141.5" font-family="Helvetica,sans-Serif" font-size="10.00">guwhiteboarddeserialiser.c</text>
</a>
</g>
</g>
<!-- Node2&#45;&gt;Node3 -->
<g id="edge2" class="edge">
<title>Node2&#45;&gt;Node3</title>
<path fill="none" stroke="midnightblue" d="M173.8,-186.77C147.5,-176.63 110.78,-162.47 87.58,-153.52"/>
<polygon fill="midnightblue" stroke="midnightblue" points="172.73,-190.11 183.32,-190.44 175.25,-183.58 172.73,-190.11"/>
</g>
<!-- Node4 -->
<g id="node4" class="node">
<title>Node4</title>
<g id="a_node4"><a xlink:href="guwhiteboardserialiser_8c.html" target="_top" xlink:title=" ">
<polygon fill="none" stroke="black" points="149,-134.5 149,-153.5 270,-153.5 270,-134.5 149,-134.5"/>
<text text-anchor="middle" x="209.5" y="-141.5" font-family="Helvetica,sans-Serif" font-size="10.00">guwhiteboardserialiser.c</text>
</a>
</g>
</g>
<!-- Node2&#45;&gt;Node4 -->
<g id="edge3" class="edge">
<title>Node2&#45;&gt;Node4</title>
<path fill="none" stroke="midnightblue" d="M206.9,-180.1C207.56,-171.14 208.33,-160.86 208.85,-153.75"/>
<polygon fill="midnightblue" stroke="midnightblue" points="203.41,-179.85 206.16,-190.08 210.39,-180.37 203.41,-179.85"/>
</g>
<!-- Node6 -->
<g id="node6" class="node">
<title>Node6</title>
<g id="a_node6"><a xlink:href="guwhiteboardposter_8h.html" target="_top" xlink:title=" ">
<polygon fill="none" stroke="black" points="295,-134.5 295,-153.5 404,-153.5 404,-134.5 295,-134.5"/>
<text text-anchor="middle" x="349.5" y="-141.5" font-family="Helvetica,sans-Serif" font-size="10.00">guwhiteboardposter.h</text>
</a>
</g>
</g>
<!-- Node5&#45;&gt;Node6 -->
<g id="edge5" class="edge">
<title>Node5&#45;&gt;Node6</title>
<path fill="none" stroke="midnightblue" d="M352.1,-180.1C351.44,-171.14 350.67,-160.86 350.15,-153.75"/>
<polygon fill="midnightblue" stroke="midnightblue" points="348.61,-180.37 352.84,-190.08 355.59,-179.85 348.61,-180.37"/>
</g>
<!-- Node12 -->
<g id="node12" class="node">
<title>Node12</title>
<g id="a_node12"><a xlink:href="_location_8h.html" target="_top" xlink:title=" ">
<polygon fill="none" stroke="black" points="422.5,-134.5 422.5,-153.5 550.5,-153.5 550.5,-134.5 422.5,-134.5"/>
<text text-anchor="middle" x="486.5" y="-141.5" font-family="Helvetica,sans-Serif" font-size="10.00">typeClassDefs/Location.h</text>
</a>
</g>
</g>
<!-- Node5&#45;&gt;Node12 -->
<g id="edge11" class="edge">
<title>Node5&#45;&gt;Node12</title>
<path fill="none" stroke="midnightblue" d="M383.95,-186.64C408.91,-176.5 443.58,-162.43 465.52,-153.52"/>
<polygon fill="midnightblue" stroke="midnightblue" points="382.52,-183.44 374.57,-190.44 385.16,-189.92 382.52,-183.44"/>
</g>
<!-- Node7 -->
<g id="node7" class="node">
<title>Node7</title>
<g id="a_node7"><a xlink:href="_simple_whiteboard_test_8h.html" target="_top" xlink:title=" ">
<polygon fill="none" stroke="black" points="150,-67.5 150,-97.5 275,-97.5 275,-67.5 150,-67.5"/>
<text text-anchor="start" x="158" y="-85.5" font-family="Helvetica,sans-Serif" font-size="10.00">SimpleWhiteboardTest</text>
<text text-anchor="middle" x="212.5" y="-74.5" font-family="Helvetica,sans-Serif" font-size="10.00">/SimpleWhiteboardTest.h</text>
</a>
</g>
</g>
<!-- Node6&#45;&gt;Node7 -->
<g id="edge6" class="edge">
<title>Node6&#45;&gt;Node7</title>
<path fill="none" stroke="midnightblue" d="M320.63,-130.46C298.44,-120.82 267.79,-107.51 244.79,-97.52"/>
<polygon fill="midnightblue" stroke="midnightblue" points="319.3,-133.7 329.87,-134.48 322.09,-127.28 319.3,-133.7"/>
</g>
<!-- Node9 -->
<g id="node9" class="node">
<title>Node9</title>
<g id="a_node9"><a xlink:href="guwhiteboardgetter_8h.html" target="_top" xlink:title=" ">
<polygon fill="none" stroke="black" points="296,-73 296,-92 403,-92 403,-73 296,-73"/>
<text text-anchor="middle" x="349.5" y="-80" font-family="Helvetica,sans-Serif" font-size="10.00">guwhiteboardgetter.h</text>
</a>
</g>
</g>
<!-- Node6&#45;&gt;Node9 -->
<g id="edge8" class="edge">
<title>Node6&#45;&gt;Node9</title>
<path fill="none" stroke="midnightblue" d="M349.5,-124.32C349.5,-113.5 349.5,-100.4 349.5,-92.01"/>
<polygon fill="midnightblue" stroke="midnightblue" points="346,-124.48 349.5,-134.48 353,-124.48 346,-124.48"/>
</g>
<!-- Node11 -->
<g id="node11" class="node">
<title>Node11</title>
<g id="a_node11"><a xlink:href="guwhiteboardposter_8cpp.html" target="_top" xlink:title=" ">
<polygon fill="none" stroke="black" points="421,-73 421,-92 540,-92 540,-73 421,-73"/>
<text text-anchor="middle" x="480.5" y="-80" font-family="Helvetica,sans-Serif" font-size="10.00">guwhiteboardposter.cpp</text>
</a>
</g>
</g>
<!-- Node6&#45;&gt;Node11 -->
<g id="edge10" class="edge">
<title>Node6&#45;&gt;Node11</title>
<path fill="none" stroke="midnightblue" d="M377.4,-130.33C402.83,-118.78 439.7,-102.03 461.77,-92.01"/>
<polygon fill="midnightblue" stroke="midnightblue" points="375.93,-127.15 368.27,-134.48 378.82,-133.53 375.93,-127.15"/>
</g>
<!-- Node8 -->
<g id="node8" class="node">
<title>Node8</title>
<g id="a_node8"><a xlink:href="_simple_whiteboard_test_8mm.html" target="_top" xlink:title=" ">
<polygon fill="none" stroke="black" points="139,-0.5 139,-30.5 276,-30.5 276,-0.5 139,-0.5"/>
<text text-anchor="start" x="147" y="-18.5" font-family="Helvetica,sans-Serif" font-size="10.00">SimpleWhiteboardTest</text>
<text text-anchor="middle" x="207.5" y="-7.5" font-family="Helvetica,sans-Serif" font-size="10.00">/SimpleWhiteboardTest.mm</text>
</a>
</g>
</g>
<!-- Node7&#45;&gt;Node8 -->
<g id="edge7" class="edge">
<title>Node7&#45;&gt;Node8</title>
<path fill="none" stroke="midnightblue" d="M210.65,-57.4C209.95,-48.37 209.19,-38.41 208.58,-30.58"/>
<polygon fill="midnightblue" stroke="midnightblue" points="207.16,-57.69 211.42,-67.4 214.14,-57.16 207.16,-57.69"/>
</g>
<!-- Node10 -->
<g id="node10" class="node">
<title>Node10</title>
<g id="a_node10"><a xlink:href="guwhiteboardgetter_8cpp.html" target="_top" xlink:title=" ">
<polygon fill="none" stroke="black" points="294,-6 294,-25 411,-25 411,-6 294,-6"/>
<text text-anchor="middle" x="352.5" y="-13" font-family="Helvetica,sans-Serif" font-size="10.00">guwhiteboardgetter.cpp</text>
</a>
</g>
</g>
<!-- Node9&#45;&gt;Node10 -->
<g id="edge9" class="edge">
<title>Node9&#45;&gt;Node10</title>
<path fill="none" stroke="midnightblue" d="M350.38,-62.54C350.95,-50.17 351.66,-34.62 352.1,-25.13"/>
<polygon fill="midnightblue" stroke="midnightblue" points="346.87,-62.58 349.9,-72.73 353.86,-62.91 346.87,-62.58"/>
</g>
</g>
</svg>
