<?xml version="1.0" encoding="UTF-8" standalone="no"?>
<!DOCTYPE svg PUBLIC "-//W3C//DTD SVG 1.1//EN"
 "http://www.w3.org/Graphics/SVG/1.1/DTD/svg11.dtd">
<!-- Generated by graphviz version 2.49.0 (20210830.1337)
 -->
<!-- Title: typeClassDefs/wb_vision_detection_goal_post.h Pages: 1 -->
<svg width="714pt" height="575pt"
 viewBox="0.00 0.00 713.50 575.00" xmlns="http://www.w3.org/2000/svg" xmlns:xlink="http://www.w3.org/1999/xlink">
<g id="graph0" class="graph" transform="scale(1 1) rotate(0) translate(4 571)">
<title>typeClassDefs/wb_vision_detection_goal_post.h</title>
<!-- Node1 -->
<g id="node1" class="node">
<title>Node1</title>
<g id="a_node1"><a xlink:title=" ">
<polygon fill="#bfbfbf" stroke="black" points="293.5,-536.5 293.5,-566.5 419.5,-566.5 419.5,-536.5 293.5,-536.5"/>
<text text-anchor="start" x="301.5" y="-554.5" font-family="Helvetica,sans-Serif" font-size="10.00">typeClassDefs/wb_vision</text>
<text text-anchor="middle" x="356.5" y="-543.5" font-family="Helvetica,sans-Serif" font-size="10.00">_detection_goal_post.h</text>
</a>
</g>
</g>
<!-- Node2 -->
<g id="node2" class="node">
<title>Node2</title>
<g id="a_node2"><a xlink:href="_vision_detection_goal_post_8hpp.html" target="_top" xlink:title=" ">
<polygon fill="none" stroke="black" points="164,-469.5 164,-499.5 315,-499.5 315,-469.5 164,-469.5"/>
<text text-anchor="start" x="172" y="-487.5" font-family="Helvetica,sans-Serif" font-size="10.00">typeClassDefs/VisionDetection</text>
<text text-anchor="middle" x="239.5" y="-476.5" font-family="Helvetica,sans-Serif" font-size="10.00">GoalPost.hpp</text>
</a>
</g>
</g>
<!-- Node1&#45;&gt;Node2 -->
<g id="edge1" class="edge">
<title>Node1&#45;&gt;Node2</title>
<path fill="none" stroke="midnightblue" d="M322.18,-531.44C303.83,-521.24 281.62,-508.9 264.84,-499.58"/>
<polygon fill="midnightblue" stroke="midnightblue" points="320.67,-534.6 331.11,-536.4 324.07,-528.48 320.67,-534.6"/>
</g>
<!-- Node14 -->
<g id="node14" class="node">
<title>Node14</title>
<g id="a_node14"><a xlink:href="wb__vision__detection__goal_8h.html" target="_top" xlink:title=" ">
<polygon fill="none" stroke="black" points="307.5,-402.5 307.5,-432.5 433.5,-432.5 433.5,-402.5 307.5,-402.5"/>
<text text-anchor="start" x="315.5" y="-420.5" font-family="Helvetica,sans-Serif" font-size="10.00">typeClassDefs/wb_vision</text>
<text text-anchor="middle" x="370.5" y="-409.5" font-family="Helvetica,sans-Serif" font-size="10.00">_detection_goal.h</text>
</a>
</g>
</g>
<!-- Node1&#45;&gt;Node14 -->
<g id="edge13" class="edge">
<title>Node1&#45;&gt;Node14</title>
<path fill="none" stroke="midnightblue" d="M359.06,-526.39C361.97,-498.9 366.64,-454.89 369.01,-432.52"/>
<polygon fill="midnightblue" stroke="midnightblue" points="355.57,-526.06 358,-536.37 362.53,-526.8 355.57,-526.06"/>
</g>
<!-- Node21 -->
<g id="node21" class="node">
<title>Node21</title>
<g id="a_node21"><a xlink:href="wb__vision__detection__goal__post_8c.html" target="_top" xlink:title=" ">
<polygon fill="none" stroke="black" points="384.5,-469.5 384.5,-499.5 510.5,-499.5 510.5,-469.5 384.5,-469.5"/>
<text text-anchor="start" x="392.5" y="-487.5" font-family="Helvetica,sans-Serif" font-size="10.00">typeClassDefs/wb_vision</text>
<text text-anchor="middle" x="447.5" y="-476.5" font-family="Helvetica,sans-Serif" font-size="10.00">_detection_goal_post.c</text>
</a>
</g>
</g>
<!-- Node1&#45;&gt;Node21 -->
<g id="edge22" class="edge">
<title>Node1&#45;&gt;Node21</title>
<path fill="none" stroke="midnightblue" d="M384.57,-530.45C398.57,-520.45 415.16,-508.6 427.79,-499.58"/>
<polygon fill="midnightblue" stroke="midnightblue" points="382.35,-527.74 376.25,-536.4 386.42,-533.43 382.35,-527.74"/>
</g>
<!-- Node3 -->
<g id="node3" class="node">
<title>Node3</title>
<g id="a_node3"><a xlink:href="_vision_detection_goal_post_8h.html" target="_top" xlink:title=" ">
<polygon fill="none" stroke="black" points="138,-402.5 138,-432.5 289,-432.5 289,-402.5 138,-402.5"/>
<text text-anchor="start" x="146" y="-420.5" font-family="Helvetica,sans-Serif" font-size="10.00">typeClassDefs/VisionDetection</text>
<text text-anchor="middle" x="213.5" y="-409.5" font-family="Helvetica,sans-Serif" font-size="10.00">GoalPost.h</text>
</a>
</g>
</g>
<!-- Node2&#45;&gt;Node3 -->
<g id="edge2" class="edge">
<title>Node2&#45;&gt;Node3</title>
<path fill="none" stroke="midnightblue" d="M230.1,-459.99C226.42,-450.8 222.33,-440.58 219.13,-432.58"/>
<polygon fill="midnightblue" stroke="midnightblue" points="226.89,-461.41 233.86,-469.4 233.39,-458.81 226.89,-461.41"/>
</g>
<!-- Node4 -->
<g id="node4" class="node">
<title>Node4</title>
<g id="a_node4"><a xlink:href="_vision_detection_goal_8hpp.html" target="_top" xlink:title=" ">
<polygon fill="none" stroke="black" points="138,-335.5 138,-365.5 289,-365.5 289,-335.5 138,-335.5"/>
<text text-anchor="start" x="146" y="-353.5" font-family="Helvetica,sans-Serif" font-size="10.00">typeClassDefs/VisionDetection</text>
<text text-anchor="middle" x="213.5" y="-342.5" font-family="Helvetica,sans-Serif" font-size="10.00">Goal.hpp</text>
</a>
</g>
</g>
<!-- Node3&#45;&gt;Node4 -->
<g id="edge3" class="edge">
<title>Node3&#45;&gt;Node4</title>
<path fill="none" stroke="midnightblue" d="M213.5,-392.11C213.5,-383.15 213.5,-373.32 213.5,-365.58"/>
<polygon fill="midnightblue" stroke="midnightblue" points="210,-392.4 213.5,-402.4 217,-392.4 210,-392.4"/>
</g>
<!-- Node5 -->
<g id="node5" class="node">
<title>Node5</title>
<g id="a_node5"><a xlink:href="_vision_detection_goal_8h.html" target="_top" xlink:title=" ">
<polygon fill="none" stroke="black" points="192,-268.5 192,-298.5 343,-298.5 343,-268.5 192,-268.5"/>
<text text-anchor="start" x="200" y="-286.5" font-family="Helvetica,sans-Serif" font-size="10.00">typeClassDefs/VisionDetection</text>
<text text-anchor="middle" x="267.5" y="-275.5" font-family="Helvetica,sans-Serif" font-size="10.00">Goal.h</text>
</a>
</g>
</g>
<!-- Node4&#45;&gt;Node5 -->
<g id="edge4" class="edge">
<title>Node4&#45;&gt;Node5</title>
<path fill="none" stroke="midnightblue" d="M231.82,-327.45C239.75,-317.9 248.8,-307 255.81,-298.58"/>
<polygon fill="midnightblue" stroke="midnightblue" points="228.92,-325.47 225.22,-335.4 234.3,-329.94 228.92,-325.47"/>
</g>
<!-- Node6 -->
<g id="node6" class="node">
<title>Node6</title>
<g id="a_node6"><a xlink:href="_vision_detection_goals_8hpp.html" target="_top" xlink:title=" ">
<polygon fill="none" stroke="black" points="209,-201.5 209,-231.5 360,-231.5 360,-201.5 209,-201.5"/>
<text text-anchor="start" x="217" y="-219.5" font-family="Helvetica,sans-Serif" font-size="10.00">typeClassDefs/VisionDetection</text>
<text text-anchor="middle" x="284.5" y="-208.5" font-family="Helvetica,sans-Serif" font-size="10.00">Goals.hpp</text>
</a>
</g>
</g>
<!-- Node5&#45;&gt;Node6 -->
<g id="edge5" class="edge">
<title>Node5&#45;&gt;Node6</title>
<path fill="none" stroke="midnightblue" d="M273.73,-258.7C276.11,-249.59 278.75,-239.49 280.82,-231.58"/>
<polygon fill="midnightblue" stroke="midnightblue" points="270.33,-257.84 271.19,-268.4 277.11,-259.61 270.33,-257.84"/>
</g>
<!-- Node7 -->
<g id="node7" class="node">
<title>Node7</title>
<g id="a_node7"><a xlink:href="guwhiteboardposter_8h.html" target="_top" xlink:title=" ">
<polygon fill="none" stroke="black" points="156,-140 156,-159 265,-159 265,-140 156,-140"/>
<text text-anchor="middle" x="210.5" y="-147" font-family="Helvetica,sans-Serif" font-size="10.00">guwhiteboardposter.h</text>
</a>
</g>
</g>
<!-- Node6&#45;&gt;Node7 -->
<g id="edge6" class="edge">
<title>Node6&#45;&gt;Node7</title>
<path fill="none" stroke="midnightblue" d="M260.79,-194.67C247.13,-182.67 230.67,-168.22 220.4,-159.19"/>
<polygon fill="midnightblue" stroke="midnightblue" points="258.62,-197.43 268.44,-201.4 263.24,-192.17 258.62,-197.43"/>
</g>
<!-- Node13 -->
<g id="node13" class="node">
<title>Node13</title>
<g id="a_node13"><a xlink:href="_vision_detection_goals_8h.html" target="_top" xlink:title=" ">
<polygon fill="none" stroke="black" points="283,-134.5 283,-164.5 434,-164.5 434,-134.5 283,-134.5"/>
<text text-anchor="start" x="291" y="-152.5" font-family="Helvetica,sans-Serif" font-size="10.00">typeClassDefs/VisionDetection</text>
<text text-anchor="middle" x="358.5" y="-141.5" font-family="Helvetica,sans-Serif" font-size="10.00">Goals.h</text>
</a>
</g>
</g>
<!-- Node6&#45;&gt;Node13 -->
<g id="edge12" class="edge">
<title>Node6&#45;&gt;Node13</title>
<path fill="none" stroke="midnightblue" d="M308.3,-194.6C319.47,-184.78 332.49,-173.34 342.47,-164.58"/>
<polygon fill="midnightblue" stroke="midnightblue" points="305.76,-192.17 300.56,-201.4 310.38,-197.43 305.76,-192.17"/>
</g>
<!-- Node8 -->
<g id="node8" class="node">
<title>Node8</title>
<g id="a_node8"><a xlink:href="_simple_whiteboard_test_8h.html" target="_top" xlink:title=" ">
<polygon fill="none" stroke="black" points="11,-67.5 11,-97.5 136,-97.5 136,-67.5 11,-67.5"/>
<text text-anchor="start" x="19" y="-85.5" font-family="Helvetica,sans-Serif" font-size="10.00">SimpleWhiteboardTest</text>
<text text-anchor="middle" x="73.5" y="-74.5" font-family="Helvetica,sans-Serif" font-size="10.00">/SimpleWhiteboardTest.h</text>
</a>
</g>
</g>
<!-- Node7&#45;&gt;Node8 -->
<g id="edge7" class="edge">
<title>Node7&#45;&gt;Node8</title>
<path fill="none" stroke="midnightblue" d="M183.04,-135.47C159.88,-124.49 126.81,-108.79 103.07,-97.53"/>
<polygon fill="midnightblue" stroke="midnightblue" points="181.77,-138.74 192.31,-139.87 184.77,-132.42 181.77,-138.74"/>
</g>
<!-- Node10 -->
<g id="node10" class="node">
<title>Node10</title>
<g id="a_node10"><a xlink:href="guwhiteboardgetter_8h.html" target="_top" xlink:title=" ">
<polygon fill="none" stroke="black" points="157,-73 157,-92 264,-92 264,-73 157,-73"/>
<text text-anchor="middle" x="210.5" y="-80" font-family="Helvetica,sans-Serif" font-size="10.00">guwhiteboardgetter.h</text>
</a>
</g>
</g>
<!-- Node7&#45;&gt;Node10 -->
<g id="edge9" class="edge">
<title>Node7&#45;&gt;Node10</title>
<path fill="none" stroke="midnightblue" d="M210.5,-129.54C210.5,-117.17 210.5,-101.62 210.5,-92.13"/>
<polygon fill="midnightblue" stroke="midnightblue" points="207,-129.73 210.5,-139.73 214,-129.73 207,-129.73"/>
</g>
<!-- Node12 -->
<g id="node12" class="node">
<title>Node12</title>
<g id="a_node12"><a xlink:href="guwhiteboardposter_8cpp.html" target="_top" xlink:title=" ">
<polygon fill="none" stroke="black" points="282,-73 282,-92 401,-92 401,-73 282,-73"/>
<text text-anchor="middle" x="341.5" y="-80" font-family="Helvetica,sans-Serif" font-size="10.00">guwhiteboardposter.cpp</text>
</a>
</g>
</g>
<!-- Node7&#45;&gt;Node12 -->
<g id="edge11" class="edge">
<title>Node7&#45;&gt;Node12</title>
<path fill="none" stroke="midnightblue" d="M237.16,-135.27C263.1,-122.4 301.78,-103.21 324.03,-92.17"/>
<polygon fill="midnightblue" stroke="midnightblue" points="235.3,-132.29 227.9,-139.87 238.41,-138.56 235.3,-132.29"/>
</g>
<!-- Node9 -->
<g id="node9" class="node">
<title>Node9</title>
<g id="a_node9"><a xlink:href="_simple_whiteboard_test_8mm.html" target="_top" xlink:title=" ">
<polygon fill="none" stroke="black" points="0,-0.5 0,-30.5 137,-30.5 137,-0.5 0,-0.5"/>
<text text-anchor="start" x="8" y="-18.5" font-family="Helvetica,sans-Serif" font-size="10.00">SimpleWhiteboardTest</text>
<text text-anchor="middle" x="68.5" y="-7.5" font-family="Helvetica,sans-Serif" font-size="10.00">/SimpleWhiteboardTest.mm</text>
</a>
</g>
</g>
<!-- Node8&#45;&gt;Node9 -->
<g id="edge8" class="edge">
<title>Node8&#45;&gt;Node9</title>
<path fill="none" stroke="midnightblue" d="M71.65,-57.4C70.95,-48.37 70.19,-38.41 69.58,-30.58"/>
<polygon fill="midnightblue" stroke="midnightblue" points="68.16,-57.69 72.42,-67.4 75.14,-57.16 68.16,-57.69"/>
</g>
<!-- Node11 -->
<g id="node11" class="node">
<title>Node11</title>
<g id="a_node11"><a xlink:href="guwhiteboardgetter_8cpp.html" target="_top" xlink:title=" ">
<polygon fill="none" stroke="black" points="155,-6 155,-25 272,-25 272,-6 155,-6"/>
<text text-anchor="middle" x="213.5" y="-13" font-family="Helvetica,sans-Serif" font-size="10.00">guwhiteboardgetter.cpp</text>
</a>
</g>
</g>
<!-- Node10&#45;&gt;Node11 -->
<g id="edge10" class="edge">
<title>Node10&#45;&gt;Node11</title>
<path fill="none" stroke="midnightblue" d="M211.38,-62.54C211.95,-50.17 212.66,-34.62 213.1,-25.13"/>
<polygon fill="midnightblue" stroke="midnightblue" points="207.87,-62.58 210.9,-72.73 214.86,-62.91 207.87,-62.58"/>
</g>
<!-- Node14&#45;&gt;Node4 -->
<g id="edge14" class="edge">
<title>Node14&#45;&gt;Node4</title>
<path fill="none" stroke="midnightblue" d="M327.13,-398.54C302.01,-388.14 270.84,-375.24 247.5,-365.58"/>
<polygon fill="midnightblue" stroke="midnightblue" points="325.86,-401.8 336.43,-402.4 328.53,-395.34 325.86,-401.8"/>
</g>
<!-- Node15 -->
<g id="node15" class="node">
<title>Node15</title>
<g id="a_node15"><a xlink:href="wb__vision__detection__goal_8c.html" target="_top" xlink:title=" ">
<polygon fill="none" stroke="black" points="307.5,-335.5 307.5,-365.5 433.5,-365.5 433.5,-335.5 307.5,-335.5"/>
<text text-anchor="start" x="315.5" y="-353.5" font-family="Helvetica,sans-Serif" font-size="10.00">typeClassDefs/wb_vision</text>
<text text-anchor="middle" x="370.5" y="-342.5" font-family="Helvetica,sans-Serif" font-size="10.00">_detection_goal.c</text>
</a>
</g>
</g>
<!-- Node14&#45;&gt;Node15 -->
<g id="edge15" class="edge">
<title>Node14&#45;&gt;Node15</title>
<path fill="none" stroke="midnightblue" d="M370.5,-392.11C370.5,-383.15 370.5,-373.32 370.5,-365.58"/>
<polygon fill="midnightblue" stroke="midnightblue" points="367,-392.4 370.5,-402.4 374,-392.4 367,-392.4"/>
</g>
<!-- Node16 -->
<g id="node16" class="node">
<title>Node16</title>
<g id="a_node16"><a xlink:href="wb__vision__detection__goals_8h.html" target="_top" xlink:title=" ">
<polygon fill="none" stroke="black" points="451.5,-335.5 451.5,-365.5 577.5,-365.5 577.5,-335.5 451.5,-335.5"/>
<text text-anchor="start" x="459.5" y="-353.5" font-family="Helvetica,sans-Serif" font-size="10.00">typeClassDefs/wb_vision</text>
<text text-anchor="middle" x="514.5" y="-342.5" font-family="Helvetica,sans-Serif" font-size="10.00">_detection_goals.h</text>
</a>
</g>
</g>
<!-- Node14&#45;&gt;Node16 -->
<g id="edge16" class="edge">
<title>Node14&#45;&gt;Node16</title>
<path fill="none" stroke="midnightblue" d="M410.89,-398.27C433.82,-387.92 462.1,-375.15 483.32,-365.58"/>
<polygon fill="midnightblue" stroke="midnightblue" points="409.42,-395.09 401.75,-402.4 412.3,-401.47 409.42,-395.09"/>
</g>
<!-- Node16&#45;&gt;Node6 -->
<g id="edge20" class="edge">
<title>Node16&#45;&gt;Node6</title>
<path fill="none" stroke="midnightblue" d="M481.04,-330.3C434.24,-303.44 350.32,-255.27 308.94,-231.52"/>
<polygon fill="midnightblue" stroke="midnightblue" points="479.47,-333.43 489.89,-335.37 482.96,-327.36 479.47,-333.43"/>
</g>
<!-- Node17 -->
<g id="node17" class="node">
<title>Node17</title>
<g id="a_node17"><a xlink:href="guwhiteboard__c__types_8h.html" target="_top" xlink:title=" ">
<polygon fill="none" stroke="black" points="440,-274 440,-293 561,-293 561,-274 440,-274"/>
<text text-anchor="middle" x="500.5" y="-281" font-family="Helvetica,sans-Serif" font-size="10.00">guwhiteboard_c_types.h</text>
</a>
</g>
</g>
<!-- Node16&#45;&gt;Node17 -->
<g id="edge17" class="edge">
<title>Node16&#45;&gt;Node17</title>
<path fill="none" stroke="midnightblue" d="M509.35,-325.6C506.91,-314.28 504.15,-301.46 502.37,-293.19"/>
<polygon fill="midnightblue" stroke="midnightblue" points="505.94,-326.36 511.46,-335.4 512.78,-324.88 505.94,-326.36"/>
</g>
<!-- Node20 -->
<g id="node20" class="node">
<title>Node20</title>
<g id="a_node20"><a xlink:href="wb__vision__detection__goals_8c.html" target="_top" xlink:title=" ">
<polygon fill="none" stroke="black" points="579.5,-268.5 579.5,-298.5 705.5,-298.5 705.5,-268.5 579.5,-268.5"/>
<text text-anchor="start" x="587.5" y="-286.5" font-family="Helvetica,sans-Serif" font-size="10.00">typeClassDefs/wb_vision</text>
<text text-anchor="middle" x="642.5" y="-275.5" font-family="Helvetica,sans-Serif" font-size="10.00">_detection_goals.c</text>
</a>
</g>
</g>
<!-- Node16&#45;&gt;Node20 -->
<g id="edge21" class="edge">
<title>Node16&#45;&gt;Node20</title>
<path fill="none" stroke="midnightblue" d="M551.22,-330.85C571.46,-320.58 596.17,-308.03 614.78,-298.58"/>
<polygon fill="midnightblue" stroke="midnightblue" points="549.61,-327.75 542.27,-335.4 552.78,-333.99 549.61,-327.75"/>
</g>
<!-- Node18 -->
<g id="node18" class="node">
<title>Node18</title>
<g id="a_node18"><a xlink:href="guwhiteboarddeserialiser_8c.html" target="_top" xlink:title=" ">
<polygon fill="none" stroke="black" points="386,-207 386,-226 517,-226 517,-207 386,-207"/>
<text text-anchor="middle" x="451.5" y="-214" font-family="Helvetica,sans-Serif" font-size="10.00">guwhiteboarddeserialiser.c</text>
</a>
</g>
</g>
<!-- Node17&#45;&gt;Node18 -->
<g id="edge18" class="edge">
<title>Node17&#45;&gt;Node18</title>
<path fill="none" stroke="midnightblue" d="M487.61,-265.4C478.09,-252.77 465.52,-236.1 458,-226.13"/>
<polygon fill="midnightblue" stroke="midnightblue" points="485.08,-267.86 493.89,-273.73 490.67,-263.64 485.08,-267.86"/>
</g>
<!-- Node19 -->
<g id="node19" class="node">
<title>Node19</title>
<g id="a_node19"><a xlink:href="guwhiteboardserialiser_8c.html" target="_top" xlink:title=" ">
<polygon fill="none" stroke="black" points="535,-207 535,-226 656,-226 656,-207 535,-207"/>
<text text-anchor="middle" x="595.5" y="-214" font-family="Helvetica,sans-Serif" font-size="10.00">guwhiteboardserialiser.c</text>
</a>
</g>
</g>
<!-- Node17&#45;&gt;Node19 -->
<g id="edge19" class="edge">
<title>Node17&#45;&gt;Node19</title>
<path fill="none" stroke="midnightblue" d="M521.81,-267.92C540.59,-255.07 567.32,-236.78 582.89,-226.13"/>
<polygon fill="midnightblue" stroke="midnightblue" points="519.59,-265.2 513.31,-273.73 523.54,-270.98 519.59,-265.2"/>
</g>
</g>
</svg>
