<?xml version="1.0" encoding="UTF-8" standalone="no"?>
<!DOCTYPE svg PUBLIC "-//W3C//DTD SVG 1.1//EN"
 "http://www.w3.org/Graphics/SVG/1.1/DTD/svg11.dtd">
<!-- Generated by graphviz version 2.49.0 (20210830.1337)
 -->
<!-- Title: typeClassDefs/wb_line_sighting.c Pages: 1 -->
<svg width="451pt" height="207pt"
 viewBox="0.00 0.00 450.67 207.00" xmlns="http://www.w3.org/2000/svg" xmlns:xlink="http://www.w3.org/1999/xlink">
<g id="graph0" class="graph" transform="scale(1 1) rotate(0) translate(4 203)">
<title>typeClassDefs/wb_line_sighting.c</title>
<!-- Node1 -->
<g id="node1" class="node">
<title>Node1</title>
<g id="a_node1"><a xlink:title=" ">
<polygon fill="#bfbfbf" stroke="black" points="198.17,-168.5 198.17,-198.5 314.17,-198.5 314.17,-168.5 198.17,-168.5"/>
<text text-anchor="start" x="206.17" y="-186.5" font-family="Helvetica,sans-Serif" font-size="10.00">typeClassDefs/wb_line</text>
<text text-anchor="middle" x="256.17" y="-175.5" font-family="Helvetica,sans-Serif" font-size="10.00">_sighting.c</text>
</a>
</g>
</g>
<!-- Node2 -->
<g id="node2" class="node">
<title>Node2</title>
<g id="a_node2"><a xlink:href="wb__line__sighting_8h.html" target="_top" xlink:title=" ">
<polygon fill="none" stroke="black" points="21.17,-112.5 21.17,-131.5 117.17,-131.5 117.17,-112.5 21.17,-112.5"/>
<text text-anchor="middle" x="69.17" y="-119.5" font-family="Helvetica,sans-Serif" font-size="10.00">wb_line_sighting.h</text>
</a>
</g>
</g>
<!-- Node1&#45;&gt;Node2 -->
<g id="edge1" class="edge">
<title>Node1&#45;&gt;Node2</title>
<path fill="none" stroke="midnightblue" d="M211.85,-168.4C179.54,-158.12 136.27,-144.35 105.89,-134.68"/>
<polygon fill="midnightblue" stroke="midnightblue" points="106.7,-131.27 96.11,-131.57 104.58,-137.94 106.7,-131.27"/>
</g>
<!-- Node6 -->
<g id="node6" class="node">
<title>Node6</title>
<g id="a_node6"><a xlink:title=" ">
<polygon fill="none" stroke="#bfbfbf" points="135.67,-112.5 135.67,-131.5 180.67,-131.5 180.67,-112.5 135.67,-112.5"/>
<text text-anchor="middle" x="158.17" y="-119.5" font-family="Helvetica,sans-Serif" font-size="10.00">stdio.h</text>
</a>
</g>
</g>
<!-- Node1&#45;&gt;Node6 -->
<g id="edge7" class="edge">
<title>Node1&#45;&gt;Node6</title>
<path fill="none" stroke="midnightblue" d="M232.95,-168.4C217.38,-158.95 196.97,-146.56 181.41,-137.11"/>
<polygon fill="midnightblue" stroke="midnightblue" points="182.8,-133.86 172.43,-131.66 179.16,-139.84 182.8,-133.86"/>
</g>
<!-- Node7 -->
<g id="node7" class="node">
<title>Node7</title>
<g id="a_node7"><a xlink:title=" ">
<polygon fill="none" stroke="#bfbfbf" points="199.17,-112.5 199.17,-131.5 247.17,-131.5 247.17,-112.5 199.17,-112.5"/>
<text text-anchor="middle" x="223.17" y="-119.5" font-family="Helvetica,sans-Serif" font-size="10.00">string.h</text>
</a>
</g>
</g>
<!-- Node1&#45;&gt;Node7 -->
<g id="edge8" class="edge">
<title>Node1&#45;&gt;Node7</title>
<path fill="none" stroke="midnightblue" d="M248.35,-168.4C243.7,-160.02 237.77,-149.33 232.83,-140.42"/>
<polygon fill="midnightblue" stroke="midnightblue" points="235.88,-138.71 227.97,-131.66 229.76,-142.1 235.88,-138.71"/>
</g>
<!-- Node8 -->
<g id="node8" class="node">
<title>Node8</title>
<g id="a_node8"><a xlink:title=" ">
<polygon fill="none" stroke="#bfbfbf" points="265.67,-112.5 265.67,-131.5 312.67,-131.5 312.67,-112.5 265.67,-112.5"/>
<text text-anchor="middle" x="289.17" y="-119.5" font-family="Helvetica,sans-Serif" font-size="10.00">stdlib.h</text>
</a>
</g>
</g>
<!-- Node1&#45;&gt;Node8 -->
<g id="edge9" class="edge">
<title>Node1&#45;&gt;Node8</title>
<path fill="none" stroke="midnightblue" d="M263.99,-168.4C268.64,-160.02 274.57,-149.33 279.51,-140.42"/>
<polygon fill="midnightblue" stroke="midnightblue" points="282.58,-142.1 284.37,-131.66 276.46,-138.71 282.58,-142.1"/>
</g>
<!-- Node9 -->
<g id="node9" class="node">
<title>Node9</title>
<g id="a_node9"><a xlink:title=" ">
<polygon fill="none" stroke="#bfbfbf" points="330.67,-112.5 330.67,-131.5 377.67,-131.5 377.67,-112.5 330.67,-112.5"/>
<text text-anchor="middle" x="354.17" y="-119.5" font-family="Helvetica,sans-Serif" font-size="10.00">ctype.h</text>
</a>
</g>
</g>
<!-- Node1&#45;&gt;Node9 -->
<g id="edge10" class="edge">
<title>Node1&#45;&gt;Node9</title>
<path fill="none" stroke="midnightblue" d="M279.4,-168.4C294.96,-158.95 315.37,-146.56 330.93,-137.11"/>
<polygon fill="midnightblue" stroke="midnightblue" points="333.18,-139.84 339.91,-131.66 329.55,-133.86 333.18,-139.84"/>
</g>
<!-- Node10 -->
<g id="node10" class="node">
<title>Node10</title>
<g id="a_node10"><a xlink:title=" ">
<polygon fill="none" stroke="#bfbfbf" points="395.67,-112.5 395.67,-131.5 442.67,-131.5 442.67,-112.5 395.67,-112.5"/>
<text text-anchor="middle" x="419.17" y="-119.5" font-family="Helvetica,sans-Serif" font-size="10.00">limits.h</text>
</a>
</g>
</g>
<!-- Node1&#45;&gt;Node10 -->
<g id="edge11" class="edge">
<title>Node1&#45;&gt;Node10</title>
<path fill="none" stroke="midnightblue" d="M294.8,-168.4C322.51,-158.28 359.48,-144.79 385.89,-135.15"/>
<polygon fill="midnightblue" stroke="midnightblue" points="387.26,-138.37 395.45,-131.66 384.86,-131.8 387.26,-138.37"/>
</g>
<!-- Node3 -->
<g id="node3" class="node">
<title>Node3</title>
<g id="a_node3"><a xlink:title=" ">
<polygon fill="none" stroke="#bfbfbf" points="3.67,-0.5 3.67,-19.5 56.67,-19.5 56.67,-0.5 3.67,-0.5"/>
<text text-anchor="middle" x="30.17" y="-7.5" font-family="Helvetica,sans-Serif" font-size="10.00">gu_util.h</text>
</a>
</g>
</g>
<!-- Node2&#45;&gt;Node3 -->
<g id="edge2" class="edge">
<title>Node2&#45;&gt;Node3</title>
<path fill="none" stroke="midnightblue" d="M46.71,-112.38C31.4,-105.18 12.31,-93.29 3.17,-76 -5.26,-60.05 5.02,-40.87 15.23,-27.5"/>
<polygon fill="midnightblue" stroke="midnightblue" points="18.05,-29.58 21.73,-19.64 12.66,-25.12 18.05,-29.58"/>
</g>
<!-- Node4 -->
<g id="node4" class="node">
<title>Node4</title>
<g id="a_node4"><a xlink:title=" ">
<polygon fill="none" stroke="#bfbfbf" points="83.17,-0.5 83.17,-19.5 131.17,-19.5 131.17,-0.5 83.17,-0.5"/>
<text text-anchor="middle" x="107.17" y="-7.5" font-family="Helvetica,sans-Serif" font-size="10.00">stdint.h</text>
</a>
</g>
</g>
<!-- Node2&#45;&gt;Node4 -->
<g id="edge3" class="edge">
<title>Node2&#45;&gt;Node4</title>
<path fill="none" stroke="midnightblue" d="M91.63,-112.38C106.94,-105.18 126.03,-93.29 135.17,-76 143.65,-59.96 133.03,-40.8 122.53,-27.45"/>
<polygon fill="midnightblue" stroke="midnightblue" points="124.99,-24.95 115.84,-19.61 119.67,-29.49 124.99,-24.95"/>
</g>
<!-- Node5 -->
<g id="node5" class="node">
<title>Node5</title>
<g id="a_node5"><a xlink:href="wb__polar__coordinate_8h.html" target="_top" xlink:title=" ">
<polygon fill="none" stroke="black" points="12.67,-56.5 12.67,-75.5 125.67,-75.5 125.67,-56.5 12.67,-56.5"/>
<text text-anchor="middle" x="69.17" y="-63.5" font-family="Helvetica,sans-Serif" font-size="10.00">wb_polar_coordinate.h</text>
</a>
</g>
</g>
<!-- Node2&#45;&gt;Node5 -->
<g id="edge4" class="edge">
<title>Node2&#45;&gt;Node5</title>
<path fill="none" stroke="midnightblue" d="M69.17,-112.08C69.17,-105.01 69.17,-94.86 69.17,-85.99"/>
<polygon fill="midnightblue" stroke="midnightblue" points="72.67,-85.75 69.17,-75.75 65.67,-85.75 72.67,-85.75"/>
</g>
<!-- Node5&#45;&gt;Node3 -->
<g id="edge5" class="edge">
<title>Node5&#45;&gt;Node3</title>
<path fill="none" stroke="midnightblue" d="M62.73,-56.08C57.22,-48.46 49.14,-37.26 42.41,-27.94"/>
<polygon fill="midnightblue" stroke="midnightblue" points="45.18,-25.81 36.49,-19.75 39.51,-29.91 45.18,-25.81"/>
</g>
<!-- Node5&#45;&gt;Node4 -->
<g id="edge6" class="edge">
<title>Node5&#45;&gt;Node4</title>
<path fill="none" stroke="midnightblue" d="M75.45,-56.08C80.81,-48.46 88.69,-37.26 95.25,-27.94"/>
<polygon fill="midnightblue" stroke="midnightblue" points="98.12,-29.94 101.01,-19.75 92.4,-25.91 98.12,-29.94"/>
</g>
</g>
</svg>
