<?xml version="1.0" encoding="UTF-8" standalone="no"?>
<!DOCTYPE svg PUBLIC "-//W3C//DTD SVG 1.1//EN"
 "http://www.w3.org/Graphics/SVG/1.1/DTD/svg11.dtd">
<!-- Generated by graphviz version 2.49.0 (20210830.1337)
 -->
<!-- Title: typeClassDefs/wb_io_pins.h Pages: 1 -->
<svg width="412pt" height="285pt"
 viewBox="0.00 0.00 411.50 285.00" xmlns="http://www.w3.org/2000/svg" xmlns:xlink="http://www.w3.org/1999/xlink">
<g id="graph0" class="graph" transform="scale(1 1) rotate(0) translate(4 281)">
<title>typeClassDefs/wb_io_pins.h</title>
<!-- Node1 -->
<g id="node1" class="node">
<title>Node1</title>
<g id="a_node1"><a xlink:title=" ">
<polygon fill="#bfbfbf" stroke="black" points="153.5,-246.5 153.5,-276.5 261.5,-276.5 261.5,-246.5 153.5,-246.5"/>
<text text-anchor="start" x="161.5" y="-264.5" font-family="Helvetica,sans-Serif" font-size="10.00">typeClassDefs/wb_io</text>
<text text-anchor="middle" x="207.5" y="-253.5" font-family="Helvetica,sans-Serif" font-size="10.00">_pins.h</text>
</a>
</g>
</g>
<!-- Node2 -->
<g id="node2" class="node">
<title>Node2</title>
<g id="a_node2"><a xlink:href="_channels_8hpp.html" target="_top" xlink:title=" ">
<polygon fill="none" stroke="black" points="60,-190.5 60,-209.5 201,-209.5 201,-190.5 60,-190.5"/>
<text text-anchor="middle" x="130.5" y="-197.5" font-family="Helvetica,sans-Serif" font-size="10.00">typeClassDefs/Channels.hpp</text>
</a>
</g>
</g>
<!-- Node1&#45;&gt;Node2 -->
<g id="edge1" class="edge">
<title>Node1&#45;&gt;Node2</title>
<path fill="none" stroke="midnightblue" d="M181.21,-240.19C167.73,-229.77 152.02,-217.63 141.7,-209.66"/>
<polygon fill="midnightblue" stroke="midnightblue" points="179.2,-243.05 189.25,-246.4 183.48,-237.52 179.2,-243.05"/>
</g>
<!-- Node10 -->
<g id="node10" class="node">
<title>Node10</title>
<g id="a_node10"><a xlink:href="_i_o_pins_8hpp.html" target="_top" xlink:title=" ">
<polygon fill="none" stroke="black" points="219,-190.5 219,-209.5 350,-209.5 350,-190.5 219,-190.5"/>
<text text-anchor="middle" x="284.5" y="-197.5" font-family="Helvetica,sans-Serif" font-size="10.00">typeClassDefs/IOPins.hpp</text>
</a>
</g>
</g>
<!-- Node1&#45;&gt;Node10 -->
<g id="edge9" class="edge">
<title>Node1&#45;&gt;Node10</title>
<path fill="none" stroke="midnightblue" d="M233.79,-240.19C247.27,-229.77 262.98,-217.63 273.3,-209.66"/>
<polygon fill="midnightblue" stroke="midnightblue" points="231.52,-237.52 225.75,-246.4 235.8,-243.05 231.52,-237.52"/>
</g>
<!-- Node3 -->
<g id="node3" class="node">
<title>Node3</title>
<g id="a_node3"><a xlink:href="guwhiteboardposter_8h.html" target="_top" xlink:title=" ">
<polygon fill="none" stroke="black" points="156,-134.5 156,-153.5 265,-153.5 265,-134.5 156,-134.5"/>
<text text-anchor="middle" x="210.5" y="-141.5" font-family="Helvetica,sans-Serif" font-size="10.00">guwhiteboardposter.h</text>
</a>
</g>
</g>
<!-- Node2&#45;&gt;Node3 -->
<g id="edge2" class="edge">
<title>Node2&#45;&gt;Node3</title>
<path fill="none" stroke="midnightblue" d="M151.8,-184.62C166.42,-174.76 185.33,-161.99 197.68,-153.65"/>
<polygon fill="midnightblue" stroke="midnightblue" points="149.68,-181.83 143.35,-190.32 153.6,-187.63 149.68,-181.83"/>
</g>
<!-- Node9 -->
<g id="node9" class="node">
<title>Node9</title>
<g id="a_node9"><a xlink:href="_channels_8h.html" target="_top" xlink:title=" ">
<polygon fill="none" stroke="black" points="7,-134.5 7,-153.5 138,-153.5 138,-134.5 7,-134.5"/>
<text text-anchor="middle" x="72.5" y="-141.5" font-family="Helvetica,sans-Serif" font-size="10.00">typeClassDefs/Channels.h</text>
</a>
</g>
</g>
<!-- Node2&#45;&gt;Node9 -->
<g id="edge8" class="edge">
<title>Node2&#45;&gt;Node9</title>
<path fill="none" stroke="midnightblue" d="M113.59,-183.25C103.3,-173.67 90.53,-161.79 81.99,-153.83"/>
<polygon fill="midnightblue" stroke="midnightblue" points="111.48,-186.07 121.18,-190.32 116.25,-180.95 111.48,-186.07"/>
</g>
<!-- Node4 -->
<g id="node4" class="node">
<title>Node4</title>
<g id="a_node4"><a xlink:href="_simple_whiteboard_test_8h.html" target="_top" xlink:title=" ">
<polygon fill="none" stroke="black" points="11,-67.5 11,-97.5 136,-97.5 136,-67.5 11,-67.5"/>
<text text-anchor="start" x="19" y="-85.5" font-family="Helvetica,sans-Serif" font-size="10.00">SimpleWhiteboardTest</text>
<text text-anchor="middle" x="73.5" y="-74.5" font-family="Helvetica,sans-Serif" font-size="10.00">/SimpleWhiteboardTest.h</text>
</a>
</g>
</g>
<!-- Node3&#45;&gt;Node4 -->
<g id="edge3" class="edge">
<title>Node3&#45;&gt;Node4</title>
<path fill="none" stroke="midnightblue" d="M181.63,-130.46C159.44,-120.82 128.79,-107.51 105.79,-97.52"/>
<polygon fill="midnightblue" stroke="midnightblue" points="180.3,-133.7 190.87,-134.48 183.09,-127.28 180.3,-133.7"/>
</g>
<!-- Node6 -->
<g id="node6" class="node">
<title>Node6</title>
<g id="a_node6"><a xlink:href="guwhiteboardgetter_8h.html" target="_top" xlink:title=" ">
<polygon fill="none" stroke="black" points="157,-73 157,-92 264,-92 264,-73 157,-73"/>
<text text-anchor="middle" x="210.5" y="-80" font-family="Helvetica,sans-Serif" font-size="10.00">guwhiteboardgetter.h</text>
</a>
</g>
</g>
<!-- Node3&#45;&gt;Node6 -->
<g id="edge5" class="edge">
<title>Node3&#45;&gt;Node6</title>
<path fill="none" stroke="midnightblue" d="M210.5,-124.32C210.5,-113.5 210.5,-100.4 210.5,-92.01"/>
<polygon fill="midnightblue" stroke="midnightblue" points="207,-124.48 210.5,-134.48 214,-124.48 207,-124.48"/>
</g>
<!-- Node8 -->
<g id="node8" class="node">
<title>Node8</title>
<g id="a_node8"><a xlink:href="guwhiteboardposter_8cpp.html" target="_top" xlink:title=" ">
<polygon fill="none" stroke="black" points="282,-73 282,-92 401,-92 401,-73 282,-73"/>
<text text-anchor="middle" x="341.5" y="-80" font-family="Helvetica,sans-Serif" font-size="10.00">guwhiteboardposter.cpp</text>
</a>
</g>
</g>
<!-- Node3&#45;&gt;Node8 -->
<g id="edge7" class="edge">
<title>Node3&#45;&gt;Node8</title>
<path fill="none" stroke="midnightblue" d="M238.4,-130.33C263.83,-118.78 300.7,-102.03 322.77,-92.01"/>
<polygon fill="midnightblue" stroke="midnightblue" points="236.93,-127.15 229.27,-134.48 239.82,-133.53 236.93,-127.15"/>
</g>
<!-- Node5 -->
<g id="node5" class="node">
<title>Node5</title>
<g id="a_node5"><a xlink:href="_simple_whiteboard_test_8mm.html" target="_top" xlink:title=" ">
<polygon fill="none" stroke="black" points="0,-0.5 0,-30.5 137,-30.5 137,-0.5 0,-0.5"/>
<text text-anchor="start" x="8" y="-18.5" font-family="Helvetica,sans-Serif" font-size="10.00">SimpleWhiteboardTest</text>
<text text-anchor="middle" x="68.5" y="-7.5" font-family="Helvetica,sans-Serif" font-size="10.00">/SimpleWhiteboardTest.mm</text>
</a>
</g>
</g>
<!-- Node4&#45;&gt;Node5 -->
<g id="edge4" class="edge">
<title>Node4&#45;&gt;Node5</title>
<path fill="none" stroke="midnightblue" d="M71.65,-57.4C70.95,-48.37 70.19,-38.41 69.58,-30.58"/>
<polygon fill="midnightblue" stroke="midnightblue" points="68.16,-57.69 72.42,-67.4 75.14,-57.16 68.16,-57.69"/>
</g>
<!-- Node7 -->
<g id="node7" class="node">
<title>Node7</title>
<g id="a_node7"><a xlink:href="guwhiteboardgetter_8cpp.html" target="_top" xlink:title=" ">
<polygon fill="none" stroke="black" points="155,-6 155,-25 272,-25 272,-6 155,-6"/>
<text text-anchor="middle" x="213.5" y="-13" font-family="Helvetica,sans-Serif" font-size="10.00">guwhiteboardgetter.cpp</text>
</a>
</g>
</g>
<!-- Node6&#45;&gt;Node7 -->
<g id="edge6" class="edge">
<title>Node6&#45;&gt;Node7</title>
<path fill="none" stroke="midnightblue" d="M211.38,-62.54C211.95,-50.17 212.66,-34.62 213.1,-25.13"/>
<polygon fill="midnightblue" stroke="midnightblue" points="207.87,-62.58 210.9,-72.73 214.86,-62.91 207.87,-62.58"/>
</g>
<!-- Node10&#45;&gt;Node3 -->
<g id="edge10" class="edge">
<title>Node10&#45;&gt;Node3</title>
<path fill="none" stroke="midnightblue" d="M264.47,-184.38C251.09,-174.62 233.94,-162.11 222.61,-153.83"/>
<polygon fill="midnightblue" stroke="midnightblue" points="262.47,-187.26 272.61,-190.32 266.6,-181.6 262.47,-187.26"/>
</g>
<!-- Node11 -->
<g id="node11" class="node">
<title>Node11</title>
<g id="a_node11"><a xlink:href="_i_o_pins_8h.html" target="_top" xlink:title=" ">
<polygon fill="none" stroke="black" points="283.5,-134.5 283.5,-153.5 403.5,-153.5 403.5,-134.5 283.5,-134.5"/>
<text text-anchor="middle" x="343.5" y="-141.5" font-family="Helvetica,sans-Serif" font-size="10.00">typeClassDefs/IOPins.h</text>
</a>
</g>
</g>
<!-- Node10&#45;&gt;Node11 -->
<g id="edge11" class="edge">
<title>Node10&#45;&gt;Node11</title>
<path fill="none" stroke="midnightblue" d="M301.39,-183.54C311.91,-173.91 325.07,-161.87 333.85,-153.83"/>
<polygon fill="midnightblue" stroke="midnightblue" points="298.99,-180.99 293.98,-190.32 303.72,-186.15 298.99,-180.99"/>
</g>
</g>
</svg>
